<?xml version="1.0" encoding="utf-8"?>
<!-- Generator: Adobe Illustrator 23.0.1, SVG Export Plug-In . SVG Version: 6.00 Build 0)  -->
<svg version="1.1" id="Layer_1" xmlns="http://www.w3.org/2000/svg" xmlns:xlink="http://www.w3.org/1999/xlink" x="0px" y="0px"
	 viewBox="0 0 3500 1264" style="enable-background:new 0 0 3500 1264;" xml:space="preserve">
<style type="text/css">
	.st0{fill:none;stroke:#EFB76C;stroke-width:23;stroke-linecap:round;stroke-linejoin:round;}
	.st1{clip-path:url(#SVGID_2_);}
	.st2{fill:#EBEBEB;}
	.st3{fill:#C9C9C9;}
	.st4{fill:#E0E0E0;}
	.st5{fill:#FFFFFF;}
	.st6{fill:#FFA412;}
	.st7{fill:#EEF6FF;}
	.st8{fill:#78ACEA;}
	.st9{fill:#BAE8E3;}
	.st10{fill:#A1D6CE;}
	.st11{fill:#F99746;}
	.st12{fill:#F5F5F5;}
	.st13{fill:#B7D3F3;}
	.st14{fill:#FFB27D;}
	.st15{fill:#233862;}
	.st16{fill:#A9453D;}
	.st17{fill:#ED975D;}
	.st18{fill:#2D3A3F;}
	.st19{fill:#5F9AA8;}
	.st20{fill:#FFC93C;}
	.st21{fill:#263238;}
	.st22{fill:#1E3D70;}
	.st23{fill:#FFDF93;}
	.st24{fill:#163560;}
	.st25{fill:#E8945B;}
	.st26{fill:#EBF3FA;}
	.st27{fill:#F2CCAA;}
	.st28{fill:#B5453C;}
	.st29{fill:#00858E;}
	.st30{fill:#E2915A;}
	.st31{fill:#007477;}
	.st32{fill:#2E3552;}
	.st33{clip-path:url(#SVGID_4_);}
	.st34{fill:#DFEBFD;}
	.st35{fill:#375DAA;}
	.st36{fill:#EFC8AB;}
	.st37{fill:#FFEDDC;}
	.st38{fill:#F7DCC6;}
	.st39{fill:#E8B795;}
	.st40{fill:#E2810E;}
	.st41{fill:#FFB93E;}
	.st42{fill:#2C3A64;}
	.st43{fill:#ED985F;}
	.st44{fill:#EDB22F;}
	.st45{fill:#FAFDFF;}
	.st46{fill:#699DEE;}
	.st47{fill:#F9DDBF;}
	.st48{fill:#F4A269;}
	.st49{fill:#FFEAC5;}
	.st50{fill:#95C0F4;}
	.st51{fill:#B0D4FF;}
	.st52{fill:none;}
	.st53{opacity:0.4;}
	.st54{opacity:0.4;fill:#EBEBEB;enable-background:new    ;}
	.st55{fill:#1B1B43;}
	.st56{fill:#3A4A51;}
	.st57{fill:#FFBC96;}
	.st58{fill:#D28572;}
	.st59{fill:#925D4F;}
	.st60{fill:#EFB76C;}
</style>
<path class="st0" d="M1388.87,1264.42c185.04,99.6,376.02,174.26,566.21,249.58c180.61,71.52,380.66,120.29,532.88,290.32
	c118.26,132.09,179.46,357.81,126.73,569.37c-14.32,57.44-35.71,108.42-62.37,153.89"/>
<path class="st0" d="M1189.39,4.38c-129.51,125.33-232.31,293.48-262.37,525.69c-52.36,404.46,222.57,602.54,438.3,721.51
	c6.97,3.84,13.95,7.65,20.94,11.42"/>
<path class="st0" d="M3500-1001.05c-16.19,20.13-33.06,39.36-50.75,57.49c-88.91,91.12-195.23,132.77-298.28,175.54
	c-153.28,63.61-310.89,98.15-467.05,143.13c-357.65,103.02-714.55,202.64-1063.91,356.93c-134.46,59.38-288.62,139.39-418.17,260.5"
	/>
<g>
	<defs>
		<rect id="SVGID_1_" x="201.26" y="-41.45" width="1714.74" height="1072.1"/>
	</defs>
	<clipPath id="SVGID_2_">
		<use xlink:href="#SVGID_1_"  style="overflow:visible;"/>
	</clipPath>
	<g class="st1">
		<path class="st2" d="M1191.1,873.7h0.16c1.07,0,1.98-0.91,1.93-1.98l-2.95-127.79l-8.68-1.02l7.39,128.81
			C1189.06,872.84,1189.97,873.7,1191.1,873.7z"/>
		<path class="st3" d="M1241.68,873.7h0.16c1.07,0,1.98-0.91,1.93-1.98l-2.95-127.79l-8.68-1.02l7.4,128.81
			C1239.64,872.84,1240.61,873.7,1241.68,873.7z"/>
		<path class="st2" d="M1102.09,873.7h-0.16c-1.07,0-1.98-0.91-1.93-1.98l2.95-127.79l8.68-1.02l-7.39,128.81
			C1104.13,872.84,1103.22,873.7,1102.09,873.7z"/>
		<path class="st2" d="M1247.47,735.99v-87.59c0-15.44-12.49-27.93-27.92-27.93h-63.07c-15.43,0-27.92,12.49-27.92,27.93v90.92
			L1247.47,735.99z"/>
		<path class="st3" d="M1117.31,749.81h121.8c4.61,0,8.36-3.75,8.36-8.36v-5.47h-130.16V749.81z"/>
		<path class="st4" d="M1102.73,749.81h92.11c3.43,0,6.22-2.79,6.22-6.22v-1.45c0-3.43-2.79-6.22-6.22-6.22h-92.11
			c-3.43,0-6.22,2.79-6.22,6.22v1.45C1096.52,747.03,1099.3,749.81,1102.73,749.81z"/>
		<path class="st3" d="M1314.98,275.09H951.41v313.96h363.58V275.09z"/>
		<path class="st2" d="M1307.91,280.29H958.32v302.49h349.59V280.29z"/>
		<path class="st5" d="M1080.49,411.94h-76.57v-95.74l12.97-11.68h63.61V411.94z"/>
		<path class="st2" d="M1003.92,316.21h12.54l0.43-11.68L1003.92,316.21z"/>
		<path class="st2" d="M1054.5,313.85h-24.54v1.18h24.54V313.85z"/>
		<path class="st2" d="M1060.24,317.33h-36.06v1.18h36.06V317.33z"/>
		<path class="st2" d="M1072.88,339.84h-59.91v1.5h59.91V339.84z"/>
		<path class="st2" d="M1072.88,344.4h-59.91v1.5h59.91V344.4z"/>
		<path class="st2" d="M1072.88,348.96h-59.91v1.5h59.91V348.96z"/>
		<path class="st2" d="M1072.88,353.52h-59.91v1.5h59.91V353.52z"/>
		<path class="st2" d="M1072.88,402.35h-59.91v1.5h59.91V402.35z"/>
		<path class="st5" d="M1168.97,544.67h-76.63v-95.69l13.02-11.68h63.61V544.67z"/>
		<path class="st2" d="M1092.34,448.98h12.59l0.43-11.68L1092.34,448.98z"/>
		<path class="st2" d="M1142.92,446.57h-24.54v1.18h24.54V446.57z"/>
		<path class="st2" d="M1148.71,450.11h-36.06v1.18h36.06V450.11z"/>
		<path class="st2" d="M1161.36,472.62h-59.91v1.5h59.91V472.62z"/>
		<path class="st2" d="M1161.36,477.18h-59.91v1.5h59.91V477.18z"/>
		<path class="st2" d="M1161.36,481.74h-59.91v1.5h59.91V481.74z"/>
		<path class="st2" d="M1161.36,486.3h-59.91v1.5h59.91V486.3z"/>
		<path class="st2" d="M1161.36,500.34h-59.91v1.5h59.91V500.34z"/>
		<path class="st2" d="M1161.36,504.89h-59.91v1.5h59.91V504.89z"/>
		<path class="st2" d="M1161.36,510.2h-59.91v1.5h59.91V510.2z"/>
		<path class="st2" d="M1212.21,304.52h-42.28v37.31h42.28V304.52z"/>
		<path class="st6" d="M1189.22,308.97c0-1.02,0.86-1.88,1.88-1.88c1.02,0,1.88,0.8,1.88,1.88c0,1.02-0.86,1.88-1.88,1.88
			C1190.08,310.85,1189.22,309.99,1189.22,308.97z"/>
		<path class="st5" d="M1210.89,353.6l-42.18,2.94l2.6,37.22l42.18-2.94L1210.89,353.6z"/>
		<path class="st2" d="M1188.36,361.88c-0.05-1.02,0.7-1.93,1.71-1.98c1.02-0.05,1.93,0.7,1.98,1.72c0.05,1.02-0.7,1.93-1.71,1.98
			C1189.33,363.65,1188.47,362.9,1188.36,361.88z"/>
		<path class="st5" d="M1070.27,491.05l-42.18,2.94l2.6,37.22l42.18-2.94L1070.27,491.05z"/>
		<path class="st2" d="M1047.81,499.32c-0.05-1.02,0.7-1.93,1.71-1.98c1.02-0.06,1.93,0.7,1.98,1.71c0.06,1.02-0.7,1.93-1.71,1.98
			C1048.77,501.09,1047.86,500.34,1047.81,499.32z"/>
		<path class="st5" d="M1017.09,517.68l-42.28,0.44l0.39,37.31l42.28-0.44L1017.09,517.68z"/>
		<path class="st2" d="M994.28,524.73c0-1.02,0.8-1.88,1.82-1.88c1.02,0,1.88,0.81,1.88,1.82c0,1.02-0.8,1.88-1.82,1.88
			C995.13,526.55,994.28,525.75,994.28,524.73z"/>
		<path class="st7" d="M1233.28,376.07l-6.56,36.73l41.62,7.44l6.56-36.73L1233.28,376.07z"/>
		<path class="st8" d="M1251.59,384.5c0.16-0.86,0.96-1.45,1.88-1.29c0.91,0.16,1.45,0.96,1.29,1.88c-0.16,0.86-0.96,1.45-1.88,1.29
			C1252.02,386.21,1251.43,385.36,1251.59,384.5z"/>
		<path class="st7" d="M1144.93,352.8l-42.03,4.55l4.01,37.09l42.03-4.55L1144.93,352.8z"/>
		<path class="st8" d="M1122.88,360.27c-0.11-0.91,0.54-1.66,1.45-1.77c0.91-0.11,1.66,0.54,1.77,1.45
			c0.11,0.91-0.53,1.66-1.45,1.77C1123.74,361.82,1122.99,361.18,1122.88,360.27z"/>
		<path class="st9" d="M1035.08,441.01l-41.35,8.82l7.78,36.49l41.35-8.82L1035.08,441.01z"/>
		<path class="st6" d="M1014.64,451.67c-0.75-0.49-0.96-1.5-0.48-2.25c0.48-0.75,1.5-0.96,2.25-0.48c0.75,0.48,0.96,1.5,0.48,2.25
			C1016.41,451.93,1015.39,452.15,1014.64,451.67z"/>
		<path class="st5" d="M1146.08,341.83h-40.29v-27.07l11.14-10.24h29.15V341.83z"/>
		<path class="st2" d="M1105.57,314.76h10.99l0.37-10.24L1105.57,314.76z"/>
		<path class="st2" d="M1126.1,307.95c0-0.75,0.59-1.34,1.34-1.34c0.75,0,1.34,0.59,1.34,1.34c0,0.75-0.59,1.34-1.34,1.34
			C1126.69,309.29,1126.1,308.7,1126.1,307.95z"/>
		<path class="st5" d="M1263.7,563.32h-40.24v-27.07l11.14-10.24h29.1V563.32z"/>
		<path class="st2" d="M1223.25,536.25h10.98l0.38-10.24L1223.25,536.25z"/>
		<path class="st2" d="M1243.72,529.5c0-0.75,0.59-1.34,1.34-1.34c0.75,0,1.34,0.59,1.34,1.34c0,0.75-0.59,1.34-1.34,1.34
			C1244.31,530.79,1243.72,530.2,1243.72,529.5z"/>
		<path class="st5" d="M1282.08,509.61h-40.3v-27.02l11.15-10.29h29.15V509.61z"/>
		<path class="st2" d="M1241.57,482.59h10.98l0.37-10.29L1241.57,482.59z"/>
		<path class="st2" d="M1262.1,475.79c0-0.75,0.59-1.34,1.34-1.34c0.75,0,1.34,0.59,1.34,1.34s-0.59,1.34-1.34,1.34
			C1262.69,477.13,1262.1,476.54,1262.1,475.79z"/>
		<path class="st9" d="M1228.93,509.61h-40.24v-27.02l11.14-10.29h29.1V509.61z"/>
		<path class="st10" d="M1188.47,482.59h10.98l0.38-10.29L1188.47,482.59z"/>
		<path class="st11" d="M1208.94,475.79c0-0.75,0.59-1.34,1.34-1.34c0.75,0,1.34,0.59,1.34,1.34s-0.59,1.34-1.34,1.34
			C1209.53,477.13,1208.94,476.54,1208.94,475.79z"/>
		<path class="st9" d="M1293.44,332.45h-40.3v-27.02l11.15-10.24h29.15V332.45z"/>
		<path class="st10" d="M1252.93,305.43h11.04l0.32-10.24L1252.93,305.43z"/>
		<path class="st11" d="M1273.46,298.62c0-0.75,0.59-1.34,1.34-1.34c0.75,0,1.34,0.59,1.34,1.34c0,0.75-0.59,1.34-1.34,1.34
			C1274.05,299.96,1273.46,299.37,1273.46,298.62z"/>
		<path class="st3" d="M895.3,267.48h-76.57c-3.54,0-6.38-2.89-6.38-6.38v-73.97c0-3.54,2.9-6.38,6.38-6.38h76.57
			c3.54,0,6.38,2.89,6.38,6.38v73.92C901.68,264.58,898.79,267.48,895.3,267.48z"/>
		<path class="st12" d="M891.98,263.73h-69.93c-3.21,0-5.84-2.63-5.84-5.84v-67.54c0-3.22,2.63-5.84,5.84-5.84h69.93
			c3.22,0,5.84,2.63,5.84,5.84v67.54C897.82,261.1,895.2,263.73,891.98,263.73z"/>
		<path class="st13" d="M855.11,192.43c0-1.02,0.86-1.88,1.82-1.88c1.02,0,1.82,0.8,1.82,1.88c0,1.02-0.86,1.88-1.82,1.88
			C855.97,194.31,855.11,193.45,855.11,192.43z"/>
		<path class="st13" d="M870.06,195.06c0.48-0.91,1.61-1.23,2.52-0.7c0.91,0.48,1.23,1.61,0.7,2.52c-0.53,0.91-1.61,1.23-2.52,0.7
			C869.9,197.04,869.58,195.92,870.06,195.06z"/>
		<path class="st13" d="M882.87,205.19c0.86-0.54,1.98-0.32,2.57,0.54c0.53,0.86,0.32,1.98-0.53,2.57
			c-0.86,0.54-1.98,0.32-2.57-0.54C881.75,206.91,882.01,205.78,882.87,205.19z"/>
		<path class="st13" d="M889.19,220.95c1.02,0,1.82,0.8,1.82,1.88c0,1.02-0.86,1.88-1.82,1.88c-1.02,0-1.82-0.8-1.82-1.88
			S888.18,220.95,889.19,220.95z"/>
		<path class="st13" d="M885.98,239.23c0.7,0.7,0.7,1.88,0,2.63c-0.7,0.7-1.88,0.7-2.62,0c-0.75-0.7-0.7-1.88,0-2.63
			C884.1,238.48,885.23,238.48,885.98,239.23z"/>
		<path class="st13" d="M874.35,250.86c0.7,0.7,0.7,1.88,0,2.63c-0.7,0.7-1.88,0.7-2.63,0c-0.75-0.7-0.7-1.88,0-2.63
			C872.48,250.17,873.65,250.17,874.35,250.86z"/>
		<path class="st13" d="M855.11,256.87c0-1.02,0.86-1.88,1.82-1.88c1.02,0,1.82,0.8,1.82,1.88c0,1.07-0.86,1.88-1.82,1.88
			C855.97,258.74,855.11,257.94,855.11,256.87z"/>
		<path class="st13" d="M843.86,195.06c-0.48-0.91-1.61-1.23-2.52-0.7c-0.91,0.48-1.23,1.61-0.7,2.52c0.53,0.91,1.61,1.23,2.52,0.7
			C844.02,197.04,844.34,195.92,843.86,195.06z"/>
		<path class="st13" d="M831.05,205.19c-0.86-0.54-1.98-0.32-2.57,0.54c-0.54,0.86-0.32,1.98,0.53,2.57
			c0.86,0.54,1.98,0.32,2.57-0.54C832.13,206.91,831.91,205.78,831.05,205.19z"/>
		<path class="st13" d="M824.68,220.95c-1.02,0-1.82,0.8-1.82,1.88c0,1.02,0.86,1.88,1.82,1.88c1.02,0,1.88-0.8,1.88-1.88
			S825.75,220.95,824.68,220.95z"/>
		<path class="st13" d="M827.95,239.23c-0.7,0.7-0.7,1.88,0,2.63c0.7,0.7,1.88,0.7,2.63,0c0.75-0.7,0.7-1.88,0-2.63
			C829.88,238.48,828.64,238.48,827.95,239.23z"/>
		<path class="st13" d="M839.58,250.86c-0.7,0.7-0.7,1.88,0,2.63c0.7,0.7,1.88,0.7,2.63,0c0.75-0.7,0.7-1.88,0-2.63
			C841.45,250.17,840.27,250.17,839.58,250.86z"/>
		<path class="st13" d="M856.51,222.83c0-1.02,0.86-1.88,1.88-1.88c1.02,0,1.82,0.8,1.82,1.88c0,1.02-0.86,1.88-1.82,1.88
			C857.31,224.65,856.51,223.84,856.51,222.83z"/>
		<path class="st13" d="M858.6,199.67h-0.48v23.16h0.48V199.67z"/>
		<path class="st13" d="M869.92,212.53l-12.27,9.63l0.93,1.18l12.26-9.63L869.92,212.53z"/>
		<path class="st14" d="M1366.75,869.14c-0.38,4.99-7.4,5.04-15.33,4.13c-7.98-0.91-5.84,1.07-16.99,1.23
			c-11.14,0.16-15-3.54-15.54-5.14c-0.49-1.39,4.88-2.63,10.61-4.02c0.75-0.16,1.45-0.37,2.2-0.53c6.48-1.66,10.77-6.49,16.29-10.72
			c5.25-4.02,12-18.55,12-18.55l15.22-0.7c0,0-6.43,13.03-8.84,18.6c-1.39,3.32-0.8,7.34-0.21,10.45
			C1366.53,865.66,1366.86,867.37,1366.75,869.14z"/>
		<path class="st15" d="M1351.42,873.21c-7.98-0.91-5.84,1.07-16.99,1.23c-11.14,0.16-15-3.54-15.54-5.14
			c-0.49-1.4,4.88-2.63,10.61-4.02l0.05,0.11c0,0,7.18,3.86,16.34,2.95c7.5-0.75,15.11-3.86,20.31-4.45
			c0.32,1.71,0.64,3.43,0.54,5.2C1366.37,874.13,1359.35,874.18,1351.42,873.21z"/>
		<path class="st14" d="M1471.94,870.16c-0.37,4.99-7.39,5.04-15.32,4.13c-7.98-0.91-5.84,1.12-16.99,1.29
			c-11.14,0.16-15-3.54-15.54-5.09c-0.48-1.39,4.88-2.63,10.61-4.02c0.75-0.16,1.45-0.38,2.2-0.54c6.49-1.66,10.77-6.49,16.29-10.77
			c5.25-4.02,0-27.82,0-27.82l16.77-1.61c0,0-0.81,19.99-0.81,29.11c0,3.59,1.66,7.02,2.3,10.13
			C1471.72,866.67,1472.1,868.39,1471.94,870.16z"/>
		<path class="st15" d="M1456.61,874.29c-7.98-0.91-5.84,1.12-16.99,1.29c-11.14,0.16-15-3.54-15.54-5.09
			c-0.48-1.39,4.88-2.63,10.61-4.02l0.06,0.11c0,0,7.18,3.86,16.34,2.89c7.5-0.75,15.11-3.91,20.26-4.45
			c0.32,1.72,0.64,3.43,0.53,5.2C1471.56,875.14,1464.54,875.2,1456.61,874.29z"/>
		<path class="st16" d="M1423.07,459.17c-2.89-11.85,1.29-17.37,5.09-20.32c1.77-4.4,3.8-7.5,5.89-8.68
			c3.81-2.14,8.36-2.41,11.58-2.2c-0.81-0.86-2.47-1.18-2.47-1.18c1.98-0.27,6.38,1.66,6.38,1.66
			c27.54-10.61,31.83,29.91,31.29,39.35c-0.59,9.43-0.48,20.53,13.83,27.93c27.33,14.15-9.06,67.54-9.06,67.54
			c0.7-7.61-34.4-47.76-52.73-59.82c-4.45-6.59-6.06-18.17-6.16-19.08c0.75,9.22,2.36,14.37,3.75,17.26
			C1422.1,493.9,1420.82,475.47,1423.07,459.17z"/>
		<path class="st14" d="M1433.95,504.04c-0.11,0.05,8.84,4.66,15.59,2.84c6.32-1.71,10.45-9.92,10.39-9.92
			c-2.68-0.53-3.43-4.23-3.37-20.05l-1.23,0.22l-20.36,4.02c0,0,0.48,6.43,0.48,12.44C1435.39,498.68,1435.07,503.5,1433.95,504.04z
			"/>
		<path class="st17" d="M1434.91,481.15c0,0,0.48,6.43,0.48,12.44c11.41-0.32,17.42-10.72,19.88-16.46L1434.91,481.15z"/>
		<path class="st18" d="M1352.07,843.62c-1.02,3.11,1.23,6.32,4.5,6.49l7.93,0.38l8.41,0.27c2.09,0.06,4.13-0.86,5.47-2.47
			c6.7-8.26,27.38-35.7,39.92-75.64c0.38-1.12,0.75-2.25,1.12-3.38c8.25-24.18,25.46-54.46,34.51-81.91
			c1.45-4.4,2.73-8.47,3.91-12.38c0.37-1.23,0.75-2.47,1.07-3.7c6.64-23.16,8.57-38.38,10.39-54.62l-65.32,0.53
			C1403.99,617.14,1390.22,724.08,1352.07,843.62z"/>
		<path class="st5" d="M1413.15,579.62c0.16,31.09-4.55,44.44-4.55,44.44s27.97,14.21,61.2,3.75c0.37-0.11,27.54-6.32,27.54-6.32
			c-0.53-1.23-5.52-22.19-6.06-23.37c-7.02-15.06-12.32-21.71-13.18-26.32c-1.55-8.63-1.55-17.58-0.8-26.05
			c2.04-22.35,8.04-40.9,8.04-40.9c-9.06-2.04-17.52-5.68-26.95-9.22c-2.2,2.68-8.79,5.52-14.52,5.41c-6.64-0.16-8.79-3-8.41-6.06
			c-7.07,3.91-12.7,7.67-12.7,7.67c-6,10.4-18.17,20.53-19.02,36.5C1403.45,543.01,1413.15,578.76,1413.15,579.62z"/>
		<path class="st19" d="M1469.31,583.1c2.84,4.02,8.36,28.63,21.97,31.73c-7.02-17.53-12.32-25.2-13.18-30.56
			c-1.55-10.08-1.55-20.47-0.8-30.23c-4.56-7.99-7.99-13.46-7.99-13.46c-0.37-1.29-7.23-22.62-9.43-3.54
			C1457.63,555.98,1466.1,578.55,1469.31,583.1z"/>
		<path class="st14" d="M1431.1,486.89c0,0,26.95,0.43,26.95-16.35c0-16.78,3.54-28.04-13.72-29.05
			c-17.2-0.96-20.58,5.42-21.91,10.99C1421.08,458.1,1424.08,486.35,1431.1,486.89z"/>
		<path class="st16" d="M1432.07,441.11c0,0,7.39,19.72,18.7,22.62c11.3,2.89,16.24-0.11,16.24-0.11s-8.68-6.91-10.5-18.92
			C1456.56,444.64,1437.64,431.72,1432.07,441.11z"/>
		<path class="st16" d="M1433.95,442.66c0,0-5.52,4.4-6.86,8.68c-1.34,4.29-1.93,13.08-4.5,12.76c0,0-5.57-13.4,0.7-20.96
			C1429.87,435.16,1433.95,442.66,1433.95,442.66z"/>
		<path class="st14" d="M1388.72,601.17l-12.75,38.86l7.29,2.89l21.01-34.31L1388.72,601.17z"/>
		<path class="st20" d="M1423.01,500.28c0,0-15,5.95-19.34,15.23c-4.34,9.27-10.93,71.61-13.56,77.99
			c-2.62,6.38-4.61,11.47-4.61,11.47s7.55,6.38,15.16,6.86C1408.28,612.32,1423.01,500.28,1423.01,500.28z"/>
		<path class="st20" d="M1435.39,494.92c0,0-15.59,38.54-16.02,46.31c-0.48,7.83-1.82,127.53-1.82,127.53s0.91,5.52-9.64,3.22
			c-10.56-2.3-13.29-4.61-13.29-4.61s10.08-73.87,7.34-99.54c-2.73-25.68,21.11-67.59,21.11-67.59L1435.39,494.92z"/>
		<path class="st21" d="M1364.55,850.49l9.16,0.27c1.66,0.06,3.22-0.64,4.23-1.93c6.16-7.45,27.54-35.27,40.41-76.23
			c0.37-1.12,0.75-2.25,1.12-3.38c8.25-24.18,25.45-54.46,34.51-81.91c1.45-4.4,2.73-8.47,3.91-12.38c0.38-1.23,0.75-2.47,1.07-3.7
			l-9.59-7.29c0,0-28.88,46.8-37.83,90.8C1403.72,793.02,1372.59,839.07,1364.55,850.49z"/>
		<path class="st18" d="M1448.31,758.87c-0.16,20.26,0.8,65.4,3.27,87.49c0.21,2.04,1.93,3.54,3.96,3.54h6.81
			c2.89,0,5.04,0,6.43-0.06c1.23,0,2.3-0.91,2.52-2.09c6.75-34.52,11.63-63.15,15.16-87.97c2.95-20.74,5.63-38.49,7.67-53.82
			c2.04-15.38,3.48-28.3,3.96-39.19c0.05-1.71,0.16-3.38,0.16-4.98c0.05-1.61,0.05-3.22,0.05-4.77l-56.43-5.52
			C1442.62,689.08,1448.41,746.44,1448.31,758.87z"/>
		<path class="st22" d="M1462.35,849.9c2.57,0,4.55,0,6-0.06c1.5,0,2.79-1.07,3.06-2.57c6.75-34.31,11.57-62.82,15.11-87.48
			c2.95-20.74,5.63-38.49,7.66-53.82c2.04-15.39,3.48-28.3,3.96-39.19l-20.68,12.17c0,0,13.24,4.67,8.2,39.99
			C1480.57,754.32,1469.37,844.91,1462.35,849.9z"/>
		<path class="st20" d="M1459.67,666.46c0,0,3.96,14.37,17.73,12.54c13.77-1.82,33.33-10.08,33.33-10.08s-5.9-18.6-13.18-42.99
			c-8.84-29.53-19.83-67.65-24.97-91.66c-1.45-6.75-2.46-12.38-2.78-16.4l-11.42-22.14c0,0-17.04,38.22-17.95,47.81
			C1439.52,553.14,1459.67,666.46,1459.67,666.46z"/>
		<path class="st14" d="M1473.44,542.1l-15.06-46.42c0.06,0,19.02,5.63,28.56,10.45c0,0,5.95,7.72,9.64,25.46
			c0,0,3.91,42.62-4.82,58.22c0,0-27.49,5.52-71.54-9.65v-10.08c0,0,48.12,2.52,57.98,3.65L1473.44,542.1z"/>
		<path class="st23" d="M1460.31,563.7c0.59,15.6,4.29,45.89,36.97,62.07c0.11,0.06,0.16,0.11,0.27,0.11
			c-8.84-29.54-19.83-67.65-24.97-91.66C1466.58,543.22,1459.99,555.12,1460.31,563.7z"/>
		<path class="st20" d="M1458.38,495.73c0,0,27.92,1.98,34.62,16.94c6.75,14.96,8.84,64.81,0.32,79.5c0,0-11.79,3.38-32.64-0.54
			c-0.27-0.05-0.53-0.1-0.75-0.16c0,0-6.64-16.29-0.7-19.51c0,0,17.58,0.91,15.75-4.88
			C1473.17,561.29,1458.38,495.73,1458.38,495.73z"/>
		<path class="st16" d="M1388.34,576.4l0.8,2.63l45.82-14.26c0,0,0.59-0.7,0.32-1.61c-0.32-1.02-1.12-1.02-1.12-1.02L1388.34,576.4z
			"/>
		<path class="st16" d="M1385.02,578.87l3.32-2.47l0.86,2.63L1385.02,578.87z"/>
		<path class="st14" d="M1377.79,638.96c0,0-11.63,6.43-13.13,11.31c-1.5,4.88-0.48,15.17,1.39,15.01
			c1.82-0.16,4.61-11.05,6.11-11.8c1.5-0.75,3.7-3.05,3.7-1.39c0,1.66-1.55,4.72-0.75,5.2c0.8,0.49,3.22-4.29,4.88-5.2
			c1.66-0.91,2.41-8.47,4.02-10.5C1385.56,639.55,1377.79,638.96,1377.79,638.96z"/>
		<path class="st14" d="M1420.28,570.13c0,0-10.4-6.38-14.74-5.41c-4.34,0.96-15.49,9.06-10.13,10.77c5.36,1.71,9.7-0.11,11.74,1.18
			c2.04,1.29,3.59,3.59,13.13,3.54C1429.82,580.21,1420.28,570.13,1420.28,570.13z"/>
		<path class="st24" d="M602.89,501.36c-1.77-3.38,37.99-15.44,38.64,17.69c0,0,74.48-1.82,38.9-43.37
			c-12.32-14.37-11.04-26.27-10.67-37.31c0.38-11.04-7.66-43.21-35.26-39.99c0,0-7.23-2.95-16.24,1.71
			C597.8,410.77,551.93,513.58,602.89,501.36z"/>
		<path class="st14" d="M724.63,538.45c0,0,4.82-7.4,8.73-7.5c3.91-0.16,11.15-2.2,10.56-0.7c-0.59,1.45-5.09,1.61-5.52,2.47
			c-0.43,0.86,6.64,2.2,8.68,2.3c2.04,0.16,6.81,0,6.65,1.02c-0.16,1.02-8.63,5.2-14.57,4.61c-5.95-0.59-13.34,1.71-13.34,1.71
			L724.63,538.45z"/>
		<path class="st20" d="M654.49,540.81c0,0,2.63,5.2,7.4,11.2c5.79,7.24,14.63,15.54,25.77,17.21c5.3,0.8,10.56-0.37,15.33-2.47
			c13.55-6,23.74-19.84,23.74-19.84c2.41-6.54-1.5-10.93-1.5-10.93s-27.33,6.16-29.95,4.88c-2.63-1.29-17.79-45.08-21.43-50.6
			c-3.65-5.52-15.97-8.36-15.97-8.36L654.49,540.81z"/>
		<path class="st23" d="M661.94,552.07c5.79,7.24,14.63,15.55,25.78,17.21c5.3,0.8,10.55-0.38,15.32-2.47
			c-0.54,0.06-14.04,1.77-19.45-7.93c-5.52-9.87-11.47-25.46-19.61-20.26C660.44,540.81,660.6,546.44,661.94,552.07z"/>
		<path class="st15" d="M552.46,836.12c0,0-8.36,7.61-6.7,13.03c1.61,5.41,9.16,9.01,10.18,15.65c1.02,6.59,5.09,10.24,8.73,10.24
			c3.65,0,17.47,0,17.47,0s2.68-4.66-3.8-6.06c-6.54-1.39-8.95-9.16-8.57-16.4c0.43-7.24-0.59-16.83-0.59-16.83l-13.83-3.22
			L552.46,836.12z"/>
		<path class="st15" d="M623.14,839.39c0,0-3,32.27,0.64,34.09l46.89-0.11c0,0,0-5.41-7.5-6.59c-7.5-1.18-20.74-5.63-22.99-15.44
			C637.88,841.48,623.14,839.39,623.14,839.39z"/>
		<path class="st14" d="M589.71,607.82c9.65-21.66,15.54-27.87,14.41-34.58c-0.86-4.98,2.57-93.22,2.57-93.22
			c1.12-0.38,3.43-0.7,4.71-0.97c3.97-0.86,7.23-3.64,8.57-7.5c1.66-4.61,2.95-11.42,2.89-19.88l1.23,0.27l20.79,4.13
			c0,0-0.48,6.54-0.48,12.7c0,0.06,0,0.11,0,0.16c0,5.36,3.48,10.08,8.63,11.58c2.63,0.75,4.93,1.39,4.93,1.39
			s7.61,21.82,9.11,44.17c1.45,22.41-13.88,32.11,0.11,76.87C681.44,648.61,584.4,619.83,589.71,607.82z"/>
		<path class="st25" d="M644.9,456.06c0,0-0.48,6.54-0.48,12.7c-11.63-0.32-17.79-10.93-20.31-16.83L644.9,456.06z"/>
		<path class="st14" d="M648.81,461.9c0,0-27.49,0.43-27.54-16.67c0-17.15-3.59-28.63,13.99-29.64c17.58-1.02,21.01,5.52,22.4,11.26
			C659.05,432.58,655.94,461.32,648.81,461.9z"/>
		<path class="st24" d="M647.79,415.16c0,0-7.55,20.1-19.08,23.1c-11.52,3-16.56-0.11-16.56-0.11s8.84-7.08,10.72-19.35
			C622.82,418.75,642.11,405.57,647.79,415.16z"/>
		<path class="st24" d="M645.92,416.77c0,0,5.57,2.09,7.88,6.16c2.25,3.97,4.18,9.27,3.7,15.76c0,0,5.68-13.67-0.7-21.39
			C650.04,409.05,645.92,416.77,645.92,416.77z"/>
		<path class="st26" d="M642.81,451.24c0,0,1.88,2.52,5.68,2.3c3.06-0.16,4.23-2.79,4.23-2.79S647.1,449.41,642.81,451.24z"/>
		<path class="st20" d="M587.03,519.05c0,0-0.7,9.86,0,21.66c0.48,7.83,8.41,18.33,9.54,20.96c2.84,6.54,6,7.56,6,7.56l24.6,6.06
			l8.68,2.09l27.28-8.15c0,0,12.43-34.74,7.45-54.25c-4.98-19.57-12.59-33.13-12.59-33.13s-22.29,21.82-51.28-1.88L587.03,519.05z"
			/>
		<path class="st27" d="M594.26,543.92c0.48,7.83,1.18,15.12,2.3,17.74c2.84,6.54,6,7.56,6,7.56l24.6,6.06l10.72-3.16
			c0,0-35.69-5.41-31.72-36.13L594.26,543.92z"/>
		<path class="st21" d="M661.4,574.53c0,0,13.5,42.08,14.36,56.44c0.86,14.37-25.83,203.59-26.9,210.19
			c-1.02,6.22-8.73,10.18-8.73,10.18s-3.53,2.09-8.63,0.64c-7.02-1.98-9.27-4.39-9.27-4.39s-10.5-134.98-4.02-183.17
			c6.54-48.19,6.59-89.9,6.59-89.9H661.4z"/>
		<path class="st18" d="M604.12,573.24c0,0-20.63,27.66-22.56,46.37c-1.93,18.71-3,84.43-7.13,102.65
			c-4.13,18.23-19.13,53.34-19.13,110.21c0,0,1.55,3.27,6.38,4.99c1.55,0.53,3.59,1.07,5.63,1.55c3.97,0.91,8.09-1.02,9.91-4.72
			c10.18-20.48,42.6-86.57,44.26-100.3c1.18-9.7,11.41-73.97,33.7-111.66c5.36-9.06-3.27-45.03-3.27-45.03L604.12,573.24z"/>
		<path class="st5" d="M643.4,451.72c0,0,0.48,2.04,5.52,1.71c0,0,4.23-0.27,4.07-2.47C652.99,450.92,648.92,449.36,643.4,451.72z"
			/>
		<path class="st15" d="M663.54,568.04c0,0-5.41,4.29-16.24,4.5c-12.86,0.27-44.8-3.27-44.8-3.27s-1.45,3.96-1.34,8.15
			c0,0,38.96,9.81,61.57,1.45C662.74,578.82,665.69,573.35,663.54,568.04z"/>
		<path class="st5" d="M644.58,576.99c0-3.65,2.63-6.65,5.9-6.65c3.21,0,5.89,3,5.89,6.65s-2.63,6.65-5.89,6.65
			S644.58,580.64,644.58,576.99z M646.51,576.99c0,2.57,1.77,4.72,3.91,4.72c2.14,0,3.91-2.09,3.91-4.72c0-2.57-1.77-4.72-3.91-4.72
			C648.28,572.28,646.51,574.37,646.51,576.99z"/>
		<path class="st28" d="M608.18,520.94L560.6,575.6l39.93,34.78l47.57-54.66L608.18,520.94z"/>
		<path class="st14" d="M611.57,575.76c0,0,14.63,1.71,14.58,5.2c-0.06,3.49-3.65,10.61-5.47,10.93c-1.82,0.32-11.9-9.65-11.9-9.65
			L611.57,575.76z"/>
		<path class="st20" d="M606.69,480.02c0,0-19.56,1.39-27.01,19.57c-7.45,18.17-21.7,48.78-21.7,53.93
			c0,5.14,7.93,21.01,50.53,30.12c0,0,4.39-4.66,4.12-8.31c0,0-26.58-22.84-26.52-25.52c0.16-5.04,4.34-11.74,27.7-35.11
			C620.19,508.33,606.69,480.02,606.69,480.02z"/>
		<path class="st2" d="M822.48,874.02h-0.16c-1.07,0-1.98-0.91-1.93-1.98l2.95-127.79l8.68-1.02l-7.39,128.81
			C824.52,873.16,823.55,874.02,822.48,874.02z"/>
		<path class="st3" d="M771.84,874.02h-0.16c-1.07,0-1.98-0.91-1.93-1.98l2.95-127.79l8.68-1.02l-7.39,128.81
			C773.88,873.16,772.97,874.02,771.84,874.02z"/>
		<path class="st2" d="M911.49,874.02h0.16c1.07,0,1.98-0.91,1.93-1.98l-2.94-127.79l-8.68-1.02l7.39,128.81
			C909.45,873.16,910.36,874.02,911.49,874.02z"/>
		<path class="st2" d="M766.11,736.31v-87.59c0-15.44,12.49-27.93,27.92-27.93h63.07c15.43,0,27.92,12.49,27.92,27.93v90.92
			L766.11,736.31z"/>
		<path class="st3" d="M896.27,750.14h-121.8c-4.61,0-8.36-3.75-8.36-8.36v-5.47h130.16V750.14z"/>
		<path class="st2" d="M910.84,750.14h-92.11c-3.43,0-6.22-2.79-6.22-6.22v-1.45c0-3.43,2.79-6.22,6.22-6.22h92.11
			c3.43,0,6.22,2.79,6.22,6.22v1.45C917.06,747.4,914.27,750.14,910.84,750.14z"/>
		<path class="st15" d="M907.31,714.49c-9.06,15.7-20.42,21.82-20.42,21.82h-47.26C839.63,736.31,914.16,702.48,907.31,714.49z"/>
		<path class="st14" d="M870.98,836.23c-1.23,1.39-1.39,3-0.75,4.66c1.13,3.11,4.88,6.59,9.16,10.08c0.54,0.43,1.02,0.86,1.5,1.23
			c0.11,0.11,0.21,0.21,0.32,0.32c0.11,0.05,0.16,0.16,0.27,0.21c4.02,3.7,2.52,4.56,9.75,12.11c8.25,8.63,13.99,8.74,15.59,7.99
			c1.39-0.7-1.39-5.26-4.5-10.35c-0.16-0.27-0.32-0.48-0.43-0.75c-0.43-0.7-0.81-1.39-1.23-2.04c-3.59-6.16-2.68-9.06-1.82-18.28
			c0.7-7.45,11.63-41.7,11.63-41.7l-15.86-2.73c0,0-4.77,27.28-10.02,31.47c-2.84,2.25-5.95,2.25-8.68,3.91
			c-0.22,0.11-0.38,0.22-0.59,0.38C873.76,833.76,872.21,834.83,870.98,836.23z"/>
		<path class="st15" d="M870.98,836.22c-1.23,1.4-1.39,3-0.75,4.67c1.39,3.11,4.98,6.59,9.22,10.02c0.54,0.43,1.02,0.86,1.45,1.23
			c0.11,0.11,0.21,0.22,0.32,0.32c0.11,0.06,0.16,0.16,0.27,0.22c4.02,3.7,2.52,4.56,9.75,12.11c8.25,8.63,13.99,8.74,15.59,7.99
			c1.39-0.7-1.39-5.25-4.5-10.34c-1.61-0.59-9.06-3.65-14.73-10.88c-4.98-6.33-8.31-14.53-11.68-19.25
			c-0.22,0.11-0.38,0.21-0.59,0.37C873.76,833.76,872.21,834.83,870.98,836.22z"/>
		<path class="st14" d="M998.72,826.31c0.96,4.88,7.93,4.07,15.75,2.2c7.77-1.93,5.95,0.38,17.04-0.86
			c11.09-1.24,14.41-5.36,14.79-7.02c0.32-1.45-5.2-1.98-11.04-2.63c-0.75-0.11-1.5-0.16-2.25-0.27
			c-6.65-0.86-11.47-5.09-17.52-8.63c-5.73-3.32-14.2-16.88-14.2-16.88l-15.22,1.23c0,0,7.99,12.11,11.04,17.37
			c1.82,3.11,1.71,7.18,1.5,10.34C998.46,822.83,998.35,824.6,998.72,826.31z"/>
		<path class="st15" d="M1014.42,828.51c7.77-1.93,5.95,0.38,17.04-0.86c11.09-1.23,14.41-5.36,14.79-7.02
			c0.32-1.45-5.2-1.98-11.04-2.63l-0.06,0.11c0,0-6.64,4.72-15.86,4.93c-7.5,0.16-15.49-1.98-20.68-1.88
			c-0.11,1.71-0.21,3.49,0.11,5.2C999.69,831.24,1006.66,830.38,1014.42,828.51z"/>
		<path class="st15" d="M940.48,729.12l-14.2,38.22l-18.54,49.96c0,0-5.04,0.48-9.86-0.91c-4.45-1.29-9.54-4.66-9.54-4.66
			s5.14-53.6,14.73-84.37c2.47-7.88,5.25-14.31,8.25-17.9C926.22,691.87,940.48,729.12,940.48,729.12z"/>
		<path class="st21" d="M926.01,668.39c-9.32-3-35.85,0.86-62.53,6.06l-5.57-9.22l-57.6-4.5c0,0-19.02,42.19-8.63,69.04
			c1.5,3.97,4.56,6.49,9.75,6.59h0.86c0,0,34.29,0,45.44,0c28.67,0,60.61-19.72,64.79-20.53c6.75-1.34,9.48,12.22,16.24,26.43
			c6.75,14.21,63.66,62.98,63.66,62.98s8.73,0.11,12.38-1.29c3.91-1.45,5.3-3.38,5.3-3.38S947.01,675.14,926.01,668.39z"/>
		<path class="st15" d="M855.65,497.44c-7.4-3.86-18.59-4.39-20.42-4.66c-21.81-2.95-34.99,28.79-35.74,38.43
			c-1.45,17.74-10.83,20.42-24.01,31.52c-26.47,22.25-18.7,48.14-4.24,57.73c8.68,5.79,23.95,0,23.95,0
			c0.22,0.16,41.85-23.26,62.32-34.58C888.34,581.5,874.46,507.31,855.65,497.44z"/>
		<path class="st14" d="M840.38,576.24c0.11,0.05-10.08,3.54-16.88,0.53c-6.38-2.84-11.26-13.35-11.15-13.4
			c2.9-0.16,6.11-2.68,8.57-19.41l1.23,0.43l20.85,7.5c0,0-1.5,6.7-2.52,13.08C839.68,570.34,839.25,575.49,840.38,576.24z"/>
		<path class="st17" d="M843,551.96c0,0-1.5,6.7-2.52,13.08c-12.01-2.14-16.67-14.1-18.38-20.59L843,551.96z"/>
		<path class="st14" d="M846.11,558.55c0,0-28.56-3.86-25.88-21.6c2.68-17.74,0.75-30.18,19.13-28.52
			c18.33,1.72,20.85,9.01,21.38,15.12C861.28,529.77,853.56,559.14,846.11,558.55z"/>
		<path class="st15" d="M859.67,513.9c0,0-18.28,15.76-30.7,17.05c-12.43,1.29-17.15-2.73-17.15-2.73s7.34-6.06,11.73-15.92
			c1.29-2.89,4.07-4.88,7.18-5.15C839.63,506.4,856.51,506.02,859.67,513.9z"/>
		<path class="st15" d="M848.25,512.51c0,0,6.11,5.9,8.04,10.29c1.88,4.24,2.41,14.37,0.96,18.39c0,0,9.54-18.55,4.13-27.5
			C855.65,504.09,848.25,512.51,848.25,512.51z"/>
		<path class="st20" d="M864.39,618.32c-0.86,57.79-0.22,45.73-6.54,51.19c-1.5,1.34-5.79,2.09-11.41,2.47
			c-17.74,1.18-48.87-1.77-50.05-5.04c-4.07-11.31-1.18-14.85-4.61-32.22c-0.37-1.82-0.8-3.86-1.29-6
			c-2.84-11.9-5.63-15.97,4.45-35.11c9.16-17.31,18.65-31.41,19.51-30.93c24.11,14.31,26.09,2.3,26.09,2.3
			S864.81,590.13,864.39,618.32z"/>
		<path class="st21" d="M926.22,767.34l-18.54,49.96c0,0-5.04,0.48-9.86-0.91c-4.45-1.29-9.54-4.66-9.54-4.66s5.14-53.6,14.74-84.37
			L926.22,767.34z"/>
		<path class="st20" d="M840.49,564.99c0,0,24.81,4.23,27.76,14.9c2.89,10.67,20.09,73.55,20.09,73.55s-12.65,2.25-18.44-3.59
			c-5.84-5.85-20.31-54.14-20.31-54.14L840.49,564.99z"/>
		<path class="st23" d="M846.43,671.98c-17.74,1.18-48.87-1.77-50.05-5.04c-4.07-11.31-1.18-14.85-4.61-32.22l8.52-24.07
			c0,0-1.39,26.8,6.48,33.88c7.88,7.08,32.37,13.62,36.23,19.51C844.82,666.89,846.06,669.73,846.43,671.98z"/>
		<path class="st14" d="M826.12,660.73c0,0,17.47-3.91,20.31-2.36c2.84,1.55,9.7,7.18,10.55,9.17c0.86,1.98-6.27-1.5-8.63-2.09
			c-1.5-0.43-5.47,0.97-7.45,1.61c-8.25,2.73-13.29,1.34-13.29,1.34L826.12,660.73z"/>
		<path class="st20" d="M814.39,562.74c0,0-23.47,1.45-31.62,12.76c-11.41,15.97-34.13,83.94-21.11,93.06
			c14.63,10.24,66.66,2.68,66.66,2.68s1.71-8.09-0.7-12.01c-2.41-3.91-41.53-10.24-43.35-12.06s22.56-35.22,22.56-40.63
			C806.89,601.11,814.39,562.74,814.39,562.74z"/>
		<path class="st14" d="M847.24,663.24c0,0,3.64,4.72,4.88,5.31c1.18,0.59,1.98,0.43,1.98,0.43l-2.47-4.45L847.24,663.24z"/>
		<path class="st14" d="M846.43,658.36l10.66,5.2c0,0-0.43,0.75-1.77,0.7c-1.29-0.05-4.61-1.29-4.61-1.29L846.43,658.36z"/>
		<path class="st20" d="M852.11,675.79h84.24l25.35-63.04h-84.13L852.11,675.79z"/>
		<path class="st20" d="M937.32,673.32H826.12v2.47h110.23L937.32,673.32z"/>
		<path class="st20" d="M915.08,644.27c0.64-2.2-0.64-4.02-2.84-4.02s-4.5,1.77-5.14,4.02c-0.64,2.2,0.64,4.02,2.84,4.02
			S914.43,646.47,915.08,644.27z"/>
		<path class="st4" d="M1292.05,876.38h0.27c1.45,0,2.63-1.23,2.57-2.79l-3.91-178.93l-11.47-1.45l9.81,180.38
			C1289.37,875.14,1290.55,876.38,1292.05,876.38z"/>
		<path class="st4" d="M826.5,876.38h-0.27c-1.45,0-2.63-1.23-2.57-2.79l3.91-178.93l11.47-1.45l-9.75,180.38
			C829.23,875.14,828,876.38,826.5,876.38z"/>
		<path class="st4" d="M1305.88,697.93H814.61c-4.02,0-7.29-3.27-7.29-7.29v-7.02c0-4.02,3.27-7.29,7.29-7.29h491.27
			c4.02,0,7.29,3.27,7.29,7.29v7.02C1313.16,694.71,1309.9,697.93,1305.88,697.93z"/>
		<path class="st2" d="M707.54,369.7c-1.88-45.94,36.65-66.36,75.98-66.36c39.33,0,82.2,10.19,85.9,71.3
			c2.41,39.29-18.54,63.47-78.88,63.47c-20.36,0-36.17-3.22-48.23-8.95l-30.17,26.8l14.84-37.04
			C713.92,406.74,708.34,389.54,707.54,369.7z"/>
		<path class="st15" d="M1602.2,876.16c0,0,1.12-8.63,3.7-13.78c2.57-5.14,18.91-1.88,18.91-1.88s3.27,2.79,3.97,15.87
			L1602.2,876.16z"/>
		<path class="st15" d="M1546.58,876.06c3.86-2.36,1.66-19.84,1.66-19.84s-17.9-14.31-20.31-3.38
			c-2.41,10.93-16.99,15.87-25.24,17.21c-5.68,0.91-7.45,4.08-8.04,5.95h51.92V876.06z"/>
		<path class="st21" d="M1583.55,749.01c-0.75,4.02-1.18,7.29-1.29,9.65c-1.66,32.43-27.28,106.57-31.88,108.28
			c-7.08,2.68-18.28-3-24.11-4.88c-2.41-0.75-4.07-3.22-3.54-5.68c12.7-58.32,17.36-142.37,19.02-192.07
			c0.86-25.03,5.14-42.35,5.14-42.35s62.48-16.67,62.86,4.39C1610.19,645.02,1589.18,718.19,1583.55,749.01z"/>
		<path class="st21" d="M1583.55,749.01l-41.74-84.75c0.86-25.04,5.14-42.35,5.14-42.35s62.48-16.67,62.86,4.4
			C1610.19,645.02,1589.18,718.19,1583.55,749.01z"/>
		<path class="st18" d="M1569.68,626.42l33.01,239.45c0,0,14.52,3.49,25.77,0.7c0,0,9.7-127.37,8.84-158.14
			c-0.8-30.77,6.91-82.39-1.77-88.07C1626.91,614.63,1569.68,626.42,1569.68,626.42z"/>
		<path class="st29" d="M1642.02,622.4c0.16,2.14-1.23,4.13-3.32,4.72c-4.61,1.34-9.91,2.25-20.15,4.4
			c-9.65,1.98-22.56,3.75-38.47,3.86c-25.29,0.16-34.88-8.58-34.88-8.58c-1.07,0,0.59-5.25,2.09-30.45
			c0.48-8.52,1.02-19.35,1.34-33.02c0.32-12.28,0.54-26.91,0.54-44.22c0.05-20.85,32.31-43.26,32.9-43.26c0,3,4.71,8.52,12,9.01
			c8.63,0.59,19.24-3.75,19.24-8.74c0-0.05,15.65,25.04,21.17,51.73C1637.36,541.29,1636.23,540.97,1642.02,622.4z"/>
		<path class="st29" d="M1582.06,475.84c0,0-30.01-0.27-37.24,9.87c-7.24,10.13-23.04,64.59-14.79,82.76
			c8.25,18.12,23.74-7.5,32.31-18.6C1570.96,538.77,1582.06,475.84,1582.06,475.84z"/>
		<path class="st14" d="M1581.79,471.29v3.11c0,0-0.86,9.7,11.09,11.1c11.95,1.45,20.79-1.82,20.47-9.28
			c-1.07-5.79-2.09-11.74-2.14-16.56c-0.06-1.77,0.1-3.65,0.43-5.79l-23.15-0.48l-6.81,1.12L1581.79,471.29z"/>
		<path class="st30" d="M1581.68,454.51l0.11,16.78c2.47,1.12,5.25,1.82,8.36,1.82c10.66,0,17.52-7.77,21.11-13.46
			c-0.05-1.77,0.11-3.65,0.43-5.79l-23.15-0.48L1581.68,454.51z"/>
		<path class="st14" d="M1613.4,450.11c-2.68,14.47-21.33,13.99-29.37,13.08c-2.25-0.27-3.7-0.54-3.7-0.54
			c-2.57-0.7-3.97-4.71-4.66-9.97c-1.34-10.45,0.32-25.78,2.09-29.7c2.63-5.89,7.66-12.28,26.42-7.67
			C1622.99,419.88,1616.83,431.56,1613.4,450.11z"/>
		<path class="st31" d="M1551.4,516.47c0,0-11.57,25.62-11.25,33.34c0,0,5.73-0.22,11.25,1.45
			C1560.46,553.95,1551.4,516.47,1551.4,516.47z"/>
		<path class="st15" d="M1572.03,409.21c0,0,8.25-0.65,18.01-4.88c7.93-3.43,17.9,0.37,21.11,2.04c-0.11-0.54-0.32-1.23-0.8-1.93
			c0,0,1.45,1.02,1.66,2.47c0.16,0.11,0.21,0.16,0.16,0.22c0,0,1.66-0.32,2.73,0.16c0,0-0.75-0.11-1.02,0.37
			c-0.05,0.06-0.05,0.11-0.11,0.16c12.32,5.95,13.5,25.46,9.54,30.02c-4.77,5.42-12,17.74-12,17.74s-0.59-2.95,0.27-7.72
			c0.86-4.77-3.27-4.77-8.47-6.97c-5.2-2.2-0.86-8.26-5.41-11.95c-4.55-3.7-21.27-1.5-21.06-4.34
			C1570.43,422.24,1572.03,409.8,1572.03,409.21z"/>
		<path class="st31" d="M1617.21,564.45c-4.88,19.67-57.87,29.86-69.93,31.89c0.48-8.52,1.02-19.35,1.34-33.02L1617.21,564.45z"/>
		<path class="st14" d="M1605.58,570.88c0.48,0,11.79-1.66,13.77-2.68c1.98-1.02,11.25-14.15,5.2-17.53
			c-6.05-3.38-22.29,10.08-22.29,10.08L1605.58,570.88z"/>
		<path class="st29" d="M1536.99,574.74c0,0,43.62,2.36,72.82-3.91c0,0,0.75-8.47-8.47-12.22c0,0-45.6-9.65-56.53-6.97
			C1533.88,554.37,1536.99,574.74,1536.99,574.74z"/>
		<path class="st29" d="M1637.14,540.54c-9.06,10.93-20.85,19.83-33.92,21.92c-0.11-0.16-3.97-6-3.22-14.58
			c0.32-3.97,1.66-8.52,4.77-13.35c0.96-1.5,1.82-3.22,2.57-5.15c7.13-18.17,6.06-53.18,6.06-53.18s30.22,3.16,39.65,16.62
			C1658.79,501.04,1651.4,523.28,1637.14,540.54z"/>
		<path class="st30" d="M1584.04,463.19c-2.25-0.27-3.7-0.54-3.7-0.54c-2.57-0.7-3.97-4.71-4.66-9.97c4.77,1.18,7.02,4.88,7.93,6.49
			C1583.98,459.81,1584.09,461.42,1584.04,463.19z"/>
		<path class="st14" d="M1571.82,471.34c0,0-10.45-17.26-2.3-17.96c8.09-0.75,11.36,4.77,12.54,6.75
			c1.18,2.04-0.32,11.15-0.32,11.15L1571.82,471.34z"/>
		<path class="st29" d="M1611.64,547.3c-0.32,2.2-0.97,4.18-1.77,6c-2.57,5.68-6.64,9.17-6.64,9.17
			c-27.11-12.22-32.64-54.3-33.55-77.4c-0.37-9.28,0-15.49,0-15.49c12.22-4.07,15.7,3,15.7,3s14.42,34.36,21.92,56.82
			C1610.13,537.92,1612.01,544.78,1611.64,547.3z"/>
		<path class="st31" d="M1637.14,540.54c-9.06,10.93-20.85,19.83-33.92,21.92c-27.11-12.22-32.64-54.3-33.55-77.4
			c0,0,12.81,46.53,30.28,62.82c3.16,2.95,6.48,4.88,9.86,5.41c0,0,22.02-6.22,26.63-12.11
			C1636.82,540.76,1637.03,540.59,1637.14,540.54z"/>
		<path class="st21" d="M1143.19,676.38h-84.18l-25.34-63.04h84.07L1143.19,676.38z"/>
		<path class="st21" d="M1057.99,673.91h111.24v2.47h-110.23L1057.99,673.91z"/>
		<path class="st5" d="M1080.23,644.86c-0.65-2.2,0.64-4.02,2.84-4.02s4.5,1.77,5.14,4.02c0.64,2.25-0.64,4.02-2.84,4.02
			C1083.18,648.88,1080.87,647.05,1080.23,644.86z"/>
		<path class="st32" d="M1826.51,874.77v0.54c0,0.86-0.8,1.55-1.77,1.55H279.61c-0.96,0-1.77-0.7-1.77-1.55v-0.54
			c0-0.86,0.8-1.55,1.77-1.55h1545.14C1825.71,873.21,1826.51,873.91,1826.51,874.77z"/>
	</g>
</g>
<g>
	<path class="st29" d="M1456.12,965.14l4.74-10.64c5.9,4.74,15.28,8.11,24.34,8.11c11.49,0,16.33-4.11,16.33-9.59
		c0-15.91-43.84-5.48-43.84-32.88c0-11.91,9.48-22.02,29.72-22.02c8.85,0,18.12,2.32,24.55,6.53l-4.32,10.64
		c-6.64-3.9-13.91-5.8-20.34-5.8c-11.38,0-16.02,4.43-16.02,10.01c0,15.7,43.73,5.48,43.73,32.56c0,11.8-9.59,21.92-29.82,21.92
		C1473.72,973.99,1462.23,970.41,1456.12,965.14z"/>
	<path class="st29" d="M1561.18,969.88c-3.16,2.53-7.9,3.79-12.65,3.79c-12.33,0-19.39-6.53-19.39-18.97v-27.08h-9.27v-10.54h9.27
		v-12.86h13.17v12.86h15.07v10.54h-15.07v26.77c0,5.48,2.74,8.43,7.8,8.43c2.74,0,5.37-0.74,7.38-2.32L1561.18,969.88z"/>
	<path class="st29" d="M1622.83,949.02h-44.15c1.58,8.22,8.43,13.49,18.23,13.49c6.32,0,11.28-2,15.28-6.11l7.06,8.11
		c-5.06,6.01-12.96,9.17-22.66,9.17c-18.86,0-31.09-12.12-31.09-28.87s12.33-28.77,29.08-28.77c16.44,0,28.45,11.49,28.45,29.08
		C1623.04,946.17,1622.93,947.75,1622.83,949.02z M1578.57,940.27h31.93c-1.05-8.11-7.27-13.7-15.91-13.7
		C1586.05,926.57,1579.83,932.05,1578.57,940.27z"/>
	<path class="st29" d="M1695.43,944.8c0,17.49-12.12,28.87-28.56,28.87c-7.17,0-13.49-2.42-18.02-7.59v27.29h-13.17v-76.71h12.54
		v7.38c4.43-5.38,10.96-8.01,18.65-8.01C1683.31,916.04,1695.43,927.42,1695.43,944.8z M1682.05,944.8c0-10.75-7.17-17.6-16.65-17.6
		s-16.75,6.85-16.75,17.6s7.27,17.6,16.75,17.6S1682.05,955.55,1682.05,944.8z"/>
	<path class="st29" d="M1786.48,961.35v11.59h-54.37v-9.17l29.3-27.82c7.17-6.85,8.43-11.17,8.43-15.28
		c0-6.74-4.64-10.64-13.7-10.64c-7.17,0-13.17,2.42-17.28,7.69l-9.59-7.38c5.69-7.69,15.91-12.22,28.03-12.22
		c16.02,0,26.34,8.11,26.34,21.18c0,7.17-2,13.7-12.22,23.29l-19.71,18.76H1786.48z"/>
</g>
<g>
	<path class="st60" d="M333.09,125.41c0,16.23-12.01,26.24-31.4,26.24h-16.65v21.29h-13.7V99.18h30.35
		C321.07,99.18,333.09,109.08,333.09,125.41z M319.28,125.41c0-9.27-6.22-14.65-18.23-14.65h-16.02v29.29h16.02
		C313.06,140.06,319.28,134.69,319.28,125.41z"/>
	<path class="st60" d="M377.56,116.04v12.54c-1.16-0.21-2.11-0.32-3.06-0.32c-10.01,0-16.33,5.9-16.33,17.39v27.29h-13.17v-56.27
		h12.54v8.22C361.33,118.99,368.18,116.04,377.56,116.04z"/>
	<path class="st60" d="M383.56,144.8c0-16.86,12.65-28.77,29.93-28.77c17.49,0,30.03,11.91,30.03,28.77s-12.54,28.87-30.03,28.87
		C396.21,173.68,383.56,161.66,383.56,144.8z M430.25,144.8c0-10.75-7.17-17.6-16.75-17.6c-9.48,0-16.65,6.85-16.65,17.6
		s7.17,17.6,16.65,17.6C423.08,162.4,430.25,155.55,430.25,144.8z"/>
	<path class="st60" d="M451.53,144.8c0-16.86,12.65-28.77,29.93-28.77c17.49,0,30.03,11.91,30.03,28.77s-12.54,28.87-30.03,28.87
		C464.18,173.68,451.53,161.66,451.53,144.8z M498.21,144.8c0-10.75-7.17-17.6-16.75-17.6c-9.48,0-16.65,6.85-16.65,17.6
		s7.17,17.6,16.65,17.6C491.05,162.4,498.21,155.55,498.21,144.8z"/>
	<path class="st60" d="M538.68,113.72v3.37h15.49v10.54H539.1v45.31h-13.17v-45.31h-9.27v-10.54h9.27v-3.58
		c0-11.8,7.06-19.5,20.13-19.5c4.53,0,8.96,0.95,11.91,3.06l-3.69,9.91c-2-1.37-4.53-2.32-7.27-2.32
		C541.52,104.66,538.68,107.71,538.68,113.72z"/>
	<path class="st60" d="M587.47,144.8c0-16.86,12.65-28.77,29.93-28.77c17.49,0,30.03,11.91,30.03,28.77s-12.54,28.87-30.03,28.87
		C600.11,173.68,587.47,161.66,587.47,144.8z M634.15,144.8c0-10.75-7.17-17.6-16.75-17.6c-9.48,0-16.65,6.85-16.65,17.6
		s7.17,17.6,16.65,17.6C626.98,162.4,634.15,155.55,634.15,144.8z"/>
	<path class="st60" d="M674.61,113.72v3.37h15.49v10.54h-15.07v45.31h-13.17v-45.31h-9.27v-10.54h9.27v-3.58
		c0-11.8,7.06-19.5,20.13-19.5c4.53,0,8.96,0.95,11.91,3.06l-3.69,9.91c-2-1.37-4.53-2.32-7.27-2.32
		C677.46,104.66,674.61,107.71,674.61,113.72z"/>
	<path class="st60" d="M266.07,262.51c0-22.02,16.86-37.94,39.52-37.94c12.01,0,22.34,4.32,29.19,12.33l-8.85,8.32
		c-5.37-5.8-12.01-8.64-19.71-8.64c-15.28,0-26.34,10.75-26.34,25.92c0,15.17,11.06,25.92,26.34,25.92c7.69,0,14.33-2.85,19.71-8.75
		l8.85,8.43c-6.85,8.01-17.18,12.33-29.29,12.33C282.93,300.45,266.07,284.54,266.07,262.51z"/>
	<path class="st60" d="M339.94,271.26c0-16.86,12.65-28.77,29.93-28.77c17.49,0,30.03,11.91,30.03,28.77s-12.54,28.87-30.03,28.87
		C352.58,300.13,339.94,288.12,339.94,271.26z M386.62,271.26c0-10.75-7.17-17.6-16.75-17.6c-9.48,0-16.65,6.85-16.65,17.6
		s7.17,17.6,16.65,17.6C379.45,288.86,386.62,282.01,386.62,271.26z"/>
	<path class="st60" d="M467.97,267.15v32.25H454.8v-30.56c0-10.01-4.95-14.86-13.38-14.86c-9.38,0-15.7,5.69-15.7,16.97v28.45
		h-13.17v-56.27h12.54v7.27c4.32-5.16,11.17-7.9,19.39-7.9C457.96,242.49,467.97,250.18,467.97,267.15z"/>
	<path class="st60" d="M480.61,271.26c0-16.86,12.65-28.77,30.45-28.77c10.96,0,19.71,4.53,24.03,13.07l-10.12,5.9
		c-3.37-5.37-8.43-7.8-14.02-7.8c-9.69,0-17.07,6.74-17.07,17.6c0,10.96,7.38,17.6,17.07,17.6c5.58,0,10.64-2.42,14.02-7.8
		l10.12,5.9c-4.32,8.43-13.07,13.17-24.03,13.17C493.26,300.13,480.61,288.12,480.61,271.26z"/>
	<path class="st60" d="M598.32,275.47h-44.15c1.58,8.22,8.43,13.49,18.23,13.49c6.32,0,11.28-2,15.28-6.11l7.06,8.11
		c-5.06,6.01-12.96,9.17-22.66,9.17c-18.86,0-31.09-12.12-31.09-28.87s12.33-28.77,29.08-28.77c16.44,0,28.45,11.49,28.45,29.08
		C598.53,272.63,598.43,274.21,598.32,275.47z M554.06,266.73h31.93c-1.05-8.11-7.27-13.7-15.91-13.7
		C561.54,253.03,555.33,258.51,554.06,266.73z"/>
	<path class="st60" d="M670.93,271.26c0,17.49-12.12,28.87-28.56,28.87c-7.17,0-13.49-2.42-18.02-7.59v27.29h-13.17v-76.71h12.54
		v7.38c4.43-5.37,10.96-8.01,18.65-8.01C658.81,242.49,670.93,253.87,670.93,271.26z M657.54,271.26c0-10.75-7.17-17.6-16.65-17.6
		c-9.48,0-16.75,6.85-16.75,17.6s7.27,17.6,16.75,17.6C650.38,288.86,657.54,282.01,657.54,271.26z"/>
	<path class="st60" d="M717.29,296.34c-3.16,2.53-7.9,3.79-12.65,3.79c-12.33,0-19.39-6.53-19.39-18.97v-27.08h-9.27v-10.54h9.27
		v-12.86h13.17v12.86h15.07v10.54h-15.07v26.77c0,5.48,2.74,8.43,7.8,8.43c2.74,0,5.37-0.74,7.38-2.32L717.29,296.34z"/>
</g>
</svg>
