<?xml version="1.0" encoding="utf-8"?>
<!-- Generator: Adobe Illustrator 23.0.1, SVG Export Plug-In . SVG Version: 6.00 Build 0)  -->
<svg version="1.1" id="Layer_1" xmlns="http://www.w3.org/2000/svg" xmlns:xlink="http://www.w3.org/1999/xlink" x="0px" y="0px"
	 viewBox="0 0 3500 1264" style="enable-background:new 0 0 3500 1264;" xml:space="preserve">
<style type="text/css">
	.st0{fill:none;stroke:#EFB76C;stroke-width:23;stroke-linecap:round;stroke-linejoin:round;}
	.st1{clip-path:url(#SVGID_2_);}
	.st2{fill:#E0E0E0;}
	.st3{fill:#C9C9C9;}
	.st4{fill:#00858E;}
	.st5{fill:#FFC93C;}
	.st6{fill:#FFFFFF;}
	.st7{fill:#FFB27D;}
	.st8{fill:#DFEBFD;}
	.st9{fill:#007477;}
	.st10{fill:#ED975D;}
	.st11{fill:#263238;}
	.st12{fill:#FFDF93;}
	.st13{fill:#375DAA;}
	.st14{fill:#EFC8AB;}
	.st15{fill:#FFEDDC;}
	.st16{fill:#F7DCC6;}
	.st17{fill:#E8B795;}
	.st18{fill:#E2810E;}
	.st19{fill:#FFB93E;}
	.st20{fill:#FFA412;}
	.st21{fill:#2C3A64;}
	.st22{fill:#ED985F;}
	.st23{fill:#EDB22F;}
	.st24{fill:#FAFDFF;}
	.st25{fill:#699DEE;}
	.st26{fill:#A9453D;}
	.st27{fill:#EFB76C;}
</style>
<path class="st0" d="M2551.9,0.3c-130.2,221.3-385.3,312.2-557.3,385.5c-240.8,102.7-484.5,195.6-730.4,268.3
	C992.9,734.2,721.8,795,458.4,923.7c-163.9,80.1-318.7,186-458.4,329.8"/>
<g>
	<g>
		<defs>
			<polyline id="SVGID_1_" points="256,1170 256,183.8 1834,183.8 1834,1170 			"/>
		</defs>
		<clipPath id="SVGID_2_">
			<use xlink:href="#SVGID_1_"  style="overflow:visible;"/>
		</clipPath>
		<g class="st1">
			<path class="st2" d="M559.2,704.2c0,0,67.8,40.3,59.5,52.5c-8.3,12.2-72.3-50.4-72.3-50.4s-73.7,31.1-90.3,54.1
				c0,0,86.3,16.6,75.3,26.3c-11,9.7-101.6-3.3-101.6-3.3s-59.1,46.3-34.2,84.2c25,37.9,54,38,63.4,31.6
				c9.3-6.4,55.1-59.6,60.7-52.2s-14.8,52.6-38.5,67c0,0,73.3,25.8,95.9-5.3c22.6-31.1,12.7-55.7,27-74.7
				c14.3-19,30.6-27.8,27.5-14.6c-3.1,13.1-32.8,40.3-33.3,65.5c-0.5,25.2-3.2,43.4,25.8,21.5c29-21.8,67.8-72.7,55.8-100.4
				c-0.5-1.2-1-2.4-1.5-3.5c1.2,2.1,1.5,3.5,1.5,3.5c7.2-2.4,27.4,2.3,42.4,6.5c2.4,0.8,5.9,1.9,10.8,3.1c2.1,0.6,3.8,1.2,5.1,1.6
				c31.8,11.3,68,52.2,68,52.2l6.6-4.3c-29.8-48.7-82.9-56.3-82.9-56.3c-39.3-9.2-62-30.4-62-30.4s16.5-76.6-43.5-87.1
				C624.3,691.1,583.4,689.1,559.2,704.2z"/>
			<path class="st2" d="M1586.6,442c-14.1-52.2-102.2-35.9-102.2-35.9s-59.8,91.3-77.2,93.4c-17.4,2.2,35.8-88,35.8-88
				c-33.7-3.3-119.5,38-119.5,38s5.4,106.5-11.9,104.3c-17.4-2.2,0-94.6,0-94.6c-32.6,9.8-63,47.8-63,47.8
				c-38,61.9,43.5,107.6,43.5,107.6s1.1,36.9-21.8,79.3c0,0-5.1,7.8-10.4,21.1h8.9c0.7-2.4,1.5-4.7,2.4-6.9v0c0,0,0.1,0,0.1-0.1
				c0.6-1.4,1.5-3.3,2.6-5.7c2.7-5.3,4.5-9.3,5.7-12.1c0,0,0,0,0,0c8.1-16.7,19.9-38.4,27.7-43c0,0-1-1.4-1.9-4.1
				c0.6,1.3,1.2,2.7,1.9,4.1c15.2,32.6,91.3,38,133.7,29.3c42.4-8.7,23.9-20.7,1.1-40c-22.8-19.4-70.7-14.3-84.8-21.9
				c-14.1-7.6,6.5-15.2,34.8-13.1c28.3,2.2,42.4,30.4,88,34.8c45.7,4.3,80.4-81.5,80.4-81.5c-31.5,9.8-88-7.6-90.2-18.5
				c-2.2-10.8,81.5-9.8,94.6-13.1C1577.9,520.3,1600.7,494.2,1586.6,442z"/>
			<path class="st3" d="M1445.1,758.9c-7.6-28-54.7-19.2-54.7-19.2s-32,48.9-41.3,50s19.2-47.1,19.2-47.1
				c-18.1-1.7-64.1,20.4-64.1,20.4s2.9,57.1-6.4,55.9c-9.3-1.2,0-50.7,0-50.7c-17.5,5.2-33.8,25.6-33.8,25.6
				c-20.4,33.2,23.3,57.6,23.3,57.6s0.6,19.8-11.6,42.5c0,0-2.8,4.2-5.6,11.3h4.8c0.4-1.3,0.8-2.5,1.3-3.7v0
				c0.3-0.7,0.8-1.8,1.4-3.1c1.4-2.9,2.4-4.9,3.1-6.5c4.3-8.9,10.7-20.6,14.8-23c0,0-0.5-0.7-1-2.2c0.3,0.7,0.7,1.4,1,2.2
				c8.1,17.5,48.9,20.4,71.6,15.7s12.8-11,0.6-21.5c-12.2-10.4-37.9-7.7-45.4-11.7c-7.6-4.1,3.5-8.1,18.6-7
				c15.1,1.1,22.7,16.3,47.1,18.6c24.5,2.3,43.1-43.7,43.1-43.7c-16.9,5.2-47.1-4.1-48.3-9.9c-1.2-5.8,43.7-5.2,50.7-7
				C1440.5,800.8,1452.7,786.8,1445.1,758.9z"/>
			<path class="st2" d="M1211.6,360.8c-24.5-27.9-73.7,8.8-73.7,8.8s-9.2,74.3-19.2,80.9c-10.1,6.6-4.5-65-4.5-65
				c-21.8,8.2-62.1,59.6-62.1,59.6s35.6,63.9,24.2,67.8c-11.3,4-28.6-58.2-28.6-58.2c-17.1,15.9-24.4,48.5-24.4,48.5
				c-4.7,49.6,59.3,53.1,59.3,53.1s11.8,22.4,10.6,55.4c0,0-0.8,6.4,0,16.1l5.5-2.7c-0.3-1.7-0.5-3.3-0.6-5c0,0,0,0,0,0v0
				c-0.1-1-0.1-2.5-0.2-4.3c0.1-4.1,0-7-0.2-9.2c-0.1-12.7,0.6-29.6,4-34.8c0,0-1-0.5-2.4-1.9c0.8,0.6,1.6,1.2,2.4,1.9
				c19.2,15.5,67.7-4.2,91.1-22.3c23.5-18.2,8.5-19.9-11.4-25c-19.9-5-47.8,12.6-58.8,12.1c-11-0.4-0.6-11.3,17.5-18.5
				c18.1-7.2,35.3,5.9,64.7-5.2c29.4-11.1,24.8-74.5,24.8-74.5c-16.4,15.5-56.5,21.9-61.1,15.9c-4.6-6,47.2-30.7,54.2-36.6
				C1229.9,411.5,1236,388.6,1211.6,360.8z"/>
			<path class="st2" d="M788.3,601.2L686.1,711.7L538.8,575.4l-62.1-57.5l102.2-110.5l115.9,107.3L788.3,601.2z"/>
			<path class="st3" d="M764.9,602.5l-79.4,85.8L497.3,514.1l79.3-85.8L764.9,602.5z M692.7,675.3l59.9-64.7
				c4-4.4,3.8-11.2-0.6-15.3L585,440.9c-4.5-4.1-11.4-3.9-15.6,0.6l-59.6,64.4c-4.1,4.4-3.9,11.3,0.6,15.4l167,154.5
				C681.8,679.9,688.6,679.7,692.7,675.3z"/>
			<path class="st3" d="M631.1,589.7c17.4,0,31.5-14.1,31.5-31.5s-14.1-31.5-31.5-31.5c-17.4,0-31.5,14.1-31.5,31.5
				C599.7,575.7,613.7,589.7,631.1,589.7z"/>
			<path class="st2" d="M880.4,601.8l-147.3,31.4l-41.8-196.3l-17.7-82.7l147.3-31.4l32.9,154.4L880.4,601.8z"/>
			<path class="st3" d="M860.5,589.3l-114.3,24.4l-53.5-250.8l114.3-24.4L860.5,589.3z M759.5,607.3l86.2-18.4
				c5.9-1.2,9.6-7,8.3-12.9l-47.4-222.4c-1.3-6-7.1-9.8-13.1-8.5l-85.9,18.3c-5.9,1.2-9.7,7-8.4,13l47.4,222.5
				C748,604.7,753.7,608.5,759.5,607.3z"/>
			<path class="st3" d="M776.6,507.6c17.4,0,31.5-14.1,31.5-31.5s-14.1-31.5-31.5-31.5s-31.5,14.1-31.5,31.5
				S759.3,507.6,776.6,507.6z"/>
			<path class="st4" d="M1348.5,994.2H645.4c-4.2,0-7.7-3.4-7.7-7.6V542c0-10.5,8.5-19.1,19.1-19.1h670.5
				c15.9,0,28.8,12.9,28.8,28.8v434.7C1356.2,990.7,1352.8,994.2,1348.5,994.2z"/>
			<path class="st5" d="M1326,983.5H664.5c-5.9,0-10.7-4.8-10.7-10.7V550c0-5.9,4.8-10.7,10.7-10.7H1326c5.9,0,10.7,4.8,10.7,10.7
				v422.8C1336.7,978.7,1331.9,983.5,1326,983.5z"/>
			<path class="st4" d="M798.7,554.2H669.9V565h128.9L798.7,554.2L798.7,554.2z"/>
			<path class="st6" d="M777,581.6H669.9v5.4H777L777,581.6L777,581.6z"/>
			<path class="st6" d="M726.5,596.2h-56.7v5.4h56.7V596.2z"/>
			<path class="st6" d="M741.9,610.8h-72v5.4h72V610.8z"/>
			<path class="st6" d="M770.7,610.8h-19.5v5.4h19.5V610.8z"/>
			<path class="st6" d="M814.3,610.8h-36.9v5.4h36.9V610.8z"/>
			<path class="st6" d="M787.2,596.2h-56.7v5.4h56.7V596.2z"/>
			<path class="st7" d="M1069,765.5c0,0-6.3-7.7-9.7-8.7c-3.4-1-10-6.2-10.8-4.1c-0.9,2.1,4.4,5.3,4.1,7.7
				c-0.3,2.4-16.8,6.3-16.7,8.8s3.9,8.7,10.2,8c6.3-0.7,22.2-4.5,25.5-2.9C1074.9,775.9,1069,765.5,1069,765.5z"/>
			<path class="st6" d="M1239.2,728.2c-9.3,12.5-20.2,22.4-31.5,30.2c-35.7,24.8-74.3,28.5-74.3,28.5c-9.3-3-37.7-6.1-54.5-8.8
				c-7.3-1.2-12.4-2.3-12.8-3.3l0.4-14.7c0,0,61.7-3.3,71.9-8c16.1-13.9,30.4-31.9,39.7-46c7.8-11.9,16.6-20.7,31.1-25.8
				C1230.2,672.9,1268.2,689.3,1239.2,728.2z"/>
			<path class="st8" d="M1211,749.2l-3.2,9.2c-35.7,24.8-74.3,28.5-74.3,28.5c-7.4,0-37.7-6.1-54.5-8.8c0.6,0,45.8,3.6,55.8,2.6
				c10.1-1,56.8-41.6,56.8-41.6L1211,749.2z"/>
			<path class="st4" d="M1189,882.8c0,0,3.1,38.3,6.7,84.2c1.3,14,2.3,27,2.3,27s35-10,58,0c0,0,10.1,9,15-52c0.1-1-2.1,32-2,31
				c4.5-62.1,5.7-95.5,5.7-95.5L1189,882.8z"/>
			<path class="st9" d="M1188,869.6c0,0,4.1,51.5,7.7,97.4l60.3,27c0.1-1,18.9-98.3,13-11c4.5-62.1,5.7-105.5,5.7-105.5L1188,869.6z
				"/>
			<path class="st4" d="M1314,973c-12.5-17.6,10.2-125.3-40.3-126.7c-50.5-1.4-66.1,23.3-66.1,23.3S1236.5,937,1252,983"/>
			<path class="st7" d="M1229.3,690.9c7.4,3.9,14.7,4.1,21,2.8c5.8-1.2,10.7-3.8,14.2-6c3.6-2.3,5.7-4.3,5.7-4.3s-0.3-0.3-0.7-1.1
				c-2.2-3.8-8.9-17.3-5.9-39c0.1-0.3-2.1,0.1-5.4,0.9c-9.7,2.3-29.1,7.8-30,8h-0.1c0,0-0.2,4.6-1,12.7c-0.1,0.7-0.2,1.5-0.2,2.3
				c-0.1,1-0.2,2-0.3,3C1225.9,678.8,1229.3,690.9,1229.3,690.9z"/>
			<path class="st10" d="M1227.3,665c14.4,3.3,35.9-18,35.9-18c-1.6-1.2-3.3-2.1-4.9-2.8c-9.7,2.3-29.1,7.8-30,8h-0.1
				C1228.3,652.2,1228.1,656.8,1227.3,665z"/>
			<path class="st7" d="M1222.4,651.1c0,0,5.9,2.1,13.5,3.2c11.1,1.5,25.6,0.6,30.2-12.8c7.7-22.5,17.5-36-5.1-45.2
				c-12.1-4.9-19.9-5.2-25.2-3.3c-4.6,1.6-7.3,4.9-9.3,8.1C1222.1,607.9,1213.3,647.1,1222.4,651.1z"/>
			<path class="st11" d="M1208.7,602.8c13.1,9.4,31.3,0.2,36.9,2.7c5.6,2.5,6.7,11.9,6.8,14.9s0.5,5.5,8.1,3.8
				c1.2-0.3,2.2-0.2,2.8,0.2c3.2,1.9-0.9,11-2.1,13c0,0-1.8,6.6,2.1,9.7c0.5,0.4,8.1,3.8,26.6-24.6c2.9-4.4,5.7-14.5,1.2-24.1
				s-23.2-18.9-39.1-23.9c-6-1.9-10.4-1.8-13.8-0.5c-5.8,2.1-8.8,7.5-11.9,13C1221.1,596.2,1208.7,602.8,1208.7,602.8z"/>
			<path class="st6" d="M1293,878.1c0,0-6.4,1.4-14.3,2.7c-7.8,1.3-17.3,2.6-24,2.6c-34.2-0.3-62.8-10.4-62.8-10.4
				c-6.4,0-9.4-10-10.4-23.9c-0.7-9.4-0.5-20.6-0.1-31.8c0.2-3.6,0.4-7.3,0.6-10.8c0.4-7,1-13.8,1.4-19.7c0.4-5.6,0.8-10.5,1.1-14.3
				c0,0-0.9-26.6-0.5-50c0.3-16.8,9.7-32.1,12-34.6c6.8-7.3,26.7-11.8,30.7-12.5c0.3,0,0.4,0,0.4,0c16.3,9.2,38.3-3.2,38.3-3.2
				c0.5,0.1,1,0.2,1.5,0.3c1.6-0.3,18.1,2.1,21.9,4.2c9.5,5.2,15,62.5,15,62.5c1.6,39-0.4,101.3,2.7,125.2
				C1307.5,872.3,1299.9,876.5,1293,878.1z"/>
			<path class="st8" d="M1266.8,672.5c0,0-24.3,25-41.7,19.9c0,0-2.3-3.4,5.5-4.5C1238.4,686.9,1246.8,687.4,1266.8,672.5z"/>
			<path class="st6" d="M1222.2,636.5c0,0-0.5,2.9,6.3,5.2c0,0,5.7,2,6.8-1C1235.3,640.8,1230.8,636.4,1222.2,636.5z"/>
			<path class="st8" d="M1280.1,767.4c0,0-35.3,59-55.3,69.4c-13.6,7-32.5,10.8-43.3,12.4c-0.7-9.4-0.5-20.6-0.1-31.8
				c14.3-1.7,36.2-4.5,36.2-4.5L1280.1,767.4z"/>
			<path class="st8" d="M1233.6,737.7l-18.8,67.9c0,0-22.1,1.4-32.8,1c0.4-7,0.4-7.3,0.9-13.2
				C1182.9,793.4,1208.3,780.1,1233.6,737.7z"/>
			<path class="st7" d="M1120.3,810.7c0,0-6.3-7.7-9.7-8.7c-3.4-1.1-10-6.2-10.8-4.1c-0.9,2.1,4.4,5.3,4.1,7.7
				c-0.3,2.4-16.8,6.3-16.7,8.8c0.1,2.6,3.9,8.7,10.2,8c6.3-0.7,22.2-4.5,25.5-2.9C1126.2,821.1,1120.3,810.7,1120.3,810.7z"/>
			<path class="st6" d="M1305.8,716.4c0,0,1.1,36-80.9,108.1l-16.5-29.5c-3.1-1.8,53-122.2,69-121.2
				C1308.7,675.7,1305.8,716.4,1305.8,716.4z"/>
			<path class="st6" d="M1218.2,791.6c0,0-93.3,10.7-96.7,12.5c-3.4,1.9-10.8,9.1-8.4,18.1c0,0,48.3,6.1,74.8,6
				c22.9-0.1,37.7-3.8,37.7-3.8L1218.2,791.6z"/>
			<path class="st12" d="M1135,577.2c0.2,32.5-11.2,62.4-30.4,85.7c-16.5,20.1-25.7,45.1-25.7,71.1v37.4c0,10.6-3.8,20.3-10.3,27.9
				c-7.9,9.4-19.8,15.3-32.9,15.3h-69.1c-23.8,0-43.2-19.4-43.2-43.2V734c0-25.9-9.2-50.9-25.6-71c-19-23.1-30.5-52.8-30.5-85.1
				c0-63.9,44.8-117.4,104.7-130.7c1.7-0.4,3.4-0.7,5.1-1c0.9-0.1,1.8-0.4,2.8-0.5c7-1.1,14-1.7,21.3-1.7
				C1074.9,444.1,1134.6,503.4,1135,577.2z"/>
			<path class="st4" d="M1035.4,814.6l-0.2,1.1l-1.9,14.5l-0.5,3.8v0l-0.5,3.8l-1.9,14.5l-0.5,3.8v0l-0.5,3.8l-0.3,2.1
				c-0.9,7.4-9.4,13-19.5,13h-22.7c-2.4,0-4.7-0.3-6.8-0.9c-1.9-0.5-3.7-1.3-5.3-2.2l-0.2,0c-1.3-0.7-2.5-1.6-3.5-2.6
				c-2-2-3.4-4.4-3.8-7.1l-0.8-5.6l-0.5-3.5v-0.1l-0.5-3.5l-1.9-13.5l-0.5-3.5v-0.1l-0.5-3.5l-2.1-14.6L1035.4,814.6z"/>
			<path class="st9" d="M1026.4,814.6h-0.2h-12.7c-20.8,6-41.3,11.9-50.8,14.6l0.5,3.5v0.1l0.5,3.5c7.7-2.1,26.3-7.4,71.5-20.6
				l0.2-1.1L1026.4,814.6z"/>
			<path class="st9" d="M966.2,853.3L966.2,853.3l0.5,3.6c8.9-2.5,27.4-7.8,65.7-18.9l0.5-3.8v0l0.5-3.8
				c-24.3,7-53.6,15.5-67.8,19.5L966.2,853.3z"/>
			<path class="st9" d="M974.7,872.3l0.2,0c1.6,0.9,3.4,1.7,5.3,2.2c10.5-3,26.1-7.5,49.4-14.3l0.5-3.8v0l0.5-3.8
				c-20.8,6-44.5,12.9-59.3,17.1C972.2,870.7,973.4,871.6,974.7,872.3z"/>
			<path class="st5" d="M951.1,642.8l-6,1l29,171.3l6-1L951.1,642.8z"/>
			<path class="st5" d="M1050.3,645.4L1019.5,814l6,1.1l30.8-168.6L1050.3,645.4z"/>
			<path class="st5" d="M1017.1,674.4c-0.8,0-1.6-0.1-2.6-0.3c-1.6-0.4-2.7-1.5-3-3.3c-0.7-3.8,2.3-10.8,6.5-16.6
				c-2.2-3.8-5.1-7-8.1-7.9c-4.5-1.4-11.4,2.8-16.2,8.1c0.9,1.2,1.7,2.6,2.4,3.8c2.5,4.6,4.2,10.6,1.8,13.3c-0.9,1-2.7,1.9-6.4,0.6
				c-4.5-1.7-6.2-5.6-4.5-10.5c0.8-2.5,2.4-5,4.3-7.3c-3.7-4.8-8.7-8.5-13.6-7.9c-2.6,0.3-4.9,1.2-6.8,2.6
				c3.1,5.8,3.8,13.2,1.7,17.2c-1.5,2.7-4.1,3.5-7.3,2.4c-2.3-0.8-3.5-4-3.1-8.1c0.4-4.2,2.6-8.8,6.3-12c-1-1.5-2.1-2.9-3.5-3.9
				c-8.4-6.6-15.4,0.5-15.7,0.8L948,644c0.1-0.1,8.4-8.5,18.2-0.9c1.5,1.1,2.8,2.6,3.8,4.2c2.1-1.4,4.5-2.4,7.5-2.8
				c5.5-0.7,11,3.2,15,8.3c5.2-5.7,12.7-9.9,17.8-8.3c3.3,1,6.4,4.1,8.7,8c2.2-2.9,4.6-5.3,7-6.9c3.8-2.5,6.3-2,7.7-1
				c1.4,0.9,2.7,2.2,3.7,3.7c1.1-0.9,2.4-1.7,3.6-2.3c4.4-2.2,8.5-2.1,11.4,0.5l-1.2,1.4c-3.2-2.7-7.3-1.3-9.5-0.2
				c-1.2,0.6-2.3,1.3-3.4,2.2c3,5.3,3.5,12.2,1.8,15.6c-1.1,2.1-3,2.9-5.2,2c-4-1.5-5-4.2-5.1-6.3c-0.2-3.9,2.5-8.4,6.1-11.7
				c-0.9-1.4-2-2.6-3.3-3.4c-1.7-1.1-4-0.1-5.7,1c-2.4,1.6-4.9,4.2-7.1,7.1c2.8,5.2,4.2,11.3,3.1,15.2
				C1022.7,671.5,1021.2,674.4,1017.1,674.4z M1018.9,656c-3.7,5.3-6.2,11.3-5.6,14.5c0.2,1,0.7,1.6,1.6,1.8
				c3.6,0.8,5.8-0.3,6.6-3.1C1022.3,665.8,1021.2,660.7,1018.9,656z M992.4,655.9c-1.7,2.1-3,4.3-3.7,6.4c-1.4,4.1-0.3,6.8,3.4,8.2
				c1.5,0.5,3.4,1,4.3,0c1.4-1.6,0.6-6.3-2.1-11.2C993.8,658,993.1,657,992.4,655.9z M969.5,650c-3.2,2.9-5,6.9-5.4,10.5
				c-0.3,3.1,0.4,5.7,1.9,6.2c2.3,0.8,4,0.3,5.1-1.6C972.8,661.8,972.2,655.3,969.5,650z M1037.1,651.2c-3.2,3.1-5.3,7-5.2,10
				c0.2,2.2,1.4,3.8,3.9,4.7c1.3,0.5,2.3,0.2,2.9-1.1C1040.2,661.9,1039.6,655.9,1037.1,651.2z"/>
			<path class="st6" d="M1070.2,495.6c11,10.4,9.6,29.4-4.5,33.7c-10.7,3.2-26.6-1.1-34.5-14.7c-7.8-13.6-4.2-24.8,5.4-30.4
				C1046.3,478.6,1058.8,484.9,1070.2,495.6z"/>
			<path class="st13" d="M1401.3,994H583.6c-5.8,0-10.5-4.7-10.5-10.5v-0.3c0-5.8,4.7-10.5,10.5-10.5h817.8
				c5.8,0,10.4,4.7,10.4,10.5v0.3C1411.8,989.4,1407.2,994,1401.3,994z"/>
			<path class="st14" d="M854.3,849.7H704.9v123.2h149.4V849.7z"/>
			<path class="st15" d="M928.9,849.7H779.5v123.2h149.4V849.7z"/>
			<path class="st16" d="M779.5,849.7h149.8v39.2l-149.8,84V849.7z"/>
			<path class="st15" d="M779.5,849.7l29.6,32.4h147.4L929,849.7H779.5z"/>
			<path class="st17" d="M779.5,863.6l-31.5,31.5h-43.2v-45.4h74.6L779.5,863.6L779.5,863.6z"/>
			<path class="st15" d="M704.9,849.7l-33.6,32.4H746l33.5-32.4H704.9z"/>
			<path class="st18" d="M1500.4,992.4c35.5-4.7,60.5-37.2,55.8-72.7c-4.7-35.5-37.2-60.5-72.7-55.8c-35.5,4.7-60.5,37.2-55.8,72.7
				C1432.4,972,1464.9,997,1500.4,992.4z"/>
			<path class="st19" d="M1463.3,986.2c0.8,0.5,1.6,0.9,2.4,1.4c0.3,0.2,0.5,0.3,0.8,0.4c0.6,0.3,1.3,0.6,1.9,1
				c30.9,15.1,68.5,3.5,85.3-26.9c16-29,7.4-65-18.8-83.9c-2.1-1.5-4.3-2.9-6.6-4.2c-0.8-0.4-1.7-0.9-2.5-1.3
				c-0.8-0.4-1.6-0.8-2.5-1.2c-2.5-1.1-5.1-2.1-7.7-2.9c-3.9-1.2-7.8-2-11.7-2.4c-12.2-1.3-24.5,0.9-35.4,6.3
				c-11.5,5.7-21.6,14.8-28.2,26.9C1423.4,930.1,1433.8,968.3,1463.3,986.2z"/>
			<path class="st20" d="M1496.5,989.6c-9.5,0-19.1-2.3-27.9-7.2c-28.1-15.4-38.3-50.8-22.8-78.9c15.4-28.1,50.8-38.3,78.9-22.8
				c28.1,15.4,38.3,50.8,22.8,78.9C1536.9,978.8,1517,989.6,1496.5,989.6z M1496.7,875.1c-19.9,0-39.3,10.5-49.6,29.2
				c-15,27.3-5.1,61.7,22.2,76.8c27.3,15,61.7,5.1,76.7-22.2l0.7,0.4l-0.7-0.4c15-27.3,5.1-61.7-22.2-76.8
				C1515.2,877.3,1505.9,875.1,1496.7,875.1z"/>
			<path class="st20" d="M1466.6,944.4c0.1,2.3,0.6,4.5,1.6,6.6c0.1,0.2,0.2,0.3,0.2,0.4c1,1.9,2.4,3.7,4.1,5.3
				c1.9,1.8,4.1,3.3,6.8,4.7l-3.4,8.4l7.3,3l3.4-8.4c2.6,0.8,5.3,1.2,8,1.3c2.7,0.1,5.3-0.2,7.8-1.1c2.5-0.8,4.7-2.3,6.9-4.3
				c2.1-2,3.8-4.7,5.2-8.1l-13.2-5.4c-0.8,2-1.8,3.5-2.9,4.7c-1.1,1.1-2.3,1.9-3.6,2.3c-1.3,0.4-2.6,0.5-3.9,0.4
				c-1.3-0.2-2.6-0.5-3.9-1c-1.4-0.6-2.6-1.3-3.6-2.1c-0.9-0.8-1.6-1.7-2.1-2.6c-0.4-0.9-0.7-1.9-0.7-3c0-1,0.2-2.1,0.6-3.1
				c0.5-1.2,1.1-2.2,1.8-2.9c0.7-0.8,1.6-1.4,2.7-1.8c1-0.4,2.3-0.7,3.8-0.8s3.2-0.2,5.1,0c3.4,0.2,6.6,0.2,9.5,0
				c2.9-0.2,5.5-0.6,7.8-1.4s4.4-2,6.2-3.6c1.8-1.6,3.2-3.8,4.3-6.6c1-2.4,1.4-4.8,1.4-7.1c-0.1-2.3-0.5-4.5-1.5-6.7
				s-2.4-4.1-4.2-5.9c-1.8-1.8-4.1-3.4-6.7-4.8l3.7-9.1l-7.3-3l-3.8,9.2c-2.8-0.7-5.4-1-8-0.8c-2.6,0.2-4.9,0.8-7.1,1.9
				c-2.2,1.1-4.1,2.6-5.9,4.5c-1.7,2-3.2,4.3-4.3,7.2l13.2,5.4c1.4-3.4,3.2-5.6,5.4-6.7c2.2-1.1,4.5-1.1,7.1,0
				c1.4,0.5,2.5,1.2,3.3,2c0.8,0.8,1.4,1.6,1.8,2.6c0.4,0.9,0.5,1.9,0.4,2.9c-0.1,1-0.3,2.1-0.7,3.1c-0.4,1-0.9,1.9-1.6,2.7
				c-0.6,0.7-1.5,1.3-2.5,1.7c-1,0.4-2.3,0.7-3.8,0.8c-1.5,0.2-3.3,0.2-5.4,0.1c-3.4-0.1-6.6,0-9.4,0.2c-2.9,0.2-5.5,0.7-7.8,1.5
				c-2.4,0.8-4.4,2-6.2,3.7c-1.6,1.4-2.9,3.3-3.9,5.6c-0.2,0.3-0.3,0.6-0.4,0.9C1467,939.7,1466.6,942.1,1466.6,944.4z"/>
			<path class="st21" d="M1545.1,702.7c-0.2-0.8,17.3,7.9,18.2,8.9c8.2,9.1,5.9,20.9,1.2,21c-3,0.1-2.4,5.1-2.4,5.1l-33.5-14.2
				C1528.6,723.5,1532.6,700,1545.1,702.7z"/>
			<path class="st21" d="M1541,704.5c0,0-1.2-13,13.4-13c0,0-4.4,1.2-6.7,3.6c0,0,9.3-5.5,19.4,2.9c10.2,8.4,3.8,29.4,6.9,33.4
				c3.1,4,15,4.8,13.6,17.7c-1.5,12.9-38,29.1-35.7,39.8c0,0-14.3-21.1-4.1-30.7c0,0-5,4.7-5.5,10.3c0,0-1.4-10.9,5.6-14.4
				c6.2-3.1,11.2-14.4,10.7-16.4C1558.1,735.7,1541,704.5,1541,704.5z"/>
			<path class="st22" d="M1554.3,765.9c2.3-10.8,16.3-14.2,22.9-5.3c1.2,1.6,2,3.5,2.3,5.7c1.5,12.3-18.1,62.3-20.9,66.8
				c-5.1,8.2-35.3,36.5-35.3,36.5l-5.6-3.3c0,0,21.4-36.2,24.7-39.6C1546.2,822.7,1550,786.5,1554.3,765.9z"/>
			<path class="st22" d="M1525.3,866.2c0,0-8.1-5.3-11.2-5c-3.1,0.3-11.9,2.9-12.1,4.2c-0.2,1.3,9.9,2.1,10.6,2.9
				c0.6,0.7,7.4,5.3,9.9,3.8C1525.1,870.7,1525.3,866.2,1525.3,866.2z"/>
			<path class="st4" d="M1581.9,986.5l7.3-1.1c0,0,24.4-19.4,28-55.5c0.4-3.7,0.4-7.4,0.2-11.1c-0.1-0.5,0-0.9,0.3-1.2
				c0.8-1.2,2.7-4.2,5.3-8.4c2.6-4.2,7-12.1,11.9-21c8.8-16,19-35.2,22.5-41.3c11.2-19.5,5.8-32.5,5.8-32.5s-31.2-3.1-39.7-10.5
				l-3.1,4.7c0,0-6.8,29.9-6.5,30c-0.3,1-0.7,2.1-1,3.1c-5.3,16.5-11.4,37-14.8,53.8c-1.9,9.4-2.9,17.7-2.3,23.2
				c0.2,1.9-0.1,4.9-0.5,8.5C1592.2,948.5,1581.9,986.5,1581.9,986.5z"/>
			<path class="st9" d="M1566.7,995.7h30.2c0,0,0.7-4.6-0.8-8.1c-1.5-3.3-3.7-3.5-0.3-8.7c-1.9,2-8.1,2.8-12.5,2.2
				c-0.5,0.9-3.4,6.7-5.2,8C1576.2,990.5,1567.4,990,1566.7,995.7z"/>
			<path class="st9" d="M1612.9,841.6c2.7,14.5,8.9,38.8,21.9,46.5c8.8-16,19-35.2,22.5-41.3c11.2-19.5,5.8-32.5,5.8-32.5
				s-31.2-3.1-39.7-10.5l-3.1,4.7c0,0-6.8,29.9-6.5,30C1613.6,839.5,1613.2,840.5,1612.9,841.6z"/>
			<path class="st23" d="M1557.5,759.2c0,0-4.3,4.4-6.2,9.8c0,0,6.8,19.6,22.7,22C1574,791,1561.4,759.2,1557.5,759.2z"/>
			<path class="st4" d="M1634.1,816.5l-0.1-5.7c11.2,1.4,38.8-13.5,38.8-13.5s11.8,7.8,13.4,30.2c0.8,11,5.8,57.1,6.3,70.9
				c0.2,5,0.2,8.6,0.3,10c0,0.4,0.2,0.8,0.5,1.2c2.3,3,4.3,6.1,6.1,9.4c17.2,32,8.2,75.4,8.2,75.4l-4-1c0,0-14.6-45-24-64.5
				c-1.6-3.3-3.1-5.9-4.3-7.3c-3.6-4.3-7.3-11.7-11.1-20.6c-7-16.8-13.8-38.9-18.7-56C1645.2,845.1,1634.1,816.5,1634.1,816.5z"/>
			<path class="st7" d="M1568.2,778.8c18.4-4.2,6.7-30.1,5.6-29.6c-2.6-0.5-8.1-5-13.2-13.8l-0.7,0.6l-11.3,9.9c0,0,2.6,3.8,4.8,7.6
				c1.7,3,3.2,5.9,3,6.9C1555.5,761.1,1563.3,779.9,1568.2,778.8z"/>
			<path class="st22" d="M1548.6,745.9c0,0,2.6,3.8,4.8,7.6c7.1-4.3,7.1-13,6.5-17.6L1548.6,745.9z"/>
			<path class="st7" d="M1548.3,750.9c0,0,17.1-9.5,11-20s-8-18.9-19.1-13.3c-11.1,5.6-10.9,10.8-9.8,14.8
				C1531.6,736.4,1543.7,753.1,1548.3,750.9z"/>
			<path class="st21" d="M1527.5,726.3c0.8-4.7,3.2-5.1,4.8-4.8c6.3-10.4,16.6-6.4,16.6-6.4c5.5,6.9,13.5,8.1,13.5,8.1
				s-2,3.7-10.2,6c-2.5,0.7-5.3,0.3-8-0.6c5.7,3.2,11.6,4.3,11.6,4.3c-10.8,1-21-8.8-22-9.9c-0.5,1.5-1.4,4.7-0.8,7
				c0.7,3.2,3.5,8.9,1.8,9.7C1534.7,739.7,1526.3,733.3,1527.5,726.3z"/>
			<path class="st9" d="M1683.6,995.7h30.2c0,0,0.7-4.6-0.8-8.1c-1.5-3.3-3.9-4.9-3.3-8.9c-1.9,2-5,4.2-9.4,3.6
				c-0.5,0.9-3.4,5.5-5.2,6.8C1693,990.5,1684.2,990,1683.6,995.7z"/>
			<path class="st5" d="M1566,799.3c3.9,1.4,9.3,2.1,14.9,2.7c7.9,0.9,16.2,1.5,20.5,3.2c1.6,0.6,2.6,1.4,3,2.4
				c1.9,5.6,10.1,14.3,10.1,14.3c52.6-2.4,58.4-24.4,58.4-24.4c-35.4-41.2-95.4-53.1-95.4-53.1s-4.3-1.8-15.1,6.8
				c-7.2,5.7-6.3,7.9-6.3,7.9S1554.6,795.3,1566,799.3z"/>
			<path class="st23" d="M1580.9,802c7.9,0.9,16.2,1.5,20.5,3.2c1.8-26.2-10.7-46-10.7-46S1582.7,792.1,1580.9,802z"/>
			<path class="st7" d="M1572.8,754.1c0,0,19.9,2,21.5,14.9c1.6,12.9-19.1,65.6-22,70.4c-5.4,8.7-37.2,38.5-37.2,38.5l-5.9-3.5
				c0,0,22.5-38.1,26-41.7C1560.7,827,1566,758.6,1572.8,754.1z"/>
			<path class="st5" d="M1593.7,776.8c-0.1,0.3-18.4,6-30.2,0c0,0-2.5-27.2,11.5-25.7c14.1,1.5,22.4,5.9,22.8,12.7
				C1598.2,770.5,1593.7,776.8,1593.7,776.8z"/>
			<path class="st7" d="M1536.9,874.1c0,0-7.2-6.6-10.2-6.7c-3.1-0.2-12.3,0.9-12.6,2.2s9.4,3.7,10,4.5c0.5,0.8,6.5,6.4,9.2,5.4
				C1535.9,878.5,1536.9,874.1,1536.9,874.1z"/>
			<path class="st24" d="M1421.9,488.6H1135l2-72.1H1424L1421.9,488.6z"/>
			<path class="st2" d="M1404.9,440.9l-0.2,8.6c-0.1,3.8-3.3,6.9-7.1,6.9h-237.7c-3.8,0-6.8-3.1-6.7-6.9l0.3-8.6
				c0.1-3.8,3.3-6.9,7.1-6.9h237.7C1402,434,1405,437.1,1404.9,440.9z"/>
			<path class="st25" d="M1356.8,442.7h-3.7l0.1-1.1h5.1l-0.1,1l-3.4,6.3h-1.4L1356.8,442.7z"/>
			<path class="st25" d="M1359,445.2c0.1-2.1,1.4-3.8,3.3-3.8c1.9,0,3.1,1.7,3.1,3.8c-0.1,2.1-1.4,3.8-3.3,3.8
				C1360.2,449,1358.9,447.3,1359,445.2z M1364,445.2c0.1-1.4-0.6-2.6-1.8-2.6c-1.1,0-1.9,1.1-1.9,2.6c-0.1,1.4,0.6,2.6,1.8,2.6
				C1363.2,447.8,1363.9,446.7,1364,445.2z"/>
			<path class="st25" d="M1366.5,443.4c0.1-1,0.7-1.9,1.8-1.9s1.7,0.8,1.6,1.9c-0.1,1-0.7,1.9-1.8,1.9
				C1367.1,445.2,1366.5,444.4,1366.5,443.4z M1372.6,441.6h1l-5.5,7.3h-1L1372.6,441.6z M1369,443.4c0-0.6-0.3-1-0.8-1
				s-0.8,0.5-0.8,1c0,0.6,0.3,1,0.8,1C1368.6,444.4,1368.9,443.9,1369,443.4z M1370.8,447.1c0.1-1,0.7-1.9,1.8-1.9
				c1,0,1.7,0.8,1.6,1.9c-0.1,1-0.7,1.9-1.8,1.9C1371.4,449,1370.7,448.1,1370.8,447.1z M1373.2,447.1c0-0.6-0.3-1-0.8-1
				s-0.8,0.5-0.8,1c0,0.6,0.3,1,0.8,1S1373.2,447.7,1373.2,447.1z"/>
			<path class="st5" d="M1321.3,434l-0.6,22.4h-160.8c-3.2,0-5.8-2.2-6.5-5.1c-0.2-0.6-0.2-1.2-0.2-1.8l0.3-8.6
				c0.1-3.8,3.3-6.9,7.1-6.9L1321.3,434z"/>
			<path class="st23" d="M1188.9,434l-14.3,22.4h-14.8c-3.2,0-5.8-2.2-6.5-5.1l11.1-17.4L1188.9,434L1188.9,434L1188.9,434z"/>
			<path class="st23" d="M1231,434l-14.3,22.4h-24.5l14.2-22.4H1231z"/>
			<path class="st23" d="M1273.1,434l-14.3,22.4h-24.6l14.3-22.4H1273.1z"/>
			<path class="st23" d="M1315.2,434l-14.3,22.4h-24.6l14.3-22.4H1315.2z"/>
			<path class="st2" d="M1199.1,469.7h-42.9l0.1-3h42.9L1199.1,469.7z"/>
			<path class="st2" d="M1187.1,478h-31.2l0.1-3h31.2L1187.1,478z"/>
			<path class="st2" d="M1207.6,478H1189l0.1-3h18.6L1207.6,478z"/>
			<path class="st2" d="M1239.3,478h-28.4l0.1-3h28.5L1239.3,478z"/>
			<path class="st2" d="M1215.3,469.7h-13l0.1-3h13L1215.3,469.7z"/>
			<path class="st2" d="M1267,469.7h-47.3l0.1-3h47.3L1267,469.7z"/>
			<path class="st18" d="M675.9,786.3c26.6-6.3,43-32.9,36.8-59.4s-32.9-43-59.4-36.8c-26.6,6.3-43,32.9-36.8,59.4
				C622.7,776.1,649.3,792.6,675.9,786.3z"/>
			<path class="st19" d="M711.5,764.2c13.2-23.9,4.5-54-19.4-67.1c-23.9-13.2-54-4.5-67.1,19.4c-13.2,23.9-4.5,54,19.4,67.1
				C668.3,796.8,698.4,788.1,711.5,764.2z"/>
			<path class="st20" d="M668,785.1c-7.3,0-14.5-1.8-21.3-5.5c-10.4-5.7-17.8-15.1-21.2-26.5c-3.3-11.4-2-23.3,3.8-33.7
				s15.1-17.8,26.5-21.2c11.4-3.3,23.3-2,33.7,3.8c21.4,11.8,29.2,38.8,17.4,60.2C698.7,776.8,683.5,785.1,668,785.1z M668.1,697.7
				c-4,0-8,0.6-12,1.7c-11,3.2-20.2,10.5-25.7,20.6c-5.5,10.1-6.8,21.7-3.7,32.8c3.2,11,10.5,20.2,20.6,25.7
				c6.6,3.6,13.7,5.3,20.7,5.3c15.2,0,30-8,37.8-22.3c5.6-10.1,6.8-21.7,3.7-32.8c-3.2-11-10.5-20.2-20.6-25.7
				C682.4,699.5,675.3,697.7,668.1,697.7z"/>
			<path class="st20" d="M677.6,749.3c-0.4-0.9-0.8-1.6-1.4-2.2c-0.5-0.6-1.2-1-2-1.4c-0.8-0.3-1.8-0.5-2.9-0.6
				c-1.1-0.1-2.4-0.1-4,0c-2.6,0.2-5,0.2-7.2,0s-4.2-0.5-6-1.1s-3.3-1.5-4.7-2.8c-1.3-1.2-2.5-2.9-3.3-5c-0.7-1.8-1.1-3.7-1.1-5.4
				c0-1.8,0.5-3.5,1.2-5.1c0.7-1.6,1.8-3.1,3.2-4.5s3.1-2.6,5.1-3.7l-2.8-6.9l5.6-2.3l2.9,7c2.1-0.5,4.1-0.7,6.1-0.6
				s3.8,0.6,5.4,1.4c1.6,0.8,3.2,2,4.4,3.5c1.3,1.5,2.4,3.3,3.3,5.5l-10.1,4.1c-1-2.6-2.4-4.3-4.1-5.1c-1.7-0.8-3.5-0.8-5.4,0
				c-1,0.5-1.9,0.9-2.5,1.5c-0.6,0.6-1.1,1.2-1.4,2c-0.3,0.7-0.4,1.4-0.3,2.2s0.2,1.6,0.5,2.4c0.3,0.8,0.7,1.5,1.2,2
				c0.5,0.5,1.1,1,1.9,1.3c0.8,0.3,1.8,0.5,2.9,0.6c1.1,0.1,2.5,0.2,4.1,0.1c2.6-0.1,5,0,7.2,0.1c2.2,0.2,4.2,0.5,6,1.1
				c1.8,0.6,3.3,1.5,4.7,2.8c1.3,1.2,2.5,2.9,3.3,5c0.8,1.9,1.1,3.8,1.1,5.5c0,1.8-0.5,3.5-1.2,5.1c-0.7,1.6-1.9,3.1-3.3,4.4
				s-3.2,2.6-5.2,3.6l2.6,6.5l-5.5,2.3l-2.6-6.4c-2,0.6-4,0.9-6.1,1c-2.1,0.1-4-0.2-5.9-0.8c-1.9-0.6-3.6-1.7-5.2-3.3
				c-1.6-1.5-2.9-3.5-3.9-6.2l10.1-4.1c0.6,1.5,1.4,2.7,2.2,3.5c0.8,0.8,1.7,1.4,2.7,1.8c1,0.3,2,0.4,3,0.3c1-0.2,2-0.4,3-0.8
				c1.1-0.5,2-1,2.7-1.6c0.7-0.6,1.2-1.3,1.6-2c0.3-0.7,0.5-1.5,0.5-2.3C678.1,750.8,678,750,677.6,749.3z"/>
			<path class="st7" d="M619.1,711.6c2.1-1.5,6.8-4.7,7-4c0.2,0.5-0.1,1.4-0.6,2.3c2.9-1.1,5.7-1.8,12.5-0.4c1.4,0.2,2.6,1,3.3,2.2
				c0.7,1.1,0.9,2.4-0.8,3.5c-3.5,2.2-2.5,0.9-7.3,4c-4.8,3.2-10.8,4-14.3,1.7l-4.7-0.8l-0.6-7.8
				C613.7,712.4,616.4,712.1,619.1,711.6z"/>
			<path class="st7" d="M494.9,646.2c0,0,11.2,13.3,25.4,7.7c0,0,3.1-7.4,3.1-12.9c0-0.7,0-1.3,0-1.9c0.1-6.2,0.3-9.6,0.3-9.6
				c-0.6-0.3-21.8-8.9-21.8-8.2C502.3,637.9,494.9,646.2,494.9,646.2z"/>
			<path class="st10" d="M504.1,625.3c2,3.8,9,11.1,19.3,13.9c0.1-6.2,0.3-9.6,0.3-9.6C523.1,629.4,503.5,624.2,504.1,625.3z"/>
			<path class="st7" d="M528.1,628.9c0,0-23.7,5.6-27-9.3s-8.5-24.1,6.5-28.3c15-4.2,19.2,0.8,21.5,5.5
				C531.5,601.5,534.2,627.1,528.1,628.9z"/>
			<path class="st26" d="M502,623.7c-0.4,0.2-5.4,1.8-15.1-17.5c-1.5-3-2.6-9.6,1-15.3s16.1-10.4,26.5-12.3
				c10.5-2,12.9,3.9,15.4,9.8c2.6,6.2,10,11.3,10,11.3c-9,5-19.8-2.2-23.6-1s-5.1,7.1-5.4,9c-0.3,1.9-0.7,3.5-5.4,1.8
				c-4.7-1.7-2.1,6.7-1.4,8.3C504,617.7,504.7,621.9,502,623.7z"/>
			<path class="st21" d="M440.8,993.7h-14.4c-3,0-6.4-3-7.2-8.5s-7-8.5-8.4-13.1s5.5-10.9,5.5-10.9l1.1-1.5l1.2-1.5l11.4,2.7
				c0,0,0.3,2.7,0.4,6.2c0.1,2.5,0.2,5.4,0,7.9c-0.4,6,1.7,12.5,7,13.7C443,989.8,440.8,993.7,440.8,993.7z"/>
			<path class="st21" d="M540.9,993.7h-38.1c-0.4,0-0.6-0.2-0.8-0.3c-2.6-1.3-1.7-11-1.4-14c0-0.5,0.1-0.9,0.1-0.9
				s13.4-10.7,15.2-2.5c0,0.2,0.2,0.5,0.2,0.7c2.3,7.7,12.7,11.1,18.7,12.1C539.4,989.7,540.6,992.4,540.9,993.7z"/>
			<path class="st4" d="M533.2,774c0,0-2,25.4-4.4,55.9c-3.3,41.5-7.2,92.4-7.5,102c-0.6,16.8-3.3,43.5-3.3,43.5s-6.4,6.4-19.1,3.7
				c0,0-11.3-38.3-14.6-78.7c0-0.6-0.1-1.3-0.1-2c-3-41.2-7.7-128-7.7-128L533.2,774z"/>
			<path class="st9" d="M533.2,774c0,0-2,25.4-4.4,55.9l-44.6,70.5c0-0.6-0.1-1.3-0.1-2c-3-41.2-7.7-128-7.7-128L533.2,774z"/>
			<path class="st4" d="M523.9,777c0,0-36.7,91.9-60.8,135.2c-24.1,43.2-31.7,55.3-31.7,55.3s-13.8-5.5-15.1-9.3
				c0,0,9.2-83.4,25.4-103.8c9.1-11.5,19.8-46,20.4-58c0.5-12,3.3-35.9,3.3-35.9L523.9,777z"/>
			<path class="st7" d="M440.2,760.3l-0.4,5.9c0,0,3.9,10.5-7,15.9c0,0-4.7,1.9-4.9-1.8s0.4-2.3,0-7.4c-0.4-5.1,1.6-10,5-11.6
				l2.8-3.2L440.2,760.3z"/>
			<path class="st23" d="M436,764.5c4,1.3,4.7,1,4.7,1s19.8-36,21.8-39.3c2-3.3,42-40.3,42-40.3l-10.3-38.3c0,0-45.4,58.8-50.4,67.3
				c-8.1,14-12.9,46.3-12.9,46.3S432.8,763.6,436,764.5z"/>
			<path class="st5" d="M540.9,701c-0.2,7.8-0.6,16.7-1.2,25.7c0,0.5-0.1,1.1-0.1,1.6c-0.4,5.6-0.8,11.1-1.3,16.6
				c-0.2,2.2-0.4,4.3-0.6,6.5l0,0.3c0,0.8-0.1,1.6-0.2,2.4c-2,20.4-4.1,36.4-4.5,36.7c-0.4,0.3-1,0.5-1.6,0.4
				c-5.3-0.7-21.3,0.5-34.3-2.3c-11-2.3-20.5-6.7-30.5-12.7c-1.3-0.8-4.4-2.9-4.1-4.4c0.3-1.7,0.7-4.2,1.3-7.3
				c2-10.8,5.4-29.4,6.6-51.2c0.3-4,0.5-8.1,1-12c1.1-10.3,2.9-20,5.3-28.7c4.5-16.1,11-28.5,19.3-33.2c1.1-0.6,6.9,3.1,12.2,6.5
				c4.9,3.2,10.1,4,15.1,3.6l4.4,4.9c5.4,6.3,11.1,14.5,12.6,26.3c0.1,0.9,0.2,1.8,0.3,2.8C540.9,688.1,541.1,694.2,540.9,701z"/>
			<path class="st23" d="M540.9,701c-0.2,7.8-0.6,16.7-1.2,25.7c0,0.5-0.1,1.1-0.1,1.6c-30.5-19.1-35.2-54-35.2-54
				c15,0.6,26.9,4.1,36.1,9C540.9,688.1,541.1,694.2,540.9,701z"/>
			<path class="st5" d="M618,716c0.3-4.5-2-5.3-2-5.3s-46-8.3-49.9-9.6c-3.9-1.2-37.3-36-37.3-36s-12.8-14.5-23.3-11.2
				c-9.1,2.8-12.7,9.9-13.9,16.7c-1.4,8.1,2.3,16.2,9.3,20.5c15.7,9.6,47.1,28.6,54.5,30.8c16.5,4.8,60.7,0.4,60.7,0.4
				S617.8,719.6,618,716z"/>
			<path class="st18" d="M919.4,972.4c30.4,0,55.1-24.7,55.1-55.1s-24.7-55.1-55.1-55.1c-30.4,0-55.1,24.7-55.1,55.1
				S889,972.4,919.4,972.4z"/>
			<path class="st19" d="M914.5,972.4c30.4,0,55.1-24.7,55.1-55.1s-24.7-55.1-55.1-55.1s-55.1,24.7-55.1,55.1
				S884.1,972.4,914.5,972.4z"/>
			<path class="st20" d="M914.6,968.1c-13.4,0-26-5.2-35.5-14.7c-9.5-9.5-14.7-22.1-14.7-35.5s5.2-26,14.7-35.5
				c9.5-9.5,22.1-14.7,35.5-14.7c13.4,0,26,5.2,35.5,14.7c9.5,9.5,14.7,22.1,14.7,35.5c0,13.4-5.2,26-14.7,35.5
				C940.6,962.9,928,968.1,914.6,968.1z M914.6,870.7c-26,0-47.2,21.2-47.2,47.2s21.2,47.2,47.2,47.2c26,0,47.2-21.2,47.2-47.2
				C961.8,891.9,940.6,870.7,914.6,870.7z"/>
			<path class="st20" d="M921.5,932.5c0.2-1.1,0.1-2.1-0.1-2.9c-0.2-0.9-0.6-1.7-1.2-2.4c-0.6-0.7-1.4-1.5-2.5-2.2s-2.3-1.4-3.8-2.1
				c-2.6-1.3-5-2.6-7-3.9c-2.1-1.3-3.8-2.8-5.3-4.3c-1.4-1.6-2.5-3.3-3.1-5.2s-0.8-4.1-0.5-6.7c0.3-2.2,0.9-4.1,1.9-5.9
				c1-1.7,2.3-3.2,3.9-4.3c1.6-1.2,3.5-2.1,5.6-2.7c2.1-0.6,4.4-0.9,7-0.8l1-8.3l6.7,0.8l-1,8.4c2.4,0.6,4.4,1.5,6.3,2.7
				s3.3,2.6,4.5,4.3c1.2,1.7,2,3.6,2.5,5.8c0.5,2.2,0.6,4.5,0.3,7.1l-12-1.4c0.3-3.1,0-5.5-1.2-7.2c-1.2-1.7-3-2.7-5.2-3
				c-1.2-0.2-2.4-0.1-3.3,0.2s-1.7,0.6-2.4,1.2c-0.6,0.5-1.2,1.2-1.5,2c-0.4,0.8-0.6,1.7-0.7,2.6s-0.1,1.8,0.1,2.6s0.6,1.6,1.2,2.3
				c0.6,0.7,1.4,1.5,2.5,2.2c1,0.7,2.4,1.5,4,2.3c2.6,1.3,4.9,2.7,7,4c2.1,1.3,3.8,2.8,5.2,4.3c1.4,1.6,2.5,3.3,3.1,5.3
				c0.6,1.9,0.8,4.1,0.5,6.7c-0.3,2.3-0.9,4.2-1.9,6c-1,1.7-2.3,3.2-3.9,4.3c-1.6,1.1-3.5,2-5.6,2.6c-2.1,0.5-4.5,0.8-7,0.7
				l-0.9,7.7l-6.6-0.8l0.9-7.7c-2.3-0.5-4.4-1.3-6.5-2.3s-3.8-2.4-5.3-4c-1.5-1.6-2.6-3.7-3.3-6c-0.7-2.3-0.9-5-0.5-8.1l12,1.4
				c-0.2,1.8-0.2,3.4,0.3,4.7c0.4,1.3,0.9,2.4,1.7,3.2c0.8,0.8,1.7,1.5,2.8,1.9c1.1,0.5,2.2,0.7,3.3,0.8c1.3,0.2,2.5,0.2,3.5-0.1
				c1-0.3,1.9-0.6,2.7-1.1s1.3-1.1,1.8-1.9C921.1,934.3,921.3,933.5,921.5,932.5z"/>
			<path class="st6" d="M810.5,832.8c11.3,0,20.4-9.1,20.4-20.4c0-11.3-9.1-20.4-20.4-20.4c-11.3,0-20.4,9.1-20.4,20.4
				S799.2,832.8,810.5,832.8z"/>
			<path class="st2" d="M812.9,817.2c0-0.4,0-0.8-0.2-1.1c-0.1-0.3-0.3-0.6-0.6-0.9c-0.3-0.3-0.6-0.5-1-0.7
				c-0.5-0.3-0.9-0.5-1.5-0.6c-1-0.4-2-0.8-2.9-1.2c-0.8-0.4-1.6-0.9-2.2-1.4c-0.6-0.5-1.1-1.1-1.4-1.9c-0.3-0.7-0.5-1.6-0.4-2.5
				c0-0.8,0.2-1.6,0.5-2.3c0.3-0.7,0.7-1.3,1.3-1.8c0.5-0.5,1.2-0.9,2-1.2c0.8-0.3,1.6-0.5,2.6-0.6l0-3.2l2.6,0l0,3.3
				c0.9,0.2,1.8,0.4,2.5,0.8c0.7,0.4,1.4,0.9,1.9,1.5c0.5,0.6,0.9,1.3,1.2,2.1c0.3,0.8,0.4,1.7,0.4,2.7l-4.6,0
				c0-1.2-0.3-2.1-0.7-2.7c-0.5-0.6-1.2-0.9-2.1-0.9c-0.5,0-0.9,0-1.2,0.2c-0.3,0.2-0.6,0.3-0.9,0.5c-0.2,0.3-0.4,0.5-0.5,0.8
				c-0.1,0.3-0.2,0.6-0.2,1c0,0.4,0,0.7,0.2,1c0.1,0.3,0.3,0.6,0.5,0.8c0.3,0.2,0.6,0.5,1,0.7c0.4,0.3,1,0.5,1.6,0.7
				c1,0.4,2,0.8,2.8,1.2c0.8,0.4,1.6,0.9,2.2,1.4c0.6,0.5,1.1,1.2,1.4,1.9c0.3,0.7,0.5,1.5,0.4,2.5c0,0.9-0.2,1.7-0.5,2.4
				c-0.3,0.7-0.7,1.3-1.3,1.8c-0.6,0.5-1.2,0.9-2,1.2s-1.7,0.5-2.6,0.5l0,3l-2.6,0l0-3c-0.9-0.1-1.7-0.3-2.6-0.6
				c-0.8-0.3-1.6-0.7-2.2-1.3c-0.6-0.6-1.1-1.3-1.5-2.2c-0.4-0.9-0.5-1.9-0.5-3.1l4.6,0c0,0.7,0.1,1.3,0.3,1.8
				c0.2,0.5,0.4,0.8,0.8,1.1c0.3,0.3,0.7,0.5,1.1,0.6c0.4,0.2,0.8,0.2,1.3,0.2c0.5,0,0.9,0,1.3-0.2c0.4-0.1,0.7-0.3,0.9-0.5
				s0.5-0.5,0.6-0.8C812.8,817.9,812.9,817.6,812.9,817.2z"/>
			<path class="st6" d="M819,754.3c0-16.2,13.2-29.4,29.4-29.4c16.2,0,29.4,13.2,29.4,29.4c0,16.2-13.2,29.4-29.4,29.4
				C832.2,783.8,819,770.6,819,754.3z"/>
			<path class="st2" d="M851.9,761.3c0-0.6,0-1.1-0.2-1.6c-0.2-0.5-0.5-0.9-0.8-1.3s-0.9-0.7-1.5-1c-0.6-0.3-1.3-0.6-2.2-0.9
				c-1.5-0.5-2.9-1.1-4.1-1.7c-1.2-0.6-2.3-1.3-3.2-2.1s-1.5-1.7-2-2.7c-0.5-1-0.7-2.2-0.7-3.7c0-1.2,0.2-2.3,0.7-3.3
				c0.4-1,1.1-1.9,1.9-2.6c0.8-0.7,1.8-1.3,2.9-1.8c1.1-0.5,2.4-0.7,3.8-0.8l0-4.6l3.7,0l0,4.6c1.3,0.2,2.5,0.5,3.6,1.1
				c1.1,0.5,2,1.2,2.7,2.1c0.7,0.8,1.3,1.9,1.7,3c0.4,1.1,0.6,2.5,0.5,3.9l-6.7-0.1c0-1.7-0.3-3-1.1-3.8c-0.7-0.8-1.8-1.3-3.1-1.3
				c-0.7,0-1.3,0.1-1.8,0.3c-0.5,0.2-0.9,0.4-1.2,0.8c-0.3,0.3-0.6,0.7-0.7,1.2c-0.2,0.4-0.3,0.9-0.3,1.5s0,1,0.2,1.4
				c0.2,0.4,0.4,0.8,0.8,1.2c0.4,0.3,0.9,0.7,1.5,1s1.4,0.7,2.3,1c1.5,0.6,2.9,1.2,4,1.8c1.2,0.6,2.3,1.3,3.1,2.1
				c0.8,0.8,1.5,1.7,2,2.7c0.4,1,0.7,2.2,0.7,3.6c0,1.3-0.3,2.4-0.7,3.4c-0.5,1-1.1,1.9-1.9,2.6c-0.8,0.7-1.8,1.3-2.9,1.7
				c-1.1,0.5-2.4,0.7-3.8,0.8l0,4.3l-3.7,0l0-4.2c-1.3-0.2-2.5-0.4-3.7-0.9c-1.2-0.4-2.2-1.1-3.2-1.9c-0.9-0.8-1.6-1.9-2.2-3.1
				c-0.5-1.2-0.8-2.7-0.8-4.4l6.7,0.1c0,1,0.1,1.9,0.4,2.6c0.3,0.7,0.6,1.2,1.1,1.6c0.5,0.4,1,0.7,1.6,0.9c0.6,0.2,1.2,0.2,1.9,0.3
				c0.7,0,1.4-0.1,1.9-0.3s1-0.4,1.4-0.7c0.3-0.3,0.6-0.7,0.8-1.1C851.8,762.4,851.9,761.9,851.9,761.3z"/>
			<path class="st6" d="M788.5,734.5c22.2,0,40.2-18,40.2-40.2s-18-40.2-40.2-40.2s-40.2,18-40.2,40.2S766.3,734.5,788.5,734.5z"/>
			<path class="st2" d="M793.3,703.8c0-0.8-0.1-1.5-0.3-2.2c-0.2-0.6-0.6-1.2-1.1-1.7c-0.5-0.5-1.2-1-2-1.4s-1.8-0.9-3.1-1.3
				c-2.1-0.7-3.9-1.5-5.6-2.4c-1.7-0.8-3.1-1.8-4.3-2.8c-1.2-1-2.1-2.3-2.8-3.7c-0.6-1.4-0.9-3.1-0.9-5c0-1.7,0.3-3.2,0.9-4.5
				s1.5-2.6,2.6-3.5s2.4-1.8,4-2.4c1.5-0.6,3.3-1,5.1-1.1l0.1-6.3l5.1,0.1l-0.1,6.4c1.8,0.3,3.5,0.7,4.9,1.5
				c1.5,0.8,2.7,1.7,3.8,2.9c1,1.2,1.8,2.6,2.3,4.1s0.8,3.3,0.7,5.3l-9.1-0.2c0-2.4-0.4-4.1-1.5-5.3c-1-1.2-2.4-1.8-4.1-1.8
				c-0.9,0-1.8,0.1-2.5,0.3c-0.7,0.2-1.3,0.6-1.7,1.1c-0.5,0.4-0.8,1-1,1.6s-0.3,1.3-0.3,2s0.1,1.4,0.3,2s0.5,1.1,1.1,1.6
				c0.5,0.5,1.2,1,2,1.4s1.9,0.9,3.2,1.4c2,0.8,3.9,1.6,5.5,2.4s3.1,1.8,4.3,2.9c1.2,1.1,2.1,2.3,2.8,3.7s0.9,3.1,0.9,4.9
				c0,1.7-0.3,3.3-1,4.6c-0.6,1.4-1.5,2.5-2.6,3.5c-1.1,1-2.5,1.8-4,2.4c-1.6,0.6-3.3,0.9-5.2,1.1l-0.1,5.8l-5-0.1l0.1-5.8
				c-1.7-0.2-3.5-0.6-5.1-1.2c-1.6-0.6-3.1-1.5-4.3-2.6c-1.2-1.1-2.2-2.5-3-4.2c-0.7-1.7-1.1-3.7-1-6.1l9.1,0.2
				c0,1.4,0.2,2.6,0.5,3.5c0.4,0.9,0.9,1.7,1.5,2.3s1.4,1,2.2,1.2c0.8,0.3,1.7,0.3,2.6,0.4c1,0,1.9-0.1,2.6-0.3
				c0.7-0.3,1.4-0.6,1.9-1c0.5-0.4,0.9-1,1.1-1.6C793.2,705.3,793.3,704.6,793.3,703.8z"/>
		</g>
	</g>
</g>
<g>
	<path class="st27" d="M291.1,170.1l4.7-10.6c5.9,4.7,15.3,8.1,24.3,8.1c11.5,0,16.3-4.1,16.3-9.6c0-15.9-43.8-5.5-43.8-32.9
		c0-11.9,9.5-22,29.7-22c8.9,0,18.1,2.3,24.5,6.5l-4.3,10.6c-6.6-3.9-13.9-5.8-20.3-5.8c-11.4,0-16,4.4-16,10
		c0,15.7,43.7,5.5,43.7,32.6c0,11.8-9.6,21.9-29.8,21.9C308.7,179,297.2,175.4,291.1,170.1z"/>
	<path class="st27" d="M415,154h-44.1c1.6,8.2,8.4,13.5,18.2,13.5c6.3,0,11.3-2,15.3-6.1l7.1,8.1c-5.1,6-13,9.2-22.7,9.2
		c-18.9,0-31.1-12.1-31.1-28.9S370,121,386.8,121c16.4,0,28.5,11.5,28.5,29.1C415.3,151.2,415.1,152.8,415,154z M370.8,145.3h31.9
		c-1-8.1-7.3-13.7-15.9-13.7C378.3,131.6,372,137.1,370.8,145.3z"/>
	<path class="st27" d="M460.5,121v12.5c-1.2-0.2-2.1-0.3-3.1-0.3c-10,0-16.3,5.9-16.3,17.4v27.3h-13.2v-56.3h12.5v8.2
		C444.2,124,451.1,121,460.5,121z"/>
	<path class="st27" d="M469.8,104.5c0-4.4,3.6-7.9,8.4-7.9s8.4,3.3,8.4,7.6c0,4.6-3.5,8.2-8.4,8.2
		C473.4,112.4,469.8,108.9,469.8,104.5z M471.6,121.7h13.2v56.3h-13.2V121.7z"/>
	<path class="st27" d="M554.8,154h-44.1c1.6,8.2,8.4,13.5,18.2,13.5c6.3,0,11.3-2,15.3-6.1l7.1,8.1c-5.1,6-13,9.2-22.7,9.2
		c-18.9,0-31.1-12.1-31.1-28.9s12.3-28.8,29.1-28.8c16.4,0,28.5,11.5,28.5,29.1C555,151.2,554.9,152.8,554.8,154z M510.5,145.3h31.9
		c-1-8.1-7.3-13.7-15.9-13.7C518,131.6,511.8,137.1,510.5,145.3z"/>
	<path class="st27" d="M561.2,172.4l5.1-10c5,3.3,12.5,5.6,19.6,5.6c8.3,0,11.8-2.3,11.8-6.2c0-10.8-34.8-0.6-34.8-23.1
		c0-10.6,9.6-17.6,24.8-17.6c7.5,0,16,1.8,21.1,4.8l-5.1,10c-5.4-3.2-10.8-4.2-16.1-4.2c-8,0-11.8,2.6-11.8,6.3
		c0,11.4,34.8,1.3,34.8,23.3c0,10.5-9.7,17.4-25.5,17.4C575.6,178.7,566.3,175.9,561.2,172.4z"/>
	<path class="st27" d="M700.1,160.9h-36.9l-7.3,17.1h-14.1l33.2-73.8h13.5l33.3,73.8h-14.3L700.1,160.9z M695.6,150.1l-13.9-32.3
		l-13.8,32.3H695.6z"/>
	<path class="st27" d="M310.6,245.2v3.4h15.5v10.5H311v45.3h-13.2v-45.3h-9.3v-10.5h9.3V245c0-11.8,7.1-19.5,20.1-19.5
		c4.5,0,9,0.9,11.9,3.1l-3.7,9.9c-2-1.4-4.5-2.3-7.3-2.3C313.5,236.1,310.6,239.2,310.6,245.2z"/>
	<path class="st27" d="M389.4,248.1v56.3h-12.5v-7.2c-4.2,5.2-10.9,7.9-18.1,7.9c-14.4,0-24.2-7.9-24.2-24.9v-32.1h13.2v30.3
		c0,10.2,4.9,15.1,13.2,15.1c9.2,0,15.4-5.7,15.4-17v-28.4L389.4,248.1L389.4,248.1z"/>
	<path class="st27" d="M462.1,272.1v32.3H449v-30.6c0-10-5-14.9-13.4-14.9c-9.4,0-15.7,5.7-15.7,17v28.5h-13.2v-56.3h12.5v7.3
		c4.3-5.2,11.2-7.9,19.4-7.9C452.1,247.5,462.1,255.2,462.1,272.1z"/>
	<path class="st27" d="M534.5,226.2v78.2h-12.7v-7.3c-4.4,5.4-11,8-18.6,8c-16.3,0-28.5-11.4-28.5-28.9s12.1-28.8,28.5-28.8
		c7.3,0,13.7,2.4,18.1,7.6v-28.9H534.5z M521.6,276.3c0-10.8-7.3-17.6-16.8-17.6c-9.5,0-16.8,6.9-16.8,17.6s7.3,17.6,16.8,17.6
		C514.3,293.9,521.6,287,521.6,276.3z"/>
	<path class="st27" d="M550,230.9c0-4.4,3.6-7.9,8.4-7.9s8.4,3.3,8.4,7.6c0,4.6-3.5,8.2-8.4,8.2C553.6,238.9,550,235.4,550,230.9z
		 M551.8,248.1H565v56.3h-13.2V248.1z"/>
	<path class="st27" d="M637.7,272.1v32.3h-13.2v-30.6c0-10-5-14.9-13.4-14.9c-9.4,0-15.7,5.7-15.7,17v28.5h-13.2v-56.3h12.5v7.3
		c4.3-5.2,11.2-7.9,19.4-7.9C627.7,247.5,637.7,255.2,637.7,272.1z"/>
	<path class="st27" d="M710.8,248.1v47.7c0,20.4-10.6,29.7-30.3,29.7c-10.5,0-21-2.7-27.4-8l5.9-9.9c5,4.1,13,6.7,20.8,6.7
		c12.4,0,17.9-5.7,17.9-17.1v-3c-4.6,5.1-11.3,7.5-18.9,7.5c-16.1,0-28.5-11-28.5-27.3c0-16.3,12.3-27.1,28.5-27.1
		c7.9,0,14.9,2.5,19.5,8.1v-7.5L710.8,248.1L710.8,248.1z M697.9,274.6c0-9.5-7.2-15.9-17.1-15.9c-10,0-17.2,6.4-17.2,15.9
		c0,9.6,7.2,16.1,17.2,16.1C690.7,290.7,697.9,284.2,697.9,274.6z"/>
	<path class="st27" d="M812.6,272.1v32.3h-13.2v-30.6c0-10-5-14.9-13.4-14.9c-9.4,0-15.7,5.7-15.7,17v28.5h-13.2v-78.2h13.2v28.4
		c4.3-4.6,11-7.2,18.8-7.2C802.6,247.5,812.6,255.2,812.6,272.1z"/>
	<path class="st27" d="M883.9,248.1v56.3h-12.5v-7.2c-4.2,5.2-10.8,7.9-18.1,7.9c-14.4,0-24.2-7.9-24.2-24.9v-32.1h13.2v30.3
		c0,10.2,4.8,15.1,13.2,15.1c9.2,0,15.4-5.7,15.4-17v-28.4L883.9,248.1L883.9,248.1z"/>
	<path class="st27" d="M956.6,272.1v32.3h-13.2v-30.6c0-10-5-14.9-13.4-14.9c-9.4,0-15.7,5.7-15.7,17v28.5h-13.2v-56.3h12.5v7.3
		c4.3-5.2,11.2-7.9,19.4-7.9C946.6,247.5,956.6,255.2,956.6,272.1z"/>
	<path class="st27" d="M1007.2,301.3c-3.2,2.5-7.9,3.8-12.7,3.8c-12.3,0-19.4-6.5-19.4-19v-27.1h-9.3v-10.5h9.3v-12.9h13.2v12.9
		h15.1v10.5h-15.1v26.8c0,5.5,2.7,8.4,7.8,8.4c2.7,0,5.4-0.7,7.4-2.3L1007.2,301.3z"/>
</g>
<g>
	<path class="st4" d="M1098.9,1094.1l4.4-10.6c5.5,4.7,14.3,8.1,22.7,8.1c10.7,0,15.3-4.1,15.3-9.6c0-15.9-40.9-5.5-40.9-32.9
		c0-11.9,8.8-22,27.7-22c8.3,0,16.9,2.3,22.9,6.5l-4,10.6c-6.2-3.9-13-5.8-19-5.8c-10.6,0-14.9,4.4-14.9,10
		c0,15.7,40.8,5.5,40.8,32.6c0,11.8-8.9,21.9-27.8,21.9C1115.3,1103,1104.6,1099.4,1098.9,1094.1z"/>
	<path class="st4" d="M1196.9,1098.9c-2.9,2.5-7.4,3.8-11.8,3.8c-11.5,0-18.1-6.5-18.1-19v-27.1h-8.7v-10.5h8.7v-12.9h12.3v12.9
		h14.1v10.5h-14.1v26.8c0,5.5,2.6,8.4,7.3,8.4c2.6,0,5-0.7,6.9-2.3L1196.9,1098.9z"/>
	<path class="st4" d="M1254.5,1078h-41.2c1.5,8.2,7.9,13.5,17,13.5c5.9,0,10.5-2,14.3-6.1l6.6,8.1c-4.7,6-12.1,9.2-21.2,9.2
		c-17.6,0-29-12.1-29-28.9s11.5-28.8,27.2-28.8c15.3,0,26.6,11.5,26.6,29.1C1254.7,1075.2,1254.6,1076.8,1254.5,1078z
		 M1213.2,1069.3h29.8c-1-8.1-6.8-13.7-14.8-13.7C1220.2,1055.6,1214.3,1061.1,1213.2,1069.3z"/>
	<path class="st4" d="M1322.3,1073.8c0,17.5-11.3,28.9-26.7,28.9c-6.7,0-12.6-2.4-16.8-7.6v27.3h-12.3v-76.7h11.7v7.4
		c4.1-5.4,10.2-8,17.4-8C1310.9,1045,1322.3,1056.4,1322.3,1073.8z M1309.8,1073.8c0-10.8-6.7-17.6-15.5-17.6
		c-8.8,0-15.6,6.8-15.6,17.6s6.8,17.6,15.6,17.6C1303.1,1091.4,1309.8,1084.6,1309.8,1073.8z"/>
	<path class="st4" d="M1418.8,1085.2h-12.2v16.8h-12.4v-16.8h-37.8v-9.5l33.9-47.5h13.7l-32,45.4h22.5v-14.9h12v14.9h12.2V1085.2z"
		/>
</g>
</svg>
