<?xml version="1.0" encoding="utf-8"?>
<!-- Generator: Adobe Illustrator 23.0.1, SVG Export Plug-In . SVG Version: 6.00 Build 0)  -->
<svg version="1.1" id="Layer_1" xmlns="http://www.w3.org/2000/svg" xmlns:xlink="http://www.w3.org/1999/xlink" x="0px" y="0px"
	 viewBox="0 0 3500 1264" style="enable-background:new 0 0 3500 1264;" xml:space="preserve">
<style type="text/css">
	.st0{fill:none;stroke:#EFB76C;stroke-width:23;stroke-linecap:round;stroke-linejoin:round;}
	.st1{clip-path:url(#SVGID_2_);}
	.st2{fill:#EBEBEB;}
	.st3{fill:#C9C9C9;}
	.st4{fill:#E0E0E0;}
	.st5{fill:#FFFFFF;}
	.st6{fill:#FFA412;}
	.st7{fill:#EEF6FF;}
	.st8{fill:#78ACEA;}
	.st9{fill:#BAE8E3;}
	.st10{fill:#A1D6CE;}
	.st11{fill:#F99746;}
	.st12{fill:#F5F5F5;}
	.st13{fill:#B7D3F3;}
	.st14{fill:#FFB27D;}
	.st15{fill:#233862;}
	.st16{fill:#A9453D;}
	.st17{fill:#ED975D;}
	.st18{fill:#2D3A3F;}
	.st19{fill:#5F9AA8;}
	.st20{fill:#FFC93C;}
	.st21{fill:#263238;}
	.st22{fill:#1E3D70;}
	.st23{fill:#FFDF93;}
	.st24{fill:#163560;}
	.st25{fill:#E8945B;}
	.st26{fill:#EBF3FA;}
	.st27{fill:#F2CCAA;}
	.st28{fill:#B5453C;}
	.st29{fill:#00858E;}
	.st30{fill:#E2915A;}
	.st31{fill:#007477;}
	.st32{fill:#2E3552;}
	.st33{clip-path:url(#SVGID_4_);}
	.st34{fill:#DFEBFD;}
	.st35{fill:#375DAA;}
	.st36{fill:#EFC8AB;}
	.st37{fill:#FFEDDC;}
	.st38{fill:#F7DCC6;}
	.st39{fill:#E8B795;}
	.st40{fill:#E2810E;}
	.st41{fill:#FFB93E;}
	.st42{fill:#2C3A64;}
	.st43{fill:#ED985F;}
	.st44{fill:#EDB22F;}
	.st45{fill:#FAFDFF;}
	.st46{fill:#699DEE;}
	.st47{fill:#F9DDBF;}
	.st48{fill:#F4A269;}
	.st49{fill:#FFEAC5;}
	.st50{fill:#95C0F4;}
	.st51{fill:#B0D4FF;}
	.st52{fill:none;}
	.st53{opacity:0.4;}
	.st54{opacity:0.4;fill:#EBEBEB;enable-background:new    ;}
	.st55{fill:#1B1B43;}
	.st56{fill:#3A4A51;}
	.st57{fill:#FFBC96;}
	.st58{fill:#D28572;}
	.st59{fill:#925D4F;}
	.st60{fill:#EFB76C;}
</style>
<path class="st0" d="M1189.39,1268.38c-129.51,125.33-232.31,293.48-262.37,525.69c-52.36,404.46,222.57,602.54,438.3,721.51
	c6.97,3.84,13.95,7.65,20.94,11.42"/>
<path class="st0" d="M3500,262.95c-16.19,20.13-33.06,39.36-50.75,57.49c-88.91,91.12-195.23,132.77-298.28,175.54
	c-153.28,63.61-310.89,98.15-467.05,143.13c-357.65,103.02-714.55,202.64-1063.91,356.93c-134.46,59.38-288.62,139.39-418.17,260.5"
	/>
<g>
	<defs>
		<rect id="SVGID_1_" x="201.26" y="1222.55" width="1714.74" height="1072.1"/>
	</defs>
	<clipPath id="SVGID_2_">
		<use xlink:href="#SVGID_1_"  style="overflow:visible;"/>
	</clipPath>
	<g class="st1">
		<path class="st3" d="M1290.44,1228.4l2.79,17.42l-15.75,2.79l-2.79-17.42c-14.04,1.66-28.67-0.54-41.64-6.16l5.63-20.8
			c10.13,5.04,21.38,7.29,32.63,6.16l-4.5-26.43c-18.01-1.13-38.8-3.91-42.17-27.02c-2.79-16.89,7.29-33.18,31.51-39.94l-2.79-17.42
			l15.75-2.25l2.79,17.42c11.25-1.13,23.04,0.54,33.76,4.5l-5.04,20.8c-7.88-3.38-16.88-4.5-25.29-4.5l4.5,27.02
			c18.01,1.13,38.26,3.91,42.17,26.43C1324.74,1205.29,1315.2,1221.64,1290.44,1228.4z M1263.44,1160.86l-3.38-22.51
			c-7.88,3.38-10.66,8.42-9.54,13.51C1251.65,1156.94,1256.15,1160.27,1263.44,1160.86z M1297.19,1194.63
			c-1.12-5.63-6.16-7.88-12.91-9.01l3.37,21.92C1294.94,1204.76,1297.78,1199.67,1297.19,1194.63z"/>
	</g>
</g>
<g>
	<path class="st2" d="M2826.04,254.48l-13.95-0.65h-0.35c-1.69-0.05-3.19,1.15-3.44,2.79l-1.79,11.51c-0.05,0.2-0.05,0.4-0.15,0.55
		c-0.45,1.2-1.54,2.14-2.84,2.19c-7.72,0.65-15.24,2.79-22.11,6.38c-0.3,0.15-0.6,0.25-0.9,0.3c-1.15,0.2-2.34-0.2-3.14-1.05
		l-6.37-7.32c-0.85-0.95-2.19-1.34-3.39-1c-0.35,0.1-0.75,0.25-1.04,0.5l-11.71,8.17c-1.45,1-1.89,2.99-1,4.48l6.48,11.21
		c0.65,1.1,0.6,2.49-0.15,3.54c-1.05,1.54-1.99,3.09-2.89,4.73c-1.69,3.09-3.04,6.23-4.14,9.41c-0.45,1.34-1.64,2.24-3.04,2.29
		l-13.15,0.55l-0.65,0.05c-1.69,0.05-3.09,1.39-3.14,3.14l-0.65,14.25c-0.05,1.74,1.15,3.29,2.89,3.54l12.8,1.99
		c1.45,0.2,2.54,1.34,2.79,2.74c1.05,5.93,2.99,11.71,5.83,17.03c0.7,1.34,0.4,3.04-0.8,4.03l-8.66,7.62
		c-1.3,1.15-1.54,3.09-0.55,4.53l8.22,11.76c1,1.39,2.84,1.79,4.29,0.95l13.15-7.62c1.09-0.65,2.49-0.6,3.59,0.1
		c1.34,0.9,2.69,1.69,4.13,2.49c2.69,1.49,5.43,2.69,8.17,3.74c1.24,0.45,2.14,1.59,2.19,2.94l0.6,15.79
		c0.1,1.74,1.44,3.14,3.19,3.19l14.29,0.65c1.49,0.05,2.89-0.95,3.34-2.34c0.05-0.15,0.1-0.3,0.1-0.45l2.24-14.25
		c0.2-1.34,1.15-2.39,2.44-2.74c0.1-0.05,0.25-0.05,0.35-0.1c0.35-0.05,0.7-0.1,1.05-0.2c4.08-0.7,8.07-1.84,11.96-3.39
		c1.29-0.55,2.79-0.15,3.69,0.9l8.02,9.17c1.15,1.3,3.09,1.54,4.48,0.55l2.59-1.79l9.06-6.38c1.45-1,1.84-2.89,1-4.43l-6.42-11.01
		c-0.7-1.2-0.55-2.64,0.3-3.69c2.29-2.74,4.33-5.78,6.12-9.07c1.35-2.44,2.49-4.93,3.44-7.42l2.74-0.1l11.31-0.45
		c1.39-0.05,2.59-1,2.99-2.29c0.1-0.25,0.15-0.55,0.15-0.85l0.7-14.35c0.05-1.69-1.15-3.19-2.84-3.44l-8.77-1.34
		c-1.49-0.25-2.64-1.44-2.79-2.94c-0.6-6.18-2.14-12.2-4.58-17.88c-0.6-1.34-0.25-2.89,0.85-3.79l10.96-9.61
		c1.19-1.1,1.44-2.89,0.5-4.23l-8.32-11.85c-1-1.39-2.89-1.84-4.33-0.95l-13.7,7.92c-1.2,0.7-2.64,0.6-3.74-0.25
		c-2.29-1.79-4.83-3.44-7.47-4.88c-1.45-0.8-2.89-1.49-4.33-2.19c-1.15-0.5-1.89-1.64-1.99-2.89l-0.6-15.14
		C2829.17,255.97,2827.78,254.58,2826.04,254.48z M2782.7,310.62c2.24-3.14,5.08-6.08,8.67-8.62c0.75-0.55,1.64-1.05,2.64-1.54
		c4.23-2.09,9.96-3.49,14.05-3.29c31.43,1.64,42.64,38.95,17.88,57.63c-0.4,0.3-0.85,0.6-1.25,0.9c-3.94,2.79-11.21,4.83-15.99,4.63
		c-2.54-0.1-4.93-0.45-7.17-0.95C2778.97,354,2770.05,328.55,2782.7,310.62z"/>
	<path class="st3" d="M3015.16,353.75l-21.27-3.64l-0.5-0.1c-2.59-0.45-5.08,1.15-5.78,3.64l-4.93,17.28c-0.1,0.3-0.2,0.55-0.3,0.8
		c-0.89,1.79-2.74,2.94-4.78,2.84c-11.95-0.5-23.86,1.34-35.06,5.53c-0.45,0.15-0.95,0.25-1.39,0.3c-1.79,0.1-3.59-0.75-4.63-2.24
		l-8.42-12.45c-1.09-1.64-3.09-2.44-4.93-2.19c-0.55,0.1-1.15,0.25-1.74,0.55l-19.47,10.26c-2.39,1.25-3.44,4.18-2.39,6.67
		l7.82,18.38c0.75,1.79,0.4,3.89-0.9,5.38c-1.89,2.14-3.64,4.33-5.33,6.67c-3.19,4.38-5.88,8.92-8.17,13.65
		c-0.94,1.94-2.94,3.14-5.13,2.94l-20.22-1.69l-1-0.1c-2.59-0.25-4.98,1.59-5.43,4.18l-3.74,21.72c-0.45,2.64,1.15,5.23,3.74,5.98
		l19.28,5.53c2.14,0.6,3.64,2.54,3.73,4.73c0.5,9.31,2.34,18.48,5.63,27.2c0.8,2.24,0,4.73-1.94,6.03l-14.74,9.96
		c-2.24,1.54-2.94,4.43-1.69,6.82l10.31,19.53c1.24,2.29,4.03,3.29,6.37,2.29l21.62-9.17c1.84-0.79,3.94-0.45,5.48,0.85
		c1.84,1.59,3.78,3.14,5.83,4.58c3.83,2.79,7.77,5.18,11.8,7.27c1.84,0.95,2.94,2.89,2.74,4.93l-2.09,24.31
		c-0.2,2.69,1.64,5.08,4.28,5.53l21.82,3.74c2.29,0.4,4.58-0.85,5.53-2.94c0.1-0.2,0.2-0.45,0.25-0.7l6.13-21.37
		c0.55-1.99,2.24-3.44,4.28-3.74c0.2-0.05,0.35-0.05,0.55-0.05c0.55,0,1.05,0,1.59-0.1c6.38-0.3,12.75-1.29,18.98-2.94
		c2.04-0.6,4.28,0.25,5.48,2.09l10.56,15.54c1.5,2.19,4.43,2.94,6.78,1.69l4.33-2.29l15.09-8.02c2.39-1.25,3.39-4.08,2.34-6.58
		l-7.67-18.13c-0.85-1.94-0.35-4.13,1.19-5.58c3.99-3.79,7.72-8.02,11.11-12.7c2.49-3.44,4.73-7.07,6.67-10.71l4.23,0.35l17.38,1.45
		c2.14,0.2,4.18-1,5.03-2.94c0.2-0.4,0.3-0.8,0.4-1.24l3.78-21.87c0.45-2.59-1.19-5.08-3.69-5.83l-13.15-3.74
		c-2.24-0.65-3.78-2.74-3.74-5.03c0.3-9.56-0.9-19.13-3.58-28.24c-0.65-2.14,0.15-4.43,1.99-5.63l18.63-12.6
		c2.09-1.44,2.79-4.18,1.6-6.43l-10.46-19.72c-1.24-2.34-4.03-3.34-6.42-2.29l-22.52,9.51c-1.94,0.85-4.13,0.4-5.68-1.1
		c-3.19-3.19-6.72-6.18-10.51-8.92c-2.04-1.49-4.14-2.89-6.28-4.13c-1.64-1-2.59-2.89-2.49-4.83l1.99-23.31
		C3019.7,356.64,3017.85,354.2,3015.16,353.75z M2938.06,431.4c4.03-4.38,8.96-8.32,14.94-11.51c1.24-0.7,2.74-1.3,4.33-1.89
		c6.87-2.39,15.94-3.44,22.16-2.34c47.87,8.52,57.88,67.89,16.29,91.75c-0.7,0.4-1.39,0.75-2.09,1.15
		c-6.57,3.49-18.08,5.28-25.4,4.04c-3.84-0.65-7.47-1.64-10.81-2.84C2924.01,497.2,2915.2,456.51,2938.06,431.4z"/>
	<path class="st2" d="M2309.21,508.16c-1.19-29.64,23.66-42.78,49.06-42.78s53.05,6.57,55.44,45.97
		c1.54,25.36-11.95,40.95-50.91,40.95c-13.1,0-23.31-2.09-31.13-5.78l-19.47,17.28l9.56-23.91
		C2313.3,532.02,2309.71,520.91,2309.21,508.16z"/>
	<path class="st31" d="M2067.59,954.7c0,0-1.05-8.22-3.49-13.1c-2.44-4.88-17.98-1.79-17.98-1.79s-3.09,2.64-3.79,15.09
		L2067.59,954.7z"/>
	<path class="st31" d="M2120.54,954.6c-3.64-2.24-1.59-18.88-1.59-18.88s17.03-13.6,19.38-3.19c2.34,10.41,16.19,15.09,24.06,16.39
		c5.43,0.9,7.12,3.89,7.62,5.68H2120.54z"/>
	<path class="st29" d="M2085.27,833.67c0.7,3.84,1.15,6.92,1.25,9.21c1.59,30.83,25.95,101.41,30.33,103.06
		c6.77,2.54,17.38-2.89,22.96-4.63c2.29-0.75,3.84-3.04,3.34-5.43c-12.05-55.54-16.54-135.48-18.13-182.8
		c-0.8-23.86-4.93-40.29-4.93-40.29s-59.47-15.89-59.82,4.18C2059.97,734.69,2079.99,804.38,2085.27,833.67z"/>
	<path class="st31" d="M2085.27,833.67l39.75-80.64c-0.8-23.86-4.93-40.29-4.93-40.29s-59.47-15.89-59.82,4.18
		C2059.97,734.69,2079.99,804.38,2085.27,833.67z"/>
	<path class="st29" d="M2098.52,717.01l-31.43,227.93c0,0-13.8,3.34-24.56,0.65c0,0-9.21-121.24-8.42-150.53
		c0.75-29.29-6.62-78.4,1.69-83.83C2044.03,705.8,2098.52,717.01,2098.52,717.01z"/>
	<path class="st20" d="M2033.57,658.49l-3.93,54.74c-0.15,2.04,1.15,3.93,3.14,4.48c4.38,1.3,9.46,2.14,19.18,4.18
		c9.17,1.89,21.47,3.59,36.61,3.69c24.11,0.15,33.22-8.17,33.22-8.17c1.05,0-0.55-5.03-1.99-28.99c-0.5-8.12-0.95-18.43-1.29-31.43
		c-0.3-11.7-0.5-25.6-0.55-42.09c-0.05-19.82-30.73-41.19-31.33-41.19c0,2.84-4.48,8.12-11.46,8.57
		c-8.22,0.55-18.33-3.54-18.33-8.32c0-0.05-14.89,23.81-20.17,49.21c-0.7,3.24-1.2,6.63-1.59,10.21c0,0.05,0,0.1,0,0.15
		c-0.1,0.65-0.15,1.3-0.2,1.99c0,0.1,0,0.25-0.05,0.35c-0.05,0.6-0.1,1.19-0.2,1.84c0,0.15-0.05,0.35-0.05,0.55
		c-0.05,0.55-0.1,1.09-0.15,1.69c0,0.05,0,0.1,0,0.15c-0.05,0.4-0.05,0.85-0.1,1.25c0,0.3-0.05,0.6-0.05,0.9
		c-0.05,0.5-0.05,1-0.1,1.49c0,0.25-0.05,0.5-0.05,0.75c-0.05,0.5-0.05,0.94-0.1,1.45c0,0.2-0.05,0.45-0.05,0.64
		c-0.05,0.7-0.1,1.39-0.1,2.09c0,0.05,0,0.1,0,0.15c-0.05,0.7-0.05,1.34-0.1,2.04c0,0.15,0,0.35,0,0.5c-0.05,0.65-0.05,1.3-0.1,1.94
		c0,0.1,0,0.2,0,0.3C2033.67,655.2,2033.62,656.84,2033.57,658.49c0,0.05,0,0.1,0,0.1V658.49z"/>
	<path class="st20" d="M2086.71,573.71c0,0,28.54-0.25,35.41,9.41c6.87,9.66,21.97,61.51,14.1,78.75
		c-7.87,17.23-22.56-7.12-30.73-17.73C2097.32,633.58,2086.71,573.71,2086.71,573.71z"/>
	<path class="st14" d="M2087.01,569.38v2.94c0,0,0.8,9.21-10.56,10.56c-11.36,1.34-19.77-1.75-19.48-8.87
		c1.05-5.53,1.94-11.16,2.04-15.69c0.05-1.69-0.1-3.49-0.4-5.53l22.02-0.45l6.48,1.05L2087.01,569.38z"/>
	<path class="st30" d="M2087.11,553.39l-0.1,15.99c-2.34,1.09-4.98,1.74-7.92,1.74c-10.11,0-16.69-7.42-20.07-12.8
		c0.05-1.69-0.1-3.49-0.4-5.53l22.02-0.45L2087.11,553.39z"/>
	<path class="st14" d="M2056.88,549.2c2.54,13.75,20.32,13.3,27.99,12.45c2.14-0.25,3.54-0.5,3.54-0.5
		c2.44-0.65,3.79-4.48,4.43-9.51c1.25-9.96-0.35-24.51-1.99-28.24c-2.54-5.63-7.27-11.71-25.15-7.32
		C2047.76,520.46,2053.59,531.57,2056.88,549.2z"/>
	<path class="st44" d="M2115.9,612.36c0,0,11.06,24.41,10.71,31.73c0,0-5.48-0.2-10.71,1.39
		C2107.29,648.02,2115.9,612.36,2115.9,612.36z"/>
	<path class="st21" d="M2096.28,510.3c0,0-7.87-0.6-17.13-4.63c-7.52-3.29-17.03,0.35-20.12,1.94c0.1-0.5,0.3-1.2,0.75-1.84
		c0,0-1.39,1-1.59,2.34c-0.15,0.1-0.2,0.2-0.15,0.2c0,0-1.59-0.3-2.59,0.15c0,0,0.7-0.1,0.95,0.35c0.05,0.05,0.05,0.1,0.1,0.15
		c-11.76,5.68-12.85,24.26-9.07,28.54c4.53,5.18,10.01,16.83,10.01,16.83s1.99-2.74,1.15-7.32c-0.85-4.53,3.09-4.53,8.07-6.63
		c4.98-2.09,0.85-7.87,5.18-11.36c4.33-3.54,20.27-1.45,20.07-4.13C2097.82,522.7,2096.28,510.9,2096.28,510.3z"/>
	<path class="st44" d="M2053.29,658.04c4.68,18.73,55.09,28.39,66.55,30.39c-0.5-8.12-0.95-18.43-1.29-31.43L2053.29,658.04z"/>
	<path class="st14" d="M2064.35,664.16c-0.5,0-11.21-1.6-13.15-2.54c-1.94-0.95-10.71-13.45-4.93-16.64
		c5.78-3.19,21.22,9.61,21.22,9.61L2064.35,664.16z"/>
	<path class="st20" d="M2129.6,667.85c0,0-41.49,2.24-69.33-3.74c0,0-0.7-8.07,8.07-11.6c0,0,43.38-9.22,53.84-6.63
		C2132.59,648.42,2129.6,667.85,2129.6,667.85z"/>
	<path class="st20" d="M2034.31,635.27c8.62,10.36,19.87,18.88,32.28,20.87c0.1-0.15,3.74-5.73,3.09-13.85
		c-0.3-3.79-1.54-8.12-4.53-12.7c-0.9-1.39-1.74-3.09-2.44-4.93c-6.77-17.28-5.78-50.61-5.78-50.61s-28.79,3.04-37.76,15.84
		C2013.69,597.67,2020.72,618.89,2034.31,635.27z"/>
	<path class="st30" d="M2084.87,561.66c2.14-0.25,3.54-0.5,3.54-0.5c2.44-0.65,3.79-4.48,4.43-9.51c-4.58,1.15-6.67,4.63-7.52,6.18
		C2084.87,558.47,2084.82,559.96,2084.87,561.66z"/>
	<path class="st14" d="M2096.48,569.42c0,0,9.96-16.38,2.19-17.13c-7.72-0.7-10.86,4.53-11.95,6.43c-1.1,1.94,0.3,10.61,0.3,10.61
		L2096.48,569.42z"/>
	<path class="st20" d="M2058.57,641.7c0.3,2.09,0.95,3.99,1.69,5.68c2.44,5.38,6.33,8.72,6.33,8.72
		c25.8-11.66,31.03-51.65,31.93-73.67c0.35-8.81,0-14.74,0-14.74c-11.66-3.84-14.94,2.84-14.94,2.84s-13.75,32.72-20.87,54.09
		C2059.97,632.78,2058.22,639.31,2058.57,641.7z"/>
	<path class="st44" d="M2034.31,635.27c8.62,10.36,19.87,18.88,32.28,20.87c25.8-11.66,31.03-51.65,31.93-73.67
		c0,0-12.2,44.33-28.84,59.77c-2.99,2.79-6.18,4.68-9.41,5.13c0,0-20.97-5.93-25.35-11.51
		C2034.56,635.52,2034.41,635.32,2034.31,635.27z"/>
	<path class="st2" d="M2858.56,778.07c0,0,16.39-19.23,0.94-31.38c0,0-11.31-6.78-20.47-6.23c0,0,13.1,21.82,8.87,24.01
		c-4.24,2.19-12.85-25.36-12.85-25.36s-25.65-2.44-33.92,1.6c0,0,22.02,17.88,17.38,18.98c-4.63,1.1-28.39-16.49-28.39-16.49
		s-23.86,4.14-22.56,18.68s9.56,19.03,13.2,18.63c3.64-0.4,24.76-8.52,25.2-5.58c0.45,2.94-12.25,12.7-21.17,13.15
		c0,0,16.89,18.53,28.09,13.15c11.16-5.38,12.1-13.9,19.08-17.08c6.97-3.19,12.9-3.24,10.06,0.05c-2.84,3.29-15.49,6.48-19.47,13.5
		c-3.99,7.07-7.52,11.85,4.03,10.06c11.56-1.79,30.38-10.31,31.18-20.02C2858.56,778.07,2858.56,778.07,2858.56,778.07z"/>
	<path class="st2" d="M2779.27,762.24c0,0,64.9-2.69,79.25,15.84c0,0,3.19,9.47,12.95,18.08l1.54,4.13c0,0-11.26-11.8-15.29-12.55
		C2857.77,787.79,2863.99,764.78,2779.27,762.24z"/>
	<path class="st2" d="M2871.51,796.16c0,0,13.95,10.26,14.99,28.64l-2.54,0.25c0,0-4.48-19.03-12.55-26.45
		C2863.34,791.22,2871.51,796.16,2871.51,796.16z"/>
	<path class="st2" d="M2945.58,727.32c0,0-26.2-14.59-14.05-34.52c0,0,9.76-12.25,20.22-15.39c0,0-5.48,29.69,0.1,30.39
		c5.58,0.7,3.74-33.52,3.74-33.52s27.54-13.35,38.35-12.3c0,0-17.04,29.04-11.46,28.29s24.7-30.09,24.7-30.09
		s28.24-5.33,32.83,11.41c4.58,16.74-2.74,25.15-6.93,26.2c-4.18,1.05-31.08,0.8-30.33,4.29c0.7,3.49,18.88,9.02,28.99,5.88
		c0,0-11.11,27.6-25.75,26.25c-14.65-1.34-19.23-10.41-28.29-11.11c-9.07-0.7-15.69,1.79-11.16,4.23
		c4.53,2.44,19.87,0.75,27.25,6.97s13.3,10.01-0.3,12.85c-13.6,2.84-38.05,1.15-42.93-9.31
		C2945.58,727.32,2945.58,727.32,2945.58,727.32z"/>
	<path class="st2" d="M3027.12,676.81c0,0-73.22,23.96-81.54,50.51c0,0,0.4,11.85-6.92,25.5v5.23c0,0,7.62-17.83,11.81-20.27
		C2950.46,737.78,2934.02,714.77,3027.12,676.81z"/>
	<path class="st2" d="M2938.66,752.82c0,0-11.26,17.18-4.73,38.05l2.89-0.8c0,0-2.89-23.01,2.99-34.62
		C2945.68,743.91,2938.66,752.82,2938.66,752.82z"/>
	<path class="st2" d="M2903.84,707.2c0,0,34.47-19.43,18.28-45.62c0,0-12.95-16.09-26.75-20.17c0,0,7.47,39.1,0.1,40.05
		c-7.37,0.95-5.18-44.18-5.18-44.18s-36.41-17.38-50.66-15.94c0,0,22.66,38.11,15.29,37.21c-7.37-0.9-32.77-39.5-32.77-39.5
		s-37.31-6.78-43.19,15.29c-5.93,22.11,3.79,33.12,9.32,34.47c5.53,1.34,40.94,0.8,40.05,5.43c-0.9,4.58-24.8,12.05-38.15,7.92
		c0,0,14.84,36.31,34.12,34.42c19.33-1.89,25.25-13.9,37.21-14.84c11.95-0.94,20.72,2.24,14.74,5.48
		c-5.97,3.24-26.2,1.15-35.86,9.36c-9.66,8.22-17.43,13.35,0.5,16.94c17.93,3.64,50.16,1.24,56.58-12.6
		C2903.89,707.05,2903.84,707.2,2903.84,707.2z"/>
	<path class="st2" d="M2796,641.25c0,0,96.73,31.03,107.84,65.95c0,0-0.4,15.64,9.31,33.57v6.93c0,0-10.21-23.46-15.74-26.65
		C2897.46,721.04,2918.98,690.61,2796,641.25z"/>
	<path class="st2" d="M2913.15,740.77c0,0,14.94,22.57,6.53,50.16l-3.84-1c0,0,3.63-30.33-4.18-45.58
		C2903.84,729.11,2913.15,740.77,2913.15,740.77z"/>
	<path class="st20" d="M3128.83,950.72l-283.32,0.7c-42.14-48.27-46.42-113.47,9.56-168.41c7.02-6.92,20.52-11.8,35.11-15.24
		c26.85-6.38,57.23-7.82,57.48-7.92c0.1-0.05,16.09-13,25.7-24.66c29.88-36.16,55.34-33.07,55.34-33.07
		c30.48-5.93,56.44-7.62,75.71,3.09c17.83,9.96,29.94,30.63,34.42,68.59c0.85,7.17,1.45,14.99,1.75,23.46
		c1.09,30.83,7.17,58.23,10.76,81.44C3156.52,912.26,3156.57,937.07,3128.83,950.72z"/>
	<path class="st44" d="M3089.28,743.21c-18.48,10.06-20.57,43.23-49.46,51.8c-28.94,8.57-78.05,7.77-105.9,37.96
		c-26.9,29.14-56.48-45.03-43.73-65.9c26.85-6.38,57.23-7.82,57.48-7.92c0.1-0.05,16.09-13,25.7-24.65
		c29.89-36.16,55.34-33.08,55.34-33.08c30.48-5.93,56.43-7.62,75.71,3.09C3114.19,715.22,3107.76,733.15,3089.28,743.21z"/>
	<path class="st31" d="M2975.81,752.72c0,0-92.75-1.19-105.15,6.68c-12.35,7.92,12.75,133.54,12.75,133.54s24.01,0.7,25.9-5.68
		c0,0-4.48-58.87-0.75-69.08c3.74-10.16,1.39-24.26,1.39-24.26s46.92,7.02,61.81,3.49C2986.67,793.87,2975.81,752.72,2975.81,752.72
		z"/>
	<path class="st14" d="M2997.28,687.77c0,0.05-13.05,30.43-19.43,33.67c-6.38,3.24-29.39,29.69-34.32,29.24
		c-4.93-0.45,5.78,4.04,5.78,4.04s40.25-18.58,42.59-19.73c2.34-1.15,14.7-21.47,16.39-31.73
		C3009.98,693,2997.28,687.77,2997.28,687.77z"/>
	<path class="st14" d="M2912.26,902.3c-3.09,5.98-3.79,16.93-4.73,20.67c-0.9,3.73-17.13,16.39-18.53,15.74
		c-3.54-1.6-0.15-7.77,1.99-12.3c0.1-0.2,0.15-0.35,0.25-0.55c2.14-4.53,0.3-14.69,1.39-19.97c1.09-5.23-4.23-19.38-4.23-19.38
		l8.96-11.31c0,0,6.28,11.95,10.81,14.15c0.8,0.4,1.54,0.85,2.19,1.39C2913.5,893.29,2914.8,897.42,2912.26,902.3z"/>
	<path class="st14" d="M2880.78,937.27c-6.23,2.54-13.8,10.51-16.93,12.75c-3.09,2.24-23.66,1.45-24.31,0.05
		c-1.74-3.64,5.43-6.23,10.01-8.37c0.05-0.05,0.15-0.05,0.2-0.1c4.53-2.29,9.56-11.01,13.75-14.25c4.23-3.29,9.26-17.53,9.26-17.53
		l14.15-2.89c0,0-2.89,13.2-0.9,17.78c0.2,0.45,0.35,0.85,0.5,1.3C2887.85,930.29,2886.41,934.93,2880.78,937.27z"/>
	<path class="st24" d="M3023.93,674.33c-1.89-2.19,27.94-11.16,34.32,13.3c0,0,54.89-14.59,21.17-39.05
		c-11.7-8.47-12.85-17.49-14.54-25.75c-1.69-8.27-13.35-32.03-33.57-20.22c0,0-9.26,0.05-15.09,5.13
		C3002.86,619.18,2988.31,692.46,3023.93,674.33z"/>
	<path class="st29" d="M3014.57,757.01c0,0-96.18,9.76-104.65,19.58c-8.47,9.81-41.69,137.52-41.69,137.52s9.81,5.48,18.73,0.35
		c0,0,25.45-43.34,36.71-56.93c11.26-13.6,15.49-55.59,17.34-56.04c1.84-0.45,62.16,8.42,82.88-7.52
		C3044.65,778.13,3014.57,757.01,3014.57,757.01z"/>
	<path class="st47" d="M3068.16,669.74c0,0-22.96-10.26-52.05-5.58c-5.93,0.94-11.31,2.89-15.54,9.91
		c-6.03,9.91-8.82,15.19-8.82,15.19s0.6,4.58,8.77,8.22c-2.24,8.22,2.04,22.52-1.89,28.09c-3.94,5.58-28.39,19.32-29.59,27
		c-2.24,14.1,41.79,39.65,54.89,36.91C3061.63,781.66,3087.29,680.5,3068.16,669.74z"/>
	<path class="st24" d="M3055.16,640.7c0,0,4.53-8.92,5.13-16.19c0.45-5.23-3.98-23.96-22.81-19.43c0,0-5.48,1.05-10.36,5.08
		c-3.89,3.19-9.32,9.81-1.05,25.75l2.24,5.43L3055.16,640.7z"/>
	<path class="st14" d="M3029.31,670.74c-1.89,1.99-1.15,8.67,7.77,8.17c5.88-0.35,18.38-7.57,17.23-12.55
		c-0.55-2.39-5.08-8.51-6.13-22.61l-1.05,0.3l-17.88,5.03c0,0,0.85,5.68,1.3,11.06C3030.9,664.61,3030.11,669.89,3029.31,670.74z"/>
	<path class="st48" d="M3029.26,649.07c0,0,0.85,5.68,1.3,11.06c10.11-1.09,14.8-10.76,16.59-16.09L3029.26,649.07z"/>
	<path class="st14" d="M3028.86,657.34c0,0,23.36-5.88,19.47-20.37c-3.88-14.5-3.49-25.06-18.58-21.92
		c-15.09,3.14-16.49,9.47-16.39,14.59C3013.52,634.83,3022.68,658.48,3028.86,657.34z"/>
	<path class="st24" d="M3019.1,617.54c0,0,7.87,14.94,22.66,16.59c8.67,0.95,11.06,6.68,11.06,6.68s-2.59-16.34-6.97-26.3
		C3045.85,614.45,3021.74,608.13,3019.1,617.54z"/>
	<path class="st24" d="M3021.79,619.53c0,0-5.13,5.23-6.72,8.92c-2.34,5.48,2.24,16.94,4.08,19.43c0,0-10.86-18.48-7.22-26.45
		C3015.81,612.91,3021.79,619.53,3021.79,619.53z"/>
	<path class="st14" d="M2950.46,754.17c0,0-4.63,4.93-5.23,5.18c-3.09,1.45-6.97,0.6-8.87,1.09c-1.89,0.45-1.54-0.7-0.15-1.64
		c1.39-0.94,4.78-0.6,3.39-0.94c-1.39-0.35-8.91-1.74-11.75-1c-4.48,1.19-8.02-0.2-8.32-0.65c-0.3-0.45,10.26-5.58,13.25-5.43
		c2.99,0.15,11.66-0.25,11.66-0.25L2950.46,754.17z"/>
	<path class="st14" d="M3076.03,678.81c0,0,2.79,68.59-5.28,78.2c-8.02,9.56-57.08-1.05-57.08-1.05l-3.39-5.03
		c0,0,43.53-6.38,46.47-7.22c4.18-1.2,1.3-48.42,1.3-48.42L3076.03,678.81z"/>
	<path class="st47" d="M3065.22,668.64c0.7,0,9.37,2.89,15.59,15.19c6.13,12.1,8.32,17.98,8.32,17.98s-27.15,21.02-37.9,13.3
		C3040.46,707.35,3055.26,668.4,3065.22,668.64z"/>
	<path class="st14" d="M3013.72,755.96c0,0-3.88,3.93-5.38,5.98c-1.5,2.04-11.86,5.68-12.1,4.58c-0.25-1.1,4.63-4.38,5.08-5.58
		c0.45-1.2,5.78-7.42,9.02-8.12C3013.57,752.13,3013.72,755.96,3013.72,755.96z"/>
	<path class="st14" d="M3010.33,750.93c0,0-15.99,3.69-18.73,4.83c-2.74,1.1-8.47,9.26-6.18,10.46c1.45,0.75,7.77-2.54,10.96-3.24
		c3.19-0.7,12.3,0.9,16.44-7.32C3013.27,754.72,3010.33,750.93,3010.33,750.93z"/>
	<path class="st32" d="M2880.78,937.27c-6.23,2.54-13.8,10.51-16.93,12.75c-3.09,2.24-23.66,1.45-24.31,0.05
		c-1.74-3.64,5.43-6.23,10.01-8.37c0.05-0.05,0.15-0.05,0.2-0.1l0.65-0.2c0,0,8.87,3.14,16.24,0c5.73-2.44,14.24-11.6,19.87-15.34
		C2887.85,930.29,2886.41,934.93,2880.78,937.27z"/>
	<path class="st32" d="M2912.26,902.3c-3.09,5.98-3.79,16.94-4.73,20.67c-0.9,3.74-17.13,16.39-18.53,15.74
		c-3.54-1.59-0.15-7.77,1.99-12.3c1.29-0.1,2.99-0.5,4.93-1.84c4.03-2.69,10.91-12.9,11.56-18.93c0.5-4.88,0.2-11.9,2.89-14.89
		C2913.5,893.28,2914.8,897.42,2912.26,902.3z"/>
	<path class="st20" d="M2989.66,768.32h-69.68l-20.97-52.15h69.59L2989.66,768.32z"/>
	<path class="st44" d="M2919.13,766.27h92.05v2.04h-91.2L2919.13,766.27z"/>
	<path class="st5" d="M2937.56,742.26c-0.55-1.84,0.55-3.34,2.39-3.34c1.84,0,3.74,1.49,4.29,3.34c0.55,1.84-0.55,3.34-2.39,3.34
		C2940,745.55,2938.11,744.06,2937.56,742.26z"/>
	<path class="st20" d="M3069.46,768.02c0,0-9.11,8.52-47.27,9.76c-38.16,1.24-87.87,43.33-88.36,55.24
		c-0.45,11.9,76.76,29.98,77.95,28.29c1.19-1.69,49.01-42.74,49.01-42.74L3069.46,768.02z"/>
	<path class="st44" d="M3151.29,877.99c-20.52-36.96-67.44,14-79.1-3.24c-11.65-17.23,16.49-39.15,41.84-58.03
		c24.85-18.48,24.76-42.64,24.76-43.63c0.85,7.17,1.44,14.99,1.74,23.46C3141.63,827.34,3147.71,854.78,3151.29,877.99z"/>
	<path class="st20" d="M2819.86,361.72c0.25,40.3-13.9,77.25-37.61,106.09c-20.37,24.85-31.88,55.79-31.88,87.91v46.32
		c0,13.1-4.78,25.15-12.7,34.47c-9.07,10.71-22.42,17.98-37.21,18.98c-1.2,0.1-2.34,0-3.54,0h-85.52c-1.15,0-2.39,0.1-3.54,0
		c-27.84-1.79-49.91-25.2-49.91-53.45v-46.22c0-32.08-11.31-63.06-31.73-87.81c-23.56-28.64-37.75-65.3-37.75-105.3
		c0-91.9,74.61-165.72,165.71-165.72C2745.54,197.05,2819.31,270.37,2819.86,361.72z"/>
	<path class="st44" d="M2700.47,655.55c-0.45,3.34-7.62,58.67-7.72,59.22c-1.2,9.11-11.66,16.14-24.11,16.14h-28.14
		c-12.35,0-22.82-6.87-24.11-15.94c-1.35-9.56-6.63-46.17-8.52-59.37h92.6V655.55z"/>
	<path class="st20" d="M2689.31,655.55h-0.2h-15.74c-25.65,7.42-51.15,14.74-62.96,18.08l0.6,4.33v0.1l0.65,4.38
		c9.56-2.64,32.48-9.21,88.56-25.45l0.2-1.45H2689.31z"/>
	<path class="st20" d="M2614.75,703.46v0.1l0.65,4.38c11.06-3.09,33.87-9.66,81.34-23.41l0.65-4.78v-0.05l0.6-4.73
		c-29.99,8.66-66.35,19.18-83.83,24.16L2614.75,703.46z"/>
	<path class="st20" d="M2625.3,726.97l0.15,0.1c1.99,1.15,4.18,2.09,6.57,2.74c13-3.73,32.38-9.31,61.12-17.63l0.6-4.78v-0.05
		l0.6-4.73c-25.65,7.42-55.14,15.94-73.32,21.17C2622.27,724.93,2623.71,726.03,2625.3,726.97z"/>
	<path class="st49" d="M2620.67,655.55l-35.81-211.39l7.37-1.25l36.01,212.64H2620.67z"/>
	<path class="st49" d="M2684.38,655.55h-7.67l38.35-209.3l7.37,1.34L2684.38,655.55z"/>
	<path class="st49" d="M2673.97,482.01c-0.95,0-2.04-0.1-3.24-0.4c-1.99-0.45-3.29-1.84-3.69-4.03c-0.85-4.68,2.84-13.3,7.97-20.57
		c-2.69-4.73-6.28-8.57-10.06-9.71c-5.58-1.69-14.1,3.44-20.02,10.01c1.09,1.54,2.04,3.14,2.94,4.78c3.04,5.73,5.23,13.1,2.24,16.49
		c-1.09,1.25-3.39,2.39-7.87,0.7c-5.63-2.14-7.62-6.87-5.53-13.05c1.04-3.04,2.94-6.18,5.33-9.12c-4.58-6.03-10.76-10.56-16.84-9.81
		c-3.24,0.4-6.03,1.54-8.32,3.14c3.88,7.22,4.78,16.39,2.09,21.27c-1.84,3.34-5.03,4.38-9.02,2.99c-2.84-1-4.33-4.93-3.79-10.01
		c0.55-5.18,3.14-10.91,7.77-14.84c-1.19-1.89-2.64-3.54-4.33-4.83c-10.46-8.12-19.07,0.6-19.43,0.95l-1.64-1.59
		c0.1-0.1,10.46-10.51,22.46-1.2c1.84,1.39,3.39,3.24,4.73,5.23c2.54-1.74,5.63-2.99,9.21-3.44c6.78-0.85,13.6,3.93,18.63,10.31
		c6.48-7.02,15.69-12.2,22.12-10.26c4.08,1.25,7.87,5.13,10.81,9.96c2.74-3.54,5.78-6.62,8.72-8.57c4.73-3.14,7.82-2.39,9.56-1.25
		c1.79,1.2,3.34,2.79,4.58,4.58c1.44-1.15,2.94-2.09,4.38-2.84c5.48-2.74,10.51-2.54,14.2,0.55l-1.44,1.74
		c-3.94-3.34-9.02-1.59-11.71-0.25c-1.49,0.75-2.89,1.64-4.23,2.74c3.64,6.57,4.39,15.14,2.29,19.33c-1.3,2.59-3.69,3.54-6.42,2.54
		c-4.93-1.79-6.18-5.23-6.33-7.77c-0.25-4.88,3.09-10.41,7.52-14.49c-1.15-1.69-2.49-3.19-4.08-4.18c-2.14-1.39-5.03-0.1-7.08,1.25
		c-2.94,1.94-6.03,5.18-8.76,8.82c3.39,6.48,5.18,14,3.88,18.88C2680.89,478.47,2679.1,482.01,2673.97,482.01z M2676.21,459.25
		c-4.48,6.53-7.67,13.95-6.92,17.93c0.25,1.25,0.85,1.94,1.94,2.19c4.43,1,7.17-0.3,8.12-3.84
		C2680.45,471.4,2679,464.97,2676.21,459.25z M2643.39,459.1c-2.09,2.59-3.69,5.33-4.58,7.87c-1.74,5.08-0.3,8.52,4.18,10.21
		c1.79,0.7,4.23,1.25,5.38-0.1c1.79-2.04,0.75-7.77-2.54-13.95C2645.13,461.79,2644.28,460.39,2643.39,459.1z M2615.04,451.92
		c-3.94,3.54-6.18,8.52-6.67,13.05c-0.4,3.89,0.55,7.02,2.29,7.67c2.89,1.05,4.98,0.35,6.28-1.94
		C2619.23,466.47,2618.38,458.4,2615.04,451.92z M2698.73,453.37c-3.94,3.79-6.63,8.62-6.43,12.35c0.15,2.69,1.79,4.63,4.83,5.78
		c1.69,0.6,2.84,0.15,3.59-1.39C2702.51,466.62,2701.76,459.15,2698.73,453.37z"/>
	<path class="st49" d="M2739.72,260.76c13.6,12.85,11.9,36.46-5.63,41.69c-13.2,3.98-32.93-1.34-42.64-18.18
		c-9.71-16.89-5.23-30.73,6.67-37.61C2710.08,239.79,2725.52,247.41,2739.72,260.76z"/>
	<path class="st24" d="M2228.62,612.26c-1.59-3.09,34.72-14.15,35.32,16.19c0,0,68.04-1.69,35.56-39.6
		c-11.26-13.15-10.11-23.96-9.76-34.07c0.35-10.11-7.02-39.5-32.18-36.51c0,0-6.57-2.69-14.84,1.59
		C2223.99,529.53,2182.05,623.42,2228.62,612.26z"/>
	<path class="st14" d="M2339.85,646.13c0,0,4.43-6.72,8.02-6.87c3.58-0.15,10.16-1.99,9.66-0.65c-0.5,1.35-4.63,1.45-5.03,2.24
		c-0.4,0.79,6.08,1.99,7.92,2.09c1.84,0.15,6.23,0,6.08,0.95c-0.15,0.94-7.87,4.78-13.3,4.23c-5.48-0.55-12.2,1.6-12.2,1.6
		L2339.85,646.13z"/>
	<path class="st47" d="M2275.79,648.27c0,0,2.39,4.78,6.77,10.26c5.28,6.57,13.4,14.2,23.56,15.69c4.88,0.7,9.61-0.35,13.99-2.29
		c12.35-5.48,21.67-18.13,21.67-18.13c2.19-5.93-1.39-9.96-1.39-9.96s-25,5.63-27.35,4.43c-2.39-1.2-16.24-41.19-19.58-46.22
		c-3.29-5.03-14.59-7.62-14.59-7.62L2275.79,648.27z"/>
	<path class="st27" d="M2282.56,658.53c5.28,6.57,13.4,14.2,23.56,15.69c4.88,0.7,9.61-0.35,13.99-2.29
		c-0.5,0.05-12.85,1.6-17.78-7.22c-5.03-8.96-10.46-23.26-17.93-18.53C2281.22,648.32,2281.37,653.4,2282.56,658.53z"/>
	<path class="st31" d="M2182.6,917.99c0,0-7.62,6.97-6.13,11.9c1.49,4.93,8.37,8.22,9.31,14.29c0.95,6.03,4.63,9.32,8.02,9.32
		c3.34,0,15.94,0,15.94,0s2.44-4.23-3.49-5.53c-5.93-1.3-8.22-8.37-7.82-14.99c0.35-6.57-0.55-15.39-0.55-15.39l-12.65-2.94
		L2182.6,917.99z"/>
	<path class="st31" d="M2247.1,920.93c0,0-2.74,29.49,0.6,31.13l42.84-0.1c0,0,0-4.93-6.87-6.03c-6.87-1.1-18.98-5.13-21.02-14.1
		C2260.6,922.87,2247.1,920.93,2247.1,920.93z"/>
	<path class="st14" d="M2216.62,709.49c8.82-19.78,14.2-25.45,13.2-31.58c-0.75-4.58,2.34-85.12,2.34-85.12
		c1.04-0.35,3.14-0.6,4.28-0.85c3.64-0.8,6.63-3.34,7.87-6.82c1.49-4.18,2.69-10.41,2.69-18.18l1.15,0.2l18.98,3.73
		c0,0-0.45,5.98-0.45,11.61c0,0.05,0,0.1,0,0.15c0,4.88,3.19,9.21,7.87,10.56c2.39,0.7,4.48,1.3,4.48,1.3s6.97,19.92,8.32,40.35
		c1.34,20.42-12.7,29.34,0.1,70.18C2300.4,746.75,2211.74,720.4,2216.62,709.49z"/>
	<path class="st25" d="M2267.03,570.87c0,0-0.45,5.98-0.45,11.6c-10.61-0.3-16.24-10.01-18.53-15.34L2267.03,570.87z"/>
	<path class="st14" d="M2270.56,576.2c0,0-25.15,0.4-25.15-15.24c0-15.64-3.29-26.15,12.75-27.1c16.04-0.95,19.18,5.03,20.47,10.26
		C2279.93,549.4,2277.14,575.7,2270.56,576.2z"/>
	<path class="st24" d="M2269.66,533.51c0,0-6.87,18.38-17.43,21.07c-10.56,2.74-15.14-0.1-15.14-0.1s8.12-6.42,9.76-17.68
		C2246.85,536.8,2264.43,524.75,2269.66,533.51z"/>
	<path class="st24" d="M2267.92,535.01c0,0,5.08,1.89,7.22,5.63c2.04,3.64,3.79,8.47,3.39,14.4c0,0,5.18-12.5-0.65-19.53
		C2271.71,527.98,2267.92,535.01,2267.92,535.01z"/>
	<path class="st47" d="M2214.18,628.4c0,0-0.65,9.02,0,19.77c0.45,7.17,7.67,16.74,8.72,19.13c2.59,5.93,5.48,6.92,5.48,6.92
		l22.51,5.53l7.92,1.94l24.95-7.47c0,0,11.35-31.68,6.78-49.56c-4.58-17.83-11.51-30.24-11.51-30.24s-20.37,19.92-46.82-1.69
		L2214.18,628.4z"/>
	<path class="st27" d="M2220.75,651.11c0.45,7.17,1.09,13.85,2.09,16.19c2.59,5.93,5.48,6.93,5.48,6.93l22.52,5.53l9.76-2.89
		c0,0-32.63-4.93-28.99-32.97L2220.75,651.11z"/>
	<path class="st44" d="M2282.12,679.05c0,0,12.35,38.45,13.15,51.5c0.8,13.1-23.61,185.89-24.61,191.97
		c-0.94,5.68-7.97,9.32-7.97,9.32s-3.24,1.89-7.87,0.6c-6.42-1.79-8.47-3.98-8.47-3.98s-9.61-123.28-3.69-167.31
		s6.03-82.09,6.03-82.09H2282.12z"/>
	<path class="st20" d="M2229.77,677.91c0,0-18.83,25.25-20.57,42.34c-1.74,17.08-2.74,77.1-6.48,93.74
		c-3.74,16.64-17.48,48.71-17.48,100.66c0,0,1.44,2.99,5.83,4.58c1.39,0.5,3.29,1,5.13,1.45c3.64,0.85,7.37-0.95,9.02-4.28
		c9.31-18.73,38.9-79.05,40.4-91.6c1.09-8.87,10.41-67.54,30.83-101.96c4.88-8.27-2.99-41.14-2.99-41.14L2229.77,677.91z"/>
	<path class="st31" d="M2284.06,673.13c0,0-4.98,3.93-14.8,4.13c-11.75,0.25-40.89-2.99-40.89-2.99s-1.3,3.64-1.25,7.42
		c0,0,35.62,8.97,56.24,1.3C2283.31,682.99,2286,678.01,2284.06,673.13z"/>
	<path class="st5" d="M2266.73,681.3c0-3.34,2.39-6.08,5.38-6.08c2.94,0,5.38,2.74,5.38,6.08c0,3.34-2.39,6.08-5.38,6.08
		C2269.12,687.37,2266.73,684.63,2266.73,681.3z M2268.52,681.3c0,2.39,1.6,4.28,3.59,4.28s3.59-1.94,3.59-4.28
		c0-2.34-1.6-4.29-3.59-4.29S2268.52,678.96,2268.52,681.3z"/>
	<path class="st28" d="M2233.55,630.11l-43.47,49.93l36.48,31.76l43.47-49.93L2233.55,630.11z"/>
	<path class="st14" d="M2236.59,680.2c0,0,13.35,1.54,13.3,4.73c-0.05,3.19-3.34,9.71-4.98,9.96c-1.64,0.3-10.86-8.82-10.86-8.82
		L2236.59,680.2z"/>
	<path class="st47" d="M2232.11,592.78c0,0-17.83,1.24-24.71,17.88c-6.82,16.64-19.82,44.53-19.82,49.26
		c0,4.68,7.27,19.18,46.17,27.49c0,0,4.03-4.23,3.78-7.57c0,0-24.31-20.87-24.25-23.31c0.1-4.63,3.98-10.71,25.3-32.03
		C2244.46,618.64,2232.11,592.78,2232.11,592.78z"/>
	<path class="st50" d="M2386.37,952.61h-0.15c-1,0-1.79-0.79-1.79-1.79l2.69-116.71l7.92-0.94l-6.78,117.65
		C2388.26,951.81,2387.41,952.61,2386.37,952.61z"/>
	<path class="st51" d="M2513.93,952.61h0.15c1,0,1.79-0.79,1.79-1.79l-2.69-116.71l-7.92-0.94l6.78,117.65
		C2512.09,951.81,2512.88,952.61,2513.93,952.61z"/>
	<path class="st51" d="M2381.14,826.84v-80c0-14.1,11.41-25.5,25.5-25.5h57.63c14.1,0,25.5,11.41,25.5,25.5v83.03L2381.14,826.84z"
		/>
	<path class="st50" d="M2500.03,839.44h-111.27c-4.23,0-7.67-3.44-7.67-7.67v-4.98h118.9v12.65H2500.03z"/>
	<path class="st51" d="M2513.38,839.44h-84.18c-3.14,0-5.68-2.54-5.68-5.68v-1.3c0-3.14,2.54-5.68,5.68-5.68h84.18
		c3.14,0,5.68,2.54,5.68,5.68v1.3C2519.01,836.95,2516.47,839.44,2513.38,839.44z"/>
	<path class="st31" d="M2510.1,806.92c-8.27,14.35-18.63,19.92-18.63,19.92h-43.19C2448.28,826.84,2516.37,795.96,2510.1,806.92z"/>
	<path class="st14" d="M2476.92,918.04c-1.15,1.3-1.24,2.74-0.7,4.29c1.05,2.84,4.43,6.03,8.37,9.21c0.5,0.4,0.94,0.8,1.34,1.15
		c0.1,0.1,0.2,0.2,0.3,0.25c0.1,0.05,0.15,0.15,0.25,0.2c3.69,3.39,2.29,4.18,8.92,11.06c7.57,7.87,12.75,8.02,14.24,7.27
		c1.25-0.6-1.29-4.78-4.08-9.46c-0.15-0.25-0.25-0.45-0.4-0.7c-0.4-0.6-0.75-1.24-1.1-1.89c-3.29-5.63-2.44-8.27-1.69-16.68
		c0.65-6.83,10.61-38.11,10.61-38.11l-14.5-2.49c0,0-4.38,24.9-9.16,28.74c-2.59,2.04-5.43,2.09-7.92,3.59
		c-0.2,0.1-0.35,0.2-0.5,0.35C2479.46,915.8,2478.07,916.75,2476.92,918.04z"/>
	<path class="st31" d="M2476.92,918.04c-1.15,1.3-1.24,2.74-0.7,4.28c1.24,2.84,4.58,6.03,8.42,9.17c0.5,0.4,0.94,0.8,1.34,1.15
		c0.1,0.1,0.2,0.2,0.3,0.25c0.1,0.05,0.15,0.15,0.25,0.2c3.69,3.39,2.29,4.18,8.91,11.06c7.57,7.87,12.75,8.02,14.25,7.27
		c1.24-0.6-1.3-4.78-4.08-9.47c-1.49-0.55-8.32-3.34-13.45-9.91c-4.53-5.78-7.57-13.25-10.66-17.58c-0.2,0.1-0.35,0.2-0.5,0.35
		C2479.46,915.8,2478.07,916.75,2476.92,918.04z"/>
	<path class="st14" d="M2593.63,909.03c0.89,4.48,7.27,3.73,14.39,1.99c7.12-1.74,5.43,0.35,15.54-0.8
		c10.11-1.09,13.2-4.88,13.5-6.42c0.3-1.35-4.73-1.79-10.11-2.44c-0.7-0.1-1.34-0.15-2.04-0.25c-6.08-0.75-10.51-4.68-15.99-7.87
		c-5.23-3.04-13-15.44-13-15.44l-13.9,1.09c0,0,7.27,11.06,10.11,15.89c1.64,2.84,1.6,6.57,1.35,9.46
		C2593.38,905.84,2593.28,907.43,2593.63,909.03z"/>
	<path class="st31" d="M2607.97,911.02c7.12-1.74,5.43,0.35,15.54-0.79c10.11-1.1,13.2-4.88,13.5-6.43
		c0.3-1.34-4.73-1.79-10.11-2.44l-0.05,0.1c0,0-6.08,4.28-14.5,4.48c-6.87,0.15-14.15-1.79-18.88-1.74c-0.1,1.6-0.2,3.19,0.1,4.73
		C2594.52,913.51,2600.9,912.76,2607.97,911.02z"/>
	<path class="st31" d="M2540.38,820.22l-13,34.91l-16.94,45.63c0,0-4.58,0.45-9.02-0.85c-4.03-1.19-8.72-4.23-8.72-4.23
		s4.68-48.96,13.5-77.06c2.24-7.22,4.78-13.05,7.57-16.34C2527.43,786.2,2540.38,820.22,2540.38,820.22z"/>
	<path class="st29" d="M2527.18,764.78c-8.52-2.74-32.78,0.8-57.13,5.53l-5.08-8.42l-52.65-4.14c0,0-17.38,38.5-7.87,63.06
		c1.39,3.59,4.18,5.93,8.92,5.98h0.75c0,0,31.33,0,41.49,0c26.15,0,55.39-17.98,59.17-18.73c6.18-1.24,8.67,11.16,14.84,24.11
		c6.18,13,58.18,57.53,58.18,57.53s7.97,0.1,11.31-1.15c3.54-1.34,4.83-3.04,4.83-3.04S2546.41,770.95,2527.18,764.78z"/>
	<path class="st28" d="M2462.93,608.67c-6.72-3.54-16.98-4.03-18.68-4.23c-19.92-2.69-31.93,26.3-32.67,35.06
		c-1.3,16.19-9.86,18.63-21.92,28.79c-24.16,20.32-17.08,43.93-3.88,52.7c7.92,5.28,21.92,0,21.92,0
		c0.2,0.15,38.2-21.27,56.93-31.58C2492.76,685.43,2480.11,617.69,2462.93,608.67z"/>
	<path class="st14" d="M2448.98,680.65c0.1,0.05-9.22,3.24-15.44,0.5c-5.83-2.59-10.26-12.2-10.21-12.2
		c2.64-0.1,5.58-2.44,7.82-17.73l1.15,0.4l19.08,6.87c0,0-1.39,6.12-2.29,11.95C2448.33,675.27,2447.93,679.95,2448.98,680.65z"/>
	<path class="st17" d="M2451.37,658.44c0,0-1.39,6.13-2.29,11.95c-10.96-1.99-15.24-12.9-16.79-18.78L2451.37,658.44z"/>
	<path class="st14" d="M2454.21,664.51c0,0-26.1-3.49-23.66-19.72s0.7-27.6,17.43-26c16.74,1.54,19.08,8.22,19.57,13.85
		C2468.05,638.21,2461.03,665.01,2454.21,664.51z"/>
	<path class="st28" d="M2466.61,623.72c0,0-16.69,14.39-28.04,15.54c-11.36,1.15-15.64-2.49-15.64-2.49s6.68-5.58,10.71-14.55
		c1.19-2.64,3.69-4.43,6.57-4.68C2448.33,616.84,2463.67,616.54,2466.61,623.72z"/>
	<path class="st28" d="M2456.15,622.42c0,0,5.58,5.38,7.32,9.41c1.69,3.88,2.19,13.1,0.85,16.78c0,0,8.72-16.93,3.78-25.15
		C2462.93,614.75,2456.15,622.42,2456.15,622.42z"/>
	<path class="st47" d="M2470.95,719.05c-0.8,52.8-0.2,41.74-5.98,46.77c-1.39,1.19-5.28,1.94-10.46,2.24
		c-16.19,1.09-44.63-1.6-45.72-4.58c-3.74-10.36-1.1-13.55-4.23-29.39c-0.35-1.69-0.75-3.49-1.2-5.48
		c-2.59-10.91-5.13-14.59,4.08-32.08c8.37-15.84,17.04-28.69,17.83-28.24c22.07,13.1,23.81,2.09,23.81,2.09
		S2471.29,693.3,2470.95,719.05z"/>
	<path class="st29" d="M2527.43,855.18l-16.93,45.63c0,0-4.58,0.45-9.02-0.85c-4.03-1.19-8.72-4.23-8.72-4.23s4.68-48.96,13.5-77.06
		L2527.43,855.18z"/>
	<path class="st47" d="M2449.08,670.39c0,0,22.66,3.83,25.35,13.6c2.64,9.77,18.33,67.19,18.33,67.19s-11.56,2.09-16.84-3.24
		c-5.28-5.33-18.53-49.41-18.53-49.41L2449.08,670.39z"/>
	<path class="st27" d="M2454.46,768.07c-16.19,1.09-44.63-1.6-45.73-4.58c-3.74-10.36-1.09-13.55-4.23-29.39l7.82-21.97
		c0,0-1.3,24.46,5.93,30.93c7.22,6.42,29.54,12.45,33.07,17.83C2453.06,763.43,2454.16,766.02,2454.46,768.07z"/>
	<path class="st14" d="M2435.93,757.81c0,0,15.99-3.54,18.53-2.14c2.59,1.39,8.87,6.58,9.66,8.37c0.8,1.79-5.73-1.35-7.87-1.94
		c-1.39-0.35-4.98,0.9-6.77,1.49c-7.52,2.49-12.15,1.2-12.15,1.2L2435.93,757.81z"/>
	<path class="st47" d="M2425.22,668.3c0,0-21.42,1.34-28.84,11.65c-10.46,14.59-31.18,76.66-19.28,84.97
		c13.4,9.32,60.87,2.44,60.87,2.44s1.59-7.37-0.6-10.96c-2.19-3.58-37.95-9.36-39.6-11.01c-1.64-1.64,20.62-32.18,20.62-37.11
		C2418.4,703.36,2425.22,668.3,2425.22,668.3z"/>
	<path class="st14" d="M2455.25,760.1c0,0,3.34,4.33,4.43,4.83c1.1,0.5,1.79,0.4,1.79,0.4l-2.24-4.03L2455.25,760.1z"/>
	<path class="st14" d="M2454.46,755.66l9.71,4.73c0,0-0.4,0.7-1.59,0.6c-1.2-0.05-4.23-1.15-4.23-1.15L2454.46,755.66z"/>
	<path class="st20" d="M2459.69,771.55h76.96l23.16-57.58h-76.86L2459.69,771.55z"/>
	<path class="st44" d="M2537.54,769.31h-101.61v2.24h100.72L2537.54,769.31z"/>
	<path class="st5" d="M2517.22,742.76c0.6-2.04-0.6-3.68-2.59-3.68s-4.13,1.64-4.73,3.68c-0.6,2.04,0.6,3.69,2.59,3.69
		S2516.62,744.76,2517.22,742.76z"/>
	<path class="st31" d="M2703.5,954.2h0.25c1.3,0,2.39-1.2,2.34-2.64l-3.54-170.3l-10.51-1.34l8.96,171.64
		C2701.07,953.06,2702.16,954.2,2703.5,954.2z"/>
	<path class="st31" d="M2438.47,954.2h-0.2c-1.3,0-2.39-1.2-2.34-2.64l3.54-170.3l10.51-1.34l-8.97,171.64
		C2440.96,953.06,2439.81,954.2,2438.47,954.2z"/>
	<path class="st31" d="M2720.74,783.71h-295.57c-2.34,0-4.23-1.89-4.23-4.23v-3.69c0-2.34,1.89-4.23,4.23-4.23h295.57
		c2.34,0,4.23,1.89,4.23,4.23v3.69C2724.97,781.81,2723.08,783.71,2720.74,783.71z"/>
	<path class="st32" d="M3311.68,956.1H1914.82c-1.05,0-1.89-0.85-1.89-1.89v-1.45c0-1.05,0.85-1.89,1.89-1.89h1396.86
		c1.05,0,1.89,0.85,1.89,1.89v1.45C3313.57,955.25,3312.73,956.1,3311.68,956.1z"/>
	<path class="st3" d="M2934.07,303.04l57.68,9.12l-37.96-26.75l-2.09,8.37l-14.1,2.34L2934.07,303.04z"/>
	<path class="st5" d="M2991.75,312.16l-47.72-25.55l-47.12-3.09L2991.75,312.16z"/>
	<path class="st5" d="M2953.8,285.41l37.96,26.75l-29.09-41.34L2953.8,285.41z"/>
	<path class="st3" d="M2380.74,359.73l-75.11,21.62l46.03-41.74l4.13,10.71l19.13,0.8L2380.74,359.73z"/>
	<path class="st26" d="M2305.63,381.35l59.18-41.79l62.11-11.8L2305.63,381.35z"/>
	<path class="st26" d="M2351.65,339.6l-46.02,41.74l31.83-59.67L2351.65,339.6z"/>
</g>
<g>
	<path class="st60" d="M1912.33,94.18h32.25c23.92,0,40.25,14.75,40.25,36.88c0,22.13-16.33,36.88-40.25,36.88h-32.25V94.18z
		 M1943.95,156.35c16.44,0,27.08-10.01,27.08-25.29c0-15.28-10.64-25.29-27.08-25.29h-17.91v50.58H1943.95z"/>
	<path class="st60" d="M2050.8,144.02h-44.15c1.58,8.22,8.43,13.49,18.23,13.49c6.32,0,11.28-2,15.28-6.11l7.06,8.11
		c-5.06,6.01-12.96,9.17-22.66,9.17c-18.86,0-31.09-12.12-31.09-28.87s12.33-28.77,29.08-28.77c16.44,0,28.45,11.49,28.45,29.08
		C2051.01,141.17,2050.91,142.75,2050.8,144.02z M2006.54,135.27h31.93c-1.05-8.11-7.27-13.7-15.91-13.7
		C2014.02,121.57,2007.81,127.05,2006.54,135.27z"/>
	<path class="st60" d="M2063.66,89.75h13.17v78.19h-13.17V89.75z"/>
	<path class="st60" d="M2092.32,94.49c0-4.43,3.58-7.9,8.43-7.9s8.43,3.27,8.43,7.59c0,4.64-3.48,8.22-8.43,8.22
		C2095.9,102.39,2092.32,98.92,2092.32,94.49z M2094.11,111.67h13.17v56.27h-13.17V111.67z"/>
	<path class="st60" d="M2177.25,111.67l-24.13,56.27h-13.59l-24.13-56.27h13.7l17.49,41.73l18.02-41.73H2177.25z"/>
	<path class="st60" d="M2236.58,144.02h-44.15c1.58,8.22,8.43,13.49,18.23,13.49c6.32,0,11.28-2,15.28-6.11l7.06,8.11
		c-5.06,6.01-12.96,9.17-22.66,9.17c-18.86,0-31.09-12.12-31.09-28.87s12.33-28.77,29.08-28.77c16.44,0,28.45,11.49,28.45,29.08
		C2236.79,141.17,2236.68,142.75,2236.58,144.02z M2192.32,135.27h31.93c-1.05-8.11-7.27-13.7-15.91-13.7
		C2199.8,121.57,2193.58,127.05,2192.32,135.27z"/>
	<path class="st60" d="M2282,111.04v12.54c-1.16-0.21-2.11-0.32-3.06-0.32c-10.01,0-16.33,5.9-16.33,17.39v27.29h-13.17v-56.27
		h12.54v8.22C2265.77,113.99,2272.62,111.04,2282,111.04z"/>
	<path class="st60" d="M1944.16,268.37v26.03h-13.7v-25.82l-28.98-47.95h14.65l21.6,35.93l21.81-35.93h13.49L1944.16,268.37z"/>
	<path class="st60" d="M1969.77,266.26c0-16.86,12.65-28.77,29.93-28.77c17.49,0,30.03,11.91,30.03,28.77s-12.54,28.87-30.03,28.87
		C1982.41,295.13,1969.77,283.12,1969.77,266.26z M2016.45,266.26c0-10.75-7.17-17.6-16.75-17.6c-9.48,0-16.65,6.85-16.65,17.6
		s7.17,17.6,16.65,17.6C2009.28,283.86,2016.45,277.01,2016.45,266.26z"/>
	<path class="st60" d="M2096.85,238.12v56.27h-12.54v-7.17c-4.21,5.16-10.85,7.9-18.13,7.9c-14.44,0-24.24-7.9-24.24-24.87v-32.14
		h13.17v30.35c0,10.22,4.85,15.07,13.17,15.07c9.17,0,15.38-5.69,15.38-16.97v-28.45H2096.85z"/>
	<path class="st60" d="M2146.7,237.49v12.54c-1.16-0.21-2.11-0.32-3.06-0.32c-10.01,0-16.33,5.9-16.33,17.39v27.29h-13.17v-56.27
		h12.54v8.22C2130.47,240.44,2137.32,237.49,2146.7,237.49z"/>
	<path class="st60" d="M2188.74,220.63h13.7v73.76h-13.7V220.63z"/>
	<path class="st60" d="M2276.2,216.2v78.19h-12.64v-7.27c-4.43,5.38-10.96,8.01-18.65,8.01c-16.33,0-28.45-11.38-28.45-28.87
		s12.12-28.77,28.45-28.77c7.27,0,13.7,2.42,18.13,7.59V216.2H2276.2z M2263.24,266.26c0-10.75-7.27-17.6-16.75-17.6
		c-9.48,0-16.75,6.85-16.75,17.6s7.27,17.6,16.75,17.6C2255.97,283.86,2263.24,277.01,2263.24,266.26z"/>
	<path class="st60" d="M2346.17,270.47h-44.15c1.58,8.22,8.43,13.49,18.23,13.49c6.32,0,11.28-2,15.28-6.11l7.06,8.11
		c-5.06,6.01-12.96,9.17-22.66,9.17c-18.86,0-31.09-12.12-31.09-28.87s12.33-28.77,29.08-28.77c16.44,0,28.45,11.49,28.45,29.08
		C2346.38,267.63,2346.28,269.21,2346.17,270.47z M2301.92,261.73h31.93c-1.05-8.11-7.27-13.7-15.91-13.7
		C2309.4,248.03,2303.18,253.51,2301.92,261.73z"/>
	<path class="st60" d="M2404.55,261.41v32.98h-12.43v-6.85c-3.16,4.85-9.27,7.59-17.7,7.59c-12.86,0-20.97-7.06-20.97-16.86
		c0-9.38,6.32-16.75,23.39-16.75h14.54v-0.84c0-7.69-4.64-12.22-14.01-12.22c-6.32,0-12.86,2.11-17.07,5.58l-5.16-9.59
		c6.01-4.64,14.75-6.95,23.82-6.95C2395.17,237.49,2404.55,245.18,2404.55,261.41z M2391.38,276.8v-6.53h-13.59
		c-8.96,0-11.38,3.37-11.38,7.48c0,4.74,4,7.8,10.75,7.8C2383.58,285.54,2389.17,282.59,2391.38,276.8z"/>
</g>
<g>
	<path class="st29" d="M3009.11,1081.23l4.73-10.62c5.89,4.73,15.24,8.09,24.28,8.09c11.46,0,16.29-4.1,16.29-9.56
		c0-15.87-43.72-5.47-43.72-32.79c0-11.88,9.46-21.97,29.64-21.97c8.83,0,18.08,2.31,24.49,6.52l-4.31,10.62
		c-6.62-3.89-13.87-5.78-20.28-5.78c-11.35,0-15.98,4.41-15.98,9.98c0,15.66,43.62,5.47,43.62,32.48c0,11.77-9.56,21.86-29.74,21.86
		C3026.66,1090.06,3015.2,1086.49,3009.11,1081.23z"/>
	<path class="st29" d="M3113.89,1085.96c-3.15,2.52-7.88,3.78-12.61,3.78c-12.3,0-19.34-6.52-19.34-18.92v-27.01h-9.25v-10.51h9.25
		v-12.82h13.14v12.82h15.03v10.51h-15.03v26.7c0,5.46,2.73,8.41,7.78,8.41c2.73,0,5.36-0.74,7.36-2.31L3113.89,1085.96z"/>
	<path class="st29" d="M3175.38,1065.15h-44.04c1.58,8.2,8.41,13.45,18.18,13.45c6.31,0,11.25-2,15.24-6.1l7.04,8.09
		c-5.04,5.99-12.93,9.14-22.6,9.14c-18.81,0-31-12.09-31-28.8s12.3-28.69,29.01-28.69c16.4,0,28.38,11.46,28.38,29.01
		C3175.59,1062.31,3175.48,1063.89,3175.38,1065.15z M3131.23,1056.43h31.85c-1.05-8.09-7.25-13.66-15.87-13.66
		C3138.7,1042.76,3132.5,1048.23,3131.23,1056.43z"/>
	<path class="st29" d="M3247.79,1060.95c0,17.45-12.09,28.8-28.48,28.8c-7.15,0-13.45-2.42-17.97-7.57v27.22h-13.14v-76.51h12.51
		v7.36c4.41-5.36,10.93-7.99,18.6-7.99C3235.7,1032.25,3247.79,1043.61,3247.79,1060.95z M3234.44,1060.95
		c0-10.72-7.15-17.55-16.61-17.55c-9.46,0-16.71,6.83-16.71,17.55s7.25,17.55,16.71,17.55
		C3227.3,1078.5,3234.44,1071.67,3234.44,1060.95z"/>
	<path class="st29" d="M3310.74,1015.44v73.57h-13.66v-62.12h-15.55v-11.46H3310.74z"/>
</g>
</svg>
