<?xml version="1.0" encoding="utf-8"?>
<!-- Generator: Adobe Illustrator 23.0.1, SVG Export Plug-In . SVG Version: 6.00 Build 0)  -->
<svg version="1.1" id="Layer_1" xmlns="http://www.w3.org/2000/svg" xmlns:xlink="http://www.w3.org/1999/xlink" x="0px" y="0px"
	 viewBox="0 0 3500 1264" style="enable-background:new 0 0 3500 1264;" xml:space="preserve">
<style type="text/css">
	.st0{fill:none;stroke:#EFB76C;stroke-width:23;stroke-linecap:round;stroke-linejoin:round;}
	.st1{clip-path:url(#SVGID_2_);}
	.st2{fill:#EBEBEB;}
	.st3{fill:#C9C9C9;}
	.st4{fill:#E0E0E0;}
	.st5{fill:#FFFFFF;}
	.st6{fill:#FFA412;}
	.st7{fill:#EEF6FF;}
	.st8{fill:#78ACEA;}
	.st9{fill:#BAE8E3;}
	.st10{fill:#A1D6CE;}
	.st11{fill:#F99746;}
	.st12{fill:#F5F5F5;}
	.st13{fill:#B7D3F3;}
	.st14{fill:#FFB27D;}
	.st15{fill:#233862;}
	.st16{fill:#A9453D;}
	.st17{fill:#ED975D;}
	.st18{fill:#2D3A3F;}
	.st19{fill:#5F9AA8;}
	.st20{fill:#FFC93C;}
	.st21{fill:#263238;}
	.st22{fill:#1E3D70;}
	.st23{fill:#FFDF93;}
	.st24{fill:#163560;}
	.st25{fill:#E8945B;}
	.st26{fill:#EBF3FA;}
	.st27{fill:#F2CCAA;}
	.st28{fill:#B5453C;}
	.st29{fill:#00858E;}
	.st30{fill:#E2915A;}
	.st31{fill:#007477;}
	.st32{fill:#2E3552;}
	.st33{clip-path:url(#SVGID_4_);}
	.st34{fill:#DFEBFD;}
	.st35{fill:#375DAA;}
	.st36{fill:#EFC8AB;}
	.st37{fill:#FFEDDC;}
	.st38{fill:#F7DCC6;}
	.st39{fill:#E8B795;}
	.st40{fill:#E2810E;}
	.st41{fill:#FFB93E;}
	.st42{fill:#2C3A64;}
	.st43{fill:#ED985F;}
	.st44{fill:#EDB22F;}
	.st45{fill:#FAFDFF;}
	.st46{fill:#699DEE;}
	.st47{fill:#F9DDBF;}
	.st48{fill:#F4A269;}
	.st49{fill:#FFEAC5;}
	.st50{fill:#95C0F4;}
	.st51{fill:#B0D4FF;}
	.st52{fill:none;}
	.st53{opacity:0.4;}
	.st54{opacity:0.4;fill:#EBEBEB;enable-background:new    ;}
	.st55{fill:#1B1B43;}
	.st56{fill:#3A4A51;}
	.st57{fill:#FFBC96;}
	.st58{fill:#D28572;}
	.st59{fill:#925D4F;}
	.st60{fill:#EFB76C;}
</style>
<path class="st0" d="M2551.91,0.28c-130.16,221.29-385.26,312.2-557.27,385.52c-240.79,102.68-484.47,195.63-730.4,268.28
	C992.93,734.21,721.85,795.01,458.43,923.7C294.48,1003.79,139.72,1109.72,0,1253.46"/>
<path class="st0" d="M1388.87-1263.58c185.04,99.6,376.02,174.26,566.21,249.58c180.61,71.52,380.66,120.29,532.88,290.32
	c118.26,132.09,179.46,357.81,126.73,569.37c-14.32,57.44-35.71,108.42-62.37,153.89"/>
<g>
	<defs>
		<polyline id="SVGID_3_" points="256,1170 256,183.75 1834,183.75 1834,1170 		"/>
	</defs>
	<clipPath id="SVGID_2_">
		<use xlink:href="#SVGID_3_"  style="overflow:visible;"/>
	</clipPath>
	<g class="st1">
		<path class="st4" d="M559.17,704.15c0,0,67.76,40.34,59.47,52.52c-8.28,12.18-72.29-50.4-72.29-50.4s-73.67,31.07-90.29,54.1
			c0,0,86.3,16.57,75.3,26.33c-11,9.71-101.63-3.35-101.63-3.35s-59.13,46.3-34.17,84.17c24.95,37.87,54.05,37.97,63.37,31.61
			c9.27-6.41,55.08-59.62,60.7-52.22c5.62,7.4-14.79,52.62-38.46,67.02c0,0,73.33,25.79,95.91-5.33
			c22.59-31.12,12.67-55.72,27.02-74.71c14.35-18.98,30.57-27.76,27.52-14.64c-3.06,13.12-32.84,40.34-33.29,65.49
			c-0.49,25.15-3.2,43.4,25.79,21.55c29-21.84,67.8-72.69,55.77-100.4c-0.54-1.18-1.03-2.37-1.53-3.45
			c1.18,2.07,1.53,3.45,1.53,3.45c7.2-2.37,27.42,2.32,42.41,6.46c2.42,0.84,5.92,1.87,10.8,3.11c2.12,0.64,3.85,1.18,5.08,1.58
			c31.81,11.34,68,52.17,68,52.17l6.56-4.34c-29.78-48.72-82.94-56.26-82.94-56.26c-39.35-9.17-61.98-30.38-61.98-30.38
			s16.52-76.63-43.54-87.09C624.27,691.08,583.43,689.06,559.17,704.15z"/>
		<path class="st4" d="M1586.6,442.05c-14.1-52.17-102.18-35.85-102.18-35.85s-59.77,91.28-77.17,93.45
			c-17.41,2.17,35.85-88.02,35.85-88.02c-33.68-3.25-119.53,38.02-119.53,38.02s5.42,106.51-11.93,104.34
			c-17.36-2.17,0-94.58,0-94.58c-32.59,9.76-63.02,47.83-63.02,47.83c-38.02,61.94,43.49,107.6,43.49,107.6s1.08,36.94-21.75,79.35
			c0,0-5.13,7.84-10.41,21.11h8.88c0.74-2.37,1.53-4.69,2.42-6.9v-0.05c0-0.05,0.05-0.05,0.05-0.1c0.59-1.38,1.48-3.35,2.56-5.72
			c2.71-5.33,4.54-9.27,5.72-12.08c0,0,0,0,0-0.05c8.14-16.67,19.87-38.41,27.67-43c0,0-0.99-1.38-1.92-4.09
			c0.59,1.28,1.23,2.66,1.92,4.09c15.24,32.6,91.28,38.02,133.68,29.34c42.41-8.68,23.92-20.66,1.08-40.04
			c-22.83-19.38-70.66-14.3-84.77-21.89c-14.1-7.59,6.51-15.24,34.76-13.07c28.26,2.17,42.41,30.43,88.02,34.77
			c45.66,4.34,80.43-81.52,80.43-81.52c-31.51,9.76-88.02-7.59-90.19-18.49c-2.17-10.85,81.51-9.76,94.58-13.07
			C1577.87,520.31,1600.7,494.22,1586.6,442.05z"/>
		<path class="st3" d="M1445.12,758.88c-7.59-27.96-54.74-19.23-54.74-19.23s-32,48.92-41.32,50.05
			c-9.32,1.13,19.23-47.14,19.23-47.14c-18.05-1.73-64.06,20.36-64.06,20.36s2.91,57.06-6.41,55.87c-9.32-1.18,0-50.65,0-50.65
			c-17.46,5.23-33.78,25.59-33.78,25.59c-20.36,33.19,23.28,57.64,23.28,57.64s0.59,19.82-11.64,42.51c0,0-2.76,4.19-5.57,11.29
			h4.78c0.39-1.28,0.84-2.52,1.28-3.7v-0.05c0.35-0.74,0.79-1.78,1.38-3.06c1.43-2.86,2.42-4.93,3.06-6.46
			c4.34-8.92,10.65-20.61,14.84-23.03c0,0-0.54-0.74-1.04-2.17c0.35,0.69,0.69,1.43,1.04,2.17c8.14,17.46,48.92,20.36,71.6,15.73
			s12.82-11.05,0.59-21.45c-12.23-10.41-37.87-7.65-45.42-11.74c-7.59-4.09,3.5-8.14,18.64-7c15.14,1.13,22.73,16.32,47.14,18.64
			c24.46,2.32,43.1-43.69,43.1-43.69c-16.86,5.23-47.14-4.09-48.33-9.91c-1.18-5.82,43.69-5.23,50.65-7
			C1440.49,800.8,1452.72,786.79,1445.12,758.88z"/>
		<path class="st4" d="M1211.58,360.83c-24.46-27.86-73.72,8.83-73.72,8.83s-9.17,74.26-19.23,80.87
			c-10.06,6.61-4.54-65.04-4.54-65.04c-21.75,8.19-62.09,59.57-62.09,59.57s35.56,63.91,24.21,67.8
			c-11.34,3.95-28.6-58.19-28.6-58.19c-17.11,15.88-24.36,48.47-24.36,48.47c-4.69,49.61,59.27,53.06,59.27,53.06
			s11.84,22.44,10.6,55.38c0,0-0.79,6.36,0,16.12l5.48-2.71c-0.3-1.68-0.49-3.35-0.59-4.98c0,0,0,0,0-0.05v-0.05
			c-0.05-1.03-0.1-2.51-0.15-4.29c0.05-4.09,0-7.05-0.15-9.17c-0.05-12.72,0.59-29.64,4.04-34.81c0,0-1.04-0.54-2.42-1.92
			c0.79,0.64,1.58,1.23,2.42,1.92c19.23,15.48,67.7-4.19,91.13-22.34c23.47-18.15,8.48-19.92-11.44-25
			c-19.93-5.03-47.79,12.57-58.78,12.13c-11-0.39-0.59-11.34,17.46-18.54c18.05-7.2,35.31,5.92,64.7-5.23
			c29.39-11.14,24.85-74.46,24.85-74.46c-16.42,15.53-56.46,21.94-61.1,15.93c-4.64-6.02,47.19-30.67,54.24-36.64
			C1229.87,411.52,1236.04,388.64,1211.58,360.83z"/>
		<path class="st4" d="M788.33,601.18L686.1,711.69l-147.35-136.3l-62.08-57.45L578.9,407.43l115.93,107.25L788.33,601.18z"/>
		<path class="st3" d="M764.91,602.46l-79.39,85.8L497.34,514.14l79.34-85.8L764.91,602.46z M692.66,675.3l59.87-64.7
			c4.04-4.39,3.8-11.24-0.59-15.29L585.01,440.87c-4.49-4.14-11.44-3.85-15.58,0.59l-59.62,64.45c-4.09,4.44-3.85,11.34,0.59,15.44
			l167.02,154.55C681.81,679.93,688.62,679.68,692.66,675.3z"/>
		<path class="st3" d="M631.12,589.74c17.37,0,31.46-14.09,31.46-31.46c0-17.37-14.09-31.46-31.46-31.46
			c-17.38,0-31.46,14.09-31.46,31.46C599.66,575.65,613.74,589.74,631.12,589.74z"/>
		<path class="st4" d="M880.39,601.77l-147.25,31.36l-41.82-196.27l-17.65-82.7l147.25-31.41l32.89,154.45L880.39,601.77z"/>
		<path class="st3" d="M860.52,589.35l-114.31,24.36l-53.45-250.76l114.31-24.36L860.52,589.35z M759.53,607.25l86.2-18.39
			c5.87-1.23,9.57-7,8.33-12.87l-47.44-222.4c-1.28-5.97-7.1-9.76-13.07-8.48L707.7,363.4c-5.92,1.23-9.67,7.05-8.43,12.97
			l47.44,222.55C747.99,604.73,753.71,608.48,759.53,607.25z"/>
		<path class="st3" d="M776.64,507.58c17.38,0,31.46-14.08,31.46-31.46s-14.08-31.46-31.46-31.46s-31.46,14.09-31.46,31.46
			S759.26,507.58,776.64,507.58z"/>
		<path class="st29" d="M1348.52,994.15H645.37c-4.19,0-7.65-3.4-7.65-7.64V542.05c0-10.55,8.53-19.08,19.09-19.08h670.5
			c15.93,0,28.8,12.92,28.8,28.8v434.74C1356.16,990.7,1352.76,994.15,1348.52,994.15z"/>
		<path class="st20" d="M1326.03,983.45H664.5c-5.87,0-10.65-4.78-10.65-10.65V550c0-5.87,4.78-10.65,10.65-10.65h661.48
			c5.87,0,10.65,4.78,10.65,10.65V972.8C1336.68,978.67,1331.9,983.45,1326.03,983.45z"/>
		<path class="st29" d="M798.73,554.19H669.88v10.8h128.86V554.19z"/>
		<path class="st5" d="M777.04,581.56H669.88v5.42h107.16V581.56z"/>
		<path class="st5" d="M726.54,596.2h-56.66v5.42h56.66V596.2z"/>
		<path class="st5" d="M741.87,610.85h-72v5.42h72V610.85z"/>
		<path class="st5" d="M770.67,610.85h-19.53v5.42h19.53V610.85z"/>
		<path class="st5" d="M814.32,610.85h-36.93v5.42h36.93V610.85z"/>
		<path class="st5" d="M787.15,596.2h-56.66v5.42h56.66V596.2z"/>
		<path class="st14" d="M1069.02,765.54c0,0-6.31-7.69-9.72-8.73c-3.4-1.03-9.96-6.16-10.85-4.09c-0.89,2.07,4.44,5.33,4.14,7.74
			c-0.3,2.42-16.77,6.26-16.67,8.78c0.1,2.52,3.89,8.68,10.16,7.99c6.31-0.69,22.24-4.49,25.54-2.86
			C1074.93,775.94,1069.02,765.54,1069.02,765.54z"/>
		<path class="st5" d="M1239.24,728.21c-9.32,12.53-20.22,22.39-31.46,30.23c-35.65,24.8-74.31,28.5-74.31,28.5
			c-9.27-2.96-37.73-6.07-54.54-8.78c-7.35-1.18-12.43-2.27-12.77-3.25l0.45-14.65c0,0,61.74-3.25,71.95-7.99
			c16.13-13.91,30.38-31.9,39.65-46.01c7.84-11.89,16.62-20.66,31.07-25.84C1230.17,672.93,1268.19,689.35,1239.24,728.21z"/>
		<path class="st34" d="M1210.99,749.21l-3.16,9.22c-35.65,24.8-74.32,28.5-74.32,28.5c-7.44,0-37.72-6.07-54.54-8.78
			c0.64,0.05,45.76,3.6,55.77,2.56c10.06-1.04,56.81-41.57,56.81-41.57L1210.99,749.21z"/>
		<path class="st29" d="M1189.04,882.8c0,0,3.06,38.27,6.66,84.23C1197,981,1198,994,1198,994s35-10,58,0c0,0,10.12,9,15-52
			c0.1-0.99-2.1,31.99-2,31c4.54-62.08,5.7-95.47,5.7-95.47L1189.04,882.8z"/>
		<path class="st31" d="M1187.96,869.59c0,0,4.09,51.48,7.74,97.44L1256,994c0.1-0.99,18.89-98.29,13-11
			c4.54-62.09,5.7-105.47,5.7-105.47L1187.96,869.59z"/>
		<path class="st29" d="M1314,973c-12.47-17.56,10.21-125.31-40.34-126.74c-50.54-1.43-66.13,23.33-66.13,23.33
			S1236.47,937.04,1252,983"/>
		<path class="st14" d="M1229.33,690.88c7.44,3.89,14.7,4.14,21.01,2.81c5.77-1.18,10.7-3.75,14.2-6.02
			c3.6-2.32,5.72-4.34,5.72-4.34s-0.25-0.34-0.69-1.08c-2.17-3.75-8.88-17.26-5.87-38.96c0.05-0.3-2.12,0.1-5.37,0.89
			c-9.67,2.27-29.09,7.79-29.98,8.04h-0.05c0,0-0.24,4.58-1.03,12.72c-0.05,0.74-0.15,1.48-0.2,2.27c-0.1,0.99-0.2,1.97-0.3,3.01
			C1225.88,678.8,1229.33,690.88,1229.33,690.88z"/>
		<path class="st17" d="M1227.31,664.99c14.45,3.31,35.95-18,35.95-18c-1.58-1.18-3.25-2.12-4.93-2.81
			c-9.67,2.27-29.09,7.79-29.98,8.04h-0.05C1228.29,652.22,1228.1,656.8,1227.31,664.99z"/>
		<path class="st14" d="M1222.38,651.08c0,0,5.92,2.12,13.51,3.16c11.05,1.48,25.59,0.59,30.18-12.77
			c7.69-22.54,17.51-36.05-5.13-45.22c-12.13-4.93-19.87-5.18-25.15-3.3c-4.58,1.63-7.3,4.88-9.32,8.09
			C1222.08,607.89,1213.25,647.14,1222.38,651.08z"/>
		<path class="st21" d="M1208.67,602.76c13.12,9.42,31.26,0.15,36.89,2.66c5.62,2.52,6.66,11.93,6.76,14.94
			c0.1,3.01,0.49,5.52,8.14,3.75c1.23-0.3,2.17-0.2,2.76,0.15c3.16,1.87-0.89,11-2.12,12.97c0,0-1.78,6.56,2.12,9.71
			c0.49,0.39,8.14,3.75,26.63-24.56c2.91-4.44,5.67-14.45,1.18-24.06c-4.49-9.61-23.22-18.94-39.1-23.87
			c-5.97-1.87-10.36-1.78-13.81-0.49c-5.77,2.12-8.83,7.55-11.89,13.02C1221.14,596.15,1208.67,602.76,1208.67,602.76z"/>
		<path class="st5" d="M1293.04,878.07c0,0-6.36,1.38-14.35,2.71c-7.84,1.33-17.31,2.62-24.01,2.56
			c-34.22-0.3-62.82-10.36-62.82-10.36c-6.41,0-9.37-9.96-10.41-23.87c-0.69-9.42-0.54-20.61-0.05-31.76
			c0.15-3.6,0.39-7.25,0.59-10.75c0.44-7.05,0.99-13.76,1.43-19.72c0.45-5.57,0.84-10.5,1.08-14.3c0,0-0.94-26.63-0.54-50.05
			c0.25-16.82,9.67-32.1,12.03-34.62c6.85-7.25,26.68-11.84,30.67-12.48c0.3-0.05,0.44-0.05,0.44-0.05
			c16.32,9.17,38.27-3.21,38.27-3.21c0.49,0.1,0.99,0.2,1.48,0.3c1.63-0.34,18.1,2.12,21.95,4.19c9.47,5.18,14.99,62.53,14.99,62.53
			c1.58,38.96-0.39,101.34,2.66,125.16C1307.49,872.25,1299.89,876.49,1293.04,878.07z"/>
		<path class="st34" d="M1266.76,672.54c0,0-24.31,25.05-41.67,19.92c0,0-2.32-3.4,5.52-4.49
			C1238.4,686.88,1246.83,687.38,1266.76,672.54z"/>
		<path class="st5" d="M1222.23,636.54c0,0-0.49,2.91,6.31,5.23c0,0,5.67,1.97,6.75-1.03
			C1235.25,640.78,1230.76,636.44,1222.23,636.54z"/>
		<path class="st34" d="M1280.07,767.36c0,0-35.31,59.03-55.33,69.43c-13.56,7.05-32.5,10.75-43.34,12.38
			c-0.69-9.42-0.54-20.61-0.05-31.76c14.35-1.73,36.2-4.54,36.2-4.54L1280.07,767.36z"/>
		<path class="st34" d="M1233.57,737.73l-18.84,67.9c0,0-22.14,1.38-32.84,1.03c0.44-7.05,0.44-7.25,0.94-13.22
			C1182.88,793.4,1208.32,780.14,1233.57,737.73z"/>
		<path class="st14" d="M1120.3,810.66c0,0-6.31-7.69-9.71-8.73c-3.4-1.08-9.96-6.17-10.85-4.09c-0.89,2.07,4.44,5.33,4.14,7.74
			c-0.3,2.41-16.77,6.26-16.67,8.78c0.1,2.56,3.89,8.68,10.16,7.99c6.31-0.69,22.24-4.49,25.54-2.86
			C1126.22,821.06,1120.3,810.66,1120.3,810.66z"/>
		<path class="st5" d="M1305.76,716.42c0,0,1.13,35.95-80.87,108.14l-16.47-29.49c-3.06-1.78,52.96-122.2,69.04-121.21
			C1308.67,675.69,1305.76,716.42,1305.76,716.42z"/>
		<path class="st5" d="M1218.23,791.58c0,0-93.25,10.65-96.7,12.53c-3.45,1.87-10.85,9.07-8.38,18.1c0,0,48.28,6.07,74.81,5.97
			c22.88-0.1,37.73-3.8,37.73-3.8L1218.23,791.58z"/>
		<path class="st23" d="M1135,577.22c0.2,32.55-11.24,62.43-30.38,85.71c-16.47,20.07-25.74,45.07-25.74,71.06v37.43
			c0,10.6-3.85,20.32-10.26,27.86c-7.94,9.37-19.78,15.34-32.94,15.34h-69.14c-23.77,0-43.2-19.43-43.2-43.2v-37.38
			c0-25.94-9.17-50.94-25.64-70.96c-19.03-23.13-30.48-52.76-30.48-85.06c0-63.91,44.78-117.36,104.69-130.68
			c1.68-0.39,3.4-0.74,5.13-1.04c0.94-0.15,1.83-0.35,2.76-0.49c6.95-1.13,14-1.68,21.26-1.68
			C1074.93,444.12,1134.55,503.39,1135,577.22z"/>
		<path class="st29" d="M1035.43,814.6l-0.15,1.14l-1.87,14.55l-0.49,3.85v0.05l-0.49,3.85l-1.88,14.55l-0.49,3.85v0.05l-0.49,3.85
			l-0.3,2.12c-0.94,7.4-9.42,13.02-19.48,13.02h-22.73c-2.41,0-4.68-0.34-6.85-0.89c-1.92-0.54-3.7-1.28-5.27-2.22l-0.15-0.05
			c-1.28-0.74-2.47-1.63-3.45-2.61c-2.02-2.02-3.4-4.44-3.75-7.1l-0.79-5.62l-0.49-3.55v-0.1l-0.49-3.5l-1.92-13.51l-0.49-3.55v-0.1
			l-0.49-3.5l-2.07-14.6L1035.43,814.6z"/>
		<path class="st31" d="M1026.41,814.61h-0.15h-12.72c-20.76,6.02-41.32,11.93-50.84,14.6l0.49,3.5v0.1l0.49,3.55
			c7.74-2.12,26.29-7.44,71.55-20.56l0.15-1.14L1026.41,814.61z"/>
		<path class="st31" d="M966.15,853.32v0.1l0.49,3.55c8.92-2.51,27.37-7.79,65.73-18.89l0.49-3.85v-0.05l0.49-3.85
			c-24.26,7-53.6,15.48-67.76,19.53L966.15,853.32z"/>
		<path class="st31" d="M974.68,872.3l0.15,0.05c1.58,0.94,3.36,1.68,5.28,2.22c10.5-3.01,26.14-7.55,49.36-14.25l0.49-3.85v-0.05
			l0.49-3.85c-20.76,6.02-44.53,12.87-59.27,17.11C972.21,870.67,973.4,871.56,974.68,872.3z"/>
		<path class="st20" d="M951.14,642.84l-5.98,1.01l29.01,171.3l5.98-1.01L951.14,642.84z"/>
		<path class="st20" d="M1050.34,645.41l-30.85,168.62l5.97,1.09l30.85-168.62L1050.34,645.41z"/>
		<path class="st20" d="M1017.09,674.41c-0.79,0-1.63-0.1-2.61-0.34c-1.63-0.39-2.67-1.48-2.96-3.25
			c-0.69-3.8,2.27-10.75,6.46-16.62c-2.17-3.8-5.08-6.95-8.14-7.89c-4.49-1.38-11.39,2.81-16.17,8.09c0.89,1.23,1.67,2.56,2.36,3.85
			c2.47,4.64,4.24,10.6,1.83,13.31c-0.89,1.04-2.71,1.92-6.36,0.59c-4.54-1.72-6.16-5.57-4.49-10.55c0.84-2.47,2.37-4.98,4.29-7.35
			c-3.7-4.83-8.68-8.53-13.61-7.94c-2.61,0.35-4.88,1.23-6.75,2.56c3.11,5.82,3.85,13.22,1.68,17.21c-1.48,2.71-4.09,3.55-7.3,2.41
			c-2.32-0.84-3.5-3.99-3.06-8.09c0.44-4.19,2.56-8.78,6.26-11.98c-0.99-1.53-2.12-2.86-3.5-3.9c-8.43-6.56-15.44,0.49-15.73,0.79
			l-1.33-1.28c0.1-0.1,8.43-8.48,18.15-0.94c1.48,1.13,2.76,2.61,3.8,4.24c2.07-1.43,4.54-2.42,7.45-2.76
			c5.47-0.69,11,3.2,15.04,8.33c5.23-5.67,12.67-9.86,17.85-8.28c3.3,0.99,6.36,4.14,8.73,8.04c2.22-2.86,4.64-5.33,7.05-6.9
			c3.85-2.52,6.31-1.97,7.74-1.04c1.43,0.94,2.71,2.22,3.7,3.7c1.13-0.89,2.37-1.68,3.55-2.32c4.44-2.22,8.48-2.07,11.44,0.45
			l-1.18,1.38c-3.21-2.71-7.3-1.28-9.47-0.2c-1.18,0.59-2.32,1.33-3.4,2.22c2.96,5.33,3.5,12.23,1.83,15.63
			c-1.08,2.12-2.96,2.86-5.18,2.02c-3.99-1.48-4.98-4.24-5.08-6.26c-0.2-3.94,2.51-8.38,6.06-11.69c-0.94-1.38-2.02-2.56-3.3-3.4
			c-1.73-1.14-4.04-0.1-5.72,1.03c-2.37,1.58-4.88,4.19-7.1,7.1c2.76,5.23,4.19,11.34,3.11,15.24
			C1022.71,671.55,1021.23,674.41,1017.09,674.41z M1018.92,656.02c-3.65,5.27-6.17,11.29-5.57,14.5c0.2,1.03,0.69,1.58,1.58,1.78
			c3.6,0.84,5.82-0.25,6.56-3.11C1022.32,665.83,1021.18,660.65,1018.92,656.02z M992.39,655.87c-1.68,2.07-3.01,4.29-3.7,6.36
			c-1.38,4.09-0.25,6.85,3.4,8.23c1.48,0.54,3.4,0.99,4.34-0.05c1.43-1.63,0.59-6.26-2.07-11.24
			C993.77,658.04,993.12,656.95,992.39,655.87z M969.5,650.05c-3.2,2.86-4.98,6.9-5.37,10.55c-0.35,3.11,0.44,5.67,1.87,6.17
			c2.32,0.84,4.04,0.3,5.08-1.58C972.85,661.84,972.21,655.28,969.5,650.05z M1037.11,651.23c-3.2,3.06-5.33,7-5.18,10.01
			c0.15,2.17,1.43,3.75,3.89,4.68c1.33,0.49,2.27,0.15,2.91-1.13C1040.17,661.93,1039.58,655.92,1037.11,651.23z"/>
		<path class="st5" d="M1070.2,495.6c11,10.35,9.61,29.44-4.54,33.68c-10.7,3.2-26.58-1.08-34.47-14.7
			c-7.84-13.61-4.24-24.81,5.42-30.38C1046.28,478.64,1058.76,484.85,1070.2,495.6z"/>
		<path class="st35" d="M1401.33,994H583.58c-5.77,0-10.45-4.68-10.45-10.45v-0.3c0-5.77,4.68-10.45,10.45-10.45h817.75
			c5.77,0,10.45,4.69,10.45,10.45v0.3C1411.79,989.37,1407.15,994,1401.33,994z"/>
		<path class="st36" d="M854.26,849.67H704.89v123.18h149.37V849.67z"/>
		<path class="st37" d="M928.92,849.67H779.55v123.18h149.37V849.67z"/>
		<path class="st38" d="M779.55,849.67h149.76v39.15l-149.76,84.03V849.67z"/>
		<path class="st37" d="M779.55,849.67l29.59,32.4h147.4l-27.57-32.4H779.55z"/>
		<path class="st39" d="M779.55,863.57l-31.46,31.51h-43.15v-45.42h74.61V863.57z"/>
		<path class="st37" d="M704.89,849.67l-33.63,32.4h74.76l33.53-32.4H704.89z"/>
		<path class="st40" d="M1500.42,992.36c35.48-4.65,60.48-37.18,55.82-72.67c-4.65-35.48-37.18-60.48-72.67-55.82
			c-35.48,4.65-60.48,37.18-55.82,72.67C1432.41,972.02,1464.94,997.01,1500.42,992.36z"/>
		<path class="st41" d="M1463.27,986.21c0.79,0.49,1.63,0.94,2.41,1.43c0.3,0.15,0.54,0.3,0.84,0.44c0.64,0.35,1.28,0.64,1.92,0.99
			c30.87,15.14,68.5,3.55,85.26-26.92c15.98-29.04,7.4-64.99-18.84-83.88c-2.12-1.53-4.29-2.91-6.61-4.19
			c-0.84-0.44-1.68-0.89-2.52-1.33c-0.84-0.39-1.63-0.79-2.47-1.18c-2.51-1.14-5.13-2.07-7.69-2.86c-3.89-1.18-7.79-1.97-11.74-2.37
			c-12.23-1.28-24.51,0.94-35.36,6.26c-11.54,5.67-21.55,14.79-28.21,26.92C1423.42,930.09,1433.78,968.26,1463.27,986.21z"/>
		<path class="st6" d="M1496.51,989.61c-9.47,0-19.09-2.32-27.91-7.2c-28.06-15.43-38.27-50.84-22.83-78.9
			c15.44-28.06,50.84-38.27,78.9-22.83c28.06,15.43,38.27,50.84,22.83,78.9C1536.89,978.77,1516.97,989.61,1496.51,989.61z
			 M1496.7,875.06c-19.92,0-39.3,10.55-49.56,29.19c-15.04,27.27-5.08,61.74,22.19,76.78c27.27,15.04,61.69,5.08,76.73-22.19
			l0.69,0.39l-0.69-0.39c15.04-27.27,5.08-61.74-22.19-76.78C1515.24,877.28,1505.92,875.06,1496.7,875.06z"/>
		<path class="st6" d="M1466.62,944.4c0.05,2.32,0.59,4.54,1.58,6.61c0.05,0.15,0.15,0.3,0.24,0.44c0.99,1.92,2.37,3.7,4.09,5.33
			c1.87,1.78,4.14,3.35,6.81,4.73l-3.4,8.43l7.25,2.96l3.4-8.38c2.62,0.79,5.33,1.23,7.99,1.33c2.71,0.1,5.28-0.24,7.79-1.13
			c2.47-0.84,4.73-2.27,6.86-4.29c2.07-1.97,3.8-4.68,5.18-8.09l-13.22-5.37c-0.79,2.02-1.78,3.55-2.91,4.68
			c-1.08,1.14-2.32,1.87-3.55,2.32c-1.28,0.44-2.56,0.54-3.9,0.39c-1.33-0.15-2.61-0.49-3.89-0.99c-1.43-0.59-2.62-1.28-3.55-2.07
			c-0.94-0.79-1.63-1.68-2.12-2.62c-0.44-0.94-0.69-1.92-0.69-2.96c0-1.03,0.2-2.07,0.64-3.11c0.49-1.18,1.08-2.17,1.78-2.91
			c0.69-0.79,1.58-1.38,2.66-1.78c1.03-0.44,2.32-0.69,3.75-0.84c1.43-0.15,3.16-0.15,5.13-0.05c3.4,0.15,6.56,0.15,9.47,0
			c2.91-0.15,5.52-0.64,7.84-1.43c2.32-0.79,4.39-2.02,6.17-3.6c1.78-1.63,3.2-3.8,4.34-6.61c0.99-2.41,1.43-4.78,1.38-7.1
			c-0.05-2.32-0.54-4.54-1.53-6.66c-0.99-2.12-2.41-4.09-4.24-5.87c-1.83-1.82-4.09-3.4-6.71-4.78l3.7-9.07l-7.3-2.96l-3.75,9.22
			c-2.76-0.74-5.42-0.99-7.99-0.84c-2.56,0.2-4.93,0.79-7.1,1.87c-2.17,1.08-4.14,2.56-5.87,4.54c-1.72,1.97-3.16,4.34-4.34,7.15
			l13.22,5.38c1.38-3.4,3.16-5.62,5.38-6.71c2.17-1.08,4.54-1.08,7.1-0.05c1.38,0.54,2.47,1.23,3.3,2.02
			c0.84,0.79,1.43,1.63,1.83,2.56c0.39,0.94,0.54,1.92,0.44,2.91c-0.05,1.04-0.3,2.07-0.74,3.11c-0.45,1.03-0.94,1.92-1.63,2.66
			c-0.64,0.74-1.48,1.28-2.51,1.72c-1.04,0.39-2.32,0.69-3.8,0.84c-1.48,0.15-3.3,0.15-5.37,0.1c-3.4-0.1-6.56-0.05-9.42,0.15
			c-2.91,0.2-5.52,0.69-7.84,1.48c-2.37,0.79-4.39,2.02-6.21,3.65c-1.58,1.43-2.86,3.31-3.95,5.62c-0.15,0.3-0.3,0.59-0.39,0.94
			C1467.02,939.66,1466.57,942.08,1466.62,944.4z"/>
		<path class="st42" d="M1545.13,702.71c-0.2-0.79,17.26,7.89,18.15,8.88c8.19,9.07,5.87,20.91,1.18,21.05
			c-3.01,0.1-2.42,5.08-2.42,5.08l-33.48-14.15C1528.56,723.52,1532.55,700.05,1545.13,702.71z"/>
		<path class="st42" d="M1540.99,704.54c0,0-1.18-13.02,13.36-13.02c0,0-4.39,1.18-6.71,3.6c0,0,9.27-5.47,19.43,2.91
			c10.16,8.38,3.85,29.39,6.9,33.38c3.06,4,15.04,4.78,13.61,17.7c-1.48,12.92-38.02,29.09-35.65,39.75c0,0-14.3-21.06-4.09-30.67
			c0,0-4.98,4.68-5.47,10.3c0,0-1.38-10.9,5.57-14.4c6.17-3.11,11.2-14.4,10.65-16.42C1558.05,735.71,1540.99,704.54,1540.99,704.54
			z"/>
		<path class="st43" d="M1554.25,765.89c2.27-10.8,16.27-14.15,22.93-5.33c1.18,1.58,2.02,3.45,2.32,5.67
			c1.53,12.28-18.14,62.28-20.91,66.82c-5.13,8.23-35.26,36.49-35.26,36.49l-5.57-3.35c0,0,21.4-36.2,24.7-39.6
			C1546.21,822.74,1549.96,786.45,1554.25,765.89z"/>
		<path class="st43" d="M1525.35,866.23c0,0-8.09-5.33-11.2-4.98c-3.06,0.34-11.93,2.91-12.08,4.19c-0.15,1.28,9.91,2.12,10.56,2.86
			c0.64,0.74,7.44,5.28,9.91,3.85C1525.11,870.72,1525.35,866.23,1525.35,866.23z"/>
		<path class="st29" d="M1581.91,986.51l7.25-1.08c0,0,24.36-19.38,28.01-55.47c0.39-3.65,0.45-7.4,0.2-11.14
			c-0.05-0.45,0-0.89,0.25-1.23c0.79-1.18,2.71-4.19,5.33-8.43c2.61-4.19,7-12.13,11.88-21.01c8.78-16.03,18.99-35.21,22.54-41.32
			c11.19-19.48,5.77-32.55,5.77-32.55s-31.17-3.11-39.69-10.55l-3.06,4.73c0,0-6.76,29.88-6.46,30.03
			c-0.34,1.04-0.69,2.07-1.03,3.11c-5.33,16.47-11.44,37.03-14.79,53.75c-1.87,9.42-2.86,17.65-2.32,23.22
			c0.2,1.92-0.05,4.88-0.54,8.53C1592.17,948.54,1581.91,986.51,1581.91,986.51z"/>
		<path class="st31" d="M1566.73,995.68h30.23c0,0,0.74-4.58-0.84-8.09c-1.53-3.35-3.65-3.45-0.3-8.73
			c-1.92,1.97-8.09,2.81-12.47,2.22c-0.54,0.89-3.45,6.71-5.23,7.99C1576.15,990.45,1567.37,989.96,1566.73,995.68z"/>
		<path class="st31" d="M1612.88,841.58c2.66,14.55,8.88,38.81,21.95,46.5c8.78-16.03,18.98-35.21,22.53-41.32
			c11.2-19.48,5.77-32.55,5.77-32.55s-31.17-3.11-39.7-10.55l-3.06,4.73c0,0-6.75,29.88-6.46,30.03
			C1613.57,839.51,1613.23,840.54,1612.88,841.58z"/>
		<path class="st44" d="M1557.46,759.18c0,0-4.29,4.44-6.21,9.76c0,0,6.81,19.58,22.73,22.04
			C1573.98,790.98,1561.4,759.18,1557.46,759.18z"/>
		<path class="st29" d="M1634.09,816.53l-0.1-5.67c11.24,1.43,38.81-13.46,38.81-13.46s11.78,7.84,13.41,30.23
			c0.79,10.95,5.77,57.1,6.31,70.91c0.2,4.98,0.24,8.58,0.29,10.01c0,0.44,0.2,0.84,0.49,1.18c2.32,2.96,4.34,6.11,6.12,9.37
			c17.21,31.95,8.18,75.4,8.18,75.4l-3.99-1.03c0,0-14.55-45.02-24.02-64.5c-1.63-3.31-3.06-5.87-4.29-7.35
			c-3.55-4.34-7.35-11.69-11.05-20.56c-7-16.77-13.81-38.86-18.69-55.97C1645.18,845.08,1634.09,816.53,1634.09,816.53z"/>
		<path class="st14" d="M1568.21,778.8c18.4-4.24,6.66-30.08,5.57-29.64c-2.56-0.54-8.14-4.98-13.17-13.76l-0.69,0.59l-11.29,9.91
			c0,0,2.61,3.85,4.83,7.64c1.72,2.96,3.16,5.87,2.96,6.86C1555.48,761.1,1563.27,779.89,1568.21,778.8z"/>
		<path class="st43" d="M1548.63,745.91c0,0,2.61,3.85,4.83,7.64c7.05-4.34,7.05-13.02,6.51-17.56L1548.63,745.91z"/>
		<path class="st14" d="M1548.28,750.89c0,0,17.06-9.52,11-20.02c-6.06-10.5-7.99-18.89-19.13-13.26
			c-11.14,5.62-10.95,10.85-9.76,14.84C1531.56,736.44,1543.7,753.06,1548.28,750.89z"/>
		<path class="st42" d="M1527.52,726.29c0.79-4.68,3.16-5.13,4.83-4.83c6.31-10.4,16.62-6.36,16.62-6.36
			c5.52,6.9,13.46,8.09,13.46,8.09s-1.97,3.7-10.16,5.97c-2.51,0.69-5.33,0.3-8.04-0.64c5.67,3.16,11.59,4.34,11.59,4.34
			c-10.75,0.99-21.01-8.83-22.04-9.91c-0.49,1.53-1.38,4.73-0.84,7.05c0.69,3.16,3.5,8.92,1.83,9.67
			C1534.72,739.7,1526.34,733.34,1527.52,726.29z"/>
		<path class="st31" d="M1683.55,995.68h30.23c0,0,0.74-4.59-0.84-8.09c-1.53-3.35-3.89-4.88-3.3-8.93
			c-1.92,1.97-5.03,4.19-9.42,3.6c-0.54,0.89-3.45,5.52-5.23,6.81C1692.97,990.45,1684.19,989.96,1683.55,995.68z"/>
		<path class="st20" d="M1566.04,799.32c3.89,1.38,9.32,2.12,14.94,2.71c7.94,0.89,16.17,1.48,20.47,3.16
			c1.58,0.64,2.61,1.38,2.96,2.37c1.87,5.62,10.06,14.25,10.06,14.25c52.61-2.42,58.39-24.41,58.39-24.41
			c-35.41-41.17-95.37-53.11-95.37-53.11s-4.29-1.83-15.09,6.75c-7.2,5.72-6.26,7.94-6.26,7.94S1554.6,795.32,1566.04,799.32z"/>
		<path class="st44" d="M1580.93,801.98c7.94,0.89,16.17,1.48,20.46,3.16c1.78-26.23-10.65-46.01-10.65-46.01
			S1582.7,792.07,1580.93,801.98z"/>
		<path class="st14" d="M1572.79,754.1c0,0,19.92,1.97,21.5,14.89c1.58,12.92-19.08,65.63-22.04,70.42
			c-5.38,8.68-37.18,38.46-37.18,38.46l-5.87-3.55c0,0,22.54-38.12,26.04-41.72C1560.71,827.03,1566.04,758.58,1572.79,754.1z"/>
		<path class="st20" d="M1593.7,776.78c-0.05,0.3-18.39,5.97-30.18,0c0,0-2.51-27.22,11.54-25.74c14.1,1.48,22.44,5.92,22.78,12.67
			C1598.19,770.47,1593.7,776.78,1593.7,776.78z"/>
		<path class="st14" d="M1536.89,874.13c0,0-7.15-6.56-10.21-6.71c-3.1-0.15-12.28,0.94-12.57,2.22s9.42,3.7,9.96,4.49
			c0.54,0.84,6.51,6.36,9.17,5.37C1535.91,878.51,1536.89,874.13,1536.89,874.13z"/>
		<path class="st45" d="M1421.94,488.6h-286.95l2.02-72.05h286.95L1421.94,488.6z"/>
		<path class="st4" d="M1404.93,440.92l-0.24,8.63c-0.1,3.8-3.31,6.9-7.1,6.9h-237.74c-3.8,0-6.81-3.11-6.71-6.9l0.25-8.63
			c0.1-3.8,3.3-6.9,7.1-6.9h237.73C1402.02,434.01,1405.03,437.12,1404.93,440.92z"/>
		<path class="st46" d="M1356.75,442.69h-3.65l0.05-1.13h5.08l-0.05,0.99l-3.45,6.31h-1.43L1356.75,442.69z"/>
		<path class="st46" d="M1359.02,445.21c0.05-2.07,1.38-3.75,3.25-3.75c1.92,0,3.11,1.68,3.06,3.75c-0.05,2.07-1.38,3.75-3.25,3.75
			C1360.15,448.95,1358.92,447.33,1359.02,445.21z M1364,445.21c0.05-1.43-0.64-2.61-1.78-2.61c-1.13,0-1.87,1.13-1.92,2.61
			c-0.05,1.43,0.64,2.61,1.78,2.61C1363.21,447.82,1363.95,446.68,1364,445.21z"/>
		<path class="st46" d="M1366.47,443.38c0.05-0.99,0.74-1.87,1.78-1.87c1.04,0,1.68,0.84,1.63,1.87c-0.05,0.99-0.74,1.87-1.78,1.87
			C1367.11,445.21,1366.47,444.37,1366.47,443.38z M1372.58,441.61h1.04l-5.52,7.25h-1.04L1372.58,441.61z M1368.98,443.38
			c0-0.59-0.3-1.04-0.79-1.04c-0.49,0-0.79,0.49-0.79,1.04c0,0.59,0.3,1.04,0.79,1.04C1368.64,444.42,1368.93,443.92,1368.98,443.38
			z M1370.76,447.08c0.05-0.99,0.74-1.87,1.78-1.87c1.03,0,1.68,0.84,1.63,1.87c-0.05,0.99-0.74,1.87-1.78,1.87
			C1371.4,448.95,1370.71,448.07,1370.76,447.08z M1373.22,447.08c0-0.59-0.3-1.04-0.79-1.04s-0.79,0.49-0.79,1.04
			c0,0.59,0.3,1.04,0.79,1.04S1373.22,447.67,1373.22,447.08z"/>
		<path class="st20" d="M1321.25,434.01l-0.64,22.39h-160.76c-3.16,0-5.77-2.17-6.51-5.08c-0.15-0.59-0.2-1.18-0.2-1.82l0.25-8.63
			c0.1-3.8,3.3-6.9,7.1-6.9L1321.25,434.01z"/>
		<path class="st44" d="M1188.94,434.01l-14.25,22.39h-14.84c-3.16,0-5.77-2.17-6.51-5.08l11.05-17.36h24.56V434.01z"/>
		<path class="st44" d="M1231.01,434.01l-14.25,22.39h-24.51l14.2-22.39H1231.01z"/>
		<path class="st44" d="M1273.12,434.01l-14.25,22.39h-24.56l14.25-22.39H1273.12z"/>
		<path class="st44" d="M1315.18,434.01l-14.25,22.39h-24.56l14.25-22.39H1315.18z"/>
		<path class="st4" d="M1199.05,469.66h-42.95l0.1-2.96h42.95L1199.05,469.66z"/>
		<path class="st4" d="M1187.07,477.95h-31.21l0.1-2.96h31.21L1187.07,477.95z"/>
		<path class="st4" d="M1207.63,477.95h-18.64l0.1-2.96h18.64L1207.63,477.95z"/>
		<path class="st4" d="M1239.34,477.95h-28.45l0.05-2.96h28.5L1239.34,477.95z"/>
		<path class="st4" d="M1215.27,469.66h-13.02l0.1-2.96h13.02L1215.27,469.66z"/>
		<path class="st4" d="M1267,469.66h-47.29l0.1-2.96h47.29L1267,469.66z"/>
		<path class="st40" d="M675.89,786.3c26.56-6.26,43.01-32.87,36.75-59.43c-6.26-26.56-32.87-43.02-59.43-36.75
			c-26.56,6.26-43.02,32.87-36.75,59.43C622.72,776.11,649.33,792.57,675.89,786.3z"/>
		<path class="st41" d="M711.55,764.16c13.16-23.91,4.49-53.95-19.43-67.11c-23.92-13.17-53.95-4.49-67.12,19.43
			c-13.16,23.91-4.49,53.95,19.43,67.11C668.35,796.76,698.38,788.08,711.55,764.16z"/>
		<path class="st6" d="M667.96,785.07c-7.25,0-14.55-1.78-21.3-5.47c-10.36-5.72-17.85-15.09-21.15-26.48
			c-3.31-11.39-1.97-23.32,3.75-33.68c5.72-10.36,15.09-17.85,26.48-21.16c11.39-3.3,23.33-1.97,33.68,3.75
			c21.4,11.79,29.19,38.76,17.41,60.16C698.73,776.83,683.54,785.07,667.96,785.07z M668.06,697.74c-4.04,0-8.04,0.59-12.03,1.72
			c-11.05,3.21-20.22,10.51-25.74,20.61c-5.52,10.11-6.85,21.7-3.65,32.79c3.21,11.05,10.51,20.22,20.61,25.74
			c6.56,3.6,13.71,5.33,20.71,5.33c15.19,0,29.98-8.04,37.82-22.29c5.57-10.06,6.85-21.7,3.65-32.79
			c-3.21-11.05-10.51-20.22-20.61-25.74C682.36,699.51,675.25,697.74,668.06,697.74z"/>
		<path class="st6" d="M677.62,749.27c-0.39-0.89-0.84-1.63-1.38-2.22c-0.54-0.59-1.23-1.04-2.02-1.38
			c-0.79-0.35-1.78-0.54-2.86-0.64c-1.14-0.1-2.42-0.1-3.95-0.05c-2.62,0.15-5.03,0.15-7.2,0c-2.17-0.15-4.19-0.49-6.02-1.08
			c-1.83-0.59-3.35-1.53-4.73-2.76c-1.33-1.23-2.47-2.91-3.31-5.03c-0.74-1.83-1.08-3.65-1.08-5.42c0.05-1.78,0.45-3.45,1.18-5.08
			c0.74-1.63,1.83-3.11,3.21-4.49c1.38-1.38,3.11-2.62,5.13-3.65l-2.81-6.9l5.57-2.27l2.86,7c2.12-0.54,4.14-0.74,6.06-0.64
			c1.92,0.1,3.75,0.59,5.42,1.43c1.63,0.84,3.16,1.97,4.44,3.45c1.28,1.48,2.42,3.3,3.31,5.47l-10.06,4.09
			c-1.04-2.62-2.42-4.29-4.09-5.13c-1.68-0.84-3.45-0.84-5.37-0.05c-1.04,0.45-1.87,0.94-2.52,1.53c-0.64,0.59-1.08,1.23-1.38,1.97
			c-0.3,0.69-0.39,1.43-0.34,2.22c0.05,0.79,0.24,1.58,0.54,2.37c0.35,0.79,0.74,1.48,1.23,2.02c0.49,0.54,1.13,0.99,1.92,1.33
			c0.79,0.35,1.78,0.54,2.91,0.64c1.13,0.1,2.51,0.15,4.09,0.1c2.62-0.1,4.98-0.05,7.2,0.1c2.22,0.15,4.19,0.49,6.02,1.13
			c1.78,0.64,3.35,1.53,4.73,2.76c1.33,1.23,2.47,2.91,3.31,4.98c0.79,1.87,1.13,3.75,1.08,5.52c-0.05,1.78-0.45,3.45-1.23,5.08
			c-0.74,1.58-1.87,3.06-3.3,4.44c-1.43,1.38-3.16,2.56-5.18,3.6l2.62,6.46l-5.52,2.27l-2.62-6.41c-2.02,0.59-4.04,0.94-6.11,0.99
			c-2.07,0.1-4.04-0.2-5.92-0.84c-1.87-0.64-3.6-1.73-5.23-3.25c-1.58-1.53-2.91-3.55-3.94-6.17l10.06-4.09
			c0.64,1.53,1.38,2.71,2.22,3.55c0.84,0.84,1.72,1.43,2.71,1.78c0.99,0.34,1.97,0.44,2.96,0.3c1.04-0.15,2.02-0.39,2.96-0.79
			c1.08-0.45,1.97-0.99,2.71-1.58c0.74-0.59,1.23-1.28,1.58-2.02c0.34-0.74,0.54-1.48,0.54-2.27
			C678.11,750.84,677.97,750.05,677.62,749.27z"/>
		<path class="st14" d="M619.14,711.64c2.07-1.48,6.76-4.69,7-3.95c0.2,0.49-0.1,1.38-0.64,2.32c2.86-1.08,5.72-1.78,12.53-0.44
			c1.38,0.24,2.61,1.03,3.35,2.22c0.69,1.08,0.94,2.42-0.79,3.5c-3.45,2.17-2.47,0.89-7.3,3.99c-4.83,3.16-10.75,3.95-14.3,1.73
			l-4.73-0.79l-0.59-7.79C613.67,712.43,616.38,712.08,619.14,711.64z"/>
		<path class="st14" d="M494.87,646.2c0,0,11.19,13.26,25.4,7.69c0,0,3.06-7.4,3.11-12.87c0-0.69,0-1.33,0-1.92
			c0.1-6.17,0.3-9.62,0.3-9.62c-0.64-0.25-21.75-8.92-21.75-8.23C502.32,637.92,494.87,646.2,494.87,646.2z"/>
		<path class="st17" d="M504.09,625.29c2.02,3.8,9.02,11.14,19.33,13.86c0.1-6.17,0.3-9.62,0.3-9.62
			C523.13,629.39,503.45,624.16,504.09,625.29z"/>
		<path class="st14" d="M528.11,628.9c0,0-23.72,5.57-26.97-9.27c-3.25-14.84-8.48-24.12,6.51-28.31
			c15.04-4.19,19.23,0.84,21.5,5.52C531.46,601.53,534.22,627.07,528.11,628.9z"/>
		<path class="st16" d="M501.97,623.67c-0.35,0.2-5.42,1.78-15.09-17.51c-1.53-3.01-2.56-9.57,0.99-15.34
			c3.55-5.77,16.08-10.36,26.53-12.33c10.45-1.97,12.92,3.9,15.39,9.76c2.56,6.17,10.01,11.29,10.01,11.29
			c-8.98,5.03-19.82-2.17-23.57-0.99s-5.08,7.1-5.38,8.97c-0.3,1.87-0.74,3.45-5.42,1.78c-4.73-1.68-2.12,6.71-1.38,8.28
			C504.04,617.7,504.68,621.94,501.97,623.67z"/>
		<path class="st42" d="M440.82,993.71h-14.35c-3.01,0-6.36-3.01-7.2-8.53s-7.05-8.53-8.38-13.07s5.52-10.9,5.52-10.9l1.13-1.48
			l1.18-1.53l11.39,2.66c0,0,0.3,2.71,0.44,6.16c0.15,2.52,0.2,5.38,0.05,7.89c-0.35,6.02,1.68,12.53,7.05,13.71
			C443.04,989.81,440.82,993.71,440.82,993.71z"/>
		<path class="st42" d="M540.88,993.71h-38.12c-0.35-0.05-0.64-0.15-0.79-0.25c-2.56-1.28-1.73-11-1.43-14
			c0.05-0.54,0.1-0.89,0.1-0.89s13.41-10.7,15.24-2.51c0.05,0.24,0.15,0.49,0.2,0.74c2.32,7.69,12.72,11.14,18.74,12.13
			C539.4,989.67,540.58,992.38,540.88,993.71z"/>
		<path class="st29" d="M533.19,773.97c0,0-2.02,25.39-4.44,55.92c-3.25,41.47-7.15,92.36-7.54,102.03
			c-0.64,16.77-3.35,43.54-3.35,43.54s-6.36,6.36-19.08,3.7c0,0-11.34-38.27-14.6-78.7c-0.05-0.64-0.1-1.33-0.15-2.02
			c-3.01-41.23-7.69-127.97-7.69-127.97L533.19,773.97z"/>
		<path class="st31" d="M533.19,773.97c0,0-2.02,25.39-4.44,55.92l-44.58,70.52c-0.05-0.64-0.1-1.33-0.15-2.02
			c-3.01-41.23-7.69-127.96-7.69-127.96L533.19,773.97z"/>
		<path class="st29" d="M523.92,776.98c0,0-36.69,91.92-60.8,135.17c-24.11,43.2-31.66,55.28-31.66,55.28s-13.81-5.52-15.09-9.27
			c0,0,9.22-83.44,25.4-103.75c9.12-11.49,19.82-45.96,20.37-58.04c0.49-12.03,3.25-35.9,3.25-35.9L523.92,776.98z"/>
		<path class="st14" d="M440.23,760.26l-0.39,5.92c0,0,3.9,10.51-7.05,15.88c0,0-4.68,1.87-4.88-1.78c-0.2-3.65,0.39-2.27,0.05-7.4
			c-0.39-5.13,1.63-9.96,5.03-11.59l2.76-3.21L440.23,760.26z"/>
		<path class="st44" d="M435.99,764.55c4.04,1.28,4.68,1.04,4.68,1.04s19.77-35.95,21.75-39.25c1.97-3.31,41.96-40.34,41.96-40.34
			l-10.26-38.27c0,0-45.42,58.83-50.35,67.26c-8.09,13.95-12.87,46.35-12.87,46.35S432.79,763.57,435.99,764.55z"/>
		<path class="st20" d="M540.93,700.99c-0.15,7.84-0.59,16.72-1.23,25.69c-0.05,0.54-0.1,1.08-0.1,1.58
			c-0.39,5.57-0.84,11.14-1.33,16.57c-0.2,2.17-0.39,4.34-0.64,6.46l-0.05,0.3c0,0.79-0.1,1.63-0.2,2.41
			c-2.02,20.37-4.09,36.44-4.49,36.69c-0.44,0.3-0.99,0.45-1.58,0.39c-5.33-0.69-21.25,0.54-34.32-2.32
			c-11-2.32-20.46-6.71-30.52-12.67c-1.33-0.79-4.39-2.86-4.14-4.44c0.25-1.72,0.69-4.19,1.28-7.3c1.97-10.85,5.38-29.44,6.56-51.23
			c0.25-4.04,0.54-8.09,0.99-12.03c1.13-10.26,2.91-20.02,5.33-28.7c4.49-16.13,11.05-28.45,19.28-33.24
			c1.08-0.59,6.85,3.11,12.18,6.51c4.93,3.16,10.11,4.04,15.14,3.6l4.44,4.88c5.38,6.26,11.1,14.55,12.62,26.33
			c0.1,0.89,0.2,1.82,0.3,2.76C540.93,688.12,541.08,694.19,540.93,700.99z"/>
		<path class="st44" d="M540.93,700.99c-0.15,7.84-0.59,16.72-1.23,25.69c-0.05,0.54-0.1,1.08-0.1,1.58
			c-30.48-19.09-35.21-54-35.21-54c14.99,0.64,26.92,4.09,36.1,9.03C540.93,688.12,541.08,694.18,540.93,700.99z"/>
		<path class="st20" d="M618,716.03c0.3-4.54-2.02-5.28-2.02-5.28s-46.01-8.33-49.9-9.57c-3.9-1.23-37.33-36-37.33-36
			s-12.82-14.45-23.32-11.24c-9.12,2.76-12.67,9.86-13.91,16.67c-1.43,8.09,2.27,16.17,9.27,20.47
			c15.68,9.61,47.09,28.6,54.49,30.77c16.47,4.83,60.7,0.39,60.7,0.39S617.76,719.58,618,716.03z"/>
		<path class="st40" d="M919.4,972.36c30.42,0,55.08-24.66,55.08-55.08s-24.66-55.08-55.08-55.08c-30.42,0-55.08,24.66-55.08,55.08
			S888.98,972.36,919.4,972.36z"/>
		<path class="st41" d="M914.52,972.41c30.42,0,55.08-24.66,55.08-55.08s-24.66-55.08-55.08-55.08s-55.08,24.66-55.08,55.08
			S884.1,972.41,914.52,972.41z"/>
		<path class="st6" d="M914.57,968.11c-13.41,0-26.04-5.23-35.51-14.7c-9.47-9.47-14.7-22.09-14.7-35.5
			c0-13.41,5.23-26.04,14.7-35.51c9.47-9.47,22.09-14.7,35.51-14.7c13.41,0,26.04,5.23,35.5,14.7c9.47,9.47,14.7,22.09,14.7,35.51
			c0,13.41-5.23,26.04-14.7,35.5C940.56,962.89,927.98,968.11,914.57,968.11z M914.57,870.72c-26.04,0-47.19,21.15-47.19,47.19
			c0,26.04,21.16,47.19,47.19,47.19c26.04,0,47.19-21.16,47.19-47.19C961.76,891.93,940.56,870.72,914.57,870.72z"/>
		<path class="st6" d="M921.47,932.51c0.15-1.08,0.1-2.07-0.1-2.91c-0.2-0.89-0.64-1.68-1.23-2.42c-0.59-0.74-1.43-1.48-2.47-2.17
			c-1.04-0.69-2.32-1.43-3.8-2.12c-2.61-1.28-4.98-2.56-7.05-3.9c-2.07-1.33-3.85-2.76-5.28-4.29c-1.43-1.58-2.47-3.31-3.11-5.23
			c-0.64-1.92-0.84-4.14-0.54-6.71c0.25-2.17,0.89-4.14,1.87-5.87c0.99-1.72,2.27-3.16,3.9-4.34c1.63-1.18,3.45-2.07,5.57-2.66
			c2.12-0.59,4.44-0.89,6.95-0.79l0.99-8.28l6.66,0.79l-0.99,8.38c2.37,0.59,4.44,1.48,6.26,2.66c1.82,1.18,3.35,2.62,4.54,4.29
			c1.18,1.68,2.02,3.6,2.52,5.77c0.49,2.17,0.59,4.54,0.3,7.1l-12.04-1.43c0.35-3.11-0.05-5.48-1.23-7.2
			c-1.18-1.73-2.96-2.66-5.23-2.96c-1.23-0.15-2.37-0.1-3.31,0.15c-0.94,0.25-1.72,0.64-2.41,1.18c-0.64,0.54-1.18,1.18-1.53,1.97
			c-0.39,0.79-0.64,1.68-0.74,2.62c-0.1,0.94-0.1,1.82,0.1,2.61s0.59,1.58,1.18,2.32c0.59,0.74,1.43,1.48,2.47,2.17
			c1.03,0.69,2.37,1.48,3.99,2.32c2.56,1.33,4.88,2.66,7,3.95c2.12,1.28,3.85,2.76,5.23,4.34c1.43,1.58,2.47,3.31,3.11,5.28
			c0.64,1.92,0.84,4.14,0.54,6.66c-0.3,2.27-0.89,4.24-1.92,5.97c-1.04,1.72-2.32,3.16-3.9,4.29c-1.58,1.14-3.45,1.97-5.57,2.56
			c-2.12,0.54-4.49,0.79-7,0.74l-0.89,7.69l-6.61-0.79l0.89-7.65c-2.27-0.49-4.44-1.28-6.51-2.32c-2.07-1.04-3.85-2.37-5.33-4.04
			c-1.48-1.63-2.62-3.65-3.35-5.97c-0.74-2.32-0.94-5.03-0.54-8.14l12.03,1.43c-0.2,1.83-0.15,3.4,0.25,4.69
			c0.39,1.28,0.94,2.37,1.72,3.2c0.79,0.84,1.68,1.48,2.76,1.87c1.08,0.45,2.17,0.69,3.31,0.84c1.28,0.15,2.47,0.15,3.5-0.1
			c1.04-0.25,1.92-0.59,2.66-1.08c0.74-0.49,1.33-1.14,1.78-1.92C921.08,934.34,921.32,933.45,921.47,932.51z"/>
		<path class="st5" d="M810.47,832.8c11.28,0,20.42-9.14,20.42-20.42c0-11.28-9.14-20.42-20.42-20.42
			c-11.28,0-20.42,9.14-20.42,20.42C790.05,823.66,799.19,832.8,810.47,832.8z"/>
		<path class="st4" d="M812.94,817.22c0-0.39-0.05-0.79-0.15-1.08c-0.1-0.3-0.3-0.59-0.59-0.89c-0.3-0.3-0.59-0.49-1.03-0.74
			c-0.45-0.25-0.94-0.45-1.53-0.64c-1.03-0.39-1.97-0.79-2.86-1.18c-0.84-0.39-1.58-0.89-2.17-1.43c-0.59-0.54-1.08-1.14-1.38-1.87
			c-0.34-0.69-0.49-1.58-0.44-2.52c0-0.84,0.15-1.63,0.49-2.32c0.34-0.69,0.74-1.28,1.33-1.83c0.54-0.49,1.23-0.94,2.02-1.23
			c0.79-0.3,1.63-0.49,2.61-0.59l0.05-3.21l2.56,0.05L811.8,801c0.94,0.15,1.78,0.39,2.52,0.79c0.74,0.39,1.38,0.89,1.87,1.48
			c0.54,0.59,0.89,1.28,1.18,2.12c0.3,0.84,0.39,1.73,0.39,2.71l-4.64-0.05c0-1.18-0.25-2.07-0.74-2.66
			c-0.54-0.59-1.23-0.89-2.12-0.94c-0.49,0-0.89,0.05-1.23,0.2c-0.34,0.15-0.64,0.3-0.89,0.54c-0.24,0.25-0.39,0.49-0.49,0.84
			c-0.1,0.3-0.15,0.64-0.2,1.03c0,0.39,0.05,0.69,0.15,0.99c0.1,0.3,0.3,0.59,0.54,0.84c0.25,0.24,0.59,0.49,1.04,0.74
			c0.44,0.25,0.99,0.45,1.63,0.69c1.04,0.39,1.97,0.84,2.81,1.23c0.84,0.39,1.58,0.89,2.17,1.43c0.59,0.54,1.08,1.18,1.38,1.87
			c0.34,0.69,0.49,1.53,0.44,2.52c0,0.89-0.2,1.68-0.49,2.37c-0.3,0.69-0.74,1.28-1.33,1.78c-0.59,0.49-1.23,0.89-2.02,1.18
			s-1.68,0.49-2.61,0.54l-0.05,2.96l-2.56-0.05l0.05-2.96c-0.89-0.1-1.73-0.3-2.56-0.64c-0.84-0.3-1.58-0.74-2.17-1.33
			c-0.64-0.59-1.14-1.28-1.53-2.17c-0.39-0.89-0.54-1.87-0.54-3.11l4.64,0.05c0,0.69,0.1,1.28,0.3,1.78
			c0.2,0.49,0.44,0.84,0.79,1.13c0.34,0.3,0.69,0.49,1.13,0.59c0.39,0.15,0.84,0.2,1.28,0.2c0.49,0,0.94-0.05,1.33-0.15
			c0.39-0.1,0.69-0.3,0.94-0.54c0.25-0.24,0.45-0.49,0.59-0.79C812.84,817.91,812.88,817.57,812.94,817.22z"/>
		<path class="st5" d="M819,754.35c0-16.23,13.16-29.39,29.39-29.39c16.22,0,29.39,13.16,29.39,29.39
			c0,16.22-13.17,29.39-29.39,29.39C832.17,783.78,819,770.62,819,754.35z"/>
		<path class="st4" d="M851.89,761.35c0-0.59-0.05-1.14-0.24-1.58c-0.2-0.45-0.45-0.89-0.84-1.28c-0.39-0.39-0.89-0.74-1.48-1.04
			c-0.59-0.34-1.33-0.64-2.22-0.94c-1.53-0.54-2.86-1.14-4.09-1.73c-1.23-0.59-2.27-1.28-3.16-2.07s-1.53-1.68-2.02-2.71
			c-0.49-1.04-0.69-2.22-0.69-3.65c0-1.23,0.24-2.32,0.69-3.31c0.44-0.99,1.08-1.87,1.87-2.61c0.84-0.74,1.78-1.33,2.91-1.78
			c1.14-0.45,2.37-0.74,3.8-0.84l0.05-4.58l3.7,0.05l-0.05,4.64c1.33,0.2,2.52,0.54,3.6,1.08c1.08,0.54,1.97,1.23,2.71,2.12
			c0.74,0.84,1.33,1.87,1.68,3.01c0.39,1.14,0.59,2.47,0.54,3.9l-6.71-0.1c0.05-1.73-0.35-3.01-1.08-3.85
			c-0.74-0.84-1.78-1.33-3.06-1.33c-0.69,0-1.28,0.1-1.78,0.25c-0.49,0.15-0.94,0.44-1.23,0.79c-0.34,0.34-0.59,0.74-0.74,1.18
			c-0.15,0.44-0.25,0.94-0.25,1.48c0,0.54,0.05,1.03,0.2,1.43c0.15,0.39,0.39,0.84,0.79,1.18c0.39,0.35,0.89,0.74,1.48,1.04
			s1.38,0.69,2.32,1.03c1.48,0.59,2.86,1.18,4.04,1.78c1.18,0.59,2.27,1.28,3.11,2.07c0.84,0.79,1.53,1.68,2.02,2.71
			c0.44,1.03,0.69,2.22,0.69,3.6c0,1.28-0.25,2.37-0.69,3.4c-0.45,0.99-1.08,1.87-1.87,2.56c-0.84,0.74-1.78,1.28-2.91,1.72
			c-1.13,0.45-2.41,0.69-3.8,0.79l-0.05,4.29l-3.7-0.05l0.05-4.24c-1.28-0.15-2.51-0.44-3.7-0.89c-1.18-0.44-2.22-1.08-3.16-1.92
			c-0.94-0.84-1.63-1.87-2.17-3.11c-0.54-1.23-0.79-2.71-0.79-4.44l6.71,0.1c0,1.04,0.1,1.87,0.39,2.56
			c0.3,0.69,0.64,1.23,1.13,1.63c0.49,0.39,1.04,0.69,1.63,0.89c0.59,0.15,1.23,0.24,1.87,0.3c0.74,0,1.38-0.1,1.92-0.25
			c0.54-0.15,1.04-0.44,1.38-0.74c0.35-0.3,0.64-0.69,0.84-1.14C851.79,762.38,851.89,761.89,851.89,761.35z"/>
		<path class="st5" d="M788.53,734.52c22.19,0,40.19-17.99,40.19-40.19c0-22.2-17.99-40.19-40.19-40.19
			c-22.2,0-40.19,17.99-40.19,40.19C748.34,716.53,766.33,734.52,788.53,734.52z"/>
		<path class="st4" d="M793.31,703.85c0-0.84-0.1-1.53-0.3-2.17c-0.2-0.64-0.59-1.18-1.14-1.72c-0.54-0.54-1.18-0.99-2.02-1.43
			c-0.84-0.44-1.83-0.89-3.06-1.33c-2.07-0.74-3.9-1.53-5.57-2.37c-1.68-0.84-3.11-1.78-4.29-2.81c-1.18-1.03-2.12-2.27-2.76-3.7
			c-0.64-1.38-0.94-3.06-0.94-4.98c0.05-1.68,0.35-3.16,0.94-4.54c0.59-1.38,1.48-2.56,2.56-3.55c1.08-0.99,2.41-1.82,3.99-2.41
			c1.53-0.59,3.25-0.99,5.13-1.14l0.1-6.26l5.08,0.1l-0.1,6.36c1.82,0.25,3.45,0.74,4.93,1.53c1.48,0.79,2.71,1.72,3.75,2.86
			c1.03,1.18,1.78,2.56,2.32,4.14c0.54,1.58,0.79,3.35,0.74,5.33l-9.12-0.15c0.05-2.37-0.44-4.09-1.48-5.27
			c-1.03-1.18-2.41-1.78-4.14-1.83c-0.94,0-1.78,0.1-2.47,0.35c-0.69,0.24-1.28,0.59-1.72,1.08c-0.45,0.44-0.79,0.99-0.99,1.63
			c-0.2,0.64-0.35,1.28-0.35,2.02c0,0.74,0.1,1.38,0.3,1.97s0.54,1.13,1.08,1.63c0.54,0.49,1.18,0.99,2.02,1.43
			c0.84,0.44,1.87,0.94,3.16,1.43c2.02,0.79,3.89,1.63,5.52,2.42c1.63,0.79,3.11,1.78,4.29,2.86c1.18,1.08,2.12,2.32,2.76,3.7
			c0.64,1.38,0.94,3.06,0.94,4.93c-0.05,1.73-0.35,3.25-0.99,4.64c-0.64,1.38-1.48,2.52-2.62,3.5c-1.13,0.99-2.47,1.78-3.99,2.37
			c-1.58,0.59-3.31,0.94-5.18,1.08l-0.1,5.82l-5.03-0.1l0.1-5.82c-1.72-0.2-3.45-0.59-5.08-1.23c-1.63-0.64-3.06-1.48-4.29-2.61
			c-1.23-1.14-2.22-2.52-2.96-4.24c-0.74-1.73-1.08-3.7-1.03-6.07l9.12,0.15c0,1.38,0.15,2.56,0.54,3.5
			c0.39,0.94,0.89,1.68,1.53,2.27c0.64,0.59,1.38,0.99,2.22,1.18c0.84,0.25,1.68,0.35,2.56,0.39c0.99,0,1.87-0.1,2.61-0.34
			c0.74-0.25,1.38-0.59,1.87-1.04c0.49-0.44,0.89-0.99,1.14-1.58C793.16,705.28,793.31,704.59,793.31,703.85z"/>
	</g>
</g>
<g>
	<path class="st60" d="M291.12,170.14l4.74-10.64c5.9,4.74,15.28,8.11,24.34,8.11c11.49,0,16.33-4.11,16.33-9.59
		c0-15.91-43.84-5.48-43.84-32.88c0-11.91,9.48-22.02,29.72-22.02c8.85,0,18.12,2.32,24.55,6.53l-4.32,10.64
		c-6.64-3.9-13.91-5.8-20.34-5.8c-11.38,0-16.02,4.43-16.02,10.01c0,15.7,43.73,5.48,43.73,32.56c0,11.8-9.59,21.92-29.82,21.92
		C308.72,178.99,297.23,175.41,291.12,170.14z"/>
	<path class="st60" d="M415.04,154.02h-44.15c1.58,8.22,8.43,13.49,18.23,13.49c6.32,0,11.28-2,15.28-6.11l7.06,8.11
		c-5.06,6.01-12.96,9.17-22.66,9.17c-18.86,0-31.09-12.12-31.09-28.87s12.33-28.77,29.08-28.77c16.44,0,28.45,11.49,28.45,29.08
		C415.25,151.17,415.15,152.75,415.04,154.02z M370.78,145.27h31.93c-1.05-8.11-7.27-13.7-15.91-13.7
		C378.26,131.57,372.05,137.05,370.78,145.27z"/>
	<path class="st60" d="M460.46,121.04v12.54c-1.16-0.21-2.11-0.32-3.06-0.32c-10.01,0-16.33,5.9-16.33,17.39v27.29H427.9v-56.27
		h12.54v8.22C444.23,123.99,451.08,121.04,460.46,121.04z"/>
	<path class="st60" d="M469.84,104.49c0-4.43,3.58-7.9,8.43-7.9c4.85,0,8.43,3.27,8.43,7.59c0,4.64-3.48,8.22-8.43,8.22
		C473.42,112.39,469.84,108.92,469.84,104.49z M471.63,121.67h13.17v56.27h-13.17V121.67z"/>
	<path class="st60" d="M554.77,154.02h-44.15c1.58,8.22,8.43,13.49,18.23,13.49c6.32,0,11.28-2,15.28-6.11l7.06,8.11
		c-5.06,6.01-12.96,9.17-22.66,9.17c-18.86,0-31.09-12.12-31.09-28.87s12.33-28.77,29.08-28.77c16.44,0,28.45,11.49,28.45,29.08
		C554.98,151.17,554.88,152.75,554.77,154.02z M510.51,145.27h31.93c-1.05-8.11-7.27-13.7-15.91-13.7
		C518,131.57,511.78,137.05,510.51,145.27z"/>
	<path class="st60" d="M561.2,172.35l5.06-10.01c4.95,3.27,12.54,5.58,19.6,5.58c8.32,0,11.8-2.32,11.8-6.22
		c0-10.75-34.77-0.63-34.77-23.08c0-10.64,9.59-17.6,24.76-17.6c7.48,0,16.02,1.79,21.08,4.85l-5.06,10.01
		c-5.37-3.16-10.75-4.21-16.12-4.21c-8.01,0-11.8,2.63-11.8,6.32c0,11.38,34.77,1.26,34.77,23.29c0,10.54-9.7,17.39-25.5,17.39
		C575.64,178.68,566.26,175.94,561.2,172.35z"/>
	<path class="st60" d="M700.09,160.87h-36.88l-7.27,17.07h-14.12l33.19-73.76h13.49l33.3,73.76h-14.33L700.09,160.87z
		 M695.56,150.12l-13.91-32.25l-13.8,32.25H695.56z"/>
	<path class="st60" d="M310.61,245.17v3.37h15.49v10.54h-15.07v45.31h-13.17v-45.31h-9.27v-10.54h9.27v-3.58
		c0-11.8,7.06-19.5,20.13-19.5c4.53,0,8.96,0.95,11.91,3.06l-3.69,9.91c-2-1.37-4.53-2.32-7.27-2.32
		C313.46,236.11,310.61,239.17,310.61,245.17z"/>
	<path class="st60" d="M389.43,248.12v56.27h-12.54v-7.17c-4.21,5.16-10.85,7.9-18.13,7.9c-14.44,0-24.24-7.9-24.24-24.87v-32.14
		h13.17v30.35c0,10.22,4.85,15.07,13.17,15.07c9.17,0,15.39-5.69,15.39-16.97v-28.45H389.43z"/>
	<path class="st60" d="M462.15,272.15v32.25h-13.17v-30.56c0-10.01-4.95-14.86-13.38-14.86c-9.38,0-15.7,5.69-15.7,16.97v28.45
		h-13.17v-56.27h12.54v7.27c4.32-5.16,11.17-7.9,19.39-7.9C452.13,247.49,462.15,255.18,462.15,272.15z"/>
	<path class="st60" d="M534.54,226.2v78.19h-12.65v-7.27c-4.43,5.38-10.96,8.01-18.65,8.01c-16.33,0-28.45-11.38-28.45-28.87
		s12.12-28.77,28.45-28.77c7.27,0,13.7,2.42,18.13,7.59V226.2H534.54z M521.58,276.26c0-10.75-7.27-17.6-16.76-17.6
		c-9.48,0-16.75,6.85-16.75,17.6s7.27,17.6,16.75,17.6C514.31,293.86,521.58,287.01,521.58,276.26z"/>
	<path class="st60" d="M550.03,230.95c0-4.43,3.58-7.9,8.43-7.9c4.85,0,8.43,3.27,8.43,7.59c0,4.64-3.48,8.22-8.43,8.22
		C553.61,238.85,550.03,235.37,550.03,230.95z M551.82,248.12h13.17v56.27h-13.17V248.12z"/>
	<path class="st60" d="M637.7,272.15v32.25h-13.17v-30.56c0-10.01-4.95-14.86-13.38-14.86c-9.38,0-15.7,5.69-15.7,16.97v28.45
		h-13.17v-56.27h12.54v7.27c4.32-5.16,11.17-7.9,19.39-7.9C627.69,247.49,637.7,255.18,637.7,272.15z"/>
	<path class="st60" d="M710.83,248.12v47.74c0,20.44-10.64,29.72-30.35,29.72c-10.54,0-20.97-2.74-27.4-8.01l5.9-9.91
		c4.95,4.11,12.96,6.74,20.76,6.74c12.43,0,17.91-5.69,17.91-17.07v-2.95c-4.64,5.06-11.28,7.48-18.86,7.48
		c-16.12,0-28.45-10.96-28.45-27.29c0-16.33,12.33-27.08,28.45-27.08c7.9,0,14.86,2.53,19.5,8.11v-7.48H710.83z M697.87,274.57
		c0-9.48-7.17-15.91-17.07-15.91c-10.01,0-17.18,6.43-17.18,15.91c0,9.59,7.17,16.12,17.18,16.12
		C690.71,290.69,697.87,284.16,697.87,274.57z"/>
	<path class="st60" d="M812.63,272.15v32.25h-13.17v-30.56c0-10.01-4.95-14.86-13.38-14.86c-9.38,0-15.7,5.69-15.7,16.97v28.45
		H757.2V226.2h13.17v28.45c4.32-4.64,10.96-7.17,18.76-7.17C802.62,247.49,812.63,255.18,812.63,272.15z"/>
	<path class="st60" d="M883.86,248.12v56.27h-12.54v-7.17c-4.21,5.16-10.85,7.9-18.13,7.9c-14.44,0-24.24-7.9-24.24-24.87v-32.14
		h13.17v30.35c0,10.22,4.85,15.07,13.17,15.07c9.17,0,15.39-5.69,15.39-16.97v-28.45H883.86z"/>
	<path class="st60" d="M956.57,272.15v32.25H943.4v-30.56c0-10.01-4.95-14.86-13.38-14.86c-9.38,0-15.7,5.69-15.7,16.97v28.45
		h-13.17v-56.27h12.54v7.27c4.32-5.16,11.17-7.9,19.39-7.9C946.56,247.49,956.57,255.18,956.57,272.15z"/>
	<path class="st60" d="M1007.16,301.34c-3.16,2.53-7.9,3.79-12.65,3.79c-12.33,0-19.39-6.53-19.39-18.97v-27.08h-9.27v-10.54h9.27
		v-12.86h13.17v12.86h15.07v10.54h-15.07v26.77c0,5.48,2.74,8.43,7.8,8.43c2.74,0,5.37-0.74,7.38-2.32L1007.16,301.34z"/>
</g>
<g>
	<path class="st29" d="M1098.87,1094.14l4.43-10.64c5.51,4.74,14.26,8.11,22.72,8.11c10.72,0,15.25-4.11,15.25-9.59
		c0-15.91-40.92-5.48-40.92-32.88c0-11.91,8.85-22.02,27.74-22.02c8.26,0,16.92,2.32,22.92,6.53l-4.03,10.64
		c-6.2-3.9-12.98-5.8-18.98-5.8c-10.62,0-14.95,4.43-14.95,10.01c0,15.7,40.82,5.48,40.82,32.56c0,11.8-8.95,21.92-27.84,21.92
		C1115.3,1102.99,1104.58,1099.41,1098.87,1094.14z"/>
	<path class="st29" d="M1196.94,1098.88c-2.95,2.53-7.38,3.79-11.8,3.79c-11.51,0-18.1-6.53-18.1-18.97v-27.08h-8.66v-10.54h8.66
		v-12.86h12.29v12.86h14.07v10.54h-14.07v26.77c0,5.48,2.56,8.43,7.28,8.43c2.56,0,5.02-0.74,6.89-2.32L1196.94,1098.88z"/>
	<path class="st29" d="M1254.48,1078.02h-41.21c1.48,8.22,7.87,13.49,17.02,13.49c5.9,0,10.52-2,14.26-6.11l6.59,8.11
		c-4.72,6.01-12.1,9.17-21.15,9.17c-17.61,0-29.02-12.12-29.02-28.87s11.51-28.77,27.15-28.77c15.34,0,26.56,11.49,26.56,29.08
		C1254.68,1075.17,1254.58,1076.75,1254.48,1078.02z M1213.17,1069.27h29.8c-0.98-8.11-6.79-13.7-14.85-13.7
		C1220.15,1055.57,1214.35,1061.05,1213.17,1069.27z"/>
	<path class="st29" d="M1322.25,1073.8c0,17.49-11.31,28.87-26.66,28.87c-6.69,0-12.59-2.42-16.82-7.59v27.29h-12.29v-76.71h11.7
		v7.38c4.13-5.38,10.23-8.01,17.41-8.01C1310.94,1045.04,1322.25,1056.42,1322.25,1073.8z M1309.76,1073.8
		c0-10.75-6.69-17.6-15.54-17.6c-8.85,0-15.64,6.85-15.64,17.6s6.79,17.6,15.64,17.6C1303.08,1091.4,1309.76,1084.55,1309.76,1073.8
		z"/>
	<path class="st29" d="M1418.75,1085.18h-12.2v16.75h-12.39v-16.75h-37.77v-9.48l33.93-47.52H1404l-31.97,45.42h22.52v-14.86h12
		v14.86h12.2V1085.18z"/>
</g>
</svg>
