<?xml version="1.0" encoding="utf-8"?>
<!-- Generator: Adobe Illustrator 23.0.1, SVG Export Plug-In . SVG Version: 6.00 Build 0)  -->
<svg version="1.1" id="Layer_1" xmlns="http://www.w3.org/2000/svg" xmlns:xlink="http://www.w3.org/1999/xlink" x="0px" y="0px"
	 viewBox="0 0 1080 1080" style="enable-background:new 0 0 1080 1080;" xml:space="preserve">
<style type="text/css">
	.st0{fill:#FC611F;}
	.st1{fill:#8FC3D8;}
	.st2{fill:#346178;}
	.st3{fill:#FDC00F;}
	.st4{fill:#FEE69F;}
	.st5{opacity:0.1;}
	.st6{fill:#FFFFFF;}
	.st7{fill:#6B92A2;}
	.st8{opacity:0.4;fill:#FFFFFF;}
	.st9{fill:#303030;}
	.st10{fill:none;}
	.st11{fill:#8F6C08;}
	.st12{fill:#595959;}
	.st13{fill:#BFBFBF;}
	.st14{fill:#27495A;}
	.st15{fill:#3F3004;}
	.st16{fill:#BE900B;}
	.st17{opacity:0.5;fill:#FFFFFF;}
</style>
<rect class="st0" width="1082" height="1082"/>
<g>
	<g>
		<path class="st4" d="M720.2,540.8c-13.6-8.3-33.4,7.7-44.4,35.8c-11,28.1-8.9,57.6,4.7,66c13.6,8.3,33.4-7.7,44.4-35.8
			C735.8,578.6,733.8,549.1,720.2,540.8z"/>
		<path class="st4" d="M359.8,540.8c13.6-8.3,33.4,7.7,44.4,35.8c11,28.1,8.9,57.6-4.7,66c-13.6,8.3-33.4-7.7-44.4-35.8
			C344.2,578.6,346.2,549.1,359.8,540.8z"/>
	</g>
	<path class="st2" d="M210.8,1081h658.3c0,0,30.8-161.3,0-201.1C832.9,833.1,640,820.5,640,820.5H440c0,0-192.9,12.6-229.2,59.4
		C180.1,919.7,210.8,1081,210.8,1081z"/>
	<path class="st4" d="M622.6,622.9H457.4L440,820.5c0,21.9,44.8,39.6,100,39.6c55.2,0,100-17.7,100-39.6L622.6,622.9z"/>
	<path class="st4" d="M724.1,490.6c0,130.2-82.4,277.1-184.1,277.1c-101.7,0-184.1-146.9-184.1-277.1
		c0-130.1,82.4-194.2,184.1-194.2C641.7,296.4,724.1,360.5,724.1,490.6z"/>
	<path class="st5" d="M540,767.7c-33.4,0-64.7-15.9-91.7-41.8l-0.9,10.8c27.2,26.5,58.8,42.8,92.6,42.8c33.8,0,65.4-16.2,92.6-42.7
		l-1-11C604.7,751.8,573.4,767.7,540,767.7z"/>
	<path class="st8" d="M355.9,490.6c0,130.2,82.4,277.1,184.1,277.1V296.4C438.3,296.4,355.9,360.5,355.9,490.6z"/>
	<path class="st3" d="M756.4,375.5C701,214.6,540,254.8,540,254.8s-161-40.2-216.5,120.7c-49.9,144.8,32.9,269.4,99.6,321.9
		c0,0-23.5-136.8,5.6-236.7c62.7-33.9,111.3-79.4,111.3-79.4s48.5,45.6,111.3,79.4c29,99.9,5.5,236.7,5.5,236.7
		C723.6,644.9,806.3,520.2,756.4,375.5z"/>
</g>
<ellipse transform="matrix(0.7071 -0.7071 0.7071 0.7071 -223.6746 539.9997)" class="st10" cx="540" cy="540" rx="475" ry="475"/>
</svg>
