<?xml version="1.0" encoding="utf-8"?>
<!-- Generator: Adobe Illustrator 23.0.1, SVG Export Plug-In . SVG Version: 6.00 Build 0)  -->
<svg version="1.1" id="Layer_1" xmlns="http://www.w3.org/2000/svg" xmlns:xlink="http://www.w3.org/1999/xlink" x="0px" y="0px"
	 viewBox="0 0 1080 1080" style="enable-background:new 0 0 1080 1080;" xml:space="preserve">
<style type="text/css">
	.st0{fill:#FC611F;}
	.st1{fill:#8FC3D8;}
	.st2{fill:#346178;}
	.st3{fill:#FDC00F;}
	.st4{fill:#FEE69F;}
	.st5{opacity:0.1;}
	.st6{fill:#FFFFFF;}
	.st7{fill:#6B92A2;}
	.st8{opacity:0.4;fill:#FFFFFF;}
	.st9{fill:#303030;}
	.st10{fill:none;}
	.st11{fill:#8F6C08;}
	.st12{fill:#595959;}
	.st13{fill:#BFBFBF;}
	.st14{fill:#27495A;}
	.st15{fill:#3F3004;}
	.st16{fill:#BE900B;}
	.st17{opacity:0.5;fill:#FFFFFF;}
</style>
<rect class="st3" width="1080" height="1080"/>
<path class="st3" d="M1015,596c0,262.3-212.6,475-475,475c-262.3,0-475-212.7-475-475c0-262.3,212.7-475,475-475
	C802.4,121,1015,333.7,1015,596z"/>
<g>
	<path class="st15" d="M726.2,492.1H540H353.8c0,0,20,201.1-59.2,245c0,0,105,59.8,245.4,59.8c140.4,0,245.4-59.8,245.4-59.8
		C706.3,693.2,726.2,492.1,726.2,492.1z"/>
	<path class="st4" d="M763.6,832.9c-4.3-0.9-8.3-1.6-12.4-2.4c-16.1-3-32-5.4-46.6-7.3c-18.7-2.5-35.1-4.2-46.7-5.2
		c5.5,0.5,0.3,0-6.2-0.5c-6.5-0.6-12.3-6.2-12.9-12.7l-16.3-185.8H457.4l-16.3,185.8c-0.6,6.5-5.1,12.1-10,12.5
		c-2.5,0.2-5.6,0.5-9,0.8c-11.6,1.1-28,2.7-46.7,5.2c-14.6,1.9-30.5,4.3-46.6,7.3c-4,0.8-8.1,1.5-12.1,2.4
		c-45.9,9.2-90.2,23-105.8,43.1c-30.8,39.8,0,201.1,0,201.1h658.3c0,0,30.8-161.3,0-201.1C853.6,855.8,809.2,842.1,763.6,832.9z"/>
	<g>
		<path class="st4" d="M720.2,536.8c-13.6-8.3-33.4,7.7-44.4,35.8c-11,28.1-8.9,57.6,4.7,65.9c13.5,8.3,33.4-7.7,44.4-35.8
			C735.8,574.6,733.8,545.1,720.2,536.8z"/>
		<path class="st4" d="M359.8,536.8c13.6-8.3,33.4,7.7,44.4,35.8c11,28.1,8.9,57.6-4.7,65.9c-13.6,8.3-33.4-7.7-44.4-35.8
			C344.2,574.6,346.3,545.1,359.8,536.8z"/>
	</g>
	<path class="st5" d="M540,763.7c-33.4,0-64.7-15.9-91.7-41.8l-0.9,10.8c27.2,26.5,58.8,42.8,92.6,42.8c33.8,0,65.4-16.2,92.6-42.7
		l-1-11C604.7,747.8,573.4,763.7,540,763.7z"/>
	<g>
		<path class="st6" d="M704.2,652.1c0,20.6-10.6,37.3-23.7,37.3c-13.1,0-23.7-16.7-23.7-37.3c0-20.6,10.6-37.3,23.7-37.3
			C693.5,614.8,704.2,631.5,704.2,652.1z"/>
		<path class="st6" d="M423.3,652.1c0,20.6-10.6,37.3-23.7,37.3c-13.1,0-23.7-16.7-23.7-37.3c0-20.6,10.6-37.3,23.7-37.3
			C412.7,614.8,423.3,631.5,423.3,652.1z"/>
	</g>
	<path class="st4" d="M724.1,486.6c0,130.2-82.4,277.1-184.1,277.1c-101.7,0-184.1-146.9-184.1-277.1
		c0-130.1,82.4-194.2,184.1-194.2C641.7,292.4,724.1,356.5,724.1,486.6z"/>
	<path class="st8" d="M355.9,486.6c0,130.2,82.4,277.1,184.1,277.1V292.4C438.3,292.4,355.9,356.5,355.9,486.6z"/>
	<path class="st15" d="M722.4,434.2c-2.8-17.2-8.8-35.4-17.4-53.6c-9-18.1-21.9-35.7-38.8-50.1c-16.7-14.5-37.1-25.9-59.1-33.2
		c-21.3-7.1-44.6-10.4-67.1-10.6l0,0c-22.5,0.1-45.8,3.5-67.1,10.6c-22,7.3-42.4,18.7-59.2,33.2c-16.8,14.5-29.8,32-38.7,50.1
		c-8.6,18.2-14.6,36.4-17.4,53.6c-3.3,17.1-3.9,33.1-3.8,47.2c0.2,14.2,1.8,26.1,2.4,36.2c3.5,19.8,5.5,31.1,5.5,31.1
		c-0.2-12.5,1.4-55.7,27.4-75.5c44,13.4,95.5,21.2,150.9,21.2s106.9-7.8,150.9-21.2c26.1,19.8,27.6,63,27.4,75.5
		c0,0,2-11.3,5.6-31.1c0.6-10.1,2.2-22,2.3-36.2C726.3,467.3,725.7,451.3,722.4,434.2z"/>
	<g>
		<path class="st2" d="M316.6,832.9c-45.9,9.2-90.2,23-105.8,43.1c-30.8,39.8,0,201.1,0,201.1h188.5l-80.9-244.5
			C317.8,832.6,317.2,832.7,316.6,832.9z"/>
		<path class="st2" d="M869.1,875.9c-15.5-20.1-59.9-33.8-105.5-43c-0.7-0.1-1.3-0.3-2-0.4L680.7,1077h188.5
			C869.1,1077,899.9,915.7,869.1,875.9z"/>
	</g>
	<path class="st1" d="M540,1001.6c-70.7,0-134.2-15.7-179.1-40.7l38.4,116.1h281.4l38.4-116.1C674.2,985.9,610.7,1001.6,540,1001.6z
		"/>
	<g>
		<path class="st6" d="M442.9,832.2c-4.7,6-13.5,7.1-19.5,2.3c-6-4.7-7.1-13.5-2.3-19.5c4.7-6,13.5-7.1,19.5-2.3
			C446.6,817.5,447.7,826.2,442.9,832.2z"/>
		<path class="st6" d="M463,845.4c-4.6,6.9-14,8.7-20.9,4.1c-6.9-4.6-8.7-14-4.1-20.8c4.6-6.9,14-8.7,20.8-4.1
			C465.8,829.2,467.7,838.6,463,845.4z"/>
		<path class="st6" d="M491.8,860.6c-4.1,7.9-13.9,10.9-21.8,6.8c-7.9-4.1-11-13.9-6.8-21.8c4.1-7.9,13.9-11,21.8-6.8
			C492.9,842.9,495.9,852.7,491.8,860.6z"/>
		<path class="st6" d="M525.9,871.7c-2.9,9.1-12.6,14.2-21.7,11.3c-9.1-2.9-14.2-12.6-11.3-21.7c2.9-9.1,12.6-14.2,21.7-11.3
			C523.7,852.9,528.8,862.6,525.9,871.7z"/>
		<path class="st6" d="M561.5,872.2c0,10.2-8.3,18.4-18.5,18.4c-10.2,0-18.4-8.3-18.4-18.5c0-10.2,8.3-18.4,18.5-18.4
			C553.3,853.7,561.6,862,561.5,872.2z"/>
		<path class="st6" d="M592.6,861.1c2.9,9.1-2,18.9-11.1,21.8c-9.1,2.9-18.8-2-21.8-11.1c-3-9.1,2-18.9,11.1-21.8
			C579.9,847,589.6,852,592.6,861.1z"/>
		<path class="st6" d="M620.6,845c4.3,7.8,1.5,17.6-6.3,22c-7.8,4.3-17.6,1.5-22-6.3c-4.3-7.8-1.5-17.6,6.3-21.9
			C606.5,834.4,616.3,837.2,620.6,845z"/>
		<path class="st6" d="M643.7,827.9c4.9,6.7,3.4,16.1-3.3,21c-6.7,4.9-16.1,3.4-21-3.3c-4.9-6.7-3.4-16.1,3.3-21
			C629.5,819.7,638.9,821.1,643.7,827.9z"/>
		<path class="st6" d="M659.1,814.1c5,5.8,4.3,14.6-1.5,19.6c-5.8,5-14.6,4.4-19.6-1.4c-5-5.8-4.4-14.6,1.4-19.6
			C645.4,807.6,654.1,808.3,659.1,814.1z"/>
	</g>
</g>
<path class="st10" d="M1015,596c0,262.3-212.6,475-475,475c-262.3,0-475-212.7-475-475c0-262.3,212.7-475,475-475
	C802.4,121,1015,333.7,1015,596z"/>
</svg>
