<?xml version="1.0" encoding="utf-8"?>
<!-- Generator: Adobe Illustrator 23.0.1, SVG Export Plug-In . SVG Version: 6.00 Build 0)  -->
<svg version="1.1" id="Layer_1" xmlns="http://www.w3.org/2000/svg" xmlns:xlink="http://www.w3.org/1999/xlink" x="0px" y="0px"
	 viewBox="0 0 1080 1080" style="enable-background:new 0 0 1080 1080;" xml:space="preserve">
<style type="text/css">
	.st0{fill:#FC611F;}
	.st1{fill:#8FC3D8;}
	.st2{fill:#346178;}
	.st3{fill:#FDC00F;}
	.st4{fill:#FEE69F;}
	.st5{opacity:0.1;}
	.st6{fill:#FFFFFF;}
	.st7{fill:#6B92A2;}
	.st8{opacity:0.4;fill:#FFFFFF;}
	.st9{fill:#303030;}
	.st10{fill:none;}
	.st11{fill:#8F6C08;}
	.st12{fill:#595959;}
	.st13{fill:#BFBFBF;}
	.st14{fill:#27495A;}
	.st15{fill:#3F3004;}
	.st16{fill:#BE900B;}
	.st17{opacity:0.5;fill:#FFFFFF;}
</style>
<rect class="st3" width="1080" height="1080"/>
<path class="st3" d="M1015,540c0,262.3-212.7,475-475,475c-262.3,0-475-212.7-475-475C65,277.7,277.7,65,540,65
	C802.3,65,1015,277.7,1015,540z"/>
<g>
	<path class="st11" d="M701.3,395.1c0,0,109.8,280,49.2,693.9H539.8V395.1H701.3z"/>
	<path class="st4" d="M622.5,934.2c0.9-2.3,1.9-4.6,2.8-6.9c1.2-3.1,2.4-6.1,3.5-9.1c2.4-6.2,4.6-12.2,6.6-17.9
		c0.1-0.3,0.2-0.6,0.3-0.9c0,0,0,0-0.1,0c0,0,0,0,0.1,0c11.5-32.1,17.9-56.1,21.1-69.4c5.5,0.5,0.3,0-6.2-0.6
		c-6.5-0.6-12.3-6.2-12.9-12.7l-16.3-185.8H456.2l-17.3,197.7c0,0-6.8,0.4-18,1.5c3.2,13.4,9.7,37.6,21.3,69.9
		c2.1,5.9,4.4,12.1,6.8,18.4c1.1,2.9,2.3,5.9,3.4,9c0.9,2.3,1.8,4.6,2.8,6.9c2.4,6,4.9,12,7.6,18.3c26.5,62.1,55.9,114.1,69.1,136.4
		h14.1c13.2-22.3,42.6-74.4,69.1-136.4C617.7,946.2,620.1,940.2,622.5,934.2z"/>
	<path class="st5" d="M540,775.7c-33.4,0-64.7-15.9-91.7-41.8l-0.9,10.8c27.2,26.5,58.8,42.8,92.6,42.8c33.8,0,65.4-16.2,92.6-42.7
		l-0.9-11C604.7,759.8,573.4,775.7,540,775.7z"/>
	<g>
		<path class="st1" d="M422,830c-11.6,1.1-28,2.7-46.7,5.2c-14.6,1.9-30.5,4.3-46.6,7.3c-49.7,9.1-101,23.5-117.9,45.4
			c-30.8,39.8,0,201.1,0,201.1h208.3H533c-13.2-22.3-42.6-74.4-69.1-136.4C438.6,893.2,426.8,850,422,830z"/>
		<path class="st1" d="M869.2,887.9c-16.9-21.9-68.2-36.3-117.9-45.4c-16.1-3-32-5.4-46.6-7.3c-18.7-2.5-35.1-4.2-46.7-5.2
			c-4.7,19.9-16.6,63.2-41.9,122.5c-26.5,62.1-55.9,114.1-69.1,136.4h113.8h208.3C869.2,1089,899.9,927.7,869.2,887.9z"/>
	</g>
	<path class="st11" d="M378.7,395.1c0,0-109.8,280-49.2,693.9h210.6V395.1H378.7z"/>
	<g>
		<path class="st4" d="M720.2,548.8c-13.6-8.3-33.4,7.7-44.4,35.8c-11,28.1-8.9,57.6,4.7,66c13.6,8.3,33.4-7.7,44.4-35.8
			C735.8,586.6,733.8,557.1,720.2,548.8z"/>
		<path class="st4" d="M359.8,548.8c13.5-8.3,33.4,7.7,44.4,35.8c11,28.1,8.9,57.6-4.7,66c-13.6,8.3-33.4-7.7-44.4-35.8
			C344.2,586.6,346.3,557.1,359.8,548.8z"/>
	</g>
	<g>
		<path class="st1" d="M648.6,688.2c0,0,0.1-0.9,0.3-2.7c0.2-1.7,0.6-4.5,1.1-8c1.3-6.8,3.9-16.3,8.6-27c2.3-5.3,5.1-11,8.9-16.5
			c2-2.7,4.3-5.5,7.6-7.4c1.7-0.9,3.7-1.5,5.8-1.2c1.5,0,4,1,5.5,2.1c3.2,2.3,5.5,5.4,7.4,8.6c2.1,3.1,3.8,6.6,5.3,10
			c3,7,5.7,14.3,7.6,21.8c1.9,7.6,3.4,15.1,3.9,23.4c0.7,6.7,0.4,16.4-2.5,24.5c-1.8,4.2-3.8,8.5-7.4,12.1
			c-3.5,3.6-8.1,6.3-12.9,7.7c-2.3,0.8-4.7,0.9-7,1.2l-0.9,0.1l-0.2,0l-1.3-0.1l-0.3,0l-1.1-0.1l-2.3-0.2c-0.5,0-1.9-0.3-3.2-0.6
			c-1.3-0.4-2.6-0.8-3.8-1.3c-2.7-0.9-4.2-2.3-6.1-3.5c-7-5.4-10.2-12.4-11.4-17.8c-1.7-5.6-1.6-10.1-1.9-13.8
			c0-7.3,0.3-11.3,0.3-11.3V688.2z M663.6,688.3c0,0,0.5,3.5,1.6,9.2c0.8,2.7,1.6,6.2,3.4,9.1c1.5,3.2,3.8,5.5,5.9,6.8
			c0.5,0.2,1.1,0.9,1.3,0.7c0.1,0,0.2,0,0.3,0.2c0,0.1,0.1,0.3,1.1,0.4l2.3,0.3l1.2,0.1l0.3,0l0.1,0c-0.5,0,1.2,0.1-1.1-0.1l0.1,0
			l0.3,0c0.7-0.1,1.7,0.1,2.4-0.1c2.9-0.4,5.5-2.2,8.3-6.6c2.3-5,4.3-9.8,5.2-17.8c1.1-6.4,1.3-13.9,0.9-21.1
			c-0.4-7.2-1.2-14.6-3.2-21.5c-2-6.7-4.6-13.8-9.5-17.8c-5.1-4.8-11.3,0.3-14.1,5.6c-3.2,5.3-4.6,11.2-5.7,16.5
			c-1.8,10.8-1.8,20-1.6,26.2c0.1,5.9,0.5,9.9,0.5,9.9V688.3z"/>
		<path class="st1" d="M368.9,688.2c0,0,0.1-0.9,0.3-2.7c0.2-1.7,0.6-4.5,1.1-8c1.3-6.8,3.9-16.3,8.6-27c2.4-5.3,5.1-11,8.9-16.5
			c2-2.7,4.3-5.5,7.6-7.4c1.7-0.9,3.7-1.5,5.8-1.2c1.5,0,4,1,5.5,2.1c3.2,2.3,5.5,5.4,7.5,8.6c2.1,3.1,3.7,6.6,5.3,10
			c3,7,5.7,14.3,7.6,21.8c1.9,7.6,3.4,15.1,3.9,23.4c0.6,6.7,0.3,16.4-2.5,24.5c-1.8,4.2-3.8,8.5-7.4,12.1
			c-3.5,3.6-8.1,6.3-12.9,7.7c-2.3,0.8-4.7,0.9-7,1.2l-0.9,0.1l-0.2,0l-1.3-0.1l-0.3,0l-1.2-0.1l-2.3-0.2c-0.5,0-1.9-0.3-3.2-0.6
			c-1.3-0.4-2.6-0.8-3.9-1.3c-2.7-0.9-4.1-2.3-6.1-3.5c-7-5.4-10.2-12.4-11.4-17.8c-1.6-5.6-1.5-10.1-1.9-13.8
			c0.1-7.3,0.3-11.3,0.3-11.3V688.2z M383.9,688.3c0,0,0.5,3.5,1.6,9.2c0.8,2.7,1.6,6.2,3.4,9.1c1.6,3.2,3.8,5.5,5.8,6.8
			c0.5,0.2,1.1,0.9,1.3,0.7c0.1,0,0.2,0,0.3,0.2c0,0.1,0.1,0.3,1.1,0.4l2.3,0.3l1.1,0.1l0.3,0l0.1,0c-0.5,0,1.2,0.1-1.1-0.1l0.1,0
			l0.3,0c0.8-0.1,1.7,0.1,2.4-0.1c2.9-0.4,5.5-2.2,8.3-6.6c2.3-5,4.3-9.8,5.2-17.8c1.1-6.4,1.2-13.9,0.9-21.1
			c-0.4-7.2-1.2-14.6-3.1-21.5c-2-6.7-4.6-13.8-9.5-17.8c-5.1-4.8-11.3,0.3-14.1,5.6c-3.2,5.3-4.7,11.2-5.7,16.5
			c-1.8,10.8-1.8,20-1.7,26.2c0.2,5.9,0.5,9.9,0.5,9.9V688.3z"/>
	</g>
	<path class="st4" d="M724.1,498.6c0,130.2-82.4,277.1-184.1,277.1c-101.7,0-184.1-146.9-184.1-277.1
		c0-130.1,82.4-194.2,184.1-194.2C641.7,304.4,724.1,368.5,724.1,498.6z"/>
	<path class="st8" d="M540,304.4c-101.7,0-184.1,64.1-184.1,194.2c0,130.1,82.4,277.1,184.1,277.1V304.4z"/>
	<path class="st11" d="M540,298.5c-115.4,0-190.1,78.6-190.1,200.1c0,5.1,0.2,10.2,0.4,15.4l5.9-0.3h367.4l5.9,0.3
		c0.3-5.1,0.4-10.3,0.4-15.4C730,377,655.5,298.5,540,298.5z"/>
</g>
<path class="st10" d="M1015,540c0,262.3-212.7,475-475,475c-262.3,0-475-212.7-475-475C65,277.7,277.7,65,540,65
	C802.3,65,1015,277.7,1015,540z"/>
</svg>
