<?xml version="1.0" encoding="utf-8"?>
<!-- Generator: Adobe Illustrator 23.0.1, SVG Export Plug-In . SVG Version: 6.00 Build 0)  -->
<svg version="1.1" id="Layer_1" xmlns="http://www.w3.org/2000/svg" xmlns:xlink="http://www.w3.org/1999/xlink" x="0px" y="0px"
	 viewBox="0 0 1080 1080" style="enable-background:new 0 0 1080 1080;" xml:space="preserve">
<style type="text/css">
	.st0{fill:#FC611F;}
	.st1{fill:#8FC3D8;}
	.st2{fill:#346178;}
	.st3{fill:#FDC00F;}
	.st4{fill:#FEE69F;}
	.st5{opacity:0.1;}
	.st6{fill:#FFFFFF;}
	.st7{fill:#6B92A2;}
	.st8{opacity:0.4;fill:#FFFFFF;}
	.st9{fill:#303030;}
	.st10{fill:none;}
	.st11{fill:#8F6C08;}
	.st12{fill:#595959;}
	.st13{fill:#BFBFBF;}
	.st14{fill:#27495A;}
	.st15{fill:#3F3004;}
	.st16{fill:#BE900B;}
	.st17{opacity:0.5;fill:#FFFFFF;}
</style>
<rect x="-7" class="st3" width="1080" height="1080"/>
<circle class="st3" cx="540" cy="540.4" r="475"/>
<g>
	<path class="st4" d="M636.5,789.9l-14-158.5H457.4l-13.9,158.5c27.8,10.6,60.9,16.8,96.5,16.8C575.6,806.7,608.8,800.5,636.5,789.9
		z"/>
	<path class="st5" d="M632.6,745.3l-10-113.9H457.4l-10,113.9c27.2,26.4,58.8,42.7,92.6,42.7S605.4,771.8,632.6,745.3z"/>
	<g>
		<path class="st4" d="M720.2,549.3c-13.6-8.3-33.4,7.7-44.4,35.8c-11,28.1-8.9,57.6,4.7,66c13.6,8.3,33.4-7.7,44.4-35.8
			C735.9,587.1,733.8,557.6,720.2,549.3z"/>
		<path class="st4" d="M359.8,549.3c13.6-8.3,33.4,7.7,44.4,35.8c11,28.1,8.9,57.6-4.7,66c-13.6,8.3-33.4-7.7-44.4-35.8
			C344.2,587.1,346.3,557.6,359.8,549.3z"/>
	</g>
	<path class="st4" d="M724.1,499.1c0,130.2-82.4,277.1-184.1,277.1c-101.7,0-184.1-146.9-184.1-277.1
		c0-130.1,82.4-194.2,184.1-194.2C641.7,304.9,724.1,368.9,724.1,499.1z"/>
	<path class="st8" d="M355.9,499.1c0,130.2,82.4,277.1,184.1,277.1V304.9C438.3,304.9,355.9,368.9,355.9,499.1z"/>
	<path class="st11" d="M869.1,888.4c-27.6-35.7-146.3-51.4-201.1-57c-6.4-0.6-11.9-1.1-16.3-1.4c-6.5-0.6-12.2-6.3-12.8-12.8
		l-2.4-27.2c-27.8,10.6-60.9,16.8-96.5,16.8c-35.6,0-68.7-6.2-96.5-16.8l-2.4,27.2c-0.6,6.5-6.4,12.2-13,12.8
		c-4.4,0.4-9.8,0.8-16.1,1.4c-54.9,5.6-173.6,21.3-201.2,57c-30.8,39.8,0,201,0,201h658.2C869.1,1089.4,900,928.2,869.1,888.4z"/>
	<path class="st6" d="M468.9,328.8c0,19.8,31.8,47.7,71.1,47.7c39.3,0,71.1-27.9,71.1-47.7c0-19.8-31.8-31.7-71.1-31.7
		C500.8,297.1,468.9,309,468.9,328.8z"/>
	<g>
		<path class="st6" d="M679.4,403.1c5.9,39.7,26.6,59.3,31.6,80.3c5.2,21.4,3.9,84.7,3.9,84.7h3.7c4.8-23.1,7.4-46.7,7.4-69.6
			c0-54.7,1.1-129.7-38.8-129.4C677.2,369,677.1,387.9,679.4,403.1z"/>
		<path class="st6" d="M369,483.4c5.1-21,25.8-40.5,31.6-80.3c2.2-15.2,2.1-34.1-7.7-34.2c-39.9-0.3-38.8,74.7-38.8,129.4
			c0,23,2.6,46.5,7.4,69.6h3.7C365.1,568,363.8,504.7,369,483.4z"/>
	</g>
</g>
<circle class="st10" cx="540" cy="540.4" r="475"/>
</svg>
