<?xml version="1.0" encoding="utf-8"?>
<!-- Generator: Adobe Illustrator 23.0.1, SVG Export Plug-In . SVG Version: 6.00 Build 0)  -->
<svg version="1.1" id="Layer_1" xmlns="http://www.w3.org/2000/svg" xmlns:xlink="http://www.w3.org/1999/xlink" x="0px" y="0px"
	 viewBox="0 0 1080 1080" style="enable-background:new 0 0 1080 1080;" xml:space="preserve">
<style type="text/css">
	.st0{fill:#FC611F;}
	.st1{fill:#8FC3D8;}
	.st2{fill:#346178;}
	.st3{fill:#FDC00F;}
	.st4{fill:#FEE69F;}
	.st5{opacity:0.1;}
	.st6{fill:#FFFFFF;}
	.st7{fill:#6B92A2;}
	.st8{opacity:0.4;fill:#FFFFFF;}
	.st9{fill:#303030;}
	.st10{fill:none;}
	.st11{fill:#8F6C08;}
	.st12{fill:#595959;}
	.st13{fill:#BFBFBF;}
	.st14{fill:#27495A;}
	.st15{fill:#3F3004;}
	.st16{fill:#BE900B;}
	.st17{opacity:0.5;fill:#FFFFFF;}
</style>
<rect class="st1" width="1079" height="1079"/>
<g>
	<path class="st6" d="M642.8,820.9L540,860.8l-102.8-39.9c-6.7,0.5-20.5,1.6-25.2,2.1l35.4,258h185.3L668,823
		C663.3,822.5,649.6,821.4,642.8,820.9z"/>
	<path class="st4" d="M642.8,820.9c-2.3-0.2-3.9-0.3-3.9-0.3l-16.3-197.7H457.4l-16.3,197.7c0,0-1.5,0.1-3.9,0.3L540,860.8
		L642.8,820.9z"/>
	<g>
		<path class="st4" d="M720.2,540.8c-13.6-8.3-33.4,7.7-44.4,35.8c-11,28.1-8.9,57.6,4.7,66c13.6,8.3,33.4-7.7,44.4-35.8
			C735.8,578.6,733.8,549.1,720.2,540.8z"/>
		<path class="st4" d="M359.8,540.8c13.5-8.3,33.4,7.7,44.4,35.8c11,28.1,8.9,57.6-4.7,66c-13.6,8.3-33.4-7.7-44.4-35.8
			C344.2,578.6,346.3,549.1,359.8,540.8z"/>
	</g>
	<path class="st4" d="M724.1,490.6c0,130.2-82.4,277.1-184.1,277.1c-101.7,0-184.1-146.9-184.1-277.1
		c0-130.1,82.4-194.2,184.1-194.2C641.7,296.4,724.1,360.5,724.1,490.6z"/>
	<path class="st8" d="M540,296.4c-101.7,0-184.1,64.1-184.1,194.2c0,130.1,82.4,277.1,184.1,277.1V296.4z"/>
	<path class="st5" d="M540,767.7c-33.4,0-64.7-15.9-91.7-41.8l-1,10.8c27.2,26.5,58.8,42.8,92.6,42.8c33.8,0,65.4-16.2,92.6-42.7
		l-0.9-11C604.7,751.8,573.4,767.7,540,767.7z"/>
	<path class="st9" d="M412,823l35.4,258H210.9c0,0-30.8-161.3,0-201.1C238.5,844.2,357.1,828.5,412,823z M869.2,879.9
		C841.5,844.2,722.8,828.5,668,823l-35.4,258h236.5C869.2,1081,899.9,919.7,869.2,879.9z"/>
	<g>
		<path class="st12" d="M691.3,1081l85.6-173.5h-21.9l19.6-27.6l-80.9-54.1c-9.4-1.1-18.2-2.1-25.6-2.8l-35.4,258H691.3z"/>
		<path class="st12" d="M412,823c-7.5,0.8-16.2,1.7-25.6,2.8l-80.9,54.1l19.6,27.6h-21.9l85.6,173.5h58.6L412,823z"/>
	</g>
	<path class="st9" d="M735.3,441.3c-2.7-18.3-6.6-38.6-15.9-58.7c-9-20-22-40.2-40.1-57c-17.9-16.8-40-30.6-64.2-38.9
		c-12.1-4.2-24.5-7.3-37.1-9.4c-6.3-0.8-12.6-1.8-19-2.4l-19.9-0.9l-17.4,0.8c-6.2,0.5-13.1,1.5-19.6,2.4
		c-12.8,2.2-25.1,5.2-37.2,9.4c-24.2,8.3-46.2,22.1-64.1,38.9c-18.1,16.7-31.1,37-40.2,57c-9.3,20.1-13.1,40.3-15.9,58.7
		c-0.8,9.2-1.6,18-1.8,26.4c0.3,8.5,0.5,16.6,0.8,24.2c1.8,14.1,3.2,26.2,5.3,36.5c5.1,20.7,8.3,32.1,8.3,32.1l11.6-2.4
		c0,0-0.4-11.5-1.6-30.9c-0.2-9.9,0.7-22.5,0.7-36.6c0.8-6.5,1.6-13.5,2.5-20.8c1.2-6.8,2.6-14,4-21.3
		c22.6-50.5,67.8-98.1,143.9-68.6c12.2,4.7,30.8,4.7,43,0c76.1-29.5,121.3,18.1,143.9,68.6c1.4,7.1,2.8,13.8,4,20.7
		c0.9,7.7,1.7,15,2.5,21.9c0,13.4,1.1,25.1,0.9,35.2c-1.3,20.4-1.7,32-1.7,32l11.7,1.8c0,0,3.2-11.2,8.1-31
		c2-10.1,3.5-23.1,5.4-37.9c0.2-7.3,0.5-15,0.8-23.1C736.9,459.9,736.1,450.6,735.3,441.3z"/>
	<g>
		<path class="st9" d="M540,642.9c0,0,1.9-0.9,4.9-1.8c3-0.9,7.2-1.9,12-2.4c9.5-1,21,0.6,31.4,4.8c10.4,4.3,19.6,11.3,25.7,18.7
			c3,3.7,5.3,7.3,6.8,10.1c1.5,2.8,2.2,4.8,2.2,4.8s-1.9,0.9-4.9,1.8c-3,0.9-7.2,1.9-12,2.4c-9.5,1-21-0.6-31.4-4.9
			c-10.4-4.3-19.6-11.3-25.7-18.8c-3-3.7-5.3-7.3-6.8-10.1C540.7,644.9,540,642.9,540,642.9z"/>
		<path class="st9" d="M540,642.9c0,0-0.7,2-2.2,4.7c-1.5,2.8-3.8,6.4-6.8,10.1c-6,7.4-15.3,14.4-25.7,18.8
			c-10.4,4.3-21.8,5.9-31.4,4.9c-4.7-0.5-8.9-1.4-12-2.4c-3-0.9-4.9-1.8-4.9-1.8s0.7-2,2.2-4.8c1.5-2.8,3.8-6.4,6.8-10.1
			c6-7.4,15.3-14.4,25.7-18.7c10.4-4.3,21.9-5.8,31.4-4.8c4.7,0.5,8.9,1.4,12,2.4C538.1,642,540,642.9,540,642.9z"/>
	</g>
	<path class="st6" d="M666.7,822.9c-5.5-0.5-17.6-1.5-23.9-2L540,860.8l23.7,62.4l97.4-50.5L666.7,822.9z"/>
	<path class="st6" d="M413.3,822.9c5.5-0.5,17.6-1.5,23.9-2L540,860.8l-23.8,62.4l-97.4-50.5L413.3,822.9z"/>
	<polygon class="st13" points="666.7,883.2 565.8,927.2 560.9,929.3 559.5,924.8 540,860.8 567.9,921.6 561.7,919.2 655.7,862.2 	
		"/>
	<polygon class="st13" points="540,860.8 520.5,924.8 519.1,929.3 514.3,927.2 413.7,885 424.4,863.8 518.3,919.2 512,921.6 	"/>
	<path class="st6" d="M413.3,822.9c5.5-0.5,17.6-1.5,23.9-2L540,860.8l-23.8,62.4l-97.4-50.5L413.3,822.9z"/>
	<path class="st9" d="M668,823l89.7,60l-25.8,36.4h25.8L678,1081h-45.4L668,823z M412,823l-89.7,60l25.8,36.4h-25.8L402,1081h45.4
		L412,823z"/>
	<path class="st6" d="M666.7,822.9c-5.5-0.5-17.6-1.5-23.9-2L540,860.8l23.7,62.4l97.4-50.5L666.7,822.9z"/>
	<polygon class="st13" points="540,860.8 546,1081 534.1,1081 	"/>
</g>
<path class="st10" d="M1015,540c0,262.3-212.7,475-475,475c-262.3,0-475-212.7-475-475C65,277.7,277.7,65,540,65
	C802.3,65,1015,277.7,1015,540z"/>
</svg>
