<?xml version="1.0" encoding="utf-8"?>
<!-- Generator: Adobe Illustrator 23.0.1, SVG Export Plug-In . SVG Version: 6.00 Build 0)  -->
<svg version="1.1" id="Layer_1" xmlns="http://www.w3.org/2000/svg" xmlns:xlink="http://www.w3.org/1999/xlink" x="0px" y="0px"
	 viewBox="0 0 1080 1080" style="enable-background:new 0 0 1080 1080;" xml:space="preserve">
<style type="text/css">
	.st0{fill:#FC611F;}
	.st1{fill:#8FC3D8;}
	.st2{fill:#346178;}
	.st3{fill:#FDC00F;}
	.st4{fill:#FEE69F;}
	.st5{opacity:0.1;}
	.st6{fill:#FFFFFF;}
	.st7{fill:#6B92A2;}
	.st8{opacity:0.4;fill:#FFFFFF;}
	.st9{fill:#303030;}
	.st10{fill:none;}
	.st11{fill:#8F6C08;}
	.st12{fill:#595959;}
	.st13{fill:#BFBFBF;}
	.st14{fill:#27495A;}
	.st15{fill:#3F3004;}
	.st16{fill:#BE900B;}
	.st17{opacity:0.5;fill:#FFFFFF;}
</style>
<rect x="-1" class="st2" width="1079" height="1079"/>
<path class="st2" d="M1015,540c0,262.3-212.7,475-475,475c-262.3,0-475-212.7-475-475C65,277.7,277.7,65,540,65
	C802.3,65,1015,277.7,1015,540z"/>
<g>
	<path class="st4" d="M651.8,829.5c-6.5-0.6-12.2-6.3-12.8-12.8L622.6,631H457.4L440,828.6c-0.1,0-28,1.8-64.7,6.6l13.4,85
		c41.7,25.7,94.2,42.5,151.3,42.5c57,0,109.5-16.9,151.2-42.5l13.4-85C682.4,832.3,663.4,830.5,651.8,829.5z"/>
	<path class="st15" d="M833.1,510.5c0-29.4-14.4-55.4-36.4-71.6c1.4-5.5,2.3-11.3,2.3-17.2c0-36.8-29.3-66.7-65.8-67.9
		c-3.8-26.1-24.4-46.5-50.6-50.1c-15.7-33.1-49.3-56-88.4-56c-14.4,0-28,3.2-40.3,8.8c-19.3-20-46.3-32.4-76.2-32.4
		c-43.1,0-80.1,25.8-96.7,62.7c-30.7,6.7-53.7,34-53.7,66.8c0,1.2,0.1,2.3,0.2,3.5c-27.4,8.8-47.3,34.4-47.3,64.8
		c0,6,0.8,11.7,2.3,17.2c-22,16.2-36.4,42.2-36.4,71.6c0,34.8,20.1,64.9,49.3,79.4c-0.5,3.2-0.8,6.4-0.8,9.7
		c0,32.4,22.8,59.5,53.2,66.2c-0.3,2.6-0.8,5.1-0.8,7.8c0,32.3,26.2,58.5,58.6,58.5c32.3,0,58.5-26.2,58.5-58.5
		c0-24.6-15.2-45.6-36.8-54.3c1.9-6.2,2.9-12.8,2.9-19.7c0-17.6-6.8-33.7-17.8-45.7c6.9-12.3,10.9-26.3,11.3-41.3
		c12.8-3.5,28-6.4,46-8.3c90.4-9.6,132.3-61,132.3-61s14.6,30.3,53.9,62.7c-0.1,1.5-0.4,2.9-0.4,4.5c0,15.8,4.2,30.6,11.4,43.5
		c-11,12.1-17.8,28.1-17.8,45.7c0,6.9,1,13.5,2.9,19.7c-21.5,8.7-36.8,29.7-36.8,54.3c0,32.3,26.2,58.5,58.5,58.5
		c32.3,0,58.6-26.2,58.6-58.5c0-2.7-0.4-5.2-0.8-7.8c30.4-6.7,53.2-33.8,53.2-66.2c0-3.3-0.3-6.5-0.8-9.7
		C813,575.4,833.1,545.4,833.1,510.5z"/>
	<path class="st5" d="M540,775.7c-33.4,0-64.7-15.9-91.7-41.8l-1,10.8c27.2,26.5,58.8,42.8,92.6,42.8c33.8,0,65.4-16.2,92.6-42.7
		l-1-11C604.6,759.8,573.4,775.7,540,775.7z"/>
	<g>
		<path class="st4" d="M720.2,548.8c-13.5-8.3-33.4,7.7-44.4,35.8c-11,28.1-8.9,57.6,4.6,66c13.6,8.3,33.4-7.7,44.4-35.8
			C735.8,586.7,733.7,557.2,720.2,548.8z"/>
		<path class="st4" d="M359.8,548.8c13.6-8.3,33.4,7.7,44.4,35.8c11,28.1,8.9,57.6-4.7,66c-13.5,8.3-33.4-7.7-44.4-35.8
			C344.1,586.7,346.2,557.2,359.8,548.8z"/>
	</g>
	<path class="st3" d="M688.3,693.6c-16,0-28.9-13-28.9-28.9c0-16,13-28.9,28.9-28.9c16,0,28.9,13,28.9,28.9
		C717.3,680.6,704.3,693.6,688.3,693.6z M688.3,646.1c-10.2,0-18.6,8.3-18.6,18.6c0,10.2,8.3,18.6,18.6,18.6
		c10.2,0,18.5-8.3,18.5-18.6C706.9,654.5,698.5,646.1,688.3,646.1z"/>
	<path class="st3" d="M391.6,693.6c-16,0-29-13-29-28.9c0-16,13-28.9,29-28.9c16,0,28.9,13,28.9,28.9
		C420.5,680.6,407.6,693.6,391.6,693.6z M391.6,646.1c-10.2,0-18.6,8.3-18.6,18.6c0,10.2,8.3,18.6,18.6,18.6
		c10.2,0,18.5-8.3,18.5-18.6C410.2,654.4,401.8,646.1,391.6,646.1z"/>
	<path class="st4" d="M601.9,443.4c0,0-41.8,51.4-132.3,61c-90.4,9.6-109.8,44.4-109.8,44.4l0,0c17.4,115,91.5,226.9,180.2,226.9
		c89.3,0,163.7-113.4,180.5-229.1C631.5,505.2,601.9,443.4,601.9,443.4z"/>
	<path class="st8" d="M540,486.1c-18.9,8.2-42.3,15.3-70.4,18.3c-90.4,9.6-109.8,44.4-109.8,44.4l0,0
		c17.4,115,91.5,226.9,180.2,226.9h0V486.1z"/>
	<g>
		<path class="st0" d="M869.1,888c-22.3-29-104.9-44.8-164.5-52.7l-13.4,85L664.6,1089h41.6h162.9C869.1,1089,900,927.7,869.1,888z"
			/>
		<path class="st0" d="M375.3,835.2c-59.6,8-142,23.7-164.5,52.7c-30.8,39.8,0,201,0,201h162.9h41.7l-26.7-168.7L375.3,835.2z"/>
	</g>
	<path class="st3" d="M664.6,1089l26.6-168.7c-41.7,25.7-94.2,42.5-151.2,42.5c-57.1,0-109.6-16.9-151.3-42.5l26.7,168.7H664.6z"/>
</g>
<path class="st10" d="M1015,540c0,262.3-212.7,475-475,475c-262.3,0-475-212.7-475-475C65,277.7,277.7,65,540,65
	C802.3,65,1015,277.7,1015,540z"/>
</svg>
