<?xml version="1.0" encoding="utf-8"?>
<!-- Generator: Adobe Illustrator 23.0.1, SVG Export Plug-In . SVG Version: 6.00 Build 0)  -->
<svg version="1.1" id="Layer_1" xmlns="http://www.w3.org/2000/svg" xmlns:xlink="http://www.w3.org/1999/xlink" x="0px" y="0px"
	 viewBox="0 0 1080 1080" style="enable-background:new 0 0 1080 1080;" xml:space="preserve">
<style type="text/css">
	.st0{fill:#FC611F;}
	.st1{fill:#8FC3D8;}
	.st2{fill:#346178;}
	.st3{fill:#FDC00F;}
	.st4{fill:#FEE69F;}
	.st5{opacity:0.1;}
	.st6{fill:#FFFFFF;}
	.st7{fill:#6B92A2;}
	.st8{opacity:0.4;fill:#FFFFFF;}
	.st9{fill:#303030;}
	.st10{fill:none;}
	.st11{fill:#8F6C08;}
	.st12{fill:#595959;}
	.st13{fill:#BFBFBF;}
	.st14{fill:#27495A;}
	.st15{fill:#3F3004;}
	.st16{fill:#BE900B;}
	.st17{opacity:0.5;fill:#FFFFFF;}
</style>
<rect x="1" y="-9" class="st1" width="1079" height="1079"/>
<ellipse transform="matrix(0.7071 -0.7071 0.7071 0.7071 -223.6754 539.9992)" class="st1" cx="540" cy="540" rx="475" ry="475"/>
<g>
	<path class="st4" d="M638.9,742.7l-16.3-185.8H457.4L440,754.5c0,0-28,1.8-64.7,6.7c34.2,50.9,95,91.9,164.7,91.9
		c69.6,0,130.5-41,164.7-91.9c-22.2-2.9-41.3-4.8-52.9-5.8C645.3,754.9,639.5,749.2,638.9,742.7z"/>
	<g>
		<path class="st4" d="M720.2,474.8c-13.5-8.3-33.5,7.7-44.4,35.8c-11,28.1-8.9,57.6,4.7,66c13.6,8.3,33.4-7.7,44.4-35.8
			C735.8,512.6,733.7,483.1,720.2,474.8z"/>
		<path class="st4" d="M359.8,474.8c13.6-8.3,33.4,7.7,44.4,35.8c11,28.1,8.9,57.6-4.7,66c-13.6,8.3-33.4-7.7-44.4-35.8
			C344.2,512.6,346.3,483.1,359.8,474.8z"/>
	</g>
	<path class="st5" d="M540,701.7c-33.4,0-64.7-15.9-91.7-41.8l-0.9,10.8c27.2,26.5,58.8,42.8,92.6,42.8c33.8,0,65.4-16.3,92.6-42.7
		l-1-11C604.7,685.8,573.4,701.7,540,701.7z"/>
	<path class="st3" d="M869.1,813.9c-22.4-29-104.9-44.8-164.5-52.7c-34.2,50.9-95,91.9-164.7,91.9c-69.6,0-130.5-41-164.7-91.9
		c-59.6,7.9-142,23.7-164.5,52.7c-30.8,39.8,0,201.1,0,201.1h658.3C869.1,1015,899.9,853.7,869.1,813.9z"/>
	<g>
		<path class="st3" d="M689.5,552.8l17.8,51.9c3.4,9.8-1.9,20.5-11.7,23.9c-9.8,3.4-20.5-1.9-23.9-11.7c-1.4-4.1-1.3-8.4,0-12.2
			L689.5,552.8z"/>
		<path class="st3" d="M390.5,552.8l17.8,51.9c3.4,9.8-1.9,20.5-11.7,23.9c-9.8,3.4-20.6-1.9-23.9-11.7c-1.4-4.1-1.3-8.4,0-12.2
			L390.5,552.8z"/>
	</g>
	<g>
		<path class="st4" d="M724.1,424.6c0,130.1-82.4,277.1-184.1,277.1c-101.7,0-184.1-147-184.1-277.1S438.3,230.4,540,230.4
			C641.7,230.4,724.1,294.5,724.1,424.6z"/>
		<path class="st8" d="M355.9,424.6c0,130.1,82.4,277.1,184.1,277.1V230.4C438.3,230.4,355.9,294.5,355.9,424.6z"/>
		<path class="st6" d="M632.6,216.6c0,34.9-41.5,63.1-92.6,63.1c-51.2,0-92.6-28.2-92.6-63.1c0-34.9,41.5-63.1,92.6-63.1
			C591.1,153.5,632.6,181.8,632.6,216.6z"/>
		<path class="st3" d="M632.6,269.7c0,34.9-41.5,63.1-92.6,63.1c-51.2,0-92.6-28.3-92.6-63.1c0-34.9,41.5-63.1,92.6-63.1
			C591.1,206.6,632.6,234.9,632.6,269.7z"/>
		<path class="st6" d="M540,230.4c-101.7,0-184.1,64-184.1,194.2c0,16.6,1.3,33.4,3.9,50.1l0,0c0,0,19.4-34.8,109.8-44.4
			c90.4-9.6,132.3-61,132.3-61s29.6,61.8,118.6,103.2c2.3-16.1,3.6-32.1,3.6-48C724.1,294.5,641.7,230.4,540,230.4z"/>
	</g>
</g>
<ellipse transform="matrix(0.7071 -0.7071 0.7071 0.7071 -223.6754 539.9992)" class="st10" cx="540" cy="540" rx="475" ry="475"/>
</svg>
