<?xml version="1.0" encoding="utf-8"?>
<!-- Generator: Adobe Illustrator 23.0.1, SVG Export Plug-In . SVG Version: 6.00 Build 0)  -->
<svg version="1.1" id="Layer_1" xmlns="http://www.w3.org/2000/svg" xmlns:xlink="http://www.w3.org/1999/xlink" x="0px" y="0px"
	 viewBox="0 0 1080 1080" style="enable-background:new 0 0 1080 1080;" xml:space="preserve">
<style type="text/css">
	.st0{fill:#FC611F;}
	.st1{fill:#8FC3D8;}
	.st2{fill:#346178;}
	.st3{fill:#FDC00F;}
	.st4{fill:#FEE69F;}
	.st5{opacity:0.1;}
	.st6{fill:#FFFFFF;}
	.st7{fill:#6B92A2;}
	.st8{opacity:0.4;fill:#FFFFFF;}
	.st9{fill:#303030;}
	.st10{fill:none;}
	.st11{fill:#8F6C08;}
	.st12{fill:#595959;}
	.st13{fill:#BFBFBF;}
	.st14{fill:#27495A;}
	.st15{fill:#3F3004;}
	.st16{fill:#BE900B;}
	.st17{opacity:0.5;fill:#FFFFFF;}
</style>
<rect x="0" class="st2" width="1079" height="1079"/>
<path class="st2" d="M1015,540c0,262.3-212.7,475-475,475c-262.3,0-475-212.7-475-475C65,277.7,277.7,65,540,65
	C802.3,65,1015,277.7,1015,540z"/>
<g>
	<path class="st3" d="M210.8,1089h658.3c0,0,30.8-161.3,0-201.1C832.9,841.1,640,828.5,640,828.5H440c0,0-192.9,12.6-229.2,59.4
		C180.1,927.7,210.8,1089,210.8,1089z"/>
	<rect x="534.1" y="979.6" class="st6" width="11.9" height="109.4"/>
	<g>
		<path class="st4" d="M720.2,548.8c-13.5-8.3-33.4,7.7-44.4,35.8c-11,28.1-8.9,57.6,4.6,66c13.6,8.3,33.4-7.7,44.4-35.8
			C735.8,586.6,733.7,557.1,720.2,548.8z"/>
		<path class="st4" d="M359.8,548.8c13.5-8.3,33.4,7.7,44.4,35.8c11,28.1,8.9,57.6-4.7,66c-13.5,8.3-33.4-7.7-44.4-35.8
			C344.2,586.6,346.2,557.1,359.8,548.8z"/>
	</g>
	<path class="st4" d="M622.6,630.9H457.4L440,828.5c0,0,0.6,89.4,100,162.9c99.4-73.5,100-162.9,100-162.9L622.6,630.9z"/>
	<path class="st5" d="M540,775.7c-33.4,0-64.7-15.9-91.7-41.8l-0.9,10.8c27.2,26.5,58.8,42.8,92.6,42.8c33.8,0,65.4-16.3,92.6-42.7
		l-1-11C604.7,759.8,573.4,775.7,540,775.7z"/>
	<path class="st4" d="M724.1,498.6c0,130.1-82.4,277.1-184.1,277.1c-101.7,0-184.1-147-184.1-277.1c0-130.1,82.4-194.2,184.1-194.2
		C641.7,304.4,724.1,368.5,724.1,498.6z"/>
	<path class="st8" d="M540,304.4c-101.7,0-184.1,64.1-184.1,194.2c0,130.1,82.4,277.1,184.1,277.1V304.4z"/>
	<polygon class="st6" points="640,828.5 686.6,885.7 655.5,891.1 668.7,919.6 540,991.4 	"/>
	<polygon class="st6" points="440,828.5 393.4,885.7 424.6,891.1 411.3,919.6 540,991.4 	"/>
	<path class="st16" d="M724.1,455.5c-2.9-17.7-6.9-36.9-15.8-55.8c-8.5-18.9-20.7-37.7-37.5-53.3c-16.6-15.6-37.3-28.1-59.8-36
		c-22.5-8-46.8-11.8-71-12c-23.7,0.1-48.7,3.9-71,12c-22.5,7.9-43.2,20.4-59.8,36c-16.8,15.5-29,34.4-37.5,53.3
		c-8.8,18.9-12.9,38.2-15.7,55.8c-2.4,17.8-2.9,34.1-1.9,48.7c1.5,14.3,1.7,26.8,3.8,37.1c4.1,20.3,6.5,31.9,6.5,31.9h10
		c0,0-15.5-179.2,79.2-213.2c55.2-19.8,86.4,11.7,86.4,11.7s31.2-31.4,86.4-11.7c94.7,34,79.2,213.2,79.2,213.2h10
		c0,0,2.4-11.6,6.5-31.8c2.1-10.1,2.3-22.8,3.8-37.2C726.9,489.5,726.5,473.6,724.1,455.5z"/>
	<g>
		<g>
			<g>
				<g>
					<path class="st17" d="M508.8,558.1c0,26.9-21.9,48.8-48.8,48.8c-26.9,0-48.8-21.8-48.8-48.8c0-26.9,21.9-48.8,48.8-48.8
						C487,509.4,508.8,531.2,508.8,558.1z"/>
					<path class="st1" d="M460.1,612.8c-30.2,0-54.7-24.5-54.7-54.7c0-30.2,24.6-54.7,54.7-54.7c30.1,0,54.7,24.5,54.7,54.7
						C514.7,588.3,490.2,612.8,460.1,612.8z M460.1,515.3c-23.6,0-42.9,19.2-42.9,42.8c0,23.6,19.2,42.8,42.9,42.8
						c23.6,0,42.8-19.2,42.8-42.8C502.9,534.5,483.7,515.3,460.1,515.3z"/>
				</g>
				<g>
					<path class="st17" d="M668.7,558.1c0,26.9-21.8,48.8-48.8,48.8c-26.9,0-48.8-21.8-48.8-48.8c0-26.9,21.8-48.8,48.8-48.8
						C646.9,509.4,668.7,531.2,668.7,558.1z"/>
					<path class="st1" d="M620,612.8c-30.2,0-54.7-24.5-54.7-54.7c0-30.2,24.5-54.7,54.7-54.7c30.1,0,54.7,24.5,54.7,54.7
						C674.7,588.3,650.1,612.8,620,612.8z M620,515.3c-23.6,0-42.8,19.2-42.8,42.8c0,23.6,19.2,42.8,42.8,42.8
						c23.6,0,42.8-19.2,42.8-42.8C662.8,534.5,643.6,515.3,620,515.3z"/>
				</g>
			</g>
			<path class="st1" d="M510.5,547.5l-8.2-8.6c10.2-9.7,23.6-15,37.7-15c14.1,0,27.4,5.3,37.6,15l-8.2,8.6
				C553.5,532.3,526.5,532.3,510.5,547.5z"/>
		</g>
		<g>
			<path class="st1" d="M668.6,564.1c-2.7,0-5.1-1.9-5.8-4.6c-0.7-3.2,1.3-6.4,4.4-7.1l51.5-11.9c3.2-0.7,6.4,1.3,7.1,4.5
				c0.7,3.2-1.3,6.4-4.5,7.1L670,563.9C669.5,564,669.1,564.1,668.6,564.1z"/>
			<path class="st1" d="M411.2,563.9c-0.4,0-0.9-0.1-1.3-0.1l-51.5-11.9c-3.2-0.7-5.2-3.9-4.4-7.1c0.7-3.2,3.9-5.2,7.1-4.5
				l51.5,11.9c3.2,0.7,5.2,3.9,4.5,7.1C416.4,562.1,414,563.9,411.2,563.9z"/>
		</g>
	</g>
</g>
<path class="st10" d="M1015,614c0,262.3-212.7,475-475,475c-262.3,0-475-212.7-475-475c0-262.3,212.7-475,475-475
	C802.3,139,1015,351.7,1015,614z"/>
</svg>
