<?xml version="1.0" encoding="utf-8"?>
<!-- Generator: Adobe Illustrator 23.0.1, SVG Export Plug-In . SVG Version: 6.00 Build 0)  -->
<svg version="1.1" id="Layer_1" xmlns="http://www.w3.org/2000/svg" xmlns:xlink="http://www.w3.org/1999/xlink" x="0px" y="0px"
	 viewBox="0 0 1080 1080" style="enable-background:new 0 0 1080 1080;" xml:space="preserve">
<style type="text/css">
	.st0{fill:#FC611F;}
	.st1{fill:#8FC3D8;}
	.st2{fill:#346178;}
	.st3{fill:#FDC00F;}
	.st4{fill:#FEE69F;}
	.st5{opacity:0.1;}
	.st6{fill:#FFFFFF;}
	.st7{fill:#6B92A2;}
	.st8{opacity:0.4;fill:#FFFFFF;}
	.st9{fill:#303030;}
	.st10{fill:none;}
	.st11{fill:#8F6C08;}
	.st12{fill:#595959;}
	.st13{fill:#BFBFBF;}
	.st14{fill:#27495A;}
	.st15{fill:#3F3004;}
	.st16{fill:#BE900B;}
	.st17{opacity:0.5;fill:#FFFFFF;}
</style>
<rect class="st1" width="1079" height="1079"/>
<circle class="st1" cx="540" cy="540" r="475"/>
<g>
	<path class="st0" d="M210.8,1089h658.3c0,0,30.8-161.3,0-201.1C832.9,841.1,640,828.5,640,828.5H440c0,0-192.9,12.6-229.2,59.4
		C180.1,927.7,210.8,1089,210.8,1089z"/>
	<path class="st6" d="M540,828.5H440c0,0,0.6,89.4,100,162.9c99.4-73.5,100-162.9,100-162.9H540z"/>
	<g>
		<g>
			<path class="st4" d="M720.2,548.8c-13.6-8.3-33.4,7.7-44.4,35.8c-11,28.1-8.9,57.6,4.7,66c13.6,8.3,33.4-7.7,44.4-35.8
				C735.8,586.6,733.7,557.1,720.2,548.8z"/>
			<path class="st4" d="M359.8,548.8c13.5-8.3,33.4,7.7,44.4,35.8c11,28.1,8.9,57.6-4.7,66c-13.6,8.3-33.4-7.7-44.4-35.8
				C344.2,586.6,346.3,557.1,359.8,548.8z"/>
		</g>
		<path class="st4" d="M622.6,630.9H457.4L440,828.5c0,21.9,44.8,39.6,100,39.6c55.2,0,100-17.7,100-39.6L622.6,630.9z"/>
		<path class="st4" d="M724.1,498.6c0,130.1-82.4,277.1-184.1,277.1c-101.7,0-184.1-147-184.1-277.1c0-130.1,82.4-194.2,184.1-194.2
			C641.7,304.4,724.1,368.5,724.1,498.6z"/>
		<path class="st8" d="M540,304.4c-101.7,0-184.1,64.1-184.1,194.2c0,130.1,82.4,277.1,184.1,277.1V304.4z"/>
		<path class="st5" d="M540,775.7c-33.4,0-64.7-15.9-91.7-41.8l-1,10.8c27.2,26.5,58.8,42.8,92.6,42.8c33.8,0,65.4-16.3,92.6-42.7
			l-1-11C604.7,759.8,573.4,775.7,540,775.7z"/>
		<path class="st11" d="M713.9,424.6c0,0-0.5-1.7-1.5-4.9c-1.1-3.2-2-8.1-4.6-13.8c-1.2-2.9-2.5-6.2-4-9.7c-1.7-3.4-3.6-7.1-5.6-11
			c-4.2-7.8-9.6-16.2-16.6-24.7c-7.1-8.3-15.4-16.9-25.4-24.5c-9.8-7.9-21.4-14.7-34-20.2c-12.5-5.8-26.3-9.7-40.4-12.5
			c-14.2-2.9-28.7-3.7-43.6-3.9c-14.1,0.1-29.3,1.9-43.3,4.6c-14.1,3.1-27.6,7.7-40.2,13.4c-12.4,6.1-23.8,13-33.5,21.1
			c-5,3.8-9.2,8.3-13.6,12.3c-3.9,4.5-8,8.5-11.2,12.9c-6.8,8.6-12,17.2-16,25c-1.9,4-3.8,7.6-5.3,11.2c-1.4,3.5-2.6,6.8-3.8,9.8
			c-2.4,5.8-3.2,10.8-4.3,14c-0.9,3.2-1.4,5-1.4,5c1.2-2.3,2.4-4.5,4-6.4c2.7,6,7.2,12.7,13.9,20.2c1.2-6.6,3.8-12,7.3-16.7
			c2.8,6,7.5,12.5,14.3,19.9c1.1-6.7,3.5-12.1,6.9-16.8c2.9,5.9,7.8,12.3,14.7,19.6c0.9-6.7,3.3-12.2,6.6-17
			c3.1,5.8,8,12.2,15.1,19.2c0.8-6.7,3-12.2,6.2-17.1c3.2,5.8,8.3,12,15.5,18.9c0.6-6.7,2.7-12.3,5.8-17.3c3.3,5.7,8.6,11.8,16,18.6
			c0.5-6.7,2.5-12.4,5.4-17.4c3.4,5.6,8.8,11.6,16.4,18.2c0.3-6.7,2.2-12.4,5-17.5c3.6,5.5,9.1,11.4,16.8,17.8
			c0.2-6.7,1.9-12.5,4.6-17.6c3.7,5.5,9.3,11.2,17.2,17.5c0-6.7,1.6-12.5,4.2-17.7c3.8,5.4,9.5,11,17.5,17.1
			c-0.1-6.7,1.4-12.5,3.9-17.8c3.9,5.3,9.8,10.8,17.9,16.7c-0.3-6.7,1.1-12.6,3.5-17.9c4,5.2,10,10.6,18.3,16.3
			c-0.4-6.7,0.8-12.6,3.1-17.9c4.2,5.1,10.3,10.4,18.6,15.9c-0.6-6.7,0.5-12.6,2.7-18c4.3,5,10.5,10.1,19,15.5
			c-0.7-6.7,0.3-12.6,2.3-18.1c4.4,4.9,10.7,9.9,19.3,15.1c-0.8-6.7,0-12.6,1.9-18.1c4.5,4.8,10.9,9.7,19.7,14.6
			c-1-6.7-0.3-12.6,1.5-18.2C712,422.9,713,423.8,713.9,424.6z"/>
	</g>
</g>
<circle class="st10" cx="540" cy="540" r="475"/>
</svg>
