<?xml version="1.0" encoding="utf-8"?>
<!-- Generator: Adobe Illustrator 23.0.1, SVG Export Plug-In . SVG Version: 6.00 Build 0)  -->
<svg version="1.1" id="Layer_1" xmlns="http://www.w3.org/2000/svg" xmlns:xlink="http://www.w3.org/1999/xlink" x="0px" y="0px"
	 viewBox="0 0 1080 1080" style="enable-background:new 0 0 1080 1080;" xml:space="preserve">
<style type="text/css">
	.st0{fill:#FC611F;}
	.st1{fill:#8FC3D8;}
	.st2{fill:#346178;}
	.st3{fill:#FDC00F;}
	.st4{fill:#FEE69F;}
	.st5{opacity:0.1;}
	.st6{fill:#FFFFFF;}
	.st7{fill:#6B92A2;}
	.st8{opacity:0.4;fill:#FFFFFF;}
	.st9{fill:#303030;}
	.st10{fill:none;}
	.st11{fill:#8F6C08;}
	.st12{fill:#595959;}
	.st13{fill:#BFBFBF;}
	.st14{fill:#27495A;}
	.st15{fill:#3F3004;}
	.st16{fill:#BE900B;}
	.st17{opacity:0.5;fill:#FFFFFF;}
</style>
<rect x="-1" class="st2" width="1079" height="1079"/>
<path class="st2" d="M1015,596c0,262.3-212.7,475-475,475c-262.3,0-475-212.7-475-475c0-262.3,212.7-475,475-475
	C802.3,121,1015,333.7,1015,596z"/>
<g>
	<path class="st4" d="M763.6,826.9c-4.3-0.9-8.3-1.6-12.4-2.4c-16.1-3-32-5.4-46.6-7.3c-18.7-2.5-35-4.2-46.7-5.2
		c5.5,0.5,0.3,0-6.2-0.5c-6.5-0.6-12.3-6.2-12.9-12.7l-16.3-185.8H457.4l-16.3,185.8c-0.6,6.5-5.1,12.1-10,12.5
		c-2.5,0.2-5.6,0.5-9,0.8c-11.6,1.1-28,2.7-46.7,5.2c-14.6,1.9-30.5,4.3-46.6,7.3c-4,0.8-8.1,1.5-12.1,2.4
		c-45.9,9.2-90.2,23-105.8,43.1c-30.8,39.8,0,201.1,0,201.1h658.3c0,0,30.8-161.3,0-201.1C853.6,849.8,809.2,836.1,763.6,826.9z"/>
	<g>
		<path class="st4" d="M720.2,530.8c-13.5-8.3-33.4,7.7-44.4,35.8c-11,28.1-8.9,57.6,4.7,65.9c13.6,8.3,33.4-7.7,44.4-35.8
			C735.8,568.6,733.7,539.1,720.2,530.8z"/>
		<path class="st4" d="M359.8,530.8c13.6-8.3,33.4,7.7,44.4,35.8c11,28.1,8.9,57.6-4.7,65.9c-13.6,8.3-33.4-7.7-44.4-35.8
			C344.2,568.6,346.3,539.1,359.8,530.8z"/>
	</g>
	<path class="st5" d="M540,757.7c-33.4,0-64.7-15.9-91.7-41.8l-1,10.8c27.2,26.5,58.8,42.8,92.6,42.8c33.8,0,65.4-16.2,92.6-42.7
		l-1-11C604.7,741.8,573.4,757.7,540,757.7z"/>
	<g>
		<path class="st0" d="M704.2,632.6c0,13.1-10.6,23.8-23.7,23.8c-13.1,0-23.8-10.6-23.8-23.8c0-13.1,10.6-23.7,23.8-23.7
			C693.5,608.8,704.2,619.5,704.2,632.6z"/>
		<path class="st0" d="M423.3,632.6c0,13.1-10.6,23.8-23.7,23.8c-13.1,0-23.7-10.6-23.7-23.8c0-13.1,10.6-23.7,23.7-23.7
			C412.7,608.8,423.3,619.5,423.3,632.6z"/>
	</g>
	<path class="st4" d="M724.1,480.6c0,130.2-82.4,277.1-184.1,277.1c-101.7,0-184.1-146.9-184.1-277.1
		c0-130.1,82.4-194.2,184.1-194.2C641.7,286.4,724.1,350.5,724.1,480.6z"/>
	<path class="st8" d="M540,286.4c-101.7,0-184.1,64-184.1,194.2c0,130.2,82.4,277.1,184.1,277.1V286.4z"/>
	<path class="st3" d="M725.9,457.1c-0.8-7.9-1.5-16.3-2.8-24.9c-3.2-17.1-7.8-35.6-16.4-53.9c-8.7-18.1-20.9-36.2-37.4-51.1
		c-16.3-15-36.4-26.9-58.3-34.7c-21.9-7.8-45.4-11.7-68.9-11.9c-23.1,0-47.2,3.3-69.1,10.7c-22,7.3-42.4,18.7-59.2,33.2
		c-16.8,14.5-29.8,32-38.7,50.1c-8.6,18.2-14.6,36.4-17.4,53.6c-3.3,17.1-3.9,33.1-3.8,47.2c0.2,14.2,1.8,26.1,2.4,36.2
		c3.5,19.8,5.5,31.1,5.5,31.1c-0.2-16.5,2.4-86.3,60.2-85.6c118,1.6,151.5-54,177.2-72v0c0,0,2.4,73.9,87.9,105.4
		c27.2,10,30.2,54.6,30.3,56.1c0,0,2.1-11.3,5.8-31c1.2-10,2-22.1,3-36.4C726.1,472.4,726,464.9,725.9,457.1z"/>
	<path class="st0" d="M869.2,1071c0,0,18.8-98.6,12.3-160.7c-70.1,29.7-196.8,49.6-341.5,49.6c-144.7,0-271.4-19.9-341.5-49.6
		c-6.5,62,12.3,160.7,12.3,160.7H869.2z"/>
	<path class="st6" d="M651.8,811.5c0,0-2.3,3.4-7,9c-4.7,5.5-11.8,13.1-21.4,21c-4.8,4-10.1,8.2-16.3,12.1c-6,4-12.6,8-20,11.3
		c-7.3,3.4-15.1,6.4-23.5,8.6c-4.2,0.9-8.6,1.8-13,2.4c-4.6,0.2-8.7,0.9-13.8,0.6c-7.4-0.3-17.9-1.6-25.7-4.1c-4.2-1-8.2-2.4-12-4
		c-3.9-1.4-7.6-3.1-11.2-4.8c-7.3-3.2-13.8-7.2-19.9-11c-6.1-3.8-11.6-7.8-16.5-11.7C431.9,825.4,422,812,422,812
		s14.5,8.1,35.9,18.7c10.8,5.2,23.4,11,37,15.8c6.8,2.5,14,4.5,21.1,6.1c3.7,1,7.1,1.4,10.5,1.9c3.1,0.7,7.5,0.7,11.5,1
		c3,0.3,7-0.3,10.4-0.3c3.6-0.5,7.2-0.9,10.8-1.5c7.1-1.6,14.2-3.3,21-5.8c6.7-2.5,13.3-5,19.4-7.9c6.1-2.8,11.9-5.7,17.1-8.5
		C637.8,820.4,651.8,811.5,651.8,811.5z"/>
</g>
<path class="st10" d="M1015,596c0,262.3-212.7,475-475,475c-262.3,0-475-212.7-475-475c0-262.3,212.7-475,475-475
	C802.3,121,1015,333.7,1015,596z"/>
</svg>
