<?xml version="1.0" encoding="utf-8"?>
<!-- Generator: Adobe Illustrator 23.0.1, SVG Export Plug-In . SVG Version: 6.00 Build 0)  -->
<svg version="1.1" id="Layer_1" xmlns="http://www.w3.org/2000/svg" xmlns:xlink="http://www.w3.org/1999/xlink" x="0px" y="0px"
	 viewBox="0 0 1080 1080" style="enable-background:new 0 0 1080 1080;" xml:space="preserve">
<style type="text/css">
	.st0{fill:#FC611F;}
	.st1{fill:#8FC3D8;}
	.st2{fill:#346178;}
	.st3{fill:#FDC00F;}
	.st4{fill:#FEE69F;}
	.st5{opacity:0.1;}
	.st6{fill:#FFFFFF;}
	.st7{fill:#6B92A2;}
	.st8{opacity:0.4;fill:#FFFFFF;}
	.st9{fill:#303030;}
	.st10{fill:none;}
	.st11{fill:#8F6C08;}
	.st12{fill:#595959;}
	.st13{fill:#BFBFBF;}
	.st14{fill:#27495A;}
	.st15{fill:#3F3004;}
	.st16{fill:#BE900B;}
	.st17{opacity:0.5;fill:#FFFFFF;}
</style>
<rect class="st0" width="1079" height="1079"/>
<path class="st0" d="M1014.7,539.6c0,262.3-212.7,475-475,475c-262.3,0-475-212.7-475-475c0-262.3,212.7-475,475-475
	C802,64.6,1014.7,277.2,1014.7,539.6z"/>
<g>
	<path class="st3" d="M726.1,490.2H540.9H355.6c0,0-36.9,156.6-7.8,205.1c29.1,48.5,193,10.4,193,10.4s164,38.1,193.1-10.4
		C763,646.8,726.1,490.2,726.1,490.2z"/>
	<path class="st4" d="M626.1,918.9c1.2-3.1,2.4-6.1,3.5-9.1c2.4-6.2,4.6-12.2,6.7-17.9c0.1-0.3,0.2-0.6,0.3-0.9
		c11.5-32.1,17.9-56.1,21.1-69.4c5.5,0.5,0.3,0-6.2-0.6c-6.5-0.6-12.3-6.2-12.9-12.7l-16.3-185.8H457.1l-16.3,185.8
		c-0.6,6.5-5.1,12.1-10,12.5c-2.5,0.2-5.6,0.5-9,0.8c3.2,13.4,9.7,37.6,21.3,69.9c2.1,5.9,4.4,12.1,6.8,18.4c1.1,2.9,2.3,5.9,3.5,9
		c0.9,2.3,1.8,4.6,2.7,6.9c2.4,6,4.9,12,7.6,18.3c26.5,62.1,55.9,114.1,69.1,136.4h14.1c13.2-22.3,42.6-74.4,69.1-136.4
		c2.7-6.3,5.2-12.4,7.6-18.3C624.3,923.5,625.2,921.2,626.1,918.9z"/>
	<g>
		<path class="st4" d="M719.9,540.4c-13.5-8.3-33.4,7.7-44.4,35.8c-11,28.1-8.9,57.6,4.7,66c13.6,8.3,33.4-7.7,44.4-35.8
			C735.5,578.2,733.5,548.7,719.9,540.4z"/>
		<path class="st4" d="M359.5,540.4c13.6-8.3,33.4,7.7,44.4,35.8c11,28.1,8.9,57.6-4.7,66c-13.6,8.3-33.4-7.7-44.4-35.8
			C343.9,578.2,346,548.7,359.5,540.4z"/>
	</g>
	<path class="st5" d="M539.7,767.3c-33.4,0-64.7-15.9-91.7-41.8l-1,10.8c27.2,26.5,58.8,42.8,92.6,42.8c33.8,0,65.4-16.2,92.6-42.7
		l-1-11C604.4,751.4,573.1,767.3,539.7,767.3z"/>
	<g>
		<path class="st2" d="M463.6,944.1c-25.3-59.3-37.2-102.6-41.9-122.6c-11.6,1.1-28,2.7-46.7,5.2c-14.6,1.9-30.5,4.3-46.6,7.3
			l-12.2,81.7h39.9l-25.6,38.2l88.3,126.6h113.8C519.5,1058.3,490.1,1006.2,463.6,944.1z"/>
		<path class="st2" d="M748.9,953.9l-25.6-38.2h39.9L751,834.1c-16.1-3-32-5.4-46.6-7.3c-18.7-2.5-35-4.2-46.7-5.2
			c-4.7,19.9-16.6,63.2-41.9,122.5c-26.5,62.1-55.9,114.1-69.1,136.4h113.8L748.9,953.9z"/>
	</g>
	<path class="st2" d="M356.2,915.8h-39.9l12.2-81.7c-49.7,9.1-101,23.5-117.9,45.4c-30.8,39.8,0,201.1,0,201.1h208.3l-88.3-126.6
		L356.2,915.8z"/>
	<path class="st2" d="M868.9,879.5c-16.9-21.9-68.2-36.3-117.9-45.4l12.2,81.7h-39.9l25.6,38.2l-88.3,126.6h208.3
		C868.9,1080.6,899.6,919.2,868.9,879.5z"/>
	<g>
		<path class="st14" d="M330.6,953.9l25.6-38.2h-39.9l12.2-81.7c-4.1,0.8-8.2,1.6-12.4,2.4l-13.6,91.2h31.5l-17.7,26.4l88.2,126.5
			h14.5L330.6,953.9z"/>
		<path class="st14" d="M675,1080.6l88.2-126.5l-17.7-26.4H777l-13.6-91.2c-4.1-0.8-8.2-1.6-12.4-2.4l12.2,81.7h-39.9l25.6,38.2
			l-88.3,126.6H675z"/>
	</g>
	<path class="st2" d="M703.9,642.1c0,13.1-10.6,23.8-23.7,23.8c-13.1,0-23.8-10.6-23.8-23.8c0-13.1,10.6-23.7,23.8-23.7
		C693.3,618.4,703.9,629,703.9,642.1z"/>
	<path class="st2" d="M423,642.1c0,13.1-10.6,23.8-23.7,23.8c-13.1,0-23.7-10.6-23.7-23.8c0-13.1,10.6-23.7,23.7-23.7
		C412.4,618.4,423,629,423,642.1z"/>
	<path class="st4" d="M723.8,490.2c0,130.2-82.4,277.1-184.1,277.1c-101.7,0-184.1-146.9-184.1-277.1C355.6,360,438,296,539.7,296
		C641.4,296,723.8,360,723.8,490.2z"/>
	<path class="st8" d="M355.6,490.2c0,130.2,82.4,277.1,184.1,277.1V296C438,296,355.6,360,355.6,490.2z"/>
	<path class="st3" d="M506.4,418.2c0,0,19.4,48.5,216.5,48.6C713.6,352.4,635.1,296,539.7,296C438,296,355.6,360,355.6,490.2
		C434.3,490.2,480.9,451.4,506.4,418.2z"/>
</g>
<path class="st10" d="M1014.7,539.6c0,262.3-212.7,475-475,475c-262.3,0-475-212.7-475-475c0-262.3,212.7-475,475-475
	C802,64.6,1014.7,277.2,1014.7,539.6z"/>
</svg>
