<?xml version="1.0" encoding="utf-8"?>
<!-- Generator: Adobe Illustrator 23.0.1, SVG Export Plug-In . SVG Version: 6.00 Build 0)  -->
<svg version="1.1" id="Layer_1" xmlns="http://www.w3.org/2000/svg" xmlns:xlink="http://www.w3.org/1999/xlink" x="0px" y="0px"
	 viewBox="0 0 1080 1080" style="enable-background:new 0 0 1080 1080;" xml:space="preserve">
<style type="text/css">
	.st0{fill:#FC611F;}
	.st1{fill:#8FC3D8;}
	.st2{fill:#346178;}
	.st3{fill:#FDC00F;}
	.st4{fill:#FEE69F;}
	.st5{opacity:0.1;}
	.st6{fill:#FFFFFF;}
	.st7{fill:#6B92A2;}
	.st8{opacity:0.4;fill:#FFFFFF;}
	.st9{fill:#303030;}
	.st10{fill:none;}
	.st11{fill:#8F6C08;}
	.st12{fill:#595959;}
	.st13{fill:#BFBFBF;}
	.st14{fill:#27495A;}
	.st15{fill:#3F3004;}
	.st16{fill:#BE900B;}
	.st17{opacity:0.5;fill:#FFFFFF;}
</style>
<rect x="-5" class="st0" width="1079" height="1079"/>
<path class="st0" d="M1015,540c0,262.3-212.7,475-475,475c-262.3,0-475-212.7-475-475C65,277.7,277.7,65,540,65
	C802.3,65,1015,277.7,1015,540z"/>
<g>
	<path class="st2" d="M869.1,888c-27.6-35.7-146.3-51.4-201.1-57c-6.4-0.6-11.9-1.1-16.3-1.4c-6.5-0.6-12.2-6.3-12.8-12.8L622.6,631
		H457.4l-16.3,185.7c-0.6,6.5-6.4,12.2-13,12.8c-4.4,0.4-9.8,0.8-16.1,1.4c-54.9,5.6-173.6,21.3-201.2,57c-30.8,39.8,0,201,0,201
		h658.3C869.1,1089,900,927.7,869.1,888z"/>
	<g>
		<path class="st4" d="M720.2,548.8c-13.6-8.3-33.4,7.7-44.4,35.8c-11,28.1-8.9,57.6,4.7,66c13.6,8.3,33.4-7.7,44.4-35.8
			C735.8,586.7,733.7,557.2,720.2,548.8z"/>
		<path class="st4" d="M359.8,548.8c13.6-8.3,33.4,7.7,44.4,35.8c11,28.1,8.9,57.6-4.7,66c-13.6,8.3-33.4-7.7-44.4-35.8
			C344.2,586.7,346.2,557.2,359.8,548.8z"/>
	</g>
	<path class="st4" d="M724.1,498.6c0,130.2-82.4,277.1-184.1,277.1c-101.7,0-184.1-146.9-184.1-277.1
		c0-130.1,82.4-194.2,184.1-194.2C641.7,304.5,724.1,368.5,724.1,498.6z"/>
	<path class="st8" d="M355.9,498.6c0,130.2,82.4,277.1,184.1,277.1V304.5C438.3,304.5,355.9,368.5,355.9,498.6z"/>
	<path class="st9" d="M723.4,451.3c-3.3-17.3-7.6-36.2-16.5-54.6c-8.8-18.4-21.1-36.7-37.9-51.7c-16.6-15.1-37-27.1-59.2-34.8
		c-11.1-3.9-22.6-6.6-34.4-8.7c-5.9-0.7-12-1.6-17.8-2.2l-17.4-0.8c-0.5,0-17.9,0.8-17.9,0.8c-5.9,0.5-11.9,1.4-17.8,2.2
		c-11.8,2-23.2,4.8-34.4,8.7c-22.2,7.7-42.6,19.7-59.2,34.8c-16.7,15-29.1,33.3-37.9,51.7c-8.9,18.5-13.2,37.3-16.5,54.6
		c-1.1,8.7-2.1,17.1-2.7,25.1c-0.1,8.1-0.1,15.7-0.2,22.8c1.3,14.1,1.9,26.4,3.3,36.5c3.9,20,6.1,31.4,6.1,31.4l16.6,3.3
		c0,0-31.6-147.7,60.3-193c30.6-15.1,59.1-12.9,77.7-8.2c12.7,3.2,31.7,3.2,44.5,0c18.7-4.7,47.1-6.9,77.7,8.2
		c91.9,45.3,60.3,193,60.3,193l16.6-3.3c0,0,2.2-11.4,6.1-31.4c1.4-10.1,2-22.4,3.3-36.5c-0.1-7.2-0.1-14.8-0.2-22.8
		C725.5,468.4,724.5,460.1,723.4,451.3z"/>
	<path class="st9" d="M452.7,716.2c0,0,0.2-1.7,0.6-4.9c0.4-3,1.8-10.1,4.2-16.2c2.6-6.4,6.2-13.9,12.1-21.2
		c5.7-7.3,13.3-14.5,22.6-20.6c9.3-6.1,20.3-11.4,32.8-13.7c12.5-2.5,26-2.3,39.6,1.9c13.1,4.5,26,11.6,36.4,22.2
		c10.6,10.1,19.3,23.3,23.7,38.7c1,3.9,1.9,7.8,2.2,12c0.1,1.3,0.3,1.4,0.3,3.7l0,2.6c0,1.8,0.2,3.1-0.2,5.8
		c-0.9,9.7-3.8,17.6-8.6,25.3c-9.6,15.2-24.6,24-38.6,29.1c-14.4,5-28.1,6.8-41.8,6.9c-5.2-0.1-13-0.3-19.1-1.5
		c-6.3-0.9-12.3-2.5-18-4.5c-11.5-4-21.6-10.2-29.3-17.7c-7.7-7.5-12.8-16-15.4-23.4c-2.5-7.4-3.2-13.5-3.4-17.5c0-4,0-6.1,0-6.1
		L452.7,716.2z M477.6,716.9c0,0,0.2,1.3,0.6,3.7c0.4,2.3,1.4,5.6,3.2,9.2c1.9,3.6,5.1,7.4,10,10.7c4.9,3.4,11.5,6.1,19.6,8.1
		c4,0.9,8.3,1.9,13,2.4c4.8,0.6,8.4,1,14.9,1.2c9.7,0.5,20.8-0.4,30.8-3c10.1-2.5,19.4-7.1,25.5-14c3.1-3.2,5.4-8.1,6.5-11.8
		c0.6-1.4,1.3-7.5,1.2-8.2c0.2-2.7,0-5.4-0.3-8.2c-1.4-11.2-6.5-22.6-14-32.1c-7.5-9.5-17.6-16.8-28.3-21.1
		c-10.6-4-22.6-4.9-32.9-2.6c-10.5,2.2-19.5,7.6-26.5,13.7c-14.1,12.6-19.8,27.4-22.1,37c-1.1,5.3-1.2,7.5-1.3,10.9
		c0,3.2,0.1,4.9,0.1,4.9L477.6,716.9z"/>
	<path class="st5" d="M623.2,741.6c-1.3,3.5-3,6.8-5,10.1c-9.6,15.2-24.6,24-38.6,29.1c-14.4,5-28.1,6.8-41.8,6.9
		c-5.2-0.1-13-0.3-19.1-1.5c-6.3-0.9-12.3-2.5-18-4.5c-11.5-4-21.6-10.2-29.3-17.7c-7.4-7.2-12.4-15.4-15.1-22.6
		c-2.7-2.3-5.4-4.8-8-7.3l-0.9,10.8c2.9,2.9,5.9,5.7,9,8.3c2.7,7.2,7.6,15.4,15.1,22.6c7.7,7.5,17.8,13.7,29.3,17.7
		c5.7,2,11.8,3.6,18,4.5c6.1,1.2,13.8,1.4,19.1,1.5c13.7-0.1,27.4-1.9,41.8-6.9c14-5.1,29-13.9,38.6-29.1c2.1-3.3,3.7-6.6,5-10.1
		c3.2-2.7,6.3-5.6,9.4-8.6l-1-10.8C628.9,736.6,626.1,739.1,623.2,741.6z"/>
</g>
<path class="st10" d="M1015,540c0,262.3-212.7,475-475,475c-262.3,0-475-212.7-475-475C65,277.7,277.7,65,540,65
	C802.3,65,1015,277.7,1015,540z"/>
</svg>
