<?xml version="1.0" encoding="utf-8"?>
<!-- Generator: Adobe Illustrator 23.0.1, SVG Export Plug-In . SVG Version: 6.00 Build 0)  -->
<svg version="1.1" id="Layer_1" xmlns="http://www.w3.org/2000/svg" xmlns:xlink="http://www.w3.org/1999/xlink" x="0px" y="0px"
	 viewBox="0 0 1080 1080" style="enable-background:new 0 0 1080 1080;" xml:space="preserve">
<style type="text/css">
	.st0{fill:#FC611F;}
	.st1{fill:#8FC3D8;}
	.st2{fill:#346178;}
	.st3{fill:#FDC00F;}
	.st4{fill:#FEE69F;}
	.st5{opacity:0.1;}
	.st6{fill:#FFFFFF;}
	.st7{fill:#6B92A2;}
	.st8{opacity:0.4;fill:#FFFFFF;}
	.st9{fill:#303030;}
	.st10{fill:none;}
	.st11{fill:#8F6C08;}
	.st12{fill:#595959;}
	.st13{fill:#BFBFBF;}
	.st14{fill:#27495A;}
	.st15{fill:#3F3004;}
	.st16{fill:#BE900B;}
	.st17{opacity:0.5;fill:#FFFFFF;}
</style>
<rect x="-5" class="st0" width="1079" height="1079"/>
<path class="st0" d="M1015,596c0,262.3-212.7,475-475,475c-262.3,0-475-212.7-475-475c0-262.3,212.7-475,475-475
	C802.3,121,1015,333.7,1015,596z"/>
<g>
	<path class="st4" d="M763.6,832.9c-4.3-0.9-8.3-1.6-12.4-2.4c-16.1-3-32-5.4-46.6-7.3c-18.7-2.5-35-4.2-46.7-5.2
		c5.5,0.5,0.3,0-6.2-0.5c-6.5-0.6-12.3-6.2-12.9-12.7l-16.3-185.8H457.4l-16.3,185.8c-0.6,6.5-5.1,12.1-10,12.5
		c-2.5,0.2-5.6,0.5-9,0.8c-11.6,1.1-28,2.7-46.7,5.2c-14.6,1.9-30.5,4.3-46.6,7.3c-4,0.8-8.1,1.5-12.1,2.4
		c-45.8,9.2-90.2,23-105.8,43.1c-30.8,39.8,0,201.1,0,201.1h658.3c0,0,30.8-161.3,0-201.1C853.6,855.8,809.2,842.1,763.6,832.9z"/>
	<g>
		<path class="st4" d="M720.2,536.8c-13.5-8.3-33.4,7.7-44.4,35.8c-11,28.1-8.9,57.6,4.6,65.9c13.6,8.3,33.4-7.7,44.4-35.8
			C735.8,574.6,733.7,545.1,720.2,536.8z"/>
		<path class="st4" d="M359.8,536.8c13.5-8.3,33.4,7.7,44.4,35.8c11,28.1,8.9,57.6-4.7,65.9c-13.5,8.3-33.4-7.7-44.4-35.8
			C344.2,574.6,346.2,545.1,359.8,536.8z"/>
	</g>
	<path class="st5" d="M540,763.7c-33.4,0-64.7-15.9-91.7-41.8l-0.9,10.8c27.2,26.5,58.8,42.8,92.6,42.8c33.8,0,65.4-16.2,92.6-42.7
		l-1-11C604.7,747.8,573.4,763.7,540,763.7z"/>
	<g>
		<path class="st1" d="M704.2,638.6c0,13.1-10.6,23.8-23.8,23.8c-13.1,0-23.8-10.6-23.8-23.8c0-13.1,10.7-23.7,23.8-23.7
			C693.5,614.8,704.2,625.5,704.2,638.6z"/>
		<path class="st1" d="M423.3,638.6c0,13.1-10.6,23.8-23.8,23.8c-13.1,0-23.8-10.6-23.8-23.8c0-13.1,10.7-23.7,23.8-23.7
			C412.7,614.8,423.3,625.5,423.3,638.6z"/>
	</g>
	<path class="st4" d="M724.1,486.6c0,130.2-82.4,277.1-184.1,277.1c-101.7,0-184.1-146.9-184.1-277.1
		c0-130.1,82.4-194.2,184.1-194.2C641.7,292.4,724.1,356.5,724.1,486.6z"/>
	<path class="st8" d="M540,292.4c-101.7,0-184.1,64-184.1,194.2c0,130.2,82.4,277.1,184.1,277.1V292.4z"/>
	<path class="st11" d="M725.9,463.1c-0.8-7.9-1.5-16.3-2.9-24.9c-3.2-17.1-7.8-35.6-16.4-53.9c-8.7-18.1-20.9-36.2-37.4-51.1
		c-16.3-15-36.4-26.9-58.3-34.7c-21.9-7.8-45.5-11.7-68.9-11.9c-23.1,0-47.2,3.3-69.1,10.7c-22,7.3-42.4,18.7-59.1,33.2
		c-16.8,14.5-29.8,32-38.8,50.1c-8.5,18.2-14.6,36.4-17.3,53.6c-3.3,17.1-3.9,33.1-3.8,47.2c0.2,14.2,1.8,26.1,2.3,36.2
		c3.5,19.8,5.5,31.1,5.5,31.1c-0.1-9.5,0.7-36.5,12.5-57.7c25.5,15.4,55.1,27.2,87.4,34.6c0.1-0.2,0.2-0.3,0.4-0.5
		c1.2-2.3,3.2-4.7,4.1-7.5l1.6-4.2c0.7-1.4,0.7-2.9,1-4.3c0.4-2.9,1.3-5.7,0.9-8.1c-0.3-5-0.5-8.3-0.5-8.3s1.6,3,4.1,7.5
		c1.5,2.3,2,5.3,3,8.6c0.4,1.7,1.1,3.4,1.1,5.2l0.4,5.6c0.4,3.2-0.1,6.3-0.4,9.4c20.1,3.6,41,5.7,62.6,5.7c2.2,0,4.4-0.2,6.6-0.2
		c0.1-0.1,0.1-0.1,0.2-0.2c0.8-0.5,1.9-1.5,3.3-3.2c1.5-1.5,2.8-3.6,4.4-5.8c1.1-2.3,3-4.9,3.7-7.7l1.4-4.3c0.6-1.5,0.5-2.9,0.8-4.3
		c0.2-2.9,0.9-5.8,0.4-8.1c-0.6-5-0.9-8.3-0.9-8.3s1.8,2.9,4.5,7.3c1.7,2.2,2.3,5.2,3.5,8.4c0.5,1.6,1.3,3.3,1.4,5.1l0.7,5.5
		c0.6,3.8,0,7.5,0,11.3c-0.2,1-0.4,2-0.5,3.1c45.2-3.8,87-16,122.2-34.5c23,13,25.6,52.5,25.7,53.9c0,0,2.1-11.3,5.8-31
		c1.1-10,2.1-22.1,3.1-36.4C726.1,478.4,726,470.9,725.9,463.1z"/>
	<path class="st11" d="M604.6,437.6c0,0-1.4-2.5-3.5-7.3c-1.9-5-5-12.6-7.1-22.4c-4.6-19.7-7.5-48.9-2.1-84
		c2.8-17.5,7.6-36.5,16.1-56.3c8.8-19.6,20.6-40.7,41-59.7c10.1-9.5,22.3-18.4,37-25c14.6-6.7,31.3-10.8,48.1-11.3
		c16.9-0.7,33.3,2,48,6.8l5.5,1.9l2.7,1l1.3,0.5l0.7,0.3l0.3,0.1l3.2,1.4l7.1,3.3c3.2,1.1,13.4,7,21.2,12.2c4.2,2.7,7,5.7,10.5,8.6
		c3.3,3,6.7,5.8,9.6,9.5c3,3.5,6,7.1,8.8,10.7c2.6,3.9,5,7.9,7.4,11.9c9,16.2,13.4,34,14.7,49.5c1.3,15.4,0.4,29.8-1.9,42.1
		c-2.1,12.7-4.9,24-8.3,34.6c-6.6,21.1-14.6,39.1-21.8,55.5c-7.4,16.3-14.2,30.9-19.7,44c-5.5,13.1-9.5,24.7-11.4,34.9
		c-2,10.2-1.6,19.2,0.5,27.2c1.1,3.9,2.4,7.6,4.1,10.6c1.5,3.2,3,5.9,4.6,7.9c3,4.4,4.6,6.7,4.6,6.7c-43.5-5.6-83.7-64.5-87.3-105.8
		c-2.2-25.1,6-48.4,1.3-73.8c-5.6-30.8-28.9-77.5-68.2-63.7c-26.1,9.1-46.2,76.4-56.3,100.2c-3.6,8.6-6.5,15.4-8.1,20.3
		C605.6,434.9,604.6,437.6,604.6,437.6z"/>
	<path class="st1" d="M869.2,875.9c-15.2-19.6-57.9-33.2-102.4-42.4C750.3,902.7,655.2,955.9,540,955.9
		c-115.2,0-210.3-53.1-226.8-122.3c-44.6,9.2-87.2,22.8-102.4,42.4c-30.8,39.8,0,201.1,0,201.1h658.3
		C869.2,1077,899.9,915.7,869.2,875.9z"/>
	<path class="st1" d="M656.3,328.4c-1.2,0-2.5-0.4-3.5-1.2c-13.2-9.8-28-17.6-43.9-23.2c-4-1.4-8-2.7-12.1-3.9
		c-3.2-0.9-5-4.2-4.1-7.3c0.9-3.2,4.2-5,7.3-4.1c4.3,1.2,8.6,2.6,12.8,4.1c17,6,32.8,14.4,47,24.8c2.6,1.9,3.2,5.7,1.2,8.3
		C659.9,327.6,658.1,328.4,656.3,328.4z"/>
</g>
<path class="st10" d="M1015,596c0,262.3-212.7,475-475,475c-262.3,0-475-212.7-475-475c0-262.3,212.7-475,475-475
	C802.3,121,1015,333.7,1015,596z"/>
</svg>
