<?xml version="1.0" encoding="utf-8"?>
<!-- Generator: Adobe Illustrator 23.0.1, SVG Export Plug-In . SVG Version: 6.00 Build 0)  -->
<svg version="1.1" id="Layer_1" xmlns="http://www.w3.org/2000/svg" xmlns:xlink="http://www.w3.org/1999/xlink" x="0px" y="0px"
	 viewBox="0 0 1080 1080" style="enable-background:new 0 0 1080 1080;" xml:space="preserve">
<style type="text/css">
	.st0{fill:#FC611F;}
	.st1{fill:#8FC3D8;}
	.st2{fill:#346178;}
	.st3{fill:#FDC00F;}
	.st4{fill:#FEE69F;}
	.st5{opacity:0.1;}
	.st6{fill:#FFFFFF;}
	.st7{fill:#6B92A2;}
	.st8{opacity:0.4;fill:#FFFFFF;}
	.st9{fill:#303030;}
	.st10{fill:none;}
	.st11{fill:#8F6C08;}
	.st12{fill:#595959;}
	.st13{fill:#BFBFBF;}
	.st14{fill:#27495A;}
	.st15{fill:#3F3004;}
	.st16{fill:#BE900B;}
	.st17{opacity:0.5;fill:#FFFFFF;}
</style>
<rect class="st2" width="1079" height="1079"/>
<g>
	<g>
		<path class="st4" d="M651.8,822.5c-6.5-0.6-12.2-6.3-12.8-12.8L622.6,624H457.4l-16.3,185.7c-0.6,6.5-6.4,12.2-13,12.8
			c-4.4,0.4-9.8,0.8-16.1,1.4c0,0,0,0,0.1,0.1c0.6,1.3,5.6,11.6,15,24.7c5,7.1,11.1,15,18.1,23c6.8,8.2,14.5,16.5,22.4,24.5
			c8,8.1,16.4,15.7,24.6,22.5c8.1,6.9,15.9,13.1,23,17.9c13.9,10,24.6,15.1,24.7,15.2h0.1c0,0,0,0,0.1-0.1
			c1.2-0.7,11.5-5.7,24.6-15.1c7.1-4.9,15.1-11.1,23.2-17.9c8.1-6.8,16.5-14.4,24.5-22.5c8.1-8,15.7-16.3,22.6-24.5
			c6.9-8.1,12.9-15.9,17.9-23c9.4-13.1,14.5-23.4,15.1-24.7c0.1-0.1,0.1-0.1,0.1-0.1C661.6,823.4,656.2,822.9,651.8,822.5z"/>
		<g>
			<path class="st4" d="M720.2,541.8c-13.6-8.3-33.4,7.7-44.4,35.8c-11,28.1-8.9,57.6,4.7,66c13.6,8.3,33.4-7.7,44.4-35.8
				C735.8,579.7,733.7,550.2,720.2,541.8z"/>
			<path class="st4" d="M359.8,541.8c13.6-8.3,33.4,7.7,44.4,35.8c11,28.1,8.9,57.6-4.7,66c-13.6,8.3-33.4-7.7-44.4-35.8
				C344.2,579.7,346.2,550.2,359.8,541.8z"/>
		</g>
		<path class="st4" d="M724.1,491.7c0,130.1-82.4,277.1-184.1,277.1c-101.7,0-184.1-147-184.1-277.1c0-130.1,82.4-194.2,184.1-194.2
			C641.7,297.5,724.1,361.5,724.1,491.7z"/>
		<path class="st5" d="M540,768.7c-33.4,0-64.7-15.9-91.7-41.8l-1,10.8c27.2,26.5,58.8,42.8,92.6,42.8c33.8,0,65.4-16.3,92.6-42.7
			l-1-11C604.7,752.8,573.4,768.7,540,768.7z"/>
		<path class="st0" d="M869.1,881c30.9,39.8,0,201.1,0,201.1H210.9c0,0-30.8-161.3,0-201.1c27.6-35.7,146.3-51.4,201.2-57
			c0,0,0,0,0.1,0.1c0.6,1.3,5.6,11.6,15,24.7c5,7.1,11.1,15,18.1,23c6.8,8.2,14.5,16.5,22.4,24.5c8,8.1,16.4,15.7,24.6,22.5
			c8.1,6.9,15.9,13.1,23,17.9c13.9,10,24.6,15.1,24.7,15.2h0.1c0,0,0,0,0.1-0.1c1.2-0.7,11.5-5.7,24.6-15.1
			c7.1-4.9,15.1-11.1,23.2-17.9c8.1-6.8,16.5-14.4,24.5-22.5c8.1-8,15.7-16.3,22.6-24.5c6.9-8.1,12.9-15.9,17.9-23
			c9.4-13.1,14.5-23.4,15.1-24.7c0.1-0.1,0.1-0.1,0.1-0.1C722.8,829.5,841.5,845.2,869.1,881z"/>
	</g>
	<path class="st8" d="M540,297.5v471.3c-101.7,0-184.1-147-184.1-277.1C355.9,361.5,438.3,297.5,540,297.5z"/>
	<path class="st11" d="M726.1,469.5c-0.5-8-1.6-16.5-2.6-25.2c-3.3-17.3-7.6-36.2-16.5-54.6c-8.8-18.4-21.1-36.7-37.9-51.7
		c-16.6-15.1-37-27.1-59.2-34.8c-22.3-7.8-45.8-11.4-70.1-11.6l-17.4,0.8c-5.9,0.5-11.9,1.5-17.8,2.2c-11.8,2-23.2,4.8-34.4,8.7
		c-22.2,7.7-42.6,19.7-59.2,34.8c-16.7,15-29.1,33.3-37.9,51.7c-8.9,18.5-13.2,37.3-16.5,54.6c-1.1,8.7-2.1,17.1-2.7,25.1
		c-0.1,8-0.1,15.7-0.2,22.8c1.3,14.1,1.9,26.4,3.3,36.5c3.9,20,6.1,31.4,6.1,31.4l16.6,3.3c0,0,4.7-148.4,60.3-169.2
		c55.6-20.8,100,0,100,0s44.3-20.8,100,0c55.6,20.8,60.3,169.2,60.3,169.2l16.6-3.3c0,0,2.2-11.4,6-31.3c1.4-10.1,2-22.5,3.3-36.7
		C726.2,485.1,726.1,477.5,726.1,469.5z"/>
</g>
<path class="st10" d="M1015,540c0,262.3-212.7,475-475,475c-262.3,0-475-212.7-475-475C65,277.7,277.7,65,540,65
	C802.3,65,1015,277.7,1015,540z"/>
</svg>
