<svg width="32" height="27" viewBox="0 0 32 27" fill="none" xmlns="http://www.w3.org/2000/svg">
<path d="M32 3.08573C30.8232 3.60718 29.5591 3.95951 28.2301 4.11876C29.6013 3.29824 30.6272 2.00685 31.1164 0.485536C29.828 1.25078 28.418 1.78943 26.9476 2.07807C25.9588 1.0223 24.6491 0.322515 23.2218 0.0873671C21.7945 -0.147781 20.3296 0.0948611 19.0543 0.777622C17.7791 1.46038 16.7649 2.54506 16.1693 3.86326C15.5737 5.18145 15.43 6.65941 15.7604 8.06767C13.1499 7.9366 10.5961 7.25809 8.26485 6.07617C5.93354 4.89425 3.87681 3.23535 2.22813 1.20711C1.66441 2.17954 1.34026 3.30699 1.34026 4.50773C1.33963 5.58867 1.60582 6.65306 2.11522 7.60645C2.62461 8.55984 3.36145 9.37276 4.26037 9.97307C3.21787 9.9399 2.19836 9.65821 1.28671 9.15144V9.236C1.2866 10.7521 1.81102 12.2215 2.77098 13.3949C3.73094 14.5683 5.06731 15.3735 6.55333 15.6738C5.58624 15.9355 4.57231 15.9741 3.58813 15.7865C4.0074 17.091 4.82409 18.2317 5.92389 19.049C7.02368 19.8662 8.35151 20.3191 9.72148 20.3443C7.39587 22.1699 4.52376 23.1602 1.56716 23.1558C1.04343 23.156 0.520146 23.1254 0 23.0642C3.00111 24.9938 6.49462 26.0179 10.0625 26.0139C22.1404 26.0139 28.7431 16.0106 28.7431 7.33483C28.7431 7.05296 28.736 6.76828 28.7233 6.48642C30.0076 5.55764 31.1162 4.40752 31.9972 3.08996L32 3.08573V3.08573Z" fill="white"/>
</svg>
