<svg width="118" height="118" viewBox="0 0 118 118" fill="none" xmlns="http://www.w3.org/2000/svg">
<path d="M13.4594 99.1937H104.541C106.016 99.1937 107.122 98.0875 107.122 96.6125V35.7687C107.122 34.2937 106.016 33.1875 104.541 33.1875H13.4594C12.1688 33.1875 11.0625 34.2937 11.0625 35.7687V96.6125C11.0625 98.0875 12.1688 99.1937 13.4594 99.1937Z" fill="#212528"/>
<path d="M3.6875 108.228C3.6875 111.178 6.08437 114.312 9.21875 114.312H108.781C111.731 114.312 114.312 111.178 114.312 108.228H3.6875Z" fill="#212528"/>
<path d="M105.094 99.1938H12.9062L3.6875 108.228H114.312L105.094 99.1938Z" fill="#DDDDDD"/>
<path d="M101.959 99.9312H16.0406L12.9062 103.619H105.094L101.959 99.9312Z" fill="#BFBEBE"/>
<path d="M68.4033 105.278H49.5971L48.1221 107.306H69.8783L68.4033 105.278Z" fill="#212528"/>
<path d="M16.5938 38.7188H101.406V93.6625H16.5938V38.7188Z" fill="#3E4347"/>
<path d="M59.0004 37.6126C59.815 37.6126 60.4754 36.9522 60.4754 36.1376C60.4754 35.323 59.815 34.6626 59.0004 34.6626C58.1858 34.6626 57.5254 35.323 57.5254 36.1376C57.5254 36.9522 58.1858 37.6126 59.0004 37.6126Z" fill="#DDDDDD"/>
<path d="M66.9283 112.1H51.0721C50.5189 112.1 49.0439 112.1 49.0439 110.256H68.9565C68.9565 112.1 67.4814 112.1 66.9283 112.1" fill="#3E4347"/>
</svg>
