<?xml version="1.0" encoding="utf-8"?>
<!-- Generator: Adobe Illustrator 23.0.1, SVG Export Plug-In . SVG Version: 6.00 Build 0)  -->
<svg version="1.1" id="Layer_1" xmlns="http://www.w3.org/2000/svg" xmlns:xlink="http://www.w3.org/1999/xlink" x="0px" y="0px"
	 viewBox="0 0 3000 2000" style="enable-background:new 0 0 3000 2000;" xml:space="preserve">
<style type="text/css">
	.st0{opacity:0.4;}
	.st1{fill:#EBEBEB;}
	.st2{fill:#C9C9C9;}
	.st3{fill:#1B1B43;}
	.st4{fill:#FFFFFF;}
	.st5{fill:none;}
	.st6{fill:#263238;}
	.st7{fill:#3A4A51;}
	.st8{fill:#00858E;}
	.st9{fill:#FFBC96;}
	.st10{fill:#D28572;}
	.st11{fill:#925D4F;}
	.st12{fill:#FFC93C;}
	.st13{fill:none;stroke:#1B1B43;stroke-width:4.2942;stroke-linecap:round;stroke-linejoin:round;stroke-miterlimit:10;}
</style>
<g id="BACKGROUND">
</g>
<g>
	<g class="st0">
		<path class="st1" d="M2739.8,1097.4c-54.6,214.1-161.8,429-352.3,541c-26.5,15.6-54.1,28.9-82.5,40.3H361.3
			c-89.8-121.3-142.3-269.7-149-420.4c-5.1-115.2,18.8-236.8,93.4-324.7c100.7-118.5,270.9-151.5,426.4-146.4
			c155.5,5.1,310.3,40.3,465.3,26.6c186.4-16.6,358.6-102.5,526.1-186s341.2-167.4,528-179.4c186.8-11.9,392,65.6,475.9,232.9
			C2791,808.1,2774.8,960,2739.8,1097.4z"/>
	</g>
	<g class="st0">
		<path class="st1" d="M1536.9,497c-35.7,105.9-99.5,160.4-183.9,170.9c-84.3,10.4-168.4-8.5-252.7-5.1
			c-58.4,2.4-119.2-3.6-157.5-55.5c-40.5-54.9-78.8-149.3-40.3-215.9c37.5-64.9,122.4-82.2,182.4-46.7
			c22.3,13.2,48.5,34.8,75.3,33.3c43.2-2.4,84.6-27.7,125-52.3c40.4-24.6,82.1-49.2,125.2-50.1
			C1520.9,273.3,1571.4,394.6,1536.9,497z"/>
	</g>
</g>
<g>
	<path class="st2" d="M1277.7,1265.4c-8.6,0-15.6-7.2-15.6-16s7-16,15.6-16c8.6,0,15.6,7.2,15.6,16S1286.3,1265.4,1277.7,1265.4z
		 M1277.7,1237.8c-6.2,0-11.3,5.2-11.3,11.7s5.1,11.7,11.3,11.7c6.2,0,11.3-5.2,11.3-11.7S1283.9,1237.8,1277.7,1237.8z"/>
	<path class="st2" d="M160.8,1016.5c-10.7,0-19.4-9.2-19.4-20.5s8.7-20.5,19.4-20.5c10.7,0,19.4,9.2,19.4,20.5
		C180.3,1007.3,171.6,1016.5,160.8,1016.5z M160.8,979.7c-8.3,0-15.1,7.3-15.1,16.2s6.8,16.2,15.1,16.2c8.4,0,15.1-7.3,15.1-16.2
		C176,987,169.2,979.7,160.8,979.7z"/>
	<ellipse class="st2" cx="962.4" cy="1471.5" rx="15" ry="14.9"/>
	<ellipse class="st2" cx="2859.7" cy="941.8" rx="19.3" ry="19.2"/>
	<path class="st2" d="M1604.6,832.5c-10.3,0-18.7-8.8-18.7-19.6s8.4-19.6,18.7-19.6s18.7,8.8,18.7,19.6
		C1623.3,823.7,1614.9,832.5,1604.6,832.5z M1604.6,797.6c-7.9,0-14.4,6.9-14.4,15.3s6.5,15.3,14.4,15.3s14.4-6.9,14.4-15.3
		S1612.5,797.6,1604.6,797.6z"/>
	<path class="st2" d="M2137.7,966.9l-21.2-21.7l21.6-22.2l21.2,21.7L2137.7,966.9z M2122.5,945.2l15.2,15.6l15.6-16l-15.2-15.6
		L2122.5,945.2z"/>
	
		<rect x="271.4" y="716.2" transform="matrix(0.7071 -0.7071 0.7071 0.7071 -432.4214 415.405)" class="st2" width="27.6" height="27"/>
	<path class="st2" d="M791.7,1282.4l-21.2-21.7l21.7-22.2l21.2,21.7L791.7,1282.4z M776.5,1260.7l15.2,15.6l15.7-16l-15.2-15.6
		L776.5,1260.7z"/>
	<path class="st2" d="M2792.6,607l-19-19l19.4-19.4l19,19L2792.6,607z M2779.7,588l12.9,12.9l13.3-13.3l-12.9-12.9L2779.7,588z"/>
	<g>
		<path class="st2" d="M1427.7,1305.4h-203.8c-1.2,0-2.2-1-2.2-2.2s1-2.2,2.2-2.2h203.8c1.2,0,2.2,1,2.2,2.2
			S1428.9,1305.4,1427.7,1305.4z"/>
		<path class="st2" d="M1262.4,1349.4h-38.6c-1.2,0-2.2-1-2.2-2.2s1-2.2,2.2-2.2h38.6c1.2,0,2.2,1,2.2,2.2
			S1263.6,1349.4,1262.4,1349.4z"/>
		<path class="st2" d="M1373.4,1349.4h-79.8c-1.2,0-2.2-1-2.2-2.2s1-2.2,2.2-2.2h79.8c1.2,0,2.2,1,2.2,2.2
			S1374.6,1349.4,1373.4,1349.4z"/>
		<path class="st2" d="M1427.7,1393.4h-203.8c-1.2,0-2.2-1-2.2-2.2s1-2.2,2.2-2.2h203.8c1.2,0,2.2,1,2.2,2.2
			S1428.9,1393.4,1427.7,1393.4z"/>
	</g>
</g>
<g>
	<path class="st3" d="M1919.9,1682.4c-1.2,0-2.2-1-2.2-2.2v-341.7c0-1.2,1-2.2,2.2-2.2s2.2,1,2.2,2.2v341.7
		C1922,1681.5,1921.1,1682.4,1919.9,1682.4z"/>
	<g>
		<path class="st4" d="M1991,1680.3h-142.2v-0.7c0-16.4,13.3-29.8,29.8-29.8h82.6c16.4,0,29.8,13.3,29.8,29.8L1991,1680.3
			L1991,1680.3z"/>
		<path class="st3" d="M1992.6,1681.9h-145.4v-2.3c0-17.3,14.1-31.4,31.4-31.4h82.6c17.3,0,31.4,14.1,31.4,31.4V1681.9z
			 M1850.4,1678.7h138.9c-0.5-15.1-12.9-27.3-28.2-27.3h-82.6C1863.4,1651.4,1850.9,1663.6,1850.4,1678.7z"/>
	</g>
	<path class="st2" d="M2015.6,1353.1h-191.4v-35.3h156.9c19.1,0,34.5,15.4,34.5,34.5V1353.1z"/>
</g>
<g>
	<polygon class="st2" points="1642.1,1598.5 1649.5,1680.3 1537.5,1680.3 1587.5,1631.2 1586.9,1599.1 	"/>
	<g>
		<line class="st5" x1="1578.3" y1="1639.2" x2="1594.9" y2="1647.2"/>
		<path class="st3" d="M1594.9,1649.4c-0.3,0-0.6-0.1-0.9-0.2l-16.6-8.1c-1.1-0.5-1.5-1.8-1-2.9c0.5-1.1,1.8-1.5,2.9-1l16.6,8.1
			c1.1,0.5,1.5,1.8,1,2.9C1596.5,1648.9,1595.7,1649.4,1594.9,1649.4z"/>
	</g>
	<g>
		<line class="st5" x1="1567.5" y1="1651" x2="1584.2" y2="1659"/>
		<path class="st3" d="M1584.2,1661.2c-0.3,0-0.6-0.1-0.9-0.2l-16.6-8.1c-1.1-0.5-1.5-1.8-1-2.9c0.5-1.1,1.8-1.5,2.9-1l16.6,8.1
			c1.1,0.5,1.5,1.8,1,2.9C1585.7,1660.7,1585,1661.2,1584.2,1661.2z"/>
	</g>
	<path class="st3" d="M1615.3,1681c-1.1,0-2-0.8-2.1-1.9c-1-10.1,2.7-19,10.3-24.9c7.2-5.6,16.9-7.6,24.1-4.9
		c1.1,0.4,1.7,1.6,1.3,2.8c-0.4,1.1-1.6,1.7-2.8,1.3c-5.8-2.1-14.1-0.3-20,4.3c-6.4,5-9.5,12.5-8.6,21.1c0.1,1.2-0.8,2.2-1.9,2.3
		C1615.4,1681,1615.4,1681,1615.3,1681z"/>
</g>
<path class="st6" d="M1795.7,1230.9l-137.3,32.6c-48,13.3-81.8,57.3-83.3,108.8l-3.1,242.5l86.2,1.2l43.7-251.4L1795.7,1230.9z"/>
<g>
	<polygon class="st2" points="1838.8,1580.7 1900.8,1655.7 1810.5,1724.4 1823.3,1654.4 1794.8,1615 	"/>
	<g>
		<line class="st5" x1="1822.6" y1="1661.2" x2="1840.7" y2="1657.6"/>
		<path class="st3" d="M1822.6,1663.4c-1,0-1.9-0.7-2.1-1.7c-0.2-1.2,0.5-2.3,1.7-2.5l18.1-3.7c1.2-0.2,2.3,0.5,2.5,1.7
			s-0.5,2.3-1.7,2.5l-18.1,3.7C1822.9,1663.4,1822.7,1663.4,1822.6,1663.4z"/>
	</g>
	<g>
		<line class="st5" x1="1821.2" y1="1677.1" x2="1839.3" y2="1673.5"/>
		<path class="st3" d="M1821.2,1679.3c-1,0-1.9-0.7-2.1-1.7c-0.2-1.2,0.5-2.3,1.7-2.5l18.1-3.7c1.2-0.2,2.3,0.5,2.5,1.7
			s-0.5,2.3-1.7,2.5l-18.1,3.7C1821.5,1679.3,1821.3,1679.3,1821.2,1679.3z"/>
	</g>
	<path class="st3" d="M1881,1671.9c-0.4,0-0.8-0.1-1.2-0.4c-7.8-5.2-10.4-16.6-9.5-25c0.8-7.9,4.5-13.8,10-16
		c1.1-0.4,2.3,0.1,2.8,1.2c0.4,1.1-0.1,2.3-1.2,2.8c-3.9,1.6-6.7,6.2-7.3,12.4c-0.8,7.3,1.6,16.9,7.7,20.9c1,0.7,1.3,2,0.6,3
		C1882.4,1671.6,1881.7,1671.9,1881,1671.9z"/>
</g>
<path class="st7" d="M1962,1253.4l-10.8,44.1c-0.7,3.3-2.1,7-3.9,10.8c-9.6,19.7-27.8,32.5-47.8,35.2l-141,39.1l119.2,210.4
	l-75.2,51.5l-139.9-198.6c-31.8-45.6-21.9-111.8,21.6-143.4c14.9-10.8,26.3-18.6,28-18.2l98.6-54.2L1962,1253.4z"/>
<path class="st8" d="M1696.2,1168.2l-3,87.6c84.2-14.4,179.4-21,268.7-2.3c17.9-39.1,11.9-70.8-3.7-107.1L1696.2,1168.2z"/>
<path class="st8" d="M1675.5,1199.4c0,0-73.3,6.4-85.2-45.6c-8.9-38.6,24-99.1,53.4-143.3c23.4-35.1,55.1-62,91.3-77.8l41.3-18
	l58.9,21.2l93.9,57.1l23.6,202.3C1952.7,1195.4,1674.1,1199.4,1675.5,1199.4z"/>
<g>
	<path class="st9" d="M1883.9,1126.4l-13.6,2.2c-12,1.9-30.7,5.8-42.9,9.4c-26.6,7.8-37.8,39.2-37.8,39.2l24.4,1.5l42.4-18.3
		l33.9,1.6L1883.9,1126.4z"/>
	<g>
		<path class="st10" d="M1808.8,1176.7c-0.3,0-0.7-0.2-0.9-0.5c-0.3-0.5-0.2-1.2,0.3-1.5l21.2-14.2c0.5-0.3,1.2-0.2,1.5,0.3
			s0.2,1.2-0.3,1.5l-21.2,14.2C1809.2,1176.7,1809,1176.7,1808.8,1176.7z"/>
		<path class="st10" d="M1799.7,1176.2c-0.3,0-0.6-0.1-0.8-0.3c-0.4-0.4-0.4-1.1,0-1.5l16.4-16.4c0.4-0.4,1.1-0.4,1.5,0
			s0.4,1.1,0,1.5l-16.4,16.4C1800.2,1176.1,1800,1176.2,1799.7,1176.2z"/>
	</g>
</g>
<path class="st8" d="M1807.4,912.5l66.1,17c17.7,4.8,40.3,16.7,51.7,27.9c30.7,30.1,86.6,108.8,90.2,160.3
	c1.9,26.9-15.5,49-49.1,53.8l-73.8,10.7l-22.4-53.9l67.9-17.2l-61.9-99.3L1807.4,912.5z"/>
<path class="st3" d="M1891.8,1183.4l-23-55.7l67.5-17.4l-65.3-104.1c-0.3-0.5-0.2-1.2,0.3-1.5s1.2-0.2,1.5,0.3l66.9,106.6
	l-67.9,17.5l21.4,51.8l73-10.5c0.6-0.1,1.1,0.3,1.2,0.9c0.1,0.6-0.3,1.1-0.9,1.2L1891.8,1183.4z"/>
<path class="st3" d="M1788.1,977.2c-13.9,0-27.9-5.7-39-16.1c-0.4-0.4-0.4-1.1-0.1-1.5c0.4-0.4,1.1-0.5,1.5,0
	c12,11.2,27.4,16.8,42.3,15.3c15.5-1.6,29.3-10.3,39.8-25.2c0.3-0.5,1-0.6,1.5-0.3c0.5,0.3,0.6,1,0.3,1.5
	c-10.9,15.4-25.2,24.4-41.3,26.1C1791.5,977.2,1789.8,977.2,1788.1,977.2z"/>
<path class="st3" d="M1687.6,1070.9c-0.2,0-0.3,0-0.5-0.1c-0.5-0.3-0.8-0.9-0.5-1.4l27.2-58c0.3-0.5,0.9-0.8,1.4-0.5
	s0.8,0.9,0.5,1.4l-27.2,58C1688.4,1070.7,1688,1070.9,1687.6,1070.9z"/>
<path class="st3" d="M1714.7,797.3c-4-6.3-5.3-14.3-3.3-21.5s7.1-13.5,13.8-16.9c5.3-2.7,12.7-3.1,16.5,1.5
	c8.9-8.8,24.1-10,34.3-2.8c3.1,2.2,11.5-2.6,14.6-3.4c6.2-1.5,12.3-0.7,17.3,3.8c4.1,3.8,6,10.3,3.4,15.3c3-5.8,24,1.8,27.3,4.4
	c16.4,12.8,15.4,40.8,1.8,55.2c-2.7,2.8-6.8,4.8-7.9,8.6c-1.3,4.7-2.3,2.5-0.7,7.1c5.5,15.4-7.2,31.9-23.4,30.7L1714.7,797.3z"/>
<path class="st9" d="M1795.3,959.8c-17.9,3.9-35.2-8.1-38.6-26.8l-1.1-5.8l-7.2-38.7l-0.6-3l64.8-14l8.8,47.5
	C1824.9,937.7,1813.2,955.9,1795.3,959.8z"/>
<path class="st10" d="M1801.3,889.2c-9.2,18-24,31-45.8,38l-7.2-38.7L1801.3,889.2z"/>
<path class="st9" d="M1787.3,899.8c-26.9,12.2-51.8,6.7-58.6-30.1c-1.3-6.9-1.9-14.9-1.8-24.2c0-2.6,0.1-5.3,0.3-8.1
	c1.3-25.2-5.8-36.3,0.9-44.8c11.9-15.1,30.6-8.7,46.5-8.7c25.5,0,42.5,12.8,44.1,46.6C1820,857.6,1815.3,887.2,1787.3,899.8z"/>
<path class="st3" d="M1718.7,782.5c-19.5,4.9-11.7,35,6.1,36.5c7.8,0.7,22.9-7.6,23.1-17.4c-0.1,8.1,5.7,15.8,13.2,17.4
	c7.5,1.6,15.7-3.1,18.6-10.6c1.2,4.3,4.5,7.8,8.5,9.3c4,1.4,8.7,0.6,12.1-2c-2.4,7.9,1.8,16.7,8,21.8s14.1,7.2,21.7,9.1l-10.7-58.9
	c0,0-56.4-15.3-58-15.3C1759.7,772.3,1718.8,782.5,1718.7,782.5z"/>
<ellipse class="st9" cx="1820.3" cy="848.5" rx="15.5" ry="16.2"/>
<path class="st10" d="M1815.5,856c-0.6,0-1-0.4-1.1-1c-0.6-7.9,2.2-13.4,8.4-16.3c0.5-0.3,1.2,0,1.4,0.5c0.3,0.5,0,1.2-0.5,1.4
	c-5.4,2.5-7.7,7.2-7.2,14.2C1816.7,855.5,1816.2,856,1815.5,856C1815.6,856,1815.6,856,1815.5,856z"/>
<rect x="1769.3" y="1176.3" class="st3" width="103.7" height="24.2"/>
<polygon class="st2" points="1803,1200.5 1631.5,1200.5 1570.5,1036.4 1742,1036.4 "/>
<g>
	<path class="st3" d="M1096.1,1594.8L1096.1,1594.8c-1.2,0-2.2-1-2.2-2.2l0.1-562.1c0-1.2,1-2.2,2.2-2.2l0,0c1.2,0,2.2,1,2.2,2.2
		l-0.1,562.1C1098.3,1593.8,1097.3,1594.8,1096.1,1594.8z"/>
	<path class="st3" d="M1253.9,1681.9c-0.3,0-0.7-0.1-1-0.3l-156.6-86.7l-156.6,86.7c-1,0.6-2.3,0.2-2.9-0.8c-0.6-1-0.2-2.3,0.8-2.9
		l158.7-87.8l158.7,87.8c1,0.6,1.4,1.9,0.8,2.9C1255.3,1681.5,1254.6,1681.9,1253.9,1681.9z"/>
	<g>
		<rect x="783.1" y="456.8" class="st4" width="626.2" height="628.1"/>
		<path class="st3" d="M1410.9,1086.5H781.5V455.1h629.4L1410.9,1086.5L1410.9,1086.5z M784.7,1083.3h623V458.4h-623V1083.3z"/>
	</g>
	<g>
		<rect x="856.3" y="921.6" class="st2" width="48" height="21.9"/>
		<rect x="919.9" y="930.9" class="st3" width="210.2" height="3.2"/>
		<rect x="856.3" y="964.1" class="st8" width="48" height="21.9"/>
		<rect x="919.9" y="973.5" class="st3" width="210.2" height="3.2"/>
	</g>
	<g>
		<g>
			<rect x="878.6" y="720" class="st2" width="21.6" height="72.3"/>
			<rect x="923.3" y="698.1" class="st2" width="21.6" height="94.2"/>
			<rect x="968" y="659.5" class="st2" width="21.6" height="132.7"/>
			<rect x="1012.8" y="624.3" class="st2" width="21.6" height="167.9"/>
			<rect x="1057.5" y="588.3" class="st2" width="21.6" height="204"/>
			<rect x="1102.2" y="572.5" class="st2" width="21.6" height="219.8"/>
			<rect x="1146.9" y="589.5" class="st2" width="21.6" height="202.8"/>
			<rect x="1191.6" y="609.3" class="st2" width="21.6" height="183"/>
			<rect x="1236.3" y="572.5" class="st2" width="21.6" height="219.8"/>
			<rect x="1281" y="551.7" class="st2" width="21.6" height="240.6"/>
			<rect x="1325.7" y="524.1" class="st2" width="21.6" height="268.2"/>
		</g>
		<polygon class="st3" points="1361.3,794 847.8,794 847.8,512.3 852.1,512.3 852.1,789.7 1361.3,789.7 		"/>
		<polygon class="st8" points="889.8,754.2 889.1,749.9 933.2,742 975.3,707.2 975.4,707.1 1021.3,681.8 1066.4,645.2 1113.9,634.8 
			1154.9,668.3 1199.1,694.3 1246.7,631.9 1292.1,617.3 1340.3,594.6 1342.1,598.4 1293.5,621.4 1249.3,635.5 1200.2,699.9 
			1152.3,671.7 1112.8,639.4 1068.3,649.2 1023.7,685.4 1023.5,685.5 977.7,710.7 935.1,746 		"/>
	</g>
	<rect x="940.2" y="821.5" class="st2" width="312" height="15.8"/>
	<g>
		<path class="st2" d="M1273.4,954.2l41-64.3c-11.8-7.6-25.9-12-41-12c-42.2,0-76.3,34.2-76.3,76.3s34.2,76.3,76.3,76.3
			c42.2,0,76.3-34.2,76.3-76.3c0-1.4-0.1-2.8-0.2-4.2L1273.4,954.2z"/>
		<path class="st8" d="M1349.6,950c-1.4-25.3-15-47.3-35.1-60.2l-41,64.3L1349.6,950z"/>
	</g>
</g>
<g>
	<polygon class="st2" points="576.3,1594.2 567.9,1680.5 693.2,1680.5 637.3,1628.7 637.9,1594.9 	"/>
	<path class="st3" d="M624.7,1644.5c-0.8,0-1.6-0.5-2-1.3c-0.5-1.1,0-2.3,1.1-2.8l18-7.8c1.1-0.5,2.3,0,2.8,1.1
		c0.5,1.1,0,2.3-1.1,2.8l-18,7.8C625.3,1644.5,625,1644.5,624.7,1644.5z"/>
	<path class="st3" d="M635.4,1656.7c-0.8,0-1.6-0.5-2-1.3c-0.5-1.1,0-2.3,1.1-2.8l18-7.8c1.1-0.5,2.3,0,2.8,1.1
		c0.5,1.1,0,2.3-1.1,2.8l-18,7.8C636,1656.7,635.7,1656.7,635.4,1656.7z"/>
	<path class="st3" d="M571.2,1644.1c9.1,1.4,18.1,4.4,24.4,11.5c5.8,6.6,8.1,15.5,9,24c0.3,2.7,4.6,2.8,4.3,0
		c-1-9.6-3.5-19.2-9.9-26.6c-6.7-7.8-16.7-11.5-26.6-13C569.6,1639.6,568.4,1643.7,571.2,1644.1L571.2,1644.1z"/>
</g>
<g>
	<polygon class="st2" points="429.3,1595.1 419.6,1680.5 302.9,1680.5 349.1,1633.9 368.5,1594.9 	"/>
	<path class="st3" d="M367.1,1643.8c-0.3,0-0.6-0.1-0.9-0.2l-18-7.8c-1.1-0.5-1.6-1.7-1.1-2.8s1.7-1.6,2.8-1.1l18,7.8
		c1.1,0.5,1.6,1.7,1.1,2.8C368.8,1643.3,368,1643.8,367.1,1643.8z"/>
	<path class="st3" d="M356.4,1656c-0.3,0-0.6-0.1-0.9-0.2l-18-7.8c-1.1-0.5-1.6-1.7-1.1-2.8s1.7-1.6,2.8-1.1l18,7.8
		c1.1,0.5,1.6,1.7,1.1,2.8C358,1655.5,357.2,1656,356.4,1656z"/>
	<path class="st3" d="M422,1640.3c-9.9,1.5-19.9,5.2-26.6,13c-6.4,7.5-8.9,17.1-9.9,26.6c-0.3,2.8,4,2.7,4.3,0
		c0.9-8.5,3.1-17.4,9-24c6.2-7.1,15.3-10.1,24.4-11.5C425.9,1644.1,424.7,1639.9,422,1640.3L422,1640.3z"/>
</g>
<polygon class="st8" points="454.3,1013.3 335.5,1614.9 447.3,1614.9 586,968.4 "/>
<polygon class="st8" points="542.5,1005 561.8,1611.5 660.1,1611.5 656.2,973.9 "/>
<polygon class="st4" points="640.7,997.4 470.8,1019.5 474.9,725.2 613,721.1 "/>
<path class="st10" d="M561.4,638.2V714c0,21-2.3,36.8-23.8,37.9c-13.8,0.7-32.9-7.7-38.6-19.4c-2.7-5.5-4.2-11.8-4.2-18.5v-75.8
	H561.4z"/>
<path class="st11" d="M561.4,668.9v35.6c-18.7-4.7-41.6-19.3-52.9-35.6H561.4z"/>
<path class="st10" d="M561.4,685.2c-1.3,0.4-2.8,0.7-4.3,0.9c-11.3,1.7-26.5-0.1-40.5-7.7c-7.8-4.2-15.2-10.1-21.3-18.3
	c-0.2-0.2-0.3-0.4-0.5-0.6c-1.6-2.2-3.1-4.5-4.5-7l-2.8-9.8l-4.1-14.5l-11.3-40l55.6-27.4c0,0,42.3,8.8,46.5,11.5
	c-0.7,7.6-0.8,15.3-0.5,22.8c0.4,10.7,1.6,21.1,2.7,30.9c1,8.5,1.9,16.5,2.2,23.7C579.5,667.9,576.5,681,561.4,685.2z"/>
<path class="st3" d="M481.8,645.2c0,0,15.6-5.2,13.5-8.4c-3.1-4.8-12.3-19.3-2.6-35.9c1.9-3.3,12.3-6,15.7-7.3
	c4.4-1.6,8.9-2.9,13.4-3.6c6.7-1,13.3-0.8,19.9,1c9,2.4,17.8,8.6,27.4,6.2c6.9-1.8,14.8-7.3,16.6-14.9c1.1-4.3,0.1-9-1.8-13
	c-11.7-24.9-40.2-26.5-63.1-24.3c-18.7,1.8-33.5,9.3-43.6,26.8c-0.4,0.7-2.3,5.3-2.8,5.3C450,580.2,463.5,635.1,481.8,645.2z"/>
<ellipse class="st10" cx="487.8" cy="645" rx="16.2" ry="17.2"/>
<path class="st3" d="M493.1,595.5c0.6,14.4,1.5,29.6,0.8,44c-0.2,4.4-1.6,3.9-3.3,2.1c-2-2.3-3.5-6.2-3.9-10.7l-2.2-23L493.1,595.5z
	"/>
<path class="st12" d="M494.9,714c71.6,96.2,33.2,336.6,16.7,381.1l-106.7-8.3L438,910.7l-53.9-60.1L494.9,714z"/>
<path class="st3" d="M518.2,908.1c5.8-18-7.1-38.7-29.4-60.6l-13.9,29.8L518.2,908.1z"/>
<path class="st3" d="M488.8,1067.4c-0.1,0-0.2,0-0.3-0.1c-0.6-0.2-0.9-0.8-0.7-1.3c20.1-67.1,23.6-160.2,24.5-224.5
	c0-0.6,0.5-1.1,1.1-1.1c0,0,0,0,0,0c0.6,0,1.1,0.5,1.1,1.1c-1.8,134.4-14.9,192.8-24.6,225.1
	C489.7,1067.1,489.3,1067.4,488.8,1067.4z"/>
<g>
	<path class="st10" d="M552.9,846.8c0.1-7.9-0.9-16.1-6-22c-2.8-3.3-13.1,0-18.7,2.7c-0.3,0.1,6.8-32.2,3.8-34.6
		c-3.7-2.9-7.4-1-9.1,2.4c-2.8,5.7-4.7,12.3-6.9,18.2c-3.3,8.9-7.3,16.5-14.6,22.8c-5.8,5-12.4,8-15.2,15.6
		c-2.1,5.7-1.4,11.5-0.8,17.4c0.7,6.5,2,13,4.6,19c1.2,2.8,2.9,5.9,5.9,7.1c3.5,1.5,7.9-0.5,11.3-1.8c7.6-3,15.4-5.7,23.2-8.1
		c6.4-2,12.9-5.3,17.3-10.5c4.6-5.4,4.4-11.4,4.8-18.1C552.6,853.7,552.8,850.3,552.9,846.8z M494.4,876.3
		C494.4,876.3,494.5,876.3,494.4,876.3C494.1,876.8,494,876.8,494.4,876.3z"/>
	<g>
		<path class="st11" d="M534.3,841.7c-0.7,0-1.4-0.5-1.6-1.2c-0.2-0.9,0.3-1.7,1.2-2l16.1-3.9c0.9-0.2,1.7,0.3,2,1.2
			c0.2,0.9-0.3,1.7-1.2,2l-16.1,3.9C534.5,841.7,534.4,841.7,534.3,841.7z"/>
		<path class="st11" d="M535.3,854.6c-0.7,0-1.4-0.5-1.6-1.2c-0.2-0.9,0.3-1.7,1.2-2l16.1-3.9c0.9-0.2,1.7,0.3,2,1.2
			c0.2,0.9-0.3,1.7-1.2,2l-16.1,3.9C535.6,854.6,535.5,854.6,535.3,854.6z"/>
		<path class="st11" d="M535,868.2c-0.7,0-1.4-0.5-1.6-1.2c-0.2-0.9,0.3-1.7,1.2-2l16.1-3.9c0.9-0.2,1.7,0.3,2,1.2
			c0.2,0.9-0.3,1.7-1.2,2l-16.1,3.9C535.2,868.2,535.1,868.2,535,868.2z"/>
	</g>
</g>
<path class="st12" d="M517.8,907.6c-18.3,17.8-38.7,33.9-60.3,47.5c-20.7,13.1-44.6,26.5-69.7,27.8c-38.7,1.9-55.4-39.2-53.8-72.1
	c1.7-37.4,21.5-71.7,39.3-103.6c17.9-32,43.3-60.6,77.3-75.5c0.3-0.1,0.5-0.2,0.8-0.3l43.3-18.8v1.4c0,6.7,1.5,13,4.2,18.5
	l-68.4,144.7l58-29.7C493.9,868.4,504.1,888.3,517.8,907.6z"/>
<path class="st3" d="M392,895.7c-0.4,0-0.8-0.2-1-0.6c-0.3-0.5-0.1-1.2,0.5-1.5l95.8-49.2c0.5-0.3,1.2-0.1,1.5,0.5
	c0.3,0.5,0.1,1.2-0.5,1.5l-95.8,49.2C392.3,895.7,392.2,895.7,392,895.7z"/>
<path class="st3" d="M425.8,973.6c-0.3,0-0.7-0.2-0.9-0.5c-0.3-0.5-0.2-1.2,0.3-1.5l92-64.9c0.5-0.3,1.2-0.2,1.5,0.3
	c0.3,0.5,0.2,1.2-0.3,1.5l-92,64.9C426.3,973.5,426,973.6,425.8,973.6z"/>
<path class="st3" d="M418.3,881.3c-0.1,0-0.3,0-0.4-0.1c-0.5-0.2-0.8-0.9-0.6-1.4l27.4-65c0.2-0.5,0.9-0.8,1.4-0.6
	c0.5,0.2,0.8,0.9,0.6,1.4l-27.4,65C419.1,881,418.7,881.3,418.3,881.3z"/>
<path class="st3" d="M503.8,834c-0.3,0-0.7-0.2-0.9-0.5l-36.1-53.4l16.6-52c0.2-0.6,0.8-0.9,1.4-0.7c0.6,0.2,0.9,0.8,0.7,1.3
	l-16.3,51l35.5,52.5c0.3,0.5,0.2,1.2-0.3,1.5C504.3,834,504,834,503.8,834z"/>
<g>
	<g>
		<path class="st10" d="M954.1,731c-1.2,11.5-11.8,9.4-16.8,18.7c-6.1,11.3-22.7,23.2-35.8,15.1c-7-4.3-12.1-11.3-14.8-19.1
			c-3.8-11.2,7.1-27,13-35.5c5.7-8.2,19.6-10.7,29-10.8c6.2-0.1,13.4,5,17.1,11C949.6,716.6,954.8,723.9,954.1,731z"/>
		<path class="st10" d="M958.6,729.8c1.9,4.4-3.2,8.2-10.1,11.1c-7,2.9-13.2,4-15-0.5c-2-4.8,3.2-8.2,10.1-11.1
			C950.5,726.4,956.2,724,958.6,729.8z"/>
		
			<ellipse transform="matrix(0.9212 -0.3892 0.3892 0.9212 -208.1417 424.1859)" class="st10" cx="942.9" cy="725.8" rx="16.8" ry="6.2"/>
		
			<rect x="889.7" y="648.4" transform="matrix(0.5235 -0.852 0.852 0.5235 -95.7802 1134.1897)" class="st3" width="152.8" height="8.6"/>
		<path class="st10" d="M900,712.8c5.3,1,10.5-5.1,15.8-4c7.8,1.6,13.1,0.9,21.5-2.3c4.6-1.7,11-6.6,11.2-12c0-1.6-0.4-3.5-1.8-4.2
			c-2-1.1-4.3,0.5-6.1,1.8c-12,8.1-28.4,0.5-41.2,20.5L900,712.8z"/>
		<path class="st10" d="M951,709.3c2.7,3.9-1.1,8.4-9.3,14.2c-8.2,5.8-12.8,7.4-14.2,2.8c-0.9-2.9-1.1-7.1,7.1-12.9
			C942.7,707.6,947.4,704.2,951,709.3z"/>
		<g>
			<path class="st11" d="M912,736.6c-0.3,0-0.6-0.1-0.8-0.4c-0.4-0.5-0.3-1.1,0.2-1.5c6.3-5,8.6-11.2,6.9-18.9
				c-0.1-0.6,0.2-1.2,0.8-1.3s1.2,0.2,1.3,0.8c1.9,8.6-0.6,15.5-7.6,21.1C912.5,736.5,912.2,736.6,912,736.6z"/>
			<path class="st11" d="M931.4,725.8c-1.7,0-3.2-0.7-4-1.9c-0.6-0.8-0.9-1.9-0.7-3c0.2-1,0.7-1.7,1.4-2.3c0.5-0.3,1.2-0.2,1.5,0.3
				c0.3,0.5,0.2,1.2-0.3,1.5c-0.3,0.2-0.5,0.6-0.5,0.8c-0.1,0.5,0,1,0.3,1.3c0.5,0.7,1.6,1.1,2.7,1c1.4-0.2,6.5-1.7,7.4-2.3
				c0.5-0.3,1.2-0.2,1.5,0.3c0.3,0.5,0.2,1.2-0.3,1.5c-1.3,0.9-6.9,2.5-8.4,2.7C931.9,725.8,931.6,725.8,931.4,725.8z"/>
			<path class="st11" d="M936.5,733.4c-1,0-2.3-0.2-3.2-1.2c-0.7-0.8-1-2.1-0.7-3.3c0.2-0.8,2.8-5.8,3.7-6.5
				c0.5-0.4,1.1-0.3,1.5,0.1c0.4,0.5,0.3,1.1-0.1,1.5c-0.5,0.5-2.8,4.8-3,5.5c-0.1,0.5,0,1,0.2,1.3c0.4,0.4,1.2,0.6,2.4,0.4
				c3-0.4,6-1.4,8.8-2.5c0.6-0.2,1.2,0.1,1.4,0.6c0.2,0.6-0.1,1.2-0.6,1.4c-3,1.1-6,2.2-9.3,2.6
				C937.3,733.4,936.9,733.4,936.5,733.4z"/>
			<path class="st11" d="M941.6,742.6c-0.9,0-1.9-0.1-2.9-0.3c-1.2-0.2-2.2-0.9-2.5-1.9c-1.2-3.2,3.3-8.2,5.2-9.5
				c0.5-0.3,1.2-0.2,1.5,0.3c0.3,0.5,0.2,1.2-0.3,1.5c-1.8,1.3-5,5.3-4.4,7c0.1,0.2,0.5,0.5,0.9,0.5c2.2,0.4,4.3,0.3,6.2-0.4
				c0.6-0.2,1.2,0.1,1.4,0.7s-0.1,1.2-0.7,1.4C944.7,742.4,943.2,742.6,941.6,742.6z"/>
		</g>
	</g>
	<path class="st12" d="M653.5,826.8l51.5,30.4c50,29.3,99.5,25.6,145.1-17.3l70.8-67l-43.5-46.6c-30.8,29.3-90.1,87.4-139.8,53.5
		l-54.6-40c-21.5-14.4-45.6-24.3-71-29l-50.5-8.4c-6,79,21.2,263.5,53.7,369.9l92.2-35.2C692.8,989.4,667.6,884.4,653.5,826.8z"/>
	<path class="st3" d="M666.3,884.5c-0.5,0-0.9-0.3-1-0.8l-21.5-99.8c-0.1-0.6,0.2-1.2,0.8-1.3c0.6-0.1,1.2,0.2,1.3,0.8l21.5,99.8
		c0.1,0.6-0.2,1.2-0.8,1.3C666.5,884.5,666.4,884.5,666.3,884.5z"/>
	<path class="st3" d="M630.3,1043.2c-0.5,0-1-0.4-1-0.9l-41.3-223.8l15.7-43.5l-34.1-62.6c-0.3-0.5-0.1-1.2,0.4-1.5
		c0.5-0.3,1.2-0.1,1.5,0.4l34.6,63.4l-15.8,43.8l41.2,223.2c0.1,0.6-0.3,1.1-0.9,1.3C630.4,1043.2,630.3,1043.2,630.3,1043.2z"/>
	<path class="st3" d="M900.3,776.8c-0.3,0-0.6-0.1-0.8-0.3l-30.8-32.2c-0.4-0.4-0.4-1.1,0-1.5c0.4-0.4,1.1-0.4,1.5,0l30.8,32.2
		c0.4,0.4,0.4,1.1,0,1.5C900.9,776.7,900.6,776.8,900.3,776.8z"/>
</g>
<path class="st3" d="M496.7,904.9c-0.2,0-0.5-0.1-0.7-0.2c-10.9-8.6-18-22.1-21.9-41.4c-0.1-0.6,0.3-1.2,0.9-1.3
	c0.6-0.1,1.1,0.3,1.3,0.8c3.7,18.8,10.6,31.9,21.1,40.2c0.5,0.4,0.5,1,0.2,1.5C497.3,904.7,497,904.9,496.7,904.9z"/>
<path class="st3" d="M545,1159.3c-0.1,0-0.1,0-0.2,0c-0.6-0.1-1-0.7-0.8-1.3l11.8-62.3c0.1-0.6,0.7-1,1.3-0.8c0.6,0.1,1,0.7,0.8,1.3
	l-11.8,62.3C546,1158.9,545.5,1159.3,545,1159.3z"/>
<g>
	<rect x="1706.2" y="1199.2" class="st3" width="14.6" height="481"/>
	<rect x="2290.2" y="1199.2" class="st3" width="14.6" height="481"/>
	<g>
		<rect x="1499.2" y="1197.6" class="st4" width="1057.1" height="26.9"/>
		<path class="st3" d="M2557.9,1226H1497.6V1196h1060.3V1226z M1500.8,1222.8h1053.9v-23.7H1500.8V1222.8z"/>
	</g>
</g>
<path class="st13" d="M2571.9,1588.9"/>
<path class="st13" d="M2517.1,1593"/>
<g>
	<g>
		<polygon class="st2" points="2652.3,1537.8 2721.6,1613.5 2651,1682.2 2653.6,1612.6 2612.5,1577.8 		"/>
		<g>
			<path class="st3" d="M2652.4,1615.2c-0.9,0-1.8-0.6-2.1-1.5c-0.4-1.1,0.3-2.3,1.4-2.7l20-6.2c1.1-0.3,2.3,0.3,2.7,1.4
				c0.4,1.1-0.3,2.3-1.4,2.7l-20,6.2C2652.9,1615.2,2652.6,1615.2,2652.4,1615.2z"/>
			<path class="st3" d="M2652.8,1632.3c-0.9,0-1.8-0.6-2.1-1.5c-0.4-1.1,0.3-2.3,1.4-2.7l20-6.2c1.1-0.3,2.3,0.3,2.7,1.4
				c0.4,1.1-0.3,2.3-1.4,2.7l-20,6.2C2653.2,1632.2,2653,1632.3,2652.8,1632.3z"/>
			<path class="st3" d="M2701.8,1629.9c-0.2,0-0.4,0-0.6-0.1c-7.7-2.4-13.3-10.2-13.7-19c-0.4-8.3,4-15.2,11.7-18.3
				c1.1-0.4,2.4,0.1,2.8,1.2s-0.1,2.3-1.2,2.8c-8.5,3.4-9.1,11-9,14.1c0.3,7,4.7,13.2,10.6,15c1.1,0.3,1.8,1.6,1.4,2.7
				C2703.5,1629.3,2702.7,1629.9,2701.8,1629.9z"/>
		</g>
	</g>
	<g>
		<path class="st12" d="M2444.1,1024l-51.6,204.8c-13,51.6-0.1,106.2,34.6,146.5l187.6,217.9l64.3-55.8L2514.8,1318l25.7-328.9
			L2444.1,1024z"/>
		<path class="st3" d="M2441.9,1085.2c-0.4,0-0.8-0.3-1-0.7c-0.2-0.6,0.1-1.2,0.6-1.4c18.8-7.5,27-26.7,24.4-56.9
			c-0.1-0.6,0.4-1.1,1-1.2c0.6-0.1,1.1,0.4,1.2,1c2.7,31.3-5.9,51.2-25.7,59.1C2442.2,1085.2,2442.1,1085.2,2441.9,1085.2z"/>
		<path class="st3" d="M2612.3,1569c-0.3,0-0.6-0.2-0.9-0.4c-0.4-0.5-0.3-1.2,0.2-1.5l40-30.1c0.5-0.4,1.1-0.3,1.5,0.2
			c0.4,0.5,0.3,1.2-0.2,1.5l-40,30.1C2612.7,1569,2612.5,1569,2612.3,1569z"/>
	</g>
</g>
<g>
	<g>
		<polygon class="st2" points="2575.1,1589.9 2579.4,1682.5 2464.5,1682.5 2515.8,1634.8 2518.5,1590.6 		"/>
		<g>
			<path class="st3" d="M2534.3,1646.7c-0.3,0-0.7-0.1-1-0.3l-18.5-9.7c-1.1-0.6-1.4-1.8-0.9-2.9s1.9-1.4,2.9-0.9l18.5,9.7
				c1.1,0.6,1.4,1.8,0.9,2.9C2535.8,1646.3,2535,1646.7,2534.3,1646.7z"/>
			<path class="st3" d="M2522.5,1659c-0.3,0-0.7-0.1-1-0.3l-18.5-9.7c-1.1-0.6-1.4-1.8-0.9-2.9s1.9-1.4,2.9-0.9l18.5,9.7
				c1.1,0.6,1.4,1.8,0.9,2.9C2524,1658.6,2523.2,1659,2522.5,1659z"/>
			<path class="st3" d="M2551.2,1681.8c-0.8,0-1.5-0.4-1.9-1.1c-4.2-7.8-2.5-18.3,4.1-25.4c6.2-6.8,14.9-8.7,23.3-5.2
				c1.1,0.5,1.6,1.7,1.1,2.8c-0.5,1.1-1.7,1.6-2.8,1.1c-6.6-2.8-13.5-1.3-18.5,4.1c-5.4,5.8-6.8,14.3-3.5,20.5
				c0.6,1.1,0.2,2.3-0.9,2.9C2551.9,1681.8,2551.5,1681.8,2551.2,1681.8z"/>
		</g>
	</g>
	<g>
		<path class="st12" d="M2518.6,1006.1l-29.1,312l13.8,292.1l84.4-4.6l35.7-482.9c12.9-41.9,16.1-74.1,10.8-112.1L2518.6,1006.1z"/>
		<path class="st3" d="M2609.4,1083.6c-0.1,0-0.1,0-0.2,0c-26.7-5.2-42.5-30.3-40.2-63.9c0-0.6,0.5-1,1.1-1c0.6,0,1,0.5,1,1.1
			c-1,15,1.8,29.1,7.9,39.8c6.7,11.8,17.3,19.3,30.6,21.9c0.6,0.1,1,0.7,0.9,1.3C2610.4,1083.3,2609.9,1083.6,2609.4,1083.6z"/>
		<path class="st3" d="M2502.1,1610.5c-0.6,0-1-0.4-1.1-1l-14-300.9c0-0.1,0-0.1,0-0.2l24.7-242.6c0.1-0.6,0.6-1,1.2-1
			c0.6,0.1,1,0.6,1,1.2l-24.7,242.5l13.9,299.8l83.6-3.7l20.2-280.1c0-0.6,0.5-1,1.1-1c0.6,0,1,0.6,1,1.2l-20.3,281c0,0.5-0.5,1-1,1
			L2502.1,1610.5C2502.1,1610.5,2502.1,1610.5,2502.1,1610.5z"/>
		<path class="st3" d="M2517.1,1594.1c-0.6,0-1-0.4-1.1-1c0-0.6,0.4-1.1,1-1.1l58-3.1c0.6,0,1.1,0.4,1.1,1s-0.4,1.1-1,1.1
			L2517.1,1594.1C2517.1,1594.1,2517.1,1594.1,2517.1,1594.1z"/>
	</g>
</g>
<path class="st3" d="M2632.8,793.8c62.9-67-58.8-69.2-53.9-132c5.1-66.3-42.4-62.8-42.4-62.8s-42.4-37.5-77.3-2.2
	c-42.8,43.3-9.3,67.7-42.4,104.1c-49.3,54.3,8.6,114.9,8.6,114.9L2632.8,793.8z"/>
<g>
	<g>
		<path class="st9" d="M2774.8,752.7c1.5-1.2,32.4-34.1,32.4-34.1s12.3-48.8,16.9-43.2c4.6,5.6-2.3,36.1-2.3,36.1s21.7-0.4,23.6,4.8
			c1.9,5.3,1,35.5-40.4,67.7L2774.8,752.7z"/>
		<path class="st9" d="M2809.1,721.3c-1.2-8.9-5.9-25-8.9-25.2s-3.7,12.1-4,21.5c-0.4,15.2-7.2,27.5-4.4,28.4
			C2798.2,748.1,2810,728.1,2809.1,721.3z"/>
		<g>
			<path class="st10" d="M2823,732.2c-0.5,0-0.9-0.1-1.3-0.3c-1.3-0.6-1.9-2-2-4.2c-0.1-3.5,0.6-7.1,2-10.4c0.2-0.6,0.9-0.9,1.5-0.6
				c0.6,0.2,0.9,0.9,0.6,1.5c-1.2,3-1.9,6.3-1.8,9.5c0,1.2,0.3,1.9,0.7,2.1c0.3,0.1,0.7,0.1,1.1-0.2c1.9-1.2,3.8-4.7,4.9-9.3
				c0.1-0.6,0.8-1,1.4-0.8c0.6,0.2,1,0.8,0.8,1.4c-0.8,3.1-2.6,8.6-6,10.7C2824.3,732,2823.6,732.2,2823,732.2z"/>
			<path class="st10" d="M2828.8,735.1c-0.7,0-1.4-0.2-1.9-0.7c-1-0.9-1.1-2.3-1.1-3.2c0.1-2.6,0.7-5.1,1.7-7.5
				c0.3-0.6,0.9-0.8,1.5-0.6c0.6,0.3,0.9,0.9,0.6,1.5c-0.9,2.1-1.4,4.4-1.5,6.7c0,0.8,0.1,1.2,0.3,1.4c0.2,0.1,0.5,0.1,0.9,0
				c0.5-0.2,0.9-0.7,1.3-1.1c2.7-3.2,4.6-7.2,5.3-11.3c0.1-0.6,0.7-1,1.3-0.9c0.6,0.1,1,0.7,0.9,1.3c-0.8,4.6-2.8,8.8-5.8,12.4
				c-0.6,0.7-1.2,1.3-2.1,1.7C2829.8,735,2829.3,735.1,2828.8,735.1z"/>
			<path class="st10" d="M2837,735.1c-0.7,0-1.4-0.2-1.9-0.7c-1-0.9-1.1-2.3-1.1-3.2c0.1-1.5,0.3-2.8,0.6-4.3
				c0.2-1.1,0.4-2.2,0.6-3.5c0.1-0.6,0.7-1.1,1.3-1c0.6,0.1,1.1,0.7,1,1.3c-0.2,1.4-0.4,2.6-0.6,3.7c-0.3,1.4-0.5,2.6-0.6,4
				c0,0.8,0.1,1.2,0.3,1.4c0.2,0.1,0.5,0.1,0.9,0c0.5-0.2,0.9-0.7,1.3-1.1c2.7-3.2,4.6-7.2,5.3-11.3c0.1-0.6,0.7-1,1.3-0.9
				c0.6,0.1,1,0.7,0.9,1.3c-0.8,4.6-2.8,8.8-5.8,12.4c-0.6,0.7-1.2,1.3-2.1,1.7C2838,735,2837.5,735.1,2837,735.1z"/>
			<path class="st10" d="M2812.4,741.6c-0.1,0-0.2,0-0.3,0c-0.6-0.2-1-0.8-0.8-1.4c2.1-7.4,1.1-13.2-3.1-18.1
				c-0.4-0.5-0.4-1.2,0.1-1.6c0.5-0.4,1.2-0.4,1.6,0.1c4.8,5.5,5.9,12.1,3.6,20.3C2813.4,741.3,2812.9,741.6,2812.4,741.6z"/>
		</g>
	</g>
	<path class="st8" d="M2576.8,820.9l85.8,56.4c21.3,15.8,50.2,15,68.8-3.2c5.1-5,87.1-91.3,87.1-91.3l-30.3-44l-85.1,81l-79.2-62.2
		c-6.3-4.7-13.6-7.7-21.2-8.9l-97.8-14.6C2504.8,734.2,2574.3,819,2576.8,820.9z"/>
</g>
<g>
	<path class="st9" d="M2270.9,1046.2l-19,25.8c-26.8,2.5-45.1,12.2-60.7,28.4l100-0.2l21.1-56.2L2270.9,1046.2z"/>
	<path class="st8" d="M2502.3,735.3c-26.6,13.8-51.1,23.1-76.4,38.3c-8.1,4.9-16.5,12.2-24.6,21.8c-9.6,11.2-17.1,23.9-23.2,37.2
		l-37.6,83.4l-84.4,151l59.4,1.4l78-128.1L2502.3,735.3z"/>
</g>
<path class="st8" d="M2449.5,794.9c-58.1,38.2-8.2,121.3-19.1,229.3c-1.3,13.1,10.5,23.9,23.3,20.9c50.4-11.6,114.3-15.9,165.4-12.1
	c11.9,0.9,21.7-9.2,20.5-21.1c-16.5-62.2-24-131.5-20.3-209.7l-85-68.2l-60.5,17.3L2449.5,794.9z"/>
<path class="st9" d="M2487,664.4v83.7c0,19.1,17.7,24.3,30.5,23.6c10.9-0.6,27.6-6.8,27.4-23.6v-83.7H2487z"/>
<path class="st10" d="M2487,703.5v39.3c15.7-3.6,36.2-17.5,43.2-36.7L2487,703.5z"/>
<path class="st9" d="M2562.2,623.9l-15.6,50.7c-2.9,14.3-4.6,24.2-16.1,33.1c-17.3,13.4-38,16.8-45.3,12
	c-11.6-7.8-16.1-13.8-17.6-23.8c-1-6.4-0.8-14.4-0.6-25.6c0.3-13.4,0.6-31.5-1-56.7c-0.2-3.5,44.6-21,44.6-21L2562.2,623.9z"/>
<path class="st3" d="M2549,665.5c-3.5-12.9-12.7-13.8-18.8-37c-31.7,17.7-49.4-15-76.6,33.3l1.2-39.7l17.2-23.6l34.1-7.8l56.1,22.3
	l9.1,26.3L2549,665.5z"/>
<ellipse transform="matrix(0.3027 -0.9531 0.9531 0.3027 1137.5035 2891.7437)" class="st9" cx="2545" cy="668.5" rx="16.4" ry="16.2"/>
<g>
	<path class="st3" d="M2426.4,919.4c-0.5,0-1-0.4-1.1-0.9l-10.7-75.2c-0.1-0.6,0.3-1.1,0.9-1.2c0.6-0.1,1.1,0.3,1.2,0.9l10.7,75.2
		c0.1,0.6-0.3,1.1-0.9,1.2C2426.5,919.3,2426.4,919.4,2426.4,919.4z"/>
	<path class="st3" d="M2642.7,865.7c-0.2,0-0.4-0.1-0.6-0.2l-48.3-34.9c-0.5-0.3-0.6-1-0.2-1.5s1-0.6,1.5-0.2l48.3,34.9
		c0.5,0.3,0.6,1,0.2,1.5C2643.4,865.5,2643,865.7,2642.7,865.7z"/>
	<path class="st3" d="M2512.7,783.7c-11.1,0-21.5-4.3-29.6-10.4c-0.5-0.4-0.6-1-0.2-1.5s1-0.6,1.5-0.2c15.1,11.4,38.8,16.4,59.8-3.8
		c0.4-0.4,1.1-0.4,1.5,0c0.4,0.4,0.4,1.1,0,1.5C2534.9,779.7,2523.5,783.7,2512.7,783.7z"/>
	<path class="st3" d="M2547.1,1003.1c-0.4,0-0.9-0.3-1-0.7c-0.2-0.6,0.1-1.2,0.7-1.4c23.2-7.9,39.1-30.3,48.7-68.5
		c0.1-0.6,0.7-0.9,1.3-0.8c0.6,0.1,0.9,0.7,0.8,1.3c-9.8,38.9-26.2,61.8-50.1,70C2547.4,1003.1,2547.3,1003.1,2547.1,1003.1z"/>
	<path class="st3" d="M2360.4,928.5c-0.1,0-0.3,0-0.4-0.1l-18.6-7.2c-0.6-0.2-0.8-0.8-0.6-1.4c0.2-0.5,0.8-0.8,1.4-0.6l18.6,7.2
		c0.6,0.2,0.8,0.8,0.6,1.4C2361.2,928.2,2360.8,928.5,2360.4,928.5z"/>
	<path class="st3" d="M2689.6,833.3c-0.3,0-0.6-0.1-0.8-0.3c-0.4-0.4-0.4-1.1,0.1-1.5l13.4-12.4c0.4-0.4,1.1-0.4,1.5,0.1
		s0.4,1.1-0.1,1.5l-13.4,12.4C2690.1,833.2,2689.8,833.3,2689.6,833.3z"/>
</g>
<path class="st10" d="M2543.6,674.4c-0.6,0-1-0.4-1.1-1c-0.5-8.3,2.9-13.2,10.2-14.7c0.6-0.1,1.1,0.3,1.3,0.8s-0.3,1.2-0.8,1.3
	c-6.2,1.3-8.9,5.3-8.4,12.5C2544.7,673.9,2544.2,674.4,2543.6,674.4C2543.6,674.4,2543.6,674.4,2543.6,674.4z"/>
<g>
	<g>
		<rect x="2145" y="1100.6" class="st4" width="182.9" height="96.9"/>
		<path class="st3" d="M2329.5,1199h-186.1V1099h186.1V1199z M2146.6,1195.8h179.7v-93.7h-179.7V1195.8z"/>
	</g>
	<polygon class="st2" points="2327.9,1131.4 2146.4,1159 2146.4,1117.7 	"/>
	<g>
		<rect x="2129.8" y="1100.6" class="st4" width="213.4" height="31.1"/>
		<path class="st3" d="M2344.8,1133.3h-216.7v-34.3h216.7V1133.3z M2131.4,1130.1h210.2v-27.9h-210.2V1130.1z"/>
	</g>
</g>
<g>
	<path class="st2" d="M2041,711.3c0-41.4-33.5-74.9-74.9-74.9s-74.9,33.5-74.9,74.9c0,34.9,23.8,64.1,56.1,72.4l-8,28.6l26.9-26.2
		C2007.4,786.2,2041,752.7,2041,711.3z"/>
	<g>
		<circle class="st2" cx="1937.1" cy="709.8" r="7.8"/>
		<circle class="st2" cx="1966.1" cy="709.8" r="7.8"/>
		<circle class="st2" cx="1995" cy="709.8" r="7.8"/>
	</g>
</g>
<g>
	<path class="st2" d="M2338.2,750l-22.8-13.4c3.1-8.2,4.8-17,4.8-26.3c0-41.4-33.5-74.9-74.9-74.9s-74.9,33.5-74.9,74.9
		c0,41.4,33.5,74.9,74.9,74.9c25.7,0,48.4-13,61.9-32.8L2338.2,750z"/>
	<g>
		<circle class="st4" cx="2217" cy="708.1" r="7.8"/>
		<circle class="st4" cx="2246" cy="708.1" r="7.8"/>
		<circle class="st4" cx="2275" cy="708.1" r="7.8"/>
	</g>
</g>
<path class="st3" d="M1818.2,1681.9H122.6c-0.9,0-1.6-0.7-1.6-1.6s0.7-1.6,1.6-1.6h1695.6c0.9,0,1.6,0.7,1.6,1.6
	S1819.1,1681.9,1818.2,1681.9z"/>
<path class="st3" d="M2866.1,1682.5h-976c-1.2,0-2.2-1-2.2-2.2s1-2.2,2.2-2.2h976c1.2,0,2.1,1,2.1,2.2S2867.3,1682.5,2866.1,1682.5z
	"/>
</svg>
