<?xml version="1.0" encoding="utf-8"?>
<!-- Generator: Adobe Illustrator 23.0.1, SVG Export Plug-In . SVG Version: 6.00 Build 0)  -->
<svg version="1.1" id="Layer_1" xmlns="http://www.w3.org/2000/svg" xmlns:xlink="http://www.w3.org/1999/xlink" x="0px" y="0px"
	 viewBox="0 0 3500 2000" style="enable-background:new 0 0 3500 2000;" xml:space="preserve">
<style type="text/css">
	.st0{display:none;}
	.st1{display:inline;fill:#F0F0F0;}
	.st2{fill-rule:evenodd;clip-rule:evenodd;fill:#EBEBEB;}
	.st3{fill-rule:evenodd;clip-rule:evenodd;fill:#F0F0F0;}
	.st4{fill-rule:evenodd;clip-rule:evenodd;fill:#E0E0E0;}
	.st5{fill:#FFC93C;}
	.st6{fill:#263238;}
	.st7{fill:#455A64;}
	.st8{fill:#FFFFFF;}
	.st9{fill:#E0E0E0;}
	.st10{fill:#00858E;}
	.st11{fill:#FAFAFA;}
	.st12{fill:#B78876;}
	.st13{fill:#A36957;}
</style>
<g id="Background_Simple" class="st0">
	<path class="st1" d="M1552.1,1611c101.4-88.4,210.1,67.6,326,65c74.6-1.7,153.2,41.6,134.9,131.9c-26.6,131.3-237.6,115.3-349,78.2
		S1462.3,1689.3,1552.1,1611z"/>
</g>
<g>
	<g id="Background_Complete">
		<g>
			<path class="st2" d="M2824.4,662.8c6.3,4.9,12.2,10.7,17.1,17.1l22-3.9l14.6,34.2l-18.1,13.2c1,7.8,1.5,16.1,0.5,23.9l18.6,12.7
				l-13.7,34.2l-22-3.4c-4.9,6.3-10.7,12.2-17.1,17.1l3.9,22l-34.2,14.6l-13.2-18.1c-7.8,1-16.1,1.5-23.9,0.5l-12.7,18.6l-34.2-13.7
				l3.4-22c-6.3-4.9-12.2-10.7-17.1-17.1l-22,3.9l-14.6-34.2l18.1-13.2c-1-7.8-1.5-16.1-0.5-23.9l-18.6-12.7l13.7-34.2l22,3.4
				c4.9-6.3,10.7-12.2,17.1-17.1l-3.9-22l34.2-14.6l13.2,18.1c7.8-1,16.1-1.5,23.9-0.5l12.7-18.6l34.2,13.7L2824.4,662.8
				L2824.4,662.8z M2785.8,699.4c-20.5-8.3-43.4,1.5-51.7,22c-8.3,20.5,1.5,43.4,22,51.7c20.5,8.3,43.4-1.5,51.7-22
				C2816.1,730.6,2806.3,707.7,2785.8,699.4z"/>
			<path class="st2" d="M780.4,811.2c11.7,8.8,22.5,19,31.2,30.8l40-7.3l26.4,61.5L844.8,920c2,14.2,2.4,28.8,0.5,43.4l33.2,22.9
				l-24.9,62l-40-6.3c-8.8,11.7-19,22.5-30.8,31.2l7.3,40l-61.5,26.4l-23.9-32.7c-14.2,2-28.8,2.4-43.4,0.5l-22.9,33.2l-62-24.9
				l6.3-40c-11.7-8.8-22.5-19-31.2-30.8l-40,7.3L485,990.8l32.7-23.9c-2-14.2-2.4-28.8-0.5-43.4L484,900.5l24.9-62l40,6.3
				c8.8-11.7,19-22.5,30.8-31.2l-7.3-40l61.5-26.4l23.9,32.7c14.2-2,28.8-2.4,43.4-0.5l22.9-33.2l62,24.9L780.4,811.2L780.4,811.2z
				 M711,878.1c-36.6-14.6-78.6,2.9-93.2,40c-14.6,36.6,2.9,78.6,40,93.2c36.6,14.6,78.6-2.9,93.2-40
				C765.7,934.7,748.1,892.7,711,878.1z"/>
			<path class="st3" d="M616.8,499.2c6.3,4.9,12.2,10.7,17.1,17.1l22-3.9l14.6,34.2l-18.1,13.2c1,7.8,1.5,16.1,0.5,23.9l18.6,12.7
				l-13.7,34.2l-22-3.4c-4.9,6.3-10.7,12.2-17.1,17.1l3.9,22l-34.2,14.6l-13.2-18.1c-7.8,1-16.1,1.5-23.9,0.5l-12.7,18.6l-34.2-13.7
				l3.4-22c-6.3-4.9-12.2-10.7-17.1-17.1l-22,3.9l-14.6-34.2l18.1-13.2c-1-7.8-1.5-16.1-0.5-23.9L453.3,549l13.7-34.2l22,3.4
				c4.9-6.3,10.7-12.2,17.1-17.1l-3.9-22l34.2-14.6l13.2,18.1c7.8-1,16.1-1.5,23.9-0.5l12.7-18.6l34.2,13.7L616.8,499.2L616.8,499.2
				z M578.7,536.3c-20.5-8.3-43.4,1.5-51.7,22c-8.3,20.5,1.5,43.4,22,51.7c20.5,8.3,43.4-1.5,51.7-22
				C609,567.6,599.2,544.6,578.7,536.3z"/>
			<path class="st4" d="M1065.5,228.3c19,6.8,37.1,16.6,53.2,28.3l49.8-25.4l59.1,71.3l-34.2,44.4c8.3,18.1,14.6,37.6,17.6,57.6
				l53.2,17.1l-8.8,91.8l-55.2,7.3c-6.8,19-16.6,37.1-28.3,53.2l25.4,49.8l-71.3,59.1l-44.4-34.2c-18.1,8.3-37.6,14.6-57.6,17.6
				l-17.6,53.2l-91.8-8.8l-7.3-55.2c-19-6.8-37.1-16.6-53.2-28.3l-49.8,25.4l-59.1-71.3l34.2-44.4c-8.3-18.1-14.6-37.6-17.6-57.6
				l-53.2-17.1l8.8-91.8l55.2-7.3c6.8-19,16.6-37.1,28.3-53.2L775.5,260l71.3-59.1l44.4,34.2c18.1-8.3,37.6-14.6,57.6-17.6
				l17.6-53.2l91.8,8.8L1065.5,228.3L1065.5,228.3z M1000,343.5c-54.7-4.9-103,35.1-107.9,89.3c-4.9,54.7,35.1,103,89.3,107.9
				c54.7,4.9,103-35.1,107.9-89.3C1094.8,396.7,1054.7,348.4,1000,343.5z"/>
		</g>
	</g>
	<g id="Plant">
		<g>
			<g>
				<g>
					<path class="st5" d="M679.3,1750c61-40,76.6-116.2,75.7-185.5c0-11.7,1.5-23.4-3.9-33.7c-5.4-10.3-18.1-17.6-28.8-12.7
						c-8.8,3.9-12.7,13.7-18.1,22c-6.8,10.7-16.6,19.5-27.8,24.9c-7.3,3.4-16.6,5.9-23.9,1.5c-9.8-5.9-10.7-19.5-10.3-30.8
						c0.5-21.5,1.5-42.5,2-64c0.5-11.2,0.5-22.9-2.4-34.2c-3.4-10.7-11.2-21.5-22-24.4c-10.7-3.4-24.9,2.4-27.3,13.7
						c-1,4.9,0,9.3-0.5,14.2s-2.9,9.8-7.3,11.2c-4.9,1.5-9.3-2-12.7-5.4c-11.7-11.7-19.5-26.9-26.9-42c-7.3-15.1-14.2-30.3-24.9-43
						c-10.7-12.7-25.4-23.4-42-24.4c-16.6-1.5-34.7,8.3-39.1,24.4c-4.4,16.1,4.4,32.7,14.6,45.9c15.1,19.5,32.7,37.1,52.7,52.2
						c3.4,2.4,7.3,5.4,8.8,9.8c2.4,7.8-5.4,15.1-12.7,17.6c-8.8,2.4-18.1,1.5-27.3,2.4c-9.3,1-19,4.4-22.5,12.7
						c-4.9,11.7,4.4,23.9,14.2,32.2c19,16.6,41,29.8,64.9,39.1c8.3,3.4,17.6,6.3,23.9,12.2c6.8,5.9,10.7,16.6,6.3,24.4
						c-4.4,7.8-15.1,10.3-23.9,8.3c-8.8-2-16.6-6.8-25.4-10.3c-15.6-6.3-36.6-5.9-46.9,7.8c-6.8,8.8-7.8,21-4.9,31.7
						c2.9,10.7,9.8,20,17.1,28.8c24.9,30.3,57.1,54.7,93.7,68.3C608,1758.2,642.2,1762.6,679.3,1750"/>
				</g>
			</g>
			<g>
				<g>
					<g>
						<path class="st6" d="M456.2,1346.2c0,0,0.5,0.5,1,1c1,1,2,2,3.4,2.9c2.9,2.9,7.3,6.8,12.7,12.2c11.2,10.7,26.4,26.4,43,48.3
							c8.3,10.7,17.1,22.9,26.4,36.1c9.3,13.2,18.6,27.8,28.3,43c9.3,15.6,19,31.7,27.3,49.8c4.4,8.8,7.8,18.1,11.7,27.3
							c3.9,9.3,7.8,19,11.7,28.8c15.6,38.6,29.3,76.2,38.6,111.3c9.8,34.7,15.1,67.4,17.1,94.2c2,27.3,1,49.3-0.5,64.4
							c-1,7.8-1.5,13.7-2,17.6c-0.5,2-0.5,3.4-0.5,4.4c0,1,0,1.5,0,1.5s0-0.5,0.5-1.5c0-1,0.5-2.4,1-4.4c1-3.9,1.5-9.8,2.4-17.6
							c2-15.1,2.9-37.6,1-64.9c-2-27.3-7.3-59.6-16.6-94.7s-22.9-72.7-38.6-111.3c-3.9-9.8-7.8-19-11.7-28.8
							c-3.9-9.3-7.8-18.6-11.7-27.8c-8.3-18.1-18.1-34.2-27.8-49.8s-19-29.8-28.3-43c-9.3-13.2-18.1-25.4-26.4-36.1
							c-17.1-21.5-32.7-37.6-43.9-47.8c-5.4-5.4-10.3-9.3-13.2-11.7c-1.5-1.5-2.4-2.4-3.4-2.9S456.2,1346.2,456.2,1346.2z"/>
					</g>
				</g>
			</g>
			<g>
				<g>
					<g>
						<path class="st6" d="M599.7,1538.6c0,0,0.5-1.5,1.5-4.9c0.5-2.9,1.5-7.8,2.4-13.2c2-11.2,3.9-27.3,6.3-44.4
							c2.4-17.6,4.4-33.2,6.8-44.4c1-5.9,2-10.3,2.4-13.2c0.5-2.9,1-4.9,1-4.9s-0.5,1.5-1.5,4.9c-1,2.9-2,7.8-3.4,13.2
							c-2.4,11.2-4.9,26.9-7.3,44.4c-2,17.1-4.4,32.7-5.9,44.4c-0.5,5.4-1.5,9.8-2,13.7C599.7,1536.6,599.7,1538.6,599.7,1538.6z"/>
					</g>
				</g>
			</g>
			<g>
				<g>
					<g>
						<path class="st6" d="M451.3,1507.8c0,0,2,0.5,5.9,1c3.9,0.5,9.3,1,16.1,2c13.7,2,32.2,4.9,52.7,9.3
							c20.5,4.4,39.1,9.3,52.2,12.7c6.8,2,11.7,3.4,15.6,4.4s5.9,1.5,5.9,1.5s-2-1-5.4-2.4s-8.8-3.4-15.6-5.4
							c-13.2-4.4-31.7-9.3-52.2-13.7c-20.5-4.4-39.5-7.3-53.2-8.8c-6.8-1-12.2-1-16.1-1.5C453.3,1507.3,451.3,1507.3,451.3,1507.8z"
							/>
					</g>
				</g>
			</g>
			<g>
				<g>
					<g>
						<path class="st6" d="M660.8,1703.6c0,0,0.5-0.5,1-2c0.5-1.5,1.5-2.9,2.4-5.4c2.4-4.4,5.4-11.2,9.3-19.5
							c7.8-16.6,17.6-40,27.8-65.9c10.3-25.9,20-49.3,27.3-66.4c3.4-8.3,6.3-15.1,8.8-20c1-2,1.5-3.9,2.4-5.4c0.5-1.5,1-2,0.5-2
							s-0.5,0.5-1,2c-0.5,1.5-1.5,2.9-2.4,5.4c-2.4,4.4-5.4,11.2-9.3,19.5c-7.8,16.6-17.6,40-27.8,65.9
							c-10.3,25.9-20,49.3-27.3,66.4c-3.4,8.3-6.3,15.1-8.8,20c-1,2-1.5,3.9-2.4,5.4C660.8,1703.1,660.8,1703.6,660.8,1703.6z"/>
					</g>
				</g>
			</g>
			<g>
				<g>
					<g>
						<path class="st6" d="M464,1636.2c0,0,0.5,0.5,2,1c1.5,0.5,3.4,1,5.9,2c5.4,2,12.2,4.4,21,7.3c17.6,6.3,42,15.1,69.3,24.9
							c26.9,9.8,51.7,18.6,69.3,23.9c8.8,2.9,16.1,5.4,21.5,6.8c2.4,0.5,4.4,1,5.9,1.5c1.5,0.5,2,0.5,2,0.5s-0.5-0.5-2-1
							c-1.5-0.5-3.4-1.5-5.9-2c-5.4-2-12.2-4.4-21-7.3c-17.6-6.3-42.5-15.1-69.3-24.9s-51.7-18.6-69.3-23.9
							c-8.8-2.9-16.1-5.4-21.5-6.8c-2.4-0.5-4.4-1-5.9-1.5C464.5,1636.2,464,1635.7,464,1636.2z"/>
					</g>
				</g>
			</g>
		</g>
	</g>
	<g id="Mobile">
		<g>
			<g>
				<g>
					<g>
						<g>
							<path class="st7" d="M2660.4,1234.9l-294.4-1.5c-35.6,0-64-28.8-64-64.4l2.9-736.2c0-35.1,28.8-64,64.4-64l294.4,1.5
								c35.6,0,64,28.8,64,64.4l-2.9,736.2C2724.8,1206.6,2696,1234.9,2660.4,1234.9z"/>
						</g>
					</g>
					<g>
						<g>
							<path class="st8" d="M2663.8,395.7l-57.1-0.5c-7.8,0-13.7,6.3-14.2,14.2v10.3c0,7.8-6.3,14.6-14.2,14.2l-111.3-0.5
								c-7.8,0-13.7-6.3-13.7-14.6v-10.3c0-7.8-6.3-14.6-13.7-14.6h-20h-49.8c-24.9,0-44.9,20-44.9,44.4l-2.9,718.6
								c0,24.9,20,44.9,44.9,44.9l293.9,1.5c24.9,0,44.9-20,44.9-44.4l2.9-718.6C2708.7,416.2,2688.7,396.2,2663.8,395.7z"/>
						</g>
					</g>
				</g>
			</g>
			<g>
				<rect x="2367.9" y="884.9" class="st7" width="291" height="19.5"/>
			</g>
			<g>
				<g>
					<path class="st7" d="M2648.6,961.5c0,0.5-62,1.5-138.6,1.5c-76.6,0-138.6-0.5-138.6-1.5c0-0.5,62-1.5,138.6-1.5
						S2648.6,961,2648.6,961.5z"/>
				</g>
			</g>
			<g>
				<g>
					<path class="st7" d="M2648.6,500.2c0,0.5-62,1.5-138.6,1.5c-76.6,0-138.6-0.5-138.6-1.5c0-0.5,62-1.5,138.6-1.5
						S2648.6,499.2,2648.6,500.2z"/>
				</g>
			</g>
			<g>
				<g>
					<path class="st7" d="M2648.6,997.2c0,0.5-62,1.5-138.6,1.5c-76.6,0-138.6-0.5-138.6-1.5c0-0.5,62-1.5,138.6-1.5
						S2648.6,996.2,2648.6,997.2z"/>
				</g>
			</g>
			<g>
				<g>
					<path class="st7" d="M2648.6,1032.3c0,0.5-62,1.5-138.6,1.5c-76.6,0-138.6-0.5-138.6-1.5c0-0.5,62-1.5,138.6-1.5
						C2586.6,1031.3,2648.6,1031.8,2648.6,1032.3z"/>
				</g>
			</g>
			<g>
				<g>
					<path class="st7" d="M2648.6,1068c0,0.5-62,1.5-138.6,1.5c-76.6,0-138.6-0.5-138.6-1.5c0-0.5,62-1.5,138.6-1.5
						S2648.6,1067,2648.6,1068z"/>
				</g>
			</g>
			<g>
				<g>
					<path class="st7" d="M2648.6,1103.1c0,0.5-62,1.5-138.6,1.5c-76.6,0-138.6-0.5-138.6-1.5c0-0.5,62-1.5,138.6-1.5
						C2586.6,1102.1,2648.6,1102.6,2648.6,1103.1z"/>
				</g>
			</g>
			<g>
				<g>
					<path class="st7" d="M2652.5,1143.6c0,0.5-62,1.5-138.6,1.5c-76.6,0-138.6-0.5-138.6-1.5c0-0.5,62-1.5,138.6-1.5
						C2590.5,1142.2,2652.5,1142.7,2652.5,1143.6z"/>
				</g>
			</g>
			<g>
				<g>
					<g>
						<g>
							<rect x="2371.4" y="540.2" class="st9" width="291.4" height="282.2"/>
						</g>
					</g>
				</g>
				<g>
					<g>
						<g>
							<polygon class="st5" points="2393.8,798.5 2474.4,653.5 2540.7,746.2 2580.8,696.9 2640.3,798.5 							"/>
						</g>
					</g>
				</g>
				<g>
					<g>
						<g>
							<path class="st5" d="M2568.6,625.2c0,11.7-9.3,21-21,21c-11.7,0-21-9.3-21-21c0-11.7,9.3-21,21-21
								C2559.3,604.2,2568.6,613.5,2568.6,625.2z"/>
						</g>
					</g>
				</g>
				<g>
					<g>
						<g>
							<g>
								<path class="st7" d="M2640.3,799c0,0,0-0.5,0-1c0-1,0-2,0-3.4c0-2.9,0-7.3,0-12.7c0-11.2,0-27.3-0.5-47.8
									c0-41-0.5-100.1-0.5-170.4l1,1c-71.3,0-155.7,0-246.5,0c-0.5,0.5,2.4-2.4,1.5-1.5l0,0l0,0v0.5v0.5v1v2v3.9v7.8
									c0,5.4,0,10.7,0,16.1c0,10.7,0,21,0,31.2c0,20.5,0,41,0,61c0,39.5,0,76.6,0,111.3l-1-1c73.7,0.5,134.7,0.5,178.2,0.5
									c21.5,0,38.6,0,50.3,0.5c5.9,0,10.3,0,13.2,0c1.5,0,2.4,0,3.4,0C2639.9,799,2640.3,799,2640.3,799s-0.5,0-1,0
									c-1,0-2,0-3.4,0c-2.9,0-7.3,0-13.2,0c-11.7,0-28.8,0-49.8,0.5c-43.4,0-105,0.5-178.7,0.5h-1v-1c0-34.2,0-71.8,0-111.3
									c0-19.5,0-40,0-61c0-10.3,0-21,0-31.2c0-5.4,0-10.7,0-16.1v-7.8v-3.9v-2v-1v-0.5v-0.5l0,0l0,0c-1.5,1,1.5-2,1.5-1.5
									c90.3,0,174.8,0,246.5,0h1v1c-0.5,70.8-0.5,129.9-0.5,170.9c0,20.5,0,36.6-0.5,47.8c0,5.4,0,9.3,0,12.7c0,1.5,0,2.4,0,2.9
									C2640.3,799,2640.3,799.5,2640.3,799z"/>
							</g>
						</g>
					</g>
				</g>
			</g>
		</g>
	</g>
	<g id="Tablet">
		<g>
			<g>
				<g>
					<path class="st7" d="M2225.4,119.4v650.3c0,31.2-25.4,56.1-56.1,56.1h-982.7c-31.2,0-56.1-25.4-56.1-56.1V119.4
						c0-31.2,25.4-56.1,56.1-56.1h982.2C2200,62.8,2225.4,88.2,2225.4,119.4z"/>
				</g>
				<g>
					<rect x="1205.1" y="86.7" class="st8" width="914.4" height="715.2"/>
				</g>
				<g>
					<path class="st6" d="M2170.2,415.3c16.1,0,29.3,13.2,29.3,29.3s-13.2,29.3-29.3,29.3c-16.1,0-29.3-13.2-29.3-29.3
						S2154.1,415.3,2170.2,415.3z"/>
				</g>
				<g>
					<path class="st6" d="M1173.8,335.7v218.2c0,3.4-2.4,5.9-5.9,5.9l0,0c-3.4,0-5.9-2.4-5.9-5.9V335.7c0-3.4,2.4-5.9,5.9-5.9l0,0
						C1170.9,329.3,1173.8,332.3,1173.8,335.7z"/>
				</g>
			</g>
			<g>
				<g>
					<rect x="1622" y="140.9" class="st7" width="291" height="19.5"/>
				</g>
				<g>
					<rect x="1243.2" y="475.3" class="st7" width="291" height="19.5"/>
				</g>
				<g>
					<g>
						<path class="st7" d="M1983.7,213.1c0,0.5-81,1.5-180.6,1.5c-100.1,0-181.1-0.5-181.1-1.5c0-0.5,81-1.5,181.1-1.5
							C1902.7,211.7,1983.7,212.7,1983.7,213.1z"/>
					</g>
				</g>
				<g>
					<g>
						<path class="st7" d="M1983.7,255.6c0,0.5-81,1.5-180.6,1.5c-100.1,0-181.1-0.5-181.1-1.5c0-0.5,81-1.5,181.1-1.5
							C1902.7,254.2,1983.7,255.1,1983.7,255.6z"/>
					</g>
				</g>
				<g>
					<g>
						<path class="st7" d="M1983.7,298.1c0,0.5-81,1.5-180.6,1.5c-100.1,0-181.1-0.5-181.1-1.5c0-0.5,81-1.5,181.1-1.5
							C1902.7,297.1,1983.7,297.6,1983.7,298.1z"/>
					</g>
				</g>
				<g>
					<g>
						<path class="st7" d="M1983.7,340.6c0,0.5-81,1.5-180.6,1.5c-100.1,0-181.1-0.5-181.1-1.5c0-0.5,81-1.5,181.1-1.5
							C1902.7,339.6,1983.7,340.1,1983.7,340.6z"/>
					</g>
				</g>
				<g>
					<g>
						<path class="st7" d="M1983.7,383c0,0.5-81,1.5-180.6,1.5c-100.1,0-181.1-0.5-181.1-1.5c0-0.5,81-1.5,181.1-1.5
							C1902.7,382.1,1983.7,382.5,1983.7,383z"/>
					</g>
				</g>
				<g>
					<g>
						<path class="st7" d="M1904.6,425.5c0,0.5-63.5,1.5-141.1,1.5c-78.1,0-141.1-0.5-141.1-1.5c0-0.5,63-1.5,141.1-1.5
							C1841.2,424.5,1904.6,425,1904.6,425.5z"/>
					</g>
				</g>
				<g>
					<g>
						<path class="st7" d="M1721.1,551.9c0,0.5-106.4,1.5-237.3,1.5c-130.8,0-237.3-0.5-237.3-1.5c0-0.5,106.4-1.5,237.3-1.5
							S1721.1,551,1721.1,551.9z"/>
					</g>
				</g>
				<g>
					<g>
						<path class="st7" d="M1721.1,587.1c0,0.5-106.4,1.5-237.3,1.5c-130.8,0-237.3-0.5-237.3-1.5c0-0.5,106.4-1.5,237.3-1.5
							C1614.7,586.1,1721.1,586.6,1721.1,587.1z"/>
					</g>
				</g>
				<g>
					<g>
						<path class="st7" d="M1721.1,622.7c0,0.5-106.4,1.5-237.3,1.5c-130.8,0-237.3-0.5-237.3-1.5c0-0.5,106.4-1.5,237.3-1.5
							S1721.1,621.8,1721.1,622.7z"/>
					</g>
				</g>
				<g>
					<g>
						<path class="st7" d="M1721.1,657.9c0,0.5-106.4,1.5-237.3,1.5c-130.8,0-237.3-0.5-237.3-1.5c0-0.5,106.4-1.5,237.3-1.5
							C1614.7,656.9,1721.1,657.4,1721.1,657.9z"/>
					</g>
				</g>
				<g>
					<g>
						<path class="st7" d="M1721.1,693.5c0,0.5-106.4,1.5-237.3,1.5c-130.8,0-237.3-0.5-237.3-1.5c0-0.5,106.4-1.5,237.3-1.5
							S1721.1,693,1721.1,693.5z"/>
					</g>
				</g>
				<g>
					<g>
						<g>
							<g>
								<rect x="1246.6" y="130.6" class="st10" width="291.4" height="282.2"/>
							</g>
						</g>
					</g>
					<g>
						<g>
							<g>
								<polygon class="st9" points="1269,388.9 1349.6,243.4 1416,336.2 1456,286.9 1515.6,388.9 								"/>
							</g>
						</g>
					</g>
					<g>
						<g>
							<g>
								<path class="st9" d="M1443.8,215.1c0,11.7-9.3,21-21,21c-11.7,0-21-9.3-21-21c0-11.7,9.3-21,21-21
									C1434.5,194.1,1443.8,203.9,1443.8,215.1z"/>
							</g>
						</g>
					</g>
					<g>
						<g>
							<g>
								<g>
									<path class="st7" d="M1515.6,389.4c0,0,0-0.5,0-1c0-1,0-2,0-3.4c0-2.9,0-7.3,0-12.7c0-11.2,0-27.3-0.5-47.8
										c0-41-0.5-100.1-0.5-170.4l1,1c-71.3,0-155.7,0-246.5,0c-0.5,0.5,2.4-2.4,1.5-1.5l0,0l0,0v0.5v0.5v1v2v3.9v7.8
										c0,5.4,0,10.7,0,16.1c0,10.7,0,21,0,31.2c0,20.5,0,41,0,61c0,39.5,0,76.6,0,111.3l-1-1c73.7,0.5,134.7,0.5,178.2,0.5
										c21.5,0,38.6,0,50.3,0.5c5.9,0,10.3,0,13.2,0c1.5,0,2.4,0,3.4,0C1515.1,389.4,1515.6,389.4,1515.6,389.4s-0.5,0-1,0
										c-1,0-2,0-3.4,0c-2.9,0-7.3,0-13.2,0c-11.7,0-28.3,0-49.8,0.5c-43.4,0-105,0.5-178.7,0.5h-1v-1c0-34.2,0-71.8,0-111.3
										c0-19.5,0-40,0-61c0-10.3,0-21,0-31.2c0-5.4,0-10.7,0-16.1v-7.8V158v-2v-1v-0.5v-0.5l0,0l0,0c-1.5,1,1.5-2,1.5-1.5
										c90.3,0,174.8,0,246.5,0h1v1c-0.5,70.8-0.5,129.9-0.5,170.9c0,20.5,0,36.6-0.5,47.8c0,5.4,0,9.8,0,12.7c0,1.5,0,2.4,0,2.9
										C1515.6,389.4,1515.6,389.4,1515.6,389.4z"/>
								</g>
							</g>
						</g>
					</g>
				</g>
				<g>
					<g>
						<g>
							<g>
								<rect x="1786.5" y="512.9" class="st10" width="206.5" height="199.7"/>
							</g>
						</g>
					</g>
					<g>
						<g>
							<g>
								<polygon class="st9" points="1802.6,695.5 1859.7,592.5 1906.1,658.4 1934.4,623.2 1976.9,695.5 								"/>
							</g>
						</g>
					</g>
					<g>
						<g>
							<g>
								<path class="st9" d="M1926.1,572.5c0,8.3-6.8,14.6-14.6,14.6c-8.3,0-14.6-6.8-14.6-14.6c0-8.3,6.8-14.6,14.6-14.6
									C1919.3,557.8,1926.1,564.2,1926.1,572.5z"/>
							</g>
						</g>
					</g>
					<g>
						<g>
							<g>
								<g>
									<path class="st7" d="M1976.9,696c0,0,0-0.5,0-1c0-0.5,0-1.5,0-2.4c0-2,0-4.9,0-8.8c0-7.8,0-19.5,0-33.7
										c0-29.3-0.5-70.8-0.5-120.6l1,1c-50.3,0-110.3,0-174.3,0c0,0,2-2,1-1l0,0l0,0l0,0v0.5v0.5v1.5v2.9v5.9c0,3.9,0,7.3,0,11.2
										c0,7.3,0,15.1,0,22.5c0,14.6,0,28.8,0,43c0,27.8,0,54.2,0,78.6l-1-1c52.2,0,95.7,0.5,126,0.5c15.1,0,27.3,0,35.6,0
										c3.9,0,7.3,0,9.3,0c1,0,2,0,2.4,0C1976.4,696,1976.9,696,1976.9,696s0,0-1,0c-0.5,0-1.5,0-2.4,0c-2,0-5.4,0-9.3,0
										c-8.3,0-20,0-35.1,0c-30.8,0-74.2,0.5-126.4,0.5h-1v-1c0-24.4,0-50.8,0-78.6c0-14.2,0-28.3,0-43c0-7.3,0-14.6,0-22.5
										c0-3.9,0-7.3,0-11.2v-5.9v-2.9V530v-0.5l0,0l0,0l0,0l0,0c-1,1,1-1.5,1-1c64,0,124,0,174.3,0h1v1c0,50.3-0.5,91.8-0.5,121.1
										c0,14.6,0,25.9,0,33.7c0,3.9,0,6.8,0,8.8c0,1,0,1.5,0,2.4C1976.9,695.5,1976.9,696,1976.9,696z"/>
								</g>
							</g>
						</g>
					</g>
				</g>
			</g>
		</g>
	</g>
	<g id="Computer">
		<g>
			<g>
				<g>
					<g>
						<path class="st6" d="M2141.4,1915.4H752.5c-39.1,0-71.3-31.7-71.3-71.3V974.2c0-39.1,31.7-71.3,71.3-71.3h1388.9
							c39.1,0,71.3,31.7,71.3,71.3v869.9C2212.7,1883.7,2180.5,1915.4,2141.4,1915.4z"/>
					</g>
					<g>
						<path class="st6" d="M2189.3,1929.1H704.7c-47.8,0-86.9-39.1-86.9-86.9v-1.5h1658.4v1.5
							C2276.2,1890.5,2237.1,1929.1,2189.3,1929.1z"/>
					</g>
					<g>
						<rect x="722.8" y="943.5" class="st9" width="1444.5" height="854.8"/>
					</g>
					<g>
						<polygon class="st7" points="1296.4,1840.8 1316.9,1873.5 1606.4,1873.5 1625.4,1840.8 						"/>
					</g>
				</g>
				<g>
					<rect x="771.1" y="1000.6" class="st11" width="1329.8" height="797.7"/>
				</g>
				<g>
					<path class="st7" d="M827.7,1039.6c0,6.3-4.9,11.2-11.2,11.2c-6.3,0-11.2-4.9-11.2-11.2s4.9-11.2,11.2-11.2
						C822.8,1028.4,827.7,1033.8,827.7,1039.6z"/>
				</g>
				<g>
					<path class="st7" d="M873.1,1039.6c0,6.3-4.9,11.2-11.2,11.2c-6.3,0-11.2-4.9-11.2-11.2s4.9-11.2,11.2-11.2
						C868.2,1028.4,873.1,1033.8,873.1,1039.6z"/>
				</g>
				<g>
					<path class="st7" d="M918.5,1039.6c0,6.3-4.9,11.2-11.2,11.2c-6.3,0-11.2-4.9-11.2-11.2s4.9-11.2,11.2-11.2
						C913.6,1028.4,918.5,1033.8,918.5,1039.6z"/>
				</g>
				<g>
					<g>
						<path class="st7" d="M2100.9,1088.5c0,0.5-297.8,1.5-664.9,1.5s-664.9-0.5-664.9-1.5c0-0.5,297.8-1.5,664.9-1.5
							C1803.1,1087.5,2100.9,1088,2100.9,1088.5z"/>
					</g>
				</g>
				<g>
					<rect x="681.7" y="1841.2" class="st7" width="1530.9" height="4.9"/>
				</g>
			</g>
			<g>
				<g>
					<rect x="879.9" y="1476.1" class="st7" width="291" height="19.5"/>
				</g>
				<g>
					<rect x="1255.4" y="1206.1" class="st7" width="291" height="19.5"/>
				</g>
				<g>
					<g>
						<path class="st7" d="M1978.9,1278.4c0,0.5-162.1,1.5-361.7,1.5s-361.7-0.5-361.7-1.5c0-0.5,162.1-1.5,361.7-1.5
							C1817.3,1276.9,1978.9,1277.9,1978.9,1278.4z"/>
					</g>
				</g>
				<g>
					<g>
						<path class="st7" d="M1978.9,1320.8c0,0.5-162.1,1.5-361.7,1.5s-361.7-0.5-361.7-1.5c0-0.5,162.1-1.5,361.7-1.5
							C1817.3,1319.4,1978.9,1320.3,1978.9,1320.8z"/>
					</g>
				</g>
				<g>
					<g>
						<path class="st7" d="M1978.9,1363.3c0,0.5-162.1,1.5-361.7,1.5s-361.7-0.5-361.7-1.5c0-0.5,162.1-1.5,361.7-1.5
							C1817.3,1362.3,1978.9,1362.8,1978.9,1363.3z"/>
					</g>
				</g>
				<g>
					<g>
						<path class="st7" d="M1978.9,1405.8c0,0.5-162.1,1.5-361.7,1.5s-361.7-0.5-361.7-1.5c0-0.5,162.1-1.5,361.7-1.5
							C1817.3,1404.8,1978.9,1405.3,1978.9,1405.8z"/>
					</g>
				</g>
				<g>
					<g>
						<path class="st7" d="M1978.9,1448.3c0,0.5-162.1,1.5-361.7,1.5s-361.7-0.5-361.7-1.5c0-0.5,162.1-1.5,361.7-1.5
							C1817.3,1447.3,1978.9,1447.8,1978.9,1448.3z"/>
					</g>
				</g>
				<g>
					<g>
						<path class="st7" d="M1538,1490.7c0,0.5-63.5,1.5-141.1,1.5c-78.1,0-141.1-0.5-141.1-1.5c0-0.5,63-1.5,141.1-1.5
							C1474.6,1489.7,1538,1490.2,1538,1490.7z"/>
					</g>
				</g>
				<g>
					<g>
						<path class="st7" d="M1974,1573.2c0,0.5-106.4,1.5-237.7,1.5s-237.7-0.5-237.7-1.5c0-0.5,106.4-1.5,237.7-1.5
							C1867.5,1572.3,1974,1572.7,1974,1573.2z"/>
					</g>
				</g>
				<g>
					<g>
						<path class="st7" d="M1974,1618.6c0,0.5-106.4,1.5-237.7,1.5s-237.7-0.5-237.7-1.5c0-0.5,106.4-1.5,237.7-1.5
							C1867.5,1617.2,1974,1617.7,1974,1618.6z"/>
					</g>
				</g>
				<g>
					<g>
						<path class="st7" d="M1974,1663.5c0,0.5-106.4,1.5-237.7,1.5s-237.7-0.5-237.7-1.5c0-0.5,106.4-1.5,237.7-1.5
							S1974,1662.6,1974,1663.5z"/>
					</g>
				</g>
				<g>
					<g>
						<path class="st7" d="M1974,1708.5c0,0.5-106.4,1.5-237.7,1.5s-237.7-0.5-237.7-1.5c0-0.5,106.4-1.5,237.7-1.5
							C1867.5,1707.5,1974,1708,1974,1708.5z"/>
					</g>
				</g>
				<g>
					<g>
						<path class="st7" d="M1171.4,1568.8c0,0.5-63.5,1.5-141.6,1.5c-78.1,0-141.6-0.5-141.6-1.5c0-0.5,63.5-1.5,141.6-1.5
							C1107.9,1567.9,1171.4,1568.3,1171.4,1568.8z"/>
					</g>
				</g>
				<g>
					<g>
						<path class="st7" d="M1171.4,1604.5c0,0.5-63.5,1.5-141.6,1.5c-78.1,0-141.6-0.5-141.6-1.5c0-0.5,63.5-1.5,141.6-1.5
							C1107.9,1603,1171.4,1603.5,1171.4,1604.5z"/>
					</g>
				</g>
				<g>
					<g>
						<path class="st7" d="M1171.4,1639.6c0,0.5-63.5,1.5-141.6,1.5c-78.1,0-141.6-0.5-141.6-1.5c0-0.5,63.5-1.5,141.6-1.5
							C1107.9,1638.6,1171.4,1639.1,1171.4,1639.6z"/>
					</g>
				</g>
				<g>
					<g>
						<path class="st7" d="M1171.4,1675.3c0,0.5-63.5,1.5-141.6,1.5c-78.1,0-141.6-0.5-141.6-1.5c0-0.5,63.5-1.5,141.6-1.5
							C1107.9,1673.8,1171.4,1674.8,1171.4,1675.3z"/>
					</g>
				</g>
				<g>
					<g>
						<path class="st7" d="M1171.4,1710.4c0,0.5-63.5,1.5-141.6,1.5c-78.1,0-141.6-0.5-141.6-1.5c0-0.5,63.5-1.5,141.6-1.5
							C1107.9,1709.4,1171.4,1709.9,1171.4,1710.4z"/>
					</g>
				</g>
				<g>
					<g>
						<g>
							<g>
								<rect x="879.9" y="1142.2" class="st9" width="291.4" height="282.2"/>
							</g>
						</g>
					</g>
					<g>
						<g>
							<g>
								<polygon class="st5" points="902.4,1400.4 983,1254.9 1049.3,1348.2 1089.4,1298.9 1148.9,1400.4 								"/>
							</g>
						</g>
					</g>
					<g>
						<g>
							<g>
								<path class="st5" d="M1077.2,1227.1c0,11.7-9.3,21-21,21s-21-9.3-21-21c0-11.7,9.3-21,21-21
									C1067.9,1206.1,1077.2,1215.4,1077.2,1227.1z"/>
							</g>
						</g>
					</g>
					<g>
						<g>
							<g>
								<g>
									<path class="st7" d="M1148.9,1400.9c0,0,0-0.5,0-1c0-1,0-2,0-3.4c0-2.9,0-7.3,0-12.7c0-11.2,0-27.3-0.5-47.8
										c0-41-0.5-100.1-0.5-170.4l1,1c-71.3,0-155.7,0-246.5,0c-0.5,0.5,2.4-2.4,1.5-1.5l0,0l0,0v0.5v0.5v1v2v3.9v7.8
										c0,5.4,0,10.7,0,16.1c0,10.7,0,21,0,31.2c0,20.5,0,41,0,61c0,39.5,0,76.6,0,111.3l-1-1c73.7,0.5,134.7,0.5,178.2,0.5
										c21.5,0,38.6,0,50.3,0.5c5.9,0,10.3,0,13.2,0c1.5,0,2.4,0,3.4,0C1148.5,1400.9,1148.9,1400.9,1148.9,1400.9s-0.5,0-1,0
										c-1,0-2,0-3.4,0c-2.9,0-7.3,0-13.2,0c-11.7,0-28.8,0-49.8,0.5c-43.4,0-105,0.5-178.7,0.5h-1v-1c0-34.2,0-71.8,0-111.3
										c0-19.5,0-40,0-61c0-10.3,0-21,0-31.2c0-5.4,0-10.7,0-16.1v-7.3v-3.9v-2v-1v-0.5v-0.5l0,0l0,0c-1.5,1,1.5-2,1.5-1.5
										c90.3,0,174.8,0,246.5,0h1v1c-0.5,70.8-0.5,129.9-0.5,170.9c0,20.5,0,36.6-0.5,47.8c0,5.4,0,9.8,0,12.7c0,1.5,0,2.4,0,2.9
										C1148.9,1400.9,1148.9,1400.9,1148.9,1400.9z"/>
								</g>
							</g>
						</g>
					</g>
				</g>
				<g>
					<g>
						<g>
							<g>
								<rect x="1255.4" y="1551.7" class="st9" width="206.5" height="199.7"/>
							</g>
						</g>
					</g>
					<g>
						<g>
							<g>
								<polygon class="st10" points="1271.5,1734.3 1328.6,1631.8 1375,1697.2 1403.8,1662.6 1445.8,1734.3 								"/>
							</g>
						</g>
					</g>
					<g>
						<g>
							<g>
								<path class="st5" d="M1395,1611.8c0,8.3-6.8,14.6-14.6,14.6c-8.3,0-14.6-6.8-14.6-14.6c0-8.3,6.8-14.6,14.6-14.6
									C1388.6,1596.7,1395,1603.5,1395,1611.8z"/>
							</g>
						</g>
					</g>
					<g>
						<g>
							<g>
								<g>
									<path class="st7" d="M1445.8,1734.8c0,0,0-0.5,0-1s0-1.5,0-2.4c0-2,0-4.9,0-8.8c0-7.8,0-19.5,0-33.7
										c0-29.3-0.5-70.8-0.5-120.6l1,1c-50.3,0-110.3,0-174.3,0c0,0,2-2,1-1l0,0l0,0l0,0v0.5v0.5v1.5v2.9v5.9c0,3.9,0,7.3,0,11.2
										c0,7.3,0,15.1,0,22.5c0,14.6,0,28.8,0,43c0,27.8,0,54.2,0,78.6l-1-1c52.2,0,95.7,0.5,126,0.5c15.1,0,27.3,0,35.6,0
										c3.9,0,7.3,0,9.3,0c1,0,2,0,2.4,0C1445.3,1734.8,1445.8,1734.8,1445.8,1734.8s0,0-1,0c-0.5,0-1.5,0-2.4,0c-2,0-5.4,0-9.3,0
										c-8.3,0-20,0-35.1,0c-30.8,0-74.2,0.5-126.4,0.5h-1v-1c0-24.4,0-50.8,0-78.6c0-14.2,0-28.3,0-43c0-7.3,0-14.6,0-22.5
										c0-3.9,0-7.3,0-11.2v-4.9v-2.9v-1.5v-0.5v-0.5l0,0l0,0l0,0c-1,1,1-1.5,1-1c64,0,124,0,174.3,0h1v1
										c0,50.3-0.5,91.8-0.5,121.1c0,14.6,0,25.9,0,33.7c0,3.9,0,6.8,0,8.8c0,1,0,1.5,0,2.4
										C1445.8,1734.8,1445.8,1734.8,1445.8,1734.8z"/>
								</g>
							</g>
						</g>
					</g>
				</g>
			</g>
		</g>
	</g>
	<g>
		<g>
			<g>
				<path class="st10" d="M3185.2,1842.7l-48.8-5.9l-11.2,91.3l71.3,9.3l1-5.9c4.4-24.9,21.5-127.9,18.6-145.5
					C3212,1767,3185.2,1842.7,3185.2,1842.7z"/>
			</g>
		</g>
		<g>
			<g>
				<g>
					<path class="st6" d="M3211.5,1780.2c1,0-2.4,34.7-7.3,76.6c-4.9,42.5-9.8,76.6-10.7,76.2c-1,0,2.4-34.7,7.3-76.6
						C3205.7,1814.4,3210.5,1780.2,3211.5,1780.2z"/>
				</g>
			</g>
		</g>
		<g>
			<g>
				<g>
					<path class="st6" d="M3194.9,1838.3c-0.5,0.5-2.9-0.5-5.4-2.4c-2.4-2.4-3.4-4.9-2.4-5.4c0.5-0.5,2.9,1,4.9,2.9
						C3193.9,1835.9,3195.4,1837.8,3194.9,1838.3z"/>
				</g>
			</g>
		</g>
		<g>
			<g>
				<g>
					<path class="st6" d="M3198.8,1832.9c-0.5,1-3.4,0-6.3-2c-2.9-2-4.4-4.9-3.9-5.4c0.5-0.5,2.9,1,5.9,2.9
						C3197.4,1830.5,3199.3,1832,3198.8,1832.9z"/>
				</g>
			</g>
		</g>
		<g>
			<g>
				<g>
					<path class="st6" d="M3195.9,1905.7c0,0.5-1.5,1.5-3.4,3.4c-2.4,2-5.9,3.9-8.8,7.3c-2.9,2.9-4.4,6.8-5.4,9.3
						c-0.5,2.9-0.5,4.4-1,4.9c-0.5,0-1.5-2-1-4.9c0-3.4,2-7.8,5.4-11.2c3.4-3.4,7.3-5.9,9.8-6.8
						C3193.9,1905.7,3195.9,1905.2,3195.9,1905.7z"/>
				</g>
			</g>
		</g>
		<g>
			<g>
				<g>
					<path class="st6" d="M3186.1,1836.8c1-0.5,2.4,1.5,2.9,4.4c0.5,2.9,0,4.9-1,4.9c-1,0-1.5-2-2-4.4
						C3185.2,1839.3,3185.2,1837.3,3186.1,1836.8z"/>
				</g>
			</g>
		</g>
		<g>
			<g>
				<g>
					<path class="st6" d="M3181.2,1837.8c1,0,1.5,2.4,1,5.9c-0.5,2.9-1.5,5.4-2,5.4c-1,0-1.5-2.4-1-5.9
						C3179.3,1840.3,3180.3,1837.8,3181.2,1837.8z"/>
				</g>
			</g>
		</g>
	</g>
	<g>
		<polygon class="st6" points="3154.9,1935.5 2884.4,1908.1 2323.5,1920.8 2472.4,1800.7 2847.3,1782.7 3174.4,1827.6 		"/>
	</g>
	<g>
		<g>
			<path class="st7" d="M2697.9,1860.8c0,0.5-52.7,1.5-117.7,1.5c-64.9,0-117.7-0.5-117.7-1.5c0-0.5,52.7-1.5,117.7-1.5
				C2645.2,1859.3,2697.9,1859.8,2697.9,1860.8z"/>
		</g>
	</g>
	<g>
		<polygon points="2671.6,1791 2690.6,1912 2727.7,1912 2699.4,1789.5 		"/>
	</g>
	<g>
		<g>
			<g>
				<path class="st10" d="M2814.6,1913.5l-5.4-48.8l-91.8,9.8l7.3,71.8h5.9c25.4-1.5,129.4-8.3,145.5-15.1
					C2894.2,1922.8,2814.6,1913.5,2814.6,1913.5z"/>
			</g>
		</g>
		<g>
			<g>
				<g>
					<path class="st6" d="M2877.6,1925.7c0,1-34.2,5.4-76.2,10.3c-42.5,4.9-76.6,7.8-76.6,6.8s34.2-5.4,76.2-10.3
						C2842.9,1928.1,2877.6,1925.2,2877.6,1925.7z"/>
				</g>
			</g>
		</g>
		<g>
			<g>
				<g>
					<path class="st6" d="M2817.1,1923.3c-1-0.5-0.5-2.9,1.5-5.9c1.5-2.9,3.9-4.4,4.4-3.9c0.5,0.5-0.5,2.9-2,5.4
						C2819.5,1921.8,2818,1923.7,2817.1,1923.3z"/>
				</g>
			</g>
		</g>
		<g>
			<g>
				<g>
					<path class="st6" d="M2823.4,1925.7c-1,0-1-3.4,0.5-6.3c1.5-3.4,3.4-5.4,4.4-4.9c1,0.5,0,2.9-1.5,6.3
						C2825.4,1923.7,2824.4,1926.2,2823.4,1925.7z"/>
				</g>
			</g>
		</g>
		<g>
			<g>
				<g>
					<path class="st6" d="M2752.1,1939.4c-0.5,0.5-2-1-3.9-2.9c-2.4-2-5.4-4.9-8.8-6.8c-3.9-2-7.3-2.9-10.3-2.9
						c-2.9,0-4.4,0.5-4.9,0c0-0.5,1.5-2,4.4-2.4c2.9-0.5,7.8,0,12.2,2.4s7.3,5.9,8.8,7.8C2751.6,1937.4,2752.1,1939.4,2752.1,1939.4
						z"/>
				</g>
			</g>
		</g>
		<g>
			<g>
				<g>
					<path class="st6" d="M2816.6,1914c0.5,0.5-1,2.4-3.4,3.9c-2.4,1-4.9,1-4.9,0.5c0-1,1.5-2,3.9-2.9
						C2813.6,1914,2816.1,1913.5,2816.6,1914z"/>
				</g>
			</g>
		</g>
		<g>
			<g>
				<g>
					<path class="st6" d="M2814.6,1909.6c0,1-2,2-5.4,2.4c-2.9,0.5-5.9,0-5.9-1s2.4-2,5.4-2.4
						C2811.7,1908.1,2814.1,1908.6,2814.6,1909.6z"/>
				</g>
			</g>
		</g>
	</g>
	<g>
		<path class="st12" d="M2277.6,1355l78.1-1.5c1-9.3,2.4-44.4,2.4-44.4s32.7-2.9,35.1-35.6c2.4-32.2,1.5-106.9,1.5-106.9l0,0
			c-36.6-18.6-80.1-15.6-113.7,7.3l-4.9,3.4L2277.6,1355z"/>
	</g>
	<g>
		<path class="st13" d="M2358.7,1309.1c0,0-20.5,0.5-41.5-14.6c0,0,8.8,23.9,41,22.9L2358.7,1309.1z"/>
	</g>
	<g>
		<path class="st6" d="M2397.2,1155.3c7.3,0,13.7-8.3,11.2-15.6c-2-7.3-11.7-10.7-18.1-6.8c3.4-3.4,7.3-6.8,9.3-11.7
			c2-4.4,1.5-10.7-2.4-13.7c-3.9-3.4-9.3-2.9-14.2-1c-6.8,2.9-12.2,8.8-19.5,11.2s-15.1,1.5-22.5,1.5c-8.3,0.5-16.6,2.9-23.4,8.3
			c-6.3,5.4-10.7,13.7-10.3,22c-10.7-1.5-22.5-1.5-30.8,5.4c-6.8,5.4-10.3,15.1-10.3,23.9s3.9,17.6,6.3,25.9l0,0
			c1.5,4.9,3.4,6.8,3.4,6.8l3.9,23.4l14.6-0.5l-1-48.3c0,0-1.5-20.5,16.1-18.6c17.6,2,41.5,21.5,75.7,16.6c5.4-1,11.2-1.5,16.1-4.4
			c4.4-2.9,7.8-8.8,7.3-14.2C2408.5,1159.2,2402.6,1154.4,2397.2,1155.3z"/>
	</g>
	<g>
		<g>
			<path class="st12" d="M2282,1206.1c-0.5-0.5-23.9-3.4-22,24.4c2.4,27.3,29.3,16.1,29.3,15.6
				C2289.8,1245.2,2282,1206.1,2282,1206.1z"/>
		</g>
		<g>
			<g>
				<path class="st13" d="M2280.5,1236.9c0,0-0.5,0.5-1.5,1c-1,0.5-2,1-3.4,0.5c-2.9-1-5.9-5.4-6.3-10.3c-0.5-2.4,0-4.9,1-6.8
					c0.5-2,2-3.4,3.4-3.9c1.5-0.5,2.4,0.5,2.9,1c0.5,1,0.5,1.5,0.5,1.5s0.5-0.5,0-1.5c0-0.5-0.5-1-1-1.5c-0.5-0.5-1.5-0.5-2.9-0.5
					c-2,0.5-3.9,2.4-4.9,4.9c-1,2.4-1.5,4.9-1,7.8c0.5,5.4,3.9,10.7,7.8,11.2c2,0.5,3.4-0.5,4.4-1
					C2280.5,1237.8,2280.5,1236.9,2280.5,1236.9z"/>
			</g>
		</g>
	</g>
	<g>
		<path class="st7" d="M2214.2,1837.8c14.6,22,103.5,155.2,209.4,58.1c135.2-124,242.1-232.4,242.1-232.4l40,245.1l126-6.8
			c0,0-48.8-364.7-80.1-397.9c-34.7-37.1-66.4-33.7-338.3,180.6L2214.2,1837.8z"/>
	</g>
	<g>
		<g>
			<polygon class="st6" points="2664.3,1422.9 2781.4,1336.9 2787.3,1346.2 2670.6,1433.1 			"/>
		</g>
		<g>
			<path class="st12" d="M2693.1,1419.9c0,0,15.6-41,19.5-49.8c3.4-8.8,9.8-23.9,11.7-24.4c2.4-0.5,10.3,1-0.5,26.9
				c-10.7,25.9,12.7,10.3,12.7,10.3l22.5-16.1c0,0,18.1,53.2,7.8,69.3c-11.2,17.6-26.9,34.2-26.9,34.2L2693.1,1419.9z"/>
		</g>
		<g>
			<path class="st10" d="M2694.5,1415.1c-2.4-5.4-151.8,126.4-181.6,130.8l-86.9-113.3c0,0-18.1-28.8-57.1-77.6
				c-24.9-31.7-94.2-24.9-112.3,13.7c-30.8,65.4-31.2,138.6-47.8,280.7l-6.8,95.7c-1.5,20.5-1.5,41,1,61.5
				c2.4,23.9,7.8,48.8,19,45.4l199.2-164.5l6.3-74.7c42,42.5,54.7,51.3,76.6,47.8c54.7-8.3,246.5-181.1,246.5-181.1
				S2697,1420.4,2694.5,1415.1z"/>
		</g>
		<g>
			<g>
				<path class="st6" d="M2725.3,1502.9c0,0.5-4.4-2.9-10.7-8.3c-6.3-5.4-14.6-13.7-22.9-23.4c-8.3-9.8-15.1-19-19.5-26.4
					s-6.8-11.7-6.3-11.7c0.5,0,3.4,3.9,7.8,10.7c4.9,6.8,11.7,16.1,20,25.9s16.1,18.1,22,23.9
					C2721.9,1499,2725.3,1502.9,2725.3,1502.9z"/>
			</g>
		</g>
		<g>
			<g>
				<path class="st6" d="M2504.6,1591.3c-0.5,0,0.5-10.3,2.9-22.5s4.4-22.5,5.4-22.5c0.5,0-0.5,10.3-2.9,22.5
					C2507.6,1581.5,2505.1,1591.3,2504.6,1591.3z"/>
			</g>
		</g>
		<g>
			<g>
				<path class="st6" d="M2523.7,1586.4c-0.5,0-3.4-8.8-6.8-19.5c-2.9-10.7-4.9-20-3.9-20c0.5,0,3.4,8.8,6.8,19.5
					C2522.7,1577.6,2524.2,1586.4,2523.7,1586.4z"/>
			</g>
		</g>
		<g>
			<g>
				<path class="st6" d="M2307.9,1452.6c0,0,2,2,4.9,6.3c3.4,4.4,7.8,10.3,13.2,17.6c10.7,15.1,26.4,35.1,43.4,57.6
					c17.1,22,32.7,42.5,43.9,57.1c5.4,7.3,9.8,13.2,13.2,17.6c2.9,3.9,4.9,6.3,4.4,6.8c0,0-2-2-5.4-5.9c-3.4-3.9-8.3-9.8-14.2-17.1
					c-11.7-14.2-27.8-34.2-44.9-56.6c-17.1-22.5-32.2-43-43-58.1c-5.4-7.8-9.8-13.7-12.2-18.1
					C2309.4,1455.6,2307.9,1453.1,2307.9,1452.6z"/>
			</g>
		</g>
		<g>
			<g>
				<path class="st6" d="M2282.5,1549.3c-0.5,0.5-6.8-4.4-14.2-10.7c-7.3-6.3-12.7-12.2-12.2-12.7c0.5-0.5,6.8,4.4,14.2,10.7
					S2283,1548.8,2282.5,1549.3z"/>
			</g>
		</g>
		<g>
			<g>
				<path class="st6" d="M2265.4,1604.5c0.5,0.5-3.4,7.3-8.8,15.1c-5.4,7.8-10.3,14.2-10.7,13.7c-0.5-0.5,3.4-7.3,8.8-15.1
					C2260,1610.3,2264.9,1604,2265.4,1604.5z"/>
			</g>
		</g>
		<g>
			<g>
				<path class="st6" d="M2289.3,1680.1c-0.5,0.5-4.9-3.9-9.8-9.8c-4.9-5.9-8.3-10.7-7.8-11.2c0.5-0.5,4.9,3.9,9.8,9.8
					C2286.4,1674.8,2289.8,1679.7,2289.3,1680.1z"/>
			</g>
		</g>
		<g>
			<g>
				<path class="st6" d="M2243,1729c0.5,0.5-4.4,4.4-10.7,8.8c-6.3,4.4-12.2,7.3-12.2,6.8c-0.5-0.5,4.4-4.4,10.7-8.8
					C2237.1,1731.4,2242.5,1728.5,2243,1729z"/>
			</g>
		</g>
		<g>
			<g>
				<path class="st6" d="M2307.9,1741.7c-0.5,0.5-6.8-3.4-13.2-10.3c-5.9-7.3-8.8-14.2-8.3-14.6c0.5-0.5,4.4,5.9,10.3,12.7
					C2302.5,1736.8,2308.4,1741.2,2307.9,1741.7z"/>
			</g>
		</g>
		<g>
			<g>
				<path class="st6" d="M2368.4,1695.8c0.5,0.5-5.4,5.9-12.7,12.2s-13.7,10.7-14.2,10.3c-0.5-0.5,5.4-5.9,12.7-12.2
					S2367.9,1695.3,2368.4,1695.8z"/>
			</g>
		</g>
		<g>
			<g>
				<path class="st6" d="M2243.9,1784.6c-0.5,0.5-5.9-2.4-11.2-7.8c-5.4-5.4-8.3-10.7-7.3-11.2c0.5-0.5,4.4,4.4,9.3,9.3
					C2239.5,1780.2,2244.4,1784.1,2243.9,1784.6z"/>
			</g>
		</g>
		<g>
			<g>
				<path class="st6" d="M2379.2,1652.3c0.5,0.5-5.4,3.4-13.2,4.9c-7.8,1.5-14.2,1.5-14.2,1s6.3-1.5,13.7-3.4
					C2372.8,1653.3,2379.2,1651.8,2379.2,1652.3z"/>
			</g>
		</g>
		<g>
			<g>
				<path class="st6" d="M2334.2,1601.1c0.5,0.5-2,7.8-4.9,17.6c-2.4,8.3-4.9,15.1-5.9,16.6h-0.5c0-0.5,0.5-0.5,0.5-0.5s0,0,0,0.5
					h-0.5c0-2,1-8.8,3.9-17.1C2329.9,1607.9,2333.8,1600.6,2334.2,1601.1z"/>
			</g>
		</g>
		<g>
			<g>
				<path class="st6" d="M2353.3,1568.3c-0.5,0.5-6.8-3.4-14.6-8.8c-7.8-5.4-13.2-10.3-13.2-10.7c0.5-0.5,6.8,3.4,14.6,8.8
					C2347.9,1563,2353.8,1567.9,2353.3,1568.3z"/>
			</g>
		</g>
		<g>
			<g>
				<path class="st6" d="M2314.2,1496.6c0.5,0.5-2.4,6.3-7.3,13.2s-9.8,11.2-10.3,11.2c-0.5-0.5,3.4-5.9,8.3-12.7
					C2309.8,1502,2313.7,1496.1,2314.2,1496.6z"/>
			</g>
		</g>
		<g>
			<g>
				<path class="st6" d="M2254.7,1486.8c-0.5,0-0.5-7.3,0-16.6c1-9.3,2-16.6,2.4-16.1c0.5,0,0.5,7.3,0,16.6
					C2256.6,1479.5,2255.7,1486.8,2254.7,1486.8z"/>
			</g>
		</g>
		<g>
			<g>
				<path class="st6" d="M2231.7,1594.7c-0.5,0-1.5-7.8-1.5-17.6s0.5-17.6,1-18.1c0.5,0,1.5,7.8,1.5,17.6
					S2232.2,1594.7,2231.7,1594.7z"/>
			</g>
		</g>
		<g>
			<g>
				<path class="st6" d="M2228.3,1697.7c-0.5,0-2.4-4.4-4.4-10.7c-2-5.9-2.4-11.2-2-11.2s2.4,4.4,4.4,10.7
					C2228.3,1692.3,2228.8,1697.7,2228.3,1697.7z"/>
			</g>
		</g>
		<g>
			<g>
				<path class="st6" d="M2310.3,1406.3c0.5,0.5-5.9,5.9-12.7,12.2c-6.8,6.8-12.2,12.7-12.7,12.2c-0.5-0.5,3.9-7.3,10.7-14.2
					C2303.5,1410.2,2310.3,1405.8,2310.3,1406.3z"/>
			</g>
		</g>
		<g>
			<g>
				<path class="st6" d="M2275.7,1394.6c-0.5,0-1-7.3-0.5-16.1s1.5-16.1,2-16.1c0.5,0,1,7.3,0.5,16.1
					C2277.1,1387.7,2276.2,1394.6,2275.7,1394.6z"/>
			</g>
		</g>
		<g>
			<g>
				<path class="st6" d="M2361.1,1383.3c-0.5,0.5-6.3-3.9-13.7-8.8s-13.2-8.8-13.2-9.3c0.5-0.5,6.8,2.4,14.6,7.3
					C2356.7,1377.5,2361.6,1382.8,2361.1,1383.3z"/>
			</g>
		</g>
		<g>
			<g>
				<path class="st6" d="M2342.5,1443.9c-0.5,0-1.5-7.8-1.5-17.1c0-9.3,0-17.1,1-17.1c0.5,0,1.5,7.8,1.5,17.1
					C2343.5,1436.5,2343.5,1443.9,2342.5,1443.9z"/>
			</g>
		</g>
		<g>
			<g>
				<path class="st6" d="M2392.8,1479.5c-0.5,0.5-6.8-1.5-14.6-3.4c-7.8-2-14.6-2.9-14.6-3.9c0-0.5,6.8-0.5,15.1,1.5
					C2387,1476.1,2392.8,1479,2392.8,1479.5z"/>
			</g>
		</g>
		<g>
			<g>
				<path class="st6" d="M2396.2,1443.4c-0.5,0-1.5-6.3-1.5-14.2c0-7.8,0.5-14.2,1-14.2c0.5,0,1.5,6.3,1.5,14.2
					C2397.2,1437,2396.7,1443.4,2396.2,1443.4z"/>
			</g>
		</g>
		<g>
			<g>
				<path class="st6" d="M2434.3,1504.4c-0.5,0-1.5-8.3-2-18.1c-0.5-10.3,0-18.1,0.5-18.1s1.5,8.3,2,18.1
					C2435.3,1496.1,2434.8,1504.4,2434.3,1504.4z"/>
			</g>
		</g>
		<g>
			<g>
				<path class="st6" d="M2405,1524.9c-0.5,0.5-4.4-2.9-8.8-7.8s-7.3-9.3-6.8-9.8c0.5-0.5,4.4,2.9,8.8,7.8
					C2402.6,1520,2405.5,1524.4,2405,1524.9z"/>
			</g>
		</g>
		<g>
			<g>
				<path class="st6" d="M2442.1,1553.2c0,0.5-6.3,2-14.2,2.4c-7.8,0.5-14.6,0.5-14.6,0c0-0.5,6.3-2,14.2-2.4
					C2435.3,1552.2,2442.1,1552.2,2442.1,1553.2z"/>
			</g>
		</g>
		<g>
			<g>
				<path class="st6" d="M2470,1567.4c-0.5,0-1.5-7.3-2-16.1c-0.5-8.8,0-16.1,0.5-16.1s1.5,7.3,2,16.1
					C2470.9,1560,2470.5,1567.4,2470,1567.4z"/>
			</g>
		</g>
		<g>
			<g>
				<path class="st6" d="M2497.3,1620.6c0,0.5-7.8,1.5-17.6,0c-9.8-1-17.6-3.4-17.1-3.9c0-0.5,7.8,0.5,17.6,1.5
					C2489.5,1619.6,2497.3,1620.1,2497.3,1620.6z"/>
			</g>
		</g>
		<g>
			<g>
				<path class="st6" d="M2544.7,1596.2c0.5,0-1.5,7.3-4.4,16.1c-2.9,8.8-5.9,15.6-6.8,15.1c-0.5,0,1.5-7.3,4.4-16.1
					C2541.2,1603,2544.2,1595.7,2544.7,1596.2z"/>
			</g>
		</g>
		<g>
			<g>
				<path class="st6" d="M2578.8,1553.2c0,0.5-6.8-0.5-15.1-2.9c-8.3-2.4-14.6-4.4-14.2-5.4c0-0.5,6.8,0.5,15.1,2.9
					C2573,1549.8,2579.3,1552.2,2578.8,1553.2z"/>
			</g>
		</g>
		<g>
			<g>
				<path class="st6" d="M2606.2,1569.3c0.5,0.5-4.4,5.4-10.7,11.2c-6.3,5.4-11.7,9.8-12.2,9.3c-0.5-0.5,4.4-5.4,10.7-11.2
					C2600.3,1572.7,2606.2,1568.8,2606.2,1569.3z"/>
			</g>
		</g>
		<g>
			<g>
				<path class="st6" d="M2617.4,1528.8c-0.5,0-3.4-6.8-4.9-15.6c-1.5-8.8-1.5-16.6-0.5-16.6c0.5,0,1.5,7.3,3.4,16.1
					C2616.4,1521.5,2617.9,1528.8,2617.4,1528.8z"/>
			</g>
		</g>
		<g>
			<g>
				<path class="st6" d="M2669.6,1519.5c0.5,0.5-6.8,6.8-15.1,15.1c-8.3,8.3-14.6,15.1-15.1,14.6c-0.5-0.5,4.9-8.3,13.7-16.6
					C2661.3,1524.4,2669.1,1519,2669.6,1519.5z"/>
			</g>
		</g>
		<g>
			<g>
				<path class="st6" d="M2675,1501c-0.5,0.5-7.3-1.5-16.1-4.9c-8.8-3.4-15.6-6.3-15.1-7.3c0.5-0.5,7.3,1.5,16.1,4.9
					C2668.2,1497.1,2675,1500.5,2675,1501z"/>
			</g>
		</g>
		<g>
			<g>
				<path class="st6" d="M2669.6,1481c-0.5,0-2.9-5.9-4.9-13.2s-3.4-13.7-2.4-13.7c0.5,0,2.9,5.9,4.9,13.2S2670.6,1481,2669.6,1481z
					"/>
			</g>
		</g>
		<g>
			<g>
				<path class="st6" d="M2396.7,1621.6c-0.5,0.5-4.9-4.4-9.3-10.7c-4.4-6.3-7.8-11.7-7.3-12.2c0.5-0.5,4.9,4.4,9.3,10.7
					C2393.8,1615.7,2397.2,1621.1,2396.7,1621.6z"/>
			</g>
		</g>
	</g>
	<g>
		<g>
			<path class="st6" d="M2768.7,1867.6c0,0,0-0.5-0.5-2c0-1.5-0.5-3.4-1-6.3c-0.5-5.4-2-13.7-2.9-23.4c-2.9-20.5-6.8-50.3-12.7-86.9
				c-5.9-36.6-13.7-80.1-24.9-127.4c-1.5-5.9-2.9-11.7-5.9-17.1c-2.9-5.4-6.8-10.3-11.7-14.2c-9.8-7.8-22.5-12.7-35.6-11.7
				c-6.3,0.5-13.2,2-19,4.9c-5.9,2.9-11.2,7.3-16.6,11.2c-11.2,8.3-22.5,16.6-33.7,24.9c-45.4,33.7-87.4,67.4-125.5,98.1
				c-38.1,31.2-70.8,60.5-98.1,84.9c-14.2,12.2-28.8,21.5-43.9,22.9c-7.3,1-14.6-0.5-20.5-2.4c-5.9-2.4-10.7-5.4-15.1-8.3
				c-8.3-6.3-13.7-12.2-17.6-16.1c-2-2-2.9-3.4-4.4-4.4c-1-1-1.5-1.5-1.5-1.5s0.5,0.5,1.5,1.5c1,1,2.4,2.4,4.4,4.4
				c3.9,3.9,9.3,9.8,17.6,15.6c4.4,2.9,9.3,5.9,15.1,7.8c5.9,2,12.7,3.4,20,2c14.6-1.5,29.3-11.2,43-22.9
				c27.3-24.9,60-54.2,98.1-85.4c37.6-31.2,80.1-64.4,125.5-98.6c11.2-8.3,22.5-16.6,33.7-24.9c5.4-3.9,10.7-8.3,17.1-11.7
				c6.3-3.4,13.2-4.9,20-5.4c13.7-1,27.3,3.9,37.1,12.2c4.9,4.4,9.3,9.3,12.2,15.1s4.9,11.7,5.9,18.1
				c11.2,47.8,18.6,91.3,24.4,127.9c5.9,36.6,9.3,66.4,11.7,86.9c1,10.3,2,18.1,2.4,23.9c0.5,2.4,0.5,4.9,0.5,6.3
				C2768.7,1866.6,2768.7,1867.6,2768.7,1867.6z"/>
		</g>
	</g>
	<g>
		<g>
			<path class="st6" d="M2825.8,1864.7c0,0-2,0.5-4.9,1c-2.9,0.5-7.8,0.5-13.7,1c-11.2,1-26.9,1.5-44.4,2.4c-17.1,1-32.2,1.5-44.4,2
				c-5.4,0-9.8,0.5-13.7,0.5c-3.4,0-4.9,0-4.9,0s2-0.5,4.9-1c2.9-0.5,7.8-1,13.2-1.5c11.2-1,26.9-2,44.4-2.4
				c17.1-0.5,32.2-1,44.4-1.5c5.4,0,9.8,0,13.7-0.5C2823.9,1864.7,2825.8,1864.7,2825.8,1864.7z"/>
		</g>
	</g>
	<g>
		<g>
			<path class="st6" d="M2700.9,1626c0.5,0.5-7.3,12.2-19,25.4s-22.9,22-23.4,21c-0.5-0.5,9.8-10.3,21.5-22.9
				C2691.6,1636.7,2699.9,1625.5,2700.9,1626z"/>
		</g>
	</g>
	<g>
		<g>
			<path class="st6" d="M2705.3,1640.6c0.5,0.5-9.3,6.3-21,13.7c-11.7,7.3-21,13.2-21.5,12.7c-0.5-0.5,8.3-7.3,20-14.6
				C2695,1645,2705.3,1640.1,2705.3,1640.6z"/>
		</g>
	</g>
	<g>
		<g>
			<path class="st7" d="M3116.8,1877.4c0,0-1,0-2.9,0c-2.4,0-4.9-0.5-8.3-0.5c-7.8-0.5-18.1-2-31.2-2.9c-26.9-2.9-63-6.3-103-10.7
				c-40-4.4-76.6-8.8-103-10.3c-13.2-0.5-23.9-0.5-31.2-0.5c-3.4,0-6.3,0.5-8.3,0.5s-2.9,0-2.9,0s1-0.5,2.9-0.5c2-0.5,4.9-0.5,8.3-1
				c7.3-0.5,18.1-1,31.2-0.5c26.4,1,63,5.4,103,9.3c40,4.4,76.2,8.3,103,11.7c12.7,1.5,23.4,2.9,31.2,3.9c3.4,0.5,6.3,1,8.3,1
				C3115.8,1876.9,3116.8,1877.4,3116.8,1877.4z"/>
		</g>
	</g>
	<g>
		<g>
			<path class="st7" d="M3110.5,1932c-0.5,0,1.5-24.4,4.9-54.7c3.4-30.3,6.8-54.7,7.3-54.2c0.5,0-1.5,24.4-4.9,54.7
				C3114.4,1907.6,3110.9,1932,3110.5,1932z"/>
		</g>
	</g>
</g>
</svg>
