<?xml version="1.0" encoding="utf-8"?>
<!-- Generator: Adobe Illustrator 23.0.1, SVG Export Plug-In . SVG Version: 6.00 Build 0)  -->
<svg version="1.1" id="Layer_1" xmlns="http://www.w3.org/2000/svg" xmlns:xlink="http://www.w3.org/1999/xlink" x="0px" y="0px"
	 viewBox="0 0 3500 2000" style="enable-background:new 0 0 3500 2000;" xml:space="preserve">
<style type="text/css">
	.st0{fill:#00858E;}
	.st1{fill:#FFC93C;}
	.st2{fill:#FFBE9D;}
	.st3{fill:#090909;}
	.st4{fill:#EEB32F;}
	.st5{fill:#FFF9F3;}
	.st6{fill:#EFB430;}
	.st7{fill:#FFF9F3;stroke:#090909;stroke-linecap:round;stroke-linejoin:round;stroke-miterlimit:10;}
	.st8{clip-path:url(#SVGID_2_);fill:#EEB32F;}
	.st9{fill:none;stroke:#090909;stroke-linecap:round;stroke-linejoin:round;stroke-miterlimit:10;}
	.st10{fill:none;}
	.st11{font-family:'Montserrat-Bold';}
	.st12{font-size:225.5337px;}
</style>
<rect x="354.9" y="1900.5" class="st0" width="746.3" height="99.7"/>
<g>
	<path class="st1" d="M1232.5,1260.1c20.1,0.4,33.2-20.5,24.2-38.2l-139.2-280.8c-2.9-7-6.2-14-10.3-20.5l0,0l0,0
		c-28.7-49.3-80.9-83.7-141.6-87l-394.1-22.2l0,0h-2.9h-0.4c-0.4,0-0.8,0-1.2,0l-65.3,1.2c-114.1,2.1-216.7,75.9-248.3,185.5
		c-1.2,4.5-2.5,9-3.3,13.5L168,1288.7c-5.7,18.9,8.2,38.2,27.9,39.4l196.2,9.9l-63.2,524.2c-2.5,20.5,13.5,38.6,34.1,38.6h743.4
		c16.8,0,30.4-14,30-30.8l-0.4-613.3L1232.5,1260.1z"/>
	<path class="st1" d="M1106.9,1903.3H363.1c-10.7,0-20.5-4.5-27.5-12.3s-10.3-18.5-9-28.7l63.2-522.1l-194.2-9.9
		c-9.9-0.4-19.3-5.3-25-14c-5.7-8.2-7.4-18.5-4.5-28.3l81.7-277.1c1.2-4.5,2.1-9,3.3-13.5c31.2-108,133.8-185.1,250.4-187.2
		l65.7-1.2c0.4,0,0.4,0,0.8,0h0.8h2.9c0.4,0,0.8,0,0.8,0.4l393.2,22.2c59.5,3.3,113.3,36.1,143.3,87.8c3.7,6.6,7.4,13.5,10.3,20.9
		l139.2,280.4c4.5,9,4.1,19.7-1.6,27.9c-5.7,8.2-14.8,13.5-24.6,13.1l0,0l-93.6-2.5l0.4,611.2c0,8.6-3.3,16.8-9.4,23
		C1123.8,1900,1115.6,1903.3,1106.9,1903.3z M568,813.5h-0.4c-0.4,0-0.4,0-0.8,0l-65.3,1.2c-114.5,2.1-215.9,78-246.7,184.3
		c-1.2,4.5-2.5,9-3.3,13.1l-81.7,277.5c-2.5,8.6-0.8,17.7,4.1,24.6c4.9,7,13.1,11.5,21.8,11.9l196.2,9.9c0.4,0,1.2,0.4,1.6,0.8
		s0.4,0.8,0.4,1.6l-63.2,524.2c-1.2,9,1.6,18.5,7.8,25.5c6.2,7,15.2,11.1,24.2,11.1h743.4c7.8,0,14.8-2.9,20.1-8.2
		c5.3-5.3,8.2-12.7,8.2-20.1l-0.4-613.3c0-0.4,0-1.2,0.4-1.6s0.8-0.4,1.6-0.4l95.6,2.9c8.6,0.4,16.4-4.1,21.3-11.1
		c4.5-7.4,5.3-16.4,1.2-23.8l-139.2-280.8c-2.9-7-6.2-14-10.3-20.5c-29.6-50.5-81.7-82.9-140-86.2l-394.1-22.2c-0.4,0-0.4,0-0.8,0
		H568V813.5z"/>
</g>
<g>
	<path class="st2" d="M1350.4,1006c24.2-44.3,32.4-97.7,10.7-144.1l-27.9,10.3c0,0-26.7-76.4-30.8-132.2
		c-10.7-18.9-87.8,20.9-87.8,20.9s7.8-20.9,11.5-31.2c4.1-11.1,8.2-23,5.7-34.5s-14.4-21.8-25.5-18.1s-32,49.3-38.6,59.9
		c-39.4,64.4-39,149-32,222.1c3.7,39-14,439.6-7.4,457.7c40.6,107.5,191.7,109.6,235.6,3.3l0,0c5.7-20.9,8.6-42.3,9.4-63.6
		c1.2-29.1-46.8-288.2-47.6-297.2c-1.2-12.3,4.9-23,11.5-33.7C1342.1,1019.1,1347.1,1012.6,1350.4,1006z"/>
	<path class="st3" d="M1247.7,1498.6c-0.8,0-1.2,0-2.1,0c-54.2-0.8-99.3-32.8-118.6-83.3c-3.7-9.4-1.2-106.7,3.3-254.1
		c2.9-96.1,5.3-186.8,3.7-204c-6.6-68.6-8.6-156,32.4-223.3c1.6-2.5,4.1-7.4,7-13.1c12.3-23.8,24.2-45.2,32.4-48
		c4.9-1.6,10.3-0.8,15.2,2.1c6.6,3.7,11.5,10.7,12.7,17.7c2.5,12.3-2.1,25-5.7,35.3l-9.9,26.3c18.1-9,75.5-35.7,85.8-18.1
		c0,0.4,0,0.4,0.4,0.8c3.7,50.1,25.9,117.4,30,129.7l25.9-9.4c0.8-0.4,2.1,0,2.5,1.2c20.1,43.5,16.4,96.9-10.7,146.1
		c-2.5,4.5-5.7,9.4-8.6,14c-1.2,2.1-2.5,4.1-4.1,6.2c-7.4,11.5-12.3,20.9-11.1,32.4c0,2.1,3.7,22.6,8.6,50.9
		c14,78.4,39.8,224.9,39,246.3c-0.8,21.8-4.1,43.1-9.4,64C1346.3,1468.2,1300.7,1498.6,1247.7,1498.6z M1211.2,678.4
		c-1.2,0-2.5,0.4-4.1,0.8c-7.4,2.5-22.2,30.8-30.4,46c-3.3,5.7-5.3,10.7-7,13.1c-40.6,66.1-38.2,152.7-32,220.8
		c1.6,17.7-0.8,108.4-3.7,204.8c-3.3,113.7-7,243-3.7,252.5c18.5,48.8,62.4,79.6,114.5,80.5c52.1,0.4,96.9-28.7,117-77.2
		c5.3-20.5,8.6-41.5,9.4-63.2c0.8-20.9-25-167.1-39-245.5c-5.3-29.1-8.6-48.8-8.6-51.3c-1.2-13.1,4.9-24.2,11.9-34.9
		c1.2-2.1,2.5-4.1,4.1-6.2c3.3-4.5,6.2-9,8.6-13.5l0,0c25.9-47.6,30-98.9,11.5-140.8l-25.9,9.4c-0.4,0-1.2,0-1.6,0
		c-0.4-0.4-0.8-0.8-1.2-1.2c-0.4-0.8-26.7-76.8-30.8-132.2c-7.8-11.9-55.8,7.4-84.6,22.2c-0.8,0.4-1.6,0.4-2.5-0.4
		c-0.8-0.4-0.8-1.6-0.4-2.5l11.5-31.2c3.7-9.9,8.2-21.8,5.7-33.2c-1.2-6.2-5.7-11.9-11.1-15.2
		C1217.4,679.2,1214.5,678.4,1211.2,678.4z"/>
</g>
<polygon class="st3" points="1199.7,803.6 1271.5,875 1324.9,771.2 1313.4,723.6 1216.1,759.7 "/>
<g>
	<path class="st4" d="M1313.4,911.6L1313.4,911.6c-19.3,3.3-37.4-9.4-40.6-28.7l-32.4-187.6c-3.3-19.3,9.4-37.4,28.7-40.6l0,0
		c19.3-3.3,37.4,9.4,40.6,28.7l32.4,187.6C1345.4,890.2,1332.7,908.3,1313.4,911.6z"/>
	<path class="st3" d="M1307.3,914c-7.8,0-15.2-2.5-21.3-7c-8.2-5.7-13.5-14.4-15.2-24.2l-32.4-187.6c-1.6-9.9,0.4-19.7,6.2-27.9
		s14.4-13.5,24.2-15.2c9.9-1.6,19.7,0.4,27.9,6.2c8.2,5.7,13.5,14.4,15.2,24.2l32.4,187.6c3.7,20.1-10.3,39.4-30.4,43.1
		C1311.8,914,1309.3,914,1307.3,914z M1275.2,655.8c-2.1,0-3.7,0-5.7,0.4c-8.6,1.6-16.4,6.2-21.3,13.5s-7,16-5.7,24.6l32.4,187.6
		c1.6,8.6,6.2,16.4,13.5,21.3c7.4,4.9,16,7,24.6,5.7l0,0c18.1-3.3,30.4-20.1,27.1-38.6l-32.4-187.6c-1.6-8.6-6.2-16.4-13.5-21.3
		C1288.4,657.9,1281.8,655.8,1275.2,655.8z"/>
</g>
<g>
	<path class="st5" d="M1307.7,683.8l-64.9,11.1c-13.5,2.5-26.7-6.6-28.7-20.5l-2.5-14.4c-2.5-13.5,6.6-26.7,20.5-28.7l64.9-11.1
		c13.5-2.5,26.7,6.6,28.7,20.5l2.5,14.4C1330.7,668.6,1321.6,681.7,1307.7,683.8z"/>
	<path class="st3" d="M1238.7,697.7c-12.7,0-24.2-9.4-26.7-22.6l-2.5-14.4c-2.5-14.8,7.4-28.7,22.2-31.2l64.9-11.1
		c14.8-2.5,28.7,7.4,31.2,22.2l2.5,14.4c2.5,14.8-7.4,28.7-22.2,31.2l0,0l-64.9,11.1C1241.6,697.3,1239.9,697.7,1238.7,697.7z
		 M1301.1,621.8c-1.2,0-2.5,0-4.1,0.4l-64.9,11.1c-12.3,2.1-20.9,14-18.9,26.7l2.5,14.4c2.1,12.3,14,20.9,26.7,18.9l64.9-11.1
		c12.3-2.1,20.9-14,18.9-26.7l-2.5-14.4C1321.6,629.6,1312.2,621.8,1301.1,621.8z M1307.7,683.8L1307.7,683.8L1307.7,683.8z"/>
</g>
<g>
	<path class="st2" d="M1132,597.1l-18.9,3.3c-9.4,1.6-18.1-4.5-19.7-14l-0.4-3.7c-1.6-9.4,4.5-18.1,14-19.7l18.9-3.3L1132,597.1z"/>
	<path class="st3" d="M1110.2,602.9c-4.1,0-7.8-1.2-11.1-3.7c-4.1-2.9-7-7.4-7.8-12.3l-0.4-3.7c-1.6-10.3,5.3-20.1,15.6-22.2
		l18.9-3.3c0.4,0,1.2,0,1.6,0.4s0.8,0.8,0.8,1.2l6.6,36.9c0,0.4,0,1.2-0.4,1.6c-0.4,0.4-0.8,0.8-1.2,0.8l-18.9,3.3
		C1112.3,602.5,1111.5,602.9,1110.2,602.9z M1124.2,562.7l-16.8,2.9c-8.2,1.2-13.5,9-12.3,17.2l0.4,3.7c0.8,4.1,2.9,7.4,6.2,9.9
		c3.3,2.5,7.4,3.3,11.1,2.5l16.8-2.9L1124.2,562.7z"/>
</g>
<g>
	<path class="st4" d="M1326.5,644.4l-99.3,17.2c-48.4,8.2-94.8-24.2-103-72.7l-3.3-18.5c-8.2-48.4,24.2-94.8,72.7-103l99.3-17.2
		L1326.5,644.4z"/>
	<path class="st3" d="M1212,664.9c-43.5,0-82.1-31.2-89.9-75.5l-3.3-18.5c-8.6-49.7,24.6-96.9,74.3-105.5l99.3-17.2
		c1.2-0.4,2.1,0.4,2.5,1.6l33.7,194.2c0,0.4,0,1.2-0.4,1.6s-0.8,0.8-1.2,0.8l-99.3,17.2C1222.3,664.5,1216.9,664.9,1212,664.9z
		 M1291.2,452.7l-97.3,16.8c-47.2,8.2-79.2,53.4-71,100.6l3.3,18.5c8.2,47.2,53.4,79.2,100.6,71l97.3-16.8L1291.2,452.7z"/>
</g>
<path class="st6" d="M1292.9,450.2L1292.9,450.2l33.7,194.2l0,0c76.8-13.1,156-2.1,227,32.4l156.8,76.4l-92.4-534l-122.3,124.4
	C1440.7,399.7,1370.1,437.1,1292.9,450.2z"/>
<ellipse transform="matrix(0.9854 -0.1701 0.1701 0.9854 -58.176 291.1543)" class="st7" cx="1670.1" cy="485.1" rx="66.1" ry="272.6"/>
<g>
	<g>
		
			<ellipse id="XMLID_1_" transform="matrix(0.9854 -0.1701 0.1701 0.9854 -57.3268 291.0795)" class="st2" cx="1670" cy="480.1" rx="53" ry="219.2"/>
	</g>
	<g>
		<g>
			<g>
				<defs>
					
						<ellipse id="SVGID_1_" transform="matrix(0.9854 -0.1701 0.1701 0.9854 -57.3268 291.0795)" cx="1670" cy="480.1" rx="53" ry="219.2"/>
				</defs>
				<clipPath id="SVGID_2_">
					<use xlink:href="#SVGID_1_"  style="overflow:visible;"/>
				</clipPath>
				<path class="st8" d="M1558.5,451.4l69.8-11.9c28.3-4.9,55.4,14,60.3,42.7l0,0c4.9,28.3-14.4,55.4-42.7,60.3l-69.8,11.9
					L1558.5,451.4z"/>
			</g>
		</g>
	</g>
	<g>
		
			<ellipse transform="matrix(0.9854 -0.1701 0.1701 0.9854 -57.3268 291.0795)" class="st9" cx="1670" cy="480.1" rx="53" ry="219.2"/>
	</g>
</g>
<g>
	<line class="st10" x1="1313.4" y1="446.1" x2="1345.8" y2="641.5"/>
	<path class="st3" d="M1345.8,643.5c-0.8,0-2.1-0.8-2.1-1.6l-32.4-195.4c0-1.2,0.4-2.1,1.6-2.5s2.1,0.4,2.5,1.6l32.4,195.4
		C1348.3,642.3,1347.5,643.5,1345.8,643.5C1346.3,643.5,1346.3,643.5,1345.8,643.5z"/>
</g>
<g>
	<g>
		<path class="st2" d="M1385.2,758.1l0.4,0.8c4.1,12.3-2.9,25.9-15.6,30l-71,22.6c-12.3,4.1-25.9-2.9-30-15.6l-0.4-0.8
			c-4.1-12.3,2.9-25.9,15.6-30l71-22.6C1368,738.4,1381.6,745.3,1385.2,758.1z"/>
		<path class="st3" d="M1292.1,814.3c-4.1,0-8.2-0.8-11.9-2.9c-6.2-3.3-10.7-8.6-12.7-15.2l-0.4-0.8c-4.1-13.5,3.3-28.3,16.8-32.4
			l71-22.6c13.5-4.5,27.9,3.3,32.4,16.8l0.4,0.8c4.1,13.5-3.3,28.3-16.8,32.4l-71,22.6C1297.4,813.9,1294.9,814.3,1292.1,814.3z
			 M1362.7,743.3c-2.1,0-4.5,0.4-6.6,1.2l-71,22.6c-11.5,3.7-17.7,16-14,27.1l0.4,0.8c1.6,5.3,5.7,9.9,10.7,12.7
			c5.3,2.5,11.1,3.3,16.4,1.6l71-22.6c11.5-3.7,17.7-16,14-27.1l-0.4-0.8l0,0C1380.7,749.4,1372.1,743.3,1362.7,743.3z"/>
	</g>
	<g>
		<path class="st2" d="M1371.3,710l0.4,0.8c4.1,12.3-2.9,25.9-15.6,30l-71,22.6c-12.3,4.1-25.9-2.9-30-15.6l-0.4-0.8
			c-4.1-12.3,2.9-25.9,15.6-30l71-22.6C1354,690.7,1367.6,697.7,1371.3,710z"/>
		<path class="st3" d="M1278.1,766.3c-4.1,0-8.2-0.8-11.9-2.9c-6.2-3.3-10.7-8.6-12.7-15.2l-0.4-0.8c-2.1-6.6-1.6-13.5,1.6-19.7
			c3.3-6.2,8.6-10.7,15.2-12.7l71-22.6c13.5-4.5,28.3,3.3,32.4,16.8l0.4,0.8c2.1,6.6,1.6,13.5-1.6,19.7c-3.3,6.2-8.6,10.7-15.2,12.7
			l-71,22.6C1283.4,765.9,1281,766.3,1278.1,766.3z M1348.7,695.7c-2.1,0-4.5,0.4-6.6,1.2l-71,22.6c-5.3,1.6-9.9,5.7-12.7,10.7
			c-2.9,4.9-3.3,11.1-1.6,16.4l0.4,0.8c1.6,5.3,5.7,9.9,10.7,12.7c5.3,2.5,11.1,3.3,16.4,1.6l71-22.6c5.3-1.6,9.9-5.7,12.7-10.7
			c2.9-4.9,3.3-11.1,1.6-16.4l-0.4-0.8l0,0C1366.8,701.4,1358.2,695.7,1348.7,695.7z"/>
	</g>
	<g>
		<path class="st2" d="M1385.7,806.9L1385.7,806.9c4.1,12.7-2.9,25.9-15.2,29.6l-48.4,15.2c-12.3,3.7-25.5-2.9-29.6-15.2v-0.4
			c-4.1-12.3,2.9-25.5,15.2-29.6l48.4-15.2C1368.4,788,1381.6,794.6,1385.7,806.9z"/>
		<path class="st3" d="M1315.1,855.3c-10.7,0-20.9-7-24.2-17.7c-4.1-13.5,3.3-27.9,16.4-32.4l48.4-15.2c6.6-2.1,13.5-1.6,19.3,1.6
			c6.2,3.3,10.7,8.6,12.7,14.8v0.4c2.1,6.6,1.6,13.5-1.6,19.3c-3.3,6.2-8.2,10.7-14.8,12.7l-48.4,15.2
			C1320.4,854.9,1317.5,855.3,1315.1,855.3z M1363.1,792.5c-2.1,0-4.5,0.4-6.6,1.2l-48.4,15.2c-11.1,3.7-17.7,15.6-14,27.1
			s15.6,17.7,27.1,14l48.4-15.2c5.3-1.6,9.9-5.3,12.3-10.7c2.5-4.9,3.3-10.7,1.2-16.4v-0.4c-1.6-5.3-5.3-9.9-10.7-12.7
			C1370.1,793.4,1366.8,792.5,1363.1,792.5z"/>
	</g>
	<g>
		<path class="st2" d="M1398.8,852.5l0.4,0.8c4.1,12.3-2.9,25.9-15.6,30l-23.8,7.8c-12.3,4.1-25.9-2.9-30-15.6l-0.4-0.8
			c-4.1-12.3,2.9-25.9,15.6-30l23.8-7.8C1381.6,832.8,1395.1,839.7,1398.8,852.5z"/>
		<path class="st3" d="M1352.4,893.5c-4.1,0-8.2-0.8-11.9-2.9c-6.2-3.3-10.7-8.6-12.7-15.2l-0.4-0.8c-2.1-6.6-1.6-13.5,1.6-19.7
			c3.3-6.2,8.6-10.7,15.2-12.7l23.8-7.8c13.5-4.5,28.3,3.3,32.4,16.8l0,0l0.4,0.8c2.1,6.6,1.6,13.5-1.6,19.7s-8.6,10.7-15.2,12.7
			l-23.8,7.8C1357.7,893.5,1355.3,893.5,1352.4,893.5z M1376.2,837.7c-2.1,0-4.5,0.4-6.6,1.2l-23.8,7.8c-5.3,1.6-9.9,5.7-12.7,10.7
			c-2.9,4.9-3.3,11.1-1.6,16.4l0.4,0.8c1.6,5.3,5.7,9.9,10.7,12.7c5.3,2.5,11.1,3.3,16.4,1.6l23.8-7.8c5.3-1.6,9.9-5.7,12.7-10.7
			c2.9-4.9,3.3-11.1,1.6-16.4l-0.4-0.8C1393.9,843.9,1385.2,837.7,1376.2,837.7z"/>
	</g>
</g>
<g>
	<path class="st2" d="M1213.7,765c0,0,8.6-25,12.7-35.3c4.1-11.1,8.2-23,5.7-34.5s-14.4-21.8-25.5-18.1s-32,49.3-38.6,59.9"/>
	<path class="st3" d="M1215.7,765.4l-3.7-1.2c0,0,8.6-25,12.7-35.3c3.7-9.9,8.2-21.8,5.7-33.2c-1.2-6.2-5.7-11.9-11.1-15.2
		c-2.9-1.6-7-3.3-11.9-1.6c-7.4,2.5-22.2,30.8-30.4,46c-3.3,5.7-5.3,10.7-7,13.1c-0.4,0.8-2.1,1.2-2.9,0.8s-1.2-1.6-0.8-2.9
		c1.6-2.5,4.1-7.4,7-13.1c12.3-23.8,24.2-45.2,32.4-48c4.9-1.6,10.3-0.8,15.2,2.1c6.6,3.7,11.5,10.7,12.7,17.7
		c2.5,12.3-2.1,25-5.7,35.3C1224.3,740.8,1215.7,765.4,1215.7,765.4z"/>
</g>
<path class="st3" d="M1194.4,833.2L1194.4,833.2c-1.2,0-2.1-0.8-2.1-2.1c0.4-22.6,18.9-65.3,19.7-67.3c0.4-1.2,1.6-1.6,2.9-1.2
	s1.6,1.6,1.2,2.9c0,0.4-18.9,43.9-19.3,65.7C1196.4,832.4,1195.6,833.2,1194.4,833.2z"/>
<g>
	<path class="st3" d="M1052.8,297.1c0.8-1.2,1.6-2.9,2.5-4.1c11.1-12.7,18.5-28.3,20.1-46.4c4.1-45.2-28.7-85-73.9-89.1
		c-3.7-0.4-7.4-0.4-11.1,0C950.5,123,923,86.1,853.3,95.1c-26.7,3.3-51.7,17.2-66.9,39.8c-2.1,3.3-4.1,6.6-5.7,9.9
		c-1.2,2.9-36.9,6.6-41.5,8.2c-33.2,9-75.5,23-91.9,55.8c-7.4,14.4-9.9,30.8-10.3,47.2c-25,19.7-35.3,55-25,86.6l26.3,82.1
		c5.3-1.2,11.1-2.1,16.8-2.1h33.2c2.1,3.3,4.1,7,6.2,10.7c10.3,18.1,16.8,37.8,16,58.7c43.1-60.3,248.8-44.3,294.7-44.3
		s82.5-36.9,82.5-82.9C1087.2,336.5,1073.3,311.9,1052.8,297.1z"/>
	<path class="st3" d="M709.6,493.3c-0.4,0-0.4,0-0.8,0c-0.8-0.4-1.6-1.2-1.2-2.1c0.8-18.9-4.5-37.8-16-57.9
		c-1.6-3.3-3.7-6.2-5.3-9.4h-32c-5.3,0-11.1,0.8-16.4,2.1c-1.2,0.4-2.1-0.4-2.5-1.2L609,342.6c-10.3-32.4-0.4-67.7,25-88.3
		c0.4-12.7,2.1-30.8,10.3-47.2c16-31.6,54.2-46,93.6-56.6c1.6-0.4,6.6-1.2,12.7-2.1c9-1.2,25-3.7,27.9-5.3c2.1-3.7,3.7-7,5.7-9.9
		c15.2-22.2,40.2-36.9,68.6-40.6c60.8-7.8,90.7,19.7,122.3,48.4c4.9,4.5,10.3,9.4,15.6,14c4.1,0,7.4,0,10.7,0
		c22.2,2.1,42.7,12.7,56.6,30c14,17.2,20.9,39,18.9,61.2c-1.6,17.7-8.6,34.1-20.5,47.2c-0.4,0.8-0.8,1.6-1.2,2.5
		c20.9,16,33.7,41,33.7,67.7c0,46.8-38.2,85-84.6,85c-6.2,0-14.8-0.4-25.9-0.8c-69-2.1-230.3-7-267.2,44.3
		C711.2,492.9,710.4,493.3,709.6,493.3z M654.2,419.8h33.2c0.8,0,1.2,0.4,1.6,1.2c2.1,3.3,4.1,7,6.2,10.7
		c10.7,18.9,16,36.5,16.4,54.2c43.5-48,193.8-43.5,266.8-41.5c11.1,0.4,19.7,0.8,25.5,0.8c44.3,0,80.5-36.1,80.5-80.9
		c0-25.9-12.7-50.5-33.7-65.3c-0.4-0.4-0.8-0.8-0.8-1.2c0-0.4,0-1.2,0.4-1.6c0.8-1.2,1.6-2.5,2.1-3.7c0-0.4,0-0.4,0.4-0.8
		c11.1-12.7,18.1-28.3,19.7-45.2c2.1-21.3-4.5-41.9-18.1-58.3c-13.5-16.4-32.8-26.7-54.2-28.3c-3.3-0.4-6.6-0.4-11.1,0
		c-0.4,0-1.2,0-1.6-0.4c-5.7-4.9-11.1-9.9-16.4-14.4c-32.4-29.6-60.3-55-119-47.2c-27.1,3.3-51.3,17.7-65.7,38.6
		c-2.1,2.9-3.7,5.7-5.7,9.4c-1.2,2.1-5.3,3.3-30.8,7.4c-5.3,0.8-10.7,1.6-11.9,2.1c-38.2,10.7-75.5,24.6-90.7,54.6
		c-6.2,12.3-9.4,27.1-9.9,46.4c0,0.8-0.4,1.2-0.8,1.6c-24.6,19.3-34.5,53.4-24.2,84.6l25.5,80.5
		C643.9,420.6,649.2,419.8,654.2,419.8z M778.5,142.7L778.5,142.7L778.5,142.7z"/>
</g>
<g>
	<g>
		<path class="st2" d="M890.2,305.3c-8.6-4.5-17.2-9.9-26.7-11.1c-23.8-3.3-45.6,16.4-69.4,15.6c-17.2-0.4-33.2-12.7-38.6-29.6
			c14,72.7-2.9,150.6-46,210.6c0.8-21.3-5.7-40.6-16-58.7c-2.1-3.7-4.1-7-6.2-10.7h-33.2c-5.7,0-11.5,0.8-16.8,2.1
			c-30.4,7.8-53.4,35.3-53.4,68.1v7c0,38.6,31.6,70.2,70.2,70.2H673L654.2,804c-5.3,68.6,45.6,128.9,114.5,134.2L781,939
			c68.6,5.3,128.9-45.6,134.2-114.5l7-88.7c62-1.2,112.1-51.7,112.1-114.1v-275c0-11.9-2.1-23.4-5.3-34.1
			c-5.7,3.3-11.5,6.2-17.7,8.2C971.9,335.7,927.1,325,890.2,305.3z"/>
		<path class="st3" d="M790.9,942.8c-3.3,0-7,0-10.3-0.4l-12.3-0.8c-33.7-2.9-64.4-18.5-86.6-44.3c-22.2-25.9-32.4-58.7-30-92.4
			l18.5-232.7h-16.4c-39.8,0-72.2-32.4-72.2-72.2v-7c0-33.2,22.6-62,55-70.2c5.7-1.6,11.9-2.5,17.7-2.5h33.2c0.8,0,1.2,0.4,1.6,1.2
			c2.1,3.3,4.1,7,6.2,10.7c10.7,18.5,16,36.1,16.4,53.4c39.8-58.7,55.4-134.2,41.9-204c-0.4-1.2,0.4-2.1,1.6-2.5
			c1.2-0.4,2.1,0.4,2.5,1.2c4.5,15.6,20.1,27.5,36.5,27.9c11.1,0.4,21.8-4.1,32-7.8c11.9-4.9,24.6-9.4,37.8-7.8
			c8.6,1.2,16.8,5.7,24.2,9.9l2.9,1.6l0,0c24.6,13.1,73.1,32.8,119.9,16.4c5.7-2.1,11.5-4.9,17.2-8.2c0.4-0.4,1.2-0.4,1.6,0
			s1.2,0.8,1.2,1.2c3.7,11.5,5.3,23.4,5.3,34.9v275c0,62.4-50.1,114.1-112.5,116.2l-7,86.6c-2.9,33.7-18.5,64.4-44.3,86.6
			C850,932.1,821.2,942.8,790.9,942.8z M654.2,423.9c-5.3,0-11.1,0.8-16.4,2.1c-30.4,7.8-51.7,34.9-51.7,66.1v7
			c0,37.8,30.8,68.1,68.1,68.1H673c0.4,0,1.2,0.4,1.6,0.8c0.4,0.4,0.4,0.8,0.4,1.6l-18.9,235.2c-2.5,32.8,7.8,64.4,29.1,89.5
			c21.3,25,50.9,40.2,83.7,42.7l12.3,0.8c32.8,2.5,64.4-7.8,89.5-29.1c25-21.3,40.2-50.9,42.7-83.7l7-88.7c0-1.2,0.8-2.1,2.1-2.1
			c60.8-1.2,110-51.3,110-112.1v-275c0-10.7-1.6-20.9-4.5-31.2c-4.9,2.9-10.3,5.3-15.6,7c-48.4,16.8-98.1-3.3-123.1-16.8l-2.9-1.6
			c-7.4-4.1-14.8-8.2-23-9.4c-11.9-1.6-23.4,2.9-35.7,7.4c-10.7,4.1-21.8,8.6-33.7,8.2c-13.5-0.4-26.3-7.4-34.1-18.5
			c9.9,69-8.2,142.4-48.4,199.1c-0.4,0.8-1.6,1.2-2.5,0.8s-1.6-1.2-1.2-2.1c0.8-18.9-4.5-37.8-16-57.9c-1.6-3.3-3.7-6.2-5.3-9.4
			L654.2,423.9L654.2,423.9z"/>
	</g>
</g>
<g>
	<polygon class="st3" points="689.9,569.6 667.7,630.4 653.8,569.6 	"/>
	<path class="st3" d="M667.7,632.5C667.7,632.5,667.3,632.5,667.7,632.5c-1.2,0-1.6-0.8-2.1-1.6l-14-60.8c0-0.4,0-1.2,0.4-1.6
		c0.4-0.4,1.2-0.8,1.6-0.8l36.1,0.4c0.8,0,1.2,0.4,1.6,0.8c0.4,0.4,0.4,1.2,0.4,2.1l-22.2,60.8C669.4,632,668.5,632.5,667.7,632.5z
		 M656.2,571.7l11.9,51.7l18.9-51.3L656.2,571.7z"/>
</g>
<g>
	<polyline class="st2" points="644.3,473.2 670.2,501.9 646,517.5 	"/>
	<path class="st3" d="M646,519.6c-0.8,0-1.2-0.4-1.6-0.8c-0.4-0.8-0.4-2.1,0.4-2.9l22.2-14.4l-24.2-27.1c-0.8-0.8-0.8-2.1,0-2.9
		s2.1-0.8,2.9,0l25.9,28.7c0.4,0.4,0.4,1.2,0.4,1.6s-0.4,1.2-0.8,1.6L647,519C646.8,519.6,646.4,519.6,646,519.6z"/>
</g>
<g>
	<path class="st3" d="M921.8,737.5c0,0-128.5,8.2-160.1-43.5c0,0,28.3,85.8,154.3,115.3L921.8,737.5z"/>
	<path class="st3" d="M915.6,811.4h-0.4c-125.2-29.6-155.6-116.2-155.6-117c-0.4-0.8,0-2.1,1.2-2.5c0.8-0.4,2.1,0,2.5,0.8
		c30.8,50.5,156.8,42.7,158,42.7c0.4,0,1.2,0,1.6,0.4c0.4,0.4,0.4,1.2,0.4,1.6l-5.7,71.8c0,0.4-0.4,1.2-0.8,1.6
		C916.9,811.4,916.5,811.4,915.6,811.4z M770.3,707.6c14,25,53.4,77.2,143.7,99.3l5.3-66.9C902.9,740.8,810.2,743.7,770.3,707.6z"/>
</g>
<g>
	<g>
		<g>
			<path class="st2" d="M200.2,1625l11.5-295.6l310.3,9.9c0,1.6,29.6-219.6,29.6-217.6L522,1339.3l-41.5-1.2l-4.1,98.5
				c0,0,281.2-143.7,305.4-172.8c0,0,81.3-81.3,114.1-103c3.7-2.5,7-4.5,11.1-5.7s8.6-0.8,11.9,2.1c4.1,3.7,4.9,9.9,4.5,15.2
				c-0.8,16.8-7.4,32.8-14.4,48.8c2.1-0.4,207.7-69,218.8-71.4c19.7-4.9,18.5,22.2,4.5,36.5c-17.7,18.5-99.3,61.6-103.9,62.8
				c19.7-0.8,38.6-4.5,43.5,27.5c3.3,22.2-16.4,28.3-36.5,30.8c12.7,0.4,23.4,4.5,24.6,19.7c4.9,25.5-16,35.7-36.9,38.2
				c-0.4,0-0.8,0.8,0,1.2c17.2,6.6,5.3,38.2-20.1,47.6l-141.6,59.5c-14.4,6.6-393.2,294.7-393.2,294.7
				c-43.9,30.8-94.8,37.4-140.4,25.9C252.3,1773.6,200.2,1703.4,200.2,1625z"/>
			<path class="st3" d="M370.9,1800.3c-14.4,0-28.7-1.6-43.5-5.3c-75.9-19.3-129.7-89.5-129.7-169.9l0,0l11.5-295.6
				c0-1.2,0.8-2.1,2.1-2.1l308.3,9.9l27.9-207.3c0.4-2.1,0.4-4.1,0.8-5.3l0.4-2.9l0,0c0.4-2.1,0.8-2.1,2.1-1.6
				c1.2,0,2.1,1.2,1.6,2.1l-11.9,88.3c-0.4,4.1-1.2,8.2-1.6,12.3L524.5,1330c-0.4,2.9-0.8,5.3-0.8,7l-0.4,3.3c0,0.4-0.4,0.8-0.4,1.2
				c-0.4,0.8-0.8,0.8-1.6,0.4l0,0l-39-1.2l-3.7,92.8c30.8-16,279.5-144.1,301.7-170.8c0.8-0.8,82.1-81.7,114.5-103.4
				c3.7-2.5,7.4-4.9,11.9-6.2c5.3-1.2,10.3-0.4,14,2.5c4.1,3.3,5.7,8.6,5.3,16.8c-0.8,16-6.6,30.8-12.7,45.2
				c1.2-0.4,2.5-0.8,4.5-1.6c165.4-54.6,205.7-67.7,210.6-69c9.4-2.5,13.5,2.1,15.2,4.9c4.9,8.6,1.2,24.6-8.6,34.9
				c-14.4,15.2-71.4,47.2-95.2,58.7c16-0.4,30.8,1.6,34.9,29.6c1.2,7.8-0.4,14-4.1,19.3c-4.9,6.6-13.5,9.9-21.8,11.9
				c8.6,3.3,13.5,9.4,14.4,19.3c1.6,9,0.4,17.2-4.5,23.8c-7,9.9-19.7,14-30,16c3.7,2.9,5.7,7.4,5.3,12.7c0,12.7-11.1,30-29.6,36.5
				L863.1,1474c-11.5,4.9-261.9,195-392.8,294.3C440.3,1789.6,406.2,1800.3,370.9,1800.3z M202.2,1625
				c0.4,78.8,52.5,147,126.8,165.8c48.4,12.3,97.7,3.3,138.7-25.5c15.6-11.9,378.9-288.2,393.7-294.7l141.6-59.5
				c16.4-6.2,26.7-21.8,26.7-32.8c0-3.7-1.2-9-6.6-11.1c-1.2-0.4-1.6-1.6-1.6-2.9c0-1.2,1.2-2.1,2.5-2.5c14.8-2.1,25.9-7,31.6-14.8
				c4.1-5.7,5.3-12.7,3.7-20.9c-0.8-11.9-8.2-17.7-22.6-18.1c-1.2,0-2.1-0.8-2.1-2.1c0-1.2,0.8-2.1,1.6-2.1
				c16.4-2.1,26.3-5.7,31.2-12.3c3.3-4.1,4.5-9.4,3.3-16c-4.1-27.5-18.1-26.7-36.1-25.9c-1.6,0-3.3,0-4.9,0.4
				c-1.2,0-2.1-0.8-2.1-1.6c0-1.2,0.4-2.1,1.6-2.1c5.3-1.6,85.8-44.3,103-62c9-9.4,11.5-23.8,7.8-30c-2.1-3.3-5.7-4.5-10.7-3.3
				c-4.5,1.2-44.7,14-210.2,68.6c-5.3,1.6-8.6,2.9-8.6,2.9c-0.8,0.4-1.6,0-2.1-0.4s-0.8-1.6-0.4-2.1c6.6-15.2,13.1-31.2,14-48
				c0.4-6.6-0.8-11.1-4.1-13.5c-2.5-2.1-6.2-2.5-10.3-1.6c-3.7,0.8-7,3.3-10.7,5.3c-32,21.8-112.9,102.2-113.7,103
				c-23.8,28.7-294.3,167.5-305.8,173.2c-0.8,0.4-1.6,0.4-2.1,0s-0.8-1.2-0.8-1.6l4.1-96.5l-264.8-8.6L202.2,1625z"/>
		</g>
		<polygon class="st3" points="476.8,1385.7 354.9,1500.6 476.4,1438.7 		"/>
		<path class="st3" d="M907.4,1223.1l-76.4,35.7c0,0,71.8-57.1,86.2-61.6L907.4,1223.1z"/>
	</g>
	<g>
		<path class="st2" d="M986.7,1261.3c0,0,46.4-15.6,54.6-15.6"/>
		<path class="st3" d="M986.7,1263.4c-0.8,0-1.6-0.4-2.1-1.2c-0.4-1.2,0.4-2.1,1.2-2.5c2.1-0.4,46.8-15.6,55-16
			c1.2,0,2.1,0.8,2.1,2.1s-0.8,2.1-2.1,2.1C1034.3,1248.2,999.8,1259.3,986.7,1263.4C987.1,1263.4,986.7,1263.4,986.7,1263.4z"/>
	</g>
	<g>
		<line class="st10" x1="1040.4" y1="1305.7" x2="996.9" y2="1319.2"/>
		<path class="st3" d="M996.9,1321.3c-0.8,0-1.6-0.4-2.1-1.6s0.4-2.1,1.2-2.5l43.1-13.5c1.2-0.4,2.1,0.4,2.5,1.2
			c0.4,1.2-0.4,2.1-1.2,2.5l-43.1,13.5C997.3,1321.3,997.3,1321.3,996.9,1321.3z"/>
	</g>
	<g>
		<line class="st10" x1="1020.7" y1="1364.4" x2="997.3" y2="1371.3"/>
		<path class="st3" d="M997.3,1373.4c-0.8,0-1.6-0.4-2.1-1.6c-0.4-1.2,0.4-2.1,1.2-2.5l23.4-6.6c1.2-0.4,2.1,0.4,2.5,1.2
			c0.4,1.2-0.4,2.1-1.2,2.5l-23.4,6.6L997.3,1373.4z"/>
	</g>
</g>
<text transform="matrix(1 0 0 1 1554.0975 1197.1997)" class="st1 st11 st12">COMING SOON</text>
</svg>
