<?xml version="1.0" encoding="utf-8"?>
<!-- Generator: Adobe Illustrator 23.0.1, SVG Export Plug-In . SVG Version: 6.00 Build 0)  -->
<svg version="1.1" id="Layer_1" xmlns="http://www.w3.org/2000/svg" xmlns:xlink="http://www.w3.org/1999/xlink" x="0px" y="0px"
	 viewBox="0 0 3500 2000" style="enable-background:new 0 0 3500 2000;" xml:space="preserve">
<style type="text/css">
	.st0{fill:#FFC93C;}
	.st1{fill:#FFFFFF;}
	.st2{fill:#263238;}
	.st3{fill:#455A64;}
	.st4{fill:#E0E0E0;}
	.st5{fill:#EDA688;}
	.st6{fill:#D68663;}
	.st7{fill:#00858E;}
	.st8{opacity:0.6;fill:#FFFFFF;enable-background:new    ;}
	.st9{fill:#EBEBEB;}
	.st10{fill:#FAFAFA;}
	.st11{fill:#F5F5F5;}
	.st12{opacity:0.3;fill:#455A64;enable-background:new    ;}
	.st13{opacity:0.3;}
	.st14{opacity:0.6;fill:#263238;enable-background:new    ;}
</style>
<g>
	<path class="st0" d="M629.4,927.2c-14.5-8.3-22.4-28.1-22.8-43.9c-0.9-16.2,6.1-32,19.3-42.1c14.5-9.7,33.3-9.7,47.8-0.4
		c14.5,9.7,22.8,25.9,21.9,43.4c-0.9,17.1-9.7,32.9-23.2,43"/>
	<path class="st1" d="M652.7,928.9c0-1.3-0.4-2.6-0.4-3.5c0-2.6,0-6.1-0.4-10.1c0-8.3-0.4-20.2-0.9-32.9s-1.3-24.6-1.8-32.9
		c-0.4-3.9-0.4-7.5-0.4-10.1v-3.5c0.4,1.3,0.4,2.2,0.4,3.5c0.4,2.2,0.4,5.7,0.9,10.1c0.9,8.3,1.8,20.2,2.2,32.9s0.9,24.6,0.9,32.9
		v10.1C653.1,926.3,652.7,927.6,652.7,928.9z"/>
	<path class="st2" d="M611,879.8c0,0.4-2.2,0.4-5.3,0.4c-3.1,0-5.3-0.9-5.3-0.9s2.2-0.4,5.3-0.4C607.5,878.5,609.3,878.9,611,879.8z
		"/>
	<path class="st2" d="M611.5,865.3c0,0.4-2.2-0.4-4.4-1.3s-3.9-2.2-3.9-2.6c0-0.4,2.2,0,4.4,1.3S611.9,864.9,611.5,865.3z"/>
	<path class="st2" d="M618.9,854.4c0,0.4-2.6-0.9-4.8-2.6s-3.9-3.9-3.5-4.4c0.4-0.4,2.2,1.3,4.4,3.1
		C617.2,852.2,619.4,854.4,618.9,854.4L618.9,854.4z"/>
	<path class="st2" d="M626.4,844.3c-0.4,0-1.3-1.8-2.6-3.9c-1.3-2.2-1.3-3.9-1.3-4.4c0-0.4,1.3,1.8,2.2,3.9
		C625.5,842.1,626.8,844.3,626.4,844.3z"/>
	<path class="st2" d="M638.2,837.3c-0.4,0-1.3-1.8-2.2-3.9s-0.9-4.4-0.4-4.8c0.4-0.4,0.9,1.8,1.8,4.4
		C638.2,835.5,638.7,837.3,638.2,837.3z"/>
	<path class="st2" d="M657.5,829.4c0.4,0,0,1.8-0.4,3.5c-0.4,1.8-1.3,3.1-1.8,3.1c-0.4,0,0-1.8,0.4-3.5
		C656.2,830.7,657.5,828.9,657.5,829.4z"/>
	<path class="st2" d="M672,835.5c0.4,0.4-0.9,1.8-2.2,2.6c-1.3,0.9-2.6,2.2-3.1,1.8s0.9-1.8,2.2-2.6
		C670.2,836.4,672,835.1,672,835.5z"/>
	<path class="st2" d="M684.7,843.8c0,0.4-0.9,1.3-2.6,2.6c-1.8,1.3-3.1,1.8-3.5,1.3c-0.4-0.4,0.9-1.3,2.6-2.6
		S684.7,843.4,684.7,843.8z"/>
	<path class="st2" d="M693.9,856.1c0,0.4-1.8,1.3-3.9,2.6c-2.2,1.3-4.4,1.8-4.4,1.3c0-0.4,1.8-1.3,3.9-2.6S693.9,855.7,693.9,856.1z
		"/>
	<path class="st2" d="M697.4,869.3c0,0.4-1.8,0.9-3.9,1.3c-2.2,0.4-3.9,0.4-4.4,0c-0.4-0.4,1.8-0.9,3.9-1.3
		C695.2,868.8,697.4,868.8,697.4,869.3z"/>
	<path class="st2" d="M699.2,885.5c0,0.4-2.2,0-4.4-1.3c-2.2-1.3-3.9-2.2-3.9-2.2s2.2,0,4.4,1.3S699.6,885.5,699.2,885.5z"/>
	<path class="st2" d="M697.9,900c0,0.4-2.6-0.4-5.3-1.8c-2.6-1.3-3.9-3.5-3.9-3.9c0-0.4,2.2,1.3,4.4,2.6
		C695.2,898.2,697.9,899.5,697.9,900L697.9,900z"/>
	<path class="st2" d="M690.4,912.7c-0.4,0.4-2.2-0.9-3.9-3.1c-1.8-2.2-3.1-3.9-2.6-4.4c0.4-0.4,1.8,1.3,3.5,3.5
		C689.1,911,690.4,912.3,690.4,912.7z"/>
	<path class="st2" d="M620.7,914c0,0.4-1.8,1.8-4.4,3.1c-1.8,0.9-3.5,1.8-5.3,1.8c0-0.4,1.8-1.8,4.4-3.1
		C618,914.5,620.2,914,620.7,914z"/>
	<path class="st2" d="M614.1,902.6c0,0.4-1.3,1.3-3.5,2.6s-3.9,1.3-4.4,1.3c-0.4,0,1.3-1.3,3.5-2.6
		C611.9,902.6,614.1,902.2,614.1,902.6z"/>
	<path class="st2" d="M609.3,892.1c0,0.4-1.8,0.9-4.4,1.3s-4.4,0.4-4.8,0s1.8-0.9,4.4-1.3C607.1,891.7,609.3,892.1,609.3,892.1z"/>
	<path class="st2" d="M624.6,886.8c0,0.4-1.8,1.3-4.4,1.8c-2.6,0.4-4.8,0-4.8-0.4c0-0.4,2.2-0.4,4.4-0.9
		C622,886.8,624.6,886.4,624.6,886.8L624.6,886.8z"/>
	<path class="st2" d="M637.8,874.1c0,0.4-1.3,1.3-3.5,1.3s-3.9-0.4-3.9-0.4l3.5-0.9C635.6,873.7,637.3,873.7,637.8,874.1z"/>
	<path class="st2" d="M640,863.6c0,0.4-1.8,0-3.9-0.4c-2.2-0.4-3.5-1.8-3.5-1.8s1.8,0,3.9,0.4C638.7,862.3,640,863.6,640,863.6z"/>
	<path class="st2" d="M644.8,853.5c-0.4,0.4-1.3-0.4-2.2-1.8s-0.9-2.6-0.4-3.1s0.9,0.9,1.8,2.2S644.8,853,644.8,853.5L644.8,853.5z"
		/>
	<path class="st2" d="M639.1,895.6c0,0.4-1.3,0.9-3.5,1.3c-0.9,0.4-1.8,0.4-2.6,0.4l-0.4-0.9h0.9c0,0,0,0.4-0.4,0.9l-0.4-0.9
		c0.9-0.4,1.8-0.9,2.6-0.9C637.3,895.2,639.1,895.2,639.1,895.6L639.1,895.6z"/>
	<path class="st2" d="M641.7,913.6c0,0.4-1.8,1.3-4.4,2.2c-2.6,0.9-4.4,1.3-4.8,0.9c-0.4-0.4,1.8-1.3,4.4-2.2
		C639.5,913.6,641.7,913.1,641.7,913.6z"/>
	<path class="st2" d="M627.3,905.7c0,0.4-1.3,0.9-2.6,1.8s-3.1,0.9-3.1,0.4c0-0.4,0.9-0.9,2.6-1.8
		C625.9,905.2,627.3,905.2,627.3,905.7z"/>
	<path class="st2" d="M628.6,868.8c0,0.4-2.2,0-4.8-0.9c-2.6-0.9-4.4-2.2-3.9-2.6c0.4-0.4,2.2,0.4,4.8,1.3
		C627.3,867.5,628.6,868.4,628.6,868.8z"/>
	<path class="st2" d="M663.2,864.9c0,0.4-0.9,1.3-2.6,2.6c-1.8,1.3-3.5,1.8-3.5,1.3c0-0.4,0.9-1.3,2.6-2.6
		C661.5,864.9,663.2,864.5,663.2,864.9z"/>
	<path class="st2" d="M665,882.9c0,0.4-1.3,0.9-3.1,1.3c-1.8,0.4-3.1,0.4-3.1,0c0-0.4,1.3-0.9,3.1-1.3
		C663.7,882.4,665,882.4,665,882.9z"/>
	<path class="st2" d="M667.6,903.5c0,0.4-2.2,0-3.9-1.3c-1.8-1.3-3.5-2.2-3.5-2.2s1.8,0,3.9,1.3S667.6,903.1,667.6,903.5z"/>
	<path class="st2" d="M662.8,923.2c-0.4,0-1.3-0.9-2.6-2.2s-1.8-2.6-1.8-3.1c0-0.4,1.3,0.9,2.6,2.2
		C662.3,921.5,663.2,922.8,662.8,923.2z"/>
	<path class="st2" d="M661.9,851.7c0,0.4-0.4,1.3-1.8,1.8c-1.3,0.4-2.6,0.9-2.6,0.4s0.9-0.9,2.2-1.8
		C661,851.3,661.5,851.3,661.9,851.7z"/>
	<path class="st2" d="M679,869.7c0,0.4-1.3,1.3-3.5,1.8s-3.9,0-3.9-0.4c0-0.4,1.8-0.4,3.5-0.9C676.8,869.7,678.6,869.3,679,869.7
		L679,869.7z"/>
	<path class="st2" d="M675.5,853.5c0,0.4-1.3,1.3-3.5,2.2c-2.2,0.9-3.9,0.9-4.4,0.4s1.8-0.9,3.9-1.8
		C673.7,853.5,675.5,853,675.5,853.5L675.5,853.5z"/>
	<path class="st2" d="M682.5,895.2c-3.9,0.9-7.9,0-11.4-2.2c1.8,0,3.9,0.4,5.7,0.9C679,893.8,680.8,894.3,682.5,895.2z"/>
	<path class="st2" d="M676.4,919.3c0,0.4-2.2-0.9-4.4-3.1s-3.1-3.9-3.1-3.9s1.8,1.3,3.9,3.1C675.1,917.1,676.4,918.8,676.4,919.3z"
		/>
	<path class="st1" d="M648.3,834.2c-4.4,2.6-8.3,5.7-11.8,9.7c-8.3,9.2-13.6,20.6-14.9,32.9c-0.4,6.6-0.4,13.6,0.9,20.2
		c0.9,5.3,2.2,11,3.9,16.2c1.3,4.4,2.6,8.3,3.5,10.5l1.3,3.9c-0.4-1.3-1.3-2.6-1.8-3.9c-0.9-2.6-2.2-6.1-3.5-10.5
		c-1.8-5.3-3.1-10.5-3.9-16.2c-1.3-6.6-1.8-13.6-0.9-20.6c1.3-12.7,7-24.1,15.4-33.3c2.6-2.6,5.7-4.8,8.8-7L648.3,834.2
		C647.4,834.2,647.9,834.2,648.3,834.2L648.3,834.2z"/>
	<path class="st1" d="M666.7,928.1c2.2-4.8,4.4-9.7,6.1-14.5c3.9-12.3,5.3-25,3.5-37.7c-0.9-7-3.1-13.6-5.7-20.2
		c-2.6-5.3-5.7-9.7-10.1-13.6c-3.1-2.6-6.1-4.4-9.7-6.1l-3.9-1.3h0.9c0.9,0,2.2,0.4,3.1,0.9c3.5,1.3,7,3.5,10.1,6.1
		c4.4,3.9,7.9,8.8,10.5,14c3.1,6.6,5.3,13.2,6.1,20.2c1.8,12.7,0.4,25.9-3.9,38.2c-0.9,2.2-1.8,4.4-2.6,6.1
		c-0.9,1.8-1.8,3.1-2.2,4.4S667.6,927.2,666.7,928.1L666.7,928.1z"/>
	<path class="st2" d="M614.1,925h75l0.4,14.9h-75.4L614.1,925L614.1,925z"/>
	<path class="st2" d="M620.2,932.4l4.4,46.1h55.3l4.4-45.6L620.2,932.4z"/>
	<path class="st3" d="M689.5,940.3c0,0.4-16.7,0.9-37.7,0.9c-21.1,0-37.7-0.4-37.7-0.9s16.7-0.4,37.7-0.4
		C672.9,939.9,689.5,939.9,689.5,940.3z"/>
	<path class="st3" d="M682.1,954.4c-0.4,0.9-0.9,2.2-1.8,2.6c-1.8,2.6-3.5,4.8-5.7,7l-0.4,0.4l-0.4-0.4c-4.4-4.8-9.2-9.2-14.5-12.7
		h0.9l-6.6,5.7l-7.9,6.6l-0.4,0.4l-0.4-0.4l-12.3-10.5h0.9l-6.6,7.9l-2.6,2.6c0.4-1.3,1.3-2.2,2.2-3.1l6.1-8.3l0.4-0.4l0.4,0.4
		l12.7,10.5h-0.9l7.9-6.6l6.6-5.7l0.4-0.4l0.4,0.4c5.3,3.9,10.1,8.3,14.5,13.2h-0.9L682.1,954.4z"/>
	<path class="st2" d="M3321.5,1513.7c0,0.4-703.6,1.3-1571.3,1.3s-1571.7-0.4-1571.7-1.3c0-0.9,703.6-1.3,1571.7-1.3
		S3321.5,1512.8,3321.5,1513.7z"/>
	<path class="st2" d="M2457.8,147.2v794.4h-1373V147.2H2457.8z"/>
	<path class="st2" d="M2460.4,944.3H1082.6V144.6h1378.3v799.7H2460.4z M1087.4,939h1367.7V149.9H1087.4V939L1087.4,939z"/>
	<path class="st3" d="M2445.9,169.6v744.8h-1330V169.6H2445.9z"/>
	<path class="st2" d="M2448.6,917.1H1113.3V167h1335.3V917.1z M1118.5,911.8h1324.8V172.2H1118.5L1118.5,911.8L1118.5,911.8z"/>
	<path class="st2" d="M2493.7,906.1v35.5H1058.5v-35.5L2493.7,906.1L2493.7,906.1z"/>
	<path class="st2" d="M2496.8,944.3H1056.3v-40.8h1440.6V944.3z M1061.5,939h1430v-30.3h-1430L1061.5,939L1061.5,939z"/>
	<path class="st1" d="M2077.9,610.5v-16.2c0-11,0-26.3-0.4-46.5c0-39.9-0.4-96.9-0.4-165.4l0.9,0.9h-228.1l0.9-0.9v228.1l-0.9-0.9
		l165.4,0.4l46.5,0.4h12.3h-58.3l-165.8,0.4h-0.9V381.1h230.3v0.9c0,68.4-0.4,125.5-0.4,165.8v61.9
		C2078.3,609.2,2078.3,610,2077.9,610.5L2077.9,610.5z"/>
	<path class="st1" d="M2077.9,610.5l1.8-1.3l5.3-3.5l20.2-12.7l74.1-46.5l-0.4,0.9c0-59.7,0-138.6-0.4-225l0.9,0.9h-0.4l-225-0.4
		h0.4l-76.8,43l-21.1,11.8l-5.3,3.1c-1.3,0.4-1.8,0.9-1.8,0.9l1.8-1.3l5.3-3.1l20.6-12.3l76.3-43.9l225-0.4h1.8v0.9
		c0,86.4,0,165.4-0.4,225v0.4l-0.4,0.4l-74.6,45.6l-20.6,12.3l-5.3,3.1C2078.3,610,2077.9,610.5,2077.9,610.5L2077.9,610.5z"/>
	<path class="st1" d="M2179.7,322.7c0.4,0.4-22.4,14-50.4,30.7c-28.1,16.7-51.3,29.4-51.3,29c0-0.4,22.4-14,50.4-30.7
		C2156.4,335,2179.2,322.3,2179.7,322.7z"/>
	<path class="st1" d="M1860.3,601.3c0.4,0.4-1.8,2.2-4.8,3.9c-3.1,1.8-5.7,2.6-6.1,2.2c-0.4-0.4,1.8-2.2,4.8-3.9
		C1857.3,601.7,1859.9,600.4,1860.3,601.3z"/>
	<path class="st1" d="M1881.8,588.5c0.4,0.4-1.8,2.2-4.8,3.9c-3.1,1.8-5.7,2.6-6.1,2.2c-0.4-0.4,1.8-2.2,4.8-3.9
		C1878.7,589,1881.8,588.1,1881.8,588.5z"/>
	<path class="st1" d="M1903.8,576.3c0.4,0.4-1.8,2.2-4.8,3.9c-3.1,1.8-5.7,2.6-6.1,2.2c-0.4-0.4,1.8-2.2,4.8-3.9
		S1903.3,575.8,1903.8,576.3z"/>
	<path class="st1" d="M1925.2,564c0.4,0.4-1.8,2.2-4.8,3.9c-3.1,1.8-5.7,2.6-6.1,2.2c-0.4-0.4,1.8-2.2,4.8-3.9
		C1922.2,564.4,1924.8,563.1,1925.2,564z"/>
	<path class="st1" d="M1946.7,551.3c0.4,0.4-1.8,2.2-4.8,3.9c-3.1,1.8-5.7,2.6-6.1,2.2c-0.4-0.4,1.8-2.2,4.8-3.9
		S1946.7,550.8,1946.7,551.3z"/>
	<path class="st1" d="M1952.4,529.8c0.4,0,0.9,2.6,0.9,6.1s-0.4,6.1-1.3,6.1c-0.9,0-0.9-2.6-0.9-6.1S1952,529.8,1952.4,529.8z"/>
	<path class="st1" d="M1952.9,504.3c0.4,0,0.9,2.6,0.9,6.1c0,3.5-0.4,6.1-1.3,6.1c-0.9,0-0.9-2.6-0.9-6.1
		C1951.6,506.9,1952,504.3,1952.9,504.3z"/>
	<path class="st1" d="M1952.9,479.7c0.4,0,0.9,2.6,0.9,6.1c0,3.5-0.4,6.1-1.3,6.1c-0.9,0-0.9-2.6-0.9-6.1
		C1951.6,482.4,1952.4,479.7,1952.9,479.7z"/>
	<path class="st1" d="M1952.9,454.7c0.4,0,0.9,2.6,0.9,6.1c0,3.5-0.4,6.1-1.3,6.1c-0.9,0-0.9-2.6-0.9-6.1
		C1951.6,457.4,1952.4,454.7,1952.9,454.7z"/>
	<path class="st1" d="M1953.3,429.7c0.4,0,0.9,2.6,0.9,6.1s-0.4,6.1-1.3,6.1s-0.9-2.6-0.9-6.1S1952.4,429.7,1953.3,429.7z"/>
	<path class="st1" d="M1953.3,404.7c0.4,0,0.9,2.6,0.9,6.1c0,3.5-0.4,6.1-1.3,6.1s-0.9-2.6-0.9-6.1
		C1952,407.4,1952.9,404.7,1953.3,404.7z"/>
	<path class="st1" d="M1953.8,379.7c0.4,0,0.9,2.6,0.9,6.1c0,3.5-0.4,6.1-0.9,6.1c-0.4,0-0.9-2.6-0.9-6.1
		C1952.9,382.4,1952.9,379.7,1953.8,379.7z"/>
	<path class="st1" d="M1953.8,354.7c0.4,0,0.9,2.6,0.9,6.1s-0.4,6.1-1.3,6.1c-0.9,0-0.9-2.6-0.9-6.1S1953.3,354.7,1953.8,354.7z"/>
	<path class="st1" d="M1954.2,329.7c0.4,0,0.9,2.6,0.9,6.1c0,3.5-0.4,6.1-0.9,6.1s-0.9-2.6-0.9-6.1
		C1953.3,332.4,1953.3,329.7,1954.2,329.7z"/>
	<path class="st1" d="M2167.4,547.7c0-0.4,2.6-0.9,6.1-0.9s6.1,0.4,6.1,0.9s-2.6,0.9-6.1,0.9S2167.4,548.2,2167.4,547.7z"/>
	<path class="st1" d="M2142.4,547.7c0-0.4,2.6-0.9,6.1-0.9s6.1,0.4,6.1,0.9s-2.6,0.9-6.1,0.9S2142.4,548.2,2142.4,547.7z"/>
	<path class="st1" d="M2117.4,547.7c0-0.4,2.6-0.9,6.1-0.9s6.1,0.4,6.1,0.9s-2.6,0.9-6.1,0.9S2117.4,548.2,2117.4,547.7z"/>
	<path class="st1" d="M2092.4,547.7c0-0.4,2.6-0.9,6.1-0.9s6.1,0.4,6.1,0.9s-2.6,0.9-6.1,0.9S2092.4,548.2,2092.4,547.7z"/>
	<path class="st1" d="M2067.4,547.7c0-0.4,2.6-0.9,6.1-0.9c3.5,0,6.1,0.4,6.1,0.9s-2.6,0.9-6.1,0.9
		C2070,548.6,2067.4,548.2,2067.4,547.7z"/>
	<path class="st1" d="M2042.4,547.7c0-0.4,2.6-0.9,6.1-0.9c3.5,0,6.1,0.4,6.1,0.9s-2.6,0.9-6.1,0.9
		C2045,548.6,2042.4,548.2,2042.4,547.7z"/>
	<path class="st1" d="M2017.4,547.7c0-0.4,2.6-0.9,6.1-0.9c3.5,0,6.1,0.4,6.1,0.9s-2.6,0.9-6.1,0.9
		C2020,548.6,2017.4,548.2,2017.4,547.7z"/>
	<path class="st1" d="M1992.4,547.7c0-0.4,2.6-0.9,6.1-0.9c3.5,0,6.1,0.4,6.1,0.9s-2.6,0.9-6.1,0.9
		C1995,548.6,1992.4,548.2,1992.4,547.7z"/>
	<path class="st1" d="M1967.4,547.7c0-0.4,2.6-0.9,6.1-0.9c3.5,0,6.1,0.4,6.1,0.9s-2.6,0.9-6.1,0.9
		C1970,548.6,1967.4,548.2,1967.4,547.7z"/>
	<path class="st1" d="M1952.4,547.7c0-0.4,0.4-1.3,1.3-1.3c0.4,0,1.3,0.4,1.3,0.9c0,0.4-0.4,1.3-0.9,1.3h-0.4
		C1952.9,548.6,1952.4,548.2,1952.4,547.7L1952.4,547.7z"/>
	<path class="st1" d="M2207.3,471.4c1.8,0,3.9,0,5.7-0.4c4.8-0.9,9.2-4.4,11.8-8.8c3.5-7,3.1-14.9-0.4-21.5
		c-0.9-1.8-2.6-3.1-4.4-3.5c-2.2-0.4-4.4,0.4-5.7,1.8c-3.5,3.5-6.1,7.5-7,12.3c-1.8,4.8-3.1,10.1-3.1,15.4h-2.2
		c-0.4-16.7-0.4-31.1-0.4-41.2v-12.3c0-1.3,0-3.1,0.4-4.4c0.4,1.3,0.4,3.1,0.4,4.4c0,3.1,0.4,7,0.4,12.3c0.4,10.5,0.9,24.6,0.9,41.2
		h-2.2c0.4-5.7,1.3-11,3.5-16.2c0.9-2.6,1.8-4.8,3.1-7c1.3-2.2,2.6-4.4,4.8-6.1c2.2-1.8,4.8-2.2,7.5-1.8c2.6,0.4,4.8,2.2,5.7,4.8
		c3.9,7.5,3.9,16.2,0.4,23.7c-2.6,4.8-7.5,8.3-13.2,9.2h-4.4L2207.3,471.4L2207.3,471.4z"/>
	<path class="st1" d="M2096.8,296.8c0,0,0,0.4-0.4,0.9c-0.4,0.9-1.3,1.3-2.2,1.8c-1.3,0.9-3.1,0.9-4.4,0.9c-2.2,0-3.9-0.9-5.7-2.2
		c-1.8-1.8-3.1-3.9-3.9-6.1l-2.6-7.9c-1.8-6.6-3.1-13.2-3.1-19.7h2.2c1.3,8.8,0.9,17.5-0.9,25.9c-1.3,5.3-3.9,9.7-7.9,13.2
		c-2.2,1.8-4.8,2.2-7.5,1.8c-2.6-0.4-4.8-2.2-6.1-4.4c-6.1-12.7-1.3-28.1,11.4-34.2c0.4,0,0.4-0.4,0.9-0.4c1.3-0.4,2.6-0.9,4.4-1.3
		c0.9,0,1.8-0.4,1.8,0s-2.2,0.4-5.3,2.2c-4.8,2.6-8.3,6.1-11,11c-1.8,3.1-2.6,6.6-2.6,10.1c-0.4,3.9,0.4,8.3,2.6,11.8
		c0.9,1.8,2.6,3.1,4.8,3.5c2.2,0.4,4.4,0,6.1-1.3c3.5-3.1,6.1-7.5,7-12.3c1.8-8.3,1.8-16.7,0.9-25.4h2.2c0.4,6.6,1.3,13.2,2.6,19.3
		c0.9,3.1,1.8,5.7,2.2,7.9s1.8,4.4,3.1,6.1c2.2,2.2,5.7,3.1,8.8,1.8C2094.6,298.1,2095.9,297.7,2096.8,296.8L2096.8,296.8z"/>
	<path class="st1" d="M1471.2,367.9v1.3c0,0.9,0,2.2,0.4,3.5c0.4,3.1,0.4,7.9,1.3,13.6c0.9,11.8,2.2,29,2.2,50
		c0.4,25-2.2,49.6-8.3,73.7c-3.5,14-9.2,28.1-15.8,40.8c-7.5,14-17.1,26.8-28.5,37.7c-11.4,11.4-23.2,21.9-32.9,33.3
		c-9.7,11-17.1,23.7-22.8,36.8c-9.2,22.8-14,47.4-14.5,71.9c-0.9,21.1,0,38.2,0.4,50c0.4,5.7,0.4,10.5,0.4,13.6v3.5
		c0-0.9,0-2.2-0.4-3.5c-0.4-3.1-0.4-7.9-0.9-13.6c-1.3-16.7-1.8-33.3-1.3-50c0.4-25,5.3-49.6,14.5-72.8
		c5.7-13.6,13.2-26.3,22.8-37.7c10.1-11.8,21.9-22.4,32.9-33.8c11-11,20.6-23.7,28.1-37.3c7-12.7,12.3-26.3,15.8-40.4
		c6.1-24.1,9.2-48.7,8.8-73.3c0-21.1-0.9-38.2-1.8-50c-0.4-5.7-0.4-10.5-0.9-13.6v-3.5C1471.2,368.3,1471.2,367.9,1471.2,367.9z"/>
	<path class="st1" d="M1426.9,435.4c-2.2-3.5-3.5-7-4.8-10.5c-2.6-6.6-6.6-15.8-10.5-26.3l-0.4-1.8h1.8c-4.4,7.9-7.5,16.2-10.1,25
		c-1.8,6.6-2.2,11-2.6,11c0-3.9,0.4-7.5,1.3-11c1.8-8.8,5.3-17.5,9.7-25.4l0.9-1.8l0.9,2.2l0.4,1.8c3.9,10.1,7.5,19.7,10.1,26.3
		C1424.7,428,1426,431.5,1426.9,435.4z"/>
	<path class="st1" d="M1406.7,813.1c-0.4,0,0.4-93,2.6-207.9c2.2-114.9,3.9-207.9,4.8-207.9c0.9,0-0.4,93-2.6,207.9
		C1409.4,720.1,1407.2,813.1,1406.7,813.1z"/>
	<path class="st1" d="M1495.4,597.3c0,0.4-32.5,0.9-72.8,0.9c-40.4,0-72.8-0.4-72.8-0.9c0-0.4,32.5-0.9,72.8-0.9
		C1462.9,596.4,1495.4,596.9,1495.4,597.3z"/>
	<path class="st1" d="M1479.1,613.5c3.5-2.2,7-3.9,11-5.3c7-3.1,16.2-7,26.8-11.4v1.8l-1.3-0.4c-11-3.9-21.1-7-28.5-9.7
		c-3.9-1.3-7.9-2.6-11.4-4.8c3.9,0.9,8.3,1.8,12.3,3.1c7.5,2.2,17.5,5.3,28.5,9.2l1.3,0.4l2.6,0.9l-2.6,0.9
		c-10.5,4.4-20.2,8.3-27.2,11C1486.6,611.3,1483.1,612.7,1479.1,613.5L1479.1,613.5z"/>
	<path class="st1" d="M1495.8,568.8c0,0,0,0.4-0.9,1.3l-2.2,2.6l1.8-3.5c2.6-4.8,5.7-9.7,9.2-14.5c3.5-5.3,7-10.5,11.4-14.9
		c-2.6,5.7-6.1,11-9.7,16.2c-4.4,6.1-8.3,11.4-10.1,13.6l-0.4-0.4C1494.9,568.8,1495.4,568.8,1495.8,568.8z"/>
	<path class="st1" d="M1520.4,565.7c-4.8-3.5-9.2-7.5-13.2-12.3c-4.4-3.9-8.3-8.8-11.4-13.6c4.8,3.5,9.2,7.5,13.2,12.3
		C1513.3,556.5,1517.3,560.9,1520.4,565.7z"/>
	<path class="st1" d="M1388.3,560c0,0,0.9-0.9,3.1-0.4c3.1,0.9,5.3,3.1,5.7,6.1c0.4,4.4-0.4,8.8-2.2,12.3c-0.9,2.6-2.6,4.4-4.4,6.1
		c-2.2,1.8-5.3,2.6-8.3,1.8c-2.6-0.9-5.3-3.1-6.1-5.7c-0.9-2.6-1.3-5.3-0.4-7.9c0.4-4.4,2.6-8.3,6.1-11.4c2.2-1.8,5.3-2.6,8.3-2.2
		c0.9,0,2.2,0.4,2.6,1.3c0,0-0.9-0.4-3.1-0.4c-2.6,0-5.3,0.9-7,2.6c-2.6,3.1-4.4,6.6-4.8,10.5c-0.4,2.2,0,4.4,0.4,6.6
		c0.9,2.2,2.6,3.5,4.8,4.4c2.2,0.4,4.8,0,6.6-1.3c1.8-1.3,3.1-3.1,3.9-5.3c1.8-3.5,2.6-7.5,2.6-11.4c-0.4-2.6-1.8-4.8-4.4-5.7
		C1389.2,560,1388.3,560.5,1388.3,560L1388.3,560z"/>
	<path class="st1" d="M1368.1,424.9c-0.4,0.4-3.5-3.1-6.6-7.5c-2.2-2.6-3.9-5.7-5.3-8.8c0.4-0.4,3.5,3.1,6.6,7.5
		C1365.1,418.8,1366.8,421.8,1368.1,424.9z"/>
	<path class="st1" d="M1359.4,446c1.8-7.5,3.9-14.5,7-21.5c2.2-7,5.3-14,8.8-20.6c-1.8,7.5-3.9,14.5-7,21.5
		C1366,432.8,1362.9,439.4,1359.4,446z"/>
	<path class="st1" d="M1593.2,278.4c0,0.9-82.9,1.3-185.1,1.3s-185.1-0.4-185.1-1.3s82.9-1.3,185.1-1.3S1593.2,278,1593.2,278.4z"/>
	<path class="st1" d="M1593.2,299.9c0,0.9-82.9,1.3-185.1,1.3s-185.1-0.4-185.1-1.3c0-0.9,82.9-1.3,185.1-1.3
		S1593.2,299.5,1593.2,299.9z"/>
	<path class="st1" d="M1346.2,240.2c0,0.9-27.6,1.3-61.9,1.3c-34.2,0-61.9-0.4-61.9-1.3c0-0.9,27.6-1.3,61.9-1.3
		C1318.6,238.9,1346.2,239.4,1346.2,240.2z"/>
	<path class="st1" d="M2231.9,683.7c0,0.9-48.7,9.7-109.2,19.3c-60.5,9.7-109.2,17.5-109.7,16.7s48.7-9.7,109.2-19.3
		C2182.7,690.7,2231.9,682.8,2231.9,683.7z"/>
	<path class="st1" d="M2242.8,709.6c0,0.9-48.7,9.7-109.2,19.3c-60.5,9.7-109.2,17.5-109.7,16.7c-0.4-0.9,48.7-9.7,109.2-19.3
		C2193.7,716.6,2242.4,708.7,2242.8,709.6z"/>
	<path class="st1" d="M2253.8,735.5c0,0.9-48.7,9.7-109.2,19.3s-109.2,17.5-109.7,16.7c-0.4-0.9,48.7-9.7,109.2-19.3
		C2204.7,742.5,2253.4,734.6,2253.8,735.5z"/>
	<path class="st0" d="M1519,721v182.5h313.6L1519,721z M1567.3,794.3l130.3,77.2h-130.7L1567.3,794.3z"/>
	<path class="st2" d="M1549.3,738.1c-1.3,3.9-3.1,7.9-5.7,11.4c-1.8,3.9-4.4,7-7.5,10.1c1.3-3.9,3.1-7.9,5.7-11.4
		C1543.6,744.7,1546.2,741.2,1549.3,738.1z"/>
	<path class="st2" d="M1595.8,764.9c-1.3,3.9-3.1,7.5-5.7,11c-1.8,3.5-4.4,7-7.5,9.7c1.3-3.9,3.1-7.5,5.7-11
		C1590.1,771,1592.7,767.9,1595.8,764.9z"/>
	<path class="st2" d="M1642.3,792.1c-3.9,7-8.8,13.6-14.9,19.3c1.8-3.9,3.9-7,6.6-10.1C1637.9,795.6,1641.9,791.6,1642.3,792.1
		L1642.3,792.1z"/>
	<path class="st2" d="M1687.9,819.7c-3.9,7-8.8,13.6-14.9,19.3c1.8-3.9,3.9-7.5,6.6-10.1C1683.5,823.2,1687.5,819.3,1687.9,819.7
		L1687.9,819.7z"/>
	<path class="st2" d="M1735.7,846.9c-1.3,3.9-3.5,7.5-6.1,11c-2.2,3.5-4.8,7-7.9,9.7c1.3-3.9,3.5-7.9,6.1-11
		C1729.6,853,1732.7,849.5,1735.7,846.9z"/>
	<path class="st2" d="M1785.3,875.9c-1.3,3.9-3.1,7.5-5.3,10.5c-1.8,3.5-4.4,6.6-7.5,9.2c1.3-3.9,3.1-7.5,5.3-10.5
		C1779.6,881.6,1782.2,878.5,1785.3,875.9z"/>
	<path class="st2" d="M1563.8,746.9c0.4,0.4-0.4,3.1-2.2,5.7c-1.8,2.6-3.5,4.8-4.4,4.8s0.4-3.1,2.2-5.7
		C1561.2,749.1,1562.9,746.5,1563.8,746.9z"/>
	<path class="st2" d="M1578.7,755.2c0.4,0.4-0.4,3.1-2.2,5.7c-1.8,2.6-3.5,4.8-4.4,4.8s0.4-3.1,2.2-5.7
		C1576.1,757.4,1578.3,754.8,1578.7,755.2z"/>
	<path class="st2" d="M1612.9,775.4c0.4,0.4-0.4,3.1-2.2,5.7c-1.8,2.6-3.5,4.8-4.4,4.8c-0.9,0,0.4-3.1,2.2-5.7
		C1610.3,777.6,1612.5,775,1612.9,775.4z"/>
	<path class="st2" d="M1628.3,783.7c0.4,0.4-0.4,3.1-2.2,5.7c-1.8,2.6-3.5,4.8-4.4,4.8c-0.9,0,0.4-3.1,2.2-5.7
		C1625.6,785.9,1627.4,783.3,1628.3,783.7z"/>
	<path class="st2" d="M1658.5,802.6c0.4,0.4-0.4,3.1-2.2,5.7c-1.8,2.6-3.5,4.8-4.4,4.8c-0.9,0,0.4-3.1,2.2-5.7
		C1655.9,804.8,1658.1,802.2,1658.5,802.6z"/>
	<path class="st2" d="M1673.5,811.4c0.4,0.4-0.4,3.1-2.2,5.7c-1.8,2.6-3.5,4.8-4.4,4.8c-0.9,0,0.4-3.1,2.2-5.7
		C1670.8,813.6,1672.6,810.9,1673.5,811.4z"/>
	<path class="st2" d="M1704.6,829.4c0.4,0.4-0.4,3.1-2.2,5.7c-1.8,2.6-3.5,4.8-4.4,4.8s0.4-3.1,2.2-5.7
		C1702,831.6,1704.2,828.9,1704.6,829.4z"/>
	<path class="st2" d="M1721.7,839.5c0.4,0.4-0.4,3.1-2.2,5.7c-1.8,2.6-3.5,4.8-4.4,4.8c-0.9,0,0.4-3.1,2.2-5.7
		C1719.1,841.6,1720.8,839,1721.7,839.5z"/>
	<path class="st2" d="M1752,857c0.4,0.4-0.4,3.1-2.2,5.7c-1.8,2.6-3.5,4.8-4.4,4.8c-0.9,0,0.4-3.1,2.2-5.7
		C1749.3,859.2,1751.5,856.6,1752,857z"/>
	<path class="st2" d="M1769.5,867.1c0.4,0.4-0.4,3.1-2.2,5.7c-1.8,2.6-3.5,4.8-4.4,4.8c-0.9,0,0.4-3.1,2.2-5.7
		C1766.9,869.3,1769.1,866.6,1769.5,867.1z"/>
	<path class="st0" d="M395.6,751.3c0,0-43.9,1.8-36.4,42.1s102.6,382.5,102.6,382.5h336.9c12.7,0,22.8-10.1,22.8-22.8
		c0-12.3-10.1-22.8-22.4-22.8H682.5l-89.9-338.6c-5.3-23.7-26.3-40.8-50.9-40.8L395.6,751.3L395.6,751.3z"/>
	<path class="st2" d="M508.4,1175.9c-0.4,0-26.3-94.8-57.5-212.3s-55.7-212.3-55.3-212.3S422,846,453.1,963.6
		S508.8,1175.9,508.4,1175.9z"/>
	<path class="st2" d="M494.3,1130.3c0-0.4,51.3-1.3,114.1-1.3s114.1,0.4,114.1,1.3c0,0.9-51.3,1.3-114.1,1.3
		S494.3,1131.2,494.3,1130.3z"/>
	<path class="st4" d="M668.9,1192.1v148.3h-51.8v-148.3H668.9z"/>
	<path class="st4" d="M650.9,1461.5h-16.2v-140.4h16.2V1461.5z"/>
	<path class="st4" d="M494.3,1513.7l140.4-60.5h16.2l154.8,60.5H494.3z"/>
	<path class="st2" d="M1080.4,1044.7v468.9H1058v-468.9H1080.4z"/>
	<path class="st2" d="M833,1044.7v468.9h-22.4v-468.9H833z"/>
	<path class="st3" d="M1180.8,992.5v297.8H508.4V992.5H1180.8z"/>
	<path class="st3" d="M1206.7,979.8v49.6H268v-49.6H1206.7z"/>
	<path class="st3" d="M486,1004.8v285.6H282v-285.6H486z"/>
	<path class="st2" d="M1195.8,1026.3c0,0.4-208.4,1.3-465,1.3s-465-0.4-465-1.3c0-0.9,208.4-1.3,465-1.3
		S1195.8,1025.9,1195.8,1026.3z"/>
	<path class="st2" d="M507.9,1026.3v486.9h-22.4v-486.9H507.9z"/>
	<path class="st2" d="M303.1,1026.3v486.9h-22.4v-486.9H303.1z"/>
	<path class="st2" d="M923.8,342c16.7,4.8,27.6,20.2,28.1,37.3c0,8.8-2.6,18.4,2.6,25c3.5,4.4,9.7,5.7,14,9.2
		c8.3,6.6,10.1,18.4,3.5,26.8c-1.8,2.2-3.5,3.5-5.7,4.8c5.7,3.9,12.7,5.3,19.3,2.6c-0.9,6.6-4.4,12.7-10.1,16.2
		c-5.7,3.5-12.7,4.4-18.9,2.6c-0.4,6.6,2.2,13.2,7,18c-9.2-3.1-19.7,0.4-28.5,4.8c-8.8,4.4-18,9.2-27.6,9.7
		c-10.5,0-20.6-3.9-28.5-11s-14.5-14.9-20.2-23.7"/>
	<path class="st5" d="M931.2,390.7c-0.9-21.9-24.6-44.7-46.5-42.5l-71.9,12.3v11.8l-0.4,153.5l83.3,36.4l-1.3-57.5
		c0,0,28.5-3.9,35.1-40.8C932.6,445.5,932.6,415.3,931.2,390.7L931.2,390.7z"/>
	<path class="st6" d="M894.8,504.8c-17.5,0-34.2-4.8-49.1-14c0,0,12.7,25.9,49.6,23.2L894.8,504.8z"/>
	<path class="st2" d="M882.6,344.6c0.9-6.6-5.7-12.7-12.3-13.6c-7-0.4-13.6,1.3-19.3,5.3c-5.7,3.9-11.8,6.6-18.4,8.8
		c-5.7,1.3-11.8,0.9-17.5,1.8c-13.6,2.2-24.6,12.3-29,25c-2.2,7.9-1.8,16.2-5.7,23.7c-3.1,6.1-8.8,11.4-11,18
		c-2.6,8.3,2.2,17.1,6.1,25c3.9,7.9,7.9,17.1,3.9,25c7.9,2.6,16.2,3.5,24.1,3.5c3.1,0,5.7-0.9,8.3-2.2c3.5-3.1,5.7-7.5,5.7-11.8
		c3.9-20.6,6.1-42.5,16.7-60.5c3.9-7,9.7-13.6,11.4-21.5c0.4-4.8,1.8-9.2,3.9-13.2c3.1-3.1,7.5-4.8,11.8-4.8s8.8-0.4,13.2-1.3
		c4.4-0.9,7.5-4.8,7.9-9.2"/>
	<path class="st2" d="M944.8,380.6c-3.1-4.8-4.4-10.1-3.9-15.4c0.4-5.3,0.4-11,0.4-16.2c-1.8-15.8-13.6-28.1-29.4-30.3
		c-18.9-1.8-34.7,14-34.7,14c-0.4-0.9-0.9-1.8-1.8-2.2c-3.1-3.5-7.5-5.7-11.8-7c-6.1-2.2-13.2-1.8-19.3,0.4c-4.8,2.2-8.8,6.6-14,8.3
		c-5.7,2.2-12.3,0.9-18.4,1.8c-13.2,1.8-23.7,12.7-29,25c-4.8,12.3-5.3,26.3-5.3,39.5l7.9-4.8c-3.5,7.9-7.5,15.4-14.9,18.4
		c3.9,3.1,7.5,0.4,11.8-2.2c-5.3,9.2-7,20.2-5.7,30.7c1.3,5.3,1.8,10.1,1.8,15.4s-3.9,10.1-9.2,11.4c8.3,7.5,18.9,12.3,30.3,12.7
		c-0.9,5.7-3.9,10.5-8.3,14c18,6.1,37.3-3.1,43.9-21.1c1.3-4.4,2.2-8.8,1.8-13.6c-0.4-8.3-4.4-16.7-3.1-25
		c1.3-8.3,6.6-14.9,9.2-22.4c1.8-4.4,2.6-8.8,2.6-13.2c1.8-2.6,3.1-6.1,3.5-9.2c1.8-9.7-3.9-19.7-2.2-29.4c0.4-1.8,0.9-3.9,1.8-5.7
		l6.1-3.5c3.9,0.4,8.3,0.4,12.3-0.4l3.9-1.3v2.6c3.1,4.8,8.3,7.9,14,8.3c8.8,0,24.6-1.3,27.2,7.5c2.2,7.5,6.1,14.5,11.4,20.2
		c5.7,5.3,10.1,8.3,18,7.9c7.9-0.4,15.8-3.5,15.4-11.4C954.1,387.2,947.9,385.4,944.8,380.6L944.8,380.6z"/>
	<path class="st3" d="M772.4,425.8c0,0,2.2,0,6.1-0.4c5.3-0.9,10.5-2.6,14.9-6.1c6.6-4.8,11-11.8,12.3-19.7c0.4-4.8,0.4-9.7,0-14.5
		c-0.4-5.3-0.4-10.5,0.4-15.8c1.3-5.3,3.9-10.1,7.9-14c3.9-3.5,8.3-5.7,13.6-7c4.4-0.9,8.8-1.3,13.2-1.8c3.9-0.4,7.5-0.9,11.4-1.8
		c7.5-2.2,14.5-4.8,21.1-8.8c-1.3,1.3-3.1,2.6-4.8,3.5c-4.8,3.1-10.1,5.3-15.4,6.6c-3.9,0.9-7.5,1.8-11.4,2.2
		c-4.4,0.4-8.8,0.9-13.2,1.8c-4.8,0.9-8.8,3.1-12.3,6.1c-3.5,3.5-6.1,7.9-7.5,12.7c-2.2,10.1,0.9,20.6-0.9,30.3
		c-1.8,8.3-6.6,15.8-13.6,21.1c-4.8,3.1-10.1,5.3-15.8,5.3h-4.8C773.3,425.8,772.4,425.8,772.4,425.8L772.4,425.8z"/>
	<path class="st3" d="M778.6,450.8c0,0,2.2,0.4,6.6,0.9c5.7,0.4,11.4-0.9,17.1-3.1c7.9-3.5,14.5-9.2,19.3-16.2
		c5.7-8.8,8.8-19.3,9.7-29.8c0.9-11-0.9-22.4,1.3-32c2.2-8.8,8.3-16.2,16.7-20.2c5.3-2.6,11.4-3.5,17.5-2.2c1.8,0.4,3.1,0.9,4.8,1.3
		c0.9,0.4,1.8,0.9,1.3,0.9c-0.4,0-2.2-0.9-6.1-1.3c-5.7-0.9-11.4,0.4-16.7,3.1c-7.9,3.9-13.2,11-15.4,19.3c-2.2,9.2-0.4,20.2-1.3,32
		c-0.9,11-4.4,21.5-10.1,30.7c-4.8,7.5-12.3,13.2-20.6,16.7c-5.7,2.2-11.4,3.1-17.5,2.6c-1.8,0-3.1-0.4-4.8-0.9L778.6,450.8
		L778.6,450.8z"/>
	<path class="st3" d="M958.9,385c0,0-0.9,1.8-3.9,3.1c-4.4,1.8-9.7,2.2-14.5,0.9c-1.8-0.4-3.1-0.9-4.4-1.8c-1.3-0.9-2.6-2.2-3.9-3.9
		c-2.2-3.1-4.4-6.6-5.7-10.1c-3.1-7.9-1.8-17.1-3.9-25.9c-0.9-4.4-2.6-8.3-5.7-11.4c-2.6-3.1-6.1-4.8-10.1-4.8
		c-7,0-13.6,1.8-19.7,5.7c-5.3,3.5-10.1,7.9-14,13.2c0.9-1.8,1.8-3.1,2.6-4.4c3.1-3.9,6.6-7,10.5-9.7c2.6-1.8,5.7-3.1,9.2-4.4
		c3.5-1.3,7.5-2.2,11.4-1.8c4.4,0.4,8.8,2.2,11.8,5.7c3.1,3.5,5.3,7.9,6.1,12.3c2.2,9.2,0.9,18.4,3.5,25.4c1.3,3.5,3.1,6.6,5.3,9.7
		c1.8,2.6,4.4,4.8,7.5,5.3c4.4,1.3,9.2,1.3,13.6-0.4C956.2,387.2,957.6,386.3,958.9,385L958.9,385z"/>
	<path class="st3" d="M954.1,480.6c-1.3,0.9-2.6,1.3-4.4,0.9c-3.9-0.4-7.9-3.1-9.7-6.6c-2.2-5.7-1.8-12.3,1.3-17.5
		c3.9-5.7,7.9-11.4,12.7-17.1c2.2-3.1,3.5-6.1,3.9-9.7c0.4-3.1,0.4-6.6-0.9-9.7c-0.9-2.6-2.2-5.3-4.4-7.5c-1.8-1.8-3.9-3.5-6.1-4.8
		c-2.2-1.3-3.9-2.6-5.3-3.9c-1.3-1.3-2.2-2.6-2.6-4.4c-0.9-2.6,0-4.4,0.4-4.4c0,1.3,0,2.6,0.4,3.9c0.4,1.3,1.8,2.6,2.6,3.9
		c1.8,1.3,3.5,2.6,5.3,3.5c2.6,1.3,4.8,2.6,6.6,4.8c2.2,2.2,3.9,5.3,4.8,8.3c1.3,3.5,1.3,7,0.9,10.5c-0.9,3.9-2.2,7.5-4.4,10.5
		c-4.4,6.1-9.7,11.4-12.7,16.7c-3.1,4.8-3.5,10.5-1.8,15.8c1.3,3.5,4.8,5.7,8.3,6.6H954.1L954.1,480.6z"/>
	<path class="st3" d="M958,384.6c0,0-2.2,2.2-6.6,1.8c-5.7-1.3-10.1-5.7-11.8-11c-1.3-2.6-1.8-5.7-1.3-8.8c0-2.6,0.4-4.8,1.3-7.5
		c0.4-2.2,0.9-4.4,1.8-6.1c0.4,0,0.4,2.6-0.4,6.6c-0.4,2.2-0.4,4.4-0.9,7c0,2.6,0.4,5.3,1.8,7.9c1.8,4.8,5.3,8.3,9.7,10.1
		C955.4,385,958,384.1,958,384.6L958,384.6z"/>
	<path class="st2" d="M821.6,814.4c-0.9,0-4.8,31.1-4.8,31.1l173.7-2.6l-6.1-36.4L821.6,814.4z"/>
	<path class="st7" d="M1044.9,1356.6l-30.3,56.1c0,0,46.9,49.6,42.1,60.5l-111-54.8l43.4-89.5L1044.9,1356.6L1044.9,1356.6z"/>
	<path class="st4" d="M983,1390.8c-2.6-0.4-4.8,1.3-5.7,3.5c-0.4,2.6,0.9,4.8,3.5,5.7c2.6,0.4,5.3-1.3,6.1-3.9
		c0.4-2.6-1.8-5.3-4.4-5.3"/>
	<path class="st8" d="M946.2,1418.5l4.8-8.8l104.8,55.7c0,0,3.9,4.4,1.8,7.9L946.2,1418.5z"/>
	<path class="st2" d="M1016.8,1412.8c-0.4,0.4-3.1-0.4-6.6,0c-3.5,0.4-6.1,2.2-6.6,1.8c-0.4-0.4,1.8-3.1,6.1-3.5
		C1014.1,1410.6,1017.2,1412.3,1016.8,1412.8z"/>
	<path class="st2" d="M1026,1423.3c0,0.4-3.1,0.4-5.7,1.8c-2.6,1.3-4.8,3.5-5.3,3.1c-0.4-0.4,0.4-3.5,4.4-5.3
		C1023.4,1421.1,1026.4,1422.9,1026,1423.3z"/>
	<path class="st2" d="M1025.6,1440.4c-0.4,0,0-3.1,3.1-5.7c3.1-2.6,6.1-2.2,6.1-1.8s-2.2,1.3-4.8,3.5
		C1027.3,1438.7,1026.4,1440.9,1025.6,1440.4L1025.6,1440.4z"/>
	<path class="st2" d="M1022.5,1399.2c-0.4,0.4-2.6-1.8-5.7-3.1s-6.1-1.3-6.1-2.2c0-0.9,3.1-1.3,7,0
		C1021.6,1395.2,1022.9,1399.2,1022.5,1399.2L1022.5,1399.2z"/>
	<path class="st2" d="M1028.2,1387.8c-2.2-0.4-3.9-1.3-5.7-2.6c-1.8-1.3-3.5-3.1-4.8-4.8c-0.9-0.9-1.8-2.2-2.2-3.1
		c-0.4-0.9-0.9-1.3-0.9-2.2c-0.4-1.3,0-2.2,1.3-3.1c0.9-0.4,2.2-0.4,3.1,0c0.9,0.4,1.3,0.9,1.8,1.3c2.6,2.2,4.8,5.3,6.1,8.8
		C1027.7,1383.8,1028.2,1386,1028.2,1387.8c-0.9,0.4-1.3-1.8-2.6-5.3c-1.8-3.1-3.5-5.7-6.1-7.9c-0.9-0.9-2.2-1.3-2.6-0.9
		c-0.4,0.4-0.4,0,0,0.9c0,0.4,0.4,0.9,0.9,1.8c0.4,0.9,1.3,2.2,2.2,3.1c1.3,1.8,2.6,3.5,4.4,4.8
		C1026.4,1386.5,1028.2,1387.8,1028.2,1387.8L1028.2,1387.8z"/>
	<path class="st2" d="M1026.9,1388.2c-0.4-2.2,0-4.4,1.3-6.1c0.9-2.2,2.2-3.9,3.9-5.7c0.9-0.9,1.8-1.8,3.1-2.6
		c1.3-1.3,3.1-1.8,4.8-0.9c0.9,0.4,1.8,1.8,1.8,2.6s0,1.8-0.4,2.2c-0.4,1.3-0.9,2.6-1.8,3.9c-1.3,1.8-3.1,3.5-5.3,4.4
		c-1.8,1.3-3.9,1.8-6.1,1.3c0-0.4,2.2-0.4,5.3-2.6c1.8-1.3,3.1-2.6,4.4-4.4c0.9-0.9,1.3-2.2,1.3-3.1c0.4-1.3,0.4-2.6,0-2.6
		c-0.9,0-2.2,0-2.6,0.9c-0.9,0.9-2.2,1.3-2.6,2.2c-1.3,1.3-2.6,3.1-3.9,4.8C1027.7,1386,1027.3,1388.2,1026.9,1388.2L1026.9,1388.2z
		"/>
	<path class="st7" d="M1015.5,1404.9l11.4,62.7c0,0,67.6,9.2,70.6,20.6L976.9,1515l-21.9-96.9L1015.5,1404.9L1015.5,1404.9z"/>
	<path class="st4" d="M988.3,1470.7c-2.2,1.3-3.1,3.9-2.2,6.6c1.3,2.2,3.9,3.1,6.1,2.2c2.2-1.3,3.5-4.4,2.2-6.6
		C993.1,1470.2,990.5,1469.8,988.3,1470.7"/>
	<path class="st8" d="M976.9,1515l-1.8-9.7l116.7-21.9c0,0,6.1,1.3,6.1,5.3L976.9,1515z"/>
	<path class="st2" d="M1028.6,1466.7c0,0.4-2.6,1.3-5.3,3.9s-3.5,5.3-3.9,5.3c-0.4,0-0.4-3.9,2.6-6.6
		C1025.1,1466.7,1028.6,1466.3,1028.6,1466.7L1028.6,1466.7z"/>
	<path class="st2" d="M1042.7,1468.9c0.4,0.4-2.2,2.2-3.5,4.8c-1.3,2.6-1.3,5.7-2.2,5.7s-1.8-3.1,0-6.6
		C1038.7,1469.4,1042.2,1468.5,1042.7,1468.9z"/>
	<path class="st2" d="M1053.2,1482.5c-0.4,0.4-1.8-2.6-1.3-6.1c0.4-3.5,3.1-5.3,3.5-4.8c0.4,0.4-0.9,2.6-1.8,5.3
		S1053.6,1482.5,1053.2,1482.5z"/>
	<path class="st2" d="M1024.7,1452.7c0,0.4-3.1,0.4-6.1,1.3c-3.1,0.9-5.7,2.6-6.1,2.2c-0.4-0.4,1.8-3.1,5.7-4.4
		C1022,1450.5,1024.7,1452.3,1024.7,1452.7L1024.7,1452.7z"/>
	<path class="st2" d="M1022,1440c-1.8,0.9-3.9,1.3-6.1,1.3s-4.4,0-6.6-0.4c-1.3-0.4-2.6-0.4-3.9-0.9c-0.9-0.4-1.3-0.4-2.2-0.9
		c-0.9-0.9-1.3-1.8-0.9-3.1c0.4-0.9,1.3-1.8,2.2-1.8s1.8-0.4,2.2,0c1.3,0,2.6,0,3.9,0.4c2.2,0.4,4.4,1.3,6.6,2.2
		c3.5,2.2,4.8,3.9,4.8,3.9s-2.2-1.3-5.3-2.6c-1.8-0.9-3.9-1.8-6.1-1.8c-1.3,0-2.6-0.4-3.9-0.4c-1.3,0-2.6,0-2.6,0.9
		c0,0.9,0,0.4,0.4,0.4c0.4,0.4,0.9,0.4,1.8,0.9c1.3,0.4,2.2,0.9,3.5,0.9c2.2,0.4,4.4,0.9,6.1,0.9H1022L1022,1440z"/>
	<path class="st2" d="M1021.2,1441.3c0,0-1.8-1.8-3.1-5.3c-0.4-2.2-0.9-4.4-0.4-6.6c0-1.3,0.4-2.6,0.9-4.4c0.4-1.8,1.3-3.1,3.1-3.9
		c1.3,0,2.2,0.4,3.1,1.3c0.4,0.4,0.9,1.3,0.9,2.2c0.4,1.3,0.9,2.6,0.9,3.9c0,2.2-0.4,4.8-1.3,6.6c-1.8,3.5-3.9,4.8-3.9,4.8l2.6-5.3
		c0.4-2.2,0.9-3.9,0.4-6.1c0-1.3-0.4-2.2-0.9-3.5c-0.4-1.3-1.3-2.2-1.8-1.8c-0.4,0.4-1.3,1.3-1.8,2.6c-0.4,1.3-0.4,2.2-0.9,3.5
		c-0.4,2.2-0.4,4.4,0,6.1C1020.3,1438.7,1021.6,1440.9,1021.2,1441.3L1021.2,1441.3z"/>
	<path class="st2" d="M976.4,823.2l169.3,243.5c17.5,23.2,22.8,53.5,13.2,81.2L1024.7,1422l-53.5-85.5l84.7-202.7l-99.6-125.9
		l-44.7-184.7H976.4L976.4,823.2z"/>
	<path class="st2" d="M948.8,878.1l-3.9-51.8l-112.7-3.1c0,0-30.7,13.6-31.1,89.5c-0.4,68.9,71.5,209.7,71.5,209.7l82.5,353.6
		l77.2-17.5L948.8,878.1L948.8,878.1z"/>
	<path class="st3" d="M961.1,886.4c0.4,2.2,0.4,3.9,0.4,6.1c0,4.4,0.4,10.1,0.4,16.7c0.4,14,1.3,33.8,2.6,55.3
		c1.3,21.5,3.9,40.8,5.7,54.8l2.2,16.7c0.4,2.2,0.4,3.9,0.4,6.1c-0.4-1.8-1.3-3.9-1.3-6.1c-0.9-3.9-1.8-9.7-3.1-16.7
		c-2.2-14-4.8-33.3-6.6-54.8s-2.2-41.2-2.2-55.3c0-7,0-12.7,0.4-16.7C960.6,890.8,960.6,888.6,961.1,886.4L961.1,886.4z"/>
	<path class="st3" d="M952.3,809.2c1.8,3.1,2.6,6.1,3.5,9.7c2.2,7.9,3.5,15.8,4.8,23.7c1.3,7.9,1.8,16.2,1.8,24.1
		c0,3.5,0,6.6-0.9,10.1c-0.4,0-0.9-15.4-3.5-33.8C955.4,824.5,951.4,809.2,952.3,809.2z"/>
	<path class="st3" d="M853.2,885.9c-0.4-3.5-0.4-7,0-11c0.4-6.6,0.9-15.8,2.2-25.9c1.3-11.8,3.1-23.7,5.7-35.5h0.4v0.4h-0.4h0.4
		c0.4,0,0,0,0,0l0.4,0.4h-0.4h0.4c0,3.5-1.8,18-3.9,35.5c-0.9,9.7-2.2,18.4-3.1,25.9C854.5,879.4,854,882.4,853.2,885.9L853.2,885.9
		z"/>
	<path class="st3" d="M872.5,862.7c-1.3-8.3-1.8-16.7-1.8-25c-0.4-8.3-0.4-16.7,0.4-25c1.3,8.3,1.8,16.7,1.8,25
		C873.3,846,873.3,854.4,872.5,862.7z"/>
	<path class="st3" d="M1108.9,1156.6c-2.6,1.3-5.7,2.2-8.8,2.2c-3.5,0.4-6.6,0.9-10.1,0.9c-4.4,0-8.3-0.9-12.3-3.1
		c-3.5-2.2-7-4.8-9.7-7.9c-2.6-3.1-4.4-5.7-6.1-7.9c-3.5-4.4-6.1-6.6-6.1-7c2.6,1.3,5.3,3.5,7,5.7c3.9,3.9,8.3,11,15.4,14.9
		c6.6,2.6,14,3.5,21.1,2.6C1102.8,1156.6,1105.8,1156.6,1108.9,1156.6L1108.9,1156.6z"/>
	<path class="st3" d="M1076.9,1172.4c-5.3-5.3-10.1-11.4-13.2-18.4c-3.9-6.6-6.6-13.6-8.3-21.1c0.4,0,4.4,9.2,10.5,20.2
		C1072.1,1164.1,1077.3,1172,1076.9,1172.4z"/>
	<path class="st4" d="M1000.1,736.4c0,0,11,14.5,24.1,16.2c7.9,1.3,20.6,1.3,29.8-4.4c14.9-10.1,19.7-29.8,10.5-45.6L1000.1,736.4z"
		/>
	<path class="st0" d="M1062,740.8c-28.1,30.7-70.2-0.4-80.3-7.9c-12.3-9.2-29-41.2-29-41.2l-56.1-127.2c-0.9-1.3,17.1,1.3,21.9,4.8
		c9.7,7,33.3,30.3,43.9,39c17.1,14.5,73.3,71.1,73.3,71.1C1051,692.1,1079.5,715.7,1062,740.8L1062,740.8z"/>
	<path class="st2" d="M933.9,649.5c4.4-7,9.2-14,14.9-20.2c4.8-6.6,10.5-13.2,16.7-18.4c-4.4,7-9.2,14-14.9,20.2
		C945.7,637.7,940,643.8,933.9,649.5z"/>
	<path class="st0" d="M938.7,658.3c4.8-7.5,10.1-14.9,15.8-21.5c5.3-7,11-14,17.5-20.2c-4.8,7.5-10.1,14.9-15.8,21.5
		C951,645.6,944.8,652.1,938.7,658.3z"/>
	<path class="st0" d="M811.5,503.9l-4.8,21.5c0,0-32.5,30.7-39.5,40.4c-7,9.7-9.2,53.1-3.1,88.2c5.3,29.8,36,126.3,45.2,154.8
		c1.8,4.8,7.5,5.7,12.3,5.7l161-7c5.7-0.4,9.7-5.3,9.2-10.5c0-0.4,0-1.3-0.4-1.8c-9.7-36.4-38.2-145.2-44.3-161.4
		c-7-19.3-42.5-65.8-42.5-65.8l-3.9-24.6L811.5,503.9z"/>
	<path class="st2" d="M967.7,710.9c-0.9-1.8-1.3-3.5-1.8-5.7c-1.3-3.9-2.6-9.2-4.4-15.8c-3.9-13.2-8.8-31.1-16.2-50.9
		c-3.9-9.7-7.9-18.9-11.8-26.8c-3.5-7-7.5-14-11.8-20.6c-7.5-11.4-13.2-17.5-12.7-18c1.3,1.3,3.1,2.6,3.9,4.4
		c1.8,1.8,3.1,3.5,4.4,5.3c1.8,2.2,3.5,4.4,5.7,7.5c4.4,6.6,8.8,13.6,12.3,20.6c4.4,8.8,8.3,17.5,12.3,26.8
		c6.1,16.7,11.4,33.8,15.8,50.9c1.8,6.6,3.1,11.8,3.9,15.8C966.8,707,967.2,709.2,967.7,710.9L967.7,710.9z"/>
	<path class="st2" d="M900.5,543.4c-0.4,2.6-1.3,4.8-2.2,7c-1.8,4.4-3.9,11-6.6,18.4l-0.4,0.9l-0.9-0.4l-29.8-16.7
		c-14.9-8.3-28.5-15.4-38.2-20.6l-11.4-6.1c-1.3-0.9-3.1-1.3-3.9-2.6c1.3,0.4,3.1,0.9,4.4,1.8c2.6,1.3,7,3.1,11.8,5.7
		c10.1,4.8,23.7,11.8,38.6,20.2c11,6.1,21.1,11.8,29.4,17.1l-1.3,0.4c3.1-7.5,5.7-14,7.5-18.4C898.3,548.2,899.2,545.5,900.5,543.4
		L900.5,543.4z"/>
	<path class="st2" d="M935.6,615.3c-1.3,0.4-3.1,0.9-4.4,1.3l-11.4,3.1l-37.3,9.2c-14.9,3.5-28.1,6.6-38.2,8.3l-11.4,2.2
		c-1.3,0.4-3.1,0.4-4.4,0.4c1.3-0.4,3.1-0.9,4.4-1.3l11.4-3.1l37.7-9.2c14.9-3.5,28.1-6.6,38.2-8.3c4.8-0.9,8.8-1.8,11.4-2.2
		C933,615.3,934.3,615.3,935.6,615.3z"/>
	<path class="st2" d="M939.1,622.8c-1.3,0.9-2.6,1.3-3.9,2.2c-2.6,1.3-6.6,2.6-11.8,4.8c-10.1,3.9-23.7,8.8-39,14
		s-29.4,9.7-39.5,12.7c-5.3,1.8-9.2,2.6-12.3,3.5c-1.3,0.4-3.1,0.9-4.4,0.9c1.3-0.9,3.1-1.3,4.4-1.8l11.8-3.9l39-13.6l39-13.6
		l11.8-3.9C936.5,623.2,937.8,622.8,939.1,622.8z"/>
	<path class="st2" d="M837.8,539.4c-0.4-0.4,2.2-4.4,6.1-9.2c3.9-4.8,7.9-8.3,8.3-7.9c-1.3,3.5-3.5,6.6-6.6,9.2
		C841.8,536.3,838.2,539.8,837.8,539.4L837.8,539.4z"/>
	<path class="st2" d="M863.2,525.8c-2.6,3.1-5.7,6.1-9.2,8.8c-3.1,3.1-6.1,5.7-9.7,8.3c1.8-3.9,4.8-7.5,7.9-9.7
		C855.8,529.8,859.3,527.6,863.2,525.8z"/>
	<path class="st0" d="M782.1,549.9c0,0-25.9,21.5-29,38.2c-2.6,15.8-8.8,164.9-6.6,186s19.3,57.5,47.4,48.3
		c38.6-12.7,167.1-88.6,167.1-88.6L937.4,689L826,733.3l8.3-118C834.7,615.7,818.5,547.7,782.1,549.9L782.1,549.9z"/>
	<path class="st2" d="M828.6,626.7v29c-0.4,18.9-0.9,45.6-1.3,77.2L826,732l111.4-44.7l0.9-0.4l0.4,0.9l2.6,4.4l21.5,40.4l0.4,0.9
		l-0.9,0.4c-46.1,26.3-86.9,48.7-116.2,64c-14.9,7.9-26.8,13.6-35.1,17.5c-3.9,1.8-7.5,3.5-9.7,4.4l-2.6,0.9
		c-0.4,0.4-0.9,0.4-0.9,0.4c0.4,0,0.4-0.4,0.9-0.4l2.6-1.3c2.2-0.9,5.3-2.6,9.2-4.8c8.3-3.9,19.7-10.5,34.7-18
		c29.4-15.8,69.7-38.6,115.8-64.5l-0.4,1.3c-7-13.2-14-26.3-21.5-40.4l-2.6-4.4l1.3,0.4l-111.4,44.3l-1.3,0.4v-1.3
		c0.9-32,1.3-58.8,1.8-77.2c0.4-9.2,0.4-16.2,0.9-21.5c0-2.2,0-4.4,0.4-5.7C828.2,628,828.6,627.6,828.6,626.7L828.6,626.7z"/>
	<path class="st2" d="M826.8,615.3c-0.4,0-1.8-3.9-5.7-9.7c-10.1-14.9-27.6-23.7-45.6-23.2c-7,0-11,1.3-11,0.9c3.5-1.8,7-2.6,11-2.6
		c18.9-1.3,37.3,7.9,46.9,23.7C824.6,607.8,826.4,611.3,826.8,615.3L826.8,615.3z"/>
	<path class="st2" d="M826.4,689.9c-3.9,0.4-7.9,0-11.8-0.4c-7.5-0.4-17.5-1.8-28.5-3.1c-11-1.3-21.1-3.1-28.1-4.4
		c-3.9-0.4-7.9-1.3-11.4-2.6c3.9,0,7.9,0.4,11.8,1.3l28.5,3.9l28.5,3.5C818.9,688.6,822.9,689,826.4,689.9L826.4,689.9z"/>
	<path class="st2" d="M821.1,678.9c-12.3-0.4-24.1-1.8-36.4-3.9c-12.3-1.3-24.1-3.5-36-6.1c12.3,0.4,24.1,1.8,36.4,3.9
		C797.5,674.1,809.3,675.8,821.1,678.9z"/>
	<path class="st2" d="M798.3,766.6c1.8-7.5,5.3-14.5,10.5-20.2c4.4-6.1,10.5-11,17.5-14c-5.7,4.8-10.5,10.1-15.8,15.8
		C806.2,753.9,801.8,760.1,798.3,766.6L798.3,766.6z"/>
	<path class="st2" d="M878.6,777.6c-1.3-2.6-2.6-5.3-3.1-8.3c-2.2-7-3.5-14-4.8-21.1c-0.9-7-1.8-14.5-1.8-21.5c0-3.1,0-5.7,0.4-8.8
		c0.9,0,0.9,13.6,3.5,30.3C875.5,764.9,879,777.2,878.6,777.6L878.6,777.6z"/>
	<path class="st2" d="M885.2,775c-1.3-2.6-2.2-5.7-2.2-8.8c-1.3-5.3-2.2-13.2-3.5-21.5c-1.3-8.3-1.3-16.2-1.3-21.5
		c0-3.1,0-5.7,0.4-8.8c0.4,0,1.3,13.6,3.1,30.3C883.4,761.4,886.1,774.5,885.2,775z"/>
	<path class="st9" d="M1149.7,649.1c0,0-20.2-10.5-47.8,5.7l-13.2,5.3l4.4,16.2L1149.7,649.1z"/>
	<path class="st0" d="M1103.2,685.5c4.8-9.7,11.8-18,21.1-23.7c1.8-0.9,3.5-1.8,5.7-2.2c6.6-2.2,13.2-3.5,19.7-3.5v-7
		c-13.6-4.4-28.1-1.3-38.6,8.3c-21.5,18-17.1,29.4-17.1,29.4L1103.2,685.5"/>
	<path class="st0" d="M1020.3,656.5c0,0,46.1-17.1,54.8-16.7c5.3,0.4,7.9,0,12.3,11s8.8,27.2,8.8,27.2l-127.6,64l-0.4-25l20.2-48.7
		L1020.3,656.5z"/>
	<path class="st9" d="M990.5,681.5l64.9-21.5c0,0,10.5-18,21.1-16.7c10.5,1.3,13.6,16.2,13.6,16.2s-4.8-24.1-16.7-21.9
		c-8.8,1.8-53.1,18.9-53.1,18.9l-29,24.6"/>
	<path class="st0" d="M1095.7,678l7.5,7.5l-125,64l-10.1-7.9L1095.7,678z"/>
	<path class="st5" d="M1024.2,653l-33.8,28.5l28.5-9.2c-0.4,7.5-3.9,14-9.7,18.9c0,0,3.5,10.5-3.5,14.9c0,0,2.2,6.1-7.9,12.7
		c-8.3,4.8-17.1,8.3-26.3,10.5L951,732c-7-7.9-11-18-11.4-28.1c-0.4-17.1,2.2-19.3,2.2-19.3c0.9-2.2,19.3-25.9,23.7-26.8
		c4.4-0.9,25,4.8,25,4.8l16.2-7c0,0,10.1-5.3,12.3-4.8C1019,650.4,1023.8,650.8,1024.2,653L1024.2,653z"/>
	<path class="st6" d="M990.5,662.2c-3.1,2.2-6.6,3.9-10.5,5.3c-3.5,1.8-7.5,2.6-11.4,3.1c3.1-2.2,6.6-3.9,10.5-5.3
		C983,663.5,986.5,662.7,990.5,662.2z"/>
	<path class="st6" d="M1009.3,690.7c0.4,0.4-2.6,2.6-6.6,4.8c-3.9,2.2-7.5,3.5-7.9,2.6c-0.4-0.9,2.6-2.6,7-4.8
		S1008.9,690.3,1009.3,690.7z"/>
	<path class="st6" d="M994.4,711.8c-0.4-0.4,2.2-2.2,5.3-3.9c3.1-1.8,5.7-2.2,6.1-1.8c0.4,0.4-1.8,2.2-5.3,3.9
		C997,711.8,994.8,712.2,994.4,711.8z"/>
	<path class="st2" d="M1103.2,685.5c0,0-0.9-0.4-2.2-2.2l-5.7-6.1c-2.2-8.3-5.3-16.2-9.2-24.1c-1.3-2.2-3.1-4.4-4.8-6.6
		c-1.8-1.8-4.8-2.6-7-2.2c-5.7,2.2-10.5,6.1-14,11.4c-0.9,1.3-2.2,2.6-3.1,4.4l-0.4,0.4h-0.4c-18,6.1-34.2,11.4-46.1,15.4l-14,4.4
		l-5.3,1.3c1.8-0.9,3.1-1.8,4.8-2.2l13.6-4.8c11.4-3.9,27.6-9.7,45.6-15.8l-0.4,0.4c0.9-1.3,2.2-3.1,3.1-4.4
		c3.9-5.7,9.2-9.7,15.4-11.8c0.9,0,1.8-0.4,2.6-0.4s1.8,0,2.6,0.4c0.9,0.4,1.3,0.9,2.2,0.9l1.8,1.3c2.2,2.2,3.5,4.4,5.3,7
		c3.9,7.9,7,16.2,8.8,24.6v-0.4l5.3,6.6C1102.8,684.6,1103.2,685.5,1103.2,685.5L1103.2,685.5z"/>
	<path class="st2" d="M1095.3,675.8c-1.3,1.3-3.1,2.2-4.8,3.1l-13.6,7l-45.2,23.2L987,732.4l-13.6,7c-1.8,0.9-3.5,1.8-5.3,2.2
		c1.3-1.3,3.1-2.2,4.8-3.1c3.1-1.8,7.9-4.4,13.2-7.9c11.4-6.1,27.2-14.9,44.7-24.1c17.5-9.2,33.8-17.1,45.2-22.8
		c5.7-2.6,10.5-4.8,14-6.6L1095.3,675.8L1095.3,675.8z"/>
	<path class="st5" d="M1035.2,693.4c0,0-6.1,0.4-5.3,6.6l0.9,5.7c0,0-7.9-12.3-8.8-14.9c-2.6-7.9-9.7-3.9-8.3,3.1
		c0.4,1.8,0.9,9.2,0.9,9.2s-1.8-2.6-5.7,0.9c-1.3,3.1-2.6,6.6-3.1,10.1l-7.9,5.3c0,3.5,0,7,0.9,10.1c0.9,3.1,2.6,5.7,5.3,7.5
		c1.3,0.9,15.8,12.3,19.7,11.4c3.9-0.9,7.5-4.8,7-6.1s6.6,0,9.2-3.1c2.6-3.1,3.1-3.5,3.5-4.4c0.4-0.9,7.5-3.1,9.7-5.7
		c2.2-2.6,1.8-4.4,1.8-4.4s6.6-1.8,7.9-6.1c1.3-2.6,1.8-5.3,1.3-8.3l-0.9-4.4l-5.3,2.6l-11-5.3C1047,703,1038.7,691.6,1035.2,693.4
		L1035.2,693.4z"/>
	<path class="st6" d="M1049.2,721.9c-9.2-3.5-16.7-10.5-21.1-19.3c0.4-0.4,4.4,4.8,10.1,10.1
		C1042.2,715.3,1045.7,718.4,1049.2,721.9L1049.2,721.9z"/>
	<path class="st6" d="M1033.9,728c-4.8-2.6-8.8-6.6-11.4-11.4c-3.5-3.9-6.1-8.8-7.9-14c3.5,3.9,6.6,8.3,9.7,12.7
		C1027.7,719.7,1030.8,723.6,1033.9,728L1033.9,728z"/>
	<path class="st6" d="M1026,736.4c0,0.4-1.8,0-4.8-0.9c-3.9-1.3-7-3.5-9.7-6.6c-2.6-3.1-4.4-6.6-5.3-10.5c-0.4-3.1-0.4-4.8,0-4.8
		c1.8,4.8,3.9,9.7,7,14C1016.8,731.1,1021.2,734.2,1026,736.4z"/>
	<path class="st0" d="M2793.4,1314.1v37.7h-837v-37.7H2793.4z"/>
	<path class="st2" d="M2022.2,1351.8v503.6H1995v-503.6H2022.2z"/>
	<path class="st2" d="M2713.5,1351.8v503.6h-27.2v-503.6H2713.5z"/>
	<path class="st0" d="M2686.3,1471.1v207.5h-664.6v-207.5H2686.3z"/>
	<path class="st0" d="M2686.3,1389.1v29.4h-664.1v-29.4H2686.3L2686.3,1389.1z"/>
	<path class="st0" d="M2190.2,1248.7h327.7c3.9,0,7.5,3.5,7.5,7.5v125.5c0,3.9-3.5,7.5-7.5,7.5h-327.7c-3.9,0-7.5-3.5-7.5-7.5
		v-125.5C2182.7,1251.8,2186.2,1248.7,2190.2,1248.7L2190.2,1248.7z"/>
	<path class="st0" d="M2190.2,1248.7h327.7c3.9,0,7.5,3.5,7.5,7.5v125.5c0,3.9-3.5,7.5-7.5,7.5h-327.7c-3.9,0-7.5-3.5-7.5-7.5
		v-125.5C2182.7,1251.8,2186.2,1248.7,2190.2,1248.7L2190.2,1248.7z"/>
	<path class="st7" d="M2190.2,1248.7h327.7c3.9,0,7.5,3.5,7.5,7.5v125.5c0,3.9-3.5,7.5-7.5,7.5h-327.7c-3.9,0-7.5-3.5-7.5-7.5
		v-125.5C2182.7,1251.8,2186.2,1248.7,2190.2,1248.7L2190.2,1248.7z"/>
	<path class="st0" d="M2493.3,1610.6h-283.4c-22.4,0-40.4-18-40.4-39.9c0-22.4,18-39.9,39.9-39.9h283.4c22.4,0,40.4,18,40.4,39.9
		C2533.7,1592.6,2515.7,1610.6,2493.3,1610.6z"/>
	<path class="st7" d="M2493.3,1610.6h-283.4c-22.4,0-40.4-18-40.4-39.9c0-22.4,18-39.9,39.9-39.9h283.4c22.4,0,40.4,18,40.4,39.9
		C2533.7,1592.6,2515.7,1610.6,2493.3,1610.6z"/>
	<path class="st4" d="M2224,1855.4h-21.5v-619.8c0-6.1,4.8-11,11-11c6.1,0,11,4.8,11,10.5v620.3L2224,1855.4z"/>
	<path class="st2" d="M2224,1855.4v-50.9c0-32.9,0-80.3-0.4-139.1c-0.4-58.8,0-128.1-0.4-205.7v-218.5c0-2.6,0-5.3-0.4-7.9
		c-0.4-2.6-2.2-4.4-4.4-5.7c-4.4-2.6-10.1-1.3-13.2,3.1c-1.3,1.8-1.8,3.9-1.8,6.1v393.5c-0.4,110.1-0.4,190.4-0.4,225l-0.4-0.4h16.2
		h-15.8v-0.4c0-34.7-0.4-115.4-0.4-225V1236c0-2.6,0.4-5.3,1.8-7.5c3.5-5.7,11-7,16.2-3.5c2.6,1.8,4.4,4.4,5.3,7
		c0.4,2.6,0.4,5.7,0.4,8.3v219.3c0,77.6-0.4,147.4-0.4,206.2s-0.4,105.7-0.4,138.6v47.4C2225.3,1854.1,2224,1855.4,2224,1855.4
		L2224,1855.4z"/>
	<path class="st4" d="M2505.2,1855.4h-21.5v-619.8c0-6.1,4.8-11,11-11s11,4.8,11,10.5L2505.2,1855.4L2505.2,1855.4z"/>
	<path class="st2" d="M2505.2,1855.4v-50.9c0-32.9,0-80.3-0.4-139.1c-0.4-58.8,0-128.1-0.4-205.7v-218.5c0-2.6,0-5.3-0.4-7.9
		c-0.4-2.6-2.2-4.4-4.4-5.7c-4.4-2.6-10.1-1.3-13.2,3.1c-1.3,1.8-1.8,3.9-1.8,6.1v393.5c-0.4,110.1-0.4,190.4-0.4,225l-0.4-0.4h16.2
		h-16.2v-0.4c0-34.7-0.4-115.4-0.4-225V1236c0-2.6,0.4-5.3,1.8-7.5c3.5-5.7,11-7,16.2-3.5c2.6,1.8,4.4,4.4,5.3,7
		c0.4,2.6,0.4,5.7,0.4,8.3v219.3c0,77.6-0.4,147.4-0.4,206.2s-0.4,105.7-0.4,138.6v47.4C2506,1854.1,2505.2,1855.4,2505.2,1855.4
		L2505.2,1855.4z"/>
	<path class="st0" d="M1812.9,1314.1v37.7H976v-37.7H1812.9z"/>
	<path class="st2" d="M1041.8,1351.8v503.6h-27.2v-503.6H1041.8z"/>
	<path class="st2" d="M1733.1,1351.8v503.6h-27.2v-503.6H1733.1z"/>
	<path class="st0" d="M1705.9,1471.1v207.5h-664.6v-207.5H1705.9z"/>
	<path class="st0" d="M1705.9,1389.1v29.4h-664.1v-29.4H1705.9z"/>
	<path class="st0" d="M1210.2,1248.7h327.7c3.9,0,7.5,3.5,7.5,7.5v125.5c0,3.9-3.5,7.5-7.5,7.5h-327.7c-3.9,0-7.5-3.5-7.5-7.5
		v-125.5C1202.3,1251.8,1205.8,1248.7,1210.2,1248.7z"/>
	<path class="st0" d="M1210.2,1248.7h327.7c3.9,0,7.5,3.5,7.5,7.5v125.5c0,3.9-3.5,7.5-7.5,7.5h-327.7c-3.9,0-7.5-3.5-7.5-7.5
		v-125.5C1202.3,1251.8,1205.8,1248.7,1210.2,1248.7z"/>
	<path class="st7" d="M1210.2,1248.7h327.7c3.9,0,7.5,3.5,7.5,7.5v125.5c0,3.9-3.5,7.5-7.5,7.5h-327.7c-3.9,0-7.5-3.5-7.5-7.5
		v-125.5C1202.3,1251.8,1205.8,1248.7,1210.2,1248.7z"/>
	<path class="st0" d="M1513.3,1610.6h-283.8c-21.9,0-39.9-18-39.9-39.9c0-22.4,18-39.9,39.9-39.9h283.4c21.9,0,39.9,18,39.9,39.9
		C1553.7,1592.6,1535.7,1610.6,1513.3,1610.6z"/>
	<path class="st7" d="M1513.3,1610.6h-283.8c-21.9,0-39.9-18-39.9-39.9c0-22.4,18-39.9,39.9-39.9h283.4c21.9,0,39.9,18,39.9,39.9
		C1553.7,1592.6,1535.7,1610.6,1513.3,1610.6z"/>
	<path class="st4" d="M1243.6,1855.4h-21.5v-619.8c0-6.1,4.8-11,10.5-11c6.1,0,11,4.8,11,11V1855.4z"/>
	<path class="st2" d="M1243.6,1855.4v-50.9c0-32.9,0-80.3-0.4-139.1c-0.4-58.8,0-128.1-0.4-205.7v-218.5c0-2.6,0-5.3-0.4-7.9
		c-0.4-2.6-2.2-4.4-4.4-5.7c-4.4-2.6-10.1-1.3-13.2,3.1c-1.3,1.8-1.8,3.9-1.8,6.1v393.5c-0.4,110.1-0.4,190.4-0.4,225l-0.4-0.4h16.2
		h-16.7v-0.4c0-34.7-0.4-115.4-0.4-225v-393c0-2.6,0.4-5.3,1.8-7.5c3.5-5.7,11-7,16.7-3.5c2.6,1.8,4.4,4.4,5.3,7
		c0.4,2.6,0.4,5.7,0.4,8.3v219.3c0,77.6,0,147.4-0.4,206.2c-0.4,58.8-0.4,105.7-0.4,138.6v47.4
		C1244.4,1854.5,1243.6,1855.4,1243.6,1855.4L1243.6,1855.4z"/>
	<path class="st4" d="M1524.7,1855.4h-21.5v-619.8c0-6.1,4.8-11,10.5-11c6.1,0,11,4.8,11,11V1855.4z"/>
	<path class="st2" d="M1524.7,1855.4v-50.9c0-32.9,0-80.3-0.4-139.1c-0.4-58.8,0-128.1-0.4-205.7v-218.5c0-2.6,0-5.3-0.4-7.9
		c-0.4-2.6-2.2-4.4-4.4-5.7c-4.4-2.6-10.1-1.3-13.2,3.1c-1.3,1.8-1.8,3.9-1.8,6.1v393.5c-0.4,110.1-0.4,190.4-0.4,225l-0.4-0.4h16.2
		h-16.7v-0.4c0-34.7-0.4-115.4-0.4-225v-393c0-2.6,0.4-5.3,1.8-7.5c3.5-5.3,11-7,16.2-3.5c2.6,1.8,4.4,4.4,5.3,7.5
		c0.4,2.6,0.4,5.7,0.4,8.3v219.3c0,77.6-0.4,147.4-0.4,206.2s-0.4,105.7-0.4,138.6v47.4C1525.2,1854.9,1524.7,1855.4,1524.7,1855.4z
		"/>
	<path class="st0" d="M538.2,198.6c58.8,9.7,98.3,64.9,89,123.3s-64.9,98.3-123.3,89s-98.3-64.9-89-123.3S479.4,189.4,538.2,198.6z"
		/>
	<path class="st0" d="M619.4,303.8c0,54-43.4,97.4-97.4,97.4s-97.4-43.4-97.4-97.4s43.4-97.4,97.4-97.4S619.4,249.9,619.4,303.8z"/>
	<path class="st10" d="M619.4,311.3c0,54-43.4,97.4-97.4,97.4s-97.4-43.4-97.4-97.4s43.4-97.4,97.4-97.4
		C575.9,213.9,619.4,257.3,619.4,311.3z"/>
	<path class="st2" d="M423.7,297.7v9.7c0,1.3,0,2.6,0.4,3.9c0,1.3,0.4,3.1,0.4,4.8s0.4,3.5,0.9,5.3c1.8,9.2,4.8,18.4,9.2,26.8
		c5.7,11,13.6,21.1,22.8,29.4l3.9,3.5c1.3,0.9,3.1,2.2,4.4,3.1c1.3,0.9,3.1,2.2,4.4,3.1l4.8,2.6l2.6,1.3l2.6,1.3l5.3,2.2
		c1.8,0.9,3.9,1.3,5.7,1.8c1.8,0.9,3.9,1.3,5.7,1.8c3.9,0.9,7.9,1.8,12.3,2.2c2.2,0,4.4,0.4,6.1,0.4h10.1l3.1-0.4
		c2.2-0.4,4.4-0.4,6.6-0.4c4.4-0.9,8.8-1.8,13.2-3.1l3.5-0.9l1.8-0.4l1.8-0.4l6.6-2.6c2.2-0.9,4.4-2.2,6.1-3.1
		c0.9-0.4,2.2-0.9,3.1-1.8l3.1-1.8c3.9-2.6,7.9-5.7,11.8-8.8l5.3-5.3l1.3-1.3l1.3-1.3l2.6-2.6l2.2-2.6l2.2-3.1l2.2-3.1l0.9-1.3
		c0.4-0.4,0.4-0.9,0.9-1.8l3.9-6.6c1.3-2.2,2.2-4.8,3.1-7c3.9-9.7,6.1-19.7,7-30.3c0.4-10.5-0.4-21.1-3.1-31.1
		c-0.9-2.6-1.3-4.8-2.2-7.5l-2.6-7l-0.9-1.8l-0.9-1.8l-1.8-3.5l-1.8-3.5l-2.2-3.1l-2.2-3.1l-0.9-1.8l-1.3-1.3l-4.4-5.3
		c-3.1-3.5-6.6-7-10.5-10.1l-2.6-2.2c-0.9-0.9-1.8-1.3-2.6-2.2c-2.2-1.3-3.9-2.6-5.7-3.9l-6.6-3.5l-1.3-0.9l-1.8-0.9l-3.1-1.3
		c-3.9-1.8-8.3-3.5-12.7-4.8l-6.6-1.3l-3.1-0.9c-0.9,0-2.2-0.4-3.1-0.4l-6.6-0.9H522c-3.9,0-8.3,0-12.3,0.4c-2.2,0-3.9,0.4-6.1,0.9
		c-2.2,0.4-3.9,0.4-5.7,1.3l-5.7,2.2l-2.6,0.9l-2.6,0.9l-5.3,2.2c-1.8,0.9-3.5,1.8-4.8,2.6c-1.3,0.9-3.1,1.8-4.8,2.6l-4.4,3.1
		c-10.5,6.6-19.3,15.4-26.8,25.4c-5.3,7.9-9.7,16.2-12.7,25.4c-0.4,1.8-1.3,3.5-1.8,5.3s-0.9,3.1-0.9,4.8c-0.4,1.3-0.4,2.6-0.9,3.9
		c-0.4,1.3-0.4,2.2-0.4,3.5l-0.4,4.4V296c0-0.9,0.4-2.6,0.4-4.8c0-0.9,0-2.2,0.4-3.5s0.4-2.6,0.9-3.9c0.4-1.3,0.4-3.1,0.9-4.8
		s0.9-3.5,1.8-5.3c2.6-9.2,7-17.5,12.3-25.4c7-10.5,16.2-19.3,26.8-26.3l4.4-3.1c1.8-0.9,3.1-1.8,4.8-2.6c1.8-0.9,3.1-1.8,4.8-2.6
		l5.3-2.2l2.6-0.9l2.6-0.9l5.7-1.8c1.8-0.4,3.9-0.9,5.7-1.3c2.2-0.4,3.9-0.9,6.1-0.9c3.9-0.4,8.3-0.9,12.3-0.4h6.6l6.6,0.9l3.5,0.4
		l3.1,0.9l6.6,1.3c4.4,1.3,8.8,2.6,12.7,4.8l3.1,1.3l1.8,0.9l1.8,0.9l6.1,3.5c2.2,1.3,3.9,2.6,5.7,3.9c0.9,0.9,2.2,1.3,3.1,2.2
		l2.6,2.2c3.9,3.1,7.5,6.6,10.5,10.1c1.8,1.8,3.1,3.9,4.8,5.7l1.3,1.3l0.9,1.8l2.2,3.1l2.2,3.1l1.8,3.5l1.8,3.5l0.9,1.8l0.9,1.8
		l3.1,7c0.9,2.6,1.3,4.8,2.2,7.5c2.6,10.1,3.5,20.6,3.1,31.6c-0.9,10.5-3.1,21.1-7,30.7c-0.9,2.6-2.2,4.8-3.1,7l-3.9,6.6
		c-0.4,0.4-0.4,1.3-0.9,1.8l-0.9,1.8l-2.2,3.1l-2.2,3.1l-2.6,3.1l-2.6,2.6l-1.3,1.3l-1.3,1.3l-5.3,5.3c-3.9,3.1-7.9,6.1-11.8,8.8
		l-3.1,1.8c-0.9,0.9-2.2,1.3-3.1,1.8c-2.2,0.9-4.4,2.2-6.6,3.1l-6.6,2.6L554,396l-1.8,0.4l-3.5,0.9c-4.4,1.3-8.8,2.2-13.2,3.1
		c-2.2,0.4-4.4,0.4-6.6,0.4l-3.5,0.4h-10.1c-2.2,0-4.4-0.4-6.6-0.9c-3.9-0.4-8.3-1.3-12.3-2.2c-2.2-0.4-3.9-0.9-5.7-1.8
		c-1.8-0.9-3.9-1.3-5.7-2.2l-5.3-2.2l-2.6-1.3l-2.6-1.3l-4.8-2.6c-1.8-0.9-3.1-2.2-4.4-3.1c-1.3-0.9-3.1-2.2-4.4-3.1l-3.9-3.5
		c-9.2-8.3-17.1-18.4-22.8-29.4c-4.4-8.3-7.5-17.5-8.8-26.8c-0.4-1.8-0.9-3.5-0.9-5.3l-0.4-4.8c0-1.3-0.4-3.1-0.4-3.9L423.7,297.7
		L423.7,297.7z"/>
	<path class="st2" d="M566.3,306.5h-45.6V253c0-1.3,0-2.6,0.4-3.9c0,1.3,0.4,2.6,0.4,3.9v53.5l-0.4-0.4h41.7
		C563.6,305.6,565,306,566.3,306.5z"/>
	<path class="st2" d="M521.5,221.4c0.4,2.6,0.9,5.3,0.4,8.3c0,2.6,0,5.7-0.4,8.3c-0.4-2.6-0.9-5.3-0.4-8.3
		C521.1,227.1,521.1,224,521.5,221.4z"/>
	<path class="st2" d="M566.3,234.5c-1.3,2.2-3.1,4.4-5.3,6.1c-1.8,2.2-3.9,3.9-6.1,5.3c1.3-2.2,3.1-4.4,5.3-6.1
		C561.9,238,563.6,236.3,566.3,234.5z"/>
	<path class="st2" d="M592.2,263.1c-2.2,1.8-4.4,3.1-6.6,4.4c-2.2,1.8-4.4,3.1-7,3.9c1.8-2.2,3.9-3.5,6.6-4.8
		C586.9,264.8,589.5,263.9,592.2,263.1z"/>
	<path class="st2" d="M607.5,305.6c-7.5,0.9-14.9,0.9-22.4,0C592.6,304.7,600.1,304.7,607.5,305.6z"/>
	<path class="st2" d="M451.8,303.8c-7,0.9-14,0.9-21.1,0C437.7,303,444.8,303,451.8,303.8z"/>
	<path class="st2" d="M463.2,335.4c-2.2,2.6-5.3,5.3-7.9,7.5c-2.6,2.2-5.7,4.4-8.8,6.1c2.2-2.6,4.8-5.3,7.9-7.5
		C457.1,339.4,459.7,337.2,463.2,335.4z"/>
	<path class="st2" d="M489.9,360c-1.8,3.1-3.5,6.6-5.3,9.2c-1.8,3.1-3.5,6.1-5.7,9.2c0.9-3.5,2.6-7,4.8-10.1
		C485.1,365.3,487.3,362.2,489.9,360z"/>
	<path class="st2" d="M521.5,391.1c-0.4-3.5-0.9-7.5-0.4-11.4c0-3.9,0-7.5,0.4-11.4c0.4,3.5,0.9,7.5,0.4,11.4
		C522.4,383.7,522.4,387.6,521.5,391.1z"/>
	<path class="st2" d="M569.8,376.2c-3.5-1.8-6.6-3.5-9.2-6.1c-3.1-2.2-5.7-5.3-7.5-8.3c3.1,2.2,5.7,4.8,8.3,7.5
		C565.8,373.2,569.8,375.8,569.8,376.2L569.8,376.2z"/>
	<path class="st2" d="M592.6,351.7c-2.6-1.8-5.3-3.9-7.5-6.6c-2.6-2.2-4.4-4.8-6.6-7.5c2.6,1.8,5.3,3.9,7.5,6.6
		C588.6,346.4,590.8,349,592.6,351.7z"/>
	<path class="st2" d="M461.9,274c-2.6-1.8-4.8-3.5-6.6-5.7c-2.2-1.8-3.9-3.9-5.7-6.6c2.6,1.8,4.8,3.5,6.6,5.7
		C458.4,269.2,460.6,271.4,461.9,274z"/>
	<path class="st2" d="M489.9,244.2c-2.6-1.3-4.4-3.5-6.6-5.7c-2.2-1.8-3.9-3.9-5.7-6.6c2.6,1.3,4.4,3.5,6.6,5.7
		S488.2,242,489.9,244.2z"/>
	<path class="st4" d="M434.7,304.7c0-51.3,39.9-93.9,91.2-96.9h-5.7c-53.5,0-97.4,43.4-97.4,97.4c0,53.5,43.4,97.4,97.4,97.4h5.7
		C474.6,399,434.7,356,434.7,304.7z"/>
	<path class="st2" d="M2862.2,557.8v955.8h-107V557.8H2862.2z"/>
	<path class="st3" d="M3200,557.8v955.8h-338.6V557.8H3200z"/>
	<path class="st2" d="M3184.2,576.7v232.1H2889V576.7L3184.2,576.7L3184.2,576.7z"/>
	<path class="st2" d="M3184.2,833.3v232.1H2889V833.3L3184.2,833.3L3184.2,833.3z"/>
	<path class="st2" d="M3184.2,1216.3v-34.7c0-22.4-0.4-54.4-0.4-93.9l0.9,0.9l-295.2,0.4c-0.9,0.9,1.3-1.3,0.9-1.3v128.5l-0.9-0.9
		l211.4,0.4l61.4,0.4h22.4h-21.9l-61,0.4l-212.3,0.4h-0.9v-129l1.3-1.3l295.2,0.4h0.9v0.9c0,39.9-0.4,71.9-0.4,94.3v32
		C3185.5,1216.3,3184.2,1216.3,3184.2,1216.3L3184.2,1216.3z"/>
	<path class="st2" d="M3184.2,1479.9v-17.5c0-11.4,0-28.5-0.4-50c0-43-0.4-104.4-0.4-178.1l0.9,0.9H2889l1.3-1.3v245.6l-0.9-0.9
		l213.2,0.4l60.5,0.4h16.2L3184.2,1479.9l-0.9-0.4h-19.7l-60.1,0.4l-214.1,0.4h-0.9v-247.8H3186v0.9c0,74.1-0.4,135.5-0.4,178.5
		v62.7C3184.2,1478.6,3184.2,1479.9,3184.2,1479.9L3184.2,1479.9z"/>
	<path class="st2" d="M3046,1145.2c0,4.4-3.5,7.5-7.5,7.5c-4.4,0-7.5-3.5-7.5-7.5c0-4.4,3.5-7.5,7.5-7.5S3046,1141.2,3046,1145.2z"
		/>
	<path class="st2" d="M3046,1296.5c0,3.9-3.5,7.5-7.5,7.5s-7.5-3.5-7.5-7.5c0-3.9,3.5-7.5,7.5-7.5S3046,1292.6,3046,1296.5z"/>
	<path class="st10" d="M2946,992.1c0,0-18.9,14.5-0.9,33.8c0.4,0.4,0.9,0.4,1.3,0.4l166.7-0.9c8.3-9.7,9.2-23.7,2.2-34.2L2946,992.1
		L2946,992.1z"/>
	<path class="st4" d="M2953.5,1026.8h-1.3c-0.9-0.4-2.2-0.9-2.6-1.8c-1.3-1.3-1.8-3.1-1.8-4.8c0-2.2,1.3-4.4,3.1-5.7v0.4
		c-2.6-0.4-4.4-2.6-4.4-5.3c0-3.1,2.2-5.3,4.8-5.7v0.4c-1.8-0.9-3.1-3.1-3.5-4.8c0-1.8,0.4-3.1,1.3-4.4c0.4-0.9,1.3-1.3,2.2-1.8
		c0.4,0,0.4-0.4,0.9-0.4h0.9l-0.9,0.4c-0.9,0.4-1.8,1.3-2.2,2.2c-0.9,1.3-1.3,2.6-0.9,4.4c0.4,1.8,1.3,3.5,3.1,4.4l0.9,0.4h-0.9
		c-2.6,0.4-4.8,3.1-4.4,5.7c0.4,2.2,1.8,3.9,3.9,4.4h0.4l-0.4,0.4c-1.8,1.3-2.6,3.1-3.1,5.3c0,1.8,0.4,3.1,1.8,4.4
		C2951.3,1025.9,2952.1,1026.3,2953.5,1026.8C2952.6,1026.3,2953,1026.3,2953.5,1026.8L2953.5,1026.8z"/>
	<path class="st4" d="M2953.5,1021.1c-0.4-0.4-0.4-0.4-0.4-0.9c0-0.4,0.4-0.9,0.9-1.3c0.4-0.4,1.3-0.4,2.2-0.4h3.5
		c0.4,0,0.9,0.4,1.3,0.4c0.4,0.4,0.4,0.4,0.4,0.9c0,0.4,0,0.9-0.4,0.9c-0.4,0.4-1.3,0.4-1.8,0.4h-3.1
		C2955.2,1021.9,2954.3,1021.5,2953.5,1021.1c0.9,0,1.8,0.4,2.6,0.4h3.1c0.4,0,0.9,0,1.8-0.4c0.4,0,0.4-0.4,0-0.9
		c-0.4,0-0.9-0.4-1.3-0.4h-3.5C2954.8,1019.7,2953.5,1020.2,2953.5,1021.1C2953,1020.6,2953,1021.1,2953.5,1021.1L2953.5,1021.1z"/>
	<path class="st4" d="M2953,1009.7c-0.4-0.4-0.4-0.4-0.4-0.9c0-0.4,0.4-0.9,0.9-1.3c0.4-0.4,1.3-0.4,2.2-0.4h3.5
		c0.4,0,0.9,0.4,1.3,0.4c0.4,0.4,0.4,0.4,0.4,0.9c0,0.4,0,0.9-0.4,0.9c-0.4,0.4-1.3,0.4-1.8,0.4h-3.1
		C2954.8,1010.5,2953.9,1010.1,2953,1009.7c0.9,0.4,1.8,0.4,2.6,0.4h3.1c0.4,0,0.9,0,1.3-0.4c0.4-0.4,0.4-0.9,0-1.3
		c-0.4,0-0.9-0.4-0.9-0.4h-3.5C2954.8,1007.9,2953.5,1008.3,2953,1009.7C2952.6,1009.2,2952.6,1009.7,2953,1009.7L2953,1009.7z"/>
	<path class="st4" d="M2953,998.7c-0.4-0.4-0.4-0.4-0.4-0.9c0-0.4,0.4-0.9,0.9-1.3c0.4-0.4,1.3-0.4,2.2-0.4h3.5
		c0.4,0,0.9,0.4,1.3,0.4c0.4,0.4,0.4,0.4,0.4,0.9c0,0.4,0,0.9-0.4,0.9c-0.4,0.4-1.3,0.4-1.8,0.4h-3.1
		C2954.8,999.6,2953.9,999.1,2953,998.7c0,0,0.9,0,2.6,0.4h3.1c0.4,0,1.3,0,1.8-0.4c0.4-0.4,0.4-0.9,0-0.9c-0.4-0.4-0.9-0.4-1.3-0.4
		h-3.5C2954.8,997.4,2953.5,997.8,2953,998.7C2953,998.2,2953,998.7,2953,998.7L2953,998.7z"/>
	<path class="st4" d="M3103,991.7h1.3c0.9,0.4,2.2,0.9,2.6,1.8c1.3,1.3,1.8,3.1,1.8,4.8c0,2.2-1.3,4.4-3.1,5.7v-0.4
		c3.1,0.9,4.8,3.9,3.9,7c-0.4,2.2-2.6,3.9-4.8,3.9v-0.4c1.8,0.9,3.1,3.1,3.5,4.8c0,1.8-0.4,3.1-1.3,4.4c-0.4,0.9-1.3,1.3-2.2,1.8
		l-0.9,0.4h-0.4c0,0,0.4,0,0.9-0.4c0.9-0.4,1.8-1.3,2.2-2.2c0.9-1.3,1.3-2.6,0.9-4.4c-0.4-1.8-1.3-3.5-3.1-4.4l-0.9-0.4h0.9
		c2.6-0.4,4.4-2.6,4.4-5.3c0-2.2-1.8-3.9-3.5-4.8h-0.4l0.4-0.4c1.8-1.3,2.6-3.1,3.1-5.3c0-1.8-0.4-3.1-1.8-4.4
		c-0.9-0.9-1.8-1.3-2.6-1.8L3103,991.7L3103,991.7z"/>
	<path class="st4" d="M3103,997.4c0.4,0.4,0.4,0.4,0.4,0.9s-0.4,0.9-0.9,0.9c-0.4,0.4-1.3,0.4-2.2,0.4h-3.5c-0.4,0-0.9-0.4-1.3-0.4
		c-0.4-0.4-0.4-0.4-0.4-0.9s0-0.9,0.4-0.9c0.4-0.4,1.3-0.4,1.8-0.4h3.1C3101.3,996.5,3102.6,996.9,3103,997.4c-0.9,0-1.8,0-2.6-0.4
		h-3.1c-0.4,0-0.9,0-1.3,0.4c-0.4,0-0.4,0.4,0,0.9c0.4,0,0.9,0.4,1.3,0.4h3.5C3101.7,998.7,3103,998.2,3103,997.4
		C3103.5,997.8,3103.5,997.4,3103,997.4L3103,997.4z"/>
	<path class="st4" d="M3103.5,1008.3c0.4,0.4,0.4,0.4,0.4,0.9s-0.4,0.9-0.9,0.9c-0.4,0.4-1.3,0.4-2.2,0.4h-3.5
		c-0.4,0-0.9-0.4-1.3-0.4c-0.4-0.4-0.4-0.4-0.4-0.9s0-0.9,0.4-0.9c0.4-0.4,1.3-0.4,1.8-0.4h3.1
		C3101.7,1007.9,3102.6,1008.3,3103.5,1008.3c-0.9,0-1.8,0-2.6-0.4h-3.1c-0.4,0-0.9,0-1.8,0.4c-0.4,0-0.4,0.4,0,0.9
		c0.4,0,0.9,0.4,1.3,0.4h3.5C3102.2,1009.7,3103.5,1009.2,3103.5,1008.3C3103.9,1009.2,3103.9,1008.8,3103.5,1008.3L3103.5,1008.3z"
		/>
	<path class="st4" d="M3103.5,1019.3c0.4,0.4,0.4,0.4,0.4,0.9s-0.4,0.9-0.9,1.3c-0.4,0.4-1.3,0.4-2.2,0.4h-3.5
		c-0.4,0-0.9-0.4-1.3-0.4c-0.4-0.4-0.4-0.4-0.4-0.9c0-0.4,0-0.9,0.4-0.9c0.4-0.4,1.3-0.4,1.8-0.4h3.1
		C3101.3,1018.4,3102.6,1018.9,3103.5,1019.3c0,0-1.3-0.4-3.1-0.4h-3.1c-0.4,0-0.9,0-1.3,0.4c-0.4,0-0.4,0.4,0,0.9
		c0.4,0,0.9,0.4,0.9,0.4h3.5C3101.7,1021.1,3102.6,1020.6,3103.5,1019.3C3103.5,1019.7,3103.5,1019.3,3103.5,1019.3z"/>
	<path class="st4" d="M3076.3,1007.5c0,0-20.6,0.4-46.5,0.4s-46.5,0-46.5-0.4c0-0.4,20.6-0.4,46.5-0.4S3076.3,1007,3076.3,1007.5z"
		/>
	<path class="st4" d="M3050.4,1013.2c0,0-9.7,0.4-21.9,0.4s-21.9,0-21.9-0.4c0-0.4,9.7-0.4,21.9-0.4S3050.4,1013.2,3050.4,1013.2z"
		/>
	<path class="st10" d="M2971.4,849.1c0,0-17.5,13.6-0.9,31.1c0.4,0.4,0.9,0.4,0.9,0.4l153.5-0.9c7.5-8.8,8.3-21.9,2.2-31.6
		L2971.4,849.1L2971.4,849.1z"/>
	<path class="st4" d="M3090.3,863.6c0,0-19.3,0.4-42.6,0.4c-23.2,0-43,0-43-0.4c0-0.4,19.3-0.4,43-0.4S3090.3,863.1,3090.3,863.6z"
		/>
	<path class="st4" d="M3066.6,868.8c0,0-8.8,0.4-20.2,0.4s-20.2,0-20.2-0.4c0-0.4,8.8-0.4,20.2-0.4S3066.6,868.8,3066.6,868.8z"/>
	<path class="st4" d="M3106.1,879.8c0,0,0.4-1.8,0.9-4.8c0.4-3.5,0.9-7.5,0.9-11.4s-0.4-7.5-0.9-11.4c-0.4-2.6-0.9-4.4-0.9-4.8
		c0,0.4,0.4,0.9,0.4,1.3c0.4,0.9,0.4,1.8,0.9,3.5c0.9,3.5,1.3,7.5,1.3,11.4c0,3.9-0.4,7.5-0.9,11.4c-0.4,1.3-0.4,2.6-0.9,3.5
		C3106.6,878.9,3106.6,879.4,3106.1,879.8L3106.1,879.8z"/>
	<path class="st4" d="M3117.5,848.2c0.4,0.4,0.4,0.9,0.9,0.9l0.9,1.3c0.4,0.4,0.4,1.3,0.9,1.8c0.4,1.8,1.3,3.5,1.3,5.3
		c0.4,2.2,0.4,4.4,0.9,6.6c0,2.2,0,4.4-0.4,6.6l-1.3,5.3c0,0.9-0.4,1.3-0.9,1.8l-0.9,1.3c0,0.4-0.4,0.9-0.9,1.3c0,0,0.9-1.8,1.8-4.4
		c0.4-1.8,0.9-3.5,1.3-4.8c0.4-2.2,0.4-4.4,0.4-6.6s0-4.4-0.4-6.1c-0.4-1.8-0.9-3.5-1.3-4.8C3118.4,850,3117.5,848.2,3117.5,848.2
		L3117.5,848.2z"/>
	<path class="st4" d="M2994.7,879.8c-0.4-0.4-0.4-0.9-0.9-0.9c-0.4-0.4-0.4-0.9-0.9-1.3c-0.4-0.4-0.4-0.9-0.9-1.8
		c-0.4-1.8-1.3-3.1-1.3-4.8c-0.4-2.2-0.4-3.9-0.4-6.1s0.4-3.9,0.9-6.1c0.4-1.8,0.9-3.1,1.8-4.8c0.4-0.4,0.4-1.3,0.9-1.8l0.9-1.3
		l0.9-0.9c0,0-0.9,1.8-1.8,4.4c-0.4,1.3-1.3,3.1-1.3,4.8c-0.4,2.2-0.9,3.9-0.9,6.1s0,3.9,0.4,6.1c0.4,1.8,0.9,3.1,1.3,4.8
		C2993.8,878.1,2994.7,879.8,2994.7,879.8L2994.7,879.8z"/>
	<path class="st4" d="M2978,883.3c0,0-0.4-0.4-0.9-1.3c-0.4-0.4-0.4-0.9-0.9-1.3c-0.4-0.4-0.9-1.3-0.9-1.8c-0.9-1.8-1.3-3.5-1.8-5.3
		c-0.4-2.2-0.9-4.4-0.9-7c0-2.2,0-4.8,0.4-7l1.3-5.3c0.4-0.9,0.4-1.3,0.9-2.2c0.4-0.4,0.4-0.9,0.9-1.3c0.4-0.9,0.9-1.3,0.9-1.3
		s-0.9,1.8-1.8,4.8l-1.3,5.3c-0.4,2.2-0.4,4.4-0.4,7c0,2.2,0.4,4.4,0.9,7c0.4,1.8,0.9,3.5,1.8,5.3
		C2977.2,881.6,2978,883.3,2978,883.3z"/>
	<path class="st11" d="M2917.9,1061.4l-0.4-35.1h19.3l0.9,35.1H2917.9z"/>
	<path class="st4" d="M2935.5,1032.5c-6.1,0.4-11.8,0.4-18,0C2923.6,1032,2929.3,1032,2935.5,1032.5z"/>
	<path class="st4" d="M2935.5,1038.2c-6.1,0.4-11.8,0.4-18,0C2923.6,1037.7,2929.3,1037.7,2935.5,1038.2z"/>
	<path class="st4" d="M2935.5,1043.4c-6.1,0.4-11.8,0.4-18,0C2923.6,1043,2929.3,1043,2935.5,1043.4z"/>
	<path class="st4" d="M2935.5,1048.7c-6.1,0.4-11.8,0.4-18,0C2923.6,1048.3,2929.3,1048.3,2935.5,1048.7z"/>
	<path class="st4" d="M2935.5,1054.4c-6.1,0.4-11.8,0.4-18,0C2923.6,1054,2929.3,1054,2935.5,1054.4z"/>
	<path class="st3" d="M2915.7,1025h212.8c2.6,12.7,2.6,25.4,0,38.2h-211.4v-2.6h12.7c3.5,0,6.1-2.6,6.1-6.1v-21.1
		c0-3.5-2.6-6.1-6.1-6.1h-14V1025L2915.7,1025z"/>
	<path class="st2" d="M2967.9,1037.3C2967.9,1037.7,2967.9,1037.7,2967.9,1037.3c0,0.9,0.9,5.3,2.6,13.6c2.6,12.3,0,0,0,0v0.4
		c0,0.4-0.4,0.4-0.4,0.4c-0.4,0-0.4-0.4-0.4-0.4l-0.9-4.4h-4.4l-2.2,4.4c0,0-0.4,0.4-0.9,0.4h-0.4l-0.4-0.4l0.9-1.3
		c3.1-6.6,4.8-10.5,5.3-11.8c0-0.4,0.4-0.4,0.9-0.4C2967.5,1037.3,2967.5,1037.3,2967.9,1037.3L2967.9,1037.3z M2967.1,1040.4
		l-2.2,4.8h3.5L2967.1,1040.4z"/>
	<path class="st2" d="M2971.9,1049.1v-0.4c0-0.4,0.4-0.4,0.4-0.4c0.4,0,0.4,0,0.9,0.4v0.4c0.4,0.9,1.3,1.3,2.6,1.8
		c0.9,0,1.3-0.4,2.2-0.9c0.4-0.4,0.9-1.3,0.9-2.2c0-0.4,0-1.3-0.4-1.8l-1.3-1.3l-1.3-0.9l-0.9-0.9c-0.4-0.4-0.9-1.3-0.9-2.2v-0.4
		c0-1.8,1.8-3.5,3.9-3.5h1.3c0.9,0.4,1.3,0.9,1.8,1.3v0.9l-0.4,0.4h-0.4c-0.4-0.9-1.3-1.3-2.2-1.3c-1.3,0-2.2,0.9-2.2,2.2
		c0,0.4,0,0.9,0.4,1.3c0.4,0.4,0.9,0.9,1.3,0.9c0.4,0.4,1.3,0.9,1.8,0.9c0.9,0.9,1.8,2.2,1.8,3.5v0.9c0,0.9-0.9,1.8-1.8,2.6
		c-0.9,0.9-1.8,0.9-3.1,0.9c-0.9,0-1.3,0-2.2-0.4C2972.8,1050.9,2972.3,1050,2971.9,1049.1L2971.9,1049.1z"/>
	<path class="st2" d="M2993.8,1037.7C2993.8,1038.2,2993.8,1038.2,2993.8,1037.7c0,0.4-0.4,0.9-0.9,0.9h-4.4
		c-0.9,7.9-1.3,12.3-1.8,12.7c0,0.4-0.4,0.9-0.9,0.4h-0.4c-0.4,0-0.4-0.4-0.4-0.9c0-0.4,0.4-3.1,1.3-8.8c0.4-1.8,0.4-3.1,0.4-3.5
		h-4.4c-0.4,0-0.4-0.4-0.4-0.4v-0.4c0-0.4,0.4-0.4,0.9-0.4h10.5L2993.8,1037.7z"/>
	<path class="st2" d="M2995.1,1051.3c0,0.4-0.4,0.9-0.9,0.9h-0.4c-0.4,0-0.4-0.4-0.4-0.9c0.4-2.2,0.9-6.6,1.8-13.2v-0.4
		c0,0,0.4-0.4,0.9-0.4h3.1c1.8,0,2.6,1.3,2.6,3.1c0,0.4,0,1.3-0.4,1.8c-0.9,1.8-2.6,3.5-4.8,3.9l5.3,4.8l0.4,0.4v0.4
		c0,0.4-0.4,0.4-0.4,0.4h-0.4l-5.7-5.3C2995.6,1049.1,2995.6,1050.4,2995.1,1051.3L2995.1,1051.3z M2996.9,1038.6l-0.9,5.7
		c0.9,0,1.8-0.4,2.6-0.9c1.3-0.4,2.2-1.8,2.2-3.5c0-0.9-0.9-1.8-2.6-1.8L2996.9,1038.6z"/>
	<path class="st2" d="M3003.9,1045.6c0-0.9,0-2.2,0.4-3.1c0.4-1.3,1.3-3.1,2.2-3.9c0.9-0.9,1.8-1.8,3.1-1.8c0.9,0,2.2,0.4,2.6,1.3
		c0.9,1.3,1.3,2.6,1.3,3.9l0.9-0.4c0.4,0,0.9-0.4,1.3-0.4h0.4c0.4,0,0.4,0.4,0.4,0.4c0,0.4,0,0.4-0.4,0.9c-0.9,0.4-1.8,0.9-2.6,0.9
		c0,0.9,0,1.3-0.4,2.2c-0.4,1.3-1.3,3.1-2.2,3.9c-0.9,0.9-1.8,1.8-3.1,1.8h-0.4c-0.9,0-1.8-0.9-2.6-1.8
		C3004.3,1048.7,3003.9,1047.4,3003.9,1045.6z M3005.7,1045.6c0,0.9,0,2.2,0.4,3.1c0.4,1.3,0.9,1.8,2.2,1.8h0.9
		c0.9-0.4,1.3-1.3,1.8-2.2c0.9-1.3,1.3-2.6,1.3-3.9c-0.9,0-1.8-0.4-2.6-0.9c-0.9-0.9-1.8-1.8-2.2-3.1
		C3006.1,1042.1,3005.7,1043.9,3005.7,1045.6z M3010.1,1038.6C3009.6,1038.6,3009.6,1038.6,3010.1,1038.6c-0.9,0.4-0.9,0.9-0.9,1.3
		v0.4c0,0.9,0.4,1.3,1.3,1.8c0.4,0.4,0.9,0.4,1.8,0.4c0-0.4,0-0.9-0.4-1.8C3011.4,1039.5,3010.9,1038.6,3010.1,1038.6z"/>
	<path class="st2" d="M3025.4,1051.3c0,0.4-0.4,0.9-0.4,0.9c-0.4,0-0.4,0-0.9-0.4l-4.8-11v1.8c-0.9,5.3-0.9,8.3-1.3,9.2
		c-0.4,0.9-0.4,0.9-0.9,0.9h-0.4c-0.4,0-0.4-0.4-0.4-0.9c1.3-8.8,1.8-13.2,1.8-13.2v-0.4c0-0.4,0.4-0.4,0.9-0.4c0.4,0,0.9,0,0.9,0.4
		l4.8,11l1.3-10.5v-0.4c0-0.4,0.4-0.4,0.4-0.4h0.4l0.4,0.4v0.9C3026.3,1046.1,3025.4,1050.4,3025.4,1051.3z"/>
	<path class="st2" d="M3028.9,1045.6c0-0.9,0-2.2,0.4-3.1c0.4-1.3,0.9-3.1,2.2-3.9c0.9-0.9,1.8-1.8,3.1-1.8c0.9,0,2.2,0.4,2.6,1.3
		c0.9,1.3,1.3,2.6,1.3,3.9l0.9-0.4c0.4,0,0.9-0.4,1.3-0.4h0.4c0.4,0,0.4,0.4,0.4,0.4c0,0.4,0,0.4-0.4,0.9c-0.9,0.4-1.8,0.9-2.6,0.9
		c0,0.9,0,1.3-0.4,2.2c-0.4,1.3-1.3,3.1-2.2,3.9c-0.9,0.9-1.8,1.8-3.1,1.8h-0.4c-0.9,0-1.8-0.9-2.2-1.8
		C3029.4,1048.7,3028.9,1047.4,3028.9,1045.6z M3030.2,1045.6c0,0.9,0,2.2,0.4,3.1c0.4,1.3,0.9,1.8,1.8,1.8h0.9
		c0.9-0.4,1.8-1.3,1.8-2.2c0.9-1.3,1.3-2.6,1.3-3.9c-0.9,0-1.8-0.4-2.6-0.9c-0.9-0.9-1.8-1.8-2.2-3.1
		C3031.1,1042.1,3030.2,1043.9,3030.2,1045.6L3030.2,1045.6z M3034.6,1038.6c-0.9,0.4-0.9,0.9-0.9,1.3v0.4c0,0.9,0.4,1.3,1.3,1.8
		c0.4,0.4,0.9,0.4,1.8,0.4v-1.8C3036.4,1039.5,3035.5,1038.6,3034.6,1038.6z"/>
	<path class="st2" d="M3051.7,1051.3c0,0.4-0.4,0.9-0.9,0.9h-0.4c-0.4,0-0.4-0.4-0.4-0.9c0,0,0.4-2.6,0.9-7.9l-3.5,7.5l-0.4,0.4
		c0,0.4-0.4,0.4-0.9,0.4s-0.4-0.4-0.4-0.4l-1.8-8.3c-0.4,3.1-0.9,5.7-1.3,7.9c0,0.4-0.4,0.9-0.9,0.9h-0.4c-0.4,0-0.4-0.4-0.4-0.9
		l1.3-10.1c0.4-1.8,0.4-2.6,0.4-2.6v-0.4c0-0.4,0.4-0.4,0.9-0.4s0.4,0,0.4,0.4c0,0.4,0.4,2.6,1.3,6.1c0.4,2.6,0.9,3.9,0.9,4.8
		l5.3-11c0,0,0.4-0.4,0.9-0.4h0.4c0.4,0,0.4,0.4,0.4,0.4v0.4C3052.6,1046.1,3051.7,1050,3051.7,1051.3L3051.7,1051.3z"/>
	<path class="st2" d="M3065.3,1037.3c0.4,0,0.9,0.4,0.9,0.4l-1.8,13.6c0,1.3-0.9,2.6-1.3,3.5c-0.9,1.3-2.6,2.2-4.4,2.2
		c-0.9,0-1.3,0-2.2-0.4c-0.9-0.4-1.8-0.9-2.2-2.2v-0.9c0-0.4,0.4-0.4,0.9-0.4c0.4,0,0.4,0,0.4,0.4c0.9,0.9,1.8,1.8,3.5,1.8
		c0.9,0,1.8-0.4,2.6-1.3c0.9-1.3,1.3-2.6,1.3-3.9c-0.4,0.4-0.4,0.9-0.9,0.9c-0.9,0.4-1.3,0.9-2.2,0.9h-0.4c-0.9,0-1.8-0.9-2.2-1.8
		c-0.9-1.3-1.3-3.1-0.9-4.4v-2.2c0-1.3,0.4-3.1,0.9-5.3c0-0.4,0.4-0.4,0.9-0.4h0.4c0.4,0,0.4,0.4,0.4,0.4c0,0.4,0,1.3-0.4,3.1
		c-0.4,1.3-0.4,3.1-0.4,4.4s0,2.2,0.4,3.5c0.4,0.9,0.9,1.8,1.8,1.8h0.4c0.9-0.4,1.3-0.9,1.8-1.3c0.9-0.9,1.3-2.2,1.8-3.5l0.9-7.5
		v-0.4C3064.4,1037.3,3064.9,1036.8,3065.3,1037.3C3065.3,1036.8,3065.3,1037.3,3065.3,1037.3z"/>
	<path class="st2" d="M3106.1,1044.3c0,6.1-4.8,11.4-11,11.4s-11-4.8-11-11c0-6.1,4.8-11.4,11-11.4S3106.1,1038.2,3106.1,1044.3z"/>
	<path class="st3" d="M3093.4,1047.8c0,0.9-0.4,1.8-1.8,2.2c-0.9,0-1.8-0.4-2.2-1.8v-0.4c0-0.9,1.3-1.8,2.2-1.8
		C3093,1046.5,3093.4,1046.9,3093.4,1047.8z"/>
	<path class="st3" d="M3091.2,1042.5c0,0.4-0.4,0.9-0.9,0.9c-0.4,0-0.9-0.4-0.9-0.9s0.4-0.9,0.9-0.9
		C3090.8,1041.7,3091.2,1042.1,3091.2,1042.5z"/>
	<path class="st2" d="M3084.2,1046.9c0,0-9.7,9.2-7,11.4c2.6,2.2,12.7-3.1,21.9-10.1c9.2-7,17.1-15.8,14.9-18
		c-2.2-2.2-13.2,4.4-13.2,4.4l1.3,0.9c0,0,6.6-4.4,8.8-2.6s-3.9,8.3-12.3,14.5s-16.7,10.5-18,8.8s4.8-7.5,4.8-7.5L3084.2,1046.9
		L3084.2,1046.9z"/>
	<path class="st12" d="M3089,1036.4c0,0-0.9,0.9-1.3,2.2c-1.3,1.8-1.8,3.5-1.8,5.7c0,2.2,0.4,3.9,1.8,5.7c0.9,1.3,1.3,2.2,1.3,2.2
		s-0.9-0.4-2.2-1.8l-1.3-2.6c-0.4-1.3-0.4-2.2-0.4-3.5s0.4-2.2,0.9-3.5l1.3-2.6C3087.7,1037.3,3088.1,1036.8,3089,1036.4
		L3089,1036.4z"/>
	<path class="st2" d="M3121,1064c0,0-0.4-8.8-0.4-19.3c0-10.5,0-19.7,0.4-19.7c0.4,0,0.4,8.8,0.4,19.7
		C3121.5,1055.7,3121,1064,3121,1064z"/>
	<path class="st2" d="M2947.3,1064c0,0-0.4-8.8-0.4-19.3c0-10.5,0-19.7,0.4-19.7s0.4,8.8,0.4,19.7
		C2947.8,1055.7,2947.3,1064,2947.3,1064z"/>
	<path class="st2" d="M3124.5,1064c0,0-0.4-8.8-0.4-19.3c0-10.5,0-19.7,0.4-19.7c0.4,0,0.4,8.8,0.4,19.7
		C3125,1055.7,3125,1064,3124.5,1064z"/>
	<path class="st2" d="M2943.8,1064c0,0-0.4-8.8-0.4-19.3c0-10.5,0-19.7,0.4-19.7c0.4,0,0.4,8.8,0.4,19.7
		C2944.3,1055.7,2943.8,1064,2943.8,1064z"/>
	<path class="st9" d="M3103.5,961v29.4h-27.6V961H3103.5z"/>
	<path class="st0" d="M2952.1,958.8c-3.9,11-3.9,23.2,0,34.2h153.1v-2.6h-9.7c-8.3,0-14.5-6.6-14.5-14.9s6.6-14.9,14.5-14.9h10.1
		v-3.1L2952.1,958.8L2952.1,958.8z"/>
	<path class="st4" d="M3087.3,963.2c0,0-30.7,0.4-68.4,0.4s-68.4,0-68.4-0.4c0-0.4,30.7-0.4,68.4-0.4S3087.3,963.2,3087.3,963.2z"/>
	<path class="st4" d="M3088.6,989c0,0-30.7,0.4-68.9,0.4c-38.2,0-68.9,0-68.9-0.4c0-0.4,30.7-0.4,68.9-0.4
		C3057.9,988.6,3088.6,988.6,3088.6,989z"/>
	<g class="st13">
		<path class="st7" d="M3008.3,968.4c2.2,0,3.5,0.9,3.5,2.6c0,1.3-0.4,2.6-1.3,3.5c1.3,0.4,2.2,1.8,2.2,3.1c0,0.4,0,1.3-0.4,1.8
			c-0.9,1.8-2.6,2.6-5.3,2.6h-1.8c0,0-0.4-0.4-0.4-0.9l1.3-11.4v-0.4c0-0.4,0.4-0.4,0.4-0.4L3008.3,968.4L3008.3,968.4z
			 M3006.5,975.4l-0.9,4.8h0.9c0.9,0,1.8,0,2.2-0.4c1.3-0.4,2.2-1.3,2.2-2.6c0-0.9-0.4-1.3-1.8-1.8H3006.5z M3007.4,969.7l-0.4,4.4
			h0.4c2.2,0,3.1-1.3,3.1-3.1c0-0.4,0-0.9-0.4-0.9C3009.2,969.7,3008.7,969.7,3007.4,969.7L3007.4,969.7z"/>
		<path class="st7" d="M3014,976.3c0-0.9,0-1.8,0.4-2.6c0.4-1.3,0.9-2.6,1.8-3.5c0.4-0.9,1.8-1.3,2.6-1.3c0.9,0,1.8,0.4,2.2,1.3
			c0.9,0.9,1.3,2.2,1.3,3.5l0.4-0.4c0.4,0,0.4-0.4,0.9-0.4h0.4l0.4,0.4c0,0,0,0.4-0.4,0.4c-0.4,0.4-1.3,0.9-2.2,0.9
			c0,0.4,0,1.3-0.4,1.8c-0.4,1.3-0.9,2.6-1.8,3.5c-0.9,0.9-1.8,1.3-2.6,1.3h-0.4c-0.9,0-1.8-0.9-2.2-1.8
			C3014.4,978.9,3014,977.6,3014,976.3L3014,976.3z M3015.3,976.3c0,0.9,0,1.8,0.4,2.6c0.4,0.9,0.9,1.8,1.8,1.8h0.4
			c0.9-0.4,1.3-0.9,1.8-1.8c0.4-0.9,0.9-2.2,1.3-3.5c-0.9,0-1.8-0.4-2.2-0.9c-0.9-0.4-1.8-1.8-2.2-2.6
			C3016.2,972.8,3015.8,974.6,3015.3,976.3z M3019.3,970.2c-0.9,0.4-0.9,0.4-0.9,0.9v0.4c0,0.9,0.4,1.3,1.3,1.8
			c0.4,0.4,0.9,0.4,1.3,0.4v-1.3C3020.6,970.6,3020.1,970.2,3019.3,970.2L3019.3,970.2z"/>
		<path class="st7" d="M3034.2,969.3c0,0.4-0.4,0.4-0.9,0.4h-3.9c-0.9,7-1.3,11-1.3,11c0,0.4-0.4,0.4-0.9,0.4h-0.4
			c0,0-0.4-0.4-0.4-0.9l0.9-7.9c0-1.8,0.4-2.6,0.4-3.1h-3.9c-0.4,0-0.4-0.4-0.4-0.4v-0.4l0.4-0.4h9.2L3034.2,969.3L3034.2,969.3z"/>
		<path class="st7" d="M3037.2,968.9c0,0.9,0.9,4.8,2.2,11.8v0.4c0,0.4-0.4,0.4-0.4,0.4c-0.4,0-0.4,0-0.4-0.4l-0.9-3.9h-3.9
			l-1.8,3.9l-0.4,0.4h-0.4l-0.4-0.4l0.4-1.3c2.6-5.7,4.4-9.2,4.8-10.5C3035.9,968.9,3036.4,968.9,3037.2,968.9
			C3037.2,968.4,3037.2,968.9,3037.2,968.9L3037.2,968.9z M3036.8,971.5l-2.2,4.4h3.1L3036.8,971.5z"/>
		<path class="st7" d="M3049.5,981.1c0,0.4-0.4,0.4-0.9,0.4s-0.4-0.4-0.9-0.4l-4.4-9.7v1.8c-0.4,4.8-0.9,7.5-0.9,7.9
			c0,0.4-0.4,0.9-0.9,0.9h-0.4c0,0-0.4-0.4-0.4-0.9c0.9-7.9,1.3-11.4,1.3-11.4v-0.4c0.4-0.4,0.9-0.4,0.9-0.4l0.4,0.4l4.4,9.7
			l1.3-9.2v-0.4c0-0.4,0.4-0.4,0.4-0.4h0.4l0.4,0.4v0.4C3050.4,976.3,3050,980.3,3049.5,981.1L3049.5,981.1z"/>
		<path class="st7" d="M3061.8,968.4c0.4,0,0.9,0.4,0.9,0.4c-0.9,7.5-1.3,11.4-1.3,11.8c0,1.3-0.4,2.2-1.3,3.1
			c-0.9,1.3-2.2,1.8-3.9,1.8c-0.4,0-1.3,0-1.8-0.4c-0.9-0.4-1.3-0.9-2.2-1.8v-0.9l0.4-0.4c0,0,0.4,0,0.4,0.4
			c0.4,0.9,1.8,1.8,3.1,1.8c0.9,0,1.8-0.4,2.2-1.3c0.9-0.9,1.3-2.2,1.3-3.5c0,0.4-0.4,0.4-0.9,0.9c-0.4,0.4-1.3,0.9-2.2,0.4h-0.4
			c-0.9,0-1.8-0.9-2.2-1.8c-0.9-1.3-0.9-2.6-0.9-3.9v-2.2c0-1.3,0.4-2.6,0.9-4.8c0-0.4,0.4-0.4,0.4-0.4h0.4l0.4,0.4
			c0,0.9,0,1.8-0.4,2.6c-0.4,1.3-0.4,2.6-0.4,3.9c0,0.9,0,2.2,0.4,3.1c0.4,0.9,0.9,1.3,1.8,1.3c0.9-0.4,1.3-0.9,1.8-1.3
			c0.9-0.9,1.3-2.2,1.3-3.1l0.9-6.6v-0.4C3060.9,968.4,3061.4,968.4,3061.8,968.4L3061.8,968.4z"/>
	</g>
	<path class="st7" d="M2974.1,982.5c2.2-0.9,3.5-2.6,3.5-4.8c0-1.8-0.9-3.5-2.6-4.8c-1.3-1.3-3.1-2.2-4.8-3.1l-4.4-2.2
		c-0.4-0.4-0.9-0.4-1.3,0c-0.4,0.4-0.9,0.9-0.9,1.3c-0.4,3.5,0,7.5,1.3,11c0.9,2.2,2.2,3.9,4.4,4.8
		C2971,984.2,2972.8,983.3,2974.1,982.5"/>
	<path class="st0" d="M2975.8,985.1c-1.8-2.2-3.5-4.8-5.3-7c-1.8-2.2-3.1-4.8-4.8-7.5c1.8,2.2,3.5,4.8,5.3,7
		C2973.2,980.3,2974.5,982.5,2975.8,985.1z"/>
	<path class="st0" d="M2970.6,976.8h-2.2c-1.3,0-2.2-0.4-2.2-0.9h2.2C2969.3,976.3,2970.1,976.8,2970.6,976.8z"/>
	<path class="st0" d="M2972.8,980.7h-2.2c-1.3,0-2.2-0.4-2.2-0.9h2.2C2971.4,979.8,2972.3,980.3,2972.8,980.7z"/>
	<path class="st0" d="M2971.9,978.9c-0.4-0.9-0.4-1.8-0.4-2.6s0-1.8,0.4-2.6c0.4,0.9,0.4,1.8,0.4,2.6
		C2972.3,978.1,2972.3,978.9,2971.9,978.9z"/>
	<path class="st7" d="M2983.3,979.8c1.3,1.3,3.1,1.8,4.8,1.8c1.3-0.4,2.6-1.8,3.1-3.1c0.4-1.3,0.9-3.1,0.9-4.4l0.4-3.5v-1.3
		c-0.4-0.4-0.9-0.4-1.3-0.4c-3.1,0.4-5.7,1.8-7.9,3.9c-1.3,0.9-2.2,2.6-2.6,4.4C2981.5,978.5,2982.4,979.4,2983.3,979.8"/>
	<path class="st0" d="M2981.5,982c1.3-2.2,2.6-3.9,3.9-5.7c1.3-1.8,2.6-3.5,4.4-5.3c-1.3,1.8-2.6,3.9-3.9,5.7
		C2984.6,978.9,2983.3,980.7,2981.5,982z"/>
	<path class="st0" d="M2986.4,976.3c0,0-0.4-0.9-0.4-1.8v-1.8c0,0,0.4,0.9,0.4,1.8S2986.8,976.3,2986.4,976.3z"/>
	<path class="st0" d="M2984.6,978.9c0,0-0.4-0.9-0.4-1.8v-1.8c0,0,0.4,0.9,0.4,1.8V978.9z"/>
	<path class="st0" d="M2985.5,977.6l1.8-0.9c0.9-0.4,2.2-0.4,2.2-0.4l-1.8,0.9C2986.8,977.6,2985.5,978.1,2985.5,977.6z"/>
	<path class="st4" d="M3103.5,976.3c0,0-5.3,0.4-11.4,0.4s-11.4,0-11.4-0.4C3088.1,975.9,3096,975.9,3103.5,976.3L3103.5,976.3z"/>
	<path class="st4" d="M3103.5,982.9c-7,0.4-14,0.4-21.1,0C3089.4,982.5,3096.5,982.5,3103.5,982.9z"/>
	<path class="st4" d="M3103.5,989c-2.6,0.4-5.3,0.4-7.5,0.4c-2.6,0-5.3,0-7.9-0.4c2.6-0.4,5.3-0.4,7.9-0.4S3101.3,988.6,3103.5,989z
		"/>
	<path class="st4" d="M3103.9,970.2c-3.5,0.4-7.5,0.4-11,0.4c-3.5,0-7.5,0-11-0.4c3.5-0.4,7.5-0.4,11-0.4
		C3096.5,969.7,3100,969.7,3103.9,970.2z"/>
	<path class="st4" d="M3103.5,964c-5.7,0.4-11.4,0.4-17.1,0H3103.5z"/>
	<path class="st9" d="M3118.8,926.7v29.4h-57v-29.4H3118.8z"/>
	<path class="st0" d="M2935,942.1v0.9c0.4,8.8,7.9,15.8,17.1,15.8h169.3v-2.2h-40.4c-8.3,0-14.5-6.6-14.5-14.9
		c0-8.3,6.6-14.9,14.5-14.9h40.4v-3.1l-169.3,0.4c-9.2,0-17.1,7.9-17.1,17.1V942.1L2935,942.1z"/>
	<path class="st4" d="M3118.8,942.1c0,0-11.8,0.4-26.3,0.4s-26.3,0-26.3-0.4c0-0.4,11.8-0.4,26.3-0.4S3118.8,941.7,3118.8,942.1z"/>
	<path class="st4" d="M3118,948.7c0,0-11,0.4-24.6,0.4s-24.6,0-24.6-0.4c0-0.4,11-0.4,24.6-0.4S3118,948.7,3118,948.7z"/>
	<path class="st4" d="M3118.8,954.8c0,0-10.1,0.4-22.4,0.4s-22.4,0-22.4-0.4c0-0.4,10.1-0.4,22.4-0.4S3118.8,954.4,3118.8,954.8z"/>
	<path class="st4" d="M3118.8,936c0,0-11.4,0.4-25.4,0.4s-25.4,0-25.4-0.4s11.4-0.4,25.4-0.4S3118.8,936,3118.8,936z"/>
	<path class="st4" d="M3118,930.3c0,0-10.1,0.4-22.8,0.4s-22.8,0-22.8-0.4c0-0.4,10.1-0.4,22.8-0.4S3118,929.8,3118,930.3z"/>
	<path class="st7" d="M2935,942.1v0.9c0.4,8.8,7.9,15.8,17.1,15.8h169.3v-2.2h-40.4c-8.3,0-14.5-6.6-14.5-14.9
		c0-8.3,6.6-14.9,14.5-14.9h40.4v-3.1l-169.3,0.4c-9.2,0-17.1,7.9-17.1,17.1V942.1L2935,942.1z"/>
	<path class="st4" d="M2955.7,925c-1.3,1.3-2.6,2.6-3.5,4.4c-2.6,3.9-3.9,8.3-3.9,12.7s1.8,8.8,4.4,12.7c1.3,1.3,2.2,3.1,3.5,4.4
		c-0.4-0.4-0.9-0.4-1.3-0.9c-0.9-0.9-2.2-1.8-2.6-3.1c-5.7-7.5-5.7-18-0.4-25.9c0.9-1.3,1.8-2.2,2.6-3.1
		C2954.8,925.4,2955.2,925,2955.7,925L2955.7,925z"/>
	<path class="st4" d="M2950,924.1c-1.3,1.3-2.6,2.6-3.5,4.4c-5.3,7.5-5.3,17.5,0.4,25c1.3,1.8,2.2,3.1,3.5,4.4
		c-0.4-0.4-0.9-0.4-1.3-0.9c-0.9-0.9-2.2-1.8-3.1-3.1c-2.6-3.5-4.4-8.3-4.4-12.7c0-4.8,1.3-9.2,3.9-12.7c0.9-1.3,1.8-2.2,2.6-3.1
		C2949.5,924.6,2950,924.1,2950,924.1L2950,924.1z"/>
	<path class="st4" d="M3064.9,925c-1.3,1.3-2.6,2.6-3.5,4.4c-5.3,7.5-5.3,17.5,0.4,25.4c1.3,1.3,2.2,3.1,3.5,4.4
		c0,0-0.4-0.4-1.3-0.9c-0.9-0.9-2.2-1.8-3.1-3.1c-5.7-7.5-5.7-18-0.4-25.9c0.9-1.3,1.8-2.2,2.6-3.1
		C3064,925.4,3064.4,925,3064.9,925L3064.9,925z"/>
	<path class="st4" d="M3059.2,924.1c-1.3,1.3-2.6,2.6-3.5,4.4c-5.3,7.5-5.3,17.5,0.4,25c1.3,1.8,2.2,3.1,3.5,4.4
		c-0.4-0.4-0.9-0.4-1.3-0.9c-0.9-0.9-2.2-1.8-2.6-3.1c-2.6-3.5-4.4-8.3-4.4-12.7c0-4.8,1.3-9.2,3.9-12.7c0.9-1.3,1.8-2.2,2.6-3.1
		L3059.2,924.1L3059.2,924.1z"/>
	<path class="st4" d="M2975,946v-11.8c0-0.9,0-2.2-0.4-3.1s-1.3-1.8-2.2-1.8c-1.8-0.4-3.9,0.4-4.8,2.2c-0.9,1.8-1.3,3.9-1.3,5.7
		c0,3.1,0,6.1,0.4,9.2c0,1.3,0.4,3.1,1.3,4.4c0.9,1.8,3.1,2.6,4.8,1.8c0.9-0.4,1.8-1.3,2.2-2.6V946L2975,946z"/>
	<path class="st4" d="M3040.8,942.5c0,0-12.3,0.4-27.2,0.4s-27.2,0-27.2-0.4s12.3-0.4,27.2-0.4S3040.8,942.5,3040.8,942.5z"/>
	<path class="st11" d="M2963.6,923.7l-0.4-28.1h15.4l0.4,28.1H2963.6z"/>
	<path class="st4" d="M2977.6,900.9c-4.8,0.4-9.2,0.4-14,0C2967.9,900.4,2972.8,900.4,2977.6,900.9z"/>
	<path class="st4" d="M2977.6,905.2c-4.8,0.4-9.2,0.4-14,0C2967.9,904.8,2972.8,904.8,2977.6,905.2z"/>
	<path class="st4" d="M2977.6,909.2c-4.8,0.4-9.2,0.4-14,0C2967.9,908.8,2972.8,908.8,2977.6,909.2z"/>
	<path class="st4" d="M2977.6,913.6c-4.8,0.4-9.2,0.4-14,0C2967.9,913.1,2972.8,913.1,2977.6,913.6z"/>
	<path class="st4" d="M2977.6,918c-4.8,0.4-9.2,0.4-14,0C2967.9,917.5,2972.8,917.5,2977.6,918z"/>
	<path class="st0" d="M2961.8,894.7h168c1.8,10.1,1.8,20.2,0,30.3h-167.6v-2.2h10.1c2.6,0,4.8-2.2,4.8-4.8v-16.7
		c0-2.6-2.2-4.8-4.8-4.8h-10.5V894.7z"/>
	<path class="st10" d="M3002.2,910.1h3.1l0.4,0.4v0.9c-0.4,1.3-0.9,2.2-1.8,3.1c-0.4,0.9-1.3,1.3-2.2,1.3h-0.4
		c-0.9,0-1.3-0.4-1.8-1.3s-0.9-2.2-0.9-3.5c0-0.9,0-1.8,0.4-2.6c0.4-1.3,0.9-2.2,1.8-3.1c0.4-0.9,1.8-1.3,2.6-1.3
		c0.4,0,0.9,0,0.9,0.4c0.9,0.4,1.3,1.3,1.8,2.2v0.9l-0.4,0.4c0,0-0.4,0-0.4-0.4c0-0.4,0-0.4-0.4-0.4c-0.4-0.4-0.9-0.9-1.3-0.9
		s-0.4,0-0.9,0.4c-0.9,0.4-1.3,1.3-1.3,2.2c-0.4,0.9-0.4,2.2-0.9,3.1c0,0.9,0,1.8,0.4,2.6c0,0.4,0.9,1.3,1.3,1.3s0.9-0.4,1.3-0.9
		c0.9-0.9,1.3-1.8,1.3-2.6h-2.2c-0.4,0-0.9,0-0.9-0.4C3001.7,910.5,3001.7,910.5,3002.2,910.1L3002.2,910.1z"/>
	<path class="st10" d="M3011.8,904.8c0,0,0.9,3.9,2.2,10.5v0.4l-0.4,0.4c-0.4,0-0.4,0-0.4-0.4l-0.9-3.5h-3.5l-1.8,3.5l-0.4,0.4h-0.4
		l-0.4-0.4l0.4-1.3c2.6-5.3,3.9-8.3,4.4-9.2c0-0.4,0.4-0.4,0.4-0.4C3011.4,904.4,3011.8,904.4,3011.8,904.8L3011.8,904.8z
		 M3010.9,907l-1.8,3.9h2.6L3010.9,907L3010.9,907z"/>
	<path class="st10" d="M3021,916.2h-5.7l-0.4-0.4l1.3-10.5v-0.4c0-0.4,0.4-0.4,0.4-0.4h0.4c0.4,0,0.4,0.4,0.4,0.4
		c0,0.4,0,1.3-0.4,2.6c-0.4,4.4-0.9,6.6-0.9,7h4.8c0.4,0,0.4,0.4,0.4,0.4C3021.9,915.8,3021.5,916.2,3021,916.2L3021,916.2z"/>
	<path class="st10" d="M3028,904.8c0,0.4,0.9,3.9,2.2,10.5v0.4l-0.4,0.4c-0.4,0-0.4,0-0.4-0.4l-0.9-3.5h-3.5l-1.8,3.5l-0.4,0.4h-0.4
		l-0.4-0.4c0,0,0.4-0.4,0.4-1.3l4.4-9.2c0-0.4,0.4-0.4,0.4-0.4C3028,904.4,3028,904.4,3028,904.8L3028,904.8z M3027.2,907l-1.8,3.9
		h2.6L3027.2,907L3027.2,907z"/>
	<path class="st10" d="M3035.9,910.5l0.9,2.6c0.4,0.9,0.4,1.3,0.9,2.2v0.4l-0.4,0.4c-0.4,0-0.4,0-0.4-0.4v-0.4
		c-0.4-0.4-0.9-1.8-1.3-3.5l-3.1,3.9l-0.4,0.4h-0.4l-0.4-0.4c0,0,0-0.4,0.4-0.4c0.9-1.3,2.2-2.6,3.1-4.4c0-0.4,0-0.4-0.4-0.9
		c-0.9-3.1-1.8-4.4-1.8-4.4v-0.4l0.4-0.4c0.4,0,0.4,0,0.4,0.4l1.8,4.4l3.5-4.4l0.4-0.4h0.4l0.4,0.4v0.4L3035.9,910.5z"/>
	<path class="st10" d="M3048.7,904.4c0.4,0,0.4,0.4,0.4,0.4c-0.9,6.6-1.3,10.1-1.3,10.5c0,0.9-0.4,1.8-0.9,2.6
		c-0.9,0.9-2.2,1.8-3.5,1.8c-0.4,0-1.3,0-1.8-0.4c-0.9-0.4-1.3-0.9-1.8-1.8v-0.9l0.4-0.4c0,0,0.4,0,0.4,0.4c0.4,0.9,1.8,1.3,2.6,1.3
		s1.3-0.4,2.2-0.9c0.9-0.9,0.9-2.2,1.3-3.1c0,0.4-0.4,0.4-0.9,0.9c-0.4,0.4-1.3,0.4-1.8,0.4h-0.4c-0.9,0-1.8-0.4-1.8-1.3
		c-0.4-0.9-0.9-2.2-0.9-3.5v-1.8c0-0.4,0.4-2.6,0.9-4.4c0-0.4,0.4-0.4,0.4-0.4h0.4l0.4,0.4c0,0.4,0,0.9-0.4,2.2
		c0,1.3-0.4,2.2-0.4,3.5c0,0.9,0,1.8,0.4,2.6c0.4,0.9,0.9,1.3,1.3,1.3c0.4-0.4,1.3-0.9,1.3-1.3l1.3-2.6l0.9-5.7v-0.4
		C3048.2,904.4,3048.2,904.4,3048.7,904.4L3048.7,904.4z"/>
	<path class="st2" d="M3124.1,925.4c0,0-0.4-7-0.4-15.4c0-8.3,0-15.4,0.4-15.4c0.4,0,0.4,7,0.4,15.4
		C3124.5,918.4,3124.5,925.4,3124.1,925.4z"/>
	<path class="st2" d="M2986.8,925.4c0,0-0.4-7-0.4-15.4c0-8.3,0-15.4,0.4-15.4c0.4,0,0.4,7,0.4,15.4
		C2987.2,918.4,2986.8,925.4,2986.8,925.4z"/>
	<path class="st2" d="M3127.2,925.4c0,0-0.4-7-0.4-15.4c0-8.3,0-15.4,0.4-15.4c0.4,0,0.4,7,0.4,15.4
		C3127.6,918.4,3127.6,925.4,3127.2,925.4z"/>
	<path class="st2" d="M2983.7,925.4c0,0-0.4-7-0.4-15.4c0-8.3,0-15.4,0.4-15.4s0.4,7,0.4,15.4
		C2984.2,918.4,2984.2,925.4,2983.7,925.4z"/>
	<path class="st4" d="M3083.7,899.5l17.5,14.5l-2.2,0.4l-14.9,3.9l-13.6-5.7l-3.9-1.8l-0.9-0.4h-0.4h0.4l0.9,0.4l3.9,1.8l13.6,5.7
		l14.9-3.9l2.2-0.4L3083.7,899.5"/>
	<path class="st4" d="M3099.5,911.8l1.3,0.9l0.9-0.4l-0.4,1.3l0.9,1.3l-1.3-0.4l-0.9,1.3l-0.4-1.3l-1.3-0.9l1.3-0.4L3099.5,911.8
		L3099.5,911.8z"/>
	<path class="st4" d="M3082.4,917.5l0.9,0.4l0.9-0.4l-0.4,0.9l0.4,0.9h-0.9l-0.4,0.4l-0.4-0.4l-0.4-0.4l0.4-0.4L3082.4,917.5
		L3082.4,917.5z"/>
	<path class="st4" d="M3063.6,909.6h1.3l0.4-0.9l0.4,1.3l0.9,0.4l-0.9,0.4v0.9l-0.9-0.4h-0.9l0.4-0.9L3063.6,909.6L3063.6,909.6z"/>
	<path class="st4" d="M3107.4,900h1.3l0.4-0.9l0.4,1.3h0.9l-0.9,0.9v0.9l-0.9-0.4h-0.9l0.4-0.9L3107.4,900L3107.4,900z"/>
	<path class="st4" d="M3082.4,899.1h0.9l0.4-0.4v0.9h0.9l-0.9,0.4v0.9l-0.4-0.4h-0.4V900L3082.4,899.1L3082.4,899.1z"/>
	<path class="st4" d="M3109.2,900.9c0,0-5.7,0-12.7-0.4c-7-0.4-12.7-0.4-12.7-0.9c0-0.4,5.7,0,12.7,0.4
		C3103.5,900.4,3109.2,900.9,3109.2,900.9z"/>
	<path class="st3" d="M3115.3,894.7h-170.6c-2.6-4.4-2.6-9.7,0-14h170.6C3117.5,885.1,3117.5,890.3,3115.3,894.7z"/>
	<path class="st9" d="M3072.8,884.6v5.3h-92.6v-5.3H3072.8z"/>
	<path class="st4" d="M2951.7,894.7c-0.4-0.4-0.9-0.9-1.3-1.8c-0.9-1.8-1.3-3.1-1.8-4.8c0-1.8,0-3.5,0.9-5.3c0-0.9,0.4-1.3,0.9-1.8
		c0,0-0.4,0.9-0.4,2.2c-0.4,1.8-0.4,3.5-0.4,4.8c0,1.8,0.4,3.5,1.3,4.8C2950.8,893.4,2951.3,894.3,2951.7,894.7L2951.7,894.7z"/>
	<path class="st4" d="M2955.2,894.7c0,0-0.9-0.4-1.3-1.8c-0.9-1.8-1.3-3.1-1.3-4.8c0-1.8,0-3.5,0.4-5.3c0.4-1.3,0.9-1.8,0.9-1.8
		c0,0.9-0.4,1.3-0.4,2.2c-0.9,3.5-0.4,7,0.9,10.1C2954.8,894.3,2955.2,894.7,2955.2,894.7L2955.2,894.7z"/>
	<path class="st4" d="M3108.7,894.3c0.9-2.2,1.3-4.4,1.3-7c0-2.2-0.4-4.8-1.3-7C3110.9,885.1,3110.9,890.3,3108.7,894.3
		L3108.7,894.3z"/>
	<path class="st4" d="M3105.7,894.3c0,0,0.4-3.1,0.4-7c0-3.9-0.9-6.6-0.4-7c0.9,2.2,1.3,4.4,1.3,7
		C3106.6,889.9,3106.6,892.5,3105.7,894.3z"/>
	<path class="st0" d="M2922.3,734.2v74.6h229.9v-74.6H2922.3z"/>
	<path class="st0" d="M2912.7,713.1v21.1h247.8v-21.1H2912.7z"/>
	<path class="st0" d="M3036.4,808.7h115.8v-74.6h8.3v-21.1h-129V732L3036.4,808.7z"/>
	<path class="st7" d="M3000.8,746v11.4h-46.5V746H3000.8z"/>
	<path class="st7" d="M3008.7,771.5v23.7h-60.1v-23.7H3008.7z"/>
	<path class="st2" d="M3162.3,733.7c0,0.4-55.7,1.3-124.1,1.3c-68.4,0-124.1-0.4-124.1-1.3s55.7-1.3,124.1-1.3
		C3106.6,732.4,3162.3,733.3,3162.3,733.7z"/>
	<path class="st2" d="M3039.4,808.3c-1.3-12.3-1.3-24.6-1.3-36.8c-0.4-12.3,0-24.6,1.3-36.8c1.3,12.3,1.8,24.6,1.3,36.8
		C3041.2,783.7,3040.8,796,3039.4,808.3z"/>
	<path class="st3" d="M2943.4,653.9v59.2h182v-59.2H2943.4z"/>
	<path class="st3" d="M2935.9,637.2v16.7h195.6v-16.7H2935.9z"/>
	<path class="st3" d="M3033.7,713.1h91.7v-59.2h6.1v-16.7h-101.8v15.4L3033.7,713.1L3033.7,713.1z"/>
	<path class="st1" d="M3005.7,663.5v8.8h-36.8v-8.8H3005.7z"/>
	<path class="st1" d="M3011.4,683.7v18.9H2964v-18.9H3011.4z"/>
	<path class="st2" d="M3133.3,653.9c0,0.4-43.9,1.3-98.3,1.3c-54.4,0-98.3-0.4-98.3-1.3s43.9-1.3,98.3-1.3
		C3089.4,652.6,3133.3,653,3133.3,653.9z"/>
	<path class="st2" d="M3036.4,712.7c-1.3-9.7-1.8-19.3-1.3-29.4c-0.4-9.7,0-19.7,1.3-29.4c1.3,9.7,1.3,19.3,1.3,29.4
		S3037.7,703,3036.4,712.7z"/>
	<path class="st2" d="M3132.9,712.7c0,0.4-42.6,1.3-94.3,1.3s-94.3-0.4-94.3-1.3c0-0.9,42.1-1.3,94.3-1.3S3132.9,711.8,3132.9,712.7
		z"/>
	<path class="st2" d="M3126.7,324.9c0-1.8-0.4-3.1-0.4-4.4c0-1.3-0.4-3.1-0.9-4.8c0.4,1.8,0.4,3.1,0.9,4.8
		S3126.3,323.6,3126.7,324.9z"/>
	<path class="st0" d="M3114,344.2c-0.9-3.1-1.8-6.1-2.6-9.7c-0.4-1.8-1.3-3.5-3.1-4.4c-1.3-0.4-2.2-0.4-3.5-0.9
		c-3.9-1.3-5.3-7-8.8-8.3c-1.3-0.4-2.6-0.9-3.9-0.9c-5.3-0.4-10.1-2.6-13.6-6.1c-0.9-1.3-2.2-2.6-3.1-3.9c-1.3-0.9-3.1-1.3-4.4-0.4
		l3.1,6.6c0.9,2.2,2.2,3.9,3.5,5.3c1.8,1.8,3.9,2.2,6.1,1.3c0.4-0.4,1.3-0.4,2.2-0.9c0.4,0,0.9,0.4,1.3,0.9
		c2.6,3.5,2.2,8.3-0.9,11.4c-3.1,3.1-6.6,5.3-10.5,6.1c-1.3,0.9-3.1,0.9-4.4,0.9c-2.6-0.4-3.9-3.5-4.8-6.1
		c-0.9-6.1-3.1-11.8-6.1-16.7c-1.3-1.3-2.6-3.1-3.5-4.8c-0.9-1.8-0.4-3.9-1.8-5.7s-3.9-2.6-3.9-4.8c0-1.8,0.9-3.1,2.6-3.5
		c1.3-0.9,3.1-0.9,4.4-1.3c0.4-0.4,1.3-0.9,1.3-1.3s-1.3-1.3-1.8-2.2c-0.4-0.9,0.9-1.8,0.9-2.6c0.9-2.2-1.3-4.4-3.5-5.3
		c-2.2-0.9-4.8-1.3-5.7-3.5c-0.4-0.9-0.4-2.2-0.9-3.1c-0.4-2.6-2.6-4.8-5.3-5.7c-2.2-0.4-4.8,1.3-5.3,3.5v0.9
		c0.4,1.3,1.3,2.6,1.8,3.9c0.4,1.3,0.4,3.5-0.9,3.5c-2.2,0.9-4.4-3.5-6.6-2.2c0.9,2.6,1.3,5.3,2.2,7.9c-3.1,1.3-6.6-1.3-7.9-4.4
		s-1.3-6.6-3.1-9.7c-1.8-3.1-5.7-5.3-8.3-3.1c0,3.9,4.8,5.3,7.5,8.3c1.8,2.2,1.3,5.3-0.9,7c-2.2,1.3-6.1-0.9-5.3-3.5l1.3-2.6
		c0.4-0.9-0.9-2.2-1.8-3.1l-4.4-3.5c-0.9-0.9-1.8-1.3-3.1-1.8c-3.1-0.4-6.1,1.3-7.5,4.4c-1.3,2.6-2.6,5.7-4.8,7.9
		c-3.5,3.1-8.8,3.1-12.3,0c-2.6-3.1-1.8-7.5,1.3-9.7c0.4-0.4,1.3-0.9,1.8-0.9c1.8-0.4,3.5-0.4,4.4-1.8c1.3-2.6-3.1-5.7-1.3-8.3
		c1.8-2.6,4.4-0.9,6.6-1.8c2.2-0.9,3.5-3.1,4.8-4.8s3.5-3.5,5.7-3.1c-0.4-1.3-0.4-2.6,0-3.9s2.2-1.8,3.1-1.3c-0.9,2.2,0,4.4,2.2,5.3
		c2.2,0.9,4.4,0.9,6.1,0.4c2.2-0.4,4.8-0.9,4.8-3.1V253c0.9-2.6,5.7,0.9,7.5-0.9c0.9-0.9,0-3.1-1.8-3.5h-4.4c-1.3,0-3.5-0.9-3.5-2.2
		s1.3-2.6,1.8-3.9c0.4-2.6-3.9-3.1-5.3-0.9s-1.3,4.8-0.4,7s0.4,4.8-0.9,7c-0.9,1.3-2.6,0.4-3.5-0.9c-0.4-1.3-0.9-2.6-0.9-3.9
		s-0.9-2.6-2.2-3.5c-0.9,0-1.8,0-3.1,0.4c-3.9,0.4-6.6-4.4-5.3-7.9c1.8-3.5,4.4-6.1,7.9-7.9c2.2-1.8,5.3-2.2,7.9-1.3
		c0.9,0.9,1.8,1.8,3.1,2.2c2.2,0.9,4.4,0.9,6.6,0.9c3.5,0,6.6,1.3,9.7,3.5c0.9,0.9,1.8,2.2,1.3,3.5c-0.4,1.3-3.1,1.3-2.6,2.6
		c2.6,0.9,5.3-0.9,5.7-3.5v-0.4c1.3,0.4,2.2,1.8,2.2,3.1c3.1-2.6,7.5-2.2,10.1,0.4l0.4,0.4c0.4,0.9,1.3,1.8,1.8,2.6
		c0.9,0.4,2.2,0.4,2.6-0.9v-0.9c-0.4-1.3-0.9-3.1-1.8-4.4c2.2-0.9,4.4,0.4,5.7,2.6c5.3,6.6,8.8,2.6,15.8,3.9c4.8,0.9,7,3.9,9.7,7.5
		c8.3,11.4,19.3,20.6,27.2,32.9c0.9,1.3,1.8,2.6,2.2,3.9c0-0.4,0-0.4-0.4-0.9c-3.1-7.9-6.6-15.4-11-22.4c-0.9-1.3-1.8-3.1-3.1-4.4
		c-1.3-1.3-1.3-1.8-1.8-2.6c-0.4-0.9-1.8-2.2-2.6-3.5c-0.9-1.3-1.3-1.8-2.2-2.6l-1.3-1.8c-0.4-0.9-0.9-1.3-1.8-2.2l-1.8-2.2
		l-0.4-0.9c-0.4-0.9-1.3-1.3-2.2-2.2v-0.4l-0.4-0.4l-1.8-1.8c-0.4-0.4-1.8-1.8-3.1-2.6s-1.8-1.3-2.6-2.2l-2.6-1.8l-2.2-1.8l-2.6-2.2
		c-2.6-2.2-5.3-3.9-7.9-5.7l-2.2-1.3c-0.9-0.4-1.3-0.9-2.2-1.3l-2.2-1.3l-2.2-1.3c-0.4-0.4-1.3-0.9-1.8-0.9s-0.4-0.4-0.9-0.4
		l-3.5-1.8l-1.8-0.9l-2.6-1.3h-0.4l-2.2-0.9l-3.1-1.3l-3.5-1.3l-3.9-1.3l-4.4-1.3l-4.4-1.3c-3.1-0.9-5.7-1.3-8.8-2.2
		c-1.3,0-2.2-0.4-3.5-0.4l-1.3-0.4c-2.2-0.4-3.9-0.4-6.1-0.9h-0.9l-1.8-0.4l-4.4-0.4h-9.2c-3.9,0-8.3,0-12.3,0.4l-2.6,0.4l-3.1,0.4
		l-3.1,0.4l-3.1,0.4l-2.6,0.4c-2.2,0.4-3.9,0.9-6.1,1.3l-2.6,0.9l-2.6,0.9l-4.4,1.3l-3.5,1.3l-3.5,1.3l-3.5,1.3l-3.9,1.8
		c-1.3,0.4-2.2,0.9-3.5,1.8l-3.5,1.8l-3.5,1.8c-1.3,0.9-2.2,1.3-3.5,1.8l-3.1,1.8l-1.3,0.9l-3.1,2.2l-3.9,2.6l-3.1,2.6
		c-6.1,4.8-11.8,10.1-17.1,16.2c-1.8,2.2-3.5,3.9-5.3,6.1c-1.8,2.2-2.6,3.5-4.4,5.7s-2.2,3.5-3.5,4.8c1.3-1.8,2.2-3.5,3.5-4.8h0.9
		c1.8,0,3.9-0.4,5.7-0.9c1.8-0.9,3.1-2.2,4.4-3.1c3.9-2.6,10.1-3.1,11-7.5c0-1.3,0.4-3.1,0.4-4.4c0.9-2.6,4.8-3.1,7.5-3.1
		c1.3,0,2.6,0,3.1,1.3c0.4,0.9,0.4,1.8,0,2.6c-1.8,5.3-5.3,9.2-10.1,12.3c-3.9,2.2-8.8,3.9-9.7,8.3c0.4,1.3,3.1,1.3,3.5,3.1
		c0.4,1.8-1.3,1.8-2.2,3.1c-0.9,1.3,0.9,3.5,3.1,3.5c1.8-0.4,3.5-1.3,4.8-2.6c4.4-3.1,7.5-7.5,9.7-12.7c0.4-2.2,0.9-4.8,2.6-6.1
		c2.2-1.3,4.8-0.9,6.1,1.3c0,0.4,0.4,0.4,0.4,0.9c1.8-0.9,4.4-1.8,5.3,0c0,0.9,0.4,1.3,0.4,2.2c0.4,2.6,4.4,3.9,4.8,7
		c0.4,3.1-3.5,4.8-7,5.3l-8.8,1.3c-1.3,0-2.6,0.4-3.5,1.3c-1.3,0.9-1.8,2.2-0.9,3.5c0.4,0.4,0.9,1.3,1.3,1.3
		c1.8,2.2,1.3,4.8-0.9,6.6c-0.4,0.4-1.3,0.9-2.2,0.9c-1.3,0-2.2-0.4-3.5-0.4c-3.5,0.4-6.6,2.6-7.9,5.7c-1.3,3.5-3.1,6.1-5.7,8.8
		c-4.4,3.5-12.3,2.6-14.5,7.9c-0.4,2.2-0.4,4.4,0,6.6c0.4,2.2,0.4,4.4-0.9,6.6c-1.3,1.8-4.4,2.2-5.7,0c-0.4-0.9-0.4-1.8,0-3.1
		c0.4-3.1,0.9-6.1,1.3-9.7c0.9-2.2,0.4-4.8-0.9-7c-2.2-2.6-6.1-2.6-8.8-0.4c-2.2,2.2-3.9,5.3-4.4,8.8c-0.4,3.1-1.3,6.1-2.6,8.8
		c-0.4,2.6-0.9,5.3-0.9,7.9c0,2.6-0.4,5.7-0.4,8.3l0.9-0.9c1.3-1.3,3.9-7.5,6.6-4.4c0.4,0.9,0.4,1.8,0,2.6c-0.9,0.9-2.2,1.3-3.1,2.2
		c-0.9,0.9,0.4,2.6,1.3,3.5c1.3,0.4,2.6,1.3,3.5,2.6c1.8,2.2,0,5.7,1.8,7.9c1.8,2.2,3.9,2.2,6.6,2.2h0.9c0.4-5.3,4.4-9.2,9.7-10.1
		c8.8-2.2,20.6,5.3,25.9,11.8c5.7,7.5,8.3,18,17.1,21.9c6.1,2.6,14.9,1.8,18,7.9c3.1,6.1-2.2,11.4-2.6,17.5c0,3.9,0.4,7.9,1.3,11.8
		c0.9,3.9-0.9,7.9-4.4,10.1c-2.2,0.9-4.4,0.9-6.1,2.2c-3.1,2.6-0.4,8.3-3.5,11c-1.3,0.9-2.2,1.3-3.5,1.8c-6.6,3.1-6.1,12.7-3.5,19.3
		l0.4,0.9c41.2,24.6,92.1,25.4,134.7,3.5c4.4-2.2,8.3-4.8,12.3-7c6.1-3.9,11.8-8.3,17.1-13.6l10.5-10.5c2.2-2.6,4.4-5.3,6.6-8.3
		c0.9-1.3,2.2-3.1,3.1-4.4c3.1-4.4,5.7-8.8,8.3-13.6c3.5-6.6,6.6-14,8.8-21.1c2.6-7.5,4.4-15.4,5.3-22.8c0.4-3.1,0.9-6.1,0.9-9.2
		c-1.3,1.3-3.5,2.2-5.3,2.6C3118.4,350.8,3114.9,347.7,3114,344.2L3114,344.2z"/>
	<path class="st2" d="M2957.4,238.5c-2.6,2.2-4.4,4.4-6.1,7c-2.2,2.2-5.7,3.9-8.3,2.2c-1.3-0.9-1.8-2.6-1.8-3.9
		c0-2.2,0.4-4.4,1.3-6.1c1.3-1.8,3.1-3.5,3.9-5.3c1.3-2.2,0.9-4.4-1.3-5.7c-1.3-0.4-2.6-0.4-3.5-0.9c-1.8-1.3-0.4-4.4,1.8-5.3
		c2.2-0.4,4.4-0.4,6.6,0c7.9,0.4,14-4.8,19.7-8.8c4.8-3.5,14.5-7.5,19.7-3.9c1.8,1.3,2.6,3.5,1.8,5.7c0,0.4-0.4,0.4-0.4,0.9
		c-0.9,0.9-2.2,0.9-3.1,1.8c-0.9,0.9-1.3,2.2-1.8,3.5c-1.3,3.1-5.7,4.4-7.5,7.5c-0.9,1.8-0.4,4.4-1.8,6.1c-1.3,1.3-2.6,1.8-4.4,2.2
		l-10.5,2.2C2960.5,237.2,2958.7,237.6,2957.4,238.5L2957.4,238.5z"/>
	<path class="st2" d="M3050,405.2c-3.1,5.3-4.8,11.4-4.8,17.5c-0.4,6.1-3.1,12.3-7.5,16.7c-4.8,3.9-13.2,3.9-15.8-1.8
		c-0.9-3.1-1.3-6.6-1.3-9.7c-1.8-3.9-3.5-7.9-6.1-11.4c-1.3-3.5-1.8-7.5-1.3-11c-0.4-20.2-5.7-41.2-19.7-56.1
		c-1.8-2.2-3.5-3.5-6.1-4.4c-3.1-0.9-6.1,0.4-7.9,2.6c-0.9,1.8-1.8,3.1-3.1,4.4c-3.1,2.2-7.5,1.3-9.7-2.2c0-0.4-0.4-0.4-0.4-0.9
		c-1.8-3.5-2.2-7.9-1.3-11.8c0.4-4.8,0.9-9.7,1.3-14.9c0-2.6,0.9-5.3,2.2-7.5c2.2-2.6,6.6-3.1,9.7-5.3c3.9-3.1,4.4-8.3,7-12.7
		s10.1-5.7,11.4-1.3c8.3-17.1,26.3,8.3,36.8,6.6c3.1-0.9,6.1-1.3,9.2-1.8c5.7,0.9,8.3,7,10.1,11.8l9.2,25.9c0.9,3.5,3.1,6.6,6.1,8.3
		c2.6,0.9,5.3,0,7.9,1.3c6.6,2.6,4.4,12.7-0.9,17.5c-5.3,4.8-13.2,7.5-15.4,14c-1.8,4.8-0.4,11-2.6,15.8
		C3054.8,399,3052.6,402.1,3050,405.2L3050,405.2z"/>
	<path class="st2" d="M3075.4,410.9c-2.2,0.4-4.8-0.9-6.6,0.9c-0.9,0.9-1.3,2.2-1.8,3.5c-0.4,1.8-1.8,3.5-3.1,4.4
		c-1.8,0.9-3.5,0.9-5.3,0c-1.3-1.3-1.8-3.1-0.9-4.8c0.4-0.4,1.3-0.9,1.8-1.8c3.1-2.6,0.9-7.9,3.1-11c1.3-1.8,3.5-3.9,4.8-5.7
		s1.3-2.6,3.5-3.1C3081.1,391.1,3085.1,409.6,3075.4,410.9L3075.4,410.9z"/>
	<path class="st0" d="M2871,374c0-3.9,0.4-7.9,0.9-11.8v-8.3c-2.2,0-4.8-0.4-7-0.9c-0.4,0-0.9-0.4-1.3-0.9c-0.4-0.4-0.4-0.9-0.4-1.3
		c0-3.1-3.1-5.3-5.7-6.6c-1.3-0.9-3.1-1.3-4.4-2.2v0.9c0.9,21.5,6.6,42.1,17.1,61c1.3,2.6,3.1,4.8,4.4,7.5c1.3,2.6,3.9,5.7,6.1,8.8
		c2.2,3.1,3.9,5.3,6.6,7.9c3.1,3.5,6.1,6.6,9.7,9.7c3.5,3.1,6.1,5.3,9.7,7.9c-7.5-19.7-14.5-40.4-27.2-57
		C2874.9,384.6,2872.3,379.7,2871,374L2871,374z"/>
	<path class="st14" d="M2913.5,451.2c1.3,0.9,2.2,1.8,3.5,2.2l2.6,1.3l-2.6-1.3C2916.2,452.6,2914.9,451.7,2913.5,451.2z"/>
	<path class="st0" d="M3075,366.1c5.3-4.8,7.5-14.9,0.9-17.5c-2.6-0.9-5.3,0-7.9-1.3c-3.1-1.8-5.3-4.8-6.1-8.3l-9.2-25.9
		c-1.8-5.3-4.8-11.4-10.1-11.8c-3.1,0-6.1,0.4-9.2,1.8c-10.5,1.8-28.5-23.7-36.8-6.6c-1.3-4.8-8.8-3.1-11.4,1.3s-3.1,9.7-7,12.7
		c-3.1,2.2-7.5,2.2-9.7,5.3c-1.3,2.2-2.2,4.8-2.2,7.5c-0.4,4.8-0.9,9.7-1.3,14.9c-0.9,3.9-0.4,7.9,1.3,11.8c1.8,3.5,6.1,4.8,9.7,3.1
		c0.4,0,0.4-0.4,0.9-0.4c1.3-1.3,2.2-2.6,3.1-4.4c1.8-2.2,4.8-3.5,7.9-2.6c2.2,0.9,4.4,2.2,6.1,4.4c14,14.9,18.9,36,19.7,56.1
		c0,3.9,0.4,7.5,1.3,11c2.2,3.5,4.4,7.5,6.1,11.4c0,3.5,0.4,6.6,1.3,9.7c2.6,5.7,11.4,5.7,15.8,1.8c4.4-4.4,7-10.5,7.5-16.7
		c0.4-6.1,2.2-12.3,4.8-17.5c2.6-3.1,4.8-6.1,6.6-9.2c2.2-4.8,0.4-10.5,2.6-15.8C3061.8,373.6,3069.3,371,3075,366.1L3075,366.1z"/>
	<path class="st0" d="M2871.9,349h-0.9c-2.2-0.4-5.3-0.4-6.6-2.2c-1.3-1.8,0-5.7-1.8-7.9c-0.9-0.9-2.2-1.8-3.5-2.6
		c-1.3-0.9-2.2-2.2-1.3-3.5c0.9-1.3,2.2-1.3,3.1-2.2c0.4-0.9,0.4-1.8,0-2.6c-2.6-3.1-5.3,3.1-6.6,4.4l-0.9,0.9v9.7
		c1.3,0.4,3.1,1.3,4.4,2.2c2.6,1.3,5.7,3.5,5.7,6.6c0,0.4,0,0.9,0.4,1.3c0.4,0.4,0.9,0.4,1.3,0.9c2.2,0.4,4.8,0.9,7,0.9"/>
	<path class="st0" d="M2871.9,354.3v8.3c-0.4,3.9-0.9,7.9-0.9,11.8c1.3,5.3,3.9,10.5,7.9,14.5c12.7,17.1,19.7,37.3,27.2,57
		c1.3,0.9,2.6,2.2,4.4,3.1l3.5,2.2c1.3,0.9,2.2,1.8,3.5,2.2l2.6,1.3l-0.4-0.9c-3.1-6.6-3.1-15.8,3.5-19.3c1.3-0.4,2.6-1.3,3.5-1.8
		c3.1-2.6,0.4-8.3,3.5-11c1.8-1.8,4.4-1.3,6.1-2.2c3.5-2.2,5.3-6.1,4.4-10.1c-0.9-3.9-1.3-7.9-1.3-11.8c0.9-6.1,5.3-11.8,2.6-17.5
		c-2.6-5.7-11.8-4.8-18-7.9c-8.8-3.9-11.4-14.5-17.1-21.9c-5.3-6.6-16.7-14-25.9-11.8c-5.3,0.4-9.2,4.8-9.7,10.1"/>
	<path class="st0" d="M2861.8,299c2.6-2.2,6.6-2.2,8.8,0.4c1.3,2.2,1.3,4.8,0.9,7c-0.4,3.1-0.9,6.1-1.3,9.7c-0.4,0.9-0.4,1.8,0,3.1
		c0.9,2.2,4.4,1.8,5.7,0c0.9-1.8,1.3-4.4,0.9-6.6c-0.4-2.2-0.4-4.4,0-6.6c2.2-5.3,9.7-4.4,14.5-7.9c2.6-2.6,4.4-5.3,5.7-8.8
		c1.3-3.1,4.4-5.7,7.9-5.7c1.3,0,2.2,0.4,3.5,0.4c2.6-0.4,4.4-2.6,3.9-5.3c0-0.9-0.4-1.8-0.9-2.2c-0.4-0.4-1.3-0.9-1.3-1.3
		c-0.4-1.3,0-2.6,0.9-3.5c1.3-0.9,2.2-0.9,3.5-1.3l8.8-1.3c3.1-0.4,7.5-2.2,7-5.3c-0.4-3.1-4.4-3.9-4.8-7c0-0.9,0-1.3-0.4-2.2
		c-0.9-1.8-3.5-0.9-5.3,0c-0.9-2.2-3.5-3.5-5.7-2.6c-0.4,0-0.4,0.4-0.9,0.4c-1.8,1.3-1.8,3.9-2.6,6.1c-1.8,4.8-5.3,9.2-9.7,12.7
		c-1.3,1.3-2.6,2.2-4.8,2.6c-1.8,0-3.5-1.8-3.1-3.5c0.4-1.8,2.2-1.8,2.2-3.1s-3.1-1.3-3.5-3.1c0.9-4.4,6.1-6.1,9.7-8.3
		c4.8-2.6,8.3-7,10.1-12.3c0.4-0.9,0.4-1.8,0-2.6c-0.4-0.9-2.2-1.3-3.1-1.3c-3.1,0-6.6,0.4-7.5,3.1c-0.4,1.3-0.4,3.1-0.4,4.4
		c-0.9,4.4-7,4.8-11,7.5c-1.3,1.3-2.6,2.2-4.4,3.1c-1.8,0.9-3.9,0.9-5.7,0.9h-0.9c-1.3,1.8-2.2,3.5-3.5,4.8
		c-1.3,1.8-2.2,3.5-3.1,5.3c-4.8,8.3-8.8,17.1-11.8,26.3c-0.9,3.1-2.2,6.6-2.6,9.7c-0.4,3.1-1.3,6.6-2.2,10.1
		c1.3-2.6,2.2-5.7,2.6-8.8C2857.4,303.8,2859.2,301.2,2861.8,299L2861.8,299z"/>
	<path class="st0" d="M2976.7,232.3c1.3-1.8,0.9-3.9,1.8-6.1c1.3-3.1,5.7-4.4,7.5-7.5c0.4-1.3,0.9-2.6,1.8-3.5
		c0.9-0.9,2.2-0.9,3.1-1.8c1.8-1.8,1.3-4.4,0-5.7c-0.4-0.4-0.4-0.4-0.9-0.4c-5.3-3.5-15.4,0.4-19.7,3.9c-6.1,4.4-11.8,9.7-19.7,8.8
		c-2.2-0.4-4.4-0.4-6.6,0c-2.2,0.9-3.5,3.9-1.8,5.3c0.9,0.9,2.2,0.4,3.5,0.9c1.8,1.3,2.6,3.9,1.3,5.7c-0.9,1.8-2.6,3.5-3.9,5.3
		c-1.3,1.8-1.8,3.9-1.3,6.1c0,1.3,0.9,3.1,1.8,3.9c2.6,1.8,6.1,0.4,8.3-2.2c1.8-2.6,3.9-4.8,6.1-7c1.3-0.9,3.1-1.3,4.4-1.3l10.5-2.6
		C2973.6,234.1,2975.4,233.2,2976.7,232.3L2976.7,232.3z"/>
	<path class="st14" d="M3127.2,336.7V331v7.5c0,3.1,0,6.1-0.4,8.8c0-3.1,0.4-5.7,0.4-8.8C3127.2,338.5,3127.2,336.7,3127.2,336.7z"
		/>
	<path class="st14" d="M3118.4,291.1c0.9,1.8,1.3,3.5,1.8,5.3C3119.7,294.6,3119.3,292.9,3118.4,291.1z"/>
	<path class="st0" d="M3127.2,336.7V331c0-1.8-0.4-3.9-0.4-5.7s-0.4-3.1-0.4-4.4c0-1.3-0.4-3.1-0.9-4.8c-0.9-4.8-1.8-9.7-3.1-14
		c-0.4-1.8-0.9-3.5-1.8-5.3c-0.9-1.8-1.3-3.5-1.8-5.3c-0.9-1.3-1.3-2.6-2.2-3.9c-7.5-11.8-18.4-21.5-27.2-32.9
		c-2.6-3.5-4.8-7-9.7-7.5c-7-0.9-11,3.1-15.8-3.9c-1.3-1.8-3.9-3.5-5.7-2.6c0.4,1.3,0.9,3.1,1.8,4.4v0.9c0,0.9-1.8,1.3-2.6,0.9
		c-0.9-0.9-1.3-1.3-1.8-2.6c-2.6-3.1-7-3.5-10.1-1.3l-0.4,0.4c0-1.3-0.9-2.6-2.2-3.1c-0.4,2.6-3.1,4.4-5.3,3.9h-0.4
		c-0.4-1.3,2.2-1.8,2.6-2.6c0.4-0.9,0-2.6-1.3-3.5c-2.6-2.2-6.1-3.5-9.7-3.5c-2.2,0.4-4.4,0-6.6-0.9c-0.9-0.9-1.8-1.8-3.1-2.2
		c-2.6-0.9-5.7-0.4-7.9,1.3c-3.5,1.3-6.1,4.4-7.9,7.9c-1.3,3.5,1.3,8.3,5.3,7.9c0.9-0.4,1.8-0.4,3.1-0.4c1.3,0.4,2.2,1.8,2.2,3.5
		c0,1.3,0,2.6,0.9,3.9s2.6,1.8,3.5,0.9c1.3-1.8,1.8-4.4,0.9-7c-0.9-2.2-0.4-4.8,0.4-7c1.3-1.8,5.7-1.3,5.3,0.9
		c0,1.3-1.8,2.6-1.8,3.9s1.8,2.2,3.5,2.2h4.4c1.3,0.4,2.6,2.2,1.8,3.5c-1.8,2.2-6.6-1.3-7.5,0.9c-0.4,0.9,0,1.3,0,2.2
		c0,2.2-3.1,3.1-4.8,3.1c-2.2,0.4-4.4,0.4-6.1-0.4c-2.2-0.9-3.1-3.1-2.2-5.3c-1.3-0.4-2.6,0-3.1,1.3c-0.4,1.3-0.4,2.6,0,3.9
		c-2.2-0.4-4.4,1.3-5.7,3.1s-2.6,3.9-4.8,4.8c-2.2,0.9-5.3,0-6.6,1.8s3.1,5.7,1.3,8.3c-0.9,1.3-3.1,1.3-4.4,1.8
		c-3.5,1.3-5.3,5.3-3.9,9.2c0.4,0.9,0.4,1.3,0.9,1.8c3.5,3.1,8.8,3.1,12.3,0c1.8-2.6,3.5-5.3,4.8-7.9c1.3-3.1,4.4-4.8,7.5-4.4
		c1.3,0.4,2.2,0.9,3.1,1.8l4.4,3.5c0.9,0.9,1.8,1.8,1.8,3.1c0,1.3-0.9,1.8-1.3,2.6c-0.9,2.6,3.1,5.3,5.3,3.5s2.6-4.8,0.9-7
		c-2.2-3.1-7.5-4.4-7.5-8.3c2.6-2.2,6.6,0,8.3,3.1c1.8,3.1,1.3,6.6,3.1,9.7c1.8,3.1,4.8,5.7,7.9,4.4c-0.9-2.6-1.3-5.3-2.2-7.9
		c1.8-1.3,3.9,2.6,6.6,2.2c1.3-0.4,1.8-2.6,0.9-3.5c-0.9-1.3-1.3-2.6-1.8-3.9c0-2.6,1.8-4.4,4.4-4.4h0.9c2.6,0.4,4.8,2.6,5.3,5.7
		c0,0.9,0.4,2.2,0.9,3.1c0.9,2.2,3.5,2.6,5.7,3.5s4.4,3.1,3.5,5.3c-0.4,0.9-1.3,1.8-0.9,2.6c0.4,0.9,1.8,1.3,1.8,2.2
		c0,0.9-0.4,0.9-1.3,1.3c-1.3,0.4-3.1,0.9-4.4,1.3c-1.3,0.4-2.6,1.8-2.6,3.5c0,2.2,2.6,3.1,3.9,4.8c1.3,1.8,0.9,3.9,1.8,5.7
		c0.9,1.8,1.8,3.5,3.5,4.8c3.1,5.3,5.3,11,6.1,16.7c0.9,2.6,2.2,5.3,4.8,6.1c1.3,0,3.1,0,4.4-0.9c3.9-1.3,7.5-3.5,10.5-6.1
		c3.1-3.1,3.5-7.9,0.9-11.4c-0.4-0.4-0.9-0.9-1.3-0.9c-0.9,0-1.3,0.4-2.2,0.9c-2.2,0.9-4.4,0.4-6.1-1.3c-1.8-1.3-2.6-3.5-3.5-5.3
		l-3.1-6.6c1.3-0.9,3.1-0.4,4.4,0.4c1.3,1.3,2.2,2.6,3.1,3.9c3.5,3.9,8.3,6.1,13.6,6.1c1.3,0,2.6,0.4,3.9,0.9
		c3.9,1.8,4.8,7.5,8.8,8.3c1.3,0,2.2,0.4,3.5,0.9c1.3,0.9,2.6,2.6,3.1,4.4c0.4,3.1,1.3,6.6,2.6,9.7c1.3,3.1,3.9,5.3,7.5,5.7
		c2.2,0,3.9-0.9,5.3-2.6c0-3.1,0.4-5.7,0.4-8.8C3127.2,337.6,3127.2,337.2,3127.2,336.7L3127.2,336.7z"/>
	<path class="st0" d="M3071.9,392.9c-2.2,0.4-2.6,1.8-3.5,3.1c-0.9,1.3-3.5,3.9-4.8,5.7c-2.2,3.1,0,8.3-3.1,11
		c-0.9,0.4-1.3,0.9-1.8,1.8c-1.3,1.3-0.9,3.5,0.9,4.8c1.8,0.9,3.5,0.9,5.3,0c1.8-0.9,2.6-2.6,3.1-4.4c0-1.3,0.9-2.6,1.8-3.5
		c1.8-1.3,4.4-0.4,6.6-0.9C3085.1,409.6,3081.1,391.1,3071.9,392.9L3071.9,392.9z"/>
	<path class="st7" d="M3075,366.1c5.3-4.8,7.5-14.9,0.9-17.5c-2.6-0.9-5.3,0-7.9-1.3c-3.1-1.8-5.3-4.8-6.1-8.3l-9.2-25.9
		c-1.8-5.3-4.8-11.4-10.1-11.8c-3.1,0-6.1,0.4-9.2,1.8c-10.5,1.8-28.5-23.7-36.8-6.6c-1.3-4.8-8.8-3.1-11.4,1.3s-3.1,9.7-7,12.7
		c-3.1,2.2-7.5,2.2-9.7,5.3c-1.3,2.2-2.2,4.8-2.2,7.5c-0.4,4.8-0.9,9.7-1.3,14.9c-0.9,3.9-0.4,7.9,1.3,11.8c1.8,3.5,6.1,4.8,9.7,3.1
		c0.4,0,0.4-0.4,0.9-0.4c1.3-1.3,2.2-2.6,3.1-4.4c1.8-2.2,4.8-3.5,7.9-2.6c2.2,0.9,4.4,2.2,6.1,4.4c14,14.9,18.9,36,19.7,56.1
		c0,3.9,0.4,7.5,1.3,11c2.2,3.5,4.4,7.5,6.1,11.4c0,3.5,0.4,6.6,1.3,9.7c2.6,5.7,11.4,5.7,15.8,1.8c4.4-4.4,7-10.5,7.5-16.7
		c0.4-6.1,2.2-12.3,4.8-17.5c2.6-3.1,4.8-6.1,6.6-9.2c2.2-4.8,0.4-10.5,2.6-15.8C3061.8,373.6,3069.3,371,3075,366.1L3075,366.1z"/>
	<path class="st7" d="M2906.1,445.5c1.3,0.9,2.6,2.2,4.4,3.1l3.5,2.2c1.3,0.9,2.2,1.8,3.5,2.2l2.6,1.3l-0.4-0.9
		c-3.1-6.6-3.1-15.8,3.5-19.3c1.3-0.4,2.6-1.3,3.5-1.8c3.1-2.6,0.4-8.3,3.5-11c1.8-1.8,4.4-1.3,6.1-2.2c3.5-2.2,5.3-6.1,4.4-10.1
		c-0.9-3.9-1.3-7.9-1.3-11.8c0.9-6.1,5.3-11.8,2.6-17.5c-2.6-5.7-11.8-4.8-18-7.9c-8.8-3.9-11.4-14.5-17.1-21.9
		c-5.3-6.6-16.7-14-25.9-11.8c-5.3,0.4-9.2,4.8-9.7,10.1h-0.9c-2.2-0.4-5.3-0.4-6.6-2.2s0-5.7-1.8-7.9c-0.9-0.9-2.2-1.8-3.5-2.6
		c-1.3-0.9-2.2-2.2-1.3-3.5c0.9-1.3,2.2-1.3,3.1-2.2c0.4-0.9,0.4-1.8,0-2.6c-2.6-3.1-5.3,3.1-6.6,4.4l-0.9,0.9v10.5
		c0.9,21.5,6.6,42.1,17.1,61c1.3,2.6,3.1,4.8,4.4,7.5c1.3,2.6,3.9,5.7,6.1,8.8c2.2,3.1,3.9,5.3,6.6,7.9c3.1,3.5,6.1,6.6,9.7,9.7
		C2900.4,440.7,2903,442.9,2906.1,445.5"/>
	<path class="st7" d="M2861.8,299c2.6-2.2,6.6-2.2,8.8,0.4c1.3,2.2,1.3,4.8,0.9,7c-0.4,3.1-0.9,6.1-1.3,9.7c-0.4,0.9-0.4,1.8,0,3.1
		c0.9,2.2,4.4,1.8,5.7,0c0.9-1.8,1.3-4.4,0.9-6.6c-0.4-2.2-0.4-4.4,0-6.6c2.2-5.3,9.7-4.4,14.5-7.9c2.6-2.6,4.4-5.3,5.7-8.8
		c1.3-3.1,4.4-5.7,7.9-5.7c1.3,0,2.2,0.4,3.5,0.4c2.6-0.4,4.4-2.6,3.9-5.3c0-0.9-0.4-1.8-0.9-2.2c-0.4-0.4-1.3-0.9-1.3-1.3
		c-0.4-1.3,0-2.6,0.9-3.5c1.3-0.9,2.2-0.9,3.5-1.3l8.8-1.3c3.1-0.4,7.5-2.2,7-5.3c-0.4-3.1-4.4-3.9-4.8-7c0-0.9,0-1.3-0.4-2.2
		c-0.9-1.8-3.5-0.9-5.3,0c-0.9-2.2-3.5-3.5-5.7-2.6c-0.4,0-0.4,0.4-0.9,0.4c-1.8,1.3-1.8,3.9-2.6,6.1c-1.8,4.8-5.3,9.2-9.7,12.7
		c-1.3,1.3-2.6,2.2-4.8,2.6c-1.8,0-3.5-1.8-3.1-3.5c0.4-1.8,2.2-1.8,2.2-3.1s-3.1-1.3-3.5-3.1c0.9-4.4,6.1-6.1,9.7-8.3
		c4.8-2.6,8.3-7,10.1-12.3c0.4-0.9,0.4-1.8,0-2.6c-0.4-0.9-2.2-1.3-3.1-1.3c-3.1,0-6.6,0.4-7.5,3.1c-0.4,1.3-0.4,3.1-0.4,4.4
		c-0.9,4.4-7,4.8-11,7.5c-1.3,1.3-2.6,2.2-4.4,3.1c-1.8,0.9-3.9,0.9-5.7,0.9h-0.9c-1.3,1.8-2.2,3.5-3.5,4.8
		c-1.3,1.8-2.2,3.5-3.1,5.3c-4.8,8.3-8.8,17.1-11.8,26.3c-0.9,3.1-2.2,6.6-2.6,9.7c-0.4,3.1-1.3,6.6-2.2,10.1
		c1.3-2.6,2.2-5.7,2.6-8.8C2857.4,303.8,2859.2,301.2,2861.8,299L2861.8,299z"/>
	<path class="st7" d="M2976.7,232.3c1.3-1.8,0.9-3.9,1.8-6.1c1.3-3.1,5.7-4.4,7.5-7.5c0.4-1.3,0.9-2.6,1.8-3.5
		c0.9-0.9,2.2-0.9,3.1-1.8c1.8-1.8,1.3-4.4,0-5.7c-0.4-0.4-0.4-0.4-0.9-0.4c-5.3-3.5-15.4,0.4-19.7,3.9c-6.1,4.4-11.8,9.7-19.7,8.8
		c-2.2-0.4-4.4-0.4-6.6,0c-2.2,0.9-3.5,3.9-1.8,5.3c0.9,0.9,2.2,0.4,3.5,0.9c1.8,1.3,2.6,3.9,1.3,5.7c-0.9,1.8-2.6,3.5-3.9,5.3
		c-1.3,1.8-1.8,3.9-1.3,6.1c0,1.3,0.9,3.1,1.8,3.9c2.6,1.8,6.1,0.4,8.3-2.2c1.8-2.6,3.9-4.8,6.1-7c1.3-0.9,3.1-1.3,4.4-1.3l10.5-2.6
		C2973.6,234.1,2975.4,233.2,2976.7,232.3L2976.7,232.3z"/>
	<path class="st7" d="M3127.2,336.7V331c0-1.8-0.4-3.9-0.4-5.7s-0.4-3.1-0.4-4.4c0-1.3-0.4-3.1-0.9-4.8c-0.9-4.8-1.8-9.7-3.1-14
		c-0.4-1.8-0.9-3.5-1.8-5.3c-0.9-1.8-1.3-3.5-1.8-5.3c-0.9-1.3-1.3-2.6-2.2-3.9c-7.5-11.8-18.4-21.5-27.2-32.9
		c-2.6-3.5-4.8-7-9.7-7.5c-7-0.9-11,3.1-15.8-3.9c-1.3-1.8-3.9-3.5-5.7-2.6c0.4,1.3,0.9,3.1,1.8,4.4v0.9c0,0.9-1.8,1.3-2.6,0.9
		c-0.9-0.9-1.3-1.3-1.8-2.6c-2.6-3.1-7-3.5-10.1-1.3l-0.4,0.4c0-1.3-0.9-2.6-2.2-3.1c-0.4,2.6-3.1,4.4-5.3,3.9h-0.4
		c-0.4-1.3,2.2-1.8,2.6-2.6c0.4-0.9,0-2.6-1.3-3.5c-2.6-2.2-6.1-3.5-9.7-3.5c-2.2,0.4-4.4,0-6.6-0.9c-0.9-0.9-1.8-1.8-3.1-2.2
		c-2.6-0.9-5.7-0.4-7.9,1.3c-3.5,1.3-6.1,4.4-7.9,7.9c-1.3,3.5,1.3,8.3,5.3,7.9c0.9-0.4,1.8-0.4,3.1-0.4c1.3,0.4,2.2,1.8,2.2,3.5
		c0,1.3,0,2.6,0.9,3.9s2.6,1.8,3.5,0.9c1.3-1.8,1.8-4.4,0.9-7c-0.9-2.2-0.4-4.8,0.4-7c1.3-1.8,5.7-1.3,5.3,0.9
		c0,1.3-1.8,2.6-1.8,3.9s1.8,2.2,3.5,2.2h4.4c1.3,0.4,2.6,2.2,1.8,3.5c-1.8,2.2-6.6-1.3-7.5,0.9c-0.4,0.9,0,1.3,0,2.2
		c0,2.2-3.1,3.1-4.8,3.1c-2.2,0.4-4.4,0.4-6.1-0.4c-2.2-0.9-3.1-3.1-2.2-5.3c-1.3-0.4-2.6,0-3.1,1.3c-0.4,1.3-0.4,2.6,0,3.9
		c-2.2-0.4-4.4,1.3-5.7,3.1s-2.6,3.9-4.8,4.8c-2.2,0.9-5.3,0-6.6,1.8s3.1,5.7,1.3,8.3c-0.9,1.3-3.1,1.3-4.4,1.8
		c-3.5,1.3-5.3,5.3-3.9,9.2c0.4,0.9,0.4,1.3,0.9,1.8c3.5,3.1,8.8,3.1,12.3,0c1.8-2.6,3.5-5.3,4.8-7.9c1.3-3.1,4.4-4.8,7.5-4.4
		c1.3,0.4,2.2,0.9,3.1,1.8l4.4,3.5c0.9,0.9,1.8,1.8,1.8,3.1c0,1.3-0.9,1.8-1.3,2.6c-0.9,2.6,3.1,5.3,5.3,3.5s2.6-4.8,0.9-7
		c-2.2-3.1-7.5-4.4-7.5-8.3c2.6-2.2,6.6,0,8.3,3.1c1.8,3.1,1.3,6.6,3.1,9.7c1.8,3.1,4.8,5.7,7.9,4.4c-0.9-2.6-1.3-5.3-2.2-7.9
		c1.8-1.3,3.9,2.6,6.6,2.2c1.3-0.4,1.8-2.6,0.9-3.5c-0.9-1.3-1.3-2.6-1.8-3.9c0-2.6,1.8-4.4,4.4-4.4h0.9c2.6,0.4,4.8,2.6,5.3,5.7
		c0,0.9,0.4,2.2,0.9,3.1c0.9,2.2,3.5,2.6,5.7,3.5s4.4,3.1,3.5,5.3c-0.4,0.9-1.3,1.8-0.9,2.6c0.4,0.9,1.8,1.3,1.8,2.2
		c0,0.9-0.4,0.9-1.3,1.3c-1.3,0.4-3.1,0.9-4.4,1.3c-1.3,0.4-2.6,1.8-2.6,3.5c0,2.2,2.6,3.1,3.9,4.8c1.3,1.8,0.9,3.9,1.8,5.7
		c0.9,1.8,1.8,3.5,3.5,4.8c3.1,5.3,5.3,11,6.1,16.7c0.9,2.6,2.2,5.3,4.8,6.1c1.3,0,3.1,0,4.4-0.9c3.9-1.3,7.5-3.5,10.5-6.1
		c3.1-3.1,3.5-7.9,0.9-11.4c-0.4-0.4-0.9-0.9-1.3-0.9c-0.9,0-1.3,0.4-2.2,0.9c-2.2,0.9-4.4,0.4-6.1-1.3c-1.8-1.3-2.6-3.5-3.5-5.3
		l-3.1-6.6c1.3-0.9,3.1-0.4,4.4,0.4c1.3,1.3,2.2,2.6,3.1,3.9c3.5,3.9,8.3,6.1,13.6,6.1c1.3,0,2.6,0.4,3.9,0.9
		c3.9,1.8,4.8,7.5,8.8,8.3c1.3,0,2.2,0.4,3.5,0.9c1.3,0.9,2.6,2.6,3.1,4.4c0.4,3.1,1.3,6.6,2.6,9.7c1.3,3.1,3.9,5.3,7.5,5.7
		c2.2,0,3.9-0.9,5.3-2.6c0-3.1,0.4-5.7,0.4-8.8C3127.2,337.6,3127.2,337.2,3127.2,336.7L3127.2,336.7z"/>
	<path class="st7" d="M3071.9,392.9c-2.2,0.4-2.6,1.8-3.5,3.1c-0.9,1.3-3.5,3.9-4.8,5.7c-2.2,3.1,0,8.3-3.1,11
		c-0.9,0.4-1.3,0.9-1.8,1.8c-1.3,1.3-0.9,3.5,0.9,4.8c1.8,0.9,3.5,0.9,5.3,0c1.8-0.9,2.6-2.6,3.1-4.4c0-1.3,0.9-2.6,1.8-3.5
		c1.8-1.3,4.4-0.4,6.6-0.9C3085.1,409.6,3081.1,391.1,3071.9,392.9L3071.9,392.9z"/>
	<path class="st2" d="M2998.6,484.1V546h-17.5v-61.9H2998.6z"/>
	<path class="st2" d="M2990.3,487.6c-83.3,0.9-152.2-65.8-153.1-149.1c-0.9-56.1,29.8-107.9,79-134.7l1.8-0.9l10.1,14l-3.5,2.6
		l-7.9-11c-70.6,39.5-95.6,129-56.1,200c26.3,46.9,76.3,75.4,129.8,75c33.8,0,66.7-11.4,93.4-32.5l-6.1-6.1l3.1-3.1l9.7,9.7
		l-1.8,1.8C3060.5,475.4,3025.8,487.6,2990.3,487.6L2990.3,487.6z"/>
	<path class="st2" d="M3055.2,546v10.5h-135.5V546H3055.2z"/>
</g>
</svg>
