<?xml version="1.0" encoding="utf-8"?>
<!-- Generator: Adobe Illustrator 23.0.1, SVG Export Plug-In . SVG Version: 6.00 Build 0)  -->
<svg version="1.1" id="Layer_1" xmlns="http://www.w3.org/2000/svg" xmlns:xlink="http://www.w3.org/1999/xlink" x="0px" y="0px"
	 viewBox="0 0 2500 2500" style="enable-background:new 0 0 2500 2500;" xml:space="preserve">
<style type="text/css">
	.st0{fill:#EFEFF4;}
	.st1{fill:#F0B531;}
	.st2{fill:#FFFFFF;}
	.st3{fill:#FFC93C;}
	.st4{fill:#00858E;}
	.st5{fill:#333435;}
	.st6{fill:#F5F5F5;}
	.st7{fill:#C6C9D3;}
	.st8{fill:#48494B;}
	.st9{fill:url(#SVGID_1_);}
	.st10{fill:url(#SVGID_2_);}
	.st11{fill:#5C5E61;}
	.st12{fill:#FFBE9D;}
	.st13{fill:#ECC538;}
	.st14{opacity:0.4;fill:#FFFFFF;}
	.st15{fill:url(#SVGID_3_);}
	.st16{opacity:0.6;}
	.st17{opacity:0.3;}
	.st18{opacity:0.7;fill:#FFFFFF;enable-background:new    ;}
</style>
<g id="Background">
</g>
<path class="st0" d="M1951.6,1908.3c-37.5,39.2-72.9,64.4-100.9,84.4c-329.2,234.6-718.8,166.2-801.6,149.5
	c-122.3-24.7-358.6-72.3-529.4-271.9c-258.5-301.9-218.2-777.6-17.7-1091.6c36.7-57.4,230.4-376.2,624.1-427.3
	c238.3-30.9,516.1,31.5,717.2,198.8C2265.5,901.7,2235.5,1611.5,1951.6,1908.3z"/>
<g>
	<path class="st1" d="M510.2,347.8c-2.9-9.1,7.6-16.5,15.3-10.8c77.7,58,269,236.3,266.2,586.3c-3.5,439.1,104.7,586.9,227.9,670.5
		c0,0-159.4-27.8-274.7-177.1C461.9,1050.1,562.6,509.4,510.2,347.8z"/>
	<path class="st2" d="M579,477c14.3,47.2,27.6,94.7,39.2,142.6c11.8,47.8,22.2,96,31,144.4c8.7,48.5,16.4,97,22.1,145.9
		c5.9,48.8,9.7,97.9,13.3,147.1c3.9,49.2,7.6,98.8,16.3,148.1c8.7,49.3,23.4,98.3,46.6,143.1c5.8,11.2,11.8,22.3,18.5,32.9
		c6.4,10.8,13.3,21.3,20.4,31.7c14.3,20.7,30,40.4,47.1,58.9c34.3,36.9,74.1,68.6,117,94.4c4.5,2.7,10.4,1.3,13.1-3.3
		c2.7-4.4,1.3-10.2-3-12.9l0,0c-10.3-6.6-20.4-13.2-30.3-20.3c-5-3.5-9.8-7.2-14.7-10.8c-4.7-3.8-9.6-7.4-14.2-11.3
		c-18.7-15.4-36.3-32-52.6-49.9c-32.7-35.5-60.3-76.2-82.5-119c-10.9-21.6-20.2-43.9-27.7-66.8c-7.5-23-13.3-46.5-17.7-70.4
		c-8.9-47.9-12.9-96.9-17.2-146.1c-4.3-49.2-9-98.5-15.7-147.7c-3.3-24.6-7-49.1-11.2-73.5c-2-12.2-4.3-24.4-6.5-36.6
		c-2.3-12.2-4.8-24.3-7.3-36.4c-10.1-48.5-21.7-96.6-34.8-144.3c-13.3-47.7-27.9-94.9-44.3-141.6c-0.5-1.3-1.9-2-3.3-1.6
		C579.4,474.3,578.7,475.7,579,477z"/>
</g>
<g>
	<g>
		<path class="st3" d="M683.2,1781.7c-5.2,16.8-25.8,22.9-39.4,11.8c-75.1-61.6-271.5-254.9-269.9-590.2
			c1.4-283.1-24.8-436.7-41.5-505.6c-3.5-14.6,13.6-25.2,25.1-15.6C484.2,788.3,870.1,1172.1,683.2,1781.7z"/>
		<path class="st4" d="M659.4,1783c-0.3,0.3-0.7,0.5-1.1,0.7c-3.4,1.6-7.5,0.2-9.2-3.3c-1.8-3.9-184.5-393.2-200.4-786.8
			c-0.1-3.8,2.8-7,6.6-7.1s7,2.8,7.1,6.6c15.8,390.8,197.3,777.6,199.1,781.5C662.9,1777.6,662,1781.1,659.4,1783z"/>
	</g>
</g>
<g>
	<path class="st5" d="M432.3,1877.9c0,16.2,13.3,29.5,29.5,29.5h1597.5c16.3,0,29.5-13.3,29.5-29.5l13.3-918.1
		c0-16.2-19.1-47.9-54.2-45.5L486.7,873.9c-20.4-0.5-40.1,7.3-54.5,21.7s-22.3,34.1-21.9,54.4L432.3,1877.9z"/>
	<path class="st6" d="M461.5,1849.6c0,15.4,12.6,27.9,28,27.9h1531.4c15.4,0,28-12.6,28-27.9l12.5-833.4
		c-1.5-50.2-45.4-68.2-72.1-67.1L492.9,908.9c-14.3-0.4-28.2,5.1-38.3,15.3c-10.1,10.1-15.7,24-15.4,38.3L461.5,1849.6z"/>
	<g>
		<path class="st7" d="M2032.2,1339.1C2032.2,1339.1,2032.2,1339.1,2032.2,1339.1c-2.3,0-4.1-1.5-4.1-3.2l1-52.2
			c0-1.7,1.9-3.1,4.1-3.1c0,0,0,0,0.1,0c2.3,0,4.1,1.5,4,3.2l-1,52.2C2036.3,1337.7,2034.5,1339.1,2032.2,1339.1z"/>
		<path class="st7" d="M2034.7,1211.3C2034.7,1211.3,2034.6,1211.3,2034.7,1211.3c-2.3,0-4.1-1.5-4.1-3.2l3.8-199.8
			c-0.1-11.9-4.7-21.3-13.9-28.1c-17.1-12.6-44.1-12-45.3-11.9l-478.3-9.9c-2.3,0-4.1-1.5-4-3.2c0.1-1.7,1.8-3.2,4.2-3.1l478,9.9
			c3-0.1,31.8-0.5,51,13.7c10.8,8,16.3,19,16.4,32.7l-3.8,199.8C2038.7,1209.9,2036.9,1211.3,2034.7,1211.3z"/>
	</g>
	<path class="st8" d="M353.1,1983.6h1796.4c6.9,0,12.4-5.6,12.4-12.4v-55.8c0-6.8-5.6-12.4-12.4-12.4H353.1
		c-6.9,0-12.5,5.6-12.5,12.4v55.8C340.7,1978,346.3,1983.6,353.1,1983.6z"/>
</g>
<g>
	<path class="st3" d="M801.4,1672.4c6.8-269.4,212.5-485.6,465.2-485.6s458.3,216.2,465.2,485.6h148c23.2,0,41.6-21.1,40-45.9
		c-23.5-365.2-306.9-653.6-653.2-653.6c-345.1,0-627.8,286.6-652.9,650.1c-1.8,26.7,17.7,49.4,42.6,49.4L801.4,1672.4L801.4,1672.4z
		"/>
	<path class="st2" d="M1266.5,1210.2c-8.5,0-15.4-6.9-15.4-15.4v-240c0-8.5,6.9-15.4,15.4-15.4s15.4,6.9,15.4,15.4v240
		C1281.9,1203.3,1275,1210.2,1266.5,1210.2z"/>
	<path class="st2" d="M1513.8,1281.8c-2.6,0-5.3-0.7-7.7-2.1c-7.4-4.3-9.9-13.7-5.6-21.1l115.9-200.2c4.3-7.4,13.7-9.9,21.1-5.6
		c7.4,4.3,9.9,13.7,5.6,21.1l-115.9,200.2C1524.3,1279,1519.1,1281.8,1513.8,1281.8z"/>
	<path class="st2" d="M1672.6,1470.1c-5.6,0-10.9-3-13.7-8.3c-3.9-7.6-1-16.9,6.6-20.8l193.2-100.2c7.6-3.9,16.9-1,20.8,6.6
		c3.9,7.6,1,16.9-6.6,20.8l-193.2,100.2C1677.4,1469.6,1675,1470.1,1672.6,1470.1z"/>
	<path class="st2" d="M1026.9,1284.2c-4.6,0-9.2-2.1-12.2-6l-140.2-181.8c-5.2-6.8-3.9-16.4,2.8-21.6c6.8-5.2,16.4-3.9,21.6,2.8
		l140.2,181.8c5.2,6.8,3.9,16.4-2.8,21.6C1033.5,1283.1,1030.2,1284.2,1026.9,1284.2z"/>
	<path class="st2" d="M871.3,1467.2c-2,0-4.1-0.4-6.1-1.3l-213-91.8c-7.8-3.4-11.4-12.4-8.1-20.3c3.4-7.8,12.5-11.4,20.3-8.1
		l213,91.8c7.8,3.4,11.4,12.4,8.1,20.3C882.9,1463.7,877.3,1467.2,871.3,1467.2z"/>
	<path class="st8" d="M1222.8,1590.4l-48.2-636c-0.2-2.9,3.4-3.5,4-0.6l129,613.2L1222.8,1590.4z"/>
	<circle class="st8" cx="1275.2" cy="1608.1" r="67.3"/>
	<path class="st0" d="M1273.1,1661.6c-28.3,0-51.3-23-51.3-51.3c0-28.3,23-51.3,51.3-51.3s51.3,23,51.3,51.3
		C1324.4,1638.5,1301.4,1661.6,1273.1,1661.6z M1273.1,1561.1c-27.1,0-49.1,22-49.1,49.1c0,27.1,22,49.1,49.1,49.1
		c27.1,0,49.1-22,49.1-49.1C1322.2,1583.2,1300.2,1561.1,1273.1,1561.1z"/>
</g>
<g>
	<g>
		<path class="st8" d="M1915.3,655c0-0.9-0.1-1.7-0.1-2.4c-0.1-2,0.7-3.8,2.2-5.2c8.6-7.7,40.7-34.2,86.2-42.4
			c2.4-0.4,4.6,0.7,5.8,2.4c-3.8,0.5-8.9,1.4-15.7,3.2C1971.2,616.6,1938.5,632.3,1915.3,655z"/>
		<path class="st5" d="M1993.6,610.7c6.8-1.8,11.9-2.8,15.7-3.2c1.2,1.8,1.5,4.2,0.2,6.3c-0.7,1.2-1.6,2.5-2.8,3.9
			c-7.1,8.9-64.6,67.9-64.6,67.9s-18.3,2.2-23.8-1c-1.8-1-2.7-20-3-29.5C1938.5,632.3,1971.2,616.6,1993.6,610.7z"/>
	</g>
	
		<linearGradient id="SVGID_1_" gradientUnits="userSpaceOnUse" x1="233.8585" y1="1851.142" x2="258.6855" y2="1681.2726" gradientTransform="matrix(-1 0 0 -1 2173.907 2500)">
		<stop  offset="0" style="stop-color:#979AA0"/>
		<stop  offset="1" style="stop-color:#888B8F"/>
	</linearGradient>
	<path class="st9" d="M1917.5,716.3v-35.1c0-3,1.9-5.7,4.7-6.6c4.4-1.4,11.1-2.7,17.2-0.4c3.6,1.3,6,4.7,6.3,8.5l2.6,32.8
		L1917.5,716.3z"/>
	<g>
		<path class="st5" d="M2056.8,685.2c0.4-1.4,1.2-2.5,2.3-3.4c7.4,1.5,22.7,5.5,54.2,16.6c36.5,12.9,47.1,24.1,50.2,30.1
			c-15.6,4.6-51.1,11.6-102.1,1.6l-10.1-4.7C2051.3,725.4,2052,700.9,2056.8,685.2z"/>
		<path class="st8" d="M2113.2,698.4c-31.4-11.1-46.8-15.2-54.2-16.6c1.6-1.3,3.8-2,6-1.5c18.1,3.8,72.8,16.7,101.4,39.8
			c2.9,2.3,2,6.9-1.5,8c-0.5,0.2-1,0.3-1.6,0.5C2160.3,722.5,2149.7,711.3,2113.2,698.4z"/>
	</g>
	
		<linearGradient id="SVGID_2_" gradientUnits="userSpaceOnUse" x1="108.7705" y1="1832.8608" x2="133.5977" y2="1662.9893" gradientTransform="matrix(-1 0 0 -1 2173.907 2500)">
		<stop  offset="0" style="stop-color:#979AA0"/>
		<stop  offset="1" style="stop-color:#888B8F"/>
	</linearGradient>
	<path class="st10" d="M2032.4,746.6l21.4-25.7c2.1-2.5,5.5-3.5,8.6-2.5c3.4,1.1,8,3.5,12.4,8.3c2.1,2.2,2.5,5.5,1.1,8.3l-15.6,30.2
		L2032.4,746.6z"/>
	<path class="st8" d="M1952.9,704c0,0-26.2-5-40.7,0c0,0-19.1,114.8-15.8,151.7l56.5,11.5C1952.9,867.2,1954.5,737.9,1952.9,704z"/>
	<path class="st11" d="M1721,905.2c0,0,184.8,10.4,259.8,5.2c7.3-0.5,13.9-4.8,17.2-11.4c16.1-32.2,64.3-128.7,68.5-138
		c0,0-19.6-16.4-34-18.6c0,0-68.4,76.1-71.3,115c0,0-158.5-45.6-174.1-45.2s-63.7,21.8-63.7,21.8L1721,905.2z"/>
	<path class="st12" d="M1474.7,761.1c0,0,6.8-14.1,0.9-21.5s-27.1-30.5-27.1-30.5l-2.5-15.9l-8.7,25.9l18.7,39.1
		C1456.1,758.3,1467,770.1,1474.7,761.1z"/>
	<path class="st12" d="M1427.2,826.7c6.8-24.1,16.3-47,28.8-68.5l18.7,2.9l-9.2,64.7C1458.5,828,1439.2,832.8,1427.2,826.7z"/>
	<path class="st3" d="M1415.2,889.7c2.4-21.7,6.3-42.8,12.1-63c12,6.1,31.2,1.3,38.3-0.9l-2.6,18.6l7.1-25
		c8.6-30.4,26.9-57.2,52.1-76.3l17.6-13.3c17.3-13.1,44.8-8.5,62.4,4c39.1,27.9,97.1,74.8,116.9,90.9c4.3,3.5,10.1,4.2,15.1,2
		l3.3-1.5c3.1-1.4,6.6,1.1,6.2,4.5l-8.4,76.9l-134.3-1.5c-16.1,0-62.7-1.7-70.2-16l-12.4-30.5c-29.1,24.8-66.4,41.8-86.4,46.7
		C1422.7,907.7,1414.1,899.7,1415.2,889.7z"/>
	<path class="st12" d="M1509.5,688.6l41.3,40.1c2.8,2.7,3,7,0.5,10c-12.7,15.2-23.7,23.1-32.7,23.7c-3.8,0.3-7.5-1.8-9.6-5
		l-21.9-34.6L1509.5,688.6z"/>
	<polygon class="st12" points="1426.1,886.2 1390.6,872.3 1349.3,905.2 1423.3,905.4 	"/>
	<g>
		<path class="st12" d="M1440.2,679.3c0,0,5.6,39.6,20.8,51.8s44.9,3,54.9-26.8l-19.9-51L1440.2,679.3z"/>
		<path class="st5" d="M1498.3,686.2c-1.2,0.4-2.4-0.4-2.6-1.6c-0.6-3.7-1.9-10.9-4.7-15.8c0,0,1.4-5.2-13.1,2.7
			c-14.6,7.8-36.5,19.4-49.4,12.5c-12.6-6.7-25.3-40.4,7.9-34.2c1.3,0.2,2.4-0.8,2.3-2c-0.4-5.5,0.1-18.3,13-22.4
			c12.1-3.8,18.7,1.6,21.4,4.9c0.8,1,2.3,1,3.1,0c3.6-4.7,13.4-14.8,27.9-8.4c11.9,5.3,13.8,12.6,13.6,17.2
			c-0.1,1.5,1.4,2.5,2.8,1.9c3.7-1.7,9.5-2.5,15.1,4.5c7.8,9.7-3.3,18.2-6.7,20.4c-0.6,0.4-0.9,1-0.9,1.6c0,5.1-0.8,27.2-11.9,39.6
			c-1,1.1-2.7,0.8-3.3-0.6l-8.5-20.3c-0.4-0.9-1.4-1.4-2.4-1.1L1498.3,686.2z"/>
		<path class="st12" d="M1498.1,690.3c0,0,5.2-21.2,13.1-14.3c7.9,6.9-2.1,22-11.1,24.9L1498.1,690.3z"/>
	</g>
	<path class="st1" d="M1557.5,779.7c0,0-1.6-49,18.6-50c25-1.2,65.2,16.9,41.3,88.8c-13.2,39.7-33.2,69.2-87.9,81.7
		c-2.7-20.1-11.8-34.1-18.5-42C1533.3,842.4,1552.2,817.9,1557.5,779.7z"/>
	<path class="st13" d="M1513.5,858.2c0.4,0,0.8-0.1,1.1-0.4c25.7-18.1,39.9-42.8,44.8-77.9c0-0.1,0-0.2,0-0.3
		c-0.4-13.1,1.8-47.3,16.7-48c7.2-0.3,14.8,1,21.3,3.8c1,0.4,2.2,0,2.6-1c0.4-1,0-2.2-1-2.6c-7.1-3.1-15.3-4.5-23.1-4.2
		c-21.4,1-20.5,48.1-20.4,51.9c-4.8,33.8-18.5,57.7-43.2,75c-0.9,0.6-1.1,1.8-0.5,2.7C1512.3,857.9,1512.9,858.2,1513.5,858.2z"/>
	<path class="st13" d="M1546.9,897.2c0.2,0,0.4,0,0.6-0.1c45.4-15.7,61.3-46.7,71.7-78c2.4-7.1,4.2-13.9,5.4-20.3
		c0.2-1.1-0.5-2.1-1.6-2.3c-1.1-0.2-2.1,0.5-2.3,1.5c-1.2,6.2-3,12.8-5.3,19.8c-10.1,30.3-25.4,60.4-69.2,75.5
		c-1,0.3-1.6,1.5-1.2,2.5C1545.3,896.7,1546.1,897.2,1546.9,897.2z"/>
	<path class="st12" d="M1416.1,905.2l0.1-19c0,0,53.3,1.2,94.8-28.1c6.7,7.9,15.9,21.9,18.5,42
		C1501.8,906.5,1465.2,908.4,1416.1,905.2z"/>
	<g>
		<path class="st8" d="M1484.4,911.8c-0.1,0-0.3,0-0.4,0l-169.6-0.2c-4.2,0-7.6-3.4-7.6-7.6c0-4.2,3.4-7.7,7.6-7.6l169.6,0.2
			c4.2,0,7.6,3.4,7.6,7.6C1491.6,908.3,1488.4,911.6,1484.4,911.8z"/>
		<path class="st8" d="M1162.1,757.9h141.2c10.4,0,19.9,6,24.3,15.4l65.3,138.4h-175.5c-6.7,0-12.7-4.1-15.2-10.3l-50.6-128.1
			C1148.6,765.9,1154.1,757.9,1162.1,757.9z"/>
		<path class="st6" d="M1261.5,828.8c3.1,9.5,0.8,18.7-5.1,20.6c-5.8,1.9-13.1-4.3-16.1-13.8s-0.8-18.7,5.1-20.6
			C1251.3,813.1,1258.5,819.3,1261.5,828.8z"/>
	</g>
</g>
<path class="st5" d="M973.7,1449.4l-353.9,354.7c-14.8,14.9-13.9,39.2,2.1,52.9l2.6,2.2c14.1,12.1,35.4,10.3,47.4-3.9l324.5-385.3
	L973.7,1449.4z"/>
<ellipse transform="matrix(0.9058 -0.4237 0.4237 0.9058 -429.6616 596.1826)" class="st14" cx="1126" cy="1264.4" rx="232.4" ry="228.2"/>
<path class="st5" d="M1018.4,1034.3C889,1094.9,832.3,1246.9,891.7,1374c59.4,127,212.5,181,341.9,120.4s186.1-212.6,126.7-339.6
	C1300.8,1027.8,1147.8,973.8,1018.4,1034.3z M1217.8,1460.6c-110.4,51.6-240.9,5.6-291.6-102.8s-2.3-238.1,108.1-289.7
	s240.9-5.6,291.6,102.8C1376.5,1279.3,1328.2,1409,1217.8,1460.6z"/>
<g>
	<path class="st11" d="M922.2,1393.5c-0.3,0-0.7-0.1-0.9-0.4c-3.2-5.1-6.3-10.4-9.1-15.8c-0.2-0.4-0.1-1,0.4-1.2
		c0.4-0.2,1-0.1,1.2,0.4c2.8,5.3,5.9,10.6,9.1,15.6c0.3,0.4,0.1,1-0.3,1.3C922.5,1393.4,922.4,1393.4,922.2,1393.5z M893.8,1328.4
		c-0.4,0-0.8-0.2-1-0.7c-4.3-16-6.8-32.5-7.6-49c-2.2-46.8,9.6-93.1,34-133.8c25-41.7,61.7-74.8,106.2-95.6
		c41.8-19.6,87.9-27,133.3-21.4c0.5,0.1,0.9,0.5,0.8,1c-0.1,0.5-0.5,0.9-1,0.8c-45-5.5-90.8,1.8-132.3,21.2
		c-44.1,20.7-80.6,53.4-105.4,94.8c-24.2,40.4-35.9,86.3-33.7,132.8c0.8,16.4,3.3,32.8,7.5,48.6c0.1,0.5-0.2,1-0.7,1.1
		C893.9,1328.4,893.8,1328.4,893.8,1328.4z"/>
</g>
<path class="st11" d="M653.3,1855.7c-14.9,1.5-25.1-2.8-30.3-12.7c-5.3-10.1-3.3-22.6,5-31.2l41.9-43.9c0.3-0.4,0.9-0.4,1.3,0
	c0.4,0.3,0.4,0.9,0,1.3l-41.9,43.9c-7.7,8.1-9.6,19.8-4.7,29.1c4.8,9.2,14.3,13.1,28.5,11.7c0.2,0,0.3,0,0.5-0.1
	c0.5-0.1,1,0.3,1,0.8c0,0.5-0.3,0.9-0.8,1C653.6,1855.6,653.5,1855.6,653.3,1855.7z"/>
<path class="st4" d="M683.6,1755.8c-0.3,0-0.5-0.1-0.7-0.3c-0.4-0.3-0.4-0.9,0-1.3l5.4-5.7c0.3-0.4,0.9-0.4,1.3,0
	c0.4,0.3,0.4,0.9,0,1.3l-5.4,5.7C684,1755.7,683.8,1755.8,683.6,1755.8z"/>
<path class="st12" d="M719.7,1814.3l-50.5,12.6l12.6,94.8c0,0-19,19-25.3,44.2s-12.2,131.4-12.2,131.4l-12,7.3l-1.5,6.1l34.9,46.9
	l-5.8-37.4c-0.9-5.9,0.7-17.9,0.2-18.2c19-50.6,59.5-193,59.5-193L719.7,1814.3L719.7,1814.3z"/>
<path class="st12" d="M734.4,2111.3c-0.5,0-1.1,0-1.6,0c2.4-30.5,13.6-164.6,24.8-214.9c12.6-56.9-19-170.6-19-170.6l-56.9,56.9
	l31.6,107.4c-21.7,32.5,3.5,222.7,3,222.6l0,0.4l-8.2,11.3l1,6.1l50.4,29.7l-19.8-32.2C736.5,2123.1,734.8,2117.3,734.4,2111.3z"/>
<path class="st12" d="M670.5,1473.6c0,0-110.7,124.8,0,188.8l11.3-8.2c0,0-55-52.6,0-117.1L670.5,1473.6z"/>
<path class="st5" d="M762.8,2165h-16.1c-3,0-5.8-1.4-7.7-3.8c-5-6.5-15.4-19.2-20.4-19.5c-6.7-0.4-5.8,23.3-5.8,23.3h-3.8l-4.7-29.5
	c-1.2-7.4,2.5-14.8,9.2-18.3l0,0c0,0,1.5,11.3,9.8,16.3c8.3,5,33.7,22.9,33.7,22.9s3.1-0.4,6.5,0.2
	C768.7,2157.5,768,2165,762.8,2165z"/>
<path class="st5" d="M667,2163.2l-14.8-6.2c-2.8-1.2-4.8-3.5-5.6-6.4c-2.1-7.9-6.7-23.7-11.2-25.9c-6-3-14.4,19.2-14.4,19.2
	l-3.5-1.4l7.1-29.1c1.8-7.3,8-12.7,15.5-13.3l0,0c0,0-3,11,2.7,18.8c5.7,7.8,22.2,34.2,22.2,34.2s3,0.8,6,2.7
	C675.3,2158.5,671.8,2165.2,667,2163.2z"/>
<path class="st4" d="M753.1,1629.6c0,0-1.9,11.4,0.9,42.7s15.7,104.8,13.1,175.2c0,0-37,8.6-101.3,4.5c0,0-27.1-109.8-20.5-151.6
	s42.5-71.7,42.5-71.7L753.1,1629.6z"/>
<polygon class="st12" points="725.8,1420.4 730.3,1473.6 687.3,1473.6 698,1392.4 "/>
<path class="st4" d="M674.6,1466.2c14.8-0.8,48-2.3,71.5-1.1c12.4,0.7,22.7,9.6,25.3,21.7l5.7,27.4c2.1,10.2,1.8,20.8-0.9,30.9
	l-23,84.5c0,0-20.5,12.3-65.4-0.9c0,0-39.5-94.1-23.3-154.3C665.7,1469.8,669.8,1466.5,674.6,1466.2z"/>
<path class="st12" d="M770.2,1481.9c6.3,16.7,12,34.2,18.2,50.5c3.1,8.2,6.3,16.2,9.7,23.6c1.7,3.7,3.6,7.1,5.3,10.1
	c1.7,3,3.7,5.6,4.7,6.7c0.2,0.2-0.5,0.3-0.7,0.3c-0.1,0,4.3,0.7,5.6,0.9l5.3,0c7.6-0.4,16.2-1.7,24.8-3.4c17.4-3.2,35.4-7.8,54-11.2
	l0.1,0c3.5-0.7,7,1.7,7.6,5.2c0.4,2.3-0.5,4.6-2.1,6.1c-7.5,6.6-15.4,12-23.6,17.3c-4.1,2.5-8.3,5-12.6,7.4
	c-4.4,2.2-8.7,4.5-13.3,6.5c-9.2,4-18.6,7.7-29.5,10c-2.9,0.5-5.7,1-8.6,1.4c-3.3,0.1-6.3,0.4-9.9,0.2c-1.9-0.2-3.8-0.4-5.8-0.7
	c-1-0.2-1.8-0.2-3-0.5c-1.3-0.4-2.6-0.8-3.9-1.3c-2.7-1-4.5-2.2-6.7-3.4c-1.8-1.2-3.5-2.5-5.1-3.8c-6-5.1-9.7-10.1-12.9-14.9
	c-3.3-4.8-5.8-9.7-8.1-14.4c-4.6-9.5-8.3-18.8-11.2-28.3c-6-18.9-10-37.6-11.7-57.3c-0.8-9.5,6.2-17.8,15.7-18.6
	c7.8-0.7,14.9,4,17.6,11L770.2,1481.9z"/>
<linearGradient id="SVGID_3_" gradientUnits="userSpaceOnUse" x1="972.5447" y1="942.8391" x2="691.3737" y2="943.9639" gradientTransform="matrix(1 0 0 -1 0 2500)">
	<stop  offset="0" style="stop-color:#74767B"/>
	<stop  offset="1" style="stop-color:#5C5E61"/>
</linearGradient>
<path class="st15" d="M891.2,1568l7.7-18.2l40.4-10.1c0,0,3.2,7-13.7,10.1c0,0,6,6.7,2.8,14.6C925.1,1572.2,890.8,1580.1,891.2,1568
	z"/>
<path class="st12" d="M744,1359c1.5,0.9,13.6,43.5,3.5,61.4s-41.1-2.2-49.5-28C689.6,1366.5,703.1,1334.9,744,1359z"/>
<path class="st5" d="M663.8,1392.4c-6.9,34-29.9,24.7-46.2,39.8c-26.4,24.5-64.1-0.8-100.8,22.5c-26.5,16.8-39.3,59.7-26.5,94.3
	c17.6,48,77.8,67.7,109,53.1c29.8-14,25.6-55.8,65.7-72c17-6.9,25.4-2.4,35.6-12.6c17.8-17.8,13-52.4,11.2-65.7
	c-4-28.9-13.7-34.1-9.1-46.8c9-24.7,51-19.6,54.5-37c3.2-15.9-27.3-46-55.9-41.2C656.8,1334.2,666.9,1377.2,663.8,1392.4z"/>
<path class="st11" d="M503.4,1540.9c-0.5,0-1-0.4-1.1-0.9c-5.7-23.6-3.1-42.9,7.6-57.4c17.8-24.1,52.5-26.5,52.9-26.6
	c0.5-0.1,1.2,0.4,1.2,1.1s-0.5,1.2-1.1,1.2c-0.3,0-34,2.3-51.2,25.6c-10.3,14-12.8,32.6-7.3,55.5c0.1,0.6-0.2,1.3-0.9,1.4
	C503.6,1540.8,503.5,1540.9,503.4,1540.9z"/>
<path class="st11" d="M617,1562.4c0,0-0.1,0-0.2,0c-0.3-0.1-0.5-0.4-0.4-0.7c5.5-21.2,15.2-35.9,28.8-43.8
	c9.9-5.7,19.2-6.2,27.3-6.7c7.9-0.4,14.7-0.8,20.2-5.7c11.3-10.1,10.7-34.3-2-71.9c-0.1-0.3,0.1-0.6,0.4-0.7s0.6,0.1,0.7,0.4
	c12.8,38.2,13.3,62.8,1.6,73.2c-5.8,5.1-12.8,5.5-20.9,6c-8,0.5-17.2,1-26.8,6.6c-13.3,7.7-22.8,22.2-28.3,43.1
	C617.5,1562.3,617.3,1562.4,617,1562.4z"/>
<path class="st11" d="M680.2,1383.9c-0.1,0-0.1,0-0.2,0c-0.3-0.1-0.5-0.4-0.4-0.7c4.4-13.1,17-11.1,30.5-9.1
	c8.5,1.3,17.3,2.7,24.7,0.4c5.5-1.7,8.8-4.2,9.8-7.6c1.6-5.8-4.1-12.2-4.1-12.3c-0.2-0.2-0.2-0.6,0-0.8c0.2-0.2,0.6-0.2,0.8,0
	c0.3,0.3,6.2,7,4.4,13.3c-1.1,3.8-4.6,6.6-10.6,8.4c-7.7,2.3-16.6,0.9-25.2-0.4c-13.5-2.1-25.1-3.9-29.2,8.3
	C680.7,1383.8,680.4,1383.9,680.2,1383.9z"/>
<g>
	<path class="st4" d="M1385.8,431.5l-643.8-3.1c-7.8-0.1-14.1,8.5-14,19.1l1.4,254.7c0.1,10.6,6.5,19.1,14.3,18.8l640.2-13.7
		c7.4-0.3,13.4-8.5,13.5-18.7l2.2-237.9C1399.7,440.2,1393.5,431.6,1385.8,431.5z"/>
	<path class="st4" d="M743.3,705c-1.3,0-2.4-1.3-2.4-2.8l-1.4-254.7c0-0.7,0.2-1.4,0.6-1.9c0.5-0.6,1.1-1,1.8-1l643.8,3.1
		c0.7,0,1.3,0.4,1.8,1c0.4,0.5,0.6,1.2,0.6,1.9l-2.2,237.9c0,1.6-1,2.8-2.3,2.8h0L743.3,705z M741.8,446.7c-0.1,0.2-0.2,0.4-0.2,0.7
		l1.4,254.7c0,0.4,0.2,0.6,0.2,0.7l640.1-13.7c0.1,0,0.2-0.3,0.2-0.7l2.2-237.9c0-0.3-0.1-0.5-0.2-0.6L741.8,446.7z"/>
	<g class="st16">
		<rect x="768" y="563.2" class="st2" width="31.3" height="119.7"/>
		<rect x="820.4" y="604.3" class="st2" width="31.3" height="78.6"/>
		<rect x="872.7" y="502.6" class="st2" width="31.3" height="180.3"/>
		<rect x="925.1" y="639.6" class="st2" width="31.3" height="43.3"/>
		<rect x="977.4" y="526.7" class="st2" width="31.3" height="156.2"/>
		<rect x="1029.8" y="553.8" class="st2" width="31.3" height="129.1"/>
		<rect x="1082.1" y="583.2" class="st2" width="31.3" height="99.8"/>
		<rect x="1134.5" y="466.2" class="st2" width="31.3" height="216.7"/>
		<rect x="1186.8" y="489.1" class="st2" width="31.3" height="193.8"/>
		<rect x="1239.2" y="523.8" class="st2" width="31.3" height="159.1"/>
		<rect x="1291.6" y="643.6" class="st2" width="31.3" height="39.3"/>
		<rect x="1343.9" y="567.3" class="st2" width="31.3" height="115.6"/>
	</g>
</g>
<g>
	<g>
		<g class="st17">
			<path class="st1" d="M1847.2,1798.9c-3,1.7-6.8,0.7-8.5-2.3c-3.3-5.8-7-11.6-10.8-17.1c-1.9-2.8-1.3-6.6,1.5-8.6
				c0,0,0.1-0.1,0.1-0.1c2.8-2,6.7-1.3,8.7,1.6c4.1,5.8,7.9,11.9,11.4,18c1.6,2.8,0.8,6.3-1.8,8.2
				C1847.6,1798.6,1847.4,1798.8,1847.2,1798.9z M1807.2,1753.8c-4.6-5-9.4-9.8-14.3-14.3c-2.5-2.3-2.7-6.3-0.4-8.8
				c2.3-2.6,6.3-2.7,8.8-0.4c5.2,4.8,10.3,9.8,15.1,15.1c2.3,2.5,2.2,6.5-0.4,8.8c-0.2,0.2-0.4,0.3-0.6,0.5
				C1813,1756.4,1809.4,1756.1,1807.2,1753.8z M1767.2,1719c-5.5-3.8-11.3-7.4-17.2-10.7c-3-1.7-4.1-5.5-2.3-8.5
				c1.7-3,5.5-4.1,8.5-2.3c6.2,3.5,12.2,7.3,18.1,11.3c2.8,2,3.6,5.8,1.6,8.7c-0.4,0.6-0.9,1.1-1.5,1.5
				C1772.3,1720.4,1769.4,1720.5,1767.2,1719z M1720.3,1694.1c-6.3-2.5-12.7-4.7-19.1-6.6c-3.3-1-5.2-4.5-4.2-7.8
				c1-3.3,4.5-5.2,7.8-4.2c6.8,2,13.6,4.4,20.2,7c3.2,1.3,4.8,4.9,3.5,8.1c-0.4,1.2-1.2,2.1-2.1,2.8
				C1724.6,1694.5,1722.4,1694.9,1720.3,1694.1z M1669.1,1680.2c-6.6-1-13.4-1.8-20.1-2.2c-3.4-0.2-6.1-3.2-5.8-6.7
				c0.2-3.4,3.2-6.1,6.7-5.8c7.1,0.5,14.2,1.3,21.2,2.3c3.4,0.5,5.8,3.7,5.2,7.1c-0.3,1.7-1.2,3.2-2.5,4.1
				C1672.4,1680,1670.8,1680.4,1669.1,1680.2z M1616.1,1677.9c-6.7,0.5-13.5,1.2-20.1,2.3c-3.4,0.5-6.6-1.8-7.1-5.2
				c-0.5-3.4,1.8-6.6,5.2-7.1c7-1.1,14.1-1.9,21.2-2.4c3.4-0.2,6.4,2.4,6.7,5.8c0.2,2.2-0.9,4.3-2.6,5.5
				C1618.4,1677.4,1617.3,1677.9,1616.1,1677.9z M1418.2,1799.4c-3-1.7-4.1-5.5-2.3-8.5c3.5-6.2,7.3-12.2,11.3-18.1
				c2-2.8,5.9-3.6,8.7-1.6c2.8,2,3.6,5.8,1.6,8.7c-3.8,5.5-7.4,11.3-10.8,17.2c-0.5,0.8-1.1,1.5-1.8,2
				C1423,1800.4,1420.4,1800.6,1418.2,1799.4z M1563.9,1687.5c-6.4,1.9-12.9,4.2-19.1,6.7c-3.2,1.3-6.8-0.3-8.1-3.5s0.3-6.8,3.5-8.1
				c6.6-2.6,13.3-5,20.1-7.1c3.3-1,6.8,0.9,7.8,4.2c0.8,2.6-0.2,5.4-2.3,6.9C1565.2,1687,1564.6,1687.3,1563.9,1687.5z
				 M1449.2,1754.6c-2.5-2.3-2.7-6.3-0.4-8.8c4.8-5.2,9.9-10.3,15.1-15.1c2.5-2.3,6.5-2.2,8.8,0.4s2.2,6.5-0.4,8.8
				c-5,4.6-9.8,9.4-14.3,14.3c-0.3,0.3-0.6,0.6-0.9,0.8C1454.7,1756.7,1451.4,1756.6,1449.2,1754.6z M1515.2,1708.6
				c-5.8,3.3-11.6,7-17.1,10.8c-2.8,2-6.7,1.3-8.7-1.6c-1.9-2.8-1.3-6.6,1.5-8.6c0,0,0.1-0.1,0.1-0.1c5.8-4,11.9-7.9,18-11.4
				c3-1.7,6.8-0.7,8.5,2.3c1.6,2.8,0.8,6.3-1.8,8.2C1515.6,1708.3,1515.4,1708.4,1515.2,1708.6z"/>
			<path class="st1" d="M1406.7,1839c1-0.7,1.8-1.7,2.2-3c1.1-3,2.2-6.1,3.4-9.1c1.3-3.2-0.3-6.8-3.5-8.1c-3.2-1.3-6.8,0.3-8.1,3.5
				c-1.3,3.2-2.5,6.4-3.6,9.6c-1.1,3.3,0.6,6.8,3.8,8C1403,1840.5,1405.1,1840.1,1406.7,1839z"/>
		</g>
		<g class="st17">
			<path class="st1" d="M1419,2029.2c2.4-1.8,3.3-5.1,1.9-7.9c-1.4-2.9-2.9-5.8-4.2-8.8c-1.4-3.1-5.1-4.5-8.3-3.1
				c-3.2,1.4-4.5,5.1-3.1,8.3c1.4,3.1,2.9,6.2,4.4,9.3c1.6,3.1,5.3,4.3,8.4,2.8C1418.4,2029.6,1418.7,2029.4,1419,2029.2z"/>
			<path class="st1" d="M1768.9,2124.1c-2.9,1.9-6.8,1.1-8.7-1.8c-1.9-2.9-1.1-6.8,1.8-8.6c5.5-3.6,10.9-7.5,16.2-11.6
				c2.7-2.1,6.7-1.6,8.8,1.1c2.1,2.7,1.6,6.7-1.1,8.8c-2.3,1.8-4.6,3.5-6.9,5.2C1775.7,2119.5,1772.3,2121.8,1768.9,2124.1z
				 M1802.5,2089.3c-2.5-2.4-2.5-6.4-0.1-8.8c4.6-4.7,9.1-9.7,13.3-14.8c2.2-2.7,6.1-3,8.8-0.8s3,6.1,0.8,8.8
				c-4.4,5.4-9.2,10.6-14,15.6c-0.3,0.3-0.5,0.5-0.8,0.7C1808.2,2091.7,1804.8,2091.5,1802.5,2089.3z M1739.1,2140.6
				c-6.3,3-12.8,5.7-19.3,8.1c-3.2,1.2-6.8-0.4-8-3.7c-1.2-3.2,0.4-6.8,3.7-8c6.2-2.3,12.4-4.9,18.4-7.7c3.1-1.5,6.8-0.1,8.3,3
				c1.3,2.8,0.4,6-2,7.7C1739.8,2140.3,1739.5,2140.5,1739.1,2140.6z M1836.7,2048c-2.9-1.8-3.8-5.7-2-8.6
				c3.5-5.6,6.8-11.5,9.8-17.4c1.6-3.1,5.3-4.3,8.4-2.8c3.1,1.6,4.3,5.3,2.8,8.4c-3.2,6.2-6.6,12.4-10.3,18.3
				c-0.4,0.7-1,1.3-1.7,1.8C1841.7,2049.2,1838.9,2049.4,1836.7,2048z M1687.1,2158.4c-6.8,1.5-13.7,2.7-20.7,3.7
				c-3.4,0.5-6.6-1.9-7-5.4c-0.5-3.4,1.9-6.6,5.4-7c6.6-0.9,13.2-2.1,19.6-3.5c3.4-0.8,6.7,1.4,7.5,4.8c0.6,2.5-0.5,5-2.4,6.4
				C1688.7,2157.9,1688,2158.2,1687.1,2158.4z M1632.5,2164.3c-7,0-14-0.3-20.9-0.9c-3.4-0.3-6-3.3-5.7-6.8c0.3-3.4,3.3-6,6.8-5.7
				c6.6,0.6,13.3,0.9,19.9,0.9c3.4,0,6.3,2.8,6.2,6.3c0,2.1-1,3.9-2.6,5.1C1635.1,2163.9,1633.8,2164.3,1632.5,2164.3z
				 M1577.8,2158.2c-6.8-1.5-13.6-3.4-20.3-5.5c-3.3-1-5.1-4.6-4.1-7.8c1-3.3,4.6-5.1,7.8-4.1c6.3,2,12.8,3.7,19.3,5.2
				c3.4,0.8,5.5,4.1,4.7,7.5c-0.3,1.6-1.2,2.8-2.4,3.7C1581.5,2158.2,1579.7,2158.6,1577.8,2158.2z M1525.9,2140.3
				c-6.3-3-12.6-6.3-18.6-9.8c-3-1.7-4-5.6-2.3-8.6c1.7-3,5.6-4,8.6-2.3c5.7,3.3,11.7,6.4,17.6,9.3c3.1,1.5,4.4,5.2,3,8.3
				c-0.5,1-1.2,1.8-2,2.4C1530.4,2141,1528,2141.3,1525.9,2140.3z M1479.1,2111.4c-5.5-4.3-10.8-8.9-15.9-13.6
				c-2.5-2.4-2.7-6.3-0.3-8.8c2.3-2.5,6.3-2.7,8.8-0.3c4.8,4.5,9.9,8.9,15.2,12.9c2.7,2.1,3.2,6.1,1.1,8.8c-0.4,0.5-0.8,0.9-1.3,1.2
				C1484.4,2113.2,1481.3,2113.2,1479.1,2111.4z M1439.8,2073c-3.3-4-6.4-8.1-9.4-12.2c-1.1-1.5-2.2-3-3.2-4.5
				c-2-2.8-1.3-6.8,1.6-8.7c2.8-2,6.7-1.3,8.7,1.6c1,1.4,2,2.9,3,4.3c2.8,3.9,5.9,7.9,9,11.6c2.2,2.7,1.8,6.6-0.9,8.8
				c-0.1,0.1-0.2,0.2-0.3,0.2C1445.6,2076,1441.9,2075.6,1439.8,2073z"/>
			<path class="st1" d="M1866.7,1999.1c1-0.7,1.8-1.8,2.2-3c1.1-3.2,2.2-6.5,3.1-9.8c1-3.3-0.9-6.8-4.2-7.8c-3.3-1-6.8,0.9-7.8,4.2
				c-0.9,3.1-1.9,6.2-3,9.3c-1.1,3.3,0.6,6.8,3.9,7.9C1863,2000.7,1865.1,2000.3,1866.7,1999.1z"/>
		</g>
		<g>
			<path class="st1" d="M1819.8,1902.7c0.1-1.3-0.7-2.4-1.8-2.9l-32.9-13.5c-2.8-16.4-8.3-32.4-16.5-47.4l17.4-31
				c0.6-1.1,0.5-2.4-0.4-3.4l-28.4-31.9c-0.8-0.9-2.2-1.2-3.3-0.8l-32.8,13.7c-14-9.8-29.3-17.1-45.2-21.9l-9.6-34.2
				c-0.3-1.2-1.4-2.1-2.6-2.1l-42.6-2.5c-1.2-0.1-2.4,0.7-2.9,1.8l-13.5,32.9c-16.4,2.8-32.4,8.3-47.4,16.5l-31-17.4
				c-1.1-0.6-2.4-0.5-3.4,0.4l-31.9,28.4c-0.9,0.8-1.2,2.2-0.8,3.3l13.7,32.8c-9.8,14-17.1,29.3-21.9,45.2l-34.2,9.6
				c-1.2,0.3-2.1,1.4-2.1,2.6l-2.5,42.6c-0.1,1.2,0.7,2.4,1.8,2.9l32.9,13.5c2.8,16.4,8.3,32.4,16.5,47.4l-17.4,31
				c-0.6,1.1-0.5,2.4,0.4,3.4l28.4,31.9c0.8,0.9,2.2,1.2,3.3,0.8l32.8-13.7c14,9.8,29.3,17.1,45.2,21.9l9.6,34.2
				c0.3,1.2,1.4,2.1,2.6,2.1l42.6,2.5c1.2,0.1,2.4-0.6,2.9-1.8l13.5-32.9c16.4-2.8,32.4-8.3,47.4-16.5l31,17.4
				c1.1,0.6,2.4,0.5,3.4-0.4l31.9-28.4c0.9-0.8,1.2-2.2,0.8-3.3l-13.7-32.8c9.8-14,17.1-29.3,21.9-45.2l34.2-9.6
				c1.2-0.3,2.1-1.4,2.1-2.6L1819.8,1902.7z"/>
			<path class="st18" d="M1651.4,1951.2c-21,10.9-46.9,2.7-57.8-18.2c-5.3-10.2-6.3-21.8-2.9-32.7c3.4-10.9,10.9-19.8,21.1-25.1
				c21-10.9,46.9-2.7,57.8,18.2c9.9,19.1,4.1,42.3-12.9,54.5C1655.1,1949.1,1653.3,1950.2,1651.4,1951.2z M1600.2,1903.3
				c-2.6,8.4-1.9,17.3,2.2,25.1c8.4,16.1,28.3,22.3,44.3,14c16.1-8.4,22.3-28.3,14-44.3s-28.3-22.3-44.3-14
				c-1.5,0.8-2.8,1.6-4.2,2.6C1606.6,1890.7,1602.4,1896.4,1600.2,1903.3z"/>
			<path class="st18" d="M1692.3,1998.6c2.9-2.1,5.7-4.4,8.4-6.8l0,0c0.9-0.8,1.7-1.5,2.5-2.3c4.1-3.9,7.9-8.1,11.3-12.6
				c0.1-0.1,0.1-0.1,0.1-0.2c0.1-0.2,0.3-0.3,0.4-0.5c0.3-0.3,0.5-0.7,0.8-1c0.7-0.9,0.6-2.1,0-2.9c-0.2-0.2-0.3-0.4-0.6-0.6
				c-1.1-0.8-2.7-0.6-3.5,0.5c-4.2,5.7-9,11.1-14.4,15.8c-26.6,23.7-62.3,30.6-94.3,21.5c-17.8-5-34.3-15-47.5-29.8
				c-2.3-2.6-4.5-5.3-6.5-8.1c-13.5-18.7-20.1-41.2-18.8-64.6c1.6-26.8,13.5-51.4,33.5-69.2c41.4-36.8,105-33.1,141.8,8.3
				c2.3,2.6,4.4,5.2,6.4,8c8.6,11.9,14.5,25.6,17.3,40c0.1,0.4,0.2,0.7,0.4,1c0.6,0.8,1.5,1.2,2.5,1c1.4-0.3,2.3-1.6,2-2.9
				c-2.9-15.2-9.1-29.5-18.1-42c-2.1-2.9-4.3-5.7-6.7-8.3c-38.7-43.4-105.4-47.3-148.9-8.7c-21,18.7-33.5,44.5-35.2,72.6
				c-1.4,24.5,5.5,48.2,19.7,67.8c2.1,2.9,4.4,5.7,6.8,8.5c18.7,21,44.5,33.5,72.6,35.2C1649,2019.7,1672.7,2012.8,1692.3,1998.6z"
				/>
		</g>
	</g>
	<g>
		<g class="st17">
			<path class="st1" d="M2117.2,1806.9c1.4-1,2-2.8,1.4-4.4c-1.1-3.1-2.3-6.2-3.6-9.2c-0.8-2-3.1-2.9-5.1-2.1
				c-2,0.8-2.9,3.1-2.1,5.1c1.2,2.9,2.4,5.8,3.4,8.8c0.7,2,2.9,3.1,4.9,2.3C2116.6,1807.3,2116.9,1807.2,2117.2,1806.9z"/>
			<path class="st1" d="M2104.4,1780.2c-1.9,1.1-4.2,0.4-5.3-1.4c-2.7-4.7-5.7-9.2-8.8-13.6c-0.7-0.9-1.3-1.8-2-2.8
				c-1.3-1.7-0.9-4.1,0.8-5.4c1.7-1.2,4.1-0.9,5.4,0.8c0.7,0.9,1.4,1.9,2.1,2.9c3.3,4.6,6.4,9.4,9.3,14.3c1,1.7,0.5,3.9-1.1,5.1
				C2104.6,1780.1,2104.5,1780.1,2104.4,1780.2z M2075.5,1747.6c-4.5-4.7-9.4-9.1-14.5-13.2c-1.7-1.3-1.9-3.8-0.6-5.4
				c1.3-1.7,3.8-1.9,5.4-0.6c5.3,4.3,10.4,8.9,15.2,13.9c1.5,1.5,1.4,4-0.1,5.5c-0.1,0.1-0.3,0.3-0.4,0.4
				C2079,1749.1,2076.9,1748.9,2075.5,1747.6z M2045,1723c-5.5-3.4-11.4-6.5-17.3-9.3c-1.9-0.9-2.8-3.2-1.9-5.1s3.2-2.8,5.1-1.9
				c6.2,2.8,12.3,6.1,18.1,9.7c1.8,1.1,2.4,3.5,1.3,5.3c-0.3,0.4-0.6,0.8-1,1.1C2048.1,1723.7,2046.4,1723.8,2045,1723z
				 M2009.4,1706.7c-6.2-2-12.6-3.6-19-4.8c-2.1-0.4-3.5-2.4-3.1-4.5c0.4-2.1,2.4-3.5,4.5-3.1c6.7,1.2,13.4,2.9,19.9,5
				c2,0.6,3.2,2.8,2.5,4.8c-0.3,0.8-0.8,1.5-1.4,2C2011.9,1706.8,2010.7,1707.1,2009.4,1706.7z M1971,1699.5
				c-6.5-0.4-13.1-0.4-19.6,0c-2.1,0.1-4-1.5-4.1-3.6s1.5-4,3.6-4.1c6.8-0.4,13.7-0.4,20.6,0c2.1,0.1,3.8,2,3.6,4.1
				c-0.1,1.2-0.7,2.2-1.6,2.9C1972.8,1699.3,1971.9,1699.6,1971,1699.5z M1931.9,1702c-6.4,1.2-12.8,2.8-19,4.8
				c-2,0.7-4.2-0.5-4.8-2.5s0.5-4.2,2.5-4.9c6.5-2.1,13.2-3.8,19.9-5c2.1-0.4,4.1,1,4.5,3.1c0.3,1.5-0.4,3-1.5,3.8
				C1933,1701.6,1932.5,1701.8,1931.9,1702z M1894.6,1713.9c-5.9,2.7-11.7,5.9-17.3,9.3c-1.8,1.1-4.2,0.6-5.3-1.2
				c-1.1-1.8-0.6-4.2,1.2-5.3c5.8-3.6,11.9-6.9,18.1-9.8c1.9-0.9,4.2-0.1,5.1,1.9c0.8,1.7,0.2,3.7-1.2,4.8
				C1895.1,1713.6,1894.9,1713.8,1894.6,1713.9z M1841.5,1747.9c-1.5-1.5-1.6-3.9-0.1-5.5c4.1-4.2,8.5-8.3,13.1-12.2
				c0.7-0.6,1.4-1.2,2.1-1.7c1.6-1.4,4.1-1.1,5.4,0.6c1.3,1.7,1.1,4.1-0.6,5.4c-0.7,0.5-1.3,1.1-2,1.6c-4.4,3.7-8.6,7.6-12.5,11.6
				c-0.2,0.2-0.3,0.3-0.5,0.4C1844.9,1749.3,1842.8,1749.2,1841.5,1747.9z"/>
		</g>
		<g class="st17">
			<path class="st1" d="M2057.2,1994.8c-5.5,3.9-11.3,7.4-17.2,10.6c-1.9,1-4.2,0.3-5.2-1.6s-0.3-4.2,1.6-5.2
				c5.6-3,11.2-6.4,16.4-10.1c1.7-1.2,4.1-0.8,5.4,0.9C2059.4,1991.1,2059,1993.5,2057.2,1994.8
				C2057.2,1994.8,2057.2,1994.8,2057.2,1994.8z M2067.6,1981.9c-1.4-1.6-1.3-4,0.3-5.4c4.8-4.3,9.3-8.9,13.5-13.8
				c1.4-1.6,3.8-1.8,5.4-0.4c1.6,1.4,1.8,3.8,0.4,5.4c-4.4,5.1-9.2,9.9-14.2,14.4c-0.1,0.1-0.2,0.2-0.3,0.3
				C2071.1,1983.6,2068.9,1983.4,2067.6,1981.9z M2021.6,2013.9c-6.3,2.4-12.8,4.5-19.3,6.2c-2.1,0.5-4.2-0.7-4.7-2.8
				c-0.5-2.1,0.7-4.2,2.8-4.7c6.2-1.6,12.4-3.5,18.4-5.9c2-0.8,4.2,0.2,5,2.2c0.7,1.7,0.1,3.5-1.3,4.5
				C2022.2,2013.6,2021.9,2013.7,2021.6,2013.9z M2094.2,1952.8c-1.8-1.2-2.2-3.6-1-5.4c3.6-5.3,6.9-10.9,9.8-16.6
				c1-1.9,3.3-2.7,5.2-1.7c1.9,1,2.6,3.3,1.7,5.2c-3.1,6-6.5,11.8-10.3,17.4c-0.3,0.4-0.6,0.7-0.9,1
				C2097.3,1953.6,2095.6,1953.7,2094.2,1952.8z M1982.5,2023.8c-6.7,0.8-13.4,1.3-20.2,1.3c-2.1,0-3.9-1.7-3.9-3.8s1.7-3.9,3.8-3.9
				c6.4,0,12.9-0.5,19.2-1.3c2.1-0.3,4.1,1.2,4.3,3.3c0.2,1.4-0.5,2.8-1.6,3.6C1983.8,2023.4,1983.2,2023.7,1982.5,2023.8z
				 M1942.1,2024c-6.7-0.8-13.4-2-19.9-3.5c-2.1-0.5-3.3-2.6-2.8-4.7c0.5-2.1,2.6-3.3,4.7-2.8c6.2,1.5,12.6,2.6,19,3.4
				c2.1,0.3,3.6,2.2,3.4,4.3c-0.1,1.1-0.7,2.1-1.6,2.7C1944.1,2023.8,1943.1,2024.1,1942.1,2024z M1902.9,2014.5
				c-6.3-2.3-12.5-5.1-18.5-8.2c-1.9-1-2.6-3.3-1.7-5.2c1-1.9,3.3-2.6,5.2-1.7c5.7,2.9,11.6,5.6,17.6,7.8c2,0.8,3,3,2.3,5
				c-0.3,0.7-0.8,1.3-1.3,1.8C1905.5,2014.8,1904.1,2015,1902.9,2014.5z"/>
			<path class="st1" d="M2116.6,1917.4c0.6-0.4,1.1-1.1,1.4-1.8c1.1-3.1,2.2-6.3,3.1-9.4c0.6-2-0.6-4.2-2.6-4.8
				c-2-0.6-4.2,0.6-4.8,2.6c-0.9,3-1.9,6-3,8.9c-0.7,2,0.3,4.2,2.3,4.9C2114.3,1918.4,2115.6,1918.1,2116.6,1917.4z"/>
		</g>
		<g>
			<path class="st1" d="M2086.5,1850.4c0.1-0.8-0.4-1.6-1.2-1.9l-22-9.1c-1.9-10.9-5.6-21.7-11-31.7l11.6-20.7
				c0.4-0.7,0.3-1.6-0.2-2.3l-19-21.3c-0.6-0.6-1.4-0.8-2.2-0.5l-21.9,9.2c-9.3-6.6-19.6-11.5-30.2-14.6l-6.4-22.9
				c-0.2-0.8-0.9-1.4-1.8-1.4l-28.5-1.7c-0.8-0.1-1.6,0.4-1.9,1.2l-9.1,22c-10.9,1.9-21.7,5.6-31.7,11l-20.7-11.6
				c-0.7-0.4-1.6-0.3-2.3,0.2l-21.3,19c-0.6,0.6-0.8,1.4-0.5,2.2l9.2,21.9c-6.6,9.3-11.5,19.6-14.6,30.2l-22.9,6.4
				c-0.8,0.2-1.4,0.9-1.4,1.8l-1.7,28.5c-0.1,0.8,0.4,1.6,1.2,1.9l22,9.1c1.9,10.9,5.6,21.7,11,31.7l-11.6,20.7
				c-0.4,0.7-0.3,1.6,0.2,2.3l19,21.3c0.6,0.6,1.4,0.8,2.2,0.5l21.9-9.2c9.3,6.6,19.6,11.5,30.2,14.6l6.4,22.9
				c0.2,0.8,0.9,1.4,1.8,1.4l28.5,1.7c0.8,0.1,1.6-0.4,1.9-1.2l9.1-22c10.9-1.9,21.7-5.6,31.7-11l20.7,11.6c0.7,0.4,1.6,0.3,2.3-0.2
				l21.3-19c0.6-0.6,0.8-1.4,0.5-2.2l-9.2-21.9c6.6-9.3,11.5-19.6,14.6-30.2l22.9-6.4c0.8-0.2,1.4-0.9,1.4-1.8L2086.5,1850.4z"/>
			<path class="st18" d="M1974,1883.2c-6.9,3.6-14.8,4.3-22.3,1.9c-7.4-2.3-13.5-7.4-17.1-14.4c-7.4-14.3-1.9-31.9,12.4-39.4
				c14.3-7.4,32-1.9,39.4,12.4c3.6,6.9,4.3,14.8,1.9,22.3c-1.9,6.1-5.6,11.2-10.7,14.8C1976.5,1881.8,1975.3,1882.6,1974,1883.2z
				 M1941.4,1867.3c2.7,5.1,7.1,8.8,12.6,10.6c5.5,1.7,11.3,1.2,16.4-1.4l0,0c5.1-2.7,8.8-7.1,10.6-12.6c1.7-5.5,1.2-11.3-1.4-16.4
				c-5.5-10.5-18.5-14.6-29-9.1c-0.9,0.5-1.8,1.1-2.7,1.7C1939.4,1846.1,1936.5,1857.7,1941.4,1867.3z"/>
			<path class="st18" d="M2002.5,1916.2c2-1.4,3.9-3,5.8-4.6c3.7-3.3,7.1-7,10-10.9c0.1-0.2,0.3-0.4,0.4-0.5c1-1.4,1-3.2,0-4.5
				c-0.2-0.3-0.5-0.6-0.8-0.9c-1.7-1.3-4.1-0.9-5.4,0.8c-2.7,3.7-5.9,7.2-9.3,10.2l0,0c-0.2,0.2-0.4,0.3-0.6,0.5
				c-8.3,7.2-18,12.1-28.4,14.4c-5.7,1.3-11.5,1.8-17.4,1.5c-0.1,0-0.1,0-0.1,0c-0.2,0-0.3,0-0.4,0c-17.3-1-33.3-8.7-44.8-21.7
				c-1.5-1.7-2.9-3.4-4.2-5.2c-8.7-12.1-13-26.7-12.2-41.8c1-17.3,8.7-33.2,21.7-44.8c13-11.5,29.7-17.3,47-16.3s33.3,8.7,44.8,21.7
				c1.5,1.7,2.8,3.4,4.1,5.2c5.6,7.7,9.4,16.6,11.2,25.9c0.1,0.6,0.3,1.1,0.7,1.5c0.8,1.2,2.3,1.8,3.8,1.5c2.1-0.4,3.5-2.4,3.1-4.5
				c-2-10.5-6.3-20.4-12.5-29c-1.4-2-3-3.9-4.6-5.8c-12.9-14.5-30.7-23.1-50.1-24.3s-38.1,5.3-52.6,18.3
				c-14.5,12.9-23.1,30.7-24.3,50.1c-1,16.9,3.8,33.2,13.6,46.8c1.4,2,3,4,4.7,5.8C1930.6,1933.7,1972.6,1937.8,2002.5,1916.2z"/>
		</g>
	</g>
</g>
</svg>
