<?xml version="1.0" encoding="utf-8"?>
<!-- Generator: Adobe Illustrator 23.0.1, SVG Export Plug-In . SVG Version: 6.00 Build 0)  -->
<svg version="1.1" id="Layer_1" xmlns="http://www.w3.org/2000/svg" xmlns:xlink="http://www.w3.org/1999/xlink" x="0px" y="0px"
	 viewBox="0 0 3500 2000" style="enable-background:new 0 0 3500 2000;" xml:space="preserve">
<style type="text/css">
	.st0{fill:#FFC93C;}
	.st1{fill:#FFBE9D;}
	.st2{fill:#EB996E;}
	.st3{fill:#263238;}
	.st4{opacity:0.3;enable-background:new    ;}
	.st5{fill:#E0E0E0;}
	.st6{fill:#455A64;}
	.st7{fill:#FAFAFA;}
</style>
<path class="st0" d="M1823.9,725.6c0,10.6-8.9,19.4-19.4,19.4c-10.6,0-19.4-8.9-19.4-19.4s8.9-19.4,19.4-19.4
	C1815,706.2,1823.9,715.1,1823.9,725.6L1823.9,725.6z"/>
<path class="st0" d="M2343.7,461.7c0.4,0.4-119.9,59.5-268.2,131.8s-269,130.5-269.4,129.6c-0.4-0.8,119.9-59.5,268.2-131.8
	S2343.7,461.3,2343.7,461.7z"/>
<path class="st0" d="M2334.5,438.5c0,0-1.3-1.7-3.4-5.1c-2.1-3.4-5.5-8.9-10.1-15.6c-2.1-3.4-4.6-7.2-7.2-11.4l-9.7-13.5l-11.4-15.6
	c-4.2-5.5-8.9-11-13.9-16.9c-9.3-12.2-21.5-24.5-34.2-38c-13.5-13.1-28.3-27.4-45.6-41c-38.4-31.7-81.1-58.3-126.3-79
	c-6.3-3-12.7-5.9-19-8.4l-19.8-7.6c-13.5-5.5-27.9-9.3-42.2-13.9c-7.2-2.5-14.8-3.8-22-5.9l-22.8-5.5l-23.6-4.2
	c-8-1.3-15.6-3-23.6-3.4l-24.5-2.5l-6.3-0.8h-6.3l-12.7-0.4c-8.4,0-16.9-0.8-25.3-0.4l-25.8,0.8c-35.5,2.1-70.9,7.2-105.6,15.2
	c-74.7,17.7-144.8,50.3-206.9,95c-66.7,48.1-122.5,110.2-163.4,181.6c-41.4,71.4-66.7,150.8-74.7,232.7
	c-14.8,146.5,26.2,293.1,115.3,410.5c19,24.9,39.7,48.6,62.5,70.1c10.6,10.6,22,20.3,32.9,29.6l16.9,13.1
	c5.5,4.2,11.4,8.4,16.9,12.2l8.4,5.9c3,2.1,5.9,3.8,8.4,5.5l16.9,10.6c11.4,6.3,22.4,13.1,33.4,18.6c5.5,3,11,5.9,16.5,8.4l16.5,7.2
	l8,3.8l8,3.4l15.6,6.3c35.1,13.5,71.4,23.2,108.5,29.1c7.6,1.7,14.8,2.1,21.5,3.4s13.1,2.1,19,2.1l16.5,1.3
	c5.1,0.4,9.7,0.8,13.5,0.8l18.6,0.4l6.3,0.4h-6.3l-18.6-0.4c-4.2,0-8.4-0.4-13.5-0.8l-16.5-1.3c-5.9-0.4-12.2-1.3-19-2.1
	c-6.8-0.8-13.9-1.7-21.5-3c-37.2-5.9-73.9-15.6-109-28.7l-15.6-6.3l-7.6-3l-8-3.8l-16.5-7.2c-5.5-2.5-11-5.5-16.5-8.4
	c-11.4-5.5-22-12.2-33.8-18.6l-16.9-10.6c-3-1.7-5.9-3.8-8.4-5.5l-8.4-5.9c-5.5-4.2-11.4-8-16.9-12.2l-16.9-13.1
	c-11-9.3-22.4-19-33.4-29.6c-22.8-21.5-43.9-45.2-62.9-70.1c-89.5-117.8-130.9-264.8-116.1-412.2c8-82.3,33.8-161.7,75.2-233.5
	c20.7-36.3,45.6-70.1,73.5-101.4c79.4-87.4,183.3-149.1,298.1-176.5c35.1-8,70.5-13.1,106-14.8l25.8-0.8c8.4,0,16.9,0.4,25.3,0.8
	l12.7,0.4h6.3l6.3,0.8l24.5,2.5c8,0.8,16,2.1,24.1,3.4l23.6,4.2l22.8,5.5c7.6,2.1,14.8,3.4,22,5.9c14.4,4.6,28.7,8.4,42.2,13.9
	l20.3,7.6c6.8,2.5,12.7,5.9,19,8.4c45.2,21.1,87.8,47.7,126.3,79.4c17.3,13.5,31.7,28.3,45.6,41.4c12.7,13.9,24.9,26.2,34.2,38.4
	c5.1,5.9,9.7,11.8,13.9,16.9l11,15.6l9.7,13.5c2.5,4.2,5.1,8,7.2,11.4c4.2,6.8,7.6,12.2,9.7,15.6L2334.5,438.5L2334.5,438.5z"/>
<path class="st0" d="M1468.8,1396.7c0,0,0-1.3-0.4-3.8c-0.4-2.5-0.4-6.3-0.8-11c0-2.5-0.4-5.1-0.4-8s-0.8-6.3-1.7-9.7
	s-1.3-7.2-1.7-11.4l-1.3-6.3l-1.7-6.3c-5.5-22-14.4-43.1-25.8-62.5c-15.2-25.8-35.5-48.1-59.5-66.3l-10.1-7.6
	c-3.4-2.1-7.2-4.6-11-6.8l-5.5-3.4c-1.7-1.3-3.8-2.1-5.9-3.4l-12.2-5.9c-2.1-0.8-4.2-2.1-6.3-3l-6.3-2.5l-13.1-4.6
	c-4.6-1.7-9.3-2.5-13.9-3.8l-7.2-1.7c-1.3-0.4-2.5-0.4-3.4-0.8l-3.8-0.4c-9.7-1.7-19.8-3-29.6-3.4c-5.1,0-10.1-0.8-15.2-0.4
	l-15.6,0.8c-2.5,0-5.1,0-7.6,0.4l-7.6,1.3c-5.1,0.8-10.6,1.7-15.6,2.5c-10.6,2.5-21.1,5.5-31.3,9.3l-7.6,3l-3.8,1.3l-3.8,1.7
	l-15.2,7.2c-5.1,2.5-9.7,5.9-14.4,8.4c-2.5,1.7-5.1,3-7.2,4.6l-6.8,5.1c-9.3,6.8-18.2,14.4-26.6,22.4l-11.8,13.1l-3,3.4l-2.5,3.4
	l-5.5,7.2l-5.5,7.2l-4.6,7.6l-4.6,7.6l-2.5,3.8c-0.8,1.3-1.3,2.5-2.1,4.2l-8,16.5l-6.3,17.3c-16,47.7-16,99.7,0,147.4l6.3,17.3
	c2.5,5.5,5.1,11,8,16.5l2.1,4.2l2.5,3.8l4.6,7.6l4.6,7.6l5.5,7.2l5.5,7.6l2.5,3.4l3,3.4l11.8,13.1c8.4,8,17.3,15.6,26.6,22.4
	l6.8,5.1c2.1,1.7,4.6,3,7.2,4.6c5.1,3,9.7,5.9,14.4,8.9l15.2,7.2l3.8,1.7l3.8,1.3l7.6,3c10.1,3.8,20.7,6.8,31.3,9.3
	c5.1,0.8,10.6,1.7,15.6,2.5l7.6,1.3c2.5,0.4,5.1,0.4,7.6,0.4l15.6,0.8c5.1,0,10.1-0.4,15.2-0.4c9.7-0.4,19.8-1.7,29.6-3.4l3.8-0.4
	l3.4-0.8l6.8-1.7c4.6-1.3,9.3-2.1,13.9-3.8l13.1-4.6l6.3-2.5l6.3-3l12.2-5.9c2.1-0.8,3.8-2.1,5.9-3.4l5.5-3.4
	c3.8-2.1,7.6-4.2,11-6.8l10.1-7.6c24.1-18.2,43.9-40.5,59.5-66.3c11.8-19.4,20.7-40.1,25.8-62.5l1.7-6.3l1.3-6.3
	c0.8-4.2,1.3-8,1.7-11.4c0.4-3.4,1.3-6.8,1.7-9.7c0.4-3,0.4-5.9,0.4-8c0.4-4.6,0.4-8.4,0.8-11S1468.8,1396.7,1468.8,1396.7v3.8
	c0,2.5-0.4,6.3-0.4,11c0,2.5-0.4,5.1-0.4,8.4c0,3.4-0.8,6.3-1.3,9.7c-0.4,3.4-1.3,7.6-1.7,11.4l-1.3,6.3c-0.4,2.1-1.3,4.2-1.7,6.8
	c-5.5,22-13.9,43.1-25.8,62.5c-15.2,26.2-35.5,49-59.5,67.1l-10.1,7.6c-3.4,2.5-7.2,4.6-11,6.8l-5.5,3.4c-1.7,1.3-3.8,2.1-5.9,3.4
	l-12.2,5.9l-6.3,3l-6.8,2.5l-13.1,4.6c-4.6,1.7-9.3,2.5-13.9,3.8l-7.2,1.7l-3.4,0.8l-3.8,0.4c-9.7,1.7-19.4,3-29.6,3.4
	c-5.1,0-10.1,0.8-15.2,0.4l-15.6-0.8c-2.5,0-5.1,0-8-0.4l-8-1.3c-5.1-0.8-10.6-1.7-16-2.5c-10.6-2.5-21.1-5.5-31.3-9.3l-7.6-3
	c-1.3-0.4-2.5-0.8-3.8-1.7l-3.8-1.7l-15.2-7.2c-5.1-2.5-9.7-5.9-14.8-8.9c-2.5-1.7-5.1-3-7.2-4.6l-6.8-5.1
	c-9.3-7.2-18.2-14.4-26.6-22.8l-11.8-13.1l-3-3.4l-2.5-3.8l-5.5-7.2l-5.5-7.2l-4.6-8l-4.6-8l-2.5-3.8l-2.1-4.2l-8-16.5
	c-2.1-5.9-4.2-11.8-6.3-17.3c-16-48.1-16-100.5,0-148.6c2.1-5.9,4.2-11.8,6.3-17.3l8-16.5c0.8-1.3,1.3-2.5,2.1-4.2l2.5-3.8l4.6-8
	l4.6-7.2l5.5-7.2l5.5-7.2l3-3.4l3-3.4l11.8-13.1c8.4-8,17.3-15.6,26.6-22.8l6.8-5.1c2.5-1.7,5.1-3,7.2-4.6c5.1-3,9.7-5.9,14.8-8.9
	l15.2-7.2l3.8-1.7c1.3-0.4,2.5-0.8,3.8-1.7l7.6-3c10.1-3.8,20.7-6.8,31.3-9.3c5.1-1.3,10.6-1.7,16-2.5l8-1.3c2.5-0.4,5.1-0.4,8-0.4
	l15.6-0.8c5.1,0,10.1,0.4,15.2,0.4c10.1,0.4,19.8,1.7,30,3.4l3.8,0.4c1.3,0.4,2.5,0.4,3.4,0.8l7.2,1.7c4.6,1.3,9.3,2.1,13.9,3.8
	l13.1,4.6l6.3,2.5c2.1,0.8,4.2,2.1,6.3,3l12.2,5.9c2.1,0.8,3.8,2.1,5.9,3.4l5.5,3.4c3.8,2.1,7.6,4.6,11,6.8l10.1,7.6
	c24.1,18.2,44.3,41,59.5,67.1c11.8,19.4,20.3,40.5,25.8,62.5c0.4,2.1,1.3,4.2,1.7,6.8l1.3,6.3c0.4,4.2,1.3,8,1.7,11.4
	s1.3,6.8,1.3,9.7c0,3,0.4,5.9,0.4,8.4l0.4,11C1468.8,1395.4,1468.8,1396.7,1468.8,1396.7L1468.8,1396.7z"/>
<path class="st0" d="M695.6,441.6c0,0,0-1.3-0.4-3.8c-0.4-2.5-0.4-6.3-0.8-11c0-2.5-0.4-5.1-0.4-8s-0.8-6.3-1.7-9.7
	c-0.8-3.4-1.3-7.2-1.7-11.4l-1.3-6.3l-1.7-6.3c-5.5-22-14.4-43.1-25.8-62.5c-15.2-25.8-35.5-48.1-59.5-66.3l-10.1-7.6
	c-3.4-2.1-7.2-4.6-11-6.8l-5.5-3.4c-1.7-1.3-3.8-2.1-5.9-3.4l-12.2-5.9c-2.1-0.8-4.2-2.1-6.3-3l-6.3-2.5l-13.1-4.6
	c-4.6-1.7-9.3-2.5-13.9-3.8l-7.2-1.7c-1.3-0.4-2.5-0.4-3.4-0.8l-3.8-0.4c-9.7-1.7-19.8-3-29.6-3.4c-5.1,0-10.1-0.8-15.2-0.4
	l-15.6,0.8c-2.5,0-5.1,0-7.6,0.4l-7.6,1.3c-5.1,0.8-10.6,1.7-15.6,2.5c-10.6,2.5-21.1,5.5-31.2,9.3l-7.6,3l-3.8,1.3l-3.8,1.7
	l-15.2,7.2c-5.1,2.5-9.7,5.9-14.4,8.4c-2.5,1.7-5.1,3-7.2,4.6l-6.8,5.1c-9.3,6.8-18.2,14.4-26.6,22.4l-11.8,13.1l-3,3.4l-2.5,3.4
	l-5.5,7.2l-5.5,7.2l-4.6,7.6l-4.6,7.6l-2.5,3.8c-0.8,1.3-1.3,2.5-2.1,4.2l-8,16.5l-6.3,17.3c-16,47.7-16,99.7,0,147.4l6.3,17.3
	c2.5,5.5,5.1,11,8,16.5l2.1,4.2l2.5,3.8l4.6,7.6l4.6,7.6l5.5,7.2l5.5,7.6l2.5,3.4l3,3.4l11.8,13.1c8.4,8,17.3,15.6,26.6,22.4
	l6.8,5.1c2.1,1.7,4.6,3,7.2,4.6c5.1,3,9.7,5.9,14.4,8.9l15.2,7.2l3.8,1.7l3.8,1.3l7.6,3c10.1,3.8,20.7,6.8,31.2,9.3
	c5.1,0.8,10.6,1.7,15.6,2.5l7.6,1.3c2.5,0.4,5.1,0.4,7.6,0.4l15.6,0.8c5.1,0,10.1-0.4,15.2-0.4c9.7-0.4,19.8-1.7,29.6-3.4l3.8-0.4
	l3.4-0.8l6.8-1.7c4.6-1.3,9.3-2.1,13.9-3.8l13.1-4.6l6.3-2.5l6.3-3l12.2-5.9c2.1-0.8,3.8-2.1,5.9-3.4l5.5-3.4
	c3.8-2.1,7.6-4.2,11-6.8l10.1-7.6c24.1-18.2,43.9-40.5,59.5-66.3c11.8-19.4,20.7-40.1,25.8-62.5l1.7-6.3l1.3-6.3
	c0.8-4.2,1.3-8,1.7-11.4s1.3-6.8,1.7-9.7c0.4-3,0.4-5.9,0.4-8c0.4-4.6,0.4-8.4,0.8-11C695.2,443.3,695.6,441.6,695.6,441.6v3.8
	c0,2.5-0.4,6.3-0.4,11c0,2.5-0.4,5.1-0.4,8.4s-0.8,6.3-1.3,9.7c-0.4,3.4-1.3,7.6-1.7,11.4l-1.3,6.3c-0.4,2.1-1.3,4.2-1.7,6.8
	c-5.5,22-13.9,43.1-25.8,62.5c-15.2,26.2-35.5,49-59.5,67.1l-10.1,7.6c-3.4,2.5-7.2,4.6-11,6.8l-5.5,3.4c-1.7,1.3-3.8,2.1-5.9,3.4
	l-12.2,5.9l-6.3,3l-6.8,2.5l-13.1,4.6c-4.6,1.7-9.3,2.5-13.9,3.8l-7.2,1.7l-3.4,0.8l-3.8,0.4c-9.7,1.7-19.4,3-29.6,3.4
	c-5.1,0-10.1,0.8-15.2,0.4l-15.6-0.8c-2.5,0-5.1,0-8-0.4l-8-1.3c-5.1-0.8-10.6-1.7-16-2.5c-10.6-2.5-21.1-5.5-31.3-9.3l-7.6-3
	c-1.3-0.4-2.5-0.8-3.8-1.7l-3.8-1.7l-15.2-7.2c-5.1-2.5-9.7-5.9-14.8-8.9c-2.5-1.7-5.1-3-7.2-4.6l-6.8-5.1
	c-9.3-7.2-18.2-14.4-26.6-22.8L283.1,594l-3-3.4l-2.5-3.8l-5.5-7.2l-5.5-7.2l-4.6-8l-4.6-8l-2.5-3.8l-2.1-4.2l-8-16.5
	c-2.1-5.9-4.2-11.8-6.3-17.3c-16-48.1-16-100.5,0-148.6c2.1-5.9,4.2-11.8,6.3-17.3l8-16.5c0.8-1.3,1.3-2.5,2.1-4.2l2.5-3.8l4.6-8
	l4.6-7.2l5.5-7.2l5.5-7.2l3-3.4l3-3.4l11.8-13.1c8.4-8,17.3-15.6,26.6-22.8l6.8-5.1c2.5-1.7,5.1-3,7.2-4.6c5.1-3,9.7-5.9,14.8-8.9
	l15.2-7.2l3.8-1.7c1.3-0.4,2.5-0.8,3.8-1.7l7.6-3c10.1-3.8,20.7-6.8,31.2-9.3c5.1-1.3,10.6-1.7,16-2.5l8-1.3c2.5-0.4,5.1-0.4,8-0.4
	l15.6-0.8c5.1,0,10.1,0.4,15.2,0.4c10.1,0.4,19.8,1.7,30,3.4l3.8,0.4c1.3,0.4,2.5,0.4,3.4,0.8l7.2,1.7c4.6,1.3,9.3,2.1,13.9,3.8
	l13.1,4.6l6.3,2.5c2.1,0.8,4.2,2.1,6.3,3l12.2,5.9c2.1,0.8,3.8,2.1,5.9,3.4l5.5,3.4c3.8,2.1,7.6,4.6,11,6.8l10.1,7.6
	c24.1,18.2,44.3,41,59.5,67.1c11.8,19.4,20.3,40.5,25.8,62.5c0.4,2.1,1.3,4.2,1.7,6.8l1.3,6.3c0.4,4.2,1.3,8,1.7,11.4
	c0.4,3.4,1.3,6.8,1.3,9.7c0,3,0.4,5.9,0.4,8.4l0.4,11C695.6,440.3,695.6,441.6,695.6,441.6L695.6,441.6z"/>
<path class="st0" d="M3178,927c0,0,0-1.3-0.4-3.8s-0.4-6.3-0.8-11c0-2.5-0.4-5.1-0.4-8s-0.8-6.3-1.7-9.7c-0.8-3.4-1.3-7.2-1.7-11.4
	l-1.3-6.3l-1.7-6.3c-5.5-22-14.4-43.1-25.8-62.5c-15.2-25.8-35.5-48.1-59.5-66.3l-10.1-7.6c-3.4-2.1-7.2-4.6-11-6.8l-5.5-3.4
	c-1.7-1.3-3.8-2.1-5.9-3.4l-12.2-5.9c-2.1-0.8-4.2-2.1-6.3-3l-6.3-2.5l-13.1-4.6c-4.6-1.7-9.3-2.5-13.9-3.8l-7.2-1.7
	c-1.3-0.4-2.5-0.4-3.4-0.8l-3.8-0.4c-9.7-1.7-19.8-3-29.6-3.4c-5.1,0-10.1-0.8-15.2-0.4l-15.6,0.8c-2.5,0-5.1,0-7.6,0.4l-7.6,1.3
	c-5.1,0.8-10.6,1.7-15.6,2.5c-10.6,2.5-21.1,5.5-31.3,9.3l-7.6,3l-3.8,1.3l-3.8,1.7l-15.2,7.2c-5.1,2.5-9.7,5.9-14.4,8.4
	c-2.5,1.7-5.1,3-7.2,4.6l-6.8,5.1c-9.3,6.8-18.2,14.4-26.6,22.4l-11.8,13.1l-3,3.4l-2.5,3.4l-5.5,7.2l-5.5,7.2l-4.6,7.6l-4.6,7.6
	l-2.5,3.8c-0.8,1.3-1.3,2.5-2.1,4.2l-8,16.5l-6.3,17.3c-16,47.7-16,99.7,0,147.4l6.3,17.3c2.5,5.5,5.1,11,8,16.5l2.1,4.2l2.5,3.8
	l4.6,7.6l4.6,7.6l5.5,7.2l5.5,7.6l2.5,3.4l3,3.4l11.8,13.1c8.4,8,17.3,15.6,26.6,22.4l6.8,5.1c2.1,1.7,4.6,3,7.2,4.6
	c5.1,3,9.7,5.9,14.4,8.9l15.2,7.2l3.8,1.7l3.8,1.3l7.6,3c10.1,3.8,20.7,6.8,31.3,9.3c5.1,0.8,10.6,1.7,15.6,2.5l7.6,1.3
	c2.5,0.4,5.1,0.4,7.6,0.4l15.6,0.8c5.1,0,10.1-0.4,15.2-0.4c9.7-0.4,19.8-1.7,29.6-3.4l3.8-0.4l3.4-0.8l6.8-1.7
	c4.6-1.3,9.3-2.1,13.9-3.8l13.1-4.6l6.3-2.5l6.3-3l12.2-5.9c2.1-0.8,3.8-2.1,5.9-3.4l5.5-3.4c3.8-2.1,7.6-4.2,11-6.8l10.1-7.6
	c24.1-18.2,43.9-40.5,59.5-66.3c11.8-19.4,20.7-40.1,25.8-62.5l1.7-6.3l1.3-6.3c0.8-4.2,1.3-8,1.7-11.4c0.4-3.4,1.3-6.8,1.7-9.7
	c0.4-3,0.4-5.9,0.4-8c0.4-4.6,0.4-8.4,0.8-11C3177.6,928.7,3178,927,3178,927v3.8c0,2.5-0.4,6.3-0.4,11c0,2.5-0.4,5.1-0.4,8.4
	c0,3.4-0.8,6.3-1.3,9.7c-0.4,3.4-1.3,7.6-1.7,11.4l-1.3,6.3c-0.4,2.1-1.3,4.2-1.7,6.8c-5.5,22-13.9,43.1-25.8,62.5
	c-15.2,26.2-35.5,49-59.5,67.1l-10.1,7.6c-3.4,2.5-7.2,4.6-11,6.8l-5.5,3.4c-1.7,1.3-3.8,2.1-5.9,3.4l-12.2,5.9l-6.3,3l-6.8,2.5
	l-13.1,4.6c-4.6,1.7-9.3,2.5-13.9,3.8l-7.2,1.7l-3.4,0.8l-3.8,0.4c-9.7,1.7-19.4,3-29.6,3.4c-5.1,0-10.1,0.8-15.2,0.4l-15.6-0.8
	c-2.5,0-5.1,0-8-0.4l-8-1.3c-5.1-0.8-10.6-1.7-16-2.5c-10.6-2.5-21.1-5.5-31.3-9.3l-7.6-3c-1.3-0.4-2.5-0.8-3.8-1.7l-3.8-1.7
	l-15.2-7.2c-5.1-2.5-9.7-5.9-14.8-8.9c-2.5-1.7-5.1-3-7.2-4.6l-6.8-5.1c-9.3-7.2-18.2-14.4-26.6-22.8l-11.8-13.1l-3-3.4l-2.5-3.8
	l-5.5-7.2l-5.5-7.2l-4.6-8l-4.6-8l-2.5-3.8l-2.1-4.2l-8-16.5c-2.1-5.9-4.2-11.8-6.3-17.3c-16-48.1-16-100.5,0-148.6
	c2.1-5.9,4.2-11.8,6.3-17.3l8-16.5c0.8-1.3,1.3-2.5,2.1-4.2l2.5-3.8l4.6-8l4.6-7.2l5.5-7.2l5.5-7.2l3-3.4l3-3.4l11.8-13.1
	c8.4-8,17.3-15.6,26.6-22.8l6.8-5.1c2.5-1.7,5.1-3,7.2-4.6c5.1-3,9.7-5.9,14.8-8.9l15.2-7.2l3.8-1.7c1.3-0.4,2.5-0.8,3.8-1.7l7.6-3
	c10.1-3.8,20.7-6.8,31.3-9.3c5.1-1.3,10.6-1.7,16-2.5l8-1.3c2.5-0.4,5.1-0.4,8-0.4l15.6-0.8c5.1,0,10.1,0.4,15.2,0.4
	c10.1,0.4,19.8,1.7,30,3.4l3.8,0.4c1.3,0.4,2.5,0.4,3.4,0.8l7.2,1.7c4.6,1.3,9.3,2.1,13.9,3.8l13.1,4.6l6.3,2.5
	c2.1,0.8,4.2,2.1,6.3,3l12.2,5.9c2.1,0.8,3.8,2.1,5.9,3.4l5.5,3.4c3.8,2.1,7.6,4.6,11,6.8l10.1,7.6c24.1,18.2,44.3,41,59.5,67.1
	c11.8,19.4,20.3,40.5,25.8,62.5c0.4,2.1,1.3,4.2,1.7,6.8l1.3,6.3c0.4,4.2,1.3,8,1.7,11.4c0.4,3.4,1.3,6.8,1.3,9.7
	c0,3,0.4,5.9,0.4,8.4l0.4,11C3178,925.8,3178,927,3178,927L3178,927z"/>
<path class="st0" d="M1174,926.7c0,0,0-0.8-0.4-3c-0.4-2.1-0.4-4.6-0.4-8.4c0-1.7,0-3.8-0.4-5.9c0-2.1-0.8-4.6-1.3-7.2
	s-0.8-5.5-1.3-8.4c-0.4-3.4-1.3-6.3-2.1-9.3c-4.2-16.5-10.6-32.1-19.4-46.5c-11.4-19-26.6-35.9-43.9-49l-7.6-5.5
	c-2.5-1.7-5.5-3.4-8-5.1c-2.5-1.7-5.5-3.4-8.4-5.1l-8.9-4.2l-4.6-2.1l-5.1-1.7l-9.7-3.4c-3.4-1.3-6.8-1.7-10.1-2.5
	c-3.4-0.8-6.8-1.7-10.6-2.5c-7.2-1.3-14.8-2.1-22-2.5c-3.8,0-7.6-0.4-11.4-0.4l-11.4,0.4c-1.7,0-3.8,0-5.9,0.4l-5.5,0.8
	c-3.8,0.4-7.6,1.3-11.8,1.7c-8,1.7-15.6,4.2-23.2,6.8c-7.6,3-15.2,5.9-22.4,10.1c-3.8,2.1-7.2,4.2-11,6.3c-1.7,0.8-3.8,2.1-5.5,3.4
	l-5.1,3.8c-6.8,5.1-13.5,11-19.8,16.9l-8.9,9.7l-2.1,2.5l-2.1,2.5l-3.8,5.5l-4.2,5.5l-3.4,5.9l-3.4,5.5l-1.7,3l-1.3,3
	c-2.1,4.2-3.8,8-5.9,12.2l-4.6,12.7c-11.8,35.5-11.8,73.9,0,109.4c1.7,4.2,3,8.4,4.6,12.7c1.7,4.2,3.8,8,5.9,12.2l1.3,3l1.7,3
	l3.4,5.9l3.4,5.9l3.8,5.5l3.8,5.5l2.1,2.5l2.1,2.5l8.9,9.7c6.3,5.9,12.7,11.4,19.8,16.9l5.1,3.8c1.7,1.3,3.4,2.1,5.5,3.4
	c3.8,2.1,7.2,4.2,11,6.3c7.2,3.8,14.8,7.2,22.4,10.1c7.6,3,15.2,5.1,23.2,6.8c3.8,0.8,7.6,1.3,11.8,2.1l5.9,0.8
	c2.1,0.4,3.8,0.4,5.9,0.4l11.4,0.4c3.8,0,7.6-0.4,11.4-0.4c7.2-0.4,14.8-1.3,22-2.5c3.4-0.4,7.2-1.3,10.6-2.5l10.1-2.5l9.7-3.8
	l4.6-1.7l4.6-2.1l8.9-4.2c3-1.3,5.5-3.4,8.4-5.1c3-1.7,5.5-3.4,8-5.1l7.6-5.5c17.7-13.5,32.5-30,43.9-49c8.9-14.4,15.2-30,19.4-46.5
	c0.8-3,1.7-6.3,2.1-9.3c0.4-3,0.8-5.9,1.3-8.4c0.4-2.5,0.8-5.1,1.3-7.2c0.4-2.1,0.4-4.2,0.4-5.9c0-3.4,0.4-6.3,0.4-8
	S1174,926.7,1174,926.7v2.5c0,1.7,0,4.6-0.4,8.4c0,1.7,0,3.8-0.4,5.9c-0.4,2.1-0.8,4.6-0.8,7.2s-0.8,5.5-1.3,8.4
	c-0.4,3.4-1.3,6.3-2.1,9.7c-3.8,16.5-10.6,32.1-19,46.5c-11.4,19.4-26.6,36.3-44.3,49.8l-7.6,5.9c-2.5,1.7-5.5,3.4-8.4,5.1
	c-3,1.7-5.5,3.8-8.4,5.1l-9.3,4.2l-4.6,2.1l-5.1,1.7l-9.7,3.8c-3.4,1.3-6.8,1.7-10.1,3c-3.4,0.8-7.2,1.7-10.6,2.5
	c-7.2,1.3-14.8,2.1-22,2.5c-3.8,0-7.6,0.4-11.4,0.4l-11.8-0.4c-2.1,0-3.8,0-5.9-0.4l-5.9-0.8c-3.8-0.4-8-1.3-11.8-2.1
	c-8-1.7-15.6-3.8-23.2-6.8c-8-3-15.6-6.3-22.8-10.1c-3.8-2.1-7.2-4.2-11-6.3c-1.7-1.3-3.8-2.1-5.5-3.4l-5.1-3.8
	c-7.2-5.1-13.5-11-19.8-16.9l-8.9-9.7l-2.1-2.5l-2.1-2.5l-4.2-5.5l-4.2-5.5l-3.4-5.9l-3.4-5.9l-1.7-3l-1.3-3l-5.9-12.2
	c-1.7-4.2-3.4-8.4-4.6-13.1c-12.2-35.9-12.2-74.7,0-110.6c1.7-4.2,3.4-8.9,4.6-13.1l5.9-12.2l1.7-3l1.7-3l3.4-5.9l3.4-5.9l4.2-5.5
	l4.2-5.5l2.1-2.5l2.1-2.5l8.9-9.7c6.3-5.9,13.1-11.8,19.8-16.9l5.1-3.8c1.7-1.3,3.4-2.1,5.5-3.4c3.8-2.1,7.2-4.6,11-6.3
	c7.2-3.8,15.2-7.2,22.8-10.1c7.6-3,15.6-5.1,23.2-6.8c3.8-0.8,8-1.3,11.8-1.7l5.9-0.8c2.1-0.4,3.8-0.4,5.9-0.4l11.8-0.4
	c3.8,0,7.6,0.4,11.4,0.4c7.6,0.4,14.8,1.3,22,2.5c3.4,0.4,7.2,1.3,10.6,2.5c3.4,0.8,7.2,1.7,10.1,3l9.7,3.8l5.1,1.7l4.6,2.1l9.3,4.2
	c3,1.3,5.5,3.4,8.4,5.1s5.5,3.4,8,5.1l7.6,5.5c17.7,13.5,32.9,30.4,44.3,49.8c8.9,14.4,15.2,30,19,46.5c0.8,3,1.7,6.3,2.1,9.7
	c0.4,3,0.8,5.9,1.3,8.4c0.4,2.5,0.8,5.1,0.8,7.2c0,2.1,0,4.2,0.4,5.9c0,3.8,0.4,6.3,0.4,8.4V926.7L1174,926.7z"/>
<path class="st0" d="M3413.7,1730.1c0,0,0-0.8-0.4-3s-0.4-4.6-0.4-8.4c0-1.7,0-3.8-0.4-5.9c0-2.1-0.8-4.6-1.3-7.2s-0.8-5.5-1.3-8.4
	c-0.4-3.4-1.3-6.3-2.1-9.3c-4.2-16.5-10.6-32.1-19.4-46.5c-11.4-19-26.6-35.9-43.9-49l-7.6-5.5c-2.5-1.7-5.5-3.4-8-5.1
	s-5.5-3.4-8.4-5.1l-8.9-4.2l-4.6-2.1l-5.1-1.7l-9.7-3.4c-3.4-1.3-6.8-1.7-10.1-2.5c-3.4-0.8-6.8-1.7-10.6-2.5
	c-7.2-1.3-14.8-2.1-22-2.5c-3.8,0-7.6-0.4-11.4-0.4l-11.4,0.4c-1.7,0-3.8,0-5.9,0.4l-5.5,0.8c-3.8,0.4-7.6,1.3-11.8,1.7
	c-8,1.7-15.6,4.2-23.2,6.8c-7.6,3-15.2,5.9-22.4,10.1c-3.8,2.1-7.2,4.2-11,6.3c-1.7,0.8-3.8,2.1-5.5,3.4l-5.1,3.8
	c-6.8,5.1-13.5,11-19.8,16.9l-8.9,9.7l-2.1,2.5l-2.1,2.5l-3.8,5.5l-4.2,5.5l-3.4,5.9l-3.4,5.5l-1.7,3l-1.3,3
	c-2.1,4.2-3.8,8-5.9,12.2l-4.6,12.7c-11.8,35.5-11.8,73.9,0,109.4c1.7,4.2,3,8.4,4.6,12.7c1.7,4.2,3.8,8,5.9,12.2l1.3,3l1.7,3
	l3.4,5.9l3.4,5.9l3.8,5.5l3.8,5.5l2.1,2.5l2.1,2.5l8.9,9.7c6.3,5.9,12.7,11.4,19.8,16.9l5.1,3.8c1.7,1.3,3.4,2.1,5.5,3.4
	c3.8,2.1,7.2,4.2,11,6.3c7.2,3.8,14.8,7.2,22.4,10.1c7.6,3,15.2,5.1,23.2,6.8c3.8,0.8,7.6,1.3,11.8,2.1l5.9,0.8
	c2.1,0.4,3.8,0.4,5.9,0.4l11.4,0.4c3.8,0,7.6-0.4,11.4-0.4c7.2-0.4,14.8-1.3,22-2.5c3.4-0.4,7.2-1.3,10.6-2.5l10.1-2.5l9.7-3.8
	l4.6-1.7l4.6-2.1l8.9-4.2c3-1.3,5.5-3.4,8.4-5.1c3-1.7,5.5-3.4,8-5.1l7.6-5.5c17.7-13.5,32.5-30,43.9-49c8.9-14.4,15.2-30,19.4-46.5
	c0.8-3,1.7-6.3,2.1-9.3c0.4-3,0.8-5.9,1.3-8.4c0.4-2.5,0.8-5.1,1.3-7.2s0.4-4.2,0.4-5.9c0-3.4,0.4-6.3,0.4-8
	C3412.9,1733.5,3413.7,1730.1,3413.7,1730.1v2.5c0,1.7,0,4.6-0.4,8.4c0,1.7,0,3.8-0.4,5.9c-0.4,2.1-0.8,4.6-0.8,7.2
	c0,2.5-0.8,5.5-1.3,8.4c-0.4,3.4-1.3,6.3-2.1,9.7c-3.8,16.5-10.6,32.1-19,46.5c-11.4,19.4-26.6,36.3-44.3,49.8l-7.6,5.9
	c-2.5,1.7-5.5,3.4-8.4,5.1c-3,1.7-5.5,3.8-8.4,5.1l-9.3,4.2l-4.6,2.1l-5.1,1.7l-9.7,3.8c-3.4,1.3-6.8,1.7-10.1,3
	c-3.4,0.8-7.2,1.7-10.6,2.5c-7.2,1.3-14.8,2.1-22,2.5c-3.8,0-7.6,0.4-11.4,0.4l-11.8-0.4c-2.1,0-3.8,0-5.9-0.4l-5.9-0.8
	c-3.8-0.4-8-1.3-11.8-2.1c-8-1.7-15.6-3.8-23.2-6.8c-8-3-15.6-6.3-22.8-10.1c-3.8-2.1-7.2-4.2-11-6.3c-1.7-1.3-3.8-2.1-5.5-3.4
	l-5.1-3.8c-7.2-5.1-13.5-11-19.8-16.9l-8.9-9.7l-2.1-2.5l-2.1-2.5l-4.2-5.5l-4.2-5.5l-3.4-5.9l-3.4-5.9l-1.7-3l-1.3-3l-5.9-12.2
	c-1.7-4.2-3.4-8.4-4.6-13.1c-12.2-35.9-12.2-74.7,0-110.6c1.7-4.2,3.4-8.9,4.6-13.1l5.9-12.2l1.7-3l1.7-3l3.4-5.9l3.4-5.9l4.2-5.5
	l4.2-5.5l2.1-2.5l2.1-2.5l8.9-9.7c6.3-5.9,13.1-11.8,19.8-16.9l5.1-3.8c1.7-1.3,3.4-2.1,5.5-3.4c3.8-2.1,7.2-4.6,11-6.3
	c7.2-3.8,15.2-7.2,22.8-10.1s15.6-5.1,23.2-6.8c3.8-0.8,8-1.3,11.8-1.7l5.9-0.8c2.1-0.4,3.8-0.4,5.9-0.4l11.8-0.4
	c3.8,0,7.6,0.4,11.4,0.4c7.6,0.4,14.8,1.3,22,2.5c3.4,0.4,7.2,1.3,10.6,2.5c3.4,0.8,7.2,1.7,10.1,3l9.7,3.8l5.1,1.7l4.6,2.1l9.3,4.2
	c3,1.3,5.5,3.4,8.4,5.1c3,1.7,5.5,3.4,8,5.1l7.6,5.5c17.7,13.5,32.9,30.4,44.3,49.8c8.9,14.4,15.2,30,19,46.5c0.8,3,1.7,6.3,2.1,9.7
	c0.4,3,0.8,5.9,1.3,8.4s0.8,5.1,0.8,7.2c0,2.1,0,4.2,0.4,5.9c0,3.8,0.4,6.3,0.4,8.4V1730.1L3413.7,1730.1z"/>
<path class="st0" d="M635.9,1531.2c0,0,0-0.8-0.4-3c-0.4-2.1-0.4-4.6-0.4-8.4c0-1.7,0-3.8-0.4-5.9c0-2.1-0.8-4.6-1.3-7.2
	c-0.4-2.5-0.8-5.5-1.3-8.4c-0.4-3.4-1.3-6.3-2.1-9.3c-4.2-16.5-10.6-32.1-19.4-46.5c-11.4-19-26.6-35.9-43.9-49l-7.6-5.5
	c-2.5-1.7-5.5-3.4-8-5.1c-2.5-1.7-5.5-3.4-8.4-5.1l-8.9-4.2l-4.6-2.1l-5.1-1.7l-9.7-3.4c-3.4-1.3-6.8-1.7-10.1-2.5
	c-3.4-0.8-6.8-1.7-10.6-2.5c-7.2-1.3-14.8-2.1-22-2.5c-3.8,0-7.6-0.4-11.4-0.4l-11.4,0.4c-1.7,0-3.8,0-5.9,0.4l-5.5,0.8
	c-3.8,0.4-7.6,1.3-11.8,1.7c-8,1.7-15.6,4.2-23.2,6.8c-7.6,3-15.2,5.9-22.4,10.1c-3.8,2.1-7.2,4.2-11,6.3c-1.7,0.8-3.8,2.1-5.5,3.4
	l-5.1,3.8c-6.8,5.1-13.5,11-19.8,16.9l-8.9,9.7l-2.1,2.5l-2.1,2.5l-3.8,5.5l-4.2,5.5l-3.4,5.9l-3.4,5.5l-1.7,3l-1.3,3
	c-2.1,4.2-3.8,8-5.9,12.2l-4.6,12.7c-11.8,35.5-11.8,73.9,0,109.4c1.7,4.2,3,8.4,4.6,12.7c1.7,4.2,3.8,8,5.9,12.2l1.3,3l1.7,3
	l3.4,5.9l3.4,5.9l3.8,5.5l3.8,5.5l2.1,2.5l2.1,2.5l8.9,9.7c6.3,5.9,12.7,11.4,19.8,16.9l5.1,3.8c1.7,1.3,3.4,2.1,5.5,3.4
	c3.8,2.1,7.2,4.2,11,6.3c7.2,3.8,14.8,7.2,22.4,10.1s15.2,5.1,23.2,6.8c3.8,0.8,7.6,1.3,11.8,2.1l5.9,0.8c2.1,0.4,3.8,0.4,5.9,0.4
	l11.4,0.4c3.8,0,7.6-0.4,11.4-0.4c7.2-0.4,14.8-1.3,22-2.5c3.4-0.4,7.2-1.3,10.6-2.5l10.1-2.5l9.7-3.8l4.6-1.7l4.6-2.1l8.9-4.2
	c3-1.3,5.5-3.4,8.4-5.1c3-1.7,5.5-3.4,8-5.1l7.6-5.5c17.7-13.5,32.5-30,43.9-49c8.9-14.4,15.2-30,19.4-46.5c0.8-3,1.7-6.3,2.1-9.3
	c0.4-3,0.8-5.9,1.3-8.4c0.4-2.5,0.8-5.1,1.3-7.2c0.4-2.1,0.4-4.2,0.4-5.9c0-3.4,0.4-6.3,0.4-8S635.9,1531.2,635.9,1531.2v2.5
	c0,1.7,0,4.6-0.4,8.4c0,1.7,0,3.8-0.4,5.9s-0.8,4.6-0.8,7.2c0,2.5-0.8,5.5-1.3,8.4c-0.4,3.4-1.3,6.3-2.1,9.7
	c-3.8,16.5-10.6,32.1-19,46.5c-11.4,19.4-26.6,36.3-44.3,49.8l-7.6,5.9c-2.5,1.7-5.5,3.4-8.4,5.1c-3,1.7-5.5,3.8-8.4,5.1l-9.3,4.2
	l-4.6,2.1l-5.1,1.7l-9.7,3.8c-3.4,1.3-6.8,1.7-10.1,3c-3.4,0.8-7.2,1.7-10.6,2.5c-7.2,1.3-14.8,2.1-22,2.5c-3.8,0-7.6,0.4-11.4,0.4
	l-11.8-0.4c-2.1,0-3.8,0-5.9-0.4l-5.9-0.8c-3.8-0.4-8-1.3-11.8-2.1c-8-1.7-15.6-3.8-23.2-6.8c-8-3-15.6-6.3-22.8-10.1
	c-3.8-2.1-7.2-4.2-11-6.3c-1.7-1.3-3.8-2.1-5.5-3.4l-5.1-3.8c-7.2-5.1-13.5-11-19.8-16.9l-8.9-9.7l-2.1-2.5l-2.1-2.5l-4.2-5.5
	l-4.2-5.5l-3.4-5.9l-3.4-5.9l-1.7-3l-1.3-3l-5.9-12.2c-1.7-4.2-3.4-8.4-4.6-13.1c-12.2-35.9-12.2-74.7,0-110.6
	c1.7-4.2,3.4-8.9,4.6-13.1l5.9-12.2l1.7-3l1.7-3l3.4-5.9l3.4-5.9l4.2-5.5l4.2-5.5l2.1-2.5l2.1-2.5l8.9-9.7
	c6.3-5.9,13.1-11.8,19.8-16.9l5.1-3.8c1.7-1.3,3.4-2.1,5.5-3.4c3.8-2.1,7.2-4.6,11-6.3c7.2-3.8,15.2-7.2,22.8-10.1
	s15.6-5.1,23.2-6.8c3.8-0.8,8-1.3,11.8-1.7l5.9-0.8c2.1-0.4,3.8-0.4,5.9-0.4l11.8-0.4c3.8,0,7.6,0.4,11.4,0.4
	c7.6,0.4,14.8,1.3,22,2.5c3.4,0.4,7.2,1.3,10.6,2.5c3.4,0.8,7.2,1.7,10.1,3l9.7,3.8l5.1,1.7l4.6,2.1l9.3,4.2c3,1.3,5.5,3.4,8.4,5.1
	s5.5,3.4,8,5.1l7.6,5.5c17.7,13.5,32.9,30.4,44.3,49.8c8.9,14.4,15.2,30,19,46.5c0.8,3,1.7,6.3,2.1,9.7c0.4,3,0.8,5.9,1.3,8.4
	s0.8,5.1,0.8,7.2s0,4.2,0.4,5.9c0,3.8,0.4,6.3,0.4,8.4V1531.2L635.9,1531.2z"/>
<path class="st0" d="M2517.3,191.4v-1.7c0-1.3,0-3-0.4-5.5c0-1.3,0-2.5-0.4-3.8s-0.4-3-0.8-4.6c-0.4-3.8-1.3-8-2.5-11.8
	c-2.5-10.6-6.8-20.7-12.7-30.4c-16.9-27.9-44.8-47.3-76.9-53.6c-19.8-3.8-40.5-2.1-59.5,5.1c-5.1,1.7-10.1,4.2-14.8,6.3
	c-2.5,1.3-4.6,3-7.2,4.2c-2.5,1.3-4.6,3-7.2,4.6c-4.6,3.4-8.9,7.2-12.7,11c-3.8,4.2-7.6,8.4-11,13.1c-7.2,9.3-12.7,19.8-16,31.2
	c-3.8,11.4-5.5,23.6-5.9,35.9c0,12.2,2.1,24.1,5.9,35.9c3.8,11.4,9.3,22,16,31.3c3.4,4.6,7.2,8.9,11,13.1c3.8,3.8,8,7.6,12.7,11
	c2.1,1.7,4.6,3.4,6.8,4.6c2.5,1.3,4.6,3,7.2,4.2c4.6,2.5,9.7,4.6,14.8,6.3c51.1,18.6,108.5-1.7,136.4-48.6
	c5.5-9.3,10.1-19.8,12.7-30.4c1.3-3.8,1.7-7.6,2.5-11.8c0.4-1.7,0.4-3.4,0.8-4.6s0-3,0.4-4.2c0-2.1,0.4-4.2,0.4-5.5
	C2516.9,192.3,2516.9,191.9,2517.3,191.4v11c0,1.3-0.4,3-0.4,4.6c-0.4,4.2-1.3,8-2.1,11.8c-2.5,11-6.8,21.1-12.7,30.8
	c-28.3,47.7-86.1,68.4-138.1,49.8c-5.1-1.7-10.1-4.2-15.2-6.8c-2.5-1.3-4.6-3-7.2-4.2c-2.5-1.3-4.6-3-6.8-4.6
	c-4.6-3.4-8.9-7.2-13.1-11c-4.2-4.2-8-8.9-11.4-13.5c-7.2-9.7-13.1-20.3-16.9-31.7c-3.8-11.8-5.9-24.1-5.9-36.3
	c0-12.2,2.1-24.5,5.9-36.3c3.8-11.4,9.3-22,16.5-31.7c3.4-4.6,7.2-9.3,11.4-13.5c4.2-3.8,8.4-7.6,13.1-11c2.1-1.7,4.6-3.4,6.8-4.6
	c2.5-1.3,4.6-3,7.2-4.2c5.1-2.5,9.7-4.6,15.2-6.8c19.4-7.2,40.1-8.9,60.8-5.1c32.5,6.3,60.8,26.2,77.7,54.5
	c5.9,9.7,10.1,19.8,12.7,30.8c0.8,3.8,1.7,8,2.1,11.8c0,1.7,0.4,3.4,0.4,4.6L2517.3,191.4L2517.3,191.4z"/>
<path class="st0" d="M3104.1,421.5v-1.7c0-1.3,0-3-0.4-5.5c0-1.3,0-2.5-0.4-3.8s-0.4-3-0.8-4.6c-0.4-3.8-1.3-8-2.5-11.8
	c-2.5-10.6-6.8-20.7-12.7-30.4c-16.9-27.9-44.8-47.3-76.9-53.6c-19.8-3.8-40.5-2.1-59.5,5.1c-5.1,1.7-10.1,4.2-14.8,6.3
	c-2.5,1.3-4.6,3-7.2,4.2c-2.5,1.3-4.6,3-7.2,4.6c-4.6,3.4-8.9,7.2-12.7,11c-3.8,4.2-7.6,8.4-11,13.1c-7.2,9.3-12.7,19.8-16,31.2
	c-3.8,11.4-5.5,23.6-5.9,35.9c0,12.2,2.1,24.1,5.9,35.9c3.8,11.4,9.3,22,16,31.2c3.4,4.6,7.2,8.9,11,13.1c3.8,3.8,8,7.6,12.7,11
	c2.1,1.7,4.6,3.4,6.8,4.6c2.5,1.3,4.6,3,7.2,4.2c4.6,2.5,9.7,4.6,14.8,6.3c51.1,18.6,108.5-1.7,136.4-48.6
	c5.5-9.3,10.1-19.8,12.7-30.4c1.3-3.8,1.7-7.6,2.5-11.8c0.4-1.7,0.4-3.4,0.8-4.6c0.4-1.3,0-3,0.4-4.2c0-2.1,0.4-4.2,0.4-5.5
	C3103.7,422.3,3103.7,421.9,3104.1,421.5v11c0,1.3-0.4,3-0.4,4.6c-0.4,4.2-1.3,8-2.1,11.8c-2.5,11-6.8,21.1-12.7,30.8
	c-28.3,47.7-86.1,68.4-138.1,49.8c-5.1-1.7-10.1-4.2-15.2-6.8c-2.5-1.3-4.6-3-7.2-4.2c-2.5-1.3-4.6-3-6.8-4.6
	c-4.6-3.4-8.9-7.2-13.1-11c-4.2-4.2-8-8.9-11.4-13.5c-7.2-9.7-13.1-20.3-16.9-31.7c-3.8-11.8-5.9-24.1-5.9-36.3
	c0-12.2,2.1-24.5,5.9-36.3c3.8-11.4,9.3-22,16.5-31.7c3.4-4.6,7.2-9.3,11.4-13.5c4.2-3.8,8.4-7.6,13.1-11c2.1-1.7,4.6-3.4,6.8-4.6
	c2.5-1.3,4.6-3,7.2-4.2c5.1-2.5,9.7-4.6,15.2-6.8c19.4-7.2,40.1-8.9,60.8-5.1c32.5,6.3,60.8,26.2,77.7,54.5
	c5.9,9.7,10.1,19.8,12.7,30.8c0.8,3.8,1.7,8,2.1,11.8c0,1.7,0.4,3.4,0.4,4.6L3104.1,421.5L3104.1,421.5z"/>
<path class="st1" d="M1815.9,771.7c0,0,0.4,22.8,11,19.4c8.9-3,5.9-15.2,5.9-15.2s-12.2-22.4,0-24.9c1.7-0.4,11.4,14.8,16,22.4
	c1.7,3,2.5,6.3,1.7,9.3l-7.2,35.5c-1.3,6.8-4.2,12.7-8.9,17.7l-6.8,7.6l4.6,18.2l-47.7,16.5l-3.4-60.4l-5.1-35.9
	c0.4-3.8,3-7.2,6.3-9.3l4.2-2.1l0.4-4.6c0-3,2.1-5.5,4.6-6.8l2.5-1.3l6.8-3.4c2.5-1.3,0.4-32.9,3-32.1c0,0,5.5-3,6.8,1.7"/>
<path class="st2" d="M1783.4,786v-2.5c0.4-1.7,1.7-3.4,3.4-4.2V778c0.4-3.4,0.4-6.3,0-9.7c-0.4,3-0.8,6.3-0.8,9.3v0.8l0.4-0.4
	c-2.1,0.8-3.4,3-3.8,5.1C1782.5,785.2,1783.4,786,1783.4,786L1783.4,786z"/>
<path class="st2" d="M1803.6,753.1c-1.7,1.3-3,3-3.4,5.1c-1.3,4.6-1.7,9.7-1.3,14.8v4.6c-0.4,1.3-0.8,2.5-1.7,3.8
	c-1.3,1.7-2.1,3.8-2.1,5.9c0,2.1,0.4,4.2,1.7,5.9c-1.7-1.3-2.5-3.4-2.5-5.9c0-2.5,0.8-4.6,2.1-6.8c0.8-0.8,1.3-2.1,1.7-3.4v-4.2
	c-0.4-5.1,0.4-10.1,1.7-15.2C1801.1,753.9,1804.1,753.1,1803.6,753.1L1803.6,753.1z"/>
<path class="st0" d="M2042.7,1789.4l5.5,132.6l71.8-1.7l-5.5-132.6L2042.7,1789.4z"/>
<path class="st3" d="M2083.2,1916.1c0.4,0-0.4-29.1-2.5-64.6c-2.1-35.5-4.2-64.6-4.6-64.6s0.4,29.1,2.5,64.6
	C2080.7,1887,2082.8,1916.1,2083.2,1916.1z"/>
<path class="st3" d="M2047.7,1912.7l71.8-1.7l0.4,9.3l-71.8,1.7L2047.7,1912.7z"/>
<path class="st3" d="M2117.8,1878.1c0,0-0.4-1.3-2.1-3c-2.1-2.5-4.2-4.6-6.8-6.3c-3.8-3-7.6-5.5-11.8-7.2
	c-15.2-6.8-33.4-2.5-43.9,10.1c-2.1,2.5-3.8,5.1-5.1,8c-0.4,0.8-0.8,2.1-0.8,3.4c2.1-3.8,4.2-7.2,7.2-10.1
	c6.8-7.6,16-11.8,26.2-12.2c10.1,0,19.8,3,27.4,9.3C2114.9,1874.3,2117.8,1878.1,2117.8,1878.1L2117.8,1878.1z"/>
<path class="st4" d="M2115.7,1825.3l0.8,14.8l-71.8,1.3l-0.4-11L2115.7,1825.3L2115.7,1825.3z"/>
<path class="st0" d="M1874.6,1797.4l3.4,80.7c0,0-80.7,30.4-81.5,45.6l156.2-1.3l-0.4-125.8L1874.6,1797.4L1874.6,1797.4z"/>
<path class="st5" d="M1925.3,1871.3c3.4,0.8,5.1,3.8,4.6,7.2c-0.8,3.4-3.8,5.1-7.2,4.6c-3.4-0.8-5.5-4.2-4.6-7.6
	c1.3-3,4.6-4.6,7.6-3.8"/>
<path class="st3" d="M1952.7,1922.4v-12.7l-151.6,5.9c0,0-7.2,3-6.3,8L1952.7,1922.4z"/>
<path class="st3" d="M1876.7,1878.5c0,0.8,3.8,1.3,7.6,3.4c3.8,2.1,5.9,5.5,6.3,5.5c0.4,0-0.4-4.6-5.1-7.6
	C1880.9,1876.8,1876.3,1877.7,1876.7,1878.5L1876.7,1878.5z"/>
<path class="st3" d="M1860.2,1885.7c0,0.8,3.4,2.1,5.9,5.1c2.5,3,3.4,6.8,4.2,6.8c0.8,0,1.3-4.2-2.1-8.4
	C1864.9,1884.9,1860.2,1884.9,1860.2,1885.7L1860.2,1885.7z"/>
<path class="st3" d="M1850.9,1905.5c0.8,0,1.7-3.8-0.4-8c-2.1-4.2-5.5-5.9-5.9-5.1c-0.4,0.8,2.1,3,3.4,6.3
	C1849.2,1902.2,1850.1,1905.1,1850.9,1905.5z"/>
<path class="st3" d="M1877.5,1859.9c0.4,0.8,3.8-0.4,8,0c4.2,0.4,7.6,1.7,8,0.8c0.4-0.8-3-3.4-8-3.8
	C1880.5,1856.6,1877.5,1859.5,1877.5,1859.9L1877.5,1859.9z"/>
<path class="st3" d="M1875,1842.6c2.5,0.8,5.5,0.8,8,0c3-0.4,5.5-1.3,8.4-2.5c1.7-0.8,3-1.7,4.6-2.5c0.8-0.4,1.7-1.3,2.5-1.7
	c1.3-1.3,1.3-3,0.4-4.2c-0.8-1.3-2.1-1.7-3.4-1.7c-0.8,0-2.1,0-3,0.4c-1.7,0.4-3.4,0.8-5.1,1.7c-2.5,1.3-5.1,3-7.2,4.6
	c-3.8,3.4-5.1,6.3-4.6,6.3c0.4,0,2.1-2.1,5.9-5.1c2.1-1.7,4.6-3,7.2-4.2c1.3-0.4,3-1.3,4.6-1.3c1.7-0.4,3-0.4,3.4,0.4
	c0.4,0.8,0,0.4,0,0.8c-0.4,0.4-1.3,0.8-1.7,1.3c-1.3,0.8-3,1.7-4.2,2.5c-2.5,1.3-5.1,2.1-7.6,3
	C1880.1,1840.9,1877.5,1841.8,1875,1842.6L1875,1842.6z"/>
<path class="st3" d="M1875.8,1843.9c0.4,0,1.7-2.5,2.1-7.6c0-3-0.4-5.9-1.3-8.4c-0.4-1.7-1.3-3.4-2.1-4.6c-0.8-2.1-3-3.8-5.1-3.8
	c-1.3,0-2.5,0.8-3.4,2.1c-0.4,0.8-0.8,2.1-0.8,3c-0.4,1.7-0.4,3.4,0,5.5c0.4,3,1.7,5.9,3.4,8c3,4.2,6.3,5.1,6.3,4.6
	c0-0.4-2.5-1.7-4.6-5.9c-1.3-2.1-2.1-4.6-2.5-7.6v-4.6c0.4-1.7,0.8-3,1.7-3s2.1,1.3,3,2.5c0.8,1.3,1.3,3,2.1,4.2
	c0.8,2.5,1.3,5.1,1.7,8C1876.3,1840.9,1875.4,1843.5,1875.8,1843.9L1875.8,1843.9z"/>
<path class="st4" d="M1952.7,1845.2v17.7h-75.6v-16L1952.7,1845.2L1952.7,1845.2z"/>
<path class="st1" d="M1942.6,762.4l95-1.3l-10.6-80.7c0,0,6.3-1.3,6.8-36.7c0.4-35.5,2.1-95,2.1-95c-40.5-17.7-87.8-11.8-122.9,15.2
	l-5.1,3.8L1942.6,762.4z"/>
<path class="st1" d="M1918.9,611.2c-0.4-0.4-24.1-7.2-23.2,16.9c0.8,24.1,24.9,18.2,24.9,17.7
	C1920.6,645.4,1918.9,611.2,1918.9,611.2z"/>
<path class="st1" d="M2032.1,606.1c0.4-0.4,22-5.9,21.1,18.2c-0.8,24.1-24.9,18.2-24.9,17.7C2028.3,641.6,2032.1,606.1,2032.1,606.1
	z"/>
<path class="st3" d="M1911.3,608.7c3.8,20.3,3,30.8,6.3,44.3c5.1,21.5,16,37.6,35.1,48.1c19,10.6,45.2,10.6,61.7-3.8
	c11.4-10.1,19.4-21.5,21.1-36.7c1.7-15.2,3.4-41.8,3.4-57.4c0-27.4,2.1-53.6,2.1-53.6l-78.5-14.4l-44.3,26.6L1911.3,608.7
	L1911.3,608.7z"/>
<path class="st3" d="M1992,713.4c-8.9,2.5-18.6,1.7-27-3c0.4-0.4,5.9,1.3,13.5,2.1C1986.1,713.4,1992,712.6,1992,713.4L1992,713.4z"
	/>
<path class="st3" d="M1915.1,642.9c-2.1-20.7-3.8-44.3-7.2-66.3c-1.3-8-4.2-19.8-3.4-28.3c0.4-8.4,2.1-16.5,5.1-24.1
	c8.4-16.9,28.7-24.1,45.6-15.6c2.5,1.3,5.1,3,7.6,5.1c7.6-11.8,23.2-15.2,35.1-7.6c6.3,4.2,10.6,11,11.4,18.2
	c7.2-6.8,18.2-6.3,24.9,0.4c4.2,4.6,5.9,11,4.2,17.3c9.3,1.7,15.6,10.6,14.4,19.8c-0.4,2.5-1.3,4.6-2.5,6.8
	c-3.8,5.5-10.1,8.9-14.4,13.9c-4.6,6.3-5.1,14.8-1.3,21.5"/>
<path class="st6" d="M2024.1,568.1c0,0.8-0.4,1.7-0.8,2.1c-1.3,2.1-2.5,3.8-4.6,5.1c-3,2.1-6.3,3.4-10.1,3.4
	c-5.1,0-9.3-2.1-12.7-5.9l1.7-0.4c-1.3,5.5-5.1,10.1-10.6,12.2c-5.9,2.1-12.7,1.3-17.7-2.1c-4.6-3.4-8-7.6-10.1-13.1l2.1,0.4
	c-3.8,5.9-10.6,9.7-17.7,9.7c-5.5,0-11-2.1-14.8-5.9c-2.5-2.5-4.2-5.9-5.5-9.3c-0.4-1.3-0.4-2.5-0.4-3.8l1.3,3.8
	c1.3,3.4,3,5.9,5.5,8.4c3.8,3.4,8.9,5.5,13.9,5.1c6.3-0.4,12.7-3.8,16-8.9l1.3-1.7l0.8,2.1c1.7,4.6,5.1,8.9,9.3,11.8
	c4.6,3.4,10.6,4.2,15.6,2.1c4.6-1.7,8.4-5.5,9.3-10.6l0.4-2.1l1.3,1.7c3,3.4,6.8,5.5,11.4,5.5c3.4,0,6.8-0.8,9.3-2.5
	C2020.3,573.2,2022.4,570.7,2024.1,568.1L2024.1,568.1z"/>
<path class="st6" d="M2023.6,558.8c-0.4-3-1.7-6.3-3.4-8.9c-2.1-3-5.1-4.6-8.4-5.5c-4.2-0.8-8.4,0-11.8,2.1l-2.1,1.3v-2.5
	c0-2.5,0-4.6-0.8-6.8c-1.7-5.1-5.1-8.9-9.7-11.4c-3.8-1.7-8-2.1-12.2-1.3c-3.8,1.3-7.2,3-10.1,5.9c0,0,0.4-1.3,2.1-2.5
	c5.9-5.5,13.9-6.8,21.5-3.8c5.1,2.5,9.3,6.8,11,12.2c0.8,2.5,1.3,5.1,0.8,8l-1.7-0.8c3.8-3,8.9-3.8,13.5-2.5
	c3.8,0.8,6.8,3.4,8.9,6.8c1.3,2.1,2.1,4.6,2.5,6.8C2024.1,558,2024.1,558.8,2023.6,558.8L2023.6,558.8z"/>
<path class="st6" d="M1973.8,559.7c-0.4,0,0-1.3,0-3.4c-0.4-2.5-1.3-5.1-2.5-7.2c-1.7-2.5-3.4-5.1-4.6-6.3s-2.5-0.4-2.5-0.4
	s0-0.4,0.4-0.8c0.8-0.4,2.1-0.4,3,0.4c0.8,0.8,2.1,1.7,2.5,2.5c0.8,1.3,2.1,2.5,2.5,3.8c1.7,2.5,2.5,5.5,2.1,8.4
	C1975.1,558.4,1973.8,559.7,1973.8,559.7z"/>
<path class="st6" d="M1927.4,529.3c-0.4,0,0-1.7,1.3-4.2c0.8-1.7,2.1-3,3.8-3.8c1.7-1.3,4.2-1.7,6.3-1.3c3.8,0.8,7.2,3,9.7,5.9
	c1.7,2.1,2.5,3.8,2.1,3.8s-1.7-0.8-3.4-3c-2.5-2.5-5.5-4.2-8.4-4.6c-3.4-0.4-6.3,1.3-8.4,3.8
	C1928.2,527.6,1927.4,529.3,1927.4,529.3L1927.4,529.3z"/>
<path class="st6" d="M1939.2,631.5c-3.8-4.2-6.8-9.7-8.4-15.2c-2.1-5.5-3.4-11.4-3-17.3c0.4,0,1.7,7.6,5.1,16.5
	C1936.2,624.3,1940,631.1,1939.2,631.5L1939.2,631.5z"/>
<path class="st6" d="M1950.2,637c-4.6-6.8-8-14.8-8.9-22.8c2.1,3.4,3.8,7.2,5.1,11.4C1948.1,628.9,1949.3,633.2,1950.2,637z"/>
<path class="st6" d="M2016,638.7c1.7,14.4-3.8,29.1-14.8,38.9c3.8-5.9,7.2-12.2,9.7-18.6C2013.5,652.6,2015.2,645.4,2016,638.7z"/>
<path class="st6" d="M2026.6,621.3c4.2,12.2,1.7,26.2-6.8,36.3c2.5-5.9,4.6-11.8,5.9-17.7C2026.6,634,2027,627.7,2026.6,621.3
	L2026.6,621.3z"/>
<path class="st3" d="M1996.2,1284.8l23.2,222.6l16.5,335.7h88.7l2.1-714.1l-253.4,18.2l-52.4,374.6l45.6,328.1h97.1l-22.8-312.1
	L1996.2,1284.8"/>
<path class="st6" d="M1996.2,1284.8c-5.1,6.3-11,11.8-17.3,16.9c-5.9,5.5-11.8,11-18.6,15.2
	C1971.3,1305,1983.1,1294.1,1996.2,1284.8z"/>
<path class="st6" d="M1995.8,1280.1c-0.4-9.7-0.4-19,0.4-28.7c0-9.7,0.4-19,1.7-28.7C1999.6,1242.1,1998.7,1261.1,1995.8,1280.1
	L1995.8,1280.1z"/>
<path class="st6" d="M2025.3,1196.9h1.3l4.2-0.4l16.9-0.8l60-2.5h0.8v65.5l-0.8,0.4l-38.9,15.6h-0.8l-34.6-11.8h-0.4v-0.4
	c-2.5-19.4-4.6-35.5-6.3-47.3c-0.8-5.5-1.3-9.7-1.7-13.1C2025.3,1200.3,2025.3,1198.6,2025.3,1196.9v1.3c0,0.8,0.4,2.1,0.4,3.4
	c0.4,3.4,1.3,7.6,2.1,13.1c1.7,11.4,4.2,27.4,7.2,46.5l-0.4-0.8l34.6,11.8h-0.8l38.9-15.6l-0.8,0.8v-63.8l0.8,0.8l-59.5,1.7
	l-16.9,0.4h-3.8C2026.6,1196.9,2025.8,1196.9,2025.3,1196.9L2025.3,1196.9z"/>
<path class="st6" d="M1897.4,1198.2h5.1l15.2-0.4l54.9-1.3h0.8v0.8c-0.4,18.6-1.3,39.7-2.1,62.5v0.4l-0.4,0.4l-6.3,4.2l-32.1,21.1
	l-0.4,0.4l-0.4-0.4l-36.3-22l-0.4-0.4v-0.4c0.8-19.4,1.3-35.5,1.7-47.3c0.4-5.5,0.4-9.7,0.4-13.1
	C1897,1201.2,1897,1199.9,1897.4,1198.2v18.2c0,11.4-0.4,27.4-0.8,46.5l-0.4-0.8l36.3,22h-1.3l32.1-21.1l6.3-4.2l-0.4,0.8
	c0.8-22.8,1.7-43.9,2.1-62.5l0.8,0.8l-54.1,0.4h-19.4C1898.6,1198.6,1897.8,1198.2,1897.4,1198.2L1897.4,1198.2z"/>
<path class="st6" d="M2099.7,1299.1c-3.8,0.4-8,0-11.8-0.4c-7.6-0.4-17.7-1.7-28.7-3c-11-1.3-21.1-3-28.7-4.2
	c-3.8-0.4-7.6-1.3-11.4-2.5c3.8,0,8,0.4,11.8,1.3l28.7,3.8l28.7,3.8C2091.6,1297.4,2095.9,1298.3,2099.7,1299.1L2099.7,1299.1z"/>
<path class="st6" d="M2097.6,1547.4c0,0-0.4,1.3-2.1,3c-2.5,2.1-5.9,3-8.9,3c-5.1,0-9.7-2.1-13.1-5.1c-4.2-3.8-8.4-7.6-12.2-12.2
	c-6.8-8-12.7-16.5-17.7-25.3c-2.1-3.8-4.2-7.6-5.5-11.4c2.5,3.4,4.6,7.2,6.8,10.6c5.5,8.4,11.8,16.9,18.2,24.5
	c3.4,4.2,7.6,8.4,11.8,12.2c3.4,3,7.6,4.6,12.2,5.1c3,0,5.9-0.4,8.4-2.1C2096.7,1548.3,2097.1,1547.4,2097.6,1547.4L2097.6,1547.4z"
	/>
<path class="st6" d="M1922.7,1555c0,0.8-0.4,2.1-1.3,3c-1.7,2.5-3.8,4.2-6.3,5.9c-3.8,2.1-8,3.4-12.2,3.4c-5.1,0-10.1-1.7-14.8-4.6
	c-7.6-5.5-13.9-12.7-17.7-21.1c-1.7-3.4-3.4-6.8-4.2-10.6c2.1,3,4.2,6.3,5.9,9.7c4.2,8,10.1,14.8,17.3,19.8
	c4.2,2.5,8.9,4.2,13.5,4.6c3.8,0,8-0.8,11.4-2.5C1917.7,1560.5,1920.6,1558,1922.7,1555L1922.7,1555z"/>
<path class="st6" d="M1928.2,1521.7c-2.1,1.7-4.6,3.4-7.2,4.2c-6.3,2.5-13.1,4.2-19.8,4.2c-6.8,0.4-13.5-0.8-20.3-3
	c-2.5-0.8-5.5-2.1-7.6-3.8C1891.5,1530.1,1910.9,1529.3,1928.2,1521.7z"/>
<path class="st1" d="M2349.7,464.7l12.7,3.4l-4.2,18.2c0,0-8.9,21.5-17.7,16c-8-5.1-2.1-16-2.1-16s17.3-19,5.9-24.1
	c-1.7-0.8-14.8,11.4-21.1,17.7c-2.5,2.1-3.8,5.5-3.8,8.9l-1.7,36.3c-0.4,6.8,1.3,13.5,4.2,19.4l5.1,8.9l-8.9,16.5l42.2,27.4
	l17.7-57.9l13.5-33.8c0.4-3.8-1.3-8-4.2-10.6l-3.8-3l0.8-4.6c0.4-3-0.4-5.9-3-7.6l-2.1-1.7l2.1-7.6c0.4-3.4,4.6-16.5-20.3-15.6
	c0,0-12.7-0.4-14.4,3.8C2346.3,461.3,2346.7,463.8,2349.7,464.7L2349.7,464.7z"/>
<path class="st2" d="M2374.6,506.9c0.8-1.3,1.3-3,1.7-4.2c0.8-3.8,0.4-7.6-1.3-11c0.4-3.8,1.3-7.6,2.5-11.4c0.4-1.7,1.3-3,2.1-4.2
	c0,0-0.4,1.7-1.7,4.6c-1.3,3.4-1.7,7.2-2.1,11c0.4,0.8,0.8,2.1,0.8,3c0.4,0.8,0.4,2.1,0.4,3c0,1.7,0,3.4-0.4,5.1
	c-0.4,1.3-0.8,2.1-1.3,3.4C2375,506.5,2374.6,506.5,2374.6,506.9L2374.6,506.9z"/>
<path class="st2" d="M2383,507.3c0.4-0.8,0.4-1.7,0.4-2.5c0-2.1-0.8-3.8-2.5-5.1v-0.8c0.4-3,1.3-6.3,2.5-9.3
	c-0.4,3.4-0.8,6.3-1.7,9.3v0.8v-0.4c1.7,1.3,2.5,3.4,2.5,5.9C2384.3,506.5,2383.4,507.3,2383,507.3L2383,507.3z"/>
<path class="st0" d="M2339.5,448.2l51.9,100.9c1.3,2.5,0.4,5.5-2.1,7.2c-2.5,1.3-5.5,0.4-6.8-2.1l-51.9-100.9l-0.4-12.2
	L2339.5,448.2L2339.5,448.2z"/>
<path class="st1" d="M2318,506.9l1.3-24.9l24.1-21.1c0,0,5.9,4.2,5.5,8.4s-11,16.9-11,16.9c-2.5,3.4-3,8-1.3,11.8"/>
<path class="st0" d="M1818.8,841.4l-34.6,12.7l-37.6,109.4l76.4-64.6L1818.8,841.4L1818.8,841.4z"/>
<path class="st0" d="M2309.5,558l-68.8,108.5l-110.6,58.3c0,0-17.3-10.1-26.2-8.4c-6.3,2.1-11.8,5.9-16,11l16.9,142.3l41.8-30.8
	l142.7-79.8l83.6-158.4L2309.5,558L2309.5,558z"/>
<path class="st0" d="M1861.9,770c-12.7,9.3-22.8,21.5-28.7,36.3c-7.6,18.2-55.3,99.7-82.3,147c-9.7,17.3-11,47.3,3,61.7
	c16.5,17.3,36.3,10.6,60,2.5c10.6-3.4,59.1-77.7,59.1-77.7L1861.9,770L1861.9,770z"/>
<path class="st0" d="M1884.3,1092.6L1854.7,838l7.2-68l75.6-32.1l97.6-6.3l92.9,10.1l-22,261.4l24.1,147.4l-260.6,11.8
	L1884.3,1092.6L1884.3,1092.6z"/>
<path class="st3" d="M1883.4,1092.6c-0.4,0-7.6-56.6-16-126.7s-14.4-126.7-13.5-127.1c0.8-0.4,7.6,56.6,16,126.7
	C1878.4,1035.6,1883.9,1092.6,1883.4,1092.6z"/>
<path class="st3" d="M2125,800v2.1c0,1.7-0.4,3.8-0.4,6.8l-2.5,24.1c-2.1,20.7-4.6,48.6-8,79.4c-3.4,30.8-5.5,59.1-6.8,79.4
	c-0.8,10.1-1.3,18.2-1.7,24.1c0,2.5-0.4,4.6-0.4,6.3c0,0.8,0,1.7-0.4,2.1v-8.4c0-5.9,0.4-13.9,0.8-24.1c1.3-20.3,3.4-48.6,6.3-79.4
	c3-30.8,5.9-59.1,8.4-79.4c1.3-10.1,2.1-18.2,3.4-24.1c0.4-2.5,0.8-4.6,0.8-6.3C2124.6,801.7,2124.6,800.8,2125,800L2125,800z"/>
<path class="st3" d="M2080.2,1053.8c-1.3,1.7-2.5,3.4-4.2,5.1c-1.7,2.1-3.4,3.8-5.1,5.5c-2.1,2.1-4.6,4.6-7.6,6.8
	c-3,2.5-6.3,5.1-9.7,7.6c-3.4,2.5-7.6,5.1-11.8,7.6c-19,10.6-40.1,16.9-61.7,18.6c-4.6,0.4-9.3,0.4-13.9,0.4c-4.2,0-8-0.4-12.2-0.8
	c-3.4-0.4-6.8-0.8-10.1-1.7c-2.5-0.4-5.1-0.8-7.6-1.7c-2.1-0.4-4.2-0.8-6.3-1.7c0-0.4,8.9,2.1,23.6,3.8c4.2,0.4,8,0.4,12.2,0.4
	c4.2,0,8.9,0,13.9-0.4c10.6-0.8,21.1-3,31.2-5.9c10.1-3,20.3-7.2,29.6-12.2c4.2-2.5,8.4-4.6,11.8-7.2c3.4-2.1,6.8-4.6,9.7-7.2
	C2073.9,1060.5,2079.8,1053.4,2080.2,1053.8L2080.2,1053.8z"/>
<path class="st4" d="M1942.6,1101.1c-12.7-3.8-13.5-15.6-8.4-20.7c5.1-5.1,12.7-5.9,19.8-4.6c6.8,1.7,13.9,2.5,21.1,3
	c11.4-0.8,21.1-8.9,29.1-17.3c8-8.4,15.6-17.7,26.2-22.4c10.6-4.6,25.3-3,30.8,7.2c3.4,6.8,2.5,14.8-1.3,21.1
	c-3.8,6.3-9.3,11.4-15.6,15.2C2014.8,1102.8,1977.6,1109.5,1942.6,1101.1"/>
<path class="st3" d="M2096.7,740.4c6.8,2.5,13.1,7.2,16.9,13.5c4.6,5.9,7.2,13.1,7.6,20.3c-2.1-6.8-5.5-13.1-9.3-19
	C2107.3,749.7,2102.2,744.7,2096.7,740.4L2096.7,740.4z"/>
<path class="st3" d="M1741.1,1001.4c-0.4-1.7-0.8-3.4-0.8-4.6c-0.4-4.6-0.4-8.9-0.4-13.5c0.8-14.8,5.9-29.1,13.9-41.4
	c9.3-14.4,17.3-27.4,23.6-37.2l7.2-11c0.8-1.3,1.7-2.5,3-3.8c-0.4,1.7-1.3,3-2.1,4.2c-1.7,3-4.2,6.8-6.8,11.4
	c-5.9,9.7-13.9,22.8-22.8,37.2c-8,12.2-13.1,26.2-14.4,40.5C1740.3,994.2,1741.6,1001.4,1741.1,1001.4L1741.1,1001.4z"/>
<path class="st0" d="M2073.9,752.7c-2.1-11-9.3-20.7-15.6-29.6c-4.6-6.3-10.1-13.1-17.7-13.1c-6.3,0-11.4,4.2-16.5,8
	c-27,19.4-58.3,17.3-88.3,3.8l-0.8-4.2c-3-2.1-14.4,8.4-16.5,13.9c-1.7,5.9-2.1,12.7-0.4,18.6c4.6,23.2,17.3,43.9,35.9,58.7
	c19,14.4,43.1,19.8,66.3,15.6c23.2-5.1,42.7-21.5,51.1-43.9C2074.7,771.3,2075.6,762,2073.9,752.7L2073.9,752.7z"/>
<path class="st3" d="M2073.1,755.2c0,0.8,0.4,2.1,0.4,3c0,1.7,0.4,4.6,0.4,8.4c0.4,10.1,0,20.3-1.7,30.4c-0.8,7.2-3,13.9-5.5,20.3
	c-3.4,7.6-8,14.4-13.9,19.8c-14.4,12.7-33.4,18.6-51.9,16c-18.6-2.5-35.9-11.4-49-24.9c-10.6-11-19-23.6-24.5-38
	c-3.8-9.7-6.3-19.4-8-29.6c-0.4-3.4-0.8-6.3-1.3-8v-3c0.4,0.8,0.4,1.7,0.4,3c0.4,1.7,0.8,4.6,1.7,8c2.1,9.7,5.1,19.4,8.9,29.1
	c5.5,13.9,13.9,26.6,24.5,37.2c12.7,13.1,29.6,21.5,47.7,24.1c18.2,2.1,36.7-3.4,50.3-15.6c5.9-5.5,10.6-11.8,13.5-19.4
	c3-6.3,4.6-13.1,5.9-19.8c1.7-10.1,2.1-20.3,2.1-30L2073.1,755.2L2073.1,755.2z"/>
<path class="st4" d="M2032.5,711.7c7.2,16,12.7,30.8,5.5,46.9c-6.3,13.9-22.4,22-37.6,21.5c-15.6-1.3-30-8-40.5-19.4
	c-10.6-11-19.8-23.2-27.9-36.7l2.5-5.9l0.8,3c0,0,36.3,17.3,61.7,8.4C2024.5,720.2,2032.5,711.7,2032.5,711.7L2032.5,711.7z"/>
<path class="st3" d="M2059.5,782.7c-0.8,1.3-2.1,2.1-3,3c-3,2.5-6.3,5.1-9.7,7.2c-22.8,14.4-50.7,16.5-75.6,6.3
	c-3.8-1.7-7.2-3.4-10.6-5.5c-1.3-0.8-2.5-1.7-3.4-2.5c0-0.4,5.5,3,14.8,6.3c24.5,9.3,51.5,6.8,74.3-6.3
	C2054.9,786.5,2059.5,782.2,2059.5,782.7L2059.5,782.7z"/>
<path class="st3" d="M2030,710.4c0.4,0.4,0.8,0.8,0.8,1.7c0.4,1.3,1.3,2.5,2.5,5.1c3,6.3,4.6,12.7,5.5,19.4
	c1.3,10.1-0.8,20.7-6.3,29.1c-3.4,5.1-7.6,9.3-13.1,12.2c-5.9,3-12.2,4.2-19,3.4c-6.3-0.8-12.7-2.5-18.6-5.1
	c-5.5-2.5-10.6-5.1-15.6-8.9c-8.4-5.9-15.6-13.1-21.5-21.1c-3.8-5.5-7.2-11.4-9.7-17.7c-0.8-1.7-1.3-3.4-1.7-5.1
	c-0.4-0.4-0.4-1.3-0.4-1.7c3.4,8.4,7.6,16.5,13.1,24.1c5.9,8,13.1,14.8,21.1,20.3c4.6,3.4,9.7,6.3,15.2,8.4
	c5.5,2.5,11.8,4.2,17.7,4.6c5.9,0.8,12.2-0.4,17.7-3.4c5.1-3,9.3-6.8,12.2-11.4c5.1-8.4,7.6-18.2,6.3-27.9
	c-0.8-6.8-2.1-13.1-4.6-19.4C2031.2,713,2030,710.4,2030,710.4L2030,710.4z"/>
<path class="st3" d="M2125,1129.8h-10.1l-27.4-0.4c-22.8,0-54.9,0.4-89.9,2.1c-35.1,1.7-66.7,5.1-89.5,8l-27,3.4l-7.2,0.8h-2.5
	c0.8-0.4,1.7-0.4,2.5-0.4l7.2-1.3c6.3-1.3,15.6-2.5,27-4.2c22.8-3,54.5-6.8,89.5-8.4c35.1-1.7,67.1-2.1,89.9-1.7
	c11.4,0.4,20.7,0.4,27.4,0.8l7.6,0.4C2123.3,1129.4,2124.6,1129.4,2125,1129.8L2125,1129.8z"/>
<path class="st3" d="M1856,777.6c-0.8,1.7-1.7,3.4-3,4.6c-2.1,3.4-5.1,7.2-8,12.2c-6.8,10.1-16,24.9-25.8,41s-18.2,31.3-24.1,42.2
	l-6.8,13.1c-0.8,1.7-1.7,3.4-3,4.6c0.4-1.7,1.3-3.4,2.1-5.1c1.3-3.4,3.8-7.6,6.3-13.1c5.5-11,13.5-26.2,23.2-42.7
	c9.7-16.5,19.4-30.4,26.6-40.5c3.8-5.1,6.3-9.3,8.4-11.8C1853.5,780.1,1854.3,778.9,1856,777.6L1856,777.6z"/>
<path class="st3" d="M2359.8,627.3c-3.8-1.7-7.2-3.8-10.6-5.9c-6.3-3.8-14.8-9.3-23.6-16c-8.9-6.8-17.3-12.7-23.2-16.9
	c-3.4-2.1-6.3-5.1-8.9-7.6c3.4,1.7,6.8,3.8,10.1,6.3c6.8,4.6,14.8,10.1,23.2,16.5l23.2,16.5C2353.5,622.6,2356.8,624.7,2359.8,627.3
	L2359.8,627.3z"/>
<path class="st7" d="M1919.8,777.2c-1.3,0.8-2.1,1.3-3.4,1.7c-2.1,0.8-5.9,1.7-10.1,2.5c-8.4,2.1-20.3,3.8-32.9,6.8
	c-11,2.5-21.1,7.6-29.6,14.8c-3.4,3.4-6.3,6.8-9.3,10.6c0.4-1.3,0.8-2.5,1.7-3.4c1.7-3,3.8-5.9,6.3-8c8.4-7.6,19-13.1,30-16
	c13.1-3.4,24.9-4.6,33.4-6.3C1914.3,778,1919.8,777.2,1919.8,777.2z"/>
<path class="st7" d="M1918.9,761.5c-3.4,1.7-6.8,3-10.1,3.8l-24.5,8.4l-24.5,8.9c-3.4,1.3-6.8,2.5-10.1,3.4c3-2.1,6.3-3.4,9.7-4.6
	c6.3-2.5,14.8-5.9,24.5-9.3c9.7-3.4,18.6-6.3,24.9-8C1911.7,762.8,1915.1,762,1918.9,761.5z"/>
<path class="st7" d="M1929.9,792.8c-1.3-2.5-1.7-5.5-2.1-8.4c-0.8-7.2-1.3-13.9-1.3-21.1c-0.4-7.2,1.7-14.4,5.5-20.3
	c3.4-4.6,6.8-5.9,6.8-5.5c-2.1,2.1-3.8,4.2-5.5,6.3c-3.4,5.9-4.6,12.7-4.2,19.4C1928.2,779.7,1930.3,792.8,1929.9,792.8
	L1929.9,792.8z"/>
<path class="st7" d="M1942.1,779.3c0,0-1.7-1.3-2.5-4.2c-3-7.6-1.7-16.5,3.4-22.8c2.1-2.5,3.4-3.4,3.8-3.4c-3,4.6-5.1,9.3-6.3,14.4
	C1940,768.7,1940.5,774.2,1942.1,779.3L1942.1,779.3z"/>
<path class="st7" d="M1940.9,811.8c-5.5-8.9-5.9-19.8-1.3-29.1c0.4,0.4-1.3,6.8-0.8,14.8C1939.2,805.5,1941.7,811.4,1940.9,811.8z"
	/>
<path class="st7" d="M2113.2,756.9c0,0.4-8.4-0.4-18.6,0.4c-10.1,0.8-18.6,2.5-18.6,1.7c5.9-2.5,12.2-4.2,18.6-4.2
	C2100.9,754.4,2107.3,754.8,2113.2,756.9z"/>
<path class="st7" d="M2105.6,745.9c0,0.4-8.9-0.4-19.8,0.4s-19.4,3-19.8,2.1c6.3-3,12.7-4.2,19.4-4.6
	C2092.5,743.4,2099.2,743.8,2105.6,745.9L2105.6,745.9z"/>
<path class="st7" d="M2132.2,741.3c0,0.4-1.7,0-3.8,0c-6.3,0-11.8,4.6-12.7,11c-0.4,2.5-0.4,3.8-0.4,3.8s-0.8-1.3-0.8-4.2
	c0-7.2,5.9-12.7,13.1-12.2h1.3C2130.9,740,2132.6,741.3,2132.2,741.3L2132.2,741.3z"/>
<path class="st7" d="M2129.6,731.6c0,0.4-1.7,0-4.2,0c-3.4-0.4-6.8,0-9.7,0.8c-3,1.3-5.5,3.4-6.3,6.3c-0.8,2.1-0.4,3.8-0.4,4.2
	c0,0.4-1.3-1.3-0.8-4.2c0.8-3.8,3.4-6.8,7.2-8c3.4-1.3,7.2-1.3,10.6-0.4C2128,730.3,2129.6,731.1,2129.6,731.6z"/>
<path class="st7" d="M2301.5,585c-0.4,0.8-0.4,1.7-0.8,2.1l-3.4,5.9c-3,5.5-7.2,13.1-12.2,22c-5.1,8.9-11.4,20.3-18.6,32.5
	c-3.4,5.9-6.8,12.7-11.4,19c-4.2,6.8-10.1,12.7-16.5,17.3c-6.8,4.2-13.5,8.4-20.7,11.8l-19.4,10.6l-32.9,17.3l-22.4,11.8l-5.9,3
	l-2.1,0.8c0.4-0.4,1.3-0.8,2.1-1.3l5.9-3.4l22-12.2l32.5-18.2l19.4-10.6c7.2-3.8,13.9-7.6,20.3-11.8c13.5-8.9,20.3-23.6,27.4-35.5
	l19-32.1l12.7-21.5c1.7-2.5,2.5-4.2,3.8-5.9C2300.3,586.3,2301.1,585.4,2301.5,585L2301.5,585z"/>
<path class="st7" d="M2231.8,669.9c-1.3,1.3-2.5,2.1-3.8,3c-2.5,1.7-5.9,4.2-10.6,7.2c-8.9,5.9-21.5,13.9-35.5,22.4
	c-13.9,8.4-27.4,15.6-36.7,20.3c-4.6,2.5-8.9,4.2-11.4,5.5c-1.3,0.8-3,1.3-4.2,1.7l3.8-2.5l11-6.3c9.3-5.1,22.4-12.7,36.3-20.7
	s26.6-16,35.9-22l11-6.8C2229.3,671.2,2230.6,670.8,2231.8,669.9z"/>
<path class="st7" d="M1833.6,813.1c0.4,0.4-13.5,26.2-31.2,57.4c-17.7,31.3-32.9,56.6-33.4,56.2c-0.4-0.4,13.5-26.2,31.7-57.4
	C1818.8,838,1833.2,812.6,1833.6,813.1z"/>
<path class="st6" d="M2623.7,1886.5c-6.3-63.8-63.3-110.2-127.1-103.9c-54.9,5.5-98.4,49-103.9,103.9h-18.2v35.9h267.7v-35.9H2623.7
	z M2508,1819c39.3,0,72.2,28.7,78.1,67.1h-155.8C2435.8,1847.7,2469.2,1819,2508,1819z"/>
<path class="st3" d="M2414.7,1860.4c0,0.4-3.4,0-7.6-1.7c-4.2-1.7-6.8-3-6.8-3.8c0-0.8,3.4,0,7.6,1.7S2414.7,1859.9,2414.7,1860.4z"
	/>
<path class="st3" d="M2426.1,1838c-0.4,0.4-3.4-1.3-6.8-3.4s-5.9-4.6-5.5-5.5c0.4-0.8,3.4,1.3,6.8,3.4
	C2424,1834.6,2426.5,1837.6,2426.1,1838z"/>
<path class="st3" d="M2443.4,1819.8c-0.4,0.4-3-2.1-5.1-5.5c-2.1-3.4-3.8-6.3-3.4-6.8c0.4-0.4,3,2.1,5.1,5.5
	C2442.1,1816.4,2444.3,1819.4,2443.4,1819.8z"/>
<path class="st3" d="M2470,1803.8c-0.4,0-2.1-2.5-3.8-6.3c-1.7-3.8-2.1-7.2-1.7-7.6c0.4-0.4,2.1,2.5,3.8,6.8
	C2470,1800.8,2470.4,1803.8,2470,1803.8L2470,1803.8z"/>
<path class="st3" d="M2501.7,1796.2c-0.4,0-1.7-3-2.5-7.2c-0.8-4.2-0.8-7.6-0.4-7.6c0.4,0,1.7,3,2.5,7.2
	C2502.1,1792.8,2502.5,1796.2,2501.7,1796.2z"/>
<path class="st3" d="M2604.3,1872.6c0-0.4,3-2.1,6.8-3c3.8-0.8,7.2-1.3,7.6-0.8c0.4,0.4-3,2.1-6.8,3
	C2608.1,1872.6,2604.7,1873,2604.3,1872.6z"/>
<path class="st3" d="M2595,1849c-0.4-0.4,2.1-2.5,5.9-4.6s6.8-3.4,6.8-3c0,0.4-2.1,2.5-5.9,4.6C2598,1848.1,2595.4,1849.4,2595,1849
	z"/>
<path class="st3" d="M2581.1,1827c-0.4-0.4,1.3-3.4,4.2-6.3c3-3,5.1-5.5,5.9-5.1c0.8,0.4-1.3,3.4-4.2,6.3S2581.5,1827.4,2581.1,1827
	z"/>
<path class="st3" d="M2557.9,1811c-0.4-0.4,0.4-3.4,2.5-7.2c2.1-3.8,3.8-6.3,4.2-6.3s-0.4,3.4-2.5,7.2
	C2560,1808.4,2558.7,1811.4,2557.9,1811z"/>
<path class="st3" d="M2527.9,1800.4c-0.4,0,0-3.4,0.8-7.6c0.8-4.2,2.5-7.2,3.4-6.8c0.8,0.4,0,3.4-0.8,7.6
	C2530.4,1797.9,2528.3,1800.4,2527.9,1800.4z"/>
<path class="st0" d="M2250,1453.7V1922h-34.6v-468.3H2250z"/>
<path class="st3" d="M2250,1894.1c-5.9,1.3-12.7,1.3-18.6,0C2237.8,1892.5,2244.1,1892.5,2250,1894.1z"/>
<path class="st3" d="M2250,1848.5c-5.9,1.3-12.7,1.3-18.6,0C2237.8,1847.3,2244.1,1847.3,2250,1848.5z"/>
<path class="st3" d="M2250,1802.9c-5.9,1.3-12.7,1.3-18.6,0C2237.8,1801.7,2244.1,1801.7,2250,1802.9z"/>
<path class="st3" d="M2250,1757.3c-5.9,1.3-12.7,1.3-18.6,0C2237.8,1756.1,2244.1,1756.1,2250,1757.3z"/>
<path class="st3" d="M2250,1712.1c-5.9,1.3-12.7,1.3-18.6,0C2237.8,1710.4,2244.1,1710.4,2250,1712.1z"/>
<path class="st3" d="M2250,1666.5c-5.9,1.3-12.7,1.3-18.6,0C2237.8,1664.8,2244.1,1664.8,2250,1666.5z"/>
<path class="st3" d="M2250,1620.9c-5.9,1.3-12.7,1.3-18.6,0C2237.8,1619.7,2244.1,1619.7,2250,1620.9z"/>
<path class="st3" d="M2250,1575.3c-5.9,1.3-12.7,1.3-18.6,0C2237.8,1574,2244.1,1574,2250,1575.3z"/>
<path class="st3" d="M2250,1529.7c-5.9,1.3-12.7,1.3-18.6,0C2237.8,1528.4,2244.1,1528.4,2250,1529.7z"/>
<path class="st3" d="M2250,1484.5c-5.9,1.3-12.7,1.3-18.6,0C2237.8,1482.8,2244.1,1482.8,2250,1484.5z"/>
<path class="st0" d="M2282.9,1729.9v190.9h261.4L2282.9,1729.9z M2323.9,1809.3l102.6,75.2h-102.6V1809.3z"/>
<path class="st3" d="M2313.8,1753.1c0.4,0.4-1.3,3.8-3.8,7.6c-2.5,3.8-5.1,6.8-5.5,6.3c-0.4-0.4,1.3-3.8,3.8-7.6
	C2310.8,1755.6,2313.3,1753.1,2313.8,1753.1z"/>
<path class="st3" d="M2342.9,1774.6c0.4,0.4-0.8,3.8-3.4,7.2c-2.5,3.4-4.6,6.3-5.5,5.9s0.8-3.4,3.4-7.2
	C2339.9,1776.7,2342.5,1774.2,2342.9,1774.6z"/>
<path class="st3" d="M2374.2,1798.3c0.4,0.4-0.8,3.4-3.4,7.2c-2.5,3.8-4.6,6.3-5.5,5.9c-0.8-0.4,0.8-3.4,3.4-7.2
	C2371.2,1800.4,2373.7,1797.9,2374.2,1798.3z"/>
<path class="st3" d="M2405.4,1821.9c0.4,0.4-0.8,3.4-3.4,7.2s-4.6,6.3-5.5,5.9c-0.8-0.4,0.8-3.8,3.4-7.2
	C2402.4,1824.5,2405,1821.5,2405.4,1821.9z"/>
<path class="st3" d="M2437.1,1845.6c0.4,0.4-0.8,3.8-3.4,7.2s-4.6,6.3-5.5,5.9c-0.8-0.4,0.8-3.4,3.4-7.2
	S2436.7,1845.6,2437.1,1845.6z"/>
<path class="st3" d="M2468.3,1869.2c0.4,0.4-0.8,3.4-3.4,7.2s-4.6,6.3-5.5,5.9c-0.8-0.4,0.8-3.4,3.4-7.2
	S2467.9,1869.2,2468.3,1869.2z"/>
<path class="st3" d="M2499.6,1892.9c0.4,0.4-0.8,3.4-3.4,7.2c-2.5,3.8-4.6,6.3-5.5,5.9s0.8-3.8,3.4-7.2
	C2496.6,1895.4,2499.2,1892.9,2499.6,1892.9z"/>
<path class="st3" d="M2708.6,1922c0,0.4-429.1,1.3-958.6,1.3s-958.6-0.4-958.6-1.3c0-0.8,429.1-1.3,958.6-1.3
	S2708.6,1921.2,2708.6,1922z"/>
</svg>
