<?xml version="1.0" encoding="utf-8"?>
<!-- Generator: Adobe Illustrator 23.0.1, SVG Export Plug-In . SVG Version: 6.00 Build 0)  -->
<svg version="1.1" id="Слой_1" xmlns="http://www.w3.org/2000/svg" xmlns:xlink="http://www.w3.org/1999/xlink" x="0px" y="0px"
	 viewBox="0 0 3200 2000" style="enable-background:new 0 0 3200 2000;" xml:space="preserve">
<style type="text/css">
	.st0{fill:#E0E0E0;}
	.st1{fill:#C9C9C9;}
	.st2{fill:#00858E;}
	.st3{fill:#FFC93C;}
	.st4{fill:#FFFFFF;}
	.st5{clip-path:url(#SVGID_2_);}
	.st6{fill:#FFB27D;}
	.st7{fill:#DFEBFD;}
	.st8{fill:#007477;}
	.st9{fill:#ED975D;}
	.st10{fill:#263238;}
	.st11{fill:#FFDF93;}
	.st12{fill:#375DAA;}
	.st13{fill:#EFC8AB;}
	.st14{fill:#FFEDDC;}
	.st15{fill:#F7DCC6;}
	.st16{fill:#E8B795;}
	.st17{fill:#E2810E;}
	.st18{fill:#FFB93E;}
	.st19{fill:#FFA412;}
	.st20{fill:#2C3A64;}
	.st21{fill:#ED985F;}
	.st22{fill:#EDB22F;}
	.st23{fill:#FAFDFF;}
	.st24{fill:#699DEE;}
	.st25{fill:#A9453D;}
</style>
<path class="st0" d="M614.8,1055.3c0,0,137.4,81.8,120.6,106.5s-146.6-102.2-146.6-102.2s-149.4,63-183.1,109.7
	c0,0,175,33.6,152.7,53.4c-22.3,19.7-206.1-6.8-206.1-6.8s-119.9,93.9-69.3,170.7c50.6,76.8,109.6,77,128.5,64.1
	c18.8-13,111.7-120.9,123.1-105.9c11.4,15-30,106.7-78,135.9c0,0,148.7,52.3,194.5-10.8s25.7-113,54.8-151.5s62-56.3,55.8-29.7
	s-66.6,81.8-67.5,132.8c-1,51-6.5,88,52.3,43.7s137.5-147.4,113.1-203.6c-1.1-2.4-2.1-4.8-3.1-7c2.4,4.2,3.1,7,3.1,7
	c14.6-4.8,55.6,4.7,86,13.1c4.9,1.7,12,3.8,21.9,6.3l0,0c4.3,1.3,7.8,2.4,10.3,3.2c64.5,23,137.9,105.8,137.9,105.8l13.3-8.8
	c-60.4-98.8-168.2-114.1-168.2-114.1c-79.8-18.6-125.7-61.6-125.7-61.6s33.5-155.4-88.3-176.6C746.8,1028.8,664,1024.7,614.8,1055.3
	z"/>
<path class="st0" d="M2698.3,523.8c-28.6-105.8-207.2-72.7-207.2-72.7s-121.2,185.1-156.5,189.5c-35.3,4.4,72.7-178.5,72.7-178.5
	c-68.3-6.6-242.4,77.1-242.4,77.1s11,216-24.2,211.6s0-191.8,0-191.8c-66.1,19.8-127.8,97-127.8,97
	c-77.1,125.6,88.2,218.2,88.2,218.2s2.2,74.9-44.1,160.9l0,0c0,0-10.4,15.9-21.1,42.8h18c1.5-4.8,3.1-9.5,4.9-14c0,0,0-0.1,0-0.1
	c0-0.1,0.1-0.1,0.1-0.2c1.2-2.8,3-6.8,5.2-11.6c0,0,0,0,0,0s0,0,0,0c5.5-10.8,9.2-18.8,11.6-24.5c0,0,0,0,0-0.1
	c16.5-33.8,40.3-77.9,56.1-87.2c0,0-2-2.8-3.9-8.3c1.2,2.6,2.5,5.4,3.9,8.3c30.9,66.1,185.1,77.1,271.1,59.5
	c86-17.6,48.5-41.9,2.2-81.2c-46.3-39.3-143.3-29-171.9-44.4c-28.6-15.4,13.2-30.9,70.5-26.5c57.3,4.4,86,61.7,178.5,70.5
	c92.6,8.8,163.1-165.3,163.1-165.3c-63.9,19.8-178.5-15.4-182.9-37.5c-4.4-22,165.3-19.8,191.8-26.5
	C2680.6,682.5,2726.9,629.6,2698.3,523.8z"/>
<path class="st1" d="M2411.4,1166.3c-15.4-56.7-111-39-111-39s-64.9,99.2-83.8,101.5s39-95.6,39-95.6
	c-36.6-3.5-129.9,41.3-129.9,41.3s5.9,115.7-13,113.3s0-102.7,0-102.7c-35.4,10.6-68.5,51.9-68.5,51.9
	c-41.3,67.3,47.2,116.9,47.2,116.9s1.2,40.2-23.6,86.2l0,0c0,0-5.6,8.5-11.3,22.9h9.7c0.8-2.6,1.7-5.1,2.6-7.5c0,0,0,0,0,0
	c0,0,0-0.1,0-0.1c0.7-1.5,1.6-3.6,2.8-6.2v0c0,0,0,0,0,0c2.9-5.8,4.9-10,6.2-13.1c0,0,0,0,0,0c8.8-18.1,21.6-41.8,30.1-46.7
	c0,0-1.1-1.5-2.1-4.4c0.7,1.4,1.4,2.9,2.1,4.4c16.5,35.4,99.2,41.3,145.2,31.9s26-22.4,1.2-43.5s-76.8-15.5-92.1-23.8
	c-15.4-8.3,7.1-16.5,37.8-14.2s46.1,33.1,95.6,37.8c49.6,4.7,87.4-88.6,87.4-88.6c-34.2,10.6-95.6-8.3-98-20.1
	c-2.4-11.8,88.6-10.6,102.7-14.2C2402,1251.3,2426.8,1222.9,2411.4,1166.3z"/>
<path class="st0" d="M1937.8,359.1c-49.6-56.5-149.5,17.9-149.5,17.9s-18.6,150.6-39,164s-9.2-131.9-9.2-131.9
	c-44.1,16.6-125.9,120.8-125.9,120.8s72.1,129.6,49.1,137.5c-23,8-58-118-58-118c-34.7,32.2-49.4,98.3-49.4,98.3
	c-9.5,100.6,120.2,107.6,120.2,107.6s24,45.5,21.5,112.3l0,0c0,0-1.6,12.9,0,32.7l11.1-5.5c-0.6-3.4-1-6.8-1.2-10.1c0,0,0,0,0-0.1
	c0,0,0-0.1,0-0.1c-0.1-2.1-0.2-5.1-0.3-8.7v0c0,0,0,0,0,0c0.1-8.3,0-14.3-0.3-18.6c0,0,0,0,0,0c-0.1-25.8,1.2-60.1,8.2-70.6
	c0,0-2.1-1.1-4.9-3.9c1.6,1.3,3.2,2.5,4.9,3.9c39,31.4,137.3-8.5,184.8-45.3c47.6-36.8,17.2-40.4-23.2-50.7
	c-40.4-10.2-96.9,25.5-119.2,24.6c-22.3-0.8-1.2-23,35.4-37.6s71.6,12,131.2-10.6s50.4-151,50.4-151
	c-33.3,31.5-114.5,44.5-123.9,32.3c-9.4-12.2,95.7-62.2,110-74.3S1987.4,415.5,1937.8,359.1z"/>
<g>
	<polygon class="st0" points="1079.5,846.5 872.2,1070.6 573.4,794.2 573.4,794.2 447.5,677.7 654.8,453.6 889.9,671.1 	"/>
	<g>
		<path class="st1" d="M1032,849.1l-161,174L489.4,670l160.9-174L1032,849.1z M885.5,996.8l121.4-131.2c8.2-8.9,7.7-22.8-1.2-31
			L667.2,521.4c-9.1-8.4-23.2-7.8-31.6,1.2L514.7,653.3c-8.3,9-7.8,23,1.2,31.3L854.6,998C863.5,1006.2,877.3,1005.7,885.5,996.8z"
			/>
	</g>
	<ellipse class="st1" cx="760.7" cy="759.5" rx="63.8" ry="63.8"/>
</g>
<g>
	<polygon class="st0" points="1266.2,847.7 967.6,911.3 882.8,513.3 882.8,513.3 847,345.6 1145.6,281.9 1212.3,595.1 	"/>
	<g>
		<path class="st1" d="M1225.9,822.5l-231.8,49.4L885.7,363.4l231.8-49.4L1225.9,822.5z M1021.1,858.8l174.8-37.3
			c11.9-2.5,19.4-14.2,16.9-26.1l-96.2-451c-2.6-12.1-14.4-19.8-26.5-17.2L916,364.3c-12,2.5-19.6,14.3-17.1,26.3l96.2,451.3
			C997.7,853.7,1009.3,861.3,1021.1,858.8z"/>
	</g>
	<ellipse class="st1" cx="1055.8" cy="592.9" rx="63.8" ry="63.8"/>
</g>
<path class="st2" d="M2215.5,1643.4H789.6c-8.5,0-15.5-6.9-15.5-15.5V726.6c0-21.4,17.3-38.7,38.7-38.7h1359.7
	c32.3,0,58.4,26.2,58.4,58.4v881.6C2231,1636.4,2224.1,1643.4,2215.5,1643.4z"/>
<path class="st3" d="M2169.9,1621.7H828.4c-11.9,0-21.6-9.7-21.6-21.6V742.7c0-11.9,9.7-21.6,21.6-21.6h1341.4
	c11.9,0,21.6,9.7,21.6,21.6v857.4C2191.5,1612,2181.8,1621.7,2169.9,1621.7z"/>
<rect x="839.3" y="751.2" class="st2" width="261.3" height="21.9"/>
<rect x="839.3" y="806.7" class="st4" width="217.3" height="11"/>
<rect x="839.3" y="836.4" class="st4" width="114.9" height="11"/>
<rect x="839.3" y="866.1" class="st4" width="146" height="11"/>
<rect x="1004.1" y="866.1" class="st4" width="39.6" height="11"/>
<rect x="1057.3" y="866.1" class="st4" width="74.9" height="11"/>
<rect x="962.2" y="836.4" class="st4" width="114.9" height="11"/>
<g>
	<g>
		<defs>
			<rect id="SVGID_1_" x="833.5" y="706.6" width="1407.4" height="915"/>
		</defs>
		<clipPath id="SVGID_2_">
			<use xlink:href="#SVGID_1_"  style="overflow:visible;"/>
		</clipPath>
		<g class="st5">
			<path class="st6" d="M1648.7,1179.8c0,0-12.8-15.6-19.7-17.7s-20.2-12.5-22-8.3s9,10.8,8.4,15.7c-0.6,4.9-34,12.7-33.8,17.8
				s7.9,17.6,20.6,16.2c12.8-1.4,45.1-9.1,51.8-5.8C1660.7,1200.9,1648.7,1179.8,1648.7,1179.8z"/>
			<path class="st4" d="M1993.9,1104.1c-18.9,25.4-41,45.4-63.8,61.3c-72.3,50.3-150.7,57.8-150.7,57.8
				c-18.8-6-76.5-12.3-110.6-17.8h0c-14.9-2.4-25.2-4.6-25.9-6.6l0.9-29.7c0,0,125.2-6.6,145.9-16.2c32.7-28.2,61.6-64.7,80.4-93.3
				c15.9-24.1,33.7-41.9,63-52.4C1975.5,992,2052.6,1025.3,1993.9,1104.1z"/>
			<path class="st7" d="M1936.6,1146.7l-6.4,18.7c-72.3,50.3-150.7,57.8-150.7,57.8c-15.1,0-76.5-12.3-110.6-17.8
				c1.3,0.1,92.8,7.3,113.1,5.2c20.4-2.1,115.2-84.3,115.2-84.3L1936.6,1146.7z"/>
			<path class="st8" d="M1854.8,2088h138.3c9.9-6.7-2.7-72.4-2.7-72.4s-37.8-14.3-44.3,14.8c-6.5,29.1-48.1,38.4-70.1,41.9
				C1861.1,2074.7,1856.4,2083,1854.8,2088z"/>
			<path class="st8" d="M2060,2088h138.3c9.9-6.7-2.7-72.4-2.7-72.4s-37.8-14.3-44.3,14.8c-6.5,29.1-48.1,38.4-70.1,41.9
				C2066.3,2074.7,2061.5,2083,2060,2088z"/>
			<path class="st2" d="M1892.1,1417.6c0,0,6.2,77.6,13.5,170.8c9.9,126.7,36.7,440.7,36.7,440.7s17.6,15,56.5,6.8
				c0,0,33.1-108.3,43-232c0.2-2,0.3-4.1,0.5-6.1c9.2-125.9,23.5-390.9,23.5-390.9L1892.1,1417.6z"/>
			<path class="st8" d="M1889.9,1390.8c0,0,8.3,104.4,15.7,197.6l136.2,215.5c0.2-2,0.3-4.1,0.5-6.1
				c9.2-125.9,23.5-390.9,23.5-390.9L1889.9,1390.8z"/>
			<path class="st2" d="M1929.6,1390.8c0,0,98.8,245.9,130.3,339.1c22.5,66.4,85.9,299.3,85.9,299.3s27.6,8.4,50.8-7.8
				c0,0,23.6-237.9-24.1-305c-25.3-35.6-6.3-370-108.8-372.9S1929.6,1390.8,1929.6,1390.8z"/>
			<path class="st6" d="M1973.8,1028.4c15.1,7.9,29.8,8.4,42.6,5.7c11.7-2.4,21.7-7.6,28.8-12.2c7.3-4.7,11.6-8.8,11.6-8.8
				s-0.5-0.7-1.4-2.2c-4.4-7.6-18-35-11.9-79c0.1-0.6-4.3,0.2-10.9,1.8c-19.6,4.6-59,15.8-60.8,16.3c0,0-0.1,0-0.1,0
				s-0.5,9.3-2.1,25.8c-0.1,1.5-0.3,3-0.4,4.6c-0.2,2-0.4,4-0.6,6.1C1966.8,1003.9,1973.8,1028.4,1973.8,1028.4z"/>
			<path class="st9" d="M1969.7,975.9c29.3,6.7,72.9-36.5,72.9-36.5c-3.2-2.4-6.6-4.3-10-5.7c-19.6,4.6-59,15.8-60.8,16.3
				c0,0-0.1,0-0.1,0S1971.3,959.3,1969.7,975.9z"/>
			<path class="st6" d="M1959.7,947.7c0,0,12,4.3,27.4,6.4c22.4,3,51.9,1.2,61.2-25.9c15.6-45.7,35.5-73.1-10.4-91.7
				c-24.6-10-40.3-10.5-51-6.7c-9.3,3.3-14.8,9.9-18.9,16.4C1959.1,860.1,1941.2,939.7,1959.7,947.7z"/>
			<path class="st10" d="M1931.9,849.7c26.6,19.1,63.4,0.3,74.8,5.4c11.4,5.1,13.5,24.2,13.7,30.3c0.2,6.1,1,11.2,16.5,7.6
				c2.5-0.6,4.4-0.4,5.6,0.3c6.4,3.8-1.8,22.3-4.3,26.3c0,0-3.6,13.3,4.3,19.7c1,0.8,16.5,7.6,54-49.8c5.9-9,11.5-29.3,2.4-48.8
				c-9.1-19.5-47.1-38.4-79.3-48.4c-12.1-3.8-21-3.6-28-1c-11.7,4.3-17.9,15.3-24.1,26.4C1957.2,836.3,1931.9,849.7,1931.9,849.7z"
				/>
			<path class="st4" d="M2103,1408c0,0-12.9,2.8-29.1,5.5c-15.9,2.7-35.1,5.3-48.7,5.2c-69.4-0.6-127.4-21-127.4-21
				c-13,0-19-20.2-21.1-48.4c-1.4-19.1-1.1-41.8-0.1-64.4c0.3-7.3,0.8-14.7,1.2-21.8c0.9-14.3,2-27.9,2.9-40
				c0.9-11.3,1.7-21.3,2.2-29c0,0-1.9-54-1.1-101.5c0.5-34.1,19.6-65.1,24.4-70.2c13.9-14.7,54.1-24,62.2-25.3
				c0.6-0.1,0.9-0.1,0.9-0.1c33.1,18.6,77.6-6.5,77.6-6.5c1,0.2,2,0.4,3,0.6c3.3-0.7,36.7,4.3,44.5,8.5
				c19.2,10.5,30.4,126.8,30.4,126.8c3.2,79-0.8,205.5,5.4,253.8C2132.3,1396.2,2116.9,1404.8,2103,1408z"/>
			<path class="st7" d="M2049.7,991.2c0,0-49.3,50.8-84.5,40.4c0,0-4.7-6.9,11.2-9.1C1992.2,1020.3,2009.3,1021.3,2049.7,991.2z"/>
			<path class="st4" d="M1959.4,918.2c0,0-1,5.9,12.8,10.6c0,0,11.5,4,13.7-2.1C1985.8,926.8,1976.7,918,1959.4,918.2z"/>
			<path class="st7" d="M2076.7,1183.5c0,0-71.6,119.7-112.2,140.8c-27.5,14.3-65.9,21.8-87.9,25.1c-1.4-19.1-1.1-41.8-0.1-64.4
				c29.1-3.5,73.4-9.2,73.4-9.2L2076.7,1183.5z"/>
			<path class="st7" d="M1982.4,1123.4l-38.2,137.7c0,0-44.9,2.8-66.6,2.1c0.9-14.3,0.9-14.7,1.9-26.8
				C1879.6,1236.3,1931.2,1209.4,1982.4,1123.4z"/>
			<path class="st6" d="M1752.7,1271.3c0,0-12.8-15.6-19.7-17.7c-6.9-2.2-20.2-12.5-22-8.3s9,10.8,8.4,15.7
				c-0.6,4.9-34,12.7-33.8,17.8c0.2,5.2,7.9,17.6,20.6,16.2c12.8-1.4,45.1-9.1,51.8-5.8C1764.7,1292.4,1752.7,1271.3,1752.7,1271.3z
				"/>
			<path class="st4" d="M2128.8,1080.2c0,0,2.3,72.9-164,219.3l-33.4-59.8c-6.2-3.6,107.4-247.8,140-245.8
				C2134.7,997.6,2128.8,1080.2,2128.8,1080.2z"/>
			<path class="st4" d="M1951.3,1232.6c0,0-189.1,21.6-196.1,25.4c-7,3.8-22,18.4-17,36.7c0,0,97.9,12.3,151.7,12.1
				c46.4-0.2,76.5-7.7,76.5-7.7L1951.3,1232.6z"/>
		</g>
	</g>
</g>
<path class="st11" d="M1782.5,797.9c0.4,66-22.8,126.6-61.6,173.8c-33.4,40.7-52.2,91.4-52.2,144.1v75.9c0,21.5-7.8,41.2-20.8,56.5
	c-16.1,19-40.1,31.1-66.8,31.1h-140.2c-48.2,0-87.6-39.4-87.6-87.6v-75.8c0-52.6-18.6-103.3-52-143.9
	c-38.6-46.9-61.8-107-61.8-172.5c0-129.6,90.8-238,212.3-265c3.4-0.8,6.9-1.5,10.4-2.1c1.9-0.3,3.7-0.7,5.6-1
	c14.1-2.3,28.4-3.4,43.1-3.4C1660.7,528,1781.6,648.2,1782.5,797.9z"/>
<path class="st2" d="M1580.6,1279.3l-0.3,2.3l-3.8,29.5l-1,7.8v0.1l-1,7.8l-3.8,29.5l-1,7.8l0,0.1l-1,7.8l-0.6,4.3
	c-1.9,15-19.1,26.4-39.5,26.4h-46.1c-4.9,0-9.5-0.7-13.9-1.8h0c-3.9-1.1-7.5-2.6-10.7-4.5l-0.3-0.1c-2.6-1.5-5-3.3-7-5.3
	c-4.1-4.1-6.9-9-7.6-14.4l-1.6-11.4l-1-7.2v0l0-0.2v0l-1-7.1l-3.9-27.4l-1-7.2l0-0.2l-1-7.1l-4.2-29.6L1580.6,1279.3L1580.6,1279.3z
	"/>
<g>
	<path class="st8" d="M1562.3,1279.3h-0.3h-25.8c-42.1,12.2-83.8,24.2-103.1,29.6l1,7.1l0,0.2l1,7.2c15.7-4.3,53.3-15.1,145.1-41.7
		l0.3-2.3L1562.3,1279.3L1562.3,1279.3z"/>
	<path class="st8" d="M1440.1,1357.8L1440.1,1357.8l0,0.2v0l1,7.2c18.1-5.1,55.5-15.8,133.3-38.3l1-7.8v-0.1l1-7.8
		c-49.2,14.2-108.7,31.4-137.4,39.6L1440.1,1357.8z"/>
	<path class="st8" d="M1457.4,1396.3l0.3,0.1c3.2,1.9,6.8,3.4,10.7,4.5h0c21.3-6.1,53-15.3,100.1-28.9l1-7.8l0-0.1l1-7.8
		c-42.1,12.2-90.3,26.1-120.2,34.7C1452.4,1393,1454.8,1394.8,1457.4,1396.3z"/>
</g>
<g>
	
		<rect x="1426.8" y="929.5" transform="matrix(0.986 -0.167 0.167 0.986 -164.5241 254.8138)" class="st3" width="12.3" height="352.3"/>
</g>
<g>
	
		<rect x="1411.8" y="1102.2" transform="matrix(0.18 -0.9837 0.9837 0.18 209.9106 2468.5115)" class="st3" width="347.6" height="12.3"/>
</g>
<g>
	<path class="st3" d="M1543.4,995c-1.6,0-3.3-0.2-5.3-0.7c-3.3-0.8-5.4-3-6-6.6c-1.4-7.7,4.6-21.8,13.1-33.7
		c-4.4-7.7-10.3-14.1-16.5-16c-9.1-2.8-23.1,5.7-32.8,16.4c1.8,2.5,3.4,5.2,4.8,7.8c5,9.4,8.6,21.5,3.7,27
		c-1.8,2.1-5.5,3.9-12.9,1.2c-9.2-3.5-12.5-11.3-9.1-21.4c1.7-5,4.8-10.1,8.7-14.9c-7.5-9.8-17.6-17.3-27.6-16.1
		c-5.3,0.7-9.9,2.5-13.7,5.2c6.3,11.8,7.8,26.8,3.4,34.9c-3,5.5-8.3,7.2-14.8,4.9c-4.7-1.7-7.1-8.1-6.2-16.4
		c0.9-8.5,5.2-17.8,12.7-24.3c-2-3.1-4.3-5.8-7.1-7.9c-17.1-13.3-31.3,1-31.9,1.6l-2.7-2.6c0.2-0.2,17.1-17.2,36.8-1.9
		c3,2.3,5.6,5.3,7.7,8.6c4.2-2.9,9.2-4.9,15.1-5.6c11.1-1.4,22.3,6.5,30.5,16.9c10.6-11.5,25.7-20,36.2-16.8
		c6.7,2,12.9,8.4,17.7,16.3c4.5-5.8,9.4-10.8,14.3-14c7.8-5.1,12.8-4,15.7-2.1c2.9,1.9,5.5,4.5,7.5,7.5c2.3-1.8,4.8-3.4,7.2-4.7
		c9-4.5,17.2-4.2,23.2,0.9l-2.4,2.8c-6.5-5.5-14.8-2.6-19.2-0.4c-2.4,1.2-4.7,2.7-6.9,4.5c6,10.8,7.1,24.8,3.7,31.7
		c-2.2,4.3-6,5.8-10.5,4.1c-8.1-3-10.1-8.6-10.3-12.7c-0.4-8,5.1-17,12.3-23.7c-1.9-2.8-4.1-5.2-6.7-6.9c-3.5-2.3-8.2-0.2-11.6,2.1
		c-4.8,3.2-9.9,8.5-14.4,14.4c5.6,10.6,8.5,23,6.3,30.9C1554.8,989.2,1551.8,995,1543.4,995z M1547.1,957.7
		c-7.4,10.7-12.5,22.9-11.3,29.4c0.4,2.1,1.4,3.2,3.2,3.6c7.3,1.7,11.8-0.5,13.3-6.3C1554,977.6,1551.7,967.1,1547.1,957.7z
		 M1493.3,957.4c-3.4,4.2-6.1,8.7-7.5,12.9c-2.8,8.3-0.5,13.9,6.9,16.7c3,1.1,6.9,2,8.8-0.1c2.9-3.3,1.2-12.7-4.2-22.8
		C1496.1,961.8,1494.8,959.6,1493.3,957.4z M1446.9,945.6c-6.5,5.8-10.1,14-10.9,21.4c-0.7,6.3,0.9,11.5,3.8,12.5
		c4.7,1.7,8.2,0.6,10.3-3.2C1453.7,969.5,1452.4,956.2,1446.9,945.6z M1584,948c-6.5,6.2-10.8,14.2-10.5,20.3
		c0.3,4.4,2.9,7.6,7.9,9.5c2.7,1,4.6,0.3,5.9-2.3C1590.2,969.7,1589,957.5,1584,948z"/>
</g>
<path class="st4" d="M1651.1,632.4c22.3,21,19.5,59.7-9.2,68.3c-21.7,6.5-53.9-2.2-69.9-29.8c-15.9-27.6-8.6-50.3,11-61.6
	C1602.6,598,1627.9,610.6,1651.1,632.4z"/>
<path class="st12" d="M2322.6,1643.1H664.3c-11.7,0-21.2-9.5-21.2-21.2v-0.6c0-11.7,9.5-21.2,21.2-21.2h1658.3
	c11.7,0,21.2,9.5,21.2,21.2v0.6C2343.8,1633.7,2334.4,1643.1,2322.6,1643.1z"/>
<g>
	<rect x="910.3" y="1350.4" class="st13" width="302.9" height="249.8"/>
	<rect x="1061.7" y="1350.4" class="st14" width="302.9" height="249.8"/>
	<polygon class="st15" points="1061.7,1350.4 1365.4,1350.4 1365.4,1429.8 1061.7,1600.2 	"/>
	<polygon class="st14" points="1061.7,1350.4 1121.7,1416.1 1420.6,1416.1 1364.7,1350.4 	"/>
	<polygon class="st16" points="1061.7,1378.6 997.9,1442.5 910.4,1442.5 910.4,1350.4 1061.7,1350.4 	"/>
	<polygon class="st14" points="910.3,1350.4 842.1,1416.1 993.7,1416.1 1061.7,1350.4 	"/>
</g>
<g>
	<g>
		
			<ellipse transform="matrix(0.9915 -0.13 0.13 0.9915 -174.968 338.6558)" class="st17" cx="2506.5" cy="1509.5" rx="131.4" ry="131.4"/>
		<path class="st18" d="M2448.2,1627.3c1.6,1,3.3,1.9,4.9,2.9c0.6,0.3,1.1,0.6,1.7,0.9c1.3,0.7,2.6,1.3,3.9,2
			c62.6,30.7,138.9,7.2,172.9-54.6c32.4-58.9,15-131.8-38.2-170.1c-4.3-3.1-8.7-5.9-13.4-8.5c-1.7-0.9-3.4-1.8-5.1-2.7
			c-1.7-0.8-3.3-1.6-5-2.4c-5.1-2.3-10.4-4.2-15.6-5.8c-7.9-2.4-15.8-4-23.8-4.8c-24.8-2.6-49.7,1.9-71.7,12.7
			c-23.4,11.5-43.7,30-57.2,54.6C2367.4,1513.5,2388.4,1590.9,2448.2,1627.3z"/>
		<g>
			<path class="st19" d="M2515.6,1634.2c-19.2,0-38.7-4.7-56.6-14.6c-56.9-31.3-77.6-103.1-46.3-160s103.1-77.6,160-46.3
				c56.9,31.3,77.6,103.1,46.3,160l0,0C2597.5,1612.2,2557.1,1634.2,2515.6,1634.2z M2516,1401.9c-40.4,0-79.7,21.4-100.5,59.2
				c-30.5,55.3-10.3,125.2,45,155.7s125.1,10.3,155.6-45l1.4,0.8l-1.4-0.8c30.5-55.3,10.3-125.2-45-155.7
				C2553.6,1406.4,2534.7,1401.9,2516,1401.9z"/>
		</g>
		<g>
			<path class="st19" d="M2455,1542.5c0.1,4.7,1.2,9.2,3.2,13.4c0.1,0.3,0.3,0.6,0.5,0.9c2,3.9,4.8,7.5,8.3,10.8
				c3.8,3.6,8.4,6.8,13.8,9.6l-6.9,17.1l14.7,6l6.9-17c5.3,1.6,10.8,2.5,16.2,2.7c5.5,0.2,10.7-0.5,15.8-2.3c5-1.7,9.6-4.6,13.9-8.7
				c4.2-4,7.7-9.5,10.5-16.4l-26.8-10.9c-1.6,4.1-3.6,7.2-5.9,9.5c-2.2,2.3-4.7,3.8-7.2,4.7c-2.6,0.9-5.2,1.1-7.9,0.8s-5.3-1-7.9-2
				c-2.9-1.2-5.3-2.6-7.2-4.2c-1.9-1.6-3.3-3.4-4.3-5.3c-0.9-1.9-1.4-3.9-1.4-6s0.4-4.2,1.3-6.3c1-2.4,2.2-4.4,3.6-5.9
				c1.4-1.6,3.2-2.8,5.4-3.6c2.1-0.9,4.7-1.4,7.6-1.7c2.9-0.3,6.4-0.3,10.4-0.1c6.9,0.3,13.3,0.3,19.2,0c5.9-0.3,11.2-1.3,15.9-2.9
				s8.9-4.1,12.5-7.3c3.6-3.3,6.5-7.7,8.8-13.4c2-4.9,2.9-9.7,2.8-14.4c-0.1-4.7-1.1-9.2-3.1-13.5s-4.9-8.3-8.6-11.9
				c-3.7-3.7-8.3-6.9-13.6-9.7l7.5-18.4l-14.8-6l-7.6,18.7c-5.6-1.5-11-2-16.2-1.7c-5.2,0.4-10,1.6-14.4,3.8
				c-4.4,2.2-8.4,5.2-11.9,9.2c-3.5,4-6.4,8.8-8.8,14.5l26.8,10.9c2.8-6.9,6.4-11.4,10.9-13.6c4.4-2.2,9.2-2.2,14.4-0.1
				c2.8,1.1,5,2.5,6.7,4.1c1.7,1.6,2.9,3.3,3.7,5.2c0.8,1.9,1.1,3.9,0.9,5.9c-0.1,2.1-0.6,4.2-1.5,6.3s-1.9,3.9-3.3,5.4
				c-1.3,1.5-3,2.6-5.1,3.5c-2.1,0.8-4.7,1.4-7.7,1.7c-3,0.3-6.7,0.3-10.9,0.2c-6.9-0.2-13.3-0.1-19.1,0.3c-5.9,0.4-11.2,1.4-15.9,3
				c-4.8,1.6-8.9,4.1-12.6,7.4c-3.2,2.9-5.8,6.7-8,11.4c-0.3,0.6-0.6,1.2-0.8,1.9C2455.8,1532.9,2454.9,1537.8,2455,1542.5z"/>
		</g>
	</g>
	<g>
		<path class="st20" d="M2614.2,1052.4c-0.4-1.6,35,16,36.8,18c16.6,18.4,11.9,42.4,2.4,42.7c-6.1,0.2-4.9,10.3-4.9,10.3l-67.9-28.7
			C2580.6,1094.6,2588.7,1047,2614.2,1052.4z"/>
		<path class="st20" d="M2605.8,1056.1c0,0-2.4-26.4,27.1-26.4c0,0-8.9,2.4-13.6,7.3c0,0,18.8-11.1,39.4,5.9s7.8,59.6,14,67.7
			s30.5,9.7,27.6,35.9c-3,26.2-77.1,59-72.3,80.6c0,0-29-42.7-8.3-62.2c0,0-10.1,9.5-11.1,20.9c0,0-2.8-22.1,11.3-29.2
			c12.5-6.3,22.7-29.2,21.6-33.3C2640.4,1119.3,2605.8,1056.1,2605.8,1056.1z"/>
		<path class="st21" d="M2632.7,1180.5c4.6-21.9,33-28.7,46.5-10.8c2.4,3.2,4.1,7,4.7,11.5c3.1,24.9-36.8,126.3-42.4,135.5
			c-10.4,16.7-71.5,74-71.5,74l-11.3-6.8c0,0,43.4-73.4,50.1-80.3C2616.4,1295.8,2624,1222.2,2632.7,1180.5z"/>
		<path class="st21" d="M2574.1,1384c0,0-16.4-10.8-22.7-10.1c-6.2,0.7-24.2,5.9-24.5,8.5s20.1,4.3,21.4,5.8s15.1,10.7,20.1,7.8
			C2573.6,1393.1,2574.1,1384,2574.1,1384z"/>
		<path class="st2" d="M2688.8,1627.9l14.7-2.2c0,0,49.4-39.3,56.8-112.5c0.8-7.4,0.9-15,0.4-22.6c-0.1-0.9,0-1.8,0.5-2.5
			c0,0,0,0,0,0c1.6-2.4,5.5-8.5,10.8-17.1c5.3-8.5,14.2-24.6,24.1-42.6c17.8-32.5,38.5-71.4,45.7-83.8c22.7-39.5,11.7-66,11.7-66
			s-63.2-6.3-80.5-21.4l-6.2,9.6c0,0-13.7,60.6-13.1,60.9c-0.7,2.1-1.4,4.2-2.1,6.3c-10.8,33.4-23.2,75.1-30,109
			c-3.8,19.1-5.8,35.8-4.7,47.1c0.4,3.9-0.1,9.9-1.1,17.3C2709.6,1550.9,2688.8,1627.9,2688.8,1627.9z"/>
		<path class="st8" d="M2658,1646.5h61.3c0,0,1.5-9.3-1.7-16.4c-3.1-6.8-7.4-7-0.6-17.7c-3.9,4-16.4,5.7-25.3,4.5
			c-1.1,1.8-7,13.6-10.6,16.2C2677.1,1635.9,2659.3,1634.9,2658,1646.5z"/>
		<path class="st8" d="M2751.6,1334c5.4,29.5,18,78.7,44.5,94.3c17.8-32.5,38.5-71.4,45.7-83.8c22.7-39.5,11.7-66,11.7-66
			s-63.2-6.3-80.5-21.4l-6.2,9.6c0,0-13.7,60.6-13.1,60.9C2753,1329.8,2752.3,1331.9,2751.6,1334z"/>
		<path class="st22" d="M2639.2,1166.9c0,0-8.7,9-12.6,19.8c0,0,13.8,39.7,46.1,44.7C2672.7,1231.4,2647.2,1166.9,2639.2,1166.9z"/>
		<path class="st2" d="M2794.6,1283.2l-0.2-11.5c22.8,2.9,78.7-27.3,78.7-27.3s23.9,15.9,27.2,61.3c1.6,22.2,11.7,115.8,12.8,143.8
			c0.4,10.1,0.5,17.4,0.6,20.3c0,0,0,0,0,0c0,0.9,0.4,1.7,1,2.4c4.7,6,8.8,12.4,12.4,19c34.9,64.8,16.6,152.9,16.6,152.9l-8.1-2.1
			c0,0-29.5-91.3-48.7-130.8c-3.3-6.7-6.2-11.9-8.7-14.9c-7.2-8.8-14.9-23.7-22.4-41.7c-14.2-34-28-78.8-37.9-113.5
			C2817.1,1341.1,2794.6,1283.2,2794.6,1283.2z"/>
		<path class="st6" d="M2661,1206.7c37.3-8.6,13.5-61,11.3-60.1c-5.2-1.1-16.5-10.1-26.7-27.9l-1.4,1.2l-22.9,20.1
			c0,0,5.3,7.8,9.8,15.5c3.5,6,6.4,11.9,6,13.9C2635.2,1170.8,2651,1208.9,2661,1206.7z"/>
		<path class="st21" d="M2621.3,1140c0,0,5.3,7.8,9.8,15.5c14.3-8.8,14.3-26.4,13.2-35.6L2621.3,1140z"/>
		<path class="st6" d="M2620.6,1150.1c0,0,34.6-19.3,22.3-40.6s-16.2-38.3-38.8-26.9s-22.2,22-19.8,30.1
			C2586.7,1120.8,2611.3,1154.5,2620.6,1150.1z"/>
		<path class="st20" d="M2578.5,1100.2c1.6-9.5,6.4-10.4,9.8-9.8c12.8-21.1,33.7-12.9,33.7-12.9c11.2,14,27.3,16.4,27.3,16.4
			s-4,7.5-20.6,12.1c-5.1,1.4-10.8,0.6-16.3-1.3c11.5,6.4,23.5,8.8,23.5,8.8c-21.8,2-42.6-17.9-44.7-20.1c-1,3.1-2.8,9.6-1.7,14.3
			c1.4,6.4,7.1,18.1,3.7,19.6C2593.1,1127.4,2576.1,1114.5,2578.5,1100.2z"/>
		<path class="st8" d="M2894.9,1646.5h61.3c0,0,1.5-9.3-1.7-16.4c-3.1-6.8-7.9-9.9-6.7-18.1c-3.9,4-10.2,8.5-19.1,7.3
			c-1.1,1.8-7,11.2-10.6,13.8C2914,1635.9,2896.2,1634.9,2894.9,1646.5z"/>
		<path class="st3" d="M2656.6,1248.3c7.9,2.8,18.9,4.3,30.3,5.5c16.1,1.8,32.8,3,41.5,6.4c3.2,1.3,5.3,2.8,6,4.8
			c3.8,11.4,20.4,28.9,20.4,28.9c106.7-4.9,118.4-49.5,118.4-49.5c-71.8-83.5-193.4-107.7-193.4-107.7s-8.7-3.7-30.6,13.7
			c-14.6,11.6-12.7,16.1-12.7,16.1S2633.4,1240.2,2656.6,1248.3z"/>
		<path class="st22" d="M2686.8,1253.7c16.1,1.8,32.8,3,41.5,6.4c3.6-53.2-21.6-93.3-21.6-93.3S2690.4,1233.6,2686.8,1253.7z"/>
		<path class="st6" d="M2670.3,1156.6c0,0,40.4,4,43.6,30.2s-38.7,133.1-44.7,142.8c-10.9,17.6-75.4,78-75.4,78l-11.9-7.2
			c0,0,45.7-77.3,52.8-84.6C2645.8,1304.5,2656.6,1165.7,2670.3,1156.6z"/>
		<path class="st3" d="M2712.7,1202.6c-0.1,0.6-37.3,12.1-61.2,0c0,0-5.1-55.2,23.4-52.2c28.6,3,45.5,12,46.2,25.7
			S2712.7,1202.6,2712.7,1202.6z"/>
		<path class="st6" d="M2597.5,1400c0,0-14.5-13.3-20.7-13.6c-6.3-0.3-24.9,1.9-25.5,4.5c-0.6,2.6,19.1,7.5,20.2,9.1
			c1.1,1.7,13.2,12.9,18.6,10.9C2595.5,1408.9,2597.5,1400,2597.5,1400z"/>
	</g>
</g>
<g>
	<polygon class="st23" points="2364.4,618.2 1782.5,618.2 1786.6,472.1 2368.5,472.1 	"/>
	<g>
		<path class="st0" d="M2329.9,521.5l-0.5,17.5c-0.2,7.7-6.7,14-14.4,14h-482.1c-7.7,0-13.8-6.3-13.6-14l0.5-17.5
			c0.2-7.7,6.7-14,14.4-14h482.1C2324,507.5,2330.1,513.8,2329.9,521.5z"/>
		<g>
			<path class="st24" d="M2232.2,525.1h-7.4l0.1-2.3h10.3l-0.1,2l-7,12.8h-2.9L2232.2,525.1z"/>
			<path class="st24" d="M2236.8,530.2c0.1-4.2,2.8-7.6,6.6-7.6c3.9,0,6.3,3.4,6.2,7.6c-0.1,4.2-2.8,7.6-6.6,7.6
				C2239.1,537.8,2236.6,534.5,2236.8,530.2z M2246.9,530.2c0.1-2.9-1.3-5.3-3.6-5.3s-3.8,2.3-3.9,5.3c-0.1,2.9,1.3,5.3,3.6,5.3
				C2245.3,535.5,2246.8,533.2,2246.9,530.2z"/>
			<path class="st24" d="M2251.9,526.5c0.1-2,1.5-3.8,3.6-3.8c2.1,0,3.4,1.7,3.3,3.8c-0.1,2-1.5,3.8-3.6,3.8
				C2253.2,530.2,2251.9,528.5,2251.9,526.5z M2264.3,522.9h2.1l-11.2,14.7h-2.1L2264.3,522.9z M2257,526.5c0-1.2-0.6-2.1-1.6-2.1
				c-1,0-1.6,1-1.6,2.1c0,1.2,0.6,2.1,1.6,2.1C2256.3,528.6,2256.9,527.6,2257,526.5z M2260.6,534c0.1-2,1.5-3.8,3.6-3.8
				c2.1,0,3.4,1.7,3.3,3.8c-0.1,2-1.5,3.8-3.6,3.8C2261.9,537.8,2260.5,536,2260.6,534z M2265.6,534c0-1.2-0.6-2.1-1.6-2.1
				c-1,0-1.6,1-1.6,2.1c0,1.2,0.6,2.1,1.6,2.1C2265,536.1,2265.6,535.2,2265.6,534z"/>
		</g>
		<g>
			<path class="st3" d="M2160.2,507.5l-1.3,45.4h-326c-6.4,0-11.7-4.4-13.2-10.3c-0.3-1.2-0.4-2.4-0.4-3.7l0.5-17.5
				c0.2-7.7,6.7-14,14.4-14L2160.2,507.5L2160.2,507.5z"/>
			<path class="st22" d="M1891.9,507.5l-28.9,45.4h-30.1c-6.4,0-11.7-4.4-13.2-10.3l22.4-35.2H1891.9z"/>
			<polygon class="st22" points="1977.2,507.5 1948.3,552.9 1898.6,552.9 1927.4,507.5 			"/>
			<polygon class="st22" points="2062.6,507.5 2033.7,552.9 1983.9,552.9 2012.8,507.5 			"/>
			<polygon class="st22" points="2147.9,507.5 2119,552.9 2069.2,552.9 2098.1,507.5 			"/>
		</g>
	</g>
	<g>
		<polygon class="st0" points="1912.4,579.8 1825.3,579.8 1825.5,573.8 1912.6,573.8 		"/>
		<polygon class="st0" points="1888.1,596.6 1824.8,596.6 1825,590.6 1888.3,590.6 		"/>
		<polygon class="st0" points="1929.8,596.6 1892,596.6 1892.2,590.6 1930,590.6 		"/>
		<polygon class="st0" points="1994.1,596.6 1936.4,596.6 1936.5,590.6 1994.3,590.6 		"/>
		<polygon class="st0" points="1945.3,579.8 1918.9,579.8 1919.1,573.8 1945.5,573.8 		"/>
		<polygon class="st0" points="2050.2,579.8 1954.3,579.8 1954.5,573.8 2050.4,573.8 		"/>
	</g>
</g>
<g>
	<g>
		
			<ellipse transform="matrix(0.9733 -0.2295 0.2295 0.9733 -235.9306 220.1431)" class="st17" cx="828.5" cy="1124.4" rx="100.2" ry="100.2"/>
		<path class="st18" d="M923.8,1177c26.7-48.5,9.1-109.4-39.4-136.1c-48.5-26.7-109.4-9.1-136.1,39.4
			c-26.7,48.5-9.1,109.4,39.4,136.1C836.2,1243.1,897.1,1225.5,923.8,1177z"/>
		<g>
			<path class="st19" d="M835.4,1219.4c-14.7,0-29.5-3.6-43.2-11.1c-21-11.6-36.2-30.6-42.9-53.7s-4-47.3,7.6-68.3
				s30.6-36.2,53.7-42.9s47.3-4,68.3,7.6c43.4,23.9,59.2,78.6,35.3,122C897.8,1202.7,867,1219.4,835.4,1219.4z M835.6,1042.3
				c-8.2,0-16.3,1.2-24.4,3.5c-22.4,6.5-41,21.3-52.2,41.8s-13.9,44-7.4,66.5c6.5,22.4,21.3,41,41.8,52.2
				c13.3,7.3,27.8,10.8,42,10.8c30.8,0,60.8-16.3,76.7-45.2c11.3-20.4,13.9-44,7.4-66.5c-6.5-22.4-21.3-41-41.8-52.2
				C864.6,1045.9,850.2,1042.3,835.6,1042.3z"/>
		</g>
		<g>
			<path class="st19" d="M855,1146.8c-0.8-1.8-1.7-3.3-2.8-4.5c-1.1-1.2-2.5-2.1-4.1-2.8s-3.6-1.1-5.8-1.3c-2.3-0.2-4.9-0.2-8-0.1
				c-5.3,0.3-10.2,0.3-14.6,0s-8.5-1-12.2-2.2s-6.8-3.1-9.6-5.6c-2.7-2.5-5-5.9-6.7-10.2c-1.5-3.7-2.2-7.4-2.2-11
				c0.1-3.6,0.9-7,2.4-10.3s3.7-6.3,6.5-9.1c2.8-2.8,6.3-5.3,10.4-7.4l-5.7-14l11.3-4.6l5.8,14.2c4.3-1.1,8.4-1.5,12.3-1.3
				s7.6,1.2,11,2.9c3.3,1.7,6.4,4,9,7s4.9,6.7,6.7,11.1l-20.4,8.3c-2.1-5.3-4.9-8.7-8.3-10.4c-3.4-1.7-7-1.7-10.9-0.1
				c-2.1,0.9-3.8,1.9-5.1,3.1s-2.2,2.5-2.8,4c-0.6,1.4-0.8,2.9-0.7,4.5c0.1,1.6,0.5,3.2,1.1,4.8c0.7,1.6,1.5,3,2.5,4.1
				s2.3,2,3.9,2.7c1.6,0.7,3.6,1.1,5.9,1.3c2.3,0.2,5.1,0.3,8.3,0.2c5.3-0.2,10.1-0.1,14.6,0.2c4.5,0.3,8.5,1,12.2,2.3
				c3.6,1.3,6.8,3.1,9.6,5.6c2.7,2.5,5,5.9,6.7,10.1c1.6,3.8,2.3,7.6,2.2,11.2c-0.1,3.6-0.9,7-2.5,10.3c-1.5,3.2-3.8,6.2-6.7,9
				s-6.4,5.2-10.5,7.3l5.3,13.1l-11.2,4.6l-5.3-13c-4.1,1.2-8.2,1.9-12.4,2c-4.2,0.2-8.2-0.4-12-1.7s-7.3-3.5-10.6-6.6
				c-3.2-3.1-5.9-7.2-8-12.5l20.4-8.3c1.3,3.1,2.8,5.5,4.5,7.2s3.5,2.9,5.5,3.6c2,0.7,4,0.9,6,0.6c2.1-0.3,4.1-0.8,6-1.6
				c2.2-0.9,4-2,5.5-3.2s2.5-2.6,3.2-4.1c0.7-1.5,1.1-3,1.1-4.6C856,1150,855.7,1148.4,855,1146.8z"/>
		</g>
	</g>
	<g>
		<path class="st6" d="M736.4,1070.5c4.2-3,13.7-9.5,14.2-8c0.4,1-0.2,2.8-1.3,4.7c5.8-2.2,11.6-3.6,25.4-0.9
			c2.8,0.5,5.3,2.1,6.8,4.5c1.4,2.2,1.9,4.9-1.6,7.1c-7,4.4-5,1.8-14.8,8.1c-9.8,6.4-21.8,8-29,3.5l-9.6-1.6l-1.2-15.8
			C725.3,1072.1,730.8,1071.4,736.4,1070.5z"/>
		<path class="st6" d="M484.4,937.8c0,0,22.7,26.9,51.5,15.6c0,0,6.2-15,6.3-26.1c0-1.4,0-2.7,0-3.9c0.2-12.5,0.6-19.5,0.6-19.5
			s0,0,0,0c-1.3-0.5-44.1-18.1-44.1-16.7C499.5,921,484.4,937.8,484.4,937.8z"/>
		<path class="st9" d="M503.1,895.4c4.1,7.7,18.3,22.6,39.2,28.1c0.2-12.5,0.6-19.5,0.6-19.5s0,0,0,0
			C541.7,903.7,501.8,893.1,503.1,895.4z"/>
		<path class="st6" d="M551.8,902.7c0,0-48.1,11.3-54.7-18.8s-17.2-48.9,13.2-57.4c30.5-8.5,39,1.7,43.6,11.2
			C558.6,847.2,564.2,899,551.8,902.7z"/>
		<path class="st25" d="M498.8,892.1c-0.7,0.4-11,3.6-30.6-35.5c-3.1-6.1-5.2-19.4,2-31.1c7.2-11.7,32.6-21,53.8-25
			c21.2-4,26.2,7.9,31.2,19.8c5.2,12.5,20.3,22.9,20.3,22.9c-18.2,10.2-40.2-4.4-47.8-2c-7.6,2.4-10.3,14.4-10.9,18.2
			c-0.6,3.8-1.5,7-11,3.6c-9.6-3.4-4.3,13.6-2.8,16.8C503,880,504.3,888.6,498.8,892.1z"/>
		<g>
			<path class="st20" d="M374.8,1642.5h-29.1c-6.1,0-12.9-6.1-14.6-17.3c-1.7-11.2-14.3-17.3-17-26.5s11.2-22.1,11.2-22.1l2.3-3
				l2.4-3.1l23.1,5.4c0,0,0.6,5.5,0.9,12.5c0.3,5.1,0.4,10.9,0.1,16c-0.7,12.2,3.4,25.4,14.3,27.8
				C379.3,1634.6,374.8,1642.5,374.8,1642.5z"/>
			<path class="st20" d="M577.7,1642.5h-77.3c-0.7-0.1-1.3-0.3-1.6-0.5c-5.2-2.6-3.5-22.3-2.9-28.4c0.1-1.1,0.2-1.8,0.2-1.8
				s27.2-21.7,30.9-5.1c0.1,0.5,0.3,1,0.4,1.5v0c4.7,15.6,25.8,22.6,38,24.6C574.7,1634.3,577.1,1639.8,577.7,1642.5z"/>
			<path class="st2" d="M562.1,1196.9c0,0-4.1,51.5-9,113.4c-6.6,84.1-14.5,187.3-15.3,206.9c-1.3,34-6.8,88.3-6.8,88.3
				s-12.9,12.9-38.7,7.5c0,0-23-77.6-29.6-159.6c-0.1-1.3-0.2-2.7-0.3-4.1c-6.1-83.6-15.6-259.5-15.6-259.5L562.1,1196.9z"/>
			<path class="st8" d="M562.1,1196.9c0,0-4.1,51.5-9,113.4l-90.4,143c-0.1-1.3-0.2-2.7-0.3-4.1c-6.1-83.6-15.6-259.5-15.6-259.5
				L562.1,1196.9z"/>
			<path class="st2" d="M543.3,1203c0,0-74.4,186.4-123.3,274.1c-48.9,87.6-64.2,112.1-64.2,112.1s-28-11.2-30.6-18.8
				c0,0,18.7-169.2,51.5-210.4c18.5-23.3,40.2-93.2,41.3-117.7c1-24.4,6.6-72.8,6.6-72.8L543.3,1203z"/>
		</g>
		<path class="st6" d="M373.6,1169.1l-0.8,12c0,0,7.9,21.3-14.3,32.2c0,0-9.5,3.8-9.9-3.6c-0.4-7.4,0.8-4.6,0.1-15
			c-0.8-10.4,3.3-20.2,10.2-23.5l5.6-6.5L373.6,1169.1z"/>
		<path class="st22" d="M365,1177.8c8.2,2.6,9.5,2.1,9.5,2.1s40.1-72.9,44.1-79.6s85.1-81.8,85.1-81.8l-20.8-77.6
			c0,0-92.1,119.3-102.1,136.4c-16.4,28.3-26.1,94-26.1,94S358.5,1175.8,365,1177.8z"/>
		<path class="st3" d="M577.8,1048.9c-0.3,15.9-1.2,33.9-2.5,52.1c-0.1,1.1-0.2,2.2-0.2,3.2c-0.8,11.3-1.7,22.6-2.7,33.6
			c-0.4,4.4-0.8,8.8-1.3,13.1l-0.1,0.6c0,1.6-0.2,3.3-0.4,4.9c-4.1,41.3-8.3,73.9-9.1,74.4c-0.9,0.6-2,0.9-3.2,0.8
			c-10.8-1.4-43.1,1.1-69.6-4.7c-22.3-4.7-41.5-13.6-61.9-25.7c-2.7-1.6-8.9-5.8-8.4-9c0.5-3.5,1.4-8.5,2.6-14.8
			c4-22,10.9-59.7,13.3-103.9c0.5-8.2,1.1-16.4,2-24.4c2.3-20.8,5.9-40.6,10.8-58.2c9.1-32.7,22.4-57.7,39.1-67.4
			c2.2-1.2,13.9,6.3,24.7,13.2c10,6.4,20.5,8.2,30.7,7.3l9,9.9c10.9,12.7,22.5,29.5,25.6,53.4c0.2,1.8,0.4,3.7,0.6,5.6
			C577.8,1022.8,578.1,1035.1,577.8,1048.9z"/>
		<path class="st22" d="M577.8,1048.9c-0.3,15.9-1.2,33.9-2.5,52.1c-0.1,1.1-0.2,2.2-0.2,3.2c-61.8-38.7-71.4-109.5-71.4-109.5
			c30.4,1.3,54.6,8.3,73.2,18.3C577.8,1022.8,578.1,1035.1,577.8,1048.9z"/>
		<path class="st3" d="M734.1,1079.4c0.6-9.2-4.1-10.7-4.1-10.7s-93.3-16.9-101.2-19.4c-7.9-2.5-75.7-73-75.7-73s-26-29.3-47.3-22.8
			c-18.5,5.6-25.7,20-28.2,33.8c-2.9,16.4,4.6,32.8,18.8,41.5c31.8,19.5,95.5,58,110.5,62.4c33.4,9.8,123.1,0.8,123.1,0.8
			S733.6,1086.6,734.1,1079.4z"/>
	</g>
</g>
<g>
	<ellipse class="st17" cx="1345.3" cy="1487.5" rx="111.7" ry="111.7"/>
	<ellipse class="st18" cx="1335.4" cy="1487.6" rx="111.7" ry="111.7"/>
	<g>
		<path class="st19" d="M1335.5,1590.6c-27.2,0-52.8-10.6-72-29.8c-19.2-19.2-29.8-44.8-29.8-72s10.6-52.8,29.8-72
			c19.2-19.2,44.8-29.8,72-29.8s52.8,10.6,72,29.8c19.2,19.2,29.8,44.8,29.8,72s-10.6,52.8-29.8,72
			C1388.2,1580,1362.7,1590.6,1335.5,1590.6z M1335.5,1393.1c-52.8,0-95.7,42.9-95.7,95.7s42.9,95.7,95.7,95.7s95.7-42.9,95.7-95.7
			C1431.2,1436.1,1388.2,1393.1,1335.5,1393.1z"/>
	</g>
	<g>
		<path class="st19" d="M1349.5,1518.4c0.3-2.2,0.2-4.2-0.2-5.9c-0.4-1.8-1.3-3.4-2.5-4.9s-2.9-3-5-4.4s-4.7-2.9-7.7-4.3
			c-5.3-2.6-10.1-5.2-14.3-7.9s-7.8-5.6-10.7-8.7c-2.9-3.2-5-6.7-6.3-10.6c-1.3-3.9-1.7-8.4-1.1-13.6c0.5-4.4,1.8-8.4,3.8-11.9
			s4.6-6.4,7.9-8.8s7-4.2,11.3-5.4c4.3-1.2,9-1.8,14.1-1.6l2-16.8l13.5,1.6l-2,17c4.8,1.2,9,3,12.7,5.4s6.8,5.3,9.2,8.7
			c2.4,3.4,4.1,7.3,5.1,11.7c1,4.4,1.2,9.2,0.6,14.4l-24.4-2.9c0.7-6.3-0.1-11.1-2.5-14.6s-6-5.4-10.6-6c-2.5-0.3-4.8-0.2-6.7,0.3
			s-3.5,1.3-4.9,2.4c-1.3,1.1-2.4,2.4-3.1,4c-0.8,1.6-1.3,3.4-1.5,5.3s-0.2,3.7,0.2,5.3s1.2,3.2,2.4,4.7c1.2,1.5,2.9,3,5,4.4
			c2.1,1.4,4.8,3,8.1,4.7c5.2,2.7,9.9,5.4,14.2,8s7.8,5.6,10.6,8.8c2.9,3.2,5,6.7,6.3,10.7c1.3,3.9,1.7,8.4,1.1,13.5
			c-0.6,4.6-1.8,8.6-3.9,12.1s-4.7,6.4-7.9,8.7c-3.2,2.3-7,4-11.3,5.2c-4.3,1.1-9.1,1.6-14.2,1.5l-1.8,15.6l-13.4-1.6l1.8-15.5
			c-4.6-1-9-2.6-13.2-4.7c-4.2-2.1-7.8-4.8-10.8-8.2c-3-3.3-5.3-7.4-6.8-12.1c-1.5-4.7-1.9-10.2-1.1-16.5l24.4,2.9
			c-0.4,3.7-0.3,6.9,0.5,9.5c0.8,2.6,1.9,4.8,3.5,6.5s3.4,3,5.6,3.8c2.2,0.9,4.4,1.4,6.7,1.7c2.6,0.3,5,0.3,7.1-0.2s3.9-1.2,5.4-2.2
			c1.5-1,2.7-2.3,3.6-3.9C1348.7,1522.1,1349.2,1520.3,1349.5,1518.4z"/>
	</g>
</g>
<g>
	<ellipse class="st4" cx="1124.4" cy="1274.8" rx="41.4" ry="41.4"/>
	<g>
		<path class="st0" d="M1129.4,1284.6c0-0.8-0.1-1.6-0.3-2.2s-0.6-1.2-1.2-1.8s-1.2-1-2.1-1.5s-1.9-0.9-3.1-1.3
			c-2.1-0.8-4-1.6-5.8-2.4c-1.7-0.8-3.2-1.8-4.4-2.9s-2.2-2.3-2.8-3.8c-0.7-1.4-1-3.2-0.9-5.1c0-1.7,0.3-3.3,1-4.7s1.5-2.6,2.7-3.7
			c1.1-1,2.5-1.9,4.1-2.5c1.6-0.6,3.3-1,5.3-1.2l0.1-6.5l5.2,0.1l-0.1,6.6c1.9,0.3,3.6,0.8,5.1,1.6s2.8,1.8,3.8,3
			c1.1,1.2,1.8,2.6,2.4,4.3s0.8,3.5,0.8,5.5l-9.4-0.1c0-2.4-0.5-4.2-1.5-5.4c-1.1-1.2-2.5-1.8-4.3-1.9c-1,0-1.8,0.1-2.5,0.4
			c-0.7,0.3-1.3,0.6-1.8,1.1c-0.5,0.5-0.8,1-1,1.7c-0.2,0.6-0.3,1.3-0.4,2.1c0,0.8,0.1,1.4,0.3,2c0.2,0.6,0.6,1.2,1.1,1.7
			c0.5,0.5,1.2,1,2.1,1.5c0.9,0.5,2,0.9,3.3,1.4c2.1,0.8,4,1.7,5.7,2.5s3.2,1.8,4.4,2.9s2.2,2.4,2.8,3.8c0.7,1.4,1,3.1,0.9,5.1
			c0,1.8-0.4,3.4-1,4.8s-1.5,2.6-2.7,3.6s-2.5,1.8-4.1,2.4s-3.4,1-5.3,1.1l-0.1,6l-5.2-0.1l0.1-6c-1.8-0.2-3.5-0.6-5.2-1.3
			c-1.7-0.6-3.2-1.5-4.4-2.7c-1.3-1.2-2.3-2.6-3.1-4.4c-0.8-1.8-1.1-3.8-1.1-6.3l9.4,0.1c0,1.4,0.2,2.6,0.6,3.6s0.9,1.7,1.6,2.3
			c0.7,0.6,1.4,1,2.3,1.2c0.8,0.3,1.7,0.4,2.6,0.4c1,0,1.9-0.1,2.7-0.3s1.4-0.6,1.9-1.1c0.5-0.5,0.9-1,1.2-1.6
			C1129.2,1286,1129.3,1285.3,1129.4,1284.6z"/>
	</g>
</g>
<g>
	<path class="st4" d="M1141.7,1157.1c0-32.9,26.7-59.6,59.6-59.6s59.6,26.7,59.6,59.6s-26.7,59.6-59.6,59.6
		C1168.4,1216.8,1141.7,1190.1,1141.7,1157.1z"/>
	<g>
		<path class="st0" d="M1208.4,1171.3c0-1.2-0.1-2.3-0.5-3.2s-0.9-1.8-1.7-2.6c-0.8-0.8-1.8-1.5-3-2.1c-1.2-0.7-2.7-1.3-4.5-1.9
			c-3.1-1.1-5.8-2.3-8.3-3.5c-2.5-1.2-4.6-2.6-6.4-4.2c-1.8-1.6-3.1-3.4-4.1-5.5c-1-2.1-1.4-4.5-1.4-7.4c0-2.5,0.5-4.7,1.4-6.7
			s2.2-3.8,3.8-5.3c1.7-1.5,3.6-2.7,5.9-3.6s4.8-1.5,7.7-1.7l0.1-9.3l7.5,0.1l-0.1,9.4c2.7,0.4,5.1,1.1,7.3,2.2
			c2.2,1.1,4,2.5,5.5,4.3c1.5,1.7,2.7,3.8,3.4,6.1c0.8,2.3,1.2,5,1.1,7.9l-13.6-0.2c0.1-3.5-0.7-6.1-2.2-7.8s-3.6-2.7-6.2-2.7
			c-1.4,0-2.6,0.2-3.6,0.5s-1.9,0.9-2.5,1.6c-0.7,0.7-1.2,1.5-1.5,2.4c-0.3,0.9-0.5,1.9-0.5,3c0,1.1,0.1,2.1,0.4,2.9
			s0.8,1.7,1.6,2.4s1.8,1.5,3,2.1s2.8,1.4,4.7,2.1c3,1.2,5.8,2.4,8.2,3.6s4.6,2.6,6.3,4.2s3.1,3.4,4.1,5.5c0.9,2.1,1.4,4.5,1.4,7.3
			c0,2.6-0.5,4.8-1.4,6.9c-0.9,2-2.2,3.8-3.8,5.2c-1.7,1.5-3.6,2.6-5.9,3.5c-2.3,0.9-4.9,1.4-7.7,1.6l-0.1,8.7l-7.5-0.1l0.1-8.6
			c-2.6-0.3-5.1-0.9-7.5-1.8s-4.5-2.2-6.4-3.9s-3.3-3.8-4.4-6.3c-1.1-2.5-1.6-5.5-1.6-9l13.6,0.2c0,2.1,0.2,3.8,0.8,5.2
			c0.6,1.4,1.3,2.5,2.3,3.3c1,0.8,2.1,1.4,3.3,1.8c1.2,0.3,2.5,0.5,3.8,0.6c1.5,0,2.8-0.2,3.9-0.5s2.1-0.9,2.8-1.5s1.3-1.4,1.7-2.3
			C1208.2,1173.4,1208.4,1172.4,1208.4,1171.3z"/>
	</g>
</g>
<g>
	<ellipse class="st4" cx="1079.9" cy="1035.4" rx="81.5" ry="81.5"/>
	<g>
		<path class="st0" d="M1089.6,1054.7c0-1.7-0.2-3.1-0.6-4.4c-0.4-1.3-1.2-2.4-2.3-3.5c-1.1-1.1-2.4-2-4.1-2.9
			c-1.7-0.9-3.7-1.8-6.2-2.7c-4.2-1.5-7.9-3.1-11.3-4.8c-3.4-1.7-6.3-3.6-8.7-5.7c-2.4-2.1-4.3-4.6-5.6-7.5
			c-1.3-2.8-1.9-6.2-1.9-10.1c0.1-3.4,0.7-6.4,1.9-9.2c1.2-2.8,3-5.2,5.2-7.2s4.9-3.7,8.1-4.9c3.1-1.2,6.6-2,10.4-2.3l0.2-12.7
			l10.3,0.2l-0.2,12.9c3.7,0.5,7,1.5,10,3.1s5.5,3.5,7.6,5.8c2.1,2.4,3.6,5.2,4.7,8.4s1.6,6.8,1.5,10.8l-18.5-0.3
			c0.1-4.8-0.9-8.3-3-10.7c-2.1-2.4-4.9-3.6-8.4-3.7c-1.9,0-3.6,0.2-5,0.7s-2.6,1.2-3.5,2.2c-0.9,0.9-1.6,2-2,3.3
			c-0.4,1.3-0.7,2.6-0.7,4.1c0,1.5,0.2,2.8,0.6,4c0.4,1.2,1.1,2.3,2.2,3.3s2.4,2,4.1,2.9s3.8,1.9,6.4,2.9c4.1,1.6,7.9,3.3,11.2,4.9
			s6.3,3.6,8.7,5.8c2.4,2.2,4.3,4.7,5.6,7.5c1.3,2.8,1.9,6.2,1.9,10c-0.1,3.5-0.7,6.6-2,9.4c-1.3,2.8-3,5.1-5.3,7.1
			c-2.3,2-5,3.6-8.1,4.8c-3.2,1.2-6.7,1.9-10.5,2.2l-0.2,11.8l-10.2-0.2l0.2-11.8c-3.5-0.4-7-1.2-10.3-2.5s-6.2-3-8.7-5.3
			s-4.5-5.1-6-8.6s-2.2-7.5-2.1-12.3l18.5,0.3c0,2.8,0.3,5.2,1.1,7.1c0.8,1.9,1.8,3.4,3.1,4.6c1.3,1.2,2.8,2,4.5,2.4
			c1.7,0.5,3.4,0.7,5.2,0.8c2,0,3.8-0.2,5.3-0.7c1.5-0.5,2.8-1.2,3.8-2.1s1.8-2,2.3-3.2C1089.3,1057.6,1089.6,1056.2,1089.6,1054.7z
			"/>
	</g>
</g>
</svg>
