<?xml version="1.0" encoding="utf-8"?>
<!-- Generator: Adobe Illustrator 23.0.1, SVG Export Plug-In . SVG Version: 6.00 Build 0)  -->
<svg version="1.1" id="Layer_1" xmlns="http://www.w3.org/2000/svg" xmlns:xlink="http://www.w3.org/1999/xlink" x="0px" y="0px"
	 viewBox="0 0 500 500" style="enable-background:new 0 0 500 500;" xml:space="preserve">
<style type="text/css">
	.st0{fill:#E0E0E0;}
	.st1{fill:#F5F5F5;}
	.st2{fill:#FFFFFF;}
	.st3{fill:none;stroke:#FBFBFB;stroke-width:0.25;stroke-miterlimit:10;}
	.st4{fill:#EBEBEB;}
	.st5{display:none;}
	.st6{display:inline;fill:#EBEBEB;}
	.st7{fill:#263238;}
	.st8{fill:#936754;}
	.st9{fill:#7C5142;}
	.st10{fill:#455A64;}
	.st11{opacity:0.6;}
	.st12{opacity:0.3;}
	.st13{fill:#00858E;}
	.st14{fill:#FAFAFA;}
	.st15{fill:#EB996E;}
	.st16{fill:#D1734A;}
	.st17{fill:#FFBE9D;}
	.st18{opacity:0.2;}
	.st19{fill:#B78876;}
	.st20{fill:#FFC93C;}
	.st21{fill:none;stroke:#FFFFFF;stroke-width:5.000000e-02;stroke-miterlimit:10;}
</style>
<g id="Background_Complete">
	<g>
		<g>
			<g>
				<g>
					<g>
						<rect x="349.4" y="56.9" class="st0" width="70.3" height="101.9"/>
					</g>
				</g>
			</g>
		</g>
		<g>
			<g>
				<g>
					<g>
						<rect x="345.9" y="56.9" class="st1" width="70.3" height="101.9"/>
					</g>
				</g>
			</g>
		</g>
		<g>
			<g>
				<g>
					<g>
						<g>
							<rect x="354.6" y="67.9" class="st2" width="52.8" height="79.8"/>
						</g>
					</g>
				</g>
			</g>
			<g>
				<g>
					<g>
						<g>
							<g>
								<path class="st0" d="M407.5,147.7c0,0,0-0.1,0-0.4c0-0.3,0-0.6,0-1.1c0-1,0-2.5,0-4.4c0-3.8,0-9.4,0-16.4
									c0-14.1-0.1-34-0.1-57.5l0.2,0.2c-16.1,0-34,0-52.8,0l0,0l0.2-0.2c0,30.1,0,57.9,0,79.8l-0.2-0.2c16.1,0,29.3,0.1,38.5,0.1
									c4.6,0,8.2,0,10.6,0c1.2,0,2.1,0,2.8,0C407.2,147.7,407.5,147.7,407.5,147.7s-0.3,0-0.9,0s-1.6,0-2.8,0c-2.4,0-6,0-10.6,0
									c-9.2,0-22.4,0-38.6,0.1h-0.2v-0.2c0-22,0-49.7,0-79.8v-0.2h0.2l0,0c18.8,0,36.7,0,52.8,0h0.2v0.2c0,23.5-0.1,43.5-0.1,57.6
									c0,7,0,12.6,0,16.4c0,1.9,0,3.3,0,4.3c0,0.5,0,0.9,0,1.1C407.5,147.6,407.5,147.7,407.5,147.7z"/>
							</g>
						</g>
					</g>
				</g>
			</g>
		</g>
		<g>
			<g>
				<g>
					<g>
						<g>
							<path class="st3" d="M405,68.4"/>
						</g>
					</g>
				</g>
			</g>
		</g>
		<g>
			<g>
				<g>
					<g>
						<g>
							<path class="st0" d="M416.4,56.9c0,0-0.4,0.7-1.3,1.8c-0.8,1.1-2,2.6-3.3,4.2c-1.3,1.6-2.6,3-3.5,4s-1.5,1.6-1.5,1.6
								s0.5-0.7,1.3-1.8c0.9-1.1,2.1-2.6,3.4-4.1c1.3-1.6,2.4-3,3.4-4.1C415.8,57.5,416.4,56.8,416.4,56.9z"/>
						</g>
					</g>
				</g>
			</g>
		</g>
		<g>
			<g>
				<g>
					<g>
						<g>
							<path class="st2" d="M407.8,147.5c2.6,4.2,5.7,8,9.2,11.5"/>
						</g>
					</g>
				</g>
			</g>
			<g>
				<g>
					<g>
						<g>
							<g>
								<path class="st0" d="M417,159c0,0-0.7-0.5-1.6-1.5s-2.2-2.3-3.5-3.9c-1.3-1.6-2.3-3.1-3.1-4.3c-0.7-1.1-1.1-1.9-1.1-1.9
									s0.5,0.6,1.3,1.7c0.8,1.1,1.9,2.6,3.1,4.2c1.3,1.6,2.5,3,3.4,4C416.5,158.4,417,159,417,159z"/>
							</g>
						</g>
					</g>
				</g>
			</g>
		</g>
		<g>
			<g>
				<g>
					<g>
						<g>
							<path class="st2" d="M345.9,158.7c3.1-3.8,6.1-7.6,9.2-11.4"/>
						</g>
					</g>
				</g>
			</g>
			<g>
				<g>
					<g>
						<g>
							<g>
								<path class="st0" d="M355.1,147.3c0.1,0.1-1.9,2.7-4.5,5.8c-2.5,3.1-4.7,5.6-4.8,5.6s1.9-2.7,4.5-5.8
									C352.9,149.8,355,147.3,355.1,147.3z"/>
							</g>
						</g>
					</g>
				</g>
			</g>
		</g>
		<g>
			<g>
				<g>
					<g>
						<g>
							<path class="st0" d="M345.9,56.9c0.1-0.1,2.1,2.3,4.5,5.3c2.4,3,4.3,5.5,4.2,5.6c-0.1,0.1-2.1-2.3-4.5-5.3
								C347.7,59.4,345.8,56.9,345.9,56.9z"/>
						</g>
					</g>
				</g>
			</g>
		</g>
		<g>
			<g>
				<g>
					<g>
						<rect x="373.3" y="84.1" class="st0" width="17.7" height="50.2"/>
					</g>
				</g>
			</g>
		</g>
	</g>
	<g>
		<g>
			<g>
				<g>
					<g>
						<polygon class="st0" points="239.5,45.8 239.5,112.1 144.4,112.1 140.9,46.3 						"/>
					</g>
				</g>
			</g>
		</g>
		<g>
			<g>
				<g>
					<g>
						<rect x="141" y="46.3" class="st2" width="95.1" height="65.6"/>
					</g>
				</g>
			</g>
			<g>
				<g>
					<g>
						<path class="st0" d="M236.5,112.4h-96V45.9h96V112.4z M141.4,111.5h94.2V46.8h-94.2V111.5z"/>
					</g>
				</g>
			</g>
		</g>
		<g>
			<g>
				<g>
					<g>
						<g>
							<rect x="151.2" y="54.5" class="st2" width="74.5" height="49.3"/>
						</g>
					</g>
				</g>
			</g>
			<g>
				<g>
					<g>
						<g>
							<g>
								<path class="st0" d="M225.7,54.5c0,0-0.1,0-0.4,0c-0.3,0-0.6,0-1.1,0c-0.9,0-2.3,0-4.1,0c-3.6,0-8.8,0-15.4,0.1
									c-13.1,0-31.7,0.1-53.6,0.1l0.2-0.2c0,15.1,0,31.8,0,49.3l0,0l-0.2-0.2c28.1,0,54,0,74.5,0l-0.2,0.2c0-15,0.1-27.3,0.1-35.9
									c0-4.3,0-7.6,0-9.9c0-1.1,0-2,0-2.6C225.7,54.8,225.7,54.5,225.7,54.5s0,0.3,0,0.9c0,0.6,0,1.5,0,2.6c0,2.3,0,5.6,0,9.9
									c0,8.6,0.1,20.9,0.1,36v0.2h-0.2c-20.5,0-46.4,0-74.5,0h-0.2v-0.2l0,0c0-17.5,0-34.2,0-49.3v-0.2h0.2
									c22,0,40.6,0.1,53.8,0.1c6.6,0,11.7,0,15.3,0.1c1.8,0,3.1,0,4,0c0.4,0,0.8,0,1,0C225.6,54.5,225.7,54.5,225.7,54.5z"/>
							</g>
						</g>
					</g>
				</g>
			</g>
		</g>
		<g>
			<g>
				<g>
					<g>
						<g>
							<path class="st0" d="M140.9,46.1c0-0.1,0.7,0.4,1.6,1.1c1,0.7,2.3,1.7,3.7,2.8s2.7,2.2,3.6,3c0.9,0.8,1.4,1.3,1.4,1.4
								c-0.1,0.1-2.4-1.8-5.2-4.1C143.2,48.1,140.9,46.2,140.9,46.1z"/>
						</g>
					</g>
				</g>
			</g>
		</g>
		<g>
			<g>
				<g>
					<g>
						<g>
							<path class="st0" d="M236,46.3c0.1,0.1-2.2,2-5,4.3s-5.2,4-5.3,3.9s2.2-2,5-4.3C233.6,48,236,46.2,236,46.3z"/>
						</g>
					</g>
				</g>
			</g>
		</g>
		<g>
			<g>
				<g>
					<g>
						<g>
							<path class="st2" d="M236,111.9c-3.5-2.9-7.1-5.7-10.6-8.6"/>
						</g>
					</g>
				</g>
			</g>
			<g>
				<g>
					<g>
						<g>
							<g>
								<path class="st0" d="M225.4,103.3c0.1-0.1,2.5,1.7,5.4,4.1s5.2,4.4,5.2,4.5c-0.1,0.1-2.5-1.7-5.4-4.1
									C227.6,105.4,225.3,103.4,225.4,103.3z"/>
							</g>
						</g>
					</g>
				</g>
			</g>
		</g>
		<g>
			<g>
				<g>
					<g>
						<g>
							<path class="st0" d="M140.9,111.9c-0.1-0.1,2.1-2,5-4.2c2.8-2.2,5.2-3.9,5.2-3.8s-2.1,2-5,4.2
								C143.4,110.3,141,112,140.9,111.9z"/>
						</g>
					</g>
				</g>
			</g>
		</g>
		<g>
			<g>
				<g>
					<g>
						<rect x="166.3" y="69.8" class="st0" width="46.9" height="16.5"/>
					</g>
				</g>
			</g>
		</g>
	</g>
	<g>
		<g>
			<g>
				<g>
					<g>
						<path class="st1" d="M62.5,432.5c0.9-3.7-1.5-7.4-4.2-10.1s-6-5.1-7.4-8.6c-2.3-5.7,0.7-13.2-3.2-18c-2.3-2.8-6.5-3.7-8.5-6.7
							c-1.1-1.6-1.4-3.5-1.9-5.4c-2.2-9.5-7-18.4-13.8-25.4c-0.4,8.5,1.5,17,5.5,24.5c1.6,3,3.6,5.9,4.1,9.3
							c0.9,5.5-2.1,11.1-0.8,16.5c1.6,6.1,8.5,10.2,8.9,16.5c0.3,5.3-4.3,10.1-3.9,15.4c0.2,2.3,1.2,4.4,2.4,6.3
							c4.2,6.8,10.3,11.5,19.5,11.3l11.3,0.3L62.5,432.5z"/>
					</g>
				</g>
			</g>
		</g>
		<g>
			<g>
				<g>
					<g>
						<g>
							<g>
								<g>
									<path class="st0" d="M72.7,458.8c0,0,1.1,0.2,3.1-0.1c1-0.2,2.3-0.4,3.7-0.9c1.4-0.5,3-1.3,4.5-2.5
										c0.7-0.6,1.5-1.4,1.8-2.5c0.4-1,0.4-2.2,0.5-3.4c0.1-1.2,0-2.4,0.2-3.6s0.7-2.5,1.4-3.6c1.3-2.3,3.5-4.6,4.2-7.7
										c0.8-3.1,0.2-6.5-0.4-9.9c-0.5-3.4-1.1-7.1,0.2-10.6c1.2-3.5,3.6-6.7,4.9-10.7c1.2-4,0.6-8.3,0.8-12.6
										c0.1-2.1,0.5-4.3,1.4-6.3s2.2-3.9,3.1-6c2-4.3,2.3-9.1,2.8-13.8c0.3-2.4,0.5-4.8,0.8-7.2c0.3-2.4,0.5-4.9,1.2-7.2
										c0.7-2.4,1.7-4.7,2.7-7c0.5-1.2,1-2.3,1.3-3.7c0.2-1.3,0.3-2.6,0.3-3.9c0.1-2.6,0-5.2-0.3-7.8c-0.3-2.6-0.8-5.2-1.1-7.8
										c0-0.2,0-0.3-0.1-0.4l-0.1-0.5l-0.5,0.2c-2.4,1.2-4.5,3-6,5.2c-1.6,2.1-2.8,4.5-3.7,6.9c-1.9,4.9-2.5,9.9-3.4,14.8
										c-0.9,4.8-2.1,9.6-4.6,13.7c-1.2,2-2.7,3.9-4,5.8c-1.3,2-2.4,4.1-2.8,6.4c-0.6,4.8,2,8.9,1.5,13.2c-0.2,2.1-1,4.1-2,5.9
										s-2.2,3.5-3.3,5.2c-1.1,1.7-2.2,3.4-3,5.2c-0.8,1.8-1.2,3.8-1.4,5.7c-0.3,3.8,0.3,7.4,0,10.8c-0.2,3.4-1.4,6.5-2.7,9.3
										c-1.3,2.8-2.8,5.3-4.1,7.7c-0.6,1.2-1.2,2.4-1.7,3.6s-0.7,2.4-1,3.6c-0.4,2.3-0.3,4.5,0,6.4c0.5,3.9,2,6.6,3.3,8.2
										c0.3,0.4,0.6,0.7,0.9,1s0.5,0.5,0.7,0.6C72.4,458.7,72.7,458.8,72.7,458.8c0-0.1-0.9-0.6-2.2-2.1c-1.2-1.6-2.6-4.3-3.1-8.1
										c-0.2-1.9-0.3-4,0.1-6.3c0.2-1.1,0.5-2.3,1-3.5s1.1-2.3,1.7-3.6c1.3-2.4,2.8-4.9,4.2-7.7c1.4-2.8,2.6-5.9,2.8-9.4
										c0.3-3.5-0.3-7.1,0-10.8c0.1-1.9,0.5-3.7,1.3-5.5s1.8-3.4,3-5.1c1.1-1.7,2.3-3.4,3.4-5.2c1-1.8,1.9-3.9,2.1-6.1
										c0.5-4.5-2.1-8.7-1.5-13.1c0.3-2.2,1.4-4.2,2.7-6.2c1.3-1.9,2.8-3.8,4-5.8c2.5-4.2,3.8-9,4.7-13.9
										c0.9-4.9,1.6-9.9,3.4-14.7c0.9-2.4,2-4.7,3.6-6.7c1.5-2,3.5-3.8,5.8-4.9l-0.5-0.3c0,0.1,0,0.3,0.1,0.5
										c0.3,2.6,0.8,5.2,1.1,7.8c0.3,2.6,0.5,5.1,0.3,7.7c-0.1,1.3-0.1,2.6-0.3,3.8c-0.3,1.2-0.8,2.4-1.2,3.5
										c-1,2.3-2,4.6-2.7,7.1c-0.8,2.4-1,4.9-1.2,7.3c-0.3,2.4-0.5,4.8-0.8,7.2c-0.5,4.7-0.8,9.5-2.7,13.6c-0.9,2-2.2,3.9-3.1,6
										c-1,2.1-1.4,4.3-1.5,6.5c-0.2,4.4,0.4,8.6-0.8,12.5c-1.1,3.8-3.6,7.1-4.8,10.7c-1.3,3.7-0.7,7.5-0.2,10.9
										c0.6,3.4,1.1,6.7,0.4,9.7c-0.6,3-2.8,5.2-4.1,7.6c-0.7,1.2-1.2,2.5-1.4,3.8c-0.2,1.3-0.2,2.5-0.2,3.7
										c-0.1,1.2-0.1,2.3-0.5,3.3c-0.3,1-1,1.7-1.7,2.4c-1.5,1.2-3,2-4.4,2.5s-2.6,0.8-3.6,1s-1.8,0.2-2.3,0.2
										C72.9,458.8,72.7,458.8,72.7,458.8z"/>
								</g>
							</g>
						</g>
					</g>
				</g>
				<g>
					<g>
						<g>
							<g>
								<g>
									<path class="st0" d="M107.5,325.8c0,0,0,0.1-0.1,0.3c-0.1,0.3-0.1,0.6-0.2,1c-0.2,0.9-0.5,2.2-0.9,3.9
										c-0.4,1.7-1.4,3.6-2.3,5.9s-1.8,5-2.6,8c-0.8,3-1.6,6.4-2.4,9.9c-0.8,3.6-1.6,7.4-3.5,11c-0.9,1.8-1.9,3.7-2.8,5.7
										c-0.8,2-1.3,4.3-1.6,6.5c-0.5,4.5-1.3,9-2.4,13.6c-2.2,9.2-4.3,18.1-6.2,26.1c-2,8-3.7,15.2-5.2,21.3
										c-1.4,6-2.6,10.9-3.5,14.4c-0.4,1.7-0.7,3-0.9,3.9c-0.1,0.4-0.2,0.8-0.2,1s-0.1,0.4-0.1,0.4s0.1-0.1,0.1-0.3
										c0.1-0.3,0.2-0.6,0.3-1c0.3-0.9,0.6-2.2,1-3.9c0.9-3.4,2.1-8.3,3.7-14.3c1.5-6.1,3.4-13.3,5.4-21.2
										c1.9-8,4.1-16.8,6.3-26.1c1-4.6,1.8-9.3,2.3-13.7c0.3-2.2,0.7-4.3,1.5-6.3s1.8-3.8,2.7-5.7c2-3.7,2.8-7.6,3.5-11.2
										c0.8-3.6,1.5-6.9,2.3-9.9s1.7-5.7,2.5-8s1.8-4.2,2.2-6c0.4-1.7,0.6-3,0.8-4c0.1-0.4,0.1-0.8,0.2-1
										C107.5,326,107.5,325.8,107.5,325.8z"/>
								</g>
							</g>
						</g>
					</g>
				</g>
			</g>
			<g>
				<g>
					<g>
						<g>
							<g>
								<path class="st0" d="M74.6,458.8c7.3-4.4,9.4-17.7,6.3-25.7s-8.5-15.2-9.4-23.8c-0.7-6.5,1.4-13.3-0.1-19.7
									c-2.1-8.6-10.6-15.3-10.5-24.2c0-5,2.8-9.7,2.6-14.7c-0.3-6.1-5-10.9-8-16.3c-4.5-8.2-4.8-17.9-6.4-27.2
									c-1.6-9.2-5.1-19.1-13.4-23.6c-1.2,7.8-3.2,13.2-2.5,23.8c0.3,3.8,4.7,11.1,5.4,19.4c0.4,5,0.7,10,1,15
									c0.3,4.9,0.7,9.8,2.4,14.4c1.4,3.5,3.5,6.6,4.5,10.2c1.9,6.8-0.5,14.1,1,21c1.3,5.8,5.4,10.8,6.2,16.7
									c1.2,8.3-4.1,16.9-1.3,24.8c1.4,3.9,4.6,7,5.6,11.1c0.7,3.1,0,6.5,0.6,9.6c1.1,5.1,10.8,9,16,8.6"/>
							</g>
						</g>
					</g>
				</g>
				<g>
					<g>
						<g>
							<g>
								<g>
									<path class="st4" d="M37.8,291.6c0,0,0,0.2,0,0.4c0,0.3,0.1,0.8,0.2,1.3c0.2,1.1,0.4,2.8,0.8,4.9c0.4,2.2,1.6,4.6,2.5,7.5
										c1,2.9,1.9,6.3,2.8,10.1c0.9,3.8,1.6,7.9,2.4,12.4c0.8,4.5,1.6,9.4,3.9,14.1c1,2.3,2.2,4.7,3.1,7.2
										c0.9,2.5,1.3,5.2,1.6,7.9c0.4,5.6,1.2,11.3,2.3,17.1c2.3,11.6,4.5,22.7,6.5,32.7c2.1,10,4,19,5.6,26.6
										c1.6,7.5,2.9,13.7,3.9,18c0.5,2.1,0.8,3.7,1.1,4.9c0.1,0.5,0.2,0.9,0.3,1.3c0.1,0.3,0.1,0.4,0.1,0.4s0-0.2-0.1-0.4
										c-0.1-0.3-0.1-0.7-0.2-1.3c-0.2-1.2-0.5-2.8-1-4.9c-0.9-4.3-2.1-10.4-3.6-18c-1.6-7.6-3.4-16.6-5.5-26.7
										c-2-10.1-4.2-21.1-6.5-32.7c-1.1-5.8-1.8-11.5-2.3-17.1c-0.3-2.8-0.7-5.5-1.7-8.1c-0.9-2.6-2.1-4.9-3.1-7.2
										c-2.2-4.6-3.1-9.4-3.9-13.9c-0.8-4.5-1.5-8.7-2.4-12.5s-1.9-7.2-2.9-10.1s-2.1-5.3-2.6-7.5c-0.4-2.1-0.7-3.8-0.9-4.9
										c-0.1-0.5-0.2-0.9-0.2-1.3C37.8,291.7,37.8,291.6,37.8,291.6z"/>
								</g>
							</g>
						</g>
					</g>
				</g>
			</g>
		</g>
	</g>
	<g>
		<g>
			<g>
				<g>
					<g>
						<g>
							<path class="st1" d="M419.8,446c-18.3-10.9-23.9-33.1-24.7-53.4c-0.1-3.4-0.8-6.9,0.6-10s5-5.4,8.1-4.2
								c2.6,1,3.9,3.8,5.5,6.2c2.1,3.1,5.1,5.5,8.5,7c2.2,1,5,1.4,7,0.1c2.8-1.8,2.8-5.9,2.6-9.2c-0.5-6.3-1-12.5-1.5-18.8
								c-0.3-3.4-0.5-6.8,0.3-10.1c0.8-3.3,2.9-6.4,6-7.5s7.2,0.4,8.1,3.7c0.4,1.3,0.2,2.8,0.4,4.2c0.2,1.4,1,2.9,2.3,3.2
								c1.4,0.3,2.6-0.8,3.6-1.8c3.2-3.7,5.3-8.2,7.1-12.7c1.9-4.5,3.7-9.1,6.6-13.1c2.9-3.9,7-7.2,11.8-7.8
								c4.8-0.6,10.2,2,11.7,6.6c1.6,4.7-0.8,9.7-3.6,13.7c-4,6-9,11.5-14.5,16.1c-1,0.8-2.1,1.7-2.4,3c-0.6,2.3,1.7,4.4,4,4.9
								c2.6,0.7,5.3,0.2,7.9,0.3c2.6,0.1,5.6,1.1,6.7,3.5c1.6,3.3-1,7.2-3.6,9.7c-5.3,5.1-11.5,9.4-18.2,12.4c-2.4,1.1-5,2.1-6.8,4
								c-1.9,1.9-2.8,5-1.5,7.3c1.4,2.3,4.5,2.8,7.1,2.1c2.6-0.7,4.8-2.3,7.2-3.4c4.5-2.1,10.5-2.2,13.7,1.6
								c2.1,2.5,2.6,6.1,1.8,9.3c-0.8,3.2-2.6,6-4.5,8.7c-6.8,9.2-15.7,16.9-26.2,21.5C440.6,447.4,430.8,449.1,419.8,446"/>
						</g>
					</g>
				</g>
			</g>
		</g>
		<g>
			<g>
				<g>
					<g>
						<g>
							<g>
								<path class="st0" d="M423.1,447c0.1-8.1-1.3-3.6,1-14c2.2-10.4,5.6-21.7,9.6-33.3c1-2.9,2-5.8,3-8.6c1-2.8,1.9-5.6,3.1-8.3
									c2.2-5.4,4.7-10.4,7.3-15c2.6-4.7,5.1-9,7.6-13s4.8-7.8,7.1-11c4.6-6.6,8.9-11.5,12-14.7c1.5-1.6,2.8-2.8,3.6-3.7
									c0.4-0.4,0.7-0.7,1-0.9c0.2-0.2,0.3-0.3,0.3-0.3s-0.1,0.1-0.3,0.3c-0.2,0.2-0.5,0.6-0.9,1c-0.8,0.8-2,2.1-3.6,3.7
									c-3,3.3-7.3,8.2-11.8,14.8c-2.3,3.3-4.6,7-7.1,11.1c-2.4,4-5,8.4-7.5,13.1s-5,9.6-7.2,15c-1.1,2.7-2.1,5.4-3,8.3
									c-1,2.8-2,5.7-3,8.6c-3.9,11.6-7.3,22.9-9.6,33.3c-2.3,10.4-0.9,5.9-1.1,13.9"/>
							</g>
						</g>
					</g>
				</g>
			</g>
		</g>
		<g>
			<g>
				<g>
					<g>
						<g>
							<g>
								<path class="st0" d="M439.9,382.6c0,0-0.2-0.5-0.4-1.4c-0.2-0.9-0.6-2.3-0.9-3.9c-0.7-3.3-1.6-7.9-2.5-13s-1.8-9.7-2.6-13
									c-0.4-1.6-0.7-3-0.9-3.9c-0.2-0.9-0.3-1.4-0.3-1.4s0.2,0.5,0.5,1.4s0.7,2.2,1.1,3.9c0.9,3.3,1.9,7.9,2.8,13
									c0.9,5,1.7,9.6,2.3,13c0.3,1.6,0.5,2.9,0.7,3.9C439.9,382.1,439.9,382.6,439.9,382.6z"/>
							</g>
						</g>
					</g>
				</g>
			</g>
		</g>
		<g>
			<g>
				<g>
					<g>
						<g>
							<g>
								<path class="st0" d="M482.6,371.4c0,0-0.6,0.2-1.7,0.3c-1.1,0.2-2.7,0.4-4.7,0.8c-3.9,0.7-9.3,1.9-15.2,3.5
									c-5.9,1.6-11.2,3.2-14.9,4.5c-1.9,0.6-3.4,1.2-4.5,1.6s-1.6,0.6-1.7,0.5c0,0,0.5-0.3,1.6-0.8c1-0.5,2.5-1.1,4.4-1.8
									c3.8-1.4,9-3.1,14.9-4.7s11.3-2.7,15.3-3.3c2-0.3,3.6-0.5,4.7-0.6C481.9,371.4,482.5,371.3,482.6,371.4z"/>
							</g>
						</g>
					</g>
				</g>
			</g>
		</g>
		<g>
			<g>
				<g>
					<g>
						<g>
							<g>
								<path class="st0" d="M424.6,432.1c0,0-0.1-0.2-0.3-0.5c-0.2-0.4-0.5-0.9-0.9-1.5c-0.7-1.3-1.8-3.2-3-5.6
									c-2.5-4.8-5.6-11.5-9-19s-6.5-14.2-8.9-19.1c-1.1-2.4-2.1-4.3-2.8-5.7c-0.3-0.6-0.5-1.1-0.8-1.6c-0.2-0.4-0.2-0.6-0.2-0.6
									s0.1,0.2,0.3,0.5c0.2,0.4,0.5,0.9,0.9,1.5c0.7,1.3,1.8,3.2,3,5.6c2.5,4.8,5.6,11.5,9,19s6.5,14.2,8.9,19.1
									c1.2,2.4,2.1,4.3,2.8,5.7c0.3,0.6,0.5,1.1,0.8,1.6C424.5,431.9,424.6,432.1,424.6,432.1z"/>
							</g>
						</g>
					</g>
				</g>
			</g>
		</g>
		<g>
			<g>
				<g>
					<g>
						<g>
							<g>
								<path class="st0" d="M480.7,409.3c0,0-0.2,0.1-0.6,0.3c-0.4,0.2-1,0.4-1.6,0.7c-1.5,0.6-3.5,1.4-6,2.4
									c-5.1,2.1-12,5-19.7,8.3s-14.7,6.1-19.8,8.1c-2.6,1-4.6,1.8-6.1,2.3c-0.7,0.2-1.2,0.4-1.7,0.6c-0.4,0.1-0.6,0.2-0.6,0.2
									s0.2-0.1,0.6-0.3c0.4-0.2,1-0.4,1.6-0.7c1.5-0.6,3.5-1.4,6-2.4c5.1-2.1,12-5,19.7-8.3s14.7-6.1,19.8-8.1
									c2.6-1,4.6-1.8,6.1-2.3c0.7-0.2,1.2-0.4,1.7-0.6C480.5,409.4,480.7,409.3,480.7,409.3z"/>
							</g>
						</g>
					</g>
				</g>
			</g>
		</g>
	</g>
</g>
<g id="Background_Simple" class="st5">
	<path class="st6" d="M462,114.9c-9.5-21.9-24.7-41.7-45-54.3s-45.8-17.4-68.7-10.5c-57.7,17.4-78.1,97.4-135.8,115
		c-38.3,11.7-79.6-8.8-119.3-3.6c-39.4,5.1-56.6,38.2-65.6,76.9c-4.3,18.4-0.7,38.2,7.4,56.5c15.5,34.8,46.3,60.4,83.1,70.1
		l21.5,3.6c67.3,11.3,136.5,5.1,200.4-18.7c6.3-2.4,12.2-4.7,17.5-7.1c42.4-18.8,79-51.5,99.4-93.2C477.3,208,480.4,157.5,462,114.9
		z"/>
	<path class="st6" d="M219.2,43.5c-13.2-0.6-26.4,8.1-31.1,20.5c-4.7,12.4-0.5,27.6,9.9,35.9s26.1,9,37.2,1.7s16.6-22,13.1-34.8
		C244.8,54,232.5,44.1,219.2,43.5"/>
</g>
<g id="Floor">
	<g>
		<g>
			<path class="st7" d="M470.6,456.2c0,0.1-98.2,0.3-219.3,0.3c-121.2,0-219.4-0.1-219.4-0.3c0-0.1,98.2-0.3,219.4-0.3
				C372.4,456,470.6,456.1,470.6,456.2z"/>
		</g>
	</g>
</g>
<g>
	<path class="st7" d="M387.3,99.1c-7.2-3.1-15.5,1.3-18.7,6.2c-3.2,4.9-4.6,10.7-5.5,16.5c-1.9,11.9-2.2,24-0.9,36
		c0.4,3.5,1.1,7.4,3.8,9.7c2.6,2.2,6.3,2.4,9.6,1.8c3-0.5,6-1.7,8-4c3-3.6,2.6-8.8,2.3-13.5c-1.1-16.1,0.6-32.3,5-47.8"/>
</g>
<g>
	<path class="st7" d="M371.7,105.6c3.3-6.5,13.3-10.1,21.4-7.9c6.8,1.8,14.1,8.8,14.6,16c0.7,10.4-4.9,21.1-1.6,31
		c3.9,11.5,18.2,17.1,21.9,28.7c1.5,4.8,0.9,10.1-1.6,14.4c-1.3,2.2-3.3,4.3-5.8,4.7c-3.2,0.5-6.1-1.6-8.6-3.6
		c-6.8-5.4-13.7-11-18.4-18.3c-5.6-8.6-7.7-19-7.8-29.3c-0.1-10.2,1.7-20.4,3.6-30.4"/>
</g>
<path class="st8" d="M400.2,118.3c1.1-8.6-5.1-16.4-13.9-17.3c-8.2-0.8-15.5,5.3-16.7,13.5c-1.1,7.2-2,14.4-2,17
	c0.1,7.9,4.7,11,6.6,11.9c0.4,0.2,1.6,0.5,2.1,0.5l0,0c0,0,0,0,0,0.1l-1.8,9.1c-0.8,5.9,2.5,11.3,8.5,12.1c6,0.9,10.6-3.7,11.5-9.7
	L400.2,118.3z"/>
<g>
	<g>
		<g>
			<path class="st9" d="M376.4,143.9c0,0,5.1,1.2,12.1-1.8c0,0-3,6.5-12.6,4.2L376.4,143.9z"/>
		</g>
	</g>
</g>
<g>
	<path class="st7" d="M375.8,102c0.8,6,5.5,11.4,11.3,13.1c-0.2-0.7-0.3-1.5-0.5-2.2c2.6,5.1,7.1,9.1,12.5,11.1
		c3.7-6.3,2.3-15.1-3.1-19.9s-14.3-5.1-20.1-0.7"/>
</g>
<g>
	<g>
		<path class="st7" d="M427,179.6c-0.1,0,0.8-0.7,1.5-2.4c0.8-1.6,1.4-4.4,0.8-7.6c-0.3-1.6-1-3.3-1.9-5c-1-1.7-2.3-3.3-3.8-4.9
			c-3-3.2-7-6-10.6-9.6c-1.8-1.8-3.4-3.8-4.4-6s-1.6-4.5-1.9-6.7c-0.6-4.4-0.3-8.4,0-11.7s0.5-6,0.7-7.8c0.1-0.9,0.2-1.6,0.2-2.1
			c0.1-0.5,0.1-0.7,0.1-0.7s0,0.3,0,0.7c0,0.5-0.1,1.2-0.1,2.1c-0.1,1.9-0.3,4.6-0.5,7.8c-0.2,3.3-0.4,7.3,0.2,11.6
			c0.3,2.2,0.9,4.4,1.9,6.5s2.5,4.1,4.3,5.9c3.6,3.6,7.5,6.4,10.6,9.6c1.5,1.6,2.8,3.3,3.8,5s1.6,3.5,1.9,5.1c0.6,3.3-0.1,6.1-1,7.8
			c-0.4,0.8-0.9,1.4-1.2,1.8C427.2,179.4,427,179.6,427,179.6z"/>
	</g>
</g>
<g>
	<path class="st10" d="M434.7,425.1l4.7,23.2l9,17.3c0.7,1.2,0.1,2.8-1.2,3.4l0,0c-0.7,0.3-1.5,0.3-2.2-0.1
		c-4.3-2.6-20.1-12.1-20.3-13.9c-0.3-2-6.6-24.2-6.6-24.2L434.7,425.1z"/>
</g>
<g class="st11">
	<path class="st2" d="M447.3,469l-22.9-15.6l0.2,1c0.2,0.8,0.7,1.6,1.4,2.1c1.9,1.4,7.1,5.1,19,12.3
		C445.7,469.3,446.6,469.3,447.3,469L447.3,469z"/>
</g>
<g class="st11">
	<g>
		<path class="st2" d="M427.4,444.9c0.7,0.3,1.1,1.1,0.8,1.8c-0.2,0.7-1.1,1.1-1.8,0.8c-0.7-0.3-1.2-1.2-0.9-1.9
			C425.8,445,426.8,444.5,427.4,444.9"/>
	</g>
</g>
<g>
	<g>
		<path class="st7" d="M439.7,460.1c0.1,0,0.4-1.3,1.6-2.3s2.5-1,2.5-1.1s-0.3-0.2-0.9-0.1c-0.6,0-1.3,0.3-2,0.8s-1.1,1.2-1.2,1.8
			C439.6,459.7,439.6,460.1,439.7,460.1z"/>
	</g>
</g>
<g>
	<g>
		<path class="st7" d="M442.1,462.8c0.1,0.1,0.7-0.8,1.8-1.5c1.1-0.6,2.2-0.7,2.2-0.8c0-0.1-1.2-0.4-2.4,0.4
			C442.4,461.6,441.9,462.8,442.1,462.8z"/>
	</g>
</g>
<g>
	<g>
		<path class="st7" d="M435.7,456.8c0.1,0.1,1-1.3,2.7-2.4c1.6-1.1,3.3-1.4,3.2-1.6c0-0.1-1.8-0.1-3.5,1.2
			C436.3,455.1,435.6,456.8,435.7,456.8z"/>
	</g>
</g>
<g>
	<g>
		<path class="st7" d="M433.7,449.9c0.1,0.1,1.2-0.7,2.9-1.1c1.6-0.5,3.1-0.3,3.1-0.5c0-0.1-1.4-0.5-3.2,0
			C434.7,448.7,433.6,449.8,433.7,449.9z"/>
	</g>
</g>
<g>
	<g>
		<path class="st7" d="M432.1,443.1c0.1,0.1,1.2-0.9,3-1.3s3.2,0.2,3.2,0.1s-0.3-0.3-0.9-0.5s-1.5-0.3-2.4-0.1c-1,0.2-1.7,0.6-2.2,1
			C432.3,442.7,432.1,443,432.1,443.1z"/>
	</g>
</g>
<g>
	<g>
		<path class="st7" d="M434.8,440.5c0,0,0-0.3-0.2-0.9c-0.2-0.5-0.5-1.3-1.2-2.1c-0.3-0.4-0.7-0.9-1.4-1c-0.4-0.1-0.8,0.1-1,0.5
			s-0.2,0.8-0.1,1.1c0.4,1.5,1.9,2.6,3.6,2.4s3-1.5,3.4-2.9c0.1-0.4,0.1-0.8-0.2-1.1c-0.3-0.4-0.8-0.4-1.1-0.3
			c-0.7,0.3-1,0.8-1.3,1.1c-0.7,0.8-1,1.6-1.2,2.2s-0.2,0.9-0.2,0.9c0.1,0,0.3-1.3,1.6-2.8c0.3-0.4,0.7-0.8,1.2-1
			c0.2-0.1,0.5,0,0.6,0.1c0.1,0.2,0.1,0.5,0.1,0.8c-0.3,1.2-1.5,2.3-2.9,2.5s-2.8-0.8-3.1-2c-0.1-0.3-0.1-0.6,0.1-0.8
			c0.1-0.2,0.3-0.3,0.6-0.3c0.5,0.1,0.9,0.5,1.2,0.8C434.5,439.3,434.7,440.6,434.8,440.5z"/>
	</g>
</g>
<g>
	<g>
		<path class="st10" d="M371.9,427.5l1.1,18.9c0,0-18.8,7.5-19,11l36.7-0.8l-0.5-29.5L371.9,427.5z"/>
	</g>
	<g class="st11">
		<g>
			<path class="st10" d="M384.3,444.6c0.7,0.2,1.2,1,1.1,1.7s-0.9,1.2-1.7,1.1c-0.7-0.2-1.4-1.1-1.1-1.8c0.2-0.7,1.2-1.3,1.9-0.9"/>
		</g>
	</g>
	<g class="st11">
		<path class="st2" d="M390.8,456.6l-0.2-3l-35.1,1.9c0,0-1.6,0.7-1.4,1.9L390.8,456.6z"/>
	</g>
	<g>
		<g>
			<path class="st7" d="M372.4,446.2c0,0.2,0.9,0.2,1.8,0.8c0.9,0.5,1.4,1.3,1.5,1.2c0.2,0-0.1-1.1-1.2-1.8
				C373.5,445.8,372.4,446.1,372.4,446.2z"/>
		</g>
	</g>
	<g>
		<g>
			<path class="st7" d="M368.6,447.9c0,0.2,0.7,0.5,1.4,1.2c0.6,0.7,0.8,1.5,1,1.5s0.3-1-0.5-1.9
				C369.7,447.8,368.6,447.7,368.6,447.9z"/>
		</g>
	</g>
	<g>
		<g>
			<path class="st7" d="M366.5,452.6c0.2,0,0.4-0.9-0.1-1.8c-0.5-1-1.3-1.3-1.4-1.2c-0.1,0.1,0.5,0.7,0.8,1.5
				C366.3,451.8,366.4,452.6,366.5,452.6z"/>
		</g>
	</g>
	<g>
		<g>
			<path class="st7" d="M372.7,441.9c0.1,0.2,0.9-0.1,1.9-0.1s1.8,0.3,1.9,0.2c0.1-0.1-0.7-0.8-1.9-0.8
				C373.4,441.2,372.6,441.8,372.7,441.9z"/>
		</g>
	</g>
</g>
<g class="st12">
	<polygon points="372.2,431.3 372.3,434.6 390.4,434.1 390.3,431 	"/>
</g>
<g>
	<g>
		<path class="st7" d="M372.5,438.1c0,0.1,0.7,0.2,1.8-0.1c0.6-0.1,1.2-0.3,1.9-0.6c0.3-0.2,0.7-0.4,1-0.6c0.2-0.1,0.4-0.2,0.5-0.4
			c0.2-0.2,0.3-0.7,0.1-1c-0.2-0.3-0.5-0.4-0.8-0.4s-0.5,0.1-0.7,0.1c-0.4,0.1-0.8,0.3-1.1,0.4c-0.7,0.3-1.3,0.8-1.7,1.1
			C372.7,437.4,372.4,438.1,372.5,438.1c0.1,0.1,0.5-0.5,1.3-1.2c0.4-0.3,1-0.7,1.6-1c0.3-0.1,0.7-0.3,1-0.3c0.4-0.1,0.7-0.1,0.8,0
			c0,0.1,0,0.1,0,0.2c-0.1,0.1-0.2,0.2-0.4,0.3c-0.3,0.2-0.6,0.4-1,0.6c-0.6,0.3-1.2,0.6-1.8,0.7C373.2,437.9,372.5,438,372.5,438.1
			z"/>
	</g>
</g>
<g>
	<g>
		<path class="st7" d="M372.7,438.3c0.1,0,0.4-0.6,0.4-1.8c0-0.6-0.1-1.3-0.3-2c-0.1-0.4-0.3-0.7-0.5-1.1s-0.5-0.8-1.2-0.9
			c-0.4,0-0.7,0.3-0.8,0.5c-0.1,0.3-0.1,0.5-0.2,0.7c-0.1,0.4,0,0.8,0,1.2c0.1,0.8,0.5,1.4,0.8,1.9c0.7,0.9,1.5,1.1,1.5,1.1
			c0.1-0.1-0.6-0.4-1.1-1.3c-0.3-0.4-0.5-1-0.6-1.7c0-0.3,0-0.7,0-1.1s0.2-0.7,0.3-0.7c0.2,0,0.5,0.3,0.7,0.6c0.2,0.3,0.4,0.7,0.5,1
			c0.2,0.7,0.4,1.3,0.4,1.8C372.8,437.6,372.7,438.3,372.7,438.3z"/>
	</g>
</g>
<g>
	<path class="st7" d="M400.4,225.6c0,0,10.8,23.4,12.4,30.2s31.7,187.3,31.7,187.3l-27.7,1.7l-37.6-176.5l15.1,175.3l-27.2,2.3
		c0,0-20.6-185.2-19.7-190.4c1.3-7.9,8-30.6,8-30.6L400.4,225.6z"/>
</g>
<g>
	<g>
		<path class="st10" d="M379.1,267.1c0,0,0,0.2-0.2,0.3c-0.2,0.1-0.7,0.2-1.1-0.1c-0.4-0.3-0.6-0.9-0.7-1.6s-0.2-1.4-0.4-2.2
			c-0.5-3.2-1.2-7.6-1.9-12.5c-0.7-4.9-1.4-9.3-1.8-12.5c-0.2-1.5-0.4-2.8-0.5-3.8c-0.1-0.9-0.1-1.4-0.1-1.4s0.1,0.5,0.3,1.4
			c0.2,1,0.4,2.3,0.6,3.8c0.5,3.2,1.2,7.6,1.9,12.5c0.7,4.9,1.4,9.3,1.8,12.5c0.1,0.8,0.2,1.5,0.3,2.2c0.1,0.6,0.2,1.2,0.5,1.5
			s0.7,0.3,0.9,0.2C379.1,267.2,379.1,267.1,379.1,267.1z"/>
	</g>
</g>
<g>
	<g>
		<path class="st10" d="M376.3,237c0,0,0-0.2,0.3-0.3c0.2-0.1,0.6-0.3,1.1-0.2s1.1,0.5,1.2,1.2c0.1,0.6-0.2,1.5-0.9,1.8
			c-0.7,0.4-1.5,0.1-2-0.3c-0.5-0.5-0.6-1.1-0.5-1.6c0.2-1,0.9-1.2,0.9-1.1c0.1,0.1-0.5,0.4-0.6,1.2c0,0.4,0.1,0.9,0.4,1.2
			c0.4,0.3,1,0.5,1.5,0.2c0.5-0.2,0.7-0.8,0.7-1.3c-0.1-0.5-0.4-0.8-0.8-0.9C376.8,236.6,376.3,237,376.3,237z"/>
	</g>
</g>
<path class="st8" d="M328.7,122.2l-17-26.2l0,0l-5.2-8.6c0,0-1.5-8.6-2.3-11.1c-1.5-5-2-4.9-2.5-4.6c-1.5,0.7,2.3,8.9,0.5,7.6
	s-3.5-10.5-5-9.7c-2,1.1,2.2,9.6,2.5,10.3c0.3,0.7-0.8,1.2-1,0.5c-0.3-1-4.1-11.2-6.1-10.2c-1.1,0.6,0.1,2.4,0.1,2.4
	s4.2,9.3,3.3,9.8c-1,0.5-3.6-4.9-4.4-6.8s-2-2.3-2.5-1.2c-0.4,0.7,1.9,6.5,2.7,8.4c0.8,1.8,3.1,6.9,0,5.3c-3.1-1.5-6.2-1.6-7-1
	s-0.3,1.9,0.8,1.9c0.9,0,2.3,0.5,3.4,0.9c0.9,0.3,1.7,0.8,2.4,1.4c0.8,0.7,1.5,1.4,2.1,1.9l4.2,8.7l0,0l18.6,36.5l38.9,32.2
	l9.8-17.7L328.7,122.2z"/>
<g>
	<path class="st8" d="M429.2,268.4c0.2,0.8,0.5,1.7,0.8,2.8c0.2,0.9,0.3,1.9,0.2,2.8c-0.1,1.1-0.4,2.7-0.7,3.5c-0.5,1,0.5,2,1.4,1.6
		c0.9-0.5,2.2-3.1,2.3-6.6c0.1-3.5,3.5,0.8,4.7,2.4c1.3,1.6,5.4,6.2,6.2,6.2c1.2,0,1.4-1.3,0.1-2.8s-4.9-6.4-4-7
		c0.8-0.6,7.2,7.4,7.2,7.4s1.1,1.9,2.1,1.2c1.8-1.3-5.6-9.3-6.3-10.1c-0.5-0.5,0.4-1.2,0.9-0.7c0.5,0.6,6.2,8.2,8,6.9
		c1.4-1-6-6.7-6.3-8.9c-0.3-2.2,5.2,4.9,6.5,3.9c0.5-0.4,0.8-0.7-2.9-4.3c-1.8-1.8-8.8-7.1-8.8-7.1L425.8,211l-18.4,0.3L429.2,268.4
		z"/>
</g>
<g>
	<path class="st13" d="M372.4,153.2L372.4,153.2c0,0-6-2.3-8.8-3.9l-29.1-22.1l-13,17.4c0,0,33.2,30,33.8,29.8
		C355.9,174.2,372.4,153.2,372.4,153.2z"/>
</g>
<g>
	<path class="st13" d="M374.6,153.1l-2.2,0.1c-6.4,0.2-11.9,4.4-13.9,10.4c-2.2,6.7-2.1,8.9-3.6,13.8c-3.7,11.9,2.9,26.4,2.9,26.4
		l-2.3,21l44.9,0.8l2.3-25.3l8.4-37.9c0,0-1.9-8.1-9-8.8C398.4,153.3,374.6,153.1,374.6,153.1z"/>
</g>
<g>
	<path class="st13" d="M403.4,154.3c0,0,10.6,0,13.9,12.2c3.2,12.3,9.7,44.5,9.7,44.5l-20.2,6.1L396,172.9c-0.7-2.5-1.1-5.1-0.9-7.7
		C395.5,160.7,397.1,154.9,403.4,154.3z"/>
</g>
<g>
	<polygon class="st13" points="371.5,153.7 375,146.9 381,150.3 381,153.2 382.9,150.3 397.1,146.9 397.1,155.3 380.5,157.1 	"/>
</g>
<g>
	<g>
		<path class="st7" d="M360.4,164c0,0-0.2,0.5-0.7,1.4c-0.3,0.4-0.6,1-0.9,1.7s-0.7,1.4-1.1,2.3c-0.4,0.9-0.8,1.8-1.1,2.8
			c-0.4,1-0.7,2.1-1,3.3c-0.6,2.4-1.1,5-1.3,7.9c-0.2,2.8,0,5.5,0.2,8c0.2,1.2,0.3,2.4,0.6,3.4c0.2,1.1,0.5,2.1,0.7,2.9
			c0.2,0.9,0.5,1.7,0.8,2.4c0.2,0.7,0.5,1.3,0.7,1.8c0.4,1,0.6,1.5,0.6,1.5s-0.3-0.5-0.7-1.4c-0.2-0.5-0.5-1.1-0.7-1.8
			c-0.3-0.7-0.6-1.5-0.8-2.4c-0.3-0.9-0.6-1.9-0.8-3c-0.3-1.1-0.4-2.2-0.6-3.5c-0.3-2.5-0.4-5.2-0.3-8c0.2-2.9,0.7-5.5,1.3-7.9
			c0.4-1.2,0.7-2.3,1.1-3.3s0.8-2,1.2-2.8c0.4-0.9,0.8-1.6,1.1-2.3c0.3-0.7,0.7-1.2,1-1.6C360,164.5,360.3,164,360.4,164z"/>
	</g>
</g>
<g>
	<g>
		<path class="st7" d="M379.9,149.8c0.1,0-0.1,0.8-0.5,2.1c-0.4,1.2-1,3-1.6,4.8c-0.1,0.3-0.2,0.6-0.3,0.9l-0.1,0.3l-0.3-0.2
			c-1.5-0.9-2.8-2-3.6-2.8c-0.8-0.8-1.2-1.4-1.2-1.4c0.1-0.1,2,1.9,5,3.7l-0.4,0.1c0.1-0.3,0.2-0.6,0.3-0.9c0.7-1.9,1.3-3.6,1.8-4.8
			C379.5,150.5,379.9,149.7,379.9,149.8z"/>
	</g>
</g>
<g>
	<g>
		<path class="st7" d="M391.6,156c0,0.1-0.8,0.4-2.1,0.9c-1.3,0.5-3.2,1.2-5.3,1.9l-0.3,0.1v-0.3c0-0.1,0-0.2,0-0.3
			c-0.3-2.2-0.6-4.3-0.8-5.7c-0.2-1.5-0.2-2.4-0.2-2.4c0.1,0,0.3,0.9,0.5,2.3c0.3,1.5,0.6,3.5,0.9,5.7c0,0.1,0,0.2,0,0.3l-0.3-0.2
			c2.1-0.7,4-1.3,5.3-1.7C390.7,156.2,391.5,156,391.6,156z"/>
	</g>
</g>
<g>
	<g>
		<path class="st7" d="M399,216.6c0.1-0.1,1.5,1.4,1.9,3.8c0.4,2.4-0.4,4.2-0.5,4.2c-0.2,0,0.4-1.9,0-4.1
			C400,218.2,398.9,216.7,399,216.6z"/>
	</g>
</g>
<g>
	<g>
		<path class="st14" d="M425.3,204c0,0.1-1.1,0.4-2.9,0.9s-4.3,1-7.1,1.6c-2.8,0.5-5.3,0.9-7.2,1.1c-1.8,0.2-3,0.3-3,0.2
			s1.1-0.3,3-0.6c1.8-0.3,4.4-0.7,7.1-1.3c2.8-0.5,5.3-1,7.1-1.4S425.3,203.9,425.3,204z"/>
	</g>
</g>
<g>
	<g>
		<path class="st14" d="M423,191.7c0,0.1-1.1,0.5-3,1.1s-4.5,1.3-7.3,2c-2.9,0.7-5.5,1.3-7.4,1.8s-3,0.8-3.1,0.7
			c0-0.1,1.1-0.5,3-1.1s4.5-1.3,7.3-2c2.9-0.7,5.5-1.3,7.4-1.8C421.8,192,423,191.6,423,191.7z"/>
	</g>
</g>
<g>
	<g>
		<path class="st7" d="M406.8,217.2c0,0-0.2-0.4-0.4-1.2c-0.2-0.9-0.5-1.9-0.8-3.2c-0.7-2.7-1.5-6.5-2.5-10.7
			c-0.9-4.2-1.8-8-2.3-10.7c-0.3-1.3-0.5-2.4-0.7-3.3c-0.1-0.8-0.2-1.2-0.2-1.2s0.2,0.4,0.4,1.2c0.2,0.9,0.5,1.9,0.8,3.2
			c0.7,2.7,1.5,6.5,2.5,10.7c0.9,4.2,1.8,8,2.3,10.7c0.3,1.3,0.5,2.4,0.7,3.3C406.8,216.7,406.9,217.2,406.8,217.2z"/>
	</g>
</g>
<g>
	<g>
		<path class="st14" d="M421.9,182.3c0,0.1-15.1-0.1-33.7-0.6s-33.6-1-33.6-1.2c0-0.1,15.1,0.1,33.7,0.6S421.9,182.2,421.9,182.3z"
			/>
	</g>
</g>
<g>
	<g>
		<path class="st14" d="M416.8,165.2c0,0-0.2,0-0.6,0.1c-0.4,0-1,0.1-1.7,0.1c-1.5,0.1-3.6,0.3-6.2,0.4c-5.2,0.3-12.4,0.7-20.4,0.9
			s-15.2,0.3-20.4,0.2c-2.6,0-4.7,0-6.2-0.1c-0.7,0-1.2,0-1.7-0.1c-0.4,0-0.6,0-0.6-0.1c0,0,0.2,0,0.6,0s1,0,1.7,0
			c1.5,0,3.6,0,6.2-0.1c5.2-0.1,12.4-0.2,20.4-0.4s15.2-0.5,20.4-0.7c2.6-0.1,4.6-0.2,6.2-0.3c0.7,0,1.2,0,1.7,0
			C416.6,165.1,416.8,165.2,416.8,165.2z"/>
	</g>
</g>
<g>
	<g>
		<path class="st14" d="M344.7,165.9c-0.1-0.1,3.3-4.2,7.7-9.2c4.3-5,8-9,8.1-8.9s-3.3,4.2-7.7,9.2C348.5,162,344.9,166,344.7,165.9
			z"/>
	</g>
</g>
<g>
	<g>
		<path class="st14" d="M401.2,201c0,0.1-10.3-0.8-22.9-2c-12.7-1.3-22.9-2.4-22.9-2.5s10.3,0.8,22.9,2
			C390.9,199.8,401.2,200.9,401.2,201z"/>
	</g>
</g>
<g>
	<g>
		<path class="st14" d="M401.7,214.9c0,0.1-10,0-22.3-0.2c-12.3-0.3-22.3-0.6-22.2-0.8c0-0.1,10,0,22.3,0.2
			C391.7,214.4,401.7,214.7,401.7,214.9z"/>
	</g>
</g>
<g>
	<g>
		<path class="st7" d="M371.4,224.6c0,0,0-0.3,0-0.7c0-0.5,0-1.2,0-2.1c0-1.8,0.1-4.5,0.4-7.8c0.1-1.6,0.3-3.4,0.5-5.4
			c0.2-1.9,0.5-4,0.8-6.1c0.5-4.3,1-9.1,1.5-14c1-10,2.1-19,3.7-25.4c0.7-3.2,1.5-5.8,2-7.5c0.3-0.8,0.5-1.5,0.7-2s0.3-0.7,0.3-0.7
			s0,0.3-0.2,0.7c-0.2,0.5-0.3,1.2-0.6,2c-0.5,1.8-1.2,4.3-1.9,7.5c-1.4,6.4-2.5,15.4-3.5,25.4c-0.5,5-1,9.7-1.5,14
			c-0.3,2.2-0.6,4.2-0.8,6.1c-0.2,1.9-0.4,3.7-0.5,5.3c-0.3,3.3-0.4,5.9-0.5,7.8c0,0.9-0.1,1.6-0.1,2.1
			C371.5,224.4,371.5,224.6,371.4,224.6z"/>
	</g>
</g>
<g>
	<rect x="387.7" y="180.5" class="st14" width="10.9" height="2.8"/>
</g>
<g class="st12">
	<g>
		<path d="M400.3,189.1c-4.9,7.4-4.6,17.8,0.8,24.9c0.7-4.7,1.4-9.4,2-14"/>
	</g>
</g>
<path class="st7" d="M394,119.2c1.3,2.6,0.7,5.8-0.3,8.6c-0.9,2.8-2.1,5.6-1.9,8.5c0.2,2.7,1.7,5.2,1.9,7.9
	c0.4,4.6-2.5,8.7-3.7,13.1c-1.5,5.7,0,12.1,3.9,16.5c0.4,0.4,0.9,0.9,1.5,0.9c0.7,0,1.2-0.7,1.4-1.4c0.1-0.7,0-1.4,0-2.1
	c-0.6-6.5,5.7-11.8,6.7-18.3c0.6-4.2-1.2-8.4-1.4-12.7c-0.3-5.4,1.7-10.6,2.4-15.9c0.2-1.8,0.3-3.7-0.3-5.5
	c-0.6-1.7-1.9-3.3-3.7-3.8c-1.8-0.5-3.9,0.5-4.5,2.2"/>
<path class="st15" d="M272.9,159.3l-21.2,13.4l15-41.1l4.1-8.1c0.5-0.7,1.2-1.5,2-2.4c0.7-0.8,1.5-1.4,2.4-1.9
	c1.1-0.6,2.6-1.3,3.6-1.4c1.2-0.2,1.5-1.7,0.6-2.2s-4.2-0.1-7.4,2c-3.2,2.1-1.4-3.6-0.7-5.7c0.6-2.1,2.3-8.6,1.8-9.3
	c-0.7-1-2-0.5-2.5,1.6c-0.6,2.1-2.8,8.3-3.9,7.9s2.3-11,2.3-11s1.1-2.1-0.2-2.6c-2.2-0.9-5,10.6-5.2,11.7c-0.2,0.8-1.4,0.4-1.1-0.4
	c0.2-0.8,3.6-10.5,1.3-11.4c-1.7-0.7-2.4,9.5-4.2,11.1c-1.8,1.6,1.2-7.7-0.4-8.3c-0.6-0.2-1.1-0.3-2.1,5.3c-0.5,2.7-1,12.2-1,12.2
	l-4.9,9.7l0.1,0.1l-20.2,42.6c-3.9,10.2,2.4,18.5,8.8,22.2l0,0c5.9,3.5,13.3,3.3,19-0.5l24.5-16.3L272.9,159.3z"/>
<g>
	<g>
		<path class="st10" d="M286.1,427.8l1.1,18.5c0,0-18.5,7.3-18.6,10.8l36-0.2l-0.5-29.5L286.1,427.8z"/>
	</g>
	<g class="st11">
		<g>
			<path class="st2" d="M298.3,444.5c0.7,0.2,1.2,0.9,1.1,1.7c-0.1,0.7-0.9,1.2-1.6,1.1c-0.7-0.2-1.3-1.1-1.1-1.8
				c0.2-0.7,1.2-1.2,1.8-0.9"/>
		</g>
	</g>
	<g class="st11">
		<path class="st2" d="M304.6,456.9v-3l-34.6,1.3c0,0-1.6,0.7-1.4,1.9L304.6,456.9z"/>
	</g>
	<g>
		<g>
			<path class="st7" d="M286.6,446.2c0,0.2,0.9,0.2,1.8,0.8c0.9,0.5,1.4,1.3,1.5,1.2c0.2,0-0.1-1.1-1.2-1.7
				C287.6,445.8,286.5,446,286.6,446.2z"/>
		</g>
	</g>
	<g>
		<g>
			<path class="st7" d="M282.8,447.8c0,0.2,0.7,0.5,1.3,1.2c0.6,0.7,0.8,1.5,1,1.5s0.3-1-0.5-1.9
				C283.9,447.7,282.8,447.6,282.8,447.8z"/>
		</g>
	</g>
	<g>
		<g>
			<path class="st7" d="M280.8,452.4c0.2,0,0.4-0.8-0.1-1.8s-1.3-1.3-1.4-1.2c-0.1,0.1,0.4,0.7,0.8,1.4
				C280.6,451.6,280.6,452.4,280.8,452.4z"/>
		</g>
	</g>
	<g>
		<g>
			<path class="st7" d="M286.8,441.9c0.1,0.2,0.9-0.1,1.9-0.1s1.8,0.3,1.9,0.2c0.1-0.1-0.7-0.8-1.8-0.8
				C287.5,441.2,286.7,441.8,286.8,441.9z"/>
		</g>
	</g>
</g>
<g>
	<g>
		<path class="st7" d="M286.7,438.2c0,0.1,0.7,0.2,1.8,0c0.6-0.1,1.2-0.3,1.9-0.6c0.3-0.2,0.7-0.3,1-0.6c0.2-0.1,0.4-0.2,0.5-0.4
			c0.2-0.2,0.3-0.7,0.1-0.9c-0.2-0.3-0.5-0.4-0.8-0.4s-0.5,0.1-0.7,0.1c-0.4,0.1-0.8,0.2-1.1,0.4c-0.7,0.3-1.2,0.7-1.6,1.1
			c-0.8,0.8-1.1,1.5-1,1.5c0.1,0.1,0.5-0.5,1.3-1.2c0.4-0.3,1-0.7,1.6-0.9c0.3-0.1,0.7-0.3,1-0.3c0.4-0.1,0.7-0.1,0.8,0
			c0,0.1,0,0.1,0,0.2c-0.1,0.1-0.2,0.2-0.4,0.3c-0.3,0.2-0.6,0.4-0.9,0.6c-0.6,0.3-1.2,0.6-1.7,0.7
			C287.3,438,286.6,438.1,286.7,438.2z"/>
	</g>
</g>
<g>
	<g>
		<path class="st7" d="M286.9,438.4c0.1,0,0.4-0.6,0.4-1.8c0-0.6-0.1-1.2-0.3-2c-0.1-0.4-0.3-0.7-0.5-1.1s-0.5-0.8-1.2-0.9
			c-0.4,0-0.6,0.3-0.7,0.5s-0.1,0.5-0.2,0.7c-0.1,0.4,0,0.8,0,1.2c0.1,0.8,0.5,1.4,0.8,1.8c0.7,0.9,1.5,1.1,1.5,1.1
			c0.1-0.1-0.6-0.4-1.1-1.3c-0.3-0.4-0.5-1-0.6-1.7c0-0.3,0-0.7,0-1c0-0.4,0.2-0.7,0.3-0.7c0.2,0,0.5,0.3,0.6,0.6
			c0.2,0.3,0.3,0.6,0.5,1c0.2,0.6,0.4,1.3,0.4,1.8C287,437.7,286.8,438.4,286.9,438.4z"/>
	</g>
</g>
<g>
	<g>
		<path class="st10" d="M348.4,427.5l1.4,18.5c0,0-18.3,7.6-18.4,11.1l36-1.4l-2.9-28.8L348.4,427.5z"/>
	</g>
	<g class="st11">
		<g>
			<path class="st2" d="M360.8,444c0.7,0.2,1.2,0.9,1.1,1.6s-0.9,1.2-1.6,1.1s-1.3-1-1.1-1.7c0.2-0.7,1.2-1.3,1.8-0.9"/>
		</g>
	</g>
	<g class="st11">
		<path class="st2" d="M367.4,455.7l-0.2-2.9l-34.4,2.5c0,0-1.6,0.8-1.3,1.9L367.4,455.7z"/>
	</g>
	<g>
		<g>
			<path class="st7" d="M349.2,445.9c0,0.2,0.9,0.2,1.8,0.7s1.4,1.2,1.5,1.2c0.2,0-0.1-1.1-1.2-1.7
				C350.2,445.5,349.2,445.7,349.2,445.9z"/>
		</g>
	</g>
	<g>
		<g>
			<path class="st7" d="M345.5,447.6c0,0.2,0.7,0.4,1.4,1.2c0.6,0.7,0.8,1.5,1,1.5s0.2-1-0.5-1.9
				C346.5,447.5,345.5,447.4,345.5,447.6z"/>
		</g>
	</g>
	<g>
		<g>
			<path class="st7" d="M343.5,452.2c0.2,0,0.4-0.9-0.1-1.8s-1.3-1.3-1.4-1.1c-0.1,0.1,0.5,0.6,0.9,1.4
				C343.3,451.4,343.4,452.2,343.5,452.2z"/>
		</g>
	</g>
	<g>
		<g>
			<path class="st7" d="M349.3,441.6c0.1,0.2,0.9-0.1,1.9-0.1s1.8,0.3,1.9,0.2c0.1-0.1-0.7-0.8-1.9-0.8
				C350.1,440.9,349.3,441.5,349.3,441.6z"/>
		</g>
	</g>
</g>
<g>
	<g>
		<path class="st7" d="M349.1,437.9c0,0.1,0.7,0.2,1.8-0.1c0.5-0.1,1.2-0.3,1.9-0.7c0.3-0.2,0.7-0.4,1-0.6c0.2-0.1,0.4-0.2,0.5-0.4
			c0.2-0.2,0.3-0.7,0-0.9c-0.2-0.3-0.5-0.4-0.8-0.4s-0.5,0.1-0.7,0.1c-0.4,0.1-0.8,0.3-1.1,0.4c-0.7,0.3-1.2,0.8-1.6,1.2
			c-0.8,0.8-1.1,1.5-1,1.5c0.1,0.1,0.5-0.5,1.3-1.2c0.4-0.3,0.9-0.7,1.6-1c0.3-0.1,0.7-0.3,1-0.4c0.4-0.1,0.7-0.1,0.8,0
			c0,0.1,0,0.1,0,0.2c-0.1,0.1-0.2,0.2-0.4,0.3c-0.3,0.2-0.6,0.4-0.9,0.6c-0.6,0.3-1.2,0.6-1.7,0.7
			C349.8,437.7,349.1,437.8,349.1,437.9z"/>
	</g>
</g>
<g>
	<g>
		<path class="st7" d="M349.4,438.1c0.1,0,0.4-0.6,0.4-1.8c0-0.6-0.1-1.2-0.3-2c-0.1-0.4-0.3-0.7-0.5-1.1c-0.2-0.3-0.5-0.8-1.2-0.9
			c-0.4,0-0.6,0.3-0.7,0.5s-0.1,0.5-0.2,0.7c0,0.4,0,0.8,0,1.2c0.1,0.8,0.5,1.4,0.8,1.8c0.7,0.9,1.5,1.1,1.5,1
			c0.1-0.1-0.6-0.4-1.1-1.3c-0.3-0.4-0.5-1-0.6-1.7c0-0.3-0.1-0.7,0-1c0-0.4,0.2-0.7,0.3-0.7c0.2,0,0.5,0.3,0.7,0.6
			c0.2,0.3,0.4,0.6,0.5,1c0.3,0.6,0.4,1.3,0.4,1.8C349.4,437.4,349.3,438.1,349.4,438.1z"/>
	</g>
</g>
<g>
	<g>
		<g>
			<g>
				<g>
					<g>
						<g>
							<g>
								<g>
									<g>
										<g>
											<g>
												<path class="st15" d="M318.7,114.1l-3.5,40.9l-20.5-1.6c-0.1-2.4,0-11.7,0-11.7s-8.5-1.3-8.6-9.9
													c-0.1-4.1,0.5-12.7,1.2-20.4c0.7-8.6,8.1-15,16.7-14.5l0,0C312.8,97.5,319.5,105.3,318.7,114.1z"/>
											</g>
										</g>
									</g>
								</g>
							</g>
						</g>
					</g>
				</g>
			</g>
			<g>
				<g>
					<g>
						<g>
							<g>
								<g>
									<g>
										<g>
											<g>
												<path class="st16" d="M294.7,141.7c0,0,5.4,0.4,11.1-3.2c0,0-2.6,6.1-11.1,5.4V141.7z"/>
											</g>
										</g>
									</g>
								</g>
							</g>
						</g>
					</g>
				</g>
			</g>
		</g>
	</g>
</g>
<g>
	<g>
		<g>
			<path class="st7" d="M309.5,104.8L309.5,104.8c1.4,1.1,2.3,2.7,2.5,4.4c0,0.1,0,0.1,0,0.2c0.3,2.4,0.3,4.9,0.6,7.3
				c0.4,2.4,1.2,4.9,3,6.6c0.7,0.7,2,1.2,2.7,0.4c0.2-0.3,0.3-0.7,0.3-1.1c0.5-5.9,2.1-11.1,2-17.2c0-1.7-0.8-3.2-2.1-4.2
				c-1.3-0.9-2.9-1.9-4.3-1.2c-1.4,0.7-3.3,3.4-4.4,4.5"/>
		</g>
	</g>
</g>
<g>
	<g>
		<g>
			<g>
				<g>
					<g>
						<g>
							<g>
								<g>
									<g>
										<path class="st15" d="M315.9,118c0.1-0.1,5.9-1.7,5.7,4.1c-0.2,5.8-6,4.4-6,4.3C315.5,126.2,315.9,118,315.9,118z"/>
									</g>
								</g>
							</g>
						</g>
					</g>
				</g>
			</g>
		</g>
	</g>
	<g>
		<g>
			<g>
				<g>
					<g>
						<g>
							<g>
								<g>
									<g>
										<g>
											<path class="st16" d="M317.4,124.2c0,0,0.1,0.1,0.3,0.2c0.2,0.1,0.5,0.1,0.8,0c0.6-0.2,1.2-1.2,1.2-2.2
												c0-0.5-0.1-1-0.2-1.5c-0.2-0.4-0.4-0.7-0.7-0.8c-0.3-0.1-0.5,0.1-0.6,0.3c-0.1,0.2-0.1,0.3-0.1,0.3s-0.1-0.1-0.1-0.3
												c0-0.1,0.1-0.3,0.2-0.4s0.4-0.2,0.6-0.1c0.4,0,0.8,0.5,1,0.9c0.2,0.5,0.3,1,0.3,1.6c-0.1,1.2-0.7,2.3-1.6,2.5
												c-0.4,0.1-0.8,0-0.9-0.2C317.4,124.3,317.4,124.2,317.4,124.2z"/>
										</g>
									</g>
								</g>
							</g>
						</g>
					</g>
				</g>
			</g>
		</g>
	</g>
</g>
<g>
	<g>
		<g>
			<path class="st7" d="M314.4,100.7c1.4-2.3-2.5-5.7-5.4-6.6s-6.7,0.5-9.5,1.4c-1.8,0.6-3.6,1.4-5.5,1.4c-1.3-0.1-2.5-0.5-3.7-0.9
				s-2.5-0.8-3.7-0.7c-1.3,0.1-2.6,0.8-3.1,1.9s0.2,2.8,1.5,3c-1.6-0.9-3.9,0.3-4.2,2.1c-0.3,1.8,1.6,3.6,3.4,3.2
				c-0.8-0.6-2.1,0.4-2,1.4s1,1.8,2,2.2c2.4,1.1,5.3,0.7,7.8-0.1c2.5-0.8,4.9-2.2,7.3-3.1c2.5-0.9,6.7-2.5,9.2-1.7
				c1.8,0.7,3.1,2.9,4.2,2.4c1-0.5,1.6-1.5,1.8-2.6C314.8,103,314.6,101.8,314.4,100.7"/>
		</g>
	</g>
</g>
<g>
	<g>
		<g>
			<g>
				<path class="st10" d="M284.3,100c0,0,0.3,0.4,0.9,1.1s1.7,1.5,3.2,2.1c1.5,0.5,3.6,0.7,5.6-0.2c2-0.9,3.7-2.7,5.6-4.3
					c1.9-1.7,4.3-2.9,6.6-3.1c2.3-0.2,4.4,0.6,5.6,1.9s1.4,2.8,1.3,3.8c0,0.5-0.2,0.8-0.3,1.1c-0.1,0.2-0.2,0.3-0.2,0.3
					c-0.1,0,0.2-0.5,0.2-1.4s-0.3-2.3-1.4-3.5s-3.1-1.9-5.2-1.7c-2.2,0.2-4.3,1.4-6.2,3.1c-1.9,1.6-3.7,3.5-5.8,4.4
					c-2.1,1-4.3,0.7-5.9,0.1s-2.7-1.6-3.3-2.3c-0.3-0.4-0.5-0.7-0.6-0.9C284.3,100.2,284.3,100,284.3,100z"/>
			</g>
		</g>
	</g>
</g>
<g>
	<g>
		<g>
			<g>
				<path class="st10" d="M317.4,117.7c0,0-0.3-0.2-0.5-0.6c-0.2-0.5-0.4-1.2-0.3-2.1c0.1-1.9,1.8-3.9,2-6.5
					c0.1-1.3-0.1-2.5-0.6-3.5c-0.5-0.9-1.4-1.6-2.2-1.9c-0.8-0.3-1.5-0.3-1.9-0.3c-0.5,0.1-0.7,0.2-0.7,0.1c0,0,0.2-0.2,0.7-0.4
					c0.5-0.1,1.3-0.2,2.1,0.1c0.9,0.3,1.8,0.9,2.5,2c0.6,1,0.9,2.4,0.8,3.8s-0.6,2.6-1.1,3.7c-0.5,1-0.9,2-1,2.8
					C316.7,116.8,317.4,117.7,317.4,117.7z"/>
			</g>
		</g>
	</g>
</g>
<g>
	<g>
		<polygon class="st7" points="335,246.3 368.5,441.4 342,444.6 304.5,270.6 307.6,442.1 282.3,442.1 272.3,244.6 		"/>
	</g>
</g>
<g>
	<g>
		<g>
			<g>
				<g>
					<g>
						<g>
							<path class="st13" d="M274.8,184.3l-9.4,5.9l-10.7-20.6c4.7-3.4,19.8-13.1,23.6-15.6c1-0.6,2-1.2,3-1.6
								c1.8-0.8,4.1-1.4,7.9-1.9c2.4-0.3,4.3-0.5,5.5-0.6c7.1,2.2,14.1,2.2,21.2,0l0,0c0.8,0,1.6,0.1,2.4,0.2l0,0
								c7,1,13.8,5.9,18,10.5l16.7,15l-16.4,19.6l-5.1-6l1.2,27.6l4.8,34.4h-65.3c0,0-0.1-8.1,0.5-19.4c0.8-15.8,1.7-40.5,1.7-40.5"
								/>
						</g>
					</g>
				</g>
			</g>
		</g>
		<g>
			<g>
				<g>
					<g>
						<g>
							<g>
								<path class="st7" d="M274.2,201.6c0.1,0,0.2-1.7,0.4-4.5c0.2-2.8,0.4-6.7,0.8-11s0.7-8.1,1-10.9c0.3-2.8,0.4-4.5,0.3-4.5
									s-0.4,1.7-0.8,4.5s-0.9,6.7-1.2,10.9c-0.4,4.3-0.5,8.2-0.6,11C274,199.9,274.1,201.6,274.2,201.6z"/>
							</g>
						</g>
					</g>
				</g>
			</g>
		</g>
	</g>
</g>
<g>
	<g>
		<g>
			<g>
				<g>
					<g>
						<path class="st7" d="M330.3,174.4c-0.1,0-0.2,1.2-0.2,3.1c0,1.9,0.1,4.6,0.3,7.5c0.2,2.9,0.5,5.6,0.8,7.5s0.5,3.1,0.6,3.1
							s0-1.2-0.1-3.1c-0.2-2.2-0.4-4.7-0.6-7.5s-0.4-5.3-0.5-7.5C330.5,175.6,330.4,174.4,330.3,174.4z"/>
					</g>
				</g>
			</g>
		</g>
	</g>
</g>
<g>
	<g>
		<rect x="314" y="177.6" class="st14" width="10.9" height="2.8"/>
	</g>
	<g>
		<g>
			<path class="st14" d="M335.2,159.6c0,0.1-0.9-0.4-2.6-0.4s-4.1,0.7-6.6,2.4c-1.3,0.8-2.6,1.9-4,3c-1.5,1.1-3.2,2-5,2.9
				c-1.9,0.8-3.9,1.4-6.1,1.8c-2.2,0.4-4.5,0.5-6.9,0.4s-4.6-0.6-6.7-1.3c-1.1-0.3-2.1-0.7-3.1-1.2s-1.9-0.9-2.8-1.5
				c-3.5-2.1-5.9-5-8.4-6.7c-2.4-1.8-5-2.3-6.7-2.2c-1.7,0.2-2.5,0.8-2.5,0.7c0,0,0,0,0.1-0.1s0.2-0.2,0.4-0.3
				c0.4-0.2,1-0.4,1.9-0.6c1.7-0.2,4.4,0.3,6.9,2.1c2.6,1.7,5,4.6,8.4,6.6c0.8,0.6,1.8,1,2.7,1.4c1,0.4,2,0.8,3,1.1
				c2.1,0.6,4.3,1.1,6.6,1.2c2.3,0.1,4.6,0,6.7-0.3c2.1-0.4,4.2-1,6-1.8s3.5-1.7,5-2.8c1.5-1,2.8-2.1,4.1-2.9
				c2.6-1.7,5.1-2.4,6.8-2.3c0.9,0,1.5,0.2,2,0.3c0.2,0.1,0.4,0.1,0.5,0.2C335.1,159.6,335.2,159.6,335.2,159.6z"/>
		</g>
	</g>
	<g>
		<g>
			<path class="st14" d="M274.9,180.6c-0.1,0.1-0.7-0.9-2-2c-0.7-0.6-1.5-1.2-2.5-1.8s-2.2-1.1-3.5-1.5s-2.6-0.6-3.7-0.7
				c-1.2-0.1-2.2-0.1-3.1,0.1c-1.8,0.2-2.8,0.6-2.8,0.5c0,0,0.2-0.1,0.7-0.3s1.2-0.4,2.1-0.5c0.9-0.2,2-0.2,3.2-0.2
				c1.2,0.1,2.5,0.3,3.8,0.7s2.5,1,3.5,1.6s1.9,1.3,2.5,2c0.3,0.3,0.6,0.6,0.8,0.9c0.2,0.3,0.4,0.5,0.6,0.7
				C274.8,180.4,274.9,180.6,274.9,180.6z"/>
		</g>
	</g>
	<g>
		<g>
			<path class="st14" d="M330.1,190.2c0,0-0.2,0.1-0.5,0.3c-0.4,0.2-0.9,0.5-1.5,0.8c-0.3,0.2-0.7,0.4-1.1,0.6
				c-0.4,0.2-0.9,0.4-1.3,0.6c-1,0.4-2,0.9-3.3,1.3c-0.6,0.2-1.3,0.4-2,0.7c-0.7,0.2-1.4,0.4-2.2,0.6c-1.5,0.4-3.1,0.7-4.8,1
				c-3.4,0.5-7.2,0.8-11.3,0.7c-4-0.2-7.8-0.8-11.2-1.6c-1.7-0.5-3.3-0.9-4.7-1.4c-0.7-0.3-1.4-0.5-2.1-0.8s-1.3-0.6-1.9-0.8
				c-1.2-0.5-2.3-1.1-3.2-1.5c-0.5-0.2-0.9-0.5-1.3-0.7s-0.7-0.4-1-0.6c-0.6-0.4-1.1-0.7-1.4-0.9s-0.5-0.3-0.5-0.3s0.2,0.1,0.5,0.3
				c0.4,0.2,0.9,0.5,1.5,0.8c0.3,0.2,0.7,0.4,1.1,0.6c0.4,0.2,0.8,0.4,1.3,0.6c0.9,0.4,2,1,3.2,1.5c0.6,0.2,1.2,0.5,1.9,0.8
				c0.7,0.3,1.4,0.5,2.1,0.7c1.4,0.5,3,0.9,4.7,1.4c3.4,0.8,7.1,1.4,11.1,1.5s7.8-0.1,11.2-0.6c1.7-0.3,3.3-0.6,4.8-1
				c0.7-0.2,1.5-0.3,2.1-0.6c0.7-0.2,1.3-0.4,1.9-0.6c1.3-0.4,2.3-0.8,3.3-1.2c0.5-0.2,0.9-0.4,1.3-0.5c0.4-0.2,0.8-0.4,1.1-0.5
				c0.6-0.3,1.1-0.5,1.5-0.7C329.9,190.3,330.1,190.2,330.1,190.2z"/>
		</g>
	</g>
	<g>
		<g>
			<path class="st14" d="M348,173.4c0,0.1-1.2-0.3-3-0.2c-1.9,0-4.5,0.7-7,2.1c-2.5,1.4-4.4,3.2-5.8,4.5s-2.3,2.1-2.3,2.1
				s0.7-0.9,2.1-2.3c1.3-1.4,3.3-3.2,5.8-4.7c2.6-1.5,5.3-2.1,7.2-2c1,0,1.7,0.2,2.3,0.3C347.7,173.3,348,173.4,348,173.4z"/>
		</g>
	</g>
	<g>
		<g>
			<path class="st14" d="M331.4,211.3c0,0-0.2,0.1-0.5,0.3c-0.4,0.2-0.9,0.4-1.6,0.7s-1.5,0.7-2.5,1c-1,0.4-2.1,0.8-3.4,1.2
				c-0.6,0.2-1.3,0.4-2,0.6c-0.7,0.2-1.5,0.4-2.2,0.6c-1.5,0.4-3.2,0.7-4.9,1c-3.5,0.6-7.4,1-11.5,1s-8-0.3-11.5-0.8
				c-1.8-0.3-3.4-0.6-5-1c-0.8-0.2-1.5-0.3-2.2-0.5s-1.4-0.4-2-0.6c-1.3-0.3-2.4-0.8-3.4-1.1s-1.9-0.7-2.6-1
				c-0.6-0.3-1.2-0.5-1.6-0.7s-0.5-0.3-0.5-0.3s0.2,0,0.6,0.2s1,0.3,1.6,0.6c0.7,0.3,1.6,0.6,2.6,0.9c1,0.3,2.2,0.7,3.5,1
				c0.6,0.2,1.3,0.4,2,0.5c0.7,0.2,1.5,0.3,2.2,0.5c1.5,0.4,3.2,0.6,4.9,0.9c3.5,0.5,7.4,0.8,11.5,0.8c4.1-0.1,7.9-0.4,11.4-1
				c1.7-0.3,3.4-0.6,4.9-1c0.8-0.2,1.5-0.3,2.2-0.5s1.4-0.4,2-0.6c1.3-0.3,2.4-0.8,3.4-1.1s1.9-0.7,2.6-0.9s1.2-0.5,1.6-0.6
				C331.2,211.4,331.4,211.3,331.4,211.3z"/>
		</g>
	</g>
	<g>
		<g>
			<path class="st14" d="M335.2,237.6c0,0-0.2,0-0.6,0c-0.5-0.1-1.1-0.1-1.8-0.2c-1.6-0.2-3.8-0.5-6.6-0.8c-2.8-0.3-6.2-0.6-9.9-0.7
				c-3.7-0.2-7.8-0.2-12.1-0.2c-4.3,0.1-8.4,0.4-12.1,0.7c-3.7,0.4-7,0.8-9.8,1.2s-5,0.8-6.6,1.1c-0.7,0.1-1.3,0.2-1.8,0.3
				c-0.4,0.1-0.6,0.1-0.6,0.1s0.2-0.1,0.6-0.2c0.5-0.1,1-0.2,1.8-0.4c1.5-0.3,3.8-0.8,6.6-1.2c2.8-0.5,6.1-0.9,9.9-1.3
				c3.7-0.4,7.8-0.6,12.1-0.7c4.3-0.1,8.4,0,12.2,0.2c3.7,0.2,7.1,0.5,9.9,0.9c2.8,0.3,5.1,0.7,6.6,0.9c0.7,0.1,1.3,0.2,1.8,0.3
				C335,237.5,335.2,237.5,335.2,237.6z"/>
		</g>
	</g>
</g>
<path class="st15" d="M356.9,212.6l1-9.2c0,0-6.1-10.5-3.3-25l-2.4-2.2l-13.5,16.2L356.9,212.6"/>
<g>
	<path class="st7" d="M105.4,100.8c-8.7-0.2-17,6.6-18.5,15.1c-0.8,4.4,0.1,9.3-2,13.3c-2.7,5.3-9.8,7.8-11.4,13.5
		c-1.3,4.8,1.8,10,0.5,14.8c-1,3.5-4.1,5.9-5.6,9.2c-1.5,3.2-1.2,7.1,0.7,10c1.9,2.9,5.6,4.6,9,4.1c2.2-0.3,4.2-1.4,6.3-2.1
		c4.6-1.5,9.5-0.9,14.2-0.3c4.7,0.7,9.6,1.4,14.3,0.3c4.7-1.1,9.1-4.6,9.8-9.3c0.5-3.1-0.7-6.1-1.7-9.1c-6.2-19.5-3.3-40.9-7.8-60.9
		"/>
</g>
<g>
	<path class="st7" d="M88.1,118.8c-1.2-1.5-2.6-3-4.2-4.1s-3.6-1.8-5.5-1.4c-1.9,0.3-3.7,1.8-4.1,3.7c-0.4,1.9,1.1,4.1,3,4.2
		c-1.5-0.8-3.5,0.5-3.8,2.1c-0.3,1.7,0.8,3.3,2.4,4c1.5,0.7,3.3,0.5,4.9-0.1s2.9-1.6,4.3-2.7c1.5-1.1,3-2.3,4.5-3.4"/>
</g>
<g>
	<g>
		<path class="st10" d="M72.4,175.7c0,0-0.3-0.1-0.8-0.4c-0.5-0.3-1.1-0.9-1.5-1.9s-0.6-2.4-0.1-3.9s1.5-2.9,2.8-4.3
			c1.3-1.4,2.9-2.8,4-4.7c1.2-1.9,1.3-4.4,0.8-6.8c-0.5-2.4-1.4-5-1.4-7.8c0-1.4,0.4-2.9,1.2-4.1c0.8-1.2,2-2.2,3.2-3
			c2.5-1.6,5.3-2.5,7.5-4c1.1-0.8,2.1-1.7,2.7-2.8c0.7-1.1,1-2.3,1.3-3.5c0.4-2.5,0.3-4.9,0.5-7.1c0.1-2.2,0.5-4.3,1.1-6.2
			c1.1-3.7,3.4-6.1,5.2-7.3c0.9-0.6,1.7-0.9,2.2-1.1c0.3-0.1,0.5-0.1,0.6-0.2c0.1,0,0.2,0,0.2,0c0,0.1-1.2,0.3-2.9,1.5
			c-1.7,1.2-3.9,3.6-4.9,7.2c-0.6,1.8-0.9,3.9-1,6.1s0,4.6-0.4,7.2c-0.2,1.3-0.6,2.5-1.3,3.7c-0.7,1.2-1.7,2.2-2.9,3
			c-2.3,1.6-5.1,2.5-7.5,4c-1.2,0.8-2.3,1.7-3.1,2.8c-0.8,1.1-1.1,2.5-1.1,3.8c0,2.7,0.9,5.2,1.4,7.7c0.2,1.2,0.4,2.5,0.3,3.7
			s-0.5,2.4-1.1,3.4c-1.2,2-2.8,3.4-4.1,4.8c-1.3,1.4-2.3,2.8-2.8,4.2s-0.3,2.8,0,3.7c0.4,1,0.9,1.6,1.4,1.9
			C72.1,175.5,72.4,175.6,72.4,175.7z"/>
	</g>
</g>
<g>
	<g>
		<path class="st10" d="M86.4,125c-0.1-0.1,0.8-1.7,0.9-3.9c0.1-2.2-0.7-3.9-0.5-3.9c0.1-0.1,1.2,1.6,1.1,4
			C87.7,123.6,86.5,125.1,86.4,125z"/>
	</g>
</g>
<g>
	<g>
		<path class="st10" d="M91.6,157.5c0,0-0.1-0.1-0.4-0.4c-0.2-0.3-0.5-0.7-0.8-1.3c-0.5-1.2-0.7-3.3,0.1-5.6
			c0.7-2.3,2.5-4.6,4.2-7.1c0.9-1.3,1.7-2.7,2.3-4.2c0.6-1.6,0.8-3.3,0.8-5.1c0.1-3.6-0.6-6.9-0.8-10.1c-0.2-3.1,0-6,1-8.2
			c0.9-2.2,2.2-3.7,3.3-4.5c0.5-0.4,1-0.6,1.3-0.8c0.3-0.1,0.5-0.2,0.5-0.2c0,0.1-0.7,0.3-1.7,1.1c-1,0.8-2.3,2.3-3.1,4.5
			c-0.9,2.2-1.1,5-0.8,8.1c0.2,3.1,0.9,6.5,0.9,10.1c0,1.8-0.3,3.6-0.9,5.2c-0.6,1.6-1.5,3.1-2.4,4.3c-1.8,2.5-3.6,4.7-4.3,7
			c-0.8,2.2-0.7,4.2-0.2,5.4C91.1,156.9,91.7,157.4,91.6,157.5z"/>
	</g>
</g>
<g>
	<g>
		<path class="st7" d="M65.2,159.5c0,0,0.1,0.2,0.3,0.5c0.2,0.3,0.5,0.7,1.1,1s1.4,0.6,2.3,0.5s2-0.5,2.8-1.4s1.4-2.1,1.6-3.5
			s0-2.9-0.4-4.5s-1-3.2-1.4-4.9s-0.8-3.6-0.4-5.5s1.4-3.6,2.6-4.9c1.2-1.3,2.6-2.4,3.9-3.4s2.6-1.8,3.8-2.6c1.2-0.8,2.2-1.7,3-2.6
			c1.7-1.7,2.7-3.5,3.1-4.8s0.3-2.1,0.4-2.1c0,0,0.1,0.8-0.2,2.1c-0.3,1.4-1.3,3.2-3,5c-0.9,0.9-1.9,1.8-3.1,2.6
			c-1.2,0.9-2.5,1.7-3.8,2.7s-2.6,2-3.8,3.3c-1.1,1.3-2.1,2.9-2.4,4.7c-0.4,1.8,0,3.6,0.4,5.3s1,3.3,1.4,4.9
			c0.4,1.6,0.6,3.2,0.3,4.7c-0.2,1.5-0.8,2.8-1.7,3.7c-0.9,0.9-2,1.4-3,1.4s-1.9-0.2-2.5-0.6c-0.6-0.4-1-0.8-1.1-1.1
			C65.3,159.8,65.3,159.7,65.2,159.5C65.2,159.6,65.2,159.5,65.2,159.5z"/>
	</g>
</g>
<path class="st7" d="M128.5,110.4c0.8,5.2,2.2,10.3,4.4,13.5c1.8,2.6,5.3,4.1,5.8,7.1c0.4,2.6-1.1,5.2-0.9,7.8
	c0.4,4.1,5,6.7,6.3,10.6c1.1,3.3-0.4,7-2.9,9.4s-5.9,3.7-9.2,4.6c-4.8,1.3-10.6,1.7-14-1.9c-2.3-2.4-2.9-6.1-3.2-9.4
	c-0.8-9-0.8-18.1-0.7-27.2"/>
<g>
	<path class="st17" d="M97.3,119.1c-1.1-8.7,5.2-16.6,14-17.4c8.3-0.8,15.6,5.4,16.9,13.6c1.1,7.2,2,14.5,2,17.1
		c-0.1,8-4.8,11.1-6.7,12c-0.4,0.2-1.6,0.5-2.1,0.5l0,0c0,0,0,0,0,0.1l1.8,9.2c0.8,6-2.5,11.3-8.5,12.2s-10.7-3.7-11.6-9.7
		L97.3,119.1z"/>
</g>
<g>
	<g>
		<g>
			<g>
				<path class="st15" d="M121.4,144.9c0,0-5.1,1.2-12.2-1.8c0,0,3.1,6.6,12.7,4.2L121.4,144.9z"/>
			</g>
		</g>
	</g>
</g>
<path class="st17" d="M98.2,156.9l30.3-5.9l-0.9,16.9c0,0-13.5,4.2-14,4.4c-0.5,0.3-9.3,0-9.3,0L98.2,156.9z"/>
<g>
	<path class="st17" d="M64.6,271.7c-0.2,0.8-0.5,1.7-0.7,2.8c-0.2,0.9-0.2,1.9-0.1,2.8c0.1,1.1,0.4,2.7,0.8,3.4c0.5,1-0.5,2-1.3,1.6
		c-0.9-0.5-2.3-3.1-2.4-6.6c-0.1-3.5-3.5,0.9-4.7,2.5s-5.3,6.3-6.1,6.3c-1.2,0-1.4-1.2-0.1-2.8c1.3-1.6,4.8-6.5,3.9-7.1
		c-0.9-0.6-7.1,7.5-7.1,7.5s-1,2-2.1,1.3c-1.9-1.2,5.4-9.4,6.1-10.2c0.5-0.5-0.4-1.2-0.9-0.6s-6,8.3-7.9,7c-1.5-0.9,5.9-6.8,6.2-9
		s-5.1,5-6.5,4c-0.5-0.4-0.8-0.7,2.9-4.4c1.8-1.8,8.7-7.2,8.7-7.2l14-48.9h18.4L64.6,271.7z"/>
</g>
<path class="st17" d="M153.8,143.9c0,0,26.2-10.4,30.3-13.6c4.2-3.2,30.2-26.7,30.2-26.7l3.5-2.9c0.4-0.7,0.9-1.5,1.4-2.5
	c0.5-0.8,0.7-1.8,0.9-2.7c0.2-1.1,0.3-2.7,0.2-3.5c-0.2-1.1,1-1.8,1.7-1.2c0.7,0.7,1.4,3.6,0.5,7c-0.8,3.4,3.6,0.1,5.2-1.1
	c1.6-1.2,6.8-4.6,7.6-4.4c1.1,0.3,1,1.6-0.7,2.7c-1.7,1.2-6.4,4.9-5.7,5.7c0.7,0.8,8.9-5.3,8.9-5.3s1.5-1.6,2.3-0.7
	c1.4,1.7-7.8,7.6-8.7,8.1c-0.6,0.4,0.1,1.3,0.7,0.9c0.7-0.4,8.1-6.3,9.5-4.6c1.1,1.3-7.5,4.9-8.4,7s6.3-3.4,7.3-2.1
	c0.4,0.5,0.6,0.9-4,3.4c-2.2,1.2-10.3,4.6-10.3,4.6l-0.9,0.9L190.8,149l-31.9,12.8L153.8,143.9z"/>
<g>
	<path class="st10" d="M56,418.2l-5.1,23.2l-9.3,17.1c-0.7,1.2-0.2,2.8,1.1,3.4l0,0c0.7,0.3,1.5,0.3,2.2-0.1
		c4.3-2.5,20.3-11.8,20.5-13.5c0.3-2,7-24.1,7-24.1L56,418.2z"/>
</g>
<g class="st11">
	<path class="st2" d="M42.7,461.9l23.1-15.2l-0.2,1c-0.2,0.8-0.7,1.6-1.4,2.1c-1.9,1.4-7.2,5-19.2,12
		C44.3,462.2,43.4,462.2,42.7,461.9L42.7,461.9z"/>
</g>
<g class="st11">
	<g>
		<path class="st2" d="M62.9,438.1c-0.7,0.3-1.1,1.1-0.8,1.8c0.2,0.7,1.1,1.1,1.7,0.9c0.7-0.2,1.2-1.2,0.9-1.9
			C64.4,438.2,63.4,437.8,62.9,438.1"/>
	</g>
</g>
<g>
	<g>
		<path class="st7" d="M50.4,453.1c-0.1,0-0.4-1.3-1.6-2.3c-1.2-1-2.5-1-2.5-1.2c0-0.1,0.3-0.2,0.9-0.1c0.6,0.1,1.3,0.3,2,0.9
			s1.1,1.3,1.2,1.8C50.5,452.8,50.5,453.1,50.4,453.1z"/>
	</g>
</g>
<g>
	<g>
		<path class="st7" d="M48,455.8c-0.1,0.1-0.7-0.9-1.8-1.5c-1.1-0.7-2.2-0.7-2.2-0.8c0-0.1,1.2-0.4,2.4,0.4
			C47.7,454.6,48.2,455.8,48,455.8z"/>
	</g>
</g>
<g>
	<g>
		<path class="st7" d="M54.4,449.9c-0.1,0.1-1-1.4-2.6-2.5c-1.6-1.2-3.3-1.5-3.2-1.6c0-0.1,1.8,0,3.5,1.2
			C53.9,448.2,54.6,449.9,54.4,449.9z"/>
	</g>
</g>
<g>
	<g>
		<path class="st7" d="M56.6,443c-0.1,0.1-1.2-0.7-2.9-1.2c-1.6-0.5-3.1-0.4-3.1-0.5s1.5-0.5,3.2,0C55.6,441.8,56.7,442.9,56.6,443z
			"/>
	</g>
</g>
<g>
	<g>
		<path class="st7" d="M58.3,436.2c-0.1,0.1-1.2-1-3-1.3c-1.8-0.4-3.2,0.2-3.2,0c0-0.1,0.3-0.3,0.9-0.5c0.6-0.2,1.5-0.3,2.4-0.1
			c0.9,0.2,1.7,0.6,2.2,1C58.1,435.9,58.3,436.2,58.3,436.2z"/>
	</g>
</g>
<g>
	<g>
		<path class="st7" d="M55.7,433.6c0,0,0-0.3,0.2-0.9c0.2-0.5,0.6-1.3,1.3-2.1c0.4-0.4,0.7-0.9,1.5-1c0.4-0.1,0.8,0.1,1,0.5
			s0.2,0.8,0.1,1.1c-0.4,1.5-2,2.6-3.7,2.4s-3-1.5-3.3-3c-0.1-0.4-0.1-0.8,0.2-1.1c0.3-0.3,0.8-0.4,1.1-0.3c0.7,0.3,1,0.8,1.3,1.2
			c0.6,0.8,1,1.6,1.1,2.2c0.2,0.6,0.2,0.9,0.2,0.9c-0.1,0-0.3-1.3-1.6-2.8c-0.3-0.4-0.7-0.8-1.2-1c-0.2-0.1-0.5,0-0.6,0.1
			c-0.1,0.2-0.2,0.5-0.1,0.8c0.3,1.2,1.5,2.4,2.9,2.5c1.4,0.2,2.8-0.8,3.2-2c0.1-0.3,0.1-0.6,0-0.8c-0.1-0.2-0.3-0.3-0.6-0.3
			c-0.5,0.1-0.9,0.5-1.3,0.8C56,432.4,55.8,433.7,55.7,433.6z"/>
	</g>
</g>
<g>
	<g>
		<path class="st10" d="M128.2,426.7l-0.7,18.5c0,0,18.6,6.9,18.8,10.4l-36-0.1l-0.1-28.9L128.2,426.7z"/>
	</g>
	<g class="st11">
		<g>
			<path class="st2" d="M116.4,443.7c-0.7,0.2-1.2,1-1,1.7s1,1.2,1.7,1s1.3-1.1,1.1-1.8C118,443.9,117,443.4,116.4,443.7"/>
		</g>
	</g>
	<g class="st11">
		<path class="st2" d="M110.3,455.6l0.1-2.9l34.5,1.2c0,0,1.6,0.7,1.4,1.8L110.3,455.6z"/>
	</g>
	<g>
		<g>
			<path class="st7" d="M128.1,445.1c0,0.2-0.9,0.3-1.8,0.8s-1.3,1.3-1.5,1.2c-0.2,0,0.1-1.1,1.2-1.7
				C127.1,444.7,128.1,444.9,128.1,445.1z"/>
		</g>
	</g>
	<g>
		<g>
			<path class="st7" d="M131.9,446.7c0,0.2-0.7,0.5-1.3,1.2s-0.8,1.5-0.9,1.5c-0.2,0-0.3-1,0.5-1.9
				C130.8,446.6,131.9,446.5,131.9,446.7z"/>
		</g>
	</g>
	<g>
		<g>
			<path class="st7" d="M134,451.2c-0.2,0-0.4-0.8,0.1-1.8c0.4-1,1.3-1.3,1.4-1.2c0.1,0.1-0.4,0.7-0.8,1.5
				C134.2,450.4,134.2,451.2,134,451.2z"/>
		</g>
	</g>
	<g>
		<g>
			<path class="st7" d="M127.8,440.9c-0.1,0.2-0.9-0.1-1.9,0c-1,0-1.8,0.4-1.9,0.2c-0.1-0.1,0.7-0.8,1.8-0.8
				C127,440.2,127.9,440.7,127.8,440.9z"/>
		</g>
	</g>
</g>
<g class="st12">
	<polygon points="128.1,430.4 127.9,433.7 110.2,433.5 110.2,430.5 	"/>
</g>
<g>
	<g>
		<path class="st7" d="M127.8,437.1c0,0.1-0.7,0.2-1.8,0c-0.6-0.1-1.2-0.3-1.9-0.6c-0.3-0.2-0.7-0.3-1-0.6c-0.2-0.1-0.4-0.2-0.5-0.4
			c-0.2-0.2-0.3-0.7-0.1-0.9c0.2-0.3,0.5-0.4,0.8-0.4s0.5,0,0.7,0.1c0.4,0.1,0.8,0.2,1.1,0.4c0.7,0.3,1.2,0.7,1.7,1.1
			c0.8,0.8,1.1,1.4,1.1,1.5c-0.1,0.1-0.5-0.5-1.3-1.1c-0.4-0.3-1-0.6-1.6-0.9c-0.3-0.1-0.7-0.2-1-0.3c-0.4-0.1-0.7-0.1-0.8,0.1
			c0,0.1,0,0.1,0,0.2c0.1,0.1,0.2,0.2,0.4,0.3c0.3,0.2,0.6,0.4,1,0.5c0.6,0.3,1.2,0.5,1.7,0.7C127.2,437,127.8,437,127.8,437.1z"/>
	</g>
</g>
<g>
	<g>
		<path class="st7" d="M127.6,437.4c-0.1,0-0.4-0.6-0.5-1.7c0-0.6,0-1.2,0.2-2c0.1-0.4,0.3-0.7,0.5-1.1s0.5-0.8,1.2-0.9
			c0.4,0,0.7,0.3,0.8,0.5s0.1,0.5,0.2,0.7c0.1,0.4,0.1,0.8,0,1.2c-0.1,0.8-0.4,1.4-0.8,1.9c-0.7,0.9-1.4,1.1-1.5,1.1
			c-0.1-0.1,0.6-0.4,1.1-1.3c0.3-0.4,0.5-1,0.6-1.7c0-0.3,0-0.7,0-1c-0.1-0.4-0.2-0.7-0.3-0.7c-0.2,0-0.5,0.3-0.6,0.6
			c-0.2,0.3-0.3,0.7-0.4,1c-0.2,0.7-0.3,1.3-0.4,1.8C127.5,436.7,127.7,437.3,127.6,437.4z"/>
	</g>
</g>
<g>
	<path class="st7" d="M93.1,223.2c0,0-11.4,18-13,24.9c-1.5,6.2-26.4,140.2-31.5,168c-0.5,2.9,1.2,5.6,4,6.5l22.5,6.8
		c3.2,1,6.5-1,7.2-4.3l27.7-130l-8.1,128.7c-0.2,3.9,2.9,7.1,6.8,7l22.1-0.7c3.4-0.1,6.2-2.8,6.4-6.2c1.9-31,10.5-172,8.8-176.4
		c-1.9-5-7.1-22.3-7.1-22.3L93.1,223.2z"/>
</g>
<g>
	<g>
		<path class="st10" d="M84.1,418.7c0,0-0.5,0-1.4-0.2c-0.9-0.1-2.2-0.4-3.7-0.7c-3.1-0.6-7.4-1.7-12.1-3c-4.7-1.4-8.9-2.8-11.8-4
			c-1.5-0.6-2.7-1.1-3.5-1.4c-0.8-0.4-1.3-0.6-1.3-0.6s0.5,0.1,1.3,0.4c0.9,0.3,2.1,0.7,3.6,1.2c3,1,7.2,2.4,11.9,3.8
			s8.9,2.4,12,3.2c1.5,0.3,2.7,0.6,3.7,0.9C83.6,418.5,84.1,418.7,84.1,418.7z"/>
	</g>
</g>
<g>
	<g>
		<path class="st10" d="M56.1,410.5c-0.1,0.1-1.1-0.9-1.4-2.5c-0.4-1.6,0.1-2.9,0.2-2.8c0.2,0,0,1.3,0.3,2.7
			C55.6,409.4,56.3,410.4,56.1,410.5z"/>
	</g>
</g>
<g>
	<g>
		<path class="st10" d="M58.9,405.7c0.1,0,0.2,1.2-0.3,2.7c-0.4,1.4-1.1,2.4-1.2,2.4c-0.1-0.1,0.3-1.1,0.7-2.5
			C58.6,406.8,58.8,405.7,58.9,405.7z"/>
	</g>
</g>
<g>
	<g>
		<path class="st10" d="M129.6,412.5c0.1,0,0.4,1,0.6,2.3c0.2,1.3,0.3,2.4,0.1,2.4c-0.1,0-0.4-1-0.6-2.3S129.4,412.5,129.6,412.5z"
			/>
	</g>
</g>
<g>
	<g>
		<path class="st10" d="M132.3,411.2c0.1,0,0.2,1.1,0.2,2.5s-0.2,2.5-0.3,2.5s-0.2-1.1-0.2-2.5C132,412.3,132.1,411.2,132.3,411.2z"
			/>
	</g>
</g>
<g>
	<g>
		<path class="st10" d="M119.9,229.4c0,0,0,0.2,0,0.7s0,1.2-0.1,2c-0.1,1.8-0.2,4.3-0.5,7.4c-0.5,6.3-1.3,14.9-2.7,24.4
			c-1.4,9.5-3,18.1-4.3,24.2c-0.6,3.1-1.2,5.6-1.6,7.3c-0.2,0.8-0.3,1.5-0.5,2c-0.1,0.4-0.2,0.7-0.2,0.7s0-0.2,0.1-0.7
			s0.2-1.2,0.4-2c0.3-1.8,0.8-4.3,1.4-7.3c1.2-6.2,2.8-14.7,4.2-24.2c1.4-9.5,2.3-18.1,2.9-24.4c0.3-3.1,0.5-5.6,0.6-7.4
			c0.1-0.8,0.1-1.5,0.2-2C119.8,229.7,119.8,229.4,119.9,229.4z"/>
	</g>
</g>
<g>
	<g>
		<path class="st10" d="M140,229.4c0,0-0.2,0-0.5,0.1c-0.4,0-0.9,0-1.4,0.1c-1.3,0.1-3.1,0.1-5.3,0.1c-4.5,0.1-10.7,0.1-17.6-0.1
			c-6.9-0.2-13.1-0.5-17.5-0.9c-2.2-0.2-4.1-0.3-5.3-0.4c-0.6-0.1-1.1-0.1-1.4-0.2c-0.3,0-0.5-0.1-0.5-0.1s0.2,0,0.5,0
			c0.4,0,0.9,0,1.4,0.1c1.3,0.1,3.1,0.2,5.3,0.3c4.5,0.2,10.7,0.5,17.5,0.7s13.1,0.3,17.5,0.3c2.2,0,4,0,5.3,0c0.6,0,1.1,0,1.4,0
			C139.8,229.4,140,229.4,140,229.4z"/>
	</g>
</g>
<g>
	<g>
		<path class="st10" d="M123.7,229.2c0,0,0,0.6,0,1.7c0,1.2-0.1,2.7-0.2,4.6c-0.2,3.9-0.4,9.3-0.7,15.3c-0.2,3-0.3,5.8-0.5,8.4
			s-0.8,4.9-1.7,6.7c-1,1.7-2.2,2.8-3.2,3.4c-0.5,0.3-0.9,0.4-1.2,0.5c-0.3,0.1-0.4,0.1-0.4,0.1c0-0.1,0.6-0.2,1.5-0.8
			c0.9-0.6,2.1-1.7,3-3.4c0.9-1.7,1.4-4,1.6-6.5c0.2-2.6,0.3-5.4,0.4-8.4c0.3-6,0.6-11.4,0.8-15.3c0.1-1.9,0.2-3.4,0.3-4.6
			C123.6,229.8,123.7,229.2,123.7,229.2z"/>
	</g>
</g>
<g>
	<g>
		<path class="st10" d="M98,240.3c0,0,0,0.4,0,1.2c-0.1,0.7-0.2,1.8-0.6,3.1c-0.7,2.6-2.3,6.1-5.3,8.9s-6.6,4.2-9.2,4.7
			c-1.3,0.3-2.4,0.3-3.1,0.3s-1.2,0-1.2-0.1s1.7,0,4.2-0.6s6-2,8.9-4.7s4.6-6.1,5.3-8.6C97.8,242,97.9,240.3,98,240.3z"/>
	</g>
</g>
<g>
	<g>
		<path class="st10" d="M145.7,259.1c0,0-0.3,0-0.8-0.2s-1.2-0.4-2-0.9c-0.8-0.4-1.8-1-2.7-1.8c-1-0.8-1.9-1.8-2.8-2.9
			c-0.9-1.1-1.6-2.3-2.1-3.5c-0.5-1.1-0.9-2.2-1.1-3.1c-0.2-0.9-0.3-1.7-0.3-2.2s0-0.8,0-0.8c0.1,0,0.2,1.1,0.7,2.9
			c0.2,0.9,0.6,1.9,1.1,3s1.2,2.2,2.1,3.3c0.9,1.1,1.8,2,2.7,2.8c0.9,0.8,1.8,1.4,2.6,1.9C144.6,258.7,145.7,259,145.7,259.1z"/>
	</g>
</g>
<g>
	<g>
		<path class="st10" d="M105.7,243.6c0,0,0,0.2,0,0.4c0,0.3-0.1,0.8-0.2,1.3c-0.2,1.2-0.4,2.9-0.7,5c-0.6,4.4-1.5,10.7-2.8,18.5
			c-2.5,15.6-6.2,37.1-11.1,60.7s-9.9,44.8-13.8,60.1c-2,7.6-3.6,13.8-4.8,18.1c-0.6,2.1-1,3.8-1.4,4.9c-0.2,0.5-0.3,1-0.4,1.3
			s-0.1,0.4-0.1,0.4s0-0.2,0.1-0.4c0.1-0.3,0.2-0.7,0.3-1.3c0.3-1.2,0.7-2.8,1.3-4.9c1.1-4.3,2.7-10.5,4.6-18.1
			c3.8-15.3,8.8-36.5,13.7-60.1c4.9-23.6,8.7-45.1,11.2-60.6c1.3-7.8,2.3-14.1,2.9-18.5c0.3-2.2,0.6-3.8,0.8-5
			c0.1-0.6,0.2-1,0.2-1.3C105.6,243.7,105.7,243.6,105.7,243.6z"/>
	</g>
</g>
<g>
	<g>
		<path class="st10" d="M123.9,418.6c0,0,0-0.1,0-0.4s0.1-0.7,0.1-1.2c0.1-1.1,0.2-2.7,0.4-4.8c0.4-4.2,0.9-10.2,1.6-17.5
			c1.3-14.8,3.4-35.2,4.9-57.9c0.8-11.3,1.3-22.1,1.5-31.9s0.2-18.7,0-26.1s-0.6-13.4-0.9-17.6c-0.1-2.1-0.3-3.7-0.3-4.8
			c0-0.5-0.1-0.9-0.1-1.2s0-0.4,0-0.4s0,0.1,0.1,0.4c0,0.3,0.1,0.7,0.1,1.2c0.1,1.1,0.3,2.7,0.4,4.8c0.4,4.1,0.7,10.1,1,17.6
			c0.2,7.4,0.3,16.3,0.1,26.1c-0.2,9.8-0.7,20.6-1.5,32c-1.6,22.6-3.7,43.1-5.1,57.9c-0.7,7.4-1.3,13.4-1.7,17.5
			c-0.2,2-0.4,3.6-0.5,4.8c-0.1,0.5-0.1,0.9-0.1,1.2C124,418.4,124,418.6,123.9,418.6z"/>
	</g>
</g>
<g>
	<g>
		<path class="st10" d="M137.6,416.2c0,0.1-7.9,1.1-17.7,2.2s-17.7,1.8-17.8,1.7c0-0.1,7.9-1.1,17.7-2.2
			C129.6,416.8,137.6,416.1,137.6,416.2z"/>
	</g>
</g>
<path class="st7" d="M107.9,105.5c-3,3.5-3.8,8.6-2.2,12.9c1.1,2.9,3.3,5.5,3.2,8.6c-0.2,3.8-4.1,6.8-3.9,10.7
	c0.2,4.3,5.8,7,5.8,11.4s-2.7,6.1-7.8,7c-3.3,0.6-5.1-3.5-6.8-6.4c-1.6-2.9-2.2-6.3-2.5-9.6c-0.6-5.5-0.6-11.1-0.3-16.6
	c0.3-4.5,1-9.1,3.3-12.9c2.4-3.9,6.5-6.8,11-7.6"/>
<g>
	<path class="st7" d="M129.8,113.5c-1.6,2.5-6.9,1-10-0.8c-3.3,2.2-8,1.2-10.3-2.1c-1.8,2.3-5.5,1.5-6.8-1.1s-0.6-6.2,1.3-8.4
		c1.8-2.3,4.5-3.4,7.2-3.9c6.3-1.2,13.2,1.3,16.9,7C129.7,106.8,130.8,110.3,129.8,113.5"/>
</g>
<g>
	<g>
		<path class="st10" d="M129.8,113c-0.1,0.1-1-1.6-2.9-3.8c-1.9-2.2-5.1-5-9.5-6.2c-4.3-1.2-8.6-0.4-11.2,0.9
			c-2.7,1.3-3.7,3-3.8,2.9c0,0,0-0.1,0.2-0.3c0.1-0.2,0.3-0.5,0.6-0.8c0.6-0.6,1.5-1.4,2.8-2.2c2.6-1.4,7-2.3,11.5-1
			c2.2,0.6,4.2,1.7,5.8,2.9c1.6,1.2,2.9,2.5,3.8,3.6c1,1.2,1.6,2.2,2.1,2.9C129.6,112.5,129.8,113,129.8,113z"/>
	</g>
</g>
<g>
	<g>
		<path class="st10" d="M114.3,114c-0.1,0-0.3-0.9-0.9-2.2c-0.6-1.3-1.7-3.1-3.6-4.3c-1.9-1.2-4-1.5-5.4-1.3
			c-1.5,0.2-2.2,0.7-2.3,0.6c0,0,0.2-0.2,0.5-0.4c0.4-0.2,0.9-0.5,1.7-0.6c1.5-0.3,3.8-0.1,5.7,1.2c2,1.3,3.1,3.2,3.6,4.6
			C114.3,113,114.3,114,114.3,114z"/>
	</g>
</g>
<g>
	<g>
		<path class="st13" d="M98.2,156.9c0,0-13.5,3.8-18.5,12.2C74.6,177.4,59,236,59,236l17.9,2l14.9-39l3.7,12.2l-2.3,12l45.7,2.1
			l3.2-52.5l48.9-23.7l5.5-5.7l-14.2-15l-5.4,5.1l-49,18c0,0,1.8,14.5-11.4,16.6C103.1,170,98.2,156.9,98.2,156.9z"/>
	</g>
	<g>
		<rect x="124.3" y="176.5" class="st14" width="10.9" height="2.8"/>
	</g>
	<g>
		<g>
			<path class="st7" d="M86.7,181.7c0.1,0,2.2,6.4,4.6,14.3c2.4,8,4.2,14.5,4.1,14.5s-2.2-6.4-4.6-14.4
				C88.4,188.2,86.5,181.7,86.7,181.7z"/>
		</g>
	</g>
	<g>
		<g>
			<path class="st7" d="M150.7,161.3c0.1,0.1-2.9,1.9-5.5,5.4c-2.6,3.4-3.5,6.8-3.7,6.8c-0.1,0,0.1-0.9,0.6-2.2s1.4-3.1,2.7-4.9
				c1.3-1.7,2.8-3.1,3.9-3.9C149.9,161.6,150.7,161.2,150.7,161.3z"/>
		</g>
	</g>
</g>
<g class="st18">
	<g>
		<path d="M87.5,184.4c-1.1,4.9-1.6,10-1.5,15c0,1.2,0,2.5,0.4,3.7s1.1,2.3,2.2,2.9c1.4-1.9,2.7-4,3-6.4c0.1-1.6-0.3-3.3-0.8-4.9
			c-1-3.6-2.1-7.2-3.1-10.9"/>
	</g>
</g>
<path class="st7" d="M99.5,154.1c2.4,1.7,3.2,4.9,3.1,7.9c-0.1,2.9-1,5.8-1.1,8.8c-0.1,2.9,0.6,6.2,3,7.9c3.9-1.3,7.7-2.6,11.6-3.9
	c-2.3-1.3-2.8-4.4-2.3-7s1.7-5,1.8-7.7c0.4-6.9-4.6-12.8-6.9-15.6"/>
<g id="Character_2">
	<g>
		<g>
			<g>
				<g>
					<g>
						<polygon class="st10" points="147.2,430.3 142.7,456.1 165,456.1 167.4,431.7 						"/>
					</g>
				</g>
				<g>
					<g>
						<g>
							<path class="st7" d="M165.4,454c0,0.1-1.2,0.2-3.2,0.2s-4.8,0-7.8-0.1c-2.9-0.1-5.6-0.2-7.8-0.3c-2-0.1-3.2-0.2-3.2-0.3
								c0-0.1,1.2-0.2,3.2-0.2s4.8,0,7.8,0.2c2.9,0.1,5.6,0.2,7.8,0.3C164.2,453.8,165.4,453.9,165.4,454z"/>
						</g>
					</g>
				</g>
				<g class="st11">
					<g>
						<polyline class="st2" points="142.7,456.1 165,456.1 165.2,454 143.1,453.4 142.7,455.8 						"/>
					</g>
				</g>
			</g>
		</g>
		<g>
			<g>
				<path class="st7" d="M153.6,453.9c-0.1,0,0.4-4.4,1.2-9.8s1.6-9.8,1.7-9.7c0.1,0-0.4,4.4-1.2,9.8
					C154.5,449.6,153.7,454,153.6,453.9z"/>
			</g>
		</g>
		<g>
			<g>
				<path class="st7" d="M164.2,453.9c-0.1,0,0.5-1.9-0.4-4.7c-0.5-1.4-1.3-2.9-2.8-4.2c-1.4-1.2-3.5-2-5.7-2s-4.3,0.7-5.8,1.9
					c-1.5,1.2-2.5,2.6-3.1,4c-1.2,2.7-0.9,4.6-1,4.6c0,0,0-0.1-0.1-0.3c0-0.2,0-0.5,0-1c0-0.8,0.2-2.1,0.7-3.5
					c0.6-1.4,1.6-3,3.2-4.2c1.6-1.3,3.8-2,6.1-2s4.5,0.8,6,2.2c1.5,1.3,2.4,3,2.9,4.4c0.4,1.5,0.4,2.7,0.3,3.5
					c-0.1,0.4-0.1,0.7-0.2,0.9C164.2,453.8,164.2,453.9,164.2,453.9z"/>
			</g>
		</g>
	</g>
	<g>
		<g>
			<g>
				<path class="st10" d="M242.9,423.1l5.4,17.7c0,0,19.9,0.5,21.2,3.6l-34,11.7l-9.6-27.3L242.9,423.1z"/>
			</g>
			<g class="st11">
				<g>
					<path class="st2" d="M237.3,443c-0.6,0.4-0.8,1.3-0.4,1.9c0.4,0.6,1.3,0.8,1.9,0.4c0.6-0.4,0.9-1.5,0.4-2
						c-0.4-0.6-1.5-0.8-2-0.2"/>
				</g>
			</g>
			<g class="st11">
				<path class="st2" d="M235.5,456.2l-0.9-2.8l33-10.2c0,0,1.7,0.1,1.9,1.3L235.5,456.2z"/>
			</g>
			<g>
				<g>
					<path class="st7" d="M248.8,440.5c0.1,0.2-0.8,0.5-1.4,1.3c-0.7,0.8-0.8,1.7-1,1.7s-0.3-1.1,0.5-2
						C247.8,440.5,248.8,440.3,248.8,440.5z"/>
				</g>
			</g>
			<g>
				<g>
					<path class="st7" d="M252.9,440.8c0.1,0.1-0.5,0.7-0.9,1.6c-0.3,0.9-0.2,1.7-0.4,1.7c-0.1,0.1-0.6-0.9-0.2-2
						C251.9,441,252.9,440.6,252.9,440.8z"/>
				</g>
			</g>
			<g>
				<g>
					<path class="st7" d="M256.4,444.3c-0.1,0.1-0.7-0.7-0.5-1.7c0.1-1.1,0.8-1.7,0.9-1.6s-0.2,0.8-0.3,1.6
						C256.4,443.5,256.6,444.3,256.4,444.3z"/>
				</g>
			</g>
			<g>
				<g>
					<path class="st7" d="M247.2,436.6c0,0.2-0.9,0.2-1.8,0.6c-0.9,0.4-1.5,0.9-1.7,0.8c-0.1-0.1,0.4-0.9,1.5-1.4
						C246.2,436.2,247.2,436.4,247.2,436.6z"/>
				</g>
			</g>
		</g>
		<g class="st12">
			<polygon points="244,426.6 245,429.8 228.2,435.4 227.2,432.6 			"/>
		</g>
		<g>
			<g>
				<path class="st7" d="M246,433c0,0.1-0.6,0.4-1.7,0.6c-0.6,0.1-1.2,0.1-2,0.1c-0.4,0-0.8-0.1-1.2-0.2c-0.2,0-0.4-0.1-0.7-0.2
					c-0.2-0.1-0.5-0.5-0.4-0.9c0.1-0.3,0.4-0.5,0.6-0.6c0.2-0.1,0.5-0.1,0.7-0.1c0.4,0,0.8,0,1.2,0c0.8,0.1,1.4,0.3,1.9,0.5
					c1,0.5,1.5,1,1.5,1c-0.1,0.1-0.6-0.3-1.6-0.6c-0.5-0.2-1.1-0.3-1.8-0.3c-0.3,0-0.7,0-1.1,0c-0.4,0-0.7,0.1-0.7,0.3
					c0,0.1,0,0.1,0.1,0.2s0.3,0.1,0.5,0.2c0.4,0.1,0.7,0.2,1.1,0.2c0.7,0.1,1.3,0.1,1.9,0.1C245.3,433.1,246,433,246,433z"/>
			</g>
		</g>
		<g>
			<g>
				<path class="st7" d="M245.9,433.4c-0.1,0-0.6-0.4-1-1.5c-0.2-0.5-0.4-1.2-0.4-1.9c0-0.4,0-0.8,0.1-1.2c0.1-0.4,0.2-0.9,0.8-1.2
					c0.3-0.1,0.7,0,0.9,0.2s0.3,0.4,0.4,0.6c0.2,0.4,0.3,0.8,0.4,1.1c0.1,0.8,0.1,1.5-0.1,2c-0.4,1.1-1,1.5-1,1.5
					c-0.1-0.1,0.4-0.6,0.6-1.6c0.1-0.5,0.1-1.1,0-1.8c-0.1-0.3-0.2-0.7-0.4-1s-0.4-0.6-0.5-0.5c-0.2,0.1-0.4,0.4-0.4,0.8
					c-0.1,0.4-0.1,0.7-0.1,1.1c0,0.7,0.1,1.3,0.3,1.8C245.6,432.7,246,433.3,245.9,433.4z"/>
			</g>
		</g>
	</g>
	<g>
		<path class="st19" d="M143.1,198.8l-6.4,13.2c-2.9,6-1.9,13.1,2.6,18l0,0c3.5,3.8,8.6,5.7,13.7,5.1l24.9-2.8v-14.8l-24.5,0.7
			l6.1-10.8L143.1,198.8z"/>
	</g>
	<g>
		<g>
			<g>
				<g>
					<path class="st7" d="M174.7,151.9c-4.1-6.9-5.3-16.2-6.3-24.2c-0.5-3.8-1.3-9.1,1.3-11.5c2.8-2.5,3.1-6.4,6.4-8.4
						c3.3-1.9,7.7-2.1,10.8,0.1"/>
				</g>
				<g>
					<g>
						<g>
							<g>
								<g>
									<g>
										<g>
											<g>
												<path class="st19" d="M186.1,176.5L186.1,176.5c6.3,0.5,11.8-4.3,12-10.6c0.3-6.1,0.5-12.2,0.5-12.2s9.2-0.8,9.9-9.9
													c0.7-9.1,0.5-30.1,0.5-30.1l0,0c-10.2-5.2-22.5-4.4-32,2l0.5,32l-0.1,17.2C177.3,170.6,180.3,176,186.1,176.5z"/>
											</g>
										</g>
									</g>
								</g>
							</g>
						</g>
						<g>
							<path class="st7" d="M199.4,132.6c-1.6-1.9-4.1-2.7-6.2-1.4c-2.1,1.4-2.9,4.4-1.8,6.6c0.8,1.6,2.6,3,4.5,3.4
								c1.7,0.4,2.9,2,2.7,3.8c-0.3,2.3-4.1,3.1-5.8,5c-2.7,2.9-8.5,4.2-12.5,4.6c-3.9,0.4-3.4,0.5-5.7-2.7
								c-1.6-2.3-2.1-4.6-2.2-7.4c-0.1-6.7-0.2-13.4-0.4-20.1c0-2.4-0.1-4.9,0.5-7.2c0.6-2.4,1.8-4.6,3.8-6c2.2-1.4,5-1.6,7.5-2.4
								c3.2-1,5.8-3.1,8.8-4.6s6.6-2.4,9.5-0.9c2.1,1.1,3.5,3.2,5.6,4.4c2.9,1.7,6.9,1.3,8.4,5.6c0.5,1.5,0.4,3.1-0.1,4.6
								c-2,5.9-9.3,8.2-14.5,5.7c-0.1,1,0.9,3.2-0.2,6.4C201.1,131,201,132.6,199.4,132.6"/>
						</g>
					</g>
					<g>
						<g>
							<path class="st9" d="M197.8,138.3c0,0,0,0.2-0.1,0.4c-0.2,0.2-0.5,0.5-1,0.5c-1,0.1-2.3-1-2.4-2.5c0-0.7,0.2-1.5,0.7-1.9
								c0.4-0.5,1-0.7,1.4-0.8c0.9-0.2,1.5,0.2,1.4,0.2c0,0.1-0.6,0-1.3,0.2s-1.7,1.1-1.6,2.3c0,1.2,1,2.1,1.7,2.1
								C197.4,138.8,197.7,138.2,197.8,138.3z"/>
						</g>
					</g>
				</g>
			</g>
		</g>
		<g>
			<path class="st7" d="M175.4,117.4c4.9-2.1,7.6-8.4,5.7-13.5c-1.9-5-8-8.1-13.1-6.5s-8.5,7.5-7.2,12.7c0.2,0.6,0.4,1.3,0,1.9
				c-0.4,0.7-1.3,0.8-2,1c-2.6,1-2.9,4.9-1,6.9s5,2.3,7.7,1.6c-0.7,2.3,1.4,4.8,3.9,5.1c2.4,0.3,4.8-1.2,6.1-3.2s1.8-4.5,2.1-6.9"/>
		</g>
		<g>
			<g>
				<path class="st1" d="M181.6,106.4c0,0,0.1,0.3,0,0.9c0,0.6-0.1,1.5-0.4,2.5c-0.5,2.1-1.7,4.9-4,7.3c-2.3,2.3-5.2,3.6-7.3,4.1
					c-1,0.2-1.9,0.3-2.5,0.4c-0.6,0-0.9,0-0.9,0c0-0.1,1.3-0.1,3.3-0.7s4.7-1.8,7-4.1c2.3-2.3,3.5-5,4.1-7
					C181.5,107.7,181.5,106.3,181.6,106.4z"/>
			</g>
		</g>
		<g>
			<g>
				<path class="st10" d="M171.5,97.9c0,0,0.1-0.1,0.3-0.1s0.5-0.1,0.8-0.1c0.7,0,1.8,0.3,2.9,1.1c0.5,0.4,1,0.9,1.4,1.6
					s0.7,1.4,0.9,2.3c0.4,1.7,0.2,3.6-0.2,5.6c-0.8,3.9-2.7,7-4.3,9c-0.8,1-1.5,1.8-2.1,2.2c-0.5,0.5-0.8,0.7-0.9,0.7
					c-0.1-0.1,1.1-1.1,2.6-3.2c1.5-2,3.2-5.2,4.1-8.9c0.4-1.9,0.6-3.7,0.3-5.3c-0.2-0.8-0.4-1.5-0.8-2.2c-0.4-0.6-0.8-1.1-1.3-1.5
					c-1-0.8-2-1.1-2.6-1.2C171.9,97.9,171.5,98,171.5,97.9z"/>
			</g>
		</g>
		<g>
			<g>
				<path class="st10" d="M160.4,112.4c0,0,0.1-0.3,0.3-0.7c0.2-0.4,0.7-1,1.3-1.6c1.2-1.2,3.3-2.7,5.9-3.1c2.7-0.4,5.1,0.3,6.6,1.1
					c0.8,0.4,1.3,0.8,1.7,1.1c0.4,0.3,0.5,0.5,0.5,0.5c-0.1,0.1-0.9-0.6-2.4-1.3c-1.5-0.7-3.9-1.3-6.4-0.9s-4.6,1.7-5.8,2.8
					C161,111.6,160.5,112.5,160.4,112.4z"/>
			</g>
		</g>
		<g>
			<g>
				<path class="st10" d="M178.3,116c0.1-0.1,1.2,0.9,3.2,2.2c2,1.3,4.8,3,8.1,4.5c1.7,0.7,3.3,1.3,4.8,1.8s2.9,0.9,4,0.9
					c1.2,0,2.1-0.3,2.6-0.7c0.6-0.3,0.8-0.7,0.8-0.6c0,0-0.1,0.4-0.7,0.8c-0.5,0.4-1.5,0.8-2.7,0.9c-1.2,0-2.7-0.3-4.2-0.8
					s-3.2-1-4.9-1.8c-3.4-1.5-6.2-3.2-8.2-4.6c-1-0.7-1.7-1.3-2.2-1.8C178.6,116.3,178.3,116,178.3,116z"/>
			</g>
		</g>
		<g>
			<g>
				<path class="st7" d="M175.6,104.5c0,0-0.1-0.4-0.1-1.3c0-0.8,0.1-2,0.6-3.4s1.6-3,3.4-3.8c0.9-0.4,2-0.7,3.1-0.6s2.2,0.7,3,1.5
					s1.4,1.8,1.7,2.9c0.3,1,0.3,2.1,0.2,3.1c-0.2,2-1,3.6-1.7,4.9c-0.8,1.3-1.5,2.2-2,2.8c-0.5,0.6-0.8,1-0.8,1s0.2-0.4,0.7-1.1
					s1.1-1.6,1.8-2.9s1.4-2.8,1.6-4.7c0.1-0.9,0-1.9-0.2-2.9c-0.3-1-0.8-1.9-1.6-2.6s-1.7-1.2-2.7-1.4c-1-0.1-2,0.1-2.8,0.5
					c-1.7,0.8-2.8,2.2-3.3,3.5c-0.6,1.3-0.7,2.5-0.8,3.3C175.6,104,175.6,104.5,175.6,104.5z"/>
			</g>
		</g>
	</g>
	<g>
		<path class="st19" d="M279.4,83.5c-1.5-0.7-5.7,7.2-5.8,4.9c-0.1-2.2,6.3-9.1,4.8-9.8c-2.1-0.9-6.4,7.5-6.8,8.1
			c-0.4,0.7-1.4,0.1-1-0.5c0.6-0.9,6.6-10,4.5-10.9c-1.1-0.5-1.9,1.6-1.9,1.6s-4.9,9-5.9,8.5c-0.9-0.5,1.8-5.8,2.8-7.6
			c1-1.7,0.6-2.9-0.5-2.7c-0.8,0.1-4.1,5.4-5.1,7.1s-3.6,6.6-4.3,3.1c-0.6-3.5-2.4-5.9-3.4-6.2c-0.9-0.3-1.7,0.9-1.1,1.8
			c0.5,0.7,1,2.2,1.3,3.3c0.3,0.9,0.4,1.9,0.3,2.8c-0.1,1.1-0.2,2-0.3,2.8l-2,4.1c0,0-14.1,32.2-16.5,36.8c-2.5,4.6-22,24.9-22,24.9
			l4.1,23.7l31.7-34.3l16.8-47.2l0.4-1.2c0,0,6-6.4,7.5-8.4C280.3,84,279.9,83.7,279.4,83.5z"/>
	</g>
	<g>
		<g>
			<g>
				<path class="st10" d="M162.1,242.6c0,0-10,22.6-12.1,45l-10.6,143.7l35.3,3.7L185,286.1c0,0,32.4,150.3,33.6,150.3
					c1.3,0,28.4-10.1,28.4-10.1l-31.9-182.9L162.1,242.6z"/>
			</g>
			<g>
				<g>
					<path class="st7" d="M200,289.7c0,0.2-7.2-1.4-16-3.6c-8.8-2.1-15.9-4-15.8-4.2c0-0.2,7.2,1.4,16,3.6S200,289.6,200,289.7z"/>
				</g>
			</g>
		</g>
		<g>
			<g>
				<path class="st14" d="M176.7,403.9c0,0-0.1,0-0.4,0.1c-0.2,0-0.6,0.1-1.1,0.1c-0.9,0.1-2.3,0-3.9-0.2c-1.7-0.2-3.6-0.7-5.7-1.4
					c-2.1-0.7-4.4-1.5-6.8-2.3c-2.4-0.8-4.7-1.4-6.9-1.7c-2.2-0.3-4.1-0.3-5.8,0c-3.3,0.5-5,1.7-5.1,1.6c0,0,0.1-0.1,0.3-0.2
					s0.5-0.3,0.9-0.5c0.8-0.4,2.1-0.9,3.8-1.2c1.7-0.3,3.7-0.3,5.9-0.1c2.2,0.3,4.6,0.8,7,1.6c2.4,0.8,4.7,1.6,6.8,2.3
					c2.1,0.7,4,1.2,5.6,1.5C174.7,404.1,176.7,403.8,176.7,403.9z"/>
			</g>
		</g>
		<g>
			<g>
				<path class="st14" d="M176.9,391.8c0,0-0.5,0-1.4,0s-2.3,0-3.9,0.1c-3.3,0.2-7.8,1.3-12.7,2.3c-2.5,0.5-4.9,0.8-7.1,0.9
					c-2.2,0.1-4.2-0.1-5.9-0.4c-1.6-0.3-2.9-0.8-3.8-1.2c-0.4-0.2-0.7-0.4-1-0.5c-0.2-0.1-0.3-0.2-0.3-0.2c0-0.1,1.8,1,5.1,1.5
					c3.2,0.6,7.9,0.4,12.8-0.7c4.9-1,9.5-2,12.8-2.2c1.7-0.1,3,0,3.9,0.1C176.4,391.6,176.9,391.8,176.9,391.8z"/>
			</g>
		</g>
		<g>
			<g>
				<path class="st14" d="M239.8,377.8c0,0-0.1,0.1-0.2,0.3c-0.1,0.2-0.4,0.5-0.7,0.8c-0.7,0.7-1.8,1.5-3.4,2
					c-1.6,0.5-3.6,0.8-5.8,0.6c-2.2-0.2-4.6-0.7-7-1.1c-2.5-0.4-4.9-0.5-7-0.2s-4,0.8-5.5,1.5c-3,1.2-4.6,2.6-4.7,2.5
					c0,0,0.1-0.1,0.3-0.3c0.2-0.2,0.5-0.4,0.8-0.6c0.8-0.5,1.9-1.3,3.4-1.9c1.5-0.7,3.4-1.3,5.6-1.6c2.2-0.3,4.6-0.3,7.1,0.2
					c2.5,0.4,4.8,0.9,7,1.1c2.1,0.2,4.1,0,5.7-0.5c1.6-0.5,2.7-1.2,3.4-1.8C239.4,378.1,239.7,377.7,239.8,377.8z"/>
			</g>
		</g>
		<g>
			<g>
				<path class="st14" d="M245.1,404.2c0,0-0.3,0.4-0.9,1.1c-0.6,0.7-1.6,1.6-2.9,2.6c-2.6,2-6.8,4.3-11.8,5.2
					c-5,0.9-9.7,0.3-12.9-0.7c-1.6-0.5-2.8-1-3.7-1.4c-0.8-0.4-1.3-0.7-1.3-0.7s0.5,0.2,1.3,0.5c0.9,0.3,2.1,0.8,3.7,1.2
					c3.2,0.9,7.8,1.4,12.7,0.5s9.1-3,11.7-4.9C243.7,405.7,245,404.1,245.1,404.2z"/>
			</g>
		</g>
		<g>
			<g>
				<path class="st14" d="M236.3,366.7c0,0.1-0.5,0-1.4,0s-2.2,0.2-3.7,0.8c-1.5,0.6-3.1,1.6-4.8,3c-1.7,1.3-3.4,2.9-5.4,4.4
					s-4.3,2.4-6.5,2.7c-2.2,0.3-4.1,0.2-5.7,0c-1.6-0.2-2.9-0.5-3.8-0.7c-0.9-0.2-1.4-0.3-1.4-0.4c0,0,0.5,0,1.4,0.2
					c0.9,0.1,2.2,0.3,3.8,0.5c1.6,0.1,3.5,0.2,5.6-0.1c2.1-0.3,4.3-1.2,6.2-2.6c2-1.4,3.7-3,5.4-4.3s3.4-2.3,4.9-2.9
					s2.9-0.7,3.8-0.7c0.5,0,0.8,0.1,1,0.1C236.2,366.7,236.3,366.7,236.3,366.7z"/>
			</g>
		</g>
		<g>
			<g>
				<path class="st14" d="M179.9,361c0,0-0.1,0.1-0.3,0.2s-0.5,0.3-1,0.5c-0.9,0.4-2.2,0.8-3.9,1s-3.8,0.1-6-0.3s-4.6-1-7.1-1.8
					s-4.9-1.4-7.1-1.8c-2.2-0.4-4.2-0.6-5.9-0.4c-3.4,0.3-5.2,1.5-5.3,1.3c0,0,0.1-0.1,0.3-0.2s0.5-0.3,1-0.5c0.9-0.4,2.2-0.8,3.9-1
					s3.8-0.1,6,0.3s4.6,1.1,7.1,1.8c2.5,0.8,4.9,1.4,7.1,1.8c2.2,0.4,4.2,0.5,5.9,0.4C178,362.1,179.8,360.9,179.9,361z"/>
			</g>
		</g>
		<g>
			<g>
				<path class="st14" d="M231.6,336.4c0,0,0,0.1-0.1,0.4c-0.1,0.2-0.2,0.6-0.4,1c-0.4,0.9-1.2,2.1-2.5,3.2c-1.3,1.2-3,2.3-5.2,3.1
					c-2.1,0.8-4.6,1.3-7.2,1.7c-2.6,0.3-5.1,0.6-7.3,0.9s-4.3,0.6-5.9,1c-1.6,0.5-2.8,1.2-3.5,1.8c-0.7,0.6-1.1,1-1.1,1
					s0.1-0.1,0.2-0.3c0.2-0.2,0.4-0.5,0.8-0.8c0.7-0.7,1.9-1.5,3.5-2c1.7-0.6,3.7-0.8,5.9-1.2c2.2-0.4,4.7-0.6,7.3-0.9
					s5-0.8,7.1-1.6c2.1-0.8,3.8-1.9,5.1-3C230.9,338.5,231.5,336.3,231.6,336.4z"/>
			</g>
		</g>
		<g>
			<g>
				<path class="st14" d="M145.4,333.5c0.1-0.1,1.7,1.4,5,2.3c1.6,0.5,3.7,0.7,5.9,0.5s4.6-1.1,6.9-2.4c2.3-1.2,4.4-2.6,6.6-3.5
					c2.1-0.9,4.2-1.4,5.9-1.5c1.8-0.1,3.2,0.3,4.1,0.7c0.4,0.2,0.8,0.4,1,0.6c0.2,0.1,0.3,0.2,0.3,0.2s-0.5-0.3-1.4-0.6
					c-0.9-0.3-2.3-0.7-4-0.5c-1.7,0.1-3.7,0.6-5.8,1.6c-2.1,0.9-4.2,2.3-6.5,3.6c-2.3,1.3-4.8,2.2-7.1,2.4c-2.3,0.2-4.4-0.1-6.1-0.6
					c-1.7-0.5-2.9-1.2-3.7-1.8c-0.4-0.3-0.7-0.5-0.9-0.7C145.5,333.6,145.4,333.5,145.4,333.5z"/>
			</g>
		</g>
		<g>
			<g>
				<path class="st14" d="M225.9,307.2c0,0-0.2,0.5-0.8,1.3s-1.4,1.9-2.7,3c-2.5,2.3-6.7,4.9-11.9,5.7c-2.6,0.4-5.1,0.2-7.3,0
					s-4.2-0.2-5.9,0.1c-1.7,0.3-2.9,0.8-3.7,1.3s-1.2,0.9-1.2,0.8c0,0,0.1-0.1,0.2-0.3c0.2-0.2,0.5-0.4,0.8-0.7
					c0.8-0.6,2.1-1.2,3.8-1.5c1.7-0.4,3.8-0.3,6-0.2c2.2,0.2,4.7,0.3,7.2-0.1c5.1-0.8,9.2-3.3,11.7-5.5
					C224.7,309,225.9,307.2,225.9,307.2z"/>
			</g>
		</g>
		<g>
			<g>
				<path class="st14" d="M181.3,304.7c0,0.1-1.9-0.8-5.1-0.9c-1.6,0-3.5,0.2-5.5,0.9c-1,0.3-1.9,0.9-3.1,1.4
					c-0.6,0.2-1.1,0.4-1.8,0.5c-0.6,0.1-1.3,0-1.9-0.2c-1.2-0.4-2.2-1.2-3.2-1.8c-1-0.6-2-1.1-3-1.4c-2-0.7-3.9-0.8-5.5-0.7
					c-3.2,0.2-5,1.2-5,1.1c0,0,0.1-0.1,0.3-0.2s0.5-0.3,1-0.4c0.8-0.3,2.1-0.7,3.7-0.9c1.6-0.1,3.6,0,5.7,0.6c1,0.3,2.1,0.8,3.1,1.4
					s2,1.4,3.1,1.8s2.3,0.2,3.3-0.2c1.1-0.4,2-1,3.1-1.3c2-0.7,4-0.9,5.7-0.8c1.6,0.1,2.9,0.4,3.8,0.7c0.4,0.2,0.8,0.3,1,0.4
					C181.2,304.6,181.3,304.7,181.3,304.7z"/>
			</g>
		</g>
		<g>
			<g>
				<path class="st14" d="M225.9,301.1c0,0-0.4,0.4-1.1,1.1c-0.7,0.7-1.8,1.6-3.2,2.7c-0.7,0.5-1.5,1.1-2.4,1.6
					c-0.4,0.3-0.9,0.6-1.4,0.8c-0.5,0.3-1,0.5-1.5,0.8c-2.1,1-4.5,2-7.2,2.6c-2.6,0.6-5.2,0.8-7.6,0.9c-0.6,0-1.2,0-1.7,0
					c-0.6,0-1.1-0.1-1.6-0.1c-1-0.1-2-0.3-2.9-0.4c-1.7-0.3-3.1-0.7-4.1-1c-0.9-0.3-1.5-0.5-1.4-0.5c0-0.1,2.1,0.6,5.6,1.2
					c0.9,0.1,1.8,0.3,2.8,0.4c0.5,0,1,0.1,1.6,0.1c0.5,0,1.1,0,1.7,0c2.3,0,4.9-0.3,7.5-0.9s5-1.5,7.1-2.5c0.5-0.3,1-0.5,1.5-0.8
					s0.9-0.5,1.4-0.8c0.9-0.5,1.7-1.1,2.4-1.6c1.4-1,2.6-1.9,3.3-2.5C225.5,301.4,225.9,301.1,225.9,301.1z"/>
			</g>
		</g>
		<g>
			<g>
				<path class="st14" d="M219.9,272.5c0,0-0.2,0.2-0.7,0.4c-0.5,0.3-1.1,0.6-1.9,1c-1.7,0.9-4.1,2.1-7.2,3.5
					c-3.1,1.3-7,2.7-11.5,3.2c-2.2,0.2-4.6,0.2-7.1-0.1c-2.4-0.4-4.9-1.1-7.3-2c-4.9-1.8-9.3-3.9-13.6-5s-8.4-1.3-11.7-0.9
					c-3.4,0.3-6,1.1-7.8,1.7c-0.9,0.3-1.6,0.6-2,0.8c-0.5,0.2-0.7,0.3-0.7,0.3s0.2-0.1,0.7-0.4c0.4-0.2,1.1-0.5,2-0.9
					c1.8-0.7,4.4-1.5,7.8-1.9c3.4-0.4,7.5-0.3,11.9,0.8c4.4,1.1,8.9,3.2,13.7,5c2.4,0.9,4.8,1.6,7.2,2s4.7,0.4,6.9,0.2
					c4.4-0.5,8.3-1.8,11.4-3.1c3.1-1.3,5.6-2.5,7.3-3.3c0.8-0.4,1.5-0.7,2-0.9C219.6,272.6,219.9,272.5,219.9,272.5z"/>
			</g>
		</g>
		<g>
			<g>
				<path class="st14" d="M217.8,257.6c-0.1,0.1-0.5-0.8-1.9-1.8c-1.4-0.9-3.7-1.8-6.7-1.8c-1.5,0-3.1,0.2-4.7,0.8
					c-1.7,0.6-3.4,1.3-5.2,2.2c-3.6,1.6-7.6,3.6-12.1,4.6c-4.5,1.1-8.9,1.4-12.9,1.3s-7.5-0.8-10.4-1.6c-2.9-0.8-5.2-1.7-6.7-2.4
					c-0.8-0.4-1.3-0.7-1.7-0.9c-0.4-0.2-0.6-0.3-0.6-0.3s0.2,0.1,0.6,0.2c0.5,0.2,1,0.5,1.8,0.8c1.6,0.6,3.8,1.5,6.7,2.2
					s6.4,1.3,10.4,1.5c3.9,0.1,8.3-0.2,12.7-1.3c4.5-1,8.4-2.9,12-4.5c1.8-0.8,3.6-1.6,5.2-2.1c1.7-0.6,3.4-0.8,4.9-0.8
					c3,0,5.4,1,6.8,2c0.7,0.5,1.1,1,1.4,1.4C217.7,257.4,217.8,257.6,217.8,257.6z"/>
			</g>
		</g>
	</g>
	<g>
		<g>
			<g>
				<g>
					<g>
						<path class="st20" d="M237.9,164.8l-14.1-18.5l-0.6,0.5l-22.4,14.1l-23.9,0.8c0,0-16.8,0-23.1,13.2c-0.7,1.5-14.5,29-14.5,29
							l21.3,7.8l3.4-9.8l4.4,22.3l-6.3,18.4l53.4,2.9l-4.4-26.7l4-32L237.9,164.8z"/>
					</g>
				</g>
			</g>
			<g>
				<g>
					<path class="st7" d="M200.8,207.9c0,0,0.1,0.5,0,1.5s-0.4,2.4-1,4.1c-1.3,3.3-4.4,7.5-9.3,10c-4.9,2.5-10,2.9-13.5,2.7
						c-1.8-0.1-3.2-0.3-4.2-0.4c-1-0.2-1.5-0.3-1.5-0.3c0-0.1,2.2,0.3,5.7,0.3s8.4-0.4,13.2-2.8c4.7-2.4,7.9-6.4,9.2-9.6
						C200.7,210.1,200.6,207.8,200.8,207.9z"/>
				</g>
			</g>
			<g>
				<g>
					<path class="st7" d="M168.7,225.2c-0.2,0-2.7-11.5-5.7-25.9c-3-14.3-5.3-26-5.1-26s2.7,11.5,5.7,25.9
						C166.6,213.5,168.8,225.2,168.7,225.2z"/>
				</g>
			</g>
		</g>
		<g class="st18">
			<g>
				<path d="M175.2,226.2c-0.6-2.1,1.1-4.3,3-5.2c2-0.9,4.2-1.1,6.3-1.6c4.1-1,7.8-3.4,10.3-6.9c0.3-0.5,0.7-1,1.3-1s1,0.5,1.2,1
					c0.1,0.6,0.3,1,0.1,2c-1,5.1-5.1,7.3-9.4,9.5C183.9,226.3,180.5,226.6,175.2,226.2"/>
			</g>
		</g>
	</g>
	<g>
		<g>
			<path class="st21" d="M183.2,95.8"/>
		</g>
	</g>
</g>
</svg>
