<?xml version="1.0" encoding="utf-8"?>
<!-- Generator: Adobe Illustrator 23.0.1, SVG Export Plug-In . SVG Version: 6.00 Build 0)  -->
<svg version="1.1" id="Layer_1" xmlns="http://www.w3.org/2000/svg" xmlns:xlink="http://www.w3.org/1999/xlink" x="0px" y="0px"
	 viewBox="0 0 750 500" style="enable-background:new 0 0 750 500;" xml:space="preserve">
<style type="text/css">
	.st0{fill:#EBEBEB;}
	.st1{fill:#E0E0E0;}
	.st2{fill:#F5F5F5;}
	.st3{fill:#FAFAFA;}
	.st4{fill:#263238;}
	.st5{fill:#00858E;}
	.st6{fill:#FFC93C;}
	.st7{fill:#FFFFFF;}
	.st8{fill:#455A64;}
	.st9{fill:#07689F;}
	.st10{fill:#FFBE9D;}
	.st11{fill:#EB996E;}
	.st12{opacity:0.3;}
	.st13{fill:#AA6550;}
	.st14{opacity:0.6;}
	.st15{fill:#995037;}
	.st16{opacity:0.2;}
</style>
<g id="freepik--background-complete--inject-297">
	<path class="st0" d="M107.1,399.8c4.2-2.1,9.1-2.4,13.8-1.7c2.5,0.4,5.1,1.2,6.8,3s2,5.2,0.1,6.8c-1.3,0.8-2.8,1.2-4.3,1.1
		c-3.6,0-7.7-0.7-10.6,1.5c-1.7,1.2-2.8,3.3-4.7,3.9c-2,0.5-4.1-0.5-5.2-2.3c-0.9-1.8-1.1-3.9-0.6-5.9
		C102.8,403.4,104.6,401,107.1,399.8z"/>
	<path class="st0" d="M97.5,381.3c2.6,3.6,7.5,2.4,9.8,0.2s3.3-5.5,4.2-8.5c2-7,4.1-14.4,2.6-21.6c-0.4-2.2-1.3-4.2-2.8-5.9
		c-1.5-1.7-3.7-2.4-5.9-2c-2.5,0.7-4.1,3.1-5.2,5.5c-3.3,6.9-5.1,14.4-5.1,22.1C95.1,374.6,95.5,378.3,97.5,381.3"/>
	<path class="st0" d="M90.4,386.5c2.8-3.3,3.3-8.1,2.1-12.2c-1.4-4.1-3.9-7.7-7.2-10.5c-3.8-3.4-8.2-6-13-7.7
		c-1.8-0.8-3.8-1.1-5.8-1s-3.9,1.3-4.9,3c-1.4,2.6,0,5.8,1.4,8.3c2.5,4.5,5.3,8.9,8.5,13c2.6,3.3,5.5,6.5,9.4,8s7.9,1.3,10-1.4"/>
	<path class="st1" d="M97.3,436.4c0.1-0.5,0.2-1.1,0.2-1.7c0.1-1.2,0.3-2.7,0.4-4.5s0.5-4.2,1-6.6c0.6-2.7,1.4-5.3,2.4-7.8
		s2.3-4.9,4-7.1c1.4-1.8,3.1-3.2,5.1-4.2c1.3-0.7,2.8-1.1,4.3-1.3c0.6,0,1.1-0.1,1.7-0.2c-0.6-0.1-1.1-0.1-1.7,0
		c-1.5,0.1-3,0.5-4.4,1.2c-2.1,1-3.9,2.4-5.3,4.2c-1.7,2.2-3.1,4.6-4.2,7.2c-1,2.6-1.8,5.3-2.4,8c-0.4,2.2-0.7,4.5-0.9,6.7
		c-0.1,1.9-0.2,3.5-0.2,4.6C97.2,435.3,97.2,435.8,97.3,436.4z"/>
	<path class="st1" d="M97.6,432.9c0-0.3,0-0.5,0-0.8c0-0.6,0-1.3,0-2.2c0-1.9,0-4.7,0.1-8.1c0.2-6.8,0.8-14.2,1.9-24.5
		c1.1-9.8,2.5-21.1,4-28.5c0.3-1.7,0.7-3.2,1-4.5s0.6-2.5,0.8-3.4s0.4-1.6,0.5-2.1c0.1-0.2,0.1-0.5,0.1-0.8
		c-0.1,0.2-0.2,0.5-0.3,0.7c-0.2,0.5-0.4,1.2-0.6,2.1s-0.6,2-0.9,3.4s-0.7,2.8-1.1,4.5c-1.9,8.7-3.2,17.5-4.2,26.4
		c-1.1,10.4-1.7,19.8-1.7,26.7c0,3.4,0,6.2,0.1,8.1c0,0.9,0.1,1.6,0.1,2.2C97.6,432.4,97.6,432.6,97.6,432.9z"/>
	<path class="st1" d="M97.7,414.6c0.1-0.8,0.1-1.5,0-2.3c-0.1-2.1-0.4-4.2-0.7-6.2c-0.5-3.1-1.2-6.1-2-9.1c-1-3.7-2.3-7.3-3.8-10.8
		c-2.6-6.4-6.4-12.3-11.2-17.4c-0.8-0.9-1.7-1.7-2.6-2.4c-0.4-0.3-0.8-0.7-1.1-1l-1-0.7c-0.6-0.5-1.3-0.9-1.9-1.2
		c2.2,1.8,4.4,3.6,6.3,5.7c4.6,5.1,8.3,11,10.9,17.3c1.5,3.5,2.8,7,3.8,10.6c1,3.3,1.7,6.4,2.2,9s0.8,4.7,0.9,6.2
		C97.5,413.1,97.5,413.9,97.7,414.6z"/>
	<polygon class="st1" points="80,446.8 81.9,471.9 114,471.9 115.8,446.8 	"/>
	<rect x="76.9" y="436.9" class="st1" width="42.8" height="9.9"/>
	<polygon class="st0" points="76.9,470.9 76.9,473.6 78.9,473.6 119,473.6 119,470.9 	"/>
	<polygon class="st1" points="80.9,478.4 78.9,473.6 117.4,473.6 115.2,478.4 	"/>
	<path class="st2" d="M115.3,455l-0.2,0.2l-0.5,0.6l-1.9,2.4l-0.1,0.1l-0.1-0.1l-4.6-6.4h0.3l-4.5,6.4l-0.2,0.2l-0.2-0.2l-5.4-6.4
		h0.3l-0.3,0.4l-4.8,6l-0.2,0.2l-0.2-0.2l-4.5-6.4h0.3c-2.2,2.5-4.1,4.7-5.6,6.4l-0.1,0.1l-0.1-0.1c-0.7-1.2-1.3-2.2-1.8-2.9
		l-0.4-0.8c-0.1-0.1-0.1-0.2-0.1-0.3c0,0,0.1,0.1,0.2,0.2l0.5,0.8l1.8,2.9h-0.2l5.5-6.4l0.1-0.2l0.1,0.2l4.6,6.4h0l4.8-6
		c0.1-0.1,0.2-0.3,0.3-0.4l0.2-0.2l0.2,0.2l5.4,6.4h-0.3l4.5-6.4l0.1-0.2l0.1,0.2c1.8,2.6,3.3,4.8,4.5,6.4h-0.2l2-2.3l0.5-0.6
		C115.2,455.1,115.2,455.1,115.3,455z"/>
	<path class="st2" d="M116.3,446.6c0,0.1-8.1,0.2-18,0.2s-18-0.1-18-0.2s8.1-0.2,18-0.2S116.3,446.5,116.3,446.6z"/>
	<path class="st2" d="M117.9,473.9c0,0.1-8.8,0.2-19.6,0.2s-19.6-0.1-19.6-0.2s8.8-0.2,19.6-0.2S117.9,473.8,117.9,473.9z"/>
	<rect x="31.9" y="99.2" class="st3" width="213.1" height="80.8"/>
	<path class="st0" d="M227.1,118.3c0,0.2-36.2,0.3-80.9,0.3s-80.9-0.1-80.9-0.3s36.2-0.3,80.9-0.3S227.1,118.2,227.1,118.3z"/>
	<path class="st0" d="M227.1,127.9c0,0.2-36.2,0.3-80.9,0.3s-80.9-0.1-80.9-0.3s36.2-0.3,80.9-0.3S227.1,127.7,227.1,127.9z"/>
	<path class="st0" d="M227.1,137.4c0,0.1-36.2,0.3-80.9,0.3s-80.9-0.1-80.9-0.3s36.2-0.3,80.9-0.3S227.1,137.3,227.1,137.4z"/>
	<path class="st0" d="M227.1,147c0,0.1-36.2,0.3-80.9,0.3s-80.9-0.1-80.9-0.3s36.2-0.3,80.9-0.3S227.1,146.8,227.1,147z"/>
	<path class="st0" d="M227.1,156.5c0,0.1-36.2,0.3-80.9,0.3s-80.9-0.1-80.9-0.3s36.2-0.3,80.9-0.3S227.1,156.4,227.1,156.5z"/>
	<path class="st1" d="M213,145.4c0,0-0.1,0.1-0.4,0.4c-0.4,0.4-0.9,0.7-1.4,0.9c-2,0.6-4.2,0.2-5.9-1.1c-1.2-1-2.1-2.2-2.8-3.5
		c-0.8-1.4-1.4-3.1-2.1-4.9c-0.7-1.9-1.8-3.6-3.2-5.1c-0.8-0.8-1.7-1.3-2.8-1.7c-1.1-0.3-2.3-0.4-3.4-0.2c-2.4,0.5-4.7,1.7-6.4,3.4
		c-1.9,1.7-3.6,3.9-5.7,5.8c-2.1,2.1-4.8,3.5-7.8,3.8c-1.6,0.1-3.2-0.3-4.5-1.2s-2.4-2.2-3.1-3.6c-1.6-2.8-2.4-6-4.5-8.5
		c-1-1.3-2.3-2.3-3.9-2.7c-1.6-0.4-3.3,0-4.6,1.1s-2.3,2.4-3,4c-0.6,1.6-1.1,3.3-1.4,5c-0.3,1.8-0.8,3.5-1.4,5.2
		c-0.3,0.9-0.8,1.7-1.3,2.4c-0.6,0.7-1.2,1.4-1.9,2c-1.4,1.2-3.1,2-4.9,2.5c-1.8,0.5-3.6,0.5-5.4,0.1c-1.8-0.4-3.4-1.2-4.8-2.4
		c-1.4-1.1-2.7-2.2-4.1-3.3c-1.3-1.1-2.8-1.9-4.4-2.4c-1.6-0.4-3.3-0.2-4.7,0.6c-1.4,0.8-2.6,1.9-3.5,3.2s-1.7,2.7-2.4,4.1
		c-0.7,1.4-1.5,2.8-2.3,4.1c-0.9,1.3-2,2.4-3.3,3.2s-2.8,1.2-4.4,1c-1.5-0.2-2.8-1-3.8-2.1c-0.9-1.1-1.6-2.3-2.1-3.6
		c-0.4-1.3-0.8-2.6-1-3.9c-0.5-2.6-0.9-5.1-2.2-7c-1.1-2-3-3.4-5.2-3.9c-1-0.1-2,0-3,0.4c-0.9,0.4-1.7,0.9-2.4,1.6
		c-2.7,2.6-4,5.8-6.1,7.6s-4,2.8-5.4,2.7c-0.5,0-1.1-0.1-1.6-0.3l-0.5-0.2c0.7,0.3,1.4,0.4,2.1,0.4c1.4,0,3.4-0.9,5.3-2.8
		s3.2-5,6-7.7c0.7-0.7,1.6-1.3,2.5-1.7c1-0.4,2.1-0.6,3.2-0.4c2.3,0.5,4.3,1.9,5.5,4c0.7,1.1,1.2,2.2,1.5,3.4s0.6,2.5,0.8,3.8
		c0.2,1.3,0.6,2.6,1,3.8c0.4,1.3,1.1,2.5,2,3.5c0.9,1.1,2.2,1.8,3.6,2c1.4,0.1,2.9-0.2,4.1-1c1.3-0.8,2.4-1.8,3.2-3.1
		c0.9-1.3,1.6-2.6,2.3-4c0.7-1.5,1.5-2.9,2.4-4.2c1-1.4,2.2-2.5,3.7-3.4s3.3-1.1,5-0.7c1.7,0.5,3.2,1.3,4.6,2.5
		c1.4,1.1,2.7,2.2,4,3.3c1.4,1.1,2.9,1.9,4.6,2.3c1.7,0.4,3.5,0.4,5.2-0.1c1.7-0.4,3.3-1.2,4.7-2.4c0.7-0.6,1.3-1.2,1.8-1.9
		s0.9-1.5,1.2-2.3c0.6-1.7,1.1-3.4,1.4-5.1c0.3-1.8,0.8-3.5,1.5-5.1s1.8-3.1,3.2-4.2c1.4-1.1,3.2-1.6,5-1.2c1.7,0.5,3.2,1.5,4.2,2.9
		c2.2,2.6,3,5.9,4.6,8.6c0.7,1.4,1.8,2.5,3,3.4c1.2,0.8,2.7,1.2,4.2,1.1c2.9-0.3,5.5-1.6,7.6-3.7c2.1-1.9,3.8-4,5.7-5.8
		c1.8-1.8,4.2-3,6.7-3.5c1.2-0.2,2.4-0.1,3.6,0.2c1.1,0.4,2.1,1,2.9,1.8c1.4,1.5,2.5,3.3,3.2,5.2c0.7,1.8,1.3,3.4,2.1,4.9
		c0.6,1.3,1.6,2.5,2.7,3.5c1.6,1.3,3.8,1.7,5.8,1.1C211.9,146.3,212.5,145.9,213,145.4z"/>
	<path class="st1" d="M223.2,143.2h-0.6c-0.2,0-0.4-0.1-0.7-0.1c-0.3-0.1-0.6-0.2-0.9-0.3c-1.9-1-3.5-2.4-4.8-4.1
		c-0.5-0.5-0.9-1.1-1.4-1.7c-0.5-0.6-1-1.3-1.5-1.8c-1.3-1.2-3-2-4.8-2.2c-1-0.1-2,0-2.9,0.4c-1,0.4-1.9,1-2.6,1.8
		c-1.5,1.8-2.9,3.6-4.3,5.5c-0.8,1-1.7,1.9-2.7,2.6c-1.1,0.8-2.4,1.2-3.7,1.4c-2.8,0.2-5.6-0.3-8.2-1.5c-2.7-1.1-5.2-2.6-8.1-3.6
		c-1.4-0.5-3-0.8-4.5-0.9c-1.6,0-3.1,0.3-4.5,1c-2.9,1.4-5.1,3.9-7.9,6c-1.4,1.1-2.9,1.9-4.6,2.5c-1.7,0.6-3.4,0.9-5.2,0.9
		c-3.7,0.1-7.3-0.9-10.4-2.9c-3.2-2-5.9-4.7-7.9-7.8c-2.1-3.2-3.3-6.7-4.8-10c-0.7-1.6-1.7-3.2-2.8-4.6c-1.1-1.3-2.5-2.4-4.1-3.2
		c-1.5-0.7-3.3-0.9-4.9-0.5c-1.6,0.5-3,1.4-4.1,2.7c-1.1,1.3-1.9,2.7-2.4,4.2c-0.5,1.5-1,3.1-1.3,4.7s-0.6,3.2-1.1,4.7
		c-0.4,1.5-1,3-1.8,4.4c-1.4,2.7-3.5,4.9-5.9,6.7c-2.3,1.7-5,2.7-7.8,3.1c-2.6,0.3-5.2,0-7.7-0.9c-4.3-1.5-7.7-4.8-9.2-9.1
		c-0.6-1.9-1-3.6-1.4-5.2c-0.4-1.5-1-2.9-1.9-4.1c-1.2-1.7-3.2-2.7-5.3-2.7c-0.7,0.1-1.4,0.3-2,0.7c0.6-0.5,1.3-0.8,2-0.8
		c2.2,0,4.2,1,5.5,2.7c0.9,1.2,1.6,2.7,1.9,4.1c0.5,1.6,0.8,3.4,1.5,5.2c1.6,4.2,4.9,7.4,9.1,8.8c2.4,0.9,5,1.2,7.5,0.8
		c2.7-0.4,5.3-1.5,7.6-3.1c2.4-1.7,4.4-4,5.8-6.6c1.5-2.7,2.1-5.8,2.8-8.9c0.3-1.6,0.7-3.2,1.3-4.8c0.6-1.6,1.4-3.1,2.5-4.4
		c1.1-1.4,2.6-2.4,4.3-2.9c1.8-0.4,3.6-0.2,5.3,0.6c1.7,0.8,3.1,1.9,4.3,3.3c1.2,1.4,2.1,3,2.9,4.7c1.5,3.3,2.7,6.9,4.8,10
		c2,3.1,4.6,5.7,7.7,7.7c3,1.9,6.5,2.8,10.1,2.8c1.7,0,3.4-0.3,5.1-0.9c1.6-0.6,3.1-1.4,4.4-2.4c2.7-2,5-4.6,8-6
		c1.5-0.7,3.1-1.1,4.8-1c1.6,0.1,3.1,0.4,4.6,0.9c2.9,1,5.5,2.6,8.2,3.7c2.5,1.2,5.2,1.7,8,1.5c1.3-0.2,2.5-0.6,3.6-1.3
		c1-0.7,1.9-1.6,2.6-2.6c1.3-1.9,2.8-3.8,4.3-5.5c0.8-0.8,1.7-1.4,2.7-1.8c1-0.3,2-0.5,3-0.4c1.8,0.2,3.6,1,4.9,2.3
		c0.5,0.6,1,1.2,1.5,1.9c0.5,0.6,0.9,1.2,1.4,1.7c1.3,1.7,2.9,3.1,4.7,4.1C221.8,143.1,222.5,143.2,223.2,143.2z"/>
	<path class="st1" d="M54.2,118.8c-0.7,0.3-1.4,0.3-2.1,0.3c-0.7,0.1-1.5,0-2.1-0.3c0.7-0.3,1.4-0.3,2.1-0.3
		C52.8,118.4,53.5,118.5,54.2,118.8z"/>
	<path class="st1" d="M54.2,127.9c-0.7,0.3-1.4,0.3-2.1,0.3c-0.7,0.1-1.5,0-2.1-0.3c0.7-0.3,1.4-0.3,2.1-0.3
		C52.8,127.5,53.5,127.6,54.2,127.9z"/>
	<path class="st1" d="M54.2,137c-0.7,0.3-1.4,0.3-2.1,0.3c-0.7,0.1-1.5,0-2.1-0.3c0.7-0.3,1.4-0.3,2.1-0.3S53.5,136.7,54.2,137z"/>
	<path class="st1" d="M54.2,146c-0.7,0.3-1.4,0.3-2.1,0.3c-0.7,0.1-1.5,0-2.1-0.3c0.7-0.3,1.4-0.3,2.1-0.3S53.5,145.7,54.2,146z"/>
	<path class="st1" d="M54.2,155.1c-0.7,0.3-1.4,0.3-2.1,0.3c-0.7,0.1-1.5,0-2.1-0.3c0.7-0.3,1.4-0.3,2.1-0.3S53.5,154.9,54.2,155.1z
		"/>
	<path class="st1" d="M73.8,166.8c-1.4,0.3-2.8,0.3-4.3,0.3c-1.4,0.1-2.9,0-4.3-0.3c1.4-0.3,2.8-0.3,4.3-0.3
		C71,166.4,72.4,166.5,73.8,166.8z"/>
	<path class="st1" d="M111.6,166.8c-1.4,0.3-2.8,0.3-4.3,0.3c-1.4,0.1-2.9,0-4.3-0.3c1.4-0.3,2.8-0.3,4.3-0.3
		C108.7,166.4,110.1,166.5,111.6,166.8z"/>
	<path class="st1" d="M149.3,166.8c-1.4,0.3-2.8,0.3-4.3,0.3c-1.4,0.1-2.9,0-4.3-0.3c1.4-0.3,2.8-0.3,4.3-0.3
		C146.4,166.4,147.9,166.5,149.3,166.8z"/>
	<path class="st1" d="M187,166.8c-1.4,0.3-2.8,0.3-4.3,0.3c-1.4,0.1-2.9,0-4.3-0.3c1.4-0.3,2.8-0.3,4.3-0.3
		C184.2,166.4,185.6,166.5,187,166.8z"/>
	<path class="st1" d="M224.7,166.8c-2.8,0.3-5.7,0.3-8.6,0C219,166.4,221.9,166.4,224.7,166.8z"/>
	<rect x="342.5" y="307.3" class="st3" width="173.5" height="107.4"/>
	<path class="st0" d="M474.1,385c-12-4.6-25.9,8-37.7,2.9c-6.9-3-10-10.8-13.3-17.5s-9.2-13.7-16.6-13s-13.6,9.5-20.8,7.4
		c-4.6-1.3-6.9-6.4-8-11s-1.9-9.7-5.4-13s-10.8-2.4-11.3,2.4v56.9h135.7C496.6,400.1,478.3,386.5,474.1,385z"/>
	<path class="st1" d="M500.3,400.1c0,0.1-32.9,0.2-73.4,0.2s-73.5-0.1-73.5-0.2s32.9-0.2,73.5-0.2S500.3,400,500.3,400.1z"/>
	<path class="st1" d="M500.3,375.3c0,0.1-32.9,0.2-73.4,0.2s-73.5-0.1-73.5-0.2s32.9-0.2,73.5-0.2S500.3,375.1,500.3,375.3z"/>
	<path class="st1" d="M500.3,350.4c0,0.1-32.9,0.2-73.4,0.2s-73.5-0.1-73.5-0.2s32.9-0.2,73.5-0.2S500.3,350.3,500.3,350.4z"/>
	<path class="st1" d="M500.3,326.8c0,0.1-32.9,0.2-73.4,0.2s-73.5-0.1-73.5-0.2s32.9-0.2,73.5-0.2S500.3,326.6,500.3,326.8z"/>
	<rect x="527.2" y="51" class="st3" width="129.1" height="115.5"/>
	<path class="st1" d="M656.4,166.6c0,0,0-0.8,0-2.1s0-3.5,0-6.2c0-5.4,0-13.4-0.1-23.4c0-20.2-0.1-49-0.2-83.8l0.3,0.3H527.3l0,0
		l0.3-0.3c0,42,0,81.6,0,115.5l-0.3-0.3l93.4,0.2l26.3,0.1h7h1.8C656.2,166.6,656.4,166.6,656.4,166.6h-0.6H654h-6.9l-26.3,0.1
		l-93.6,0.1H527v-0.3c0-34,0-73.5,0-115.5v-0.3h0.3h129.1h0.3V51c-0.1,34.8-0.1,63.7-0.2,83.9c0,10.1-0.1,18-0.1,23.4
		c0,2.7,0,4.7,0,6.1S656.4,166.6,656.4,166.6z"/>
	<path class="st1" d="M576.7,71.5c0,0.2-6.8,0.3-15.2,0.3s-15.2-0.2-15.2-0.3s6.8-0.3,15.2-0.3S576.7,71.3,576.7,71.5z"/>
	<path class="st1" d="M631.5,80.2c0,0.2-18.7,0.3-41.7,0.3S548,80.4,548,80.2s18.7-0.3,41.7-0.3S631.5,80,631.5,80.2z"/>
	<rect x="546.6" y="94.9" class="st1" width="5.4" height="5.4"/>
	<rect x="560" y="94.9" class="st1" width="5.4" height="5.4"/>
	<rect x="573.6" y="94.7" class="st1" width="5.4" height="5.4"/>
	<rect x="586.8" y="94.9" class="st1" width="5.4" height="5.4"/>
	<rect x="600.2" y="94.9" class="st1" width="5.4" height="5.4"/>
	<rect x="613.5" y="94.9" class="st1" width="5.4" height="5.4"/>
	<rect x="627" y="94.9" class="st0" width="5.4" height="5.4"/>
	<rect x="546.6" y="106.5" class="st0" width="5.4" height="5.4"/>
	<rect x="560" y="106.5" class="st1" width="5.4" height="5.4"/>
	<rect x="573.4" y="106.5" class="st0" width="5.4" height="5.4"/>
	<rect x="586.8" y="106.5" class="st1" width="5.4" height="5.4"/>
	<rect x="600.2" y="106.5" class="st1" width="5.4" height="5.4"/>
	<rect x="613.8" y="106.2" class="st1" width="5.4" height="5.4"/>
	<rect x="627" y="106.5" class="st1" width="5.4" height="5.4"/>
	<rect x="546.6" y="118" class="st1" width="5.4" height="5.4"/>
	<rect x="560.2" y="117.8" class="st1" width="5.4" height="5.4"/>
	<rect x="573.4" y="118" class="st1" width="5.4" height="5.4"/>
	<rect x="586.8" y="118" class="st0" width="5.4" height="5.4"/>
	<rect x="600.2" y="118" class="st1" width="5.4" height="5.4"/>
	<rect x="613.5" y="118" class="st1" width="5.4" height="5.4"/>
	<rect x="627" y="118" class="st1" width="5.4" height="5.4"/>
	<rect x="546.6" y="129.6" class="st1" width="5.4" height="5.4"/>
	<rect x="560" y="129.6" class="st1" width="5.4" height="5.4"/>
	<rect x="573.4" y="129.6" class="st1" width="5.4" height="5.4"/>
	<rect x="587" y="129.4" class="st1" width="5.4" height="5.4"/>
	<rect x="600.2" y="129.6" class="st1" width="5.4" height="5.4"/>
	<rect x="613.5" y="129.6" class="st0" width="5.4" height="5.4"/>
	<rect x="627" y="129.6" class="st1" width="5.4" height="5.4"/>
	<rect x="546.6" y="141.2" class="st1" width="5.4" height="5.4"/>
	<rect x="560" y="141.2" class="st0" width="5.4" height="5.4"/>
	<rect x="573.4" y="141.2" class="st1" width="5.4" height="5.4"/>
	<rect x="586.8" y="141.2" class="st1" width="5.4" height="5.4"/>
	<rect x="600.2" y="141.2" class="st1" width="5.4" height="5.4"/>
	<rect x="613.8" y="140.9" class="st1" width="5.4" height="5.4"/>
	<rect x="627" y="141.2" class="st1" width="5.4" height="5.4"/>
</g>
<g id="freepik--Floor--inject-297">
	<path class="st4" d="M726.9,478.4c0,0.1-153.1,0.3-341.9,0.3s-342-0.1-342-0.3s153.1-0.3,342-0.3S726.9,478.3,726.9,478.4z"/>
</g>
<g id="freepik--Panel--inject-297">
	<path class="st1" d="M476.2,61.5c0,0,15.3,0.2,8.8,30.5s-5.7,36-5.7,48c-0.2,8,4.2,15.4,11.3,19.1h-20.7l-15.2-70.7V61.5H476.2z"/>
	<polygon class="st1" points="480.7,299.8 271.3,299.8 273.1,94.9 470.4,84.6 	"/>
	<polygon class="st0" points="473.5,294.5 264.1,294.5 266,89.7 469.3,85.7 	"/>
	<polygon class="st3" points="469.1,288.8 260.2,288.8 260.2,83.9 469.3,83.4 	"/>
	<path class="st4" d="M469.1,288.8c0-1.9,0-82.2-0.1-205.3l0.2,0.2l-208.8,0.5h-0.3l0.3-0.3c0,74.9,0,145.2,0,204.9l-0.2-0.2
		L469.1,288.8L260.2,289H260v-0.2c0-59.6,0-129.9,0-204.9v-0.3h0.6l208.8-0.4h0.2v0.2C469.3,206.6,469.1,286.9,469.1,288.8z"/>
	<path class="st2" d="M469.3,82.9c-10.8-12.6,1.7-21.9,6-22.1l-199-0.1c-9.3,0-16.8,7.5-16.8,16.7c0,1,0.1,1.9,0.2,2.9
		c0.2,1.1,0.5,2.1,0.8,3.1"/>
	<path class="st4" d="M474.5,159h0.3h0.8h3.1l11.8-0.1v0.3c-1.8-0.6-3.4-1.5-4.8-2.8c-1.5-1.4-2.7-3.2-3.6-5.1
		c-0.9-2.1-1.7-4.3-2.1-6.5c-0.3-1.2-0.5-2.4-0.7-3.6c-0.1-0.6-0.2-1.2-0.3-1.9c-0.1-0.6-0.1-1.3-0.1-1.9c-0.1-2.7,0-5.3,0.3-8
		c0.2-2.7,0.5-5.5,0.8-8.4c0.7-5.7,1.5-11.6,2.5-17.7c0.4-2.6,0.9-5.2,1.4-7.7s0.8-5,1.1-7.5s0.6-4.9,0.9-7.2
		c0.1-1.2,0.3-2.3,0.3-3.5c0-1.1,0-2.3-0.2-3.4c-0.3-2.2-0.9-4.3-1.9-6.4c-0.9-1.9-2.2-3.5-3.9-4.7c-1.6-1.1-3.5-1.5-5.4-1.2
		c-1.8,0.2-3.4,0.9-4.8,2c-1.2,1-2.3,2.3-3,3.7c-0.7,1.3-1.2,2.7-1.5,4.1c-0.5,2.3-0.2,4.7,0.8,6.8c0.6,1.3,1.3,2.6,2.2,3.8l0.7,0.9
		c0.1,0.2,0.2,0.3,0.2,0.3s-0.1-0.1-0.3-0.3l-0.7-0.9c-0.9-1.2-1.7-2.5-2.3-3.8c-1.1-2.1-1.4-4.6-0.9-6.9c0.3-1.4,0.8-2.8,1.5-4.2
		c0.8-1.5,1.8-2.8,3.1-3.9c1.4-1.1,3.2-1.9,5-2.1c2-0.3,4.1,0.1,5.7,1.3c1.7,1.3,3.1,3,4,4.9c1,2,1.6,4.2,1.9,6.4
		c0.2,1.2,0.2,2.3,0.2,3.5s-0.2,2.4-0.3,3.6c-0.3,2.4-0.5,4.8-0.9,7.3s-0.6,5-1.1,7.5s-1,5.1-1.4,7.7c-1,6.1-1.9,12-2.6,17.7
		c-0.3,2.8-0.6,5.6-0.9,8.3c-0.2,2.6-0.3,5.3-0.3,7.9c0,0.6,0.1,1.3,0.1,1.9c0,0.6,0.2,1.2,0.3,1.9c0.2,1.2,0.5,2.4,0.7,3.6
		c0.5,2.2,1.2,4.4,2.1,6.5c0.8,1.9,2,3.6,3.5,5c1.3,1.2,2.9,2.2,4.7,2.7l1,0.3h-1l-11.8-0.1h-3.1h-0.8L474.5,159z"/>
	<path class="st4" d="M345.7,67.1c0.1,0.1-0.5,0.8-1.1,2.3c-0.3,0.8-0.6,1.7-0.8,2.6c-0.2,1.1-0.2,2.2-0.2,3.3
		c0.1,1.1,0.3,2.2,0.7,3.3c0.3,0.9,0.7,1.7,1.1,2.5c0.8,1.3,1.5,2,1.5,2.1s-0.2-0.1-0.5-0.4c-0.5-0.4-0.9-0.9-1.2-1.5
		c-0.5-0.8-1-1.6-1.3-2.5c-0.8-2.2-1-4.6-0.5-6.9c0.2-0.9,0.5-1.8,0.9-2.7c0.3-0.6,0.6-1.1,1-1.6C345.5,67.3,345.6,67.1,345.7,67.1z
		"/>
	<path class="st4" d="M340.7,60c-1,1-1.9,2.1-2.6,3.2c-3.8,5.9-2.3,13.7,3.3,17.9c1.1,0.8,2.3,1.5,3.6,2.1c-0.4-0.1-0.7-0.2-1.1-0.3
		c-1-0.4-1.9-0.9-2.8-1.5c-6-4.1-7.6-12.3-3.4-18.3c0,0,0,0,0-0.1c0.6-0.9,1.2-1.7,2-2.3C340,60.4,340.4,60.2,340.7,60z"/>
	<path class="st4" d="M453.2,219.9h-0.6h-1.9l-7.4,0.1l-27.2,0.1l-89.6,0.1h-38.9V220c0-25.6,0.1-47.6,0.1-63.3c0-7.8,0-14,0.1-18.3
		c0-2.1,0-3.8,0-4.9c0-0.5,0-0.9,0-1.2s0-0.4,0-0.4s0,0.1,0,0.4s0,0.7,0,1.2c0,1.1,0,2.8,0,4.9c0,4.3,0,10.5,0.1,18.3
		c0,15.6,0.1,37.7,0.1,63.3l-0.2-0.2h38.6l89.6,0.1l27.2,0.1l7.4,0.1h1.9L453.2,219.9z"/>
	<rect x="301.2" y="198.1" class="st5" width="16.7" height="16.7"/>
	<rect x="325.7" y="186.2" class="st5" width="16.7" height="28.6"/>
	<rect x="350.3" y="172.6" class="st5" width="16.7" height="42.2"/>
	<rect x="374.1" y="157.5" class="st5" width="16.7" height="57.3"/>
	<rect x="398.5" y="138.2" class="st5" width="16.7" height="76.7"/>
	<rect x="422.7" y="123.5" class="st5" width="16.7" height="90.6"/>
	<path class="st4" d="M301.2,181c0.1-0.1,0.1-0.1,0.2-0.2l0.6-0.4l2.5-1.7l9.6-6.3l33.1-21.7l0.4-0.2v0.5c0,2.4,0,4.9,0,7.5
		l-0.4-0.2l13.1-8.8l46.1-30.8l14-9.3l3.8-2.5l1-0.6l0.4-0.2c-0.1,0.1-0.2,0.2-0.3,0.2l-1,0.7l-3.8,2.6l-13.9,9.5l-46,30.9
		l-13.1,8.8l-0.4,0.3v-8l0.4,0.2l-33.3,21.5l-9.6,6.2l-2.6,1.6l-0.7,0.4H301.2z"/>
	<path class="st4" d="M425.7,113.1c-0.1-0.7-0.2-1.4-0.2-2.1c0-1.3-0.1-3.1-0.1-5l0.3,0.3h-0.6c-2.1,0-4.1,0-5.5-0.1
		c-0.8,0-1.5,0-2.3-0.2c0.7-0.1,1.5-0.2,2.3-0.2c1.4,0,3.3-0.1,5.5-0.1h0.9v0.2c0,2,0,3.8-0.1,5
		C425.9,111.7,425.8,112.4,425.7,113.1z"/>
	<path class="st4" d="M337.4,233.4c0,0.1-5.2,0.3-11.5,0.3s-11.5-0.1-11.5-0.3s5.2-0.3,11.5-0.3S337.4,233.2,337.4,233.4z"/>
	<path class="st4" d="M325.6,241.3c-0.3-1.8-0.3-3.6,0-5.4C325.9,237.7,325.9,239.5,325.6,241.3z"/>
	<path class="st4" d="M353.8,244c0,0.1-13.9,0.3-31,0.3s-31-0.1-31-0.3s13.9-0.3,31-0.3S353.8,243.9,353.8,244z"/>
	<path class="st4" d="M292.3,251.7c-0.3-2.5-0.3-5,0-7.5C292.7,246.7,292.7,249.2,292.3,251.7z"/>
	<path class="st4" d="M314.4,250.9c-0.3-2.1-0.3-4.3,0-6.4C314.7,246.5,314.7,248.7,314.4,250.9z"/>
	<path class="st4" d="M337,251.3c-0.3-2.3-0.3-4.7,0-7.1C337.3,246.5,337.3,248.9,337,251.3z"/>
	<path class="st4" d="M354.2,251.3c-0.3-2.4-0.3-4.9,0-7.3C354.6,246.4,354.6,248.8,354.2,251.3z"/>
	<path class="st4" d="M300,253.8c-2.5,0.3-5,0.3-7.5,0.3c-2.5,0.1-5,0-7.5-0.3c2.5-0.3,5-0.4,7.5-0.3
		C295,253.4,297.5,253.5,300,253.8z"/>
	<path class="st4" d="M319.1,253.8c-3.8,0.3-7.6,0.3-11.4,0C311.5,253.4,315.3,253.4,319.1,253.8z"/>
	<path class="st4" d="M343.4,254.4c-4.1,0.3-8.2,0.3-12.3,0C335.3,254,339.4,254,343.4,254.4z"/>
	<path class="st4" d="M363.2,253.3c-4.4,0.3-8.7,0.3-13.1,0C354.4,253,358.8,253,363.2,253.3z"/>
	<path class="st4" d="M292.5,261c-0.3-1.4-0.3-2.9,0-4.4C292.9,258.1,292.9,259.6,292.5,261z"/>
	<path class="st4" d="M306.8,261c0,0.1-6,0.3-13.5,0.3s-13.5-0.1-13.5-0.3s6-0.3,13.5-0.3S306.8,260.9,306.8,261z"/>
	<path class="st4" d="M306.8,267.3c-0.3-2.1-0.3-4.2,0-6.2C307.1,263.1,307.1,265.2,306.8,267.3z"/>
	<path class="st4" d="M279.7,267.7c-0.3-2.2-0.3-4.4,0-6.6C280.1,263.2,280.1,265.5,279.7,267.7z"/>
	<path class="st4" d="M337.5,261c-0.3-1.4-0.3-2.9,0-4.4C337.9,258.1,337.9,259.6,337.5,261z"/>
	<path class="st4" d="M370.4,261c0,0.1-10.2,0.3-22.8,0.3s-22.8-0.1-22.8-0.3s10.2-0.3,22.8-0.3S370.4,260.9,370.4,261z"/>
	<path class="st4" d="M351.8,267.3c-0.3-2.1-0.3-4.2,0-6.2C352.1,263.1,352.1,265.2,351.8,267.3z"/>
	<path class="st4" d="M371.3,267.3c-0.3-2.1-0.3-4.2,0-6.2C371.7,263.1,371.7,265.2,371.3,267.3z"/>
	<path class="st4" d="M324.8,267.7c-0.3-2.2-0.3-4.4,0-6.6C325.1,263.2,325.1,265.5,324.8,267.7z"/>
	<path class="st4" d="M285.1,271.5c-3.5,0.3-7.1,0.3-10.6,0C278,271.2,281.5,271.2,285.1,271.5z"/>
	<path class="st4" d="M311.5,270.8c-3.8,0.3-7.7,0.3-11.5,0C303.8,270.4,307.7,270.4,311.5,270.8z"/>
	<path class="st4" d="M330.6,270.8c-3.4,0.3-6.8,0.3-10.1,0C323.9,270.4,327.3,270.4,330.6,270.8z"/>
	<path class="st4" d="M356.4,270.8c-3.7,0.3-7.3,0.3-11,0C349.1,270.4,352.7,270.4,356.4,270.8z"/>
	<path class="st4" d="M377,270.1c-3.7,0.3-7.4,0.3-11.2,0C369.6,269.7,373.3,269.7,377,270.1z"/>
	<path class="st4" d="M453,274.1h-70.5v-43.7H453V274.1z M382.5,274.1H453v-43.6h-70.5V274.1z"/>
	<path class="st6" d="M436,262c-4.9-1.9-10.5,3.3-15.3,1.2c-2.8-1.2-4-4.4-5.4-7.1s-3.7-5.6-6.7-5.3s-5.5,3.9-8.5,3
		c-1.9-0.5-2.8-2.6-3.2-4.5s-0.8-3.9-2.2-5.3s-4.4-1-4.6,1v23.1h55.1C445.1,268.2,437.7,262.6,436,262z"/>
	<path class="st1" d="M446.6,268.2c0,0-13.4,0.1-29.8,0.1s-29.8,0-29.8-0.1s13.4-0.1,29.8-0.1S446.6,268.1,446.6,268.2z"/>
	<path class="st4" d="M446.6,258.1c0,0-13.4,0.1-29.8,0.1s-29.8,0-29.8-0.1s13.4-0.1,29.8-0.1S446.6,258,446.6,258.1z"/>
	<path class="st4" d="M446.6,248c0,0-13.4,0.1-29.8,0.1s-29.8,0-29.8-0.1s13.4-0.1,29.8-0.1S446.6,247.9,446.6,248z"/>
	<path class="st4" d="M446.6,238.4c0,0-13.4,0.1-29.8,0.1s-29.8,0-29.8-0.1s13.4-0.1,29.8-0.1S446.6,238.3,446.6,238.4z"/>
	<path class="st4" d="M287.8,98.3c0,0,0,0,0.1,0h0.3c0.4,0,0.7,0,1.1,0.1c0.6,0.1,1.1,0.3,1.7,0.6c0.7,0.4,1.3,0.9,1.8,1.5
		c0.6,0.8,1,1.7,1.2,2.6c0.2,1.1,0,2.2-0.4,3.2c-0.2,0.6-0.5,1.1-0.8,1.6s-0.6,1.1-0.9,1.6c-0.6,1.2-1,2.4-1.2,3.7v0.1h-0.1
		l-2.6-0.1l-2.7-0.1H285V113c-0.1-1.3-0.5-2.6-1.1-3.7c-0.3-0.6-0.6-1.1-0.9-1.6s-0.6-1-0.9-1.6c-0.4-1-0.6-2.2-0.3-3.2
		c0.2-0.9,0.6-1.8,1.1-2.6c0.5-0.6,1.1-1.1,1.8-1.5c0.5-0.3,1.1-0.5,1.6-0.6c0.4-0.1,0.7-0.1,1.1-0.1h0.3
		C287.8,98.3,287.8,98.3,287.8,98.3h-0.1h-0.3c-0.4,0-0.7,0.1-1.1,0.2c-0.6,0.1-1.1,0.3-1.6,0.6c-0.7,0.4-1.3,0.9-1.7,1.5
		c-0.5,0.8-0.9,1.6-1.1,2.6c-0.3,1-0.1,2.1,0.3,3.1c0.3,0.5,0.5,1,0.9,1.5c0.3,0.5,0.6,1.1,0.9,1.6c0.7,1.1,1.1,2.4,1.1,3.8
		l-0.1-0.1l2.7,0.1l2.6,0.1l-0.1,0.1c0.2-1.3,0.7-2.6,1.2-3.8c0.3-0.6,0.6-1.1,0.9-1.6s0.6-1,0.8-1.6c0.4-1,0.6-2.1,0.4-3.2
		c-0.2-0.9-0.6-1.8-1.1-2.5c-0.5-0.6-1-1.2-1.7-1.5c-0.5-0.3-1.1-0.5-1.6-0.6c-0.4-0.1-0.7-0.1-1.1-0.1L287.8,98.3L287.8,98.3z"/>
	<path class="st4" d="M288.5,113C288.6,113,288.6,112.9,288.5,113v-0.3c0-0.2-0.1-0.5-0.1-1c-0.1-0.8-0.2-2-0.3-3.5
		c0-0.4,0-0.8,0-1.2s0-0.8,0-1.3s0.1-0.9,0.4-1.3c0.2-0.4,0.6-0.8,1-1c0.5-0.2,1.1,0,1.4,0.3c0.2,0.2,0.3,0.5,0.3,0.7
		c0,0.3-0.1,0.5-0.3,0.8c-0.2,0.2-0.4,0.4-0.7,0.5c-0.3,0.1-0.5,0.2-0.8,0.2c-1.1,0.2-2.2,0.2-3.4,0c-0.3,0-0.5-0.1-0.8-0.3
		c-0.2-0.1-0.5-0.3-0.6-0.5c-0.2-0.2-0.3-0.5-0.4-0.7c0-0.3,0-0.5,0.1-0.8c0.1-0.2,0.3-0.4,0.6-0.5c0.2-0.1,0.5-0.1,0.8,0.1
		c0.2,0.1,0.4,0.3,0.5,0.5s0.2,0.4,0.2,0.7c0.1,0.4,0.1,0.9,0.1,1.3c0,0.9,0,1.7,0,2.4c0,1.5,0,2.7,0,3.5v1.3v-0.1v-0.2
		c0-0.2,0-0.6,0-1c0-0.8,0-2-0.1-3.5c0-0.7,0-1.6,0-2.4c0-0.4,0-0.9-0.1-1.3c0-0.2-0.1-0.4-0.2-0.6s-0.3-0.4-0.5-0.5
		s-0.5-0.1-0.7-0.1c-0.2,0.1-0.4,0.3-0.5,0.5s-0.2,0.5-0.1,0.7c0.1,0.3,0.2,0.5,0.3,0.7c0.4,0.4,0.9,0.7,1.4,0.7
		c0.5,0.1,1.1,0.2,1.7,0.2s1.1,0,1.7-0.1c0.3,0,0.5-0.1,0.8-0.2c0.2-0.1,0.5-0.3,0.6-0.5c0.2-0.2,0.3-0.4,0.3-0.7
		c0-0.3-0.1-0.5-0.3-0.7c-0.3-0.4-0.9-0.5-1.3-0.3s-0.8,0.5-1,0.9s-0.3,0.8-0.4,1.3c0,0.4,0,0.8,0,1.3s0,0.8,0,1.2
		c0,1.5,0.2,2.7,0.2,3.5c0,0.4,0.1,0.7,0.1,1v0.2L288.5,113z"/>
	<path class="st4" d="M285.1,113c0,0,0,0.3,0,0.9s0,1.4,0,2.3l0,0l1.7,2.1h-0.1h2.1h-0.1l1.1-1.2l0.5-0.6v0.1c0-1.2,0-2.3,0.1-3.4
		l0.1,0.1l-3.9-0.1h-1.1h-0.4c0.1,0,0.2,0,0.4,0h1.1h4v0.1c0,1,0,2.2,0,3.4l0,0l0,0l-0.5,0.6l-1.1,1.2l0,0l0,0h-2.1l0,0l0,0
		l-1.8-2.2l0,0l0,0c0-0.9,0-1.7,0.1-2.3C285,113.6,285,113.3,285.1,113z"/>
	<path class="st4" d="M290.3,116.2l-0.2-0.1c-0.2-0.1-0.3-0.2-0.5-0.2c-0.6-0.2-1.2-0.4-1.9-0.4c-0.6,0-1.3,0.1-1.9,0.3
		c-0.2,0.1-0.4,0.1-0.5,0.2l-0.2,0.1c0.1,0,0.1-0.1,0.2-0.1l0.5-0.2c0.6-0.2,1.2-0.3,1.9-0.3c0.6,0,1.3,0.1,1.9,0.4
		c0.2,0.1,0.4,0.2,0.5,0.3C290.1,116.1,290.2,116.2,290.3,116.2z"/>
	<path class="st4" d="M290.3,115.4l-0.2-0.1l-0.5-0.2c-0.6-0.2-1.2-0.3-1.9-0.4c-0.6,0-1.3,0.1-1.9,0.3c-0.2,0.1-0.4,0.1-0.5,0.2
		l-0.2,0.1l0.2-0.1c0.2-0.1,0.3-0.2,0.5-0.2c0.6-0.2,1.2-0.4,1.9-0.3c0.6,0,1.3,0.1,1.9,0.4c0.2,0.1,0.4,0.2,0.5,0.3
		C290.2,115.3,290.2,115.4,290.3,115.4z"/>
	<path class="st4" d="M290.3,114.6c-0.1,0-0.1-0.1-0.2-0.1c-0.2-0.1-0.3-0.2-0.5-0.2c-1.2-0.5-2.5-0.5-3.7,0
		c-0.2,0.1-0.4,0.2-0.5,0.2l-0.2,0.1l0.2-0.1c0.1-0.1,0.3-0.2,0.5-0.2c0.6-0.2,1.2-0.4,1.9-0.3c0.6,0,1.3,0.1,1.9,0.4
		c0.2,0.1,0.4,0.2,0.5,0.3L290.3,114.6z"/>
	<path class="st0" d="M309.4,136.1c0,0-2,18.4,0.6,28.6l24.6-1.1c0,0-5.3-18.2-2-26.2L309.4,136.1z"/>
	<path class="st6" d="M309.5,135.6c0,0,0.2,19.9,1.2,26l25-1.2c0,0-2.2-19.6-1.4-24.8H309.5z"/>
	<path class="st7" d="M330.5,143.9c0,0.1-3.7,0.4-8.4,0.7s-8.4,0.4-8.4,0.3s3.7-0.4,8.4-0.7S330.5,143.8,330.5,143.9z"/>
	<path class="st7" d="M330.5,148.1c0,0.1-3.7,0.4-8.4,0.7s-8.4,0.4-8.4,0.3s3.7-0.4,8.4-0.7S330.5,148,330.5,148.1z"/>
	<path class="st7" d="M326.3,152.3c-0.5,0.1-0.9,0.2-1.4,0.2c-0.9,0.1-2,0.2-3.4,0.2s-2.5,0.1-3.4,0.1c-0.5,0.1-0.9,0.1-1.4,0
		c0.5-0.1,0.9-0.2,1.4-0.2c0.9-0.1,2.1-0.2,3.4-0.2s2.5-0.1,3.4-0.2C325.3,152.2,325.8,152.2,326.3,152.3z"/>
	<path class="st4" d="M366.4,103.2c0,0.2-14.6,0.3-32.6,0.3s-32.6-0.1-32.6-0.3s14.6-0.3,32.6-0.3S366.4,103.1,366.4,103.2z"/>
	<path class="st4" d="M325.1,109.2c0,0.2-5.5,0.3-12.2,0.3s-12.2-0.1-12.2-0.3s5.5-0.3,12.2-0.3S325.1,109,325.1,109.2z"/>
	<path class="st4" d="M338.1,109.2c-3.1,0.3-6.3,0.3-9.4,0C331.8,108.8,335,108.8,338.1,109.2z"/>
	<path class="st4" d="M474.5,171.9c0-0.1,0-0.2,0-0.2c0-0.2,0-0.4-0.1-0.7c0-0.6-0.1-1.5-0.2-2.6c-0.1-2.3-0.4-5.5-0.6-9.5
		c-0.5-8.1-1.2-19.1-2-31.3s-1.3-23.2-1.8-31.3c-0.2-4-0.4-7.2-0.5-9.5c0-1.1-0.1-1.9-0.1-2.6c0-0.3,0-0.5,0-0.7c0-0.1,0-0.2,0-0.2
		c0,0.1,0,0.2,0,0.2l0.1,0.7c0,0.6,0.1,1.5,0.2,2.6c0.2,2.3,0.4,5.5,0.6,9.5c0.5,8,1.2,19.1,1.9,31.3s1.3,23.2,1.8,31.3
		c0.2,4,0.4,7.2,0.5,9.5c0,1.1,0.1,1.9,0.1,2.6c0,0.3,0,0.5,0,0.7C474.6,171.7,474.6,171.8,474.5,171.9z"/>
	<path class="st4" d="M469.3,60.8h-0.6H467h-6.5h-24h-79.4L275,60.5l0,0c-4.1,1-7.7,3.3-10.4,6.5c-2,2.4-3.4,5.3-4.1,8.4
		c-0.4,1.9-0.5,3.9-0.4,5.9c0.1,0.7,0.1,1.2,0.2,1.5c0,0.2,0.1,0.3,0.1,0.5c-0.2-0.7-0.3-1.3-0.4-2c-0.2-2-0.1-4,0.3-5.9
		c0.6-3.1,2-6,4-8.5c2.7-3.3,6.4-5.6,10.6-6.7l0,0l82.2,0.1l79.4,0.2l24.1,0.1l6.5,0.1h1.7L469.3,60.8z"/>
</g>
<g id="freepik--Plant--inject-297">
	<path class="st6" d="M629.9,374.4c13.7-13.7,33.5-19.1,52.2-14.3c-15.6,10.6-34,16.4-52.8,16.5"/>
	<path class="st6" d="M647.6,311.7c-2.2-15.4,3.8-32.7,15.3-43.9C663.3,283,656.9,300.2,647.6,311.7"/>
	<path class="st6" d="M638.4,340.8c8.3-15.8,21.6-28.5,37.7-36.1c-5.1,18-19.6,31.9-37.9,36.2"/>
	<path class="st6" d="M636.5,346.4c9.3,0.3,18.7-0.1,27.7-2.4s17.6-7,23.6-14.1c-18.2,0.1-36,5.5-51.1,15.6"/>
	<path class="st6" d="M641.2,327.9c-4.7-17.7-12.5-29.9-26.4-39.8C612.6,306,623.8,322.9,641.2,327.9"/>
	<path class="st6" d="M606.1,358.4c-0.1-10.6,6.2-20.1,15.9-24.2C621.2,343.3,614,353.8,606.1,358.4"/>
	<path class="st6" d="M601.7,343.5c-1.3-15.1-11.3-28.1-25.6-33.3C579.3,325,587.8,337.3,601.7,343.5"/>
	<path class="st6" d="M608.3,369.9c-3.3-4.7-8.6-7.6-14.2-9.1s-11.3-1.6-17-1.7c7.9,8.5,19.1,13.2,30.7,12.8"/>
	<path class="st6" d="M615,407.6c-21.6-6.7-44.8,4.3-53.3,25.2C581.1,429.2,600.2,420.6,615,407.6"/>
	<path class="st6" d="M636.2,394.5c-3.2,9.5-2.6,21,4.5,29.2C643.7,413.8,642,403.1,636.2,394.5"/>
	<path class="st6" d="M648.8,389.2c1.1,12.5,8.6,23.4,19.8,29c0.5,0.3,1.2,0.4,1.8,0.3c0.9-0.4,1-1.5,0.8-2.5
		C669.7,403.9,660.7,392.1,648.8,389.2"/>
	<path class="st6" d="M657,388c11,11.9,29.6,12.6,41.4,1.6c0.5-0.4,1-0.9,1.4-1.4C686.2,386.7,670.5,385.7,657,388"/>
	<path class="st4" d="M659,279.1c0,0.1-0.1,0.3-0.1,0.4l-0.4,1.2c-0.4,1-0.9,2.5-1.6,4.4s-1.6,4.3-2.6,7c-0.5,1.4-1,2.8-1.6,4.4
		s-1.1,3.2-1.7,4.9c-2.4,6.9-5.1,15.2-8,24.4s-5.8,19.4-8.8,30.2s-5.5,21.1-7.7,30.5s-4,17.9-5.3,25.1c-0.3,1.8-0.7,3.5-1,5.1
		s-0.5,3.2-0.8,4.6c-0.5,2.9-0.9,5.3-1.2,7.3s-0.5,3.6-0.7,4.6c-0.1,0.5-0.2,0.9-0.2,1.2c0,0.1,0,0.3-0.1,0.4c0-0.1,0-0.3,0-0.4
		l0.2-1.2c0.2-1.1,0.3-2.7,0.6-4.7s0.7-4.5,1.1-7.4c0.2-1.4,0.5-3,0.7-4.6s0.6-3.3,0.9-5.1c1.3-7.2,3.1-15.7,5.2-25.2
		s4.7-19.7,7.6-30.5s5.9-21,8.8-30.2s5.6-17.5,8.1-24.4l1.7-4.9l1.7-4.4c1-2.7,1.9-5.1,2.7-7s1.3-3.4,1.7-4.4
		c0.2-0.5,0.3-0.9,0.5-1.1C658.9,279.4,658.9,279.2,659,279.1z"/>
	<path class="st4" d="M584.2,318.1c0.1,0.1,0.2,0.1,0.2,0.2l0.7,0.7c0.6,0.6,1.4,1.5,2.4,2.7c2.9,3.4,5.6,6.9,8,10.7
		c3.6,5.6,6.4,11.6,8.4,17.9c2.2,7.1,3.6,15.3,5,23.7c2.8,17,6.2,32.2,8.6,43.2c1.2,5.5,2.2,9.9,3,13c0.3,1.5,0.6,2.7,0.8,3.5
		l0.2,0.9c0,0.1,0,0.2,0,0.3c0-0.1-0.1-0.2-0.1-0.3l-0.2-0.9c-0.2-0.8-0.5-2-0.9-3.5c-0.7-3.1-1.8-7.5-3.1-13
		c-2.5-11-6-26.2-8.8-43.2c-1.4-8.5-2.8-16.6-5-23.7c-1.9-6.3-4.7-12.3-8.2-17.9c-2.4-3.8-5-7.4-7.9-10.8c-1-1.2-1.8-2.1-2.3-2.8
		l-0.6-0.7C584.3,318.2,584.2,318.1,584.2,318.1z"/>
	<path class="st4" d="M661.1,387.4c-0.2,0.1-0.3,0.1-0.5,0.1l-1.4,0.2l-1,0.1L657,388c-0.9,0.1-1.9,0.3-2.9,0.5l-1.7,0.3l-1.8,0.5
		c-1.3,0.3-2.6,0.8-4,1.2c-3,1-5.9,2.3-8.6,3.8c-2.7,1.5-5.3,3.3-7.7,5.4c-1,0.9-2.1,1.8-3,2.8c-0.8,0.9-1.6,1.8-2.3,2.7
		c-0.6,0.8-1.2,1.6-1.7,2.4c-0.4,0.6-0.8,1.2-1.2,1.9l-0.7,1.2c-0.2,0.3-0.3,0.4-0.3,0.4c0-0.2,0.1-0.3,0.2-0.5
		c0.2-0.3,0.4-0.8,0.6-1.3c0.3-0.7,0.7-1.3,1.1-2c0.5-0.9,1.1-1.7,1.7-2.5c0.7-1,1.5-1.9,2.3-2.8c0.9-1,1.9-2,3-2.9
		c2.4-2.1,5-3.9,7.8-5.5c2.8-1.5,5.7-2.8,8.7-3.8c1.4-0.4,2.7-0.9,4-1.1l1.8-0.4l1.7-0.3c1.1-0.2,2.1-0.3,3-0.4l1.2-0.1h1l1.4-0.1
		C660.8,387.5,660.9,387.4,661.1,387.4z"/>
	<path class="st4" d="M665,318.4c-0.3,0.3-0.6,0.7-1,0.9l-2.8,2.4c-2.4,2-5.7,4.8-9.4,7.9s-7,5.8-9.5,7.8l-2.9,2.3
		c-0.3,0.3-0.7,0.6-1.1,0.8c0.3-0.4,0.6-0.7,1-1l2.8-2.4c2.4-2,5.7-4.8,9.4-7.9s7-5.8,9.5-7.8l2.9-2.3
		C664.2,318.9,664.6,318.6,665,318.4z"/>
	<path class="st4" d="M668.3,336.4c0,0.1-7.1,2.4-16,5s-16.1,4.6-16.1,4.5s7.1-2.4,16-5S668.3,336.3,668.3,336.4z"/>
	<path class="st4" d="M641.9,329.3c-0.3-0.3-0.5-0.6-0.7-1l-1.9-2.9c-1.6-2.4-3.9-5.7-6.6-9.2s-5.3-6.6-7.2-8.8l-2.3-2.6
		c-0.3-0.3-0.6-0.6-0.8-1c0.3,0.3,0.7,0.5,0.9,0.9c0.6,0.6,1.4,1.4,2.4,2.5c2,2.1,4.6,5.2,7.3,8.7s4.9,6.9,6.5,9.4
		c0.8,1.2,1.4,2.3,1.8,3C641.6,328.5,641.7,328.9,641.9,329.3z"/>
	<path class="st4" d="M617.1,339.3c-0.5,1-1.1,1.9-1.7,2.8c-1.1,1.7-2.5,4-4,6.6s-2.8,5.1-3.7,6.9c-0.4,1-0.9,1.9-1.5,2.9
		c0.3-1,0.7-2,1.2-3c0.8-1.8,2-4.3,3.5-7s3-5,4.2-6.6C615.7,340.9,616.3,340,617.1,339.3z"/>
	<path class="st4" d="M608.6,370.4c0,0.1-1.4-0.6-3.6-1.6s-5.3-2.3-8.9-3.6s-6.8-2.1-9.2-2.8s-3.9-0.9-3.8-1c0.4,0,0.7,0,1.1,0.1
		c0.7,0.1,1.7,0.3,2.9,0.5c3.1,0.7,6.2,1.6,9.2,2.6c3,1.1,6,2.3,8.9,3.7c1.1,0.5,2,1,2.6,1.4C608,370,608.3,370.2,608.6,370.4z"/>
	<path class="st4" d="M615.2,407.7c-0.1,0.1-0.3,0.1-0.4,0.1l-1.3,0.3l-4.8,1.1c-5.2,1.1-10.4,2.5-15.5,4.1c-5.1,1.7-9.9,4-14.5,6.8
		c-1.7,1.1-3.1,2.1-4,2.8c-0.5,0.4-0.9,0.7-1.4,1c0.1-0.1,0.2-0.2,0.3-0.3c0.2-0.2,0.5-0.5,1-0.9c1.2-1.1,2.6-2,3.9-2.9
		c4.5-2.9,9.4-5.3,14.5-7s10.3-3,15.6-4l4.8-0.9C614.1,407.8,614.7,407.7,615.2,407.7z"/>
	<path class="st4" d="M639.4,416.9c-0.2,0-1-5-1.9-11.2s-1.5-11.3-1.4-11.3s1,5,1.9,11.2S639.6,416.9,639.4,416.9z"/>
	<path class="st4" d="M664.6,407.7c-0.8-0.9-1.6-1.8-2.3-2.7c-1.4-1.7-3.2-4-5.4-6.6s-4.1-4.8-5.5-6.4c-0.8-0.8-1.6-1.7-2.3-2.7
		c0.3,0.2,0.5,0.4,0.7,0.6c0.4,0.4,1.1,1,1.8,1.8c1.5,1.6,3.5,3.8,5.7,6.3s4,4.9,5.3,6.7c0.7,0.9,1.2,1.6,1.5,2.1
		C664.3,407.2,664.5,407.4,664.6,407.7z"/>
	<polygon class="st8" points="598,431.1 598,443.5 601.1,443.5 612.2,478.4 636.7,478.4 647.4,443.9 651.5,443.5 651.5,431.1 	"/>
	<path class="st4" d="M649.5,443.9c0,0.1-10.8,0.3-24.2,0.3s-24.2-0.1-24.2-0.3s10.8-0.3,24.2-0.3S649.5,443.7,649.5,443.9z"/>
	<path class="st4" d="M667.1,363.8c-0.5,0.2-1,0.3-1.6,0.4l-4.3,1c-3.6,0.9-8.6,2.3-14,4.1s-10.2,3.7-13.6,5.2l-4.1,1.8
		c-0.5,0.3-1,0.5-1.5,0.7c0.4-0.3,0.9-0.6,1.4-0.8c0.9-0.5,2.3-1.1,4-1.9c8.9-4,18.2-7.2,27.7-9.3c1.8-0.4,3.3-0.7,4.3-0.9
		C666,363.9,666.6,363.9,667.1,363.8z"/>
	<path class="st3" d="M641.3,463.3c0,0.1-7.6,0.3-17,0.3s-17-0.1-17-0.3s7.6-0.3,17-0.3S641.3,463.1,641.3,463.3z"/>
	<path class="st3" d="M642.3,460.4c0,0.1-8.1,0.3-18,0.3s-18-0.1-18-0.3s8.1-0.3,18-0.3S642.3,460.2,642.3,460.4z"/>
</g>
<path class="st9" d="M492.3,446.7l-1.6,20.5c0,0-20.3,6.5-20.4,10.3L510,478l1.2-31.4L492.3,446.7z"/>
<path class="st0" d="M502.9,465.1c0.8,0.2,1.3,1,1.2,1.8c-0.2,0.8-1,1.3-1.8,1.2c-0.9-0.2-1.4-1.1-1.3-1.9c0.3-0.8,1.2-1.3,2-1"/>
<path class="st0" d="M509.9,478.1l-0.1-3.2l-37.6,0.2c0,0-2.1,1.3-2.1,2.5L509.9,478.1z"/>
<path class="st4" d="M490,467c0,0.2,1,0.2,2,0.9s1.5,1.4,1.7,1.3s-0.1-1.2-1.3-1.9S490,466.9,490,467z"/>
<path class="st4" d="M485.9,468.9c0,0.2,0.8,0.5,1.5,1.3s0.9,1.7,1.1,1.6s0.3-1.1-0.6-2.1S485.9,468.7,485.9,468.9z"/>
<path class="st4" d="M483.7,473.9c0.2,0,0.4-0.9-0.1-2s-1.5-1.4-1.5-1.3s0.5,0.7,0.9,1.6S483.5,473.9,483.7,473.9z"/>
<path class="st4" d="M490.2,462.4c0.1,0.2,1-0.1,2.1-0.1s2,0.4,2.1,0.2s-0.8-0.8-2-0.9S490.1,462.2,490.2,462.4z"/>
<path class="st4" d="M490,458.2c0.7,0.2,1.4,0.1,2-0.1c0.7-0.1,1.4-0.4,2.1-0.7c0.4-0.2,0.8-0.4,1.1-0.6c0.2-0.1,0.4-0.3,0.6-0.5
	c0.2-0.3,0.2-0.7,0-1s-0.5-0.4-0.9-0.4c-0.3,0-0.5,0.1-0.7,0.1c-0.4,0.1-0.8,0.3-1.2,0.5c-0.7,0.3-1.3,0.7-1.8,1.3
	c-0.9,0.9-1.2,1.6-1.1,1.6s0.5-0.6,1.4-1.3c0.5-0.4,1.1-0.8,1.8-1c0.4-0.2,0.7-0.3,1.1-0.4s0.8-0.1,0.9,0s0,0.1,0,0.2
	c-0.1,0.1-0.3,0.3-0.4,0.4c-0.3,0.2-0.7,0.4-1,0.6c-0.6,0.3-1.2,0.6-1.9,0.8C491.3,457.8,490.6,458,490,458.2z"/>
<path class="st4" d="M490.3,458.5c0.4-0.6,0.5-1.3,0.5-1.9c0-0.7-0.1-1.5-0.3-2.2c-0.1-0.4-0.3-0.8-0.5-1.2c-0.2-0.5-0.7-0.9-1.3-1
	c-0.4,0-0.7,0.2-0.8,0.6c-0.1,0.2-0.2,0.5-0.2,0.7c-0.1,0.4-0.1,0.9,0,1.3c0.1,0.7,0.4,1.4,0.9,2c0.8,1,1.6,1.2,1.6,1.1
	s-0.6-0.5-1.2-1.4c-0.4-0.6-0.6-1.2-0.7-1.9c-0.1-0.4-0.1-0.8,0-1.1c0-0.4,0.2-0.8,0.4-0.7s0.5,0.3,0.7,0.6c0.2,0.3,0.4,0.7,0.5,1.1
	c0.2,0.6,0.4,1.3,0.5,2C490.4,457.7,490.2,458.5,490.3,458.5z"/>
<path class="st9" d="M578.1,443.3l4.6,24l9.1,17.9c0.6,1.2,0.1,2.7-1.1,3.4c0,0-0.1,0-0.2,0.1l0,0c-0.7,0.3-1.6,0.3-2.3-0.2
	c-4.4-2.7-20.5-12.8-20.7-14.5c-0.3-2-6.5-25-6.5-25L578.1,443.3z"/>
<path class="st0" d="M590.5,488.6l-23.4-16.3l0.2,1c0.2,0.9,0.7,1.7,1.4,2.2c1.9,1.5,7.2,5.4,19.4,13
	C588.9,488.9,589.8,488.9,590.5,488.6L590.5,488.6z"/>
<path class="st0" d="M570.4,465.3c0.7,0.3,1.1,1.1,0.8,1.8c-0.3,0.7-1.1,1.1-1.8,0.8c-0.8-0.3-1.1-1.2-0.9-2
	C568.9,465.2,569.8,464.9,570.4,465.3"/>
<path class="st4" d="M582.8,479.4c0.4-0.9,1-1.7,1.7-2.3c0.8-0.5,1.7-0.9,2.6-1.1c0-0.1-0.3-0.2-0.9-0.1c-0.8,0.1-1.5,0.4-2.1,0.8
	c-0.6,0.5-1,1.1-1.3,1.8C582.7,479,582.8,479.3,582.8,479.4z"/>
<path class="st4" d="M585.2,482.2c0.1,0.1,0.7-0.9,1.9-1.5c0.7-0.3,1.5-0.6,2.3-0.8c-0.8-0.3-1.8-0.2-2.5,0.3
	C585.5,480.9,585.1,482.1,585.2,482.2z"/>
<path class="st4" d="M578.8,475.9c0.9-0.9,1.8-1.7,2.8-2.5c1.1-0.6,2.2-1.1,3.4-1.6C582.2,471.9,579.8,473.5,578.8,475.9z"/>
<path class="st4" d="M576.8,468.8c0.1,0.1,1.3-0.7,3-1.1s3.2-0.3,3.2-0.5C580.7,466.5,578.4,467.1,576.8,468.8L576.8,468.8z"/>
<path class="st4" d="M575.2,461.8c1-0.6,2-1,3.1-1.3c1.1-0.1,2.2-0.1,3.3,0.1c0,0-0.3-0.3-0.9-0.5c-1.7-0.5-3.4-0.2-4.8,0.9
	C575.4,461.4,575.2,461.7,575.2,461.8z"/>
<path class="st4" d="M578,459.2c0,0,0-0.3-0.2-0.9c-0.3-0.8-0.7-1.6-1.2-2.2c-0.4-0.5-0.9-0.9-1.5-1.1c-0.4-0.1-0.8,0.1-1.1,0.5
	c-0.2,0.4-0.2,0.8-0.2,1.2c0.5,1.6,2,2.7,3.7,2.5s3-1.4,3.5-3c0.1-0.4,0.1-0.8-0.1-1.2c-0.3-0.3-0.7-0.4-1.1-0.3
	c-0.6,0.3-1,0.7-1.4,1.1c-0.5,0.7-1,1.4-1.2,2.2c-0.1,0.3-0.2,0.6-0.2,0.9c0.4-1,1-2,1.7-2.9c0.3-0.4,0.7-0.8,1.2-1
	c0.2-0.1,0.5,0,0.6,0.2s0.2,0.5,0.1,0.8c-0.4,1.3-1.6,2.3-3,2.5c-1.4,0.1-2.7-0.8-3.2-2.1c-0.1-0.3-0.1-0.6,0.1-0.8
	c0.1-0.2,0.4-0.3,0.6-0.3c0.5,0.2,0.9,0.5,1.3,0.9C577.1,457.1,577.7,458.1,578,459.2z"/>
<path class="st4" d="M492,258c-0.2,0-3.3,201.1-3.3,201.1l24.3-0.8l8.4-98.9l2-72.6L540,354l20.6,105.4l24.3-6.1L554,256.7
	l-29.1-5.6L492,258z"/>
<path class="st4" d="M544.8,133.8c2.9-5.7,3.8-16.1,0.5-21.8s-10.1-9.8-16.4-11.7c-1-0.4-2.2-0.5-3.3-0.2s-1.8,1.4-1.5,2.6
	c-1.2-1-2.5-1.8-4-2.3s-3.1-0.3-4.4,0.6c-1.2,1-1.4,2.8-0.4,4.1l0,0c-2.5-1.1-5.5,0.1-6.6,2.6c-0.5,1.1-0.5,2.3-0.2,3.5
	c0.7,1.9,1.8,3.6,3.2,5.1c1.3,1.3,1.4,2.6,1,4.4"/>
<path class="st10" d="M520.9,181.1c0.2-2.8,0.6-27.7,0.6-27.8s-9.3-1.1-9.7-10.4c-0.2-4.4,0.2-13.6,0.6-21.9
	c0.4-8.9,7.7-16,16.6-16.3h0.9c9.6,0.3,14.7,8.6,14.2,18.2l-1.3,53.4"/>
<path class="st11" d="M521.5,153.2c4.3-0.1,8.4-1.5,11.9-3.9c0,0-2.8,5.8-12,5.2L521.5,153.2z"/>
<path class="st10" d="M543.6,129.6c0.2-0.1,6.3-2.1,6.3,4.2c0,6.3-6.3,5-6.3,4.8S543.6,129.6,543.6,129.6z"/>
<path class="st11" d="M545.4,136.3c0,0,0.1,0.1,0.3,0.2c0.3,0.1,0.6,0.1,0.8,0c0.8-0.5,1.3-1.5,1.3-2.4c0-0.5-0.1-1.1-0.3-1.6
	c-0.1-0.4-0.4-0.7-0.8-0.8c-0.3-0.1-0.5,0.1-0.7,0.3c-0.1,0.2,0,0.3-0.1,0.3s-0.1-0.1-0.1-0.4c0-0.2,0.1-0.3,0.2-0.4
	c0.2-0.1,0.4-0.2,0.6-0.2c0.5,0.1,1,0.5,1.2,1c0.3,0.5,0.4,1.1,0.4,1.8c0.1,1.2-0.6,2.2-1.6,2.7c-0.3,0.1-0.7,0-1-0.2
	C545.5,136.4,545.4,136.3,545.4,136.3z"/>
<path class="st4" d="M508.4,109c-0.7,8.2,9.3,11.6,13.8,7c2-2.1,3.8-4.8,6.6-5.7c1.9-0.6,4-0.4,5.8,0.6l0,0c2.6,1.3,4.1,4.4,4.5,7.3
	c0.6,4-0.1,7.6,1,11.3c0.1,0.6,0.4,1.1,0.8,1.4c0.9,0.4,1.9,0.2,2.5-0.6c0.9-1.2,1.5-2.6,1.6-4.2c0.6-3.4,0.4-6.9-0.4-10.2
	c-0.8-3.4-2.6-6.4-5.1-8.8c-3.3-2.8-7.5-4.3-11.9-4.1c-4.3,0.3-8.4,1.9-11.8,4.6c-1.6,1.2-2.9,2.8-3.7,4.6"/>
<path class="st8" d="M515.1,104.5c-0.3-0.1-0.6-0.1-0.9,0c-0.8,0.2-1.5,0.6-2.1,1.2c-0.9,0.9-1.4,2-1.6,3.2c-0.1,1.5,0.3,3,1.2,4.2
	c0.9,1.2,2.1,2.1,3.4,2.7c1.1,0.4,2.3,0.7,3.4,0.8c0.8,0,1.6,0,2.4-0.1c0.3,0,0.6-0.1,0.8-0.2c0-0.1-1.2,0.1-3.2-0.1
	c-1.1-0.1-2.2-0.4-3.3-0.8c-1.3-0.5-2.4-1.4-3.2-2.5s-1.2-2.4-1.1-3.7c0.1-1.1,0.6-2.2,1.4-3c0.5-0.6,1.2-1,1.9-1.2
	C514.8,104.6,515.1,104.6,515.1,104.5z"/>
<path class="st8" d="M519.3,101.7c0,0-0.2-0.1-0.6,0.1c-0.5,0.3-0.9,0.8-1,1.3c-0.1,0.8,0,1.7,0.5,2.4c0.5,0.9,1,1.7,1.7,2.4
	c1.2,1.3,2.8,2.3,4.5,2.9c0.7,0.3,1.4,0.4,2.2,0.4c0-0.1-0.8-0.2-2.1-0.7c-1.6-0.6-3.1-1.6-4.3-2.9c-0.7-0.7-1.2-1.5-1.7-2.3
	c-0.4-0.6-0.6-1.4-0.5-2.1c0.1-0.5,0.4-0.9,0.8-1.2C519.1,101.7,519.3,101.7,519.3,101.7z"/>
<path class="st10" d="M464.4,183.3l-43.4-4.1l-6.9-1.6c0,0-15.7-2.8-17.1-3.3c-1.7-0.5-2.4,0.2-2.5,0.8c-0.2,1,0.8,2.1,2.2,2.6
	c0.5,0.2,8.5,2.6,8.5,2.6c-0.9,0.2-1.8,0.5-2.6,0.9c-1.9,0.7-3.6,3.2-4.4,6.1s-0.8,3.7,0.3,4.1c0.4,0.1,0.9,0,1.2-0.2
	c0.6-0.4,1.1-1,1.3-1.7c1.3-4.6,4.1-5.1,4.1-5.1l0.9,0.2c0,0-2.8,2.1-2.7,4.6c0,0.3,0.1,0.7,0.3,1c-0.7,1.9,0.4,4.1,2.3,4.7
	c0.7,0.2,1.4,0.3,2,0.1c0.6-0.1,1.3-0.5,1.3-1.1c0-0.3-0.1-0.7-0.2-1c-0.1-0.2-0.1-0.3-0.2-0.5l2.6,0.2c0,0,5.9,0.3,8.4,0.7
	l40.9,10.6c5.6,1.5,11.3-1.9,12.8-7.5c0-0.1,0-0.1,0-0.2l0,0c1.3-5.6-2.1-11.3-7.8-12.6C465.4,183.4,464.9,183.3,464.4,183.3z"/>
<path class="st10" d="M420.1,180.3c-0.2,0.9-0.9,1.6-1.8,1.8s-1.8,0.1-2.7,0.3c-2.7,0.5-4.7,3-7.4,3.3c-0.4,0-0.9,0-1-0.4
	s0.1-0.7,0.4-0.9l6.5-6.2"/>
<path class="st11" d="M414.1,178.2c-0.3,0.2-0.5,0.4-0.8,0.6c-0.5,0.4-1.1,1-2,1.8l-2.9,2.7c-0.3,0.3-0.5,0.5-0.8,0.8
	s-0.7,0.5-0.7,1.1c0,0.3,0.2,0.6,0.5,0.7c0.2,0.1,0.5,0.1,0.7,0.1c0.4-0.1,0.9-0.2,1.3-0.3c1.5-0.7,2.9-1.5,4.2-2.4
	c0.6-0.3,1.2-0.6,1.9-0.7c0.6-0.1,1.2-0.1,1.8-0.2c0.9,0,1.8-0.4,2.4-1.2c0.2-0.3,0.3-0.6,0.3-1c-0.1,0.3-0.2,0.6-0.4,0.8
	c-0.6,0.6-1.4,0.9-2.3,0.9c-0.6,0-1.2,0.1-1.8,0.1c-0.7,0.1-1.4,0.4-2,0.7c-1.3,0.8-2.7,1.6-4.2,2.3c-0.4,0.1-0.8,0.2-1.2,0.3
	c-0.4,0-0.7-0.1-0.7-0.3s0.3-0.5,0.6-0.8s0.5-0.5,0.8-0.8l2.8-2.8c0.8-0.8,1.4-1.4,1.9-1.9S414.2,178.3,414.1,178.2z"/>
<path class="st11" d="M406.1,184.5c-0.6-0.1-1.1-0.1-1.7,0.1c-0.6,0.2-1.1,0.6-1.4,1.1c-0.4,0.6-0.8,1.3-1,2.1s-0.5,1.5-0.9,2.2
	c-0.3,0.6-0.8,1.1-1.4,1.4c-0.4,0.2-0.9,0.3-1.3,0.1c-0.3-0.1-0.4-0.3-0.4-0.3s0.1,0.1,0.4,0.2c0.4,0.1,0.8,0.1,1.2-0.2
	c0.5-0.3,0.9-0.8,1.2-1.4c0.3-0.7,0.6-1.4,0.9-2.1c0.2-0.8,0.6-1.5,1-2.1c0.4-0.5,1-0.9,1.6-1.1c0.4-0.1,0.9-0.1,1.3,0
	C405.8,184.3,406,184.4,406.1,184.5z"/>
<path class="st11" d="M396.1,177.4c0.5,0.1,1.1,0.3,1.6,0.5l3.8,1.2l3.8,1.2c0.5,0.1,1.1,0.3,1.6,0.5c-0.6,0-1.1-0.1-1.6-0.3
	c-1-0.2-2.4-0.6-3.9-1.1s-2.8-0.9-3.8-1.3C397.1,177.9,396.6,177.7,396.1,177.4z"/>
<path class="st11" d="M407.4,186.8c0,0-0.1,0.2-0.3,0.4c-0.3,0.3-0.5,0.8-0.4,1.2c0.1,0.3,0.3,0.5,0.5,0.6c0.3,0.1,0.7,0.2,1.1,0.2
	c0.5,0,0.9,0.2,1.2,0.6c0.3,0.4,0.4,0.9,0.3,1.4c-0.2,0.5-0.5,0.9-0.9,1.1c-0.4,0.2-0.9,0.3-1.3,0.2c-0.7-0.1-1.4-0.3-2-0.7
	c-0.4-0.2-0.8-0.5-1.2-0.8c-0.1-0.1-0.2-0.3-0.3-0.4c0,0,0.1,0.1,0.4,0.4c0.4,0.3,0.8,0.5,1.2,0.7c0.6,0.3,1.3,0.5,2,0.6
	c0.8,0.1,1.6-0.4,1.9-1.1c0.1-0.4,0-0.8-0.2-1.1c-0.3-0.3-0.6-0.4-1-0.5s-0.8-0.2-1.1-0.3c-0.3-0.1-0.6-0.5-0.6-0.8
	C406.4,187.8,406.8,187.2,407.4,186.8L407.4,186.8z"/>
<path class="st11" d="M408.5,192.2c0,0,0.2,0,0.4,0.2c0.4,0.3,0.6,0.7,0.5,1.2c-0.1,0.7-0.5,1.3-1.1,1.6c-0.7,0.3-1.6,0.4-2.3,0.1
	c-0.8-0.2-1.4-0.7-1.9-1.4c-0.4-0.5-0.6-1.1-0.7-1.8c-0.1-0.4,0-0.9,0.1-1.3c0.1-0.3,0.2-0.4,0.2-0.4c-0.1,0.6-0.1,1.1,0,1.7
	c0.1,0.6,0.3,1.2,0.7,1.6c0.5,0.6,1.1,1,1.8,1.2c0.7,0.2,1.4,0.2,2.1-0.1c0.5-0.2,0.9-0.7,1-1.3c0-0.4-0.1-0.8-0.4-1.1
	C408.6,192.2,408.5,192.2,408.5,192.2z"/>
<path class="st11" d="M415.5,188.3c0-0.3,0.1-0.5,0.2-0.8c0.3-0.6,0.9-1.1,1.5-1.4v0.3c-0.3-0.2-0.7-0.3-1-0.5
	c-1.2-0.6-2.1-1.5-2.8-2.7c0.9,0.9,1.9,1.7,3,2.4c0.3,0.2,0.7,0.4,1,0.5l0.3,0.2l-0.4,0.1c-0.6,0.2-1.1,0.6-1.5,1.2
	C415.7,188.1,415.6,188.4,415.5,188.3z"/>
<path class="st11" d="M401.9,184.3c0.1-0.1,0.5,0.4,0.6,1.2s-0.3,1.4-0.4,1.3s0.1-0.6,0-1.3S401.8,184.3,401.9,184.3z"/>
<path class="st6" d="M465.2,204.5l28.3-6.5c0,0-1.4,51.8-1.4,52.3s-2.3,1.3-2.1,5.1l2,4.5l62,0.8l1.7-50.3l5.7-39l-13-8.1l-4.6-6.3
	l-17.9,18.9l-4.5-16.1l0.1-4.8l-4.4,4.8l-23.9,6.9l-31.5,14.7l-21.3-1.6l-5.5,18.6L465.2,204.5z"/>
<path class="st4" d="M523.3,170.1c-0.6,0.3-1,0.8-1.3,1.4c-0.3,0.7-0.4,1.4-0.4,2.2c0,1-0.1,2-0.4,3l-0.2,0.5l-0.2-0.5
	c-0.6-1.5-1.1-3-1.4-4.6c-0.8-3.2-1.2-6.2-1.6-8.4c-0.2-1.2-0.3-2.3-0.4-3.5c0.3,1.1,0.6,2.3,0.7,3.4c0.4,2.1,1,5.1,1.7,8.3
	c0.3,1.5,0.8,3,1.3,4.5h-0.4c0.3-0.9,0.5-1.8,0.5-2.8c0-0.8,0.2-1.6,0.5-2.3c0.2-0.5,0.6-0.9,1-1.1
	C522.9,170.2,523.1,170.1,523.3,170.1z"/>
<path class="st4" d="M546.2,162.2c-0.2,0.3-0.4,0.6-0.6,0.9c-0.4,0.5-1,1.3-1.8,2.2c-1.5,1.9-3.7,4.4-6.1,7.3l-3.8,4.4l-0.3,0.3
	l-0.1-0.4c-0.5-2.2-1-4-1.3-5.3c-0.1-0.6-0.5-1-0.8-1c-0.2,0-0.3,0-0.5,0.1c0,0,0.1-0.3,0.5-0.3c0.2,0,0.5,0.1,0.7,0.3
	s0.4,0.5,0.4,0.8c0.4,1.3,0.9,3.1,1.5,5.3l-0.4-0.1l3.8-4.5c2.4-2.8,4.6-5.4,6.2-7.2c0.8-0.9,1.5-1.6,1.9-2.1
	S546.2,162.1,546.2,162.2z"/>
<path class="st4" d="M519.9,245c0-0.2-0.1-0.4-0.1-0.7c0-0.5,0-1.1,0-1.9c0-1.7,0-4.1,0-7.1c0.1-6,0.3-14.2,1-23.3
	s1.6-17.3,2.5-23.2c0.4-3,0.8-5.4,1-7l0.3-1.9c0-0.2,0.1-0.4,0.2-0.6c0,0.2,0,0.4,0,0.7c-0.1,0.5-0.1,1.1-0.2,1.9
	c-0.2,1.7-0.5,4.1-0.9,7c-0.7,5.9-1.6,14.1-2.3,23.2s-1,17.3-1.2,23.3c-0.1,2.9-0.1,5.3-0.2,7.1c0,0.8,0,1.4,0,1.9
	C519.9,244.5,519.9,244.8,519.9,245z"/>
<path class="st4" d="M514.8,257.1c-0.4-1.4-0.6-3-0.5-4.4c0-1.5,0.1-3,0.5-4.4c0.1,1.5,0.1,3,0,4.4
	C514.8,255.1,515,257.1,514.8,257.1z"/>
<path class="st4" d="M540.2,242.6c-0.5,0.2-1,0.4-1.6,0.6c-1,0.4-2.6,0.8-4.4,1.4c-4.9,1.4-9.9,2.6-14.9,3.4
	c-5,0.9-10.1,1.6-15.2,1.9c-2,0.1-3.5,0.2-4.6,0.2c-0.6,0-1.1,0-1.7,0c0.6-0.1,1.1-0.2,1.7-0.2l4.6-0.4c3.9-0.4,9.3-1,15.2-2
	s11.2-2.3,14.9-3.3l4.5-1.2C539.1,242.8,539.6,242.7,540.2,242.6z"/>
<path class="st4" d="M493.1,208.9c-0.1,0-0.2-7.4-0.2-16.4s0.2-16.4,0.3-16.4s0.2,7.4,0.2,16.4S493.3,208.9,493.1,208.9z"/>
<path class="st6" d="M560.1,170.6c0,0,7.8,6.7,8.3,10.5c0.4,2.9,8.1,30.5,11.5,42.8c1.1,3.8,0.8,7.9-0.7,11.6l-10,24.7l-16.2-9.6
	l8.1-23.2l-6.7-19.7L560.1,170.6z"/>
<path class="st4" d="M569.3,260.2c-0.1,0-0.2-0.1-0.3-0.1l-0.9-0.5l-3.3-1.9l-11.9-6.9l-0.2-0.1l0.1-0.1c2.3-6.5,5-14.5,8-23.2v0.2
	c-0.9-2.5-1.9-5.2-2.9-7.9c-2.4-6.4-4.6-12.4-6.7-18l0,0c-2-4.3-3.8-8.4-4.3-12.4c-0.2-1.9-0.2-3.7,0.2-5.6c0.3-1.6,0.9-3.1,1.6-4.5
	c1.1-2,2.5-3.8,4.2-5.3c0.4-0.4,0.9-0.8,1.4-1.1c0.2-0.1,0.3-0.2,0.5-0.3c-0.1,0.1-0.3,0.3-0.5,0.4c-0.3,0.2-0.8,0.6-1.3,1.2
	c-1.6,1.5-3,3.3-4,5.3c-0.7,1.4-1.2,2.9-1.5,4.4c-0.3,1.8-0.4,3.7-0.1,5.5c0.5,3.9,2.3,8,4.3,12.3l0,0l6.7,18c1,2.7,2,5.4,2.9,7.9
	v0.1v0.1c-3.1,8.7-5.8,16.6-8.1,23.1l-0.1-0.2l11.7,7l3.2,2l0.8,0.5C569.2,260.1,569.3,260.2,569.3,260.2z"/>
<g class="st12">
	<path d="M527.7,174.2c1.1,0,2.1,0.7,2.4,1.8c0.2,1.1,0,2.2,0.3,3.3s1.2,2.1,2.3,1.9c0.6-0.2,1.2-0.6,1.5-1.2c2.1-2.8,3.8-6,5-9.3
		c0,0.1-5.5,6.4-5.5,6.4c-0.2-1.6-0.6-3.1-1.2-4.6c-0.2-0.5-0.4-1.3-0.9-1.5c-0.8-0.3-1.8,0.8-2.2,1.4
		C528.9,173.1,528.3,173.7,527.7,174.2"/>
</g>
<g class="st12">
	<path d="M518.6,168.5c0.1,3.5,0.8,7,2,10.3c0.1,0.3,0.3,0.6,0.5,0.9c0.3,0.3,0.7,0.3,1,0.1c0.4-0.7,0.7-1.4,1-2.1
		c0.5-1.4,2.6-1.6,2.6-1.6c-0.3-1.6-0.8-3.2-1.4-4.8c-0.2-0.5-0.7-0.9-1.3-0.8c-0.7,0.2-1.3,0.9-1.4,1.6c-0.3,2.6-0.3,3.7-0.7,4.6
		c-1-2.7-1.8-6-2.4-8.4"/>
</g>
<g class="st12">
	<path d="M534,244.2c1-0.7,1.2-2.1,0.5-3l0,0c-0.8-0.9-1.9-1.4-3.1-1.2c-1.2,0.2-2.2,0.7-3.2,1.4s-1.8,1.5-2.8,2.1
		c-2.5,1.5-5.4,1.9-8.3,1.9c-2.9-0.1-5.8,0-8.6,0.4c-2.8,0.5-5.6,2-7,4.5C501.4,250.3,526,248.5,534,244.2z"/>
</g>
<path class="st10" d="M550,280.4c-2.6-1.7-4.8-4-6.4-6.6c0-0.1,0-0.1,0-0.2c-0.1-0.1-0.2-0.1-0.2-0.1c-0.7-1.1-1.3-2.2-1.9-3.3
	c2-1.3,4.6-3.3,1.8-3.7c-3.5-0.5-6-2.2-6.4-3.1c-0.2-0.6,0.2-1.2,0.8-1.4c0.3-0.1,0.7,0,0.9,0.2c1.1,0.5,2.2,0.9,3.4,1.2
	c0.9,0.2,1.9,0.3,2.9,0.2c0.6-0.1,2.7-1.5,4.9-2.5c0.3-0.1,0.7-0.2,1-0.1l0.8-0.1c0.9-0.1,1.7-0.6,2.2-1.4l3.2-6.2l9.8,5.8
	l-7.8,10.8C556.2,273.3,553.2,276.9,550,280.4z"/>
<path class="st8" d="M552.1,281.5c-0.8-0.2-1.6-0.6-2.3-1.1c-1.7-1-3.3-2.3-4.6-3.9c-1.3-1.5-2.5-3.2-3.3-5
	c-0.4-0.7-0.7-1.5-0.8-2.4C543.3,274.4,547.1,278.7,552.1,281.5L552.1,281.5z"/>
<path class="st8" d="M521.2,287.8c0,0-0.1,0-0.3-0.1s-0.5-0.3-0.7-0.5c-0.7-0.7-1.3-1.6-1.6-2.5c-0.4-1.4-0.8-2.8-1.1-4.3
	c-0.4-1.6-0.7-3.4-1.1-5.3c-0.7-3.8-1.3-7.2-1.7-9.6c-0.2-1.2-0.3-2.2-0.4-2.9c-0.1-0.4-0.1-0.7-0.1-1.1c0.1,0.3,0.2,0.7,0.3,1
	l0.5,2.9c0.5,2.5,1.1,5.9,1.8,9.6c0.4,1.9,0.7,3.6,1.1,5.3s0.6,3.1,1,4.3c0.3,0.9,0.7,1.8,1.4,2.5
	C520.8,287.6,521.2,287.7,521.2,287.8z"/>
<path class="st8" d="M520.3,265.3c0,0,0.2-0.1,0.4,0c0.4,0.1,0.7,0.4,0.9,0.8c0.3,0.6,0.3,1.3-0.1,1.8c-0.5,0.7-1.3,1-2.1,0.8
	s-1.3-0.9-1.5-1.7c-0.1-0.6,0.2-1.3,0.6-1.7c0.8-0.7,1.6-0.5,1.5-0.5c-0.5,0.1-0.9,0.4-1.3,0.7c-0.3,0.4-0.5,0.9-0.4,1.4
	c0.1,0.6,0.5,1.1,1.1,1.3c0.6,0.1,1.2-0.1,1.6-0.6c0.3-0.4,0.4-0.9,0.2-1.4C521,265.5,520.3,265.4,520.3,265.3z"/>
<path class="st8" d="M499.1,261.3c0.2,0.7,0.3,1.5,0.3,2.3c-0.1,3.8-2.1,7.4-5.2,9.6c-0.6,0.5-1.3,0.8-2.1,1c0-0.1,0.8-0.5,1.9-1.3
	c2.9-2.3,4.7-5.7,5-9.3C499.1,262.2,499,261.3,499.1,261.3z"/>
<path class="st4" d="M460.3,191.1c0-1.7,0.2-3.3,0.5-5c0.1-1.7,0.4-3.3,0.7-4.9c0.2,1.7,0.1,3.4-0.2,5
	C461.2,187.9,460.8,189.6,460.3,191.1z"/>
<path class="st4" d="M440.4,179.7c0,0.1,0,0.2-0.1,0.4c-0.1,0.3-0.1,0.6-0.3,1c-0.3,0.9-0.6,2.2-1.1,3.8l-4,13.5l-0.2-0.3
	c5.6,1.4,12.5,2.5,19.7,3.9c3.6,0.7,7.1,1.4,10.3,2.2h-0.1l20.3-4.6l5.9-1.3l1.6-0.3c0.2-0.1,0.4-0.1,0.6-0.1
	c-0.2,0.1-0.4,0.1-0.5,0.2l-1.6,0.4l-5.8,1.5l-20.2,4.8h-0.1c-3.2-0.8-6.7-1.5-10.3-2.2c-7.2-1.3-14.1-2.5-19.7-4l-0.2-0.1l0.1-0.2
	c1.7-5.6,3.1-10.2,4.1-13.5c0.5-1.6,0.9-2.8,1.2-3.8c0.1-0.4,0.2-0.7,0.3-1C440.3,179.9,440.3,179.8,440.4,179.7z"/>
<g id="freepik--character-1--inject-297">
	<polygon class="st13" points="160.6,410.7 157.7,464.2 177.1,468.9 181,416.6 	"/>
	<polygon class="st9" points="157.2,463.8 153.9,478.3 176.2,478.3 177.1,468.9 	"/>
	<path class="st4" d="M176.6,476.2c-1.1,0.2-2.2,0.2-3.2,0.2c-2,0-4.8,0-7.8-0.1l-7.8-0.3c-1.1,0-2.2-0.1-3.2-0.3
		c1.1-0.2,2.2-0.2,3.2-0.2c2,0,4.8,0,7.8,0.1l7.8,0.3C174.5,475.9,175.5,476,176.6,476.2z"/>
	<path class="st4" d="M167.2,466.6c0.2,0,0.2,2.1,0,4.7s-0.4,4.7-0.6,4.7s-0.2-2.1,0-4.7S167,466.6,167.2,466.6z"/>
	<g class="st14">
		<polyline class="st7" points="153.9,478.3 176.2,478.3 176.4,476.2 154.3,475.6 153.9,478.1 		"/>
	</g>
	<polygon class="st13" points="234.2,436.8 238.9,472.2 256.1,471 252.5,438.5 	"/>
	<path class="st9" d="M256.3,467.2L256.3,467.2c0,0,19.3,6.5,19.6,10l-36.9,1.1l-0.3-9.6l1.4,0.3C245.5,470,251.2,469.4,256.3,467.2
		z"/>
	<g class="st14">
		<path class="st7" d="M243,470.3c-0.7,0.2-1.2,1-1,1.8c0.2,0.7,1,1.2,1.7,1c0.8-0.3,1.2-1.1,1-1.9c-0.3-0.7-1.2-1.1-1.9-0.8"/>
	</g>
	<g class="st14">
		<path class="st7" d="M239,478.3v-3l35.3,0.1c0,0,1.7,0.7,1.5,1.8L239,478.3z"/>
	</g>
	<path class="st4" d="M256.9,467c0,0.2-0.9,0.3-1.8,0.9s-1.3,1.4-1.5,1.3s0.1-1.1,1.1-1.8S256.9,466.8,256.9,467z"/>
	<path class="st4" d="M260.8,468.4c0,0.2-0.7,0.5-1.3,1.3s-0.7,1.6-0.9,1.6s-0.3-1,0.4-2S260.8,468.3,260.8,468.4z"/>
	<path class="st4" d="M263.1,473c-0.2,0-0.4-0.9,0-1.9s1.3-1.4,1.4-1.3s-0.4,0.7-0.8,1.5S263.3,473,263.1,473z"/>
	<path class="st4" d="M256.5,466.9c-0.6,0.2-1.2,0.2-1.9,0c-0.7-0.1-1.3-0.3-1.9-0.5c-0.4-0.1-0.7-0.3-1.1-0.5
		c-0.2-0.1-0.4-0.3-0.6-0.4c-0.3-0.3-0.3-0.6-0.1-1c0.2-0.3,0.5-0.4,0.8-0.4c0.2,0,0.5,0,0.7,0.1c0.4,0.1,0.8,0.2,1.2,0.4
		c0.6,0.3,1.2,0.6,1.7,1.1c0.9,0.8,1.2,1.4,1.1,1.5s-0.5-0.5-1.4-1.1c-0.5-0.4-1.1-0.7-1.7-0.9c-0.3-0.1-0.7-0.2-1.1-0.3
		c-0.4-0.1-0.7-0.1-0.8,0.1s0,0.1,0,0.2c0.1,0.1,0.3,0.2,0.4,0.3c0.3,0.2,0.7,0.4,1,0.5c0.6,0.3,1.2,0.5,1.8,0.6
		C255.3,466.6,255.9,466.7,256.5,466.9z"/>
	<path class="st4" d="M256.2,467.1c-0.4-0.5-0.5-1.1-0.5-1.8c0-0.7,0-1.3,0.2-2c0.1-0.4,0.3-0.8,0.4-1.1c0.2-0.5,0.6-0.9,1.1-1
		c0.3,0,0.6,0.2,0.8,0.5c0.1,0.2,0.2,0.4,0.2,0.7c0.1,0.4,0.1,0.8,0,1.2c-0.1,0.7-0.3,1.4-0.7,1.9c-0.7,1-1.4,1.2-1.5,1.1
		s0.6-0.5,1.1-1.4c0.3-0.5,0.5-1.1,0.5-1.8c0-0.4,0-0.7-0.1-1.1s-0.2-0.7-0.4-0.6s-0.5,0.3-0.6,0.6c-0.2,0.3-0.3,0.7-0.4,1
		c-0.2,0.6-0.3,1.2-0.3,1.9C256.1,466.4,256.3,467.1,256.2,467.1z"/>
	<path class="st4" d="M175,257.3c0,0-13.6,22.7-13.6,36.3L158,459.2l21.5,5.1l16.4-161.8c0,0,39.7,162.3,41,162.3s20.8-3.5,20.8-3.5
		L228.1,258L175,257.3z"/>
	<path class="st8" d="M183.4,298c0,0.1,0,0.3,0,0.4c0,0.3-0.1,0.7-0.2,1.2c-0.2,1.1-0.4,2.7-0.8,4.7c-0.7,4-1.6,9.9-2.7,17.2
		c-2.2,14.5-4.9,34.6-7.2,56.9s-3.7,42.5-4.5,57.2c-0.4,7.3-0.7,13.3-0.9,17.4c-0.1,2-0.2,3.6-0.2,4.7c0,0.5-0.1,0.9-0.1,1.2
		c0,0.1,0,0.3-0.1,0.4c0-0.1,0-0.3,0-0.4c0-0.3,0-0.7,0-1.2c0-1.1,0.1-2.7,0.1-4.7c0.1-4.1,0.3-10,0.7-17.4
		c0.7-14.7,2-34.9,4.3-57.2s5.1-42.4,7.4-56.9c1.1-7.2,2.1-13.1,2.9-17.1c0.4-2,0.6-3.6,0.9-4.6c0.1-0.5,0.2-0.9,0.2-1.2
		C183.4,298.3,183.4,298.1,183.4,298z"/>
	<path class="st8" d="M217.4,300.8c0.2,0,6.7,36.3,14.6,81.2s14.2,81.2,14.1,81.3s-6.7-36.3-14.6-81.2S217.3,300.8,217.4,300.8z"/>
	<path class="st8" d="M195.1,302.2c0,0-0.1-0.1-0.2-0.4s-0.3-0.7-0.6-1.2c-0.6-1.5-1.2-3.1-1.6-4.7c-1.4-5.3-2-10.7-1.5-16.2
		c0.1-1.6,0.3-3.1,0.6-4.6s0.6-2.9,1-4.2c0.8-2.6,1.5-5,2.2-7s1.3-3.5,1.7-4.6l0.5-1.2c0.1-0.1,0.1-0.3,0.2-0.4c0,0.2,0,0.3-0.1,0.5
		l-0.4,1.3c-0.4,1.2-0.9,2.8-1.5,4.7s-1.4,4.3-2.1,7c-0.4,1.3-0.7,2.7-1,4.2s-0.4,3-0.6,4.6c-0.4,5.4,0.1,10.8,1.4,16
		c0.5,2,1.1,3.6,1.4,4.7C194.8,301,195,301.6,195.1,302.2z"/>
	<path class="st8" d="M201.2,274.4v0.3c0,0.2,0,0.5,0.1,0.9c0,0.8,0.1,1.9,0.1,3.3c0.1,2.8,0.2,6.8,0.4,11.5l-0.1-0.2l8.3,3.4h-0.2
		l6.7-4.1l0.4-0.3l-0.1,0.2c0.5-5.5,1-10.6,1.4-15l0.2,0.2l-12.4-0.1l-3.5-0.1h-0.9L201.2,274.4c0.4,0,0.8,0,1.2,0l3.5-0.1l12.5-0.1
		h0.2v0.2c-0.4,4.4-0.8,9.6-1.3,15v0.1l-0.1,0.1l-0.4,0.3L210,294l-0.1,0.1h-0.1l-8.3-3.4h-0.1v-0.1c-0.1-4.8-0.1-8.8-0.2-11.7
		c0-1.3,0-2.4,0-3.2C201.2,275.1,201.2,274.8,201.2,274.4z"/>
	<path class="st8" d="M170.1,270c0,0,0,0.4-0.1,1.1s-0.3,1.8-0.5,3c-0.4,2.6-1,6.3-1.7,10.6l-0.1-0.2l6.2,4.6h-0.2l7.6-2.1l0.4-0.1
		l-0.2,0.2c1.4-5,2.8-9.6,4-13.6l0.2,0.3l-11.2-2.7l-3.2-0.8C170.5,270.1,170.1,270,170.1,270c0.4,0.1,0.7,0.1,1.1,0.2l3.2,0.7
		l11.4,2.5l0.2,0.1l-0.1,0.2l-4,13.6v0.1h-0.1l-0.4,0.1l-7.6,2.1h-0.1l-0.1-0.1l-6.2-4.6l-0.1-0.1v-0.1c0.8-4.4,1.5-8.1,2-10.8
		c0.2-1.2,0.4-2.2,0.6-3C169.9,270.7,170,270.3,170.1,270z"/>
	<path class="st8" d="M213.5,299c-3,0.9-6.1,1.7-9.1,2.2c-3.1,0.7-6.1,1.3-9.3,1.7c3-0.9,6.1-1.7,9.1-2.2
		C207.3,300,210.4,299.4,213.5,299z"/>
	<path class="st8" d="M186.8,299.7c-0.8,0.1-1.6,0.1-2.3,0c-1.9-0.2-3.8-0.4-5.6-0.9c-1.8-0.4-3.7-1-5.4-1.7c-0.7-0.2-1.5-0.6-2.1-1
		c0.8,0.2,1.5,0.4,2.2,0.7c1.4,0.4,3.3,1,5.4,1.5s4.1,0.8,5.5,1C185.3,299.4,186,299.5,186.8,299.7z"/>
	<path class="st4" d="M184.4,127.2c0.7,2.1-1.8,4-4,4.5s-4.9,0.8-5.9,2.9c-0.9,1.8,0,4-0.8,5.8c-1.5,3.4-7.7,2.7-8.9,6.2
		c-0.9,2.5,1.4,4.9,1.1,7.5c-0.2,2.2-2.3,3.7-4,5s-3.6,3.2-3.4,5.4c0.3,2.5,3.4,4.3,3.1,6.8s-3.6,3.7-4.1,6.1
		c-0.6,2.9,3.1,4.8,4.3,7.5c0.9,2.1,0.3,4.8,1.9,6.5s4.3,1.4,6.6,0.9l22.8-4.8c-1.5-3.6-0.1-7.8,2.1-11.1s5.1-6,7-9.4s2.5-8,0-11.1"
		/>
	<path class="st4" d="M224.4,145.4c-0.2-1.2-0.4-2.4-0.8-3.6c-0.2-0.6-0.5-1.1-0.9-1.5s-1-0.2-1.4,0.4c-1.4,2.9-1.4,6.3,0,9.2
		c0.4,0.6,1,0.9,1.4,0.5s0.7-0.9,0.9-1.5C224,147.8,224.3,146.6,224.4,145.4c0.1,0.3,0.1,0.7,0.1,1c0,0.9-0.2,1.8-0.4,2.7
		c-0.2,0.6-0.5,1.2-1,1.7c-0.3,0.3-0.8,0.4-1.2,0.3c-0.4-0.2-0.8-0.4-1-0.8c-1.5-3.1-1.5-6.7,0-9.8c0.2-0.4,0.6-0.7,1-0.8
		s0.9,0,1.2,0.3c0.5,0.5,0.8,1.1,1,1.7c0.3,0.9,0.4,1.8,0.4,2.7C224.6,144.7,224.5,145.1,224.4,145.4z"/>
	<path class="st4" d="M187.3,166.4c-4.1-7-5.3-16.2-6.3-24.2c-0.5-3.8-1.4-9.1,1.3-11.5c2.9-2.5,3.1-6.4,6.4-8.4s7.7-2.1,10.8,0.1"
		/>
	<path class="st13" d="M198.7,191L198.7,191c6.1,0.5,11.5-4.1,12-10.3c0-0.1,0-0.3,0-0.4c0.3-6.1,0.5-12.2,0.5-12.2s9.2-0.8,9.9-10
		s0.4-30.2,0.4-30.2l0,0c-10.3-5.2-22.6-4.4-32.1,2l0.5,32.1l-0.1,17.3C190,185.1,193,190.5,198.7,191z"/>
	<path class="st4" d="M212.1,147c-1.6-1.9-4.1-2.7-6.2-1.4c-2.1,1.5-2.9,4.3-1.8,6.6c1,1.7,2.6,2.9,4.5,3.4c1.7,0.4,2.9,2,2.7,3.8
		c-0.3,2.3-4.1,3.1-5.8,5c-2.7,2.9-8.5,4.2-12.5,4.6s-3.4,0.5-5.7-2.7c-1.5-2.2-2.3-4.8-2.2-7.4c-0.1-6.7-0.2-13.4-0.4-20.2
		c-0.2-2.4,0-4.9,0.5-7.2c0.5-2.4,1.8-4.6,3.8-6c2.2-1.5,5-1.6,7.6-2.4c3.2-1,5.9-3.1,8.8-4.6s6.6-2.4,9.6-0.9
		c2.1,1.1,3.5,3.2,5.6,4.4c2.9,1.7,7,1.3,8.4,5.7c0.5,1.5,0.5,3.1-0.1,4.6c-2,5.9-9.3,8.2-14.6,5.7c-0.1,1,0.9,3.2-0.2,6.4
		C213.8,145.4,213.7,146.9,212.1,147"/>
	<path class="st15" d="M210.4,152.7c0,0,0,0.2-0.1,0.4c-0.2,0.3-0.6,0.5-1,0.5c-1.3-0.1-2.4-1.2-2.4-2.5c0-0.7,0.2-1.4,0.7-1.9
		c0.4-0.4,0.9-0.7,1.4-0.8c0.9-0.2,1.5,0.2,1.4,0.2s-0.6,0-1.3,0.2c-1,0.3-1.6,1.2-1.6,2.2s0.7,1.9,1.7,2.1
		C210.1,153.2,210.4,152.6,210.4,152.7z"/>
	<path class="st4" d="M224.5,145c-2,0.6-4,1.1-6.1,1.3c-2.1,0.4-4.1,0.7-6.2,0.7c0-0.2,2.7-0.8,6.1-1.3
		C220.3,145.3,222.4,145,224.5,145z"/>
	<path class="st4" d="M188,175.2c0.6,1.1,1.9,1.7,3.2,1.3c1.2-0.4,2.2-1.1,3.1-2.1c0.8-0.9,1.9-1.7,3-2.1c2.4-0.7,5.4,0.9,7.4-0.6
		c1.9-1.4,1.6-4.5,3.4-5.9c1-0.8,2.3-0.9,3.3-1.6c1.9-1.4,1.5-4.4,0-6.1s-3.9-2.4-6.1-3l-19.6,8.4L188,175.2z"/>
	<path class="st8" d="M211.3,139.9c0,0-0.1,0.1-0.2,0.1c-0.2,0.1-0.3,0.2-0.5,0.3c-0.7,0.3-1.4,0.6-2.1,0.8
		c-1.2,0.3-2.4,0.5-3.6,0.6c-1.6,0.1-3.1,0.3-4.7,0.6c-1.9,0.3-3.5,1.3-4.8,2.6c-1.3,1.5-1.8,3.7-2.8,5.9c-0.5,1.1-1.3,2.1-2.3,2.9
		c-1,0.7-2.2,1.3-3.4,1.7c-2.4,0.8-5.1,1.3-7.1,3c-1,0.8-1.6,1.9-1.8,3.2c-0.1,1.3-0.1,2.5,0,3.8s-0.1,2.6-0.7,3.8
		c-0.6,1.1-1.6,2-2.6,2.6c-2,1.2-4.2,1.9-5.9,2.9c-0.8,0.5-1.6,1.2-2.1,1.9s-0.8,1.6-0.8,2.5c0,1.6,0.2,3.1,0.6,4.6
		c0.3,1.2,0.4,2.4,0.3,3.6c0,0.8-0.3,1.5-0.6,2.2c-0.1,0.2-0.3,0.4-0.5,0.6c0.6-0.8,0.9-1.8,0.9-2.8c0-1.2-0.1-2.4-0.4-3.5
		c-0.5-1.5-0.7-3.1-0.7-4.7c0-1,0.3-1.9,0.8-2.7c0.6-0.9,1.3-1.6,2.2-2.1c1.8-1.2,3.9-1.8,5.9-3c2.2-1.1,3.4-3.4,3.1-5.8
		c-0.1-1.3-0.1-2.6,0-3.9c0.2-1.4,0.9-2.7,2-3.6c2.2-1.8,4.9-2.3,7.3-3.1c1.2-0.4,2.3-0.9,3.3-1.6c0.9-0.7,1.6-1.6,2.1-2.7
		c1-2,1.5-4.3,2.9-5.9c1.4-1.4,3.2-2.4,5.1-2.7c1.6-0.3,3.1-0.5,4.7-0.6c1.2-0.1,2.4-0.2,3.5-0.5
		C209.4,140.6,210.4,140.3,211.3,139.9z"/>
	<path class="st8" d="M206,143.1c0,0.1-0.7,0-1.9,0.3c-1.7,0.4-3.2,1.3-4.4,2.6c-0.8,0.9-1.4,1.9-1.8,3.1c-0.3,1.3-0.5,2.7-0.4,4.1
		c0.1,1.6-0.1,3.2-0.7,4.7c-0.4,0.8-1,1.5-1.7,1.9c-0.7,0.5-1.4,0.9-2.2,1.2c-0.7,0.3-1.4,0.8-1.9,1.4c-0.5,0.6-0.7,1.3-0.8,2.1
		c-0.1,1.5,0.2,3.2-0.5,4.7c-0.7,1.3-1.8,2.3-3.1,3c-1.1,0.7-2.3,1.2-3.2,1.8c-0.9,0.5-1.6,1.1-2.3,1.9c-0.5,0.6-0.8,1.3-1,2
		c-0.1,0.6-0.1,1.3,0,1.9c-0.1-0.1-0.2-0.3-0.2-0.5c-0.1-0.5-0.1-1-0.1-1.5c0.1-0.8,0.5-1.5,0.9-2.1c0.6-0.8,1.4-1.5,2.3-2
		c1-0.6,2.1-1.1,3.2-1.8c1.2-0.7,2.2-1.6,2.8-2.8c0.6-1.3,0.4-2.8,0.4-4.5c0-0.9,0.3-1.7,0.9-2.4c0.6-0.7,1.3-1.2,2.1-1.5
		c1.5-0.8,3.1-1.4,3.7-2.9c0.5-1.4,0.8-2.9,0.6-4.4c-0.1-1.4,0.1-2.9,0.4-4.2c0.4-1.2,1-2.3,1.9-3.2c1.2-1.3,2.9-2.2,4.6-2.6
		c0.5-0.1,1-0.1,1.4-0.1C205.7,143.1,205.8,143.1,206,143.1z"/>
	<polyline class="st6" points="213.5,176.6 211.1,171.8 190.5,171 187.3,177.3 213.1,177.3 	"/>
	<path class="st8" d="M284.2,220.7c-0.1-0.7,5.4-29.8,7-37.8c0.2-0.9-0.4-1.8-1.4-2c-0.1,0-0.2,0-0.3,0h-41.2
		c-0.8,0-1.5,0.5-1.6,1.3l-8.4,35.6l-20.8,1.6l0.7,1.4L284.2,220.7z"/>
	<polygon class="st0" points="282.4,218.1 289.1,182.8 248.6,183.1 239.7,218.1 	"/>
	<path class="st4" d="M239.6,218.2L239.6,218.2l8.9-35.1l0,0l40.6-0.2l0,0l-6.7,35.3l0,0L239.6,218.2z M248.6,183.2l-8.9,35
		l42.7-0.1l6.7-35.2L248.6,183.2z"/>
	<path class="st4" d="M282.4,218.3c0,0.1-11.9,0.3-26.5,0.3s-26.5-0.1-26.5-0.3s11.9-0.3,26.5-0.3S282.4,218.2,282.4,218.3z"/>
	<path class="st8" d="M279.6,209.4c-0.2,0-0.3,0-0.5,0l-1.5,0.1l-5.6,0.1c-4.7,0-11.2,0.1-18.4,0.1h-6.2l0.1-0.3
		c1.4-5.6,2.7-10.4,3.6-14c0.4-1.7,0.8-3,1.1-4.1c0.1-0.5,0.3-1,0.5-1.4c-0.1,0.5-0.2,1-0.3,1.5c-0.2,1-0.6,2.4-1,4.1
		c-0.9,3.6-2.1,8.4-3.4,14l-0.2-0.3h5.9c7.2,0,13.7,0,18.4,0.1l5.6,0.1h1.5C279.2,209.3,279.4,209.3,279.6,209.4z"/>
	<polygon class="st6" points="250.2,208.1 251,204.7 256.2,204.7 255.6,208.1 	"/>
	<polygon class="st6" points="257.3,208.1 258.9,201.4 264.1,201.4 262.6,208.1 	"/>
	<polygon class="st6" points="264.4,208.1 265.2,204.7 270.4,204.7 269.7,208.1 	"/>
	<polygon class="st6" points="271.5,208.1 274.5,195.1 279.7,195.1 276.8,208.1 	"/>
	<path class="st8" d="M254.3,211.9c-0.7,0.2-1.4,0.3-2.1,0.2c-1.2,0-2.1-0.1-2.1-0.3C251.5,211.5,253,211.5,254.3,211.9L254.3,211.9
		z"/>
	<path class="st8" d="M261.2,211.9c-0.7,0.2-1.4,0.3-2.1,0.2c-0.7,0.1-1.4,0-2.1-0.3c0.7-0.2,1.4-0.3,2.1-0.2
		C259.8,211.5,260.5,211.6,261.2,211.9z"/>
	<path class="st8" d="M268.1,211.9c-0.7,0.2-1.4,0.3-2.1,0.2c-0.7,0.1-1.4,0-2.1-0.3c0.7-0.2,1.4-0.3,2.1-0.2
		C266.7,211.5,267.4,211.6,268.1,211.9z"/>
	<path class="st8" d="M275,211.9c-1.4,0.3-2.8,0.3-4.2,0C272.2,211.5,273.6,211.5,275,211.9z"/>
	<path class="st8" d="M264.9,188.4c-1.9,0.3-3.9,0.3-5.8,0.3c-2,0.1-3.9,0-5.8-0.3c1.9-0.3,3.9-0.3,5.8-0.3
		C261,188,262.9,188.1,264.9,188.4z"/>
	<path class="st8" d="M258.7,186.9c-1.7,0.4-3.5,0.4-5.2,0C255.2,186.6,257,186.6,258.7,186.9z"/>
	<path class="st6" d="M247.5,242.1l23.9-17.3l-0.9-1.4c-1.3-2.1-3.3-3.8-5.6-4.7l-3.7,0.7l-22.1,3.4L247.5,242.1z"/>
	<polygon class="st6" points="162.7,238.1 182.5,230.2 178.1,213.8 162,219.3 	"/>
	<path class="st6" d="M246.7,242.6c4.9-2.4,6.2-8.3,3.8-13.3L230,185.4c-0.5-1.1-1.2-2.1-2.1-2.8c-4.7-4.1-10.8-6.2-17-5.8
		l-21.4-0.6c0,0-16.8,0-23.1,13.3c-0.5,1-10.2,20.4-16.7,33.2c-2.8,5.4-0.6,12.1,4.9,14.8c0.4,0.2,0.8,0.4,1.2,0.5l0,0
		c5.5,2,11.5-0.5,13.9-5.9l7-15.6l4.4,22.4l-6.4,18.4l53.1,0.7l-4.1-24.7l-1.3-17.6l10.8,22.3c2.4,5,8.4,7.1,13.3,4.7
		C246.6,242.7,246.7,242.6,246.7,242.6L246.7,242.6z"/>
	<g class="st16">
		<path d="M182.8,238.4c4,3,9.9,2,14.9,1.2c5-0.7,9.6-3.2,13-7c1.6-1.7,2.4-3.9,2.4-6.1c-0.2-2.2-2.2-4.4-4.4-4.1
			c-2.6,0.3-3.8,3.2-5,5.5c-4.2,7.3-12.5,11.2-20.7,9.7C183,237.5,182.1,237.9,182.8,238.4z"/>
	</g>
	<g class="st16">
		<path d="M215.6,203.8c1.2,10.1,0.7,9.3,2.8,19.3c1,4.9,2.3,10,5.7,13.7l-1.7-21.1L215.6,203.8z"/>
	</g>
	<polygon class="st6" points="174.7,257.3 173.2,252.8 177.1,250.2 225.9,246.2 229.3,252.6 227.8,258 	"/>
	<path class="st4" d="M184.8,173.7c-3.7,1.5-5.6,5.7-4.1,9.4c0.2,0.5,0.5,1,0.8,1.4c0.5,0.6,0.8,1.3,0.9,2c-0.1,1.8-3,1.9-3.9,3.4
		c-0.5,1.1-0.2,2.5,0.8,3.2c0.9,0.8,1.9,1.4,3,2s1.8,1.7,1.8,2.9c1,0,1.6-1.3,1.5-2.3c-0.3-1-0.7-1.9-1.2-2.8
		c-0.6-0.9-0.6-2-0.1-2.9c0.7-0.9,2-1,3.1-1.4c2.1-0.9,3.2-3.4,2.3-5.6c-0.7-1.5-2.2-2.9-1.4-4.4c0.4-0.8,1.4-1.1,2.1-1.5
		c2.7-1.5,3.7-4.9,2.2-7.6c-0.4-0.7-0.9-1.2-1.5-1.7"/>
	<path class="st4" d="M176.5,218.6c-0.3,0.9-0.6,1.7-1.1,2.5c-0.7,1.5-1.8,3.6-3.1,5.8s-2.6,4.1-3.6,5.5c-0.5,0.8-1,1.5-1.7,2.1
		c0.4-0.8,0.8-1.6,1.4-2.4c0.9-1.4,2.1-3.4,3.4-5.6s2.4-4.2,3.2-5.7C175.5,220.1,176,219.3,176.5,218.6z"/>
	<path class="st4" d="M171.8,227c0.3,2.5-0.5,5-2.2,6.9c-0.1-0.1,0.8-1.5,1.4-3.4S171.7,227,171.8,227z"/>
	<path class="st4" d="M249.6,227.7c-0.1,0.1-4.3-8.6-9.3-19.4s-8.9-19.6-8.8-19.6s4.3,8.6,9.3,19.4S249.8,227.6,249.6,227.7z"/>
	<path class="st4" d="M224.3,182.8c0,0.1-0.9,0.4-2.2,1.2c-3.5,2.2-5.9,5.7-6.4,9.8c-0.2,1.5-0.2,2.5-0.2,2.5
		c-0.2-0.8-0.3-1.7-0.1-2.6c0.4-4.2,2.9-8,6.6-10.1C222.7,183.3,223.5,183,224.3,182.8z"/>
	<path class="st4" d="M181,239c-0.1,0-2.5-10.1-5.3-22.7s-5-22.8-4.8-22.8s2.5,10.1,5.3,22.7S181.1,239,181,239z"/>
	<polyline class="st13" points="271.4,224.8 281.1,220.7 268.2,220.7 271,224.3 	"/>
	<path class="st4" d="M251.5,225.9c-0.9-0.7-1.6-1.4-2.4-2.2c-0.8-0.7-1.6-1.5-2.3-2.3c1,0.4,1.9,1.1,2.6,1.9
		C250.4,224,251,224.9,251.5,225.9z"/>
	<path class="st4" d="M233.6,238.8c-0.3-0.4-0.6-0.9-0.8-1.4c-0.5-0.9-1.2-2.2-2-3.8c-1.7-3.2-3.9-7.7-6.4-12.6s-4.7-9.4-6.4-12.6
		c-0.8-1.5-1.5-2.8-2-3.8c-0.3-0.5-0.5-0.9-0.7-1.4c0.3,0.4,0.6,0.9,0.9,1.3c0.5,0.9,1.2,2.1,2.1,3.7c1.8,3.2,4.1,7.6,6.5,12.6
		s4.6,9.4,6.2,12.7l1.9,3.9C233.3,237.8,233.5,238.3,233.6,238.8z"/>
	<path class="st4" d="M214.5,225.2c0,0,0,0.1,0,0.4c0,0.3-0.1,0.7-0.2,1c-0.3,1.2-0.7,2.4-1.3,3.5c-2.1,3.5-5.2,6.4-9,8
		c-3.7,1.6-7.7,2.6-11.7,2.9c-1.5,0.2-2.8,0.3-3.6,0.3c-0.4,0.1-0.9,0.1-1.3,0c0.4-0.1,0.9-0.2,1.3-0.2l3.6-0.5
		c4-0.4,7.9-1.5,11.5-3c3.7-1.6,6.7-4.3,8.9-7.7C213.5,228.4,214.1,226.8,214.5,225.2z"/>
	<path class="st4" d="M203.8,251c0,0.1-6.6,0.7-14.7,1.3s-14.7,0.9-14.8,0.8s6.6-0.7,14.7-1.3S203.8,250.8,203.8,251z"/>
	<path class="st4" d="M212.3,247c1.1,3.2,1.4,6.7,1.1,10.1c-0.1,0-0.2-2.3-0.5-5S212.2,247,212.3,247z"/>
	<path class="st4" d="M215.7,243.8c0.2,0.6,0.4,1.3,0.4,2c0.4,3.3,0.2,6.7-0.7,9.9c-0.1,0.7-0.4,1.3-0.7,1.9c-0.2,0,0.8-3,1-6.9
		S215.6,243.8,215.7,243.8z"/>
	<path class="st4" d="M213.5,177c-3.5,0.1-7.1,0-10.6-0.3c-5.9-0.3-10.6-0.7-10.6-0.9s4.8,0,10.6,0.3S213.5,176.8,213.5,177z"/>
</g>
<g id="freepik--Chart--inject-297">
	<path class="st4" d="M310.4,348.9c-0.3,0-0.6,0.1-0.9,0.1h-2.4l-9,0.1l-29.5,0.1h-2.4v-0.3c0-11,0.1-20.9,0.1-28.1
		c0-3.5,0.1-6.4,0.1-8.5c0-1,0-1.7,0-2.3c0-0.3,0-0.5,0.1-0.8c0,0.3,0,0.5,0,0.8c0,0.6,0,1.3,0,2.3c0,2,0,4.9,0.1,8.5
		c0,7.2,0,17.1,0.1,28.1l-0.3-0.3h2.1l29.5,0.1l9,0.1l2.4,0.1C309.8,348.8,310.1,348.8,310.4,348.9z"/>
	<path class="st4" d="M305.5,318.8c-0.4,0.4-0.8,0.9-1.3,1.2l-3.7,3.2c-3.1,2.7-7.5,6.5-12.4,10.6l-0.7,0.6l-0.2,0.2l-0.2-0.2
		l-5.5-5.1h0.3l-8.1,6.7l-2.3,1.9c-0.3,0.2-0.6,0.5-0.9,0.6c0.2-0.3,0.5-0.5,0.8-0.8l2.2-2l7.9-6.8l0.2-0.1l0.2,0.1l5.5,5.1h-0.4
		l0.7-0.6c4.9-4.1,9.2-7.8,12.5-10.4l3.8-3.1C304.5,319.5,305,319.1,305.5,318.8z"/>
	<path class="st4" d="M305.5,328c-0.2-0.9-0.2-1.8-0.2-2.7c0-1.7-0.1-4-0.1-6.7l0.3,0.3H305c-2.7,0-5.2,0-7-0.1c-1,0-1.9,0-2.9-0.2
		c1-0.1,1.9-0.2,2.9-0.2c1.8-0.1,4.3-0.1,7-0.1h0.8v0.3c0,2.6,0,5-0.1,6.7C305.8,326.2,305.7,327.1,305.5,328z"/>
</g>
<g id="freepik--Clock--inject-297">
	<ellipse class="st2" cx="220.2" cy="66.2" rx="21.7" ry="21.7"/>
	<path class="st4" d="M198.5,64.7c0,0.1,0,0.2,0,0.3c0,0.3,0,0.6,0,1v0.8c0,0.3,0,0.6,0.1,0.9c0.1,0.8,0.2,1.5,0.3,2.3
		c0.4,2.1,1.1,4.1,2.1,6c1.2,2.4,2.9,4.6,5,6.4c2.5,2.2,5.5,3.8,8.8,4.6c3.7,0.9,7.6,0.9,11.3-0.2c1-0.3,1.9-0.6,2.9-1.1
		c0.9-0.4,1.9-0.9,2.7-1.5c0.9-0.6,1.8-1.2,2.6-1.9c0.8-0.7,1.6-1.5,2.3-2.3c1.5-1.7,2.6-3.6,3.5-5.7c1.8-4.3,2.1-9.1,0.9-13.6
		c-0.6-2.2-1.5-4.2-2.7-6.1c-0.6-0.9-1.3-1.8-2-2.6s-1.5-1.5-2.3-2.2s-1.6-1.3-2.5-1.9c-0.9-0.5-1.8-1-2.7-1.4
		c-3.5-1.6-7.4-2.1-11.2-1.7c-6.1,0.7-11.7,4.1-15.2,9.2c-1.2,1.7-2.1,3.6-2.8,5.6c-0.3,0.7-0.5,1.5-0.6,2.2
		c-0.1,0.3-0.1,0.6-0.2,0.9s-0.1,0.5-0.1,0.8c-0.1,0.4-0.1,0.8-0.1,1C198.5,64.5,198.5,64.6,198.5,64.7c0-0.1,0-0.2,0-0.4
		c0-0.3,0.1-0.6,0.1-1c0-0.2,0.1-0.5,0.1-0.8s0.1-0.6,0.2-0.9c0.1-0.8,0.3-1.5,0.6-2.2c0.6-2,1.5-3.9,2.7-5.7
		c3.6-5.2,9.2-8.6,15.4-9.4c3.9-0.5,7.9,0.1,11.5,1.7c1,0.4,1.9,0.9,2.8,1.4c0.9,0.6,1.8,1.2,2.6,1.9c1.7,1.4,3.2,3.1,4.3,5
		c1.2,1.9,2.2,4,2.8,6.2c1.2,4.6,0.9,9.5-0.9,13.8c-0.9,2.1-2.1,4.1-3.5,5.8c-0.7,0.8-1.5,1.6-2.3,2.4c-0.8,0.7-1.7,1.4-2.6,2
		c-0.9,0.6-1.8,1.1-2.8,1.5s-1.9,0.8-2.9,1.1c-10.1,2.9-20.9-1.8-25.6-11.2c-1-1.9-1.6-3.9-2-6c-0.1-0.8-0.2-1.5-0.3-2.3
		c0-0.3,0-0.6-0.1-0.9v-0.8c0-0.4,0-0.8,0-1C198.4,65,198.4,64.9,198.5,64.7z"/>
	<path class="st4" d="M230.1,66.8c-0.3,0-0.5,0.1-0.8,0.1h-2.1c-1.8,0-4.3,0-7.1,0H220v-1.5c0-3.2,0-6,0-8.1c0-1,0-1.8,0-2.4
		c0-0.3,0-0.6,0.1-0.9c0,0.3,0.1,0.6,0.1,0.9c0,0.6,0,1.4,0,2.4c0,2.1,0,4.9,0,8.1v1.4l-0.1-0.1c2.8,0,5.3,0,7.1,0h2.1
		C229.4,66.7,229.7,66.8,230.1,66.8z"/>
	<path class="st4" d="M220.1,48c0.1,0.6,0.2,1.2,0.1,1.8c0,0.6,0,1.2-0.1,1.8c-0.1-0.6-0.2-1.2-0.1-1.8
		C219.9,49.2,220,48.6,220.1,48z"/>
	<path class="st4" d="M230,50.9c-0.3,0.5-0.7,1-1.2,1.4c-0.4,0.5-0.9,0.9-1.4,1.2c0.3-0.5,0.7-1,1.2-1.4
		C229,51.6,229.5,51.2,230,50.9z"/>
	<path class="st4" d="M235.8,57.2c-0.5,0.4-1,0.7-1.5,1c-0.5,0.4-1,0.6-1.6,0.9c0.4-0.5,0.9-0.8,1.4-1.1
		C234.7,57.6,235.2,57.4,235.8,57.2z"/>
	<path class="st4" d="M239.2,66.6c-1.7,0.2-3.3,0.2-5,0C235.9,66.5,237.6,66.5,239.2,66.6z"/>
	<path class="st4" d="M204.7,66.3c-0.8,0.1-1.6,0.2-2.4,0.1c-0.8,0-1.6,0-2.3-0.1c0.8-0.1,1.6-0.2,2.4-0.1
		C203.1,66.1,203.9,66.2,204.7,66.3z"/>
	<path class="st4" d="M207.1,73.3c-0.5,0.6-1.1,1.1-1.8,1.6c-0.6,0.5-1.2,1-1.9,1.4c0.5-0.6,1.1-1.1,1.8-1.6
		C205.8,74.2,206.4,73.7,207.1,73.3z"/>
	<path class="st4" d="M213.2,78.7c-0.3,0.7-0.7,1.4-1.2,2.1c-0.4,0.7-0.8,1.4-1.3,2c0.2-0.8,0.6-1.5,1.1-2.2
		C212.1,79.9,212.6,79.3,213.2,78.7z"/>
	<path class="st4" d="M220.1,85.7c-0.1-0.8-0.2-1.7-0.1-2.5c0-0.8,0-1.7,0.1-2.5c0.1,0.8,0.2,1.7,0.1,2.5
		C220.3,84,220.3,84.9,220.1,85.7z"/>
	<path class="st4" d="M230.9,82.4c-0.8-0.3-1.5-0.8-2.1-1.4c-0.7-0.5-1.2-1.1-1.7-1.8c0.6,0.5,1.3,1,1.9,1.6
		C229.7,81.2,230.3,81.8,230.9,82.4z"/>
	<path class="st4" d="M235.9,76.9c-0.6-0.4-1.2-0.9-1.6-1.4c-0.6-0.5-1-1-1.5-1.7c0.6,0.4,1.2,0.9,1.6,1.4
		C235,75.8,235.5,76.3,235.9,76.9z"/>
	<path class="st4" d="M206.9,59.6c-0.5-0.4-1-0.8-1.4-1.3c-0.5-0.4-0.9-0.9-1.3-1.5c0.5,0.3,1,0.8,1.5,1.3
		C206.1,58.6,206.6,59.1,206.9,59.6z"/>
	<path class="st4" d="M213.1,53.1c-0.5-0.3-1-0.8-1.4-1.2c-0.5-0.4-0.9-0.9-1.2-1.4c0.5,0.3,1,0.7,1.4,1.2
		C212.4,52,212.8,52.5,213.1,53.1z"/>
</g>
</svg>
