<?xml version="1.0" encoding="utf-8"?>
<!-- Generator: Adobe Illustrator 23.0.1, SVG Export Plug-In . SVG Version: 6.00 Build 0)  -->
<svg version="1.1" id="Layer_1" xmlns="http://www.w3.org/2000/svg" xmlns:xlink="http://www.w3.org/1999/xlink" x="0px" y="0px"
	 viewBox="0 0 950 500" style="enable-background:new 0 0 950 500;" xml:space="preserve">
<style type="text/css">
	.st0{fill:#00858E;}
	.st1{fill:#FFC93C;}
	.st2{fill:#FFBE9D;}
	.st3{fill:#090909;}
	.st4{fill:#EEB32F;}
	.st5{fill:#FFF9F3;}
	.st6{fill:#EFB430;}
	.st7{fill:#FFF9F3;stroke:#090909;stroke-linecap:round;stroke-linejoin:round;stroke-miterlimit:10;}
	.st8{clip-path:url(#SVGID_2_);fill:#EEB32F;}
	.st9{fill:none;stroke:#090909;stroke-linecap:round;stroke-linejoin:round;stroke-miterlimit:10;}
	.st10{fill:none;}
</style>
<rect x="108.5" y="475.9" class="st0" width="181.8" height="24.3"/>
<g>
	<path class="st1" d="M322.3,319.9c4.9,0.1,8.1-5,5.9-9.3l-33.9-68.4c-0.7-1.7-1.5-3.4-2.5-5v0l0,0c-7-12-19.7-20.4-34.5-21.2
		l-96-5.4l0,0l-0.7,0l-0.1,0c-0.1,0-0.2,0-0.3,0l-15.9,0.3c-27.8,0.5-52.8,18.5-60.5,45.2c-0.3,1.1-0.6,2.2-0.8,3.3L63,326.9
		c-1.4,4.6,2,9.3,6.8,9.6l47.8,2.4l-15.4,127.7c-0.6,5,3.3,9.4,8.3,9.4h181.1c4.1,0,7.4-3.4,7.3-7.5l-0.1-149.4L322.3,319.9z"/>
	<path class="st1" d="M291.7,476.6H110.5c-2.6,0-5-1.1-6.7-3c-1.7-1.9-2.5-4.5-2.2-7L117,339.4L69.7,337c-2.4-0.1-4.7-1.3-6.1-3.4
		c-1.4-2-1.8-4.5-1.1-6.9l19.9-67.5c0.3-1.1,0.5-2.2,0.8-3.3c7.6-26.3,32.6-45.1,61-45.6l16-0.3c0.1,0,0.1,0,0.2,0l0.2,0l0.7,0
		c0.1,0,0.2,0,0.2,0.1l95.8,5.4c14.5,0.8,27.6,8.8,34.9,21.4c0.9,1.6,1.8,3.3,2.5,5.1l33.9,68.3c1.1,2.2,1,4.8-0.4,6.8
		s-3.6,3.3-6,3.2l0,0l-22.8-0.6l0.1,148.9c0,2.1-0.8,4.1-2.3,5.6C295.8,475.8,293.8,476.6,291.7,476.6z M160.4,211.1l-0.1,0
		c-0.1,0-0.1,0-0.2,0l-15.9,0.3c-27.9,0.5-52.6,19-60.1,44.9c-0.3,1.1-0.6,2.2-0.8,3.2l-19.9,67.6c-0.6,2.1-0.2,4.3,1,6
		s3.2,2.8,5.3,2.9l47.8,2.4c0.1,0,0.3,0.1,0.4,0.2c0.1,0.1,0.1,0.2,0.1,0.4l-15.4,127.7c-0.3,2.2,0.4,4.5,1.9,6.2s3.7,2.7,5.9,2.7
		h181.1c1.9,0,3.6-0.7,4.9-2c1.3-1.3,2-3.1,2-4.9l-0.1-149.4c0-0.1,0-0.3,0.1-0.4c0.1-0.1,0.2-0.1,0.4-0.1l23.3,0.7
		c2.1,0.1,4-1,5.2-2.7c1.1-1.8,1.3-4,0.3-5.8l-33.9-68.4c-0.7-1.7-1.5-3.4-2.5-5c-7.2-12.3-19.9-20.2-34.1-21l-96-5.4
		c-0.1,0-0.1,0-0.2,0l-0.5,0L160.4,211.1z"/>
</g>
<g>
	<path class="st2" d="M351,258c5.9-10.8,7.9-23.8,2.6-35.1l-6.8,2.5c0,0-6.5-18.6-7.5-32.2c-2.6-4.6-21.4,5.1-21.4,5.1
		s1.9-5.1,2.8-7.6c1-2.7,2-5.6,1.4-8.4s-3.5-5.3-6.2-4.4c-2.7,0.9-7.8,12-9.4,14.6c-9.6,15.7-9.5,36.3-7.8,54.1
		c0.9,9.5-3.4,107.1-1.8,111.5c9.9,26.2,46.7,26.7,57.4,0.8l0,0c1.4-5.1,2.1-10.3,2.3-15.5c0.3-7.1-11.4-70.2-11.6-72.4
		c-0.3-3,1.2-5.6,2.8-8.2C349,261.2,350.2,259.6,351,258z"/>
	<path class="st3" d="M326,378c-0.2,0-0.3,0-0.5,0c-13.2-0.2-24.2-8-28.9-20.3c-0.9-2.3-0.3-26,0.8-61.9c0.7-23.4,1.3-45.5,0.9-49.7
		c-1.6-16.7-2.1-38,7.9-54.4c0.4-0.6,1-1.8,1.7-3.2c3-5.8,5.9-11,7.9-11.7c1.2-0.4,2.5-0.2,3.7,0.5c1.6,0.9,2.8,2.6,3.1,4.3
		c0.6,3-0.5,6.1-1.4,8.6l-2.4,6.4c4.4-2.2,18.4-8.7,20.9-4.4c0,0.1,0,0.1,0.1,0.2c0.9,12.2,6.3,28.6,7.3,31.6l6.3-2.3
		c0.2-0.1,0.5,0,0.6,0.3c4.9,10.6,4,23.6-2.6,35.6c-0.6,1.1-1.4,2.3-2.1,3.4c-0.3,0.5-0.6,1-1,1.5c-1.8,2.8-3,5.1-2.7,7.9
		c0,0.5,0.9,5.5,2.1,12.4c3.4,19.1,9.7,54.8,9.5,60c-0.2,5.3-1,10.5-2.3,15.6C350,370.6,338.9,378,326,378z M317.1,178.2
		c-0.3,0-0.6,0.1-1,0.2c-1.8,0.6-5.4,7.5-7.4,11.2c-0.8,1.4-1.3,2.6-1.7,3.2c-9.9,16.1-9.3,37.2-7.8,53.8c0.4,4.3-0.2,26.4-0.9,49.9
		c-0.8,27.7-1.7,59.2-0.9,61.5c4.5,11.9,15.2,19.4,27.9,19.6c12.7,0.1,23.6-7,28.5-18.8c1.3-5,2.1-10.1,2.3-15.4
		c0.2-5.1-6.1-40.7-9.5-59.8c-1.3-7.1-2.1-11.9-2.1-12.5c-0.3-3.2,1.2-5.9,2.9-8.5c0.3-0.5,0.6-1,1-1.5c0.8-1.1,1.5-2.2,2.1-3.3l0,0
		c6.3-11.6,7.3-24.1,2.8-34.3l-6.3,2.3c-0.1,0-0.3,0-0.4,0c-0.1-0.1-0.2-0.2-0.3-0.3c-0.1-0.2-6.5-18.7-7.5-32.2
		c-1.9-2.9-13.6,1.8-20.6,5.4c-0.2,0.1-0.4,0.1-0.6-0.1c-0.2-0.1-0.2-0.4-0.1-0.6l2.8-7.6c0.9-2.4,2-5.3,1.4-8.1
		c-0.3-1.5-1.4-2.9-2.7-3.7C318.6,178.4,317.9,178.2,317.1,178.2z"/>
</g>
<polygon class="st3" points="314.3,208.7 331.8,226.1 344.8,200.8 342,189.2 318.3,198 "/>
<g>
	<path class="st4" d="M342,235L342,235c-4.7,0.8-9.1-2.3-9.9-7l-7.9-45.7c-0.8-4.7,2.3-9.1,7-9.9l0,0c4.7-0.8,9.1,2.3,9.9,7
		l7.9,45.7C349.8,229.8,346.7,234.2,342,235z"/>
	<path class="st3" d="M340.5,235.6c-1.9,0-3.7-0.6-5.2-1.7c-2-1.4-3.3-3.5-3.7-5.9l-7.9-45.7c-0.4-2.4,0.1-4.8,1.5-6.8
		c1.4-2,3.5-3.3,5.9-3.7c2.4-0.4,4.8,0.1,6.8,1.5c2,1.4,3.3,3.5,3.7,5.9l7.9,45.7c0.9,4.9-2.5,9.6-7.4,10.5
		C341.6,235.6,341,235.6,340.5,235.6z M332.7,172.7c-0.5,0-0.9,0-1.4,0.1c-2.1,0.4-4,1.5-5.2,3.3s-1.7,3.9-1.4,6l7.9,45.7
		c0.4,2.1,1.5,4,3.3,5.2s3.9,1.7,6,1.4l0,0c4.4-0.8,7.4-4.9,6.6-9.4l-7.9-45.7c-0.4-2.1-1.5-4-3.3-5.2
		C335.9,173.2,334.3,172.7,332.7,172.7z"/>
</g>
<g>
	<path class="st5" d="M340.6,179.5l-15.8,2.7c-3.3,0.6-6.5-1.6-7-5l-0.6-3.5c-0.6-3.3,1.6-6.5,5-7L338,164c3.3-0.6,6.5,1.6,7,5
		l0.6,3.5C346.2,175.8,344,179,340.6,179.5z"/>
	<path class="st3" d="M323.8,182.9c-3.1,0-5.9-2.3-6.5-5.5l-0.6-3.5c-0.6-3.6,1.8-7,5.4-7.6l15.8-2.7c3.6-0.6,7,1.8,7.6,5.4l0.6,3.5
		c0.6,3.6-1.8,7-5.4,7.6l0,0l-15.8,2.7C324.5,182.8,324.1,182.9,323.8,182.9z M339,164.4c-0.3,0-0.6,0-1,0.1l-15.8,2.7
		c-3,0.5-5.1,3.4-4.6,6.5l0.6,3.5c0.5,3,3.4,5.1,6.5,4.6l15.8-2.7c3-0.5,5.1-3.4,4.6-6.5l-0.6-3.5C344,166.3,341.7,164.4,339,164.4z
		 M340.6,179.5L340.6,179.5L340.6,179.5z"/>
</g>
<g>
	<path class="st2" d="M297.8,158.4l-4.6,0.8c-2.3,0.4-4.4-1.1-4.8-3.4l-0.1-0.9c-0.4-2.3,1.1-4.4,3.4-4.8l4.6-0.8L297.8,158.4z"/>
	<path class="st3" d="M292.5,159.8c-1,0-1.9-0.3-2.7-0.9c-1-0.7-1.7-1.8-1.9-3l-0.1-0.9c-0.4-2.5,1.3-4.9,3.8-5.4l4.6-0.8
		c0.1,0,0.3,0,0.4,0.1c0.1,0.1,0.2,0.2,0.2,0.3l1.6,9c0,0.1,0,0.3-0.1,0.4s-0.2,0.2-0.3,0.2l-4.6,0.8
		C293,159.7,292.8,159.8,292.5,159.8z M295.9,150l-4.1,0.7c-2,0.3-3.3,2.2-3,4.2l0.1,0.9c0.2,1,0.7,1.8,1.5,2.4
		c0.8,0.6,1.8,0.8,2.7,0.6l4.1-0.7L295.9,150z"/>
</g>
<g>
	<path class="st4" d="M345.2,169.9l-24.2,4.2c-11.8,2-23.1-5.9-25.1-17.7l-0.8-4.5c-2-11.8,5.9-23.1,17.7-25.1l24.2-4.2L345.2,169.9
		z"/>
	<path class="st3" d="M317.3,174.9c-10.6,0-20-7.6-21.9-18.4l-0.8-4.5c-2.1-12.1,6-23.6,18.1-25.7l24.2-4.2c0.3-0.1,0.5,0.1,0.6,0.4
		l8.2,47.3c0,0.1,0,0.3-0.1,0.4c-0.1,0.1-0.2,0.2-0.3,0.2l-24.2,4.2C319.8,174.8,318.5,174.9,317.3,174.9z M336.6,123.2l-23.7,4.1
		c-11.5,2-19.3,13-17.3,24.5l0.8,4.5c2,11.5,13,19.3,24.5,17.3l23.7-4.1L336.6,123.2z"/>
</g>
<path class="st6" d="M337,122.6L337,122.6l8.2,47.3l0,0c18.7-3.2,38-0.5,55.3,7.9l38.2,18.6L416.2,66.3l-29.8,30.3
	C373,110.3,355.8,119.4,337,122.6z"/>
<ellipse transform="matrix(0.9854 -0.1701 0.1701 0.9854 -16.0562 74.8651)" class="st7" cx="428.9" cy="131.1" rx="16.1" ry="66.4"/>
<g>
	<g>
		
			<ellipse id="XMLID_1_" transform="matrix(0.9854 -0.1701 0.1701 0.9854 -15.8437 74.8469)" class="st2" cx="428.9" cy="129.9" rx="12.9" ry="53.4"/>
	</g>
	<g>
		<defs>
			
				<ellipse id="SVGID_1_" transform="matrix(0.9854 -0.1701 0.1701 0.9854 -15.8437 74.8469)" cx="428.9" cy="129.9" rx="12.9" ry="53.4"/>
		</defs>
		<clipPath id="SVGID_2_">
			<use xlink:href="#SVGID_1_"  style="overflow:visible;"/>
		</clipPath>
		<path class="st8" d="M401.7,122.9l17-2.9c6.9-1.2,13.5,3.4,14.7,10.4l0,0c1.2,6.9-3.5,13.5-10.4,14.7l-17,2.9L401.7,122.9z"/>
	</g>
	<g>
		
			<ellipse transform="matrix(0.9854 -0.1701 0.1701 0.9854 -15.8437 74.8469)" class="st9" cx="428.9" cy="129.9" rx="12.9" ry="53.4"/>
	</g>
</g>
<g>
	<line class="st10" x1="342" y1="121.6" x2="349.9" y2="169.2"/>
	<path class="st3" d="M349.9,169.7c-0.2,0-0.5-0.2-0.5-0.4l-7.9-47.6c0-0.3,0.1-0.5,0.4-0.6s0.5,0.1,0.6,0.4l7.9,47.6
		C350.5,169.4,350.3,169.7,349.9,169.7C350,169.7,350,169.7,349.9,169.7z"/>
</g>
<g>
	<g>
		<path class="st2" d="M359.5,197.6l0.1,0.2c1,3-0.7,6.3-3.8,7.3l-17.3,5.5c-3,1-6.3-0.7-7.3-3.8l-0.1-0.2c-1-3,0.7-6.3,3.8-7.3
			l17.3-5.5C355.3,192.8,358.6,194.5,359.5,197.6z"/>
		<path class="st3" d="M336.8,211.3c-1,0-2-0.2-2.9-0.7c-1.5-0.8-2.6-2.1-3.1-3.7l-0.1-0.2c-1-3.3,0.8-6.9,4.1-7.9l17.3-5.5
			c3.3-1.1,6.8,0.8,7.9,4.1l0.1,0.2c1,3.3-0.8,6.9-4.1,7.9l-17.3,5.5C338.1,211.2,337.5,211.3,336.8,211.3z M354,194
			c-0.5,0-1.1,0.1-1.6,0.3l-17.3,5.5c-2.8,0.9-4.3,3.9-3.4,6.6l0.1,0.2c0.4,1.3,1.4,2.4,2.6,3.1c1.3,0.6,2.7,0.8,4,0.4l17.3-5.5
			c2.8-0.9,4.3-3.9,3.4-6.6l-0.1-0.2l0,0C358.4,195.5,356.3,194,354,194z"/>
	</g>
	<g>
		<path class="st2" d="M356.1,185.9l0.1,0.2c1,3-0.7,6.3-3.8,7.3l-17.3,5.5c-3,1-6.3-0.7-7.3-3.8l-0.1-0.2c-1-3,0.7-6.3,3.8-7.3
			l17.3-5.5C351.9,181.2,355.2,182.9,356.1,185.9z"/>
		<path class="st3" d="M333.4,199.6c-1,0-2-0.2-2.9-0.7c-1.5-0.8-2.6-2.1-3.1-3.7l-0.1-0.2c-0.5-1.6-0.4-3.3,0.4-4.8
			c0.8-1.5,2.1-2.6,3.7-3.1l17.3-5.5c3.3-1.1,6.9,0.8,7.9,4.1l0.1,0.2c0.5,1.6,0.4,3.3-0.4,4.8c-0.8,1.5-2.1,2.6-3.7,3.1l-17.3,5.5
			C334.7,199.5,334.1,199.6,333.4,199.6z M350.6,182.4c-0.5,0-1.1,0.1-1.6,0.3l-17.3,5.5c-1.3,0.4-2.4,1.4-3.1,2.6s-0.8,2.7-0.4,4
			l0.1,0.2c0.4,1.3,1.4,2.4,2.6,3.1c1.3,0.6,2.7,0.8,4,0.4l17.3-5.5c1.3-0.4,2.4-1.4,3.1-2.6s0.8-2.7,0.4-4l-0.1-0.2l0,0
			C355,183.8,352.9,182.4,350.6,182.4z"/>
	</g>
	<g>
		<path class="st2" d="M359.6,209.5L359.6,209.5c1,3.1-0.7,6.3-3.7,7.2l-11.8,3.7c-3,0.9-6.2-0.7-7.2-3.7l0-0.1
			c-1-3,0.7-6.2,3.7-7.2l11.8-3.7C355.4,204.9,358.6,206.5,359.6,209.5z"/>
		<path class="st3" d="M342.4,221.3c-2.6,0-5.1-1.7-5.9-4.3c-1-3.3,0.8-6.8,4-7.9l11.8-3.7c1.6-0.5,3.3-0.4,4.7,0.4
			c1.5,0.8,2.6,2.1,3.1,3.6l0,0.1c0.5,1.6,0.4,3.3-0.4,4.7c-0.8,1.5-2,2.6-3.6,3.1l-11.8,3.7C343.7,221.2,343,221.3,342.4,221.3z
			 M354.1,206c-0.5,0-1.1,0.1-1.6,0.3l-11.8,3.7c-2.7,0.9-4.3,3.8-3.4,6.6c0.9,2.8,3.8,4.3,6.6,3.4l11.8-3.7c1.3-0.4,2.4-1.3,3-2.6
			c0.6-1.2,0.8-2.6,0.3-4l0-0.1c-0.4-1.3-1.3-2.4-2.6-3.1C355.8,206.2,355,206,354.1,206z"/>
	</g>
	<g>
		<path class="st2" d="M362.8,220.6l0.1,0.2c1,3-0.7,6.3-3.8,7.3l-5.8,1.9c-3,1-6.3-0.7-7.3-3.8l-0.1-0.2c-1-3,0.7-6.3,3.8-7.3
			l5.8-1.9C358.6,215.8,361.9,217.5,362.8,220.6z"/>
		<path class="st3" d="M351.5,230.6c-1,0-2-0.2-2.9-0.7c-1.5-0.8-2.6-2.1-3.1-3.7l-0.1-0.2c-0.5-1.6-0.4-3.3,0.4-4.8
			c0.8-1.5,2.1-2.6,3.7-3.1l5.8-1.9c3.3-1.1,6.9,0.8,7.9,4.1l0,0l0.1,0.2c0.5,1.6,0.4,3.3-0.4,4.8c-0.8,1.5-2.1,2.6-3.7,3.1
			l-5.8,1.9C352.8,230.6,352.2,230.6,351.5,230.6z M357.3,217c-0.5,0-1.1,0.1-1.6,0.3l-5.8,1.9c-1.3,0.4-2.4,1.4-3.1,2.6
			s-0.8,2.7-0.4,4l0.1,0.2c0.4,1.3,1.4,2.4,2.6,3.1c1.3,0.6,2.7,0.8,4,0.4l5.8-1.9c1.3-0.4,2.4-1.4,3.1-2.6s0.8-2.7,0.4-4l-0.1-0.2
			C361.6,218.5,359.5,217,357.3,217z"/>
	</g>
</g>
<g>
	<path class="st2" d="M317.7,199.3c0,0,2.1-6.1,3.1-8.6c1-2.7,2-5.6,1.4-8.4s-3.5-5.3-6.2-4.4c-2.7,0.9-7.8,12-9.4,14.6"/>
	<path class="st3" d="M318.2,199.4l-0.9-0.3c0,0,2.1-6.1,3.1-8.6c0.9-2.4,2-5.3,1.4-8.1c-0.3-1.5-1.4-2.9-2.7-3.7
		c-0.7-0.4-1.7-0.8-2.9-0.4c-1.8,0.6-5.4,7.5-7.4,11.2c-0.8,1.4-1.3,2.6-1.7,3.2c-0.1,0.2-0.5,0.3-0.7,0.2c-0.2-0.1-0.3-0.4-0.2-0.7
		c0.4-0.6,1-1.8,1.7-3.2c3-5.8,5.9-11,7.9-11.7c1.2-0.4,2.5-0.2,3.7,0.5c1.6,0.9,2.8,2.6,3.1,4.3c0.6,3-0.5,6.1-1.4,8.6
		C320.3,193.4,318.2,199.4,318.2,199.4z"/>
</g>
<path class="st3" d="M313,215.9L313,215.9c-0.3,0-0.5-0.2-0.5-0.5c0.1-5.5,4.6-15.9,4.8-16.4c0.1-0.3,0.4-0.4,0.7-0.3
	s0.4,0.4,0.3,0.7c0,0.1-4.6,10.7-4.7,16C313.5,215.7,313.3,215.9,313,215.9z"/>
<g>
	<path class="st3" d="M278.5,85.3c0.2-0.3,0.4-0.7,0.6-1c2.7-3.1,4.5-6.9,4.9-11.3c1-11-7-20.7-18-21.7c-0.9-0.1-1.8-0.1-2.7,0
		c-9.7-8.4-16.4-17.4-33.4-15.2c-6.5,0.8-12.6,4.2-16.3,9.7c-0.5,0.8-1,1.6-1.4,2.4c-0.3,0.7-9,1.6-10.1,2
		c-8.1,2.2-18.4,5.6-22.4,13.6c-1.8,3.5-2.4,7.5-2.5,11.5c-6.1,4.8-8.6,13.4-6.1,21.1l6.4,20c1.3-0.3,2.7-0.5,4.1-0.5h8.1
		c0.5,0.8,1,1.7,1.5,2.6c2.5,4.4,4.1,9.2,3.9,14.3c10.5-14.7,60.6-10.8,71.8-10.8s20.1-9,20.1-20.2
		C286.9,94.9,283.5,88.9,278.5,85.3z"/>
	<path class="st3" d="M194.9,133.1c-0.1,0-0.1,0-0.2,0c-0.2-0.1-0.4-0.3-0.3-0.5c0.2-4.6-1.1-9.2-3.9-14.1c-0.4-0.8-0.9-1.5-1.3-2.3
		h-7.8c-1.3,0-2.7,0.2-4,0.5c-0.3,0.1-0.5-0.1-0.6-0.3l-6.4-20c-2.5-7.9-0.1-16.5,6.1-21.5c0.1-3.1,0.5-7.5,2.5-11.5
		c3.9-7.7,13.2-11.2,22.8-13.8c0.4-0.1,1.6-0.3,3.1-0.5c2.2-0.3,6.1-0.9,6.8-1.3c0.5-0.9,0.9-1.7,1.4-2.4c3.7-5.4,9.8-9,16.7-9.9
		c14.8-1.9,22.1,4.8,29.8,11.8c1.2,1.1,2.5,2.3,3.8,3.4c1,0,1.8,0,2.6,0c5.4,0.5,10.4,3.1,13.8,7.3s5.1,9.5,4.6,14.9
		c-0.4,4.3-2.1,8.3-5,11.5c-0.1,0.2-0.2,0.4-0.3,0.6c5.1,3.9,8.2,10,8.2,16.5c0,11.4-9.3,20.7-20.6,20.7c-1.5,0-3.6-0.1-6.3-0.2
		c-16.8-0.5-56.1-1.7-65.1,10.8C195.3,133,195.1,133.1,194.9,133.1z M181.4,115.2h8.1c0.2,0,0.3,0.1,0.4,0.3c0.5,0.8,1,1.7,1.5,2.6
		c2.6,4.6,3.9,8.9,4,13.2c10.6-11.7,47.2-10.6,65-10.1c2.7,0.1,4.8,0.2,6.2,0.2c10.8,0,19.6-8.8,19.6-19.7c0-6.3-3.1-12.3-8.2-15.9
		c-0.1-0.1-0.2-0.2-0.2-0.3c0-0.1,0-0.3,0.1-0.4c0.2-0.3,0.4-0.6,0.5-0.9c0-0.1,0-0.1,0.1-0.2c2.7-3.1,4.4-6.9,4.8-11
		c0.5-5.2-1.1-10.2-4.4-14.2c-3.3-4-8-6.5-13.2-6.9c-0.8-0.1-1.6-0.1-2.7,0c-0.1,0-0.3,0-0.4-0.1c-1.4-1.2-2.7-2.4-4-3.5
		c-7.9-7.2-14.7-13.4-29-11.5c-6.6,0.8-12.5,4.3-16,9.4c-0.5,0.7-0.9,1.4-1.4,2.3c-0.3,0.5-1.3,0.8-7.5,1.8
		c-1.3,0.2-2.6,0.4-2.9,0.5c-9.3,2.6-18.4,6-22.1,13.3c-1.5,3-2.3,6.6-2.4,11.3c0,0.2-0.1,0.3-0.2,0.4c-6,4.7-8.4,13-5.9,20.6
		l6.2,19.6C178.9,115.4,180.2,115.2,181.4,115.2z M211.7,47.7L211.7,47.7L211.7,47.7z"/>
</g>
<g>
	<g>
		<path class="st2" d="M238.9,87.3c-2.1-1.1-4.2-2.4-6.5-2.7c-5.8-0.8-11.1,4-16.9,3.8c-4.2-0.1-8.1-3.1-9.4-7.2
			c3.4,17.7-0.7,36.7-11.2,51.3c0.2-5.2-1.4-9.9-3.9-14.3c-0.5-0.9-1-1.7-1.5-2.6h-8.1c-1.4,0-2.8,0.2-4.1,0.5
			c-7.4,1.9-13,8.6-13,16.6v1.7c0,9.4,7.7,17.1,17.1,17.1h4.6l-4.6,57.3c-1.3,16.7,11.1,31.4,27.9,32.7l3,0.2
			c16.7,1.3,31.4-11.1,32.7-27.9l1.7-21.6c15.1-0.3,27.3-12.6,27.3-27.8v-67c0-2.9-0.5-5.7-1.3-8.3c-1.4,0.8-2.8,1.5-4.3,2
			C258.8,94.7,247.9,92.1,238.9,87.3z"/>
		<path class="st3" d="M214.7,242.6c-0.8,0-1.7,0-2.5-0.1l-3-0.2c-8.2-0.7-15.7-4.5-21.1-10.8c-5.4-6.3-7.9-14.3-7.3-22.5l4.5-56.7
			h-4c-9.7,0-17.6-7.9-17.6-17.6v-1.7c0-8.1,5.5-15.1,13.4-17.1c1.4-0.4,2.9-0.6,4.3-0.6h8.1c0.2,0,0.3,0.1,0.4,0.3
			c0.5,0.8,1,1.7,1.5,2.6c2.6,4.5,3.9,8.8,4,13c9.7-14.3,13.5-32.7,10.2-49.7c-0.1-0.3,0.1-0.5,0.4-0.6c0.3-0.1,0.5,0.1,0.6,0.3
			c1.1,3.8,4.9,6.7,8.9,6.8c2.7,0.1,5.3-1,7.8-1.9c2.9-1.2,6-2.3,9.2-1.9c2.1,0.3,4.1,1.4,5.9,2.4l0.7,0.4l0,0c6,3.2,17.8,8,29.2,4
			c1.4-0.5,2.8-1.2,4.2-2c0.1-0.1,0.3-0.1,0.4,0c0.1,0.1,0.3,0.2,0.3,0.3c0.9,2.8,1.3,5.7,1.3,8.5v67c0,15.2-12.2,27.8-27.4,28.3
			l-1.7,21.1c-0.7,8.2-4.5,15.7-10.8,21.1C229.1,240,222.1,242.6,214.7,242.6z M181.4,116.2c-1.3,0-2.7,0.2-4,0.5
			c-7.4,1.9-12.6,8.5-12.6,16.1v1.7c0,9.2,7.5,16.6,16.6,16.6h4.6c0.1,0,0.3,0.1,0.4,0.2c0.1,0.1,0.1,0.2,0.1,0.4l-4.6,57.3
			c-0.6,8,1.9,15.7,7.1,21.8c5.2,6.1,12.4,9.8,20.4,10.4l3,0.2c8,0.6,15.7-1.9,21.8-7.1c6.1-5.2,9.8-12.4,10.4-20.4l1.7-21.6
			c0-0.3,0.2-0.5,0.5-0.5c14.8-0.3,26.8-12.5,26.8-27.3v-67c0-2.6-0.4-5.1-1.1-7.6c-1.2,0.7-2.5,1.3-3.8,1.7
			c-11.8,4.1-23.9-0.8-30-4.1l-0.7-0.4c-1.8-1-3.6-2-5.6-2.3c-2.9-0.4-5.7,0.7-8.7,1.8c-2.6,1-5.3,2.1-8.2,2
			c-3.3-0.1-6.4-1.8-8.3-4.5c2.4,16.8-2,34.7-11.8,48.5c-0.1,0.2-0.4,0.3-0.6,0.2s-0.4-0.3-0.3-0.5c0.2-4.6-1.1-9.2-3.9-14.1
			c-0.4-0.8-0.9-1.5-1.3-2.3L181.4,116.2L181.4,116.2z"/>
	</g>
</g>
<g>
	<polygon class="st3" points="190.1,151.7 184.7,166.5 181.3,151.7 	"/>
	<path class="st3" d="M184.7,167C184.7,167,184.6,167,184.7,167c-0.3,0-0.4-0.2-0.5-0.4l-3.4-14.8c0-0.1,0-0.3,0.1-0.4
		c0.1-0.1,0.3-0.2,0.4-0.2l8.8,0.1c0.2,0,0.3,0.1,0.4,0.2c0.1,0.1,0.1,0.3,0.1,0.5l-5.4,14.8C185.1,166.9,184.9,167,184.7,167z
		 M181.9,152.2l2.9,12.6l4.6-12.5L181.9,152.2z"/>
</g>
<g>
	<polyline class="st2" points="179,128.2 185.3,135.2 179.4,139 	"/>
	<path class="st3" d="M179.4,139.5c-0.2,0-0.3-0.1-0.4-0.2c-0.1-0.2-0.1-0.5,0.1-0.7l5.4-3.5l-5.9-6.6c-0.2-0.2-0.2-0.5,0-0.7
		c0.2-0.2,0.5-0.2,0.7,0l6.3,7c0.1,0.1,0.1,0.3,0.1,0.4s-0.1,0.3-0.2,0.4l-5.9,3.8C179.6,139.5,179.5,139.5,179.4,139.5z"/>
</g>
<g>
	<path class="st3" d="M246.6,192.6c0,0-31.3,2-39-10.6c0,0,6.9,20.9,37.6,28.1L246.6,192.6z"/>
	<path class="st3" d="M245.1,210.6c0,0-0.1,0-0.1,0c-30.5-7.2-37.9-28.3-37.9-28.5c-0.1-0.2,0-0.5,0.3-0.6c0.2-0.1,0.5,0,0.6,0.2
		c7.5,12.3,38.2,10.4,38.5,10.4c0.1,0,0.3,0,0.4,0.1c0.1,0.1,0.1,0.3,0.1,0.4l-1.4,17.5c0,0.1-0.1,0.3-0.2,0.4
		C245.4,210.6,245.3,210.6,245.1,210.6z M209.7,185.3c3.4,6.1,13,18.8,35,24.2l1.3-16.3C242,193.4,219.4,194.1,209.7,185.3z"/>
</g>
<g>
	<g>
		<g>
			<path class="st2" d="M70.8,408.8l2.8-72l75.6,2.4c0,0.4,7.2-53.5,7.2-53l-7.2,53l-10.1-0.3l-1,24c0,0,68.5-35,74.4-42.1
				c0,0,19.8-19.8,27.8-25.1c0.9-0.6,1.7-1.1,2.7-1.4c1-0.3,2.1-0.2,2.9,0.5c1,0.9,1.2,2.4,1.1,3.7c-0.2,4.1-1.8,8-3.5,11.9
				c0.5-0.1,50.6-16.8,53.3-17.4c4.8-1.2,4.5,5.4,1.1,8.9c-4.3,4.5-24.2,15-25.3,15.3c4.8-0.2,9.4-1.1,10.6,6.7
				c0.8,5.4-4,6.9-8.9,7.5c3.1,0.1,5.7,1.1,6,4.8c1.2,6.2-3.9,8.7-9,9.3c-0.1,0-0.2,0.2,0,0.3c4.2,1.6,1.3,9.3-4.9,11.6l-34.5,14.5
				c-3.5,1.6-95.8,71.8-95.8,71.8c-10.7,7.5-23.1,9.1-34.2,6.3C83.5,445,70.8,427.9,70.8,408.8z"/>
			<path class="st3" d="M112.4,451.5c-3.5,0-7-0.4-10.6-1.3c-18.5-4.7-31.6-21.8-31.6-41.4c0,0,0,0,0,0l2.8-72
				c0-0.3,0.2-0.5,0.5-0.5l75.1,2.4l6.8-50.5c0.1-0.5,0.1-1,0.2-1.3l0.1-0.7h0c0.1-0.5,0.2-0.5,0.5-0.4c0.3,0,0.5,0.3,0.4,0.5
				l-2.9,21.5c-0.1,1-0.3,2-0.4,3l-3.5,26.1c-0.1,0.7-0.2,1.3-0.2,1.7l-0.1,0.8c0,0.1-0.1,0.2-0.1,0.3c-0.1,0.2-0.2,0.2-0.4,0.1
				c0,0,0,0,0,0l-9.5-0.3l-0.9,22.6c7.5-3.9,68.1-35.1,73.5-41.6c0.2-0.2,20-19.9,27.9-25.2c0.9-0.6,1.8-1.2,2.9-1.5
				c1.3-0.3,2.5-0.1,3.4,0.6c1,0.8,1.4,2.1,1.3,4.1c-0.2,3.9-1.6,7.5-3.1,11c0.3-0.1,0.6-0.2,1.1-0.4c40.3-13.3,50.1-16.5,51.3-16.8
				c2.3-0.6,3.3,0.5,3.7,1.2c1.2,2.1,0.3,6-2.1,8.5c-3.5,3.7-17.4,11.5-23.2,14.3c3.9-0.1,7.5,0.4,8.5,7.2c0.3,1.9-0.1,3.4-1,4.7
				c-1.2,1.6-3.3,2.4-5.3,2.9c2.1,0.8,3.3,2.3,3.5,4.7c0.4,2.2,0.1,4.2-1.1,5.8c-1.7,2.4-4.8,3.4-7.3,3.9c0.9,0.7,1.4,1.8,1.3,3.1
				c0,3.1-2.7,7.3-7.2,8.9l-34.4,14.5c-2.8,1.2-63.8,47.5-95.7,71.7C129.3,448.9,121,451.5,112.4,451.5z M71.3,408.8
				c0.1,19.2,12.8,35.8,30.9,40.4c11.8,3,23.8,0.8,33.8-6.2c3.8-2.9,92.3-70.2,95.9-71.8l34.5-14.5c4-1.5,6.5-5.3,6.5-8
				c0-0.9-0.3-2.2-1.6-2.7c-0.3-0.1-0.4-0.4-0.4-0.7c0-0.3,0.3-0.5,0.6-0.6c3.6-0.5,6.3-1.7,7.7-3.6c1-1.4,1.3-3.1,0.9-5.1
				c-0.2-2.9-2-4.3-5.5-4.4c-0.3,0-0.5-0.2-0.5-0.5s0.2-0.5,0.4-0.5c4-0.5,6.4-1.4,7.6-3c0.8-1,1.1-2.3,0.8-3.9
				c-1-6.7-4.4-6.5-8.8-6.3c-0.4,0-0.8,0-1.2,0.1c-0.3,0-0.5-0.2-0.5-0.4c0-0.3,0.1-0.5,0.4-0.5c1.3-0.4,20.9-10.8,25.1-15.1
				c2.2-2.3,2.8-5.8,1.9-7.3c-0.5-0.8-1.4-1.1-2.6-0.8c-1.1,0.3-10.9,3.4-51.2,16.7c-1.3,0.4-2.1,0.7-2.1,0.7
				c-0.2,0.1-0.4,0-0.5-0.1c-0.1-0.1-0.2-0.4-0.1-0.5c1.6-3.7,3.2-7.6,3.4-11.7c0.1-1.6-0.2-2.7-1-3.3c-0.6-0.5-1.5-0.6-2.5-0.4
				c-0.9,0.2-1.7,0.8-2.6,1.3c-7.8,5.3-27.5,24.9-27.7,25.1c-5.8,7-71.7,40.8-74.5,42.2c-0.2,0.1-0.4,0.1-0.5,0
				c-0.1-0.1-0.2-0.3-0.2-0.4l1-23.5l-64.5-2.1L71.3,408.8z"/>
		</g>
		<polygon class="st3" points="138.2,350.5 108.5,378.5 138.1,363.4 		"/>
		<path class="st3" d="M243.1,310.9l-18.6,8.7c0,0,17.5-13.9,21-15L243.1,310.9z"/>
	</g>
	<g>
		<path class="st2" d="M262.4,320.2c0,0,11.3-3.8,13.3-3.8"/>
		<path class="st3" d="M262.4,320.7c-0.2,0-0.4-0.1-0.5-0.3c-0.1-0.3,0.1-0.5,0.3-0.6c0.5-0.1,11.4-3.8,13.4-3.9
			c0.3,0,0.5,0.2,0.5,0.5c0,0.3-0.2,0.5-0.5,0.5c-1.6,0.1-10,2.8-13.2,3.8C262.5,320.7,262.4,320.7,262.4,320.7z"/>
	</g>
	<g>
		<line class="st10" x1="275.5" y1="331" x2="264.9" y2="334.3"/>
		<path class="st3" d="M264.9,334.8c-0.2,0-0.4-0.1-0.5-0.4c-0.1-0.3,0.1-0.5,0.3-0.6l10.5-3.3c0.3-0.1,0.5,0.1,0.6,0.3
			c0.1,0.3-0.1,0.5-0.3,0.6l-10.5,3.3C265,334.8,265,334.8,264.9,334.8z"/>
	</g>
	<g>
		<line class="st10" x1="270.7" y1="345.3" x2="265" y2="347"/>
		<path class="st3" d="M265,347.5c-0.2,0-0.4-0.1-0.5-0.4c-0.1-0.3,0.1-0.5,0.3-0.6l5.7-1.6c0.3-0.1,0.5,0.1,0.6,0.3
			c0.1,0.3-0.1,0.5-0.3,0.6l-5.7,1.6C265.1,347.4,265,347.5,265,347.5z"/>
	</g>
</g>
</svg>
