<?xml version="1.0" encoding="utf-8"?>
<!-- Generator: Adobe Illustrator 23.0.1, SVG Export Plug-In . SVG Version: 6.00 Build 0)  -->
<svg version="1.1" id="Layer_1" xmlns="http://www.w3.org/2000/svg" xmlns:xlink="http://www.w3.org/1999/xlink" x="0px" y="0px"
	 viewBox="0 0 750 500" style="enable-background:new 0 0 750 500;" xml:space="preserve">
<style type="text/css">
	.st0{fill:#F5F5F5;}
	.st1{fill:#EBEBEB;}
	.st2{fill:#E0E0E0;}
	.st3{fill:#263238;}
	.st4{fill:#455A64;}
	.st5{fill:#FFFFFF;}
	.st6{fill:#00858E;}
	.st7{fill:#FFC93C;}
	.st8{opacity:0.6;}
	.st9{opacity:0.2;}
	.st10{fill:#FFBE9D;}
	.st11{fill:#EB996E;}
	.st12{fill:#FAFAFA;}
</style>
<path class="st0" d="M605.4,94.7c1.9,13.1-7.1,25.3-20.2,27.3s-25.3-7.1-27.3-20.2c-1.9-13.1,7.1-25.3,20.2-27.3c0,0,0,0,0.1,0
	C591.3,72.5,603.4,81.6,605.4,94.7z"/>
<path class="st1" d="M599.7,95.5c1.5,10-5.4,19.3-15.4,20.8s-19.3-5.4-20.8-15.4s5.4-19.3,15.4-20.8l0,0
	C589,78.6,598.3,85.5,599.7,95.5z"/>
<path class="st2" d="M599.6,94.9c-0.3-0.7-0.6-1.4-0.8-2.1c-1.1-3.2-3.1-6-5.8-8.2c-1.2-1-2.6-1.8-4-2.5c-0.8-0.4-1.6-0.7-2.4-0.9
	c-0.8-0.2-1.7-0.4-2.6-0.6c-0.9-0.1-1.8-0.2-2.7-0.2s-1.9,0.1-2.8,0.3c-0.9,0.2-1.8,0.4-2.7,0.7c-0.9,0.3-1.7,0.7-2.5,1.1
	s-1.5,0.9-2.2,1.4s-1.3,1-1.9,1.6c-1.1,1.1-2.1,2.3-2.9,3.7c-0.7,1.2-1.3,2.4-1.7,3.8c-0.6,1.9-0.9,3.9-0.9,5.9
	c0.1,0.7,0.1,1.5,0,2.2c-0.3-0.7-0.5-1.5-0.5-2.2c-0.2-2.1,0-4.2,0.5-6.2c0.8-3,2.4-5.8,4.6-8.1c0.6-0.6,1.3-1.3,2-1.8
	c1.5-1.2,3.3-2.1,5.1-2.8c1-0.3,1.9-0.6,2.9-0.8c1-0.2,2-0.3,3-0.3s2,0.1,3,0.2c0.9,0.1,1.9,0.3,2.8,0.6c0.9,0.3,1.7,0.6,2.5,1
	c1.5,0.7,2.9,1.6,4.2,2.8c1.1,1,2.1,2,3,3.2c1.2,1.7,2.1,3.6,2.6,5.7C599.6,93.4,599.7,94.2,599.6,94.9z"/>
<path class="st2" d="M585.2,108.6l0.5,3.2l-2.8,0.4l-0.5-3.1c-2.5,0.3-5.1-0.1-7.4-1.2l1-3.7c1.8,0.9,3.8,1.3,5.8,1.1l-0.8-4.7
	c-3.2-0.3-6.9-0.7-7.5-4.8c-0.5-3,1.3-5.9,5.6-7.1l-0.5-3.1l2.8-0.4l0.5,3.1c2-0.2,4.1,0.1,6,0.8l-0.8,3.7c-1.4-0.5-3-0.8-4.5-0.8
	l0.8,4.8c3.2,0.2,6.8,0.7,7.5,4.7C591.3,104.5,589.6,107.4,585.2,108.6z M580.5,96.6l-0.6-4c-1.4,0.6-1.9,1.5-1.7,2.4
	S579.2,96.5,580.5,96.6L580.5,96.6z M586.4,102.6c-0.2-1-1-1.4-2.3-1.6l0.6,3.9C586,104.4,586.5,103.6,586.4,102.6L586.4,102.6z"/>
<path class="st0" d="M530.6,98.9c3.4,22.8-12.4,43.9-35.1,47.3c-22.8,3.4-43.9-12.4-47.3-35.1s12.4-43.9,35.1-47.3h0.1
	C506.2,60.5,527.3,76.2,530.6,98.9z"/>
<path class="st1" d="M520.8,100.3c2.6,17.3-9.4,33.5-26.8,36c-17.3,2.6-33.5-9.4-36-26.8c-2.6-17.3,9.4-33.5,26.8-36l0,0
	C502.1,71,518.2,83,520.8,100.3L520.8,100.3z"/>
<path class="st2" d="M520.7,99.4c-0.2,0-0.5-1.3-1.4-3.7c-1.2-3.3-2.9-6.3-5-9.1c-1.5-1.9-3.2-3.6-5-5.1c-2.1-1.7-4.4-3.2-6.9-4.3
	c-1.3-0.6-2.7-1.1-4.1-1.5c-1.5-0.4-3-0.8-4.5-1c-1.6-0.2-3.2-0.3-4.8-0.3c-3.3,0.1-6.5,0.6-9.6,1.7c-1.5,0.5-2.9,1.2-4.3,1.9
	c-1.4,0.7-2.7,1.5-3.9,2.4c-1.2,0.9-2.3,1.8-3.4,2.9c-1.9,1.9-3.6,4.1-5,6.4c-1.2,2.1-2.2,4.2-2.9,6.5c-1,3.3-1.6,6.8-1.6,10.3
	c0,2.5,0.2,3.9,0,3.9s-0.6-1.3-0.9-3.8c-0.4-3.6-0.1-7.3,0.9-10.8c1.4-5.3,4.2-10.1,8-14c1.1-1.1,2.3-2.2,3.5-3.1
	c1.3-1,2.7-1.9,4.1-2.7c1.5-0.8,3.1-1.5,4.7-2.1c1.7-0.6,3.4-1,5.1-1.3s3.5-0.5,5.3-0.5c1.7,0,3.4,0.1,5.1,0.3
	c1.6,0.2,3.3,0.6,4.8,1.1s3,1,4.4,1.7c2.6,1.3,5.1,2.9,7.3,4.8c1.9,1.7,3.6,3.6,5.1,5.6c2.1,3,3.7,6.3,4.5,9.8
	C520.8,97.9,520.8,99.3,520.7,99.4z"/>
<path class="st2" d="M495.7,123.1l0.9,5.5l-4.9,0.8l-0.9-5.3c-4.9,0.5-9.8-0.3-12.8-2l1.7-6.4c3.1,1.5,6.5,2.2,10,2l-1.3-8.1
	c-5.6-0.4-12-1.3-13.1-8.3c-0.8-5.2,2.2-10.2,9.8-12.3l-0.9-5.4l4.9-0.8l0.9,5.3c3.5-0.4,7.1,0.1,10.4,1.4l-1.4,6.4
	c-2.5-1-5.2-1.4-7.9-1.3l1.3,8.3c5.6,0.4,11.9,1.2,13,8.1C506.2,116,503.2,121,495.7,123.1z M487.3,102.4l-1.1-6.9
	c-2.5,1-3.3,2.6-3,4.2S485.1,102,487.3,102.4L487.3,102.4z M497.6,112.8c-0.3-1.7-1.8-2.4-4-2.8l1.1,6.7
	C497,115.8,497.9,114.3,497.6,112.8L497.6,112.8z"/>
<path class="st0" d="M162.4,240.8c1.9,13.1-7.1,25.3-20.2,27.3c-13.1,1.9-25.3-7.1-27.3-20.2c-1.9-13.1,7.1-25.3,20.2-27.3
	c0,0,0,0,0.1,0C148.3,218.6,160.4,227.7,162.4,240.8z"/>
<path class="st1" d="M156.7,241.6c1.5,10-5.4,19.3-15.4,20.8S122,257,120.5,247s5.4-19.3,15.4-20.8c0,0,0,0,0.1,0
	C146,224.7,155.2,231.6,156.7,241.6z"/>
<path class="st2" d="M156.6,241c-0.3-0.7-0.6-1.4-0.8-2.1c-0.7-1.9-1.7-3.7-2.9-5.2c-0.8-1.1-1.8-2.1-2.9-2.9c-1.2-1-2.6-1.8-4-2.5
	c-0.8-0.4-1.6-0.7-2.4-0.9c-0.8-0.3-1.7-0.4-2.6-0.6c-0.9-0.1-1.8-0.2-2.7-0.2s-1.9,0.1-2.8,0.3c-2.7,0.5-5.3,1.6-7.5,3.2
	c-0.7,0.5-1.3,1.1-1.9,1.6c-1.1,1.1-2.1,2.3-2.9,3.7c-0.7,1.2-1.3,2.4-1.7,3.8c-0.6,1.9-0.9,3.9-0.9,5.9c0.1,0.7,0.1,1.5,0,2.2
	c-0.3-0.7-0.5-1.5-0.5-2.2c-0.2-2.1-0.1-4.2,0.5-6.2c0.4-1.4,0.9-2.7,1.6-4c0.8-1.5,1.8-2.8,3-4c0.6-0.7,1.3-1.3,2-1.8
	c1.6-1.2,3.3-2.1,5.1-2.7c1-0.3,1.9-0.6,2.9-0.8s2-0.3,3-0.3s2,0,3,0.2c0.9,0.1,1.9,0.3,2.8,0.6c0.9,0.3,1.7,0.6,2.5,1
	c2.9,1.4,5.3,3.4,7.1,6c1.2,1.7,2.1,3.6,2.6,5.7C156.6,239.5,156.7,240.3,156.6,241z"/>
<path class="st2" d="M142.2,254.7l0.5,3.1l-2.8,0.5l-0.5-3.1c-2.5,0.3-5.1-0.1-7.4-1.1l1-3.7c1.8,0.9,3.8,1.3,5.8,1.1l-0.8-4.7
	c-3.2-0.2-6.9-0.7-7.5-4.8c-0.5-3,1.3-5.9,5.6-7.1l-0.5-3.1l2.8-0.4l0.5,3.1c2-0.2,4.1,0.1,6,0.8L144,239c-1.4-0.6-3-0.8-4.5-0.8
	l0.8,4.8c3.2,0.2,6.8,0.7,7.5,4.7C148.3,250.6,146.6,253.5,142.2,254.7z M137.4,242.7l-0.6-4c-1.4,0.6-1.9,1.5-1.7,2.4
	S136.1,242.6,137.4,242.7L137.4,242.7z M143.4,248.7c-0.2-1-1.1-1.4-2.3-1.6l0.6,3.9C143,250.5,143.5,249.6,143.4,248.7L143.4,248.7
	z"/>
<path class="st0" d="M121.3,187.9c-7.3,4.6-16.9,2.5-21.5-4.8s-2.5-16.9,4.8-21.5s16.9-2.5,21.5,4.8l0,0
	C130.7,173.7,128.5,183.3,121.3,187.9L121.3,187.9z"/>
<path class="st1" d="M119.3,184.8c-5.6,3.5-12.9,1.9-16.4-3.7c-3.5-5.6-1.9-12.9,3.7-16.4s12.9-1.9,16.4,3.7l0,0
	C126.5,174,124.8,181.3,119.3,184.8z"/>
<path class="st2" d="M119.6,184.6c0-0.1,0.4-0.4,1-1c0.9-0.9,1.7-2,2.3-3.1c0.9-1.7,1.4-3.6,1.4-5.5c0-0.6,0-1.1-0.1-1.6
	c-0.1-0.6-0.2-1.1-0.4-1.7c-0.2-0.6-0.4-1.1-0.6-1.7c-0.5-1.1-1.2-2.1-2.1-3c-0.4-0.4-0.8-0.8-1.3-1.2c-0.4-0.4-0.9-0.7-1.4-1
	s-1-0.6-1.5-0.8c-1-0.4-2-0.6-3-0.8c-0.9-0.1-1.8-0.1-2.7,0c-1.3,0.1-2.6,0.5-3.8,1c-0.4,0.2-0.9,0.4-1.3,0.6c0,0,0.4-0.4,1.2-0.9
	c1.2-0.7,2.5-1.1,3.8-1.3c0.9-0.1,1.9-0.2,2.8-0.1c1.1,0.1,2.2,0.3,3.2,0.7c0.6,0.2,1.1,0.5,1.6,0.7c0.5,0.3,1.1,0.6,1.6,1
	c1,0.8,1.9,1.8,2.7,2.8c0.4,0.5,0.7,1.1,1,1.7c0.3,0.6,0.5,1.2,0.7,1.8s0.3,1.2,0.4,1.8s0.1,1.2,0.1,1.8c0,1.1-0.2,2.2-0.5,3.2
	c-0.3,0.9-0.7,1.8-1.2,2.6c-0.7,1.2-1.6,2.2-2.7,3.1C120.5,184.1,120.1,184.4,119.6,184.6z"/>
<path class="st2" d="M107.7,179.7l-1.7,1.1l-1-1.6l1.7-1.1c-0.9-1.4-1.3-3-1.3-4.7l2.4-0.4c0,1.3,0.3,2.6,0.9,3.7l2.6-1.7
	c-0.7-2-1.4-4.3,0.8-5.7c1.6-1.1,3.8-0.8,5.7,1.5l1.7-1.1l1,1.6l-1.7,1.1c0.7,1.1,1,2.4,1.1,3.8l-2.4,0.5c0-1-0.3-2-0.7-2.9
	l-2.6,1.7c0.7,2,1.4,4.2-0.8,5.7C111.7,182.2,109.5,181.9,107.7,179.7z M113.5,173.7l2.2-1.4c-0.7-0.7-1.4-0.7-1.9-0.4
	S113.3,172.8,113.5,173.7L113.5,173.7z M111.5,178.8c0.5-0.4,0.5-1,0.3-1.8l-2.1,1.4C110.4,179,111,179.1,111.5,178.8L111.5,178.8z"
	/>
<path class="st0" d="M540,59.1c-7.3,4.6-16.9,2.5-21.5-4.8s-2.5-16.9,4.8-21.5s16.9-2.5,21.5,4.8l0,0
	C549.4,44.9,547.3,54.5,540,59.1L540,59.1z"/>
<path class="st1" d="M538,56c-5.5,3.5-12.9,1.9-16.4-3.7s-1.9-12.9,3.7-16.4c5.5-3.5,12.9-1.9,16.4,3.7l0,0
	C545.2,45.2,543.5,52.5,538,56z"/>
<path class="st2" d="M538.3,55.8c0-0.1,0.4-0.4,1-1c0.9-0.9,1.7-2,2.3-3.1c0.4-0.8,0.8-1.6,1-2.5c0.3-1,0.4-2,0.4-3
	c0-0.6,0-1.1-0.1-1.7c-0.1-0.6-0.2-1.1-0.4-1.7c-0.2-0.6-0.4-1.1-0.6-1.7c-0.3-0.6-0.6-1.1-0.9-1.6c-0.3-0.5-0.7-1-1.1-1.4
	c-0.4-0.4-0.8-0.8-1.3-1.2c-0.4-0.4-0.9-0.7-1.4-1s-1-0.5-1.5-0.7c-1-0.4-2-0.6-3-0.7c-0.9-0.1-1.8-0.1-2.7,0
	c-1.3,0.1-2.6,0.5-3.8,1c-0.4,0.2-0.9,0.4-1.3,0.6c0,0,0.4-0.4,1.2-0.9c1.2-0.7,2.5-1.1,3.8-1.3c0.9-0.2,1.9-0.2,2.8-0.1
	c1.1,0.1,2.2,0.3,3.2,0.7c0.6,0.2,1.1,0.5,1.6,0.7c1.1,0.6,2.1,1.4,3,2.3c0.4,0.5,0.8,1,1.2,1.5c0.4,0.6,0.7,1.1,1,1.7
	c0.3,0.6,0.5,1.2,0.7,1.8s0.3,1.2,0.4,1.8c0.1,0.6,0.1,1.2,0.1,1.8c0,1.1-0.2,2.2-0.5,3.2c-0.3,0.9-0.7,1.8-1.2,2.7
	c-0.7,1.2-1.6,2.2-2.7,3C539.2,55.4,538.8,55.6,538.3,55.8z"/>
<path class="st2" d="M526.4,50.9l-1.7,1.1l-1-1.5l1.7-1.1c-0.9-1.4-1.3-3-1.3-4.7l2.4-0.4c0,1.3,0.3,2.6,0.9,3.7l2.6-1.7
	c-0.7-2-1.4-4.3,0.8-5.7c1.6-1.1,3.8-0.8,5.7,1.5l1.8-1.1l1,1.5l-1.7,1.1c0.7,1.2,1,2.4,1.1,3.8l-2.4,0.5c-0.1-1-0.3-2-0.7-2.9
	l-2.6,1.7c0.7,2,1.4,4.2-0.8,5.7C530.4,53.4,528.2,53.1,526.4,50.9z M532.2,44.9l2.2-1.4c-0.7-0.7-1.4-0.7-1.9-0.4
	S532,44,532.2,44.9L532.2,44.9z M530.2,50c0.5-0.4,0.5-1,0.3-1.8l-2.1,1.4C529.1,50.2,529.7,50.3,530.2,50L530.2,50z"/>
<g id="freepik--Floor--inject-3">
	<path class="st3" d="M710.3,470.4c0,0.1-150.1,0.3-335.2,0.3s-335.3-0.1-335.3-0.3s150.1-0.3,335.3-0.3S710.3,470.2,710.3,470.4z"
		/>
</g>
<g id="freepik--Device--inject-3">
	<path class="st3" d="M669,134.6H288.3c-6.6,0-11.9,5.3-11.9,11.9l0,0v268.9c0,6.6,5.3,11.9,11.9,11.9l0,0h146.1
		c0,0,9.3,28.7-19.5,43.6h136.6c0,0-32.5-11.2-24.2-43.6H669c6.6,0,11.9-5.3,11.9-11.9l0,0V146.5C680.9,140,675.6,134.6,669,134.6
		L669,134.6z"/>
	<path class="st4" d="M483.7,399c5.2,7.4-2.9,15.5-10.3,10.3c-0.2-0.2-0.5-0.4-0.6-0.6c-5.2-7.4,2.9-15.5,10.3-10.3
		C483.3,398.5,483.5,398.8,483.7,399z"/>
	<path class="st5" d="M292.6,139.6h372c5.4,0,9.7,4.3,9.7,9.7l0,0v228.9l0,0H283l0,0V149.3C283,143.9,287.3,139.6,292.6,139.6z"/>
	<rect x="316.1" y="193.4" class="st6" width="12.8" height="143.4"/>
	<rect x="340.9" y="242.1" class="st6" width="12.8" height="94.7"/>
	<rect x="365.7" y="211.2" class="st6" width="12.8" height="126.3"/>
	<rect x="390.5" y="199" class="st6" width="12.8" height="137.8"/>
	<rect x="415.2" y="245" class="st6" width="12.8" height="91.8"/>
	<rect x="440" y="263" class="st6" width="12.8" height="73.8"/>
	<rect x="464.8" y="208.1" class="st6" width="12.8" height="128.6"/>
	<rect x="489.6" y="231.3" class="st6" width="12.8" height="105.4"/>
	<rect x="514.4" y="212.8" class="st6" width="12.8" height="124"/>
	<rect x="539.2" y="252.3" class="st6" width="12.8" height="84.5"/>
	<rect x="588.6" y="208.1" class="st6" width="12.8" height="128.6"/>
	<rect x="641.2" y="290.9" class="st6" width="12.8" height="44"/>
	<rect x="615.5" y="252.3" class="st6" width="12.8" height="84.5"/>
	<rect x="563.9" y="236.2" class="st6" width="12.8" height="100.5"/>
	<path class="st3" d="M657.7,211.7c-0.4,0-0.8-0.1-1.1-0.2l-3.3-0.7c-1.8-0.4-3.5-0.7-5.3-0.9c-2.4-0.3-4.9-0.5-7.3-0.6
		c-6.7-0.2-13.5,0.4-20.1,1.7c-8.7,1.9-17.1,5.1-24.9,9.4c-9.4,5.3-18,12.1-25.2,20.1c-7.9,8.6-14.5,19.3-21.3,30.5
		s-13.8,23.4-23.9,33.8c-5,5.4-11,9.9-17.6,13.2c-3.4,1.7-7.1,2.8-10.9,3.3s-7.7,0.4-11.5-0.4c-7.6-1.7-14.4-5.7-20-10.5
		s-10.6-10.2-14.9-16.2c-8.6-11.6-14.7-24.1-21.3-35.5s-13.1-22.1-21.3-30.5c-3.9-4.1-8.3-7.5-13.1-10.3c-2.3-1.3-4.7-2.5-7.1-3.4
		s-4.8-1.6-7.2-2.1c-8.7-2-17.8-1.7-26.4,0.7c-6.5,1.9-12.6,4.8-18.1,8.7c-3.4,2.5-6.6,5.4-9.5,8.5l-2.2,2.5
		c-0.2,0.3-0.5,0.6-0.8,0.8c0.2-0.3,0.4-0.6,0.7-0.9l2.1-2.6c2.8-3.2,6-6.2,9.4-8.8c5.5-4,11.7-7.1,18.2-9c8.7-2.6,17.9-3,26.8-1
		c9.9,2,19.9,7.6,28.1,16.1s15,19.2,21.6,30.6s12.7,23.9,21.3,35.3c4.2,5.9,9.2,11.3,14.6,16c5.6,4.7,12.1,8.6,19.4,10.2
		c3.6,0.7,7.3,0.9,11,0.4c3.6-0.5,7.2-1.6,10.5-3.2c6.5-3.2,12.3-7.6,17.2-12.9c10-10.2,16.9-22.3,23.8-33.5s13.5-22,21.5-30.7
		c7.4-8,16.1-14.9,25.6-20.2c7.9-4.4,16.4-7.5,25.3-9.3c6.7-1.3,13.5-1.8,20.3-1.5c2.5,0.1,4.9,0.4,7.4,0.8c1.8,0.2,3.6,0.6,5.3,1
		l3.2,0.8C656.9,211.5,657.3,211.6,657.7,211.7z"/>
	<path class="st3" d="M302,346.8c-0.3,0-0.5-40.9-0.5-91.3s0.2-91.3,0.5-91.3s0.5,40.9,0.5,91.3S302.3,346.8,302,346.8z"/>
	<path class="st3" d="M654,346.8c0,0.3-77,0.5-172,0.5s-172-0.2-172-0.5s77-0.5,172-0.5S654,346.5,654,346.8z"/>
	<path class="st3" d="M334.4,358c0,0.3-4.3,0.5-9.5,0.5s-9.5-0.2-9.5-0.5s4.3-0.5,9.5-0.5S334.4,357.8,334.4,358z"/>
	<path class="st3" d="M366,358.6c0,0.3-5.1,0.5-11.4,0.5s-11.4-0.2-11.4-0.5s5.1-0.5,11.4-0.5S366,358.3,366,358.6z"/>
	<path class="st3" d="M393,358.6c0,0.3-5.1,0.5-11.4,0.5s-11.4-0.2-11.4-0.5s5.1-0.5,11.4-0.5S393,358.3,393,358.6z"/>
	<path class="st3" d="M419.9,358.6c0,0.3-5.1,0.5-11.4,0.5s-11.4-0.2-11.4-0.5s5.1-0.5,11.4-0.5S419.9,358.3,419.9,358.6z"/>
	<path class="st3" d="M446.9,358.6c0,0.3-5.1,0.5-11.4,0.5s-11.4-0.2-11.4-0.5s5.1-0.5,11.4-0.5S446.9,358.3,446.9,358.6z"/>
	<path class="st3" d="M473.8,358.6c0,0.3-5.1,0.5-11.4,0.5s-11.4-0.2-11.4-0.5s5.1-0.5,11.4-0.5S473.8,358.3,473.8,358.6z"/>
	<path class="st3" d="M500.8,358.6c0,0.3-5.1,0.5-11.4,0.5s-11.4-0.2-11.4-0.5s5.1-0.5,11.4-0.5S500.8,358.3,500.8,358.6z"/>
	<path class="st3" d="M527.7,358.6c0,0.3-5.1,0.5-11.4,0.5s-11.4-0.2-11.4-0.5s5.1-0.5,11.4-0.5S527.7,358.3,527.7,358.6z"/>
	<path class="st3" d="M554.7,358.6c0,0.3-5.1,0.5-11.4,0.5s-11.4-0.2-11.4-0.5s5.1-0.5,11.4-0.5S554.7,358.3,554.7,358.6z"/>
	<path class="st3" d="M581.6,358.6c0,0.3-5.1,0.5-11.4,0.5s-11.4-0.2-11.4-0.5s5.1-0.5,11.4-0.5S581.6,358.3,581.6,358.6z"/>
	<path class="st3" d="M606.7,358.6c0,0.3-5.1,0.5-11.4,0.5s-11.4-0.2-11.4-0.5s5.1-0.5,11.4-0.5S606.7,358.3,606.7,358.6z"/>
	<path class="st3" d="M631.8,358.6c0,0.3-5.1,0.5-11.4,0.5s-11.4-0.2-11.4-0.5s5.1-0.5,11.4-0.5S631.8,358.4,631.8,358.6z"/>
	<path class="st3" d="M656.8,358.6c0,0.3-5.1,0.5-11.4,0.5s-11.4-0.2-11.4-0.5s5.1-0.5,11.4-0.5S656.8,358.4,656.8,358.6z"/>
	<path class="st3" d="M433,260.2c0-0.2,1.6,0.3,2.1,2.5c0.3,1.2,0.2,2.6-0.4,3.7c-0.4,0.8-1.1,1.3-1.9,1.6c-0.9,0.2-1.8,0.1-2.6-0.3
		c-1.5-0.8-2.3-2.4-2.2-4.1c0.1-1.3,0.7-2.5,1.8-3.3c0.7-0.6,1.6-0.8,2.5-0.6C432.8,259.8,433,260.1,433,260.2
		c-0.1,0-1.3-0.4-2.6,0.8c-0.7,0.7-1.1,1.6-1.1,2.6c0,1.1,0.6,2.2,1.6,2.8c0.9,0.6,2.1,0.3,2.6-0.6c0,0,0,0,0-0.1
		c0.5-0.9,0.7-1.9,0.5-2.9C433.9,261,432.9,260.3,433,260.2z"/>
	<path class="st3" d="M601.9,213c0-0.1,0.4-0.2,1.1,0c1,0.4,1.8,1.1,2.3,2c0.8,1.4,1,3,0.6,4.5c-0.5,2-2.3,3.4-4.4,3.5
		c-1.1,0-2.1-0.6-2.8-1.4c-0.6-0.7-1-1.6-1.2-2.5c-0.4-1.5-0.1-3.1,0.7-4.5c1.6-2.2,3.5-2.1,3.5-2c0.1,0.2-1.5,0.5-2.6,2.5
		c-0.6,1.1-0.7,2.4-0.3,3.6c0.3,1.3,1.4,2.8,2.7,2.8c1.4-0.1,2.7-1.1,3.1-2.5c0.4-1.2,0.3-2.5-0.2-3.6
		C603.9,214.4,603,213.5,601.9,213z"/>
	<rect x="198.7" y="66.8" class="st5" width="257.6" height="200.5"/>
	<path class="st3" d="M456.3,267.3c0-2-0.1-79.5-0.2-200.5l0.2,0.2H198.7l0,0l0.3-0.3c0,72.3,0,140.6,0,200.5l-0.3-0.3L456.3,267.3
		l-257.5,0.2h-0.3v-0.3c0-59.9,0-128.2,0-200.5v-0.3h0.3h257.6h0.2v0.2C456.4,187.8,456.3,265.3,456.3,267.3z"/>
	<rect x="211.2" y="93.2" class="st3" width="41.7" height="2.3"/>
	<rect x="211.2" y="98.6" class="st3" width="20.6" height="2.3"/>
	<rect x="235" y="238.5" class="st3" width="7.6" height="2.2"/>
	<rect x="252.1" y="250.1" class="st3" width="9.7" height="2.2"/>
	<rect x="285.7" y="250.1" class="st3" width="9.7" height="2.2"/>
	<rect x="319.4" y="250.1" class="st3" width="9.7" height="2.2"/>
	<rect x="353" y="250.1" class="st3" width="9.7" height="2.2"/>
	<rect x="386.6" y="250.1" class="st3" width="9.7" height="2.2"/>
	<rect x="420.3" y="250.1" class="st3" width="9.7" height="2.2"/>
	<rect x="235" y="209.4" class="st3" width="7.6" height="2.2"/>
	<rect x="235" y="154.7" class="st3" width="7.6" height="2.2"/>
	<rect x="235" y="127.2" class="st3" width="7.6" height="2.2"/>
	<rect x="235.4" y="182.1" class="st3" width="7.6" height="2.2"/>
	<path class="st3" d="M429.6,240.7c0,0-0.3,0-0.8,0h-2.4l-9.1,0.1l-33.6,0.1L272.8,241h-26.5v-0.3c0-37.1,0.1-69.7,0.1-93.1
		c0-11.7,0.1-21,0.1-27.5c0-3.2,0-5.7,0-7.4c0-0.8,0-1.5,0-1.9s0-0.7,0-0.7s0,0.2,0,0.7s0,1.1,0,1.9c0,1.7,0,4.2,0,7.4
		c0,6.5,0,15.8,0.1,27.5c0,23.4,0.1,56,0.1,93.1l-0.3-0.3h26.5l110.9,0.1l33.6,0.1l9.1,0.1h2.4L429.6,240.7z"/>
	<path class="st3" d="M431.8,183.1c0,0.1-39.8,0.3-89,0.3s-89-0.1-89-0.3s39.8-0.3,89-0.3S431.8,183,431.8,183.1z"/>
	<path class="st3" d="M431.8,155.8c0,0.1-39.8,0.3-89,0.3s-89-0.1-89-0.3s39.8-0.3,89-0.3S431.8,155.6,431.8,155.8z"/>
	<path class="st3" d="M431.8,128.3c0,0.1-39.8,0.3-89,0.3s-89-0.1-89-0.3s39.8-0.3,89-0.3S431.8,128.1,431.8,128.3z"/>
	<path class="st3" d="M431.8,210.5c0,0.1-39.8,0.3-89,0.3s-89-0.1-89-0.3s39.8-0.3,89-0.3S431.8,210.4,431.8,210.5z"/>
	<path class="st4" d="M255.7,234.8v-24.3l15.1-23.5l10.3,7.9l21.1-32.7l12.4,8.8l17.3-30.2l14,11.4l21.1-40l22.7,44.8l18.3-22.4
		l21.6-6.2v106.5H255.7V234.8z"/>
	<path class="st3" d="M431.8,119.7c-0.1,0-0.3,0-0.4,0h-1.1h-4.4l-16.6,0.1l0.1-0.1L391.6,143l-0.1,0.1h-0.1H347l0.2-0.1l-18.7,31.1
		c-6.4,10.6-12.5,20.9-18.4,30.5l-0.2,0.3l-0.2-0.3l-24.1-33.1h0.4l-22,34.3l-6.1,9.5c-0.7,1.1-1.2,1.9-1.6,2.5s-0.6,0.8-0.6,0.8
		s0.2-0.3,0.5-0.9l1.6-2.5c1.4-2.2,3.4-5.4,6-9.6l21.8-34.4l0.2-0.3l0.2,0.2l24.2,33.1h-0.4l18.3-30.5l18.7-31.1l0.1-0.1h0.2
		l44.5,0.1l-0.2,0.1l17.9-23.1v-0.1h0.1l16.6,0.1h4.4h1.1L431.8,119.7z"/>
	<path class="st3" d="M293,179.2c0,0.9-0.7,1.7-1.6,1.8c-0.9,0-1.7-0.7-1.8-1.6c0-0.9,0.7-1.7,1.6-1.8c0,0,0,0,0.1,0
		C292.2,177.5,293,178.3,293,179.2z"/>
	<path class="st3" d="M344.4,150c0,0.9-0.7,1.7-1.6,1.8c-0.9,0-1.7-0.7-1.8-1.6c0-0.9,0.7-1.7,1.6-1.8h0.1
		C343.6,148.3,344.3,149.1,344.4,150L344.4,150z"/>
	<ellipse class="st3" cx="382.6" cy="142.9" rx="1.7" ry="1.6"/>
	<path class="st3" d="M209.4,75.1c0,1.1-0.9,2-2,2s-2-0.9-2-2s0.9-2,2-2S209.4,74,209.4,75.1z"/>
	<path class="st3" d="M215.2,75.1c0,1.1-0.9,2-2,2s-2-0.9-2-2s0.9-2,2-2S215.2,74,215.2,75.1z"/>
	<path class="st3" d="M221,75.1c0,1.1-0.9,2-2,2s-2-0.9-2-2s0.9-2,2-2S221,74,221,75.1z"/>
	<path class="st3" d="M456.1,82.9c0,0.1-57.6,0.3-128.6,0.3S199,83,199,82.9s57.5-0.3,128.6-0.3S456.1,82.7,456.1,82.9z"/>
</g>
<g id="freepik--money-box--inject-3">
	<path class="st7" d="M39.9,386.6l5.4,19.4c3.1,10.9,13.9,17.8,25.1,16l0,0c0,0,10.2,14.6,14.6,17l3.9,31.1h23.4l1.8-12.6
		c16.8,7.1,35,10.3,53.1,9.5c29.6-1.6,36.7-10.2,36.7-10.2l3.5,13.4h26.4l4.3-34.3c0,0,32.3-28.8,24-62.2c0,0,23.2-15.9,15.4-38.5
		l-4.7-2.1c0,0-7.5,13.4-15.4,16.1c0,0-21.2-68.2-101-62.6c0,0-26.6-1.2-51.8,10.6c0,0-28-14.6-48.8-3.9c0,0-0.4,24,11.4,37.8
		c0,0-10.2,22.9-11,27.6l-3,1.2C42.6,364,36.9,375.6,39.9,386.6z"/>
	<path class="st3" d="M96.4,357.3c0,3.6-2.9,6.5-6.5,6.5s-6.5-2.9-6.5-6.5s2.9-6.5,6.5-6.5l0,0C93.4,350.8,96.4,353.7,96.4,357.3z"
		/>
	<g class="st8">
		<path d="M126.4,303.8l2.9,8.2c0,0,35.5-10.6,58.4,0l3.2-8.2C191,303.8,163.1,290.9,126.4,303.8z"/>
	</g>
	<path class="st3" d="M193.9,315.8c-0.2-0.1-0.4-0.2-0.6-0.4c-0.4-0.3-1.1-0.6-1.9-1.1c-2.3-1.3-4.7-2.4-7.2-3.3
		c-3.7-1.3-7.6-2.2-11.5-2.6c-4.8-0.6-9.6-0.7-14.4-0.5c-4.8,0.1-9.6,0.5-14.4,1.2c-3.9,0.5-7.7,1.4-11.5,2.7
		c-2.5,0.9-4.9,2-7.2,3.4c-1.6,1-2.4,1.6-2.5,1.6c0.2-0.2,0.4-0.3,0.6-0.5c0.6-0.5,1.2-0.9,1.8-1.2c2.2-1.4,4.7-2.6,7.2-3.5
		c3.7-1.3,7.6-2.3,11.5-2.8c4.8-0.7,9.6-1,14.5-1.2c4.8-0.2,9.7,0,14.5,0.6c3.9,0.5,7.8,1.4,11.5,2.8c2.5,0.9,4.9,2.1,7.2,3.5
		c0.8,0.5,1.4,0.9,1.8,1.2C193.5,315.5,193.7,315.6,193.9,315.8z"/>
	<g class="st9">
		<path d="M54.9,377.9c-0.4-1-1-1.9-1.8-2.7c-0.8-0.8-2-1-3-0.5l0,0c-0.8,0.6-1.3,1.4-1.5,2.4c-1.3,6-0.3,12.2,2.9,17.4
			c0.4,0.7,1.2,1.3,2,1.4c1.8,0.3,2.7-1.3,3.2-2.8C58.2,388.1,57,382.7,54.9,377.9z"/>
	</g>
	<path class="st3" d="M69.2,394c-0.1-0.5-0.1-1,0-1.5c0-0.6,0-1.2,0-1.8c0-0.7,0-1.5,0-2.3s-0.1-1.8-0.2-2.8s-0.3-2.1-0.5-3.2
		c-0.9-4.8-2.7-9.5-5.2-13.7c-0.6-1-1.2-1.9-1.8-2.7s-1.2-1.6-1.7-2.2s-1.1-1.2-1.5-1.7s-0.9-0.9-1.2-1.3c-0.4-0.3-0.7-0.7-1-1.1
		c0.4,0.3,0.8,0.6,1.2,1s0.9,0.8,1.3,1.2c0.6,0.5,1.1,1.1,1.6,1.7c0.6,0.6,1.2,1.4,1.8,2.2s1.2,1.7,1.8,2.7c1.3,2.1,2.4,4.3,3.3,6.6
		c0.9,2.3,1.5,4.7,2,7.2c0.2,1.1,0.4,2.2,0.4,3.2s0.1,2,0.2,2.8s0,1.6,0,2.3c0,0.6-0.1,1.2-0.1,1.8C69.4,393,69.3,393.5,69.2,394z"
		/>
	<path class="st3" d="M76.4,380c-0.1,0-0.5-1.6-1.6-4.2c-0.7-1.5-1.4-2.9-2.3-4.2c-1.1-1.6-2.3-3.2-3.7-4.6
		c-1.4-1.4-2.9-2.7-4.5-3.9c-1.3-0.9-2.7-1.7-4.2-2.5c-2.5-1.2-4.1-1.7-4.1-1.8c0.4,0,0.8,0.1,1.2,0.3c0.5,0.1,0.9,0.3,1.3,0.5
		c0.6,0.2,1.2,0.4,1.7,0.7c1.5,0.7,2.9,1.5,4.3,2.4c1.6,1.1,3.2,2.4,4.6,3.9s2.6,3,3.7,4.7c0.9,1.4,1.6,2.8,2.2,4.4
		c0.3,0.6,0.5,1.2,0.6,1.8c0.2,0.4,0.3,0.9,0.4,1.4C76.3,379.2,76.3,379.6,76.4,380z"/>
	<path class="st3" d="M49.2,377c-0.1-0.4,0-0.8,0.3-1c0.3-0.3,0.7-0.5,1.2-0.6c0.6-0.1,1.2,0.1,1.7,0.5c1,1.1,1.8,2.4,2.2,3.8
		c1.4,3.3,2,6.9,2,10.5c0.1,1.5-0.2,3-0.8,4.3c-0.5,0.9-1.5,1.4-2.6,1.3c-0.7-0.1-1-0.6-0.9-0.5c0.3,0.2,0.6,0.3,1,0.4
		c0.9,0,1.8-0.5,2.3-1.3c0.5-1.3,0.8-2.7,0.6-4.1c0-1.8-0.2-3.5-0.5-5.2s-0.8-3.4-1.4-5c-0.4-1.4-1.1-2.6-2-3.7
		c-0.7-0.6-1.8-0.7-2.5-0.1C49.4,376.4,49.2,376.7,49.2,377z"/>
	<path class="st3" d="M99.4,381.6c0,0,0.2,0.2,0.3,0.6c0.2,0.6,0.4,1.2,0.4,1.8c0.5,4.2-2.5,8-6.7,8.5c-0.1,0-0.3,0-0.4,0
		c-0.6,0-1.2,0-1.9-0.1c-0.4-0.1-0.7-0.2-0.7-0.2c0.8,0.1,1.6,0.1,2.5,0c4.1-0.4,7.1-4,6.8-8.1C99.7,383.2,99.6,382.4,99.4,381.6z"
		/>
	<path class="st3" d="M95.7,341.4c-2.1-0.8-4.2-1.4-6.4-1.7c-2.2-0.1-4.5,0.1-6.6,0.6c0.6-0.4,1.2-0.6,1.9-0.7
		c1.6-0.4,3.2-0.5,4.8-0.4c1.6,0.1,3.2,0.5,4.7,1.2C94.6,340.6,95.2,340.9,95.7,341.4z"/>
	<path class="st5" d="M205.8,298.2l-0.2-0.1l-0.7-0.3l-2.8-1.1l-2-0.8c-0.7-0.3-1.6-0.5-2.4-0.9c-1.8-0.6-3.7-1.4-6-1.9l-3.5-1
		c-1.2-0.3-2.5-0.6-3.9-0.9c-2.6-0.7-5.6-1.1-8.6-1.6c-6.6-0.9-13.3-1.2-20-1c-6.7,0.3-13.3,1.1-19.8,2.5c-3,0.7-5.9,1.3-8.4,2.2
		c-1.3,0.4-2.6,0.7-3.8,1.2l-3.4,1.2c-2.2,0.7-4.1,1.6-5.8,2.4c-0.8,0.4-1.7,0.7-2.4,1l-1.9,1l-2.7,1.3l-0.7,0.3
		c-0.1,0-0.2,0.1-0.2,0.1s0.1,0,0.2-0.1l0.7-0.4l2.7-1.4l1.9-1c0.7-0.4,1.5-0.7,2.3-1.1c1.7-0.7,3.6-1.7,5.8-2.4l3.4-1.3
		c1.2-0.4,2.5-0.8,3.8-1.2c2.6-0.9,5.5-1.5,8.5-2.2c6.6-1.4,13.2-2.2,19.9-2.5c6.7-0.2,13.4,0.2,20,1.1c3.1,0.5,5.9,0.9,8.6,1.6
		c1.3,0.3,2.6,0.6,3.9,0.9l3.5,1c2.3,0.6,4.2,1.4,6,2c0.9,0.3,1.7,0.6,2.4,0.9l2,0.9l2.8,1.2l0.7,0.3
		C205.8,298.1,205.8,298.2,205.8,298.2z"/>
	<path class="st5" d="M217.7,304.8c-1.1-0.2-2.1-0.5-3.1-1c-1.1-0.3-2-0.8-2.9-1.5c1.1,0.2,2.1,0.5,3.1,1
		C215.8,303.7,216.8,304.2,217.7,304.8z"/>
	<path class="st5" d="M51.5,364.9c0,0.1-0.9,0.5-2.3,1.3c-3.6,2.3-6.3,5.8-7.6,9.9c-0.5,1.6-0.6,2.6-0.7,2.6c0-0.2,0-0.5,0-0.7
		c0.1-0.7,0.2-1.3,0.4-1.9c1.1-4.3,3.9-7.9,7.7-10.1c0.6-0.3,1.2-0.6,1.8-0.8C51,365,51.3,364.9,51.5,364.9z"/>
	<path class="st3" d="M112.9,464.3c0,0-0.2-0.2-0.6-0.6c-0.6-0.4-1.4-0.6-2.2-0.5c-1.2,0.1-2.2,0.8-2.8,1.8c-0.7,1.4-1.1,2.9-1,4.4
		h-0.5c0.2-1.6-0.4-3.2-1.5-4.3c-1.2-1.3-3.1-1.7-4.8-1c-1,0.4-1.8,1.4-2,2.5c-0.2,1,0,2.1,0.7,3l-0.4,0.2c-0.5-1.9-1.5-3.7-2.8-5.1
		c-1.1-1.1-2.6-1.6-4.2-1.3c-1,0.3-1.8,1-2.2,1.9c-0.1,0.3-0.2,0.7-0.2,1.1c-0.1-0.4-0.1-0.8,0.1-1.1c0.4-1,1.2-1.8,2.2-2.1
		c1.6-0.4,3.4,0.1,4.5,1.3c1.4,1.5,2.4,3.3,3,5.3l0.4,1.1l-0.8-0.9c-0.8-0.9-1.2-2.2-0.9-3.4c0.2-1.3,1.1-2.4,2.3-2.9
		c1.8-0.8,4-0.3,5.3,1.1c1.2,1.3,1.8,3,1.6,4.7h-0.5c-0.1-1.6,0.3-3.2,1.1-4.6c0.4-0.6,0.9-1.1,1.5-1.4c0.5-0.3,1.1-0.4,1.7-0.5
		c0.8-0.1,1.6,0.2,2.3,0.7C112.7,463.8,112.8,464,112.9,464.3z"/>
</g>
<path class="st4" d="M252.3,462.4l-1.7,7.2c0,0-11.9,15.4-15.5,14.6c-2.4-0.5,0.6-4.5,5-16.2l1-4.8L252.3,462.4z"/>
<path class="st3" d="M234.6,482c0.1,0.3,0.4,0.5,0.6,0.6c0.8,0.3,1.6,0.2,2.3-0.3c2.1-1.7,4-3.6,5.9-5.6c2.2-2.3,4-4.5,5.3-6.1
	l1.5-2c0.1-0.2,0.3-0.4,0.4-0.5c0-0.1,0.1-0.1,0.2-0.2c0,0.1-0.1,0.1-0.2,0.2l-0.4,0.6c-0.3,0.5-0.8,1.2-1.5,2
	c-1.7,2.2-3.4,4.2-5.3,6.2c-1.9,2-3.9,3.9-6,5.6c-0.4,0.3-0.9,0.4-1.3,0.5c-0.4,0-0.7-0.1-1.1-0.2c-0.2-0.1-0.4-0.3-0.5-0.5
	C234.6,482.1,234.6,482.1,234.6,482z"/>
<path class="st3" d="M236.2,477c0.3-0.1,0.7-0.2,1-0.1c0.8,0.1,1.6,0.3,2.2,0.8c0.7,0.4,1.3,1,1.6,1.7c0.2,0.3,0.3,0.6,0.3,1
	c0,0-0.1-0.4-0.4-0.9c-0.4-0.7-0.9-1.2-1.6-1.6c-0.6-0.4-1.4-0.7-2.1-0.8C236.9,477,236.6,477,236.2,477z"/>
<path class="st3" d="M247.5,473.4c-0.1-0.1-0.1-0.2-0.1-0.4c-0.1-0.3-0.2-0.7-0.2-1c-0.2-1.1,0-2.3,0.6-3.3c0.5-1,1.4-1.8,2.4-2.3
	c0.3-0.1,0.7-0.3,1-0.3c0.1,0,0.2,0,0.4,0c-0.4,0.1-0.9,0.3-1.3,0.5c-1,0.5-1.8,1.3-2.3,2.3s-0.7,2.1-0.6,3.2
	C247.3,472.9,247.5,473.4,247.5,473.4z"/>
<path class="st3" d="M251.5,463.6c0,0-0.2,1-0.4,2.3c-0.1,0.8-0.3,1.6-0.6,2.3c0,0,0.2-1,0.4-2.3C251,465.1,251.2,464.3,251.5,463.6
	z"/>
<path class="st3" d="M239.9,469.1c0.5-0.1,1-0.1,1.5,0s1,0.3,1.4,0.6c0,0.1-0.6-0.3-1.4-0.4S239.9,469.1,239.9,469.1z"/>
<path class="st3" d="M239.6,470.3c0.4-0.1,0.9-0.1,1.3,0c0.4,0.1,0.8,0.3,1.1,0.6c0,0-0.5-0.3-1.2-0.4S239.7,470.4,239.6,470.3z"/>
<path class="st3" d="M238.7,471.9c0.4-0.2,0.9-0.3,1.3-0.2c0.5,0.1,0.9,0.3,1.1,0.7c-0.4-0.2-0.8-0.4-1.2-0.5
	C239.6,471.8,239.1,471.8,238.7,471.9z"/>
<path class="st3" d="M240.7,468.5c0,0,0.5-0.1,1.4-0.5c0.5-0.2,1-0.4,1.4-0.7c0.2-0.1,0.5-0.3,0.8-0.5s0.5-0.4,0.5-0.7
	s-0.4-0.4-0.6-0.4c-0.3,0.1-0.5,0.3-0.7,0.5c-0.4,0.4-0.8,0.8-1.1,1.1c-0.6,0.7-0.9,1.1-1,1.1c0.1-0.1,0.1-0.2,0.2-0.3
	c0.1-0.2,0.4-0.5,0.6-0.9c0.3-0.4,0.7-0.8,1.1-1.2c0.2-0.3,0.5-0.4,0.8-0.5c0.4-0.1,0.8,0.1,0.9,0.5v0.1c0,0.4-0.3,0.7-0.6,0.9
	c-0.3,0.2-0.5,0.3-0.8,0.5c-0.5,0.3-1,0.5-1.5,0.7c-0.3,0.1-0.7,0.2-1.1,0.3C240.9,468.6,240.7,468.6,240.7,468.5z"/>
<path class="st3" d="M241.3,468.4c-0.1-0.4-0.2-0.9-0.2-1.3c-0.1-0.5-0.2-0.9-0.4-1.4c-0.1-0.3-0.3-0.5-0.4-0.7
	c-0.2-0.2-0.5-0.4-0.7-0.2s-0.2,0.5-0.2,0.7c0,0.3,0.1,0.5,0.2,0.8c0.2,0.4,0.5,0.8,0.8,1.2C240.9,468.1,241.4,468.4,241.3,468.4
	c0,0-0.1,0-0.3-0.2c-0.3-0.2-0.5-0.4-0.8-0.6c-0.3-0.4-0.6-0.8-0.8-1.2c-0.1-0.3-0.2-0.6-0.3-0.9s0-0.7,0.3-0.9
	c0.3-0.1,0.7,0,0.9,0.3c0.2,0.2,0.4,0.5,0.5,0.8c0.2,0.5,0.3,0.9,0.4,1.4c0.1,0.4,0.1,0.8,0.1,1
	C241.4,468.2,241.4,468.3,241.3,468.4z"/>
<path class="st4" d="M309,465.7V456l-18-0.2l-0.2,14.1l1.1,0.1c5,0.3,25.4,1.4,28.7,0.4C324.4,469.4,309,465.7,309,465.7z"/>
<path class="st3" d="M290.5,469.6h0.3l0.9,0.1l3.3,0.2c2.8,0.1,6.6,0.3,10.9,0.3s8.1,0,10.9,0l3.3-0.1h0.9h0.3H321h-1h-3.3
	c-2.8,0-6.6,0-10.9,0s-8.1-0.2-10.9-0.3l-3.3-0.1h-0.9L290.5,469.6z"/>
<path class="st3" d="M314.9,470.4c0.2-0.5,0.4-1.1,0.6-1.6c0.3-0.5,0.7-0.9,1.1-1.2c-0.6,0.2-1,0.6-1.3,1.1
	C315,469.2,314.8,469.8,314.9,470.4z"/>
<path class="st3" d="M309.6,467.6c0,0,0.3-0.3,0.6-0.7s0.5-0.8,0.4-0.8s-0.3,0.3-0.6,0.7S309.5,467.6,309.6,467.6z"/>
<path class="st3" d="M308.1,466.8c0,0,0.3-0.1,0.6-0.4s0.5-0.5,0.5-0.6s-0.3,0.1-0.6,0.4S308.1,466.8,308.1,466.8z"/>
<path class="st3" d="M307.2,465.1c0.3,0.1,0.6,0.2,0.9,0.1c0.3,0,0.7,0,1-0.1c-0.3-0.1-0.7-0.2-1-0.1
	C307.8,465,307.5,465,307.2,465.1z"/>
<path class="st3" d="M306.9,463.9c0.3,0.2,0.7,0.3,1,0.3c0.4,0.1,0.7,0,1.1-0.1c-0.3,0-0.7-0.1-1-0.1
	C307.6,463.9,307.3,463.9,306.9,463.9z"/>
<path class="st3" d="M310.2,466c0.4,0.1,0.8,0.1,1.2,0c0.4,0,0.8-0.1,1.2-0.2c0.2-0.1,0.5-0.2,0.7-0.3c0.1-0.1,0.2-0.2,0.3-0.4
	c0-0.2,0-0.4-0.2-0.5c-0.9-0.5-2-0.2-2.6,0.6c-0.2,0.2-0.3,0.5-0.4,0.8c0,0.1,0,0.2,0,0.3c0.1-0.4,0.3-0.7,0.5-1
	c0.3-0.3,0.6-0.5,1-0.6c0.5-0.2,1-0.1,1.4,0.1c0.2,0.1,0.1,0.4-0.1,0.5s-0.4,0.2-0.7,0.3c-0.4,0.1-0.8,0.2-1.2,0.3
	C310.6,466,310.2,466,310.2,466z"/>
<path class="st3" d="M310.5,466.1c0.1-0.2,0.2-0.5,0.1-0.8c0-0.3-0.1-0.6-0.3-0.9c-0.2-0.4-0.6-0.6-1-0.6c-0.2,0.1-0.4,0.3-0.4,0.5
	s0.1,0.4,0.2,0.5c0.1,0.3,0.3,0.5,0.5,0.7s0.4,0.4,0.7,0.5c0,0-0.2-0.2-0.5-0.6c-0.2-0.2-0.3-0.4-0.5-0.7c-0.2-0.2-0.3-0.7,0-0.7
	s0.6,0.3,0.8,0.5c0.2,0.2,0.3,0.5,0.3,0.8C310.5,465.6,310.5,465.8,310.5,466.1z"/>
<path class="st3" d="M290.9,464.6c0,0,0.5,0,1.3,0.1c2.2,0.3,4,1.8,4.7,3.8c0.3,0.8,0.3,1.3,0.3,1.3c0-0.1,0-0.2,0-0.4
	c0-0.3-0.1-0.7-0.2-1c-0.6-2.2-2.6-3.8-4.8-3.9c-0.3,0-0.7,0-1,0C291.2,464.5,291,464.6,290.9,464.6z"/>
<path class="st3" d="M292.9,457.1c-0.1,1.2-0.2,2.5-0.2,3.7c-0.1,1.2-0.1,2.5,0,3.7c0.1-1.2,0.2-2.5,0.2-3.7
	C293,459.6,293,458.4,292.9,457.1z"/>
<path class="st3" d="M299.6,468.2c0.9,0.2,1.8,0.3,2.6,0.3c0.9,0.1,1.8,0,2.6-0.2c0-0.1-1.2,0-2.6,0S299.6,468.1,299.6,468.2z"/>
<path class="st3" d="M296.1,468.1c0,0,0.1,0.2,0.2,0.5s0.2,0.5,0.2,0.5s0.1-0.3,0-0.6S296.1,468.1,296.1,468.1z"/>
<path class="st3" d="M294.8,466.5c0,0,0.1,0.2,0.3,0.4s0.4,0.3,0.4,0.3s-0.1-0.2-0.2-0.4S294.8,466.4,294.8,466.5z"/>
<path class="st3" d="M292.9,465.7c0,0.1,0.2,0.1,0.5,0.2s0.5,0.2,0.5,0.2s-0.1-0.3-0.4-0.4S292.8,465.6,292.9,465.7z"/>
<path class="st3" d="M291.5,465.3c0,0,0.1,0.1,0.2,0.2s0.3,0.1,0.3,0s-0.1-0.1-0.2-0.2S291.5,465.2,291.5,465.3z"/>
<polygon class="st3" points="321.2,280.8 314.3,462.1 286.1,462.7 290.8,305.6 259.1,463.9 232.3,463.9 266.8,281.1 "/>
<path class="st4" d="M297.3,287.4c0,1-0.1,2-0.3,3c-0.3,1.8-0.7,4.4-1.1,7.1c-0.2,1.3-0.4,2.6-0.8,3.9c-0.3,1.1-1,2.1-1.8,2.8
	c-0.6,0.5-1.3,0.8-2,0.9c-0.3,0.1-0.6,0.1-0.8,0c1-0.1,1.9-0.5,2.6-1.2c0.8-0.7,1.4-1.6,1.6-2.6c0.3-1.3,0.6-2.6,0.8-3.9
	c0.5-2.8,0.9-5.3,1.3-7.1C296.8,289.3,297,288.3,297.3,287.4z"/>
<path class="st4" d="M291.4,288.2c0.1,0-0.2,0.3,0,0.8c0.1,0.3,0.2,0.5,0.5,0.6c0.4,0.2,0.9-0.1,1.1-0.5c0.1-0.2,0.1-0.3,0-0.5
	s-0.3-0.4-0.5-0.5c-0.5-0.2-0.8,0-0.8-0.1s0.3-0.4,0.9-0.3c0.4,0.1,0.7,0.4,0.9,0.7c0.2,0.5,0,1-0.4,1.4s-0.9,0.4-1.4,0.2
	c-0.3-0.2-0.6-0.6-0.6-1C291,288.4,291.4,288.2,291.4,288.2z"/>
<path class="st4" d="M276.3,290.8c-0.7-1.7-0.5-3.5,0.5-5c0.1,0.1-0.3,1.1-0.4,2.5S276.4,290.8,276.3,290.8z"/>
<path class="st4" d="M279.7,290.6c-0.4-0.8-0.6-1.8-0.4-2.7c0-0.9,0.3-1.8,0.8-2.6c0.1,0-0.2,1.2-0.3,2.6
	C279.8,288.8,279.8,289.7,279.7,290.6z"/>
<path class="st4" d="M308.8,291.3c0-0.9,0-1.8,0.2-2.7c0-0.9,0-1.8,0.1-2.7c0.4,0.9,0.5,1.8,0.4,2.8
	C309.5,289.6,309.3,290.5,308.8,291.3z"/>
<path class="st4" d="M312.5,291.1c-0.1-0.1,0.3-1.2,0.4-2.8s-0.2-2.8,0-2.8C313.7,287.4,313.6,289.5,312.5,291.1L312.5,291.1z"/>
<path class="st10" d="M282,205.3l17.4-1.4c0.1-2,0-9.9,0-9.9s7.2-1.1,7.3-8.4s-1.2-23.9-1.2-23.9l0,0c-8.4-3.6-18.1-2.4-25.3,3.2
	l-1.1,0.8L282,205.3z"/>
<path class="st11" d="M299.3,194c-3.3,0.1-6.6-0.9-9.4-2.7c0,0,2.2,5.2,9.5,4.6L299.3,194z"/>
<path class="st10" d="M280,173.3c-0.1-0.1-5-1.5-4.8,3.5s5.1,3.8,5.1,3.6S280,173.3,280,173.3z"/>
<path class="st11" d="M278.8,178.6c0,0-0.1,0.1-0.2,0.1c-0.2,0.1-0.4,0.1-0.6,0c-0.6-0.4-1-1.1-1-1.9c0-0.4,0-0.9,0.2-1.2
	c0.1-0.3,0.3-0.6,0.6-0.7c0.2-0.1,0.4,0,0.5,0.2c0.1,0.1,0,0.2,0.1,0.2s0.1-0.1,0.1-0.3c0-0.1-0.1-0.2-0.2-0.3s-0.3-0.1-0.5-0.1
	c-0.4,0.1-0.7,0.4-0.9,0.8c-0.2,0.4-0.3,0.9-0.3,1.4c0,0.9,0.5,1.7,1.3,2.1c0.3,0.1,0.6,0,0.8-0.1
	C278.8,178.7,278.8,178.6,278.8,178.6z"/>
<path class="st3" d="M308.3,155.6c-1.9-3.8-6.5-5.3-10.3-3.4c-0.6,0.3-1.1,0.7-1.6,1.1c-1.9-3.7-6.4-5.2-10.1-3.3
	c-0.9,0.4-1.6,1-2.3,1.7c-1.4,1.6-2.1,3.7-3.7,5c-1.4,1.1-3.3,1.5-4.7,2.7c-2.4,1.9-2.7,5.3-0.8,7.7c0.7,0.9,1.7,1.5,2.8,1.8
	c-1.4,2.9-0.3,6.4,2.6,7.9c0.1,0,0.2,0.1,0.3,0.1l0.7-0.3c2.8-3.1,3.3-7.6,1.5-11.4c0.1,0,0.2,0,0.3,0c2.6,1.4,5.8,0.7,7.5-1.7
	c2,1.4,4.7,1.5,6.9,0.3c0.3-0.2,0.6-0.4,1-0.5c0.5,0,0.9,0.1,1.3,0.4c1.1,0.6,2.3,0.8,3.5,0.7c1.1-0.1,2.1-0.8,2.6-1.9h0.1
	c1.4-0.3,2.5-1.4,2.9-2.8C309.1,158.3,308.9,156.9,308.3,155.6z"/>
<path class="st6" d="M319.2,242.4l0.6-32.6c-5.8-5.7-8.9-7.4-16.9-8.3l-2.2-0.2l-0.7-5.4l-19.8-1.1l1,6.4l0,0
	c-2.9,0.1-5.2,1-7.7,1.5c-7.7,1.5-13.2,7.1-14.7,12.2c-1.3,4.2-9.4,35.8-9.4,35.8l-1.6,9.5l18.1-6.6v6.9v25.2h55
	C321.2,279.5,319.2,242.4,319.2,242.4z"/>
<path class="st6" d="M256.1,251.1l27.1-3.9l5.2,9.2l-25.2,11.4c-1.4,0.6-2.9,1-4.5,1l0,0c-4.4,0-8.4-2.7-10.1-6.8l-0.8-2
	L256.1,251.1z"/>
<path class="st6" d="M311.6,203.5c0,0,7.7,2.6,10.9,10c2.1,4.8,5.2,28,5.2,28l3.9,7.5c0.9,1.8,1.4,3.8,1.4,5.8v1.1
	c0,2.9-1,5.7-2.8,8l0,0c-2.2,2.7-5.3,4.3-8.7,4.6c-3.9,0.4-8.6,0.5-9.6-0.6c-1.8-2-4.4-7.5-4.4-7.5l11.3-6l-4.9-9L311.6,203.5z"/>
<path class="st3" d="M265.1,267c0,0,0.1-0.1,0.4-0.2l1.3-0.6l4.9-2.3l16.6-7.6l-0.1,0.4L285,251l-2-3.5l0.2,0.1l-19.9,1.9l-5.9,0.5
	l-1.6,0.1c-0.2,0-0.4,0-0.6,0c0.2,0,0.4-0.1,0.6-0.1l1.6-0.2l5.9-0.7l19.9-2.1h0.2l0.1,0.1l2,3.5l3.2,5.7l0.1,0.2l-0.2,0.1
	l-16.7,7.4l-4.9,2.1l-1.3,0.6C265.4,266.9,265.2,267,265.1,267z"/>
<path class="st3" d="M269.9,248.4c-0.1,0-0.2-4.9-0.2-10.8s0.1-10.8,0.2-10.8s0.2,4.9,0.2,10.8S270,248.4,269.9,248.4z"/>
<path class="st3" d="M316.6,255.6c0,0,0.3-0.1,0.8-0.1c0.8-0.1,1.5,0,2.3,0.1c0.6,0.1,1.1,0.4,1.4,0.8c0.4,0.5,0.7,1.1,0.8,1.7
	c0.1,0.7,0.1,1.4-0.2,2.1c-0.3,0.7-0.8,1.3-1.4,1.8c-1.2,0.7-2.5,1.2-3.9,1.4c-1.1,0.2-2.2,0.3-3.4,0.3c-1,0.1-2.1-0.1-3-0.5
	c1,0.2,2,0.2,3,0.2c1.1-0.1,2.2-0.2,3.3-0.4c1.3-0.2,2.6-0.7,3.7-1.4c1.1-0.8,1.6-2.1,1.4-3.4c-0.1-0.6-0.3-1.1-0.6-1.5
	c-0.3-0.4-0.7-0.6-1.2-0.7c-0.7-0.2-1.5-0.3-2.2-0.3C317.1,255.7,316.9,255.7,316.6,255.6z"/>
<path class="st3" d="M321.1,268.7c-0.6,0.2-1.3,0.3-2,0.2c-1.6,0.1-3.2-0.2-4.7-0.8c-0.8-0.3-1.6-0.7-2.3-1.2
	c-0.6-0.4-1.1-1-1.4-1.6c-0.4-0.6-0.6-1.2-0.7-1.9c0.1,0,0.3,0.7,1,1.7c0.4,0.6,0.9,1.1,1.4,1.5c0.7,0.5,1.5,0.8,2.2,1.1
	c1.4,0.5,3,0.8,4.5,0.9C319.8,268.6,320.4,268.6,321.1,268.7z"/>
<path class="st3" d="M326.5,245.2c-0.4,0.6-0.8,1.1-1.3,1.6c-0.9,0.9-2.1,2.2-3.5,3.7s-2.6,2.7-3.6,3.6c-0.5,0.5-1,1-1.6,1.4
	c0.4-0.6,0.8-1.1,1.3-1.6c0.9-1,2.1-2.3,3.5-3.7C322.9,248.4,324.7,246.7,326.5,245.2z"/>
<path class="st3" d="M314.2,240.2c-0.3-2.1-0.3-4.1-0.2-6.2c-0.1-2.1,0-4.1,0.2-6.2c0.3,2.1,0.3,4.1,0.2,6.2
	C314.5,236,314.4,238.1,314.2,240.2z"/>
<path class="st12" d="M318.2,207.7c0,0.1-12.2,0.3-27.3,0.3s-27.3-0.1-27.3-0.3s12.2-0.3,27.3-0.3S318.2,207.5,318.2,207.7z"/>
<path class="st3" d="M300.2,201.4c-3.1,0.2-6.3,0.3-9.4,0.2c-3.1,0.1-6.3,0-9.4-0.3c3.1-0.2,6.3-0.3,9.4-0.2
	C293.9,201.1,297.1,201.2,300.2,201.4z"/>
<path class="st12" d="M324.1,218.7c0,0.1-14.8,0.3-33.1,0.3s-33.1-0.1-33.1-0.3s14.8-0.3,33.1-0.3S324.1,218.6,324.1,218.7z"/>
<path class="st12" d="M326.2,230c0,0.1-16,0.3-35.8,0.3s-35.8-0.1-35.8-0.3s16-0.3,35.8-0.3S326.2,229.9,326.2,230z"/>
<path class="st12" d="M327.5,241.1c0,0.1-16.9,0.3-37.8,0.3s-37.8-0.1-37.8-0.3s16.9-0.3,37.8-0.3S327.5,240.9,327.5,241.1z"/>
<path class="st12" d="M332.6,259c0,0.1-18.8,0.3-42,0.3s-42-0.1-42-0.3s18.8-0.3,42-0.3S332.6,258.8,332.6,259z"/>
<path class="st12" d="M320.5,271.6c0,0.1-12.4,0.3-27.7,0.3s-27.7-0.1-27.7-0.3s12.4-0.3,27.7-0.3S320.5,271.4,320.5,271.6z"/>
<path class="st10" d="M307.7,242.8l-0.6-0.4c-3.1-2.3-6.9-3.2-10.7-2.5l0,0c-3.1,0.6-5.9,1.9-8.3,3.9l-4.6,3.8l4.9,8.9l3.4-4.7
	c0,0,3.1,4.3,3.7,3.8c0.5-0.5,0.9-1.1,1.2-1.8l-2.2-3.1l5.4,1.1l7.9-3.6l-3.4-4.3l3.4,1.1L307.7,242.8L307.7,242.8z"/>
<polygon class="st3" points="299.4,241.9 282.1,262.9 283.5,264.3 311.5,260 325.4,239.1 324.1,237.9 "/>
<path class="st10" d="M317.7,247.5L317.7,247.5c-1.1,0-2.1,0.7-2.5,1.7c-0.3,1-0.9,2-1.7,2.7c-1.2,0.7-3.4,1.2-4.5,0.7
	s-5.7-4.6-6.5-4.2s-1.5,1.5-0.7,2.4s5,3.6,4.2,4.5s-9.6-3.1-11-2.7s-2.1,1.2-1.4,1.7s6.8,2.8,7.1,3.6c0,0-9.1-2.4-9.4-1.8
	s-0.9,1.5,0,1.8s8.7,2.4,9.4,2.7c1.1,0.5,2.3,0.8,3.5,1c1.2,0.3,2.5,0.7,3.6,1.1c1.8,0.6,3.8,0.6,5.6-0.1l0.9-0.4
	c1.4-0.6,2.3-2,2.2-3.5l-0.2-3.1l1-2.6L317.7,247.5z"/>
<path class="st4" d="M325.4,239.3c-0.2,0.1-0.3,0.1-0.5,0.1l-1.5,0.3l-5.5,0.9l-8.2,1.2l-4.8,0.7c-1.7,0.2-3.3,0.8-4.7,1.9
	c-1.2,1.2-2.4,2.5-3.4,3.9c-1.1,1.3-2.1,2.6-3.1,3.8l-5.2,6.5l-3.6,4.3l-1,1.2c-0.1,0.1-0.2,0.3-0.4,0.4c0,0,0.1-0.2,0.3-0.4
	l0.9-1.2l3.4-4.4l5.1-6.5l3-3.8c1-1.4,2.2-2.8,3.5-4c1.4-1.1,3.1-1.8,4.9-2l4.9-0.7l8.2-1.1l5.5-0.7l1.5-0.2
	C325,239.3,325.2,239.3,325.4,239.3z"/>
<path class="st12" d="M312.3,243.9c-0.3,0.2-0.6,0.4-0.8,0.6c-0.2,0.3-0.2,0.7,0,0.9c0.3,0.3,0.8,0.3,1.2,0c0.2-0.2,0.4-0.4,0.4-0.7
	c0.1-0.3,0-0.6-0.2-0.8s-0.5-0.2-0.8,0"/>
<g id="freepik--speech-bubble--inject-3">
	<path class="st7" d="M230.5,196.9l-5.1-9c7-11.3,3.4-26.1-7.9-33c-11.3-7-26.1-3.4-33,7.9c-7,11.3-3.4,26.1,7.9,33
		c8.5,5.2,19.4,4.7,27.3-1.5l0,0L230.5,196.9z"/>
	<path class="st5" d="M196.7,172.5c0-2.2,1.3-3.5,3.1-3.5s3.1,1.4,3.1,3.5s-1.3,3.5-3.1,3.5S196.7,174.6,196.7,172.5z M201.2,172.5
		c0-1.4-0.5-2-1.3-2s-1.3,0.7-1.3,2s0.5,2,1.3,2S201.2,173.8,201.2,172.5z M207.4,169.1h2.1l-8.6,12.8h-2.1L207.4,169.1z
		 M205.3,178.5c0-2.2,1.3-3.5,3.1-3.5s3.1,1.4,3.1,3.5s-1.3,3.5-3.1,3.5S205.3,180.7,205.3,178.5L205.3,178.5z M209.8,178.5
		c0-1.4-0.5-2-1.3-2s-1.3,0.7-1.3,2s0.5,2,1.3,2S209.8,179.9,209.8,178.5L209.8,178.5z"/>
</g>
</svg>
