<?xml version="1.0" encoding="utf-8"?>
<!-- Generator: Adobe Illustrator 23.0.1, SVG Export Plug-In . SVG Version: 6.00 Build 0)  -->
<svg version="1.1" id="Layer_1" xmlns="http://www.w3.org/2000/svg" xmlns:xlink="http://www.w3.org/1999/xlink" x="0px" y="0px"
	 viewBox="0 0 3500 2000" style="enable-background:new 0 0 3500 2000;" xml:space="preserve">
<style type="text/css">
	.st0{fill:#E0E0E0;}
	.st1{fill:#FFFFFF;}
	.st2{opacity:0.3;fill:#E0E0E0;enable-background:new    ;}
	.st3{fill:#263238;}
	.st4{fill:#455A64;}
	.st5{fill:#00858E;}
	.st6{fill:#FFC93C;}
	.st7{fill:#FFBE9D;}
	.st8{fill:#FAFAFA;}
	.st9{opacity:0.3;enable-background:new    ;}
	.st10{opacity:0.5;fill:#FFFFFF;enable-background:new    ;}
	.st11{fill:#EB996E;}
	.st12{opacity:0.2;fill:#FFFFFF;enable-background:new    ;}
	.st13{opacity:0.4;enable-background:new    ;}
	.st14{opacity:0.7;fill:#FFFFFF;enable-background:new    ;}
	.st15{fill:#B78876;}
	.st16{fill:#AA6550;}
</style>
<g>
	<path class="st0" d="M3072.3,1364.2c0-0.9,4-1.3,8.4-1.3c4.4,0,8.4,0.4,8.4,1.3c0,0.9-4,1.3-8.4,1.3
		C3076.3,1365.5,3072.3,1365.1,3072.3,1364.2z"/>
	<path class="st0" d="M3038,1364.2c0-0.9,4-1.3,8.4-1.3s8.4,0.4,8.4,1.3c0,0.9-4,1.3-8.4,1.3S3038,1365.1,3038,1364.2z"/>
	<path class="st0" d="M3003.8,1364.2c0-0.9,4-1.3,8.4-1.3s8.4,0.4,8.4,1.3c0,0.9-4,1.3-8.4,1.3S3003.8,1365.1,3003.8,1364.2z"/>
	<path class="st0" d="M2969.6,1364.2c0-0.9,4-1.3,8.4-1.3s8.4,0.4,8.4,1.3c0,0.9-4,1.3-8.4,1.3S2969.6,1365.1,2969.6,1364.2z"/>
	<path class="st0" d="M2935.4,1364.2c0-0.9,4-1.3,8.4-1.3s8.4,0.4,8.4,1.3c0,0.9-4,1.3-8.4,1.3S2935.4,1365.1,2935.4,1364.2z"/>
	<path class="st0" d="M2901.1,1364.2c0-0.9,4-1.3,8.4-1.3s8.4,0.4,8.4,1.3c0,0.9-4,1.3-8.4,1.3S2901.1,1365.1,2901.1,1364.2z"/>
	<path class="st0" d="M2866.9,1364.2c0-0.9,4-1.3,8.4-1.3s8.4,0.4,8.4,1.3c0,0.9-4,1.3-8.4,1.3S2866.9,1365.1,2866.9,1364.2z"/>
	<path class="st0" d="M2832.2,1364.2c0-0.9,4-1.3,8.4-1.3s8.4,0.4,8.4,1.3c0,0.9-4,1.3-8.4,1.3S2832.2,1365.1,2832.2,1364.2z"/>
	<path class="st0" d="M2798,1364.2c0-0.9,4-1.3,8.4-1.3s8.4,0.4,8.4,1.3c0,0.9-4,1.3-8.4,1.3S2798,1365.1,2798,1364.2z"/>
	<path class="st0" d="M2763.8,1364.2c0-0.9,4-1.3,8.4-1.3s8.4,0.4,8.4,1.3c0,0.9-4,1.3-8.4,1.3S2763.8,1365.1,2763.8,1364.2z"/>
	<path class="st0" d="M2729.6,1364.2c0-0.9,4-1.3,8.4-1.3s8.4,0.4,8.4,1.3c0,0.9-4,1.3-8.4,1.3S2729.6,1365.1,2729.6,1364.2z"/>
	<path class="st0" d="M2695.3,1364.2c0-0.9,4-1.3,8.4-1.3s8.4,0.4,8.4,1.3c0,0.9-4,1.3-8.4,1.3S2695.3,1365.1,2695.3,1364.2z"/>
	<path class="st0" d="M2670.9,1354.4c0.9,0,1.3,4,1.3,8.4v1.3l-1.3-1.3c4,0,7.1,0.9,7.1,1.3c0,0.4-3.1,1.3-7.1,1.3h-1.3v-2.7
		C2669.6,1358,2670,1354.4,2670.9,1354.4L2670.9,1354.4z"/>
	<path class="st0" d="M2670.9,1320.2c0.9,0,1.3,4,1.3,8.4s-0.9,8.4-1.3,8.4s-1.3-4-1.3-8.4S2670,1320.2,2670.9,1320.2z"/>
	<path class="st0" d="M2670.9,1286c0.9,0,1.3,4,1.3,8.4c0,4.4-0.9,8.4-1.3,8.4s-1.3-4-1.3-8.4C2669.6,1290,2670,1286,2670.9,1286z"
		/>
	<path class="st0" d="M2670.9,1251.3c0.9,0,1.3,4,1.3,8.4s-0.9,8.4-1.3,8.4s-1.3-4-1.3-8.4S2670,1251.3,2670.9,1251.3z"/>
	<path class="st0" d="M2670.9,1217.1c0.9,0,1.3,4,1.3,8.4s-0.9,8.4-1.3,8.4s-1.3-4-1.3-8.4S2670,1217.1,2670.9,1217.1z"/>
	<path class="st0" d="M2670.9,1182.9c0.9,0,1.3,4,1.3,8.4c0,4.4-0.9,8.4-1.3,8.4s-1.3-4-1.3-8.4
		C2669.6,1186.9,2670,1182.9,2670.9,1182.9z"/>
	<path class="st0" d="M2670.9,1148.6c0.9,0,1.3,4,1.3,8.4s-0.9,8.4-1.3,8.4s-1.3-4-1.3-8.4S2670,1148.6,2670.9,1148.6z"/>
	<path class="st0" d="M2670.9,1114.4c0.9,0,1.3,4,1.3,8.4s-0.9,8.4-1.3,8.4s-1.3-4-1.3-8.4S2670,1114.4,2670.9,1114.4z"/>
	<path class="st0" d="M2670.9,1080.2c0.9,0,1.3,4,1.3,8.4s-0.9,8.4-1.3,8.4s-1.3-4-1.3-8.4S2670,1080.2,2670.9,1080.2z"/>
	<path class="st0" d="M2670.9,1046c0.9,0,1.3,4,1.3,8.4s-0.9,8.4-1.3,8.4s-1.3-4-1.3-8.4S2670,1046,2670.9,1046z"/>
	<path class="st0" d="M2670.9,1011.7c0.9,0,1.3,4,1.3,8.4c0,4.4-0.9,8.4-1.3,8.4s-1.3-4-1.3-8.4
		C2669.6,1015.7,2670,1011.7,2670.9,1011.7z"/>
	<path class="st0" d="M2670.9,977.5c0.9,0,1.3,4,1.3,8.4s-0.9,8.4-1.3,8.4s-1.3-4-1.3-8.4S2670,977.5,2670.9,977.5z"/>
	<path class="st0" d="M2673.6,945.9c0,0.4-0.9,0.9-2.7,0.9l0.9-0.9c0.4,1.8,0.4,4,0.4,6.2c0,4.9-0.9,8.4-1.3,8.4s-1.3-4-1.3-8.4
		c0-2.2,0-4,0.4-6.2v-1.3h0.9C2672.7,945.1,2673.6,945.5,2673.6,945.9z"/>
	<path class="st0" d="M2707.8,945.9c0,0.9-4,1.3-8.4,1.3s-8.4-0.4-8.4-1.3c0-0.9,4-1.3,8.4-1.3S2707.8,945.1,2707.8,945.9z"/>
	<path class="st0" d="M2742,945.9c0,0.9-4,1.3-8.4,1.3s-8.4-0.4-8.4-1.3c0-0.9,4-1.3,8.4-1.3S2742,945.1,2742,945.9z"/>
	<path class="st0" d="M2776.2,945.9c0,0.9-4,1.3-8.4,1.3s-8.4-0.4-8.4-1.3c0-0.9,4-1.3,8.4-1.3S2776.2,945.1,2776.2,945.9z"/>
	<path class="st0" d="M2810.5,945.9c0,0.9-4,1.3-8.4,1.3s-8.4-0.4-8.4-1.3c0-0.9,4-1.3,8.4-1.3S2810.5,945.1,2810.5,945.9z"/>
	<path class="st0" d="M2844.7,945.9c0,0.9-4,1.3-8.4,1.3s-8.4-0.4-8.4-1.3c0-0.9,4-1.3,8.4-1.3S2844.7,945.1,2844.7,945.9z"/>
	<path class="st0" d="M2878.9,945.9c0,0.9-3.6,1.3-8.4,1.3c-4.4,0-8.4-0.4-8.4-1.3c0-0.9,3.6-1.3,8.4-1.3
		C2874.9,944.6,2878.9,945.1,2878.9,945.9z"/>
	<path class="st0" d="M2913.6,945.9c0,0.9-4,1.3-8.4,1.3s-8.4-0.4-8.4-1.3c0-0.9,4-1.3,8.4-1.3S2913.6,945.1,2913.6,945.9z"/>
	<path class="st0" d="M2947.8,945.9c0,0.9-4,1.3-8.4,1.3s-8.4-0.4-8.4-1.3c0-0.9,4-1.3,8.4-1.3S2947.8,945.1,2947.8,945.9z"/>
	<path class="st0" d="M2982,945.9c0,0.9-4,1.3-8.4,1.3s-8.4-0.4-8.4-1.3c0-0.9,4-1.3,8.4-1.3S2982,945.1,2982,945.9z"/>
	<path class="st0" d="M3016.3,945.9c0,0.9-4,1.3-8.4,1.3c-4.4,0-8.4-0.4-8.4-1.3c0-0.9,4-1.3,8.4-1.3
		C3012.3,944.6,3016.3,945.1,3016.3,945.9z"/>
	<path class="st0" d="M3050.5,945.9c0,0.9-4,1.3-8.4,1.3s-8.4-0.4-8.4-1.3c0-0.9,4-1.3,8.4-1.3S3050.5,945.1,3050.5,945.9z"/>
	<path class="st0" d="M3084.7,945.9c0,0.9-4,1.3-8.4,1.3s-8.4-0.4-8.4-1.3c0-0.9,4-1.3,8.4-1.3S3084.7,945.1,3084.7,945.9z"/>
	<path class="st0" d="M3089.6,975.3c-0.9,0-1.3-4-1.3-8.4c0-4.4,0.9-8.4,1.3-8.4c0.4,0,1.3,4,1.3,8.4
		C3090.9,971.3,3090,975.3,3089.6,975.3z"/>
	<path class="st0" d="M3089.6,1009.5c-0.9,0-1.3-4-1.3-8.4s0.9-8.4,1.3-8.4c0.4,0,1.3,4,1.3,8.4
		C3090.9,1006,3090,1009.5,3089.6,1009.5z"/>
	<path class="st0" d="M3089.6,1043.7c-0.9,0-1.3-4-1.3-8.4c0-4.4,0.9-8.4,1.3-8.4c0.4,0,1.3,4,1.3,8.4
		C3090.9,1039.7,3090,1043.7,3089.6,1043.7z"/>
	<path class="st0" d="M3089.6,1078c-0.9,0-1.3-4-1.3-8.4s0.9-8.4,1.3-8.4c0.4,0,1.3,4,1.3,8.4S3090,1078,3089.6,1078z"/>
	<path class="st0" d="M3089.6,1112.2c-0.9,0-1.3-4-1.3-8.4s0.9-8.4,1.3-8.4c0.4,0,1.3,4,1.3,8.4S3090,1112.2,3089.6,1112.2z"/>
	<path class="st0" d="M3089.6,1146.4c-0.9,0-1.3-4-1.3-8.4s0.9-8.4,1.3-8.4c0.4,0,1.3,4,1.3,8.4S3090,1146.4,3089.6,1146.4z"/>
	<path class="st0" d="M3089.6,1180.6c-0.9,0-1.3-4-1.3-8.4s0.9-8.4,1.3-8.4c0.4,0,1.3,4,1.3,8.4S3090,1180.6,3089.6,1180.6z"/>
	<path class="st0" d="M3089.6,1215.3c-0.9,0-1.3-4-1.3-8.4s0.9-8.4,1.3-8.4c0.4,0,1.3,4,1.3,8.4S3090,1215.3,3089.6,1215.3z"/>
	<path class="st0" d="M3089.6,1249.5c-0.9,0-1.3-4-1.3-8.4s0.9-8.4,1.3-8.4c0.4,0,1.3,4,1.3,8.4S3090,1249.5,3089.6,1249.5z"/>
	<path class="st0" d="M3089.6,1283.8c-0.9,0-1.3-4-1.3-8.4s0.9-8.4,1.3-8.4c0.4,0,1.3,4,1.3,8.4S3090,1283.8,3089.6,1283.8z"/>
	<path class="st0" d="M3089.6,1318c-0.9,0-1.3-4-1.3-8.4c0-4.4,0.9-8.4,1.3-8.4c0.4,0,1.3,4,1.3,8.4
		C3090.9,1314,3090,1318,3089.6,1318z"/>
	<path class="st0" d="M3089.6,1352.2c-0.9,0-1.3-4-1.3-8.4c0-4.4,0.9-8.4,1.3-8.4c0.4,0,1.3,4,1.3,8.4
		C3090.9,1348.2,3090,1352.2,3089.6,1352.2z"/>
	<path class="st0" d="M3105.2,1344.7v31.1H3074v-31.1H3105.2z"/>
	<path class="st0" d="M2686.5,1348.7v31.1h-31.1v-31.1H2686.5z"/>
	<path class="st0" d="M3105.2,927.3v31.1H3074v-31.1H3105.2z"/>
	<path class="st0" d="M2686.5,930.4v31.1h-31.1v-31.1H2686.5z"/>
	<path class="st1" d="M1943.3,187.7v402.3h-600.5V187.7H1943.3z"/>
	<path class="st0" d="M1943.3,589.9V480.6c0-69.8-0.4-170.2-0.4-292.9l0.9,0.9h-600.5l0.9-0.9v402.3l-0.9-0.9l432.9,0.4l123.6,0.4
		h41.3h-41.3l-123.6,0.4l-433.4,0.4h-0.9V185.9h602.3v0.9c0,122.7-0.4,223.1-0.4,293.4v101.8
		C1943.7,586.4,1943.3,589.9,1943.3,589.9L1943.3,589.9z"/>
	<path class="st0" d="M1342.8,223.7c0-0.4,134.2-0.9,300-0.9s300,0.4,300,0.9c0,0.4-134.2,0.9-300,0.9S1342.8,224.1,1342.8,223.7z"
		/>
	<path class="st2" d="M1366.3,205.4c0,2.7-2.2,4.9-4.9,4.9c-2.7,0-4.9-2.2-4.9-4.9c0-2.7,2.2-4.9,4.9-4.9
		C1364.6,200.6,1366.3,202.8,1366.3,205.4z"/>
	<path class="st2" d="M1383.2,205.4c0,2.7-2.2,4.9-4.9,4.9c-2.7,0-4.9-2.2-4.9-4.9c0-2.7,2.2-4.9,4.9-4.9
		C1381,200.6,1383.2,202.8,1383.2,205.4z"/>
	<path class="st2" d="M1399.2,205.4c0,2.7-2.2,4.9-4.9,4.9c-2.7,0-4.9-2.2-4.9-4.9c0-2.7,2.2-4.9,4.9-4.9
		C1397,200.6,1399.2,202.8,1399.2,205.4z"/>
	<path class="st0" d="M1554.4,265.4v160.5h-160V265.4H1554.4z"/>
	<path class="st0" d="M1861,310.8c0,0.4-62.7,0.9-139.6,0.9c-76.9,0-139.6-0.4-139.6-0.9c0-0.4,62.7-0.9,139.6-0.9
		C1798.4,309.9,1861,309.9,1861,310.8z"/>
	<path class="st0" d="M1861,340.6c0,0.4-62.7,0.9-139.6,0.9c-76.9,0-139.6-0.4-139.6-0.9c0-0.4,62.7-0.9,139.6-0.9
		C1798.4,339.7,1861,339.7,1861,340.6z"/>
	<path class="st0" d="M1861,370.3c0,0.4-62.7,0.9-139.6,0.9c-76.9,0-139.6-0.4-139.6-0.9s62.7-0.9,139.6-0.9
		C1798.4,369.5,1861,369.5,1861,370.3z"/>
	<path class="st0" d="M1746.8,400.1c-2.2,0.4-4.4,0.4-6.7,0.4l-17.8,0.4c-15.1,0-35.6,0.4-58.2,0.4s-43.6,0-58.2-0.4l-17.8-0.4
		c-2.2,0-4.4,0-6.7-0.4c2.2-0.4,4.4-0.4,6.7-0.4l17.8-0.4c15.1,0,35.6-0.4,58.2-0.4s43.6,0,58.2,0.4l17.8,0.4
		C1742.8,399.7,1745,399.7,1746.8,400.1z"/>
	<path class="st0" d="M1479.7,479.7v75.1h-75.1v-75.1H1479.7z"/>
	<path class="st0" d="M1616.1,479.7v75.1H1541v-75.1H1616.1z"/>
	<path class="st0" d="M1752.6,479.7v75.1h-75.1v-75.1H1752.6z"/>
	<path class="st0" d="M1889.5,479.7v75.1h-75.1v-75.1H1889.5z"/>
	<path class="st0" d="M410.7,202.8h456.5v661.8H413.8C413.8,864.6,410.7,202.8,410.7,202.8z"/>
	<path class="st1" d="M829,205.9v655.6H376.5V205.9H829z"/>
	<path class="st0" d="M831.6,202.8v661.8H373.4V202.8H831.6z M825.4,858.4V209H379.6v649.4H825.4z"/>
	<path class="st1" d="M772.5,277v513.4h-340V277H772.5z"/>
	<path class="st0" d="M432.5,277v37.8c0,24.9,0,60.4,0.4,105.8c0,90.7,0.4,218.7,0.9,369.8L432,789h340l-1.8,1.8
		c0-193.8,0-372.5,0.4-513.4l1.3,1.3l-247.1-0.9l-68.5-0.4h-17.8L432.5,277c0,0.4,1.8,0.4,5.8,0.4H456l68-0.4l248-0.9h1.3v1.3
		c0,141.3,0,319.6,0.4,513.4v1.8H431.1v-1.3c0.4-151.1,0.4-280,0.9-370.7c0-45.3,0.4-80.9,0.4-105.3
		C432.5,315.2,432.5,277,432.5,277z"/>
	<path class="st0" d="M375.1,861.5c1.8-4,4.4-8,7.1-11.1c4.9-6.7,11.6-16,19.6-25.8c8-9.8,15.6-18.7,20.9-24.4
		c2.7-3.6,5.8-6.7,9.8-9.3c0.9,0.4-12.4,16.4-28,36C388.9,846.4,375.6,861.9,375.1,861.5z"/>
	<path class="st0" d="M376.5,205.9c0.9-0.4,13.8,14.7,29.3,34.7s27.6,36,26.7,36.4c-0.9,0.4-13.8-15.1-29.3-34.7
		C387.6,222.8,375.6,206.3,376.5,205.9z"/>
	<path class="st1" d="M828.5,206.3c-19.6,24.4-39.6,48.9-59.1,72.9"/>
	<path class="st0" d="M769.4,279.7c-0.4-0.4,12-17.3,28.4-37.3s30.2-36,30.7-35.6c0.4,0.4-12,17.3-28.4,37.3
		C783.6,264.1,770.3,280.1,769.4,279.7z"/>
	<path class="st0" d="M828.5,861.5c-0.9,0.4-13.8-14.7-28.9-34.2c-15.1-19.6-27.1-35.6-26.7-36s13.8,14.7,28.9,34.2
		C817,845.1,829.4,861.1,828.5,861.5z"/>
	<path class="st0" d="M624.5,541h-59.6l-7.1,16.4c-2.2,4.4-3.1,8.9-3.6,13.8c-0.4,4.4,1.8,8.4,5.8,10.7c5.3,1.8,11.1,3.1,16.4,3.1
		v4.4H520V585c5.8-0.9,11.1-3.6,15.1-7.6c6.2-7.6,11.1-16.4,14.7-25.8l60.4-135.1h2.2l60.9,138.7c5.8,13.3,10.7,21.3,14.2,24.9
		c3.6,2.7,7.6,4.4,12,4.4v4.4h-81.8v-4.4h3.6c4.9,0.4,9.8-0.4,13.8-2.7c1.8-1.3,2.7-3.6,2.7-5.8c0-1.3-0.4-3.1-0.9-4.4
		c0-0.9-1.3-4-3.6-9.3L624.5,541L624.5,541z M620,532.1l-24.9-58.7l-25.8,58.2L620,532.1L620,532.1z"/>
	<path class="st0" d="M2125.5,326.3c1.8-0.4,3.6-0.9,5.3-0.4h1.8l-0.4,0.4c0-2.2,0.4-3.6,0.4-3.6s0.4,1.3,0.4,3.6v0.4h-2.2
		C2129.1,326.8,2127.3,326.8,2125.5,326.3z"/>
	<path class="st0" d="M2111.7,326.3c0-0.4,1.8-0.4,3.6-0.4s3.6,0.4,3.6,0.4s-1.8,0.4-3.6,0.4S2111.7,326.8,2111.7,326.3z"/>
	<path class="st0" d="M2097.5,326.3c0-0.4,1.8-0.4,3.6-0.4c1.8,0,3.6,0.4,3.6,0.4s-1.8,0.4-3.6,0.4
		C2099.3,326.8,2097.5,326.8,2097.5,326.3z"/>
	<path class="st0" d="M2083.7,326.3c0-0.4,1.8-0.4,3.6-0.4s3.6,0.4,3.6,0.4s-1.8,0.4-3.6,0.4S2083.7,326.8,2083.7,326.3z"/>
	<path class="st0" d="M2069.5,326.3c0-0.4,1.8-0.4,3.6-0.4c1.8,0,3.6,0.4,3.6,0.4s-1.8,0.4-3.6,0.4
		C2071.3,326.8,2069.5,326.8,2069.5,326.3z"/>
	<path class="st0" d="M2055.7,326.3c0-0.4,1.8-0.4,3.6-0.4c1.8,0,3.6,0.4,3.6,0.4s-1.8,0.4-3.6,0.4
		C2057.5,326.8,2055.7,326.8,2055.7,326.3z"/>
	<path class="st0" d="M2041.5,326.3c0-0.4,1.8-0.4,3.6-0.4c1.8,0,3.6,0.4,3.6,0.4s-1.8,0.4-3.6,0.4
		C2043.3,326.8,2041.5,326.8,2041.5,326.3z"/>
	<path class="st0" d="M2027.7,326.3c0-0.4,1.8-0.4,3.6-0.4c1.8,0,3.6,0.4,3.6,0.4s-1.8,0.4-3.6,0.4
		C2029.5,326.8,2027.7,326.8,2027.7,326.3z"/>
	<path class="st0" d="M2013.5,326.3c0-0.4,1.8-0.4,3.6-0.4c1.8,0,3.6,0.4,3.6,0.4s-1.8,0.4-3.6,0.4
		C2015.3,326.8,2013.5,326.8,2013.5,326.3z"/>
	<path class="st0" d="M1999.7,326.3c0-0.4,1.8-0.4,3.6-0.4c1.8,0,3.6,0.4,3.6,0.4s-1.8,0.4-3.6,0.4
		C2001.5,326.8,1999.7,326.8,1999.7,326.3z"/>
	<path class="st0" d="M1985.5,326.3c0-0.4,1.8-0.4,3.6-0.4c1.8,0,3.6,0.4,3.6,0.4s-1.8,0.4-3.6,0.4
		C1987.3,326.8,1985.5,326.8,1985.5,326.3z"/>
	<path class="st0" d="M1971.7,326.3c0-0.4,1.8-0.4,3.6-0.4c1.8,0,3.6,0.4,3.6,0.4s-1.8,0.4-3.6,0.4
		C1973.5,326.8,1971.7,326.8,1971.7,326.3z"/>
	<path class="st0" d="M1957.5,326.3c0-0.4,1.8-0.4,3.6-0.4c1.8,0,3.6,0.4,3.6,0.4s-1.8,0.4-3.6,0.4
		C1959.3,326.8,1957.5,326.8,1957.5,326.3z"/>
	<path class="st0" d="M1943.7,326.3c0-0.4,1.8-0.4,3.6-0.4c1.8,0,3.6,0.4,3.6,0.4s-1.8,0.4-3.6,0.4
		C1945.5,326.8,1943.7,326.8,1943.7,326.3z"/>
	<path class="st0" d="M1929.5,326.3c0-0.4,1.8-0.4,3.6-0.4c1.8,0,3.6,0.4,3.6,0.4s-1.8,0.4-3.6,0.4
		C1931.3,326.8,1929.5,326.8,1929.5,326.3z"/>
	<path class="st0" d="M1915.7,326.3c0-0.4,1.8-0.4,3.6-0.4c1.8,0,3.6,0.4,3.6,0.4s-1.8,0.4-3.6,0.4
		C1917.5,326.8,1915.7,326.8,1915.7,326.3z"/>
	<path class="st0" d="M1901.5,326.3c0-0.4,1.8-0.4,3.6-0.4c1.8,0,3.6,0.4,3.6,0.4s-1.8,0.4-3.6,0.4
		C1903.3,326.8,1901.5,326.8,1901.5,326.3z"/>
	<path class="st0" d="M1887.7,326.3c0-0.4,1.8-0.4,3.6-0.4c1.8,0,3.6,0.4,3.6,0.4s-1.8,0.4-3.6,0.4
		C1889.5,326.8,1887.7,326.8,1887.7,326.3z"/>
	<path class="st0" d="M1883.3,316.6c0.4,0,0.4,1.3,0.4,3.6s-0.4,3.6-0.4,3.6s-0.4-1.3-0.4-3.6S1882.8,316.6,1883.3,316.6z"/>
	<path class="st0" d="M1883.3,302.8c0.4,0,0.4,1.3,0.4,3.6s-0.4,3.6-0.4,3.6s-0.4-1.8-0.4-3.6S1882.8,302.8,1883.3,302.8z"/>
	<path class="st0" d="M1883.3,288.6c0.4,0,0.4,1.3,0.4,3.6s-0.4,3.6-0.4,3.6s-0.4-1.3-0.4-3.6S1882.8,288.6,1883.3,288.6z"/>
	<path class="st0" d="M1883.3,274.3c0.4,0,0.4,1.8,0.4,3.6s-0.4,3.6-0.4,3.6s-0.4-1.3-0.4-3.6S1882.8,274.3,1883.3,274.3z"/>
	<path class="st0" d="M1883.3,260.6c0.4,0,0.4,1.3,0.4,3.6c0,2.2-0.4,3.6-0.4,3.6s-0.4-1.3-0.4-3.6
		C1882.8,261.9,1882.8,260.6,1883.3,260.6z"/>
	<path class="st0" d="M1883.3,246.3c0.4,0,0.4,1.3,0.4,3.6c0,2.2-0.4,3.6-0.4,3.6s-0.4-1.8-0.4-3.6
		C1882.8,248.1,1882.8,246.3,1883.3,246.3z"/>
	<path class="st0" d="M1883.3,232.6c0.4,0,0.4,1.3,0.4,3.6c0,2.2-0.4,3.6-0.4,3.6s-0.4-1.3-0.4-3.6
		C1882.8,233.9,1882.8,232.6,1883.3,232.6z"/>
	<path class="st0" d="M1883.3,218.3c0.4,0,0.4,1.8,0.4,3.6s-0.4,3.6-0.4,3.6s-0.4-1.3-0.4-3.6
		C1882.8,219.7,1882.8,218.3,1883.3,218.3z"/>
	<path class="st0" d="M1883.3,204.6c0.4,0,0.4,1.8,0.4,3.6c0,1.8-0.4,3.6-0.4,3.6s-0.4-1.3-0.4-3.6
		C1882.8,205.9,1882.8,204.6,1883.3,204.6z"/>
	<path class="st0" d="M1883.3,190.3c0.4,0,0.4,1.3,0.4,3.6c0,2.2-0.4,3.6-0.4,3.6s-0.4-1.8-0.4-3.6S1882.8,190.3,1883.3,190.3z"/>
	<path class="st0" d="M1883.3,176.5c0.4,0,0.4,1.3,0.4,3.6c0,2.2-0.4,3.6-0.4,3.6s-0.4-1.3-0.4-3.6
		C1882.8,177.9,1882.8,176.5,1883.3,176.5z"/>
	<path class="st0" d="M1883.3,162.3c0.4,0,0.4,1.3,0.4,3.6c0,2.2-0.4,3.6-0.4,3.6s-0.4-1.3-0.4-3.6
		C1882.8,163.7,1882.8,162.3,1883.3,162.3z"/>
	<path class="st0" d="M1883.3,148.5c0.4,0,0.4,1.8,0.4,3.6s-0.4,3.6-0.4,3.6s-0.4-1.3-0.4-3.6
		C1882.8,149.9,1882.8,148.5,1883.3,148.5z"/>
	<path class="st0" d="M1883.3,134.3c0.4,0,0.4,1.3,0.4,3.6c0,2.2-0.4,3.6-0.4,3.6s-0.4-1.8-0.4-3.6S1882.8,134.3,1883.3,134.3z"/>
	<path class="st0" d="M1883.3,120.5c0.4,0,0.4,1.3,0.4,3.6c0,2.2-0.4,3.6-0.4,3.6s-0.4-1.3-0.4-3.6
		C1882.8,121.9,1882.8,120.5,1883.3,120.5z"/>
	<path class="st0" d="M1883.3,106.3c0.4,0,0.4,1.3,0.4,3.6s-0.4,3.6-0.4,3.6s-0.4-1.3-0.4-3.6S1882.8,106.3,1883.3,106.3z"/>
	<path class="st0" d="M1883.3,92.5c0.4,0,0.4,1.8,0.4,3.6c0,1.8-0.4,3.6-0.4,3.6s-0.4-1.3-0.4-3.6S1882.8,92.5,1883.3,92.5z"/>
	<path class="st0" d="M1883.3,78.3c0.4,0,0.4,1.3,0.4,3.6s-0.4,3.6-0.4,3.6s-0.4-1.8-0.4-3.6S1882.8,78.3,1883.3,78.3z"/>
	<path class="st0" d="M1895.3,76.5c0,0.4-1.8,0.4-3.6,0.4c-1.8,0-3.6-0.4-3.6-0.4s1.8-0.4,3.6-0.4
		C1893.5,76.1,1895.3,76.1,1895.3,76.5z"/>
	<path class="st0" d="M1909.5,76.5c0,0.4-1.8,0.4-3.6,0.4s-3.6-0.4-3.6-0.4s1.8-0.4,3.6-0.4S1909.5,76.1,1909.5,76.5z"/>
	<path class="st0" d="M1923.3,76.5c0,0.4-1.8,0.4-3.6,0.4c-1.8,0-3.6-0.4-3.6-0.4s1.8-0.4,3.6-0.4
		C1921.5,76.1,1923.3,76.1,1923.3,76.5z"/>
	<path class="st0" d="M1937.5,76.5c0,0.4-1.8,0.4-3.6,0.4c-1.8,0-3.6-0.4-3.6-0.4s1.8-0.4,3.6-0.4
		C1935.7,76.1,1937.5,76.1,1937.5,76.5z"/>
	<path class="st0" d="M1951.3,76.5c0,0.4-1.8,0.4-3.6,0.4s-3.6-0.4-3.6-0.4s1.8-0.4,3.6-0.4S1951.3,76.1,1951.3,76.5z"/>
	<path class="st0" d="M1965.5,76.5c0,0.4-1.8,0.4-3.6,0.4c-1.8,0-3.6-0.4-3.6-0.4s1.8-0.4,3.6-0.4
		C1963.7,76.1,1965.5,76.1,1965.5,76.5z"/>
	<path class="st0" d="M1979.3,76.5c0,0.4-1.8,0.4-3.6,0.4s-3.6-0.4-3.6-0.4s1.8-0.4,3.6-0.4S1979.3,76.1,1979.3,76.5z"/>
	<path class="st0" d="M1993.5,76.5c0,0.4-1.8,0.4-3.6,0.4c-1.8,0-3.6-0.4-3.6-0.4s1.8-0.4,3.6-0.4
		C1991.7,76.1,1993.5,76.1,1993.5,76.5z"/>
	<path class="st0" d="M2007.3,76.5c0,0.4-1.8,0.4-3.6,0.4s-3.6-0.4-3.6-0.4s1.8-0.4,3.6-0.4S2007.3,76.1,2007.3,76.5z"/>
	<path class="st0" d="M2021.5,76.5c0,0.4-1.8,0.4-3.6,0.4c-1.8,0-3.6-0.4-3.6-0.4s1.8-0.4,3.6-0.4
		C2019.7,76.1,2021.5,76.1,2021.5,76.5z"/>
	<path class="st0" d="M2035.7,76.5c0,0.4-1.8,0.4-3.6,0.4c-1.8,0-3.6-0.4-3.6-0.4s1.8-0.4,3.6-0.4
		C2034,76.1,2035.7,76.1,2035.7,76.5z"/>
	<path class="st0" d="M2049.5,76.5c0,0.4-1.8,0.4-3.6,0.4c-1.8,0-3.6-0.4-3.6-0.4s1.8-0.4,3.6-0.4
		C2047.7,76.1,2049.5,76.1,2049.5,76.5z"/>
	<path class="st0" d="M2063.3,76.5c0,0.4-1.8,0.4-3.6,0.4c-1.8,0-3.6-0.4-3.6-0.4s1.8-0.4,3.6-0.4
		C2061.5,76.1,2063.3,76.1,2063.3,76.5z"/>
	<path class="st0" d="M2077.5,76.5c0,0.4-1.8,0.4-3.6,0.4c-1.8,0-3.6-0.4-3.6-0.4s1.8-0.4,3.6-0.4
		C2075.7,76.1,2077.5,76.1,2077.5,76.5z"/>
	<path class="st0" d="M2091.7,76.5c0,0.4-1.8,0.4-3.6,0.4c-1.8,0-3.6-0.4-3.6-0.4s1.8-0.4,3.6-0.4
		C2090,76.1,2091.7,76.1,2091.7,76.5z"/>
	<path class="st0" d="M2105.5,76.5c0,0.4-1.8,0.4-3.6,0.4c-1.8,0-3.6-0.4-3.6-0.4s1.8-0.4,3.6-0.4
		C2103.7,76.1,2105.5,76.1,2105.5,76.5z"/>
	<path class="st0" d="M2119.7,76.5c0,0.4-1.8,0.4-3.6,0.4s-3.6-0.4-3.6-0.4s1.8-0.4,3.6-0.4S2119.7,76.1,2119.7,76.5z"/>
	<path class="st0" d="M2132.6,77.4c0,0-0.4-0.4-0.4-0.9l0.4,0.4h-2.7c-1.8,0-3.6-0.4-3.6-0.4s1.8-0.4,3.6-0.4h3.1v0.4
		C2133.1,77,2132.6,77.4,2132.6,77.4z"/>
	<path class="st0" d="M2132.6,91.7c-0.4,0-0.4-1.3-0.4-3.6s0.4-3.6,0.4-3.6s0.4,1.3,0.4,3.6S2133.1,91.7,2132.6,91.7z"/>
	<path class="st0" d="M2132.6,105.4c-0.4,0-0.4-1.8-0.4-3.6s0.4-3.6,0.4-3.6s0.4,1.3,0.4,3.6S2133.1,105.4,2132.6,105.4z"/>
	<path class="st0" d="M2132.6,119.7c-0.4,0-0.4-1.8-0.4-3.6c0-1.8,0.4-3.6,0.4-3.6s0.4,1.3,0.4,3.6S2133.1,119.7,2132.6,119.7z"/>
	<path class="st0" d="M2132.6,133.4c-0.4,0-0.4-1.3-0.4-3.6c0-2.2,0.4-3.6,0.4-3.6s0.4,1.8,0.4,3.6
		C2133.1,131.7,2133.1,133.4,2132.6,133.4z"/>
	<path class="st0" d="M2132.6,147.7c-0.4,0-0.4-1.3-0.4-3.6c0-2.2,0.4-3.6,0.4-3.6s0.4,1.3,0.4,3.6
		C2133.1,146.3,2133.1,147.7,2132.6,147.7z"/>
	<path class="st0" d="M2132.6,161.4c-0.4,0-0.4-1.8-0.4-3.6c0-1.8,0.4-3.6,0.4-3.6s0.4,1.3,0.4,3.6
		C2133.1,160.1,2133.1,161.4,2132.6,161.4z"/>
	<path class="st0" d="M2132.6,175.7c-0.4,0-0.4-1.8-0.4-3.6c0-1.8,0.4-3.6,0.4-3.6s0.4,1.3,0.4,3.6
		C2133.1,174.3,2133.1,175.7,2132.6,175.7z"/>
	<path class="st0" d="M2132.6,189.4c-0.4,0-0.4-1.3-0.4-3.6s0.4-3.6,0.4-3.6s0.4,1.8,0.4,3.6S2133.1,189.4,2132.6,189.4z"/>
	<path class="st0" d="M2132.6,203.7c-0.4,0-0.4-1.3-0.4-3.6s0.4-3.6,0.4-3.6s0.4,1.3,0.4,3.6S2133.1,203.7,2132.6,203.7z"/>
	<path class="st0" d="M2132.6,217.4c-0.4,0-0.4-1.3-0.4-3.6c0-2.2,0.4-3.6,0.4-3.6s0.4,1.3,0.4,3.6
		C2133.1,216.1,2133.1,217.4,2132.6,217.4z"/>
	<path class="st0" d="M2132.6,231.7c-0.4,0-0.4-1.8-0.4-3.6c0-1.8,0.4-3.6,0.4-3.6s0.4,1.3,0.4,3.6
		C2133.1,230.3,2133.1,231.7,2132.6,231.7z"/>
	<path class="st0" d="M2132.6,245.9c-0.4,0-0.4-1.3-0.4-3.6c0-2.2,0.4-3.6,0.4-3.6s0.4,1.8,0.4,3.6
		C2133.1,244.1,2133.1,245.9,2132.6,245.9z"/>
	<path class="st0" d="M2132.6,259.7c-0.4,0-0.4-1.3-0.4-3.6c0-2.2,0.4-3.6,0.4-3.6s0.4,1.3,0.4,3.6
		C2133.1,258.3,2133.1,259.7,2132.6,259.7z"/>
	<path class="st0" d="M2132.6,273.9c-0.4,0-0.4-1.3-0.4-3.6s0.4-3.6,0.4-3.6s0.4,1.3,0.4,3.6S2133.1,273.9,2132.6,273.9z"/>
	<path class="st0" d="M2132.6,287.7c-0.4,0-0.4-1.8-0.4-3.6s0.4-3.6,0.4-3.6s0.4,1.3,0.4,3.6S2133.1,287.7,2132.6,287.7z"/>
	<path class="st0" d="M2132.6,301.9c-0.4,0-0.4-1.3-0.4-3.6s0.4-3.6,0.4-3.6s0.4,1.8,0.4,3.6S2133.1,301.9,2132.6,301.9z"/>
	<path class="st0" d="M2132.6,315.7c-0.4,0-0.4-1.3-0.4-3.6c0-2.2,0.4-3.6,0.4-3.6s0.4,1.3,0.4,3.6
		C2133.1,314.3,2133.1,315.7,2132.6,315.7z"/>
	<path class="st0" d="M2142,314.3V333h-18.7v-18.7H2142z"/>
	<path class="st0" d="M1892.6,317v18.7h-18.7V317H1892.6z"/>
	<path class="st0" d="M2142,65.4v18.7h-18.7V65.4H2142z"/>
	<path class="st0" d="M1892.6,67.2v18.7h-18.7V67.2H1892.6z"/>
	<path class="st3" d="M3104.7,1943.8c0,0.4-609.4,1.3-1361,1.3s-1361.5-0.4-1361.5-1.3c0-0.9,609.4-1.3,1361.5-1.3
		S3104.7,1942.9,3104.7,1943.8z"/>
	<path class="st3" d="M2535.8,1422.9c4.4-0.9,40.9,165.3,36,229.8c-4.9,64.5-36,288.9-36,288.9h-149.3l-27.1-317.8l5.3,317.8h-200.9
		c0,0-46.7-218.2-38.2-284.5c8.4-66.2,52.4-240,52.4-240L2535.8,1422.9L2535.8,1422.9z"/>
	<path class="st4" d="M2374.4,1461.1c0.4,2.2,0.4,4,0.4,6.2v16.9c-0.4,14.2-1.3,34.2-3.1,55.6c-1.8,21.3-4.4,41.3-6.2,55.6
		c-0.9,7.1-1.8,12.9-2.7,16.9c-0.4,2.2-0.9,4-1.3,6.2c0-2.2,0-4,0.4-6.2c0.4-4.4,1.3-10.2,1.8-16.9c1.8-14.2,4-33.8,5.8-55.6
		c1.8-21.8,3.1-41.3,3.6-55.6c0.4-6.7,0.9-12.4,0.9-16.9C2374,1465.1,2374,1463.3,2374.4,1461.1L2374.4,1461.1z"/>
	<path class="st4" d="M2401.5,1474.4c0,0,1.3-0.4,3.6,0c3.1,0.4,5.8,2.2,8,4.4c1.3,1.8,2.2,3.6,3.1,5.8c0.4,2.7,0.4,4.9-0.4,7.6
		c-2.2,5.3-7.6,9.3-13.3,9.3c-5.8-0.4-11.1-4.4-12.9-9.8c-0.9-2.2-0.9-4.9-0.4-7.6c0.4-2.2,1.8-4,3.1-5.3c2.2-2.2,4.9-3.6,8-4
		c1.3,0,2.2,0,3.1,0.4h-3.1c-2.7,0.4-5.3,1.8-7.1,4c-2.7,3.1-3.6,7.6-2.2,11.1c1.8,4.9,6.2,8,11.1,8.4c4.9,0,9.3-3.1,11.6-8
		c1.3-4,0.9-8-1.8-11.6c-1.8-2.2-4-4-6.7-4.9C2402.4,1474.9,2401.5,1474.9,2401.5,1474.4L2401.5,1474.4z"/>
	<path class="st4" d="M2558,1502.4c-1.3,0.9-2.7,1.3-4,1.3c-3.6,0.9-7.6,1.8-11.1,2.2c-25.8,2.2-50.7-9.3-65.3-31.1
		c-2.2-3.1-4-6.2-5.3-9.8c-0.4-1.3-1.3-2.7-1.3-4c0.4,0,2.7,5.3,8,12.9c14.7,20.4,38.7,31.6,64,30.2
		C2552.2,1503.8,2558,1502,2558,1502.4L2558,1502.4z"/>
	<path class="st3" d="M2216.2,705.9c-11.1,41.3-28.4,74.2-45.3,91.1c-16.9,16.9-34.7,36-33.8,59.6c0,9.3,3.1,19.1-0.9,27.6
		c-5.3,10.7-19.1,13.3-29.8,19.1c-15.6,9.8-24.4,26.7-23.6,44.9c1.3,17.8,9.3,34.7,22.2,47.1c12.9,12.9,33.8,22.2,49.8,13.3
		c9.8-5.3,15.1-16,20-25.8c25.3-52,48.4-104.9,69.3-158.7"/>
	<path class="st3" d="M2320.6,529.5c39.1-43.6,106.7-47.1,150.2-7.6c22.7,20.4,35.6,49.3,35.1,80c-0.4,27.6-11.1,56.4,0,81.8
		c7.6,17.8,25.8,31.6,28,51.1c3.1,22.7-16.4,42.7-15.6,65.3c0.9,14.7,9.8,28,20.4,38.2c10.7,10.2,23.1,18.7,32.9,29.8
		c27.1,30.7,28.9,79.6,8.4,115.1c-20.4,35.6-60,58.2-100.9,62.7s-82.7-6.2-118.7-25.8c-23.6-12.9-45.8-29.8-59.6-52.4
		s-18.7-52.4-7.6-76.9"/>
	<path class="st5" d="M2407.3,873.5c0,0,92,27.1,101.3,41.8c9.3,14.7,37.8,185.8,37.8,185.8l-56.4,201.8c0,0,46.7,75.6,48.9,113.3
		c-104.5,67.6-222.7,48.4-346.3-5.3l-8.9-197.4l-11.6-315.1l76-26.7L2407.3,873.5z"/>
	<path class="st6" d="M2510,1343.8h-3.6l-9.8-0.4l-35.6-2.7l-117.3-10.2l-117.3-11.1l-35.6-3.6l-9.8-0.9c-1.3,0-2.2-0.4-3.6-0.4h3.6
		l9.8,0.4l35.6,2.7l117.3,10.2l117.3,11.1l35.6,3.6l9.8,0.9C2507.8,1343.3,2508.7,1343.3,2510,1343.8z"/>
	<path class="st6" d="M2401.5,1121.5c0,0.4-40.4,1.3-90.7,1.3s-90.7-0.4-90.7-1.3c0-0.9,40.4-1.3,90.7-1.3
		S2401.5,1120.6,2401.5,1121.5z"/>
	<path class="st6" d="M2523.3,986c-2.2,0.4-4.9,0.9-7.1,0.9l-19.6,0.9c-16.4,0.9-39.6,2.2-64.5,4c-24.9,1.8-48,4-64.5,5.8l-19.6,1.8
		c-2.2,0.4-4.9,0.4-7.1,0.4c2.2-0.4,4.9-0.9,7.1-1.3c4.4-0.9,11.1-1.8,19.6-2.7c16.4-2.2,39.1-4.4,64.5-6.2
		c25.3-1.8,48-3.1,64.9-3.6c8.4,0,15.1-0.4,19.6-0.4C2518.9,986,2521.1,986,2523.3,986z"/>
	<path class="st5" d="M2508.7,915.3l92.5,251.1l62.2-123.6l81.3,16.4l-46.7,195.1c-4.9,34.7-31.1,62.7-65.8,69.3
		c-28.4,5.8-58.2-3.6-77.8-25.3l-28.9-32L2508.7,915.3z"/>
	<path class="st6" d="M2599.3,1325.1c-0.4-2.2-0.4-4-0.9-6.2c-0.4-4-0.4-9.8-0.9-17.3c-0.4-14.7-0.9-34.7,0-56.9
		c0.9-22.2,2.2-42.2,3.6-56.9c0.9-7.1,1.3-13.3,1.8-17.3c0-2.2,0.4-4,0.9-6.2c0.4,2.2,0.4,4,0,6.2c-0.4,4.4-0.4,10.2-0.9,17.3
		c-0.9,14.7-2.2,34.7-2.7,56.9c-0.4,22.2-0.9,42.2-0.4,56.9v17.3C2599.8,1320.7,2599.3,1322.9,2599.3,1325.1L2599.3,1325.1z"/>
	<path class="st6" d="M2718.9,1171.7c0,0.4-23.1-7.6-50.7-18.2c-27.6-10.7-50.2-19.6-49.8-20c0.4-0.4,23.1,7.6,50.7,18.2
		S2718.9,1171.3,2718.9,1171.7z"/>
	<path class="st7" d="M2763.8,1030.8l-39.1,28.4l-43.1-10.7l10.7-11.1L2763.8,1030.8z"/>
	<path class="st8" d="M2904.7,681.5l-315.1,136.5l1.8,91.1l-36,37.3l120.5,107.6l35.1-39.1l93.8-13.3L2904.7,681.5L2904.7,681.5z"/>
	<path class="st3" d="M2904.7,681.5c-2.7,8.9-40.9,132-99.1,320.5v0.4h-0.9l-93.8,13.3l0.9-0.4l-35.6,39.1l-0.9,0.9l-0.9-0.9
		l-61.3-55.1l-58.7-52.9l-0.9-0.9l0.9-0.9l35.6-37.3l-0.4,0.9c-0.4-31.6-0.9-62.2-1.3-91.1v-0.9l0.9-0.4L2904.7,681.5L2590,818.8
		l0.4-0.9c0.4,29.3,0.9,59.6,1.8,91.1v0.4l-0.4,0.4l-35.6,37.3v-1.8l59.1,52.4l61.3,55.1h-1.8l35.1-39.1l0.4-0.4h0.4l93.8-12.9
		l-0.9,0.9C2862.9,813,2901.6,690.4,2904.7,681.5L2904.7,681.5z"/>
	<path class="st3" d="M2776.7,905.1c-18.2,20.4-49.3,22.2-69.8,4c-20.4-18.2-22.2-49.3-4-69.8c18.2-20.4,49.3-22.2,69.8-4
		C2793.1,853.5,2794.9,884.6,2776.7,905.1z"/>
	<path class="st3" d="M2904.7,681.5c0.4,0.4-36,43.6-81.3,96c-45.3,52.4-82.7,95.1-83.1,94.7c-0.4-0.4,36-43.6,81.3-96
		C2866.9,723.7,2904.3,681,2904.7,681.5z"/>
	<path class="st6" d="M1934.4,1770c-32.4-28.9-35.1-78.2-6.7-110.7l592.1-670.3l117.3,104.9l-591.6,669.4
		C2016.6,1795.8,1966.8,1798.9,1934.4,1770z"/>
	<path class="st6" d="M2553.6,932.6l138.2,123.6l-43.1,48l-138.2-123.6L2553.6,932.6L2553.6,932.6z"/>
	<path class="st6" d="M2899.8,658.8l26.2,21.8l-21.8,26.2L2878,685L2899.8,658.8z"/>
	<path class="st6" d="M3118.9,859.3c-1.3,1.3-101.8-80.9-224.5-184S2673.1,487.7,2674,486.4c0.9-1.3,101.8,80.9,224.5,184
		S3120.3,857.9,3118.9,859.3L3118.9,859.3z"/>
	<path class="st6" d="M3124.3,863.3c-3.6,4.4-10.2,4.9-14.2,1.3c-4.4-3.6-4.9-10.2-1.3-14.2c3.6-4.4,9.8-4.9,14.2-1.3
		C3127.4,852.6,3127.8,858.8,3124.3,863.3z"/>
	<path class="st6" d="M2682,493c-3.6,4.4-10.2,4.9-14.2,1.3c-4.4-3.6-4.9-10.2-1.3-14.2c3.6-4.4,10.2-4.9,14.2-1.3
		C2685.1,482.4,2685.6,488.6,2682,493z"/>
	<path class="st9" d="M2519.8,988.6l117.8,105.3l-16,17.8l-107.1-116.5L2519.8,988.6L2519.8,988.6z"/>
	<path class="st10" d="M2591.3,966.4v84l16.9,17.3v-86.2L2591.3,966.4z"/>
	<path class="st7" d="M2732.2,927.3l43.1,17.3l9.3,34.7l-20.9,51.6l-76,11.1l22.2-22.7l-3.1-20c0,0-21.3-6.7-21.8-9.8
		c-0.4-3.1,2.7-14.2,5.8-14.7c3.1-0.4,25.8,8,25.8,8s-26.2-20.9-25.8-24c0.4-3.1,3.6-12,8.9-12.9c5.3-0.9,48,19.1,48,19.1l6.7,16
		l6.2-25.3C2760.7,954.8,2722.9,944.2,2732.2,927.3L2732.2,927.3z"/>
	<path class="st11" d="M2726.9,1008.6c0.4,0,0.9-1.3,1.3-4.4c0.4-3.6,0-7.6-1.3-10.7c-1.3-3.6-3.6-6.7-6.2-9.3
		c-2.2-1.8-3.6-2.7-4-2.2c3.1,3.6,5.8,7.6,8,12C2726.5,998.8,2726.9,1003.7,2726.9,1008.6L2726.9,1008.6z"/>
	<path class="st11" d="M2747.3,1001.1c-0.9-3.6-1.3-7.6-1.8-11.1c0-4.4-0.9-8.4-2.2-12.4c-0.9-2.7-2.2-4.9-4-6.7
		c-2.2-1.8-4.4-3.6-7.1-4.4c-10.2-3.6-19.6-6.7-26.2-8.9c-3.6-1.3-7.1-2.2-11.1-3.1c3.6,1.8,7.1,3.1,10.7,4.4
		c6.7,2.7,16,5.8,26.2,9.3c2.2,0.9,4.4,2.2,6.2,4c1.8,1.8,2.7,3.6,3.6,5.8c1.3,4,2.2,8,2.7,12
		C2744.2,994,2745.1,997.5,2747.3,1001.1z"/>
	<path class="st11" d="M2757.1,993.1c0.4-2.7,0.4-5.8-0.4-8.4c-0.9-4.4-1.8-8.4-2.2-8c-0.4,0.4-0.4,4,0.4,8.4
		C2755.8,989.5,2756.7,993.5,2757.1,993.1z"/>
	<path class="st7" d="M2433.5,1301.1c0,0,68.9-23.6,70.7-24.4s48.9-22.7,44.9-35.6c0,0,13.3-10.7,9.3-16.4l-19.1,8
		c0,0,26.7-17.3,22.2-32.9c0,0,2.7-5.3,0-8.4c-2.7-3.1-16.9,6.7-27.1,12.9l-20,8c-8.9,3.6-18.2,4-27.1,1.3
		c-4.4-1.3-6.7-5.8-5.8-10.2c3.6-15.6,3.1-31.6-1.3-46.7c0,0-4.9,1.8-8.4,12.4c-4.4,13.8-17.8,24-23.1,33.3
		c-2.7,5.3-7.6,13.3-10.7,19.6c-2.7,4.9-7.6,8.9-12.9,10.2l4.9,36L2433.5,1301.1L2433.5,1301.1z"/>
	<path class="st11" d="M2508.7,1235.8c0.9,0,1.8-0.4,2.2-0.9c1.3-0.4,3.6-1.3,6.2-2.7c6.7-3.1,13.3-6.7,19.6-10.7
		c6.2-4,12-8.4,17.8-13.8c2.2-1.8,4-3.6,4.9-4.9l1.8-1.8c-0.9,0.4-1.3,0.9-1.8,1.8l-5.3,4.4c-5.8,4.9-11.6,9.3-17.8,13.3
		c-6.2,4-12.9,7.6-19.6,11.1l-6.2,2.7C2510,1235.3,2509.5,1235.3,2508.7,1235.8L2508.7,1235.8z"/>
	<path class="st11" d="M2510,1249.5c1.8-0.4,3.6-0.9,5.3-1.8c4-1.8,8-3.6,11.6-5.8c3.6-2.2,7.1-4.4,10.7-7.1c1.3-0.9,2.7-2.2,4-3.6
		c0-0.4-6.7,4.4-15.6,9.8c-4.4,2.7-8.4,4.4-11.1,6.2C2513.1,1248.2,2511.3,1248.6,2510,1249.5L2510,1249.5z"/>
	<path class="st11" d="M2509.1,1266.4c2.2-0.4,4.4-1.3,6.7-2.7c4.9-2.2,10.2-4.9,14.7-8c4.9-3.1,9.3-6.2,13.8-9.8
		c1.8-1.3,3.6-3.1,5.3-4.9c-1.8,1.3-4,2.7-5.8,4c-3.6,2.7-8,6.2-13.8,9.3c-4.9,3.1-9.3,5.8-14.7,8.4
		C2513.5,1264.2,2511.3,1265.1,2509.1,1266.4L2509.1,1266.4z"/>
	<path class="st5" d="M2433.5,1301.1l-256.5,77.3c-59.1-26.7-95.1-88.5-89.3-152.9c8-90.7,18.7-209.8,21.8-240
		c5.3-49.8,62.7-86.7,62.7-86.7c78.7,4.9,61.3,160.9,61.3,160.9l-31.6,179.1l223.1-8.9L2433.5,1301.1z"/>
	<path class="st3" d="M2202,1238.4c0-2.2,0-4.9,0.4-7.1c0.4-4.4,0.9-11.1,2.2-19.6c2.2-16.4,5.3-38.7,10.2-63.6
		c4.9-24.9,9.3-47.1,12.9-63.1c1.8-8,3.6-14.7,4.4-19.1c0.4-2.2,0.9-4.4,2.2-6.7c0,2.2-0.4,4.9-0.9,7.1c-0.9,4.9-2.2,11.6-3.6,19.1
		c-3.1,16-7.6,38.2-12,63.1s-8.4,47.1-10.7,63.1c-0.9,8-2.2,14.2-2.7,19.1C2202.9,1233.5,2202.4,1236.2,2202,1238.4L2202,1238.4z"/>
	<path class="st3" d="M2424.7,1229.5c-0.9,0.4-1.8,0.4-2.2,0.4l-7.1,0.4c-6.2,0.4-14.7,0.9-25.8,1.8c-21.8,0.9-51.6,2.2-84.9,3.1
		l-84.9,2.2l-25.8,0.9h-9.3c0.9-0.4,1.8-0.4,2.2-0.4l7.1-0.4c6.2-0.4,14.7-0.9,25.8-1.8c21.8-0.9,51.6-2.2,84.9-3.1l84.9-2.2
		l25.8-0.9H2424.7z"/>
	<path class="st6" d="M2211.7,1170.4h-4.9l-12.9-0.9c-10.7-0.9-25.8-1.8-42.2-2.7s-31.6-0.9-42.2-0.9h-12.9c-1.8,0-3.1,0-4.9-0.4
		c1.3-0.4,3.1-0.4,4.4-0.4c3.1-0.4,7.6-0.4,12.9-0.4c10.7-0.4,25.8-0.4,42.2,0.4s31.6,1.8,42.2,3.1c5.3,0.4,9.8,1.3,12.9,1.8
		C2208.2,1170,2210,1170,2211.7,1170.4L2211.7,1170.4z"/>
	<path class="st6" d="M2233.5,1046.8c0,0.4-28.9,0-64.9-1.8c-36-1.8-64.9-3.1-64.9-4s28.9,0,64.9,1.8
		C2204.6,1044.6,2233.5,1046.4,2233.5,1046.8z"/>
	<path class="st6" d="M2111.7,1319.3c0.4-1.3,1.3-2.7,2.2-4c1.8-2.7,4.4-6.2,7.6-10.7c8.9-11.1,18.7-21.8,29.3-31.6
		c10.7-9.8,22.2-18.7,34.2-26.2c4.4-3.1,8.4-5.3,11.1-6.7c1.3-0.9,2.7-1.8,4.4-2.2c0,0.4-5.8,4-14.7,10.2
		c-23.6,16.4-44.4,35.6-63.1,57.3C2116.2,1314,2112.2,1319.3,2111.7,1319.3L2111.7,1319.3z"/>
	<path class="st6" d="M2295.8,1343.8c-0.4,0-4.9-24-9.8-53.8c-4.9-29.8-8-54.2-7.6-54.2s4.9,24,9.8,53.8
		S2296.6,1343.8,2295.8,1343.8z"/>
	<path class="st9" d="M2175.7,1378.4l287.1-87.1c-21.3,28.4-63.6,54.7-95.1,71.1c-31.6,16.4-65.3,28-99.1,39.1
		c-18.2,6.2-36.9,12.4-56.4,12.4s-38.2-5.8-48.4-22.2L2175.7,1378.4L2175.7,1378.4z"/>
	<path class="st3" d="M2225.1,639.7c5.3-12.9,0.9-28-10.7-36c-11.6-7.6-27.1-6.7-38.2,1.8c-10.7,8.9-14.7,23.6-11.1,36.9
		c5.8,19.1,25.8,29.8,44.9,24c13.3-4,23.1-15.6,25.3-29.3"/>
	<path class="st7" d="M2268.2,564.6v20.9l-4.4,314.3c-0.4,36.4,30.7,66.2,69.3,66.2c39.6,0.4,72.5-29.3,73.3-66.2
		c1.3-38.7,3.1-79.6,3.1-79.6s50.2-7.1,62.2-71.6c6.2-32,5.8-85.3,4.4-128.9c-1.3-37.8-32.9-67.6-71.1-66.2h-3.1L2268.2,564.6z"/>
	<path class="st11" d="M2409.5,820.6c-30.7-0.4-60.4-9.3-86.2-25.8c0,0,20,45.3,85.3,40.9L2409.5,820.6z"/>
	<path class="st3" d="M2350,544.1c17.3,23.1-0.9,56-20.9,76.5s-44.4,44.9-39.1,73.3c6.2,32.9,51.1,53.8,44.4,86.7
		c-2.2,12-12,22.2-12,34.2c0,22.2,28.4,32.9,36.9,53.3c11.1,28-19.6,56-20,86.2c-0.4,17.3,9.3,33.3,9.8,50.2
		c0.9,35.1-40.4,60.9-74.7,52.4c-34.2-8.4-57.3-42.2-64.9-76.5c-7.6-34.2,4-82.7,9.3-117.3l-59.1,13.8c-11.1-10.7,4-21.8,6.7-36.4
		c6.2-37.8,31.1-69.3,42.7-105.8c10.2-31.6,10.2-65.8,14.7-98.7s14.7-67.6,40-89.3c25.3-21.8,68.9-24.4,89.3,1.8"/>
	<path class="st4" d="M2217.5,650.8c8.4,1.3,17.3,1.8,26.2,0.9c20.9-3.1,40.4-12,56.4-25.8s29.8-29.8,41.3-47.6
		c4.4-6.2,8-12,10.7-16c1.3-2.2,2.7-4,4-5.8c-0.9,2.2-2.2,4.4-3.6,6.2c-2.2,4-5.8,9.3-10.2,16.4c-11.1,18.2-25.3,34.2-41.3,48.4
		c-16.4,14.2-36.4,22.7-57.8,25.3c-6.7,0.4-12.9,0.4-19.6-0.4c-1.8-0.4-3.6-0.4-4.9-0.9C2218,651.3,2217.1,650.8,2217.5,650.8
		L2217.5,650.8z"/>
	<path class="st4" d="M2294.4,659.7c-2.7,2.7-5.8,4.9-9.3,6.7c-8.4,4.4-17.3,7.6-26.7,8.9c-9.3,1.3-18.7,0.9-28-0.9
		c-4-0.4-7.6-1.8-11.1-3.6c0-0.4,4.4,0.9,11.1,1.8c18.2,2.7,36.9,0,53.3-8C2290.4,661.9,2294,659.3,2294.4,659.7L2294.4,659.7z"/>
	<path class="st4" d="M2505.5,616.1c-14.7,0-28-7.6-34.7-20.4c4.9,4.9,9.8,9.3,15.6,13.3C2492.7,611.7,2499.3,614.4,2505.5,616.1z"
		/>
	<path class="st4" d="M2501.5,637.9c-8,2.7-17.3,0.4-23.1-5.8c0.4-0.4,4.9,2.2,11.1,4S2501.5,637,2501.5,637.9L2501.5,637.9z"/>
	<path class="st6" d="M2222.4,665c-2.2-7.1-3.1-14.2-1.8-21.3c0.4-7.1,2.2-14.2,5.8-20.9c0.4,0.4-2.2,9.3-3.1,20.9
		C2222.4,655.3,2222.9,665,2222.4,665L2222.4,665z"/>
	<path class="st3" d="M1607.7,1415.3c-4.4-0.9-40.4,167.6-35.6,233.4c4.9,65.8,35.6,293.4,35.6,293.4h368.5
		c0,0,46.2-221.8,37.8-288.9c-8.4-67.1-52-243.6-52-243.6L1607.7,1415.3z"/>
	<path class="st7" d="M1560.6,1096.6l-52.9-237.4l-3.1-39.1c0,0-12-88-12-96.5c0-9.8-4.9-12.4-8.4-12c-5.8,0.4-9.8,7.6-9.8,16
		c0,3.1,0.9,49.3,0.9,49.3c-2.7-4.4-5.8-8.4-9.3-12.4c-7.1-8.4-23.1-13.3-40-12.9c-16.9,0.4-21.3,2.2-21.3,8.9
		c0,2.7,1.3,4.9,3.6,6.2c3.1,2.7,7.1,4,11.1,3.6c26.7-0.9,33.8,13.3,33.8,13.3l0.4,4.9c0,0-16.4-11.6-28.9-6.2
		c-1.8,0.9-3.6,1.8-4.9,3.1c-11.6,0-20.9,9.8-20.4,21.3c0,3.6,0.9,6.7,2.7,9.8c1.3,3.1,4.9,5.3,8.4,4.9c1.8-0.4,3.6-1.8,4.4-3.1
		c0.9-0.4,1.3-1.3,2.2-1.8l3.1,14.2c0,0,8.9,31.6,11.1,45.8l14.2,235.1c1.8,32,29.8,56.9,61.8,54.7h0.9c32-2.7,56-30.7,53.8-62.7
		C1561.9,1102.4,1561.5,1099.7,1560.6,1096.6L1560.6,1096.6z"/>
	<path class="st7" d="M1500.6,856.6c-5.3,0.9-10.2-1.8-12.4-6.2c-2.7-4.4-4-9.3-6.2-13.8c-7.1-13.3-24-19.6-30.2-33.3
		c-0.9-1.8-1.3-4.4,0.4-5.8c1.8-1.3,4-0.4,5.3,0.4l44,24"/>
	<path class="st11" d="M1501,821.5c-1.3-1.3-2.7-2.2-4.4-3.1c-3.1-1.8-7.6-4.4-12.9-7.6l-19.1-10.7l-5.3-3.1
		c-2.2-1.8-4.4-2.2-7.1-1.8c-1.8,0.4-2.7,2.2-2.7,4c0,1.3,0,2.7,0.9,4c0.9,2.2,2.2,4.4,4,6.2c6.2,8,14.2,12.9,20,18.2
		c2.7,2.7,5.3,5.8,7.1,8.9s2.7,6.2,4,9.3c1.8,4.9,5.3,8.9,10.2,10.7c3.6,0.9,5.8,0,5.3-0.4c-1.8,0-3.6,0-5.3-0.9
		c-4.4-2.2-7.6-5.8-8.9-10.7c-1.3-3.1-2.2-6.2-4-9.3c-1.8-3.6-4.4-6.7-7.1-9.8c-5.8-6.2-13.8-11.1-19.6-18.2
		c-1.3-1.8-2.7-3.6-3.6-5.8c-0.9-1.8-0.9-4,0.4-4c1.3,0,3.1,0.9,4.9,1.8l5.8,3.1l19.6,10.2c5.3,2.7,10.2,4.9,13.3,6.7
		C1497.9,820.6,1499.2,821,1501,821.5z"/>
	<path class="st11" d="M1454.3,789.5c-0.4-3.1-1.3-6.2-3.1-8.9c-2.2-2.7-4.9-4.9-8-5.8c-4-1.3-8.4-1.8-12.4-1.8
		c-4.4,0-8.9-0.4-13.3-0.9c-3.6-0.9-7.1-2.2-9.8-4.9c-1.8-1.8-3.1-4.4-2.7-7.1c0-0.9,0.4-1.8,0.9-2.7v2.7c0,2.2,0.9,4.4,2.7,5.8
		c2.7,2.2,5.8,3.6,9.3,4c4.4,0.4,8.4,0.9,12.9,0.9s8.9,0.4,13.3,1.8c3.6,1.3,6.7,3.6,8.9,6.7c1.3,2.2,2.2,4.4,2.2,7.1
		C1454.8,788.6,1454.3,789.5,1454.3,789.5L1454.3,789.5z"/>
	<path class="st11" d="M1474.3,724.6c0.4,3.1,0.4,6.2,0.4,9.3v22.2c0,8.4,0,16,0.4,22.2c0.4,3.1,0.4,6.2,0,9.3
		c-0.9-3.1-1.3-6.2-1.3-9.3c-0.4-5.8-0.9-13.8-0.9-22.2c0-8.4,0-16.4,0.4-22.2C1473.5,730.8,1473.9,727.7,1474.3,724.6L1474.3,724.6
		z"/>
	<path class="st11" d="M1443.7,800.2c-0.9,0-1.8-0.4-2.7-0.9c-2.2-0.9-4.9-1.3-7.1-0.4c-1.3,0.9-2.2,2.2-2.2,4c0,2.2,0,4,0.4,6.2
		c0.4,2.7,0,4.9-0.9,7.1c-1.8,2.2-4.4,3.6-7.1,3.6c-2.7,0-5.3-0.9-7.1-3.1c-1.8-1.8-3.1-4-3.6-6.2c-0.4-4-0.4-8,0-12
		c0.4-2.7,0.9-5.3,2.2-7.6c0.9-1.8,1.8-2.2,1.8-2.2l-1.3,2.7c-0.9,2.2-1.3,4.9-1.8,7.6c-0.4,4-0.4,7.6,0.4,11.6
		c0.9,4.4,4.4,7.6,8.9,8c2.2,0,4.4-1.3,5.8-3.1c0.9-1.8,1.3-4,0.9-6.2c-0.4-2.2-0.4-4.4-0.4-6.2c0-2.2,1.3-4,3.1-4.9
		c2.7-0.9,5.8-0.9,8,0.9C1443.2,799.7,1444.1,800.2,1443.7,800.2L1443.7,800.2z"/>
	<path class="st11" d="M1417.5,815.3c0,0,0.4,0.9-0.4,2.7c-0.9,2.2-2.7,4-5.3,4.9c-3.6,0.9-7.6-0.4-10.2-3.1
		c-3.1-3.1-4.9-7.6-4.9-12.4c0-4.4,1.3-8.9,4-12.4c2.2-3.1,4.9-5.3,8.4-6.7c2.2-0.9,4.4-1.8,7.1-1.8c0.9,0,1.8,0,2.7,0.4
		c-3.1,0.4-6.2,1.3-8.9,2.7c-3.1,1.3-5.3,3.6-7.6,6.7c-2.2,3.6-3.6,7.6-3.6,11.6c0,4,1.3,8,4,11.1c2.2,2.7,5.8,3.6,8.9,3.1
		c2.2-0.4,4-1.8,4.9-4C1417.5,816.2,1417.5,815.3,1417.5,815.3L1417.5,815.3z"/>
	<path class="st11" d="M1449.9,846.4c1.3-0.4,3.1-0.4,4.4,0c4,0.9,7.1,2.7,9.8,5.8l-1.8,0.4c0-2.2,0.4-4,0.9-6.2
		c1.3-7.1,4.4-13.8,9.3-19.6c-3.1,6.2-5.8,12.9-7.6,20c-0.4,2.2-0.9,4-0.9,6.2l-0.4,2.2l-1.3-1.8c-2.2-2.7-5.3-4.9-8.9-5.8
		C1452.6,846.8,1451.2,846.8,1449.9,846.4L1449.9,846.4z"/>
	<path class="st11" d="M1448.1,766.8c0.4,0-1.3,3.6-5.3,5.3s-7.6,0.9-7.6,0.4s3.6-0.4,6.7-2.2S1447.7,766.8,1448.1,766.8
		L1448.1,766.8z"/>
	<path class="st6" d="M1983.3,895.3c19.1,0,65.8,54.7,73.8,138.2c3.6,38.2,22.7,194.2,32,269.4c3.1,27.1-8.4,53.8-30.7,69.8
		c-49.8,36-149.8,93.3-282.7,91.6l-80.5-67.6l261.4-109.8v-5.8l11.6-12.4l-32.4-200C1935.3,1068.6,1905.1,895.3,1983.3,895.3
		L1983.3,895.3z"/>
	<path class="st3" d="M1915.3,543.7c0.9,27.1,36.9,43.6,36.4,70.7c0,11.6-7.6,22.2-8.9,33.8c-1.8,15.6,6.7,30.2,9.8,45.3
		c6.7,31.6-11.6,64.9-38.7,81.8c-27.1,16.9-61.3,20.4-93.3,16"/>
	<path class="st3" d="M1697.5,537c0.9,14.7-8.4,27.6-18.2,38.2s-20.4,22.2-22.7,36.4c-3.6,25.8,21.3,49.3,16,74.7
		c-2.7,13.8-13.8,24.4-16,38.2c-2.2,13.8,5.3,26.2,13.8,36.4s19.1,8.4,26.7,19.6c8.9,12.4,20.4,22.7,33.8,30.2
		c28,15.1,61.8-6.7,75.1-10.7"/>
	<path class="st3" d="M1920.6,559.2c0.4-13.3-12-23.1-24-28s-25.8-6.7-36.9-13.8c-9.8-6.7-16-16.9-24.4-24.9
		c-31.6-32-82.7-32.4-114.7-0.9c-10.7,10.7-18.2,23.6-21.8,38.2c-4.9,18.7-1.3,40.9,13.3,53.3c17.3,14.7,42.7,11.1,64.5,6.7
		s46.7-8.9,65.3,4c11.1,8,17.3,20.4,24,32s15.1,23.6,28,28s30.2-3.1,30.7-16.9"/>
	<path class="st7" d="M1745.5,865.9c0-30.2-0.4-59.6-0.4-59.6s-48-8-57.8-70.7c-4.9-31.1-3.1-82.2-0.4-124
		c2.2-37.3,27.6-83.6,64.9-79.6l116.9,29.8c11.1,1.3,19.6,10.7,19.6,22.2l-10.7,283.6c-1.3,36-31.1,64.5-67.1,63.6
		C1774.4,930.8,1745.9,901.9,1745.5,865.9L1745.5,865.9z"/>
	<path class="st11" d="M1745,806.4c29.3,0.4,58.7-7.1,84-22.2c-0.9,0-23.1,43.6-83.1,36.9L1745,806.4L1745,806.4z"/>
	<path class="st3" d="M1895.3,771.7c-17.3,3.6-18.7-5.3-31.6-17.3c-12.9-12.4-19.6-29.8-17.3-47.6c1.8-15.6,10.2-31.1,4.9-45.8
		c-7.1-19.1-34.2-25.3-41.3-44.4c-4-11.1-0.4-24-5.3-35.1c-4.4-10.2-15.1-16-25.8-20c-10.7-4-21.8-6.2-30.7-13.3
		c-8.9-7.1-14.2-20-8.9-29.3c46.7,5.8,92.9,16.9,136.9,33.3c10.2,4,20.9,8.4,27.1,17.3c6.2,8.9,6.2,22.2,5.3,33.8l-8,168.9"/>
	<path class="st3" d="M1934.4,643.7c2.7-26.2,26.2-45.8,52.4-43.1c16.4,1.8,31.1,11.6,38.2,26.7c8.9,17.8,5.8,39.1-2.2,57.3
		c-9.8,21.3-29.3,40.9-52.9,39.6c-22.2-0.9-40-20.4-46.2-41.3c-6.2-20.9-4-43.6-1.3-65.8"/>
	<path class="st4" d="M1946.8,729.5c1.3-0.9,2.7-2.2,3.1-3.6c2.7-4,4-8,4.9-12.4c0.9-6.7,0.9-13.3-0.4-19.6
		c-1.3-7.6-4-15.1-5.3-23.1c-2.2-7.6-2.7-15.6-1.3-23.1c1.3-7.1,4.4-12.9,6.2-18.2c1.3-4.4,1.3-8.9,0.4-13.3
		c-0.4-1.8-1.3-3.1-2.2-4.4c0,0,0.9,1.8,1.3,4.4c0.9,4.4,0.4,8.4-1.3,12.4c-2.7,6.2-4.9,12-6.7,18.7c-1.3,8-0.9,16.4,1.3,24.4
		c1.8,8.4,4.4,16,5.8,23.1c1.3,6.2,1.8,12.9,0.9,19.1C1952.2,718.8,1949.9,724.6,1946.8,729.5z"/>
	<path class="st4" d="M1947.7,654.4c2.7,4,5.8,7.1,9.8,9.3c18.7,12.9,43.1,13.3,61.8,0.9c4-2.2,7.6-5.3,9.8-8.9
		c-0.4-0.4-4,3.6-11.1,7.6c-18.7,11.1-41.8,10.7-60-0.9C1951.7,657.9,1948.2,653.9,1947.7,654.4L1947.7,654.4z"/>
	<path class="st4" d="M1950.8,664.1c0.9,3.6,3.1,7.1,5.3,9.8c5.3,7.6,12,13.3,20,18.2c8,4.9,16.4,8,25.3,9.3c3.6,0.9,7.6,0.9,11.1,0
		c-3.6-0.9-7.1-1.3-10.7-1.8c-8.4-1.8-16.9-4.9-24.4-9.3s-14.2-10.2-20-16.9C1953.5,667.7,1951.3,663.7,1950.8,664.1L1950.8,664.1z"
		/>
	<path class="st4" d="M1934.8,750.4l0.9-0.9c0.4-0.9,1.3-1.8,1.8-2.7c2.2-3.6,3.6-7.1,4-11.1c1.3-6.2,0.9-12.4-0.9-18.7
		c-2.2-8-7.6-15.1-14.7-19.6c-7.6-5.3-17.3-8.9-23.1-17.3c-3.1-4-4.4-9.3-3.6-14.7c1.3-5.8,3.1-11.1,5.3-16
		c4.9-12,4.4-25.8-0.9-37.3c-2.7-6.2-7.1-11.6-12.9-16c-5.8-4-12.4-6.7-19.1-8c-6.7-1.3-13.3-2.7-20-4.4c-6.2-1.8-12-4.9-16.4-9.3
		c-4-4.4-6.7-10.2-7.1-16.4c-0.4-6.2-1.8-12-3.1-18.2c-2.7-11.1-8.4-21.3-16.9-29.8c-7.1-7.1-16.4-11.6-26.7-13.3
		c-8.4-1.3-16.9,0-24.4,3.6c-5.8,2.7-10.2,7.1-13.8,12.4c-2.2,3.1-4,6.7-4.9,10.7c-0.4,1.3-0.4,2.7-0.4,4c1.3-4.9,3.6-9.8,6.2-14.2
		c3.6-4.9,8.4-8.9,13.8-11.6c7.1-3.6,15.1-4.4,23.1-3.1c9.8,1.8,18.2,6.2,25.3,12.9c8,8,13.3,17.8,16,28.4c1.3,5.8,2.2,12,2.7,17.8
		c0.4,6.7,3.6,12.9,8,17.8c4.9,4.9,11.1,8,17.8,9.8s13.3,2.7,20,4.4c6.7,1.3,12.9,3.6,18.2,7.6c5.3,4,9.3,8.9,12,14.7
		c5.3,11.1,5.3,24,0.9,35.1c-2.2,5.3-4.4,11.1-5.3,16.9c-0.9,5.8,0.4,11.6,4,16.4c6.7,8.9,16.9,12.4,24,17.3
		c6.7,4.4,12,10.7,14.2,18.7c1.8,5.8,2.2,12,1.3,17.8C1939.7,741,1937.9,745.9,1934.8,750.4L1934.8,750.4z"/>
	<path class="st4" d="M1930.8,575.7c0.4-0.9,0.9-1.8,0.9-2.7c0.4-3.1-0.4-5.8-2.2-8.4c-2.2-4-6.2-7.1-10.7-8.4
		c-5.8-1.8-12-2.2-17.8-0.4c-6.7,1.3-13.3,4-20.9,5.3c-7.6,2.2-16,0.9-22.7-3.6c-6.7-4.9-9.8-13.8-13.3-22.7
		c-3.6-9.3-8.4-18.2-14.7-25.8c-12-15.1-28.4-26.2-47.6-30.7c-8.4-1.8-16.9-1.8-24.9,0.4c-7.1,2.2-13.8,6.2-18.7,11.6
		c-7.1,8.4-8.9,20-4.9,30.2c0.9,2.7,2.7,5.3,4.9,7.1c0.9,0.9,1.3,1.3,2.2,1.8c-2.7-2.7-4.4-5.8-6.2-9.3c-1.3-4-2.2-8.4-1.3-12.9
		c0.4-5.8,3.1-11.1,6.7-15.6c4.9-5.3,10.7-8.9,17.3-11.1c8-2.2,16-2.2,24-0.4c18.2,4.4,34.2,15.1,45.8,29.8
		c6.2,7.6,10.7,16,14.2,24.9c3.6,8.9,6.7,17.8,14.2,23.6c3.6,2.7,8,4,12.4,4.4c4,0.4,8.4,0,12.4-0.9c7.6-1.8,14.2-4.4,20.9-5.8
		c5.8-1.8,11.6-1.8,16.9,0c4,1.3,7.6,4,10.2,8c1.8,2.2,2.2,4.9,2.2,7.6C1931.3,574.4,1930.8,575.7,1930.8,575.7L1930.8,575.7z"/>
	<path class="st6" d="M1988.6,896.2l-111.1-28.4H1745c0,0-68.9,4-106.7,37.8c-9.8,9.3-16.9,21.3-20.9,34.2l-58.7,134.7l-30.2-168.9
		l-105.8,15.1l16.9,290.7c6.2,61.8,51.6,112.5,112.5,125.3l60-67.6c7.1,55.1,13.3,102.2,13.8,101.8c1.3-1.3,329.4-21.3,329.4-21.3
		l-33.3-112L1988.6,896.2L1988.6,896.2z"/>
	<path class="st6" d="M1568.6,520.1c0.4-41.8-33.3-76-75.1-76.5c-41.8-0.4-76,33.3-76.5,75.1c-0.4,29.3,16.4,56,42.7,68.9v19.1
		l66.2,0.9c0,0,0.4-10.7,0.9-20.4C1552.1,574.4,1568.6,548.6,1568.6,520.1L1568.6,520.1z"/>
	<path class="st3" d="M1501.9,606.8v-0.9l0.4-2.7c0.4-2.2,0.9-5.8,1.3-10.7c0.4-4.9,1.8-10.2,3.1-16.4c1.8-7.1,4-14.2,7.1-20.9
		c1.8-4,4-7.6,6.2-11.1c1.3-1.8,3.1-3.6,5.3-4.4c2.2-0.9,4.9-0.9,7.1,0.4c2.2,1.3,3.1,4.4,2.2,7.1c-1.3,2.2-3.6,4-5.8,4.9
		c-5.3,1.8-10.7,1.3-15.6-1.3c-5.3-2.7-8.9-7.1-10.7-12.9c-0.9-2.7-0.9-5.8-0.4-8.9c0.9-3.1,3.6-5.3,7.1-5.3c1.8,0,3.1,1.3,4,2.7
		c0.9,1.3,0.9,3.1,0.4,4.9c-0.9,3.1-2.7,5.8-5.3,7.6c-4.9,4-11.6,5.8-17.8,4.9c-6.2-0.9-12-5.3-14.7-11.1c-1.3-2.7-1.8-6.2-0.4-9.3
		c0.4-1.3,1.8-2.7,3.6-3.6c1.3-0.4,3.1-0.4,4.4,0.4c1.3,0.9,2.7,1.8,3.1,3.6c0.9,1.3,0.9,3.1,0.9,4.4c0,3.1-0.4,5.8-1.3,8.4
		c-1.8,5.3-5.8,9.8-10.7,12.4s-10.2,3.1-15.6,1.8c-2.7-0.4-4.9-1.8-6.7-3.6c-1.8-2.2-1.8-4.9-0.4-7.1c0.9-0.9,2.2-1.8,3.6-1.8
		s2.7,0,3.6,0.9c2.2,1.3,3.6,3.1,4.4,5.3c1.8,4,3.6,8,4.9,12c5.8,15.1,10.2,28,12.9,36.9c1.3,4.4,2.2,8,3.1,10.2l0.9,2.7v0.9
		c0-0.4-0.4-0.4-0.4-0.9s-0.4-1.3-0.9-2.7c-0.9-2.2-1.8-5.8-3.1-10.2c-2.7-8.9-7.1-21.3-13.3-36.4c-1.3-4-3.1-8-4.9-12
		c-0.9-2.2-2.7-4-4.4-4.9c-1.8-1.8-4.9-1.3-6.2,0.4c-1.8,1.8-1.3,4.9,0.4,6.2c1.8,1.8,4,3.1,6.2,3.6c4.9,1.3,10.7,0.4,15.1-1.8
		c4.9-2.7,8.4-7.1,10.2-12c0.9-2.7,1.3-5.3,1.3-8.4c0-2.7-1.3-5.3-4-7.1c-1.3-0.9-2.7-0.9-4-0.4c-1.3,0.4-2.2,1.3-2.7,2.7
		c-0.9,2.7-0.9,5.8,0.4,8.4c2.7,5.8,7.6,9.3,13.8,10.7c6.2,0.9,12.4-0.9,16.9-4.9c2.2-1.8,4-4,4.9-7.1c0.4-1.3,0-2.7-0.4-4
		c-0.4-1.3-1.8-2.2-3.1-2.2c-1.3,0-2.7,0.4-4,1.3c-0.9,0.9-1.8,2.2-2.2,3.6c-0.9,2.7-0.4,5.8,0.4,8.4c1.8,5.3,5.3,9.8,10.2,12.4
		c4.4,2.2,10.2,2.7,15.1,1.3c2.2-0.9,4.4-2.2,5.3-4.4s0.4-4.9-1.8-5.8c-1.8-1.3-4.4-1.3-6.7-0.4c-1.8,0.9-3.6,2.7-4.9,4.4
		c-2.2,3.6-4.4,7.1-6.2,11.1c-3.1,6.7-5.3,13.8-7.1,20.9c-1.8,6.2-2.7,12-3.6,16.4s-1.3,8-1.8,10.7c0,1.3-0.4,2.2-0.4,2.7
		C1501.9,606.4,1501.9,606.8,1501.9,606.8L1501.9,606.8z"/>
	<path class="st3" d="M1521,619.7l-56.9-0.4c-2.2,0-4.4-2.2-4.4-4.4c0-2.7,1.8-4.4,4.4-4.4l56.9,0.9c2.7,0,4.4,1.8,4.4,4.4
		C1525,617.9,1523.2,619.7,1521,619.7L1521,619.7z"/>
	<path class="st3" d="M1520.6,623.3l-56.9-0.4c-2.2-0.9-4.9,0.4-5.3,3.1c-0.9,2.2,0.4,4.9,3.1,5.3c0.9,0.4,1.8,0.4,2.7,0h6.2l8,16
		c0.9,1.8,2.7,3.1,4.9,3.1l20.4,0.4c2.2,0,4-1.3,4.9-3.1l8.4-15.6h4.4c2.2,0.4,4.9-0.9,5.3-3.1c0.4-2.2-0.9-4.9-3.1-5.3
		C1522.3,622.8,1521.5,622.8,1520.6,623.3z"/>
	<path class="st12" d="M1444.6,470.4c4.4-4,9.8-7.6,15.1-9.8c3.6-1.8,7.6-2.7,11.6-3.1c2.7-0.4,4.4,0,4.4,0.4
		c0.4,1.3-5.3,3.6-13.3,8.4c-20.9,12.9-32,36.4-28.9,60.9c0.9,9.3,3.1,15.1,1.8,15.6c-0.4,0.4-1.8-0.9-3.6-3.1
		c-2.2-3.6-3.6-7.1-4.4-11.1c-1.8-5.8-2.2-12-1.8-18.2c0.4-7.6,2.2-15.1,5.3-21.8"/>
	<path class="st12" d="M1494.3,461.5c-4.9,0-8.9-1.3-9.3-4c0-1.3,0.9-2.7,2.2-3.6c2.2-1.3,4.9-1.8,7.1-1.8c2.7,0,4.9,0.4,7.1,1.8
		c1.8,0.9,2.7,2.7,2.2,3.6"/>
	<path class="st4" d="M1507.2,649l-4-1.3c-3.1-0.9-6.2-1.3-9.8-1.3c-3.1,0-6.7,0.4-9.8,1.8c-2.2,0.9-4,1.3-4,1.3
		c0.9-0.9,2.2-1.8,3.6-1.8c3.1-1.3,6.7-1.8,9.8-1.8s6.7,0.4,9.8,1.3C1504.6,647.3,1505.9,648.1,1507.2,649z"/>
	<path class="st4" d="M1516.6,632.1c0,0.4-10.2,0.4-23.1,0s-23.1-0.4-23.1-0.9s10.2-0.4,23.1,0S1516.6,631.7,1516.6,632.1z"/>
	<path class="st4" d="M1513,638.8c-1.8,0.4-3.6,0.4-5.8,0.4c-3.6,0-8.4,0.4-13.8,0.4s-10.2,0-13.8-0.4c-1.8,0-4,0-5.8-0.4H1513z"/>
	<path class="st3" d="M1624.6,1153.5c-1.3-1.3-2.2-2.7-3.6-4c-2.7-4-4.9-8.4-5.8-13.3c-3.6-15.6-2.7-32,2.7-47.1
		c5.8-17.8,13.8-32.4,18.2-43.6c2.2-5.8,4-10.2,4.9-13.3c0.4-1.8,0.9-3.6,1.8-4.9c0,1.8-0.4,3.6-0.9,5.3c-0.9,3.1-2.2,8-4.4,13.8
		c-4,11.6-11.6,26.7-17.3,44c-5.3,14.7-6.7,30.7-3.6,45.8C1618.8,1142,1621.5,1148.2,1624.6,1153.5L1624.6,1153.5z"/>
	<path class="st3" d="M1931.7,1038.8c0.4,0.9,0.4,1.3,0.4,2.2c0.4,1.8,0.9,4,1.3,6.7c0.9,6.2,2.7,14.2,4.4,24.4
		c3.6,20.9,8.4,49.3,13.8,80.9s9.3,60.4,12.4,81.3c1.3,10.2,2.2,18.7,3.1,24.9c0,2.7,0.4,4.9,0.4,6.7v2.2c-0.4-0.9-0.4-1.3-0.4-2.2
		c-0.4-1.8-0.4-4-0.9-6.7c-1.3-8-2.7-16.4-4-24.4c-3.6-20.9-8-49.3-12.9-80.9c-4.9-31.6-9.8-60-12.9-80.9c-1.8-10.2-2.7-18.7-4-24.4
		c-0.4-2.7-0.9-4.9-0.9-6.7V1038.8L1931.7,1038.8z"/>
	<path class="st3" d="M1555.7,1158c0-4,0-8.4,0.9-12.4c0.4-7.6,1.3-18.2,1.8-29.8c0.4-11.6,0-22.2,0-29.8c-0.4-4-0.4-8.4,0-12.4
		c0.9,4,1.8,8,1.8,12.4c0.9,9.8,1.3,20,0.9,29.8c-0.4,10.2-0.9,20-2.2,29.8C1557.9,1150,1557,1154,1555.7,1158z"/>
	<path class="st3" d="M2007.3,1297.5c-0.4,0-0.9-3.1-3.1-7.1c-2.7-5.8-6.7-10.7-11.6-14.2c-4.9-3.6-11.1-6.2-17.3-7.1
		c-4.9-0.9-8-0.4-8-0.9c2.7-0.9,5.3-1.3,8-0.9c13.3,0.9,25.3,9.8,30.2,22.2C2006.8,1292.2,2007.3,1294.9,2007.3,1297.5
		L2007.3,1297.5z"/>
	<path class="st3" d="M1982.8,1310.9c-3.6-5.3-7.1-9.8-11.6-14.2c-4.9-4-9.8-7.6-15.6-10.2
		C1969.1,1288.6,1979.3,1298.4,1982.8,1310.9z"/>
	<path class="st3" d="M1901.1,1310.9c0-0.4,12.4-5.8,27.6-12.4s27.6-12.9,28-12c-8.4,5.8-17.3,10.7-27.1,14.2
		C1920.6,1305.1,1910.8,1308.2,1901.1,1310.9z"/>
	<path class="st0" d="M1468.6,1123.3c0,0,64,304,64,300c0-4,322.3,13.8,379.6,16.4l12-3.1l91.1-83.6l-104.5-8.4l-37.3-213.8
		L1468.6,1123.3z"/>
	<path class="st4" d="M1873,1130.9c0.4,0,12.4,68.5,26.7,152.9c14.2,84.5,24.9,152.9,24.4,153.3c-0.4,0.4-12.4-68.5-26.7-152.9
		S1872.6,1130.9,1873,1130.9z"/>
	<path class="st4" d="M1874.4,1131.3c0,0-0.4,0.9-2.2,2.2c-2.2,1.8-4.4,4-6.7,6.2c-0.9,1.3-2.7,3.6-1.8,5.8s0.9,4.9,1.3,8
		c0.9,5.8,2.2,12,3.6,19.1c4.9,28.4,11.6,67.6,18.7,110.7c7.1,43.1,13.3,82.2,18.2,110.7c2.2,13.8,4,25.3,5.3,33.8
		c0.4,4,0.9,6.7,1.3,9.3c0,0.9,0.4,2.2,0.4,3.1c-0.4-0.9-0.4-2.2-0.9-3.1c-0.4-2.2-0.9-5.3-1.8-8.9c-1.3-8-3.6-19.6-5.8-33.3
		c-4.9-28.4-11.6-67.6-18.7-110.7s-13.3-82.2-18.2-110.7c-0.9-7.1-2.2-13.3-3.1-19.1l-1.3-8c-0.4-2.2,0.4-4.9,2.2-6.7
		c2.2-2.2,4.4-4.4,7.1-6.2C1872.6,1132.6,1873.5,1131.7,1874.4,1131.3z"/>
	<path class="st4" d="M1862.8,1142h-15.6l-41.8-0.4l-138.2-2.2l-138.2-2.2l-41.8-0.4h-11.6c-1.3,0-2.7,0-4-0.4h57.3
		c35.6,0,84,0.4,138.2,1.8c54.2,1.3,102.7,2.2,138.2,3.1l41.8,1.3l11.1,0.4C1860.2,1142,1861.5,1142,1862.8,1142L1862.8,1142z"/>
	<path class="st4" d="M1910.4,1353.5h6.2l16.9,0.4c14.2,0.4,34.2,1.8,56.4,3.1h2.7l-2.2,1.8c-1.3,0.9-2.7,2.2-4,3.6
		c-17.8,15.1-34.2,28.9-45.8,38.7l-14.2,11.6l-5.3,4c1.3-1.8,3.1-3.1,4.9-4.4l13.8-12c11.6-10.2,27.6-24,45.3-39.1
		c1.3-1.3,2.7-2.2,4-3.6l0.4,2.2c-22.2-1.3-42.2-2.7-56.4-4l-16.9-1.3C1914.4,1354.4,1912.6,1354,1910.4,1353.5L1910.4,1353.5z"/>
	<path class="st7" d="M1630.4,1432.7l-4-49.3c8.4-1.3,16.4,4.4,17.8,12.9v3.1v-30.7c0,0,18.7-4,23.1,20.4
		c1.8,12.9,5.3,25.8,9.8,38.2l10.2,5.3l-9.3-56.9c0,0,20,1.8,23.6,20.4c1.8,11.1,4.9,21.8,8.9,32l31.6,8.9c0,0-18.2-16-16.4-21.3
		c1.8-5.3,0.4-4.9,4-5.8c5.8,0,11.6,1.3,16.9,4.4c5.8,3.1,39.1,22.7,39.1,22.7v24.4c0,0-77.8,5.8-95.1,2.2l-33.8-8
		C1644.1,1453.6,1634.4,1444.7,1630.4,1432.7L1630.4,1432.7z"/>
	<path class="st8" d="M1704.1,1270.4c0.4,12-8.4,22.2-20.4,22.7c-12,0.4-22.2-8.4-22.7-20.4c-0.4-11.1,7.1-20.4,17.8-22.2
		C1691.7,1248.6,1702.8,1258,1704.1,1270.4z"/>
	<path class="st13" d="M1967.7,1266.9c13.3-4.4,27.6-4,40.4,1.3c12.9,5.3,22.2,17.3,24.4,31.1c0.4,3.1,0.4,6.2-0.4,9.3
		c-0.9,3.1-3.6,5.3-6.7,6.7c-5.3,0.9-10.2-1.8-12.9-6.2c-2.2-4.4-4.4-9.3-5.8-14.2c-6.7-16.4-22.7-27.6-40-28l2.2,0.4"/>
	<path class="st6" d="M1733.9,884.6c2.7-8.4,0.4-17.3-1.3-26.2c-1.8-8.9-1.8-18.7,4-24.9c5.8-6.2,15.6-7.1,24.4-7.6l107.6-4.9
		c7.1-0.4,16,0,20.4,5.8c3.1,3.6,4.4,8.4,4,13.3c-5.3,20.4-4,37.8,4.4,52"/>
	<path class="st3" d="M1879.7,874.4c-1.3,1.3-3.1,2.7-4.9,4c-4.4,3.1-9.3,6.2-14.2,8.9c-16.4,8.9-34.2,14.2-52.9,16
		c-10.2,0.9-20.4,0.9-30.7-0.4c-8.4-1.3-16.4-3.6-23.6-7.6c-4.9-2.7-9.3-6.2-12.9-10.7c-0.9-1.3-1.8-2.2-2.7-3.6
		c-0.4-0.4-0.4-0.9-0.9-1.3c4.4,5.8,10.7,10.7,17.3,14.2c7.1,3.6,15.1,5.8,23.1,7.1c9.8,1.3,20,1.3,30.2,0.4
		c18.2-1.8,36-7.1,52-15.1C1872.6,879.7,1879.3,873.9,1879.7,874.4L1879.7,874.4z"/>
	<path class="st3" d="M1806.4,903.7c-1.3-4-2.2-8-2.7-12c-1.3-7.6-3.1-17.8-4.9-28.9c-0.9-5.8-1.8-11.1-2.7-16
		c-0.9-4.4-0.9-8.9,0.4-13.3c0.9-3.1,3.1-5.3,5.8-7.1c0.9-0.4,2.2-0.9,3.1-0.9c0,0-0.9,0.4-2.7,1.8c-2.2,1.8-3.6,4-4.4,7.1
		c-0.9,4-0.9,8.4,0,12.9c0.9,4.9,1.8,10.2,2.7,16c1.8,11.1,3.6,21.3,4.4,28.9C1805.9,895.7,1806.4,899.7,1806.4,903.7z"/>
	<path class="st3" d="M1862.4,886.8c-0.9-3.1-1.8-6.7-2.2-9.8c-0.9-6.2-2.2-14.2-3.1-24c-0.9-9.8-1.8-17.8-2.7-23.6
		c-0.4-2.2-1.8-4.4-3.6-5.8c-1.3-0.9-2.2-0.9-2.2-1.3s0.9-0.4,2.7,0.4c2.2,1.3,4,3.6,4.4,6.2c1.3,6.2,2.2,14.7,3.6,24
		c1.3,9.3,2.2,17.8,2.7,24C1862.4,880.2,1862.4,883.7,1862.4,886.8L1862.4,886.8z"/>
	<path class="st3" d="M1759.7,826.4c-2.7,1.3-5.3,3.6-7.1,6.2c-1.8,2.7-3.6,5.8-4,9.3c-0.9,4-0.9,8.4-0.4,12.4
		c0.9,9.3,1.8,17.3,1.8,23.6c0.4,3.1,0.4,6.7,0,9.8c-0.9-3.1-1.8-6.2-1.8-9.8c-0.9-6.2-1.8-14.2-2.7-23.6c-0.4-4.4-0.4-8.9,0.4-13.3
		c0.9-3.6,2.2-7.1,4.9-9.8C1753,828.2,1756.6,826.4,1759.7,826.4z"/>
	<path class="st4" d="M1321.4,1481.6c0,22.7,13.3,461.8,13.3,461.8l-186.7-0.9l-32.4-195.1l-8.4,195.1H927.6l19.6-481.4
		L1321.4,1481.6L1321.4,1481.6z"/>
	<path class="st5" d="M770.7,1299.8l-95.6-142.2l70.7-57.3l119.6,111.1c0,0,51.6-288.9,102.2-306.2l-4,448
		C895.6,1385.5,813.4,1362.9,770.7,1299.8L770.7,1299.8z"/>
	<path class="st6" d="M575.6,629.9L596,906.8l332,636.9l192.5-111.1L793,809.9L575.6,629.9L575.6,629.9z"/>
	<path class="st14" d="M796.1,811.3c-5.3,9.3-17.3,12.4-26.7,6.7c-0.4-0.4-0.9-0.9-1.8-0.9c6.7,26.7-9.8,53.3-36,59.6
		c-15.1,3.6-30.7,0-42.7-9.3c-4,31.6-33.3,53.8-64.9,49.8c-10.2-1.3-20-5.3-28-12l-20-274.7L796.1,811.3L796.1,811.3z"/>
	<path class="st6" d="M583.6,741c0,0,44.9,28.4,80.9-37.8l-88.9-73.8C575.6,629.5,583.6,741,583.6,741z"/>
	<path class="st1" d="M1001.4,1491.8c-0.4,0.4-71.1-139.1-157.8-311.6s-156.5-312-155.6-312.5s71.1,139.1,157.8,311.6
		S1001.9,1491.8,1001.4,1491.8L1001.4,1491.8z"/>
	<path class="st1" d="M1081.4,1444.2c-0.4,0.4-71.1-139.1-157.8-311.6s-156.5-312-156-312.5c0.4-0.4,71.1,139.1,157.8,311.6
		S1081.9,1443.8,1081.4,1444.2L1081.4,1444.2z"/>
	<path class="st15" d="M690.7,1000.6l-43.1,17.3l-9.3,34.7l14.7,57.8l34.7,36.9l23.6-19.6l1.3-35.6l2.7-20c0,0,21.3-6.7,21.8-9.8
		c0.4-3.1-2.7-14.2-5.8-14.7s-25.8,8-25.8,8s26.2-20.9,25.8-24.4c-0.4-3.6-3.6-12-8.9-12.9c-5.3-0.9-48,19.1-48,19.1l-7.1,15.6
		l-6.2-25.3C662.3,1028.2,700.1,1018,690.7,1000.6L690.7,1000.6z"/>
	<path class="st16" d="M696.1,1082.4c0,0-0.9-1.3-1.3-4.4c-0.9-7.6,1.8-14.7,7.6-20c2.2-1.8,3.6-2.7,4-2.2
		C698.7,1062.4,695.2,1072.2,696.1,1082.4L696.1,1082.4z"/>
	<path class="st16" d="M675.6,1074.9c0.9-3.6,1.3-7.6,1.8-11.1c0-4.4,0.9-8.4,2.2-12.4c0.9-2.7,2.2-4.9,4-6.7
		c1.8-1.8,4.4-3.6,7.1-4.4c10.2-3.6,19.6-6.7,26.2-8.9c3.6-1.3,7.6-2.2,11.1-3.1c-3.6,1.8-7.1,3.1-10.7,4.4
		c-6.7,2.7-16,5.8-26.2,9.3c-2.2,0.9-4.4,2.2-6.2,4c-1.8,1.8-2.7,3.6-3.6,5.8c-1.3,4-2.2,8-2.7,12
		C678.7,1067.3,677.4,1071.3,675.6,1074.9z"/>
	<path class="st16" d="M665.8,1066.8c-0.4,0-0.4-4,0.4-8.4c0.9-4.4,1.8-8.4,2.7-8c0.4,2.7,0.4,5.8-0.4,8.4
		C667.2,1063.3,666.3,1066.8,665.8,1066.8z"/>
	<path class="st6" d="M1248.5,821.9l-37.8-12.9l-141.3,32.4l-12.4,10.2l-74.7,692.1c32,33.3,133.3,39.6,190.7,29.8L1248.5,821.9z"/>
	<path class="st5" d="M1251.2,823.3l-18.2-8.9c0,0-40,176-40,292.5s-25.3,538.3-25.3,538.3l190.7-4.9V1174L1251.2,823.3
		L1251.2,823.3z"/>
	<path class="st5" d="M982.3,1651.8l-72-21.3l25.3-341.4l-4.9-247.1l37.8-137.8l89.8-55.6C1057.9,849.1,987.2,1610.9,982.3,1651.8
		L982.3,1651.8z"/>
	<path class="st15" d="M1133,906.8c-36-3.1-63.6-33.3-63.6-69.3v-61.8c0,0-57.3-8.9-57.8-66.2c-0.4-57.3,9.3-188.5,9.3-188.5
		c66.2-28.4,142.7-18.7,199.6,24.9l8.4,6.7l-20.9,289.8c-2.7,38.2-36,67.1-74.2,64.5L1133,906.8L1133,906.8z"/>
	<path class="st16" d="M1069.4,774.8c26.2,0.4,52.4-7.1,74.7-21.3c0,0-17.8,40.9-74.7,36V774.8z"/>
	<path class="st15" d="M1221.9,611.7c0.9-0.4,39.1-11.6,37.8,27.6s-40,29.8-40.4,28.4C1218.8,666.4,1221.9,611.7,1221.9,611.7
		L1221.9,611.7z"/>
	<path class="st16" d="M1232.1,653.5c0,0,0.4,0.4,1.8,0.9c1.8,0.9,3.6,0.9,4.9,0.4c4-1.3,8-8,8.4-14.7c0-3.6-0.4-6.7-1.8-9.8
		c-0.9-2.7-2.7-4.4-4.9-5.3c-1.8-0.4-3.6,0-4,1.8c-0.4,0.9-0.4,1.8-0.4,1.8s-0.9-0.4-0.4-2.2c0.4-0.9,0.9-1.8,1.8-2.2
		c0.9-0.9,2.7-1.3,4-0.9c3.1,0.9,5.8,3.1,7.1,6.2c1.3,3.6,2.2,7.1,2.2,11.1c-0.4,8-4.9,15.1-10.7,16.4c-2.2,0.4-4.4,0-6.2-1.3
		C1232.1,654.4,1232.1,653.5,1232.1,653.5L1232.1,653.5z"/>
	<path class="st3" d="M993,485c-0.9-7.1,2.2-14.2,8-18.7c5.8-4.4,14.2-3.6,19.6,1.3c-2.2-9.3,3.6-18.7,13.3-20.9
		c0.4,0,1.3-0.4,1.8-0.4c9.3-0.4,17.3,6.2,26.2,8.9c8.9,1.8,18.2,0.9,26.7-3.1c8.4-3.6,16.4-8,24.9-11.1
		c37.8-13.8,79.1,5.3,93.3,43.1c12.4-4,26.7,2.7,34.7,12.9c7.1,11.1,10.2,24.4,8,37.3c-1.3,8.9-3.6,17.3-6.7,25.8v2.2
		c-0.4,31.6-4,68.5-17.8,68.5c-23.6,0.4-17.8-43.6-17.8-43.6c-28.9-11.1-18.2-54.2-25.3-60.4c-7.1-6.2-22.2-21.8-82.2,8.9
		c-23.1,12-54.2,11.6-71.1,7.6l-1.3-0.4h-0.4l-0.4-0.4c-5.3-1.3-10.7-3.6-15.6-6.7c-5.8-3.1-10.2-8-12.9-14.2
		c-2.7-6.2-1.3-12.9,3.1-17.8C997,498.8,993.9,492.1,993,485L993,485z"/>
	<path class="st4" d="M1184.1,521v-7.1c-0.9-6.2-4-12-8.9-16c-7.1-6.2-16.4-8.9-25.8-8.4c-11.6,0.9-22.7,3.1-33.3,7.6
		c-5.8,1.8-11.6,3.6-17.3,4.9c-14.7,3.1-30.2,2.7-44.9-1.8c-6.2-1.8-12-4.4-17.8-7.6c-1.3-0.9-3.1-1.8-4.4-2.7
		c-0.4-0.4-0.9-0.4-1.3-0.9c0,0,2.2,1.3,6.2,3.1c5.8,3.1,11.6,5.3,17.8,7.1c8.9,2.7,18.2,3.6,27.6,3.1c5.3,0,11.1-0.9,16.4-2.2
		c5.8-1.3,11.6-3.1,17.3-4.9c10.7-4.4,22.2-6.7,33.8-7.6c9.8-0.4,19.1,2.7,26.7,9.3c4.9,4.4,8,10.2,8.9,16.9
		C1185.4,516.6,1185,518.8,1184.1,521L1184.1,521z"/>
	<path class="st4" d="M1228.5,617.9c-0.4-0.4-0.4-0.9-0.9-1.3c-0.4-0.9-0.9-2.2-1.8-3.6c-1.8-4.4-3.6-9.3-4.4-14.2
		c-1.8-7.1-2.2-14.7-1.3-22.2c0.9-8.9,2.7-17.8,4.9-26.7c2.2-8.4,2.2-17.8,0-26.2c-0.9-3.6-3.1-7.1-5.3-9.8
		c-2.2-2.7-4.9-4.4-8.4-5.3c-4.4-1.8-9.8-1.8-14.2,0.4c-1.8,0.9-3.1,1.8-4.4,3.1c0.9-1.3,2.2-2.7,4-3.6c4.4-2.2,9.8-2.7,14.7-0.9
		c3.6,0.9,6.7,3.1,8.9,5.8c2.7,3.1,4.9,6.7,5.8,10.7c2.2,8.9,2.2,18.2,0,27.1c-2.2,8.9-4,17.3-5.3,26.2c-0.4,7.1-0.4,14.7,0.9,21.8
		c0.9,4.9,2.2,9.8,4,14.2C1228.1,616.1,1228.5,617.9,1228.5,617.9z"/>
	<path class="st4" d="M1189.4,516.6v-8.9c0.4-8-0.4-16-2.7-23.6c-1.8-5.3-4-10.2-7.6-14.2c-4-4.9-9.3-8.4-15.1-10.2
		c-6.7-1.3-13.8-1.3-20.4,0.9c-7.1,2.2-14.2,5.3-20.4,9.3c-6.7,4-13.3,7.6-20.4,10.7c-6.7,2.7-13.8,4-20.9,4
		c-6.7,0-12.9-0.4-19.1-2.2c-5.3-1.3-10.7-3.6-15.6-6.2c-7.1-4-13.3-9.3-18.2-15.6c-1.3-1.8-2.7-3.6-3.6-5.3
		c-0.4-0.4-0.9-1.3-0.9-1.8c0.4,0.4,0.9,1.3,1.3,1.8l4,5.3c5.3,6.2,11.6,11.1,18.7,15.1c4.9,2.7,9.8,4.4,15.1,6.2
		c6.2,1.8,12.4,2.2,18.7,2.2c7.1,0,13.8-1.8,20.4-4c7.1-3.1,13.8-6.7,20-10.2c6.7-4,13.3-7.1,20.9-9.3c7.1-2.2,14.2-2.2,21.3-0.9
		c6.2,1.8,12,5.3,16,10.7c3.6,4.4,6.2,9.3,7.6,15.1c2.2,8,2.7,16,2.2,24c0,2.7-0.4,4.9-0.4,6.7
		C1189.9,515.2,1189.9,515.7,1189.4,516.6L1189.4,516.6z"/>
	<path class="st5" d="M1251.2,823.3c0,0,136.5,43.6,145.3,67.1c6.7,17.8,78.2,232.9,93.8,372.9c5.8,56.4-35.1,107.1-91.6,113.3h-1.8
		c-92.5,8.4-226.2,19.6-226.2,12v-116l173.8-25.3l-64.5-188.9L1251.2,823.3L1251.2,823.3z"/>
	<path class="st15" d="M1076.1,1365.1c17.8,4.4,94.7,4.4,94.7,4.4v-91.1c0,0-33.3-14.2-42.7-22.7c-9.3-8.4-35.6-57.3-35.6-57.3
		c-9.8,5.8-14.7,16.9-12,28c4.4,20,12.4,22.7,13.3,30.7l0.9,2.2c1.8,11.1-8.9,20.9-8.9,20.9c-3.6-2.7-7.6-4.9-11.6-6.2
		c-16-1.8-35.6,9.8-35.6,16c0,0-0.4,17.3,0,20c0.4,2.7,8.9,6.2,8.9,6.2s-2.7,11.6,0,16.9c3.1,4,6.7,7.1,11.1,8.9
		C1058.8,1342,1066.3,1362.4,1076.1,1365.1L1076.1,1365.1z"/>
	<path class="st16" d="M1094.8,1350.4c-12.4,1.3-24.9-1.3-36-8c0.4-0.4,8,2.2,17.8,4.4C1086.3,1349.1,1094.8,1349.5,1094.8,1350.4z"
		/>
	<path class="st16" d="M1090.3,1322.9c-6.7,2.2-14.2,2.2-20.9,0.9c-7.1-0.4-13.8-2.7-20-6.7c0.4-0.4,8.9,2.7,20.4,4.4
		C1081.4,1323.3,1090.3,1322.4,1090.3,1322.9L1090.3,1322.9z"/>
	<path class="st16" d="M1087.6,1244.6c2.7,3.1,4.9,7.1,6.2,11.1c0.9,2.2,1.3,4,1.8,6.2c0.4,2.7,0.4,5.3,0,8
		c-1.8,5.8-5.8,10.7-11.1,13.3c-2.7,1.8-5.3,2.7-8.4,3.6c-2.7,0.4-5.3,0.9-8.4,0.9h-13.8c-8,0-12.4,1.3-12.9,0.9
		c4-1.8,8.4-2.7,12.4-2.7c4-0.4,8.9-0.4,13.8-0.9c2.7,0,5.3-0.4,8-0.9c2.7-0.4,5.3-1.8,8-3.1c4.9-2.7,8.4-7.1,10.2-12
		c0.4-2.2,0.4-4.4,0-6.7c-0.4-2.2-0.9-4-1.8-6.2C1089.9,1249.1,1087.2,1244.6,1087.6,1244.6L1087.6,1244.6z"/>
	<path class="st4" d="M1346.8,1246.4c-2.2,0.9-4.4,1.3-6.7,1.3l-18.7,3.1c-16,2.7-37.8,6.2-62.2,9.8s-46.2,6.7-62.2,8.9
		s-25.8,3.1-25.8,2.7l6.7-1.3l18.7-3.1l62.2-9.8c24.4-3.6,46.2-6.7,62.2-8.9l18.7-2.7H1346.8z"/>
	<path class="st4" d="M1420.6,1229.1c-4.4,0.4-9.3,0.4-13.8,0c-8.4-0.4-20-0.9-32.9-1.8c-5.8-0.9-12-0.9-17.8,0
		c-4.9,0.9-8.9,3.6-11.6,7.1c-1.8,2.7-2.2,5.8-1.8,8.9c0.4,2.2,1.3,3.1,1.3,3.6c0,0.4-1.3-0.9-2.2-3.1c-0.9-3.6-0.9-7.1,0.9-10.2
		c2.7-4.4,7.1-7.6,12.4-8.4c6.2-0.9,12.4-1.3,18.2-0.4c12.9,0.9,24.4,1.8,32.9,2.7C1411.2,1227.8,1416.1,1228.2,1420.6,1229.1z"/>
	<path class="st4" d="M1392.1,1261.1c-8.4-1.3-16.9-3.1-24.9-6.2c-8.4-2.2-16.4-4.9-24-8.4c8.4,1.3,16.9,3.6,24.9,6.2
		C1376.1,1254.9,1384.6,1257.5,1392.1,1261.1z"/>
	<path class="st4" d="M1284.1,1033.5c0.4,0,14.7,44,31.1,98.7c16.4,54.7,29.8,99.1,28.9,99.6c-0.9,0.4-14.7-44-31.1-98.7
		C1296.6,1078.4,1283.7,1033.5,1284.1,1033.5z"/>
	<path class="st4" d="M1385.9,893.5c0,0.4-8,1.8-20,6.2c-32,12.4-57.3,37.8-69.3,69.8c-4.4,12-5.8,20.4-6.2,20c0-1.8,0-4,0.4-5.8
		c0.9-5.3,2.2-10.2,4-15.1c11.6-33.3,37.3-59.1,70.7-70.7c4.9-1.8,9.8-3.1,15.1-4C1382.3,893.9,1384.1,893.5,1385.9,893.5z"/>
	<path class="st4" d="M932.1,988.6c0,0.9,0.4,2.2,0.4,3.1c0,2.2,0,5.3,0.4,8.9c0,8,0.4,19.1,0.4,32.4c0.4,27.6,0.9,65.8,1.3,107.6
		s0.4,80,0.4,107.6v44.4c0-0.9-0.4-2.2-0.4-3.1c0-2.2,0-5.3-0.4-8.9c0-8-0.4-19.1-0.4-32.4c-0.4-27.6-0.9-65.8-1.3-107.6
		s-0.4-80-0.4-107.6V988.6L932.1,988.6z"/>
	<path class="st5" d="M1147.2,1936.3c-0.4-0.9-0.9-2.2-0.9-3.6c-0.4-2.2-1.3-5.8-2.2-9.8c-1.8-8.4-4.4-20.4-7.6-35.6
		c-6.2-30.2-13.8-72-21.3-118.2c-7.6-46.2-12.9-88.5-16.9-119.1c-1.8-15.1-3.1-27.6-4-36l-0.9-9.8v-3.6c0.4,1.3,0.4,2.2,0.4,3.6
		c0.4,2.2,0.9,5.8,1.3,9.8c1.3,8.9,2.7,20.9,4.9,36c4,30.7,9.8,72.5,17.3,118.7c7.6,46.2,15.1,88,20.4,118.2
		c2.7,15.1,4.9,27.1,6.7,35.6c0.9,4,1.3,7.1,1.8,9.8C1147.2,1934,1147.2,1934.9,1147.2,1936.3L1147.2,1936.3z"/>
	<path class="st4" d="M1397.5,1376.7c0,0.4-50.2,4.4-112,8.4c-61.8,4-112,6.7-112,6.2c0-0.4,50.2-4.4,112-8.4
		C1347.2,1378.9,1397.5,1375.8,1397.5,1376.7z"/>
	<path class="st3" d="M1099.6,195.7l14.2,74.2L1125,249l24.9,36.9l12-8.4l-24.4-36.4l22.7-3.6L1099.6,195.7z"/>
</g>
</svg>
