<?xml version="1.0" encoding="utf-8"?>
<!-- Generator: Adobe Illustrator 23.0.1, SVG Export Plug-In . SVG Version: 6.00 Build 0)  -->
<svg version="1.1" id="Layer_1" xmlns="http://www.w3.org/2000/svg" xmlns:xlink="http://www.w3.org/1999/xlink" x="0px" y="0px"
	 viewBox="0 0 3500 2000" style="enable-background:new 0 0 3500 2000;" xml:space="preserve">
<style type="text/css">
	.st0{fill:#EBEBEB;}
	.st1{fill:#E0E0E0;}
	.st2{fill:#F5F5F5;}
	.st3{fill:#FAFAFA;}
	.st4{fill:#263238;}
	.st5{fill:#00858E;}
	.st6{fill:#FFC93C;}
	.st7{fill:#FFFFFF;}
	.st8{fill:#455A64;}
	.st9{fill:#07689F;}
	.st10{fill:#FFBE9D;}
	.st11{fill:#EB996E;}
	.st12{opacity:0.3;}
	.st13{fill:#AA6550;}
	.st14{opacity:0.6;}
	.st15{fill:#995037;}
	.st16{opacity:0.2;}
</style>
<g>
	<g id="freepik--background-complete--inject-297">
		<path class="st0" d="M687,1570.6c17.3-8.6,37.4-9.9,56.7-7c10.3,1.6,21,4.9,28,12.3c7,7.4,8.2,21.4,0.4,28
			c-5.3,3.3-11.5,4.9-17.7,4.5c-14.8,0-31.7-2.9-43.6,6.2c-7,4.9-11.5,13.6-19.3,16c-8.2,2.1-16.9-2.1-21.4-9.5
			c-3.7-7.4-4.5-16-2.5-24.3C669.4,1585.4,676.8,1575.5,687,1570.6z"/>
		<path class="st0" d="M647.6,1494.5c10.7,14.8,30.8,9.9,40.3,0.8c9.5-9,13.6-22.6,17.3-34.9c8.2-28.8,16.9-59.2,10.7-88.8
			c-1.6-9-5.3-17.3-11.5-24.3c-6.2-7-15.2-9.9-24.3-8.2c-10.3,2.9-16.9,12.7-21.4,22.6c-13.6,28.4-21,59.2-21,90.9
			C637.7,1467,639.4,1482.2,647.6,1494.5"/>
		<path class="st0" d="M618.4,1515.9c11.5-13.6,13.6-33.3,8.6-50.2c-5.8-16.9-16-31.7-29.6-43.2c-15.6-14-33.7-24.7-53.4-31.7
			c-7.4-3.3-15.6-4.5-23.8-4.1c-8.2,0.4-16,5.3-20.1,12.3c-5.8,10.7,0,23.8,5.8,34.1c10.3,18.5,21.8,36.6,34.9,53.4
			c10.7,13.6,22.6,26.7,38.6,32.9c16,6.2,32.5,5.3,41.1-5.8"/>
		<path class="st1" d="M646.8,1721c0.4-2.1,0.8-4.5,0.8-7c0.4-4.9,1.2-11.1,1.6-18.5c0.4-7.4,2.1-17.3,4.1-27.1
			c2.5-11.1,5.8-21.8,9.9-32.1c4.1-10.3,9.5-20.1,16.4-29.2c5.8-7.4,12.7-13.2,21-17.3c5.3-2.9,11.5-4.5,17.7-5.3
			c2.5,0,4.5-0.4,7-0.8c-2.5-0.4-4.5-0.4-7,0c-6.2,0.4-12.3,2.1-18.1,4.9c-8.6,4.1-16,9.9-21.8,17.3c-7,9-12.7,18.9-17.3,29.6
			c-4.1,10.7-7.4,21.8-9.9,32.9c-1.6,9-2.9,18.5-3.7,27.5c-0.4,7.8-0.8,14.4-0.8,18.9C646.3,1716.5,646.3,1718.6,646.8,1721z"/>
		<path class="st1" d="M648,1706.7c0-1.2,0-2.1,0-3.3c0-2.5,0-5.3,0-9c0-7.8,0-19.3,0.4-33.3c0.8-28,3.3-58.4,7.8-100.7
			c4.5-40.3,10.3-86.7,16.4-117.2c1.2-7,2.9-13.2,4.1-18.5c1.2-5.3,2.5-10.3,3.3-14c0.8-3.7,1.6-6.6,2.1-8.6
			c0.4-0.8,0.4-2.1,0.4-3.3c-0.4,0.8-0.8,2.1-1.2,2.9c-0.8,2.1-1.6,4.9-2.5,8.6c-0.8,3.7-2.5,8.2-3.7,14c-1.2,5.8-2.9,11.5-4.5,18.5
			c-7.8,35.8-13.2,71.9-17.3,108.5c-4.5,42.8-7,81.4-7,109.8c0,14,0,25.5,0.4,33.3c0,3.7,0.4,6.6,0.4,9
			C648,1704.6,648,1705.4,648,1706.7z"/>
		<path class="st1" d="M648.4,1631.4c0.4-3.3,0.4-6.2,0-9.5c-0.4-8.6-1.6-17.3-2.9-25.5c-2.1-12.7-4.9-25.1-8.2-37.4
			c-4.1-15.2-9.5-30-15.6-44.4c-10.7-26.3-26.3-50.6-46-71.5c-3.3-3.7-7-7-10.7-9.9c-1.6-1.2-3.3-2.9-4.5-4.1l-4.1-2.9
			c-2.5-2.1-5.3-3.7-7.8-4.9c9,7.4,18.1,14.8,25.9,23.4c18.9,21,34.1,45.2,44.8,71.1c6.2,14.4,11.5,28.8,15.6,43.6
			c4.1,13.6,7,26.3,9,37s3.3,19.3,3.7,25.5C647.6,1625.3,647.6,1628.5,648.4,1631.4z"/>
		<polygon class="st1" points="575.6,1763.8 583.4,1867 715.4,1867 722.8,1763.8 		"/>
		<rect x="562.9" y="1723.1" class="st1" width="176" height="40.7"/>
		<polygon class="st0" points="562.9,1862.9 562.9,1874 571.1,1874 736,1874 736,1862.9 		"/>
		<polygon class="st1" points="579.3,1893.7 571.1,1874 729.4,1874 720.3,1893.7 		"/>
		<path class="st2" d="M720.8,1797.5l-0.8,0.8l-2.1,2.5l-7.8,9.9l-0.4,0.4l-0.4-0.4l-18.9-26.3h1.2l-18.5,26.3l-0.8,0.8l-0.8-0.8
			l-22.2-26.3h1.2l-1.2,1.6l-19.7,24.7l-0.8,0.8l-0.8-0.8l-18.5-26.3h1.2c-9,10.3-16.9,19.3-23,26.3l-0.4,0.4l-0.4-0.4
			c-2.9-4.9-5.3-9-7.4-11.9l-1.6-3.3c-0.4-0.4-0.4-0.8-0.4-1.2c0,0,0.4,0.4,0.8,0.8l2.1,3.3l7.4,11.9h-0.8l22.6-26.3l0.4-0.8
			l0.4,0.8l18.9,26.3l0,0l19.7-24.7c0.4-0.4,0.8-1.2,1.2-1.6l0.8-0.8l0.8,0.8l22.2,26.3h-1.2l18.5-26.3l0.4-0.8l0.4,0.8
			c7.4,10.7,13.6,19.7,18.5,26.3h-0.8l8.2-9.5l2.1-2.5C720.3,1797.9,720.3,1797.9,720.8,1797.5z"/>
		<path class="st2" d="M724.9,1763c0,0.4-33.3,0.8-74,0.8c-40.7,0-74-0.4-74-0.8s33.3-0.8,74-0.8
			C691.6,1762.2,724.9,1762.6,724.9,1763z"/>
		<path class="st2" d="M731.4,1875.2c0,0.4-36.2,0.8-80.6,0.8c-44.4,0-80.6-0.4-80.6-0.8s36.2-0.8,80.6-0.8
			C695.3,1874.4,731.4,1874.8,731.4,1875.2z"/>
		<rect x="377.9" y="334.8" class="st3" width="876.1" height="332.2"/>
		<path class="st0" d="M1180.4,413.3c0,0.8-148.8,1.2-332.6,1.2s-332.6-0.4-332.6-1.2S664,412,847.8,412S1180.4,412.9,1180.4,413.3z
			"/>
		<path class="st0" d="M1180.4,452.7c0,0.8-148.8,1.2-332.6,1.2s-332.6-0.4-332.6-1.2c0-0.8,148.8-1.2,332.6-1.2
			S1180.4,451.9,1180.4,452.7z"/>
		<path class="st0" d="M1180.4,491.8c0,0.4-148.8,1.2-332.6,1.2s-332.6-0.4-332.6-1.2c0-0.8,148.8-1.2,332.6-1.2
			S1180.4,491.4,1180.4,491.8z"/>
		<path class="st0" d="M1180.4,531.3c0,0.4-148.8,1.2-332.6,1.2s-332.6-0.4-332.6-1.2c0-0.8,148.8-1.2,332.6-1.2
			S1180.4,530.5,1180.4,531.3z"/>
		<path class="st0" d="M1180.4,570.3c0,0.4-148.8,1.2-332.6,1.2s-332.6-0.4-332.6-1.2c0-0.8,148.8-1.2,332.6-1.2
			S1180.4,569.9,1180.4,570.3z"/>
		<path class="st1" d="M1122.4,524.7c0,0-0.4,0.4-1.6,1.6c-1.6,1.6-3.7,2.9-5.8,3.7c-8.2,2.5-17.3,0.8-24.3-4.5
			c-4.9-4.1-8.6-9-11.5-14.4c-3.3-5.8-5.8-12.7-8.6-20.1c-2.9-7.8-7.4-14.8-13.2-21c-3.3-3.3-7-5.3-11.5-7c-4.5-1.2-9.5-1.6-14-0.8
			c-9.9,2.1-19.3,7-26.3,14c-7.8,7-14.8,16-23.4,23.8c-8.6,8.6-19.7,14.4-32.1,15.6c-6.6,0.4-13.2-1.2-18.5-4.9s-9.9-9-12.7-14.8
			c-6.6-11.5-9.9-24.7-18.5-34.9c-4.1-5.3-9.5-9.5-16-11.1s-13.6,0-18.9,4.5s-9.5,9.9-12.3,16.4c-2.5,6.6-4.5,13.6-5.8,20.6
			c-1.2,7.4-3.3,14.4-5.8,21.4c-1.2,3.7-3.3,7-5.3,9.9c-2.5,2.9-4.9,5.8-7.8,8.2c-5.8,4.9-12.7,8.2-20.1,10.3
			c-7.4,2.1-14.8,2.1-22.2,0.4c-7.4-1.6-14-4.9-19.7-9.9c-5.8-4.5-11.1-9-16.9-13.6c-5.3-4.5-11.5-7.8-18.1-9.9
			c-6.6-1.6-13.6-0.8-19.3,2.5c-5.8,3.3-10.7,7.8-14.4,13.2c-3.7,5.3-7,11.1-9.9,16.9c-2.9,5.8-6.2,11.5-9.5,16.9
			c-3.7,5.3-8.2,9.9-13.6,13.2s-11.5,4.9-18.1,4.1c-6.2-0.8-11.5-4.1-15.6-8.6c-3.7-4.5-6.6-9.5-8.6-14.8c-1.6-5.3-3.3-10.7-4.1-16
			c-2.1-10.7-3.7-21-9-28.8c-4.5-8.2-12.3-14-21.4-16c-4.1-0.4-8.2,0-12.3,1.6c-3.7,1.6-7,3.7-9.9,6.6
			c-11.1,10.7-16.4,23.8-25.1,31.2s-16.4,11.5-22.2,11.1c-2.1,0-4.5-0.4-6.6-1.2l-2.1-0.8c2.9,1.2,5.8,1.6,8.6,1.6
			c5.8,0,14-3.7,21.8-11.5c7.8-7.8,13.2-20.6,24.7-31.7c2.9-2.9,6.6-5.3,10.3-7c4.1-1.6,8.6-2.5,13.2-1.6
			c9.5,2.1,17.7,7.8,22.6,16.4c2.9,4.5,4.9,9,6.2,14c1.2,4.9,2.5,10.3,3.3,15.6c0.8,5.3,2.5,10.7,4.1,15.6
			c1.6,5.3,4.5,10.3,8.2,14.4c3.7,4.5,9,7.4,14.8,8.2c5.8,0.4,11.9-0.8,16.9-4.1c5.3-3.3,9.9-7.4,13.2-12.7
			c3.7-5.3,6.6-10.7,9.5-16.4c2.9-6.2,6.2-11.9,9.9-17.3c4.1-5.8,9-10.3,15.2-14c6.2-3.7,13.6-4.5,20.6-2.9
			c7,2.1,13.2,5.3,18.9,10.3c5.8,4.5,11.1,9,16.4,13.6c5.8,4.5,11.9,7.8,18.9,9.5c7,1.6,14.4,1.6,21.4-0.4c7-1.6,13.6-4.9,19.3-9.9
			c2.9-2.5,5.3-4.9,7.4-7.8c2.1-2.9,3.7-6.2,4.9-9.5c2.5-7,4.5-14,5.8-21c1.2-7.4,3.3-14.4,6.2-21s7.4-12.7,13.2-17.3
			c5.8-4.5,13.2-6.6,20.6-4.9c7,2.1,13.2,6.2,17.3,11.9c9,10.7,12.3,24.3,18.9,35.4c2.9,5.8,7.4,10.3,12.3,14
			c4.9,3.3,11.1,4.9,17.3,4.5c11.9-1.2,22.6-6.6,31.2-15.2c8.6-7.8,15.6-16.4,23.4-23.8c7.4-7.4,17.3-12.3,27.5-14.4
			c4.9-0.8,9.9-0.4,14.8,0.8c4.5,1.6,8.6,4.1,11.9,7.4c5.8,6.2,10.3,13.6,13.2,21.4c2.9,7.4,5.3,14,8.6,20.1
			c2.5,5.3,6.6,10.3,11.1,14.4c6.6,5.3,15.6,7,23.8,4.5C1117.9,528.4,1120.4,526.8,1122.4,524.7z"/>
		<path class="st1" d="M1164.4,515.6h-2.5c-0.8,0-1.6-0.4-2.9-0.4c-1.2-0.4-2.5-0.8-3.7-1.2c-7.8-4.1-14.4-9.9-19.7-16.9
			c-2.1-2.1-3.7-4.5-5.8-7c-2.1-2.5-4.1-5.3-6.2-7.4c-5.3-4.9-12.3-8.2-19.7-9c-4.1-0.4-8.2,0-11.9,1.6c-4.1,1.6-7.8,4.1-10.7,7.4
			c-6.2,7.4-11.9,14.8-17.7,22.6c-3.3,4.1-7,7.8-11.1,10.7c-4.5,3.3-9.9,4.9-15.2,5.8c-11.5,0.8-23-1.2-33.7-6.2
			c-11.1-4.5-21.4-10.7-33.3-14.8c-5.8-2.1-12.3-3.3-18.5-3.7c-6.6,0-12.7,1.2-18.5,4.1c-11.9,5.8-21,16-32.5,24.7
			c-5.8,4.5-11.9,7.8-18.9,10.3c-7,2.5-14,3.7-21.4,3.7c-15.2,0.4-30-3.7-42.8-11.9c-13.2-8.2-24.3-19.3-32.5-32.1
			c-8.6-13.2-13.6-27.5-19.7-41.1c-2.9-6.6-7-13.2-11.5-18.9c-4.5-5.3-10.3-9.9-16.9-13.2c-6.2-2.9-13.6-3.7-20.1-2.1
			c-6.6,2.1-12.3,5.8-16.9,11.1c-4.5,5.3-7.8,11.1-9.9,17.3c-2.1,6.2-4.1,12.7-5.3,19.3c-1.2,6.6-2.5,13.2-4.5,19.3
			c-1.6,6.2-4.1,12.3-7.4,18.1c-5.8,11.1-14.4,20.1-24.3,27.5c-9.5,7-20.6,11.1-32.1,12.7c-10.7,1.2-21.4,0-31.7-3.7
			c-17.7-6.2-31.7-19.7-37.8-37.4c-2.5-7.8-4.1-14.8-5.8-21.4c-1.6-6.2-4.1-11.9-7.8-16.9c-4.9-7-13.2-11.1-21.8-11.1
			c-2.9,0.4-5.8,1.2-8.2,2.9c2.5-2.1,5.3-3.3,8.2-3.3c9,0,17.3,4.1,22.6,11.1c3.7,4.9,6.6,11.1,7.8,16.9c2.1,6.6,3.3,14,6.2,21.4
			c6.6,17.3,20.1,30.4,37.4,36.2c9.9,3.7,20.6,4.9,30.8,3.3c11.1-1.6,21.8-6.2,31.2-12.7c9.9-7,18.1-16.4,23.8-27.1
			c6.2-11.1,8.6-23.8,11.5-36.6c1.2-6.6,2.9-13.2,5.3-19.7c2.5-6.6,5.8-12.7,10.3-18.1c4.5-5.8,10.7-9.9,17.7-11.9
			c7.4-1.6,14.8-0.8,21.8,2.5c7,3.3,12.7,7.8,17.7,13.6c4.9,5.8,8.6,12.3,11.9,19.3c6.2,13.6,11.1,28.4,19.7,41.1
			c8.2,12.7,18.9,23.4,31.7,31.7c12.3,7.8,26.7,11.5,41.5,11.5c7,0,14-1.2,21-3.7c6.6-2.5,12.7-5.8,18.1-9.9
			c11.1-8.2,20.6-18.9,32.9-24.7c6.2-2.9,12.7-4.5,19.7-4.1c6.6,0.4,12.7,1.6,18.9,3.7c11.9,4.1,22.6,10.7,33.7,15.2
			c10.3,4.9,21.4,7,32.9,6.2c5.3-0.8,10.3-2.5,14.8-5.3c4.1-2.9,7.8-6.6,10.7-10.7c5.3-7.8,11.5-15.6,17.7-22.6
			c3.3-3.3,7-5.8,11.1-7.4c4.1-1.2,8.2-2.1,12.3-1.6c7.4,0.8,14.8,4.1,20.1,9.5c2.1,2.5,4.1,4.9,6.2,7.8c2.1,2.5,3.7,4.9,5.8,7
			c5.3,7,11.9,12.7,19.3,16.9C1158.6,515.2,1161.5,515.6,1164.4,515.6z"/>
		<path class="st1" d="M469.6,415.3c-2.9,1.2-5.8,1.2-8.6,1.2c-2.9,0.4-6.2,0-8.6-1.2c2.9-1.2,5.8-1.2,8.6-1.2
			C463.8,413.7,466.7,414.1,469.6,415.3z"/>
		<path class="st1" d="M469.6,452.7c-2.9,1.2-5.8,1.2-8.6,1.2c-2.9,0.4-6.2,0-8.6-1.2c2.9-1.2,5.8-1.2,8.6-1.2
			C463.8,451.1,466.7,451.5,469.6,452.7z"/>
		<path class="st1" d="M469.6,490.2c-2.9,1.2-5.8,1.2-8.6,1.2c-2.9,0.4-6.2,0-8.6-1.2c2.9-1.2,5.8-1.2,8.6-1.2
			S466.7,488.9,469.6,490.2z"/>
		<path class="st1" d="M469.6,527.2c-2.9,1.2-5.8,1.2-8.6,1.2c-2.9,0.4-6.2,0-8.6-1.2c2.9-1.2,5.8-1.2,8.6-1.2
			S466.7,525.9,469.6,527.2z"/>
		<path class="st1" d="M469.6,564.6c-2.9,1.2-5.8,1.2-8.6,1.2c-2.9,0.4-6.2,0-8.6-1.2c2.9-1.2,5.8-1.2,8.6-1.2
			S466.7,563.8,469.6,564.6z"/>
		<path class="st1" d="M550.1,612.7c-5.8,1.2-11.5,1.2-17.7,1.2c-5.8,0.4-11.9,0-17.7-1.2c5.8-1.2,11.5-1.2,17.7-1.2
			C538.6,611,544.4,611.4,550.1,612.7z"/>
		<path class="st1" d="M705.5,612.7c-5.8,1.2-11.5,1.2-17.7,1.2c-5.8,0.4-11.9,0-17.7-1.2c5.8-1.2,11.5-1.2,17.7-1.2
			C693.6,611,699.4,611.4,705.5,612.7z"/>
		<path class="st1" d="M860.5,612.7c-5.8,1.2-11.5,1.2-17.7,1.2c-5.8,0.4-11.9,0-17.7-1.2c5.8-1.2,11.5-1.2,17.7-1.2
			C848.6,611,854.8,611.4,860.5,612.7z"/>
		<path class="st1" d="M1015.5,612.7c-5.8,1.2-11.5,1.2-17.7,1.2c-5.8,0.4-11.9,0-17.7-1.2c5.8-1.2,11.5-1.2,17.7-1.2
			C1004,611,1009.8,611.4,1015.5,612.7z"/>
		<path class="st1" d="M1170.5,612.7c-11.5,1.2-23.4,1.2-35.4,0C1147.1,611,1159,611,1170.5,612.7z"/>
		<rect x="1654.8" y="1190.3" class="st3" width="713.3" height="441.5"/>
		<path class="st0" d="M2195.9,1509.7c-49.3-18.9-106.5,32.9-155,11.9c-28.4-12.3-41.1-44.4-54.7-71.9
			c-13.6-27.5-37.8-56.3-68.2-53.4s-55.9,39.1-85.5,30.4c-18.9-5.3-28.4-26.3-32.9-45.2s-7.8-39.9-22.2-53.4
			c-14.4-13.6-44.4-9.9-46.5,9.9v233.9h557.9C2288.4,1571.8,2213.1,1515.9,2195.9,1509.7z"/>
		<path class="st1" d="M2303.6,1571.8c0,0.4-135.3,0.8-301.8,0.8s-302.2-0.4-302.2-0.8s135.3-0.8,302.2-0.8
			S2303.6,1571.4,2303.6,1571.8z"/>
		<path class="st1" d="M2303.6,1469.9c0,0.4-135.3,0.8-301.8,0.8s-302.2-0.4-302.2-0.8s135.3-0.8,302.2-0.8
			S2303.6,1469,2303.6,1469.9z"/>
		<path class="st1" d="M2303.6,1367.5c0,0.4-135.3,0.8-301.8,0.8s-302.2-0.4-302.2-0.8s135.3-0.8,302.2-0.8
			S2303.6,1367.1,2303.6,1367.5z"/>
		<path class="st1" d="M2303.6,1270.5c0,0.4-135.3,0.8-301.8,0.8s-302.2-0.4-302.2-0.8c0-0.4,135.3-0.8,302.2-0.8
			S2303.6,1269.6,2303.6,1270.5z"/>
		<rect x="2414.2" y="136.6" class="st3" width="530.8" height="474.8"/>
		<path class="st1" d="M2945.3,611.9c0,0,0-3.3,0-8.6c0-5.3,0-14.4,0-25.5c0-22.2,0-55.1-0.4-96.2c0-83-0.4-201.4-0.8-344.5l1.2,1.2
			h-530.8l0,0l1.2-1.2c0,172.7,0,335.5,0,474.8l-1.2-1.2l384,0.8l108.1,0.4h28.8h7.4C2944.5,611.9,2945.3,611.9,2945.3,611.9h-2.5
			h-7.4h-28.4l-108.1,0.4l-384.8,0.4h-0.8v-1.2c0-139.8,0-302.2,0-474.8v-1.2h1.2h530.8h1.2v1.2c-0.4,143.1-0.4,261.9-0.8,344.9
			c0,41.5-0.4,74-0.4,96.2c0,11.1,0,19.3,0,25.1C2945.3,608.6,2945.3,611.9,2945.3,611.9z"/>
		<path class="st1" d="M2617.7,220.9c0,0.8-28,1.2-62.5,1.2c-34.5,0-62.5-0.8-62.5-1.2c0-0.4,28-1.2,62.5-1.2
			C2589.7,219.6,2617.7,220.1,2617.7,220.9z"/>
		<path class="st1" d="M2843,256.6c0,0.8-76.9,1.2-171.4,1.2c-94.6,0-171.8-0.4-171.8-1.2c0-0.8,76.9-1.2,171.4-1.2
			S2843,255.8,2843,256.6z"/>
		<rect x="2493.9" y="317.1" class="st1" width="22.2" height="22.2"/>
		<rect x="2549" y="317.1" class="st1" width="22.2" height="22.2"/>
		<rect x="2604.9" y="316.3" class="st1" width="22.2" height="22.2"/>
		<rect x="2659.2" y="317.1" class="st1" width="22.2" height="22.2"/>
		<rect x="2714.3" y="317.1" class="st1" width="22.2" height="22.2"/>
		<rect x="2769" y="317.1" class="st1" width="22.2" height="22.2"/>
		<rect x="2824.5" y="317.1" class="st0" width="22.2" height="22.2"/>
		<rect x="2493.9" y="364.8" class="st0" width="22.2" height="22.2"/>
		<rect x="2549" y="364.8" class="st1" width="22.2" height="22.2"/>
		<rect x="2604.1" y="364.8" class="st0" width="22.2" height="22.2"/>
		<rect x="2659.2" y="364.8" class="st1" width="22.2" height="22.2"/>
		<rect x="2714.3" y="364.8" class="st1" width="22.2" height="22.2"/>
		<rect x="2770.2" y="363.5" class="st1" width="22.2" height="22.2"/>
		<rect x="2824.5" y="364.8" class="st1" width="22.2" height="22.2"/>
		<rect x="2493.9" y="412" class="st1" width="22.2" height="22.2"/>
		<rect x="2549.8" y="411.2" class="st1" width="22.2" height="22.2"/>
		<rect x="2604.1" y="412" class="st1" width="22.2" height="22.2"/>
		<rect x="2659.2" y="412" class="st0" width="22.2" height="22.2"/>
		<rect x="2714.3" y="412" class="st1" width="22.2" height="22.2"/>
		<rect x="2769" y="412" class="st1" width="22.2" height="22.2"/>
		<rect x="2824.5" y="412" class="st1" width="22.2" height="22.2"/>
		<rect x="2493.9" y="459.7" class="st1" width="22.2" height="22.2"/>
		<rect x="2549" y="459.7" class="st1" width="22.2" height="22.2"/>
		<rect x="2604.1" y="459.7" class="st1" width="22.2" height="22.2"/>
		<rect x="2660" y="458.9" class="st1" width="22.2" height="22.2"/>
		<rect x="2714.3" y="459.7" class="st1" width="22.2" height="22.2"/>
		<rect x="2769" y="459.7" class="st0" width="22.2" height="22.2"/>
		<rect x="2824.5" y="459.7" class="st1" width="22.2" height="22.2"/>
		<rect x="2493.9" y="507.4" class="st1" width="22.2" height="22.2"/>
		<rect x="2549" y="507.4" class="st0" width="22.2" height="22.2"/>
		<rect x="2604.1" y="507.4" class="st1" width="22.2" height="22.2"/>
		<rect x="2659.2" y="507.4" class="st1" width="22.2" height="22.2"/>
		<rect x="2714.3" y="507.4" class="st1" width="22.2" height="22.2"/>
		<rect x="2770.2" y="506.2" class="st1" width="22.2" height="22.2"/>
		<rect x="2824.5" y="507.4" class="st1" width="22.2" height="22.2"/>
	</g>
	<g id="freepik--Floor--inject-297">
		<path class="st4" d="M3235.2,1893.7c0,0.4-629.4,1.2-1405.6,1.2s-1406-0.4-1406-1.2s629.4-1.2,1406-1.2
			S3235.2,1893.3,3235.2,1893.7z"/>
	</g>
	<g id="freepik--Panel--inject-297">
		<path class="st1" d="M2204.5,179.8c0,0,62.9,0.8,36.2,125.4c-26.7,124.6-23.4,148-23.4,197.3c-0.8,32.9,17.3,63.3,46.5,78.5h-85.1
			l-62.5-290.7V179.8H2204.5z"/>
		<polygon class="st1" points="2223,1159.5 1362.1,1159.5 1369.5,317.1 2180.6,274.7 		"/>
		<polygon class="st0" points="2193.4,1137.7 1332.5,1137.7 1340.3,295.7 2176.1,279.3 		"/>
		<polygon class="st3" points="2175.3,1114.2 1316.5,1114.2 1316.5,271.9 2176.1,269.8 		"/>
		<path class="st4" d="M2175.3,1114.2c0-7.8,0-337.9-0.4-844l0.8,0.8l-858.4,2.1h-1.2l1.2-1.2c0,307.9,0,596.9,0,842.4l-0.8-0.8
			L2175.3,1114.2l-858.8,0.8h-0.8v-0.8c0-245,0-534,0-842.4v-1.2h2.5l858.4-1.6h0.8v0.8C2176.1,776.3,2175.3,1106.4,2175.3,1114.2z"
			/>
		<path class="st2" d="M2176.1,267.7c-44.4-51.8,7-90,24.7-90.9l-818.1-0.4c-38.2,0-69.1,30.8-69.1,68.7c0,4.1,0.4,7.8,0.8,11.9
			c0.8,4.5,2.1,8.6,3.3,12.7"/>
		<path class="st4" d="M2197.5,580.6h1.2h3.3h12.7l48.5-0.4v1.2c-7.4-2.5-14-6.2-19.7-11.5c-6.2-5.8-11.1-13.2-14.8-21
			c-3.7-8.6-7-17.7-8.6-26.7c-1.2-4.9-2.1-9.9-2.9-14.8c-0.4-2.5-0.8-4.9-1.2-7.8c-0.4-2.5-0.4-5.3-0.4-7.8
			c-0.4-11.1,0-21.8,1.2-32.9c0.8-11.1,2.1-22.6,3.3-34.5c2.9-23.4,6.2-47.7,10.3-72.8c1.6-10.7,3.7-21.4,5.8-31.7
			s3.3-20.6,4.5-30.8c1.2-10.3,2.5-20.1,3.7-29.6c0.4-4.9,1.2-9.5,1.2-14.4c0-4.5,0-9.5-0.8-14c-1.2-9-3.7-17.7-7.8-26.3
			c-3.7-7.8-9-14.4-16-19.3c-6.6-4.5-14.4-6.2-22.2-4.9c-7.4,0.8-14,3.7-19.7,8.2c-4.9,4.1-9.5,9.5-12.3,15.2
			c-2.9,5.3-4.9,11.1-6.2,16.9c-2.1,9.5-0.8,19.3,3.3,28c2.5,5.3,5.3,10.7,9,15.6l2.9,3.7c0.4,0.8,0.8,1.2,0.8,1.2s-0.4-0.4-1.2-1.2
			l-2.9-3.7c-3.7-4.9-7-10.3-9.5-15.6c-4.5-8.6-5.8-18.9-3.7-28.4c1.2-5.8,3.3-11.5,6.2-17.3c3.3-6.2,7.4-11.5,12.7-16
			c5.8-4.5,13.2-7.8,20.6-8.6c8.2-1.2,16.9,0.4,23.4,5.3c7,5.3,12.7,12.3,16.4,20.1c4.1,8.2,6.6,17.3,7.8,26.3
			c0.8,4.9,0.8,9.5,0.8,14.4c0,4.9-0.8,9.9-1.2,14.8c-1.2,9.9-2.1,19.7-3.7,30c-1.6,10.3-2.5,20.6-4.5,30.8
			c-2.1,10.3-4.1,21-5.8,31.7c-4.1,25.1-7.8,49.3-10.7,72.8c-1.2,11.5-2.5,23-3.7,34.1c-0.8,10.7-1.2,21.8-1.2,32.5
			c0,2.5,0.4,5.3,0.4,7.8c0,2.5,0.8,4.9,1.2,7.8c0.8,4.9,2.1,9.9,2.9,14.8c2.1,9,4.9,18.1,8.6,26.7c3.3,7.8,8.2,14.8,14.4,20.6
			c5.3,4.9,11.9,9,19.3,11.1l4.1,1.2h-4.1l-48.5-0.4H2202h-3.3L2197.5,580.6z"/>
		<path class="st4" d="M1668,202.8c0.4,0.4-2.1,3.3-4.5,9.5c-1.2,3.3-2.5,7-3.3,10.7c-0.8,4.5-0.8,9-0.8,13.6
			c0.4,4.5,1.2,9,2.9,13.6c1.2,3.7,2.9,7,4.5,10.3c3.3,5.3,6.2,8.2,6.2,8.6s-0.8-0.4-2.1-1.6c-2.1-1.6-3.7-3.7-4.9-6.2
			c-2.1-3.3-4.1-6.6-5.3-10.3c-3.3-9-4.1-18.9-2.1-28.4c0.8-3.7,2.1-7.4,3.7-11.1c1.2-2.5,2.5-4.5,4.1-6.6
			C1667.2,203.6,1667.6,202.8,1668,202.8z"/>
		<path class="st4" d="M1647.4,173.6c-4.1,4.1-7.8,8.6-10.7,13.2c-15.6,24.3-9.5,56.3,13.6,73.6c4.5,3.3,9.5,6.2,14.8,8.6
			c-1.6-0.4-2.9-0.8-4.5-1.2c-4.1-1.6-7.8-3.7-11.5-6.2c-24.7-16.9-31.2-50.6-14-75.2c0,0,0,0,0-0.4c2.5-3.7,4.9-7,8.2-9.5
			C1644.5,175.2,1646.2,174.4,1647.4,173.6z"/>
		<path class="st4" d="M2109.9,831h-2.5h-7.8l-30.4,0.4l-111.8,0.4l-368.4,0.4h-159.9v-0.8c0-105.2,0.4-195.7,0.4-260.2
			c0-32.1,0-57.6,0.4-75.2c0-8.6,0-15.6,0-20.1c0-2.1,0-3.7,0-4.9s0-1.6,0-1.6s0,0.4,0,1.6s0,2.9,0,4.9c0,4.5,0,11.5,0,20.1
			c0,17.7,0,43.2,0.4,75.2c0,64.1,0.4,155,0.4,260.2l-0.8-0.8h158.7L1957,831l111.8,0.4l30.4,0.4h7.8L2109.9,831z"/>
		<rect x="1485" y="741.4" class="st5" width="68.7" height="68.7"/>
		<rect x="1585.8" y="692.4" class="st5" width="68.7" height="117.6"/>
		<rect x="1686.9" y="636.5" class="st5" width="68.7" height="173.5"/>
		<rect x="1784.7" y="574.4" class="st5" width="68.7" height="235.6"/>
		<rect x="1885" y="495.1" class="st5" width="68.7" height="315.3"/>
		<rect x="1984.5" y="434.7" class="st5" width="68.7" height="372.5"/>
		<path class="st4" d="M1485,671.1c0.4-0.4,0.4-0.4,0.8-0.8l2.5-1.6l10.3-7l39.5-25.9l136.1-89.2l1.6-0.8v2.1c0,9.9,0,20.1,0,30.8
			l-1.6-0.8l53.9-36.2l189.5-126.6l57.6-38.2l15.6-10.3l4.1-2.5l1.6-0.8c-0.4,0.4-0.8,0.8-1.2,0.8l-4.1,2.9l-15.6,10.7l-57.1,39.1
			l-189.1,127l-53.9,36.2l-1.6,1.2v-32.9l1.6,0.8l-136.9,88.4l-39.5,25.5l-10.7,6.6l-2.9,1.6H1485z"/>
		<path class="st4" d="M1996.9,391.9c-0.4-2.9-0.8-5.8-0.8-8.6c0-5.3-0.4-12.7-0.4-20.6l1.2,1.2h-2.5c-8.6,0-16.9,0-22.6-0.4
			c-3.3,0-6.2,0-9.5-0.8c2.9-0.4,6.2-0.8,9.5-0.8c5.8,0,13.6-0.4,22.6-0.4h3.7v0.8c0,8.2,0,15.6-0.4,20.6
			C1997.7,386.1,1997.3,389,1996.9,391.9z"/>
		<path class="st4" d="M1633.9,886.5c0,0.4-21.4,1.2-47.3,1.2s-47.3-0.4-47.3-1.2c0-0.8,21.4-1.2,47.3-1.2
			S1633.9,885.7,1633.9,886.5z"/>
		<path class="st4" d="M1585.3,919c-1.2-7.4-1.2-14.8,0-22.2C1586.6,904.2,1586.6,911.6,1585.3,919z"/>
		<path class="st4" d="M1701.3,930.1c0,0.4-57.1,1.2-127.4,1.2c-70.3,0-127.4-0.4-127.4-1.2c0-0.8,57.1-1.2,127.4-1.2
			C1644.1,928.8,1701.3,929.6,1701.3,930.1z"/>
		<path class="st4" d="M1448.4,961.7c-1.2-10.3-1.2-20.6,0-30.8C1450.1,941.2,1450.1,951.4,1448.4,961.7z"/>
		<path class="st4" d="M1539.3,958.4c-1.2-8.6-1.2-17.7,0-26.3C1540.5,940.3,1540.5,949.4,1539.3,958.4z"/>
		<path class="st4" d="M1632.2,960.1c-1.2-9.5-1.2-19.3,0-29.2C1633.4,940.3,1633.4,950.2,1632.2,960.1z"/>
		<path class="st4" d="M1702.9,960.1c-1.2-9.9-1.2-20.1,0-30C1704.6,939.9,1704.6,949.8,1702.9,960.1z"/>
		<path class="st4" d="M1480.1,970.3c-10.3,1.2-20.6,1.2-30.8,1.2c-10.3,0.4-20.6,0-30.8-1.2c10.3-1.2,20.6-1.6,30.8-1.2
			C1459.5,968.7,1469.8,969.1,1480.1,970.3z"/>
		<path class="st4" d="M1558.6,970.3c-15.6,1.2-31.2,1.2-46.9,0C1527.4,968.7,1543,968.7,1558.6,970.3z"/>
		<path class="st4" d="M1658.5,972.8c-16.9,1.2-33.7,1.2-50.6,0C1625.2,971.2,1642.1,971.2,1658.5,972.8z"/>
		<path class="st4" d="M1739.9,968.3c-18.1,1.2-35.8,1.2-53.9,0C1703.7,967.1,1721.8,967.1,1739.9,968.3z"/>
		<path class="st4" d="M1449.3,999.9c-1.2-5.8-1.2-11.9,0-18.1C1450.9,988,1450.9,994.2,1449.3,999.9z"/>
		<path class="st4" d="M1508.1,999.9c0,0.4-24.7,1.2-55.5,1.2s-55.5-0.4-55.5-1.2s24.7-1.2,55.5-1.2S1508.1,999.5,1508.1,999.9z"/>
		<path class="st4" d="M1508.1,1025.8c-1.2-8.6-1.2-17.3,0-25.5C1509.3,1008.6,1509.3,1017.2,1508.1,1025.8z"/>
		<path class="st4" d="M1396.6,1027.5c-1.2-9-1.2-18.1,0-27.1C1398.3,1009,1398.3,1018.4,1396.6,1027.5z"/>
		<path class="st4" d="M1634.3,999.9c-1.2-5.8-1.2-11.9,0-18.1C1635.9,988,1635.9,994.2,1634.3,999.9z"/>
		<path class="st4" d="M1769.5,999.9c0,0.4-41.9,1.2-93.7,1.2s-93.7-0.4-93.7-1.2s41.9-1.2,93.7-1.2S1769.5,999.5,1769.5,999.9z"/>
		<path class="st4" d="M1693.1,1025.8c-1.2-8.6-1.2-17.3,0-25.5C1694.3,1008.6,1694.3,1017.2,1693.1,1025.8z"/>
		<path class="st4" d="M1773.2,1025.8c-1.2-8.6-1.2-17.3,0-25.5C1774.9,1008.6,1774.9,1017.2,1773.2,1025.8z"/>
		<path class="st4" d="M1582.1,1027.5c-1.2-9-1.2-18.1,0-27.1C1583.3,1009,1583.3,1018.4,1582.1,1027.5z"/>
		<path class="st4" d="M1418.8,1043.1c-14.4,1.2-29.2,1.2-43.6,0C1389.7,1041.9,1404,1041.9,1418.8,1043.1z"/>
		<path class="st4" d="M1527.4,1040.2c-15.6,1.2-31.7,1.2-47.3,0C1495.7,1038.6,1511.8,1038.6,1527.4,1040.2z"/>
		<path class="st4" d="M1605.9,1040.2c-14,1.2-28,1.2-41.5,0C1578.4,1038.6,1592.3,1038.6,1605.9,1040.2z"/>
		<path class="st4" d="M1712,1040.2c-15.2,1.2-30,1.2-45.2,0C1682,1038.6,1696.8,1038.6,1712,1040.2z"/>
		<path class="st4" d="M1796.7,1037.4c-15.2,1.2-30.4,1.2-46,0C1766.2,1035.7,1781.4,1035.7,1796.7,1037.4z"/>
		<path class="st4" d="M2109.1,1053.8h-289.8V874.1h289.8V1053.8z M1819.3,1053.8h289.8V874.6h-289.8V1053.8z"/>
		<path class="st6" d="M2039.2,1004.1c-20.1-7.8-43.2,13.6-62.9,4.9c-11.5-4.9-16.4-18.1-22.2-29.2s-15.2-23-27.5-21.8
			c-12.3,1.2-22.6,16-34.9,12.3c-7.8-2.1-11.5-10.7-13.2-18.5c-1.6-7.8-3.3-16-9-21.8c-5.8-5.8-18.1-4.1-18.9,4.1v95H2077
			C2076.6,1029.5,2046.2,1006.5,2039.2,1004.1z"/>
		<path class="st1" d="M2082.8,1029.5c0,0-55.1,0.4-122.5,0.4c-67.4,0-122.5,0-122.5-0.4s55.1-0.4,122.5-0.4
			C2027.7,1029.1,2082.8,1029.1,2082.8,1029.5z"/>
		<path class="st4" d="M2082.8,988c0,0-55.1,0.4-122.5,0.4c-67.4,0-122.5,0-122.5-0.4s55.1-0.4,122.5-0.4
			C2027.7,987.6,2082.8,987.6,2082.8,988z"/>
		<path class="st4" d="M2082.8,946.5c0,0-55.1,0.4-122.5,0.4c-67.4,0-122.5,0-122.5-0.4s55.1-0.4,122.5-0.4
			C2027.7,946.1,2082.8,946.1,2082.8,946.5z"/>
		<path class="st4" d="M2082.8,907c0,0-55.1,0.4-122.5,0.4c-67.4,0-122.5,0-122.5-0.4c0-0.4,55.1-0.4,122.5-0.4
			C2027.7,906.6,2082.8,906.6,2082.8,907z"/>
		<path class="st4" d="M1429.9,331.1c0,0,0,0,0.4,0h1.2c1.6,0,2.9,0,4.5,0.4c2.5,0.4,4.5,1.2,7,2.5c2.9,1.6,5.3,3.7,7.4,6.2
			c2.5,3.3,4.1,7,4.9,10.7c0.8,4.5,0,9-1.6,13.2c-0.8,2.5-2.1,4.5-3.3,6.6c-1.2,2.1-2.5,4.5-3.7,6.6c-2.5,4.9-4.1,9.9-4.9,15.2v0.4
			h-0.4l-10.7-0.4l-11.1-0.4h-1.2v-0.4c-0.4-5.3-2.1-10.7-4.5-15.2c-1.2-2.5-2.5-4.5-3.7-6.6c-1.2-2.1-2.5-4.1-3.7-6.6
			c-1.6-4.1-2.5-9-1.2-13.2c0.8-3.7,2.5-7.4,4.5-10.7c2.1-2.5,4.5-4.5,7.4-6.2c2.1-1.2,4.5-2.1,6.6-2.5c1.6-0.4,2.9-0.4,4.5-0.4h1.2
			C1429.9,331.1,1429.9,331.1,1429.9,331.1h-0.4h-1.2c-1.6,0-2.9,0.4-4.5,0.8c-2.5,0.4-4.5,1.2-6.6,2.5c-2.9,1.6-5.3,3.7-7,6.2
			c-2.1,3.3-3.7,6.6-4.5,10.7c-1.2,4.1-0.4,8.6,1.2,12.7c1.2,2.1,2.1,4.1,3.7,6.2c1.2,2.1,2.5,4.5,3.7,6.6c2.9,4.5,4.5,9.9,4.5,15.6
			l-0.4-0.4l11.1,0.4l10.7,0.4l-0.4,0.4c0.8-5.3,2.9-10.7,4.9-15.6c1.2-2.5,2.5-4.5,3.7-6.6c1.2-2.1,2.5-4.1,3.3-6.6
			c1.6-4.1,2.5-8.6,1.6-13.2c-0.8-3.7-2.5-7.4-4.5-10.3c-2.1-2.5-4.1-4.9-7-6.2c-2.1-1.2-4.5-2.1-6.6-2.5c-1.6-0.4-2.9-0.4-4.5-0.4
			L1429.9,331.1L1429.9,331.1z"/>
		<path class="st4" d="M1432.8,391.5C1433.2,391.5,1433.2,391.1,1432.8,391.5v-1.2c0-0.8-0.4-2.1-0.4-4.1c-0.4-3.3-0.8-8.2-1.2-14.4
			c0-1.6,0-3.3,0-4.9s0-3.3,0-5.3c0-2.1,0.4-3.7,1.6-5.3c0.8-1.6,2.5-3.3,4.1-4.1c2.1-0.8,4.5,0,5.8,1.2c0.8,0.8,1.2,2.1,1.2,2.9
			c0,1.2-0.4,2.1-1.2,3.3c-0.8,0.8-1.6,1.6-2.9,2.1c-1.2,0.4-2.1,0.8-3.3,0.8c-4.5,0.8-9,0.8-14,0c-1.2,0-2.1-0.4-3.3-1.2
			c-0.8-0.4-2.1-1.2-2.5-2.1c-0.8-0.8-1.2-2.1-1.6-2.9c0-1.2,0-2.1,0.4-3.3c0.4-0.8,1.2-1.6,2.5-2.1c0.8-0.4,2.1-0.4,3.3,0.4
			c0.8,0.4,1.6,1.2,2.1,2.1c0.4,0.8,0.8,1.6,0.8,2.9c0.4,1.6,0.4,3.7,0.4,5.3c0,3.7,0,7,0,9.9c0,6.2,0,11.1,0,14.4v5.3v-0.4v-0.8
			c0-0.8,0-2.5,0-4.1c0-3.3,0-8.2-0.4-14.4c0-2.9,0-6.6,0-9.9c0-1.6,0-3.7-0.4-5.3c0-0.8-0.4-1.6-0.8-2.5c-0.4-0.8-1.2-1.6-2.1-2.1
			c-0.8-0.4-2.1-0.4-2.9-0.4c-0.8,0.4-1.6,1.2-2.1,2.1c-0.4,0.8-0.8,2.1-0.4,2.9c0.4,1.2,0.8,2.1,1.2,2.9c1.6,1.6,3.7,2.9,5.8,2.9
			c2.1,0.4,4.5,0.8,7,0.8c2.5,0,4.5,0,7-0.4c1.2,0,2.1-0.4,3.3-0.8c0.8-0.4,2.1-1.2,2.5-2.1c0.8-0.8,1.2-1.6,1.2-2.9
			c0-1.2-0.4-2.1-1.2-2.9c-1.2-1.6-3.7-2.1-5.3-1.2c-1.6,0.8-3.3,2.1-4.1,3.7c-0.8,1.6-1.2,3.3-1.6,5.3c0,1.6,0,3.3,0,5.3
			s0,3.3,0,4.9c0,6.2,0.8,11.1,0.8,14.4c0,1.6,0.4,2.9,0.4,4.1v0.8L1432.8,391.5z"/>
		<path class="st4" d="M1418.8,391.5c0,0,0,1.2,0,3.7s0,5.8,0,9.5l0,0l7,8.6h-0.4h8.6h-0.4l4.5-4.9l2.1-2.5v0.4c0-4.9,0-9.5,0.4-14
			l0.4,0.4l-16-0.4h-4.5h-1.6c0.4,0,0.8,0,1.6,0h4.5h16.4v0.4c0,4.1,0,9,0,14l0,0l0,0l-2.1,2.5l-4.5,4.9l0,0l0,0h-8.6l0,0l0,0
			l-7.4-9l0,0l0,0c0-3.7,0-7,0.4-9.5C1418.4,394,1418.4,392.7,1418.8,391.5z"/>
		<path class="st4" d="M1440.2,404.6l-0.8-0.4c-0.8-0.4-1.2-0.8-2.1-0.8c-2.5-0.8-4.9-1.6-7.8-1.6c-2.5,0-5.3,0.4-7.8,1.2
			c-0.8,0.4-1.6,0.4-2.1,0.8l-0.8,0.4c0.4,0,0.4-0.4,0.8-0.4l2.1-0.8c2.5-0.8,4.9-1.2,7.8-1.2c2.5,0,5.3,0.4,7.8,1.6
			c0.8,0.4,1.6,0.8,2.1,1.2C1439.4,404.2,1439.8,404.6,1440.2,404.6z"/>
		<path class="st4" d="M1440.2,401.4l-0.8-0.4l-2.1-0.8c-2.5-0.8-4.9-1.2-7.8-1.6c-2.5,0-5.3,0.4-7.8,1.2c-0.8,0.4-1.6,0.4-2.1,0.8
			l-0.8,0.4l0.8-0.4c0.8-0.4,1.2-0.8,2.1-0.8c2.5-0.8,4.9-1.6,7.8-1.2c2.5,0,5.3,0.4,7.8,1.6c0.8,0.4,1.6,0.8,2.1,1.2
			C1439.8,400.9,1439.8,401.4,1440.2,401.4z"/>
		<path class="st4" d="M1440.2,398.1c-0.4,0-0.4-0.4-0.8-0.4c-0.8-0.4-1.2-0.8-2.1-0.8c-4.9-2.1-10.3-2.1-15.2,0
			c-0.8,0.4-1.6,0.8-2.1,0.8l-0.8,0.4l0.8-0.4c0.4-0.4,1.2-0.8,2.1-0.8c2.5-0.8,4.9-1.6,7.8-1.2c2.5,0,5.3,0.4,7.8,1.6
			c0.8,0.4,1.6,0.8,2.1,1.2L1440.2,398.1z"/>
		<path class="st0" d="M1518.7,486.5c0,0-8.2,75.6,2.5,117.6l101.1-4.5c0,0-21.8-74.8-8.2-107.7L1518.7,486.5z"/>
		<path class="st6" d="M1519.2,484.4c0,0,0.8,81.8,4.9,106.9l102.8-4.9c0,0-9-80.6-5.8-102H1519.2z"/>
		<path class="st7" d="M1605.5,518.5c0,0.4-15.2,1.6-34.5,2.9c-19.3,1.2-34.5,1.6-34.5,1.2s15.2-1.6,34.5-2.9
			C1590.3,518.5,1605.5,518.1,1605.5,518.5z"/>
		<path class="st7" d="M1605.5,535.8c0,0.4-15.2,1.6-34.5,2.9c-19.3,1.2-34.5,1.6-34.5,1.2s15.2-1.6,34.5-2.9
			C1590.3,535.8,1605.5,535.4,1605.5,535.8z"/>
		<path class="st7" d="M1588.2,553.1c-2.1,0.4-3.7,0.8-5.8,0.8c-3.7,0.4-8.2,0.8-14,0.8s-10.3,0.4-14,0.4c-2.1,0.4-3.7,0.4-5.8,0
			c2.1-0.4,3.7-0.8,5.8-0.8c3.7-0.4,8.6-0.8,14-0.8s10.3-0.4,14-0.8C1584.1,552.7,1586.2,552.7,1588.2,553.1z"/>
		<path class="st4" d="M1753.1,351.2c0,0.8-60,1.2-134,1.2c-74,0-134-0.4-134-1.2c0-0.8,60-1.2,134-1.2
			C1693.1,350,1753.1,350.8,1753.1,351.2z"/>
		<path class="st4" d="M1583.3,375.9c0,0.8-22.6,1.2-50.2,1.2c-27.5,0-50.2-0.4-50.2-1.2s22.6-1.2,50.2-1.2
			C1560.7,374.6,1583.3,375,1583.3,375.9z"/>
		<path class="st4" d="M1636.7,375.9c-12.7,1.2-25.9,1.2-38.6,0C1610.8,374.2,1624,374.2,1636.7,375.9z"/>
		<path class="st4" d="M2197.5,633.6c0-0.4,0-0.8,0-0.8c0-0.8,0-1.6-0.4-2.9c0-2.5-0.4-6.2-0.8-10.7c-0.4-9.5-1.6-22.6-2.5-39.1
			c-2.1-33.3-4.9-78.5-8.2-128.7s-5.3-95.4-7.4-128.7c-0.8-16.4-1.6-29.6-2.1-39.1c0-4.5-0.4-7.8-0.4-10.7c0-1.2,0-2.1,0-2.9
			c0-0.4,0-0.8,0-0.8c0,0.4,0,0.8,0,0.8l0.4,2.9c0,2.5,0.4,6.2,0.8,10.7c0.8,9.5,1.6,22.6,2.5,39.1c2.1,32.9,4.9,78.5,7.8,128.7
			c2.9,50.2,5.3,95.4,7.4,128.7c0.8,16.4,1.6,29.6,2.1,39.1c0,4.5,0.4,7.8,0.4,10.7c0,1.2,0,2.1,0,2.9
			C2197.9,632.8,2197.9,633.2,2197.5,633.6z"/>
		<path class="st4" d="M2176.1,176.9h-2.5h-7h-26.7h-98.7h-326.4l-337.5-1.2l0,0c-16.9,4.1-31.7,13.6-42.8,26.7
			c-8.2,9.9-14,21.8-16.9,34.5c-1.6,7.8-2.1,16-1.6,24.3c0.4,2.9,0.4,4.9,0.8,6.2c0,0.8,0.4,1.2,0.4,2.1c-0.8-2.9-1.2-5.3-1.6-8.2
			c-0.8-8.2-0.4-16.4,1.2-24.3c2.5-12.7,8.2-24.7,16.4-34.9c11.1-13.6,26.3-23,43.6-27.5l0,0l337.9,0.4l326.4,0.8l99.1,0.4l26.7,0.4
			h7L2176.1,176.9z"/>
	</g>
	<g id="freepik--Plant--inject-297">
		<path class="st6" d="M2836.4,1466.2c56.3-56.3,137.7-78.5,214.6-58.8c-64.1,43.6-139.8,67.4-217.1,67.8"/>
		<path class="st6" d="M2909.1,1208.4c-9-63.3,15.6-134.4,62.9-180.5C2973.7,1090.4,2947.4,1161.1,2909.1,1208.4"/>
		<path class="st6" d="M2871.3,1328c34.1-65,88.8-117.2,155-148.4c-21,74-80.6,131.1-155.8,148.8"/>
		<path class="st6" d="M2863.5,1351c38.2,1.2,76.9-0.4,113.9-9.9c37-9.5,72.4-28.8,97-58c-74.8,0.4-148,22.6-210.1,64.1"/>
		<path class="st6" d="M2882.8,1275c-19.3-72.8-51.4-122.9-108.5-163.6C2765.3,1185,2811.3,1254.4,2882.8,1275"/>
		<path class="st6" d="M2738.5,1400.4c-0.4-43.6,25.5-82.6,65.4-99.5C2800.6,1338.3,2771,1381.5,2738.5,1400.4"/>
		<path class="st6" d="M2720.4,1339.1c-5.3-62.1-46.5-115.5-105.2-136.9C2628.3,1263.1,2663.3,1313.6,2720.4,1339.1"/>
		<path class="st6" d="M2747.6,1447.7c-13.6-19.3-35.4-31.2-58.4-37.4c-23-6.2-46.5-6.6-69.9-7c32.5,34.9,78.5,54.3,126.2,52.6"/>
		<path class="st6" d="M2775.1,1602.6c-88.8-27.5-184.2,17.7-219.1,103.6C2635.7,1691.4,2714.3,1656.1,2775.1,1602.6"/>
		<path class="st6" d="M2862.3,1548.8c-13.2,39.1-10.7,86.3,18.5,120C2893.1,1628.1,2886.1,1584.1,2862.3,1548.8"/>
		<path class="st6" d="M2914.1,1527c4.5,51.4,35.4,96.2,81.4,119.2c2.1,1.2,4.9,1.6,7.4,1.2c3.7-1.6,4.1-6.2,3.3-10.3
			C3000,1587.4,2963,1538.9,2914.1,1527"/>
		<path class="st6" d="M2947.8,1522.1c45.2,48.9,121.7,51.8,170.2,6.6c2.1-1.6,4.1-3.7,5.8-5.8
			C3067.8,1516.7,3003.3,1512.6,2947.8,1522.1"/>
		<path class="st4" d="M2956,1074.4c0,0.4-0.4,1.2-0.4,1.6l-1.6,4.9c-1.6,4.1-3.7,10.3-6.6,18.1c-2.9,7.8-6.6,17.7-10.7,28.8
			c-2.1,5.8-4.1,11.5-6.6,18.1c-2.5,6.6-4.5,13.2-7,20.1c-9.9,28.4-21,62.5-32.9,100.3c-11.9,37.8-23.8,79.8-36.2,124.2
			s-22.6,86.7-31.7,125.4c-9,38.6-16.4,73.6-21.8,103.2c-1.2,7.4-2.9,14.4-4.1,21c-1.2,6.6-2.1,13.2-3.3,18.9
			c-2.1,11.9-3.7,21.8-4.9,30c-1.2,8.2-2.1,14.8-2.9,18.9c-0.4,2.1-0.8,3.7-0.8,4.9c0,0.4,0,1.2-0.4,1.6c0-0.4,0-1.2,0-1.6l0.8-4.9
			c0.8-4.5,1.2-11.1,2.5-19.3c1.2-8.2,2.9-18.5,4.5-30.4c0.8-5.8,2.1-12.3,2.9-18.9c0.8-6.6,2.5-13.6,3.7-21
			c5.3-29.6,12.7-64.5,21.4-103.6c8.6-39.1,19.3-81,31.2-125.4c11.9-44.4,24.3-86.3,36.2-124.2c11.9-37.8,23-71.9,33.3-100.3l7-20.1
			l7-18.1c4.1-11.1,7.8-21,11.1-28.8c3.3-7.8,5.3-14,7-18.1c0.8-2.1,1.2-3.7,2.1-4.5C2955.6,1075.6,2955.6,1074.8,2956,1074.4z"/>
		<path class="st4" d="M2648.5,1234.7c0.4,0.4,0.8,0.4,0.8,0.8l2.9,2.9c2.5,2.5,5.8,6.2,9.9,11.1c11.9,14,23,28.4,32.9,44
			c14.8,23,26.3,47.7,34.5,73.6c9,29.2,14.8,62.9,20.6,97.4c11.5,69.9,25.5,132.4,35.4,177.6c4.9,22.6,9,40.7,12.3,53.4
			c1.2,6.2,2.5,11.1,3.3,14.4l0.8,3.7c0,0.4,0,0.8,0,1.2c0-0.4-0.4-0.8-0.4-1.2l-0.8-3.7c-0.8-3.3-2.1-8.2-3.7-14.4
			c-2.9-12.7-7.4-30.8-12.7-53.4c-10.3-45.2-24.7-107.7-36.2-177.6c-5.8-34.9-11.5-68.2-20.6-97.4c-7.8-25.9-19.3-50.6-33.7-73.6
			c-9.9-15.6-20.6-30.4-32.5-44.4c-4.1-4.9-7.4-8.6-9.5-11.5l-2.5-2.9C2648.9,1235.1,2648.5,1234.7,2648.5,1234.7z"/>
		<path class="st4" d="M2964.6,1519.6c-0.8,0.4-1.2,0.4-2.1,0.4l-5.8,0.8l-4.1,0.4l-4.9,0.8c-3.7,0.4-7.8,1.2-11.9,2.1l-7,1.2
			l-7.4,2.1c-5.3,1.2-10.7,3.3-16.4,4.9c-12.3,4.1-24.3,9.5-35.4,15.6c-11.1,6.2-21.8,13.6-31.7,22.2c-4.1,3.7-8.6,7.4-12.3,11.5
			c-3.3,3.7-6.6,7.4-9.5,11.1c-2.5,3.3-4.9,6.6-7,9.9c-1.6,2.5-3.3,4.9-4.9,7.8l-2.9,4.9c-0.8,1.2-1.2,1.6-1.2,1.6
			c0-0.8,0.4-1.2,0.8-2.1c0.8-1.2,1.6-3.3,2.5-5.3c1.2-2.9,2.9-5.3,4.5-8.2c2.1-3.7,4.5-7,7-10.3c2.9-4.1,6.2-7.8,9.5-11.5
			c3.7-4.1,7.8-8.2,12.3-11.9c9.9-8.6,20.6-16,32.1-22.6c11.5-6.2,23.4-11.5,35.8-15.6c5.8-1.6,11.1-3.7,16.4-4.5l7.4-1.6l7-1.2
			c4.5-0.8,8.6-1.2,12.3-1.6l4.9-0.4h4.1l5.8-0.4C2963.4,1520,2963.8,1519.6,2964.6,1519.6z"/>
		<path class="st4" d="M2980.7,1235.9c-1.2,1.2-2.5,2.9-4.1,3.7l-11.5,9.9c-9.9,8.2-23.4,19.7-38.6,32.5
			c-15.2,12.7-28.8,23.8-39.1,32.1l-11.9,9.5c-1.2,1.2-2.9,2.5-4.5,3.3c1.2-1.6,2.5-2.9,4.1-4.1l11.5-9.9
			c9.9-8.2,23.4-19.7,38.6-32.5c15.2-12.7,28.8-23.8,39.1-32.1l11.9-9.5C2977.4,1238,2979,1236.8,2980.7,1235.9z"/>
		<path class="st4" d="M2994.2,1309.9c0,0.4-29.2,9.9-65.8,20.6s-66.2,18.9-66.2,18.5s29.2-9.9,65.8-20.6
			S2994.2,1309.5,2994.2,1309.9z"/>
		<path class="st4" d="M2885.7,1280.7c-1.2-1.2-2.1-2.5-2.9-4.1l-7.8-11.9c-6.6-9.9-16-23.4-27.1-37.8
			c-11.1-14.4-21.8-27.1-29.6-36.2l-9.5-10.7c-1.2-1.2-2.5-2.5-3.3-4.1c1.2,1.2,2.9,2.1,3.7,3.7c2.5,2.5,5.8,5.8,9.9,10.3
			c8.2,8.6,18.9,21.4,30,35.8c11.1,14.4,20.1,28.4,26.7,38.6c3.3,4.9,5.8,9.5,7.4,12.3C2884.5,1277.5,2884.9,1279.1,2885.7,1280.7z"
			/>
		<path class="st4" d="M2783.8,1321.9c-2.1,4.1-4.5,7.8-7,11.5c-4.5,7-10.3,16.4-16.4,27.1s-11.5,21-15.2,28.4
			c-1.6,4.1-3.7,7.8-6.2,11.9c1.2-4.1,2.9-8.2,4.9-12.3c3.3-7.4,8.2-17.7,14.4-28.8s12.3-20.6,17.3-27.1
			C2778,1328.4,2780.5,1324.7,2783.8,1321.9z"/>
		<path class="st4" d="M2748.8,1449.7c0,0.4-5.8-2.5-14.8-6.6c-9-4.1-21.8-9.5-36.6-14.8c-14.8-5.3-28-8.6-37.8-11.5
			s-16-3.7-15.6-4.1c1.6,0,2.9,0,4.5,0.4c2.9,0.4,7,1.2,11.9,2.1c12.7,2.9,25.5,6.6,37.8,10.7c12.3,4.5,24.7,9.5,36.6,15.2
			c4.5,2.1,8.2,4.1,10.7,5.8C2746.3,1448.1,2747.6,1448.9,2748.8,1449.7z"/>
		<path class="st4" d="M2775.9,1603.1c-0.4,0.4-1.2,0.4-1.6,0.4l-5.3,1.2l-19.7,4.5c-21.4,4.5-42.8,10.3-63.7,16.9
			c-21,7-40.7,16.4-59.6,28c-7,4.5-12.7,8.6-16.4,11.5c-2.1,1.6-3.7,2.9-5.8,4.1c0.4-0.4,0.8-0.8,1.2-1.2c0.8-0.8,2.1-2.1,4.1-3.7
			c4.9-4.5,10.7-8.2,16-11.9c18.5-11.9,38.6-21.8,59.6-28.8c21-7,42.3-12.3,64.1-16.4l19.7-3.7
			C2771.4,1603.5,2773.9,1603.1,2775.9,1603.1z"/>
		<path class="st4" d="M2875.4,1640.9c-0.8,0-4.1-20.6-7.8-46s-6.2-46.5-5.8-46.5c0.4,0,4.1,20.6,7.8,46
			S2876.3,1640.9,2875.4,1640.9z"/>
		<path class="st4" d="M2979,1603.1c-3.3-3.7-6.6-7.4-9.5-11.1c-5.8-7-13.2-16.4-22.2-27.1s-16.9-19.7-22.6-26.3
			c-3.3-3.3-6.6-7-9.5-11.1c1.2,0.8,2.1,1.6,2.9,2.5c1.6,1.6,4.5,4.1,7.4,7.4c6.2,6.6,14.4,15.6,23.4,25.9s16.4,20.1,21.8,27.5
			c2.9,3.7,4.9,6.6,6.2,8.6C2977.8,1601,2978.6,1601.8,2979,1603.1z"/>
		<polygon class="st8" points="2705.2,1699.3 2705.2,1750.2 2718,1750.2 2763.6,1893.7 2864.3,1893.7 2908.3,1751.9 2925.2,1750.2 
			2925.2,1699.3 		"/>
		<path class="st4" d="M2917,1751.9c0,0.4-44.4,1.2-99.5,1.2s-99.5-0.4-99.5-1.2s44.4-1.2,99.5-1.2S2917,1751.1,2917,1751.9z"/>
		<path class="st4" d="M2989.3,1422.6c-2.1,0.8-4.1,1.2-6.6,1.6l-17.7,4.1c-14.8,3.7-35.4,9.5-57.6,16.9
			c-22.2,7.4-41.9,15.2-55.9,21.4l-16.9,7.4c-2.1,1.2-4.1,2.1-6.2,2.9c1.6-1.2,3.7-2.5,5.8-3.3c3.7-2.1,9.5-4.5,16.4-7.8
			c36.6-16.4,74.8-29.6,113.9-38.2c7.4-1.6,13.6-2.9,17.7-3.7C2984.8,1423,2987.3,1423,2989.3,1422.6z"/>
		<path class="st3" d="M2883.2,1831.6c0,0.4-31.2,1.2-69.9,1.2c-38.6,0-69.9-0.4-69.9-1.2s31.2-1.2,69.9-1.2
			C2852,1830.4,2883.2,1830.8,2883.2,1831.6z"/>
		<path class="st3" d="M2887.4,1819.7c0,0.4-33.3,1.2-74,1.2c-40.7,0-74-0.4-74-1.2s33.3-1.2,74-1.2
			C2854.1,1818.5,2887.4,1818.9,2887.4,1819.7z"/>
	</g>
	<path class="st9" d="M2270.7,1763.4l-6.6,84.3c0,0-83.5,26.7-83.9,42.3l163.2,2.1l4.9-129.1L2270.7,1763.4z"/>
	<path class="st0" d="M2314.3,1839c3.3,0.8,5.3,4.1,4.9,7.4c-0.8,3.3-4.1,5.3-7.4,4.9c-3.7-0.8-5.8-4.5-5.3-7.8
		c1.2-3.3,4.9-5.3,8.2-4.1"/>
	<path class="st0" d="M2343,1892.5l-0.4-13.2l-154.6,0.8c0,0-8.6,5.3-8.6,10.3L2343,1892.5z"/>
	<path class="st4" d="M2261.2,1846.9c0,0.8,4.1,0.8,8.2,3.7c4.1,2.9,6.2,5.8,7,5.3c0.8-0.4-0.4-4.9-5.3-7.8
		C2266.2,1845.2,2261.2,1846.4,2261.2,1846.9z"/>
	<path class="st4" d="M2244.4,1854.7c0,0.8,3.3,2.1,6.2,5.3c2.9,3.3,3.7,7,4.5,6.6c0.8-0.4,1.2-4.5-2.5-8.6
		C2248.9,1853.8,2244.4,1853.8,2244.4,1854.7z"/>
	<path class="st4" d="M2235.3,1875.2c0.8,0,1.6-3.7-0.4-8.2c-2.1-4.5-6.2-5.8-6.2-5.3c0,0.4,2.1,2.9,3.7,6.6
		C2234.1,1871.9,2234.5,1875.2,2235.3,1875.2z"/>
	<path class="st4" d="M2262,1827.9c0.4,0.8,4.1-0.4,8.6-0.4c4.5,0,8.2,1.6,8.6,0.8s-3.3-3.3-8.2-3.7
		C2266.2,1824.2,2261.6,1827.1,2262,1827.9z"/>
	<path class="st4" d="M2261.2,1810.7c2.9,0.8,5.8,0.4,8.2-0.4c2.9-0.4,5.8-1.6,8.6-2.9c1.6-0.8,3.3-1.6,4.5-2.5
		c0.8-0.4,1.6-1.2,2.5-2.1c0.8-1.2,0.8-2.9,0-4.1s-2.1-1.6-3.7-1.6c-1.2,0-2.1,0.4-2.9,0.4c-1.6,0.4-3.3,1.2-4.9,2.1
		c-2.9,1.2-5.3,2.9-7.4,5.3c-3.7,3.7-4.9,6.6-4.5,6.6s2.1-2.5,5.8-5.3c2.1-1.6,4.5-3.3,7.4-4.1c1.6-0.8,2.9-1.2,4.5-1.6
		c1.6-0.4,3.3-0.4,3.7,0s0,0.4,0,0.8c-0.4,0.4-1.2,1.2-1.6,1.6c-1.2,0.8-2.9,1.6-4.1,2.5c-2.5,1.2-4.9,2.5-7.8,3.3
		C2266.6,1809,2263.7,1809.8,2261.2,1810.7z"/>
	<path class="st4" d="M2262.5,1811.9c1.6-2.5,2.1-5.3,2.1-7.8c0-2.9-0.4-6.2-1.2-9c-0.4-1.6-1.2-3.3-2.1-4.9
		c-0.8-2.1-2.9-3.7-5.3-4.1c-1.6,0-2.9,0.8-3.3,2.5c-0.4,0.8-0.8,2.1-0.8,2.9c-0.4,1.6-0.4,3.7,0,5.3c0.4,2.9,1.6,5.8,3.7,8.2
		c3.3,4.1,6.6,4.9,6.6,4.5s-2.5-2.1-4.9-5.8c-1.6-2.5-2.5-4.9-2.9-7.8c-0.4-1.6-0.4-3.3,0-4.5c0-1.6,0.8-3.3,1.6-2.9
		s2.1,1.2,2.9,2.5c0.8,1.2,1.6,2.9,2.1,4.5c0.8,2.5,1.6,5.3,2.1,8.2C2262.9,1808.6,2262,1811.9,2262.5,1811.9z"/>
	<path class="st9" d="M2623.4,1749.4l18.9,98.7l37.4,73.6c2.5,4.9,0.4,11.1-4.5,14c0,0-0.4,0-0.8,0.4l0,0c-2.9,1.2-6.6,1.2-9.5-0.8
		c-18.1-11.1-84.3-52.6-85.1-59.6c-1.2-8.2-26.7-102.8-26.7-102.8L2623.4,1749.4z"/>
	<path class="st0" d="M2674.4,1935.7l-96.2-67l0.8,4.1c0.8,3.7,2.9,7,5.8,9c7.8,6.2,29.6,22.2,79.8,53.4
		C2667.8,1936.9,2671.5,1936.9,2674.4,1935.7L2674.4,1935.7z"/>
	<path class="st0" d="M2591.8,1839.9c2.9,1.2,4.5,4.5,3.3,7.4s-4.5,4.5-7.4,3.3c-3.3-1.2-4.5-4.9-3.7-8.2
		C2585.6,1839.5,2589.3,1838.2,2591.8,1839.9"/>
	<path class="st4" d="M2642.7,1897.8c1.6-3.7,4.1-7,7-9.5c3.3-2.1,7-3.7,10.7-4.5c0-0.4-1.2-0.8-3.7-0.4c-3.3,0.4-6.2,1.6-8.6,3.3
		c-2.5,2.1-4.1,4.5-5.3,7.4C2642.3,1896.2,2642.7,1897.4,2642.7,1897.8z"/>
	<path class="st4" d="M2652.6,1909.3c0.4,0.4,2.9-3.7,7.8-6.2c2.9-1.2,6.2-2.5,9.5-3.3c-3.3-1.2-7.4-0.8-10.3,1.2
		C2653.8,1904,2652.2,1908.9,2652.6,1909.3z"/>
	<path class="st4" d="M2626.3,1883.4c3.7-3.7,7.4-7,11.5-10.3c4.5-2.5,9-4.5,14-6.6C2640.3,1867,2630.4,1873.6,2626.3,1883.4z"/>
	<path class="st4" d="M2618.1,1854.3c0.4,0.4,5.3-2.9,12.3-4.5c7-1.6,13.2-1.2,13.2-2.1C2634.1,1844.8,2624.6,1847.3,2618.1,1854.3
		L2618.1,1854.3z"/>
	<path class="st4" d="M2611.5,1825.5c4.1-2.5,8.2-4.1,12.7-5.3c4.5-0.4,9-0.4,13.6,0.4c0,0-1.2-1.2-3.7-2.1c-7-2.1-14-0.8-19.7,3.7
		C2612.3,1823.8,2611.5,1825.1,2611.5,1825.5z"/>
	<path class="st4" d="M2623,1814.8c0,0,0-1.2-0.8-3.7c-1.2-3.3-2.9-6.6-4.9-9c-1.6-2.1-3.7-3.7-6.2-4.5c-1.6-0.4-3.3,0.4-4.5,2.1
		c-0.8,1.6-0.8,3.3-0.8,4.9c2.1,6.6,8.2,11.1,15.2,10.3c7-0.8,12.3-5.8,14.4-12.3c0.4-1.6,0.4-3.3-0.4-4.9c-1.2-1.2-2.9-1.6-4.5-1.2
		c-2.5,1.2-4.1,2.9-5.8,4.5c-2.1,2.9-4.1,5.8-4.9,9c-0.4,1.2-0.8,2.5-0.8,3.7c1.6-4.1,4.1-8.2,7-11.9c1.2-1.6,2.9-3.3,4.9-4.1
		c0.8-0.4,2.1,0,2.5,0.8c0.4,0.8,0.8,2.1,0.4,3.3c-1.6,5.3-6.6,9.5-12.3,10.3c-5.8,0.4-11.1-3.3-13.2-8.6c-0.4-1.2-0.4-2.5,0.4-3.3
		c0.4-0.8,1.6-1.2,2.5-1.2c2.1,0.8,3.7,2.1,5.3,3.7C2619.3,1806.1,2621.8,1810.3,2623,1814.8z"/>
	<path class="st4" d="M2269.4,987.6c-0.8,0-13.6,826.8-13.6,826.8l99.9-3.3l34.5-406.6l8.2-298.5l68.2,276.3l84.7,433.3l99.9-25.1
		l-127-808.3l-119.6-23L2269.4,987.6z"/>
	<path class="st4" d="M2486.5,477c11.9-23.4,15.6-66.2,2.1-89.6s-41.5-40.3-67.4-48.1c-4.1-1.6-9-2.1-13.6-0.8s-7.4,5.8-6.2,10.7
		c-4.9-4.1-10.3-7.4-16.4-9.5c-6.2-2.1-12.7-1.2-18.1,2.5c-4.9,4.1-5.8,11.5-1.6,16.9l0,0c-10.3-4.5-22.6,0.4-27.1,10.7
		c-2.1,4.5-2.1,9.5-0.8,14.4c2.9,7.8,7.4,14.8,13.2,21c5.3,5.3,5.8,10.7,4.1,18.1"/>
	<path class="st10" d="M2388.3,671.5c0.8-11.5,2.5-113.9,2.5-114.3c0-0.4-38.2-4.5-39.9-42.8c-0.8-18.1,0.8-55.9,2.5-90
		c1.6-36.6,31.7-65.8,68.2-67h3.7c39.5,1.2,60.4,35.4,58.4,74.8l-5.3,219.5"/>
	<path class="st11" d="M2390.7,556.8c17.7-0.4,34.5-6.2,48.9-16c0,0-11.5,23.8-49.3,21.4L2390.7,556.8z"/>
	<path class="st10" d="M2481.6,459.7c0.8-0.4,25.9-8.6,25.9,17.3c0,25.9-25.9,20.6-25.9,19.7S2481.6,459.7,2481.6,459.7z"/>
	<path class="st11" d="M2489,487.3c0,0,0.4,0.4,1.2,0.8c1.2,0.4,2.5,0.4,3.3,0c3.3-2.1,5.3-6.2,5.3-9.9c0-2.1-0.4-4.5-1.2-6.6
		c-0.4-1.6-1.6-2.9-3.3-3.3c-1.2-0.4-2.1,0.4-2.9,1.2c-0.4,0.8,0,1.2-0.4,1.2c-0.4,0-0.4-0.4-0.4-1.6c0-0.8,0.4-1.2,0.8-1.6
		c0.8-0.4,1.6-0.8,2.5-0.8c2.1,0.4,4.1,2.1,4.9,4.1c1.2,2.1,1.6,4.5,1.6,7.4c0.4,4.9-2.5,9-6.6,11.1c-1.2,0.4-2.9,0-4.1-0.8
		C2489.4,487.7,2489,487.3,2489,487.3z"/>
	<path class="st4" d="M2336.9,375c-2.9,33.7,38.2,47.7,56.7,28.8c8.2-8.6,15.6-19.7,27.1-23.4c7.8-2.5,16.4-1.6,23.8,2.5l0,0
		c10.7,5.3,16.9,18.1,18.5,30c2.5,16.4-0.4,31.2,4.1,46.5c0.4,2.5,1.6,4.5,3.3,5.8c3.7,1.6,7.8,0.8,10.3-2.5
		c3.7-4.9,6.2-10.7,6.6-17.3c2.5-14,1.6-28.4-1.6-41.9c-3.3-14-10.7-26.3-21-36.2c-13.6-11.5-30.8-17.7-48.9-16.9
		c-17.7,1.2-34.5,7.8-48.5,18.9c-6.6,4.9-11.9,11.5-15.2,18.9"/>
	<path class="st8" d="M2364.4,356.5c-1.2-0.4-2.5-0.4-3.7,0c-3.3,0.8-6.2,2.5-8.6,4.9c-3.7,3.7-5.8,8.2-6.6,13.2
		c-0.4,6.2,1.2,12.3,4.9,17.3c3.7,4.9,8.6,8.6,14,11.1c4.5,1.6,9.5,2.9,14,3.3c3.3,0,6.6,0,9.9-0.4c1.2,0,2.5-0.4,3.3-0.8
		c0-0.4-4.9,0.4-13.2-0.4c-4.5-0.4-9-1.6-13.6-3.3c-5.3-2.1-9.9-5.8-13.2-10.3c-3.3-4.5-4.9-9.9-4.5-15.2c0.4-4.5,2.5-9,5.8-12.3
		c2.1-2.5,4.9-4.1,7.8-4.9C2363.2,357,2364.4,357,2364.4,356.5z"/>
	<path class="st8" d="M2381.7,345c0,0-0.8-0.4-2.5,0.4c-2.1,1.2-3.7,3.3-4.1,5.3c-0.4,3.3,0,7,2.1,9.9c2.1,3.7,4.1,7,7,9.9
		c4.9,5.3,11.5,9.5,18.5,11.9c2.9,1.2,5.8,1.6,9,1.6c0-0.4-3.3-0.8-8.6-2.9c-6.6-2.5-12.7-6.6-17.7-11.9c-2.9-2.9-4.9-6.2-7-9.5
		c-1.6-2.5-2.5-5.8-2.1-8.6c0.4-2.1,1.6-3.7,3.3-4.9C2380.9,345,2381.7,345,2381.7,345z"/>
	<path class="st10" d="M2156,680.5l-178.4-16.9l-28.4-6.6c0,0-64.5-11.5-70.3-13.6c-7-2.1-9.9,0.8-10.3,3.3c-0.8,4.1,3.3,8.6,9,10.7
		c2.1,0.8,34.9,10.7,34.9,10.7c-3.7,0.8-7.4,2.1-10.7,3.7c-7.8,2.9-14.8,13.2-18.1,25.1c-3.3,11.9-3.3,15.2,1.2,16.9
		c1.6,0.4,3.7,0,4.9-0.8c2.5-1.6,4.5-4.1,5.3-7c5.3-18.9,16.9-21,16.9-21l3.7,0.8c0,0-11.5,8.6-11.1,18.9c0,1.2,0.4,2.9,1.2,4.1
		c-2.9,7.8,1.6,16.9,9.5,19.3c2.9,0.8,5.8,1.2,8.2,0.4c2.5-0.4,5.3-2.1,5.3-4.5c0-1.2-0.4-2.9-0.8-4.1c-0.4-0.8-0.4-1.2-0.8-2.1
		l10.7,0.8c0,0,24.3,1.2,34.5,2.9l168.1,43.6c23,6.2,46.5-7.8,52.6-30.8c0-0.4,0-0.4,0-0.8l0,0c5.3-23-8.6-46.5-32.1-51.8
		C2160.1,680.9,2158,680.5,2156,680.5z"/>
	<path class="st10" d="M1973.8,668.2c-0.8,3.7-3.7,6.6-7.4,7.4c-3.7,0.8-7.4,0.4-11.1,1.2c-11.1,2.1-19.3,12.3-30.4,13.6
		c-1.6,0-3.7,0-4.1-1.6c-0.4-1.6,0.4-2.9,1.6-3.7l26.7-25.5"/>
	<path class="st11" d="M1949.2,659.5c-1.2,0.8-2.1,1.6-3.3,2.5c-2.1,1.6-4.5,4.1-8.2,7.4l-11.9,11.1c-1.2,1.2-2.1,2.1-3.3,3.3
		c-1.2,1.2-2.9,2.1-2.9,4.5c0,1.2,0.8,2.5,2.1,2.9c0.8,0.4,2.1,0.4,2.9,0.4c1.6-0.4,3.7-0.8,5.3-1.2c6.2-2.9,11.9-6.2,17.3-9.9
		c2.5-1.2,4.9-2.5,7.8-2.9c2.5-0.4,4.9-0.4,7.4-0.8c3.7,0,7.4-1.6,9.9-4.9c0.8-1.2,1.2-2.5,1.2-4.1c-0.4,1.2-0.8,2.5-1.6,3.3
		c-2.5,2.5-5.8,3.7-9.5,3.7c-2.5,0-4.9,0.4-7.4,0.4c-2.9,0.4-5.8,1.6-8.2,2.9c-5.3,3.3-11.1,6.6-17.3,9.5c-1.6,0.4-3.3,0.8-4.9,1.2
		c-1.6,0-2.9-0.4-2.9-1.2c0-0.8,1.2-2.1,2.5-3.3c1.2-1.2,2.1-2.1,3.3-3.3l11.5-11.5c3.3-3.3,5.8-5.8,7.8-7.8
		C1948.8,659.5,1949.6,660,1949.2,659.5z"/>
	<path class="st11" d="M1916.3,685.4c-2.5-0.4-4.5-0.4-7,0.4c-2.5,0.8-4.5,2.5-5.8,4.5c-1.6,2.5-3.3,5.3-4.1,8.6
		c-0.8,3.3-2.1,6.2-3.7,9c-1.2,2.5-3.3,4.5-5.8,5.8c-1.6,0.8-3.7,1.2-5.3,0.4c-1.2-0.4-1.6-1.2-1.6-1.2s0.4,0.4,1.6,0.8
		c1.6,0.4,3.3,0.4,4.9-0.8c2.1-1.2,3.7-3.3,4.9-5.8c1.2-2.9,2.5-5.8,3.7-8.6c0.8-3.3,2.5-6.2,4.1-8.6c1.6-2.1,4.1-3.7,6.6-4.5
		c1.6-0.4,3.7-0.4,5.3,0C1915.1,684.6,1915.9,685,1916.3,685.4z"/>
	<path class="st11" d="M1875.2,656.3c2.1,0.4,4.5,1.2,6.6,2.1l15.6,4.9l15.6,4.9c2.1,0.4,4.5,1.2,6.6,2.1c-2.5,0-4.5-0.4-6.6-1.2
		c-4.1-0.8-9.9-2.5-16-4.5s-11.5-3.7-15.6-5.3C1879.3,658.3,1877.2,657.5,1875.2,656.3z"/>
	<path class="st11" d="M1921.6,694.9c0,0-0.4,0.8-1.2,1.6c-1.2,1.2-2.1,3.3-1.6,4.9c0.4,1.2,1.2,2.1,2.1,2.5
		c1.2,0.4,2.9,0.8,4.5,0.8c2.1,0,3.7,0.8,4.9,2.5c1.2,1.6,1.6,3.7,1.2,5.8c-0.8,2.1-2.1,3.7-3.7,4.5c-1.6,0.8-3.7,1.2-5.3,0.8
		c-2.9-0.4-5.8-1.2-8.2-2.9c-1.6-0.8-3.3-2.1-4.9-3.3c-0.4-0.4-0.8-1.2-1.2-1.6c0,0,0.4,0.4,1.6,1.6c1.6,1.2,3.3,2.1,4.9,2.9
		c2.5,1.2,5.3,2.1,8.2,2.5c3.3,0.4,6.6-1.6,7.8-4.5c0.4-1.6,0-3.3-0.8-4.5c-1.2-1.2-2.5-1.6-4.1-2.1c-1.6-0.4-3.3-0.8-4.5-1.2
		c-1.2-0.4-2.5-2.1-2.5-3.3C1917.5,699,1919.2,696.5,1921.6,694.9L1921.6,694.9z"/>
	<path class="st11" d="M1926.2,717.1c0,0,0.8,0,1.6,0.8c1.6,1.2,2.5,2.9,2.1,4.9c-0.4,2.9-2.1,5.3-4.5,6.6c-2.9,1.2-6.6,1.6-9.5,0.4
		c-3.3-0.8-5.8-2.9-7.8-5.8c-1.6-2.1-2.5-4.5-2.9-7.4c-0.4-1.6,0-3.7,0.4-5.3c0.4-1.2,0.8-1.6,0.8-1.6c-0.4,2.5-0.4,4.5,0,7
		c0.4,2.5,1.2,4.9,2.9,6.6c2.1,2.5,4.5,4.1,7.4,4.9c2.9,0.8,5.8,0.8,8.6-0.4c2.1-0.8,3.7-2.9,4.1-5.3c0-1.6-0.4-3.3-1.6-4.5
		C1926.6,717.1,1926.2,717.1,1926.2,717.1z"/>
	<path class="st11" d="M1954.9,701.1c0-1.2,0.4-2.1,0.8-3.3c1.2-2.5,3.7-4.5,6.2-5.8v1.2c-1.2-0.8-2.9-1.2-4.1-2.1
		c-4.9-2.5-8.6-6.2-11.5-11.1c3.7,3.7,7.8,7,12.3,9.9c1.2,0.8,2.9,1.6,4.1,2.1l1.2,0.8l-1.6,0.4c-2.5,0.8-4.5,2.5-6.2,4.9
		C1955.8,700.2,1955.3,701.5,1954.9,701.1z"/>
	<path class="st11" d="M1899,684.6c0.4-0.4,2.1,1.6,2.5,4.9s-1.2,5.8-1.6,5.3s0.4-2.5,0-5.3S1898.6,684.6,1899,684.6z"/>
	<path class="st6" d="M2159.3,767.7l116.3-26.7c0,0-5.8,213-5.8,215c0,2.1-9.5,5.3-8.6,21l8.2,18.5l254.9,3.3l7-206.8l23.4-160.3
		l-53.4-33.3l-18.9-25.9l-73.6,77.7l-18.5-66.2l0.4-19.7l-18.1,19.7l-98.3,28.4l-129.5,60.4l-87.6-6.6l-22.6,76.5L2159.3,767.7z"/>
	<path class="st4" d="M2398.1,626.2c-2.5,1.2-4.1,3.3-5.3,5.8c-1.2,2.9-1.6,5.8-1.6,9c0,4.1-0.4,8.2-1.6,12.3l-0.8,2.1l-0.8-2.1
		c-2.5-6.2-4.5-12.3-5.8-18.9c-3.3-13.2-4.9-25.5-6.6-34.5c-0.8-4.9-1.2-9.5-1.6-14.4c1.2,4.5,2.5,9.5,2.9,14c1.6,8.6,4.1,21,7,34.1
		c1.2,6.2,3.3,12.3,5.3,18.5h-1.6c1.2-3.7,2.1-7.4,2.1-11.5c0-3.3,0.8-6.6,2.1-9.5c0.8-2.1,2.5-3.7,4.1-4.5
		C2396.5,626.7,2397.3,626.2,2398.1,626.2z"/>
	<path class="st4" d="M2492.3,593.8c-0.8,1.2-1.6,2.5-2.5,3.7c-1.6,2.1-4.1,5.3-7.4,9c-6.2,7.8-15.2,18.1-25.1,30l-15.6,18.1
		l-1.2,1.2l-0.4-1.6c-2.1-9-4.1-16.4-5.3-21.8c-0.4-2.5-2.1-4.1-3.3-4.1c-0.8,0-1.2,0-2.1,0.4c0,0,0.4-1.2,2.1-1.2
		c0.8,0,2.1,0.4,2.9,1.2c0.8,0.8,1.6,2.1,1.6,3.3c1.6,5.3,3.7,12.7,6.2,21.8l-1.6-0.4l15.6-18.5c9.9-11.5,18.9-22.2,25.5-29.6
		c3.3-3.7,6.2-6.6,7.8-8.6S2492.3,593.4,2492.3,593.8z"/>
	<path class="st4" d="M2384.1,934.2c0-0.8-0.4-1.6-0.4-2.9c0-2.1,0-4.5,0-7.8c0-7,0-16.9,0-29.2c0.4-24.7,1.2-58.4,4.1-95.8
		c2.9-37.4,6.6-71.1,10.3-95.4c1.6-12.3,3.3-22.2,4.1-28.8l1.2-7.8c0-0.8,0.4-1.6,0.8-2.5c0,0.8,0,1.6,0,2.9
		c-0.4,2.1-0.4,4.5-0.8,7.8c-0.8,7-2.1,16.9-3.7,28.8c-2.9,24.3-6.6,58-9.5,95.4c-2.9,37.4-4.1,71.1-4.9,95.8
		c-0.4,11.9-0.4,21.8-0.8,29.2c0,3.3,0,5.8,0,7.8C2384.1,932.1,2384.1,933.3,2384.1,934.2z"/>
	<path class="st4" d="M2363.2,983.9c-1.6-5.8-2.5-12.3-2.1-18.1c0-6.2,0.4-12.3,2.1-18.1c0.4,6.2,0.4,12.3,0,18.1
		C2363.2,975.7,2364,983.9,2363.2,983.9z"/>
	<path class="st4" d="M2467.6,924.3c-2.1,0.8-4.1,1.6-6.6,2.5c-4.1,1.6-10.7,3.3-18.1,5.8c-20.1,5.8-40.7,10.7-61.3,14
		c-20.6,3.7-41.5,6.6-62.5,7.8c-8.2,0.4-14.4,0.8-18.9,0.8c-2.5,0-4.5,0-7,0c2.5-0.4,4.5-0.8,7-0.8l18.9-1.6
		c16-1.6,38.2-4.1,62.5-8.2c24.3-4.1,46-9.5,61.3-13.6l18.5-4.9C2463.1,925.1,2465.1,924.7,2467.6,924.3z"/>
	<path class="st4" d="M2274,785.8c-0.4,0-0.8-30.4-0.8-67.4c0-37,0.8-67.4,1.2-67.4c0.4,0,0.8,30.4,0.8,67.4
		C2275.2,755.3,2274.8,785.8,2274,785.8z"/>
	<path class="st6" d="M2549.4,628.3c0,0,32.1,27.5,34.1,43.2c1.6,11.9,33.3,125.4,47.3,176c4.5,15.6,3.3,32.5-2.9,47.7l-41.1,101.5
		l-66.6-39.5l33.3-95.4l-27.5-81L2549.4,628.3z"/>
	<path class="st4" d="M2587.2,996.7c-0.4,0-0.8-0.4-1.2-0.4l-3.7-2.1l-13.6-7.8l-48.9-28.4l-0.8-0.4l0.4-0.4
		c9.5-26.7,20.6-59.6,32.9-95.4v0.8c-3.7-10.3-7.8-21.4-11.9-32.5c-9.9-26.3-18.9-51-27.5-74l0,0c-8.2-17.7-15.6-34.5-17.7-51
		c-0.8-7.8-0.8-15.2,0.8-23c1.2-6.6,3.7-12.7,6.6-18.5c4.5-8.2,10.3-15.6,17.3-21.8c1.6-1.6,3.7-3.3,5.8-4.5
		c0.8-0.4,1.2-0.8,2.1-1.2c-0.4,0.4-1.2,1.2-2.1,1.6c-1.2,0.8-3.3,2.5-5.3,4.9c-6.6,6.2-12.3,13.6-16.4,21.8
		c-2.9,5.8-4.9,11.9-6.2,18.1c-1.2,7.4-1.6,15.2-0.4,22.6c2.1,16,9.5,32.9,17.7,50.6l0,0l27.5,74c4.1,11.1,8.2,22.2,11.9,32.5v0.4
		v0.4c-12.7,35.8-23.8,68.2-33.3,95l-0.4-0.8l48.1,28.8l13.2,8.2l3.3,2.1C2586.8,996.2,2587.2,996.7,2587.2,996.7z"/>
	<g class="st12">
		<path d="M2416.2,643.1c4.5,0,8.6,2.9,9.9,7.4c0.8,4.5,0,9,1.2,13.6c1.2,4.5,4.9,8.6,9.5,7.8c2.5-0.8,4.9-2.5,6.2-4.9
			c8.6-11.5,15.6-24.7,20.6-38.2c0,0.4-22.6,26.3-22.6,26.3c-0.8-6.6-2.5-12.7-4.9-18.9c-0.8-2.1-1.6-5.3-3.7-6.2
			c-3.3-1.2-7.4,3.3-9,5.8C2421.1,638.6,2418.7,641,2416.2,643.1"/>
	</g>
	<g class="st12">
		<path d="M2378.8,619.7c0.4,14.4,3.3,28.8,8.2,42.3c0.4,1.2,1.2,2.5,2.1,3.7c1.2,1.2,2.9,1.2,4.1,0.4c1.6-2.9,2.9-5.8,4.1-8.6
			c2.1-5.8,10.7-6.6,10.7-6.6c-1.2-6.6-3.3-13.2-5.8-19.7c-0.8-2.1-2.9-3.7-5.3-3.3c-2.9,0.8-5.3,3.7-5.8,6.6
			c-1.2,10.7-1.2,15.2-2.9,18.9c-4.1-11.1-7.4-24.7-9.9-34.5"/>
	</g>
	<g class="st12">
		<path d="M2442.1,930.9c4.1-2.9,4.9-8.6,2.1-12.3l0,0c-3.3-3.7-7.8-5.8-12.7-4.9c-4.9,0.8-9,2.9-13.2,5.8
			c-4.1,2.9-7.4,6.2-11.5,8.6c-10.3,6.2-22.2,7.8-34.1,7.8c-11.9-0.4-23.8,0-35.4,1.6c-11.5,2.1-23,8.2-28.8,18.5
			C2308.1,956,2409.2,948.6,2442.1,930.9z"/>
	</g>
	<path class="st10" d="M2507.9,1079.7c-10.7-7-19.7-16.4-26.3-27.1c0-0.4,0-0.4,0-0.8c-0.4-0.4-0.8-0.4-0.8-0.4
		c-2.9-4.5-5.3-9-7.8-13.6c8.2-5.3,18.9-13.6,7.4-15.2c-14.4-2.1-24.7-9-26.3-12.7c-0.8-2.5,0.8-4.9,3.3-5.8c1.2-0.4,2.9,0,3.7,0.8
		c4.5,2.1,9,3.7,14,4.9c3.7,0.8,7.8,1.2,11.9,0.8c2.5-0.4,11.1-6.2,20.1-10.3c1.2-0.4,2.9-0.8,4.1-0.4l3.3-0.4c3.7-0.4,7-2.5,9-5.8
		l13.2-25.5l40.3,23.8l-32.1,44.4C2533.4,1050.5,2521,1065.3,2507.9,1079.7z"/>
	<path class="st8" d="M2516.5,1084.2c-3.3-0.8-6.6-2.5-9.5-4.5c-7-4.1-13.6-9.5-18.9-16c-5.3-6.2-10.3-13.2-13.6-20.6
		c-1.6-2.9-2.9-6.2-3.3-9.9C2480.3,1055,2496,1072.7,2516.5,1084.2L2516.5,1084.2z"/>
	<path class="st8" d="M2389.5,1110.1c0,0-0.4,0-1.2-0.4s-2.1-1.2-2.9-2.1c-2.9-2.9-5.3-6.6-6.6-10.3c-1.6-5.8-3.3-11.5-4.5-17.7
		c-1.6-6.6-2.9-14-4.5-21.8c-2.9-15.6-5.3-29.6-7-39.5c-0.8-4.9-1.2-9-1.6-11.9c-0.4-1.6-0.4-2.9-0.4-4.5c0.4,1.2,0.8,2.9,1.2,4.1
		l2.1,11.9c2.1,10.3,4.5,24.3,7.4,39.5c1.6,7.8,2.9,14.8,4.5,21.8c1.6,7,2.5,12.7,4.1,17.7c1.2,3.7,2.9,7.4,5.8,10.3
		C2387.8,1109.3,2389.5,1109.7,2389.5,1110.1z"/>
	<path class="st8" d="M2385.8,1017.6c0,0,0.8-0.4,1.6,0c1.6,0.4,2.9,1.6,3.7,3.3c1.2,2.5,1.2,5.3-0.4,7.4c-2.1,2.9-5.3,4.1-8.6,3.3
		c-3.3-0.8-5.3-3.7-6.2-7c-0.4-2.5,0.8-5.3,2.5-7c3.3-2.9,6.6-2.1,6.2-2.1c-2.1,0.4-3.7,1.6-5.3,2.9c-1.2,1.6-2.1,3.7-1.6,5.8
		c0.4,2.5,2.1,4.5,4.5,5.3c2.5,0.4,4.9-0.4,6.6-2.5c1.2-1.6,1.6-3.7,0.8-5.8C2388.7,1018.4,2385.8,1018,2385.8,1017.6z"/>
	<path class="st8" d="M2298.6,1001.2c0.8,2.9,1.2,6.2,1.2,9.5c-0.4,15.6-8.6,30.4-21.4,39.5c-2.5,2.1-5.3,3.3-8.6,4.1
		c0-0.4,3.3-2.1,7.8-5.3c11.9-9.5,19.3-23.4,20.6-38.2C2298.6,1004.9,2298.2,1001.2,2298.6,1001.2z"/>
	<path class="st4" d="M2139.1,712.6c0-7,0.8-13.6,2.1-20.6c0.4-7,1.6-13.6,2.9-20.1c0.8,7,0.4,14-0.8,20.6
		C2142.8,699.4,2141.2,706.4,2139.1,712.6z"/>
	<path class="st4" d="M2057.3,665.7c0,0.4,0,0.8-0.4,1.6c-0.4,1.2-0.4,2.5-1.2,4.1c-1.2,3.7-2.5,9-4.5,15.6l-16.4,55.5l-0.8-1.2
		c23,5.8,51.4,10.3,81,16c14.8,2.9,29.2,5.8,42.3,9h-0.4l83.5-18.9l24.3-5.3l6.6-1.2c0.8-0.4,1.6-0.4,2.5-0.4
		c-0.8,0.4-1.6,0.4-2.1,0.8l-6.6,1.6l-23.8,6.2l-83,19.7h-0.4c-13.2-3.3-27.5-6.2-42.3-9c-29.6-5.3-58-10.3-81-16.4l-0.8-0.4
		l0.4-0.8c7-23,12.7-41.9,16.9-55.5c2.1-6.6,3.7-11.5,4.9-15.6c0.4-1.6,0.8-2.9,1.2-4.1C2056.9,666.5,2056.9,666.1,2057.3,665.7z"/>
	<g id="freepik--character-1--inject-297">
		<polygon class="st13" points="907,1615.4 895.1,1835.3 974.8,1854.7 990.9,1639.6 		"/>
		<polygon class="st9" points="893,1833.7 879.5,1893.3 971.1,1893.3 974.8,1854.7 		"/>
		<path class="st4" d="M972.8,1884.7c-4.5,0.8-9,0.8-13.2,0.8c-8.2,0-19.7,0-32.1-0.4l-32.1-1.2c-4.5,0-9-0.4-13.2-1.2
			c4.5-0.8,9-0.8,13.2-0.8c8.2,0,19.7,0,32.1,0.4l32.1,1.2C964.1,1883.4,968.3,1883.9,972.8,1884.7z"/>
		<path class="st4" d="M934.1,1845.2c0.8,0,0.8,8.6,0,19.3c-0.8,10.7-1.6,19.3-2.5,19.3c-0.8,0-0.8-8.6,0-19.3
			C932.5,1853.8,933.3,1845.2,934.1,1845.2z"/>
		<g class="st14">
			<polyline class="st7" points="879.5,1893.3 971.1,1893.3 972,1884.7 881.1,1882.2 879.5,1892.5 			"/>
		</g>
		<polygon class="st13" points="1209.6,1722.7 1228.9,1868.2 1299.6,1863.3 1284.8,1729.7 		"/>
		<path class="st9" d="M1300.4,1847.7L1300.4,1847.7c0,0,79.3,26.7,80.6,41.1l-151.7,4.5l-1.2-39.5l5.8,1.2
			C1256,1859.2,1279.5,1856.7,1300.4,1847.7z"/>
		<g class="st14">
			<path class="st7" d="M1245.8,1860.4c-2.9,0.8-4.9,4.1-4.1,7.4c0.8,2.9,4.1,4.9,7,4.1c3.3-1.2,4.9-4.5,4.1-7.8
				c-1.2-2.9-4.9-4.5-7.8-3.3"/>
		</g>
		<g class="st14">
			<path class="st7" d="M1229.3,1893.3V1881l145.1,0.4c0,0,7,2.9,6.2,7.4L1229.3,1893.3z"/>
		</g>
		<path class="st4" d="M1302.9,1846.9c0,0.8-3.7,1.2-7.4,3.7c-3.7,2.5-5.3,5.8-6.2,5.3c-0.8-0.4,0.4-4.5,4.5-7.4
			C1298,1845.6,1302.9,1846,1302.9,1846.9z"/>
		<path class="st4" d="M1318.9,1852.6c0,0.8-2.9,2.1-5.3,5.3c-2.5,3.3-2.9,6.6-3.7,6.6s-1.2-4.1,1.6-8.2
			C1314.4,1852.2,1318.9,1852.2,1318.9,1852.6z"/>
		<path class="st4" d="M1328.4,1871.5c-0.8,0-1.6-3.7,0-7.8c1.6-4.1,5.3-5.8,5.8-5.3s-1.6,2.9-3.3,6.2S1329.2,1871.5,1328.4,1871.5z
			"/>
		<path class="st4" d="M1301.3,1846.4c-2.5,0.8-4.9,0.8-7.8,0c-2.9-0.4-5.3-1.2-7.8-2.1c-1.6-0.4-2.9-1.2-4.5-2.1
			c-0.8-0.4-1.6-1.2-2.5-1.6c-1.2-1.2-1.2-2.5-0.4-4.1c0.8-1.2,2.1-1.6,3.3-1.6c0.8,0,2.1,0,2.9,0.4c1.6,0.4,3.3,0.8,4.9,1.6
			c2.5,1.2,4.9,2.5,7,4.5c3.7,3.3,4.9,5.8,4.5,6.2s-2.1-2.1-5.8-4.5c-2.1-1.6-4.5-2.9-7-3.7c-1.2-0.4-2.9-0.8-4.5-1.2
			c-1.6-0.4-2.9-0.4-3.3,0.4s0,0.4,0,0.8c0.4,0.4,1.2,0.8,1.6,1.2c1.2,0.8,2.9,1.6,4.1,2.1c2.5,1.2,4.9,2.1,7.4,2.5
			C1296.3,1845.2,1298.8,1845.6,1301.3,1846.4z"/>
		<path class="st4" d="M1300,1847.3c-1.6-2.1-2.1-4.5-2.1-7.4s0-5.3,0.8-8.2c0.4-1.6,1.2-3.3,1.6-4.5c0.8-2.1,2.5-3.7,4.5-4.1
			c1.2,0,2.5,0.8,3.3,2.1c0.4,0.8,0.8,1.6,0.8,2.9c0.4,1.6,0.4,3.3,0,4.9c-0.4,2.9-1.2,5.8-2.9,7.8c-2.9,4.1-5.8,4.9-6.2,4.5
			s2.5-2.1,4.5-5.8c1.2-2.1,2.1-4.5,2.1-7.4c0-1.6,0-2.9-0.4-4.5s-0.8-2.9-1.6-2.5c-0.8,0.4-2.1,1.2-2.5,2.5
			c-0.8,1.2-1.2,2.9-1.6,4.1c-0.8,2.5-1.2,4.9-1.2,7.8C1299.6,1844.4,1300.4,1847.3,1300,1847.3z"/>
		<path class="st4" d="M966.2,984.7c0,0-55.9,93.3-55.9,149.2l-14,680.8l88.4,21l67.4-665.2c0,0,163.2,667.2,168.6,667.2
			c5.3,0,85.5-14.4,85.5-14.4l-121.7-835.8L966.2,984.7z"/>
		<path class="st8" d="M1000.7,1152.1c0,0.4,0,1.2,0,1.6c0,1.2-0.4,2.9-0.8,4.9c-0.8,4.5-1.6,11.1-3.3,19.3
			c-2.9,16.4-6.6,40.7-11.1,70.7c-9,59.6-20.1,142.2-29.6,233.9c-9.5,91.7-15.2,174.7-18.5,235.2c-1.6,30-2.9,54.7-3.7,71.5
			c-0.4,8.2-0.8,14.8-0.8,19.3c0,2.1-0.4,3.7-0.4,4.9c0,0.4,0,1.2-0.4,1.6c0-0.4,0-1.2,0-1.6c0-1.2,0-2.9,0-4.9
			c0-4.5,0.4-11.1,0.4-19.3c0.4-16.9,1.2-41.1,2.9-71.5c2.9-60.4,8.2-143.5,17.7-235.2s21-174.3,30.4-233.9
			c4.5-29.6,8.6-53.9,11.9-70.3c1.6-8.2,2.5-14.8,3.7-18.9c0.4-2.1,0.8-3.7,0.8-4.9C1000.7,1153.3,1000.7,1152.5,1000.7,1152.1z"/>
		<path class="st8" d="M1140.5,1163.6c0.8,0,27.5,149.2,60,333.8s58.4,333.8,58,334.2s-27.5-149.2-60-333.8
			S1140.1,1163.6,1140.5,1163.6z"/>
		<path class="st8" d="M1048.8,1169.3c0,0-0.4-0.4-0.8-1.6c-0.4-1.2-1.2-2.9-2.5-4.9c-2.5-6.2-4.9-12.7-6.6-19.3
			c-5.8-21.8-8.2-44-6.2-66.6c0.4-6.6,1.2-12.7,2.5-18.9s2.5-11.9,4.1-17.3c3.3-10.7,6.2-20.6,9-28.8c2.9-8.2,5.3-14.4,7-18.9
			l2.1-4.9c0.4-0.4,0.4-1.2,0.8-1.6c0,0.8,0,1.2-0.4,2.1l-1.6,5.3c-1.6,4.9-3.7,11.5-6.2,19.3c-2.5,7.8-5.8,17.7-8.6,28.8
			c-1.6,5.3-2.9,11.1-4.1,17.3c-1.2,6.2-1.6,12.3-2.5,18.9c-1.6,22.2,0.4,44.4,5.8,65.8c2.1,8.2,4.5,14.8,5.8,19.3
			C1047.6,1164.4,1048.4,1166.9,1048.8,1169.3z"/>
		<path class="st8" d="M1073.9,1055v1.2c0,0.8,0,2.1,0.4,3.7c0,3.3,0.4,7.8,0.4,13.6c0.4,11.5,0.8,28,1.6,47.3l-0.4-0.8l34.1,14
			h-0.8l27.5-16.9l1.6-1.2l-0.4,0.8c2.1-22.6,4.1-43.6,5.8-61.7l0.8,0.8l-51-0.4l-14.4-0.4h-3.7L1073.9,1055c1.6,0,3.3,0,4.9,0
			l14.4-0.4l51.4-0.4h0.8v0.8c-1.6,18.1-3.3,39.5-5.3,61.7v0.4l-0.4,0.4l-1.6,1.2l-28,16.9l-0.4,0.4h-0.4l-34.1-14h-0.4v-0.4
			c-0.4-19.7-0.4-36.2-0.8-48.1c0-5.3,0-9.9,0-13.2C1073.9,1057.9,1073.9,1056.7,1073.9,1055z"/>
		<path class="st8" d="M946.1,1036.9c0,0,0,1.6-0.4,4.5s-1.2,7.4-2.1,12.3c-1.6,10.7-4.1,25.9-7,43.6l-0.4-0.8l25.5,18.9h-0.8
			l31.2-8.6l1.6-0.4l-0.8,0.8c5.8-20.6,11.5-39.5,16.4-55.9l0.8,1.2l-46-11.1l-13.2-3.3C947.7,1037.4,946.1,1036.9,946.1,1036.9
			c1.6,0.4,2.9,0.4,4.5,0.8l13.2,2.9l46.9,10.3l0.8,0.4l-0.4,0.8l-16.4,55.9v0.4h-0.4l-1.6,0.4l-31.2,8.6h-0.4l-0.4-0.4l-25.5-18.9
			l-0.4-0.4v-0.4c3.3-18.1,6.2-33.3,8.2-44.4c0.8-4.9,1.6-9,2.5-12.3C945.2,1039.8,945.6,1038.2,946.1,1036.9z"/>
		<path class="st8" d="M1124.5,1156.2c-12.3,3.7-25.1,7-37.4,9c-12.7,2.9-25.1,5.3-38.2,7c12.3-3.7,25.1-7,37.4-9
			C1099,1160.3,1111.7,1157.8,1124.5,1156.2z"/>
		<path class="st8" d="M1014.7,1159c-3.3,0.4-6.6,0.4-9.5,0c-7.8-0.8-15.6-1.6-23-3.7c-7.4-1.6-15.2-4.1-22.2-7
			c-2.9-0.8-6.2-2.5-8.6-4.1c3.3,0.8,6.2,1.6,9,2.9c5.8,1.6,13.6,4.1,22.2,6.2c8.6,2.1,16.9,3.3,22.6,4.1
			C1008.5,1157.8,1011.4,1158.2,1014.7,1159z"/>
		<path class="st4" d="M1004.8,449.9c2.9,8.6-7.4,16.4-16.4,18.5c-9,2.1-20.1,3.3-24.3,11.9c-3.7,7.4,0,16.4-3.3,23.8
			c-6.2,14-31.7,11.1-36.6,25.5c-3.7,10.3,5.8,20.1,4.5,30.8c-0.8,9-9.5,15.2-16.4,20.6c-7,5.3-14.8,13.2-14,22.2
			c1.2,10.3,14,17.7,12.7,28c-1.2,10.3-14.8,15.2-16.9,25.1c-2.5,11.9,12.7,19.7,17.7,30.8c3.7,8.6,1.2,19.7,7.8,26.7
			c6.6,7,17.7,5.8,27.1,3.7l93.7-19.7c-6.2-14.8-0.4-32.1,8.6-45.6c9-13.6,21-24.7,28.8-38.6c7.8-14,10.3-32.9,0-45.6"/>
		<path class="st4" d="M1169.3,524.7c-0.8-4.9-1.6-9.9-3.3-14.8c-0.8-2.5-2.1-4.5-3.7-6.2c-1.6-1.6-4.1-0.8-5.8,1.6
			c-5.8,11.9-5.8,25.9,0,37.8c1.6,2.5,4.1,3.7,5.8,2.1c1.6-1.6,2.9-3.7,3.7-6.2C1167.6,534.6,1168.9,529.6,1169.3,524.7
			c0.4,1.2,0.4,2.9,0.4,4.1c0,3.7-0.8,7.4-1.6,11.1c-0.8,2.5-2.1,4.9-4.1,7c-1.2,1.2-3.3,1.6-4.9,1.2c-1.6-0.8-3.3-1.6-4.1-3.3
			c-6.2-12.7-6.2-27.5,0-40.3c0.8-1.6,2.5-2.9,4.1-3.3c1.6-0.4,3.7,0,4.9,1.2c2.1,2.1,3.3,4.5,4.1,7c1.2,3.7,1.6,7.4,1.6,11.1
			C1170.1,521.8,1169.7,523.5,1169.3,524.7z"/>
		<path class="st4" d="M1016.8,611c-16.9-28.8-21.8-66.6-25.9-99.5c-2.1-15.6-5.8-37.4,5.3-47.3c11.9-10.3,12.7-26.3,26.3-34.5
			c13.6-8.2,31.7-8.6,44.4,0.4"/>
		<path class="st13" d="M1063.6,712.2L1063.6,712.2c25.1,2.1,47.3-16.9,49.3-42.3c0-0.4,0-1.2,0-1.6c1.2-25.1,2.1-50.2,2.1-50.2
			s37.8-3.3,40.7-41.1c2.9-37.8,1.6-124.2,1.6-124.2l0,0c-42.3-21.4-92.9-18.1-132,8.2l2.1,132l-0.4,71.1
			C1027.9,687.9,1040.2,710.1,1063.6,712.2z"/>
		<path class="st4" d="M1118.7,531.3c-6.6-7.8-16.9-11.1-25.5-5.8c-8.6,6.2-11.9,17.7-7.4,27.1c4.1,7,10.7,11.9,18.5,14
			c7,1.6,11.9,8.2,11.1,15.6c-1.2,9.5-16.9,12.7-23.8,20.6c-11.1,11.9-34.9,17.3-51.4,18.9c-16.4,1.6-14,2.1-23.4-11.1
			c-6.2-9-9.5-19.7-9-30.4c-0.4-27.5-0.8-55.1-1.6-83c-0.8-9.9,0-20.1,2.1-29.6c2.1-9.9,7.4-18.9,15.6-24.7c9-6.2,20.6-6.6,31.2-9.9
			c13.2-4.1,24.3-12.7,36.2-18.9c11.9-6.2,27.1-9.9,39.5-3.7c8.6,4.5,14.4,13.2,23,18.1c11.9,7,28.8,5.3,34.5,23.4
			c2.1,6.2,2.1,12.7-0.4,18.9c-8.2,24.3-38.2,33.7-60,23.4c-0.4,4.1,3.7,13.2-0.8,26.3C1125.7,524.7,1125.3,530.9,1118.7,531.3"/>
		<path class="st15" d="M1111.7,554.7c0,0,0,0.8-0.4,1.6c-0.8,1.2-2.5,2.1-4.1,2.1c-5.3-0.4-9.9-4.9-9.9-10.3c0-2.9,0.8-5.8,2.9-7.8
			c1.6-1.6,3.7-2.9,5.8-3.3c3.7-0.8,6.2,0.8,5.8,0.8s-2.5,0-5.3,0.8c-4.1,1.2-6.6,4.9-6.6,9c0,4.1,2.9,7.8,7,8.6
			C1110.5,556.8,1111.7,554.3,1111.7,554.7z"/>
		<path class="st4" d="M1169.7,523c-8.2,2.5-16.4,4.5-25.1,5.3c-8.6,1.6-16.9,2.9-25.5,2.9c0-0.8,11.1-3.3,25.1-5.3
			C1152.4,524.3,1161.1,523,1169.7,523z"/>
		<path class="st4" d="M1019.6,647.2c2.5,4.5,7.8,7,13.2,5.3c4.9-1.6,9-4.5,12.7-8.6c3.3-3.7,7.8-7,12.3-8.6
			c9.9-2.9,22.2,3.7,30.4-2.5c7.8-5.8,6.6-18.5,14-24.3c4.1-3.3,9.5-3.7,13.6-6.6c7.8-5.8,6.2-18.1,0-25.1s-16-9.9-25.1-12.3
			l-80.6,34.5L1019.6,647.2z"/>
		<path class="st8" d="M1115.4,502.1c0,0-0.4,0.4-0.8,0.4c-0.8,0.4-1.2,0.8-2.1,1.2c-2.9,1.2-5.8,2.5-8.6,3.3
			c-4.9,1.2-9.9,2.1-14.8,2.5c-6.6,0.4-12.7,1.2-19.3,2.5c-7.8,1.2-14.4,5.3-19.7,10.7c-5.3,6.2-7.4,15.2-11.5,24.3
			c-2.1,4.5-5.3,8.6-9.5,11.9c-4.1,2.9-9,5.3-14,7c-9.9,3.3-21,5.3-29.2,12.3c-4.1,3.3-6.6,7.8-7.4,13.2c-0.4,5.3-0.4,10.3,0,15.6
			s-0.4,10.7-2.9,15.6c-2.5,4.5-6.6,8.2-10.7,10.7c-8.2,4.9-17.3,7.8-24.3,11.9c-3.3,2.1-6.6,4.9-8.6,7.8s-3.3,6.6-3.3,10.3
			c0,6.6,0.8,12.7,2.5,18.9c1.2,4.9,1.6,9.9,1.2,14.8c0,3.3-1.2,6.2-2.5,9c-0.4,0.8-1.2,1.6-2.1,2.5c2.5-3.3,3.7-7.4,3.7-11.5
			c0-4.9-0.4-9.9-1.6-14.4c-2.1-6.2-2.9-12.7-2.9-19.3c0-4.1,1.2-7.8,3.3-11.1c2.5-3.7,5.3-6.6,9-8.6c7.4-4.9,16-7.4,24.3-12.3
			c9-4.5,14-14,12.7-23.8c-0.4-5.3-0.4-10.7,0-16c0.8-5.8,3.7-11.1,8.2-14.8c9-7.4,20.1-9.5,30-12.7c4.9-1.6,9.5-3.7,13.6-6.6
			c3.7-2.9,6.6-6.6,8.6-11.1c4.1-8.2,6.2-17.7,11.9-24.3c5.8-5.8,13.2-9.9,21-11.1c6.6-1.2,12.7-2.1,19.3-2.5
			c4.9-0.4,9.9-0.8,14.4-2.1C1107.6,505,1111.7,503.7,1115.4,502.1z"/>
		<path class="st8" d="M1093.6,515.2c0,0.4-2.9,0-7.8,1.2c-7,1.6-13.2,5.3-18.1,10.7c-3.3,3.7-5.8,7.8-7.4,12.7
			c-1.2,5.3-2.1,11.1-1.6,16.9c0.4,6.6-0.4,13.2-2.9,19.3c-1.6,3.3-4.1,6.2-7,7.8c-2.9,2.1-5.8,3.7-9,4.9c-2.9,1.2-5.8,3.3-7.8,5.8
			c-2.1,2.5-2.9,5.3-3.3,8.6c-0.4,6.2,0.8,13.2-2.1,19.3c-2.9,5.3-7.4,9.5-12.7,12.3c-4.5,2.9-9.5,4.9-13.2,7.4
			c-3.7,2.1-6.6,4.5-9.5,7.8c-2.1,2.5-3.3,5.3-4.1,8.2c-0.4,2.5-0.4,5.3,0,7.8c-0.4-0.4-0.8-1.2-0.8-2.1c-0.4-2.1-0.4-4.1-0.4-6.2
			c0.4-3.3,2.1-6.2,3.7-8.6c2.5-3.3,5.8-6.2,9.5-8.2c4.1-2.5,8.6-4.5,13.2-7.4c4.9-2.9,9-6.6,11.5-11.5c2.5-5.3,1.6-11.5,1.6-18.5
			c0-3.7,1.2-7,3.7-9.9s5.3-4.9,8.6-6.2c6.2-3.3,12.7-5.8,15.2-11.9c2.1-5.8,3.3-11.9,2.5-18.1c-0.4-5.8,0.4-11.9,1.6-17.3
			c1.6-4.9,4.1-9.5,7.8-13.2c4.9-5.3,11.9-9,18.9-10.7c2.1-0.4,4.1-0.4,5.8-0.4C1092.4,515.2,1092.8,515.2,1093.6,515.2z"/>
		<polyline class="st6" points="1124.5,653 1114.6,633.2 1029.9,629.9 1016.8,655.8 1122.8,655.8 		"/>
		<path class="st8" d="M1415.1,834.3c-0.4-2.9,22.2-122.5,28.8-155.4c0.8-3.7-1.6-7.4-5.8-8.2c-0.4,0-0.8,0-1.2,0h-169.4
			c-3.3,0-6.2,2.1-6.6,5.3l-34.5,146.4l-85.5,6.6l2.9,5.8L1415.1,834.3z"/>
		<polygon class="st0" points="1407.7,823.6 1435.3,678.5 1268.8,679.7 1232.2,823.6 		"/>
		<path class="st4" d="M1231.8,824L1231.8,824l36.6-144.3l0,0l166.9-0.8l0,0L1407.7,824l0,0L1231.8,824z M1268.8,680.1L1232.2,824
			l175.5-0.4l27.5-144.7L1268.8,680.1z"/>
		<path class="st4" d="M1407.7,824.4c0,0.4-48.9,1.2-108.9,1.2s-108.9-0.4-108.9-1.2c0-0.8,48.9-1.2,108.9-1.2
			S1407.7,824,1407.7,824.4z"/>
		<path class="st8" d="M1396.2,787.8c-0.8,0-1.2,0-2.1,0l-6.2,0.4l-23,0.4c-19.3,0-46,0.4-75.6,0.4h-25.5l0.4-1.2
			c5.8-23,11.1-42.8,14.8-57.6c1.6-7,3.3-12.3,4.5-16.9c0.4-2.1,1.2-4.1,2.1-5.8c-0.4,2.1-0.8,4.1-1.2,6.2
			c-0.8,4.1-2.5,9.9-4.1,16.9c-3.7,14.8-8.6,34.5-14,57.6l-0.8-1.2h24.3c29.6,0,56.3,0,75.6,0.4l23,0.4h6.2
			C1394.6,787.4,1395.4,787.4,1396.2,787.8z"/>
		<polygon class="st6" points="1275.4,782.5 1278.6,768.5 1300,768.5 1297.6,782.5 		"/>
		<polygon class="st6" points="1304.5,782.5 1311.1,754.9 1332.5,754.9 1326.3,782.5 		"/>
		<polygon class="st6" points="1333.7,782.5 1337,768.5 1358.4,768.5 1355.5,782.5 		"/>
		<polygon class="st6" points="1362.9,782.5 1375.3,729 1396.6,729 1384.7,782.5 		"/>
		<path class="st8" d="M1292.2,798.1c-2.9,0.8-5.8,1.2-8.6,0.8c-4.9,0-8.6-0.4-8.6-1.2C1280.7,796.4,1286.9,796.4,1292.2,798.1
			L1292.2,798.1z"/>
		<path class="st8" d="M1320.6,798.1c-2.9,0.8-5.8,1.2-8.6,0.8c-2.9,0.4-5.8,0-8.6-1.2c2.9-0.8,5.8-1.2,8.6-0.8
			C1314.8,796.4,1317.7,796.9,1320.6,798.1z"/>
		<path class="st8" d="M1348.9,798.1c-2.9,0.8-5.8,1.2-8.6,0.8c-2.9,0.4-5.8,0-8.6-1.2c2.9-0.8,5.8-1.2,8.6-0.8
			C1343.2,796.4,1346.1,796.9,1348.9,798.1z"/>
		<path class="st8" d="M1377.3,798.1c-5.8,1.2-11.5,1.2-17.3,0C1365.8,796.4,1371.6,796.4,1377.3,798.1z"/>
		<path class="st8" d="M1335.8,701.5c-7.8,1.2-16,1.2-23.8,1.2c-8.2,0.4-16,0-23.8-1.2c7.8-1.2,16-1.2,23.8-1.2
			C1319.8,699.8,1327.6,700.2,1335.8,701.5z"/>
		<path class="st8" d="M1310.3,695.3c-7,1.6-14.4,1.6-21.4,0C1295.9,694.1,1303.3,694.1,1310.3,695.3z"/>
		<path class="st6" d="M1264.3,922.2l98.3-71.1l-3.7-5.8c-5.3-8.6-13.6-15.6-23-19.3l-15.2,2.9l-90.9,14L1264.3,922.2z"/>
		<polygon class="st6" points="915.6,905.8 997,873.3 978.9,805.9 912.8,828.5 		"/>
		<path class="st6" d="M1261,924.3c20.1-9.9,25.5-34.1,15.6-54.7l-84.3-180.5c-2.1-4.5-4.9-8.6-8.6-11.5
			c-19.3-16.9-44.4-25.5-69.9-23.8l-88-2.5c0,0-69.1,0-95,54.7c-2.1,4.1-41.9,83.9-68.7,136.5c-11.5,22.2-2.5,49.7,20.1,60.8
			c1.6,0.8,3.3,1.6,4.9,2.1l0,0c22.6,8.2,47.3-2.1,57.1-24.3l28.8-64.1l18.1,92.1L965,984.7l218.3,2.9l-16.9-101.5l-5.3-72.4
			l44.4,91.7c9.9,20.6,34.5,29.2,54.7,19.3C1260.6,924.7,1261,924.3,1261,924.3L1261,924.3z"/>
		<g class="st16">
			<path d="M998.3,907c16.4,12.3,40.7,8.2,61.3,4.9c20.6-2.9,39.5-13.2,53.4-28.8c6.6-7,9.9-16,9.9-25.1c-0.8-9-9-18.1-18.1-16.9
				c-10.7,1.2-15.6,13.2-20.6,22.6c-17.3,30-51.4,46-85.1,39.9C999.1,903.3,995.4,905,998.3,907z"/>
		</g>
		<g class="st16">
			<path d="M1133.1,764.8c4.9,41.5,2.9,38.2,11.5,79.3c4.1,20.1,9.5,41.1,23.4,56.3l-7-86.7L1133.1,764.8z"/>
		</g>
		<polygon class="st6" points="965,984.7 958.8,966.2 974.8,955.5 1175.5,939.1 1189.4,965.4 1183.3,987.6 		"/>
		<path class="st4" d="M1006.5,641c-15.2,6.2-23,23.4-16.9,38.6c0.8,2.1,2.1,4.1,3.3,5.8c2.1,2.5,3.3,5.3,3.7,8.2
			c-0.4,7.4-12.3,7.8-16,14c-2.1,4.5-0.8,10.3,3.3,13.2c3.7,3.3,7.8,5.8,12.3,8.2s7.4,7,7.4,11.9c4.1,0,6.6-5.3,6.2-9.5
			c-1.2-4.1-2.9-7.8-4.9-11.5c-2.5-3.7-2.5-8.2-0.4-11.9c2.9-3.7,8.2-4.1,12.7-5.8c8.6-3.7,13.2-14,9.5-23c-2.9-6.2-9-11.9-5.8-18.1
			c1.6-3.3,5.8-4.5,8.6-6.2c11.1-6.2,15.2-20.1,9-31.2c-1.6-2.9-3.7-4.9-6.2-7"/>
		<path class="st4" d="M972.4,825.6c-1.2,3.7-2.5,7-4.5,10.3c-2.9,6.2-7.4,14.8-12.7,23.8c-5.3,9-10.7,16.9-14.8,22.6
			c-2.1,3.3-4.1,6.2-7,8.6c1.6-3.3,3.3-6.6,5.8-9.9c3.7-5.8,8.6-14,14-23c5.3-9,9.9-17.3,13.2-23.4
			C968.3,831.8,970.3,828.5,972.4,825.6z"/>
		<path class="st4" d="M953,860.2c1.2,10.3-2.1,20.6-9,28.4c-0.4-0.4,3.3-6.2,5.8-14S952.6,860.2,953,860.2z"/>
		<path class="st4" d="M1272.9,863c-0.4,0.4-17.7-35.4-38.2-79.8c-20.6-44.4-36.6-80.6-36.2-80.6c0.4,0,17.7,35.4,38.2,79.8
			S1273.7,862.6,1272.9,863z"/>
		<path class="st4" d="M1168.9,678.5c0,0.4-3.7,1.6-9,4.9c-14.4,9-24.3,23.4-26.3,40.3c-0.8,6.2-0.8,10.3-0.8,10.3
			c-0.8-3.3-1.2-7-0.4-10.7c1.6-17.3,11.9-32.9,27.1-41.5C1162.3,680.5,1165.6,679.3,1168.9,678.5z"/>
		<path class="st4" d="M990.9,909.5c-0.4,0-10.3-41.5-21.8-93.3c-11.5-51.8-20.6-93.7-19.7-93.7c0.8,0,10.3,41.5,21.8,93.3
			C982.6,867.6,991.3,909.5,990.9,909.5z"/>
		<polyline class="st13" points="1362.5,851.1 1402.4,834.3 1349.4,834.3 1360.9,849.1 		"/>
		<path class="st4" d="M1280.7,855.6c-3.7-2.9-6.6-5.8-9.9-9c-3.3-2.9-6.6-6.2-9.5-9.5c4.1,1.6,7.8,4.5,10.7,7.8
			C1276.2,847.8,1278.6,851.5,1280.7,855.6z"/>
		<path class="st4" d="M1207.1,908.7c-1.2-1.6-2.5-3.7-3.3-5.8c-2.1-3.7-4.9-9-8.2-15.6c-7-13.2-16-31.7-26.3-51.8
			s-19.3-38.6-26.3-51.8c-3.3-6.2-6.2-11.5-8.2-15.6c-1.2-2.1-2.1-3.7-2.9-5.8c1.2,1.6,2.5,3.7,3.7,5.3c2.1,3.7,4.9,8.6,8.6,15.2
			c7.4,13.2,16.9,31.2,26.7,51.8s18.9,38.6,25.5,52.2l7.8,16C1205.9,904.6,1206.7,906.6,1207.1,908.7z"/>
		<path class="st4" d="M1128.6,852.8c0,0,0,0.4,0,1.6c0,1.2-0.4,2.9-0.8,4.1c-1.2,4.9-2.9,9.9-5.3,14.4c-8.6,14.4-21.4,26.3-37,32.9
			c-15.2,6.6-31.7,10.7-48.1,11.9c-6.2,0.8-11.5,1.2-14.8,1.2c-1.6,0.4-3.7,0.4-5.3,0c1.6-0.4,3.7-0.8,5.3-0.8l14.8-2.1
			c16.4-1.6,32.5-6.2,47.3-12.3c15.2-6.6,27.5-17.7,36.6-31.7C1124.5,865.9,1126.9,859.3,1128.6,852.8z"/>
		<path class="st4" d="M1084.6,958.8c0,0.4-27.1,2.9-60.4,5.3c-33.3,2.5-60.4,3.7-60.8,3.3s27.1-2.9,60.4-5.3
			C1057.1,959.7,1084.6,958,1084.6,958.8z"/>
		<path class="st4" d="M1119.5,942.4c4.5,13.2,5.8,27.5,4.5,41.5c-0.4,0-0.8-9.5-2.1-20.6C1120.8,952.3,1119.1,942.4,1119.5,942.4z"
			/>
		<path class="st4" d="M1133.5,929.2c0.8,2.5,1.6,5.3,1.6,8.2c1.6,13.6,0.8,27.5-2.9,40.7c-0.4,2.9-1.6,5.3-2.9,7.8
			c-0.8,0,3.3-12.3,4.1-28.4C1134.3,941.6,1133.1,929.2,1133.5,929.2z"/>
		<path class="st4" d="M1124.5,654.6c-14.4,0.4-29.2,0-43.6-1.2c-24.3-1.2-43.6-2.9-43.6-3.7c0-0.8,19.7,0,43.6,1.2
			C1104.7,652.1,1124.5,653.8,1124.5,654.6z"/>
	</g>
	<g id="freepik--Chart--inject-297">
		<path class="st4" d="M1522.9,1361.3c-1.2,0-2.5,0.4-3.7,0.4h-9.9l-37,0.4l-121.3,0.4h-9.9v-1.2c0-45.2,0.4-85.9,0.4-115.5
			c0-14.4,0.4-26.3,0.4-34.9c0-4.1,0-7,0-9.5c0-1.2,0-2.1,0.4-3.3c0,1.2,0,2.1,0,3.3c0,2.5,0,5.3,0,9.5c0,8.2,0,20.1,0.4,34.9
			c0,29.6,0,70.3,0.4,115.5l-1.2-1.2h8.6l121.3,0.4l37,0.4l9.9,0.4C1520.4,1360.9,1521.6,1360.9,1522.9,1361.3z"/>
		<path class="st4" d="M1502.7,1237.6c-1.6,1.6-3.3,3.7-5.3,4.9l-15.2,13.2c-12.7,11.1-30.8,26.7-51,43.6l-2.9,2.5l-0.8,0.8
			l-0.8-0.8l-22.6-21h1.2l-33.3,27.5l-9.5,7.8c-1.2,0.8-2.5,2.1-3.7,2.5c0.8-1.2,2.1-2.1,3.3-3.3l9-8.2l32.5-28l0.8-0.4l0.8,0.4
			l22.6,21h-1.6l2.9-2.5c20.1-16.9,37.8-32.1,51.4-42.8l15.6-12.7C1498.6,1240.5,1500.7,1238.8,1502.7,1237.6z"/>
		<path class="st4" d="M1502.7,1275.4c-0.8-3.7-0.8-7.4-0.8-11.1c0-7-0.4-16.4-0.4-27.5l1.2,1.2h-2.1c-11.1,0-21.4,0-28.8-0.4
			c-4.1,0-7.8,0-11.9-0.8c4.1-0.4,7.8-0.8,11.9-0.8c7.4-0.4,17.7-0.4,28.8-0.4h3.3v1.2c0,10.7,0,20.6-0.4,27.5
			C1503.9,1268,1503.5,1271.7,1502.7,1275.4z"/>
	</g>
	<g id="freepik--Clock--inject-297">
		<ellipse class="st2" cx="1152" cy="199.1" rx="89.2" ry="89.2"/>
		<path class="st4" d="M1062.8,192.9c0,0.4,0,0.8,0,1.2c0,1.2,0,2.5,0,4.1v3.3c0,1.2,0,2.5,0.4,3.7c0.4,3.3,0.8,6.2,1.2,9.5
			c1.6,8.6,4.5,16.9,8.6,24.7c4.9,9.9,11.9,18.9,20.6,26.3c10.3,9,22.6,15.6,36.2,18.9c15.2,3.7,31.2,3.7,46.5-0.8
			c4.1-1.2,7.8-2.5,11.9-4.5c3.7-1.6,7.8-3.7,11.1-6.2c3.7-2.5,7.4-4.9,10.7-7.8c3.3-2.9,6.6-6.2,9.5-9.5c6.2-7,10.7-14.8,14.4-23.4
			c7.4-17.7,8.6-37.4,3.7-55.9c-2.5-9-6.2-17.3-11.1-25.1c-2.5-3.7-5.3-7.4-8.2-10.7s-6.2-6.2-9.5-9c-3.3-2.9-6.6-5.3-10.3-7.8
			c-3.7-2.1-7.4-4.1-11.1-5.8c-14.4-6.6-30.4-8.6-46-7c-25.1,2.9-48.1,16.9-62.5,37.8c-4.9,7-8.6,14.8-11.5,23
			c-1.2,2.9-2.1,6.2-2.5,9c-0.4,1.2-0.4,2.5-0.8,3.7c-0.4,1.2-0.4,2.1-0.4,3.3c-0.4,1.6-0.4,3.3-0.4,4.1
			C1062.8,192.1,1062.8,192.5,1062.8,192.9c0-0.4,0-0.8,0-1.6c0-1.2,0.4-2.5,0.4-4.1c0-0.8,0.4-2.1,0.4-3.3s0.4-2.5,0.8-3.7
			c0.4-3.3,1.2-6.2,2.5-9c2.5-8.2,6.2-16,11.1-23.4c14.8-21.4,37.8-35.4,63.3-38.6c16-2.1,32.5,0.4,47.3,7c4.1,1.6,7.8,3.7,11.5,5.8
			c3.7,2.5,7.4,4.9,10.7,7.8c7,5.8,13.2,12.7,17.7,20.6c4.9,7.8,9,16.4,11.5,25.5c4.9,18.9,3.7,39.1-3.7,56.7
			c-3.7,8.6-8.6,16.9-14.4,23.8c-2.9,3.3-6.2,6.6-9.5,9.9c-3.3,2.9-7,5.8-10.7,8.2s-7.4,4.5-11.5,6.2s-7.8,3.3-11.9,4.5
			c-41.5,11.9-85.9-7.4-105.2-46c-4.1-7.8-6.6-16-8.2-24.7c-0.4-3.3-0.8-6.2-1.2-9.5c0-1.2,0-2.5-0.4-3.7v-3.3c0-1.6,0-3.3,0-4.1
			C1062.4,194.2,1062.4,193.7,1062.8,192.9z"/>
		<path class="st4" d="M1192.7,201.6c-1.2,0-2.1,0.4-3.3,0.4h-8.6c-7.4,0-17.7,0-29.2,0h-0.4v-6.2c0-13.2,0-24.7,0-33.3
			c0-4.1,0-7.4,0-9.9c0-1.2,0-2.5,0.4-3.7c0,1.2,0.4,2.5,0.4,3.7c0,2.5,0,5.8,0,9.9c0,8.6,0,20.1,0,33.3v5.8l-0.4-0.4
			c11.5,0,21.8,0,29.2,0h8.6C1189.8,201.1,1191.1,201.6,1192.7,201.6z"/>
		<path class="st4" d="M1151.6,124.3c0.4,2.5,0.8,4.9,0.4,7.4c0,2.5,0,4.9-0.4,7.4c-0.4-2.5-0.8-4.9-0.4-7.4
			C1150.8,129.2,1151.2,126.7,1151.6,124.3z"/>
		<path class="st4" d="M1192.3,136.2c-1.2,2.1-2.9,4.1-4.9,5.8c-1.6,2.1-3.7,3.7-5.8,4.9c1.2-2.1,2.9-4.1,4.9-5.8
			C1188.2,139.1,1190.3,137.4,1192.3,136.2z"/>
		<path class="st4" d="M1216.2,162.1c-2.1,1.6-4.1,2.9-6.2,4.1c-2.1,1.6-4.1,2.5-6.6,3.7c1.6-2.1,3.7-3.3,5.8-4.5
			C1211.6,163.7,1213.7,162.9,1216.2,162.1z"/>
		<path class="st4" d="M1230.1,200.7c-7,0.8-13.6,0.8-20.6,0C1216.6,200.3,1223.6,200.3,1230.1,200.7z"/>
		<path class="st4" d="M1088.3,199.5c-3.3,0.4-6.6,0.8-9.9,0.4c-3.3,0-6.6,0-9.5-0.4c3.3-0.4,6.6-0.8,9.9-0.4
			C1081.7,198.7,1085,199.1,1088.3,199.5z"/>
		<path class="st4" d="M1098.2,228.3c-2.1,2.5-4.5,4.5-7.4,6.6c-2.5,2.1-4.9,4.1-7.8,5.8c2.1-2.5,4.5-4.5,7.4-6.6
			C1092.8,232,1095.3,229.9,1098.2,228.3z"/>
		<path class="st4" d="M1123.2,250.5c-1.2,2.9-2.9,5.8-4.9,8.6c-1.6,2.9-3.3,5.8-5.3,8.2c0.8-3.3,2.5-6.2,4.5-9
			C1118.7,255.4,1120.8,252.9,1123.2,250.5z"/>
		<path class="st4" d="M1151.6,279.3c-0.4-3.3-0.8-7-0.4-10.3c0-3.3,0-7,0.4-10.3c0.4,3.3,0.8,7,0.4,10.3
			C1152.4,272.3,1152.4,276,1151.6,279.3z"/>
		<path class="st4" d="M1196,265.7c-3.3-1.2-6.2-3.3-8.6-5.8c-2.9-2.1-4.9-4.5-7-7.4c2.5,2.1,5.3,4.1,7.8,6.6
			C1191.1,260.8,1193.5,263.2,1196,265.7z"/>
		<path class="st4" d="M1216.6,243.1c-2.5-1.6-4.9-3.7-6.6-5.8c-2.5-2.1-4.1-4.1-6.2-7c2.5,1.6,4.9,3.7,6.6,5.8
			C1212.9,238.6,1214.9,240.6,1216.6,243.1z"/>
		<path class="st4" d="M1097.3,172c-2.1-1.6-4.1-3.3-5.8-5.3c-2.1-1.6-3.7-3.7-5.3-6.2c2.1,1.2,4.1,3.3,6.2,5.3
			C1094.1,167.8,1096.1,169.9,1097.3,172z"/>
		<path class="st4" d="M1122.8,145.2c-2.1-1.2-4.1-3.3-5.8-4.9c-2.1-1.6-3.7-3.7-4.9-5.8c2.1,1.2,4.1,2.9,5.8,4.9
			C1120,140.7,1121.6,142.8,1122.8,145.2z"/>
	</g>
</g>
</svg>
