<?xml version="1.0" encoding="utf-8"?>
<!-- Generator: Adobe Illustrator 23.0.1, SVG Export Plug-In . SVG Version: 6.00 Build 0)  -->
<svg version="1.1" id="Слой_1" xmlns="http://www.w3.org/2000/svg" xmlns:xlink="http://www.w3.org/1999/xlink" x="0px" y="0px"
	 viewBox="0 0 3200 2000" style="enable-background:new 0 0 3200 2000;" xml:space="preserve">
<style type="text/css">
	.st0{fill:#EBEBEB;}
	.st1{fill:#C9C9C9;}
	.st2{fill:#E0E0E0;}
	.st3{fill:#EDB22F;}
	.st4{fill:#FFC93C;}
	.st5{fill:#00858E;}
	.st6{fill:#FFB93E;}
	.st7{fill:#FFA412;}
	.st8{fill:#FFEDDC;}
	.st9{fill:#DB6A1D;}
	.st10{fill:#E5C1A1;}
	.st11{fill:#F9DDBF;}
	.st12{opacity:0.5;fill:#E2810E;enable-background:new    ;}
	.st13{fill:#E2810E;}
	.st14{fill:#2C3A64;}
	.st15{fill:#ED985F;}
	.st16{fill:#007477;}
	.st17{fill:#FFB27D;}
	.st18{fill:#ED975D;}
	.st19{fill:#263238;}
	.st20{fill:#3A4A51;}
</style>
<g>
	<polygon class="st0" points="1460.9,1081.2 1167.6,1398.2 745,1007.3 745,1007.2 567,842.5 860.2,525.5 1192.7,833.1 	"/>
	<g>
		<path class="st1" d="M1393.8,1084.9L1166.1,1331L626.2,831.5l227.7-246.1L1393.8,1084.9z M1186.5,1293.9l171.7-185.6
			c11.7-12.6,10.9-32.3-1.7-43.9l-478.8-443c-12.8-11.9-32.8-11.1-44.7,1.7L662,807.9c-11.8,12.7-11,32.6,1.7,44.3l479.1,443.3
			C1155.4,1307.2,1174.9,1306.4,1186.5,1293.9z"/>
	</g>
	
		<ellipse transform="matrix(0.7071 -0.7071 0.7071 0.7071 -381.7748 994.7988)" class="st1" cx="1009.9" cy="958.2" rx="90.2" ry="90.2"/>
</g>
<g>
	<polygon class="st2" points="1575.9,1022.1 1154.7,1117.4 1027.8,555.8 1027.8,555.8 974.3,319.2 1395.5,224 1495.3,665.8 	"/>
	<g>
		<path class="st1" d="M1518.5,987.2l-327,73.9l-162.2-717.4l327-73.9L1518.5,987.2z M1229.4,1042.1l246.6-55.8
			c16.7-3.8,27.2-20.4,23.5-37.2l-143.8-636.3c-3.8-17-20.8-27.7-37.8-23.9l-245.6,55.5c-16.9,3.8-27.5,20.6-23.7,37.5l143.9,636.7
			C1196.2,1035.4,1212.7,1045.8,1229.4,1042.1z"/>
	</g>
	
		<ellipse transform="matrix(0.7071 -0.7071 0.7071 0.7071 -97.4203 1095.6926)" class="st1" cx="1273.9" cy="665.4" rx="90.2" ry="90.2"/>
</g>
<g>
	<polygon class="st2" points="2414.3,1487.1 1965.2,1329.6 2175.2,730.8 2175.2,730.8 2263.7,478.5 2712.8,636 2547.6,1107.1 	"/>
	<g>
		<path class="st1" d="M2381.1,1420.8l-348.7-122.3l268.3-764.9l348.7,122.3L2381.1,1420.8z M2079,1302.9l262.9,92.2
			c17.9,6.3,37.4-3.1,43.6-21l238-678.5c6.4-18.2-3.2-38.1-21.4-44.4l-261.9-91.9c-18-6.3-37.8,3.2-44.1,21.2l-238.1,678.9
			C2051.9,1277.2,2061.2,1296.7,2079,1302.9z"/>
	</g>
	<path class="st1" d="M2247.1,944.3c18.2-51.8,74.9-79.1,126.7-60.9c51.8,18.2,79.1,74.9,60.9,126.7
		c-18.2,51.8-74.9,79.1-126.7,60.9C2256.2,1052.8,2229,996.1,2247.1,944.3z"/>
</g>
<g>
	<path class="st3" d="M1130.1,1140.5v128.2c0,24.6-20.1,44.6-44.6,44.6h-91.9c-24.5,0-44.6-20.1-44.6-44.6v-128.2
		c0-24.6,20.1-44.6,44.6-44.6h91.9C1110,1095.9,1130.1,1116,1130.1,1140.5z"/>
	<path class="st4" d="M1130.1,1140.5v71.4c0,24.5-20.1,44.6-44.6,44.6h-91.9c-24.5,0-44.6-20.1-44.6-44.6v-71.4
		c0-24.6,20.1-44.6,44.6-44.6h91.9C1110,1095.9,1130.1,1116,1130.1,1140.5z"/>
	<path class="st3" d="M2148,1204.6c0,65.6-13.4,128.2-37.6,185.3c-72.7,171.1-242.7,291.9-439.4,291.9h-136.4
		c-174.1,0-327.3-94.5-410.6-234.8c-42.2-71.1-66.5-154-66.5-242.3c0-65.6,13.4-128.2,37.7-185.3
		c72.7-171.1,242.7-291.8,439.5-291.8h136.4c179,0,335.7,99.9,417.3,246.6C2126.3,1042.6,2148,1121.2,2148,1204.6z"/>
	<path class="st4" d="M2088.2,974.1c11.3,55,2.4,133.7-12.1,175.3c-96.3,276.9-322.6,326.9-553.9,348
		c-164.5,15-398.3-50.6-398.3-50.6c-42.2-71.1-66.5-154-66.5-242.3c0-65.6,13.4-128.2,37.7-185.3
		c72.7-171.1,242.7-291.8,439.5-291.8h136.4C1849.9,727.5,2006.7,827.4,2088.2,974.1z"/>
	<path class="st4" d="M1478.3,847h-187.7c-18.9,0-34.3-11.5-34.3-25.7V565.2c0-4.4,1.4-8.3,3.8-11.8c9.2-13.3,33.3-18.8,51.2-8.6
		c71.3,40.4,188,128.2,201.1,274.9C1513.8,834.5,1498.1,847,1478.3,847z"/>
	<path class="st3" d="M1298.2,847h-7.6c-18.9,0-34.3-11.5-34.3-25.7V565.2c0-4.4,1.4-8.3,3.8-11.8c0.8,0.7,1.6,1.5,2.3,2.3
		c40.8,45.4,99.5,134.5,83,259.4C1343,833.2,1322.6,847,1298.2,847z"/>
	<path class="st5" d="M1199.3,1018.3c0-15.4,12.5-28,28-28s28,12.5,28,28s-12.5,28-28,28S1199.3,1033.8,1199.3,1018.3z"/>
	<path class="st3" d="M1751.6,1479.2l-44.5,289c-5.9,22.4,11,44.3,34.1,44.3h116.9c25.1,0,48-14,59.5-36.3l181.8-362.6
		L1751.6,1479.2z"/>
	<path class="st3" d="M1485.3,1484.1l35.7,284c5.9,22.4-11,44.3-34.1,44.3H1370c-25.1,0-48-14-59.5-36.3l-186.5-329.3L1485.3,1484.1
		z"/>
	<g>
		<path class="st3" d="M2261.7,1334.3c-2.7,0-5.4-0.3-8.1-1.1c-20.7-5.5-32.6-30.2-31-64.6c1.6-33.7,15.7-69.3,38.7-97.7
			c10.2-12.6,21.9-23.5,35.1-32.8c-6.2-10.2-14.6-20-25.8-28.4c-19.1-14.3-38.9-18.5-60.4-12.6c-57.8,15.7-106.8,98.3-110.8,107.6
			c-1.8,5-7.2,7.6-12.3,5.9c-5.1-1.7-7.9-7.2-6.2-12.4c1.7-5.2,16-29.8,36-54.3c34.8-42.6,65.1-58.7,84.5-64.8
			c28.6-8.9,55.9-4,80.9,14.8c12.4,9.3,22.7,20.6,30.6,33.6c19.8-11.1,42.2-18.7,66.5-22.7c5.3-0.9,10.4,2.7,11.2,8.1
			s-2.7,10.4-8.1,11.2c-22.3,3.7-42.8,10.7-60.8,20.9c5.5,13.4,9.1,28.1,10.4,44c2.8,32.7-3.7,68.5-18,98.1
			C2299.7,1317.3,2280.5,1334.3,2261.7,1334.3z M2305.1,1156c-10.6,7.8-20.2,17-28.6,27.3c-20.4,25.2-33,56.6-34.4,86.3
			c-1.1,23.5,5.6,41.9,16.4,44.8c10.9,2.9,26.6-11.8,38.1-35.6c12.6-26.1,18.7-58.9,16.2-87.9
			C2311.9,1180.5,2309.8,1168.3,2305.1,1156z M2099.6,1204.4c0,0.1,0,0.1-0.1,0.2C2099.5,1204.5,2099.6,1204.5,2099.6,1204.4z"/>
	</g>
</g>
<g>
	<g>
		<path class="st6" d="M1470.3,1777.4v18.6c0,1.5-0.5,2.9-1.5,4c-1,1.2-2.4,2.2-4,2.7c-0.5,0.2-1,0.3-1.6,0.4
			c-0.5,0.1-1,0.1-1.5,0.1h-353c-4.3,0-7.8-2.7-8.5-6.1c0-0.2-0.1-0.5-0.1-0.7c0-0.1,0-0.2,0-0.4v-18.6c0-0.1,0-0.2,0-0.4
			c0-0.2,0-0.5,0.1-0.7c0.6-3.4,4.2-6.1,8.5-6.1h353c0.5,0,1,0,1.5,0.1c0.5,0.1,1.1,0.2,1.6,0.4c1.6,0.5,3,1.5,4,2.7
			C1469.8,1774.5,1470.3,1775.9,1470.3,1777.4z"/>
		<path class="st7" d="M1297,1803.2h-189.1c-3.5,0-6.5-2.3-7.3-5.3c-0.1-0.3-0.2-0.5-0.2-0.8c0-0.2-0.1-0.5-0.1-0.7
			c0-0.1,0-0.2,0-0.4v-18.6c0-0.1,0-0.2,0-0.4c0-0.2,0-0.5,0.1-0.7c0.1-0.3,0.1-0.5,0.2-0.8c0.9-3,3.8-5.3,7.3-5.3h165.9
			C1276.4,1779.9,1282.6,1793.3,1297,1803.2z"/>
		<g>
			<rect x="1423.3" y="1770.2" class="st7" width="4" height="33"/>
			<rect x="1409.8" y="1770.2" class="st7" width="4" height="33"/>
			<rect x="1393.5" y="1770.2" class="st7" width="4" height="33"/>
			<rect x="1368.5" y="1770.2" class="st7" width="4" height="33"/>
			<rect x="1342.1" y="1770.2" class="st7" width="4" height="33"/>
			<rect x="1301.7" y="1770.2" class="st7" width="4" height="33"/>
			<rect x="1263.8" y="1770.2" class="st7" width="4" height="33"/>
			<rect x="1229.9" y="1770.2" class="st7" width="4" height="33"/>
			<rect x="1436.3" y="1770.2" class="st7" width="4" height="33"/>
			<rect x="1444.8" y="1770.2" class="st7" width="4" height="33"/>
			<rect x="1453.1" y="1770.2" class="st7" width="4" height="33"/>
			<path class="st7" d="M1463.3,1770.3v32.7c-0.5,0.1-1,0.1-1.5,0.1h-2.5v-33h2.5C1462.3,1770.2,1462.8,1770.2,1463.3,1770.3z"/>
			<path class="st7" d="M1468.8,1773.4v26.6c-1,1.2-2.4,2.2-4,2.7v-32C1466.5,1771.2,1467.9,1772.2,1468.8,1773.4z"/>
		</g>
	</g>
	<g>
		<path class="st6" d="M1432.6,1744.4v18.6c0,1.5-0.5,2.9-1.5,4c-0.2,0.3-0.5,0.6-0.8,0.8c-0.9,0.8-2,1.4-3.2,1.8
			c-0.5,0.2-1,0.3-1.6,0.4c-0.5,0.1-1,0.1-1.5,0.1h-353c-4.3,0-7.8-2.7-8.4-6.1c0-0.2-0.1-0.5-0.1-0.7c0-0.1,0-0.2,0-0.4v-18.6
			c0-0.1,0-0.3,0-0.4c0-0.2,0-0.5,0.1-0.7c0.6-3.4,4.2-6.1,8.4-6.1h353c0.2,0,0.4,0,0.7,0c0.1,0,0.2,0,0.2,0c0,0,0,0,0,0
			c0.1,0,0.2,0,0.3,0c0.1,0,0.1,0,0.2,0c0.5,0.1,1.1,0.2,1.6,0.4c0.3,0.1,0.6,0.2,0.9,0.3h0c0.2,0.1,0.4,0.2,0.6,0.3
			c0.1,0.1,0.2,0.1,0.3,0.2c0.1,0.1,0.2,0.1,0.3,0.2c0.4,0.2,0.7,0.5,1,0.8c0.1,0.1,0.2,0.2,0.3,0.3c0.1,0.1,0.1,0.1,0.2,0.2
			c0,0,0.1,0.1,0.1,0.1l0.1,0.1c0.1,0.1,0.2,0.2,0.3,0.4C1432,1741.6,1432.6,1742.9,1432.6,1744.4z"/>
		<path class="st7" d="M1259.2,1770.2h-189.1c-3.5,0-6.4-2.3-7.3-5.3c-0.1-0.3-0.2-0.5-0.2-0.8c0-0.2-0.1-0.5-0.1-0.7
			c0-0.1,0-0.2,0-0.4v-18.6c0-0.1,0-0.3,0-0.4c0-0.2,0-0.5,0.1-0.7c0.1-0.3,0.1-0.5,0.2-0.8c0.9-3.1,3.8-5.3,7.3-5.3H1236
			c0.1,0.3,0.1,0.5,0.2,0.8C1239,1747.7,1245.2,1760.6,1259.2,1770.2z"/>
		<g>
			<rect x="1385.6" y="1737.3" class="st7" width="4" height="32.9"/>
			<rect x="1372" y="1737.3" class="st7" width="4" height="32.9"/>
			<rect x="1355.7" y="1737.3" class="st7" width="4" height="32.9"/>
			<rect x="1330.8" y="1737.3" class="st7" width="4" height="32.9"/>
			<rect x="1304.4" y="1737.3" class="st7" width="4" height="32.9"/>
			<rect x="1263.9" y="1737.3" class="st7" width="4" height="32.9"/>
			<rect x="1226" y="1737.3" class="st7" width="4" height="32.9"/>
			<rect x="1192.2" y="1737.3" class="st7" width="4" height="32.9"/>
			<rect x="1398.5" y="1737.3" class="st7" width="4" height="32.9"/>
			<rect x="1407.1" y="1737.3" class="st7" width="4" height="32.9"/>
			<rect x="1415.3" y="1737.3" class="st7" width="4" height="32.9"/>
			<path class="st7" d="M1425.5,1737.4v32.7c-0.5,0.1-1,0.1-1.5,0.1h-2.5v-32.9h2.5C1424.5,1737.3,1425,1737.3,1425.5,1737.4z"/>
			<path class="st7" d="M1431.1,1740.4v26.6c-1,1.2-2.4,2.2-4,2.7v-32C1428.7,1738.3,1430.1,1739.2,1431.1,1740.4z"/>
		</g>
	</g>
	<g>
		<path class="st6" d="M1450.8,1712.3v18.6c0,1.5-0.5,2.9-1.5,4c-1,1.2-2.4,2.2-4,2.7c-0.5,0.2-1,0.3-1.6,0.4
			c-0.5,0.1-1,0.1-1.5,0.1h-353c-1.4,0-2.8-0.3-3.9-0.8c-2.3-1-4.1-2.9-4.5-5.2c0-0.2,0-0.3-0.1-0.5c0-0.1,0-0.2,0-0.3
			c0-0.1,0-0.2,0-0.4v-18.6c0-0.1,0-0.2,0-0.4c0-0.2,0-0.5,0.1-0.7c0.6-3.4,4.2-6.1,8.4-6.1h353c0.5,0,1,0,1.5,0.1
			c0.5,0.1,1.1,0.2,1.6,0.4c1.6,0.5,3,1.5,4,2.7C1450.3,1709.4,1450.8,1710.8,1450.8,1712.3z"/>
		<path class="st7" d="M1277.5,1738.1h-189.1c-1.3,0-2.5-0.3-3.5-0.8c-2.1-1-3.6-2.9-4-5.2c0-0.2,0-0.3-0.1-0.5c0-0.1,0-0.2,0-0.3
			c0-0.1,0-0.2,0-0.4v-18.6c0-0.1,0-0.2,0-0.4c0-0.2,0-0.5,0.1-0.7c0.1-0.3,0.1-0.5,0.2-0.8c0.9-3.1,3.8-5.3,7.3-5.3h165.9
			c2.6,9.4,8.5,22.4,22.1,32.1C1276.7,1737.5,1277.1,1737.8,1277.5,1738.1z"/>
		<g>
			<rect x="1403.8" y="1705.1" class="st7" width="4" height="32.9"/>
			<rect x="1390.3" y="1705.1" class="st7" width="4" height="32.9"/>
			<rect x="1374" y="1705.1" class="st7" width="4" height="32.9"/>
			<rect x="1349" y="1705.1" class="st7" width="4" height="32.9"/>
			<rect x="1322.6" y="1705.1" class="st7" width="4" height="32.9"/>
			<rect x="1282.2" y="1705.1" class="st7" width="4" height="32.9"/>
			<rect x="1244.3" y="1705.1" class="st7" width="4" height="32.9"/>
			<rect x="1210.4" y="1705.1" class="st7" width="4" height="32.9"/>
			<rect x="1416.8" y="1705.1" class="st7" width="4" height="32.9"/>
			<rect x="1425.3" y="1705.1" class="st7" width="4" height="32.9"/>
			<rect x="1433.6" y="1705.1" class="st7" width="4" height="32.9"/>
			<path class="st7" d="M1443.8,1705.2v32.7c-0.5,0.1-1,0.1-1.5,0.1h-2.5v-32.9h2.5C1442.8,1705.1,1443.3,1705.2,1443.8,1705.2z"/>
			<path class="st7" d="M1449.3,1708.3v26.6c-1,1.2-2.4,2.2-4,2.7v-32C1447,1706.1,1448.4,1707.1,1449.3,1708.3z"/>
		</g>
	</g>
	<g>
		<path class="st6" d="M1459.3,1679.3v18.6c0,1.5-0.5,2.9-1.5,4c-0.1,0.2-0.3,0.3-0.4,0.4c-0.7,0.7-1.5,1.3-2.4,1.8
			c-0.4,0.2-0.8,0.3-1.2,0.5c-0.5,0.2-1,0.3-1.6,0.4c-0.2,0-0.5,0.1-0.7,0.1s-0.5,0-0.8,0h-353c-4.3,0-7.8-2.7-8.5-6.1
			c0-0.2-0.1-0.5-0.1-0.7v-19.3c0.2-3.5,3.4-6.3,7.5-6.8c0.3,0,0.7-0.1,1-0.1h353c0.3,0,0.5,0,0.8,0s0.5,0,0.7,0.1
			c0.5,0.1,1.1,0.2,1.6,0.4c1.6,0.5,3,1.5,4,2.7C1458.7,1676.5,1459.3,1677.8,1459.3,1679.3z"/>
		<path class="st7" d="M1285.9,1705.1h-189.1c-3.5,0-6.5-2.3-7.3-5.3c-0.1-0.3-0.2-0.5-0.2-0.8c0-0.2-0.1-0.5-0.1-0.7V1679
			c0.2-3.5,3.1-6.3,6.7-6.8c0.3,0,0.6-0.1,0.9-0.1h165.9c0,0,0,0,0,0.1C1265.4,1681.9,1271.5,1695.3,1285.9,1705.1z"/>
		<g>
			<rect x="1412.3" y="1672.2" class="st7" width="4" height="32.9"/>
			<rect x="1398.7" y="1672.2" class="st7" width="4" height="32.9"/>
			<rect x="1382.4" y="1672.2" class="st7" width="4" height="32.9"/>
			<rect x="1357.5" y="1672.2" class="st7" width="4" height="32.9"/>
			<rect x="1331.1" y="1672.2" class="st7" width="4" height="32.9"/>
			<rect x="1290.6" y="1672.2" class="st7" width="4" height="32.9"/>
			<rect x="1252.7" y="1672.2" class="st7" width="4" height="32.9"/>
			<rect x="1218.9" y="1672.2" class="st7" width="4" height="32.9"/>
			<rect x="1425.2" y="1672.2" class="st7" width="4" height="32.9"/>
			<rect x="1433.8" y="1672.2" class="st7" width="4" height="32.9"/>
			<rect x="1442" y="1672.2" class="st7" width="4" height="32.9"/>
			<path class="st7" d="M1452.2,1672.3v32.7c-0.5,0.1-1,0.1-1.5,0.1h-2.5v-33h2.5C1451.2,1672.2,1451.7,1672.2,1452.2,1672.3z"/>
			<path class="st7" d="M1457.8,1675.3v26.6c-1,1.2-2.4,2.2-4,2.7v-32C1455.4,1673.2,1456.8,1674.1,1457.8,1675.3z"/>
		</g>
	</g>
	<g>
		<path class="st6" d="M1433.3,1646.4v18.6c0,1.5-0.5,2.9-1.5,4c-1,1.2-2.4,2.2-4,2.7c-0.5,0.2-1,0.3-1.6,0.4
			c-0.2,0-0.3,0.1-0.5,0.1h-0.1c-0.1,0-0.2,0-0.3,0c-0.1,0-0.1,0-0.2,0c-0.2,0-0.3,0-0.4,0h-353c-4.6,0-8.3-3-8.5-6.8
			c0-0.1,0-0.2,0-0.4v-18.6c0-0.1,0-0.3,0-0.4c0-0.1,0-0.2,0-0.3c0.3-3,3-5.6,6.4-6.3c0.1,0,0.2,0,0.3-0.1c0.6-0.1,1.2-0.2,1.8-0.2
			h353c0.3,0,0.5,0,0.8,0c0.1,0,0.2,0,0.3,0c0,0,0,0,0,0h0c0.1,0,0.3,0,0.4,0.1c0.5,0.1,1.1,0.2,1.6,0.4c1.6,0.5,3,1.5,4,2.7
			C1432.8,1643.6,1433.3,1644.9,1433.3,1646.4z"/>
		<path class="st7" d="M1260,1672.2h-189.1c-4.1,0-7.4-3-7.6-6.8c0-0.1,0-0.2,0-0.4v-18.6c0-0.1,0-0.3,0-0.4c0-0.1,0-0.2,0-0.3
			c0.3-3.1,2.8-5.7,5.9-6.3c0.1,0,0.2-0.1,0.3-0.1c0.4-0.1,0.9-0.1,1.4-0.1h165.9c0,0.1,0,0.2,0.1,0.2
			C1239.5,1649.1,1245.6,1662.4,1260,1672.2C1259.9,1672.2,1259.9,1672.2,1260,1672.2z"/>
		<g>
			<rect x="1386.3" y="1639.3" class="st7" width="4" height="32.9"/>
			<rect x="1372.8" y="1639.3" class="st7" width="4" height="32.9"/>
			<rect x="1356.5" y="1639.3" class="st7" width="4" height="32.9"/>
			<rect x="1331.5" y="1639.3" class="st7" width="4" height="32.9"/>
			<rect x="1305.1" y="1639.3" class="st7" width="4" height="32.9"/>
			<rect x="1264.7" y="1639.3" class="st7" width="4" height="32.9"/>
			<rect x="1226.8" y="1639.3" class="st7" width="4" height="32.9"/>
			<rect x="1192.9" y="1639.3" class="st7" width="4" height="32.9"/>
			<rect x="1399.3" y="1639.3" class="st7" width="4" height="32.9"/>
			<rect x="1407.8" y="1639.3" class="st7" width="4" height="32.9"/>
			<rect x="1416.1" y="1639.3" class="st7" width="4" height="32.9"/>
			<path class="st7" d="M1426.3,1639.4v32.7c-0.5,0.1-1,0.1-1.5,0.1h-2.5v-33h2.5C1425.3,1639.3,1425.8,1639.3,1426.3,1639.4z"/>
			<path class="st7" d="M1431.8,1642.4v26.6c-1,1.2-2.4,2.2-4,2.7v-32C1429.5,1640.3,1430.9,1641.2,1431.8,1642.4z"/>
		</g>
	</g>
	<g>
		<path class="st6" d="M1432.6,1613.7v18.6c0,1.5-0.5,2.9-1.5,4c-0.2,0.3-0.5,0.6-0.8,0.9c-0.9,0.8-2,1.4-3.2,1.8
			c-0.4,0.1-0.8,0.2-1.2,0.3h0c0,0,0,0,0,0c-0.1,0-0.2,0-0.3,0.1c-0.5,0.1-1,0.1-1.5,0.1h-353c-0.4,0-0.7,0-1.1-0.1
			c-0.1,0-0.3,0-0.4-0.1c-3.6-0.6-6.4-3-6.9-6.1c0-0.2-0.1-0.4-0.1-0.6c0-0.1,0-0.3,0-0.4v-18.6c0-0.1,0-0.3,0-0.4
			c0-0.2,0-0.5,0.1-0.7c0.6-3.4,4.2-6.1,8.4-6.1h353c0.2,0,0.4,0,0.7,0c0,0,0.1,0,0.1,0c0.1,0,0.1,0,0.2,0c0.1,0,0.2,0,0.3,0
			c0.1,0,0.1,0,0.2,0c0.5,0.1,1.1,0.2,1.6,0.4c0.3,0.1,0.6,0.2,0.9,0.3h0c1.1,0.5,2.1,1.2,2.8,2c0.1,0.1,0.2,0.2,0.3,0.4
			C1432,1610.8,1432.6,1612.2,1432.6,1613.7z"/>
		<path class="st7" d="M1259.2,1639.5h-189.1c-0.1,0-0.3,0-0.4,0c-0.2,0-0.3,0-0.5,0c-3.4-0.4-6.2-2.9-6.6-6.1
			c0-0.2-0.1-0.4-0.1-0.6c0-0.1,0-0.3,0-0.4v-18.6c0-0.1,0-0.3,0-0.4c0-0.2,0-0.5,0.1-0.7c0.1-0.3,0.1-0.5,0.2-0.8
			c0.9-3.1,3.8-5.3,7.3-5.3H1236c0.1,0.3,0.1,0.5,0.2,0.8c2.8,9.6,8.9,22.4,22.7,31.9C1259,1639.3,1259.1,1639.4,1259.2,1639.5z"/>
		<g>
			<rect x="1385.6" y="1606.5" class="st7" width="4" height="32.9"/>
			<rect x="1372" y="1606.5" class="st7" width="4" height="32.9"/>
			<rect x="1355.7" y="1606.5" class="st7" width="4" height="32.9"/>
			<rect x="1330.8" y="1606.5" class="st7" width="4" height="32.9"/>
			<rect x="1304.4" y="1606.5" class="st7" width="4" height="32.9"/>
			<rect x="1263.9" y="1606.5" class="st7" width="4" height="32.9"/>
			<rect x="1226" y="1606.5" class="st7" width="4" height="32.9"/>
			<rect x="1192.2" y="1606.5" class="st7" width="4" height="32.9"/>
			<rect x="1398.5" y="1606.5" class="st7" width="4" height="32.9"/>
			<rect x="1407.1" y="1606.5" class="st7" width="4" height="32.9"/>
			<rect x="1415.3" y="1606.5" class="st7" width="4" height="32.9"/>
			<path class="st7" d="M1425.5,1606.6v32.7c-0.5,0.1-1,0.1-1.5,0.1h-2.5v-32.9h2.5C1424.5,1606.5,1425,1606.6,1425.5,1606.6z"/>
			<path class="st7" d="M1431.1,1609.7v26.6c-1,1.2-2.4,2.2-4,2.7v-32C1428.7,1607.5,1430.1,1608.5,1431.1,1609.7z"/>
		</g>
	</g>
	<g>
		<path class="st6" d="M1450.8,1581.6v18.6c0,1.5-0.5,2.9-1.5,4c-1,1.2-2.4,2.2-4,2.7c-0.5,0.2-1,0.3-1.6,0.4
			c-0.5,0.1-1,0.1-1.5,0.1h-353c-1.4,0-2.8-0.3-3.9-0.8c-2.3-1-4.1-2.9-4.5-5.2c0-0.2,0-0.3-0.1-0.5c0-0.1,0-0.2,0-0.3
			c0-0.1,0-0.2,0-0.4v-18.6c0-0.1,0-0.3,0-0.4c0-0.2,0-0.5,0.1-0.7c0.6-3.4,4.2-6.1,8.4-6.1h353c0.5,0,1,0,1.5,0.1
			c0.5,0.1,1.1,0.2,1.6,0.4c1.6,0.5,3,1.5,4,2.7C1450.3,1578.7,1450.8,1580.1,1450.8,1581.6z"/>
		<path class="st7" d="M1277.5,1607.3h-189.1c-1.3,0-2.5-0.3-3.5-0.8c-2.1-1-3.6-2.9-4-5.2c0-0.2,0-0.3-0.1-0.5c0-0.1,0-0.2,0-0.3
			c0-0.1,0-0.2,0-0.4v-18.6c0-0.1,0-0.3,0-0.4c0-0.2,0-0.5,0.1-0.7c0.1-0.3,0.1-0.5,0.2-0.8c0.9-3.1,3.8-5.3,7.3-5.3h165.9
			c2.6,9.4,8.5,22.4,22.1,32.1C1276.7,1606.8,1277.1,1607.1,1277.5,1607.3z"/>
		<g>
			<rect x="1403.8" y="1574.4" class="st7" width="4" height="32.9"/>
			<rect x="1390.3" y="1574.4" class="st7" width="4" height="32.9"/>
			<rect x="1374" y="1574.4" class="st7" width="4" height="32.9"/>
			<rect x="1349" y="1574.4" class="st7" width="4" height="32.9"/>
			<rect x="1322.6" y="1574.4" class="st7" width="4" height="32.9"/>
			<rect x="1282.2" y="1574.4" class="st7" width="4" height="32.9"/>
			<rect x="1244.3" y="1574.4" class="st7" width="4" height="32.9"/>
			<rect x="1210.4" y="1574.4" class="st7" width="4" height="32.9"/>
			<rect x="1416.8" y="1574.4" class="st7" width="4" height="32.9"/>
			<rect x="1425.3" y="1574.4" class="st7" width="4" height="32.9"/>
			<rect x="1433.6" y="1574.4" class="st7" width="4" height="32.9"/>
			<path class="st7" d="M1443.8,1574.5v32.7c-0.5,0.1-1,0.1-1.5,0.1h-2.5v-32.9h2.5C1442.8,1574.4,1443.3,1574.4,1443.8,1574.5z"/>
			<path class="st7" d="M1449.3,1577.6v26.6c-1,1.2-2.4,2.2-4,2.7v-32C1447,1575.4,1448.4,1576.3,1449.3,1577.6z"/>
		</g>
	</g>
	<g>
		<path class="st6" d="M1479.7,1548.6v18.6c0,1.5-0.5,2.8-1.5,4l0,0c-0.1,0.2-0.3,0.3-0.4,0.4c-0.5,0.6-1.2,1.1-1.9,1.5
			c-0.3,0.2-0.7,0.4-1.1,0.5c0,0,0,0,0,0c-0.2,0.1-0.4,0.2-0.6,0.2c-0.5,0.2-1,0.3-1.6,0.4c-0.5,0.1-1,0.1-1.5,0.1h-353
			c-4.3,0-7.8-2.7-8.4-6.1c0-0.2-0.1-0.5-0.1-0.7c0-0.1,0-0.2,0-0.4v-18.6c0-0.1,0-0.2,0-0.4c0.2-3.5,3.4-6.3,7.5-6.8
			c0.3,0,0.7-0.1,1-0.1h353c0.5,0,1,0,1.5,0.1c0.5,0.1,1.1,0.2,1.6,0.4c1.4,0.5,2.7,1.3,3.6,2.2c0.1,0.1,0.3,0.3,0.4,0.4l0,0
			C1479.1,1545.8,1479.7,1547.1,1479.7,1548.6z"/>
		<path class="st7" d="M1306.3,1574.4h-189.1c-3.5,0-6.5-2.3-7.3-5.3c-0.1-0.3-0.2-0.5-0.2-0.8c0-0.2-0.1-0.5-0.1-0.7
			c0-0.1,0-0.2,0-0.4v-18.6c0-0.1,0-0.2,0-0.4c0.2-3.5,3.1-6.3,6.7-6.8c0.3,0,0.6-0.1,0.9-0.1h165.9c0,0,0,0,0,0.1
			C1285.8,1551.2,1291.9,1564.6,1306.3,1574.4z"/>
		<g>
			<rect x="1432.7" y="1541.4" class="st7" width="4" height="32.9"/>
			<rect x="1419.1" y="1541.4" class="st7" width="4" height="32.9"/>
			<rect x="1402.8" y="1541.4" class="st7" width="4" height="32.9"/>
			<rect x="1377.9" y="1541.4" class="st7" width="4" height="32.9"/>
			<rect x="1351.5" y="1541.4" class="st7" width="4" height="32.9"/>
			<rect x="1311" y="1541.4" class="st7" width="4" height="32.9"/>
			<rect x="1273.1" y="1541.4" class="st7" width="4" height="32.9"/>
			<rect x="1239.3" y="1541.4" class="st7" width="4" height="32.9"/>
			<rect x="1445.6" y="1541.4" class="st7" width="4" height="32.9"/>
			<rect x="1454.2" y="1541.4" class="st7" width="4" height="32.9"/>
			<rect x="1462.4" y="1541.4" class="st7" width="4" height="32.9"/>
			<path class="st7" d="M1472.6,1541.6v32.7c-0.5,0.1-1,0.1-1.5,0.1h-2.5v-32.9h2.5C1471.6,1541.4,1472.1,1541.5,1472.6,1541.6z"/>
			<path class="st7" d="M1478.2,1544.6v26.6c-1,1.2-2.4,2.2-4,2.7v-32C1475.8,1542.4,1477.2,1543.4,1478.2,1544.6z"/>
		</g>
	</g>
	<g>
		<path class="st6" d="M1433.3,1515.7v18.6c0,1.5-0.5,2.9-1.5,4c-1,1.2-2.4,2.2-4,2.7c-0.5,0.2-1,0.3-1.6,0.4c-0.2,0-0.3,0-0.5,0.1
			h-0.1c-0.1,0-0.2,0-0.3,0c-0.1,0-0.1,0-0.2,0c-0.1,0-0.3,0-0.4,0h-353c-3.1,0-5.8-1.4-7.3-3.4c-0.7-1-1.2-2.2-1.3-3.4
			c0-0.1,0-0.3,0-0.4v-18.6c0-0.1,0-0.3,0-0.4c0.2-3.1,2.7-5.6,6.1-6.5c0.8-0.2,1.6-0.3,2.5-0.3h353c0.2,0,0.3,0,0.4,0
			c0.1,0,0.2,0,0.2,0c0.3,0,0.6,0,0.8,0.1c0.5,0.1,1.1,0.2,1.6,0.4c0.3,0.1,0.5,0.2,0.7,0.3h0c0.9,0.4,1.8,0.9,2.5,1.6c0,0,0,0,0,0
			c0,0,0.1,0.1,0.1,0.1c0.2,0.2,0.5,0.5,0.7,0.7C1432.8,1512.8,1433.3,1514.2,1433.3,1515.7z"/>
		<path class="st7" d="M1260,1541.5h-189.1c-2.7,0-5-1.3-6.4-3.3c-0.7-1-1.2-2.3-1.3-3.6c0-0.1,0-0.3,0-0.4v-18.6c0-0.1,0-0.3,0-0.4
			c0.2-3.3,2.7-6,6.1-6.7c0.5-0.1,1-0.2,1.5-0.2h165.9c0.1,0.3,0.1,0.5,0.2,0.8C1239.7,1518.9,1245.9,1531.8,1260,1541.5
			C1259.9,1541.4,1259.9,1541.5,1260,1541.5z"/>
		<g>
			<rect x="1386.3" y="1508.5" class="st7" width="4" height="32.9"/>
			<rect x="1372.8" y="1508.5" class="st7" width="4" height="32.9"/>
			<rect x="1356.5" y="1508.5" class="st7" width="4" height="32.9"/>
			<rect x="1331.5" y="1508.5" class="st7" width="4" height="32.9"/>
			<rect x="1305.1" y="1508.5" class="st7" width="4" height="32.9"/>
			<rect x="1264.7" y="1508.5" class="st7" width="4" height="32.9"/>
			<rect x="1226.8" y="1508.5" class="st7" width="4" height="32.9"/>
			<rect x="1192.9" y="1508.5" class="st7" width="4" height="32.9"/>
			<rect x="1399.3" y="1508.5" class="st7" width="4" height="32.9"/>
			<rect x="1407.8" y="1508.5" class="st7" width="4" height="32.9"/>
			<rect x="1416.1" y="1508.5" class="st7" width="4" height="32.9"/>
			<path class="st7" d="M1426.3,1508.6v32.7c-0.5,0.1-1,0.1-1.5,0.1h-2.5v-33h2.5C1425.3,1508.5,1425.8,1508.6,1426.3,1508.6z"/>
			<path class="st7" d="M1431.8,1511.7v26.6c-1,1.2-2.4,2.2-4,2.7v-32C1429.5,1509.5,1430.9,1510.5,1431.8,1511.7z"/>
		</g>
	</g>
	<g>
		<path class="st6" d="M1459.3,1483.5v18.6c0,1.5-0.5,2.9-1.5,4c-1,1.2-2.4,2.2-4,2.7c-0.5,0.2-1,0.3-1.6,0.4
			c-0.5,0.1-1,0.1-1.5,0.1h-353c-1.4,0-2.7-0.3-3.8-0.8c-2.6-1.1-4.4-3.2-4.7-5.8c0-0.1,0-0.2,0-0.3c0-0.1,0-0.3,0-0.4v-18.6
			c0-0.1,0-0.3,0-0.4c0.2-3.5,3.4-6.3,7.5-6.8c0.3,0,0.7-0.1,1-0.1h353c0.5,0,1,0,1.5,0.1c0.5,0.1,1.1,0.2,1.6,0.4
			c1.6,0.5,3,1.5,4,2.7C1458.7,1480.7,1459.3,1482,1459.3,1483.5z"/>
		<path class="st7" d="M1285.9,1509.3h-189.1c-1.2,0-2.4-0.3-3.4-0.8c-2.3-1.1-3.9-3.2-4.2-5.8c0-0.1,0-0.2,0-0.3c0-0.1,0-0.3,0-0.4
			v-18.6c0-0.1,0-0.3,0-0.4c0.2-3.5,3.1-6.3,6.7-6.8c0.3,0,0.6-0.1,0.9-0.1h165.9c0,0,0,0,0,0.1c2.6,9.4,8.5,22.4,22.1,32.1
			C1285.2,1508.8,1285.6,1509,1285.9,1509.3z"/>
		<g>
			<rect x="1412.3" y="1476.3" class="st7" width="4" height="33"/>
			<rect x="1398.7" y="1476.3" class="st7" width="4" height="33"/>
			<rect x="1382.4" y="1476.3" class="st7" width="4" height="33"/>
			<rect x="1357.5" y="1476.3" class="st7" width="4" height="33"/>
			<rect x="1331.1" y="1476.3" class="st7" width="4" height="33"/>
			<rect x="1290.6" y="1476.3" class="st7" width="4" height="33"/>
			<rect x="1252.7" y="1476.3" class="st7" width="4" height="33"/>
			<rect x="1218.9" y="1476.3" class="st7" width="4" height="33"/>
			<rect x="1425.2" y="1476.3" class="st7" width="4" height="33"/>
			<rect x="1433.8" y="1476.3" class="st7" width="4" height="33"/>
			<rect x="1442" y="1476.3" class="st7" width="4" height="33"/>
			<path class="st7" d="M1452.2,1476.4v32.7c-0.5,0.1-1,0.1-1.5,0.1h-2.5v-33h2.5C1451.2,1476.3,1451.7,1476.4,1452.2,1476.4z"/>
			<path class="st7" d="M1457.8,1479.5v26.6c-1,1.2-2.4,2.2-4,2.7v-32C1455.4,1477.3,1456.8,1478.3,1457.8,1479.5z"/>
		</g>
	</g>
	<g>
		<path class="st6" d="M1470.3,1450.6v18.6c0,1.5-0.5,2.9-1.5,4c-1,1.2-2.4,2.2-4,2.7c-0.5,0.2-1,0.3-1.6,0.4
			c-0.2,0-0.3,0.1-0.5,0.1c-0.1,0-0.2,0-0.3,0c-0.1,0-0.2,0-0.3,0c-0.2,0-0.3,0-0.4,0h-353c-4.6,0-8.3-3-8.5-6.8c0-0.1,0-0.3,0-0.4
			v-18.6c0-0.1,0-0.3,0-0.4c0.2-3.8,4-6.8,8.5-6.8h353c0.5,0,1,0,1.5,0.1c0.5,0.1,1.1,0.2,1.6,0.4c1.6,0.5,3,1.5,4,2.7
			C1469.8,1447.8,1470.3,1449.1,1470.3,1450.6z"/>
		<path class="st7" d="M1297,1476.4h-189.1c-4.1,0-7.4-3-7.6-6.8c0-0.1,0-0.3,0-0.4v-18.6c0-0.1,0-0.3,0-0.4
			c0.2-3.8,3.6-6.8,7.6-6.8h165.9C1276.4,1453.1,1282.6,1466.5,1297,1476.4C1296.9,1476.3,1296.9,1476.4,1297,1476.4z"/>
		<g>
			<rect x="1423.3" y="1443.4" class="st7" width="4" height="32.9"/>
			<rect x="1409.8" y="1443.4" class="st7" width="4" height="32.9"/>
			<rect x="1393.5" y="1443.4" class="st7" width="4" height="32.9"/>
			<rect x="1368.5" y="1443.4" class="st7" width="4" height="32.9"/>
			<rect x="1342.1" y="1443.4" class="st7" width="4" height="32.9"/>
			<rect x="1301.7" y="1443.4" class="st7" width="4" height="32.9"/>
			<rect x="1263.8" y="1443.4" class="st7" width="4" height="32.9"/>
			<rect x="1229.9" y="1443.4" class="st7" width="4" height="32.9"/>
			<rect x="1436.3" y="1443.4" class="st7" width="4" height="32.9"/>
			<rect x="1444.8" y="1443.4" class="st7" width="4" height="32.9"/>
			<rect x="1453.1" y="1443.4" class="st7" width="4" height="32.9"/>
			<path class="st7" d="M1463.3,1443.6v32.7c-0.5,0.1-1,0.1-1.5,0.1h-2.5v-32.9h2.5C1462.3,1443.4,1462.8,1443.5,1463.3,1443.6z"/>
			<path class="st7" d="M1468.8,1446.6v26.6c-1,1.2-2.4,2.2-4,2.7v-32C1466.5,1444.4,1467.9,1445.4,1468.8,1446.6z"/>
		</g>
	</g>
</g>
<g>
	<path class="st8" d="M1358.4,1255.6c0,0-18.5,26.1-35.5,26.5c-17,0.4-42.9-12.1-42.9-12.1s-15.6-34.8-5-48.4c0,0,10.6-4.7,21.7,3.6
		c1.9,1.4,3.8,3.2,5.8,5.5c2.7,3.2,5.7,5.1,8.9,6.1c12.1,3.7,26.5-5,31.9,3.4c3.2,4.9,6.6,8.5,9.4,11.1
		C1356,1254.2,1358.4,1255.6,1358.4,1255.6z"/>
	<path class="st8" d="M1116.7,1443.9c0,0,65.5-158.8,183.5-161.8c0,0,108.9,12.1,114.9,161.8L1116.7,1443.9L1116.7,1443.9z"/>
	<path class="st9" d="M1267.9,1286.9c0,0,47.3,10.5,61.9,4.3c0,0,2.2-19.8-17.7-17c-13.6,1.9-22.5-4.7-27.7-7.3
		C1276.9,1263.2,1265.9,1278.7,1267.9,1286.9z"/>
	<path class="st10" d="M1309,1257.2c-3,2.3-12.3-32-12.3-32c1.9,1.4,3.8,3.2,5.8,5.5c2.7,3.2,5.7,5.1,8.9,6.1
		C1311.4,1237.7,1312,1254.9,1309,1257.2z"/>
	<path class="st10" d="M1352.7,1251.2c-0.7,0.4-22.5,13.5-25.5,13.5c-3,0,16.1-24.6,16.1-24.6
		C1346.4,1245,1349.8,1248.7,1352.7,1251.2z"/>
	<path class="st11" d="M1180.7,1399.6c-1.2-1,46.4-70.1,59.5-70.6s42.6,15.1,63.9,17.1s42-4,46,8.6s15.1,57.3,8.3,64.4
		C1351.6,1426.3,1206.9,1421.9,1180.7,1399.6z"/>
</g>
<g>
	<path class="st6" d="M1641.7,819.9c-3,2.3-6.2,4.5-9.5,6.5c-1.3,0.8-2.6,1.5-3.9,2.3c-3.4,1.9-6.8,3.5-10.3,5c-1-0.2-2-0.3-3-0.5
		c-6.3-1.1-12.6-2-18.8-2.9c-3.1-0.4-6.1-0.9-9.1-1.3c-12.6-1.7-24.7-3-36.3-4.1c-3.1-0.3-6.2-0.6-9.2-0.8c-2.4-0.2-4.7-0.4-7.1-0.5
		c-5.7-0.4-11.2-0.8-16.5-1.1c-7.4-5.3-14.3-11.6-20.2-18.8c-3.9-4.8-7.5-10.1-10.6-15.7c-27.7-50.2-9.4-113.3,40.8-141
		c1.3-0.7,2.7-1.4,4-2.1c49.5-24.6,110.1-6,137,42.9C1694.1,733.2,1681.5,789.2,1641.7,819.9z"/>
	<g>
		<path class="st7" d="M1660.2,694c-24.8-44.9-81.4-61.3-126.3-36.6c-30.7,16.9-48.1,48.8-48.1,81.6c0,15.2,3.7,30.5,11.6,44.8
			c4.2,7.7,9.4,14.5,15.3,20.5c8.4,8.5,18.4,15.2,29.1,19.9c3,0.2,6.1,0.5,9.2,0.8c-12.7-4.1-24.6-11-34.5-20.5
			c-6.6-6.2-12.3-13.5-16.9-21.9c-24.1-43.7-8.1-98.8,35.6-122.9c43.7-24.1,98.8-8.1,122.9,35.5c23.6,42.9,8.7,96.8-33.1,121.5
			c-0.8,0.5-1.6,0.9-2.4,1.4c-11.3,6.2-23.3,9.8-35.3,10.9c3,0.4,6,0.8,9.1,1.3c9.4-1.8,18.7-5.1,27.5-9.9c1.7-0.9,3.3-1.9,4.9-2.9
			C1669.7,791.4,1684,737.3,1660.2,694z"/>
	</g>
	<g>
		<path class="st7" d="M1624.4,748c-1.8-4.4-4.1-7.9-6.9-10.5c-2.8-2.6-6.2-4.5-9.9-5.8c-3.8-1.3-8-2.1-12.6-2.4
			c-4.6-0.3-9.7-0.3-15.1-0.2c-3.4,0.1-6.2,0-8.6-0.2c-2.4-0.2-4.4-0.7-6.1-1.3c-1.7-0.7-3-1.6-4.1-2.8c-1-1.2-1.9-2.6-2.6-4.3
			c-0.7-1.7-1.1-3.3-1.2-5c-0.1-1.6,0.1-3.2,0.7-4.7c0.6-1.5,1.6-2.8,2.9-4.1c1.3-1.3,3.1-2.3,5.3-3.2c4.1-1.6,7.8-1.6,11.3,0.1
			c3.5,1.7,6.4,5.3,8.6,10.7l21.1-8.6c-1.8-4.5-4.2-8.4-6.9-11.5c-2.8-3.1-5.9-5.5-9.4-7.2c-3.5-1.7-7.3-2.7-11.3-3
			s-8.3,0.1-12.8,1.3l-6-14.7l-11.7,4.8l5.9,14.5c-4.2,2.2-7.8,4.7-10.7,7.7c-2.9,2.9-5.2,6-6.8,9.4c-1.6,3.4-2.4,6.9-2.5,10.7
			s0.7,7.5,2.2,11.4c1.8,4.4,4.1,8,7,10.5c2.8,2.6,6.1,4.5,9.9,5.8c3.8,1.3,7.9,2,12.6,2.3c4.7,0.3,9.7,0.2,15.2,0
			c3.2-0.2,5.9-0.2,8.3,0.1c2.3,0.2,4.3,0.7,6,1.3c1.7,0.7,3.1,1.6,4.2,2.9c1.1,1.2,2.1,2.8,2.8,4.7c0.7,1.7,1,3.3,1,5
			c0,1.7-0.4,3.3-1.1,4.8c-0.8,1.5-1.9,2.9-3.3,4.2c-1.5,1.3-3.4,2.4-5.7,3.3c-2,0.8-4.1,1.3-6.2,1.6s-4.2,0.1-6.3-0.6
			c-2-0.7-3.9-1.9-5.7-3.7c-1.8-1.8-3.3-4.3-4.6-7.5l-21.2,8.6c2.2,5.4,5,9.8,8.3,12.9c3.3,3.2,7,5.5,10.9,6.8c4,1.4,8.1,2,12.4,1.8
			c4.3-0.2,8.6-0.9,12.8-2.1l5.5,13.5l11.6-4.7l-5.5-13.5c4.2-2.2,7.8-4.7,10.9-7.6c3-2.9,5.3-6,6.9-9.3c1.6-3.3,2.4-6.9,2.6-10.6
			C1626.8,755.8,1626.1,752,1624.4,748z"/>
	</g>
</g>
<path class="st12" d="M1217.1,1682.1c-18.8,54.5-65.8,95.3-116.9,109.8v-14.5c0-0.1,0-0.2,0-0.4c0-0.2,0-0.5,0.1-0.7
	c0.1-0.3,0.1-0.5,0.2-0.8c0.9-3,3.8-5.3,7.3-5.3h-37.8c-3.5,0-6.4-2.3-7.3-5.3c-0.1-0.3-0.2-0.5-0.2-0.8c0-0.2-0.1-0.5-0.1-0.7
	c0-0.1,0-0.2,0-0.4v-18.6c0-0.1,0-0.3,0-0.4c0-0.2,0-0.5,0.1-0.7c0.1-0.3,0.1-0.5,0.2-0.8c0.9-3.1,3.8-5.3,7.3-5.3h14.7
	c-2.1-1-3.6-2.9-4-5.2c0-0.2,0-0.3-0.1-0.5c0-0.1,0-0.2,0-0.3c0-0.1,0-0.2,0-0.4v-18.6c0-0.1,0-0.2,0-0.4c0-0.2,0-0.5,0.1-0.7
	c0.1-0.3,0.1-0.5,0.2-0.8c0.9-3.1,3.8-5.3,7.3-5.3h8.5c-3.5,0-6.5-2.3-7.3-5.3c-0.1-0.3-0.2-0.5-0.2-0.8c0-0.2-0.1-0.5-0.1-0.7V1679
	c0.2-3.5,3.1-6.3,6.7-6.8h-25c-4.1,0-7.4-3-7.6-6.8c0-0.1,0-0.2,0-0.4v-18.6c0-0.1,0-0.3,0-0.4c0-0.1,0-0.2,0-0.3
	c0.3-3.1,2.8-5.7,5.9-6.3c-3.4-0.4-6.2-2.9-6.6-6.1c0-0.2-0.1-0.4-0.1-0.6c0-0.1,0-0.3,0-0.4v-18.6c0-0.1,0-0.3,0-0.4
	c0-0.2,0-0.5,0.1-0.7c0.1-0.3,0.1-0.5,0.2-0.8c0.9-3.1,3.8-5.3,7.3-5.3h14.7c-2.1-1-3.6-2.9-4-5.2c0-0.2,0-0.3-0.1-0.5
	c0-0.1,0-0.2,0-0.3c0-0.1,0-0.2,0-0.4v-18.6c0-0.1,0-0.3,0-0.4c0-0.2,0-0.5,0.1-0.7c0.1-0.3,0.1-0.5,0.2-0.8
	c0.9-3.1,3.8-5.3,7.3-5.3h28.8c-3.5,0-6.5-2.3-7.3-5.3c-0.1-0.3-0.2-0.5-0.2-0.8c0-0.2-0.1-0.5-0.1-0.7c0-0.1,0-0.2,0-0.4v-18.6
	c0-0.1,0-0.2,0-0.4c0.2-3.5,3.1-6.3,6.7-6.8h-45.4c-2.7,0-5-1.3-6.4-3.3l0-0.2l4.8-29.2l0-0.2l6.8-41.7
	c79.5,10.6,139.1,70.9,148.4,143.7C1227.5,1634.4,1225.1,1658.9,1217.1,1682.1z"/>
<ellipse transform="matrix(0.7071 -0.7071 0.7071 0.7071 -850.4101 1191.4011)" class="st13" cx="1012.9" cy="1622.2" rx="173.6" ry="173.6"/>
<path class="st6" d="M1090,1777.8c-2.1,1.3-4.3,2.6-6.5,3.8c-0.8,0.4-1.5,0.8-2.3,1.2c-1.7,0.9-3.4,1.8-5.2,2.7
	c-82.7,40.6-183.5,9.4-228.5-72.1c-42.9-77.8-19.8-174.1,50.5-224.7c5.6-4,11.5-7.8,17.7-11.2c2.2-1.2,4.5-2.4,6.7-3.5
	c2.2-1.1,4.4-2.1,6.6-3.1c6.8-3,13.7-5.6,20.7-7.7c10.4-3.1,20.9-5.2,31.4-6.3c32.7-3.5,65.6,2.5,94.8,16.8
	c31,15.1,57.7,39.6,75.6,72.1C1196.8,1627.5,1169.1,1729.8,1090,1777.8z"/>
<g>
	<path class="st7" d="M1000.9,1787c-14.5,0-29.1-2.1-43.5-6.2c-39.9-11.6-73-37.9-93-74.3s-24.8-78.4-13.2-118.3
		c11.5-39.9,38-72.9,74.3-93c75.1-41.4,169.9-14,211.3,61.1c41.4,75.1,14,169.9-61.1,211.3C1052.5,1780.4,1026.8,1787,1000.9,1787z
		 M1000.4,1480c-24.7,0-49.7,6-72.8,18.8c-35.4,19.5-61.1,51.7-72.3,90.5s-6.7,79.7,12.8,115.2c19.5,35.4,51.7,61.1,90.5,72.3
		s79.7,6.7,115.2-12.8c73.1-40.3,99.8-132.6,59.5-205.7C1105.7,1508.3,1053.8,1480,1000.4,1480z"/>
</g>
<g>
	<path class="st7" d="M1077.2,1646.5c-0.3-0.9-0.7-1.7-1.1-2.5c-2.8-6.2-6.3-11.2-10.5-15.1c-4.8-4.3-10.3-7.6-16.6-9.8
		c-6.3-2.2-13.3-3.5-21.1-4c-7.8-0.5-16.2-0.6-25.3-0.3c-5.6,0.2-10.5,0.1-14.5-0.3c-4-0.4-7.4-1.1-10.2-2.2c-2.8-1.1-5-2.7-6.8-4.6
		c-1.7-1.9-3.2-4.3-4.3-7.1c-1.1-2.8-1.8-5.6-2-8.3c-0.2-2.8,0.2-5.4,1.2-7.8c1-2.5,2.6-4.8,4.8-6.9c2.2-2.1,5.2-3.9,8.9-5.4
		c6.8-2.8,13.1-2.7,19,0.2s10.7,8.9,14.3,17.9l35.4-14.4c-3.1-7.6-6.9-14-11.6-19.2c-4.6-5.2-9.9-9.3-15.7-12.1
		c-5.8-2.8-12.1-4.5-19-5c-6.8-0.5-14,0.2-21.3,2.2l-10-24.7l-19.6,7.9l9.9,24.3c-7.1,3.7-13.1,7.9-18,12.8
		c-4.9,4.9-8.7,10.1-11.3,15.8c-2.7,5.7-4,11.6-4.2,17.8c-0.1,6.2,1.1,12.6,3.7,19c3,7.4,6.9,13.3,11.7,17.7
		c4.8,4.3,10.3,7.6,16.6,9.7c6.3,2.1,13.3,3.4,21.1,3.8c7.8,0.4,16.2,0.4,25.4,0c5.3-0.3,9.9-0.3,13.8,0.1c3.9,0.4,7.3,1.1,10.1,2.3
		c2.8,1.2,5.2,2.8,7.1,4.8s3.5,4.7,4.8,7.9c1.1,2.8,1.7,5.6,1.7,8.4s-0.6,5.4-1.9,8c-1.3,2.5-3.1,4.9-5.6,7.1s-5.7,4-9.5,5.6
		c-3.3,1.4-6.8,2.3-10.4,2.7c-3.6,0.4-7.1,0.1-10.5-1.1c-3.4-1.1-6.6-3.2-9.6-6.2c-3-3-5.5-7.2-7.7-12.6l-35.4,14.4
		c3.7,9.1,8.3,16.3,13.9,21.6c5.6,5.3,11.7,9.1,18.3,11.4c6.6,2.3,13.6,3.3,20.8,3c7.2-0.3,14.4-1.5,21.4-3.5l9.1,22.5l19.5-7.9
		l-9.2-22.6c7.1-3.7,13.1-7.9,18.2-12.7c4.7-4.4,8.3-9.2,11-14.3c0.2-0.4,0.4-0.8,0.6-1.3c2.7-5.6,4.1-11.5,4.3-17.8
		C1081.2,1659.6,1079.9,1653.1,1077.2,1646.5z"/>
</g>
<g>
	<path class="st14" d="M870.7,1018.3c0.5-2.1-46.3,21.1-48.6,23.8c-21.9,24.3-15.7,56.1-3.1,56.4c8,0.2,6.5,13.6,6.5,13.6l89.7-37.9
		C915.1,1074.1,904.3,1011.1,870.7,1018.3z"/>
	<path class="st14" d="M881.7,1023.2c0,0,3.2-34.9-35.8-34.9c0,0,11.8,3.2,18,9.6c0,0-24.9-14.6-52,7.8
		c-27.1,22.5-10.3,78.8-18.5,89.5c-8.2,10.7-40.3,12.8-36.4,47.4c3.9,34.6,101.8,77.9,95.5,106.5c0,0,38.4-56.4,10.9-82.2
		c0,0,13.4,12.6,14.7,27.6c0,0,3.6-29.2-15-38.6c-16.5-8.3-30-38.5-28.5-43.9C836.1,1106.6,881.7,1023.2,881.7,1023.2z"/>
	<path class="st15" d="M846.3,1187.6c-6-29-43.6-38-61.4-14.3c-3.2,4.3-5.5,9.3-6.2,15.2c-4.1,32.9,48.5,166.9,56.1,179.1
		c13.7,22.1,94.5,97.8,94.5,97.8l14.9-9c0,0-57.3-97-66.2-106.1C867.8,1339.8,857.7,1242.6,846.3,1187.6z"/>
	<path class="st15" d="M923.6,1456.4c0,0,21.7-14.3,30-13.3c8.2,0.9,32,7.8,32.3,11.3c0.3,3.5-26.5,5.7-28.3,7.6
		c-1.8,1.9-20,14.1-26.6,10.3C924.4,1468.3,923.6,1456.4,923.6,1456.4z"/>
	<path class="st5" d="M772.1,1778.7l-19.4-2.8c0,0-65.3-51.9-75-148.6c-1-9.8-1.2-19.8-0.5-29.9c0.1-1.2,0-2.3-0.7-3.3c0,0,0,0,0,0
		c-2.1-3.2-7.3-11.2-14.3-22.6c-6.9-11.2-18.8-32.5-31.9-56.3c-23.5-42.9-50.9-94.3-60.3-110.7c-29.9-52.1-15.5-87.2-15.5-87.2
		s83.5-8.3,106.4-28.3l8.2,12.7c0,0,18.1,80.1,17.2,80.5c0.9,2.7,1.8,5.5,2.7,8.3c14.3,44.1,30.7,99.2,39.7,144.1
		c5,25.3,7.7,47.3,6.3,62.2c-0.5,5.1,0.1,13,1.5,22.8C744.6,1676.9,772.1,1778.7,772.1,1778.7z"/>
	<path class="st16" d="M812.8,1803.2h-81c0,0-1.9-12.3,2.3-21.7c4-9,9.8-9.3,0.7-23.3c5.1,5.3,21.7,7.5,33.4,5.9
		c1.4,2.3,9.3,17.9,14,21.4C787.6,1789.2,811.2,1787.9,812.8,1803.2z"/>
	<path class="st16" d="M689.1,1390.4c-7.1,39-23.8,103.9-58.8,124.6c-23.5-42.9-50.9-94.3-60.3-110.7
		c-29.9-52.1-15.5-87.2-15.5-87.2s83.5-8.3,106.4-28.3l8.2,12.7c0,0,18.1,80.1,17.2,80.5C687.3,1384.8,688.2,1387.6,689.1,1390.4z"
		/>
	<path class="st3" d="M837.6,1169.6c0,0,11.5,11.9,16.7,26.2c0,0-18.3,52.4-61,59C793.3,1254.8,827.1,1169.6,837.6,1169.6z"/>
	<path class="st5" d="M632.3,1323.2l0.3-15.1c-30.2,3.8-104-36.1-104-36.1s-31.6,21-35.9,81c-2.1,29.3-15.5,153-16.9,190
		c-0.5,13.4-0.7,22.9-0.8,26.8c0,0,0,0,0,0c0,1.2-0.6,2.2-1.3,3.1c-6.2,7.9-11.7,16.3-16.4,25.1c-46,85.7-22,202.1-22,202.1
		l10.7-2.7c0,0,38.9-120.7,64.4-172.9c4.3-8.8,8.2-15.7,11.5-19.7c9.6-11.6,19.7-31.3,29.6-55.1c18.8-44.9,37-104.2,50.1-150
		C602.5,1399.7,632.3,1323.2,632.3,1323.2z"/>
	<path class="st17" d="M808.9,1222.1c-49.3-11.3-17.8-80.6-15-79.4c6.8-1.4,21.8-13.4,35.3-36.8l1.8,1.6l30.3,26.6
		c0,0-7,10.3-12.9,20.4c-4.6,7.9-8.5,15.7-7.9,18.4C843,1174.8,822.1,1225.1,808.9,1222.1z"/>
	<path class="st15" d="M861.3,1134c0,0-7,10.3-12.9,20.4c-18.8-11.6-18.9-34.9-17.4-47L861.3,1134z"/>
	<path class="st17" d="M862.2,1147.3c0,0-45.7-25.4-29.5-53.7s21.3-50.5,51.2-35.5s29.3,29.1,26.2,39.8
		C907,1108.7,874.5,1153.2,862.2,1147.3z"/>
	<path class="st14" d="M917.8,1081.5c-2.1-12.5-8.5-13.7-12.9-12.9c-16.9-27.9-44.5-17-44.5-17c-14.7,18.5-36,21.7-36,21.7
		s5.3,9.9,27.2,16c6.7,1.9,14.3,0.7,21.6-1.7c-15.2,8.5-31,11.7-31,11.7c28.8,2.6,56.2-23.7,59.1-26.5c1.3,4.1,3.7,12.6,2.3,18.9
		c-1.9,8.5-9.4,23.9-4.8,25.9C898.6,1117.4,921,1100.3,917.8,1081.5z"/>
	<path class="st16" d="M499.8,1803.2h-81c0,0-1.9-12.3,2.3-21.7c4-9,10.4-13.1,8.9-23.9c5.1,5.3,13.5,11.2,25.2,9.7
		c1.4,2.3,9.3,14.8,14,18.2C474.5,1789.2,498.1,1787.9,499.8,1803.2z"/>
	<path class="st4" d="M814.7,1277c-10.4,3.6-25,5.6-40,7.3c-21.3,2.3-43.3,3.9-54.8,8.5c-4.2,1.7-7,3.7-7.9,6.4
		c-5,15-27,38.2-27,38.2c-141-6.4-156.5-65.4-156.5-65.4c94.9-110.3,255.5-142.2,255.5-142.2s11.5-4.9,40.4,18.1
		c19.3,15.3,16.7,21.2,16.7,21.2S845.4,1266.3,814.7,1277z"/>
	<path class="st3" d="M774.7,1284.3c-21.3,2.3-43.3,3.9-54.8,8.5c-4.7-70.3,28.5-123.2,28.5-123.2S770,1257.7,774.7,1284.3z"/>
	<path class="st17" d="M796.6,1156c0,0-53.4,5.3-57.6,39.9c-4.3,34.7,51.2,175.9,59.1,188.7c14.5,23.3,99.6,103.1,99.6,103.1
		l15.7-9.5c0,0-60.4-102.2-69.7-111.8C828.9,1351.4,814.7,1168,796.6,1156z"/>
	<path class="st4" d="M740.5,1216.8c0.1,0.8,49.3,16,80.8,0c0,0,6.8-72.9-31-69c-37.7,4-60.1,15.8-61,33.9
		C728.4,1199.8,740.5,1216.8,740.5,1216.8z"/>
	<path class="st17" d="M892.8,1477.6c0,0,19.1-17.6,27.4-18s32.9,2.5,33.7,5.9c0.8,3.4-25.3,9.9-26.7,12.1s-17.5,17.1-24.6,14.4
		C895.5,1489.2,892.8,1477.6,892.8,1477.6z"/>
</g>
<g>
	<path class="st16" d="M2001.8,1807.7L2001.8,1807.7c-4.8,0-9.9-3.5-11.3-7.9l-291.5-895.5c-1.4-4.4,1.3-8,6.2-8l0,0
		c4.8,0,9.9,3.5,11.3,7.9l291.5,895.5C2009.4,1804.1,2006.6,1807.7,2001.8,1807.7z"/>
	<path class="st16" d="M2236.7,1806.4L2236.7,1806.4c-4.8,0-9.9-3.5-11.3-7.9L1933.8,903c-1.4-4.4,1.3-8,6.2-8l0,0
		c4.8,0,9.9,3.5,11.3,7.9l291.5,895.5C2244.3,1802.8,2241.5,1806.3,2236.7,1806.4z"/>
	<path class="st16" d="M1983.7,1027.8l-235.9,1.4c-4.6,0-9.4-3.3-10.7-7.4l0,0c-1.3-4.1,1.3-7.5,5.8-7.5l235.9-1.4
		c4.6,0,9.4,3.3,10.7,7.4l0,0C1990.9,1024.4,1988.3,1027.8,1983.7,1027.8z"/>
	<path class="st16" d="M2034.6,1184.1l-235.9,1.4c-4.6,0-9.4-3.3-10.7-7.4l0,0c-1.3-4.1,1.3-7.5,5.8-7.5l235.9-1.4
		c4.6,0,9.4,3.3,10.7,7.4l0,0C2041.8,1180.7,2039.2,1184.1,2034.6,1184.1z"/>
	<path class="st16" d="M2083.6,1334.7l-235.9,1.4c-4.6,0-9.4-3.3-10.7-7.4l0,0c-1.3-4.1,1.3-7.5,5.8-7.5l235.9-1.4
		c4.6,0,9.4,3.3,10.7,7.4l0,0C2090.8,1331.3,2088.2,1334.7,2083.6,1334.7z"/>
	<path class="st16" d="M2138.8,1504.2l-235.9,1.4c-4.6,0-9.4-3.3-10.7-7.4l0,0c-1.3-4.1,1.3-7.5,5.8-7.5l235.9-1.4
		c4.6,0,9.4,3.3,10.7,7.4l0,0C2146,1500.8,2143.4,1504.2,2138.8,1504.2z"/>
	<path class="st16" d="M2196.6,1681.7l-235.9,1.4c-4.6,0-9.4-3.3-10.7-7.4l0,0c-1.3-4.1,1.3-7.5,5.8-7.5l235.9-1.4
		c4.6,0,9.4,3.3,10.7,7.4l0,0C2203.7,1678.3,2201.1,1681.6,2196.6,1681.7z"/>
</g>
<g>
	<path class="st17" d="M1702.1,739.3c-4.3-3.1-14.2-9.8-14.7-8.3c-0.4,1.1,0.2,2.9,1.3,4.8c-6-2.2-12-3.7-26.3-0.9
		c-2.9,0.5-5.5,2.2-7,4.6c-1.5,2.3-2,5.1,1.7,7.4c7.3,4.5,5.2,1.8,15.3,8.4c10.1,6.6,22.6,8.3,30,3.7l10-1.7l1.2-16.4
		C1713.6,740.9,1707.9,740.3,1702.1,739.3z"/>
	<path class="st17" d="M1963,602c0,0-23.5,27.8-53.4,16.2c0,0-6.4-15.5-6.5-27c0-1.4,0-2.8-0.1-4.1c-0.2-12.9-0.6-20.2-0.6-20.2
		s0,0,0,0c1.4-0.6,45.7-18.8,45.7-17.3C1947.4,584.5,1963,602,1963,602z"/>
	<path class="st18" d="M1943.7,558c-4.3,7.9-18.9,23.4-40.6,29.1c-0.2-12.9-0.6-20.2-0.6-20.2s0,0,0,0
		C1903.8,566.6,1945,555.6,1943.7,558z"/>
	<path class="st17" d="M1893.2,565.6c0,0,49.9,11.7,56.7-19.4c6.8-31.2,17.8-50.6-13.7-59.4c-31.5-8.8-40.3,1.7-45.2,11.6
		C1886.2,508.1,1880.4,561.7,1893.2,565.6z"/>
	<path class="st19" d="M1948.2,554.6c0.7,0.4,11.4,3.7,31.7-36.7c3.2-6.4,5.4-20.1-2.1-32.2c-7.4-12.1-33.8-21.7-55.7-25.9
		c-21.9-4.1-27.2,8.2-32.3,20.5c-5.4,13-21.1,23.7-21.1,23.7c18.9,10.6,41.6-4.5,49.5-2.1s10.7,14.9,11.3,18.9s1.5,7.3,11.4,3.7
		s4.5,14,2.9,17.4C1943.8,542,1942.5,551,1948.2,554.6z"/>
	<g>
		<path class="st14" d="M2002,1329.1h30.2c6.3,0,13.4-6.3,15.1-17.9c1.8-11.6,14.8-17.9,17.6-27.4c2.8-9.5-11.6-22.9-11.6-22.9
			l-2.4-3.1l-2.5-3.2l-23.9,5.6c0,0-0.6,5.7-1,12.9c-0.3,5.2-0.4,11.3-0.1,16.6c0.7,12.7-3.6,26.3-14.8,28.8
			C1997.3,1320.9,2002,1329.1,2002,1329.1z"/>
		<path class="st14" d="M1866.5,1331.7h80c0.8-0.2,1.3-0.3,1.7-0.5c5.3-2.7,3.7-23.1,3-29.4c-0.1-1.2-0.2-1.9-0.2-1.9
			s-28.1-22.5-32-5.3c-0.1,0.5-0.3,1.1-0.4,1.6v0c-4.9,16.1-26.7,23.4-39.3,25.5C1869.6,1323.2,1867.1,1328.8,1866.5,1331.7z"/>
		<path class="st5" d="M1882.6,870.2c0,0,4.3,53.3,9.3,117.4c6.8,87.1,15,194,15.8,214.3c1.4,35.2,7,91.4,7,91.4s13.4,13.4,40.1,7.7
			c0,0,23.8-80.3,30.6-165.3c0.1-1.4,0.2-2.8,0.3-4.2c6.3-86.5,16.2-268.7,16.2-268.7L1882.6,870.2z"/>
		<path class="st16" d="M1882.6,870.2c0,0,4.3,53.3,9.3,117.4l93.6,148.1c0.1-1.4,0.2-2.8,0.3-4.2c6.3-86.5,16.2-268.7,16.2-268.7
			L1882.6,870.2z"/>
		<path class="st5" d="M1909.2,858.8c0,0,43.3,178.4,76.3,276.9s34.4,146.2,34.4,146.2s37.4-7.3,41.5-14.6c0,0,12.8-168.8-12.6-217
			c-14.4-27.3-11.9-90.4-11.9-119.2c0-53.3-16.6-106.2-16.6-106.2L1909.2,858.8z"/>
	</g>
	<g>
		<path class="st17" d="M2077.8,841.5l0.8,12.4c0,0-8.2,22.1,14.8,33.4c0,0,9.8,4,10.2-3.7c0.4-7.7-0.9-4.8-0.1-15.5
			c0.8-10.8-3.4-20.9-10.6-24.4l-5.8-6.7L2077.8,841.5z"/>
		<path class="st19" d="M2086.7,850.5c-8.5,2.7-9.9,2.1-9.9,2.1s-41.5-75.5-45.7-82.5c-4.2-6.9-88.1-84.7-88.1-84.7l21.6-80.4
			c0,0,95.4,123.6,105.7,141.3c17,29.3,27,97.3,27,97.3S2093.4,848.3,2086.7,850.5z"/>
	</g>
	<path class="st20" d="M1866.3,717c0.3,16.5,1.3,35.1,2.6,53.9c0.1,1.1,0.2,2.2,0.2,3.3c0.8,11.7,1.7,23.4,2.8,34.8
		c0.4,4.6,0.8,9.1,1.3,13.5l0.1,0.6c0,1.7,0.2,3.5,0.4,5.1c4.2,42.8,8.6,76.5,9.4,77c1,0.7,2.1,1,3.3,0.8
		c11.2-1.4,44.7,1.1,72.1-4.8c23.1-4.9,43-14.1,64.1-26.6c2.8-1.7,9.2-6,8.7-9.3c-0.5-3.6-1.4-8.8-2.7-15.3
		c-4.2-22.7-11.3-61.9-13.8-107.7c-0.5-8.5-1.2-17-2.1-25.2c-2.3-21.6-6.1-42.1-11.2-60.3c-9.4-33.8-23.2-59.7-40.5-69.8
		c-2.3-1.3-14.4,6.5-25.6,13.7c-10.3,6.6-21.2,8.5-31.8,7.5l-9.3,10.3c-11.3,13.1-23.3,30.5-26.5,55.3c-0.3,1.8-0.5,3.8-0.6,5.8
		C1866.3,689.9,1866.1,702.7,1866.3,717z"/>
	<path class="st19" d="M1866.3,717c0.3,16.5,1.3,35.1,2.6,53.9c0.1,1.1,0.2,2.2,0.2,3.3c64.1-40.1,73.9-113.5,73.9-113.5
		c-31.5,1.4-56.5,8.6-75.8,19C1866.3,689.9,1866.1,702.7,1866.3,717z"/>
	<path class="st20" d="M1704.5,748.6c-0.7-9.5,4.3-11.1,4.3-11.1s96.6-17.5,104.8-20.1c8.2-2.6,78.4-75.6,78.4-75.6
		s26.9-30.3,48.9-23.6c19.1,5.8,26.6,20.8,29.2,35c3,17-4.8,34-19.5,43c-32.9,20.2-98.9,60-114.5,64.6
		c-34.6,10.1-127.5,0.8-127.5,0.8S1705,756,1704.5,748.6z"/>
</g>
<g>
	<path class="st5" d="M1755.6,855.2c-1.4,4.5-6.2,7.4-11.2,5.9c-45.1-14.1-92.8-23.3-139.9-28.8c-51.7-5.9-104.4-7.1-129.3-5.4
		c-4.9,0.3-9.2-3.4-9.5-8.4c-0.3-4.9,3.4-9.2,8.4-9.5c38.6-2.3,92.9,0.7,133.9,5.6c47,5.5,95.7,15,141.7,29.3
		C1754.4,845.5,1757,850.5,1755.6,855.2z"/>
</g>
<g>
	<path class="st7" d="M2642.2,1659.2c-0.8-1.7-1.8-3.2-2.9-4.6l0,0l0,0c-0.9-1-1.8-2-2.8-2.9l-4.3-4.3l-1.1,0.8
		c-21.9-10.7-67,0.6-112.7,30.5c-55.2,36-90.6,85.7-80.4,112l-1.6,1.2l6.1,6.1c0.3,0.3,0.6,0.6,0.9,0.9l0.2,0.2l0.1,0
		c1.6,1.4,3.3,2.7,5.3,3.7l0,0l0,0c21.6,11.3,67.2,0.1,113.4-30.1C2618.6,1736,2654.3,1685.2,2642.2,1659.2z"/>
	<path class="st6" d="M2511.8,1672.1c56.2-36.7,111.7-45.4,123.8-19.5s-23.6,76.8-79.8,113.5c-56.2,36.7-111.7,45.4-123.8,19.5
		C2419.8,1759.7,2455.5,1708.8,2511.8,1672.1z"/>
	<g>
		<path class="st7" d="M2471.4,1789.5c-4.6,0-8.7-0.5-12.4-1.6c-7-2-11.9-5.9-14.5-11.5c-5.1-11.1-0.4-27.5,13.2-46.2
			c13.3-18.3,33.6-36.9,57.1-52.3l0,0c36.1-23.7,72.9-35.1,93.7-29.1c7,2,11.9,5.9,14.5,11.5c5.1,11.1,0.4,27.5-13.2,46.2
			c-13.3,18.3-33.6,36.9-57.1,52.3C2522.9,1778.3,2492.7,1789.5,2471.4,1789.5z M2596.3,1651.3c-20.4,0-50.3,11.1-79.2,30
			c-23.1,15.2-43,33.4-56,51.3c-12.5,17.2-17.2,32.6-12.8,42.1c2.1,4.5,6.1,7.6,11.9,9.3c3.3,0.9,7,1.4,11.1,1.4
			c20.4,0,50.3-11.1,79.2-30c23.1-15.2,43-33.4,56-51.3c12.5-17.2,17.2-32.6,12.8-42.1c-2.1-4.5-6.1-7.6-11.9-9.3
			C2604.2,1651.8,2600.4,1651.3,2596.3,1651.3z"/>
	</g>
	<g>
		<path class="st7" d="M2511.1,1732.5c1.7-0.8,3.3-1.6,4.6-2.5c1.4-0.9,2.6-2,3.8-3.2s2.2-2.6,3.3-4.2s2.1-3.4,3.1-5.5
			c1.8-3.6,3.7-6.9,5.6-10.1c1.9-3.1,4-6,6.4-8.7c2.4-2.7,5-5.1,8.1-7.3s6.6-4.2,10.6-6c3.5-1.5,6.7-2.5,9.5-3s5.2-0.3,7.2,0.3
			s3.6,1.7,4.7,3.3c1.1,1.6,1.8,3.6,1.9,6.1l13.3-5.8l-0.7,7.1l-13.4,5.9c-0.7,2.8-2,5.5-3.7,8.3s-3.9,5.4-6.5,7.9s-5.6,4.9-9,7.2
			c-3.4,2.3-7.2,4.3-11.3,6.1l1.3-12.9c5-2.2,8.7-4.5,11.3-7.1c2.6-2.6,4-5.1,4.3-7.5c0.1-1.3,0-2.4-0.5-3.1s-1.1-1.2-2.1-1.4
			c-0.9-0.2-2-0.2-3.3,0.1s-2.7,0.8-4.2,1.4s-2.9,1.4-4.2,2.3s-2.5,1.9-3.6,3.1c-1.1,1.2-2.2,2.6-3.3,4.2s-2.1,3.5-3.3,5.8
			c-1.9,3.6-3.8,6.9-5.7,10.1c-1.9,3.1-4.1,6-6.4,8.7s-5.1,5.1-8.1,7.3c-3,2.2-6.5,4.2-10.6,6c-3.6,1.6-6.9,2.6-9.7,3
			c-2.8,0.4-5.2,0.3-7.1-0.3c-2-0.6-3.5-1.7-4.5-3.4s-1.7-3.7-1.8-6.2l-12.3,5.4l0.7-7.1l12.3-5.4c0.6-2.6,1.6-5.4,3.1-8.2
			c1.5-2.8,3.4-5.7,6-8.5c2.5-2.8,5.6-5.5,9.3-8.2c3.7-2.6,8-5,12.9-7.2l-1.3,12.9c-2.9,1.3-5.4,2.6-7.4,4.1s-3.7,2.8-4.9,4.3
			c-1.3,1.4-2.2,2.8-2.8,4.2c-0.6,1.4-0.9,2.7-1.1,3.9c-0.1,1.4,0,2.5,0.4,3.3c0.4,0.8,1.1,1.4,2,1.7s2,0.3,3.2,0.1
			S2509.6,1733.2,2511.1,1732.5z"/>
	</g>
</g>
<g>
	<path class="st7" d="M1536,372c0.5-1.1,1.1-2,1.8-2.9l0,0l0,0c0.5-0.7,1.1-1.3,1.8-1.8l2.7-2.8l0.7,0.5
		c13.9-6.8,42.5,0.4,71.5,19.3c35,22.9,57.5,54.4,51,71.1l1,0.7l-3.9,3.9c-0.2,0.2-0.4,0.4-0.6,0.6l-0.1,0.1l0,0
		c-1,0.9-2.1,1.7-3.4,2.3l0,0l0,0c-13.7,7.2-42.7,0-71.9-19.1C1551,420.7,1528.3,388.5,1536,372z"/>
	<path class="st6" d="M1618.8,380.1c-35.7-23.3-70.9-28.8-78.6-12.4c-7.7,16.5,15,48.7,50.6,72s70.9,28.8,78.6,12.4
		C1677.1,435.7,1654.4,403.4,1618.8,380.1z"/>
	<g>
		<path class="st7" d="M1592.8,435.1c-14.9-9.8-27.8-21.6-36.2-33.2c-8.6-11.9-11.6-22.3-8.4-29.3c1.6-3.6,4.7-6,9.2-7.3
			c13.2-3.8,36.5,3.5,59.4,18.5l0,0c14.9,9.8,27.8,21.6,36.2,33.2c8.6,11.9,11.6,22.3,8.4,29.3c-1.6,3.6-4.7,6-9.2,7.3
			c-2.3,0.7-5,1-7.8,1C1630.9,454.6,1611.7,447.5,1592.8,435.1z M1558.1,367.8c-3.7,1.1-6.2,3-7.5,5.9c-2.8,6,0.2,15.8,8.1,26.7
			c8.3,11.4,20.9,22.9,35.6,32.5c18.3,12,37.3,19,50.2,19c2.6,0,5-0.3,7-0.9c3.7-1.1,6.2-3,7.5-5.9c2.8-6-0.2-15.8-8.1-26.7
			c-8.3-11.4-20.9-22.9-35.6-32.5c-18.3-12-37.3-19-50.2-19C1562.5,366.9,1560.1,367.2,1558.1,367.8z"/>
	</g>
	<g>
		<path class="st7" d="M1621.8,419.3c0.8,0.1,1.5,0.1,2.1-0.1c0.6-0.2,1-0.5,1.3-1.1c0.3-0.5,0.4-1.2,0.3-2.1
			c-0.1-0.8-0.3-1.6-0.7-2.5s-1-1.8-1.8-2.7c-0.8-0.9-1.8-1.8-3.1-2.7s-2.8-1.8-4.7-2.6l-0.8-8.2c3.2,1.4,5.9,2.9,8.2,4.6
			c2.3,1.7,4.3,3.4,5.9,5.2s2.8,3.6,3.8,5.4c0.9,1.8,1.6,3.5,2,5.2l7.8,3.4l0.4,4.5l-7.8-3.4c-0.1,1.6-0.4,2.9-1.1,3.9
			s-1.6,1.7-2.9,2.1c-1.2,0.4-2.8,0.5-4.5,0.2c-1.8-0.3-3.8-0.9-6.1-1.9c-2.5-1.1-4.8-2.4-6.7-3.8c-1.9-1.4-3.6-3-5.1-4.7
			s-2.9-3.5-4.1-5.5s-2.4-4.1-3.6-6.4c-0.7-1.4-1.4-2.6-2.1-3.6s-1.3-1.9-2.1-2.7c-0.7-0.8-1.5-1.4-2.3-1.9c-0.8-0.5-1.7-1-2.7-1.4
			c-1-0.4-1.9-0.7-2.7-0.9s-1.5-0.2-2.1-0.1s-1,0.4-1.3,0.9c-0.3,0.5-0.4,1.1-0.3,2c0.2,1.6,1.1,3.2,2.7,4.8
			c1.7,1.6,4.1,3.1,7.2,4.5l0.8,8.2c-2.6-1.1-5-2.4-7.2-3.9s-4.1-2.9-5.7-4.5c-1.6-1.6-3-3.3-4.1-5s-1.9-3.5-2.4-5.3l-8.5-3.8
			l-0.4-4.5l8.4,3.7c0.1-1.6,0.5-2.9,1.2-3.9c0.7-1,1.7-1.7,3-2.1c1.3-0.4,2.8-0.4,4.6-0.2c1.8,0.3,3.8,0.9,6,1.9
			c2.6,1.1,4.8,2.4,6.7,3.8c1.9,1.4,3.6,3,5.1,4.6s2.8,3.5,4.1,5.5c1.2,2,2.4,4.1,3.5,6.4c0.7,1.3,1.3,2.5,2,3.5
			c0.7,1,1.3,1.9,2.1,2.7s1.5,1.5,2.4,2c0.9,0.6,1.8,1.1,2.9,1.6C1620.1,418.9,1621,419.2,1621.8,419.3z"/>
	</g>
</g>
</svg>
