<?xml version="1.0" encoding="utf-8"?>
<!-- Generator: Adobe Illustrator 23.0.1, SVG Export Plug-In . SVG Version: 6.00 Build 0)  -->
<svg version="1.1" id="Layer_1" xmlns="http://www.w3.org/2000/svg" xmlns:xlink="http://www.w3.org/1999/xlink" x="0px" y="0px"
	 viewBox="0 0 750 500" style="enable-background:new 0 0 750 500;" xml:space="preserve">
<style type="text/css">
	.st0{fill-rule:evenodd;clip-rule:evenodd;fill:#EBEBEB;}
	.st1{fill-rule:evenodd;clip-rule:evenodd;fill:#F0F0F0;}
	.st2{fill-rule:evenodd;clip-rule:evenodd;fill:#E0E0E0;}
	.st3{display:none;}
	.st4{display:inline;fill:#F0F0F0;}
	.st5{fill:#FFC93C;}
	.st6{fill:#263238;}
	.st7{fill:#455A64;}
	.st8{fill:#FFFFFF;}
	.st9{fill:#E0E0E0;}
	.st10{fill:#00858E;}
	.st11{fill:#FAFAFA;}
	.st12{fill:#B78876;}
	.st13{fill:#A36957;}
</style>
<g id="Background_Complete">
	<g>
		<path class="st0" d="M591.5,183.3c1.3,1,2.5,2.2,3.5,3.5l4.5-0.8l3,7l-3.7,2.7c0.2,1.6,0.3,3.3,0.1,4.9l3.8,2.6l-2.8,7l-4.5-0.7
			c-1,1.3-2.2,2.5-3.5,3.5l0.8,4.5l-7,3l-2.7-3.7c-1.6,0.2-3.3,0.3-4.9,0.1l-2.6,3.8l-7-2.8l0.7-4.5c-1.3-1-2.5-2.2-3.5-3.5
			l-4.5,0.8l-3-7l3.7-2.7c-0.2-1.6-0.3-3.3-0.1-4.9l-3.8-2.6l2.8-7l4.5,0.7c1-1.3,2.2-2.5,3.5-3.5l-0.8-4.5l7-3l2.7,3.7
			c1.6-0.2,3.3-0.3,4.9-0.1l2.6-3.8l7,2.8L591.5,183.3L591.5,183.3z M583.6,190.8c-4.2-1.7-8.9,0.3-10.6,4.5
			c-1.7,4.2,0.3,8.9,4.5,10.6c4.2,1.7,8.9-0.3,10.6-4.5C589.8,197.2,587.8,192.5,583.6,190.8z"/>
		<path class="st0" d="M172.8,213.7c2.4,1.8,4.6,3.9,6.4,6.3l8.2-1.5l5.4,12.6L186,236c0.4,2.9,0.5,5.9,0.1,8.9l6.8,4.7l-5.1,12.7
			l-8.2-1.3c-1.8,2.4-3.9,4.6-6.3,6.4l1.5,8.2l-12.6,5.4l-4.9-6.7c-2.9,0.4-5.9,0.5-8.9,0.1l-4.7,6.8l-12.7-5.1l1.3-8.2
			c-2.4-1.8-4.6-3.9-6.4-6.3l-8.2,1.5l-5.4-12.6l6.7-4.9c-0.4-2.9-0.5-5.9-0.1-8.9l-6.8-4.7l5.1-12.7l8.2,1.3
			c1.8-2.4,3.9-4.6,6.3-6.4l-1.5-8.2l12.6-5.4l4.9,6.7c2.9-0.4,5.9-0.5,8.9-0.1l4.7-6.8l12.7,5.1L172.8,213.7L172.8,213.7z
			 M158.6,227.4c-7.5-3-16.1,0.6-19.1,8.2c-3,7.5,0.6,16.1,8.2,19.1c7.5,3,16.1-0.6,19.1-8.2C169.8,239,166.2,230.4,158.6,227.4z"/>
		<path class="st1" d="M139.3,149.8c1.3,1,2.5,2.2,3.5,3.5l4.5-0.8l3,7l-3.7,2.7c0.2,1.6,0.3,3.3,0.1,4.9l3.8,2.6l-2.8,7l-4.5-0.7
			c-1,1.3-2.2,2.5-3.5,3.5l0.8,4.5l-7,3l-2.7-3.7c-1.6,0.2-3.3,0.3-4.9,0.1l-2.6,3.8l-7-2.8l0.7-4.5c-1.3-1-2.5-2.2-3.5-3.5
			l-4.5,0.8l-3-7l3.7-2.7c-0.2-1.6-0.3-3.3-0.1-4.9l-3.8-2.6l2.8-7l4.5,0.7c1-1.3,2.2-2.5,3.5-3.5l-0.8-4.5l7-3l2.7,3.7
			c1.6-0.2,3.3-0.3,4.9-0.1l2.6-3.8l7,2.8L139.3,149.8L139.3,149.8z M131.5,157.4c-4.2-1.7-8.9,0.3-10.6,4.5s0.3,8.9,4.5,10.6
			c4.2,1.7,8.9-0.3,10.6-4.5S135.7,159.1,131.5,157.4z"/>
		<path class="st2" d="M231.2,94.3c3.9,1.4,7.6,3.4,10.9,5.8l10.2-5.2l12.1,14.6l-7,9.1c1.7,3.7,3,7.7,3.6,11.8l10.9,3.5l-1.8,18.8
			l-11.3,1.5c-1.4,3.9-3.4,7.6-5.8,10.9l5.2,10.2l-14.6,12.1l-9.1-7c-3.7,1.7-7.7,3-11.8,3.6l-3.6,10.9l-18.8-1.8l-1.5-11.3
			c-3.9-1.4-7.6-3.4-10.9-5.8l-10.2,5.2l-12.1-14.6l7-9.1c-1.7-3.7-3-7.7-3.6-11.8l-10.9-3.5l1.8-18.8l11.3-1.5
			c1.4-3.9,3.4-7.6,5.8-10.9l-5.2-10.2l14.6-12.1l9.1,7c3.7-1.7,7.7-3,11.8-3.6l3.6-10.9l18.8,1.8L231.2,94.3L231.2,94.3z
			 M217.8,117.9c-11.2-1-21.1,7.2-22.1,18.3c-1,11.2,7.2,21.1,18.3,22.1c11.2,1,21.1-7.2,22.1-18.3
			C237.2,128.8,229,118.9,217.8,117.9z"/>
	</g>
</g>
<g id="Background_Simple" class="st3">
	<path class="st4" d="M177.1,111c101.4-88.4,210.1,67.6,326,65c74.6-1.7,153.2,41.6,134.9,131.9c-26.6,131.3-237.6,115.3-349,78.2
		C177.6,349,87.3,189.3,177.1,111z"/>
</g>
<g id="Plant">
	<g>
		<g>
			<g>
				<path class="st5" d="M152.1,406c12.5-8.2,15.7-23.8,15.5-38c0-2.4,0.3-4.8-0.8-6.9s-3.7-3.6-5.9-2.6c-1.8,0.8-2.6,2.8-3.7,4.5
					c-1.4,2.2-3.4,4-5.7,5.1c-1.5,0.7-3.4,1.2-4.9,0.3c-2-1.2-2.2-4-2.1-6.3c0.1-4.4,0.3-8.7,0.4-13.1c0.1-2.3,0.1-4.7-0.5-7
					c-0.7-2.2-2.3-4.4-4.5-5c-2.2-0.7-5.1,0.5-5.6,2.8c-0.2,1,0,1.9-0.1,2.9s-0.6,2-1.5,2.3c-1,0.3-1.9-0.4-2.6-1.1
					c-2.4-2.4-4-5.5-5.5-8.6s-2.9-6.2-5.1-8.8c-2.2-2.6-5.2-4.8-8.6-5c-3.4-0.3-7.1,1.7-8,5s0.9,6.7,3,9.4c3.1,4,6.7,7.6,10.8,10.7
					c0.7,0.5,1.5,1.1,1.8,2c0.5,1.6-1.1,3.1-2.6,3.6c-1.8,0.5-3.7,0.3-5.6,0.5s-3.9,0.9-4.6,2.6c-1,2.4,0.9,4.9,2.9,6.6
					c3.9,3.4,8.4,6.1,13.3,8c1.7,0.7,3.6,1.3,4.9,2.5c1.4,1.2,2.2,3.4,1.3,5c-0.9,1.6-3.1,2.1-4.9,1.7s-3.4-1.4-5.2-2.1
					c-3.2-1.3-7.5-1.2-9.6,1.6c-1.4,1.8-1.6,4.3-1,6.5s2,4.1,3.5,5.9c5.1,6.2,11.7,11.2,19.2,14C137.5,407.7,144.5,408.6,152.1,406"
					/>
			</g>
		</g>
		<g>
			<g>
				<g>
					<path class="st6" d="M106.4,323.3c0,0,0.1,0.1,0.2,0.2c0.2,0.2,0.4,0.4,0.7,0.6c0.6,0.6,1.5,1.4,2.6,2.5
						c2.3,2.2,5.4,5.4,8.8,9.9c1.7,2.2,3.5,4.7,5.4,7.4c1.9,2.7,3.8,5.7,5.8,8.8c1.9,3.2,3.9,6.5,5.6,10.2c0.9,1.8,1.6,3.7,2.4,5.6
						c0.8,1.9,1.6,3.9,2.4,5.9c3.2,7.9,6,15.6,7.9,22.8c2,7.1,3.1,13.8,3.5,19.3c0.4,5.6,0.2,10.1-0.1,13.2
						c-0.2,1.6-0.3,2.8-0.4,3.6c-0.1,0.4-0.1,0.7-0.1,0.9c0,0.2,0,0.3,0,0.3s0-0.1,0.1-0.3c0-0.2,0.1-0.5,0.2-0.9
						c0.2-0.8,0.3-2,0.5-3.6c0.4-3.1,0.6-7.7,0.2-13.3c-0.4-5.6-1.5-12.2-3.4-19.4c-1.9-7.2-4.7-14.9-7.9-22.8
						c-0.8-2-1.6-3.9-2.4-5.9c-0.8-1.9-1.6-3.8-2.4-5.7c-1.7-3.7-3.7-7-5.7-10.2s-3.9-6.1-5.8-8.8c-1.9-2.7-3.7-5.2-5.4-7.4
						c-3.5-4.4-6.7-7.7-9-9.8c-1.1-1.1-2.1-1.9-2.7-2.4c-0.3-0.3-0.5-0.5-0.7-0.6C106.5,323.3,106.4,323.3,106.4,323.3z"/>
				</g>
			</g>
		</g>
		<g>
			<g>
				<g>
					<path class="st6" d="M135.8,362.7c0,0,0.1-0.3,0.3-1c0.1-0.6,0.3-1.6,0.5-2.7c0.4-2.3,0.8-5.6,1.3-9.1c0.5-3.6,0.9-6.8,1.4-9.1
						c0.2-1.2,0.4-2.1,0.5-2.7s0.2-1,0.2-1s-0.1,0.3-0.3,1c-0.2,0.6-0.4,1.6-0.7,2.7c-0.5,2.3-1,5.5-1.5,9.1
						c-0.4,3.5-0.9,6.7-1.2,9.1c-0.1,1.1-0.3,2-0.4,2.8C135.8,362.3,135.8,362.7,135.8,362.7z"/>
				</g>
			</g>
		</g>
		<g>
			<g>
				<g>
					<path class="st6" d="M105.4,356.4c0,0,0.4,0.1,1.2,0.2c0.8,0.1,1.9,0.2,3.3,0.4c2.8,0.4,6.6,1,10.8,1.9c4.2,0.9,8,1.9,10.7,2.6
						c1.4,0.4,2.4,0.7,3.2,0.9c0.8,0.2,1.2,0.3,1.2,0.3s-0.4-0.2-1.1-0.5c-0.7-0.3-1.8-0.7-3.2-1.1c-2.7-0.9-6.5-1.9-10.7-2.8
						s-8.1-1.5-10.9-1.8c-1.4-0.2-2.5-0.2-3.3-0.3C105.8,356.3,105.4,356.3,105.4,356.4z"/>
				</g>
			</g>
		</g>
		<g>
			<g>
				<g>
					<path class="st6" d="M148.3,396.5c0,0,0.1-0.1,0.2-0.4c0.1-0.3,0.3-0.6,0.5-1.1c0.5-0.9,1.1-2.3,1.9-4
						c1.6-3.4,3.6-8.2,5.7-13.5c2.1-5.3,4.1-10.1,5.6-13.6c0.7-1.7,1.3-3.1,1.8-4.1c0.2-0.4,0.3-0.8,0.5-1.1
						c0.1-0.3,0.2-0.4,0.1-0.4s-0.1,0.1-0.2,0.4c-0.1,0.3-0.3,0.6-0.5,1.1c-0.5,0.9-1.1,2.3-1.9,4c-1.6,3.4-3.6,8.2-5.7,13.5
						c-2.1,5.3-4.1,10.1-5.6,13.6c-0.7,1.7-1.3,3.1-1.8,4.1c-0.2,0.4-0.3,0.8-0.5,1.1C148.3,396.4,148.3,396.5,148.3,396.5z"/>
				</g>
			</g>
		</g>
		<g>
			<g>
				<g>
					<path class="st6" d="M108,382.7c0,0,0.1,0.1,0.4,0.2s0.7,0.2,1.2,0.4c1.1,0.4,2.5,0.9,4.3,1.5c3.6,1.3,8.6,3.1,14.2,5.1
						c5.5,2,10.6,3.8,14.2,4.9c1.8,0.6,3.3,1.1,4.4,1.4c0.5,0.1,0.9,0.2,1.2,0.3c0.3,0.1,0.4,0.1,0.4,0.1s-0.1-0.1-0.4-0.2
						c-0.3-0.1-0.7-0.3-1.2-0.4c-1.1-0.4-2.5-0.9-4.3-1.5c-3.6-1.3-8.7-3.1-14.2-5.1s-10.6-3.8-14.2-4.9c-1.8-0.6-3.3-1.1-4.4-1.4
						c-0.5-0.1-0.9-0.2-1.2-0.3C108.1,382.7,108,382.6,108,382.7z"/>
				</g>
			</g>
		</g>
	</g>
</g>
<g id="Mobile">
	<g>
		<g>
			<g>
				<g>
					<g>
						<path class="st7" d="M557.9,300.5l-60.3-0.3c-7.3,0-13.1-5.9-13.1-13.2l0.6-150.8c0-7.2,5.9-13.1,13.2-13.1l60.3,0.3
							c7.3,0,13.1,5.9,13.1,13.2l-0.6,150.8C571.1,294.7,565.2,300.5,557.9,300.5z"/>
					</g>
				</g>
				<g>
					<g>
						<path class="st8" d="M558.6,128.6l-11.7-0.1c-1.6,0-2.8,1.3-2.9,2.9v2.1c0,1.6-1.3,3-2.9,2.9l-22.8-0.1c-1.6,0-2.8-1.3-2.8-3
							v-2.1c0-1.6-1.3-3-2.8-3h-4.1h-10.2c-5.1,0-9.2,4.1-9.2,9.1l-0.6,147.2c0,5.1,4.1,9.2,9.2,9.2L558,294c5.1,0,9.2-4.1,9.2-9.1
							l0.6-147.2C567.8,132.8,563.7,128.7,558.6,128.6z"/>
					</g>
				</g>
			</g>
		</g>
		<g>
			<rect x="498" y="228.8" class="st7" width="59.6" height="4"/>
		</g>
		<g>
			<g>
				<path class="st7" d="M555.5,244.5c0,0.1-12.7,0.3-28.4,0.3s-28.4-0.1-28.4-0.3c0-0.1,12.7-0.3,28.4-0.3
					C542.8,244.2,555.5,244.4,555.5,244.5z"/>
			</g>
		</g>
		<g>
			<g>
				<path class="st7" d="M555.5,150c0,0.1-12.7,0.3-28.4,0.3s-28.4-0.1-28.4-0.3c0-0.1,12.7-0.3,28.4-0.3
					C542.8,149.7,555.5,149.8,555.5,150z"/>
			</g>
		</g>
		<g>
			<g>
				<path class="st7" d="M555.5,251.8c0,0.1-12.7,0.3-28.4,0.3s-28.4-0.1-28.4-0.3c0-0.1,12.7-0.3,28.4-0.3
					C542.8,251.5,555.5,251.6,555.5,251.8z"/>
			</g>
		</g>
		<g>
			<g>
				<path class="st7" d="M555.5,259c0,0.1-12.7,0.3-28.4,0.3s-28.4-0.1-28.4-0.3c0-0.1,12.7-0.3,28.4-0.3
					C542.8,258.8,555.5,258.9,555.5,259z"/>
			</g>
		</g>
		<g>
			<g>
				<path class="st7" d="M555.5,266.3c0,0.1-12.7,0.3-28.4,0.3s-28.4-0.1-28.4-0.3c0-0.1,12.7-0.3,28.4-0.3
					C542.8,266,555.5,266.1,555.5,266.3z"/>
			</g>
		</g>
		<g>
			<g>
				<path class="st7" d="M555.5,273.5c0,0.1-12.7,0.3-28.4,0.3s-28.4-0.1-28.4-0.3c0-0.1,12.7-0.3,28.4-0.3
					C542.8,273.3,555.5,273.4,555.5,273.5z"/>
			</g>
		</g>
		<g>
			<g>
				<path class="st7" d="M556.3,281.8c0,0.1-12.7,0.3-28.4,0.3s-28.4-0.1-28.4-0.3c0-0.1,12.7-0.3,28.4-0.3S556.3,281.6,556.3,281.8
					z"/>
			</g>
		</g>
		<g>
			<g>
				<g>
					<g>
						<rect x="498.7" y="158.2" class="st9" width="59.7" height="57.8"/>
					</g>
				</g>
			</g>
			<g>
				<g>
					<g>
						<polygon class="st5" points="503.3,211.1 519.8,181.4 533.4,200.4 541.6,190.3 553.8,211.1 						"/>
					</g>
				</g>
			</g>
			<g>
				<g>
					<g>
						<path class="st5" d="M539.1,175.6c0,2.4-1.9,4.3-4.3,4.3c-2.4,0-4.3-1.9-4.3-4.3c0-2.4,1.9-4.3,4.3-4.3
							C537.2,171.3,539.1,173.2,539.1,175.6z"/>
					</g>
				</g>
			</g>
			<g>
				<g>
					<g>
						<g>
							<path class="st7" d="M553.8,211.2c0,0,0-0.1,0-0.2c0-0.2,0-0.4,0-0.7c0-0.6,0-1.5,0-2.6c0-2.3,0-5.6-0.1-9.8
								c0-8.4-0.1-20.5-0.1-34.9l0.2,0.2c-14.6,0-31.9,0-50.5,0c-0.1,0.1,0.5-0.5,0.3-0.3l0,0l0,0v0.1v0.1v0.2v0.4v0.8v1.6
								c0,1.1,0,2.2,0,3.3c0,2.2,0,4.3,0,6.4c0,4.2,0,8.4,0,12.5c0,8.1,0,15.7,0,22.8l-0.2-0.2c15.1,0.1,27.6,0.1,36.5,0.1
								c4.4,0,7.9,0,10.3,0.1c1.2,0,2.1,0,2.7,0c0.3,0,0.5,0,0.7,0C553.7,211.2,553.8,211.2,553.8,211.2s-0.1,0-0.2,0
								c-0.2,0-0.4,0-0.7,0c-0.6,0-1.5,0-2.7,0c-2.4,0-5.9,0-10.2,0.1c-8.9,0-21.5,0.1-36.6,0.1h-0.2v-0.2c0-7,0-14.7,0-22.8
								c0-4,0-8.2,0-12.5c0-2.1,0-4.3,0-6.4c0-1.1,0-2.2,0-3.3v-1.6v-0.8v-0.4v-0.2v-0.1V163l0,0l0,0c-0.3,0.2,0.3-0.4,0.3-0.3
								c18.5,0,35.8,0,50.5,0h0.2v0.2c-0.1,14.5-0.1,26.6-0.1,35c0,4.2,0,7.5-0.1,9.8c0,1.1,0,1.9,0,2.6c0,0.3,0,0.5,0,0.6
								C553.8,211.2,553.8,211.3,553.8,211.2z"/>
						</g>
					</g>
				</g>
			</g>
		</g>
	</g>
</g>
<g id="Tablet">
	<g>
		<g>
			<g>
				<path class="st7" d="M468.8,72v133.2c0,6.4-5.2,11.5-11.5,11.5H256c-6.4,0-11.5-5.2-11.5-11.5V72c0-6.4,5.2-11.5,11.5-11.5
					h201.2C463.6,60.4,468.8,65.6,468.8,72z"/>
			</g>
			<g>
				<rect x="259.8" y="65.3" class="st8" width="187.3" height="146.5"/>
			</g>
			<g>
				<path class="st6" d="M457.5,132.6c3.3,0,6,2.7,6,6s-2.7,6-6,6s-6-2.7-6-6S454.2,132.6,457.5,132.6z"/>
			</g>
			<g>
				<path class="st6" d="M253.4,116.3V161c0,0.7-0.5,1.2-1.2,1.2l0,0c-0.7,0-1.2-0.5-1.2-1.2v-44.7c0-0.7,0.5-1.2,1.2-1.2l0,0
					C252.8,115,253.4,115.6,253.4,116.3z"/>
			</g>
		</g>
		<g>
			<g>
				<rect x="345.2" y="76.4" class="st7" width="59.6" height="4"/>
			</g>
			<g>
				<rect x="267.6" y="144.9" class="st7" width="59.6" height="4"/>
			</g>
			<g>
				<g>
					<path class="st7" d="M419.3,91.2c0,0.1-16.6,0.3-37,0.3c-20.5,0-37.1-0.1-37.1-0.3c0-0.1,16.6-0.3,37.1-0.3
						C402.7,90.9,419.3,91.1,419.3,91.2z"/>
				</g>
			</g>
			<g>
				<g>
					<path class="st7" d="M419.3,99.9c0,0.1-16.6,0.3-37,0.3c-20.5,0-37.1-0.1-37.1-0.3c0-0.1,16.6-0.3,37.1-0.3
						C402.7,99.6,419.3,99.8,419.3,99.9z"/>
				</g>
			</g>
			<g>
				<g>
					<path class="st7" d="M419.3,108.6c0,0.1-16.6,0.3-37,0.3c-20.5,0-37.1-0.1-37.1-0.3c0-0.1,16.6-0.3,37.1-0.3
						C402.7,108.4,419.3,108.5,419.3,108.6z"/>
				</g>
			</g>
			<g>
				<g>
					<path class="st7" d="M419.3,117.3c0,0.1-16.6,0.3-37,0.3c-20.5,0-37.1-0.1-37.1-0.3c0-0.1,16.6-0.3,37.1-0.3
						C402.7,117.1,419.3,117.2,419.3,117.3z"/>
				</g>
			</g>
			<g>
				<g>
					<path class="st7" d="M419.3,126c0,0.1-16.6,0.3-37,0.3c-20.5,0-37.1-0.1-37.1-0.3c0-0.1,16.6-0.3,37.1-0.3
						C402.7,125.8,419.3,125.9,419.3,126z"/>
				</g>
			</g>
			<g>
				<g>
					<path class="st7" d="M403.1,134.7c0,0.1-13,0.3-28.9,0.3c-16,0-28.9-0.1-28.9-0.3c0-0.1,12.9-0.3,28.9-0.3
						C390.1,134.5,403.1,134.6,403.1,134.7z"/>
				</g>
			</g>
			<g>
				<g>
					<path class="st7" d="M365.5,160.6c0,0.1-21.8,0.3-48.6,0.3c-26.8,0-48.6-0.1-48.6-0.3c0-0.1,21.8-0.3,48.6-0.3
						S365.5,160.4,365.5,160.6z"/>
				</g>
			</g>
			<g>
				<g>
					<path class="st7" d="M365.5,167.8c0,0.1-21.8,0.3-48.6,0.3c-26.8,0-48.6-0.1-48.6-0.3c0-0.1,21.8-0.3,48.6-0.3
						C343.7,167.6,365.5,167.7,365.5,167.8z"/>
				</g>
			</g>
			<g>
				<g>
					<path class="st7" d="M365.5,175.1c0,0.1-21.8,0.3-48.6,0.3c-26.8,0-48.6-0.1-48.6-0.3c0-0.1,21.8-0.3,48.6-0.3
						S365.5,174.9,365.5,175.1z"/>
				</g>
			</g>
			<g>
				<g>
					<path class="st7" d="M365.5,182.3c0,0.1-21.8,0.3-48.6,0.3c-26.8,0-48.6-0.1-48.6-0.3c0-0.1,21.8-0.3,48.6-0.3
						C343.7,182.1,365.5,182.2,365.5,182.3z"/>
				</g>
			</g>
			<g>
				<g>
					<path class="st7" d="M365.5,189.6c0,0.1-21.8,0.3-48.6,0.3c-26.8,0-48.6-0.1-48.6-0.3c0-0.1,21.8-0.3,48.6-0.3
						S365.5,189.5,365.5,189.6z"/>
				</g>
			</g>
			<g>
				<g>
					<g>
						<g>
							<rect x="268.3" y="74.3" class="st10" width="59.7" height="57.8"/>
						</g>
					</g>
				</g>
				<g>
					<g>
						<g>
							<polygon class="st9" points="272.9,127.2 289.4,97.4 303,116.4 311.2,106.3 323.4,127.2 							"/>
						</g>
					</g>
				</g>
				<g>
					<g>
						<g>
							<path class="st9" d="M308.7,91.6c0,2.4-1.9,4.3-4.3,4.3s-4.3-1.9-4.3-4.3s1.9-4.3,4.3-4.3C306.8,87.3,308.7,89.3,308.7,91.6z
								"/>
						</g>
					</g>
				</g>
				<g>
					<g>
						<g>
							<g>
								<path class="st7" d="M323.4,127.3c0,0,0-0.1,0-0.2c0-0.2,0-0.4,0-0.7c0-0.6,0-1.5,0-2.6c0-2.3,0-5.6-0.1-9.8
									c0-8.4-0.1-20.5-0.1-34.9l0.2,0.2c-14.6,0-31.9,0-50.5,0c-0.1,0.1,0.5-0.5,0.3-0.3l0,0l0,0v0.1v0.1v0.2v0.4v0.8v1.6
									c0,1.1,0,2.2,0,3.3c0,2.2,0,4.3,0,6.4c0,4.2,0,8.4,0,12.5c0,8.1,0,15.7,0,22.8L273,127c15.1,0.1,27.6,0.1,36.5,0.1
									c4.4,0,7.9,0,10.3,0.1c1.2,0,2.1,0,2.7,0c0.3,0,0.5,0,0.7,0C323.3,127.3,323.4,127.3,323.4,127.3s-0.1,0-0.2,0
									c-0.2,0-0.4,0-0.7,0c-0.6,0-1.5,0-2.7,0c-2.4,0-5.8,0-10.2,0.1c-8.9,0-21.5,0.1-36.6,0.1h-0.2v-0.2c0-7,0-14.7,0-22.8
									c0-4,0-8.2,0-12.5c0-2.1,0-4.3,0-6.4c0-1.1,0-2.2,0-3.3v-1.6v-0.8v-0.4v-0.2v-0.1v-0.1l0,0l0,0c-0.3,0.2,0.3-0.4,0.3-0.3
									c18.5,0,35.8,0,50.5,0h0.2V79c-0.1,14.5-0.1,26.6-0.1,35c0,4.2,0,7.5-0.1,9.8c0,1.1,0,2,0,2.6c0,0.3,0,0.5,0,0.6
									C323.4,127.3,323.4,127.3,323.4,127.3z"/>
							</g>
						</g>
					</g>
				</g>
			</g>
			<g>
				<g>
					<g>
						<g>
							<rect x="378.9" y="152.6" class="st10" width="42.3" height="40.9"/>
						</g>
					</g>
				</g>
				<g>
					<g>
						<g>
							<polygon class="st9" points="382.2,190 393.9,168.9 403.4,182.4 409.2,175.2 417.9,190 							"/>
						</g>
					</g>
				</g>
				<g>
					<g>
						<g>
							<path class="st9" d="M407.5,164.8c0,1.7-1.4,3-3,3c-1.7,0-3-1.4-3-3c0-1.7,1.4-3,3-3S407.5,163.1,407.5,164.8z"/>
						</g>
					</g>
				</g>
				<g>
					<g>
						<g>
							<g>
								<path class="st7" d="M417.9,190.1c0,0,0-0.1,0-0.2c0-0.1,0-0.3,0-0.5c0-0.4,0-1,0-1.8c0-1.6,0-4,0-6.9
									c0-6-0.1-14.5-0.1-24.7l0.2,0.2c-10.3,0-22.6,0-35.7,0c0,0,0.4-0.4,0.2-0.2l0,0l0,0l0,0v0.1v0.1v0.3v0.6v1.2
									c0,0.8,0,1.5,0,2.3c0,1.5,0,3.1,0,4.6c0,3,0,5.9,0,8.8c0,5.7,0,11.1,0,16.1l-0.2-0.2c10.7,0,19.6,0.1,25.8,0.1
									c3.1,0,5.6,0,7.3,0c0.8,0,1.5,0,1.9,0c0.2,0,0.4,0,0.5,0C417.8,190.1,417.9,190.1,417.9,190.1s0,0-0.2,0c-0.1,0-0.3,0-0.5,0
									c-0.4,0-1.1,0-1.9,0c-1.7,0-4.1,0-7.2,0c-6.3,0-15.2,0.1-25.9,0.1H382V190c0-5,0-10.4,0-16.1c0-2.9,0-5.8,0-8.8
									c0-1.5,0-3,0-4.6c0-0.8,0-1.5,0-2.3V157v-0.6v-0.3V156l0,0l0,0l0,0l0,0c-0.2,0.2,0.2-0.3,0.2-0.2c13.1,0,25.4,0,35.7,0h0.2
									v0.2c0,10.3-0.1,18.8-0.1,24.8c0,3,0,5.3,0,6.9c0,0.8,0,1.4,0,1.8c0,0.2,0,0.3,0,0.5C417.9,190,417.9,190.1,417.9,190.1z"/>
							</g>
						</g>
					</g>
				</g>
			</g>
		</g>
	</g>
</g>
<g id="Computer">
	<g>
		<g>
			<g>
				<g>
					<path class="st6" d="M451.6,439.9H167.1c-8,0-14.6-6.5-14.6-14.6V247.1c0-8,6.5-14.6,14.6-14.6h284.5c8,0,14.6,6.5,14.6,14.6
						v178.2C466.2,433.4,459.6,439.9,451.6,439.9z"/>
				</g>
				<g>
					<path class="st6" d="M461.4,442.7H157.3c-9.8,0-17.8-8-17.8-17.8v-0.3h339.7v0.3C479.2,434.8,471.2,442.7,461.4,442.7z"/>
				</g>
				<g>
					<rect x="161" y="240.8" class="st9" width="295.9" height="175.1"/>
				</g>
				<g>
					<polygon class="st7" points="278.5,424.6 282.7,431.3 342,431.3 345.9,424.6 					"/>
				</g>
			</g>
			<g>
				<rect x="170.9" y="252.5" class="st11" width="272.4" height="163.4"/>
			</g>
			<g>
				<path class="st7" d="M182.5,260.5c0,1.3-1,2.3-2.3,2.3s-2.3-1-2.3-2.3s1-2.3,2.3-2.3S182.5,259.3,182.5,260.5z"/>
			</g>
			<g>
				<path class="st7" d="M191.8,260.5c0,1.3-1,2.3-2.3,2.3s-2.3-1-2.3-2.3s1-2.3,2.3-2.3S191.8,259.3,191.8,260.5z"/>
			</g>
			<g>
				<path class="st7" d="M201.1,260.5c0,1.3-1,2.3-2.3,2.3s-2.3-1-2.3-2.3s1-2.3,2.3-2.3S201.1,259.3,201.1,260.5z"/>
			</g>
			<g>
				<g>
					<path class="st7" d="M443.3,270.5c0,0.1-61,0.3-136.2,0.3s-136.2-0.1-136.2-0.3c0-0.1,61-0.3,136.2-0.3
						C382.3,270.3,443.3,270.4,443.3,270.5z"/>
				</g>
			</g>
			<g>
				<rect x="152.6" y="424.7" class="st7" width="313.6" height="1"/>
			</g>
		</g>
		<g>
			<g>
				<rect x="193.2" y="349.9" class="st7" width="59.6" height="4"/>
			</g>
			<g>
				<rect x="270.1" y="294.6" class="st7" width="59.6" height="4"/>
			</g>
			<g>
				<g>
					<path class="st7" d="M418.3,309.4c0,0.1-33.2,0.3-74.1,0.3s-74.1-0.1-74.1-0.3c0-0.1,33.2-0.3,74.1-0.3
						C385.2,309.1,418.3,309.3,418.3,309.4z"/>
				</g>
			</g>
			<g>
				<g>
					<path class="st7" d="M418.3,318.1c0,0.1-33.2,0.3-74.1,0.3s-74.1-0.1-74.1-0.3c0-0.1,33.2-0.3,74.1-0.3
						C385.2,317.8,418.3,318,418.3,318.1z"/>
				</g>
			</g>
			<g>
				<g>
					<path class="st7" d="M418.3,326.8c0,0.1-33.2,0.3-74.1,0.3s-74.1-0.1-74.1-0.3c0-0.1,33.2-0.3,74.1-0.3
						C385.2,326.6,418.3,326.7,418.3,326.8z"/>
				</g>
			</g>
			<g>
				<g>
					<path class="st7" d="M418.3,335.5c0,0.1-33.2,0.3-74.1,0.3s-74.1-0.1-74.1-0.3c0-0.1,33.2-0.3,74.1-0.3
						C385.2,335.3,418.3,335.4,418.3,335.5z"/>
				</g>
			</g>
			<g>
				<g>
					<path class="st7" d="M418.3,344.2c0,0.1-33.2,0.3-74.1,0.3s-74.1-0.1-74.1-0.3c0-0.1,33.2-0.3,74.1-0.3
						C385.2,344,418.3,344.1,418.3,344.2z"/>
				</g>
			</g>
			<g>
				<g>
					<path class="st7" d="M328,352.9c0,0.1-13,0.3-28.9,0.3c-16,0-28.9-0.1-28.9-0.3c0-0.1,12.9-0.3,28.9-0.3
						C315,352.7,328,352.8,328,352.9z"/>
				</g>
			</g>
			<g>
				<g>
					<path class="st7" d="M417.3,369.8c0,0.1-21.8,0.3-48.7,0.3c-26.9,0-48.7-0.1-48.7-0.3c0-0.1,21.8-0.3,48.7-0.3
						C395.5,369.6,417.3,369.7,417.3,369.8z"/>
				</g>
			</g>
			<g>
				<g>
					<path class="st7" d="M417.3,379.1c0,0.1-21.8,0.3-48.7,0.3c-26.9,0-48.7-0.1-48.7-0.3c0-0.1,21.8-0.3,48.7-0.3
						C395.5,378.8,417.3,378.9,417.3,379.1z"/>
				</g>
			</g>
			<g>
				<g>
					<path class="st7" d="M417.3,388.3c0,0.1-21.8,0.3-48.7,0.3c-26.9,0-48.7-0.1-48.7-0.3c0-0.1,21.8-0.3,48.7-0.3
						S417.3,388.1,417.3,388.3z"/>
				</g>
			</g>
			<g>
				<g>
					<path class="st7" d="M417.3,397.5c0,0.1-21.8,0.3-48.7,0.3c-26.9,0-48.7-0.1-48.7-0.3c0-0.1,21.8-0.3,48.7-0.3
						C395.5,397.3,417.3,397.4,417.3,397.5z"/>
				</g>
			</g>
			<g>
				<g>
					<path class="st7" d="M252.9,368.9c0,0.1-13,0.3-29,0.3s-29-0.1-29-0.3c0-0.1,13-0.3,29-0.3
						C239.9,368.7,252.9,368.8,252.9,368.9z"/>
				</g>
			</g>
			<g>
				<g>
					<path class="st7" d="M252.9,376.2c0,0.1-13,0.3-29,0.3s-29-0.1-29-0.3c0-0.1,13-0.3,29-0.3C239.9,375.9,252.9,376,252.9,376.2z
						"/>
				</g>
			</g>
			<g>
				<g>
					<path class="st7" d="M252.9,383.4c0,0.1-13,0.3-29,0.3s-29-0.1-29-0.3c0-0.1,13-0.3,29-0.3
						C239.9,383.2,252.9,383.3,252.9,383.4z"/>
				</g>
			</g>
			<g>
				<g>
					<path class="st7" d="M252.9,390.7c0,0.1-13,0.3-29,0.3s-29-0.1-29-0.3c0-0.1,13-0.3,29-0.3
						C239.9,390.4,252.9,390.6,252.9,390.7z"/>
				</g>
			</g>
			<g>
				<g>
					<path class="st7" d="M252.9,397.9c0,0.1-13,0.3-29,0.3s-29-0.1-29-0.3c0-0.1,13-0.3,29-0.3
						C239.9,397.7,252.9,397.8,252.9,397.9z"/>
				</g>
			</g>
			<g>
				<g>
					<g>
						<g>
							<rect x="193.2" y="281.5" class="st9" width="59.7" height="57.8"/>
						</g>
					</g>
				</g>
				<g>
					<g>
						<g>
							<polygon class="st5" points="197.8,334.4 214.3,304.6 227.9,323.7 236.1,313.6 248.3,334.4 							"/>
						</g>
					</g>
				</g>
				<g>
					<g>
						<g>
							<path class="st5" d="M233.6,298.9c0,2.4-1.9,4.3-4.3,4.3c-2.4,0-4.3-1.9-4.3-4.3s1.9-4.3,4.3-4.3
								C231.7,294.6,233.6,296.5,233.6,298.9z"/>
						</g>
					</g>
				</g>
				<g>
					<g>
						<g>
							<g>
								<path class="st7" d="M248.3,334.5c0,0,0-0.1,0-0.2c0-0.2,0-0.4,0-0.7c0-0.6,0-1.5,0-2.6c0-2.3,0-5.6-0.1-9.8
									c0-8.4-0.1-20.5-0.1-34.9l0.2,0.2c-14.6,0-31.9,0-50.5,0c-0.1,0.1,0.5-0.5,0.3-0.3l0,0l0,0v0.1v0.1v0.2v0.4v0.8v1.6
									c0,1.1,0,2.2,0,3.3c0,2.2,0,4.3,0,6.4c0,4.2,0,8.4,0,12.5c0,8.1,0,15.7,0,22.8l-0.2-0.2c15.1,0.1,27.6,0.1,36.5,0.1
									c4.4,0,7.9,0,10.3,0.1c1.2,0,2.1,0,2.7,0c0.3,0,0.5,0,0.7,0C248.2,334.5,248.3,334.5,248.3,334.5s-0.1,0-0.2,0
									c-0.2,0-0.4,0-0.7,0c-0.6,0-1.5,0-2.7,0c-2.4,0-5.9,0-10.2,0.1c-8.9,0-21.5,0.1-36.6,0.1h-0.2v-0.2c0-7,0-14.7,0-22.8
									c0-4,0-8.2,0-12.5c0-2.1,0-4.3,0-6.4c0-1.1,0-2.2,0-3.3V288v-0.8v-0.4v-0.2v-0.1v-0.1l0,0l0,0c-0.3,0.2,0.3-0.4,0.3-0.3
									c18.5,0,35.8,0,50.5,0h0.2v0.2c-0.1,14.5-0.1,26.6-0.1,35c0,4.2,0,7.5-0.1,9.8c0,1.1,0,2,0,2.6c0,0.3,0,0.5,0,0.6
									C248.3,334.5,248.3,334.5,248.3,334.5z"/>
							</g>
						</g>
					</g>
				</g>
			</g>
			<g>
				<g>
					<g>
						<g>
							<rect x="270.1" y="365.4" class="st9" width="42.3" height="40.9"/>
						</g>
					</g>
				</g>
				<g>
					<g>
						<g>
							<polygon class="st10" points="273.4,402.8 285.1,381.8 294.6,395.2 300.5,388.1 309.1,402.8 							"/>
						</g>
					</g>
				</g>
				<g>
					<g>
						<g>
							<path class="st5" d="M298.7,377.7c0,1.7-1.4,3-3,3c-1.7,0-3-1.4-3-3c0-1.7,1.4-3,3-3C297.4,374.6,298.7,376,298.7,377.7z"/>
						</g>
					</g>
				</g>
				<g>
					<g>
						<g>
							<g>
								<path class="st7" d="M309.1,402.9c0,0,0-0.1,0-0.2s0-0.3,0-0.5c0-0.4,0-1,0-1.8c0-1.6,0-4,0-6.9c0-6-0.1-14.5-0.1-24.7
									l0.2,0.2c-10.3,0-22.6,0-35.7,0c0,0,0.4-0.4,0.2-0.2l0,0l0,0l0,0v0.1v0.1v0.3v0.6v1.2c0,0.8,0,1.5,0,2.3c0,1.5,0,3.1,0,4.6
									c0,3,0,5.9,0,8.8c0,5.7,0,11.1,0,16.1l-0.2-0.2c10.7,0,19.6,0.1,25.8,0.1c3.1,0,5.6,0,7.3,0c0.8,0,1.5,0,1.9,0
									c0.2,0,0.4,0,0.5,0C309,402.9,309.1,402.9,309.1,402.9s0,0-0.2,0c-0.1,0-0.3,0-0.5,0c-0.4,0-1.1,0-1.9,0c-1.7,0-4.1,0-7.2,0
									c-6.3,0-15.2,0.1-25.9,0.1h-0.2v-0.2c0-5,0-10.4,0-16.1c0-2.9,0-5.8,0-8.8c0-1.5,0-3,0-4.6c0-0.8,0-1.5,0-2.3v-1v-0.6v-0.3
									V369v-0.1l0,0l0,0l0,0c-0.2,0.2,0.2-0.3,0.2-0.2c13.1,0,25.4,0,35.7,0h0.2v0.2c0,10.3-0.1,18.8-0.1,24.8c0,3,0,5.3,0,6.9
									c0,0.8,0,1.4,0,1.8c0,0.2,0,0.3,0,0.5C309.1,402.9,309.1,402.9,309.1,402.9z"/>
							</g>
						</g>
					</g>
				</g>
			</g>
		</g>
	</g>
</g>
<g>
	<g>
		<g>
			<path class="st10" d="M665.4,425l-10-1.2l-2.3,18.7l14.6,1.9l0.2-1.2c0.9-5.1,4.4-26.2,3.8-29.8C670.9,409.5,665.4,425,665.4,425
				z"/>
		</g>
	</g>
	<g>
		<g>
			<g>
				<path class="st6" d="M670.8,412.2c0.2,0-0.5,7.1-1.5,15.7c-1,8.7-2,15.7-2.2,15.6c-0.2,0,0.5-7.1,1.5-15.7
					S670.6,412.2,670.8,412.2z"/>
			</g>
		</g>
	</g>
	<g>
		<g>
			<g>
				<path class="st6" d="M667.4,424.1c-0.1,0.1-0.6-0.1-1.1-0.5c-0.5-0.5-0.7-1-0.5-1.1c0.1-0.1,0.6,0.2,1,0.6
					C667.2,423.6,667.5,424,667.4,424.1z"/>
			</g>
		</g>
	</g>
	<g>
		<g>
			<g>
				<path class="st6" d="M668.2,423c-0.1,0.2-0.7,0-1.3-0.4s-0.9-1-0.8-1.1c0.1-0.1,0.6,0.2,1.2,0.6
					C667.9,422.5,668.3,422.8,668.2,423z"/>
			</g>
		</g>
	</g>
	<g>
		<g>
			<g>
				<path class="st6" d="M667.6,437.9c0,0.1-0.3,0.3-0.7,0.7c-0.5,0.4-1.2,0.8-1.8,1.5c-0.6,0.6-0.9,1.4-1.1,1.9
					c-0.1,0.6-0.1,0.9-0.2,1c-0.1,0-0.3-0.4-0.2-1c0-0.7,0.4-1.6,1.1-2.3c0.7-0.7,1.5-1.2,2-1.4
					C667.2,437.9,667.6,437.8,667.6,437.9z"/>
			</g>
		</g>
	</g>
	<g>
		<g>
			<g>
				<path class="st6" d="M665.6,423.8c0.2-0.1,0.5,0.3,0.6,0.9s0,1-0.2,1s-0.3-0.4-0.4-0.9C665.4,424.3,665.4,423.9,665.6,423.8z"/>
			</g>
		</g>
	</g>
	<g>
		<g>
			<g>
				<path class="st6" d="M664.6,424c0.2,0,0.3,0.5,0.2,1.2c-0.1,0.6-0.3,1.1-0.4,1.1c-0.2,0-0.3-0.5-0.2-1.2
					C664.2,424.5,664.4,424,664.6,424z"/>
			</g>
		</g>
	</g>
</g>
<g>
	<polygon class="st6" points="659.2,444 603.8,438.4 488.9,441 519.4,416.4 596.2,412.7 663.2,421.9 	"/>
</g>
<g>
	<g>
		<path class="st7" d="M565.6,428.7c0,0.1-10.8,0.3-24.1,0.3s-24.1-0.1-24.1-0.3c0-0.1,10.8-0.3,24.1-0.3
			C554.8,428.4,565.6,428.5,565.6,428.7z"/>
	</g>
</g>
<g>
	<polygon points="560.2,414.4 564.1,439.2 571.7,439.2 565.9,414.1 	"/>
</g>
<g>
	<g>
		<g>
			<path class="st10" d="M589.5,439.5l-1.1-10l-18.8,2l1.5,14.7h1.2c5.2-0.3,26.5-1.7,29.8-3.1C605.8,441.4,589.5,439.5,589.5,439.5
				z"/>
		</g>
	</g>
	<g>
		<g>
			<g>
				<path class="st6" d="M602.4,442c0,0.2-7,1.1-15.6,2.1c-8.7,1-15.7,1.6-15.7,1.4s7-1.1,15.6-2.1
					C595.3,442.5,602.4,441.9,602.4,442z"/>
			</g>
		</g>
	</g>
	<g>
		<g>
			<g>
				<path class="st6" d="M590,441.5c-0.2-0.1-0.1-0.6,0.3-1.2c0.3-0.6,0.8-0.9,0.9-0.8c0.1,0.1-0.1,0.6-0.4,1.1
					C590.5,441.2,590.2,441.6,590,441.5z"/>
			</g>
		</g>
	</g>
	<g>
		<g>
			<g>
				<path class="st6" d="M591.3,442c-0.2,0-0.2-0.7,0.1-1.3c0.3-0.7,0.7-1.1,0.9-1s0,0.6-0.3,1.3C591.7,441.6,591.5,442.1,591.3,442
					z"/>
			</g>
		</g>
	</g>
	<g>
		<g>
			<g>
				<path class="st6" d="M576.7,444.8c-0.1,0.1-0.4-0.2-0.8-0.6c-0.5-0.4-1.1-1-1.8-1.4c-0.8-0.4-1.5-0.6-2.1-0.6s-0.9,0.1-1,0
					c0-0.1,0.3-0.4,0.9-0.5c0.6-0.1,1.6,0,2.5,0.5s1.5,1.2,1.8,1.6C576.6,444.4,576.7,444.8,576.7,444.8z"/>
			</g>
		</g>
	</g>
	<g>
		<g>
			<g>
				<path class="st6" d="M589.9,439.6c0.1,0.1-0.2,0.5-0.7,0.8c-0.5,0.2-1,0.2-1,0.1c0-0.2,0.3-0.4,0.8-0.6
					C589.3,439.6,589.8,439.5,589.9,439.6z"/>
			</g>
		</g>
	</g>
	<g>
		<g>
			<g>
				<path class="st6" d="M589.5,438.7c0,0.2-0.4,0.4-1.1,0.5c-0.6,0.1-1.2,0-1.2-0.2s0.5-0.4,1.1-0.5
					C588.9,438.4,589.4,438.5,589.5,438.7z"/>
			</g>
		</g>
	</g>
</g>
<g>
	<path class="st12" d="M479.5,325.1l16-0.3c0.2-1.9,0.5-9.1,0.5-9.1s6.7-0.6,7.2-7.3c0.5-6.6,0.3-21.9,0.3-21.9l0,0
		c-7.5-3.8-16.4-3.2-23.3,1.5l-1,0.7L479.5,325.1z"/>
</g>
<g>
	<path class="st13" d="M496.1,315.7c0,0-4.2,0.1-8.5-3c0,0,1.8,4.9,8.4,4.7L496.1,315.7z"/>
</g>
<g>
	<path class="st6" d="M504,284.2c1.5,0,2.8-1.7,2.3-3.2c-0.4-1.5-2.4-2.2-3.7-1.4c0.7-0.7,1.5-1.4,1.9-2.4c0.4-0.9,0.3-2.2-0.5-2.8
		c-0.8-0.7-1.9-0.6-2.9-0.2c-1.4,0.6-2.5,1.8-4,2.3s-3.1,0.3-4.6,0.3c-1.7,0.1-3.4,0.6-4.8,1.7c-1.3,1.1-2.2,2.8-2.1,4.5
		c-2.2-0.3-4.6-0.3-6.3,1.1c-1.4,1.1-2.1,3.1-2.1,4.9s0.8,3.6,1.3,5.3l0,0c0.3,1,0.7,1.4,0.7,1.4l0.8,4.8l3-0.1l-0.2-9.9
		c0,0-0.3-4.2,3.3-3.8c3.6,0.4,8.5,4.4,15.5,3.4c1.1-0.2,2.3-0.3,3.3-0.9c0.9-0.6,1.6-1.8,1.5-2.9C506.3,285,505.1,284,504,284.2z"
		/>
</g>
<g>
	<g>
		<path class="st12" d="M480.4,294.6c-0.1-0.1-4.9-0.7-4.5,5c0.5,5.6,6,3.3,6,3.2C482,302.6,480.4,294.6,480.4,294.6z"/>
	</g>
	<g>
		<g>
			<path class="st13" d="M480.1,300.9c0,0-0.1,0.1-0.3,0.2c-0.2,0.1-0.4,0.2-0.7,0.1c-0.6-0.2-1.2-1.1-1.3-2.1c-0.1-0.5,0-1,0.2-1.4
				c0.1-0.4,0.4-0.7,0.7-0.8c0.3-0.1,0.5,0.1,0.6,0.2c0.1,0.2,0.1,0.3,0.1,0.3s0.1-0.1,0-0.3c0-0.1-0.1-0.2-0.2-0.3
				c-0.1-0.1-0.3-0.1-0.6-0.1c-0.4,0.1-0.8,0.5-1,1s-0.3,1-0.2,1.6c0.1,1.1,0.8,2.2,1.6,2.3c0.4,0.1,0.7-0.1,0.9-0.2
				C480.1,301.1,480.1,300.9,480.1,300.9z"/>
		</g>
	</g>
</g>
<g>
	<path class="st7" d="M466.5,424c3,4.5,21.2,31.8,42.9,11.9c27.7-25.4,49.6-47.6,49.6-47.6l8.2,50.2l25.8-1.4c0,0-10-74.7-16.4-81.5
		c-7.1-7.6-13.6-6.9-69.3,37L466.5,424z"/>
</g>
<g>
	<g>
		<polygon class="st6" points="558.7,339 582.7,321.4 583.9,323.3 560,341.1 		"/>
	</g>
	<g>
		<path class="st12" d="M564.6,338.4c0,0,3.2-8.4,4-10.2c0.7-1.8,2-4.9,2.4-5c0.5-0.1,2.1,0.2-0.1,5.5c-2.2,5.3,2.6,2.1,2.6,2.1
			l4.6-3.3c0,0,3.7,10.9,1.6,14.2c-2.3,3.6-5.5,7-5.5,7L564.6,338.4z"/>
	</g>
	<g>
		<path class="st10" d="M564.9,337.4c-0.5-1.1-31.1,25.9-37.2,26.8L509.9,341c0,0-3.7-5.9-11.7-15.9c-5.1-6.5-19.3-5.1-23,2.8
			c-6.3,13.4-6.4,28.4-9.8,57.5L464,405c-0.3,4.2-0.3,8.4,0.2,12.6c0.5,4.9,1.6,10,3.9,9.3l40.8-33.7l1.3-15.3
			c8.6,8.7,11.2,10.5,15.7,9.8c11.2-1.7,50.5-37.1,50.5-37.1S565.4,338.5,564.9,337.4z"/>
	</g>
	<g>
		<g>
			<path class="st6" d="M571.2,355.4c0,0.1-0.9-0.6-2.2-1.7s-3-2.8-4.7-4.8s-3.1-3.9-4-5.4s-1.4-2.4-1.3-2.4c0.1,0,0.7,0.8,1.6,2.2
				c1,1.4,2.4,3.3,4.1,5.3c1.7,2,3.3,3.7,4.5,4.9C570.5,354.6,571.2,355.4,571.2,355.4z"/>
		</g>
	</g>
	<g>
		<g>
			<path class="st6" d="M526,373.5c-0.1,0,0.1-2.1,0.6-4.6s0.9-4.6,1.1-4.6c0.1,0-0.1,2.1-0.6,4.6
				C526.6,371.5,526.1,373.5,526,373.5z"/>
		</g>
	</g>
	<g>
		<g>
			<path class="st6" d="M529.9,372.5c-0.1,0-0.7-1.8-1.4-4c-0.6-2.2-1-4.1-0.8-4.1c0.1,0,0.7,1.8,1.4,4
				C529.7,370.7,530,372.5,529.9,372.5z"/>
		</g>
	</g>
	<g>
		<g>
			<path class="st6" d="M485.7,345.1c0,0,0.4,0.4,1,1.3c0.7,0.9,1.6,2.1,2.7,3.6c2.2,3.1,5.4,7.2,8.9,11.8c3.5,4.5,6.7,8.7,9,11.7
				c1.1,1.5,2,2.7,2.7,3.6c0.6,0.8,1,1.3,0.9,1.4c0,0-0.4-0.4-1.1-1.2c-0.7-0.8-1.7-2-2.9-3.5c-2.4-2.9-5.7-7-9.2-11.6
				s-6.6-8.8-8.8-11.9c-1.1-1.6-2-2.8-2.5-3.7C486,345.7,485.7,345.2,485.7,345.1z"/>
		</g>
	</g>
	<g>
		<g>
			<path class="st6" d="M480.5,364.9c-0.1,0.1-1.4-0.9-2.9-2.2c-1.5-1.3-2.6-2.5-2.5-2.6s1.4,0.9,2.9,2.2S480.6,364.8,480.5,364.9z"
				/>
		</g>
	</g>
	<g>
		<g>
			<path class="st6" d="M477,376.2c0.1,0.1-0.7,1.5-1.8,3.1c-1.1,1.6-2.1,2.9-2.2,2.8s0.7-1.5,1.8-3.1
				C475.9,377.4,476.9,376.1,477,376.2z"/>
		</g>
	</g>
	<g>
		<g>
			<path class="st6" d="M481.9,391.7c-0.1,0.1-1-0.8-2-2s-1.7-2.2-1.6-2.3c0.1-0.1,1,0.8,2,2C481.3,390.6,482,391.6,481.9,391.7z"/>
		</g>
	</g>
	<g>
		<g>
			<path class="st6" d="M472.4,401.7c0.1,0.1-0.9,0.9-2.2,1.8c-1.3,0.9-2.5,1.5-2.5,1.4c-0.1-0.1,0.9-0.9,2.2-1.8
				S472.3,401.6,472.4,401.7z"/>
		</g>
	</g>
	<g>
		<g>
			<path class="st6" d="M485.7,404.3c-0.1,0.1-1.4-0.7-2.7-2.1c-1.2-1.5-1.8-2.9-1.7-3c0.1-0.1,0.9,1.2,2.1,2.6
				C484.6,403.3,485.8,404.2,485.7,404.3z"/>
		</g>
	</g>
	<g>
		<g>
			<path class="st6" d="M498.1,394.9c0.1,0.1-1.1,1.2-2.6,2.5s-2.8,2.2-2.9,2.1s1.1-1.2,2.6-2.5S498,394.8,498.1,394.9z"/>
		</g>
	</g>
	<g>
		<g>
			<path class="st6" d="M472.6,413.1c-0.1,0.1-1.2-0.5-2.3-1.6c-1.1-1.1-1.7-2.2-1.5-2.3c0.1-0.1,0.9,0.9,1.9,1.9
				C471.7,412.2,472.7,413,472.6,413.1z"/>
		</g>
	</g>
	<g>
		<g>
			<path class="st6" d="M500.3,386c0.1,0.1-1.1,0.7-2.7,1s-2.9,0.3-2.9,0.2c0-0.1,1.3-0.3,2.8-0.7C499,386.2,500.3,385.9,500.3,386z
				"/>
		</g>
	</g>
	<g>
		<g>
			<path class="st6" d="M491.1,375.5c0.1,0.1-0.4,1.6-1,3.6c-0.5,1.7-1,3.1-1.2,3.4h-0.1c0-0.1,0.1-0.1,0.1-0.1s0,0,0,0.1h-0.1
				c0-0.4,0.2-1.8,0.8-3.5C490.2,376.9,491,375.4,491.1,375.5z"/>
		</g>
	</g>
	<g>
		<g>
			<path class="st6" d="M495,368.8c-0.1,0.1-1.4-0.7-3-1.8c-1.6-1.1-2.7-2.1-2.7-2.2c0.1-0.1,1.4,0.7,3,1.8
				C493.9,367.7,495.1,368.7,495,368.8z"/>
		</g>
	</g>
	<g>
		<g>
			<path class="st6" d="M487,354.1c0.1,0.1-0.5,1.3-1.5,2.7c-1,1.4-2,2.3-2.1,2.3c-0.1-0.1,0.7-1.2,1.7-2.6
				C486.1,355.2,486.9,354,487,354.1z"/>
		</g>
	</g>
	<g>
		<g>
			<path class="st6" d="M474.8,352.1c-0.1,0-0.1-1.5,0-3.4c0.2-1.9,0.4-3.4,0.5-3.3c0.1,0,0.1,1.5,0,3.4
				C475.2,350.6,475,352.1,474.8,352.1z"/>
		</g>
	</g>
	<g>
		<g>
			<path class="st6" d="M470.1,374.2c-0.1,0-0.3-1.6-0.3-3.6s0.1-3.6,0.2-3.7c0.1,0,0.3,1.6,0.3,3.6
				C470.3,372.5,470.2,374.2,470.1,374.2z"/>
		</g>
	</g>
	<g>
		<g>
			<path class="st6" d="M469.4,395.3c-0.1,0-0.5-0.9-0.9-2.2c-0.4-1.2-0.5-2.3-0.4-2.3s0.5,0.9,0.9,2.2
				C469.4,394.2,469.5,395.3,469.4,395.3z"/>
		</g>
	</g>
	<g>
		<g>
			<path class="st6" d="M486.2,335.6c0.1,0.1-1.2,1.2-2.6,2.5c-1.4,1.4-2.5,2.6-2.6,2.5s0.8-1.5,2.2-2.9
				C484.8,336.4,486.2,335.5,486.2,335.6z"/>
		</g>
	</g>
	<g>
		<g>
			<path class="st6" d="M479.1,333.2c-0.1,0-0.2-1.5-0.1-3.3s0.3-3.3,0.4-3.3s0.2,1.5,0.1,3.3C479.4,331.8,479.2,333.2,479.1,333.2z
				"/>
		</g>
	</g>
	<g>
		<g>
			<path class="st6" d="M496.6,330.9c-0.1,0.1-1.3-0.8-2.8-1.8s-2.7-1.8-2.7-1.9c0.1-0.1,1.4,0.5,3,1.5S496.7,330.8,496.6,330.9z"/>
		</g>
	</g>
	<g>
		<g>
			<path class="st6" d="M492.8,343.3c-0.1,0-0.3-1.6-0.3-3.5s0-3.5,0.2-3.5c0.1,0,0.3,1.6,0.3,3.5C493,341.8,493,343.3,492.8,343.3z
				"/>
		</g>
	</g>
	<g>
		<g>
			<path class="st6" d="M503.1,350.6c-0.1,0.1-1.4-0.3-3-0.7c-1.6-0.4-3-0.6-3-0.8c0-0.1,1.4-0.1,3.1,0.3
				C501.9,349.9,503.1,350.5,503.1,350.6z"/>
		</g>
	</g>
	<g>
		<g>
			<path class="st6" d="M503.8,343.2c-0.1,0-0.3-1.3-0.3-2.9s0.1-2.9,0.2-2.9s0.3,1.3,0.3,2.9C504,341.9,503.9,343.2,503.8,343.2z"
				/>
		</g>
	</g>
	<g>
		<g>
			<path class="st6" d="M511.6,355.7c-0.1,0-0.3-1.7-0.4-3.7c-0.1-2.1,0-3.7,0.1-3.7s0.3,1.7,0.4,3.7
				C511.8,354,511.7,355.7,511.6,355.7z"/>
		</g>
	</g>
	<g>
		<g>
			<path class="st6" d="M505.6,359.9c-0.1,0.1-0.9-0.6-1.8-1.6s-1.5-1.9-1.4-2s0.9,0.6,1.8,1.6S505.7,359.8,505.6,359.9z"/>
		</g>
	</g>
	<g>
		<g>
			<path class="st6" d="M513.2,365.7c0,0.1-1.3,0.4-2.9,0.5s-3,0.1-3,0s1.3-0.4,2.9-0.5C511.8,365.5,513.2,365.5,513.2,365.7z"/>
		</g>
	</g>
	<g>
		<g>
			<path class="st6" d="M518.9,368.6c-0.1,0-0.3-1.5-0.4-3.3c-0.1-1.8,0-3.3,0.1-3.3s0.3,1.5,0.4,3.3
				C519.1,367.1,519,368.6,518.9,368.6z"/>
		</g>
	</g>
	<g>
		<g>
			<path class="st6" d="M524.5,379.5c0,0.1-1.6,0.3-3.6,0c-2-0.2-3.6-0.7-3.5-0.8c0-0.1,1.6,0.1,3.6,0.3
				C522.9,379.3,524.5,379.4,524.5,379.5z"/>
		</g>
	</g>
	<g>
		<g>
			<path class="st6" d="M534.2,374.5c0.1,0-0.3,1.5-0.9,3.3c-0.6,1.8-1.2,3.2-1.4,3.1c-0.1,0,0.3-1.5,0.9-3.3
				C533.5,375.9,534.1,374.4,534.2,374.5z"/>
		</g>
	</g>
	<g>
		<g>
			<path class="st6" d="M541.2,365.7c0,0.1-1.4-0.1-3.1-0.6c-1.7-0.5-3-0.9-2.9-1.1c0-0.1,1.4,0.1,3.1,0.6
				C540,365,541.3,365.5,541.2,365.7z"/>
		</g>
	</g>
	<g>
		<g>
			<path class="st6" d="M546.8,369c0.1,0.1-0.9,1.1-2.2,2.3c-1.3,1.1-2.4,2-2.5,1.9s0.9-1.1,2.2-2.3S546.8,368.9,546.8,369z"/>
		</g>
	</g>
	<g>
		<g>
			<path class="st6" d="M549.1,360.7c-0.1,0-0.7-1.4-1-3.2c-0.3-1.8-0.3-3.4-0.1-3.4c0.1,0,0.3,1.5,0.7,3.3
				C548.9,359.2,549.2,360.7,549.1,360.7z"/>
		</g>
	</g>
	<g>
		<g>
			<path class="st6" d="M559.8,358.8c0.1,0.1-1.4,1.4-3.1,3.1c-1.7,1.7-3,3.1-3.1,3s1-1.7,2.8-3.4
				C558.1,359.8,559.7,358.7,559.8,358.8z"/>
		</g>
	</g>
	<g>
		<g>
			<path class="st6" d="M560.9,355c-0.1,0.1-1.5-0.3-3.3-1s-3.2-1.3-3.1-1.5c0.1-0.1,1.5,0.3,3.3,1
				C559.5,354.2,560.9,354.9,560.9,355z"/>
		</g>
	</g>
	<g>
		<g>
			<path class="st6" d="M559.8,350.9c-0.1,0-0.6-1.2-1-2.7s-0.7-2.8-0.5-2.8c0.1,0,0.6,1.2,1,2.7S560,350.9,559.8,350.9z"/>
		</g>
	</g>
	<g>
		<g>
			<path class="st6" d="M503.9,379.7c-0.1,0.1-1-0.9-1.9-2.2c-0.9-1.3-1.6-2.4-1.5-2.5s1,0.9,1.9,2.2
				C503.3,378.5,504,379.6,503.9,379.7z"/>
		</g>
	</g>
</g>
<g>
	<g>
		<path class="st6" d="M580.1,430.1c0,0,0-0.1-0.1-0.4c0-0.3-0.1-0.7-0.2-1.3c-0.1-1.1-0.4-2.8-0.6-4.8c-0.6-4.2-1.4-10.3-2.6-17.8
			c-1.2-7.5-2.8-16.4-5.1-26.1c-0.3-1.2-0.6-2.4-1.2-3.5c-0.6-1.1-1.4-2.1-2.4-2.9c-2-1.6-4.6-2.6-7.3-2.4c-1.3,0.1-2.7,0.4-3.9,1
			s-2.3,1.5-3.4,2.3c-2.3,1.7-4.6,3.4-6.9,5.1c-9.3,6.9-17.9,13.8-25.7,20.1c-7.8,6.4-14.5,12.4-20.1,17.4c-2.9,2.5-5.9,4.4-9,4.7
			c-1.5,0.2-3-0.1-4.2-0.5c-1.2-0.5-2.2-1.1-3.1-1.7c-1.7-1.3-2.8-2.5-3.6-3.3c-0.4-0.4-0.6-0.7-0.9-0.9c-0.2-0.2-0.3-0.3-0.3-0.3
			s0.1,0.1,0.3,0.3c0.2,0.2,0.5,0.5,0.9,0.9c0.8,0.8,1.9,2,3.6,3.2c0.9,0.6,1.9,1.2,3.1,1.6s2.6,0.7,4.1,0.4c3-0.3,6-2.3,8.8-4.7
			c5.6-5.1,12.3-11.1,20.1-17.5c7.7-6.4,16.4-13.2,25.7-20.2c2.3-1.7,4.6-3.4,6.9-5.1c1.1-0.8,2.2-1.7,3.5-2.4
			c1.3-0.7,2.7-1,4.1-1.1c2.8-0.2,5.6,0.8,7.6,2.5c1,0.9,1.9,1.9,2.5,3.1s1,2.4,1.2,3.7c2.3,9.8,3.8,18.7,5,26.2s1.9,13.6,2.4,17.8
			c0.2,2.1,0.4,3.7,0.5,4.9c0.1,0.5,0.1,1,0.1,1.3C580.1,429.9,580.1,430.1,580.1,430.1z"/>
	</g>
</g>
<g>
	<g>
		<path class="st6" d="M591.8,429.5c0,0-0.4,0.1-1,0.2s-1.6,0.1-2.8,0.2c-2.3,0.2-5.5,0.3-9.1,0.5c-3.5,0.2-6.6,0.3-9.1,0.4
			c-1.1,0-2,0.1-2.8,0.1c-0.7,0-1,0-1,0s0.4-0.1,1-0.2s1.6-0.2,2.7-0.3c2.3-0.2,5.5-0.4,9.1-0.5c3.5-0.1,6.6-0.2,9.1-0.3
			c1.1,0,2,0,2.8-0.1C591.4,429.5,591.8,429.5,591.8,429.5z"/>
	</g>
</g>
<g>
	<g>
		<path class="st6" d="M566.2,380.6c0.1,0.1-1.5,2.5-3.9,5.2s-4.7,4.5-4.8,4.3c-0.1-0.1,2-2.1,4.4-4.7
			C564.3,382.8,566,380.5,566.2,380.6z"/>
	</g>
</g>
<g>
	<g>
		<path class="st6" d="M567.1,383.6c0.1,0.1-1.9,1.3-4.3,2.8c-2.4,1.5-4.3,2.7-4.4,2.6c-0.1-0.1,1.7-1.5,4.1-3
			C565,384.5,567.1,383.5,567.1,383.6z"/>
	</g>
</g>
<g>
	<g>
		<path class="st7" d="M651.4,432.1c0,0-0.2,0-0.6,0c-0.5,0-1-0.1-1.7-0.1c-1.6-0.1-3.7-0.4-6.4-0.6c-5.5-0.6-12.9-1.3-21.1-2.2
			c-8.2-0.9-15.7-1.8-21.1-2.1c-2.7-0.1-4.9-0.1-6.4-0.1c-0.7,0-1.3,0.1-1.7,0.1s-0.6,0-0.6,0s0.2-0.1,0.6-0.1
			c0.4-0.1,1-0.1,1.7-0.2c1.5-0.1,3.7-0.2,6.4-0.1c5.4,0.2,12.9,1.1,21.1,1.9c8.2,0.9,15.6,1.7,21.1,2.4c2.6,0.3,4.8,0.6,6.4,0.8
			c0.7,0.1,1.3,0.2,1.7,0.2C651.2,432,651.4,432.1,651.4,432.1z"/>
	</g>
</g>
<g>
	<g>
		<path class="st7" d="M650.1,443.3c-0.1,0,0.3-5,1-11.2s1.4-11.2,1.5-11.1c0.1,0-0.3,5-1,11.2C650.9,438.3,650.2,443.3,650.1,443.3
			z"/>
	</g>
</g>
</svg>
