<?xml version="1.0" encoding="utf-8"?>
<!-- Generator: Adobe Illustrator 23.0.1, SVG Export Plug-In . SVG Version: 6.00 Build 0)  -->
<svg version="1.1" id="Layer_1" xmlns="http://www.w3.org/2000/svg" xmlns:xlink="http://www.w3.org/1999/xlink" x="0px" y="0px"
	 viewBox="0 0 3500 2000" style="enable-background:new 0 0 3500 2000;" xml:space="preserve">
<style type="text/css">
	.st0{fill:#E0E0E0;}
	.st1{fill:#FFFFFF;}
	.st2{fill:#F5F5F5;}
	.st3{fill:#EBEBEB;}
	.st4{fill:#263238;}
	.st5{fill:#FFBE9D;}
	.st6{fill:#455A64;}
	.st7{fill:#EB996E;}
	.st8{fill:#00858E;}
	.st9{opacity:0.3;enable-background:new    ;}
	.st10{fill:#FFC93C;}
	.st11{opacity:0.4;enable-background:new    ;}
	.st12{opacity:0.2;enable-background:new    ;}
	.st13{fill:#FAFAFA;}
	.st14{opacity:0.2;fill:#FFFFFF;enable-background:new    ;}
</style>
<g>
	<path class="st0" d="M358.4,1216.4H839v696.9H361.5L358.4,1216.4z"/>
	<path class="st1" d="M798.3,1219.5v690.2H322.2v-690.2H798.3z"/>
	<path class="st0" d="M801.9,1216.4v696.9H319.1v-696.9H801.9z M795.2,1906.6v-683.5H325.8V1907L795.2,1906.6z"/>
	<path class="st1" d="M739.7,1294.6v540.9H381.7v-540.9H739.7z"/>
	<path class="st0" d="M381.7,1294.6v39.8c0,25.9,0.4,63.9,0.4,111.3c0,95.2,0.4,230.2,0.9,389.4l-1.3-1.8h357.6l-1.8,1.8
		c0-203.8,0.4-392,0.4-540.9l1.3,1.3l-260.2-0.9l-71.5-0.4h-25.9h25l71.5-0.4l261.1-0.9h1.3v0.9c0,148.9,0,336.6,0.4,540.9v1.8
		H379.9v-0.9c0.4-159.1,0.4-294.6,0.9-390.3c0-47.4,0.4-84.9,0.4-111.3v-37.1C381.2,1295,381.7,1294.6,381.7,1294.6L381.7,1294.6z"
		/>
	<path class="st0" d="M320.9,1910.1c2.2-4.5,4.5-8,7.6-12.1c4.9-7.2,12.5-16.5,20.6-26.8c8-10.3,16.1-19.7,21.9-25.9
		c3.1-3.6,6.3-7.2,10.3-9.8c0.9,0.4-13,17.4-29.5,38S321.8,1910.6,320.9,1910.1z"/>
	<path class="st0" d="M322.2,1219.5c0.9-0.4,14.8,15.6,30.8,36.2c16.1,20.6,29.1,38,28.2,38.4c-0.9,0.4-14.8-15.6-30.8-36.2
		C334.3,1237.4,321.8,1220.4,322.2,1219.5z"/>
	<path class="st1" d="M798.7,1220.4l-62.6,76.9"/>
	<path class="st0" d="M736.2,1297.3c-0.9-0.4,12.5-18.3,30-39.8c17.4-21.5,31.7-38,32.6-37.5c0.9,0.4-12.5,18.3-30,39.8
		C751.4,1281.2,737,1297.7,736.2,1297.3z"/>
	<path class="st0" d="M798.7,1910.1c-0.9,0.4-14.3-15.6-30.8-35.8c-16.5-20.1-28.6-37.5-27.7-38c0.9-0.4,14.3,15.6,30.4,35.8
		C786.7,1892.3,799.2,1909.2,798.7,1910.1L798.7,1910.1z"/>
	<path class="st0" d="M583.7,1572.6h-63l-7.6,17.4c-2.2,4.5-3.6,9.4-3.6,14.3c-0.4,4.5,2.2,8.9,5.8,11.2c5.8,2.2,11.6,3.1,17.4,3.1
		v4.9h-59.5v-4.9c5.8-0.9,11.6-3.6,15.6-8c6.3-8,11.6-17,15.2-26.8l63.9-142.2h2.7l64.4,146.2c6.3,13.9,11.2,22.4,15.2,26.4
		c3.6,3.1,8,4.5,12.5,4.9v4.9h-86.3v-4.9h3.6c4.9,0.4,10.3-0.4,14.8-2.7c1.8-1.3,3.1-3.6,2.7-6.3c0-1.8-0.4-3.1-0.9-4.9
		c0-0.9-1.3-4-4-9.8L583.7,1572.6L583.7,1572.6z M579.2,1562.8l-26.4-61.2l-27.7,61.2H579.2z"/>
	<path class="st0" d="M730.8,474.8c1.8-0.4,3.1-0.9,4.9-0.4h1.8l-0.4,0.4c0-1.8,0.4-3.1,0.4-3.1s0.4,1.3,0.4,3.1v0.4h-2.7
		C733.9,475.6,732.1,475.2,730.8,474.8z"/>
	<path class="st0" d="M717.4,474.8c0-0.4,1.3-0.4,3.1-0.4c1.8,0,3.1,0.4,3.1,0.4s-1.3,0.4-3.1,0.4
		C718.7,475.2,717.4,475.2,717.4,474.8z"/>
	<path class="st0" d="M704.4,474.8c0-0.4,1.3-0.4,3.1-0.4s3.1,0.4,3.1,0.4s-1.3,0.4-3.1,0.4S704.4,475.2,704.4,474.8z"/>
	<path class="st0" d="M691.4,474.8c0-0.4,1.3-0.4,3.1-0.4c1.8,0,3.1,0.4,3.1,0.4s-1.3,0.4-3.1,0.4
		C692.8,475.2,691.4,475.2,691.4,474.8z"/>
	<path class="st0" d="M678.5,474.8c0-0.4,1.3-0.4,3.1-0.4c1.8,0,3.1,0.4,3.1,0.4s-1.3,0.4-3.1,0.4
		C679.8,475.2,678.5,475.2,678.5,474.8z"/>
	<path class="st0" d="M665.5,474.8c0-0.4,1.3-0.4,3.1-0.4c1.8,0,3.1,0.4,3.1,0.4s-1.3,0.4-3.1,0.4
		C666.9,475.2,665.5,475.2,665.5,474.8z"/>
	<path class="st0" d="M652.6,474.8c0-0.4,1.3-0.4,3.1-0.4s3.1,0.4,3.1,0.4s-1.3,0.4-3.1,0.4S652.6,475.2,652.6,474.8z"/>
	<path class="st0" d="M639.1,474.8c0-0.4,1.3-0.4,3.1-0.4c1.8,0,3.1,0.4,3.1,0.4s-1.3,0.4-3.1,0.4
		C640.5,475.2,639.1,475.2,639.1,474.8z"/>
	<path class="st0" d="M626.2,474.8c0-0.4,1.3-0.4,3.1-0.4s3.1,0.4,3.1,0.4s-1.3,0.4-3.1,0.4S626.2,475.2,626.2,474.8z"/>
	<path class="st0" d="M613.2,474.8c0-0.4,1.3-0.4,3.1-0.4c1.8,0,3.1,0.4,3.1,0.4s-1.3,0.4-3.1,0.4
		C614.6,475.2,613.2,475.2,613.2,474.8z"/>
	<path class="st0" d="M600.3,474.8c0-0.4,1.3-0.4,3.1-0.4c1.8,0,3.1,0.4,3.1,0.4s-1.3,0.4-3.1,0.4
		C601.6,475.2,600.3,475.2,600.3,474.8z"/>
	<path class="st0" d="M587.3,474.8c0-0.4,1.3-0.4,3.1-0.4c1.8,0,3.1,0.4,3.1,0.4s-1.3,0.4-3.1,0.4
		C588.6,475.2,587.3,475.2,587.3,474.8z"/>
	<path class="st0" d="M574.3,474.8c0-0.4,1.3-0.4,3.1-0.4s3.1,0.4,3.1,0.4s-1.3,0.4-3.1,0.4S574.3,475.2,574.3,474.8z"/>
	<path class="st0" d="M561.4,474.8c0-0.4,1.3-0.4,3.1-0.4c1.8,0,3.1,0.4,3.1,0.4s-1.3,0.4-3.1,0.4
		C562.7,475.2,561.4,475.2,561.4,474.8z"/>
	<path class="st0" d="M548,474.8c0-0.4,1.3-0.4,3.1-0.4c1.8,0,3.1,0.4,3.1,0.4s-1.3,0.4-3.1,0.4C549.3,475.2,548,475.2,548,474.8z"
		/>
	<path class="st0" d="M535,474.8c0-0.4,1.3-0.4,3.1-0.4s3.1,0.4,3.1,0.4s-1.3,0.4-3.1,0.4S535,475.2,535,474.8z"/>
	<path class="st0" d="M522,474.8c0-0.4,1.3-0.4,3.1-0.4c1.8,0,3.1,0.4,3.1,0.4s-1.3,0.4-3.1,0.4C523.4,475.2,522,475.2,522,474.8z"
		/>
	<path class="st0" d="M509.1,474.8c0-0.4,1.3-0.4,3.1-0.4c1.8,0,3.1,0.4,3.1,0.4s-1.3,0.4-3.1,0.4
		C510.4,475.2,509.1,475.2,509.1,474.8z"/>
	<path class="st0" d="M505,465.8c0.4,0,0.4,1.3,0.4,3.1c0,1.8-0.4,3.1-0.4,3.1s-0.4-1.3-0.4-3.1C504.6,467.2,504.6,465.8,505,465.8z
		"/>
	<path class="st0" d="M505,452.8c0.4,0,0.4,1.3,0.4,3.1c0,1.8-0.4,3.1-0.4,3.1s-0.4-1.3-0.4-3.1C504.6,454.2,504.6,452.8,505,452.8z
		"/>
	<path class="st0" d="M505,439.9c0.4,0,0.4,1.3,0.4,3.1s-0.4,3.1-0.4,3.1s-0.4-1.3-0.4-3.1S504.6,439.9,505,439.9z"/>
	<path class="st0" d="M505,426.9c0.4,0,0.4,1.3,0.4,3.1c0,1.8-0.4,3.1-0.4,3.1s-0.4-1.3-0.4-3.1C504.6,428.3,504.6,426.9,505,426.9z
		"/>
	<path class="st0" d="M505,414c0.4,0,0.4,1.3,0.4,3.1s-0.4,3.1-0.4,3.1s-0.4-1.3-0.4-3.1S504.6,414,505,414z"/>
	<path class="st0" d="M505,401c0.4,0,0.4,1.3,0.4,3.1c0,1.8-0.4,3.1-0.4,3.1s-0.4-1.3-0.4-3.1C504.6,402.3,504.6,401,505,401z"/>
	<path class="st0" d="M505,387.6c0.4,0,0.4,1.3,0.4,3.1c0,1.8-0.4,3.1-0.4,3.1s-0.4-1.3-0.4-3.1C504.6,388.9,504.6,387.6,505,387.6z
		"/>
	<path class="st0" d="M505,374.6c0.4,0,0.4,1.3,0.4,3.1s-0.4,3.1-0.4,3.1s-0.4-1.3-0.4-3.1S504.6,374.6,505,374.6z"/>
	<path class="st0" d="M505,361.7c0.4,0,0.4,1.3,0.4,3.1c0,1.8-0.4,3.1-0.4,3.1s-0.4-1.3-0.4-3.1C504.6,363,504.6,361.7,505,361.7z"
		/>
	<path class="st0" d="M505,348.7c0.4,0,0.4,1.3,0.4,3.1S505,355,505,355s-0.4-1.3-0.4-3.1S504.6,348.7,505,348.7z"/>
	<path class="st0" d="M505,335.7c0.4,0,0.4,1.3,0.4,3.1c0,1.8-0.4,3.1-0.4,3.1s-0.4-1.3-0.4-3.1C504.6,337.1,504.6,335.7,505,335.7z
		"/>
	<path class="st0" d="M505,322.8c0.4,0,0.4,1.3,0.4,3.1S505,329,505,329s-0.4-1.3-0.4-3.1S504.6,322.8,505,322.8z"/>
	<path class="st0" d="M505,309.4c0.4,0,0.4,1.3,0.4,3.1c0,1.8-0.4,3.1-0.4,3.1s-0.4-1.3-0.4-3.1C504.6,310.7,504.6,309.4,505,309.4z
		"/>
	<path class="st0" d="M505,296.4c0.4,0,0.4,1.3,0.4,3.1s-0.4,3.1-0.4,3.1s-0.4-1.3-0.4-3.1S504.6,296.4,505,296.4z"/>
	<path class="st0" d="M505,283.4c0.4,0,0.4,1.3,0.4,3.1c0,1.8-0.4,3.1-0.4,3.1s-0.4-1.3-0.4-3.1C504.6,284.8,504.6,283.4,505,283.4z
		"/>
	<path class="st0" d="M505,270.5c0.4,0,0.4,1.3,0.4,3.1s-0.4,3.1-0.4,3.1s-0.4-1.3-0.4-3.1S504.6,270.5,505,270.5z"/>
	<path class="st0" d="M505,257.5c0.4,0,0.4,1.3,0.4,3.1c0,1.8-0.4,3.1-0.4,3.1s-0.4-1.3-0.4-3.1C504.6,258.8,504.6,257.5,505,257.5z
		"/>
	<path class="st0" d="M505,244.5c0.4,0,0.4,1.3,0.4,3.1c0,1.8-0.4,3.1-0.4,3.1s-0.4-1.3-0.4-3.1C504.6,245.9,504.6,244.5,505,244.5z
		"/>
	<path class="st0" d="M516.2,242.7c0,0.4-1.3,0.4-3.1,0.4c-1.8,0-3.1-0.4-3.1-0.4s1.3-0.4,3.1-0.4
		C514.9,242.3,516.2,242.3,516.2,242.7z"/>
	<path class="st0" d="M529.6,242.7c0,0.4-1.3,0.4-3.1,0.4s-3.1-0.4-3.1-0.4s1.3-0.4,3.1-0.4S529.6,242.3,529.6,242.7z"/>
	<path class="st0" d="M542.6,242.7c0,0.4-1.3,0.4-3.1,0.4c-1.8,0-3.1-0.4-3.1-0.4s1.3-0.4,3.1-0.4
		C541.3,242.3,542.6,242.3,542.6,242.7z"/>
	<path class="st0" d="M555.6,242.7c0,0.4-1.3,0.4-3.1,0.4c-1.8,0-3.1-0.4-3.1-0.4s1.3-0.4,3.1-0.4
		C554.2,242.3,555.6,242.3,555.6,242.7z"/>
	<path class="st0" d="M568.5,242.7c0,0.4-1.3,0.4-3.1,0.4c-1.8,0-3.1,0-3.1-0.4c0-0.4,1.3-0.4,3.1-0.4S568.5,242.3,568.5,242.7z"/>
	<path class="st0" d="M581.5,242.7c0,0.4-1.3,0.4-3.1,0.4c-1.8,0-3.1-0.4-3.1-0.4s1.3-0.4,3.1-0.4
		C580.1,242.3,581.5,242.3,581.5,242.7z"/>
	<path class="st0" d="M594.4,242.7c0,0.4-1.3,0.4-3.1,0.4c-1.8,0-3.1-0.4-3.1-0.4s1.3-0.4,3.1-0.4
		C593.1,242.3,594.4,242.3,594.4,242.7z"/>
	<path class="st0" d="M607.4,242.7c0,0.4-1.3,0.4-3.1,0.4c-1.8,0-3.1,0-3.1-0.4c0-0.4,1.3-0.4,3.1-0.4
		C606.1,242.3,607.4,242.3,607.4,242.7z"/>
	<path class="st0" d="M620.8,242.7c0,0.4-1.3,0.4-3.1,0.4s-3.1-0.4-3.1-0.4s1.3-0.4,3.1-0.4S620.8,242.3,620.8,242.7z"/>
	<path class="st0" d="M633.8,242.7c0,0.4-1.3,0.4-3.1,0.4c-1.8,0-3.1-0.4-3.1-0.4s1.3-0.4,3.1-0.4
		C632.4,242.3,633.8,242.3,633.8,242.7z"/>
	<path class="st0" d="M646.7,242.7c0,0.4-1.3,0.4-3.1,0.4c-1.8,0-3.1,0-3.1-0.4c0-0.4,1.3-0.4,3.1-0.4
		C645.4,242.3,646.7,242.3,646.7,242.7z"/>
	<path class="st0" d="M659.7,242.7c0,0.4-1.3,0.4-3.1,0.4s-3.1-0.4-3.1-0.4s1.3-0.4,3.1-0.4S659.7,242.3,659.7,242.7z"/>
	<path class="st0" d="M672.7,242.7c0,0.4-1.3,0.4-3.1,0.4s-3.1-0.4-3.1-0.4s1.3-0.4,3.1-0.4S672.7,242.3,672.7,242.7z"/>
	<path class="st0" d="M685.6,242.7c0,0.4-1.3,0.4-3.1,0.4c-1.8,0-3.1,0-3.1-0.4c0-0.4,1.3-0.4,3.1-0.4
		C684.3,242.3,685.6,242.3,685.6,242.7z"/>
	<path class="st0" d="M699,242.7c0,0.4-1.3,0.4-3.1,0.4s-3.1-0.4-3.1-0.4s1.3-0.4,3.1-0.4S699,242.3,699,242.7z"/>
	<path class="st0" d="M712,242.7c0,0.4-1.3,0.4-3.1,0.4c-1.8,0-3.1-0.4-3.1-0.4s1.3-0.4,3.1-0.4C710.7,242.3,712,242.3,712,242.7z"
		/>
	<path class="st0" d="M724.5,242.7c0,0.4-1.3,0.4-3.1,0.4c-1.8,0-3.1,0-3.1-0.4c0-0.4,1.3-0.4,3.1-0.4
		C723.2,242.3,724.5,242.3,724.5,242.7z"/>
	<path class="st0" d="M737,243.6c0,0-0.4-0.4-0.4-0.9L737,243.6l-2.2-0.4c-1.8,0-3.1-0.4-3.1-0.4s1.3-0.4,3.1-0.4h2.7v0.4
		C737.5,243.2,737,243.6,737,243.6z"/>
	<path class="st0" d="M737.5,253.5c0,1.8,0,3.1-0.4,3.1c-0.4,0-0.4-1.3-0.4-3.1c0-1.8,0-3.1,0.4-3.1
		C737.5,250.3,737.5,251.7,737.5,253.5z"/>
	<path class="st0" d="M737,269.6c-0.4,0-0.4-1.3-0.4-3.1c0-1.8,0.4-3.1,0.4-3.1s0.4,1.3,0.4,3.1C737.5,268.2,737.5,269.6,737,269.6z
		"/>
	<path class="st0" d="M737,282.5c-0.4,0-0.4-1.3-0.4-3.1s0.4-3.1,0.4-3.1s0.4,1.3,0.4,3.1S737.5,282.5,737,282.5z"/>
	<path class="st0" d="M737.5,292.4c0,1.8,0,3.1-0.4,3.1c-0.4,0-0.4-1.3-0.4-3.1c0-1.8,0-3.1,0.4-3.1
		C737.5,289.2,737.5,290.6,737.5,292.4z"/>
	<path class="st0" d="M737,308.9c-0.4,0-0.4-1.3-0.4-3.1s0.4-3.1,0.4-3.1s0.4,1.3,0.4,3.1S737.5,308.9,737,308.9z"/>
	<path class="st0" d="M737,321.9c-0.4,0-0.4-1.3-0.4-3.1c0-1.8,0.4-3.1,0.4-3.1s0.4,1.3,0.4,3.1C737.5,320.5,737.5,321.9,737,321.9z
		"/>
	<path class="st0" d="M737.5,331.7c0,1.8,0,3.1-0.4,3.1c-0.4,0-0.4-1.3-0.4-3.1c0-1.8,0-3.1,0.4-3.1
		C737.5,328.6,737.5,329.9,737.5,331.7z"/>
	<path class="st0" d="M737,347.8c-0.4,0-0.4-1.3-0.4-3.1c0-1.8,0.4-3.1,0.4-3.1s0.4,1.3,0.4,3.1C737.5,346.5,737.5,347.8,737,347.8z
		"/>
	<path class="st0" d="M737,360.8c-0.4,0-0.4-1.3-0.4-3.1s0.4-3.1,0.4-3.1s0.4,1.3,0.4,3.1S737.5,360.8,737,360.8z"/>
	<path class="st0" d="M737.5,370.6c0,1.8,0,3.1-0.4,3.1c-0.4,0-0.4-1.3-0.4-3.1s0-3.1,0.4-3.1C737.5,367.5,737.5,368.8,737.5,370.6z
		"/>
	<path class="st0" d="M737,387.1c-0.4,0-0.4-1.3-0.4-3.1c0-1.8,0.4-3.1,0.4-3.1s0.4,1.3,0.4,3.1C737.5,385.8,737.5,387.1,737,387.1z
		"/>
	<path class="st0" d="M737,400.1c-0.4,0-0.4-1.3-0.4-3.1c0-1.8,0.4-3.1,0.4-3.1s0.4,1.3,0.4,3.1C737.5,398.8,737.5,400.1,737,400.1z
		"/>
	<path class="st0" d="M737.5,409.9c0,1.8,0,3.1-0.4,3.1c-0.4,0-0.4-1.3-0.4-3.1c0-1.8,0-3.1,0.4-3.1
		C737.5,406.8,737.5,408.1,737.5,409.9z"/>
	<path class="st0" d="M737.5,422.9c0,1.8,0,3.1-0.4,3.1c-0.4,0-0.4-1.3-0.4-3.1c0-1.8,0-3.1,0.4-3.1
		C737.5,419.8,737.5,421.1,737.5,422.9z"/>
	<path class="st0" d="M737,439c-0.4,0-0.4-1.3-0.4-3.1c0-1.8,0.4-3.1,0.4-3.1s0.4,1.3,0.4,3.1C737.5,437.6,737.5,439,737,439z"/>
	<path class="st0" d="M737.5,448.8c0,1.8,0,3.1-0.4,3.1c-0.4,0-0.4-1.3-0.4-3.1s0-3.1,0.4-3.1C737.5,445.7,737.5,447,737.5,448.8z"
		/>
	<path class="st0" d="M737.5,461.8c0,1.8,0,3.1-0.4,3.1c-0.4,0-0.4-1.3-0.4-3.1c0-1.8,0-3.1,0.4-3.1
		C737.5,458.7,737.5,460,737.5,461.8z"/>
	<path class="st0" d="M746,464v17.4h-17.4V464H746z"/>
	<path class="st0" d="M513.5,466.3v17.4h-17v-17.4H513.5z"/>
	<path class="st0" d="M746,232.5v17h-17.4v-17H746z"/>
	<path class="st0" d="M513.5,234.3v17h-17v-17H513.5z"/>
	<path class="st0" d="M3132.6,1156.5c0,14.8-12.1,26.8-26.8,26.8s-26.8-12.1-26.8-26.8c0-14.8,12.1-26.8,26.8-26.8
		S3132.6,1141.7,3132.6,1156.5z"/>
	<path class="st0" d="M3159.5,1014.8c0-8.9,7.6-16.5,16.5-16.5s16.5,7.6,16.5,16.5c0,8.9-7.6,16.5-16.5,16.5
		S3159.5,1023.7,3159.5,1014.8L3159.5,1014.8z"/>
	<path class="st0" d="M3088.4,897.2c-2.7-8,1.8-16.5,9.4-19.2c8-2.7,16.5,1.8,19.2,9.4c2.7,8-1.8,16.5-9.4,19.2
		C3100,909.7,3091.1,905.2,3088.4,897.2z"/>
	<path class="st0" d="M3021.3,1427.4c0,13.4-11.2,24.6-24.6,24.6c-13.4,0-24.6-11.2-24.6-24.6c0-13.4,11.2-24.6,24.6-24.6
		C3010.2,1402.8,3021.3,1413.9,3021.3,1427.4z"/>
	<path class="st0" d="M3020.4,1620.9c0,9.8-8,17.9-17.9,17.9c-9.8,0-17.9-8-17.9-17.9s8-17.9,17.9-17.9
		C3012.4,1603,3020.4,1611.1,3020.4,1620.9z"/>
	<path class="st0" d="M2995.9,1824.8c0,7.2-5.8,12.5-12.5,12.5c-7.2,0-12.5-5.8-12.5-12.5c0-7.2,5.8-12.5,12.5-12.5
		S2995.9,1817.6,2995.9,1824.8z"/>
	<path class="st0" d="M3095.1,1427.4c0,13.4-11.2,24.6-24.6,24.6c-13.4,0-24.6-11.2-24.6-24.6c0-13.4,11.2-24.6,24.6-24.6
		C3083.9,1402.8,3095.1,1413.9,3095.1,1427.4z"/>
	<path class="st0" d="M3176.9,1603c0,9.8-8,17.9-17.9,17.9c-9.8,0-17.9-8-17.9-17.9c0-9.8,8-17.9,17.9-17.9
		C3168.9,1585.2,3176.9,1593.2,3176.9,1603z"/>
	<path class="st0" d="M3107.2,1800.2c-1.3,6.7-8.5,11.2-15.2,9.4c-6.7-1.3-11.2-8.5-9.4-15.2c1.3-6.7,8.5-11.2,15.2-9.4
		C3104.5,1786.8,3108.9,1793.5,3107.2,1800.2z"/>
	<path class="st0" d="M3053.5,1251.2c16.1,16.1,16.5,42,0.4,58.1c-16.1,16.1-42,16.5-58.1,0.4l-0.4-0.4
		c-16.1-16.1-15.6-42.5,0.4-58.1C3011.9,1235.6,3037.9,1235.6,3053.5,1251.2L3053.5,1251.2z"/>
	<path class="st0" d="M3051.7,1105.5c0,14.8-12.1,26.8-26.8,26.8s-26.8-12.1-26.8-26.8c0-14.8,12.1-26.8,26.8-26.8
		S3051.7,1090.7,3051.7,1105.5z"/>
	<path class="st0" d="M2961.9,1156.5c0,14.8-11.6,26.8-26.4,26.8c-14.8,0-26.8-11.6-26.8-26.4s11.6-26.8,26.4-26.8
		S2961.9,1141.7,2961.9,1156.5z"/>
	<path class="st0" d="M2881.4,1298.2c0,8.9-7.6,16.5-16.5,16.5s-16.5-7.6-16.5-16.5c0-8.9,7.6-16.5,16.5-16.5
		S2881.4,1289.2,2881.4,1298.2z"/>
	<path class="st0" d="M2952.5,1415.7c2.7,8-1.8,16.5-9.4,19.2c-8,2.7-16.5-1.8-19.2-9.4c-2.7-8,1.8-16.5,9.4-19.2
		C2941.3,1403.7,2949.8,1407.7,2952.5,1415.7z"/>
	<path class="st2" d="M3190.8,1033.1c0,0-42.5,95.7-59.9,116.2c-11.6-4-22.4-10.3-31.3-18.8c0,0,51-97,59.5-113.5L3190.8,1033.1
		L3190.8,1033.1z"/>
	<path class="st2" d="M3187.6,994.6c-0.4-1.8-67.1-102.8-67.1-102.8l-29.1,20.1L3155,1017L3187.6,994.6z"/>
	<path class="st2" d="M3117.9,885.6c0,0,42.9-48.3,13-64.8c-30-16.5-38,40.7-35.3,56.8l23.7,8.9"/>
	<path class="st0" d="M3141.6,1913.3h-209.7c0-36.7,29.5-66.2,66.2-66.2h76.9C3112.1,1847.1,3141.6,1876.6,3141.6,1913.3z"/>
	<path class="st0" d="M3028,1311.1c0.9,0,1.3,120.2,1.3,269.1s-0.4,269.1-1.3,269.1s-1.3-120.2-1.3-269.1S3027.6,1311.1,3028,1311.1
		z"/>
	<path class="st2" d="M2980.7,1294.1c0,0-24.6,39.8-17.9,118.5h128.7c0,0,8-93.4-22.4-120.7L2980.7,1294.1z"/>
	<path class="st2" d="M2968.1,1447.9h59l-5.4,166.7h-40.7L2968.1,1447.9z"/>
	<path class="st2" d="M2980.2,1625.8l-12.1,191.3l29.5,5.4l26.4-190.9L2980.2,1625.8z"/>
	<path class="st2" d="M2955.2,1847.1c0,0,0.4-23.2,24.1-24.6c23.7-1.3,26.4,24.6,26.4,24.6H2955.2L2955.2,1847.1z"/>
	<path class="st2" d="M3054.4,1454.6l53.6-24.6l63.9,153.8l-36.7,16.5L3054.4,1454.6z"/>
	<path class="st2" d="M3136.2,1603l-54.1,183.7l27.3,12.1l68.4-180.6L3136.2,1603L3136.2,1603z"/>
	<path class="st2" d="M3069.2,1814.9c1.3,2.7,72.4,29.1,72.4,29.1s17-15.2-36.2-39.3l-11.2-4.9c-8.5-4-18.3-0.4-22.4,8
		c-0.4,0.4-0.4,0.9-0.4,1.3L3069.2,1814.9L3069.2,1814.9z"/>
	<path class="st2" d="M2958.7,1120.3c-1.8,0.4,1.8,105.1,24.6,143.9c0,0,82.7-2.7,84.5,0c1.8,2.7,28.6-91.2,26.4-141.7
		C3094.6,1122.5,3036.5,1101.9,2958.7,1120.3L2958.7,1120.3z"/>
	<path class="st2" d="M3013.3,957.5c0,0-52.7,1.3-42.9,68.4c9.8,67.1,20.6,67.1,21,68.8c0.4,1.8,66.2-4.5,66.2-4.5
		S3093.8,954.9,3013.3,957.5L3013.3,957.5z"/>
	<path class="st2" d="M2850.1,1280.3c0,0,42.5-95.7,59.9-116.2c11.6,4,22.4,10.3,31.3,18.8c0,0-51,97-59.5,113.5L2850.1,1280.3
		L2850.1,1280.3z"/>
	<path class="st2" d="M2853.3,1318.3c0.4,1.8,67.1,102.8,67.1,102.8l29.1-20.1l-63.5-105.1L2853.3,1318.3z"/>
	<path class="st2" d="M2921.6,1430.9c0,0-42.9,48.3-13,64.8s38-40.7,35.3-56.8l-23.7-8.9"/>
	<path class="st1" d="M3033,364.8v335.7h-195.8V364.8H3033z"/>
	<path class="st0" d="M3033,364.8v28.2h-195.8v-28.2H3033z"/>
	<path class="st0" d="M2884.5,428.3l2.2,31.3l8.9-11.2l14.3-0.9L2884.5,428.3z"/>
	<path class="st0" d="M2969,428.3L2969,428.3l1.8,1.3l5.4,4l18.8,13.9l0.9,0.4h-0.9l-14.3,0.4h-0.4h0.4l-8.9,11.6l-0.4,0.9V460
		c-0.4-8.9-0.9-17-1.3-22.8c0-2.7-0.4-4.9-0.4-6.3v-1.8C2969.5,428.7,2969,428.3,2969,428.3v2.7c0,1.8,0.4,4,0.4,6.7
		c0.4,5.8,0.9,13.4,1.8,22.4h-0.4l8.9-11.6h0.9l14.3-0.4v0.4l-18.3-13.9l-5.4-4l-1.3-0.9L2969,428.3L2969,428.3z"/>
	<path class="st0" d="M2878.7,564.6c0,0,9.8-10.3,21.9-23.2c12.1-13,22.4-22.8,22.4-22.4c0,0.4-9.8,10.3-21.9,23.2
		C2889,555.2,2878.7,565.1,2878.7,564.6z"/>
	<path class="st0" d="M3014.6,541.8c0-2.2-0.4-4.5-0.9-7.2c-1.3-6.3-4.9-12.1-10.3-16.1c-7.6-6.3-17.9-7.6-26.8-4
		c-2.7,0.9-4.9,2.2-7.2,4c-2.2,1.8-4.5,4-5.8,6.3c-7.2,10.3-7.2,23.7,0,34c1.8,2.2,3.6,4.5,5.8,6.3c2.2,1.8,4.5,3.1,7.2,4
		c8.9,3.6,19.2,1.8,26.8-4c4.9-4,8.5-9.4,10.3-16.1C3014.2,546.3,3014.6,544,3014.6,541.8v4c0,0.9-0.4,2.2-0.4,3.1
		c-1.3,6.3-4.9,12.1-10.3,16.1c-7.6,6.3-18.3,8-27.3,4.5c-5.4-2.2-10.3-5.8-13.4-10.3c-7.2-10.3-7.2-24.1,0-34.9
		c1.8-2.2,3.6-4.5,5.8-6.3s4.5-3.1,7.2-4c4.9-1.8,10.3-2.2,15.2-1.3c4.5,0.9,8.5,2.7,12.1,5.8c4.9,4,8.5,9.8,10.3,16.1
		c0.4,0.9,0.4,1.8,0.4,3.1v2.2L3014.6,541.8L3014.6,541.8z"/>
	<path class="st0" d="M2989.1,616c0,0,0.4,0,0.9,0.4l2.2,1.8l7.6,6.7l-33.1,37.5l-4,0.4l-7.2,0.9h-0.4v0.4c0.9-4.5,1.8-8.9,2.7-13
		c8.9-10.7,16.5-19.7,22.4-25.9C2982.9,621.8,2986,618.7,2989.1,616l-0.4,0.4l-1.8,1.8c-1.3,1.8-3.6,4-6.7,7.2
		c-5.4,6.3-13.4,15.2-21.9,25.9c-0.9,4-1.8,8.5-2.7,13l-0.4-0.4l7.2-0.9l4-0.4c13.4-15.2,25.5-28.6,33.1-37.5v0.4l-7.6-6.7l-1.8-1.8
		L2989.1,616L2989.1,616z"/>
	<path class="st0" d="M2917.6,662.1v-47.4l0.4,0.4h-46l0.4-0.4v47.4l-0.4-0.4h42.5h-42.9v-46.5l0.4-0.4h46v46.9
		C2918.1,661.6,2918.1,662.1,2917.6,662.1z"/>
	<path class="st0" d="M2878.7,614.7c-3.1,0.4-6.7,0.4-9.8,0.4s-6.7,0-9.8-0.4c3.1-0.4,6.7-0.4,9.8-0.4S2875.6,614.2,2878.7,614.7z"
		/>
	<path class="st0" d="M2872,624.1c-0.4-7.6-0.4-14.8,0-22.4C2872.5,609.3,2872.5,616.5,2872,624.1z"/>
	<path class="st0" d="M3033.4,700.5v-94.3c0-59.5,0-143-0.4-241.8l0.4,0.4h-196.2l0.4-0.4v336.2l-0.4-0.4l143,0.4H3033.4l-13-0.4
		h-39.3l-143,0.4h-0.4V363.4h197.1v1.3c0,98.3,0,182.4-0.4,241.8v92.1C3034.3,699.6,3033.4,700.5,3033.4,700.5z"/>
	<path class="st3" d="M2726.7,180.2H2708l-41.1-57.7V84.9c0,0-29.1-1.8-25.9,47.8c3.1,49.6-0.4,36.7-0.4,36.7s-62.1,0.4-67.1,5.8
		c-3.6,4-5.4,65.7-6.3,99.2c-0.9,16.5,9.8,31.7,25.5,36.7c2.2,0.4,4.5,0.9,6.7,0.9c15.6,0,94.8-12.5,94.8-12.5h32.6V180.2z"/>
	<path class="st3" d="M2781.3,169.9l-11.6,129.6H2737v-127L2781.3,169.9L2781.3,169.9z"/>
	<path class="st4" d="M3231.4,1911.9c0,0.4-663.4,1.3-1481.4,1.3s-1481.4-0.4-1481.4-1.3c0-0.9,662.9-1.3,1481.4-1.3
		S3231.4,1911.5,3231.4,1911.9z"/>
	<path class="st5" d="M2031.2,1301.3c0,2.2,13,17.9,7.6,35.3c-1.3,4.9-14.3,14.8-14.3,14.8l13.4,23.7l-78.7,33.5l-39.8-77.3
		l79.6-22.4L2031.2,1301.3L2031.2,1301.3z"/>
	<path class="st2" d="M1984.7,1211.4c15.6-10.7,19.7-32.6,8.5-48.3c-0.4-0.4-0.4-0.9-0.9-1.3c-8.5-10.3-22.8-14.8-29.5-26.4
		c-4.9-8.5-4-19.2-2.2-28.6c2.7-9.4,4.5-19.2,4.5-29.1c-0.4-9.8-5.4-20.1-14.3-23.7c-13-4.9-26.4,5.8-33.5,17.9
		c-15.2,25-16.5,55.9-4.5,82.3c5.4,11.2,13,21,18.8,32.2c5.8,11.2,9.8,23.7,6.7,35.8"/>
	<path class="st4" d="M1948,1089c-2.7,5.4-4.5,10.7-5.4,16.1c-0.9,6.3-0.4,12.5,0.9,18.3c0.9,3.6,2.2,6.7,4,10.3
		c1.8,3.6,4.5,6.3,7.2,9.4c5.8,5.4,13,9.8,17,15.6c4,5.4,6.3,11.6,6.7,17.9c0.4,4.5,0,8.9-1.3,13c-0.4,1.8-0.9,3.1-2.2,4.5
		c1.8-5.4,2.2-11.2,1.8-17c-0.4-6.3-3.1-12.1-6.7-17c-4-5.4-10.7-9.8-17-15.6c-3.1-3.1-5.4-6.3-7.6-9.8c-1.8-3.6-3.1-7.2-4-10.7
		c-1.3-6.3-1.8-13-0.4-19.2c0.9-4.5,2.2-8.5,4.5-12.1C1946.2,1091.6,1947.1,1090.3,1948,1089L1948,1089z"/>
	<path class="st4" d="M1927,1090.7c-2.7,4.9-4.5,10.7-5.4,16.1c-0.9,6.3-0.4,12.5,0.9,18.3c0.9,3.6,2.2,6.7,4,10.3
		c1.8,3.6,4.5,6.7,7.2,9.4c5.8,5.4,13,9.8,17,15.6c4,5.4,6.3,11.6,6.7,17.9c0.4,4.5,0,8.5-1.3,13c-0.4,1.8-0.9,3.1-2.2,4.5
		c1.8-5.4,2.2-11.2,1.8-17c-0.9-6.3-3.1-12.1-6.7-17c-4-5.4-10.7-9.8-17-15.6c-3.1-2.7-5.4-6.3-7.6-9.8c-1.8-3.6-3.1-7.2-4-10.7
		c-1.3-6.3-1.8-13-0.9-19.2c0.9-4.5,2.2-8.5,4.5-12.1C1924.8,1093.4,1926.1,1091.6,1927,1090.7L1927,1090.7z"/>
	<path class="st2" d="M1960.1,953.1c5.8,2.2,9.8,6.7,11.6,12.5c1.8,5.8,1.3,12.1-0.4,17.4c-1.3,4.9-4,8.9-8,12.1
		c-3.6,3.1-8.5,4.9-13.4,4.5c-6.3-1.3-12.1-4.9-15.2-10.7c-5.8-8.9-6.3-20.1-0.9-29.5c5.4-8.5,18.3-12.5,26.8-6.7"/>
	<path class="st6" d="M2029.8,1196.7l14.3,126.5c0.9,9.8-5.8,18.8-15.6,20.6l-77.3,13c-9.8,1.8-19.7-4.9-21.5-15.2l-22.8-122
		L2029.8,1196.7L2029.8,1196.7z"/>
	<path class="st5" d="M2031.2,1208.8c0,0-40.2,43.4-33.5,57.7c4,8,14.8,7.2,20.6-0.4c5.8-7.6,14.3-17,19.7-23.7
		C2045.5,1233.8,2044.6,1207.4,2031.2,1208.8z"/>
	<path class="st5" d="M2039.2,1239.2c0,0-36.7,35.8-30.8,47.4c5.8,11.6,17,4.9,21.9-1.8c4.9-6.7,8.9-12.5,13.4-17.9
		C2050.4,1259.3,2051.7,1234.7,2039.2,1239.2z"/>
	<path class="st5" d="M2041.9,1267.8c0,0-25.9,28.2-21.5,37.5c4.5,9.4,10.3,7.2,14.3,2.2s9.4-11.2,13-15.6
		C2052.2,1286.1,2050.4,1265.5,2041.9,1267.8L2041.9,1267.8z"/>
	<path class="st5" d="M1919.4,1329.9l-21-48.7l48.7-55.4c0,0,12.1,7.6,4.9,24.1c-7.2,16.5-25.5,31.3-25.5,31.3l1.3,48.7H1919.4
		L1919.4,1329.9z"/>
	<path class="st6" d="M1936.4,1236c0,1.3-9.8-0.9-23.2,4.9c-7.6,3.1-14.3,8.5-19.2,15.2c-11.6,17-10.3,39.8,4,55
		c5.8,5.8,13.4,10.3,21.5,12.1c13.9,3.6,23.2,0,23.2,1.3c0,0.4-1.8,1.8-6.3,2.7c-5.8,1.3-12.5,1.8-18.3,0.4
		c-9.4-1.8-17.9-5.8-24.6-12.5c-17-17-18.8-44.3-4.5-63.5c5.8-7.6,13.9-13,22.4-16.1c5.8-2.2,12.1-2.7,18.3-2.2
		C1934.2,1234.7,1936.4,1235.6,1936.4,1236z"/>
	<path class="st7" d="M2040.6,1237.4c-8.9,13-18.8,25-30,36.2c4-6.7,8.9-13,14.3-18.8C2029.4,1248.1,2034.8,1242.3,2040.6,1237.4z"
		/>
	<path class="st7" d="M2045,1266.4c-2.7,5.8-6.3,10.7-10.3,15.2c-3.6,4.9-8,9.8-13,13.4c3.1-5.4,6.7-10.3,11.2-14.8
		C2036.5,1275.4,2040.6,1270.5,2045,1266.4L2045,1266.4z"/>
	<path class="st7" d="M2019.6,1355.4c-6.3,3.6-12.5,6.3-19.2,8.5c-6.3,2.7-13,4.9-20.1,6.3c6.3-3.6,12.5-6.3,19.2-8.5
		C2005.7,1359,2012.4,1356.7,2019.6,1355.4z"/>
	<path class="st8" d="M1956.5,1669.2c0,0,13.4-158.7,6.3-178.8c-7.2-20.1-29.1-96.1-29.1-96.1l116.7-34.9c0,0,59.5,156.9,80,294.6
		L1956.5,1669.2z"/>
	<path class="st8" d="M1922.1,1774.7l-143.5-160.9l-1.3,195.8l40.2,104.2h-431.8l-13-243.2l-30.8-260.6c-4-31.7,14.3-62.6,44.3-74.2
		l118.5-46.5l166.7,30.4l67.1,25.5c28.2,10.7,53.2,28.2,72.9,51l201.6,230.7"/>
	<path class="st1" d="M1768.3,1575.3c8,0,16.1-0.9,24.1-1.8c39.3-6.3,71.5-35.8,80.9-74.7c1.8-8,2.7-16.1,3.6-24.1
		c0.4,2.2,0.9,4.5,0.4,6.7c0,5.8-0.4,12.1-1.8,17.9c-8.5,40.7-41.6,71.5-82.7,76.4c-5.8,0.9-12.1,0.9-17.9,0.4
		C1772.8,1576.2,1770.6,1575.8,1768.3,1575.3z"/>
	<path class="st6" d="M1778.2,1801.1c0.9,0,2.7-67.5,3.6-151.1c0.9-83.6,0.9-151.5-0.4-151.5c-1.3,0-2.7,67.5-3.6,151.5
		C1776.8,1734,1777.3,1801.1,1778.2,1801.1z"/>
	<path class="st8" d="M1765.2,1850.7l-259.7-104.6c-21-8.5-35.3-28.2-37.1-50.5l-18.8-249c0,0,2.2-105.9-63.9-111.3l-37.5,14.8
		c-48.7,25.9-60.8,96.6-54.1,151.5c9.4,77.8,13.4,187.7,23.7,255.3c8.5,55,40.2,103.7,94.3,118l316,40.2L1765.2,1850.7
		L1765.2,1850.7z"/>
	<path class="st6" d="M1453.2,1484.6c0.4,1.8,0.9,3.6,0.9,5.8c0.4,4,0.9,9.4,1.8,16.5c1.3,14.8,3.1,35.3,5.4,60.3
		c2.2,25,4.9,55.9,7.6,89.4c0.9,8.5,1.3,17,2.2,25.9c0.4,8.9,1.8,17.9,3.6,26.8c1.8,8.9,6.3,17,13,23.2c7.2,6.3,15.2,11.2,24.1,14.8
		c71.5,30.8,137.7,56.3,185.5,74.7l56.8,21l15.6,5.8c1.8,0.4,3.6,1.3,5.4,2.2c-1.8-0.4-3.6-0.9-5.4-1.8l-15.6-4.9
		c-13.4-4.5-33.1-11.2-57.2-20.1c-48.3-17.4-114.4-42.5-186-73.8c-8.9-3.6-17.4-8.9-25-15.6c-7.2-6.7-12.1-15.6-13.9-25
		c-1.8-8.9-2.7-17.9-3.1-27.3c-0.4-8.9-1.3-17.4-2.2-25.9c-2.7-33.5-4.9-63.9-6.7-89.9c-1.8-25.9-3.6-46-4.5-60.3
		c-0.4-6.7-0.9-12.5-0.9-16.5C1453.2,1488.2,1453.2,1486.4,1453.2,1484.6L1453.2,1484.6z"/>
	<path class="st4" d="M1415.6,1794.4c0.4-4.9,2.2-9.4,4.5-13.9c10.7-21.5,30-37.5,52.7-45.1c4.5-1.8,9.4-2.7,14.3-2.7
		c0,0.4-5.4,1.8-13.4,4.9c-21.5,8.5-39.8,23.7-51.4,43.8C1417.9,1789,1416.1,1794.4,1415.6,1794.4L1415.6,1794.4z"/>
	<path class="st1" d="M1466.6,1604.8c0,0,0.4,0,1.8,0.9l4.5,2.2c5.8,3.1,12.1,5.8,18.3,8c23.2,8,48.3,10.3,72.9,6.3
		c36.2-6.3,68.8-26.4,90.3-56.3c13-17,21.5-37.5,24.1-59c1.3-11.2,0-22.4-3.6-33.5c-3.6-11.2-10.3-21-18.8-28.6
		c-8.5-8-19.2-13-30.4-14.8c-11.2-1.8-22.4,1.3-30.4,8.5c-3.6,3.6-5.8,8.5-5.8,13.9c0,5.4,1.8,10.3,4.9,14.3
		c6.7,8,16.1,13,26.4,13.9c19.2,2.7,38.9-0.4,56.8-8c29.1-12.5,51-37.1,59.9-67.1c3.1-10.3,4.9-20.6,4.9-31.3
		c0-6.7-0.4-13.4-1.3-20.1c-0.4-2.2-0.9-4-0.9-5.4c0-1.3-0.4-1.8,0-1.8c2.7,8.5,4,17.9,4,26.8c0,10.7-1.3,21.5-4.5,31.7
		c-15.2,51.4-65.3,84.5-118.9,78.2c-11.2-0.9-21.5-6.3-28.6-15.2c-3.6-4.5-5.8-10.3-5.8-16.1c0-6.3,2.7-12.1,6.7-16.1
		c8.9-8,21.5-11.6,33.5-9.4c12.1,1.8,23.2,7.2,32.2,15.6c8.9,8,15.6,18.3,19.7,30c3.6,11.2,4.9,22.8,3.6,34.9
		c-2.7,21.9-11.2,42.9-24.6,60.3c-38,51.9-105.9,72-166.3,49.2C1482.7,1614.2,1474.2,1609.7,1466.6,1604.8L1466.6,1604.8z"/>
	<path class="st1" d="M1296.3,1538.2c1.3-1.8,2.7-3.6,4.5-5.4c4.5-4.5,8.9-8.5,13.9-12.1c17-11.6,36.7-18.8,57.7-20.6
		c11.2-1.3,22.8-0.9,34,1.3c8.9,1.8,17.9,4.9,25.9,8.9c5.4,2.7,10.7,5.8,15.6,9.8c1.8,1.3,3.6,2.7,5.4,4.5c-0.4,0.4-8-5.4-22.4-11.6
		c-18.3-8.5-38.4-11.6-58.6-9.4c-20.1,1.8-39.3,8-56.3,18.8C1303.4,1531.5,1296.7,1538.7,1296.3,1538.2L1296.3,1538.2z"/>
	<path class="st1" d="M1337.8,1360.3c6.3,5.8,13.4,11.2,21,15.2c8.5,4,17.4,6.7,26.8,8c23.2,2.7,46-6.7,60.3-25
		c5.8-7.2,10.3-15.6,13.4-24.6c2.2-8.5,4-17,4-25.5c0.4,2.2,0.9,4.5,0.9,7.2c0,6.7-0.9,13-2.7,19.2c-2.7,9.4-7.2,18.3-13.4,25.9
		c-14.8,19.7-38.9,29.5-63.5,26.4c-9.8-1.3-19.2-4-27.7-8.9c-5.8-3.1-10.7-7.2-15.6-11.6C1340.5,1364.3,1339.2,1362.5,1337.8,1360.3
		L1337.8,1360.3z"/>
	<path class="st1" d="M1564.5,1769.8c0-1.8,0-3.1,0.4-4.9c0.9-4.5,2.2-8.9,4.5-13.4c8.5-15.6,22.4-27.7,38.9-33.5
		c20.1-8.9,48.3-10.7,76.4-2.7c13.9,4,29.5,8.9,39.8,22.4c5.4,7.2,6.3,16.5,2.7,24.6c-4,7.6-10.7,13.9-18.3,17.4
		c-7.6,4-16.1,5.8-24.6,6.3c-8.5,0.4-17-2.2-23.7-7.2c-6.3-5.4-10.3-13-10.7-21.5c-0.4-7.6,0.9-15.2,3.6-22.4
		c10.3-24.1,29.5-43.8,53.6-54.1c16.1-7.2,33.5-10.3,51-8.9c6.3,0.4,12.5,1.8,18.8,4c0,0.4-6.7-1.8-18.8-2.7
		c-17-0.9-34.4,2.2-50.1,9.8c-10.7,4.9-20.6,11.6-29.1,19.7c-9.8,9.4-17.4,20.6-22.4,33.1c-2.7,6.7-3.6,13.9-3.1,21
		c0.4,7.2,4,14.3,9.4,19.2c6.3,4.5,13.9,6.7,21.5,6.7c8-0.4,16.1-2.2,23.2-5.8c7.2-3.1,13.4-8.9,17-15.6c3.1-7.2,2.2-15.2-2.7-21
		c-4.5-5.8-10.7-10.7-17.4-13.9c-6.7-3.1-13.4-5.8-20.6-7.6c-27.7-8-54.5-6.7-74.7,1.8c-16.1,5.8-30,17.4-38.4,32.2
		C1567.6,1757.7,1565.8,1763.5,1564.5,1769.8L1564.5,1769.8z"/>
	<path class="st1" d="M1391.5,1863.7c0-0.4,9.8-1.3,25-6.7c39.8-13.9,69.7-47.4,79.6-88.1c4-15.6,3.6-25.5,4.5-25.5
		c0.4,2.2,0.4,4.5,0.4,7.2c0,6.3-0.9,13-2.2,18.8c-8.9,42.5-39.8,76.9-81.4,89.9c-6.3,1.8-12.5,3.6-18.8,4
		C1396.4,1863.7,1393.7,1863.7,1391.5,1863.7L1391.5,1863.7z"/>
	<path class="st1" d="M1307.4,1670.1c0.9-0.4,2.2-0.9,3.1-1.3c2.2-0.4,5.4-1.8,9.4-2.7c11.6-3.1,23.2-4.5,35.3-3.6
		c8.5,0.4,16.5,2.7,24.1,5.8c8.9,4,16.5,9.8,22.4,17.4c6.3,8.9,9.4,19.2,8.9,30.4c-0.4,5.8-2.2,11.2-5.4,16.1
		c-3.1,5.4-7.6,9.4-13.4,11.2c-6.3,2.2-13,0.9-17.4-3.6c-4-4.5-6.3-10.3-6.3-16.1c-0.4-10.7,1.8-21,6.3-30.8
		c7.2-16.5,21-29.5,38-35.8c11.2-4.5,23.7-5.4,35.3-3.6c3.1,0.4,6.3,1.3,9.4,2.2c0.9,0.4,2.2,0.9,3.1,1.3c0,0.4-4.5-1.3-12.5-2.2
		c-11.6-1.3-23.2,0-34.4,4.5c-16.1,6.7-29.1,19.2-35.8,34.9c-4,9.4-5.8,19.2-5.8,29.5c0,4.9,1.8,9.8,4.9,13.9
		c4,3.1,9.4,4.5,14.3,2.7c4.9-1.8,8.9-5.4,11.6-9.8s4.5-9.4,4.9-14.8c0.9-9.8-2.2-20.1-8-28.2c-5.4-7.2-12.5-13-21-17
		c-7.2-3.1-15.2-5.4-23.2-6.3c-11.6-0.9-23.2,0-34.9,2.7C1311.9,1669.2,1307.4,1670.1,1307.4,1670.1L1307.4,1670.1z"/>
	<path class="st9" d="M1690.5,1821.2c-27.7-15.6-55-27.7-84-41.1s-57.7-30-76.4-55.9c-35.8-48.3-31.7-118-68.4-165.8
		c2.2,32.2,4.9,63.9,7.2,96.1c2.2,29.5-2.2,58.6,16.5,78.2c16.1,17,46.9,29.5,68.8,37.1C1598.9,1784.5,1646.3,1806.4,1690.5,1821.2"
		/>
	<path class="st1" d="M2078.6,1433.6c-0.9,0.9-2.2,1.3-3.1,2.2c-2.2,1.3-5.4,3.1-9.4,5.8c-11.2,7.6-21,16.5-29.5,26.8
		c-12.5,15.2-21.5,33.1-26.4,52.3c-3.1,11.2-3.1,22.8-0.4,34c1.8,5.8,4.9,11.2,8.9,15.2c4.5,4.5,9.8,7.6,15.6,8.9
		c5.8,1.3,12.5,0.4,17.4-2.7c4.9-3.1,8.9-8,11.6-13.4c2.2-5.4,3.1-11.2,2.2-17c-0.9-5.4-3.1-10.7-6.7-15.2
		c-6.3-8-16.1-13.4-26.4-15.2c-8.9-1.3-18.3-0.4-26.8,3.1c-7.2,2.7-13.9,6.3-19.7,11.2c-4.5,3.6-8.5,7.6-12.5,11.6
		c-3.1,3.6-5.4,6.3-7.2,8.5c-0.9,0.9-1.3,2.2-2.2,3.1c0,0,0-0.4,0.4-0.9c0.4-0.4,0.9-1.3,1.8-2.2c1.3-2.2,3.6-4.9,6.7-8.5
		c3.6-4.5,8-8.5,12.5-12.1c5.8-4.9,12.5-8.9,19.7-11.6c8.9-3.6,18.3-4.5,27.7-3.6c10.7,1.3,20.6,7.2,27.7,15.6
		c3.6,4.5,6.3,10.3,7.2,16.1c0.9,6.3,0.4,12.5-2.2,18.3c-2.7,5.8-6.7,11.2-12.5,14.3c-5.8,3.6-12.5,4.5-19.2,3.1
		c-6.3-1.3-12.5-4.9-17-9.8c-4.5-4.5-7.6-10.3-9.4-16.5c-3.1-11.6-2.7-23.7,0.4-35.3c8.5-32.6,28.6-61.2,57.2-79.6l9.4-5.4
		C2076.3,1434.5,2077.7,1434.1,2078.6,1433.6L2078.6,1433.6z"/>
	<path class="st6" d="M1585.9,1913.3c-1.3,0-2.7-0.4-4-0.9l-10.7-2.2l-40.2-8c-17-3.1-37.5-7.2-59.9-12.1
		c-11.2-2.2-22.8-4.9-35.3-7.6c-12.5-2.7-25-6.7-37.1-11.2c-23.2-9.8-43.4-26.4-57.2-47.4c-10.3-17.4-17.9-36.7-22.4-56.8
		c-3.1-13.4-5.4-26.8-6.3-40.7c-0.4-4.9-0.4-8.5-0.4-11.2v-4c0.4,1.3,0.4,2.7,0.4,4c0,2.7,0.4,6.3,0.9,11.2
		c1.3,13.4,3.6,26.8,6.7,40.2c4.5,19.7,12.1,38.9,22.4,56.3c13.4,21,33.1,37.1,56.3,46.5c12.1,4.5,24.1,8.5,36.7,11.2
		c12.1,3.1,24.1,5.4,35.3,8l59.5,12.5c17,3.6,30.8,6.3,40.2,8.5c4.9,0.9,8.5,2.2,10.7,2.7
		C1583.3,1912.4,1584.6,1912.8,1585.9,1913.3L1585.9,1913.3z"/>
	<path class="st5" d="M1773.2,1861l15.6-7.2l24.1-28.2c8.5-10.3,21.9-14.8,35.3-12.5l55.9,10.7l-15.2,73.3h-120.2L1773.2,1861z"/>
	<path class="st4" d="M1832.7,939.2c-23.7-13.9-55.4,2.7-80.5-8.5c-15.2-6.7-24.1-22.4-36.2-33.5c-18.3-17-47.8-25.9-71.5-19.7
		s-40.7,14.3-49.2,37.5c-17-16.1-55.4,0.9-72,22.4s-19.7,46.5-19.7,73.3c0.4,46.5,10.3,92.5,28.6,135.4c1.8,3.6,4.5,8,8.5,7.2
		c2.7-0.4,4.5-3.6,5.4-6.3c9.4-22.4,12.1-46.9,15.6-71.1c3.6-24.1,8.5-48.3,21-69.3c12.5-21,35.3-37.1,59.5-36.2
		c17.9,0.4,34.4,10.3,47.4,22.4c13,12.1,23.7,26.8,36.2,39.8c12.1,13,26.4,25,43.8,30c17.4,4.9,38,0.9,49.2-13
		c11.2-13.9,8-38.4-8-46c19.2,2.7,37.1-10.7,39.8-30C1851.9,960.7,1845.2,946.4,1832.7,939.2L1832.7,939.2z"/>
	<path class="st5" d="M1538.1,1026.4l-37.1,269.6c-6.3,44.3,25,84.9,69.3,91.2c1.3,0,2.7,0.4,4,0.4c42.9,3.6,81.4-26.8,87.2-69.7
		c2.7-20.1,4.9-37.1,5.4-39.3c0,0,69.3,3.1,83.6-64.4c6.7-32.6,15.6-100.6,22.8-162.3c7.6-66.2-36.7-127.4-101.9-140.4l-6.3-1.3
		C1594,900.3,1546.2,955.3,1538.1,1026.4L1538.1,1026.4z"/>
	<path class="st7" d="M1667.3,1277.6c-31.3-5.8-59.9-20.6-82.7-42.5c0,0,11.2,52.7,79.6,59.9L1667.3,1277.6z"/>
	<path class="st4" d="M1745.1,1093c-0.9,5.4-5.8,8.9-11.2,8c-5.4-0.4-8.9-5.4-8-10.7c0.9-5.4,5.8-8.9,11.2-8
		C1742,1083.2,1745.5,1087.6,1745.1,1093z"/>
	<path class="st4" d="M1752.7,1082.3c-1.3,0.9-7.6-5.8-17.9-8s-18.8,1.8-19.7,0c-0.4-0.4,1.3-2.7,4.9-4.5c4.9-2.2,10.7-2.7,16.1-1.8
		c5.4,0.9,10.3,4,13.9,8C1752.7,1079.1,1753.1,1081.8,1752.7,1082.3L1752.7,1082.3z"/>
	<path class="st4" d="M1642.7,1076.4c-0.9,5.4-5.8,8.5-11.2,8c-5.4-0.4-8.9-5.4-8-10.3v-0.4c0.9-5.4,5.8-8.5,11.2-8
		C1639.6,1066.2,1643.2,1071.1,1642.7,1076.4C1642.7,1076,1642.7,1076.4,1642.7,1076.4z"/>
	<path class="st4" d="M1650.3,1063.9c-1.3,0.9-7.6-5.8-17.9-8c-10.3-2.2-18.8,1.8-19.7,0c-0.4-0.4,1.3-2.7,4.9-4.5
		c4.9-2.2,10.7-2.7,16.1-1.8c5.4,0.9,10.3,4,13.9,8C1650.8,1060.8,1651.2,1063.5,1650.3,1063.9L1650.3,1063.9z"/>
	<path class="st4" d="M1672.7,1148c5.8-0.4,11.6-0.4,17.4,0.4c2.7,0,5.4,0,6.3-1.3c0.9-2.7,0.9-5.4,0-8c-1.3-6.7-2.7-14.3-4-21.9
		c-4.9-30.8-8.5-55.9-7.2-56.3c1.3-0.4,6.3,24.6,11.6,55.4c1.3,7.6,2.2,14.8,3.6,21.9c0.9,3.6,0.9,7.2-0.4,10.7
		c-1.3,1.8-3.1,2.7-4.9,3.1c-1.3,0-3.1,0-4.5-0.4C1678.9,1149.8,1672.7,1148.9,1672.7,1148L1672.7,1148z"/>
	<path class="st4" d="M1640.9,1149.3c1.8,0.4-0.4,11.6,7.6,21.5c8,9.8,20.1,11.2,20.1,12.5c0,0.9-3.1,1.8-8,0.9
		c-6.7-1.3-12.5-4.9-17-9.8c-4-4.9-6.3-11.6-5.4-17.9C1638.2,1151.5,1640,1148.9,1640.9,1149.3L1640.9,1149.3z"/>
	<path class="st4" d="M1661,1023.7c-1.8,2.7-11.6-0.9-24.1-1.8c-12.5-0.9-22.8,0.4-24.1-2.7c-0.4-1.3,1.8-3.6,6.3-5.4
		c12.1-4.5,25.5-3.6,36.7,3.1C1660.1,1019.7,1661.9,1022.4,1661,1023.7L1661,1023.7z"/>
	<path class="st4" d="M1754.9,1051.4c-2.2,2.2-8.9-1.8-17.4-3.6s-16.1-1.8-17.4-4.5c-0.4-1.3,0.9-3.6,4.9-4.9
		c9.8-3.6,21-0.9,28.2,6.7C1755.4,1047.8,1755.8,1050.5,1754.9,1051.4z"/>
	<path class="st5" d="M1533.6,1077.3c-0.9-0.9-43.4-22.8-51.4,23.2c-8,46,40.2,44.7,40.7,43.4
		C1523.4,1142.6,1533.6,1077.3,1533.6,1077.3L1533.6,1077.3z"/>
	<path class="st7" d="M1511.7,1123.8c0,0-0.9,0.4-2.2,0.9c-2.2,0.4-4,0-6.3-0.9c-4.5-2.7-7.6-11.2-6.3-19.7c0.4-4,1.8-7.6,4-11.2
		c1.3-2.7,4-4.9,7.2-5.4c2.2-0.4,4,0.9,4.5,3.1c0.4,1.3,0,2.2,0,2.2s0.9-0.4,0.9-2.7c0-1.3-0.4-2.2-1.3-3.1
		c-0.9-1.3-2.7-1.8-4.5-1.8c-4,0-7.6,2.2-9.8,5.8c-2.7,3.6-4.5,8-4.9,12.5c-1.3,9.4,2.2,18.8,8.5,21.9c2.2,1.3,5.4,1.3,7.6,0
		C1511.7,1125.2,1512.2,1124.3,1511.7,1123.8L1511.7,1123.8z"/>
	<path class="st4" d="M1790.7,1040.7c-31.7,1.8-62.6-12.1-82.7-36.7c-13.4-17-22.4-39.8-41.6-50.1c-13.4-6.7-29.1-7.6-42.9-2.7
		c-13.9,4.9-26.8,12.5-37.5,22.8c6.3,36.7-10.3,73.3-26.4,107.3c-1.3,4-4,7.2-7.6,9.4c-6.3,3.1-13.9-1.8-17.4-7.6
		c-6.3-9.4-6.7-21.5-6.7-32.6c0-25.5,5.4-51,15.2-74.7c10.3-23.7,26.8-43.8,48.3-58.1c27.7-17,60.8-22.4,92.1-15.2
		c31.3,7.2,59.5,24.1,80.9,48.7c10.3,10.7,17.9,23.7,21.9,38.4"/>
	<path class="st6" d="M1848.8,959.3c0,1.3-0.4,2.7-1.3,4c-1.8,3.6-4.9,6.3-8.5,8c-5.8,2.7-12.1,3.6-18.3,2.2
		c-4-0.4-7.6-1.8-11.2-3.1c-4-1.8-8-4.5-10.7-7.6c-3.1-4-4.5-9.4-3.1-14.3c1.8-5.4,6.7-9.4,12.1-9.8c2.7-0.4,5.8-0.4,8.5,0.4
		c2.7,0.9,5.4,2.7,7.2,4.9c3.6,4.9,4.9,11.2,3.6,17.4c-1.3,6.3-5.4,12.1-10.7,15.2c-5.4,3.6-12.1,5.8-18.8,6.3
		c-13.9,0.4-27.3-4-38.4-12.1c-11.2-8-21-17-30-27.3c-8-9.4-17-17.9-26.8-25.9c-8.9-7.2-19.2-11.6-30-13.9
		c-9.8-1.8-19.7-0.9-29.1,1.8c-13.9,4-25.9,11.6-36.2,21.9c-2.7,2.7-5.4,5.8-8,8.5c-1.8,2.2-2.7,3.1-2.7,3.1s0-0.4,0.4-0.9
		c0.4-0.4,0.9-1.3,1.8-2.7c2.2-3.1,4.9-6.3,7.6-8.9c9.8-10.7,22.4-18.3,36.2-22.8c9.8-2.7,19.7-3.6,29.5-1.8
		c11.6,2.2,22.4,7.2,31.3,14.3c9.8,8,18.8,16.5,27.3,25.9c8.9,9.8,18.8,19.2,29.5,26.8c10.7,8,23.7,12.1,37.1,11.6
		c6.3-0.4,12.1-2.2,17.4-5.8c4.9-3.1,8.5-8,9.8-13.9c1.3-5.4,0-11.2-3.1-15.6c-3.1-4-8.5-6.3-13.9-4.9c-4.9,0.4-8.9,3.6-10.7,8.5
		c-0.9,4.5,0,8.9,2.7,12.5c2.7,3.1,5.8,5.8,9.8,7.2c3.6,1.3,7.2,2.7,11.2,3.1c5.8,1.3,12.1,0.4,17.9-1.8c3.6-1.8,6.3-4.5,8.5-7.6
		C1847.9,961.6,1848.3,960.7,1848.8,959.3L1848.8,959.3z"/>
	<path class="st6" d="M1506.8,975c4.5,2.7,8.9,4.9,13.4,6.3c4.9,1.3,10.3,1.8,15.6,1.3c6.7-0.9,13-2.2,18.8-4.9
		c11.2-4.9,20.1-13,25.9-23.2c2.2-4.5,4.5-8.9,5.8-13.9c0,1.3,0,2.7-0.4,4c-0.9,3.6-2.2,7.2-4,10.3c-5.8,11.2-15.2,19.7-26.4,24.6
		c-6.3,2.7-13,4.5-19.7,4.9c-5.4,0.4-11.2-0.4-16.5-2.2c-3.6-1.3-6.7-3.1-9.8-5.4C1508.6,977.2,1507.7,976.3,1506.8,975L1506.8,975z
		"/>
	<path class="st6" d="M1501.9,1008.9c0-0.4,5.4,1.8,13.9,3.1c23.2,3.6,46.5-5.8,60.8-24.6c5.4-7.2,7.6-12.1,8-12.1
		c0,1.3-0.4,2.7-1.3,3.6c-1.3,3.1-3.1,6.3-5.4,9.4c-13.9,20.1-38.4,30-62.6,25.5c-3.6-0.4-7.2-1.8-10.3-3.1
		C1504.1,1010.3,1503.2,1009.8,1501.9,1008.9L1501.9,1008.9z"/>
	<path class="st7" d="M1607.4,1101c-0.9,0-1.3-0.4-1.3-1.3c0-0.9,0.4-1.3,1.3-1.3s1.3,0.4,1.3,1.3
		C1608.3,1100.1,1607.8,1101,1607.4,1101z"/>
	<path class="st7" d="M1628,1100.1c-0.9,0-1.8-0.4-1.8-1.3s0.4-1.8,1.3-1.8c0.9,0,1.8,0.4,1.8,1.3v0.4
		C1629.3,1099.7,1628.9,1100.1,1628,1100.1z"/>
	<path class="st7" d="M1641.4,1102.8c-0.4,0-0.9-0.9-0.9-1.8c0-0.9,0.4-1.8,1.3-1.8c0.9,0,0.9,0.9,0.9,1.8
		C1642.7,1101.9,1641.8,1102.8,1641.4,1102.8z"/>
	<path class="st7" d="M1614.6,1115.3c-0.4,0-0.9-0.4-0.9-0.9c0-0.4,0.4-0.4,1.3-0.4s0.9,0.4,0.9,0.9S1615,1115.3,1614.6,1115.3z"/>
	<path class="st7" d="M1633.3,1114.9c-0.9,0-1.3-0.9-0.9-1.3c0-0.4,0.4-0.9,1.3-0.9c0.4,0,0.9,0.4,0.9,1.3
		C1634.7,1114,1634.2,1114.9,1633.3,1114.9z"/>
	<path class="st7" d="M1731.7,1120.7c0,0.9-0.4,1.3-1.3,1.3c-0.9,0-1.3-0.4-1.3-1.3c0-0.9,0.4-1.3,1.3-1.3
		C1731.2,1119.4,1731.7,1119.8,1731.7,1120.7z"/>
	<path class="st7" d="M1743.7,1123.8c-0.9,0-1.3-0.9-0.9-1.8c0-0.4,0.9-0.9,1.3-0.9c0.9,0,1.3,0.9,0.9,1.8
		C1745.1,1122.9,1744.6,1123.8,1743.7,1123.8z"/>
	<path class="st7" d="M1718.3,1120.3c-0.4,0-0.9-0.4-1.3-0.9c0-0.4,0.4-0.9,1.3-0.9c0.4,0,0.9,0.4,1.3,0.9
		C1719.2,1119.8,1718.7,1120.3,1718.3,1120.3z"/>
	<path class="st7" d="M1725.4,1135.9c-0.4,0-1.3-0.4-1.3-0.9c0-0.4,0.4-1.3,0.9-1.3s1.3,0.4,1.3,0.9S1725.9,1135.5,1725.4,1135.9z"
		/>
	<path class="st7" d="M1737.5,1135.9c-0.4,0-0.9-0.9-0.4-1.3c0.4-0.4,0.9-0.4,1.3-0.4c0.4,0,0.9,0.9,0.4,1.3
		C1738.8,1135.9,1737.9,1135.9,1737.5,1135.9z"/>
	<path class="st6" d="M2315,1622.7l-131,290.6h-570.4l2.7-14.8l197.6-3.1l99.7-271.3L2315,1622.7z"/>
	<path class="st3" d="M2054.4,1754.6c10.7-5.8,24.6-1.8,30.4,8.9c0.9,1.8,1.8,3.1,2.2,4.9c2.2,11.6-5.4,23.2-17,25.5
		c-1.3,0.4-2.2,0.4-3.6,0.4c-9.4,0.4-17.9-4.9-21-13.9C2042.4,1772,2045.5,1759,2054.4,1754.6"/>
	<path class="st2" d="M946.3,1578.9v93.9h-78.7v-93.9H946.3z"/>
	<path class="st10" d="M870.3,1572.6v105.5H514v-105.5H870.3z"/>
	<path class="st10" d="M948.9,1581.6h-88.1v-8.9h88.1c2.7,0,4.5,1.8,4.5,4.5C953.4,1579.8,951.2,1581.6,948.9,1581.6z"/>
	<path class="st10" d="M948.9,1678.6h-88.1v-8.9h88.1c2.7,0,4.5,1.8,4.5,4.5C953.4,1676.3,951.2,1678.6,948.9,1678.6z"/>
	<path class="st11" d="M842.5,1572.6v105.5h-42v-105.5H842.5z"/>
	<path class="st11" d="M587.7,1572.6v105.5h-42v-105.5H587.7z"/>
	<path class="st0" d="M946.3,1594.5c0,0-17,0.4-38,0.4c-21,0-38,0-38-0.4c0-0.4,17-0.4,38-0.4
		C929.3,1594.1,946.3,1594.1,946.3,1594.5z"/>
	<path class="st0" d="M946.3,1608.4c0,0.4-17,0.4-38,0.4c-21,0-38,0-38-0.4s17-0.4,38-0.4C929.3,1608,946.3,1608,946.3,1608.4z"/>
	<path class="st0" d="M946.3,1625.8c0,0.4-17,0.4-38,0.4c-21,0-38,0-38-0.4s17-0.4,38-0.4C929.3,1625.4,946.3,1625.4,946.3,1625.8z"
		/>
	<path class="st0" d="M946.3,1643.3c0,0.4-17,0.4-38,0.4c-21,0-38,0-38-0.4c0-0.4,17-0.4,38-0.4
		C929.3,1642.8,946.3,1642.8,946.3,1643.3z"/>
	<path class="st0" d="M946.3,1660.3c0,0.4-17,0.4-38,0.4c-21,0-38,0-38-0.4c0-0.4,17-0.4,38-0.4
		C929.3,1659.8,946.3,1660.3,946.3,1660.3z"/>
	<path class="st12" d="M777.3,1616.4v19.2h-160v-19.2H777.3z"/>
	<path class="st13" d="M945.8,1680.4v57.2h-80v-57.2H945.8z"/>
	<path class="st6" d="M866.7,1678.6v61.2H526.1v-61.2H866.7z"/>
	<path class="st6" d="M864,1682.6h85.8c1.3,0,2.2-0.9,2.2-2.2s-0.9-2.2-2.2-2.2H864V1682.6z"/>
	<path class="st6" d="M864,1735.4h86.3c0.9,0,1.8,0.9,1.8,1.8v0.4c0,0.9-0.9,1.8-1.8,1.8H864V1735.4z"/>
	<path class="st0" d="M945.8,1691.5c0,0.4-17.9,0.4-39.8,0.4c-21.9,0-39.8,0-39.8-0.4s17.9-0.4,39.8-0.4
		C927.9,1691.1,945.8,1691.1,945.8,1691.5z"/>
	<path class="st0" d="M945.8,1702.3c0,0-17.9,0.4-39.8,0.4c-21.9,0-39.8,0-39.8-0.4c0-0.4,17.9-0.4,39.8-0.4
		C927.9,1701.8,945.8,1701.8,945.8,1702.3z"/>
	<path class="st0" d="M945.8,1713c0,0.4-17.9,0.4-39.8,0.4c-21.9,0-39.8,0-39.8-0.4c0-0.4,17.9-0.4,39.8-0.4
		C927.9,1712.6,945.8,1712.6,945.8,1713z"/>
	<path class="st0" d="M945.8,1723.7c0,0.4-17.9,0.4-39.8,0.4c-21.9,0-39.8,0-39.8-0.4c0-0.4,17.9-0.4,39.8-0.4
		C927.9,1723.3,945.8,1723.7,945.8,1723.7z"/>
	<path class="st3" d="M957.9,1745.2v154.7h-81.8v-154.7H957.9z"/>
	<path class="st10" d="M876.1,1739.8v167.6H492.5v-167.6H876.1z"/>
	<path class="st10" d="M964.1,1907.5h-98.8v-10.7h98.8c3.1,0,5.4,2.2,5.4,5.4C969.5,1905.2,967.3,1907.5,964.1,1907.5L964.1,1907.5z
		"/>
	<path class="st10" d="M865.8,1739.8H965c2.7,0,4.9,2.2,4.9,4.9v0.9c0,2.7-2.2,4.9-4.9,4.9h-99.2V1739.8L865.8,1739.8z"/>
	<path class="st0" d="M957.9,1765.8c0,0.4-18.3,0.4-40.7,0.4s-40.7,0-40.7-0.4c0-0.4,18.3-0.4,40.7-0.4S957.9,1765.8,957.9,1765.8z"
		/>
	<path class="st0" d="M957.9,1785.9c0,0.4-18.3,0.4-40.7,0.4s-40.7,0-40.7-0.4s18.3-0.4,40.7-0.4S957.9,1785.4,957.9,1785.9z"/>
	<path class="st0" d="M957.9,1805.5c0,0.4-18.3,0.4-40.7,0.4s-40.7,0-40.7-0.4s18.3-0.4,40.7-0.4S957.9,1805.5,957.9,1805.5z"/>
	<path class="st0" d="M957.9,1825.7c0,0.4-18.3,0.4-40.7,0.4s-40.7,0-40.7-0.4c0-0.4,18.3-0.4,40.7-0.4S957.9,1825.2,957.9,1825.7z"
		/>
	<path class="st0" d="M957.9,1845.3c0,0.4-18.3,0.4-40.7,0.4s-40.7,0-40.7-0.4s18.3-0.4,40.7-0.4S957.9,1844.9,957.9,1845.3z"/>
	<path class="st0" d="M957.9,1865c0,0.4-18.3,0.4-40.7,0.4s-40.7,0-40.7-0.4s18.3-0.4,40.7-0.4S957.9,1865,957.9,1865z"/>
	<path class="st0" d="M957.9,1885.1c0,0.4-18.3,0.4-40.7,0.4s-40.7,0-40.7-0.4c0-0.4,18.3-0.4,40.7-0.4S957.9,1884.7,957.9,1885.1z"
		/>
	<path class="st9" d="M587.7,1739.8L535,1907.5h-42.5v-167.6H587.7z"/>
	<path class="st1" d="M2923.9,1482.8v325.9h-446.6v-325.9H2923.9z"/>
	<path class="st10" d="M2923.9,1482.8v40.7h-446.6v-40.7H2923.9z"/>
	<path class="st1" d="M2501.4,1504.7c-0.4,2.2-2.7,4-4.9,4c-2.2-0.4-4-2.7-4-4.9c0.4-2.2,2.2-4,4.5-4
		C2499.7,1499.8,2501.4,1502,2501.4,1504.7z"/>
	<path class="st1" d="M2520.2,1504.7c-0.4,2.2-2.7,4-4.9,4c-2.2-0.4-4-2.7-4-4.9c0.4-2.2,2.2-4,4.5-4
		C2518.4,1499.8,2520.2,1502,2520.2,1504.7z"/>
	<path class="st1" d="M2539,1504.7c-0.4,2.2-2.7,4-4.9,4c-2.2-0.4-4-2.7-4-4.9c0.4-2.2,2.2-4,4.5-4
		C2537.2,1499.8,2539,1502,2539,1504.7z"/>
	<path class="st10" d="M2583.3,1563.7v160h-63.5v-160H2583.3z"/>
	<path class="st3" d="M2681.1,1563.7v160h-63.5v-160H2681.1z"/>
	<path class="st13" d="M2779,1563.7v160h-63.5v-160H2779z"/>
	<path class="st0" d="M2877.4,1565v160h-63.5v-160H2877.4z"/>
	<path class="st10" d="M2898,1741.2v36.7h-385.8v-36.7H2898z"/>
	<path class="st4" d="M2868.5,1770.2l8,44.3l7.2-12.5l14.3,21.9l7.6-4.9l-14.8-21.9l13.4-1.8L2868.5,1770.2z"/>
	<path class="st4" d="M2923.4,1808.7v-89c0-56.8-0.4-138.1-0.4-236.9l0.9,0.9h-446.1l0.9-0.9v325.9l-0.9-0.9l321.9,0.4h122.5h-30.4
		l-91.6,0.4l-322.8,0.4h-0.9v-327.7h447.9v0.9c0,98.8-0.4,180.6-0.4,237.4v82.7C2923.9,1806,2923.4,1808.7,2923.4,1808.7
		L2923.4,1808.7z"/>
	<path class="st10" d="M2962.3,1058.1c0,1.8-114.9,2.7-256.1,2.7c-141.3,0-256.1-1.3-256.1-2.7s114.9-2.7,256.1-2.7
		C2847.4,1055.4,2962.3,1056.8,2962.3,1058.1z"/>
	<path class="st10" d="M2730.8,1047.4v30.4h-30.4v-30.4H2730.8z"/>
	<path class="st10" d="M2968.1,1058.1c0,4.9-4,8.9-8.9,8.9c-4.9,0-8.9-4-8.9-8.9s4-8.9,8.9-8.9
		C2964.1,1049.2,2968.1,1053.2,2968.1,1058.1z"/>
	<path class="st10" d="M2459,1058.1c0,4.9-4,8.9-8.9,8.9c-4.9,0-8.9-4-8.9-8.9s4-8.9,8.9-8.9C2455,1049.2,2459,1053.2,2459,1058.1z"
		/>
	<path class="st10" d="M2671.8,975.4l38.4,71.5h4.9l-1.3-57.2c-3.6-0.4-5.8-4-4.9-7.2c0.4-3.6,4-5.8,7.2-4.9
		c3.1,0.4,5.4,3.1,5.4,6.3s-2.2,5.8-4.9,6.3l1.3,57.2h4.5l36.2-74.7c-27.7-0.9-31.3-27.3-31.3-27.3l-26.8,0.4
		C2700.8,971.8,2671.8,975.4,2671.8,975.4L2671.8,975.4z"/>
	<path class="st10" d="M2923.4,1309.3v-7.2c0-4.9-0.4-12.1-0.9-21c-1.8-25.9-6.7-51-14.3-75.5c-5.4-17-13-33.1-21.9-48.3
		c-16.1-27.3-39.8-49.2-67.5-63.9c-10.3-5.4-20.6-9.8-31.7-13.4c-11.2-3.6-22.8-6.3-34.9-8c-12.1-1.8-24.6-2.7-36.7-3.1
		c-49.6-1.8-97.5,13-131.4,39.3c-16.1,12.1-30.4,27.3-41.1,44.7c-9.8,14.8-17.4,30.8-22.8,47.8c-1.3,4-2.2,7.6-3.6,11.2
		c-1.3,3.6-2.2,7.2-3.1,10.7c-1.3,7.2-3.1,13.9-4,20.1s-1.8,12.5-2.7,17.9c-0.9,5.4-0.9,10.7-1.3,15.2c-0.4,4.5-0.4,8.5-0.9,12.1
		c-0.4,3.6-0.4,6.3-0.4,8.9s0,4-0.4,5.4v-14.3c0-3.6,0-7.6,0.4-12.1c0.4-4.5,0.9-9.8,1.3-15.2c0.4-5.4,1.3-11.6,2.2-17.9
		s2.7-13.4,4-20.6c0.9-3.6,1.8-7.2,3.1-11.2c1.3-4,1.8-7.6,3.6-11.6c5.4-17,13.4-33.5,22.8-48.3c11.2-17.4,25-32.6,41.6-45.1
		c34.4-26.4,82.7-41.6,132.8-39.8c12.5,0.4,24.6,1.3,37.1,3.1c12.1,1.8,23.7,4.5,34.9,8s21.9,8,32.2,13.4
		c9.8,5.4,19.2,11.6,27.7,18.3c16.1,13,29.5,28.6,40.2,46.5c9.4,15.2,16.5,31.7,21.9,48.7c7.6,24.6,12.1,50.5,13.4,76
		c0.4,8.9,0.9,16.1,0.4,21V1309.3z"/>
	<path class="st4" d="M2347.7,485.9l19.7,23.2l-14.8,13l-19.7-23.2L2347.7,485.9z"/>
	<path class="st6" d="M2361.5,486.4l-30.4,26.4l-21.5-25c7.6-11.2,18.3-20.6,30.4-26.4L2361.5,486.4z"/>
	<path class="st4" d="M2336,508.3c-4.5-3.6-8.5-7.6-12.1-12.1c-4-4-7.6-8.5-10.3-13.4c4.5,3.6,8.5,7.6,12.1,12.1
		C2329.8,498.9,2333.4,503.4,2336,508.3z"/>
	<path class="st4" d="M2341.9,503.4c-4.5-3.6-8.5-8-12.1-13c-4-4.5-7.6-8.9-10.3-13.9c0.4-0.4,6.3,4.9,12.1,12.5
		C2336,493.5,2339.2,498,2341.9,503.4z"/>
	<path class="st4" d="M2349.9,496.7c-4.5-3.6-8.5-8-12.1-13c-4-4.5-7.6-9.4-10.3-14.3c4.5,3.6,8.9,8,12.1,13
		C2343.6,486.4,2346.8,491.3,2349.9,496.7z"/>
	<path class="st4" d="M2356.6,490.4c-4.5-3.6-8.5-7.6-12.1-12.5c-4-4-7.6-8.9-10.3-13.9c4.5,3.6,8.5,7.6,12.1,12.5
		C2350.4,481,2353.9,485.5,2356.6,490.4z"/>
	<path class="st4" d="M2595.8,490l13.4,14.3l-21.9,21l-13.4-14.3L2595.8,490L2595.8,490z"/>
	<path class="st6" d="M2610.1,517.7l-27.7-29.1l23.7-22.8c11.6,7.2,21.5,17,27.7,29.1L2610.1,517.7z"/>
	<path class="st4" d="M2587.3,494c7.2-8.9,15.2-17,24.6-23.7c-3.1,4.9-7.2,8.9-11.6,12.5C2596.2,486.8,2591.7,490.8,2587.3,494z"/>
	<path class="st4" d="M2592.2,499.3c3.6-4.9,7.6-8.9,12.1-12.5c4-4,8.5-8,13.4-11.2c0.4,0.4-4.9,6.3-12.1,13
		C2602,492.6,2597.6,496.2,2592.2,499.3L2592.2,499.3z"/>
	<path class="st4" d="M2599.3,506.5c3.6-4.9,7.6-8.9,12.5-12.5c4-4,8.9-8,13.9-11.2c0.4,0.4-4.9,6.3-12.1,13
		C2609.2,499.8,2604.3,503.8,2599.3,506.5L2599.3,506.5z"/>
	<path class="st4" d="M2606,513.2c7.2-8.9,15.6-17,25-23.7c-3.1,4.9-7.2,8.9-11.6,12.5C2615.4,506.5,2611,510.5,2606,513.2z"/>
	<path class="st4" d="M2485.4,436.8v35.8h-23.2v-35.8C2462.1,436.8,2485.4,436.8,2485.4,436.8z"/>
	<path class="st10" d="M2497.4,447.5H2450v-38.9c15.6-4,31.7-4,47.4,0V447.5z"/>
	<path class="st4" d="M2498.3,409c-15.2,8-33.1,8-48.3,0C2465.7,414,2482.7,414,2498.3,409z"/>
	<path class="st4" d="M2465.7,447.5c-1.3-5.4-1.3-11.2-1.3-16.5c-0.4-5.4,0-11.2,1.3-16.5c1.3,5.4,1.3,11.2,1.3,16.5
		C2467.5,436.3,2467,442.1,2465.7,447.5z"/>
	<path class="st4" d="M2475.1,447.5c-1.3-5.4-1.3-11.2-1.3-16.5c-0.4-5.8,0-11.2,1.3-16.5c1.3,5.4,1.3,11.2,1.3,16.5
		C2476.4,436.8,2476,442.1,2475.1,447.5z"/>
	<path class="st4" d="M2484,447.5c-1.3-5.4-1.3-11.2-1.3-16.5c-0.4-5.8,0-11.2,1.3-16.5c1.3,5.4,1.3,11.2,1.3,16.5
		C2485.4,436.3,2484.9,442.1,2484,447.5z"/>
	<path class="st4" d="M2491.6,447.5c-1.3-5.8-1.3-12.1-1.3-17.9c-0.4-5.8,0-12.1,1.3-17.9c1.3,5.8,1.3,12.1,1.3,17.9
		S2492.5,441.7,2491.6,447.5z"/>
	<path class="st4" d="M2457.2,447c-1.3-5.8-1.3-12.1-1.3-17.9c-0.4-5.8,0-12.1,1.3-17.9c1.3,5.8,1.3,12.1,1.3,17.9
		C2459,435.4,2458.5,441.2,2457.2,447z"/>
	<path class="st10" d="M2638.7,629.4c0,92.5-75.1,167.6-167.6,167.6c-92.5,0-167.6-75.1-167.6-167.6s75.1-167.6,167.6-167.6
		C2563.6,461.8,2638.7,536.9,2638.7,629.4z"/>
	<path class="st13" d="M2570.3,528.4c55,55,55,143.9,0,198.9c-55,55-143.9,55-198.9,0c-55-55-55-143.9,0-198.9
		C2426.3,473.4,2515.3,473.4,2570.3,528.4z"/>
	<path class="st4" d="M2611.9,628.1v-2.2c0-1.8-0.4-4-0.4-6.7c0-1.3,0-3.1-0.4-4.9c-0.4-1.8-0.4-3.6-0.9-5.8
		c-0.4-4.9-1.8-9.8-3.1-14.3c-3.1-13-8.5-25.9-15.6-37.5c-20.6-34.4-55-58.6-94.8-65.7c-5.8-0.9-12.1-1.8-17.9-2.2
		c-3.1,0-6.3-0.4-8.9-0.4l-9.4,0.4c-1.3,0-3.1,0-4.5,0.4l-4.5,0.9l-9.4,1.3c-6.3,1.3-12.5,3.1-18.8,5.4c-6.3,2.2-12.5,4.9-18.3,8
		c-3.1,1.8-5.8,3.6-8.9,5.4c-3.1,1.8-5.8,3.6-8.5,5.8c-11.6,8-21.5,18.3-29.5,29.5c-8.5,11.6-15.6,24.6-20.1,38.4
		c-9.8,28.6-9.8,59.5,0,88.1c4.5,13.9,11.2,26.8,20.1,38.4c4,5.8,8.9,11.2,13.9,16.1c4.9,4.9,10.3,9.4,15.6,13.4
		c2.7,2.2,5.4,4,8.5,5.8c3.1,1.8,5.8,3.6,8.9,5.4c5.8,3.1,12.1,5.8,18.3,8s12.5,4,18.8,5.4l9.4,1.3l4.5,0.9c1.3,0.4,3.1,0,4.5,0.4
		l9.4,0.4c3.1,0,6.3-0.4,8.9-0.4c5.8-0.4,12.1-0.9,17.9-2.2c39.3-7.2,73.8-31.3,94.8-65.7c7.2-11.6,12.5-24.1,15.6-37.5
		c1.3-4.9,2.2-9.8,3.1-14.3c0.4-2.2,0.9-4,0.9-5.8s0-3.6,0.4-4.9c0-2.7,0.4-4.9,0.4-6.7V628.1c-0.4,0.4-0.4,0.9-0.4,2.7v11.6
		c0,1.8-0.4,3.6-0.9,5.8c-0.4,4.9-1.3,9.8-2.7,14.8c-3.1,13.4-8.5,25.9-15.2,37.5c-20.6,34.9-55.4,59.5-95.2,67.1
		c-5.8,0.9-12.1,1.8-17.9,2.2c-3.1,0-6.3,0.4-9.4,0.4l-9.4-0.4c-1.3,0-3.1,0-4.9-0.4l-4.9-0.9l-9.4-1.3c-6.3-1.3-13-3.1-18.8-5.4
		c-6.3-2.2-12.5-4.9-18.8-8c-3.1-1.8-5.8-3.6-8.9-5.4c-3.1-1.8-5.8-3.6-8.5-5.8c-11.6-8.5-21.9-18.3-30-30
		c-8.9-12.1-15.6-25-20.1-39.3c-9.8-29.1-9.8-60.8,0-89.9c4.5-13.9,11.6-27.3,20.1-39.3c8.5-11.6,18.3-21.9,30-30
		c2.7-2.2,5.8-4,8.5-5.8c3.1-1.8,5.8-3.6,8.9-5.4c5.8-3.1,12.1-5.8,18.3-8c6.3-2.2,12.5-4,18.8-5.4l9.4-1.3l4.9-0.9
		c1.3-0.4,3.1,0,4.9-0.4l9.4-0.4c3.1,0,6.3,0.4,9.4,0.4c5.8,0.4,12.1,0.9,17.9,2.2c39.8,7.6,74.7,32.2,95.2,67.1
		c7.2,11.6,12.1,24.6,15.2,37.5c1.3,4.9,2.2,9.8,2.7,14.8c0.4,2.2,0.4,4,0.9,5.8c0.4,1.8,0,3.6,0,4.9v6.7
		C2611,627.6,2611.9,628.1,2611.9,628.1L2611.9,628.1z"/>
	<path class="st4" d="M2591.3,625.8c-13,0-23.2-0.4-23.2-1.3c0-0.9,10.3-2.2,23.2-3.1c13-0.9,23.2,0,23.2,1.3
		S2604.3,625.8,2591.3,625.8z"/>
	<path class="st4" d="M2558.2,711.2c-9.4-8.9-16.1-16.5-15.6-17.4c0.4-0.9,8.9,5.8,18.8,14.3c9.8,8.5,16.5,16.1,15.6,17.4
		S2567.2,720.2,2558.2,711.2z"/>
	<path class="st4" d="M2474.6,748.3c-0.4-13,0-23.2,0.9-23.2s2.2,10.3,3.6,23.2c1.3,13,0.4,23.2-0.9,23.2S2474.6,761.3,2474.6,748.3
		z"/>
	<path class="st4" d="M2388.8,716.1c8.9-9.4,16.5-16.5,17-16.1c0.4,0.4-5.4,8.9-13.9,18.8c-8.5,9.8-16.1,17-17,15.6
		C2374,733.1,2379.9,725.5,2388.8,716.1L2388.8,716.1z"/>
	<path class="st4" d="M2350.8,633c13-0.4,23.2,0,23.2,0.9c0,0.9-10.3,2.7-23.2,3.6c-13,0.9-23.2,0.4-23.2-0.9
		S2337.8,633.4,2350.8,633z"/>
	<path class="st4" d="M2382.1,547.2c9.4,8.5,16.5,16.1,16.1,17c-0.4,0.9-8.9-5.4-18.8-13.9c-9.8-8.5-17-16.1-16.1-17
		C2364.2,532.4,2372.7,538.2,2382.1,547.2z"/>
	<path class="st4" d="M2464.8,507.8c0.4,13,0.4,23.2-0.4,23.2s-2.7-10.3-4-23.2s-0.9-23.2,0.4-23.2
		C2462.1,484.6,2464.3,494.9,2464.8,507.8z"/>
	<path class="st4" d="M2551.1,538.2c-8.5,9.4-16.1,17-17,16.1c-0.9-0.9,5.4-9.4,13.4-19.2s15.6-17,17-16.1
		S2559.6,528.8,2551.1,538.2z"/>
	<path class="st4" d="M2591.3,620.5c-13,0.9-23.2,0.4-23.2-0.4s10.3-2.7,23.2-4c13-1.3,23.2-0.9,23.2,0.4S2603.8,620,2591.3,620.5z"
		/>
	<path class="st1" d="M2416.1,475.6c-2.2,1.3-4.9,2.2-7.2,3.1c-51.9,21.9-88.5,68.8-97.5,124.3c-1.3,7.2-1.8,14.3-2.2,21.5v8
		c0-0.9-0.4-1.3-0.4-2.2c0-1.3-0.4-3.6,0-5.8c0-7.2,0.4-14.8,1.3-21.9c6.7-48.7,36.2-91.6,79.1-115.8c6.3-3.6,13-6.7,19.7-9.4
		c2.2-0.9,4.5-1.3,5.8-1.8C2414.7,476.1,2415.6,475.6,2416.1,475.6L2416.1,475.6z"/>
	<path class="st1" d="M2463,466.7c-5.4,1.3-10.7,2.2-16.5,2.7c-5.4,0.9-11.2,1.8-16.5,1.8c5.4-2.2,10.7-3.6,16.5-4
		C2451.8,465.8,2457.6,465.8,2463,466.7z"/>
	<path class="st11" d="M2358.4,713c0,0,72.9,115.3,186.4,56.3c118.5-61.7,52.7-202.9,52.7-202.9s55.9,112.6-59.5,186
		c-28.6,18.3-59.9,18.3-84,16.1C2393.3,762.2,2358.4,713,2358.4,713L2358.4,713z"/>
	<path class="st0" d="M2510.4,553.4c0.9,20.6,0,41.6-1.8,62.1c-0.4,7.6-1.8,14.8-4.5,21.9s-8,13-14.8,16.1c-7.2,3.1-15.2,1.3-20.6-4
		L2510.4,553.4z"/>
	<path class="st10" d="M2467.9,616.9l51-86.3l-30.8,97.5l-15.6,4.9L2467.9,616.9z"/>
	<path class="st11" d="M2518.9,530.6l-38,88.5l7.2,8.9L2518.9,530.6z"/>
	<path class="st13" d="M2488.9,633c0,8.9-7.6,16.5-16.5,16.5s-16.5-7.6-16.5-16.5c0-8.9,7.6-16.5,16.5-16.5S2488.9,624.1,2488.9,633
		z"/>
	<path class="st4" d="M2488.9,633c0,0,0-1.3-0.9-4c-0.9-3.6-3.1-6.3-6.3-8.5c-6.7-4.9-16.5-3.6-21.9,3.1c-4.9,6.7-3.6,16.5,3.1,21.9
		c5.4,4,13,4,18.3,0c2.7-2.2,4.9-4.9,6.3-8.5L2488.9,633c0.4,1.3,0.4,2.7,0,4c-0.9,4-2.7,7.2-5.8,9.4c-4.5,3.6-10.7,4.9-16.5,2.7
		c-8.9-3.1-13.9-13-10.7-22.4c1.8-4.9,5.8-8.9,10.7-10.7c5.4-2.2,11.6-0.9,16.5,2.7c3.1,2.2,5.4,5.8,5.8,9.4
		C2489.4,630.3,2489.4,631.7,2488.9,633L2488.9,633z"/>
	<path class="st6" d="M2484.9,633c0,6.7-5.4,12.5-12.5,12.5c-6.7,0-12.5-5.4-12.5-12.5l0,0c0-6.7,5.8-12.5,12.5-12.5
		C2479.1,620.5,2484.9,626.3,2484.9,633z"/>
	<path class="st10" d="M2027.2,307.1c-4.5-68.8-63.9-121.6-132.8-117.1c-68.8,4.5-121.6,63.9-117.1,132.8
		c3.1,48.7,34,90.7,79.1,108.6c0.9,14.8,2.2,31.3,2.2,31.3l109.5-7.2c0,0-0.4-17.9-1.3-33.5C2006.6,397.9,2030.3,353.6,2027.2,307.1
		z"/>
	<path class="st4" d="M1928.4,457.8V452c0-4,0.4-9.8,1.3-17.4c0.9-7.6,1.3-17,3.1-27.3c1.8-12.1,4.9-24.1,8.9-35.3
		c2.2-6.7,5.4-13,8.9-19.2c1.8-3.6,4.9-6.3,8-8c3.6-2.2,8-2.2,12.1-0.4c1.8,0.9,3.6,2.7,4.5,4.5c0.9,2.2,0.9,4.5,0,6.3
		c-1.8,4-4.9,7.2-8.9,8.9c-8.5,3.6-17.9,3.6-25.9,0c-8.9-3.6-15.6-10.7-18.8-19.7c-1.8-4.5-2.2-9.4-1.8-14.3
		c0.9-5.4,5.4-9.4,11.2-9.4c2.7,0,5.4,1.8,6.7,4c1.3,2.2,1.8,4.9,1.3,7.6c-1.3,4.9-4,9.4-8,13c-7.6,7.2-17.9,11.2-28.6,10.3
		c-10.7-0.9-20.1-7.2-25.5-16.5c-2.7-4.5-3.1-9.8-1.8-15.2c0.9-2.7,2.7-4.9,4.9-5.8c2.7-0.9,5.4-0.9,7.6,0c2.2,1.3,4,3.1,5.4,5.4
		c1.3,2.2,2.2,4.5,2.2,7.2c0.4,4.9,0.4,9.8-0.9,14.3c-2.2,8.9-8,17-16.1,21.9c-7.6,4.9-16.5,6.7-25.5,5.4c-4.5-0.4-8.5-2.2-11.6-5.4
		c-3.1-3.1-4-8-1.3-12.1c1.3-1.8,3.1-2.7,5.4-3.1s4,0,6.3,0.9c3.6,1.8,6.3,4.5,8,8c3.6,6.7,6.7,13,9.4,19.2
		c11.6,24.6,20.1,44.7,25.5,59c2.7,7.2,4.9,12.5,6.3,16.1c0.9,1.8,1.3,3.1,1.8,4.5l0.4,1.3c0,0-0.4-0.4-0.4-1.3l-1.8-4
		c-1.8-3.6-3.6-9.4-6.7-16.1c-5.8-13.9-14.3-34-25.9-58.6c-3.1-6.3-5.8-12.5-9.4-18.8c-1.8-3.1-4.5-5.8-7.6-7.6
		c-3.6-1.8-7.6-0.9-9.8,1.8c-1.8,3.1-1.3,7.6,1.3,10.3c3.1,2.7,6.7,4.5,10.7,4.9c8.5,1.3,17.4-0.4,24.6-4.9
		c7.6-4.9,13.4-12.5,15.6-21.5c1.3-4.5,1.3-9.4,0.9-13.9c-0.4-4.5-3.1-8.9-7.2-11.2c-2.2-0.9-4.5-0.9-6.7-0.4
		c-2.2,0.9-3.6,2.7-4.5,4.9c-1.3,4.5-0.9,9.8,1.8,13.9c4.9,8.9,13.9,14.8,24.1,15.6c10.3,0.9,20.1-2.7,27.3-9.8
		c3.6-3.1,6.3-7.2,7.6-12.1c0.4-2.2,0-4.5-1.3-6.7c-1.3-1.8-3.1-3.1-5.4-3.1s-4.5,0.9-6.3,2.2s-2.7,3.6-3.1,5.8
		c-0.9,4.5,0,9.4,1.8,13.4c6.3,17,25.5,25.9,42.5,19.2h0.4c3.6-1.8,6.7-4.5,8.5-8c1.3-3.6,0-7.6-3.6-9.4c-3.6-1.8-7.6-1.3-10.7,0.4
		c-3.1,1.8-5.8,4.5-7.6,7.6c-3.6,6.3-6.7,12.5-8.9,19.2c-4,11.2-7.2,23.2-9.4,35.3c-1.8,10.7-2.7,19.7-3.6,27.3
		c-0.9,7.6-0.9,13.4-1.3,17.4c0,1.8-0.4,3.6-0.4,4.5V457.8L1928.4,457.8z"/>
	<path class="st4" d="M1961,476.5l-93.9,6.3c-4,0.4-7.2-2.7-7.6-6.7c-0.4-4,2.7-7.2,6.7-7.6l93.9-6.3c4-0.4,7.2,2.7,7.6,6.7
		C1967.7,473,1964.6,476.1,1961,476.5z"/>
	<path class="st4" d="M1961.4,482.8l-93.9,6.3c-4,0-7.2,3.1-7.2,7.2c0,4,3.1,7.2,7.2,7.2h0.9l10.3-0.4l15.2,25
		c1.8,3.1,4.9,4.5,8.5,4.5l33.5-2.2c3.6-0.4,6.3-2.2,7.6-5.4l11.6-26.8l7.2-0.4c4-0.4,6.7-4,6.3-7.6
		C1968.1,485.5,1965,482.8,1961.4,482.8z"/>
	<path class="st14" d="M1817.1,241c6.7-7.2,15.2-13.4,24.1-18.3c5.8-3.1,12.1-5.4,18.8-6.7c4.5-0.9,7.2-0.4,7.6,0.4
		c0.4,2.2-8.5,6.3-20.6,15.6c-32.6,23.7-48.3,64.4-40.2,103.7c2.7,15.2,6.7,24.1,4.9,25.5c-0.9,0.4-3.1-0.9-5.8-4.9
		c-4-5.4-7.2-11.6-9.4-17.9c-3.6-9.4-5.4-19.7-5.4-29.5c-0.4-12.5,1.8-25,6.3-36.7"/>
	<path class="st14" d="M1898,219.5c-8,0.4-15.2-1.3-16.1-5.4c-0.4-2.2,0.9-4.5,3.6-6.3c3.6-2.2,7.6-3.6,11.6-3.6
		c4-0.4,8,0.4,12.1,2.2c3.1,1.3,4.5,3.6,4.5,5.8"/>
	<path class="st6" d="M1941.8,526.2c-2.2-0.4-4.5-0.9-6.7-1.8c-5.4-1.3-10.7-1.3-16.1-0.9c-5.4,0.4-10.7,1.8-15.6,4
		c-1.8,0.9-4,1.8-6.3,2.7c1.8-1.8,3.6-2.7,5.8-3.6c4.9-2.2,10.3-4,16.1-4.5c5.4-0.4,11.2,0,16.5,1.3
		C1937.7,524.4,1940,525.3,1941.8,526.2L1941.8,526.2z"/>
	<path class="st6" d="M1955.2,497.6c0,0.4-17,1.8-38,3.1s-38,2.2-38,1.8s17-1.8,38-3.1C1938.2,498,1955.2,497.1,1955.2,497.6z"/>
	<path class="st6" d="M1950.3,509.2c-3.1,0.9-6.3,1.3-9.4,1.3c-5.8,0.9-13.4,1.8-22.4,2.2c-8.9,0.4-16.5,0.9-22.4,1.3
		c-3.1,0.4-6.3,0.4-9.4,0c3.1-0.4,6.3-0.9,9.4-0.9l22.4-1.8l22.4-1.8C1944,509.2,1947.1,509.2,1950.3,509.2L1950.3,509.2z"/>
	<path class="st3" d="M1003.5,354.1l230.2,30.8l-25,184.2l-230.2-30.8L1003.5,354.1L1003.5,354.1z"/>
	<path class="st4" d="M1233.7,385.3h-0.9l-3.1-0.4l-12.5-1.8l-46.9-6.3l-166.3-22.4l0.9-0.4c-7.2,55-15.6,117.6-24.6,184.2l-0.4-0.9
		l230.2,31.3l-0.4,0.4c7.6-55.4,13.9-101.5,18.3-133.7c2.2-16.1,4-28.6,4.9-37.1c0.4-4.5,0.9-7.6,1.3-9.8L1233.7,385.3
		c0,0,0,1.3-0.4,3.6s-0.4,5.4-1.3,9.8c-1.3,8.5-2.7,21-4.9,37.1c-4.5,32.2-10.3,78.2-17.9,134.1v0.4l-230.2-31.3h-0.4v-0.4
		c8.9-66.6,17.4-129.2,25-184.2v-0.4h0.4l166.7,22.8l46.9,6.3l12.5,1.8l3.1,0.4H1233.7L1233.7,385.3z"/>
	<path class="st10" d="M1010.2,367l214.1,28.6l-21.5,160.9l-214.1-28.6L1010.2,367L1010.2,367z"/>
	<path class="st10" d="M988.3,527.9l88.1-89.9l38,68.8l35.8-29.5l52.3,79.1L988.3,527.9z"/>
	<path class="st10" d="M1143.8,434.5c-1.3,9.4-9.8,15.6-19.2,14.8c-9.4-1.3-15.6-9.8-14.8-19.2c1.3-9.4,9.8-15.6,19.2-14.8
		C1138.9,416.6,1145.2,425.1,1143.8,434.5z"/>
	<path class="st12" d="M988.3,527.9l88.1-89.9l38,68.8l35.8-29.5l52.3,79.1L988.3,527.9z"/>
	<path class="st12" d="M1143.8,434.5c-1.3,9.4-9.8,15.6-19.2,14.8c-9.4-1.3-15.6-9.8-14.8-19.2c1.3-9.4,9.8-15.6,19.2-14.8
		C1138.9,416.6,1145.2,425.1,1143.8,434.5z"/>
	<path class="st3" d="M1165.3,198.5l346.9,51.9l-41.6,277.6l-346.9-51.9L1165.3,198.5L1165.3,198.5z"/>
	<path class="st4" d="M1512.6,250.3l-1.8-0.4l-4.9-0.9l-18.8-2.7l-71.1-10.3l-250.8-36.7l0.9-0.9c-12.5,82.7-26.4,177.5-41.1,277.6
		l-0.9-0.9l347.3,51.9l-0.9,0.9c12.5-83.6,23.2-152.9,30.4-201.2c3.6-24.1,6.7-43.4,8.5-56.3c0.9-6.3,1.8-11.6,2.2-14.8
		C1512.2,252.6,1512.6,250.3,1512.6,250.3c0,0.4,0,1.8-0.4,5.4c-0.4,3.6-1.3,8.5-2.2,14.8c-1.8,13-4.5,31.7-8,56.3l-29.5,202.1v0.9
		h-0.9L1124.2,477h-0.9v-0.9c15.2-100.1,29.1-194.9,41.6-277.6v-0.9h0.9l251.2,38l71.1,10.7l18.8,3.1l4.9,0.9L1512.6,250.3
		L1512.6,250.3z"/>
	<path class="st10" d="M1175.1,217.3l322.8,48.3l-36.2,242.7L1138.9,460L1175.1,217.3L1175.1,217.3z"/>
	<path class="st10" d="M1138.9,460.4l135-134.1l55.9,104.6l55-43.4l76.9,120.7L1138.9,460.4L1138.9,460.4z"/>
	<path class="st10" d="M1376.3,322.8c-2.2,13.9-15.2,23.7-29.5,21.5c-13.9-2.2-23.7-15.2-21.5-29.5c2.2-13.9,15.2-23.7,29.1-21.5
		C1368.7,295.5,1378.5,308.5,1376.3,322.8C1376.3,322.3,1376.3,322.8,1376.3,322.8z"/>
	<path class="st12" d="M1138.9,460.4l135-134.1l55.9,104.6l55-43.4l76.9,120.7L1138.9,460.4L1138.9,460.4z"/>
	<path class="st12" d="M1376.3,322.8c-2.2,13.9-15.2,23.7-29.5,21.5c-13.9-2.2-23.7-15.2-21.5-29.5c2.2-13.9,15.2-23.7,29.1-21.5
		C1368.7,295.5,1378.5,308.5,1376.3,322.8C1376.3,322.3,1376.3,322.8,1376.3,322.8z"/>
	<path class="st10" d="M1312.4,1012.5c0,34.4-27.7,62.1-62.1,62.1s-62.1-27.7-62.1-62.1c0-34.4,27.7-62.1,62.1-62.1
		S1312.4,978.1,1312.4,1012.5z"/>
	<path class="st10" d="M1250.2,934.7c-1.3-9.4-1.3-18.8-1.3-28.2c-0.4-9.4,0-18.8,1.3-28.2c1.3,9.4,1.3,18.8,1.3,28.2
		S1251.1,925.4,1250.2,934.7z"/>
	<path class="st10" d="M1247.1,1157.4c-1.3-11.2-1.3-21.9-1.3-33.1c-0.4-11.2,0-21.9,1.3-33.1c1.3,11.2,1.3,21.9,1.3,33.1
		C1248.4,1135.5,1248,1146.6,1247.1,1157.4z"/>
	<path class="st10" d="M1155.9,1013.4c-14.3,1.3-29.1,1.3-43.8,0C1126.9,1012.1,1141.6,1012.1,1155.9,1013.4z"/>
	<path class="st10" d="M1388.4,1004.9c-8.9,1.3-17.9,1.8-27.3,1.3c-8.9,0.4-18.3,0-27.3-1.3c8.9-1.3,17.9-1.3,27.3-1.3
		C1370.5,1003.6,1379.4,1004,1388.4,1004.9z"/>
	<path class="st10" d="M1342.8,939.2c-7.6,9.8-16.1,18.3-25.9,25.9c3.6-4.9,7.6-9.8,12.1-13.9
		C1332.9,946.4,1337.4,942.3,1342.8,939.2L1342.8,939.2z"/>
	<path class="st10" d="M1334.3,1091.2c-4.5-2.7-8.5-6.3-12.1-10.3c-4-3.6-7.6-7.6-10.3-12.1c4.5,2.7,8.5,6.3,12.1,10.3
		C1328,1082.7,1331.6,1086.7,1334.3,1091.2z"/>
	<path class="st10" d="M1190.3,1068.8c-3.6,4.9-7.6,9.4-12.1,13.4c-4,4.5-8.9,8.5-13.9,11.6c3.6-4.9,7.6-9.4,12.1-13.4
		C1180.5,1076,1185,1072.4,1190.3,1068.8z"/>
	<path class="st10" d="M1191.2,954.4c-0.4,0.4-4.5-5.8-10.3-11.6c-5.8-5.8-11.6-9.8-11.2-10.7c4.9,1.8,9.8,4.9,13,8.9
		C1186.8,944.6,1189.9,949.5,1191.2,954.4z"/>
	<path class="st10" d="M2141.6,1012.5c0-43.4,31.7-80,75.1-86.3c-4-0.4-8-0.9-12.1-0.9c-48.3,0-87.2,38.9-87.2,87.2
		c0,48.3,38.9,87.2,87.2,87.2c4,0,8-0.4,12.1-0.9C2173.3,1092.5,2141.6,1055.9,2141.6,1012.5L2141.6,1012.5z"/>
	<path class="st10" d="M2235,1003.1l2.2,4c2.7,4.5,6.3,8,11.2,10.3l4,1.8l-4,2.2c-4.5,2.7-8,6.3-10.3,11.2l-2.2,4l-2.2-4
		c-2.7-4.5-6.3-8-11.2-10.3l-4-1.8l4-2.2c4.5-2.7,8-6.3,10.3-11.2L2235,1003.1z"/>
	<path class="st10" d="M2066,1053.6l1.3,2.2c1.3,2.2,3.1,4,5.8,4.9l2.2,0.9l-1.8,1.3c-2.2,1.3-4,3.1-5.4,5.4l-0.9,2.2l-1.3-1.8
		c-1.3-2.2-3.1-4-5.8-4.9l-2.2-0.9l1.8-1.3c2.2-1.3,4-3.1,5.4-5.4L2066,1053.6z"/>
	<path class="st10" d="M2023.6,1015.6l0.4,0.9l2.7,2.7l0.9,0.4l-0.9,0.4c-1.3,0.4-1.8,1.8-2.7,2.7l-0.4,0.9l-0.4-0.9
		c-0.4-0.9-1.8-1.8-2.7-2.7l-0.9-0.4l0.9-0.4l2.7-2.7L2023.6,1015.6z"/>
	<path class="st10" d="M2315.5,1063.5l0.4,0.9c0.4,0.9,1.8,1.8,2.7,2.7l0.9,0.4l-0.9,0.4l-2.7,2.7l-0.4,0.9l-0.4-0.9
		c-0.4-0.9-1.8-1.8-2.7-2.7l-0.9-0.4l0.9-0.4l2.7-2.7L2315.5,1063.5z"/>
	<path class="st10" d="M2268.1,987.9l0.4,0.9c0.4,0.9,1.8,1.8,2.7,2.7l0.9,0.4l-0.9,0.4c-0.9,0.4-1.8,1.8-2.7,2.7l-0.4,0.9l-0.4-0.9
		l-2.7-2.7l-0.9-0.4l0.9-0.4l2.7-2.7L2268.1,987.9z"/>
	<path class="st10" d="M1289.6,965.1c-0.9,3.6-2.7,7.2-4.9,10.3c-3.1,5.4-6.3,8.9-7.2,8.9c0.9-3.6,2.7-7.2,4.9-9.8
		C1285.5,968.7,1288.7,964.7,1289.6,965.1z"/>
	<path class="st10" d="M1315.9,929.4c0.4,0.4-2.2,4.9-5.8,9.4c-3.6,4.5-7.2,8.5-7.6,8c-0.4-0.4,2.2-4.5,5.8-9.4
		C1311.9,932.5,1315.5,928.9,1315.9,929.4z"/>
	<path class="st10" d="M1345.4,895.8c0.4,0.4-2.7,4.5-6.7,8.9c-4,4.5-8,8-8.5,7.6c-0.4-0.4,2.7-4.5,6.7-8.9S1345,895.4,1345.4,895.8
		z"/>
	<path class="st10" d="M1377.6,865c0.4,0.4-3.1,4.5-7.6,8.5c-4.5,4-8.5,7.2-8.9,6.7s2.7-4,7.6-8.5
		C1373.6,867.2,1377.2,864.6,1377.6,865z"/>
	<path class="st10" d="M1412.5,836.8c0.4,0.4-3.1,4-8,7.6c-2.7,2.7-5.8,4.5-9.4,5.8c-0.4-0.4,3.1-4,8-7.6
		C1408,839.1,1412.1,836.4,1412.5,836.8z"/>
	<path class="st10" d="M1449.6,812.3c0.4,0.4-3.6,3.6-8.9,7.2c-3.1,2.2-6.3,4-9.8,4.9c-0.4-0.4,3.6-3.6,8.9-7.2
		C1442.4,814.9,1446,813.1,1449.6,812.3z"/>
	<path class="st10" d="M1488.9,790.4c0.4,0.4-4,3.6-9.4,6.3c-3.1,2.2-6.7,3.6-10.3,4c-0.4-0.4,4-3.6,9.4-6.3
		C1481.8,792.6,1484.9,791.2,1488.9,790.4z"/>
	<path class="st10" d="M1529.6,772c-2.7,2.7-6.3,4.5-9.8,5.4c-3.1,1.8-7.2,3.1-10.7,3.1c2.7-2.7,6.3-4.5,9.8-5.4
		C1522.5,773.8,1526,772.5,1529.6,772z"/>
	<path class="st10" d="M1572.1,757.3c-3.1,2.2-6.7,3.6-10.3,4.5c-3.6,1.3-7.2,2.2-11.2,2.2c3.1-2.2,6.7-3.6,10.3-4.5
		C1564.5,758.2,1568.1,757.7,1572.1,757.3z"/>
	<path class="st10" d="M1615.4,746.5c-6.7,3.1-14.3,4.9-21.9,4.9c3.1-1.8,6.7-3.1,10.7-3.6C1607.8,746.5,1611.4,746.1,1615.4,746.5z
		"/>
	<path class="st10" d="M1659.3,739.4c-3.6,1.8-7.2,2.7-10.7,2.7c-3.6,0.9-7.6,0.9-11.2,0.4c3.6-1.8,7.2-2.7,10.7-2.7
		C1651.7,738.9,1655.7,738.9,1659.3,739.4z"/>
	<path class="st10" d="M1704,736.7c-3.6,1.3-7.2,1.8-11.2,1.8c-3.6,0.4-7.6,0.4-11.2-0.4c3.6-1.3,7.2-1.8,11.2-1.8
		C1696.4,735.4,1700.4,735.4,1704,736.7z"/>
	<path class="st10" d="M1748.7,737.6c-3.6,0.9-7.6,1.3-11.2,0.4c-3.6,0-7.6-0.4-11.2-1.8C1733.9,735.4,1741.5,735.8,1748.7,737.6
		L1748.7,737.6z"/>
	<path class="st10" d="M1792.9,743c-3.6,0.4-7.6,0.4-11.2-0.4c-3.6,0-7.6-0.9-10.7-2.7c3.6-0.4,7.6-0.4,11.2,0.4
		C1785.8,740.3,1789.3,741.2,1792.9,743z"/>
	<path class="st10" d="M1836.7,751.9c-3.6,0.4-7.6,0-11.2-1.3c-3.6-0.4-7.6-1.8-10.7-3.6c3.6-0.4,7.6,0,11.2,1.3
		C1830,748.8,1833.6,750.1,1836.7,751.9z"/>
	<path class="st10" d="M1879.6,764.9c-3.6,0-7.6-0.9-11.2-2.2c-3.6-0.9-7.2-2.2-10.3-4.5c3.6,0,7.6,0.9,11.2,2.2
		C1872.9,761.3,1876.5,762.6,1879.6,764.9z"/>
	<path class="st10" d="M1921.2,781.4c-7.6-1.3-14.3-4.5-20.6-8.5c3.6,0.4,7.6,1.3,10.7,3.1C1915,776.9,1918.1,778.7,1921.2,781.4z"
		/>
	<path class="st10" d="M1961,801.1c-7.2-2.2-13.9-5.8-19.7-10.3c3.6,0.4,7.2,2.2,10.3,4C1957.4,797.9,1961.4,800.6,1961,801.1
		L1961,801.1z"/>
	<path class="st10" d="M1999.4,824.3c-3.6-0.9-7.2-2.7-9.8-4.9c-5.4-3.1-8.9-6.3-8.9-7.2c3.6,0.9,7.2,2.7,9.8,4.9
		C1995.9,820.7,1999.9,823.9,1999.4,824.3z"/>
	<path class="st10" d="M2035.6,850.7c-3.6-1.3-6.7-3.1-9.4-5.8c-4.9-3.6-8.5-7.2-8-7.6c3.6,1.3,6.7,3.1,9.4,5.8
		C2032.1,846.7,2036.1,850.3,2035.6,850.7z"/>
	<path class="st10" d="M2069.2,880.2c-0.4,0.4-4.5-2.7-8.9-6.7s-8-8-7.6-8.5c0.4-0.4,4.5,2.7,8.9,6.7S2069.6,879.8,2069.2,880.2z"/>
	<path class="st10" d="M2100,912.4c-0.4,0.4-4.5-2.7-8.5-7.6c-2.7-2.7-4.9-5.4-6.7-8.9c0.4-0.4,4.5,2.7,8.5,7.6
		C2097.3,908.4,2100.5,911.9,2100,912.4z"/>
	<path class="st10" d="M2123.7,941.9c-0.4,0.4-3.1-2.2-5.8-5.4c-2.7-3.1-4.5-6.3-4-6.7c0.4-0.4,3.1,1.8,5.8,5.4
		C2122.4,938.8,2124.2,941.4,2123.7,941.9z"/>
</g>
</svg>
