<?xml version="1.0" encoding="utf-8"?>
<!-- Generator: Adobe Illustrator 23.0.1, SVG Export Plug-In . SVG Version: 6.00 Build 0)  -->
<svg version="1.1" id="Layer_1" xmlns="http://www.w3.org/2000/svg" xmlns:xlink="http://www.w3.org/1999/xlink" x="0px" y="0px"
	 viewBox="0 0 1080 1080" style="enable-background:new 0 0 1080 1080;" xml:space="preserve">
<style type="text/css">
	.st0{fill:#FC611F;}
	.st1{fill:#8FC3D8;}
	.st2{fill:#346178;}
	.st3{fill:#FDC00F;}
	.st4{fill:#FEE69F;}
	.st5{opacity:0.1;}
	.st6{fill:#FFFFFF;}
	.st7{fill:#6B92A2;}
	.st8{opacity:0.4;fill:#FFFFFF;}
	.st9{fill:#303030;}
	.st10{fill:none;}
	.st11{fill:#8F6C08;}
	.st12{fill:#595959;}
	.st13{fill:#BFBFBF;}
	.st14{fill:#27495A;}
	.st15{fill:#3F3004;}
	.st16{fill:#BE900B;}
	.st17{opacity:0.5;fill:#FFFFFF;}
</style>
<rect class="st3" width="1080" height="1080"/>
<g>
	<g>
		<path class="st4" d="M720.2,538.8c-13.6-8.3-33.4,7.7-44.4,35.8c-11,28.1-8.9,57.6,4.6,66c13.6,8.3,33.4-7.7,44.4-35.8
			C735.8,576.6,733.7,547.1,720.2,538.8z"/>
		<path class="st4" d="M359.8,538.8c13.5-8.3,33.4,7.7,44.4,35.8c11,28.1,8.9,57.6-4.7,66c-13.6,8.3-33.4-7.7-44.4-35.8
			C344.2,576.6,346.2,547.1,359.8,538.8z"/>
	</g>
	<path class="st1" d="M869.2,877.9C832.9,831.1,640,818.5,640,818.5H440c0,0-192.9,12.6-229.2,59.4c-30.8,39.8,0,201.1,0,201.1
		h236.5h185.3h236.5C869.2,1079,899.9,917.7,869.2,877.9z"/>
	<path class="st4" d="M724.1,488.6c0,130.2-82.4,277.1-184.1,277.1c-101.7,0-184.1-146.9-184.1-277.1
		c0-130.1,82.4-194.2,184.1-194.2C641.7,294.4,724.1,358.5,724.1,488.6z"/>
	<g>
		<path class="st4" d="M622.6,620.9H457.4L440,818.5c0,21.9,44.8,39.6,100,39.6c55.2,0,100-17.7,100-39.6L622.6,620.9z"/>
		<path class="st5" d="M540,765.7c-33.4,0-64.7-15.9-91.7-41.8l-1,10.8c27.2,26.5,58.8,42.8,92.6,42.8c33.8,0,65.4-16.2,92.6-42.7
			l-1-11C604.7,749.8,573.4,765.7,540,765.7z"/>
	</g>
	<path class="st6" d="M666.7,820.9c-5.5-0.5-17.6-1.5-23.9-2L540,858.8l23.7,62.4l97.4-50.5L666.7,820.9z"/>
	<path class="st6" d="M413.3,820.9c5.5-0.5,17.6-1.5,23.9-2L540,858.8l-23.7,62.4l-97.4-50.5L413.3,820.9z"/>
	<polygon class="st7" points="540,858.8 545.9,1079 534.1,1079 	"/>
	<polygon class="st7" points="540,858.8 567,920 562.1,918.1 656.9,862.5 652,869.7 654.9,819.5 678.5,822.2 670.4,871.7 
		669.5,877.1 665.4,878.9 565.4,924.3 561.6,926 560.5,922.4 	"/>
	<path class="st1" d="M666.7,820.9c-5.5-0.5-17.6-1.5-23.9-2L540,858.8l23.7,62.4l97.4-50.5L666.7,820.9z"/>
	<polygon class="st7" points="540,858.8 519.5,922.4 518.4,926 514.7,924.3 414.6,878.9 410.5,877.1 409.6,871.7 401.5,822.2 
		425.1,819.5 428,869.7 423.1,862.5 517.9,918.1 513,920 	"/>
	<path class="st1" d="M413.3,820.9c5.5-0.5,17.6-1.5,23.9-2L540,858.8l-23.7,62.4l-97.4-50.5L413.3,820.9z"/>
	<path class="st8" d="M540,294.4v471.3c-101.7,0-184.1-147-184.1-277.1C355.9,358.5,438.3,294.4,540,294.4z"/>
	<path class="st9" d="M540,294.4c-50.3,0-95.8,15.7-129.1,47.3c-2.4-0.1-4.8-0.4-6.9-0.1c-2.5,0.2-4.9,0.5-7,0.7
		c-2.1,0.1-4.1,0.8-5.8,1.1c-1.7,0.4-3.1,0.7-4.4,1c-2.4,0.5-3.7,0.9-3.7,0.9s1.4,0.2,3.8,0.7c1.2,0.2,2.6,0.5,4.3,0.8
		c1.6,0.4,3.5,0.5,5.4,1.2c1.1,0.3,2.3,0.7,3.4,1.1c-2,0.3-4.1,0.6-6,1c-3.2,0.9-6.3,1.4-9.2,2.6c-2.8,1-5.5,2-7.8,3.4
		c-2.4,1.2-4.4,2.4-6,3.9c-1.6,1.3-3.1,2.4-3.9,3.7c-1.8,2.3-2.9,3.6-2.9,3.6s1.4-0.9,3.8-2.4c1.1-0.8,2.8-1.4,4.6-2
		c1.7-0.8,3.8-1.2,6.2-1.5c2.2-0.5,4.8-0.5,7.4-0.5c1.6-0.1,3.4,0,5.2,0.2c-0.7,0.3-1.4,0.6-2.2,0.9c-5.7,2.6-11.1,5.7-16,9
		c-4.8,3.3-8.9,7-12,10.4c-1.6,1.7-2.7,3.5-3.8,5c-1.2,1.4-1.8,2.9-2.4,4.1c-1.1,2.3-1.8,3.6-1.8,3.6s1.1-1,3-2.7
		c1-0.8,2-1.9,3.5-2.8c1.5-0.9,3-2,4.9-2.9c3.8-1.8,8.3-3.4,13.2-4.5c1-0.2,2-0.3,3-0.5c-16,28.8-25.3,64.6-25.3,108
		c0,22.5,2.5,45.5,7.1,68.1h12.1c0,0,4.9-53.2,25.1-71.3c12.2-10.9,20.8-53.3,25.8-85.5c3.6,14.7,10,31.5,21.3,42
		c0,0-11.2-25,0-35.9c0,0,10.4,38.4,24.2,47.8c0,0-2.1-12,6.4-19.5c0,0,16,59.6,174.6,26.6c0,0,51,61.8,52.5,95.8H717
		c4.6-22.6,7.1-45.6,7.1-68.1C724.1,358.5,641.7,294.4,540,294.4z"/>
</g>
<ellipse transform="matrix(0.7071 -0.7071 0.7071 0.7071 -223.6741 540.0008)" class="st10" cx="540" cy="540" rx="475" ry="475"/>
</svg>
