<?xml version="1.0" encoding="utf-8"?>
<!-- Generator: Adobe Illustrator 23.0.1, SVG Export Plug-In . SVG Version: 6.00 Build 0)  -->
<svg version="1.1" id="Layer_1" xmlns="http://www.w3.org/2000/svg" xmlns:xlink="http://www.w3.org/1999/xlink" x="0px" y="0px"
	 viewBox="0 0 1080 1080" style="enable-background:new 0 0 1080 1080;" xml:space="preserve">
<style type="text/css">
	.st0{fill:#FC611F;}
	.st1{fill:#8FC3D8;}
	.st2{fill:#346178;}
	.st3{fill:#FDC00F;}
	.st4{fill:#FEE69F;}
	.st5{opacity:0.1;}
	.st6{fill:#FFFFFF;}
	.st7{fill:#6B92A2;}
	.st8{opacity:0.4;fill:#FFFFFF;}
	.st9{fill:#303030;}
	.st10{fill:none;}
	.st11{fill:#8F6C08;}
	.st12{fill:#595959;}
	.st13{fill:#BFBFBF;}
	.st14{fill:#27495A;}
	.st15{fill:#3F3004;}
	.st16{fill:#BE900B;}
	.st17{opacity:0.5;fill:#FFFFFF;}
</style>
<rect class="st1" width="1079" height="1079"/>
<path class="st1" d="M1015,596c0,262.3-212.7,475-475,475c-262.3,0-475-212.7-475-475c0-262.3,212.7-475,475-475
	C802.3,121,1015,333.7,1015,596z"/>
<g>
	<path class="st3" d="M795.2,684.6c-56-63.8-28.5-309.9-107.9-368.7c-79.1-58.6-215.3-58.6-294.5,0c-79.5,58.8-52,304.9-107.9,368.7
		C228.4,749,282,883.8,282,883.8h257.9h0.1H798C798,883.8,851.6,749,795.2,684.6z"/>
	<path class="st4" d="M763.6,832.9c-4.3-0.9-8.3-1.6-12.3-2.4c-16.1-3-32-5.4-46.6-7.3c-18.7-2.5-35.1-4.2-46.7-5.2
		c5.5,0.5,0.3,0-6.2-0.5c-6.5-0.6-12.3-6.2-12.9-12.7l-16.3-185.8H457.4L441,804.7c-0.6,6.5-5.1,12.1-10,12.5
		c-2.5,0.2-5.6,0.5-9,0.8c-11.6,1.1-28,2.7-46.7,5.2c-14.6,1.9-30.5,4.3-46.6,7.3c-4.1,0.8-8.1,1.5-12.1,2.4
		c-45.9,9.2-90.2,23-105.8,43.1c-30.8,39.8,0,201.1,0,201.1h658.3c0,0,30.8-161.3,0-201.1C853.6,855.8,809.2,842.1,763.6,832.9z"/>
	<g>
		<path class="st4" d="M720.2,536.8c-13.6-8.3-33.5,7.7-44.4,35.8c-11,28.1-8.9,57.6,4.7,65.9c13.6,8.3,33.4-7.7,44.4-35.8
			C735.8,574.6,733.8,545.1,720.2,536.8z"/>
		<path class="st4" d="M359.8,536.8c13.5-8.3,33.4,7.7,44.4,35.8c11,28.1,8.9,57.6-4.6,65.9c-13.6,8.3-33.4-7.7-44.4-35.8
			C344.2,574.6,346.2,545.1,359.8,536.8z"/>
	</g>
	<path class="st5" d="M540,763.7c-33.4,0-64.7-15.9-91.7-41.8l-1,10.8c27.2,26.5,58.8,42.8,92.6,42.8c33.8,0,65.4-16.2,92.6-42.7
		l-1-11C604.6,747.8,573.4,763.7,540,763.7z"/>
	<g>
		<path class="st2" d="M704.2,652.1c0,20.6-10.6,37.3-23.8,37.3c-13.1,0-23.7-16.7-23.7-37.3c0-20.6,10.6-37.3,23.7-37.3
			C693.5,614.8,704.2,631.5,704.2,652.1z"/>
		<path class="st2" d="M423.3,652.1c0,20.6-10.6,37.3-23.8,37.3c-13.1,0-23.7-16.7-23.7-37.3c0-20.6,10.6-37.3,23.7-37.3
			C412.7,614.8,423.3,631.5,423.3,652.1z"/>
	</g>
	<path class="st3" d="M540,292.4c-101.7,0-184.1,64-184.1,194.2c0,15.9,1.2,32,3.6,48h1.4c0,0,0-36.3,38.7-49
		c41.4-13.5,72-45.4,94.1-79.9v0c0,0,48.2,64.7,143.3,52.1c49.3-6.5,82.2,76.8,82.2,76.8h1.4c2.3-16.1,3.6-32.1,3.6-48
		C724.1,356.5,641.7,292.4,540,292.4z"/>
	<path class="st4" d="M719.1,534.6c0,0-32.9-83.3-82.2-76.8c-95.1,12.6-143.3-52.1-143.3-52.1v0c-22.1,34.5-52.7,66.5-94.1,79.9
		c-38.7,12.6-38.7,49-38.7,49h-1.4c16.8,115.7,91.2,229.1,180.5,229.1c89.3,0,163.7-113.3,180.5-229.1H719.1z"/>
	<path class="st8" d="M540,442.3c-30.8-15.7-46.4-36.5-46.4-36.5v0c-22.1,34.5-52.7,66.5-94.1,79.9c-38.7,12.6-38.7,49-38.7,49h-1.4
		c16.8,115.7,91.2,229.1,180.5,229.1h0V442.3z"/>
	<path class="st2" d="M869.1,875.9c-15.5-20.1-59.9-33.8-105.5-43c-4.3-0.9-8.3-1.6-12.3-2.4c-14.9-2.7-29.6-5-43.3-6.8h-3.8
		c-0.5,0.5-1.4,1.4-3.2,2.9c-2.4,1.9-5.9,5.3-10.5,8.5c-9,6.8-21.9,15.1-37.3,22.5c-15.4,7.4-33.4,14-52.7,18.3
		c-19.3,4.5-39.9,6.6-60.5,6.6c-20.6-0.1-41.2-2.3-60.5-6.8c-19.3-4.4-37.3-11-52.7-18.4c-15.4-7.4-28.3-15.6-37.3-22.4
		c-4.5-3.2-8-6.5-10.5-8.5c-1.8-1.5-2.7-2.5-3.2-2.9H372c-13.7,1.8-28.4,4.1-43.3,6.8c-4.1,0.8-8.1,1.5-12.1,2.4
		c-45.9,9.2-90.2,23-105.8,43.1c-30.8,39.8,0,201.1,0,201.1h658.3C869.1,1077,899.9,915.7,869.1,875.9z"/>
</g>
<path class="st10" d="M1015,596c0,262.3-212.7,475-475,475c-262.3,0-475-212.7-475-475c0-262.3,212.7-475,475-475
	C802.3,121,1015,333.7,1015,596z"/>
</svg>
