<?xml version="1.0" encoding="utf-8"?>
<!-- Generator: Adobe Illustrator 23.0.1, SVG Export Plug-In . SVG Version: 6.00 Build 0)  -->
<svg version="1.1" id="Layer_1" xmlns="http://www.w3.org/2000/svg" xmlns:xlink="http://www.w3.org/1999/xlink" x="0px" y="0px"
	 viewBox="0 0 500 500" style="enable-background:new 0 0 500 500;" xml:space="preserve">
<style type="text/css">
	.st0{display:none;}
	.st1{display:inline;fill:#FFFFFF;}
	.st2{fill:#79C9E8;}
	.st3{fill:#00858E;}
	.st4{fill:url(#SVGID_1_);}
	.st5{fill:#007477;}
	.st6{fill:#FFC93C;}
	.st7{fill:#FFFFFF;}
	.st8{fill:#FFBF4D;}
	.st9{fill:url(#SVGID_2_);}
	.st10{fill:url(#SVGID_3_);}
	.st11{fill:#543D25;}
	.st12{fill:#E5C5AE;}
	.st13{fill:#B59681;}
	.st14{fill:none;}
	.st15{fill:#D8D8D8;}
	.st16{opacity:0.29;fill:#DDDDDD;enable-background:new    ;}
	.st17{fill:#FFDF93;}
	.st18{fill:#F77E2D;}
	.st19{fill:url(#SVGID_4_);}
	.st20{fill:url(#SVGID_5_);}
	.st21{fill:url(#SVGID_6_);}
	.st22{fill:url(#SVGID_7_);}
	.st23{fill:url(#SVGID_8_);}
	.st24{fill:url(#SVGID_9_);}
	.st25{fill:url(#SVGID_10_);}
	.st26{fill:url(#SVGID_11_);}
	.st27{fill:url(#SVGID_12_);}
	.st28{opacity:0.18;fill:#FFDF93;}
	.st29{fill:url(#SVGID_13_);}
	.st30{fill:url(#SVGID_14_);}
	.st31{opacity:0.29;fill:#F98D2B;enable-background:new    ;}
	.st32{fill:#EBEBEB;}
	.st33{fill:#C9C9C9;}
</style>
<g id="BACKGROUND" class="st0">
	<rect class="st1" width="500" height="500"/>
</g>
<rect x="177.8" class="st2" width="2.2" height="163.8"/>
<rect x="338.7" class="st2" width="2.2" height="189"/>
<path class="st3" d="M340.8,177.9l-166.9-19.5c-7.1-0.8-13.6,4.3-14.4,11.4l-12.5,106.8c-0.8,7.1,4.3,13.6,11.4,14.4l166.9,19.5
	c7.1,0.8,13.6-4.3,14.4-11.4l12.5-106.8C353,185.2,347.9,178.8,340.8,177.9z"/>
<linearGradient id="SVGID_1_" gradientUnits="userSpaceOnUse" x1="158.16" y1="321.3492" x2="352.2684" y2="321.3492" gradientTransform="matrix(1 0 0 -1 0 502)">
	<stop  offset="0" style="stop-color:#5E72EB"/>
	<stop  offset="1" style="stop-color:#4B63C9"/>
</linearGradient>
<path class="st4" d="M351,202.9l1.2-10.6c0.8-7.1-4.3-13.6-11.4-14.4l-166.9-19.5c-7.1-0.8-13.6,4.3-14.4,11.4l-1.2,10.6L351,202.9z
	"/>
<path class="st5" d="M351,202.9l1.2-10.6c0.8-7.1-4.3-13.6-11.4-14.4l-166.9-19.5c-7.1-0.8-13.6,4.3-14.4,11.4l-1.2,10.6L351,202.9z
	"/>
<g>
	<path class="st6" d="M185.2,245.1l21.2-37.3c1.4-2.4,4-3.7,6.7-3.4l0,0c3.8,0.4,6.4,3.8,6,7.6l-4.4,37.7l0.2,0
		c2.6,0.3,4.5,2.7,4.2,5.3l0,0c-0.3,2.6-2.7,4.5-5.3,4.2l-0.2,0l-0.8,6.9c-0.3,2.8-2.9,4.8-5.7,4.5l0,0c-2.8-0.3-4.8-2.9-4.5-5.7
		l0.8-6.9l-15.2-1.8c-2.6-0.3-4.5-2.7-4.2-5.3l0.4-3.5C184.5,246.6,184.8,245.8,185.2,245.1z M204.6,247.9l2.7-23.4
		c0-0.2-0.2-0.2-0.3-0.1l-12.5,22.1c-0.2,0.4,0,0.9,0.5,0.9l8.9,1C204.2,248.5,204.5,248.2,204.6,247.9z"/>
	<path class="st6" d="M278.6,256l21.2-37.3c1.4-2.4,4-3.7,6.7-3.4l0,0c3.8,0.4,6.4,3.8,6,7.6l-4.4,37.7l0.2,0
		c2.6,0.3,4.5,2.7,4.2,5.3l0,0c-0.3,2.6-2.7,4.5-5.3,4.2l-0.2,0l-0.8,6.9c-0.3,2.8-2.9,4.8-5.7,4.5l0,0c-2.8-0.3-4.8-2.9-4.5-5.7
		l0.8-6.9l-15.2-1.8c-2.6-0.3-4.5-2.7-4.2-5.3l0.4-3.5C277.9,257.5,278.2,256.7,278.6,256z M298,258.8l2.7-23.4
		c0-0.2-0.2-0.2-0.3-0.1l-12.5,22.1c-0.2,0.4,0,0.9,0.5,0.9l8.9,1C297.6,259.4,297.9,259.1,298,258.8z"/>
	<path class="st6" d="M236.6,223.1c1.2-10.5,7.5-15.9,17.6-14.7c10.2,1.2,15,7.9,13.8,18.4l-4,34.2c-1.2,10.5-7.5,15.9-17.6,14.7
		c-10.2-1.2-15-7.9-13.8-18.4L236.6,223.1z M242.9,259.3c-0.6,4.7,1.3,6.7,4.6,7.1c3.3,0.4,5.6-1.2,6.1-5.9l4.1-35.6
		c0.5-4.7-1.3-6.7-4.6-7.1c-3.3-0.4-5.6,1.2-6.1,5.9L242.9,259.3z"/>
</g>
<g>
	<path class="st7" d="M177.9,173.2c-0.2,1.9-2,3.3-3.9,3.1c-1.9-0.2-3.3-2-3.1-3.9c0.2-1.9,2-3.3,3.9-3.1S178.1,171.3,177.9,173.2z"
		/>
	<path class="st2" d="M194.6,175.2c-0.2,1.9-2,3.3-3.9,3.1c-1.9-0.2-3.3-2-3.1-3.9c0.2-1.9,2-3.3,3.9-3.1
		C193.4,171.5,194.8,173.3,194.6,175.2z"/>
	<path class="st8" d="M211.9,177.2c-0.2,1.9-2,3.3-3.9,3.1c-1.9-0.2-3.3-2-3.1-3.9c0.2-1.9,2-3.3,3.9-3.1
		C210.8,173.5,212.2,175.3,211.9,177.2z"/>
</g>
<linearGradient id="SVGID_2_" gradientUnits="userSpaceOnUse" x1="142.16" y1="159.565" x2="166.01" y2="159.565" gradientTransform="matrix(1 0 0 -1 0 502)">
	<stop  offset="0" style="stop-color:#FF908B"/>
	<stop  offset="1" style="stop-color:#FE7062"/>
</linearGradient>
<path class="st9" d="M144.8,298.8c0,0-2.3,10-1.9,20.2c0.3,9.1-0.8,69.3-0.8,69.3h7.4c0,0,10.5-47.1,10.9-50.8s5.6-40.9,5.6-40.9
	L144.8,298.8z"/>
<linearGradient id="SVGID_3_" gradientUnits="userSpaceOnUse" x1="149.68" y1="159.81" x2="178.61" y2="159.81" gradientTransform="matrix(1 0 0 -1 0 502)">
	<stop  offset="0" style="stop-color:#FF908B"/>
	<stop  offset="1" style="stop-color:#ED655F"/>
</linearGradient>
<path class="st10" d="M149.7,296c0,0,1.7,12.9,4.6,22c2.9,9.1,17,70.3,17,70.3h7.4c0,0-1.4-47.1-1.9-50.8s-4.2-40.9-4.2-40.9
	L149.7,296z"/>
<path class="st5" d="M171.9,388.3v5.1h14c0.8,0,1.1-1,0.4-1.5c-2.1-1.4-5.3-3.2-8.4-3.7H171.9z"/>
<path class="st5" d="M142.5,388.3v5.1h14c0.8,0,1.1-1,0.4-1.5c-2.1-1.4-5.3-3.2-8.4-3.7H142.5z"/>
<path class="st11" d="M167.8,236.3c0,0,4.8-7.3-0.7-8c-4.2-0.6-6,0.7-6,0.7s-4.9-0.5-7.6,1.8c-1.8,1.6-8.6,13.9,2.3,18.4
	c10.9,4.4,8.6-6.9,8.6-6.9L167.8,236.3z"/>
<path class="st11" d="M167.1,228.2c-4.2-0.6-6,0.7-6,0.7s-4.9-0.5-7.6,1.8c-1.8,1.6-8.6,13.9,2.3,18.4c5.1,2.1,7.3,0.7,8.2-1.4
	c-10.3,2.9-11.4-9.5-9.7-13.1c1.7-3.6,5.9-1.9,5.9-1.9c1.6-4.1,6.9-3.6,9.1-3.3C168.9,228.8,168.2,228.4,167.1,228.2z"/>
<path class="st12" d="M161,239.8c0,0-1.4-1.4-2.5,0c-1.1,1.4-0.4,4.6,1.4,4.8c0,0-0.5,4.6-4.1,4.4v3.7h8.4V250c0,0,5.2-2.1,5-6.4
	c-0.2-4.3-1.4-7.3-1.4-7.3S164.9,239.5,161,239.8z"/>
<path class="st13" d="M162.3,251.2c0.8,0.4,0.7,0.9,0.7,1.6h1.2V250c0,0-2,0.6-5-1.1C159.2,248.9,160.9,250.6,162.3,251.2z"/>
<path class="st12" d="M164,233c0,0-4.3-1.7-4.9-0.4c-0.3,0.9,0.5,1.6,1.7,2.3l-1,0.2c-0.2,0-0.3,0.3-0.1,0.5
	c0.3,0.2,1.1,0.4,2.7,0.4L164,233z"/>
<polygon class="st14" points="138.2,280.1 144,298.8 143.9,297.9 144,298.8 146,271.5 "/>
<path class="st6" d="M195,243.9c-8.3-6.1-30.9-11-30.9-11l-1.9,3.4c0,0,20.5,7.9,19.2,9.1c-0.8,0.7-10.8,5.3-14.2,6.8
	c-0.7,0.3-1.5,0.5-2.3,0.5l-10.4-0.1c0,0-7.5-0.9-13.4,5.9c-5.3,6.1-14.2,20.1-14.2,20.1l15.1,22.2l1.7,2.5l0,0l0,0.2
	c0,0,0.5,0.1,1.5,0.1c4.9,0.5,20.4,1.7,28.6-0.1l0.2,0l-0.4-36.4c13.1-10.4,19.4-18.4,21.7-21C195.8,245.4,195.7,244.4,195,243.9z
	 M144.3,293.5l-1.5-3.2l-4.7-10.3l7.8-8.7l-1.4,19.1L144.3,293.5z"/>
<polygon class="st15" points="142.9,290.3 144.3,293.5 143.6,303.3 143.6,303.3 141.9,300.8 "/>
<path class="st16" d="M170.1,265.8c-1.4,1-1,10-1.4,15.6c-0.6,9.4-1.1,17.6-0.7,22.9c2.1-0.1,4.1-0.4,5.8-0.7l0.2,0l-0.4-36.4
	c13.1-10.4,19.4-18.4,21.7-21c0.6-0.7,0.5-1.7-0.2-2.2C195,243.9,184.6,255.2,170.1,265.8z"/>
<path class="st7" d="M176.7,337.5c-0.4-2.7-2.4-22.8-3.5-33.8l-5.3,0.6c0,0,7.7,63.3,8.2,84.1h2.4
	C178.6,388.3,177.3,341.2,176.7,337.5z"/>
<rect x="197.2" y="322.8" class="st6" width="146.9" height="29.9"/>
<rect x="197.2" y="322.8" class="st17" width="146.9" height="7.3"/>
<polygon class="st18" points="210,322.8 223.4,322.8 219.8,330 206.4,330 "/>
<polygon class="st18" points="240.2,322.8 253.6,322.8 250,330 236.6,330 "/>
<polygon class="st18" points="270.4,322.8 283.8,322.8 280.2,330 266.8,330 "/>
<polygon class="st18" points="300.6,322.8 314,322.8 310.4,330 297,330 "/>
<polygon class="st18" points="344.1,322.8 344.1,323 340.6,330 327.2,330 330.8,322.8 "/>
<rect x="215.5" y="352.6" class="st5" width="10.4" height="40.8"/>
<g>
	<rect x="223.5" y="352.6" class="st5" width="2.4" height="40.8"/>
	<rect x="215.5" y="352.6" class="st5" width="10.4" height="5.1"/>
</g>
<polygon class="st5" points="225.8,352.6 225.8,352.6 215.5,352.6 215.5,357.7 223.5,357.7 223.5,393.4 225.8,393.4 225.8,352.6 "/>
<polygon class="st5" points="326.5,352.6 326.5,352.5 316.2,352.5 316.2,393.3 323.5,393.3 323.5,393.4 326.6,393.4 326.6,357.7 
	326.6,352.6 326.6,352.6 "/>
<rect x="215.5" y="318.1" class="st5" width="10.4" height="4.6"/>
<linearGradient id="SVGID_4_" gradientUnits="userSpaceOnUse" x1="223.4851" y1="181.6" x2="225.8351" y2="181.6" gradientTransform="matrix(1 0 0 -1 0 502)">
	<stop  offset="0" style="stop-color:#5E72EB"/>
	<stop  offset="1" style="stop-color:#4B63C9"/>
</linearGradient>
<rect x="223.5" y="318.1" class="st19" width="2.4" height="4.6"/>
<rect x="316.2" y="318.1" class="st5" width="10.4" height="4.6"/>
<linearGradient id="SVGID_5_" gradientUnits="userSpaceOnUse" x1="323.53" y1="181.6" x2="326.59" y2="181.6" gradientTransform="matrix(1 0 0 -1 0 502)">
	<stop  offset="0" style="stop-color:#5E72EB"/>
	<stop  offset="1" style="stop-color:#4B63C9"/>
</linearGradient>
<rect x="323.5" y="318.1" class="st20" width="3.1" height="4.6"/>
<linearGradient id="SVGID_6_" gradientUnits="userSpaceOnUse" x1="215.48" y1="179.57" x2="225.83" y2="179.57" gradientTransform="matrix(1 0 0 -1 0 502)">
	<stop  offset="0" style="stop-color:#5E72EB"/>
	<stop  offset="1" style="stop-color:#4B63C9"/>
</linearGradient>
<rect x="215.5" y="322.1" class="st21" width="10.4" height="0.6"/>
<linearGradient id="SVGID_7_" gradientUnits="userSpaceOnUse" x1="316.24" y1="179.57" x2="326.59" y2="179.57" gradientTransform="matrix(1 0 0 -1 0 502)">
	<stop  offset="0" style="stop-color:#5E72EB"/>
	<stop  offset="1" style="stop-color:#4B63C9"/>
</linearGradient>
<rect x="316.2" y="322.1" class="st22" width="10.4" height="0.6"/>
<g>
	<g>
		<polygon class="st3" points="223.4,322.8 208.6,352.6 197.2,352.6 197.2,348.5 210,322.8 		"/>
		<polygon class="st3" points="240.2,322.8 225.4,352.6 238.8,352.6 253.6,322.8 		"/>
		<polygon class="st3" points="283.8,322.8 269,352.6 255.6,352.6 270.4,322.8 		"/>
		<polygon class="st3" points="314,322.8 299.2,352.6 285.8,352.6 300.6,322.8 		"/>
		<polygon class="st3" points="330.8,322.8 316,352.6 329.4,352.6 344.1,323 		"/>
	</g>
</g>
<g>
	<g>
		
			<linearGradient id="SVGID_8_" gradientUnits="userSpaceOnUse" x1="206.37" y1="175.625" x2="223.38" y2="175.625" gradientTransform="matrix(1 0 0 -1 0 502)">
			<stop  offset="0" style="stop-color:#5E72EB"/>
			<stop  offset="1" style="stop-color:#4B63C9"/>
		</linearGradient>
		<polygon class="st23" points="223.4,322.8 219.8,330 206.4,330 210,322.8 		"/>
		
			<linearGradient id="SVGID_9_" gradientUnits="userSpaceOnUse" x1="236.58" y1="175.625" x2="253.58" y2="175.625" gradientTransform="matrix(1 0 0 -1 0 502)">
			<stop  offset="0" style="stop-color:#5E72EB"/>
			<stop  offset="1" style="stop-color:#4B63C9"/>
		</linearGradient>
		<polygon class="st24" points="253.6,322.8 250,330 236.6,330 240.2,322.8 		"/>
		
			<linearGradient id="SVGID_10_" gradientUnits="userSpaceOnUse" x1="266.78" y1="175.625" x2="283.77" y2="175.625" gradientTransform="matrix(1 0 0 -1 0 502)">
			<stop  offset="0" style="stop-color:#5E72EB"/>
			<stop  offset="1" style="stop-color:#4B63C9"/>
		</linearGradient>
		<polygon class="st25" points="283.8,322.8 280.2,330 266.8,330 270.4,322.8 		"/>
		
			<linearGradient id="SVGID_11_" gradientUnits="userSpaceOnUse" x1="296.98" y1="175.625" x2="313.97" y2="175.625" gradientTransform="matrix(1 0 0 -1 0 502)">
			<stop  offset="0" style="stop-color:#5E72EB"/>
			<stop  offset="1" style="stop-color:#4B63C9"/>
		</linearGradient>
		<polygon class="st26" points="314,322.8 310.4,330 297,330 300.6,322.8 		"/>
		
			<linearGradient id="SVGID_12_" gradientUnits="userSpaceOnUse" x1="327.18" y1="175.625" x2="344.07" y2="175.625" gradientTransform="matrix(1 0 0 -1 0 502)">
			<stop  offset="0" style="stop-color:#5E72EB"/>
			<stop  offset="1" style="stop-color:#4B63C9"/>
		</linearGradient>
		<polygon class="st27" points="344.1,323 340.6,330 327.2,330 330.8,322.8 		"/>
	</g>
</g>
<g>
	<g>
		<polygon class="st5" points="223.4,322.8 219.8,330 206.4,330 210,322.8 		"/>
		<polygon class="st5" points="253.6,322.8 250,330 236.6,330 240.2,322.8 		"/>
		<polygon class="st5" points="283.8,322.8 280.2,330 266.8,330 270.4,322.8 		"/>
		<polygon class="st5" points="314,322.8 310.4,330 297,330 300.6,322.8 		"/>
		<polygon class="st5" points="344.1,323 340.6,330 327.2,330 330.8,322.8 		"/>
	</g>
</g>
<rect x="201.3" y="335.7" class="st28" width="140.2" height="14.9"/>
<linearGradient id="SVGID_13_" gradientUnits="userSpaceOnUse" x1="211.16" y1="190.4" x2="229.62" y2="190.4" gradientTransform="matrix(1 0 0 -1 0 502)">
	<stop  offset="0" style="stop-color:#FF908B"/>
	<stop  offset="1" style="stop-color:#FE7062"/>
</linearGradient>
<circle class="st29" cx="220.4" cy="311.6" r="9.2"/>
<path class="st5" d="M224.6,311.6c0-2.3-1.9-4.2-4.2-4.2s-4.2,1.9-4.2,4.2s1.9,4.2,4.2,4.2C222.7,315.8,224.6,313.9,224.6,311.6z"/>
<linearGradient id="SVGID_14_" gradientUnits="userSpaceOnUse" x1="312.12" y1="190.4" x2="330.58" y2="190.4" gradientTransform="matrix(1 0 0 -1 0 502)">
	<stop  offset="0" style="stop-color:#FF908B"/>
	<stop  offset="1" style="stop-color:#FE7062"/>
</linearGradient>
<circle class="st30" cx="321.4" cy="311.6" r="9.2"/>
<path class="st5" d="M325.5,311.6c0-2.3-1.9-4.2-4.2-4.2s-4.2,1.9-4.2,4.2s1.9,4.2,4.2,4.2S325.5,313.9,325.5,311.6z"/>
<path class="st6" d="M399.7,390.3h-46.8l7.1-17.3v0l2.9-7l0.8-1.9l1.3-3.1l0.3-0.6l2.9-7l0.5-1.3l5.1-12.4c0.9-2.2,4.1-2.2,5,0
	l5.1,12.4l0.5,1.3l2.9,7l0.3,0.6l1.3,3.1l0.8,1.9l2.9,7v0L399.7,390.3z"/>
<polygon class="st31" points="356,382.8 352.9,390.3 399.7,390.3 396.6,382.8 "/>
<rect x="349.2" y="385.8" class="st3" width="53.6" height="7.6"/>
<rect x="391.2" y="385.8" class="st5" width="11.6" height="7.6"/>
<path class="st31" d="M397.9,385.8h-6.6l-5.3-12.9v0l-2.9-7l-0.8-1.9l-1.3-3.1l-0.3-0.6l-2.9-7l-0.5-1.3l-4.3-10.4l0.8-2
	c0.9-2.2,4.1-2.2,5,0l5.1,12.4l0.5,1.3l2.9,7l0.3,0.6l1.3,3.1l0.8,1.9l2.9,7v0L397.9,385.8z"/>
<polygon class="st3" points="387.3,360.3 365.3,360.3 368.2,353.3 384.5,353.3 "/>
<polygon class="st3" points="392.5,372.9 392.5,372.9 360.1,372.9 360.1,372.9 363,365.9 389.7,365.9 "/>
<polygon class="st5" points="387.3,360.3 380.7,360.3 377.8,353.3 384.5,353.3 "/>
<polygon class="st5" points="392.5,372.9 392.5,372.9 385.9,372.9 385.9,372.9 383.1,365.9 389.7,365.9 "/>
<path class="st32" d="M101.6,220.2c3.5,0,6.5-2.5,7-6c0.1-0.6,0.1-1.3,0.1-1.9c0-7.7-6.3-14-14-14c-0.3,0-0.6,0-0.9,0
	c-0.6-7.6-7-13.6-14.8-13.6c-8.2,0-14.8,6.6-14.8,14.8c0,0.4,0,0.7,0,1.1c-2.3-1.3-5-2-7.9-1.9c-7.5,0.3-13.6,6.3-14.1,13.7
	c0,0.1,0,0.1,0,0.2c-0.2,4,3,7.4,7.1,7.4L101.6,220.2L101.6,220.2z"/>
<path class="st32" d="M434.7,231.2c11,0,11.6-16.6,0.6-17.1c-0.3,0-0.6,0-0.9,0c-2,0-3.9,0.3-5.6,0.9c-1.5-9-9.3-15.9-18.7-15.9
	c-9.6,0-17.5,7.2-18.8,16.4c-2.3-1.1-4.8-1.7-7.5-1.7c-1.5,0-3,0.2-4.4,0.6c-9.6,2.5-7.6,16.9,2.3,16.9H434.7z"/>
<path class="st32" d="M302.1,149.3c11,0,11.6-16.6,0.6-17.1c-0.3,0-0.6,0-0.9,0c-2,0-3.9,0.3-5.6,0.9c-1.5-9-9.3-15.8-18.7-15.8
	c-9.6,0-17.5,7.2-18.8,16.5c-2.3-1.1-4.8-1.7-7.5-1.7c-1.5,0-3,0.2-4.4,0.6c-9.6,2.5-7.6,16.8,2.3,16.8H302.1z"/>
<circle class="st33" cx="126.4" cy="153.6" r="26.4"/>
<path class="st33" d="M126.7,127.1c7.2,4.7,11.9,12.9,11.9,22.1c0,14.6-11.8,26.4-26.4,26.4c-0.1,0-0.1,0-0.2,0
	c4.2,2.7,9.2,4.3,14.5,4.3c14.6,0,26.5-11.8,26.5-26.4C152.9,139,141.2,127.2,126.7,127.1z"/>
<g id="DESIGNED_BY_FREEPIK">
</g>
</svg>
