<?xml version="1.0" encoding="utf-8"?>
<!-- Generator: Adobe Illustrator 23.0.1, SVG Export Plug-In . SVG Version: 6.00 Build 0)  -->
<svg version="1.1" id="Layer_1" xmlns="http://www.w3.org/2000/svg" xmlns:xlink="http://www.w3.org/1999/xlink" x="0px" y="0px"
	 viewBox="0 0 750 500" style="enable-background:new 0 0 750 500;" xml:space="preserve">
<style type="text/css">
	.st0{fill:#FFFFFF;}
	.st1{fill:#EBEBEB;}
	.st2{fill:#E0E0E0;}
	.st3{fill:#F5F5F5;}
	.st4{fill:#455A64;}
	.st5{fill:#263238;}
	.st6{fill:#B78876;}
	.st7{fill:#AA6550;}
	.st8{fill:#FFC93C;}
	.st9{opacity:0.3;}
	.st10{fill:#00858E;}
	.st11{fill:#FFBE9D;}
	.st12{fill:#EB996E;}
	.st13{fill:#FAFAFA;}
	.st14{opacity:0.2;}
	.st15{fill:#FF725E;}
</style>
<g id="freepik--background-complete--inject-33">
	<rect x="276.8" y="109.6" class="st0" width="205.7" height="119.9"/>
	<path class="st1" d="M483.3,230.2H276.1V108.9h207.1L483.3,230.2L483.3,230.2z"/>
	<path class="st2" d="M292.9,223.4c-0.1,0-0.2-24.5-0.2-54.7s0.1-54.8,0.2-54.8s0.2,24.5,0.2,54.8S293,223.4,292.9,223.4z"/>
	<path class="st2" d="M288.7,118.5c-2.3,0.3-4.6,0.3-6.8,0C284.1,118.3,286.4,118.3,288.7,118.5z"/>
	<path class="st2" d="M288.7,125.8c-2.3,0.3-4.6,0.3-6.8,0C284.1,125.5,286.4,125.5,288.7,125.8z"/>
	<path class="st2" d="M288.7,133c-2.3,0.3-4.6,0.3-6.8,0C284.1,132.7,286.4,132.7,288.7,133z"/>
	<path class="st2" d="M288.7,140.2c-2.3,0.3-4.6,0.3-6.8,0C284.1,139.9,286.4,139.9,288.7,140.2z"/>
	<path class="st2" d="M288.7,147.4c-2.3,0.3-4.6,0.3-6.8,0C284.1,147.1,286.4,147.1,288.7,147.4z"/>
	<path class="st2" d="M288.7,154.6c-2.3,0.3-4.6,0.3-6.8,0C284.1,154.3,286.4,154.3,288.7,154.6z"/>
	<path class="st2" d="M288.7,161.8c-2.3,0.3-4.6,0.3-6.8,0C284.1,161.6,286.4,161.6,288.7,161.8z"/>
	<path class="st2" d="M288.7,169c-2.3,0.3-4.6,0.3-6.8,0C284.1,168.7,286.4,168.7,288.7,169z"/>
	<path class="st2" d="M288.7,176.3c-2.3,0.3-4.6,0.3-6.8,0C284.1,176,286.4,176,288.7,176.3z"/>
	<path class="st2" d="M288.7,183.5c-2.3,0.3-4.6,0.3-6.8,0C284.1,183.2,286.4,183.2,288.7,183.5z"/>
	<path class="st2" d="M288.7,190.7c-2.3,0.3-4.6,0.3-6.8,0C284.1,190.4,286.4,190.4,288.7,190.7z"/>
	<path class="st2" d="M288.7,197.9c-2.3,0.3-4.6,0.3-6.8,0C284.1,197.6,286.4,197.6,288.7,197.9z"/>
	<path class="st2" d="M288.7,205.1c-2.3,0.3-4.6,0.3-6.8,0C284.1,204.9,286.4,204.9,288.7,205.1z"/>
	<path class="st2" d="M288.7,212.3c-2.3,0.3-4.6,0.3-6.8,0C284.1,212.1,286.4,212.1,288.7,212.3z"/>
	<path class="st2" d="M288.7,219.6c-2.3,0.3-4.6,0.3-6.8,0C284.1,219.3,286.4,219.3,288.7,219.6z"/>
	<path class="st2" d="M316,118.1c0,0.1-4,0.2-8.8,0.2s-8.9-0.1-8.9-0.2s4-0.2,8.9-0.2S316,118,316,118.1z"/>
	<path class="st2" d="M316,219.6c0,0.1-4,0.2-8.8,0.2s-8.9-0.1-8.9-0.2s4-0.2,8.9-0.2S316,219.4,316,219.6z"/>
	<path class="st2" d="M340.6,133c0,0.1-7.4,0.2-16.5,0.2s-16.5-0.1-16.5-0.2s7.4-0.2,16.5-0.2S340.6,132.9,340.6,133z"/>
	<path class="st2" d="M378.9,133c0,0.1-7.4,0.2-16.5,0.2s-16.5-0.1-16.5-0.2s7.4-0.2,16.5-0.2S378.9,132.9,378.9,133z"/>
	<path class="st2" d="M364.3,140.2c0,0.1-10.9,0.2-24.4,0.2s-24.4-0.1-24.4-0.2s10.9-0.2,24.4-0.2S364.3,140.1,364.3,140.2z"/>
	<path class="st2" d="M364.3,147.4c0,0.1-10.9,0.2-24.4,0.2s-24.4-0.1-24.4-0.2s10.9-0.2,24.4-0.2S364.3,147.3,364.3,147.4z"/>
	<path class="st2" d="M397.8,169c0,0.1-10.9,0.2-24.4,0.2S349,169.1,349,169s10.9-0.2,24.4-0.2S397.8,168.9,397.8,169z"/>
	<path class="st2" d="M383.4,154.6c0,0.1-10.9,0.2-24.4,0.2s-24.4-0.1-24.4-0.2s10.9-0.2,24.4-0.2S383.4,154.5,383.4,154.6z"/>
	<path class="st2" d="M442.9,154.6c0,0.1-10.9,0.2-24.4,0.2s-24.4-0.1-24.4-0.2s10.9-0.2,24.4-0.2S442.9,154.5,442.9,154.6z"/>
	<path class="st2" d="M422.2,140.2c0,0.1-10.9,0.2-24.4,0.2s-24.4-0.1-24.4-0.2s10.9-0.2,24.4-0.2S422.2,140.1,422.2,140.2z"/>
	<path class="st2" d="M455.9,169c0,0.1-10.9,0.2-24.4,0.2s-24.4-0.1-24.4-0.2s10.9-0.2,24.4-0.2S455.9,168.9,455.9,169z"/>
	<path class="st2" d="M449.2,147.4c0,0.1-17,0.2-37.9,0.2s-37.9-0.1-37.9-0.2s17-0.2,37.9-0.2S449.2,147.3,449.2,147.4z"/>
	<path class="st2" d="M316,125.8c0,0.1-4,0.2-8.8,0.2s-8.9-0.1-8.9-0.2s4-0.2,8.9-0.2S316,125.6,316,125.8z"/>
	<path class="st2" d="M316,212.3c0,0.1-4,0.2-8.8,0.2s-8.9-0.1-8.9-0.2s4-0.2,8.9-0.2S316,212.2,316,212.3z"/>
	<path class="st2" d="M324.8,154.6c0,0.1-4,0.2-8.8,0.2s-8.9-0.1-8.9-0.2s4-0.2,8.9-0.2S324.8,154.5,324.8,154.6z"/>
	<path class="st2" d="M466.5,154.6c0,0.1-4,0.2-8.8,0.2s-8.8-0.1-8.8-0.2s4-0.2,8.8-0.2S466.5,154.5,466.5,154.6z"/>
	<path class="st2" d="M340.6,183.4c0,0.1-7.4,0.2-16.5,0.2s-16.5-0.1-16.5-0.2s7.4-0.2,16.5-0.2S340.6,183.3,340.6,183.4z"/>
	<path class="st2" d="M378.9,183.4c0,0.1-7.4,0.2-16.5,0.2s-16.5-0.1-16.5-0.2s7.4-0.2,16.5-0.2S378.9,183.3,378.9,183.4z"/>
	<path class="st2" d="M364.3,190.6c0,0.1-10.9,0.2-24.4,0.2s-24.4-0.1-24.4-0.2s10.9-0.2,24.4-0.2S364.3,190.5,364.3,190.6z"/>
	<path class="st2" d="M364.3,197.9c0,0.1-10.9,0.2-24.4,0.2s-24.4-0.1-24.4-0.2s10.9-0.2,24.4-0.2S364.3,197.8,364.3,197.9z"/>
	<path class="st2" d="M383.4,205.1c0,0.1-10.9,0.2-24.4,0.2s-24.4-0.1-24.4-0.2s10.9-0.2,24.4-0.2S383.4,205,383.4,205.1z"/>
	<path class="st2" d="M442.9,205.1c0,0.1-10.9,0.2-24.4,0.2s-24.4-0.1-24.4-0.2s10.9-0.2,24.4-0.2S442.9,205,442.9,205.1z"/>
	<path class="st2" d="M422.2,190.6c0,0.1-10.9,0.2-24.4,0.2s-24.4-0.1-24.4-0.2s10.9-0.2,24.4-0.2S422.2,190.5,422.2,190.6z"/>
	<path class="st2" d="M449.2,197.9c0,0.1-17,0.2-37.9,0.2s-37.9-0.1-37.9-0.2s17-0.2,37.9-0.2S449.2,197.8,449.2,197.9z"/>
	<path class="st2" d="M324.8,205.1c0,0.1-4,0.2-8.8,0.2s-8.9-0.1-8.9-0.2s4-0.2,8.9-0.2S324.8,205,324.8,205.1z"/>
	<path class="st2" d="M466.5,205.1c0,0.1-4,0.2-8.8,0.2s-8.8-0.1-8.8-0.2s4-0.2,8.8-0.2S466.5,205,466.5,205.1z"/>
	<rect x="39" y="174.3" class="st2" width="70" height="49.9"/>
	<path class="st0" d="M109.5,181.7c0,0.1-15.8,0.2-35.3,0.2S39,181.8,39,181.7s15.8-0.2,35.3-0.2S109.5,181.5,109.5,181.7z"/>
	<path class="st0" d="M44.7,178c0,0.5-0.5,0.9-1,0.8c-0.5,0.1-0.9-0.2-1-0.7s0.2-0.9,0.7-1c0.1,0,0.2,0,0.3,0
		C44.2,177.1,44.7,177.5,44.7,178z"/>
	<path class="st0" d="M48.1,178c0.1,0.5-0.3,1-0.8,1.1s-1-0.3-1.1-0.8s0.3-1,0.8-1.1h0.1C47.7,177.1,48.1,177.5,48.1,178z"/>
	<path class="st0" d="M51.5,178c0.1,0.5-0.3,1-0.8,1.1s-1-0.3-1.1-0.8s0.3-1,0.8-1.1h0.1C51.1,177.1,51.5,177.5,51.5,178z"/>
	<rect x="254.3" y="247.8" class="st0" width="105.5" height="61.5"/>
	<path class="st3" d="M360.2,309.6H254v-62.2h106.2V309.6z"/>
	<path class="st2" d="M262.6,306.1c-0.1,0-0.1-12.6-0.1-28.1s0-28.1,0.1-28.1s0.1,12.6,0.1,28.1S262.6,306.1,262.6,306.1z"/>
	<path class="st2" d="M260.4,252.4c-1.2,0.1-2.3,0.1-3.5,0C258.1,252.2,259.2,252.2,260.4,252.4z"/>
	<path class="st2" d="M260.4,256c-1.2,0.1-2.3,0.1-3.5,0C258.1,255.9,259.2,255.9,260.4,256z"/>
	<path class="st2" d="M260.4,259.8c-1.2,0.1-2.3,0.1-3.5,0C258.1,259.6,259.2,259.6,260.4,259.8z"/>
	<path class="st2" d="M260.4,263.5c-1.2,0.1-2.3,0.1-3.5,0C258.1,263.3,259.2,263.3,260.4,263.5z"/>
	<path class="st2" d="M260.4,267.1c-1.2,0.1-2.3,0.1-3.5,0C258.1,267,259.2,267,260.4,267.1z"/>
	<path class="st2" d="M260.4,270.9c-1.2,0.1-2.3,0.1-3.5,0C258.1,270.7,259.2,270.7,260.4,270.9z"/>
	<path class="st2" d="M260.4,274.5c-1.2,0.1-2.3,0.1-3.5,0C258.1,274.4,259.2,274.4,260.4,274.5z"/>
	<path class="st2" d="M260.4,278.2c-1.2,0.1-2.3,0.1-3.5,0C258.1,278.1,259.2,278.1,260.4,278.2z"/>
	<path class="st2" d="M260.4,282c-1.2,0.1-2.3,0.1-3.5,0C258.1,281.9,259.2,281.9,260.4,282z"/>
	<path class="st2" d="M260.4,285.6c-1.2,0.1-2.3,0.1-3.5,0C258.1,285.5,259.2,285.5,260.4,285.6z"/>
	<path class="st2" d="M260.4,289.4c-1.2,0.1-2.3,0.1-3.5,0C258.1,289.2,259.2,289.2,260.4,289.4z"/>
	<path class="st2" d="M260.4,293.1c-1.2,0.1-2.3,0.1-3.5,0C258.1,292.9,259.2,292.9,260.4,293.1z"/>
	<path class="st2" d="M260.4,296.8c-1.2,0.1-2.3,0.1-3.5,0C258.1,296.6,259.2,296.6,260.4,296.8z"/>
	<path class="st2" d="M260.4,300.5c-1.2,0.1-2.3,0.1-3.5,0C258.1,300.3,259.2,300.3,260.4,300.5z"/>
	<path class="st2" d="M260.4,304.2c-1.2,0.1-2.3,0.1-3.5,0C258.1,304,259.2,304,260.4,304.2z"/>
	<path class="st2" d="M274.4,252.1c0,0.1-2,0.1-4.5,0.1s-4.5,0-4.5-0.1s2-0.1,4.5-0.1S274.4,252.1,274.4,252.1z"/>
	<path class="st2" d="M274.4,304.2c0,0-2,0.1-4.5,0.1s-4.5,0-4.5-0.1s2-0.1,4.5-0.1S274.4,304.1,274.4,304.2z"/>
	<path class="st2" d="M287,259.8c0,0.1-3.8,0.1-8.5,0.1s-8.5,0-8.5-0.1s3.8-0.1,8.5-0.1S287,259.7,287,259.8z"/>
	<path class="st2" d="M306.7,259.8c0,0.1-3.8,0.1-8.5,0.1s-8.5,0-8.5-0.1s3.8-0.1,8.5-0.1S306.7,259.7,306.7,259.8z"/>
	<path class="st2" d="M299.2,263.5c0,0.1-5.6,0.1-12.5,0.1s-12.5,0-12.5-0.1s5.6-0.1,12.5-0.1S299.2,263.4,299.2,263.5z"/>
	<path class="st2" d="M299.2,267.1c0,0.1-5.6,0.1-12.5,0.1s-12.5,0-12.5-0.1s5.6-0.1,12.5-0.1S299.2,267.1,299.2,267.1z"/>
	<path class="st2" d="M316.4,278.2c0,0.1-5.6,0.1-12.5,0.1s-12.5,0-12.5-0.1s5.6-0.1,12.5-0.1S316.4,278.2,316.4,278.2z"/>
	<path class="st2" d="M309,270.9c0,0.1-5.6,0.1-12.5,0.1s-12.5,0-12.5-0.1s5.6-0.1,12.5-0.1S309,270.8,309,270.9z"/>
	<path class="st2" d="M339.5,270.9c0,0.1-5.6,0.1-12.5,0.1s-12.5,0-12.5-0.1s5.6-0.1,12.5-0.1S339.5,270.8,339.5,270.9z"/>
	<path class="st2" d="M328.9,263.5c0,0.1-5.6,0.1-12.5,0.1s-12.5,0-12.5-0.1s5.6-0.1,12.5-0.1S328.9,263.4,328.9,263.5z"/>
	<path class="st2" d="M346.2,278.2c0,0.1-5.6,0.1-12.5,0.1s-12.5,0-12.5-0.1s5.6-0.1,12.5-0.1S346.2,278.2,346.2,278.2z"/>
	<path class="st2" d="M342.7,267.1c0,0.1-8.7,0.1-19.4,0.1s-19.4,0-19.4-0.1s8.7-0.1,19.4-0.1S342.7,267.1,342.7,267.1z"/>
	<path class="st2" d="M274.4,256c0,0-2,0.1-4.5,0.1s-4.5,0-4.5-0.1s2-0.1,4.5-0.1S274.4,256,274.4,256z"/>
	<path class="st2" d="M274.4,300.5c0,0-2,0.1-4.5,0.1s-4.5,0-4.5-0.1s2-0.1,4.5-0.1S274.4,300.4,274.4,300.5z"/>
	<path class="st2" d="M278.9,270.9c0,0.1-2,0.1-4.5,0.1s-4.5,0-4.5-0.1s2-0.1,4.5-0.1S278.9,270.8,278.9,270.9z"/>
	<path class="st2" d="M351.6,270.9c0,0.1-2,0.1-4.5,0.1s-4.5,0-4.5-0.1s2-0.1,4.5-0.1S351.6,270.8,351.6,270.9z"/>
	<path class="st2" d="M287,285.6c0,0.1-3.8,0.1-8.5,0.1s-8.5,0-8.5-0.1s3.8-0.1,8.5-0.1S287,285.6,287,285.6z"/>
	<path class="st2" d="M306.7,285.6c0,0.1-3.8,0.1-8.5,0.1s-8.5,0-8.5-0.1s3.8-0.1,8.5-0.1S306.7,285.6,306.7,285.6z"/>
	<path class="st2" d="M299.2,289.3c0,0.1-5.6,0.1-12.5,0.1s-12.5,0-12.5-0.1s5.6-0.1,12.5-0.1S299.2,289.3,299.2,289.3z"/>
	<path class="st2" d="M299.2,293c0,0.1-5.6,0.1-12.5,0.1s-12.5,0-12.5-0.1s5.6-0.1,12.5-0.1S299.2,293,299.2,293z"/>
	<path class="st2" d="M309,296.7c0,0.1-5.6,0.1-12.5,0.1s-12.5,0-12.5-0.1s5.6-0.1,12.5-0.1S309,296.7,309,296.7z"/>
	<path class="st2" d="M339.5,296.7c0,0.1-5.6,0.1-12.5,0.1s-12.5,0-12.5-0.1s5.6-0.1,12.5-0.1S339.5,296.7,339.5,296.7z"/>
	<path class="st2" d="M328.9,289.3c0,0.1-5.6,0.1-12.5,0.1s-12.5,0-12.5-0.1s5.6-0.1,12.5-0.1S328.9,289.3,328.9,289.3z"/>
	<path class="st2" d="M342.7,293c0,0.1-8.7,0.1-19.4,0.1s-19.4,0-19.4-0.1s8.7-0.1,19.4-0.1S342.7,293,342.7,293z"/>
	<path class="st2" d="M278.9,296.7c0,0.1-2,0.1-4.5,0.1s-4.5,0-4.5-0.1s2-0.1,4.5-0.1S278.9,296.7,278.9,296.7z"/>
	<path class="st2" d="M351.6,296.7c0,0.1-2,0.1-4.5,0.1s-4.5,0-4.5-0.1s2-0.1,4.5-0.1S351.6,296.7,351.6,296.7z"/>
	<rect x="556" y="43.3" class="st0" width="105.5" height="61.5"/>
	<path class="st3" d="M661.9,105.2H555.6V43h106.2v62.2H661.9z"/>
	<path class="st2" d="M564.2,101.7c-0.1,0-0.1-12.6-0.1-28.1s0-28.1,0.1-28.1s0.1,12.6,0.1,28.1S564.3,101.7,564.2,101.7z"/>
	<path class="st2" d="M562.1,47.9c-1.2,0.1-2.3,0.1-3.5,0C559.7,47.8,560.9,47.8,562.1,47.9z"/>
	<path class="st2" d="M562.1,51.6c-1.2,0.1-2.3,0.1-3.5,0C559.7,51.5,560.9,51.5,562.1,51.6z"/>
	<path class="st2" d="M562.1,55.3c-1.2,0.1-2.3,0.1-3.5,0C559.7,55.2,560.9,55.2,562.1,55.3z"/>
	<path class="st2" d="M562.1,59c-1.2,0.1-2.3,0.1-3.5,0C559.7,58.9,560.9,58.9,562.1,59z"/>
	<path class="st2" d="M562.1,62.7c-1.2,0.1-2.3,0.1-3.5,0C559.7,62.6,560.9,62.6,562.1,62.7z"/>
	<path class="st2" d="M562.1,66.4c-1.2,0.1-2.3,0.1-3.5,0C559.7,66.3,560.9,66.3,562.1,66.4z"/>
	<path class="st2" d="M562.1,70.1c-1.2,0.1-2.3,0.1-3.5,0C559.7,70,560.9,70,562.1,70.1z"/>
	<path class="st2" d="M562.1,73.8c-1.2,0.1-2.3,0.1-3.5,0C559.7,73.7,560.9,73.7,562.1,73.8z"/>
	<path class="st2" d="M562.1,77.5c-1.2,0.1-2.3,0.1-3.5,0C559.7,77.4,560.9,77.4,562.1,77.5z"/>
	<path class="st2" d="M562.1,81.2c-1.2,0.1-2.3,0.1-3.5,0C559.7,81.1,560.9,81.1,562.1,81.2z"/>
	<path class="st2" d="M562.1,84.9c-1.2,0.1-2.3,0.1-3.5,0C559.7,84.8,560.9,84.8,562.1,84.9z"/>
	<path class="st2" d="M562.1,88.6c-1.2,0.1-2.3,0.1-3.5,0C559.7,88.5,560.9,88.5,562.1,88.6z"/>
	<path class="st2" d="M562.1,92.3c-1.2,0.1-2.3,0.1-3.5,0C559.7,92.2,560.9,92.2,562.1,92.3z"/>
	<path class="st2" d="M562.1,96c-1.2,0.1-2.3,0.1-3.5,0C559.7,95.9,560.9,95.9,562.1,96z"/>
	<path class="st2" d="M562.1,99.7c-1.2,0.1-2.3,0.1-3.5,0C559.7,99.6,560.9,99.6,562.1,99.7z"/>
	<path class="st2" d="M576.1,47.7c0,0.1-2,0.1-4.5,0.1s-4.5,0-4.5-0.1s2-0.1,4.5-0.1S576.1,47.6,576.1,47.7z"/>
	<path class="st2" d="M576.1,99.7c0,0-2,0.1-4.5,0.1s-4.5,0-4.5-0.1s2-0.1,4.5-0.1S576.1,99.7,576.1,99.7z"/>
	<path class="st2" d="M588.7,55.3c0,0-3.8,0.1-8.5,0.1s-8.5,0-8.5-0.1s3.8-0.1,8.5-0.1S588.7,55.3,588.7,55.3z"/>
	<path class="st2" d="M608.3,55.3c0,0-3.8,0.1-8.5,0.1s-8.5,0-8.5-0.1s3.8-0.1,8.5-0.1S608.3,55.3,608.3,55.3z"/>
	<path class="st2" d="M600.8,59c0,0.1-5.6,0.1-12.5,0.1s-12.5,0-12.5-0.1s5.6-0.1,12.5-0.1S600.8,59,600.8,59z"/>
	<path class="st2" d="M600.8,62.7c0,0.1-5.6,0.1-12.5,0.1s-12.5,0-12.5-0.1s5.6-0.1,12.5-0.1S600.8,62.7,600.8,62.7z"/>
	<path class="st2" d="M618,73.8c0,0.1-5.6,0.1-12.5,0.1s-12.5,0-12.5-0.1s5.6-0.1,12.5-0.1S618,73.8,618,73.8z"/>
	<path class="st2" d="M610.6,66.4c0,0.1-5.6,0.1-12.5,0.1s-12.5,0-12.5-0.1s5.6-0.1,12.5-0.1S610.6,66.4,610.6,66.4z"/>
	<path class="st2" d="M641.2,66.4c0,0.1-5.6,0.1-12.5,0.1s-12.5,0-12.5-0.1s5.6-0.1,12.5-0.1S641.2,66.4,641.2,66.4z"/>
	<path class="st2" d="M630.5,59c0,0.1-5.6,0.1-12.5,0.1s-12.5,0-12.5-0.1s5.6-0.1,12.5-0.1S630.5,59,630.5,59z"/>
	<path class="st2" d="M647.8,73.8c0,0.1-5.6,0.1-12.5,0.1s-12.5,0-12.5-0.1s5.6-0.1,12.5-0.1S647.8,73.8,647.8,73.8z"/>
	<path class="st2" d="M644.4,62.7c0,0.1-8.7,0.1-19.4,0.1s-19.4,0-19.4-0.1s8.7-0.1,19.4-0.1S644.4,62.7,644.4,62.7z"/>
	<path class="st2" d="M576.1,51.6c0,0-2,0.1-4.5,0.1s-4.5,0-4.5-0.1s2-0.1,4.5-0.1S576.1,51.6,576.1,51.6z"/>
	<path class="st2" d="M576.1,96c0,0-2,0.1-4.5,0.1s-4.5,0-4.5-0.1s2-0.1,4.5-0.1S576.1,96,576.1,96z"/>
	<path class="st2" d="M580.6,66.4c0,0.1-2,0.1-4.5,0.1s-4.5,0-4.5-0.1s2-0.1,4.5-0.1S580.6,66.4,580.6,66.4z"/>
	<path class="st2" d="M653.2,66.4c0,0.1-2,0.1-4.5,0.1s-4.5,0-4.5-0.1s2-0.1,4.5-0.1S653.2,66.4,653.2,66.4z"/>
	<path class="st2" d="M588.7,81.2c0,0.1-3.8,0.1-8.5,0.1s-8.5,0-8.5-0.1s3.8-0.1,8.5-0.1S588.7,81.2,588.7,81.2z"/>
	<path class="st2" d="M608.3,81.2c0,0.1-3.8,0.1-8.5,0.1s-8.5,0-8.5-0.1s3.8-0.1,8.5-0.1S608.3,81.2,608.3,81.2z"/>
	<path class="st2" d="M600.8,84.9c0,0.1-5.6,0.1-12.5,0.1s-12.5,0-12.5-0.1s5.6-0.1,12.5-0.1S600.8,84.8,600.8,84.9z"/>
	<path class="st2" d="M600.8,88.6c0,0.1-5.6,0.1-12.5,0.1s-12.5,0-12.5-0.1s5.6-0.1,12.5-0.1S600.8,88.6,600.8,88.6z"/>
	<path class="st2" d="M610.6,92.3c0,0.1-5.6,0.1-12.5,0.1s-12.5,0-12.5-0.1s5.6-0.1,12.5-0.1S610.6,92.2,610.6,92.3z"/>
	<path class="st2" d="M641.2,92.3c0,0.1-5.6,0.1-12.5,0.1s-12.5,0-12.5-0.1s5.6-0.1,12.5-0.1S641.2,92.2,641.2,92.3z"/>
	<path class="st2" d="M630.5,84.9c0,0.1-5.6,0.1-12.5,0.1s-12.5,0-12.5-0.1s5.6-0.1,12.5-0.1S630.5,84.8,630.5,84.9z"/>
	<path class="st2" d="M644.4,88.6c0,0.1-8.7,0.1-19.4,0.1s-19.4,0-19.4-0.1s8.7-0.1,19.4-0.1S644.4,88.6,644.4,88.6z"/>
	<path class="st2" d="M580.6,92.3c0,0.1-2,0.1-4.5,0.1s-4.5,0-4.5-0.1s2-0.1,4.5-0.1S580.6,92.2,580.6,92.3z"/>
	<path class="st2" d="M653.2,92.3c0,0.1-2,0.1-4.5,0.1s-4.5,0-4.5-0.1s2-0.1,4.5-0.1S653.2,92.2,653.2,92.3z"/>
	<path class="st2" d="M687.2,189.4c0.2-0.3,0.5-0.6,0.8-0.9l2.3-2.3c1.9-1.9,4.6-4.5,7.6-7.4l0.1-0.1v0.4c-3-2.8-5.7-5.4-7.7-7.2
		l-2.3-2.2c-0.3-0.3-0.6-0.5-0.8-0.9c0.3,0.2,0.6,0.4,0.9,0.7l2.4,2.1c2,1.8,4.8,4.3,7.8,7.1l0.2,0.2l-0.2,0.2l-0.1,0.1
		c-3,2.9-5.7,5.4-7.7,7.2l-2.4,2.1C687.9,189,687.6,189.2,687.2,189.4z"/>
	<path class="st2" d="M664,168.9c-0.2,0.3-0.5,0.6-0.8,0.9l-2.2,2.3c-1.9,1.9-4.6,4.5-7.6,7.4l-0.1,0.1v-0.4c3,2.8,5.7,5.4,7.7,7.2
		l2.3,2.2c0.3,0.3,0.6,0.6,0.8,0.9c-0.3-0.2-0.6-0.4-0.9-0.7l-2.4-2.1c-2-1.8-4.8-4.3-7.8-7.1l-0.2-0.2l0.2-0.2l0.1-0.1
		c3-2.9,5.7-5.4,7.7-7.2l2.4-2.1C663.4,169.4,663.7,169.1,664,168.9z"/>
	<path class="st2" d="M670,194.3c-0.1,0,2.3-6.9,5.5-15.3s5.8-15.2,5.9-15.1s-2.3,6.9-5.5,15.3S670.1,194.3,670,194.3z"/>
	<path class="st2" d="M713.7,208.9c0,0,0-0.4,0-1.1s0-1.9,0-3.3c0-2.9,0-7.1-0.1-12.5c0-10.8-0.1-26.1-0.1-44.7l0.2,0.2h-75.6l0,0
		l0.3-0.3c0,22.3,0,43.3,0,61.6l-0.2-0.2l54.6,0.1l15.5,0.1h4.1h1.1l0,0h-1h-4.1l-15.4,0.1l-54.8,0.1H638v-0.2c0-18.3,0-39.3,0-61.6
		v-0.3h0.1h75.6h0.2v0.2c0,18.6-0.1,34-0.1,44.8c0,5.4,0,9.6,0,12.4c0,1.4,0,2.5,0,3.3S713.7,208.9,713.7,208.9z"/>
	<path class="st2" d="M714.2,156.5c0,0.1-17.1,0.3-38.1,0.3s-38.1-0.1-38.1-0.3s17.1-0.3,38.1-0.3S714.2,156.3,714.2,156.5z"/>
	<path class="st2" d="M644.2,152c0,0.6-0.4,1-1,1s-1-0.4-1-1s0.4-1,1-1S644.2,151.4,644.2,152z"/>
	<path class="st2" d="M647.9,152c0,0.6-0.4,1-1,1s-1-0.4-1-1s0.4-1,1-1S647.9,151.4,647.9,152z"/>
	<path class="st2" d="M651.6,152c0,0.6-0.4,1-1,1s-1-0.4-1-1s0.4-1,1-1S651.6,151.4,651.6,152z"/>
</g>
<path class="st4" d="M700.3,444.4l11.7-124c0.9-9.3-5.9-17.5-15.2-18.4c-0.4,0-0.8-0.1-1.2-0.1l-130.4-2.6
	c-8.9-0.2-16.4,6.6-17.1,15.5l-10,129.5L700.3,444.4z"/>
<path class="st5" d="M681.8,444.4c0-0.1,0-0.3,0-0.4c0-0.3,0.1-0.7,0.1-1.3c0.1-1.2,0.2-2.8,0.4-5c0.4-4.3,1-10.6,1.7-18.2
	c1.5-15.4,3.5-36.7,5.7-60.2c1.8-18.3,3.4-35.2,4.8-49l0,0c0-0.7,0-1.4,0-2c0-0.7,0-1.3-0.2-1.9c-0.3-1.2-1-2.2-2-3
	c-0.9-0.7-2.1-1.2-3.3-1.2l-3.4-0.1l-11.4-0.3l-7.3-0.2l-1.9-0.1c-0.4,0-0.7,0-0.7,0s0.2,0,0.7,0h1.9l7.3,0.1l11.4,0.2l3.4,0.1
	c2.7,0.1,4.9,1.9,5.6,4.5c0.2,0.7,0.2,1.3,0.2,2l0.1,2l0,0l0,0c-1.3,13.8-2.9,30.8-4.7,49c-2.3,23.5-4.4,44.8-5.9,60.2
	c-0.8,7.7-1.4,13.9-1.8,18.2c-0.2,2.1-0.4,3.8-0.5,5c-0.1,0.5-0.1,1-0.2,1.3S681.8,444.4,681.8,444.4z"/>
<path class="st6" d="M524.9,348.8c-1.8,0-14,22.1-22.9,38.8c-6,11.1-17.8,17.6-30.4,16.7l0,0c-14.9-1-27.1-12.3-29.4-27.1l-7.5-86.2
	l30.2-7.5l12.3,67.5l7.6-21.5L524.9,348.8z"/>
<path class="st6" d="M465.2,289.8l-1-15.1c0,0-4.3-33.9-4.3-37.2c0-3.8-1.8-4.8-3.2-4.7c-2.2,0.1-3.8,2.9-3.9,6.1
	c0,1.1,0.1,19.1,0.1,19.1c-1-1.7-2.2-3.3-3.5-4.8c-2.6-3.4-8.9-5.3-15.3-5.1s-8.2,0.8-8.2,3.3c0,1,0.5,1.8,1.3,2.4
	c1.2,1,2.7,1.5,4.2,1.4c10.2-0.2,13,5.3,13,5.3l0.1,2c0,0-6.2-4.5-11.2-2.6c-0.7,0.3-1.4,0.7-2,1.2c-4.4,0-8,3.6-8,8
	c0,1.4,0.4,2.7,1,3.9c0.7,1.2,1.9,2.3,3.2,2c0.7-0.2,1.3-0.6,1.8-1.1c0.3-0.3,0.6-0.5,0.9-0.7l1.1,5.5c0,0,3.2,12.2,4,17.7"/>
<path class="st6" d="M462.2,288.5c-1.9,0.5-3.8-0.9-4.8-2.5s-1.4-3.6-2.3-5.4c-2.7-5.2-9.1-7.7-11.5-13c-0.3-0.7-0.5-1.8,0.1-2.2
	s1.5-0.1,2.1,0.3l16.9,9.4"/>
<path class="st7" d="M462.7,275.1c-0.5-0.5-1.1-0.9-1.7-1.2c-1.1-0.7-2.8-1.7-4.9-2.9l-7.3-4.2l-2.1-1.2c-0.7-0.3-1.5-1.1-2.8-0.8
	c-0.6,0.2-1.1,0.8-1.1,1.5c0,0.5,0.1,1.1,0.3,1.5c0.4,0.9,0.9,1.7,1.5,2.5c2.3,3,5.4,4.9,7.5,7.2c1.1,1,2,2.2,2.7,3.4
	c0.6,1.2,1,2.5,1.5,3.6c0.6,1.9,2,3.5,3.9,4.2c0.7,0.3,1.5,0.3,2.1-0.1c-0.7,0-1.4-0.1-2-0.3c-1.6-0.8-2.9-2.3-3.3-4.1
	c-0.4-1.3-0.9-2.5-1.5-3.7c-0.7-1.4-1.7-2.6-2.8-3.7c-2.2-2.3-5.2-4.3-7.4-7.1c-0.5-0.7-1-1.4-1.3-2.2c-0.3-0.7-0.3-1.5,0.1-1.5
	s1.2,0.3,1.9,0.7l2.1,1.2l7.4,4c2.1,1.1,3.9,2,5.1,2.6C461.4,274.6,462,274.9,462.7,275.1z"/>
<path class="st7" d="M444.8,262.6c-0.1-1.2-0.5-2.4-1.2-3.5c-0.8-1.1-1.9-1.9-3.1-2.3c-1.6-0.5-3.2-0.7-4.9-0.7
	c-1.7,0-3.4-0.1-5.1-0.4c-1.4-0.3-2.7-0.9-3.8-1.9c-0.7-0.7-1.1-1.7-1-2.6c0-0.4,0.1-0.7,0.3-1c0.1,0,0,0.4-0.1,1
	c0,0.9,0.4,1.7,1.1,2.3c1,0.8,2.3,1.4,3.6,1.6c1.6,0.3,3.3,0.4,4.9,0.4c1.7,0,3.4,0.2,5,0.8c1.4,0.5,2.5,1.4,3.3,2.6
	c0.5,0.8,0.8,1.7,0.9,2.7C445,262.2,444.9,262.6,444.8,262.6z"/>
<path class="st7" d="M452.9,237.6c0.1,1.2,0.1,2.4,0,3.6c0,2.4,0,5.4-0.1,8.6s0,6.1,0,8.6c0.1,1.2,0,2.4-0.1,3.6
	c-0.3-1.2-0.4-2.4-0.4-3.5c-0.1-2.2-0.2-5.2-0.2-8.6s0.1-6.4,0.3-8.6C452.4,240,452.6,238.8,452.9,237.6z"/>
<path class="st7" d="M440.8,266.6c-0.3-0.1-0.7-0.2-1-0.4c-0.9-0.4-1.9-0.5-2.8-0.1c-0.6,0.3-0.9,0.9-0.9,1.5c0,0.8,0,1.6,0.2,2.3
	c0.2,1,0.1,2-0.4,2.8c-0.6,0.9-1.6,1.4-2.7,1.4s-2.1-0.4-2.8-1.2c-0.7-0.7-1.1-1.5-1.3-2.5c-0.2-1.5-0.2-3.1,0.1-4.6
	c0.1-1,0.4-2,0.9-3c0.4-0.6,0.7-0.9,0.7-0.9c-0.1,0.3-0.3,0.7-0.5,1c-0.3,0.9-0.6,1.9-0.7,2.9c-0.2,1.5-0.1,2.9,0.1,4.4
	c0.3,1.7,1.7,3,3.5,3.1c0.9,0,1.7-0.4,2.2-1.1c0.4-0.7,0.5-1.5,0.4-2.3s-0.2-1.7-0.1-2.5s0.6-1.5,1.3-1.9c1-0.4,2.2-0.3,3.1,0.3
	C440.5,266.3,440.8,266.6,440.8,266.6z"/>
<path class="st7" d="M430.5,272.4c0,0,0.1,0.4-0.1,1c-0.4,0.9-1.1,1.6-2.1,1.8c-1.4,0.3-2.9-0.1-3.9-1.2c-1.2-1.3-1.8-3-1.8-4.7
	s0.5-3.4,1.5-4.8c0.8-1.1,1.9-2,3.2-2.6c0.8-0.4,1.8-0.6,2.7-0.6c0.6,0,1,0,1,0.1c-1.2,0.2-2.4,0.5-3.5,1c-1.2,0.6-2.1,1.4-2.9,2.5
	c-0.9,1.3-1.4,2.8-1.4,4.4s0.5,3.1,1.5,4.3c0.8,0.9,2.1,1.4,3.3,1.2c0.8-0.2,1.5-0.7,2-1.5C430.5,272.7,430.5,272.4,430.5,272.4z"/>
<path class="st7" d="M442.9,284.4c0.6-0.2,1.2-0.2,1.7,0c1.5,0.3,2.8,1.1,3.7,2.3l-0.6,0.2c0.1-0.8,0.2-1.6,0.4-2.4
	c1-4.6,3.6-7.6,3.7-7.5s-2,3.2-3,7.6c-0.2,0.8-0.3,1.6-0.4,2.3l-0.1,0.8l-0.5-0.6c-0.9-1.1-2-1.9-3.3-2.3
	C443.5,284.5,442.9,284.4,442.9,284.4z"/>
<path class="st7" d="M442.5,253.8c0.2,0.1-0.5,1.4-2.1,2c-1.6,0.6-3,0.3-2.9,0.1s1.3-0.2,2.6-0.8S442.4,253.7,442.5,253.8z"/>
<path class="st8" d="M633.9,361.8l52.8-13c0,0-3.4-8.1-12.7-35.8c-8.6-25.5-16-34.3-16-34.3s-27-14.9-42.8-23.5l-11.1-11.7v1.2
	l-10.3,4.5l-16.3,7.2l-15.7-5.8l-6.6-2.4l-2.3,4.6l-28,7.7c0,0-20,7.3-32.8,36.6c-15.8,36.2-17,42.5-17,42.5l41.4,24l-6.9,80.8
	l126.5,0.1l-2.5-61.9L633.9,361.8z"/>
<path class="st5" d="M626.7,298.1c0-0.4,0-0.9,0.1-1.3c0.2-1.2,0.5-2.3,1-3.4c1.5-3.7,4-6.9,7.2-9.2c4.2-3,9.2-4.7,14.4-4.9
	c0.4,0,0.9,0,1.3,0c0,0.1-1.9,0.1-4.8,0.7c-3.8,0.7-7.4,2.3-10.6,4.6c-3.1,2.3-5.6,5.4-7.2,8.9C627.5,294.9,627,296.5,626.7,298.1z"
	/>
<path class="st5" d="M686.8,348.8l-0.3,0.1l-0.8,0.2l-3.1,0.8l-11.5,2.9l-38.2,9.3h-0.2l-0.3,0.1v-0.3c-2.5-15.1-4.9-28.7-6.5-38.6
	c-0.8-4.9-1.5-8.9-1.9-11.7c-0.2-1.4-0.4-2.4-0.5-3.2c0-0.3-0.1-0.6-0.1-0.8c0-0.1,0-0.2,0-0.3c0,0.1,0.1,0.2,0.1,0.3
	c0,0.2,0.1,0.5,0.2,0.8c0.2,0.8,0.3,1.8,0.6,3.2c0.5,2.8,1.2,6.8,2.1,11.7c1.7,9.9,4.1,23.5,6.7,38.5l-0.3-0.2l0.2-0.1l38.2-9.1
	l11.6-2.7l3.2-0.7L686.8,348.8C686.6,348.8,686.7,348.8,686.8,348.8z"/>
<path class="st5" d="M552.9,252.8c0.1,0.3,0.2,0.5,0.2,0.8c0.1,0.6,0.2,1.4,0.4,2.3v-0.1c3.4,4.2,7.3,8.1,11.5,11.6
	c0.5,0.4,1,0.8,1.6,1.2c0.5,0.4,1.1,0.8,1.5,0.6s0.7-0.9,1-1.4l0.9-1.6c1.2-2,2.3-3.8,3.3-5.3s1.8-2.6,2.5-3.4
	c0.3-0.4,0.6-0.7,0.7-0.9s0.3-0.3,0.3-0.3c-0.3,0.4-0.5,0.9-0.9,1.3c-0.6,0.8-1.4,2-2.3,3.5s-2,3.3-3.2,5.3c-0.3,0.5-0.6,1-0.9,1.6
	l-0.4,0.8c-0.2,0.3-0.4,0.6-0.7,0.8c-0.4,0.2-0.8,0.2-1.2,0c-0.3-0.2-0.6-0.3-0.9-0.6c-0.5-0.4-1-0.8-1.6-1.2
	c-4.3-3.5-8.1-7.4-11.4-11.8l0,0l0,0c-0.1-0.9-0.2-1.7-0.3-2.3C552.9,253.4,552.9,253.1,552.9,252.8z"/>
<path class="st5" d="M613.5,254.5c-0.1,0.1-0.3,0.2-0.4,0.3l-1.2,0.7l-4.5,2.6c-3.8,2.2-9.1,5.3-14.8,8.9c-2.4,1.6-4.8,3.1-6.9,4.5
	l-0.2,0.1l-0.1-0.2c-2.3-4.1-4.3-7.7-5.5-10.2c-0.6-1.3-1.1-2.3-1.4-3c-0.2-0.4-0.3-0.7-0.4-1.1c0.2,0.3,0.4,0.7,0.5,1.1
	c0.3,0.7,0.9,1.7,1.5,3c1.3,2.5,3.3,6.1,5.7,10.1l-0.3-0.1c2.1-1.4,4.4-3,6.9-4.6c5.7-3.6,11-6.7,14.9-8.8c1.9-1.1,3.5-1.9,4.6-2.4
	l1.3-0.6C613.2,254.6,613.3,254.6,613.5,254.5z"/>
<path class="st5" d="M584.6,312.7c-0.2,0-0.5,0-0.7,0l-2.1-0.2l-7.7-0.8h-0.2v-0.2c0.2-5.2,0.4-11.9,0.7-19.2
	c0.4-8.2,0.7-15.7,0.9-21.1c0.1-2.6,0.3-4.8,0.3-6.4c0-0.7,0.1-1.3,0.1-1.7c0-0.2,0-0.4,0.1-0.6c0,0.2,0,0.4,0,0.6c0,0.5,0,1,0,1.8
	c0,1.6-0.1,3.8-0.2,6.4c-0.2,5.5-0.5,12.9-0.8,21.1c-0.3,7.4-0.6,14.1-0.8,19.2l-0.2-0.2l7.7,1l2.1,0.3
	C584.1,312.6,584.4,312.6,584.6,312.7z"/>
<path class="st5" d="M584,280.7c0,0,0.1,0,0.2,0c0.2,0,0.4,0.1,0.6,0.2c0.7,0.4,1.2,1,1.6,1.7c0.5,1.1,0.5,2.4,0,3.5
	c-0.3,0.6-0.9,1.2-1.5,1.5c-0.7,0.3-1.5,0.4-2.2,0.4c-0.8-0.1-1.5-0.4-2.1-0.9c-0.6-0.4-1-1.1-1.2-1.8c-0.3-1.2,0-2.4,0.7-3.3
	c0.5-0.6,1.2-1.1,1.9-1.4c0.2-0.1,0.4-0.1,0.6-0.1c0.1,0,0.2,0,0.2,0c0,0.1-0.3,0.1-0.8,0.3c-0.7,0.3-1.3,0.8-1.7,1.4
	c-0.6,0.9-0.8,2-0.6,3c0.7,1.8,2.7,2.7,4.5,2c0.7-0.3,1.3-0.7,1.7-1.3c0.5-1,0.5-2.1,0.1-3.1c-0.3-0.7-0.7-1.3-1.3-1.7
	C584.2,280.8,583.9,280.8,584,280.7z"/>
<path class="st5" d="M583.3,297.6c0.1,0,0.1,0,0.2,0c0.2,0,0.4,0.1,0.6,0.2c0.7,0.4,1.2,1,1.6,1.7c0.5,1.1,0.5,2.4,0,3.5
	c-0.3,0.6-0.9,1.2-1.5,1.5c-0.7,0.3-1.5,0.4-2.2,0.4c-0.8-0.1-1.5-0.4-2.1-0.9c-0.6-0.4-1-1.1-1.2-1.8c-0.3-1.2,0-2.4,0.8-3.4
	c0.5-0.6,1.2-1.1,1.9-1.3c0.2-0.1,0.4-0.1,0.6-0.1c0.1,0,0.2,0,0.2,0c0,0.1-0.3,0.1-0.8,0.3c-0.7,0.3-1.3,0.8-1.7,1.4
	c-0.6,0.9-0.8,2-0.6,3c0.7,1.8,2.7,2.7,4.5,2c0.7-0.3,1.3-0.7,1.7-1.3c0.5-1,0.5-2.1,0.1-3.1c-0.3-0.7-0.7-1.3-1.3-1.7
	C583.5,297.8,583.2,297.7,583.3,297.6z"/>
<g class="st9">
	<path d="M577.9,256.7c-0.2,0.4,2.6,11.4,4.6,18.6c0.7,2.4,3.1,3.7,5.5,3.1c0.7-0.2,1.4-0.6,2-1.2l20.9-21.3l-25.3,15.4L577.9,256.7
		z"/>
</g>
<g class="st9">
	<path d="M554.3,257.1c0,0,4.8,16.9,14.2,18.3c0,0,3,0.1,3.7-2.3s4.5-16.6,4.5-16.6l-8.7,13C562.6,266.4,557.9,262.2,554.3,257.1z"
		/>
</g>
<path class="st6" d="M604.1,244.7l0.2-66.8c0.1-19.7-15.9-35.8-35.6-35.9c-0.3,0-0.7,0-1,0h-0.5c-19.4,1.6-34.4,17.9-34.3,37.4
	c0,17.1,0.3,35.6,1.2,44.6c1.8,19.2,21.3,20.6,21.3,20.6s0,1.4,0,3.5l22.2,8.2L604.1,244.7z"/>
<path class="st7" d="M555.2,244.4c0,0,12.2,0,24.5-9.2c0,0-4.8,14.4-24.1,14.2L555.2,244.4z"/>
<path class="st5" d="M581.6,158.5l0.1,0.1c3.3,2.2,5.6,5.5,6.4,9.3c0,0.1,0.1,0.3,0.1,0.4c1.2,5.4,1.5,11,2.8,16.4s1,9.6,6.5,10.8
	c2.9,0.6,5.9-0.6,7.6-3.1c0.4-0.8,0.6-1.7,0.5-2.6c-0.1-13.3,2.6-18.5,1.4-32.4c-0.3-3.8-2.4-7.2-5.6-9.1c-3.1-1.8-6.8-3.7-9.9-1.9
	s-6.8,8.2-9.1,10.9"/>
<path class="st6" d="M598.5,187.1c0.3-0.2,12.9-5,13.6,8.2s-12.7,11.1-12.8,10.8S598.5,187.1,598.5,187.1z"/>
<path class="st7" d="M603.1,200.8c0,0,0.2,0.1,0.6,0.3c0.6,0.2,1.2,0.2,1.7-0.1c1.4-0.6,2.4-2.9,2.4-5.2c0-1.1-0.3-2.2-0.8-3.2
	c-0.3-0.8-1-1.5-1.8-1.7c-0.6-0.1-1.1,0.2-1.3,0.7c-0.2,0.4-0.1,0.6-0.1,0.7s-0.3-0.2-0.2-0.8c0.1-0.3,0.2-0.6,0.5-0.9
	c0.4-0.3,0.8-0.4,1.3-0.4c1.1,0.2,2.1,0.9,2.5,1.9c0.6,1.1,1,2.4,1,3.6c0,2.7-1.2,5.2-3.1,5.9c-0.7,0.2-1.5,0.2-2.1-0.2
	C603.1,201.2,603,200.9,603.1,200.8z"/>
<path class="st5" d="M592.1,148.4c2.8-5.5-6.7-12.4-13.4-13.9s-15,2.4-21.2,5c-4,1.7-7.9,3.9-12.2,4.1c-2.9,0.1-5.7-0.7-8.5-1.4
	c-2.8-0.9-5.7-1.3-8.5-1c-2.9,0.4-5.7,2.2-6.6,5s1,6.3,3.9,6.4c-3.8-1.7-8.9,1.4-9.1,5.5s4.4,7.8,8.4,6.6c-2-1.3-4.7,1.3-4.2,3.6
	s2.7,3.8,4.9,4.6c5.7,2,12,0.7,17.5-1.7s10.5-5.8,16-8.3s14.6-7,20.4-5.5c4.3,1.1,7.6,5.9,9.8,4.6c2.1-1.4,3.5-3.7,3.7-6.3
	C593.1,153.3,592.8,150.8,592.1,148.4"/>
<path class="st4" d="M523.9,152.5c0.1-0.1,0.8,0.9,2.3,2.3c2.2,2,4.8,3.4,7.7,4.1c4.2,1.1,8.7,0.6,12.5-1.5
	c4.3-2.4,7.8-6.7,11.9-10.9s9-7.4,14.2-8.3s10.1,0.6,13,3.3c2.3,2.1,3.6,5.1,3.7,8.2c0,0.8-0.1,1.7-0.4,2.5
	c-0.2,0.5-0.3,0.8-0.4,0.8c0.2-1.1,0.2-2.2,0.2-3.2c-0.2-2.9-1.6-5.6-3.8-7.6c-2.7-2.4-7.3-3.7-12.1-2.8s-9.5,4-13.5,8.1
	s-7.6,8.5-12.2,11c-4.1,2.2-8.9,2.7-13.3,1.4c-3-0.8-5.7-2.4-7.8-4.6c-0.6-0.6-1.1-1.2-1.5-1.9C524,152.8,523.9,152.5,523.9,152.5z"
	/>
<path class="st4" d="M601.8,186.2c0,0-0.6-0.3-1.2-1.3c-0.8-1.5-1.1-3.1-1-4.7c-0.1-4.3,3.3-9.1,3.3-15c0.1-2.7-0.6-5.4-2.1-7.7
	c-1.3-1.8-3.1-3.2-5.2-3.8c-1.4-0.5-3-0.5-4.4-0.2c-1,0.2-1.6,0.5-1.7,0.4s0.4-0.5,1.5-0.9c1.6-0.5,3.2-0.6,4.8-0.2
	c2.4,0.6,4.5,2,6,4c1.7,2.5,2.5,5.4,2.4,8.4c-0.1,2.9-0.7,5.8-1.8,8.5c-0.9,2.1-1.5,4.3-1.8,6.6
	C600.4,182.3,600.8,184.4,601.8,186.2z"/>
<path class="st6" d="M682.1,350l18.7,44.6c3.4,8.2,2.8,17.5-1.6,25.2l0,0c-5.7,9.9-16.9,15.4-28.2,13.9l-65.4-6.4l1.2-25.9l48.4-7.6
	l-13.4-33.9L682.1,350z"/>
<path class="st6" d="M607.6,401.6c0,0-10.6-2.3-15.1-3.3c-1.5-0.3-2.8-1.1-4.2-1.5c-7.1-1.8-15.8-6.4-17.7-8.3
	c-3.4-3.4-5.9,1.8-2.5,6c1.7,2.2,3.7,4.2,6,5.7l-14.4,3.8c-0.8,0.2-1.4,0.7-1.8,1.3L546.6,423c-1.1,1.4-0.9,3.4,0.4,4.6
	c0.6,0.7,1.7,0.7,2.4,0.2l-1.4,2.4c-2.4,4,3.5,7.9,6,4l0.1-0.1l2.8,3.8c0,0,1.3,3.7,5.6,1.3c3.5-2,15.4-10.7,15.4-10.7
	s33.5,0.8,35.2-4.2L607.6,401.6z"/>
<path class="st7" d="M554,434.2c0.2,0.1,1.1-1.6,2.8-4.2s4.2-6.1,6.7-10.2c1.3-1.9,2.8-3.8,4-5.3c0.6-0.6,1.4-1,2.3-1.1l2.5-0.4
	c3.1-0.5,5-0.8,5-1s-2-0.1-5.1,0.1l-2.5,0.2c-1.1,0-2.2,0.5-3,1.3c-1.5,1.7-2.9,3.5-4.2,5.4c-2.5,4.1-4.9,7.6-6.5,10.4
	S553.9,434.2,554,434.2z"/>
<path class="st7" d="M549.4,427.8c0.4,0.3,4.2-6.2,9.6-13.6c1.3-1.8,2.6-3.7,4.2-4.5c1.6-0.7,3.2-1.3,4.9-1.7
	c1.1-0.3,2.3-0.5,3.4-0.7c0.8-0.1,1.3,0,1.3-0.1s-0.4-0.3-1.3-0.4c-1.2-0.1-2.4,0-3.6,0.3c-1.8,0.3-3.5,0.9-5.2,1.5
	c-2.1,1-3.3,3-4.7,4.8c-2.3,3.2-4.5,6.5-6.4,10C550.1,426,549.3,427.7,549.4,427.8z"/>
<path class="st7" d="M580.5,420.3c0-0.2-1.7-0.1-4.5,0.1l-2.2,0.2c-0.9,0-1.8,0.2-2.7,0.6c-0.9,0.5-1.7,1.2-2.3,2l-2,2.3
	c-5.5,6.3-9.8,11.6-9.6,11.9s4.9-4.7,10.5-11l2-2.3c0.5-0.7,1.2-1.3,1.9-1.8c0.7-0.3,1.5-0.5,2.3-0.6l2.2-0.3
	C578.8,420.8,580.5,420.5,580.5,420.3z"/>
<path class="st7" d="M588.8,399.6c0-0.5-4.6-0.7-10.3-0.1s-10.1,1.8-10,2.2s4.5-0.4,10.2-1l7.2-0.7
	C586.9,400,587.9,399.8,588.8,399.6z"/>
<path class="st4" d="M48.9,444.4l-11.7-124c-0.9-9.3,5.9-17.5,15.2-18.4c0.4,0,0.8-0.1,1.2-0.1l130.4-2.6
	c8.9-0.2,16.4,6.6,17.1,15.5l10,129.5L48.9,444.4z"/>
<path class="st5" d="M67.4,444.4c0-0.1-0.1-0.3-0.1-0.4c0-0.3-0.1-0.7-0.2-1.3c-0.1-1.2-0.3-2.8-0.5-5c-0.4-4.3-1.1-10.5-1.8-18.2
	c-1.5-15.4-3.6-36.7-5.9-60.2c-1.8-18.3-3.4-35.2-4.7-49l0,0l0,0c0-0.7,0-1.4,0-2c0-0.7,0.1-1.3,0.2-2c0.7-2.6,3-4.4,5.6-4.5
	l3.4-0.1l11.5-0.2l7.3-0.1h1.9c0.4,0,0.7,0,0.7,0s-0.2,0-0.7,0l-1.9,0.1l-7.3,0.2L63.5,302l-3.4,0.1c-1.2,0.1-2.3,0.5-3.2,1.2
	c-1,0.8-1.7,1.8-2,3c-0.1,0.6-0.2,1.3-0.2,1.9c0,0.7,0,1.3,0,2l0,0c1.3,13.8,3,30.7,4.8,49c2.2,23.5,4.3,44.8,5.7,60.2
	c0.7,7.7,1.3,13.9,1.7,18.2c0.2,2.1,0.3,3.8,0.4,5c0,0.6,0.1,1,0.1,1.3C67.4,444,67.4,444.2,67.4,444.4z"/>
<path class="st5" d="M132.4,193.6c1.8-3.8-0.1-8.7-3.6-10.9s-8.2-2.3-12.1-0.9c-7.2,2.6-12.2,9.2-12.8,16.8
	c-3.1,0.8-5.8,2.6-7.7,5.2c-5.5,6.9-4.6,17.9,1.5,24.3s16.5,7.9,24.4,3.9s13-12.8,12.9-21.6"/>
<path class="st10" d="M138.2,197.6c0.4-1.6-0.3-3.2-1.7-4s-3.1-0.9-4.6-0.3c-1.5,0.5-2.9,1.4-4.1,2.4c-1.9,1.4-3.5,3.1-4.7,5.1
	c-1.3,2-1.8,4.3-1.6,6.6c0.3,2.4,1.7,4.4,3.8,5.5c2.2,1,4.7,0.5,6.3-1.3"/>
<path class="st5" d="M144,176.6c-0.1-4.3,3.9-7.7,7.9-9.3s8.5-2.2,12.1-4.7c3.2-2.1,5.3-5.5,8-8.2c10.3-10.5,27.2-10.7,37.7-0.4
	c3.5,3.4,6,7.7,7.2,12.4c1.6,6.2,0.6,13.5-4.3,17.6c-5.6,4.8-14,3.8-21.2,2.3s-15.4-2.9-21.4,1.4c-3.6,2.6-5.7,6.8-7.9,10.6
	s-5,7.8-9.2,9.3s-9.9-1-10.1-5.4"/>
<path class="st5" d="M144.3,179c0.5,3.6-2.1,6.9-4.7,9.5s-5.5,5.3-6,8.9c-0.5,4.2,2.6,8.4,1.7,12.6c-0.6,2.6-2.6,4.7-3.9,7.1
	c-1.6,3.5-1.9,7.5-0.7,11.1c1.1,3.6,2.9,11.8,5.4,14.6c7.1,7.8,18.3,14.5,28.6,16.9s20.9,2.3,31.5,1.6c8.6-0.6,18.5-0.2,25.6-12.1
	c3.7-6.1,5.5-14.3,7.4-21.2c1.7-5.9,3.1-12.3,1.3-18.2c-1.1-3.4-3.1-6.5-4.2-9.9c-1.3-4.3-0.9-8.9-1.4-13.4
	c-2-16.8-17.3-28.9-34.1-26.9c-3.4,0.4-6.6,1.4-9.7,2.8"/>
<path class="st11" d="M220.9,193.5c-0.9-12.4-9.1-27.5-21.4-26.1l-38.4,10c-3.7,0.4-6.5,3.6-6.4,7.4l4.7,92.7h-0.3
	c0,0,8.9,26.1,34.2,18c5-1.6,7.3-7.1,8.3-12.8h0.3c0-0.7,0-1.3,0-1.9c0.5-4.2,0.5-8.5,0.1-12.7l0,0c0-7.5,0-10.5,0-10.5
	s15.8-2.7,18.9-23.4C222.5,224,221.9,207.2,220.9,193.5z"/>
<path class="st12" d="M202,257.6c-9.7,0.2-19.3-2.3-27.6-7.2c0,0,6.8,14.1,27.4,12L202,257.6z"/>
<path class="st5" d="M147,245.2c9.9,2,19.5-4.5,21.5-14.4c0.4-2,0.4-4,0.2-5.9c-0.7-5-3.4-10.2-1.7-15c2.3-6.3,11.2-8.3,13.5-14.7
	c1.4-3.7,0.1-8,1.6-11.6c1.4-3.4,5-5.4,8.5-6.6s7.2-2.2,10.1-4.4s4.7-6.6,2.8-9.7c-15.4,1.9-30.5,5.7-45,11.1
	c-3.4,1.3-6.9,2.8-8.9,5.8c-2.1,3.2-2,7.3-1.8,11c0.9,18.5,1.9,37,2.8,55.5"/>
<path class="st4" d="M148.3,252.3c-0.1-0.1-0.2-0.1-0.3-0.2l-0.9-0.7c-0.8-0.6-2-1.5-3.4-2.8c-1.8-1.5-3.4-3.2-4.9-5.1
	c-2-2.5-3.3-5.4-3.9-8.5c-0.8-3.8,0.1-7.8,2.6-10.9c1.5-1.5,3.1-2.9,4.8-4.1c1.7-1.3,3-3.1,3.7-5.1c1.5-4.2,0.8-9.1,1.4-14
	c0.6-5.2,2.6-10.1,5.8-14.2c1.7-2.1,3.7-3.8,6.1-5c2.3-1.1,4.7-1.9,7.2-2.5c2.3-0.6,4.5-1.7,6.3-3.1c1.8-1.5,3.3-3.2,4.6-5.2
	c2.6-3.7,4.5-7.6,6.9-10.9c1.1-1.6,2.5-3.1,4-4.3c1.4-1.2,3.1-2.1,4.8-2.6c3-1.2,6.4-0.8,9.1,0.9c1.9,1.5,3.1,3.7,3.3,6.1
	c0.1,1.5-0.3,3-1.2,4.2c-0.2,0.3-0.5,0.6-0.8,0.8c-0.2,0.2-0.3,0.2-0.3,0.2s0.1-0.1,0.3-0.3c0.3-0.2,0.5-0.5,0.8-0.8
	c0.8-1.2,1.2-2.7,1-4.1c-0.2-2.3-1.4-4.4-3.2-5.8c-2.6-1.6-5.8-1.8-8.7-0.7c-1.7,0.6-3.2,1.5-4.6,2.6c-1.5,1.2-2.8,2.7-3.9,4.2
	c-2.4,3.2-4.2,7.1-6.8,10.9c-1.3,2-2.9,3.7-4.7,5.3c-1.9,1.6-4.2,2.7-6.6,3.3c-2.4,0.6-4.8,1.4-7,2.4c-2.2,1.2-4.2,2.8-5.8,4.8
	c-3.1,4-5,8.7-5.6,13.8c-0.6,4.8,0.1,9.7-1.5,14.2c-0.8,2.2-2.2,4.1-4,5.4c-1.7,1.2-3.2,2.6-4.7,4c-2.4,2.9-3.3,6.7-2.5,10.3
	c0.5,3,1.8,5.8,3.7,8.3c1.4,1.8,3,3.6,4.7,5.1c1.4,1.3,2.5,2.3,3.3,2.9C147.6,251.6,148,252,148.3,252.3z"/>
<path class="st5" d="M98,214.1c-0.2,0.1-0.3,0.2-0.5,0.3c-0.4,0.3-0.8,0.7-1.2,1.1c-1.3,1.6-2,3.6-2.1,5.7c0,3.1,0.9,6.1,2.6,8.6
	c1.9,3.2,4.7,5.8,8,7.6c3.4,1.7,7.2,2.2,10.9,1.4c1.6-0.4,3.1-1,4.5-1.9c1.2-0.8,2.2-1.8,3.1-2.9c1.3-1.6,2.1-3.5,2.4-5.6
	c0.1-0.5,0.1-1.1,0.1-1.6c0-0.2,0-0.4-0.1-0.6c-0.1,0,0,0.8-0.3,2.2c-0.4,1.9-1.3,3.8-2.5,5.3c-1.8,2.3-4.4,3.9-7.3,4.5
	c-3.5,0.8-7.2,0.3-10.4-1.4c-3.2-1.7-5.9-4.2-7.8-7.3c-1.6-2.5-2.5-5.3-2.6-8.3c0-2,0.7-3.9,1.8-5.5C97,215.1,97.5,214.6,98,214.1z"
	/>
<path class="st5" d="M149.7,219.6c0.2,0.1,0.4,0.2,0.7,0.3c0.5,0.2,1.1,0.4,2,0.7c2.6,0.8,5.2,1.2,7.9,1.1c4.1,0,7.9-1.6,10.9-4.5
	c1.7-1.7,2.8-3.9,3.3-6.2c0.6-2.4,1-4.9,2-7.1c1.1-2.2,2.8-4,4.8-5.4c1.9-1.3,3.9-2.5,5.9-3.5c4-2,7.6-4,9.8-6.7
	c1.8-2,2.9-4.6,3-7.4c0-0.7-0.1-1.5-0.3-2.2c-0.1-0.2-0.2-0.5-0.3-0.7c0.2,0.9,0.3,1.9,0.3,2.9c-0.2,2.6-1.3,5.1-3.1,7.1
	c-2.2,2.5-5.7,4.5-9.7,6.4c-2.1,1-4.1,2.2-6.1,3.5c-2.1,1.5-3.8,3.4-5,5.7c-1.1,2.4-1.4,4.9-2,7.2c-0.5,2.2-1.6,4.3-3.1,5.9
	c-2.8,2.7-6.5,4.3-10.4,4.4c-2.6,0.1-5.3-0.2-7.8-0.9C150.7,219.9,149.7,219.5,149.7,219.6z"/>
<polygon class="st5" points="212.6,280.3 200.4,271.1 154.9,268.2 153.1,274.3 167.9,366.8 158,444.4 221.6,444.4 "/>
<path class="st5" d="M202.7,282.1l1.4-13.2c0.2-2.3-1.4-4.4-3.7-4.6c0,0,0,0-0.1,0l-42-3.8c-1.1-0.1-2.1,0.7-2.2,1.8v0.1l-0.5,15.7
	l12.1,20.6l12.5,4h15.3l8.8-9.4L202.7,282.1z"/>
<path class="st4" d="M161.9,273.1c0,0,0.6-0.1,1.7-0.2c1.5-0.1,3.1-0.2,4.6-0.1c2.3,0.2,4.5,0.5,6.7,1c2.5,0.5,5.2,1.3,8.1,2
	c2.7,0.7,5.5,1.2,8.3,1.5c2.3,0.2,4.6,0.1,6.8-0.5c1.5-0.4,3-1,4.3-1.8c0.3-0.2,0.7-0.5,1-0.7c0.2-0.2,0.3-0.3,0.3-0.3
	s-0.5,0.3-1.4,0.9c-1.3,0.7-2.8,1.3-4.2,1.6c-2.2,0.5-4.5,0.6-6.7,0.3c-2.8-0.3-5.5-0.8-8.2-1.5c-2.9-0.7-5.6-1.4-8.1-1.9
	c-2.2-0.5-4.5-0.8-6.8-0.9c-1.5-0.1-3.1,0-4.6,0.2c-0.5,0.1-1,0.2-1.2,0.2S161.9,273.1,161.9,273.1z"/>
<g class="st9">
	<path d="M201.7,275.2c1.1,3.1,1.1,6.9-1.1,9.3c-1.9,1.9-4.8,2.4-7.5,1.9c-2.6-0.7-5.1-1.8-7.3-3.3c-5.8-3.4-11.6-7-18.2-8.5
		c-0.4-0.1-0.8-0.2-1.2-0.5c-0.3-0.3-0.3-0.8,0-1.1l0,0c0.2-0.1,0.4-0.2,0.6-0.1c5.8-0.6,11.4,1.7,17.1,3s12.2,2.6,17.4-0.5"/>
</g>
<path class="st4" d="M193.7,263.9c0.6,0.3,1.1,0.8,1.4,1.4c0.7,1.1,0.6,2.9,0.6,4.8c-0.1,3.9-0.8,7-0.6,7.1c0.3-0.6,0.5-1.3,0.6-2
	c0.3-1.6,0.5-3.3,0.6-5c0-0.9,0-1.9-0.1-2.8c-0.1-0.8-0.3-1.6-0.7-2.2c-0.3-0.5-0.7-0.8-1.2-1C193.9,263.8,193.7,263.9,193.7,263.9z
	"/>
<path class="st4" d="M182.6,275.4c0-2.1,0.1-4.3,0.3-6.4c0.4-2.1,0.9-4.2,1.5-6.2c-0.4,0.5-0.7,1.1-0.9,1.7
	c-0.5,1.4-0.9,2.9-1.1,4.5c-0.2,1.5-0.3,3.1-0.1,4.6C182.3,274.1,182.4,274.8,182.6,275.4z"/>
<path class="st4" d="M169.1,261.6c-0.4,0.5-0.6,1-0.8,1.5c-0.5,1.4-0.6,2.8-0.6,4.2c0.1,1.4,0.5,2.8,1.1,4.1c0.2,0.5,0.6,1,1,1.4
	c-0.8-1.8-1.4-3.6-1.6-5.6C168.2,265.4,168.5,263.5,169.1,261.6z"/>
<path class="st10" d="M254.6,399.2c0,0-5.6-72.5-8.6-86.1c-3.8-17.3-18.1-26.9-18.1-26.9L222,420.3l11.4,16.9l13.8,5.3
	c3.2,1.2,6.7,1.3,9.9,0.1l13.3-4.6l1.1-25.3l-11.2-3.2L254.6,399.2z"/>
<polyline class="st10" points="214.9,444.7 213.3,344.2 210.5,279.5 203.7,273.5 227.9,286.2 233.6,305 238.7,359.5 229.1,423.4 
	235.7,444.5 "/>
<path class="st5" d="M234.4,396.4c0,0,0.1-0.3,0.2-0.8l0.6-2.3c0.2-1,0.5-2.2,0.8-3.6s0.6-3,0.9-4.9s0.6-3.8,0.9-5.9
	s0.5-4.4,0.8-6.8c0.4-4.8,0.7-10.1,0.7-15.7s-0.3-10.9-0.8-15.7c-0.3-2.4-0.5-4.7-0.8-6.8s-0.6-4.1-1-5.9s-0.7-3.4-0.9-4.9
	s-0.6-2.6-0.8-3.6s-0.4-1.7-0.6-2.3c-0.1-0.3-0.1-0.5-0.2-0.8c0,0.3,0.1,0.5,0.1,0.8c0.1,0.6,0.3,1.3,0.5,2.3s0.5,2.2,0.7,3.6
	s0.6,3,0.9,4.9s0.6,3.8,0.9,5.9s0.5,4.4,0.8,6.8c0.4,4.8,0.7,10.1,0.8,15.7s-0.3,10.9-0.7,15.7c-0.2,2.4-0.4,4.7-0.8,6.8
	s-0.6,4.1-0.9,5.9s-0.6,3.4-0.9,4.9s-0.5,2.6-0.7,3.6s-0.4,1.7-0.5,2.3C234.5,395.9,234.4,396.1,234.4,396.4z"/>
<path class="st10" d="M116.4,284.7c-10.3,4-18,12.9-20.4,23.7c-7.9,35-21.5,81.5-21.7,96.5c-0.3,19.1,8.1,32.2,19,34.6
	c6.2,1.4,48.7,0.7,71.7,0.2c8.5-0.2,15.6-6.6,16.7-15l0,0c1.2-9.3-5.3-17.8-14.5-19.1l-46.7-6.9l8.7-48.5l-8.6-67.1L116.4,284.7z"/>
<path class="st10" d="M163.1,326.9l-8.8-45.8c-1-4.3-0.3-8.9,1.8-12.7L156,266l-18,10l-17.5,7.2l-0.4,53.2l10.5,107.8l37.1,0.1
	l-0.1-48.1C169,373,167.5,349.7,163.1,326.9z"/>
<path class="st5" d="M129.6,345.3c-0.1,0.2-0.1,0.4-0.1,0.5c-0.1,0.4-0.2,0.9-0.3,1.5l-1,5.7c-0.9,4.9-2,11.6-3.3,18.9
	s-2.3,14-3.2,18.9c-0.4,2.4-0.7,4.3-0.9,5.7c-0.1,0.6-0.2,1.2-0.2,1.6c0,0.2,0,0.4,0,0.5c0.1-0.2,0.1-0.3,0.1-0.5
	c0.1-0.4,0.2-0.9,0.3-1.5c0.3-1.4,0.6-3.4,1.1-5.7c0.9-4.8,2-11.5,3.3-18.9s2.4-14.1,3.1-18.9c0.4-2.4,0.7-4.3,0.9-5.8
	c0.1-0.6,0.1-1.1,0.2-1.6C129.6,345.7,129.6,345.5,129.6,345.3z"/>
<path class="st5" d="M112,292.3c0.5,0.2,0.9,0.4,1.4,0.5c1.3,0.5,2.6,1,3.8,1.6c4.1,2.1,7.6,5.1,10.3,8.8c0.8,1,1.4,2.1,2,3.3
	c0.5,1.1,0.9,2.2,1.2,3.4c0.5,2,0.8,4,1,6c0.1,1.7,0.2,3.2,0.2,4.1s0,1.5,0,1.5c0.1-0.5,0.2-1,0.2-1.5c0.1-1.4,0.1-2.8,0-4.2
	c-0.1-2.1-0.4-4.1-0.9-6.1c-0.3-1.2-0.7-2.4-1.2-3.5c-0.6-1.2-1.3-2.3-2.1-3.4c-2.7-3.7-6.4-6.8-10.5-8.8c-1.3-0.6-2.6-1.1-3.9-1.5
	C113,292.4,112.5,292.3,112,292.3z"/>
<path class="st13" d="M88.8,343.3c0,0.1-0.3,0.2-0.5,0.2s-0.5-0.2-0.4-0.3s0.2-0.2,0.5-0.2S88.8,343.2,88.8,343.3z"/>
<path class="st13" d="M92.6,344c0,0.1-0.5,0.2-1,0.1s-0.9-0.3-0.9-0.4s0.5-0.2,1-0.1S92.6,343.8,92.6,344z"/>
<path class="st13" d="M96.4,344.8c0,0.1-0.5,0.1-1,0s-0.9-0.3-0.9-0.5s0.5-0.1,1,0S96.4,344.7,96.4,344.8z"/>
<path class="st13" d="M100.2,345.8c0,0.1-0.5,0.1-1,0s-0.9-0.4-0.9-0.5s0.5-0.1,1,0S100.2,345.6,100.2,345.8z"/>
<path class="st13" d="M103.9,346.9c0,0.1-0.5,0.1-1,0s-0.9-0.4-0.9-0.5s0.5-0.1,1,0S104,346.8,103.9,346.9z"/>
<path class="st13" d="M107.6,348.2c0,0.1-0.5,0.1-1-0.1s-0.9-0.4-0.8-0.6s0.5-0.1,1,0.1S107.6,348,107.6,348.2z"/>
<path class="st13" d="M111.2,349.6c-0.1,0.1-0.5,0.1-1-0.1s-0.9-0.5-0.8-0.6s0.5-0.1,1,0.1S111.3,349.4,111.2,349.6z"/>
<path class="st13" d="M114.8,351.1c-0.1,0.1-0.5,0.1-1-0.1s-0.8-0.5-0.8-0.6s0.5-0.1,1,0.1S114.9,351,114.8,351.1z"/>
<path class="st13" d="M118.3,352.8c-0.1,0.1-0.5,0-1-0.2s-0.8-0.5-0.8-0.7s0.5,0,1,0.2S118.4,352.6,118.3,352.8z"/>
<path class="st13" d="M121.8,354.6c-0.1,0.1-0.5,0-1-0.2s-0.8-0.6-0.7-0.7s0.5,0,1,0.2S121.8,354.5,121.8,354.6z"/>
<path class="st13" d="M125.2,356.5c-0.1,0.1-0.5,0-1-0.3s-0.8-0.6-0.7-0.7s0.5,0,1,0.3S125.2,356.4,125.2,356.5z"/>
<path class="st13" d="M127.7,358.1c-0.1,0.1-0.3,0.1-0.6,0s-0.3-0.4-0.3-0.5s0.3-0.1,0.6,0S127.7,358,127.7,358.1z"/>
<path class="st13" d="M125.9,369.1c0,0.1-0.3,0.2-0.5,0.2s-0.5-0.2-0.5-0.3s0.3-0.2,0.5-0.2S125.9,369,125.9,369.1z"/>
<path class="st13" d="M129.8,369.5c0,0.1-0.5,0.2-1,0.1s-1-0.2-0.9-0.4s0.5-0.2,1-0.2S129.8,369.4,129.8,369.5z"/>
<path class="st13" d="M133.7,369.9c0,0.1-0.5,0.2-1,0.2s-1-0.2-0.9-0.3s0.5-0.2,1-0.2S133.7,369.7,133.7,369.9z"/>
<path class="st13" d="M137.6,370.1c0,0.1-0.4,0.2-1,0.2s-1-0.2-1-0.3s0.5-0.2,1-0.2S137.6,370,137.6,370.1z"/>
<path class="st13" d="M141.5,370.2c0,0.1-0.4,0.2-1,0.2s-1-0.1-1-0.3s0.4-0.2,1-0.2S141.5,370.1,141.5,370.2z"/>
<path class="st13" d="M145.4,370.2c0,0.1-0.4,0.3-1,0.3s-1-0.1-1-0.3s0.4-0.3,1-0.3S145.4,370.1,145.4,370.2z"/>
<path class="st13" d="M149.3,370.1c0,0.1-0.4,0.3-1,0.3s-1-0.1-1-0.2s0.4-0.3,1-0.3S149.3,370,149.3,370.1z"/>
<path class="st13" d="M153.2,370c0,0.1-0.4,0.3-1,0.3s-1-0.1-1-0.2s0.4-0.3,1-0.3S153.2,369.8,153.2,370z"/>
<path class="st13" d="M157.1,369.6c0,0.1-0.4,0.3-1,0.3s-1,0-1-0.2s0.4-0.3,1-0.4S157.1,369.5,157.1,369.6z"/>
<path class="st13" d="M161,369.2c0,0.1-0.4,0.3-0.9,0.4s-1,0-1-0.1s0.4-0.3,0.9-0.4S160.9,369.1,161,369.2z"/>
<path class="st13" d="M164.8,368.7c0,0.1-0.4,0.3-0.9,0.4s-1,0-1-0.1s0.4-0.3,0.9-0.4S164.8,368.5,164.8,368.7z"/>
<path class="st13" d="M167.7,368.2c0,0.1-0.2,0.3-0.4,0.3s-0.5,0-0.5-0.2s0.2-0.3,0.4-0.3S167.7,368.1,167.7,368.2z"/>
<path class="st13" d="M214.9,363.4c0,0.1-0.2,0.3-0.4,0.4s-0.5,0-0.6-0.1s0.2-0.3,0.4-0.4S214.8,363.2,214.9,363.4z"/>
<path class="st13" d="M218.8,362.7c0,0.1-0.4,0.3-0.9,0.4s-1,0-1-0.1s0.4-0.3,0.9-0.4S218.8,362.5,218.8,362.7z"/>
<path class="st13" d="M222.8,362.2c0,0.1-0.4,0.3-1,0.4s-1,0-1-0.2s0.4-0.3,1-0.4S222.8,362.1,222.8,362.2z"/>
<path class="st13" d="M226.8,362c0,0.1-0.4,0.3-1,0.3s-1-0.1-1-0.2s0.4-0.3,1-0.3S226.8,361.9,226.8,362z"/>
<path class="st13" d="M230.8,362.1c0,0.1-0.5,0.2-1,0.2s-1-0.2-1-0.3s0.4-0.2,1-0.2S230.8,362,230.8,362.1z"/>
<path class="st13" d="M234.8,362.5c0,0.1-0.5,0.2-1,0.2s-1-0.2-1-0.4s0.5-0.2,1-0.1S234.8,362.3,234.8,362.5z"/>
<path class="st13" d="M237.8,362.9c0,0.1-0.3,0.2-0.5,0.2s-0.5-0.2-0.5-0.3s0.3-0.2,0.5-0.2S237.8,362.8,237.8,362.9z"/>
<path class="st13" d="M239.7,377.2c0,0.1-0.3,0.2-0.6,0.1s-0.5-0.2-0.4-0.4s0.3-0.2,0.6-0.1S239.8,377,239.7,377.2z"/>
<path class="st13" d="M244,377.8c0,0.1-0.5,0.2-1.1,0.2s-1.1-0.2-1.1-0.4s0.5-0.2,1.1-0.1S244,377.7,244,377.8z"/>
<path class="st13" d="M248.3,377.6c0,0.1-0.4,0.3-1,0.4s-1.1,0-1.1-0.1s0.5-0.3,1.1-0.4S248.3,377.4,248.3,377.6z"/>
<path class="st13" d="M251.4,376.9c0,0.1-0.1,0.3-0.4,0.4s-0.5,0-0.6-0.1s0.1-0.3,0.4-0.4S251.4,376.7,251.4,376.9z"/>
<path class="st13" d="M212.3,318.8c0,0.1-0.2,0.3-0.5,0.3s-0.5,0-0.5-0.2s0.2-0.3,0.5-0.3S212.3,318.6,212.3,318.8z"/>
<path class="st13" d="M216.1,318.4c0,0.1-0.4,0.3-0.9,0.3s-1,0-1-0.2s0.4-0.3,0.9-0.3S216.1,318.3,216.1,318.4z"/>
<path class="st13" d="M220,318.3c0,0.1-0.4,0.3-1,0.3s-1-0.1-1-0.3s0.4-0.3,1-0.3S220,318.2,220,318.3z"/>
<path class="st13" d="M223.8,318.5c0,0.1-0.4,0.2-1,0.2s-1-0.2-0.9-0.3s0.4-0.2,1-0.2S223.9,318.4,223.8,318.5z"/>
<path class="st13" d="M227.7,319c0,0.1-0.5,0.2-1,0.1s-0.9-0.2-0.9-0.4s0.5-0.2,1-0.1S227.7,318.8,227.7,319z"/>
<path class="st13" d="M231.4,319.7c0,0.1-0.5,0.2-1,0.1s-0.9-0.3-0.9-0.5s0.5-0.2,1-0.1S231.5,319.5,231.4,319.7z"/>
<path class="st13" d="M234.3,320.4c0,0.1-0.3,0.2-0.6,0.1s-0.4-0.2-0.4-0.4s0.3-0.2,0.6-0.1S234.3,320.3,234.3,320.4z"/>
<path class="st13" d="M212.3,284.4c0,0.1-0.2,0.2-0.5,0.2s-0.5-0.1-0.5-0.3s0.2-0.2,0.5-0.2S212.3,284.3,212.3,284.4z"/>
<path class="st13" d="M216.6,284.8c0,0.1-0.5,0.2-1.1,0.2s-1.1-0.2-1.1-0.4s0.5-0.2,1.1-0.2S216.6,284.6,216.6,284.8z"/>
<path class="st13" d="M220.9,285.4c0,0.1-0.5,0.2-1.1,0.1s-1.1-0.3-1-0.4s0.5-0.2,1.1-0.1S220.9,285.2,220.9,285.4z"/>
<path class="st13" d="M225.1,286.2c0,0.1-0.5,0.2-1.1,0s-1-0.3-1-0.5s0.5-0.2,1.1,0S225.2,286,225.1,286.2z"/>
<path class="st13" d="M228.2,286.9c0,0.1-0.3,0.2-0.6,0.1s-0.5-0.2-0.4-0.4s0.3-0.2,0.6-0.1S228.3,286.8,228.2,286.9z"/>
<path class="st13" d="M132.8,314.2c0,0.1-0.1,0.3-0.4,0.4s-0.5,0-0.6-0.1s0.1-0.3,0.4-0.4S132.8,314.1,132.8,314.2z"/>
<path class="st13" d="M136.7,313.3c0,0.1-0.4,0.4-0.9,0.5s-1,0.1-1,0s0.4-0.4,0.9-0.5S136.7,313.2,136.7,313.3z"/>
<path class="st13" d="M140.7,312.6c0,0.1-0.4,0.3-1,0.4s-1,0.1-1-0.1s0.4-0.3,0.9-0.4S140.6,312.4,140.7,312.6z"/>
<path class="st13" d="M144.7,312c0,0.1-0.4,0.3-1,0.4s-1,0-1-0.1s0.4-0.3,1-0.4S144.6,311.9,144.7,312z"/>
<path class="st13" d="M148.7,311.6c0,0.1-0.4,0.3-1,0.4s-1,0-1-0.2s0.4-0.3,1-0.4S148.7,311.5,148.7,311.6z"/>
<path class="st13" d="M152.7,311.4c0,0.1-0.4,0.3-1,0.3s-1-0.1-1-0.2s0.4-0.3,1-0.3S152.7,311.3,152.7,311.4z"/>
<path class="st13" d="M156.7,311.4c0,0.1-0.4,0.3-1,0.3s-1-0.1-1-0.3s0.4-0.3,1-0.3S156.7,311.2,156.7,311.4z"/>
<path class="st13" d="M159.7,311.5c0,0.1-0.2,0.2-0.5,0.2s-0.5-0.1-0.5-0.3s0.2-0.3,0.5-0.2S159.7,311.3,159.7,311.5z"/>
<path class="st13" d="M101,298.6c0,0.1-0.2,0.3-0.4,0.4s-0.5,0-0.5-0.2s0.2-0.3,0.4-0.4S101,298.5,101,298.6z"/>
<path class="st13" d="M104.8,298.1c0,0.1-0.4,0.3-0.9,0.4s-0.9,0-1-0.1s0.4-0.3,0.9-0.4S104.7,298,104.8,298.1z"/>
<path class="st13" d="M108.5,297.9c0,0.1-0.4,0.3-0.9,0.3s-0.9-0.1-1-0.2s0.4-0.3,0.9-0.3S108.5,297.7,108.5,297.9z"/>
<path class="st13" d="M112.3,298c0,0.1-0.4,0.2-1,0.2s-0.9-0.2-0.9-0.3s0.4-0.2,1-0.2S112.3,297.8,112.3,298z"/>
<path class="st13" d="M116.1,298.4c0,0.1-0.5,0.2-1,0.1s-0.9-0.2-0.9-0.4s0.4-0.2,1-0.1S116.1,298.2,116.1,298.4z"/>
<path class="st13" d="M119.8,299.1c0,0.1-0.5,0.2-1,0.1s-0.9-0.3-0.9-0.5s0.5-0.2,1-0.1S119.8,298.9,119.8,299.1z"/>
<path class="st13" d="M123.4,300.1c0,0.1-0.5,0.1-1,0s-0.9-0.4-0.8-0.5s0.5-0.1,1,0S123.4,299.9,123.4,300.1z"/>
<path class="st13" d="M126.1,301c-0.1,0.1-0.3,0.2-0.6,0.1s-0.4-0.3-0.4-0.4s0.3-0.2,0.6-0.1S126.2,300.9,126.1,301z"/>
<path class="st13" d="M134.8,278.9c0,0.1-0.2,0.3-0.5,0.3s-0.5-0.1-0.5-0.2s0.2-0.3,0.5-0.3S134.8,278.7,134.8,278.9z"/>
<path class="st13" d="M138.4,278.7c0,0.1-0.4,0.3-0.9,0.3s-0.9-0.1-0.9-0.2s0.4-0.3,0.9-0.3S138.4,278.6,138.4,278.7z"/>
<path class="st13" d="M142,278.5c0,0.1-0.4,0.3-0.9,0.3s-0.9-0.1-0.9-0.2s0.4-0.3,0.9-0.3S141.9,278.4,142,278.5z"/>
<path class="st13" d="M145.5,278.4c0,0.1-0.4,0.3-0.9,0.3s-0.9-0.1-0.9-0.2s0.4-0.3,0.9-0.3S145.5,278.2,145.5,278.4z"/>
<path class="st13" d="M149.1,278.2c0,0.1-0.4,0.3-0.9,0.3s-0.9-0.1-0.9-0.2s0.4-0.3,0.9-0.3S149.1,278,149.1,278.2z"/>
<path class="st13" d="M151.9,278.1c0,0.1-0.2,0.3-0.5,0.3s-0.5-0.1-0.5-0.2s0.2-0.3,0.5-0.3S151.9,277.9,151.9,278.1z"/>
<path class="st13" d="M80.8,426.5c0.1,0.1,0,0.4-0.2,0.5s-0.4,0.3-0.5,0.2s0-0.4,0.2-0.5S80.7,426.4,80.8,426.5z"/>
<path class="st13" d="M83.6,423.8c0.1,0.1-0.1,0.5-0.5,0.9s-0.8,0.6-0.9,0.5s0.1-0.5,0.5-0.9S83.5,423.7,83.6,423.8z"/>
<path class="st13" d="M86.4,421.2c0.1,0.1-0.2,0.5-0.6,0.8s-0.8,0.6-0.9,0.5s0.2-0.5,0.6-0.8S86.3,421.1,86.4,421.2z"/>
<path class="st13" d="M89.4,418.7c0.1,0.1-0.2,0.5-0.6,0.8s-0.8,0.5-0.9,0.4s0.2-0.5,0.6-0.8S89.3,418.6,89.4,418.7z"/>
<path class="st13" d="M92.4,416.3c0.1,0.1-0.2,0.5-0.6,0.8s-0.8,0.5-0.9,0.4s0.2-0.5,0.6-0.8S92.3,416.2,92.4,416.3z"/>
<path class="st13" d="M95.5,414c0.1,0.1-0.2,0.5-0.6,0.8s-0.8,0.5-0.9,0.4s0.2-0.5,0.6-0.8S95.4,413.9,95.5,414z"/>
<path class="st13" d="M98.6,411.8c0.1,0.1-0.2,0.5-0.6,0.8s-0.9,0.5-0.9,0.3s0.2-0.5,0.7-0.8S98.6,411.6,98.6,411.8z"/>
<path class="st13" d="M101.8,409.6c0.1,0.1-0.2,0.5-0.7,0.8s-0.9,0.4-1,0.3s0.2-0.5,0.7-0.7S101.8,409.5,101.8,409.6z"/>
<path class="st13" d="M105.1,407.6c0.1,0.1-0.2,0.5-0.7,0.7s-0.9,0.4-1,0.3s0.2-0.5,0.7-0.7S105,407.4,105.1,407.6z"/>
<path class="st13" d="M108.4,405.6c0.1,0.1-0.2,0.5-0.7,0.7s-0.9,0.4-1,0.3s0.2-0.4,0.7-0.7S108.4,405.5,108.4,405.6z"/>
<path class="st13" d="M111.8,403.8c0.1,0.1-0.3,0.4-0.7,0.7s-0.9,0.4-1,0.2s0.2-0.4,0.7-0.7S111.8,403.6,111.8,403.8z"/>
<path class="st13" d="M115.3,402c0.1,0.1-0.3,0.4-0.8,0.7s-0.9,0.3-1,0.2s0.3-0.4,0.8-0.7S115.2,401.9,115.3,402z"/>
<path class="st13" d="M118.8,400.4c0.1,0.1-0.3,0.4-0.8,0.6s-0.9,0.3-1,0.2s0.3-0.4,0.8-0.6S118.7,400.2,118.8,400.4z"/>
<path class="st13" d="M121.4,399.2c0.1,0.1-0.1,0.3-0.3,0.4s-0.5,0.1-0.6,0s0.1-0.3,0.3-0.4S121.4,399,121.4,399.2z"/>
<path class="st13" d="M158.9,406.7c-0.1-0.1-0.1-0.3,0-0.6s0.3-0.4,0.4-0.3s0.1,0.3,0,0.6S159,406.8,158.9,406.7z"/>
<path class="st13" d="M157.4,410.2c-0.1,0-0.1-0.5,0.1-1s0.5-0.8,0.6-0.8s0.1,0.5-0.1,1S157.5,410.3,157.4,410.2z"/>
<path class="st13" d="M156,413.8c-0.1,0-0.1-0.5,0.1-1s0.4-0.9,0.6-0.8s0.1,0.5-0.1,1S156.2,413.9,156,413.8z"/>
<path class="st13" d="M154.9,417.5c-0.1,0-0.1-0.5,0-1s0.4-0.9,0.5-0.9s0.1,0.5,0,1S155.1,417.5,154.9,417.5z"/>
<path class="st13" d="M154.1,421.2c-0.1,0-0.2-0.5-0.1-1s0.3-0.9,0.5-0.9s0.2,0.5,0.1,1S154.2,421.2,154.1,421.2z"/>
<path class="st13" d="M153.4,425c-0.1,0-0.2-0.5-0.1-1s0.3-0.9,0.4-0.9s0.2,0.5,0.1,1S153.6,425,153.4,425z"/>
<path class="st13" d="M153,428.8c-0.1,0-0.2-0.5-0.2-1s0.2-0.9,0.4-0.9s0.2,0.5,0.2,1S153.1,428.8,153,428.8z"/>
<path class="st13" d="M152.8,432.6c-0.1,0-0.2-0.4-0.2-1s0.1-1,0.3-1s0.2,0.4,0.2,1S152.9,432.6,152.8,432.6z"/>
<path class="st13" d="M152.8,436.5c-0.1,0-0.3-0.4-0.3-1s0.1-1,0.2-1s0.3,0.4,0.3,1S153,436.5,152.8,436.5z"/>
<path class="st13" d="M153,439.4c-0.1,0-0.3-0.2-0.3-0.5s0.1-0.5,0.2-0.5s0.3,0.2,0.3,0.5S153.2,439.4,153,439.4z"/>
<path class="st13" d="M258.6,409.8c-0.1-0.1,0.1-0.3,0.4-0.5s0.5-0.1,0.6,0s-0.1,0.3-0.3,0.5S258.7,410,258.6,409.8z"/>
<path class="st13" d="M255.2,411.8c-0.1-0.1,0.2-0.5,0.7-0.7s0.9-0.4,1-0.3s-0.2,0.5-0.7,0.7S255.3,411.9,255.2,411.8z"/>
<path class="st13" d="M252.1,414.2c-0.1-0.1,0.2-0.5,0.6-0.8s0.8-0.5,0.9-0.4s-0.2,0.5-0.6,0.8S252.2,414.3,252.1,414.2z"/>
<path class="st13" d="M249.4,417.1c-0.1-0.1,0.1-0.5,0.5-0.9s0.8-0.6,0.9-0.5s-0.1,0.5-0.5,0.9S249.5,417.1,249.4,417.1z"/>
<path class="st13" d="M247,420.2c-0.1-0.1,0-0.5,0.3-1s0.7-0.8,0.8-0.7s0,0.5-0.3,1S247.1,420.3,247,420.2z"/>
<path class="st13" d="M245.2,423.7c-0.1-0.1,0-0.5,0.2-1s0.6-0.8,0.7-0.8s0,0.5-0.2,1S245.3,423.8,245.2,423.7z"/>
<path class="st13" d="M243.8,427.4c-0.1,0-0.1-0.5,0.1-1s0.4-0.9,0.6-0.9s0.1,0.5-0.1,1S243.9,427.4,243.8,427.4z"/>
<path class="st13" d="M243,431.2c-0.1,0-0.2-0.5-0.1-1s0.3-1,0.4-0.9s0.2,0.5,0.1,1S243.1,431.2,243,431.2z"/>
<path class="st13" d="M242.6,435.1c-0.1,0-0.2-0.5-0.2-1s0.2-1,0.3-1s0.2,0.5,0.2,1S242.8,435.1,242.6,435.1z"/>
<path class="st13" d="M242.8,438.1c-0.1,0-0.3-0.2-0.3-0.5s0.1-0.5,0.2-0.5s0.3,0.2,0.3,0.5S242.9,438.1,242.8,438.1z"/>
<path class="st13" d="M216.1,424.1c0,0.1-0.3,0.2-0.5,0.2s-0.5-0.2-0.4-0.4s0.3-0.2,0.6-0.1S216.1,423.9,216.1,424.1z"/>
<path class="st13" d="M220.2,424.6c0,0.1-0.5,0.2-1,0.1s-1-0.2-1-0.4s0.5-0.2,1-0.1S220.2,424.5,220.2,424.6z"/>
<path class="st13" d="M224.3,424.8c0,0.1-0.5,0.3-1,0.2s-1-0.1-1-0.3s0.5-0.3,1-0.3S224.3,424.6,224.3,424.8z"/>
<path class="st13" d="M228.5,424.5c0,0.1-0.4,0.3-1,0.4s-1,0-1.1-0.1s0.4-0.3,1-0.4S228.4,424.3,228.5,424.5z"/>
<path class="st13" d="M231.5,424c0,0.1-0.2,0.3-0.4,0.4s-0.5,0-0.5-0.2s0.2-0.3,0.4-0.4S231.5,423.8,231.5,424z"/>
<path class="st5" d="M168.1,405.8c-0.2,0-0.4,0-0.6,0l-1.9-0.2l-6.8-1l-22.5-3.3l-16.3-2.5l0,0c-2.1,0.3-4,1.2-5.7,2.5
	c-1.3,1-2.3,2.3-3.1,3.7c-0.7,1.3-1.1,2.6-1.4,4c0,0,0-0.1,0-0.3c0-0.3,0.1-0.6,0.1-0.8c0.2-1,0.5-2.1,1-3c0.8-1.5,1.8-2.8,3.1-3.9
	c1.7-1.4,3.7-2.3,5.8-2.7h0.1l16.4,2.5l22.4,3.5l6.8,1.1l1.8,0.3C167.7,405.6,167.9,405.7,168.1,405.8z"/>
<path class="st5" d="M164.4,439.7c-0.2,0-0.3-0.1-0.4-0.1c-0.4-0.2-0.8-0.3-1.2-0.5c-1.5-0.8-2.8-1.8-3.9-3.1
	c-1.6-1.9-2.8-4.1-3.5-6.4c-0.9-2.9-1.1-5.9-0.7-8.9c0.5-3,1.8-5.8,3.7-8.2c1.5-1.9,3.5-3.5,5.6-4.6c1.5-0.8,3-1.3,4.6-1.6
	c0.5-0.1,0.9-0.1,1.4-0.1c0.2,0,0.3,0,0.5,0c-2.2,0.4-4.3,1.1-6.3,2.1c-2.1,1.2-4,2.7-5.4,4.6c-1.8,2.3-3.1,5-3.5,7.9
	s-0.2,5.9,0.6,8.7c0.7,2.3,1.8,4.5,3.3,6.3c1,1.3,2.3,2.3,3.7,3.1C163.8,439.4,164.4,439.7,164.4,439.7z"/>
<g class="st14">
	<polygon points="128.9,348.8 135.8,400.9 127,398.9 124.3,376.2 	"/>
</g>
<g class="st9">
	<path d="M271.4,412.8c-4.2-0.8-8.5-0.8-12.7,0c-3.6,0.8-6.7,3.2-8.5,6.5c-1.6,3.1-2.2,6.6-1.4,10c0.6,2.9,1.2,6,3.4,8
		c3.2,3.1,6.3,4.1,10.4,3.3l7.9-2.6L271.4,412.8z"/>
</g>
<path class="st5" d="M264.6,440.1c-0.2,0.1-0.3,0.2-0.5,0.2c-0.5,0.2-1,0.3-1.6,0.4c-2,0.4-4.1,0.3-6-0.3c-1.3-0.4-2.6-1.1-3.6-2.1
	c-1.2-1.1-2.2-2.4-2.9-3.8c-0.8-1.6-1.4-3.3-1.7-5c-0.4-1.9-0.4-3.8-0.1-5.7c0.4-1.9,1.1-3.6,2.1-5.3c1.7-3,4.6-5.1,7.9-5.9
	c1.4-0.3,2.7-0.5,4.1-0.5c2,0,4,0.1,6,0.4l1.6,0.2c0.2,0,0.4,0.1,0.6,0.1c-0.2,0-0.4,0-0.6,0l-1.6-0.1c-2-0.2-4-0.3-5.9-0.2
	c-1.3,0-2.7,0.2-4,0.5c-1.5,0.4-2.9,1-4.2,1.9c-2.8,2.2-4.7,5.4-5.4,8.9c-0.3,1.8-0.3,3.7,0.1,5.5c0.3,1.7,0.8,3.3,1.6,4.9
	c0.7,1.4,1.6,2.7,2.8,3.7c1,0.9,2.2,1.6,3.5,2c1.9,0.6,3.9,0.8,5.8,0.5C263.9,440.4,264.6,440.1,264.6,440.1z"/>
<path class="st5" d="M234.7,395.6c0,0.2,0,0.3-0.1,0.5c-0.1,0.4-0.1,0.9-0.2,1.4c-0.2,1.2-0.6,3-0.9,5.2c-1,5.8-1.5,11.6-1.6,17.4
	c0,3.2,0.2,6.4,0.6,9.6c0.3,2.6,0.8,5.2,1.4,7.7c0.2,1.1,0.5,2.1,0.8,2.9s0.4,1.6,0.6,2.2s0.3,1,0.4,1.4c0.1,0.2,0.1,0.3,0.1,0.5
	c-0.1-0.1-0.2-0.3-0.2-0.5l-0.5-1.4c-0.2-0.6-0.5-1.3-0.7-2.2s-0.6-1.8-0.8-2.9c-0.7-2.6-1.2-5.1-1.5-7.8c-0.4-3.2-0.6-6.4-0.6-9.7
	c0-5.9,0.6-11.7,1.7-17.5c0.4-2.2,0.8-4,1.1-5.2c0.1-0.6,0.3-1,0.4-1.4C234.5,395.9,234.6,395.8,234.7,395.6z"/>
<g class="st9">
	<path d="M169.3,406c-3.7,1-7.6,2.2-10.2,5c-5.3,6.5-5.8,15.8-1.2,22.8c1.2,1.9,2.7,3.5,4.6,4.8c1.9,1,4.1,1.3,6.1,0.9
		c5.7-1.1,10.3-5.3,11.9-10.8c1.6-5.8,0.8-11.9-2.4-17C176.7,409.4,171.9,406.8,169.3,406"/>
</g>
<path class="st11" d="M305.5,434.9c0.3,0,1.6,0.8,0.5,2.9s-8.9,9.1-11.3,6.8s1.1-5.3,1.1-5.3L305.5,434.9z"/>
<path class="st11" d="M295.5,439.3c0,0-9.6,1.4-13.4,2.9c-4,1.6-9,0.7-12.3-1.5c-1.9-1.2-3.7-2.6-5.3-4.2l-12.4,0.1
	c-3.7-4.2-4.8-10.1-2.7-15.3c0.6-1.8,1.5-3.4,2.7-4.9c1.4-1.6,3.7-3,7.7-3.7l14.7,2.9c0,0,22.7-2.1,26.8-0.3c0,0,5.1,2.9,6.7,4.1
	c0.6,0.5,2.5,6.2-1.1,9.3c0,0,3.3,2.5,1.6,4.8l-0.8,1c0,0,2.2,2.8,1.1,4s-10.7,7.1-14.2,5.9S294,439.9,295.5,439.3"/>
<path class="st12" d="M304.4,423.8c-0.4,0.1-0.8,0.3-1.2,0.5c-0.8,0.3-1.9,0.8-3.2,1.2c-0.7,0.2-1.5,0.5-2.3,0.7s-1.7,0.4-2.7,0.8
	c-1,0.3-1.9,0.9-2.6,1.7c-0.8,0.9-1,2.1-0.6,3.3c0.2,0.6,0.7,1,1.2,1.3c0.5,0.2,1.1,0.4,1.6,0.4c1,0,2.1,0,3.1-0.2
	c1.7-0.3,3.4-0.8,5-1.4c1.4-0.5,2.5-1,3.2-1.4c0.4-0.2,0.8-0.3,1.1-0.6c-0.4,0.1-0.8,0.3-1.2,0.4c-0.8,0.3-1.9,0.7-3.3,1.2
	c-1.6,0.6-3.3,1-5,1.3c-1,0.2-2,0.2-3,0.2c-0.5,0-1-0.2-1.5-0.4c-0.4-0.2-0.8-0.6-1-1.1c-0.3-1-0.1-2.1,0.6-2.9
	c0.7-0.7,1.5-1.3,2.5-1.6c0.9-0.3,1.8-0.5,2.6-0.8s1.6-0.5,2.3-0.8c1.4-0.5,2.5-1,3.2-1.3C303.7,424.2,304.1,424,304.4,423.8z"/>
<path class="st12" d="M303.4,416.8c-0.4,0.1-0.8,0.3-1.2,0.5c-0.8,0.3-1.9,0.8-3.2,1.2s-3,1-4.9,1.5c-1,0.2-2,0.6-2.9,1.2
	c-0.4,0.4-0.7,0.9-0.8,1.5c-0.1,0.6,0,1.2,0.3,1.7c0.5,1,1.5,1.8,2.6,2.1c1,0.3,2.1,0.4,3.1,0.2c1.7-0.4,3.3-0.9,4.9-1.5l3.2-1.2
	c0.4-0.1,0.8-0.3,1.2-0.5c-0.4,0.1-0.8,0.2-1.2,0.3l-3.3,1.1c-1.6,0.6-3.2,1.1-4.9,1.4c-1,0.2-2,0.1-2.9-0.2c-1-0.3-1.9-1-2.3-1.9
	c-0.5-0.9-0.3-2,0.4-2.8c0.8-0.6,1.7-1,2.7-1.1c1.7-0.5,3.3-1,4.9-1.6c1.4-0.5,2.5-1,3.2-1.4C302.7,417.3,303.1,417.1,303.4,416.8z"
	/>
<path class="st12" d="M298.8,418.9c0.2-0.6,0.3-1.3,0.4-2c0.2-0.6,0.4-1.3,0.5-1.9C298.8,416.1,298.5,417.6,298.8,418.9z"/>
<path class="st11" d="M264.6,419.9l8.6-3.5c0,0,23.7-11.7,24.1-11.1s1.7,0.5,1.5,3.4s-14.1,9.1-14.5,10.1s0.4,6.1-4.7,9.9
	s-8.8,3.9-8.8,3.9"/>
<path class="st12" d="M270.9,432.7h0.2l0.6-0.1c0.8-0.1,1.5-0.3,2.2-0.6c1.1-0.4,2.3-0.9,3.3-1.5c1.4-0.8,2.7-1.7,3.9-2.8
	c1.4-1.4,2.4-3.2,2.8-5.1c0.2-1.1,0.4-2.1,0.4-3.2c0-0.1,0-0.3,0.1-0.4c0-0.1,0.1-0.1,0.2-0.2s0.5-0.3,0.7-0.5
	c0.5-0.3,1-0.6,1.5-0.9c2.1-1.1,4.2-2.3,6.5-3.6c1.1-0.7,2.2-1.4,3.3-2.2c0.6-0.4,1.1-0.8,1.5-1.3c0.2-0.3,0.5-0.5,0.6-0.9
	c0.1-0.2,0.2-0.4,0.2-0.5c0-0.2,0-0.4,0-0.5c0.1-0.7-0.1-1.4-0.4-2.1c-0.2-0.3-0.5-0.6-0.8-0.8c-0.1-0.1-0.2-0.2-0.3-0.3l-0.1-0.1
	c-0.1,0-0.1,0-0.2,0h-0.2l-0.3,0.1c-1.3,0.4-2.5,1-3.6,1.5c-2.4,1-4.6,2.1-6.7,3.1c-4.3,2-8.1,3.9-11.3,5.5
	c-0.8,0.4-1.6,0.8-2.3,1.1l-2.1,0.9l-3.4,1.4l-2.1,0.9l-0.5,0.2l-0.2,0.1c0,0,0.1,0,0.2-0.1l0.6-0.2l2.1-0.8l3.4-1.4l2.1-0.9
	c0.7-0.3,1.5-0.7,2.3-1.1l11.3-5.4c2.1-1,4.4-2,6.7-3.1c1.2-0.5,2.4-1.1,3.6-1.5l0.2-0.1h0.1l0,0v-0.1l0,0c-0.3,0.2-0.1,0.1-0.1,0.1
	l0,0c0.1,0.1,0.3,0.3,0.4,0.4c0.3,0.2,0.5,0.4,0.7,0.6c0.3,0.6,0.4,1.2,0.4,1.9c0,0.3,0,0.6-0.2,0.9s-0.4,0.5-0.6,0.8
	c-0.5,0.5-1,0.9-1.5,1.3c-1,0.8-2.1,1.5-3.2,2.1c-2.2,1.3-4.4,2.5-6.4,3.7c-0.5,0.3-1,0.6-1.5,0.9c-0.3,0.2-0.5,0.3-0.7,0.5
	c-0.1,0.1-0.3,0.2-0.3,0.4c0,0.1-0.1,0.3-0.1,0.5c-0.1,1.1-0.2,2.2-0.4,3.2c-0.4,1.9-1.3,3.6-2.7,5c-1.2,1.1-2.4,2-3.8,2.8
	c-1,0.6-2.1,1.1-3.2,1.6c-0.7,0.3-1.4,0.5-2.2,0.6C271.3,432.7,271.1,432.7,270.9,432.7L270.9,432.7z"/>
<path class="st12" d="M297.4,433.3c-0.3,0-0.6,0.1-0.9,0.3c-0.8,0.3-1.6,0.8-2.2,1.4c-0.5,0.4-0.9,0.8-1.3,1.3
	c-0.5,0.6-0.7,1.3-0.6,2c0.2,0.8,0.8,1.5,1.6,1.7c0.8,0.2,1.7,0.2,2.5-0.1c2.7-0.9,5.4-2,7.9-3.4c0.8-0.4,1.5-0.9,2.2-1.4
	c0.3-0.2,0.5-0.4,0.7-0.6c-0.3,0.1-0.6,0.3-0.8,0.5c-0.5,0.3-1.3,0.8-2.3,1.2c-2.5,1.3-5.2,2.4-7.9,3.2c-0.7,0.3-1.5,0.3-2.3,0.1
	c-0.7-0.2-1.2-0.7-1.4-1.4c-0.1-0.6,0.1-1.3,0.6-1.8c0.4-0.5,0.8-0.9,1.2-1.3C295.3,434.4,296.3,433.8,297.4,433.3z"/>
<path class="st11" d="M161.4,409.7l15.2,0.3c0,0,22.8-8.3,27.5-7.5c4.2,0.7,19.7,11,22.8,13c0.3,0.2,0.6,0.6,0.7,0.9l0,0
	c0.6,1.7-0.2,3.5-1.9,4.2l-0.3,0.1l0.1,0.5c0.2,0.6,0.3,1.2,0.2,1.9c-0.1,1.2-1.1,2.2-2.4,2.1c-0.7,0-1.4-0.5-1.8-1.1l0.6,1
	c0.2,0.4,0.4,0.9,0.3,1.4l-0.1,0.9c-0.1,1-0.8,1.9-1.8,2.3l0,0c-0.9,0.3-2,0-2.7-0.7c-2-2.2-6.2-6.5-9.1-7c-3.1-0.4-6.2-0.5-9.4-0.5
	c-1.3,0-2.5,0.8-2.9,2l0,0c1.7,0.1,13.6,6.3,17.8,8.5c1.3,0.7,2.2,1.9,2.4,3.4c0.1,1.3-0.5,2.7-3.1,2.1c-5.6-1.3-15.6-5.9-15.6-5.9
	s-5.2-1.5-8.5,0.9c-4.7,3.3-6.9,4.5-10.9,3.2c-2.4-0.8-4.8-1.9-7-3.3l-13.8,1.3C157.9,433.8,149.4,420.1,161.4,409.7z"/>
<path class="st12" d="M196.7,413.9c0,0.1,1.6-0.4,4.3-0.6c7.1-0.5,13.9,2.5,18.5,7.9c0.9,1.1,1.8,2.3,2.5,3.5
	c-0.1-0.4-0.3-0.7-0.5-1.1c-0.5-0.9-1.1-1.8-1.8-2.6c-4.5-5.6-11.5-8.6-18.7-8c-1.1,0.1-2.1,0.3-3.2,0.5
	C197.4,413.6,197,413.7,196.7,413.9z"/>
<path class="st12" d="M199.1,408.3c1.5-0.4,3-0.7,4.5-0.8c3.7,0,7.3,1,10.4,2.9c3.1,2,5.9,4.4,8.4,7.1l2.3,2.4
	c0.3,0.3,0.6,0.6,0.9,0.9c-0.2-0.4-0.5-0.7-0.8-1c-0.5-0.6-1.2-1.5-2.2-2.5c-2.4-2.8-5.2-5.3-8.4-7.2c-3.2-2-6.9-3-10.6-2.9
	c-1.1,0.1-2.2,0.3-3.3,0.6c-0.3,0.1-0.6,0.2-0.9,0.3C199.2,408.2,199.1,408.3,199.1,408.3z"/>
<g id="freepik--device-2--inject-33">
	<path class="st4" d="M395.7,444.5c3.9-5.9,10.4-9.6,17.5-9.9c11.9-0.4,17.9,9.9,17.9,9.9H395.7z"/>
	<path class="st5" d="M418.5,444.2c-0.1,0-0.1-0.7-0.4-1.8c-0.6-2.9-2.3-5.4-4.7-7c-0.5-0.3-1-0.6-1.5-1c0.6,0.1,1.2,0.3,1.7,0.7
		c2.6,1.5,4.4,4.2,4.9,7.2C418.7,442.9,418.7,443.5,418.5,444.2z"/>
	<path class="st4" d="M623,444.5L623,444.5c0-2.6-2.1-4.6-4.6-4.6H516.8c-2.5,0-4.6,2.1-4.6,4.6l0,0H623z"/>
	<path class="st4" d="M570.4,405.2H393.1c-3.3,0-5.9-2.6-5.9-5.9V286.6c0-3.3,2.6-5.9,5.9-5.9h177.3c1.2,0,2.1,0.9,2.1,2.1v120.3
		C572.5,404.2,571.6,405.2,570.4,405.2z"/>
	<rect x="457.2" y="390.7" class="st4" width="34.7" height="53.7"/>
	<path class="st5" d="M570.4,405.2h-5c-1.2,0-2.1-0.9-2.1-2.1V282.8c0-1.2,0.9-2.1,2.1-2.1h5c1.2,0,2.1,0.9,2.1,2.1v120.3
		C572.5,404.2,571.6,405.2,570.4,405.2z"/>
	<path class="st5" d="M457.1,381.1c0.1,0,0.3,14.2,0.3,31.7s0,31.7-0.2,31.7s-0.3-14.2-0.3-31.7S457,381.1,457.1,381.1z"/>
	<path class="st5" d="M492.3,380.2c0.1,0,0.2,14.2,0.1,31.8s-0.3,31.8-0.4,31.8s-0.2-14.2-0.1-31.8S492.2,380.2,492.3,380.2z"/>
	<path class="st5" d="M551.2,394.3c0-0.1,0-0.1,0-0.2c0-0.2,0-0.4,0-0.6c0-0.6,0-1.4,0-2.4c0-2.1,0-5.1-0.1-8.8l0.2,0.2l-39.3,0.1
		l0.3-0.3l0,0v6.1c0,2,0,4,0,5.9l-0.2-0.2l28,0.1l8.2,0.1h2.2h0.5L551.2,394.3c-0.3-0.1-0.5-0.1-0.8-0.1h-2.2l-8.2,0.1l-28.2,0.1
		h-0.3v-12.1l0,0l0.3-0.3l39.3,0.1h0.2v0.2c0,3.8-0.1,6.8-0.1,8.9c0,1,0,1.8,0,2.3C551.3,393.8,551.3,394.1,551.2,394.3z"/>
	<path class="st5" d="M487.6,374.4c0,0.1-6.4,0.3-14.4,0.3s-14.4-0.1-14.4-0.3s6.4-0.3,14.4-0.3S487.6,374.3,487.6,374.4z"/>
</g>
<g id="freepik--device-1--inject-33">
	<path class="st4" d="M356.3,444.5H216.9l18-97.9c0.6-3.5,3.7-6,7.2-6h125.3c4,0,7.3,3.3,7.3,7.3c0,0.5,0,0.9-0.1,1.4L356.3,444.5z"
		/>
	<path class="st4" d="M216.9,444.5H164l0.2-0.2c4.7-3.5,10.4-5.5,16.3-5.7l37.8-1.1L216.9,444.5z"/>
	<path class="st5" d="M250.4,340.8c0,0-0.4-0.1-1.1-0.1c-1.1,0-2.1,0.3-3.1,0.8c-1.5,0.8-2.8,1.9-3.7,3.4c-1.1,1.9-1.9,4.1-2.3,6.3
		c-0.4,2.5-0.9,5.2-1.4,8.2s-1,6.1-1.7,9.4c-1.2,6.6-2.6,13.8-4.2,21.4c-3.1,15.1-6.1,28.8-8,38.7c-1,5-1.7,9-2.2,11.8
		c-0.2,1.4-0.4,2.4-0.6,3.2l-0.2,0.8c0,0.1,0,0.2-0.1,0.3c0-0.1,0-0.2,0-0.3c0-0.2,0-0.5,0.1-0.8c0.1-0.8,0.3-1.9,0.5-3.2
		c0.4-2.8,1.1-6.8,2-11.8c1.8-10,4.7-23.6,7.8-38.8c1.6-7.5,3-14.8,4.3-21.3c0.6-3.3,1.2-6.4,1.7-9.3s0.9-5.7,1.4-8.2
		c0.4-2.3,1.2-4.4,2.4-6.4c1-1.5,2.3-2.6,3.9-3.4c1-0.5,2.1-0.7,3.2-0.7C249.6,340.6,250,340.6,250.4,340.8z"/>
	<path class="st3" d="M309.2,390.3c0,3.7-3,6.7-6.7,6.7s-6.7-3-6.7-6.7s3-6.7,6.7-6.7l0,0C306.2,383.6,309.2,386.6,309.2,390.3z"/>
</g>
<g id="freepik--Desk--inject-33">
	<path class="st5" d="M718.3,444.5c0,0.1-153.7,0.3-343.3,0.3s-343.3-0.1-343.3-0.3s153.7-0.3,343.3-0.3S718.3,444.3,718.3,444.5z"
		/>
</g>
<g id="freepik--Plant--inject-33">
	<path class="st8" d="M345.7,419.1c-7.2-4.2-11-13.8-11.3-21.8s3-16.2,9.5-20.7c6.8-4.8,16.6-4.7,23.6-0.2
		c7.1,4.8,11.2,12.8,10.8,21.3c-0.5,8.5-4.7,16.3-11.6,21.3"/>
	<path class="st0" d="M357.2,419.8c-0.1-0.6-0.2-1.2-0.2-1.8c0-1.3-0.1-3-0.1-4.9c-0.1-4.2-0.3-9.9-0.5-16.3s-0.6-12.1-0.9-16.3
		c-0.1-2-0.2-3.6-0.3-4.9c-0.1-0.6-0.1-1.2,0-1.8c0.2,0.6,0.3,1.2,0.3,1.8c0.1,1.1,0.3,2.8,0.5,4.9c0.4,4.2,0.8,9.9,1.1,16.3
		s0.4,12.1,0.4,16.3c0,2.1,0,3.8-0.1,4.9C357.3,418.6,357.3,419.2,357.2,419.8z"/>
	<path class="st5" d="M336.5,395.5c0,0.2-1.2,0.2-2.6,0.1s-2.5-0.4-2.5-0.5s1.2-0.2,2.6-0.1S336.5,395.3,336.5,395.5z"/>
	<path class="st5" d="M336.9,388.4c-0.1,0.2-1.1-0.1-2.2-0.6s-2-1-1.9-1.2s1.1,0.1,2.2,0.6S337,388.2,336.9,388.4z"/>
	<path class="st5" d="M340.6,383.1c-0.1,0.1-1.2-0.4-2.4-1.3s-1.9-2-1.7-2.1s1,0.6,2.2,1.5S340.7,383,340.6,383.1z"/>
	<path class="st5" d="M344.3,378.2c-0.2,0.1-0.7-0.8-1.2-1.9s-0.7-2.1-0.6-2.1s0.7,0.8,1.2,1.9S344.4,378.1,344.3,378.2z"/>
	<path class="st5" d="M350,374.6c-0.2,0.1-0.7-0.8-1.1-2s-0.4-2.3-0.2-2.3s0.5,0.9,0.9,2.1S350.2,374.5,350,374.6z"/>
	<path class="st5" d="M359.6,370.6c0.2,0.1,0.1,0.8-0.2,1.7s-0.7,1.5-0.9,1.5s-0.1-0.8,0.2-1.7S359.5,370.6,359.6,370.6z"/>
	<path class="st5" d="M366.8,373.7c0.1,0.1-0.3,0.8-1,1.4s-1.4,1-1.5,0.9s0.3-0.8,1-1.4S366.7,373.6,366.8,373.7z"/>
	<path class="st5" d="M373.1,377.8c0.1,0.2-0.5,0.7-1.2,1.2s-1.5,0.9-1.6,0.7s0.5-0.7,1.2-1.2S373,377.6,373.1,377.8z"/>
	<path class="st5" d="M377.5,383.8c0.1,0.2-0.8,0.7-2,1.2s-2.1,0.8-2.2,0.6s0.8-0.7,2-1.2S377.5,383.6,377.5,383.8z"/>
	<path class="st5" d="M379.3,390.4c0,0.2-0.9,0.5-2,0.6s-2.1,0.1-2.1-0.1s0.9-0.5,2-0.6S379.3,390.2,379.3,390.4z"/>
	<path class="st5" d="M380.2,398.5c-0.1,0.2-1-0.1-2.1-0.6s-1.9-1-1.9-1.2s1,0.1,2.1,0.6S380.3,398.4,380.2,398.5z"/>
	<path class="st5" d="M379.4,405.5c-0.1,0.2-1.3-0.1-2.5-1s-2-1.8-1.9-1.9s1,0.6,2.2,1.4S379.5,405.3,379.4,405.5z"/>
	<path class="st5" d="M375.8,411.9c-0.1,0.1-1.1-0.4-2-1.4s-1.4-2-1.3-2.1s0.9,0.7,1.8,1.6S375.9,411.7,375.8,411.9z"/>
	<path class="st5" d="M341.3,412.6c0.1,0.2-0.9,0.9-2.2,1.5s-2.5,1.1-2.6,1s0.9-0.9,2.3-1.5S341.2,412.5,341.3,412.6z"/>
	<path class="st5" d="M338.2,406.9c0.1,0.2-0.7,0.7-1.8,1.2s-2,0.7-2.1,0.6s0.7-0.7,1.8-1.2S338.1,406.7,338.2,406.9z"/>
	<path class="st5" d="M335.9,401.8c0,0.2-1,0.5-2.2,0.6s-2.3,0.2-2.3,0s1-0.5,2.2-0.6S335.8,401.6,335.9,401.8z"/>
	<path class="st5" d="M343.4,399c0,0.2-0.9,0.6-2.2,0.8s-2.4-0.1-2.3-0.3s1-0.3,2.2-0.4S343.4,398.8,343.4,399z"/>
	<path class="st5" d="M349.7,392.7c0.1,0.2-0.7,0.6-1.8,0.7s-1.9-0.1-1.9-0.3s0.8-0.3,1.8-0.4S349.7,392.5,349.7,392.7z"/>
	<path class="st5" d="M351,387.7c-0.1,0.2-0.9,0-1.9-0.3s-1.7-0.8-1.6-0.9s0.9,0,1.9,0.3S351,387.5,351,387.7z"/>
	<path class="st5" d="M353.3,382.6c-0.1,0.1-0.7-0.2-1.1-1s-0.5-1.4-0.3-1.5s0.5,0.5,0.9,1.1S353.4,382.5,353.3,382.6z"/>
	<path class="st5" d="M350.5,403.4c0,0.2-0.7,0.5-1.6,0.7c-0.4,0.1-0.9,0.2-1.4,0.2l-0.1-0.4c0.2,0,0.4,0,0.4,0s-0.1,0.2-0.3,0.3
		l-0.1-0.4c0.4-0.2,0.9-0.4,1.3-0.5C349.6,403.3,350.4,403.2,350.5,403.4z"/>
	<path class="st5" d="M351.8,412.3c0.1,0.2-0.9,0.7-2.1,1.2s-2.2,0.7-2.3,0.5s0.9-0.7,2.1-1.2S351.7,412.1,351.8,412.3z"/>
	<path class="st5" d="M344.6,408.4c0.1,0.2-0.6,0.5-1.4,0.8s-1.5,0.4-1.6,0.2s0.6-0.5,1.4-0.8S344.6,408.2,344.6,408.4z"/>
	<path class="st5" d="M345.2,390.2c0,0.2-1.1,0.1-2.4-0.4s-2.1-1-2.1-1.2s1.1,0.1,2.3,0.6S345.2,390,345.2,390.2z"/>
	<path class="st5" d="M362.4,388.2c0.1,0.2-0.5,0.7-1.4,1.3s-1.6,0.9-1.7,0.7s0.5-0.7,1.3-1.3S362.3,388.1,362.4,388.2z"/>
	<path class="st5" d="M363.4,397.2c0,0.2-0.6,0.5-1.4,0.6s-1.5,0.2-1.5,0s0.6-0.5,1.4-0.6S363.3,397,363.4,397.2z"/>
	<path class="st5" d="M364.5,407.3c-0.1,0.2-1-0.1-2-0.6s-1.8-1-1.8-1.2s1,0.1,2,0.6S364.5,407.1,364.5,407.3z"/>
	<path class="st5" d="M362.1,417.1c-0.1,0.1-0.7-0.4-1.3-1.1s-1-1.4-0.8-1.5s0.7,0.4,1.3,1.1S362.3,416.9,362.1,417.1z"/>
	<path class="st5" d="M361.7,381.7c0.1,0.1-0.3,0.6-1,1s-1.3,0.4-1.4,0.2s0.4-0.5,1-0.8S361.6,381.5,361.7,381.7z"/>
	<path class="st5" d="M370.1,390.7c0.1,0.2-0.7,0.6-1.8,0.8s-1.9,0-1.9-0.2s0.8-0.3,1.8-0.4S370.1,390.5,370.1,390.7z"/>
	<path class="st5" d="M368.5,382.6c0.1,0.2-0.7,0.7-1.8,1.1s-2.1,0.4-2.1,0.2s0.8-0.5,1.9-0.8S368.4,382.4,368.5,382.6z"/>
	<path class="st5" d="M372,403.2c0,0.2-1.3,0.3-2.9,0s-2.8-0.9-2.7-1s1.3,0.1,2.9,0.4S372,403,372,403.2z"/>
	<path class="st5" d="M368.8,415c-0.1,0.1-1.1-0.4-2.1-1.4s-1.5-2-1.4-2.1s0.9,0.6,1.9,1.6S369,414.9,368.8,415z"/>
	<path class="st0" d="M355,373c-2.2,1.3-4.1,2.9-5.9,4.7c-4.1,4.5-6.7,10.2-7.3,16.2c-0.3,3.3-0.2,6.7,0.4,9.9
		c0.5,2.7,1.1,5.4,1.9,8c0.6,2.2,1.2,4,1.6,5.3c0.2,0.7,0.4,1.3,0.6,2c-0.3-0.6-0.6-1.2-0.8-1.9c-0.5-1.2-1.1-3-1.8-5.2
		c-0.8-2.6-1.5-5.3-2-8c-0.6-3.3-0.8-6.7-0.5-10.1c0.7-6.2,3.4-12,7.7-16.5c1.3-1.3,2.8-2.5,4.4-3.4c0.4-0.3,0.9-0.5,1.4-0.7
		C354.7,373.1,354.8,373.1,355,373z"/>
	<path class="st0" d="M364.2,419.5c1.1-2.4,2.1-4.8,3-7.2c2-6,2.6-12.3,1.8-18.6c-0.5-3.4-1.4-6.8-2.9-9.9c-1.2-2.5-2.9-4.8-4.9-6.8
		c-1.4-1.2-3-2.3-4.8-3c-1.2-0.5-2-0.6-2-0.7c0.2,0,0.4,0,0.5,0c0.5,0.1,1,0.2,1.5,0.4c1.8,0.7,3.5,1.7,5,2.9c2.1,2,3.9,4.3,5.1,6.9
		c1.5,3.2,2.5,6.6,3,10.1c0.9,6.3,0.2,12.8-2,18.8c-0.4,1.2-0.9,2.1-1.2,3s-0.8,1.6-1.1,2.2C365,418.3,364.6,418.9,364.2,419.5z"/>
	<polygon class="st5" points="338.2,417.9 375.2,417.9 375.4,425.3 338.2,425.3 	"/>
	<polygon class="st5" points="341.3,421.6 343.4,444.2 370.5,444.2 372.7,421.9 	"/>
	<path class="st4" d="M375.4,425.4c0,0.2-8.3,0.3-18.6,0.3s-18.6-0.1-18.6-0.3s8.3-0.3,18.6-0.3S375.4,425.2,375.4,425.4z"/>
	<path class="st4" d="M371.7,432.3c-0.2,0.5-0.5,1-0.8,1.4c-0.8,1.2-1.8,2.4-2.9,3.4l-0.2,0.2l-0.2-0.2c-2.2-2.3-4.7-4.5-7.3-6.4
		h0.4l-3.2,2.8l-3.8,3.3l-0.2,0.2l-0.2-0.2c-2.3-1.9-4.4-3.7-6.2-5.2h0.4c-1.3,1.6-2.4,2.9-3.2,3.9c-0.4,0.5-0.8,1-1.2,1.4
		c0.3-0.5,0.6-1.1,1-1.5l3-4l0.1-0.2l0.2,0.2l6.3,5.1h-0.4l3.8-3.3l3.2-2.8l0.2-0.2l0.2,0.1c2.6,1.9,5,4.1,7.2,6.6h-0.3
		C369.1,435.5,370.4,433.9,371.7,432.3z"/>
</g>
<g id="freepik--Screens--inject-33">
	<path class="st5" d="M489.6,275.4c0-0.1,0-0.2,0-0.3c0-0.2,0-0.5,0-0.8c0-0.8,0-1.8,0-3.1c0-2.7,0-6.6-0.1-11.4
		c0-9.6,0-22.9-0.1-37.5c0-6.9,0-13.6,0-19.6l0.2,0.2l-24.1-0.1l-6.9-0.1h-1.8c-0.2,0-0.4,0-0.6,0c0.2,0,0.4,0,0.6,0h1.8l6.9-0.1
		l24.1-0.1h0.2v0.2c0,6,0,12.6,0,19.6c0,14.6-0.1,27.9-0.1,37.5c0,4.8-0.1,8.6-0.1,11.4c0,1.3,0,2.3,0,3.1c0,0.3,0,0.6,0,0.8
		C489.7,275.3,489.7,275.3,489.6,275.4z"/>
	<path class="st5" d="M304.6,215.9c0.1,0,0.3,26.9,0.3,60s-0.1,60-0.3,60s-0.3-26.8-0.3-60S304.5,215.9,304.6,215.9z"/>
	<path class="st5" d="M308,335.8c0,1.9-1.5,3.4-3.4,3.4s-3.4-1.5-3.4-3.4s1.5-3.4,3.4-3.4l0,0C306.5,332.4,308,333.9,308,335.8
		L308,335.8z"/>
	<path class="st5" d="M493,275.4c0,1.9-1.5,3.4-3.4,3.4s-3.4-1.5-3.4-3.4s1.5-3.4,3.4-3.4l0,0C491.5,272,493,273.5,493,275.4z"/>
	<rect x="262.4" y="95.5" class="st5" width="208.3" height="121.4"/>
	<path class="st2" d="M278.7,210.8c-0.1,0-0.2-24.8-0.2-55.4s0.1-55.4,0.2-55.4s0.2,24.8,0.2,55.4S278.8,210.8,278.7,210.8z"/>
	<path class="st2" d="M278.7,210.9c-0.1,0-0.1,0-0.1-0.2l0,0c0-0.3-0.1-1.3-0.1-4.3c0-2.8,0-6.8-0.1-11.9c0-10.5-0.1-24.4-0.1-39.2
		s0-28.7,0.1-39.2c0-5.1,0-9.1,0.1-11.9c0-3,0-4,0.1-4.3l0,0c0-0.2,0.1-0.2,0.1-0.2s0.1,0,0.1,0.2l0,0c0,0.3,0.1,1.3,0.1,4.3
		c0,2.8,0,6.8,0.1,11.9c0,10.5,0.1,24.4,0.1,39.2s0,28.7-0.1,39.2c0,5.1,0,9.1-0.1,11.9c0,3,0,4-0.1,4.3l0,0
		C278.8,210.9,278.8,210.9,278.7,210.9z M278.7,112.1c0,10.2-0.1,25.9-0.1,43.2s0,33,0.1,43.2c0-10.2,0.1-25.9,0.1-43.2
		S278.7,122.3,278.7,112.1z"/>
	<path class="st2" d="M274.4,104.6c-2.3,0.3-4.6,0.3-6.9,0C269.8,104.3,272.1,104.3,274.4,104.6z"/>
	<path class="st2" d="M271,104.9c-3.6,0-3.6-0.2-3.6-0.3s0-0.3,3.6-0.3s3.6,0.2,3.6,0.3S274.5,104.9,271,104.9z M268.3,104.6
		c0.6,0,1.5,0.1,2.7,0.1s2.1,0,2.7-0.1c-0.6,0-1.5-0.1-2.7-0.1S268.8,104.5,268.3,104.6L268.3,104.6z"/>
	<path class="st2" d="M274.4,111.9c-2.3,0.3-4.6,0.3-6.9,0C269.8,111.6,272.1,111.6,274.4,111.9z"/>
	<path class="st2" d="M271,112.2c-3.6,0-3.6-0.2-3.6-0.3s0-0.3,3.6-0.3s3.6,0.2,3.6,0.3S274.5,112.2,271,112.2z M268.3,111.9
		c0.6,0,1.5,0.1,2.7,0.1s2.1,0,2.7-0.1c-0.6,0-1.5-0.1-2.7-0.1S268.8,111.8,268.3,111.9L268.3,111.9z"/>
	<path class="st2" d="M274.4,119.2c-2.3,0.3-4.6,0.3-6.9,0C269.8,118.9,272.1,118.9,274.4,119.2z"/>
	<path class="st2" d="M271,119.5c-3.6,0-3.6-0.2-3.6-0.3s0-0.3,3.6-0.3s3.6,0.2,3.6,0.3S274.5,119.5,271,119.5z M268.3,119.2
		c0.6,0,1.5,0.1,2.7,0.1s2.1,0,2.7-0.1c-0.6,0-1.5-0.1-2.7-0.1S268.8,119.2,268.3,119.2L268.3,119.2z"/>
	<path class="st2" d="M274.4,126.5c-2.3,0.3-4.6,0.3-6.9,0C269.8,126.2,272.1,126.2,274.4,126.5z"/>
	<path class="st2" d="M271,126.8c-3.6,0-3.6-0.2-3.6-0.3s0-0.3,3.6-0.3s3.6,0.2,3.6,0.3S274.5,126.8,271,126.8z M268.3,126.5
		c0.6,0,1.5,0.1,2.7,0.1s2.1,0,2.7-0.1c-0.6,0-1.5-0.1-2.7-0.1S268.9,126.5,268.3,126.5L268.3,126.5z"/>
	<path class="st2" d="M274.4,133.8c-2.3,0.3-4.6,0.3-6.9,0C269.8,133.5,272.1,133.5,274.4,133.8z"/>
	<path class="st2" d="M271,134.1c-3.6,0-3.6-0.2-3.6-0.3s0-0.3,3.6-0.3s3.6,0.2,3.6,0.3S274.5,134.1,271,134.1z M268.3,133.8
		c0.6,0,1.5,0.1,2.7,0.1s2.1,0,2.7-0.1c-0.6,0-1.5-0.1-2.7-0.1S268.8,133.8,268.3,133.8L268.3,133.8z"/>
	<path class="st2" d="M274.4,141.1c-2.3,0.3-4.6,0.3-6.9,0C269.8,140.8,272.1,140.8,274.4,141.1z"/>
	<path class="st2" d="M271,141.4c-3.6,0-3.6-0.2-3.6-0.3s0-0.3,3.6-0.3s3.6,0.2,3.6,0.3S274.5,141.4,271,141.4z M268.3,141.1
		c0.6,0,1.5,0.1,2.7,0.1s2.1,0,2.7-0.1c-0.6,0-1.5-0.1-2.7-0.1S268.8,141.1,268.3,141.1L268.3,141.1z"/>
	<path class="st2" d="M274.4,148.4c-2.3,0.3-4.6,0.3-6.9,0C269.8,148.2,272.1,148.2,274.4,148.4z"/>
	<path class="st2" d="M271,148.7c-3.6,0-3.6-0.2-3.6-0.3s0-0.3,3.6-0.3s3.6,0.2,3.6,0.3S274.5,148.7,271,148.7z M268.3,148.4
		c0.6,0,1.5,0.1,2.7,0.1s2.1,0,2.7-0.1c-0.6,0-1.5-0.1-2.7-0.1S268.8,148.4,268.3,148.4L268.3,148.4z"/>
	<path class="st2" d="M274.4,155.7c-2.3,0.3-4.6,0.3-6.9,0C269.8,155.5,272.1,155.5,274.4,155.7z"/>
	<path class="st2" d="M271,156.1c-3.6,0-3.6-0.2-3.6-0.3s0-0.3,3.6-0.3s3.6,0.2,3.6,0.3S274.5,156.1,271,156.1z M268.3,155.7
		c0.6,0,1.5,0.1,2.7,0.1s2.1,0,2.7-0.1c-0.6,0-1.5-0.1-2.7-0.1S268.8,155.7,268.3,155.7L268.3,155.7z"/>
	<path class="st2" d="M274.4,163c-2.3,0.3-4.6,0.3-6.9,0C269.8,162.7,272.1,162.7,274.4,163z"/>
	<path class="st2" d="M271,163.4c-3.6,0-3.6-0.2-3.6-0.3s0-0.3,3.6-0.3s3.6,0.2,3.6,0.3S274.5,163.4,271,163.4z M268.3,163
		c0.6,0,1.5,0.1,2.7,0.1s2.1,0,2.7-0.1c-0.6,0-1.5-0.1-2.7-0.1S268.9,163,268.3,163L268.3,163z"/>
	<path class="st2" d="M274.4,170.3c-2.3,0.3-4.6,0.3-6.9,0C269.8,170.1,272.1,170.1,274.4,170.3z"/>
	<path class="st2" d="M271,170.7c-3.6,0-3.6-0.2-3.6-0.3s0-0.3,3.6-0.3s3.6,0.2,3.6,0.3S274.5,170.7,271,170.7z M268.3,170.3
		c0.6,0,1.5,0.1,2.7,0.1s2.1,0,2.7-0.1c-0.6,0-1.5-0.1-2.7-0.1S268.9,170.3,268.3,170.3L268.3,170.3z"/>
	<path class="st2" d="M274.4,177.6c-2.3,0.3-4.6,0.3-6.9,0C269.8,177.4,272.1,177.4,274.4,177.6z"/>
	<path class="st2" d="M271,178c-3.6,0-3.6-0.2-3.6-0.3s0-0.3,3.6-0.3s3.6,0.2,3.6,0.3S274.5,178,271,178z M268.3,177.7
		c0.6,0.1,1.5,0.1,2.7,0.1s2.1,0,2.7-0.1c-0.6,0-1.5-0.1-2.7-0.1S268.8,177.6,268.3,177.7L268.3,177.7z"/>
	<path class="st2" d="M274.4,185c-2.3,0.3-4.6,0.3-6.9,0C269.8,184.7,272.1,184.7,274.4,185z"/>
	<path class="st2" d="M271,185.3c-3.6,0-3.6-0.2-3.6-0.3s0-0.3,3.6-0.3s3.6,0.2,3.6,0.3S274.5,185.3,271,185.3z M268.3,184.9
		c0.6,0,1.5,0.1,2.7,0.1s2.1,0,2.7-0.1c-0.6,0-1.5-0.1-2.7-0.1S268.9,184.9,268.3,184.9L268.3,184.9z"/>
	<path class="st2" d="M274.4,192.3c-2.3,0.3-4.6,0.3-6.9,0C269.8,192,272.1,192,274.4,192.3z"/>
	<path class="st2" d="M271,192.6c-3.6,0-3.6-0.2-3.6-0.3s0-0.3,3.6-0.3s3.6,0.2,3.6,0.3S274.5,192.6,271,192.6z M268.3,192.3
		c0.6,0,1.5,0.1,2.7,0.1s2.1,0,2.7-0.1c-0.6,0-1.5-0.1-2.7-0.1S268.8,192.2,268.3,192.3L268.3,192.3z"/>
	<path class="st2" d="M274.4,199.6c-2.3,0.3-4.6,0.3-6.9,0C269.8,199.3,272.1,199.3,274.4,199.6z"/>
	<path class="st2" d="M271,199.9c-3.6,0-3.6-0.2-3.6-0.3s0-0.3,3.6-0.3s3.6,0.2,3.6,0.3S274.5,199.9,271,199.9z M268.3,199.6
		c0.6,0,1.5,0.1,2.7,0.1s2.1,0,2.7-0.1c-0.6,0-1.5-0.1-2.7-0.1S268.8,199.5,268.3,199.6L268.3,199.6z"/>
	<path class="st2" d="M274.4,206.9c-2.3,0.3-4.6,0.3-6.9,0C269.8,206.6,272.1,206.6,274.4,206.9z"/>
	<path class="st2" d="M271,207.2c-3.6,0-3.6-0.2-3.6-0.3s0-0.3,3.6-0.3s3.6,0.2,3.6,0.3S274.5,207.2,271,207.2z M268.3,206.9
		c0.6,0,1.5,0.1,2.7,0.1s2.1,0,2.7-0.1c-0.6,0-1.5-0.1-2.7-0.1S268.8,206.8,268.3,206.9L268.3,206.9z"/>
	<path class="st15" d="M302.1,104.2c0,0.1-4,0.2-9,0.2s-9-0.1-9-0.2s4-0.2,9-0.2S302.1,104,302.1,104.2z"/>
	<path class="st8" d="M293.1,104.5c-2.4,0-4.6,0-6.3,0c-2.7-0.1-2.7-0.1-2.7-0.3s0-0.2,2.7-0.3c1.7,0,3.9-0.1,6.3-0.1s4.6,0,6.3,0.1
		c2.7,0.1,2.7,0.1,2.7,0.3s0,0.2-2.7,0.3C297.8,104.4,295.5,104.5,293.1,104.5z M286.1,104.2c1.5,0,4,0.1,7,0.1s5.4,0,7-0.1
		c-1.6,0-4-0.1-7-0.1S287.7,104.1,286.1,104.2L286.1,104.2z"/>
	<path class="st15" d="M302.1,206.9c0,0.1-4,0.2-9,0.2s-9-0.1-9-0.2s4-0.2,9-0.2S302.1,206.8,302.1,206.9z"/>
	<path class="st8" d="M293.1,207.2c-2.4,0-4.6,0-6.3-0.1c-2.7-0.1-2.7-0.1-2.7-0.3s0-0.2,2.7-0.3c1.7,0,3.9,0,6.3,0s4.6,0,6.3,0
		c2.7,0.1,2.7,0.1,2.7,0.3s0,0.2-2.7,0.3C297.8,207.2,295.5,207.2,293.1,207.2z M286.1,206.9c1.5,0,4,0.1,7,0.1s5.4,0,7-0.1
		c-1.6,0-4-0.1-7-0.1S287.7,206.8,286.1,206.9L286.1,206.9z"/>
	<path class="st15" d="M327,119.2c0,0.1-7.5,0.2-16.8,0.2s-16.8-0.1-16.8-0.2s7.5-0.2,16.8-0.2S327,119.1,327,119.2z"/>
	<path class="st8" d="M310.3,119.5c-4.5,0-8.7,0-11.9-0.1c-5-0.1-5-0.1-5-0.3s0-0.2,5-0.3c3.2,0,7.4-0.1,11.9-0.1s8.7,0,11.8,0.1
		c5,0.1,5,0.1,5,0.3s0,0.2-5,0.3C318.9,119.5,314.7,119.5,310.3,119.5z M297.2,119.2c2.9,0,7.4,0.1,13.1,0.1s10.1,0,13-0.1
		c-2.9,0-7.4-0.1-13-0.1S300.1,119.2,297.2,119.2z"/>
	<path class="st2" d="M365.8,119.2c0,0.1-7.5,0.2-16.8,0.2s-16.8-0.1-16.8-0.2s7.5-0.2,16.8-0.2S365.8,119.1,365.8,119.2z"/>
	<path class="st2" d="M349,119.5c-4.5,0-8.7,0-11.9-0.1c-5-0.1-5-0.1-5-0.3s0-0.2,5-0.3c3.2,0,7.4-0.1,11.9-0.1s8.7,0,11.8,0.1
		c5,0.1,5,0.1,5,0.3s0,0.2-5,0.3C357.7,119.5,353.5,119.5,349,119.5z M335.9,119.2c2.9,0,7.4,0.1,13.1,0.1s10.1,0,13-0.1
		c-2.9,0-7.4-0.1-13-0.1S338.9,119.2,335.9,119.2z"/>
	<path class="st2" d="M350.9,126.5c0,0.1-11,0.2-24.7,0.2s-24.7-0.1-24.7-0.2s11-0.2,24.7-0.2S350.9,126.4,350.9,126.5z"/>
	<path class="st2" d="M326.2,126.8c-6.6,0-12.8,0-17.5,0c-7.4-0.1-7.4-0.1-7.4-0.3s0-0.2,7.4-0.3c4.7,0,10.9-0.1,17.5-0.1
		s12.8,0,17.5,0.1c7.4,0.1,7.4,0.1,7.4,0.3s0,0.2-7.4,0.3C339,126.8,332.9,126.8,326.2,126.8z M307,126.5c4.3,0,10.9,0.1,19.2,0.1
		s15,0,19.2-0.1c-4.3,0-10.9-0.1-19.2-0.1S311.3,126.5,307,126.5z"/>
	<path class="st2" d="M350.9,133.8c0,0.1-11,0.2-24.7,0.2s-24.7-0.1-24.7-0.2s11-0.2,24.7-0.2S350.9,133.7,350.9,133.8z"/>
	<path class="st2" d="M326.2,134.1c-6.6,0-12.8,0-17.5-0.1c-7.4-0.1-7.4-0.1-7.4-0.3s0-0.2,7.4-0.3c4.7,0,10.9-0.1,17.5-0.1
		s12.8,0,17.5,0.1c7.4,0.1,7.4,0.1,7.4,0.3s0,0.2-7.4,0.3C339,134.1,332.9,134.1,326.2,134.1z M307,133.8c4.3,0,10.9,0.1,19.2,0.1
		s14.9,0,19.2-0.1c-4.3-0.1-10.9-0.1-19.2-0.1S311.3,133.8,307,133.8z"/>
	<path class="st2" d="M384.9,155.7c0,0.1-11.1,0.2-24.7,0.2s-24.7-0.1-24.7-0.2s11-0.2,24.7-0.2S384.9,155.6,384.9,155.7z"/>
	<path class="st2" d="M360.2,156.1c-6.6,0-12.8,0-17.5-0.1c-7.4-0.1-7.4-0.1-7.4-0.3s0-0.2,7.4-0.3c4.7,0,10.9-0.1,17.5-0.1
		s12.8,0,17.5,0.1c7.4,0.1,7.4,0.1,7.4,0.3s0,0.2-7.4,0.3C373,156,366.8,156.1,360.2,156.1z M341,155.7c4.3,0,10.9,0.1,19.2,0.1
		s14.9,0,19.2-0.1c-4.3,0-10.9-0.1-19.2-0.1S345.3,155.7,341,155.7z"/>
	<path class="st2" d="M370.3,141.1c0,0.1-11,0.2-24.7,0.2s-24.7-0.1-24.7-0.2s11-0.2,24.7-0.2S370.3,141,370.3,141.1z"/>
	<path class="st2" d="M345.6,141.4c-6.6,0-12.8,0-17.5-0.1c-7.4-0.1-7.4-0.1-7.4-0.3s0-0.2,7.4-0.3c4.7,0,10.9-0.1,17.5-0.1
		s12.8,0,17.5,0.1c7.4,0.1,7.4,0.1,7.4,0.3s0,0.2-7.4,0.3C358.4,141.4,352.2,141.4,345.6,141.4z M326.3,141.1
		c4.3,0,10.9,0.1,19.2,0.1s14.9,0,19.2-0.1c-4.3,0-10.9-0.1-19.2-0.1S330.6,141.1,326.3,141.1L326.3,141.1z"/>
	<path class="st2" d="M430.6,141.1c0,0.1-11,0.2-24.7,0.2s-24.7-0.1-24.7-0.2s11.1-0.2,24.7-0.2S430.6,141,430.6,141.1z"/>
	<path class="st2" d="M405.9,141.4c-6.6,0-12.8,0-17.5-0.1c-7.4-0.1-7.4-0.1-7.4-0.3s0-0.2,7.4-0.3c4.7,0,10.9-0.1,17.5-0.1
		s12.8,0,17.5,0.1c7.4,0.1,7.4,0.1,7.4,0.3s0,0.2-7.4,0.3C418.7,141.4,412.5,141.4,405.9,141.4z M386.7,141.1
		c4.3,0,10.9,0.1,19.2,0.1s14.9,0,19.2-0.1c-4.3,0-10.9-0.1-19.2-0.1S391,141.1,386.7,141.1z"/>
	<path class="st2" d="M409.6,126.5c0,0.1-11.1,0.2-24.7,0.2s-24.7-0.1-24.7-0.2s11-0.2,24.7-0.2S409.6,126.4,409.6,126.5z"/>
	<path class="st2" d="M384.9,126.8c-6.6,0-12.8,0-17.5,0c-7.4-0.1-7.4-0.1-7.4-0.3s0-0.2,7.4-0.3c4.7,0,10.9-0.1,17.5-0.1
		s12.8,0,17.5,0.1c7.4,0.1,7.4,0.1,7.4,0.3s0,0.2-7.4,0.3C397.7,126.8,391.5,126.8,384.9,126.8z M365.7,126.5
		c4.3,0,10.9,0.1,19.2,0.1s15,0,19.2-0.1c-4.3,0-10.9-0.1-19.2-0.1S370,126.5,365.7,126.5z"/>
	<path class="st2" d="M443.7,155.7c0,0.1-11,0.2-24.7,0.2s-24.7-0.1-24.7-0.2s11-0.2,24.7-0.2S443.7,155.6,443.7,155.7z"/>
	<path class="st2" d="M419,156.1c-6.6,0-12.8,0-17.5-0.1c-7.4-0.1-7.4-0.1-7.4-0.3s0-0.2,7.4-0.3c4.7,0,10.9-0.1,17.5-0.1
		s12.8,0,17.5,0.1c7.4,0.1,7.4,0.1,7.4,0.3s0,0.2-7.4,0.3C431.8,156,425.6,156.1,419,156.1z M399.8,155.7c4.3,0,10.9,0.1,19.2,0.1
		s14.9,0,19.2-0.1c-4.3,0-10.9-0.1-19.2-0.1S404.1,155.7,399.8,155.7L399.8,155.7z"/>
	<path class="st4" d="M436.9,133.8c0,0.1-17.2,0.2-38.3,0.2s-38.3-0.1-38.3-0.2s17.2-0.2,38.3-0.2S436.9,133.7,436.9,133.8z"/>
	<path class="st4" d="M398.6,134.1c-10.2,0-19.9,0-27.1-0.1c-8.4,0-10.6-0.1-11.1-0.1l0,0c-0.2,0-0.2-0.1-0.2-0.1s0-0.1,0.1-0.1l0,0
		c0.6-0.1,2.8-0.1,11.2-0.1c7.2,0,16.9-0.1,27.1-0.1s19.9,0,27.1,0.1c8.4,0,10.6,0.1,11.2,0.1l0,0c0.2,0,0.2,0.1,0.2,0.1
		s0,0.1-0.2,0.1l0,0c-0.6,0.1-2.8,0.1-11.2,0.1C418.4,134.1,408.8,134.1,398.6,134.1z M368.7,133.8c7.1,0,17.9,0.1,29.9,0.1
		s22.8,0,29.9-0.1c-7.1-0.1-17.9-0.1-29.9-0.1S375.7,133.8,368.7,133.8L368.7,133.8z"/>
	<path class="st2" d="M302.1,111.9c0,0.1-4,0.2-9,0.2s-9-0.1-9-0.2s4-0.2,9-0.2S302.1,111.8,302.1,111.9z"/>
	<path class="st2" d="M293.1,112.2c-2.4,0-4.6,0-6.3-0.1c-2.7-0.1-2.7-0.1-2.7-0.3s0-0.2,2.7-0.3c1.7,0,3.9-0.1,6.3-0.1
		s4.6,0,6.3,0.1c2.7,0.1,2.7,0.1,2.7,0.3s0,0.2-2.7,0.3C297.8,112.2,295.5,112.2,293.1,112.2z M286.1,111.9c1.5,0,4,0.1,7,0.1
		s5.4,0,7-0.1c-1.6,0-4-0.1-7-0.1S287.7,111.8,286.1,111.9L286.1,111.9z"/>
	<path class="st2" d="M302.1,199.6c0,0.1-4,0.2-9,0.2s-9-0.1-9-0.2s4-0.2,9-0.2S302.1,199.4,302.1,199.6z"/>
	<path class="st2" d="M293.1,199.9c-2.4,0-4.6,0-6.3-0.1c-2.7-0.1-2.7-0.1-2.7-0.3s0-0.2,2.7-0.3c1.7,0,3.9-0.1,6.3-0.1
		s4.6,0,6.3,0.1c2.7,0.1,2.7,0.1,2.7,0.3s0,0.2-2.7,0.3C297.8,199.9,295.5,199.9,293.1,199.9z M286.1,199.6c1.6,0.1,4,0.1,7,0.1
		s5.4,0,7-0.1c-1.6,0-4-0.1-7-0.1S287.7,199.5,286.1,199.6L286.1,199.6z"/>
	<path class="st2" d="M310.9,141.1c0,0.1-4,0.2-9,0.2s-9-0.1-9-0.2s4-0.2,9-0.2S310.9,141,310.9,141.1z"/>
	<path class="st2" d="M302,141.4c-2.4,0-4.6,0-6.3-0.1c-2.7-0.1-2.7-0.1-2.7-0.3s0-0.2,2.7-0.3c1.7,0,4-0.1,6.3-0.1s4.6,0,6.3,0.1
		c2.8,0.1,2.8,0.1,2.8,0.3s0,0.2-2.8,0.3C306.6,141.4,304.4,141.4,302,141.4z M295,141.1c1.6,0,4,0.1,7,0.1s5.4,0,7-0.1
		c-1.6,0-4-0.1-7-0.1S296.6,141.1,295,141.1z"/>
	<path class="st15" d="M454.5,141.1c0,0.1-4,0.2-9,0.2s-9-0.1-9-0.2s4-0.2,9-0.2S454.5,141,454.5,141.1z"/>
	<path class="st8" d="M445.5,141.4c-2.4,0-4.6,0-6.3-0.1c-2.8-0.1-2.8-0.1-2.8-0.3s0-0.2,2.8-0.3c1.7,0,3.9-0.1,6.3-0.1
		s4.6,0,6.3,0.1c2.7,0.1,2.7,0.1,2.7,0.3s0,0.2-2.7,0.3C450.1,141.4,447.9,141.4,445.5,141.4z M438.5,141.1c1.6,0,4,0.1,7,0.1
		s5.4,0,7-0.1c-1.6,0-4-0.1-7-0.1S440.1,141.1,438.5,141.1L438.5,141.1z"/>
	<path class="st15" d="M327,170.3c0,0.1-7.5,0.2-16.8,0.2s-16.8-0.1-16.8-0.2s7.5-0.2,16.8-0.2S327,170.2,327,170.3z"/>
	<path class="st8" d="M310.3,170.6c-4.5,0-8.7,0-11.9-0.1c-5-0.1-5-0.1-5-0.3s0-0.2,5-0.3c3.2,0,7.4-0.1,11.9-0.1s8.7,0,11.8,0.1
		c5,0.1,5,0.1,5,0.3s0,0.2-5,0.3C318.9,170.6,314.7,170.6,310.3,170.6z M297.2,170.3c2.9,0,7.4,0.1,13.1,0.1s10.1,0,13.1-0.1
		c-2.9-0.1-7.4-0.1-13.1-0.1S300.1,170.2,297.2,170.3L297.2,170.3z"/>
	<path class="st2" d="M365.8,170.3c0,0.1-7.5,0.2-16.8,0.2s-16.8-0.1-16.8-0.2s7.5-0.2,16.8-0.2S365.8,170.2,365.8,170.3z"/>
	<path class="st2" d="M349,170.6c-4.5,0-8.7,0-11.9-0.1c-5-0.1-5-0.1-5-0.3s0-0.2,5-0.3c3.2,0,7.4-0.1,11.9-0.1s8.7,0,11.8,0.1
		c5,0.1,5,0.1,5,0.3s0,0.2-5,0.3C357.7,170.6,353.5,170.6,349,170.6z M335.9,170.3c2.9,0,7.4,0.1,13.1,0.1s10.1,0,13.1-0.1
		c-2.9-0.1-7.4-0.1-13.1-0.1S338.9,170.2,335.9,170.3L335.9,170.3z"/>
	<path class="st2" d="M350.9,177.6c0,0.1-11,0.2-24.7,0.2s-24.7-0.1-24.7-0.2s11-0.2,24.7-0.2S350.9,177.5,350.9,177.6z"/>
	<path class="st2" d="M326.2,177.9c-6.6,0-12.8,0-17.5-0.1c-7.4-0.1-7.4-0.1-7.4-0.3s0-0.2,7.4-0.3c4.7,0,10.9-0.1,17.5-0.1
		s12.8,0,17.5,0.1c7.4,0.1,7.4,0.1,7.4,0.3s0,0.2-7.4,0.3C339,177.9,332.9,177.9,326.2,177.9z M307,177.6c4.3,0,10.9,0.1,19.2,0.1
		s14.9,0,19.2-0.1c-4.3,0-10.9-0.1-19.2-0.1S311.3,177.6,307,177.6z"/>
	<path class="st2" d="M350.9,184.9c0,0.1-11,0.2-24.7,0.2s-24.7-0.1-24.7-0.2s11-0.2,24.7-0.2S350.9,184.8,350.9,184.9z"/>
	<path class="st2" d="M326.2,185.2c-6.6,0-12.8,0-17.5-0.1c-7.4-0.1-7.4-0.1-7.4-0.3s0-0.2,7.4-0.3c4.7,0,10.9-0.1,17.5-0.1
		s12.8,0,17.5,0.1c7.4,0.1,7.4,0.1,7.4,0.3s0,0.2-7.4,0.3C339,185.2,332.9,185.2,326.2,185.2z M307,184.9c4.3,0,10.9,0.1,19.2,0.1
		s15,0,19.2-0.1c-4.3,0-10.9-0.1-19.2-0.1S311.3,184.9,307,184.9z"/>
	<path class="st2" d="M370.3,192.2c0,0.1-11,0.2-24.7,0.2s-24.7-0.1-24.7-0.2s11-0.2,24.7-0.2S370.3,192.1,370.3,192.2z"/>
	<path class="st2" d="M345.6,192.5c-6.6,0-12.8,0-17.5-0.1c-7.4-0.1-7.4-0.1-7.4-0.3s0-0.2,7.4-0.3c4.7,0,10.9-0.1,17.5-0.1
		s12.8,0,17.5,0.1c7.4,0.1,7.4,0.1,7.4,0.3s0,0.2-7.4,0.3C358.4,192.5,352.2,192.5,345.6,192.5z M326.3,192.2
		c4.3,0,10.9,0.1,19.2,0.1s14.9,0,19.2-0.1c-4.3,0-10.9-0.1-19.2-0.1S330.6,192.2,326.3,192.2L326.3,192.2z"/>
	<path class="st2" d="M430.6,192.2c0,0.1-11,0.2-24.7,0.2s-24.7-0.1-24.7-0.2s11.1-0.2,24.7-0.2S430.6,192.1,430.6,192.2z"/>
	<path class="st2" d="M405.9,192.5c-6.6,0-12.8,0-17.5-0.1c-7.4-0.1-7.4-0.1-7.4-0.3s0-0.2,7.4-0.3c4.7,0,10.9-0.1,17.5-0.1
		s12.8,0,17.5,0.1c7.4,0.1,7.4,0.1,7.4,0.3s0,0.2-7.4,0.3C418.7,192.5,412.5,192.5,405.9,192.5z M386.7,192.2
		c4.3,0,10.9,0.1,19.2,0.1s15,0,19.2-0.1c-4.3,0-10.9-0.1-19.2-0.1S391,192.2,386.7,192.2L386.7,192.2z"/>
	<path class="st2" d="M409.6,177.6c0,0.1-11.1,0.2-24.7,0.2s-24.7-0.1-24.7-0.2s11-0.2,24.7-0.2S409.6,177.5,409.6,177.6z"/>
	<path class="st2" d="M384.9,177.9c-6.6,0-12.8,0-17.5-0.1c-7.4-0.1-7.4-0.1-7.4-0.3s0-0.2,7.4-0.3c4.7,0,10.9-0.1,17.5-0.1
		s12.8,0,17.5,0.1c7.4,0.1,7.4,0.1,7.4,0.3s0,0.2-7.4,0.3C397.7,177.9,391.5,177.9,384.9,177.9z M365.7,177.6
		c4.3,0,10.9,0.1,19.2,0.1s14.9,0,19.2-0.1c-4.3,0-10.9-0.1-19.2-0.1S370,177.6,365.7,177.6L365.7,177.6z"/>
	<path class="st4" d="M436.9,184.9c0,0.1-17.2,0.2-38.3,0.2s-38.3-0.1-38.3-0.2s17.2-0.2,38.3-0.2S436.9,184.8,436.9,184.9z"/>
	<path class="st4" d="M398.6,185.2c-10.2,0-19.9,0-27.1-0.1c-8.4,0-10.6-0.1-11.2-0.1l0,0l0,0c-0.2,0-0.2-0.1-0.2-0.1s0-0.1,0.1-0.1
		l0,0c0.6-0.1,2.8-0.1,11.2-0.2c7.2,0,16.9-0.1,27.1-0.1s19.9,0,27.1,0.1c8.4,0.1,10.6,0.1,11.2,0.2l0,0c0.2,0,0.2,0.1,0.2,0.1
		s0,0.1-0.2,0.1l0,0l0,0c-0.6,0.1-2.8,0.1-11.2,0.1C418.4,185.2,408.8,185.2,398.6,185.2z M368.6,184.9c7.1,0,17.9,0.1,29.9,0.1
		s22.9,0,29.9-0.1c-7.1,0-17.9-0.1-29.9-0.1S375.7,184.9,368.6,184.9L368.6,184.9z"/>
	<path class="st2" d="M310.9,192.2c0,0.1-4,0.2-9,0.2s-9-0.1-9-0.2s4-0.2,9-0.2S310.9,192.1,310.9,192.2z"/>
	<path class="st2" d="M302,192.5c-2.4,0-4.6,0-6.3-0.1c-2.7-0.1-2.7-0.1-2.7-0.3s0-0.2,2.7-0.3c1.7,0,3.9-0.1,6.3-0.1s4.6,0,6.3,0.1
		c2.8,0.1,2.8,0.1,2.8,0.3s0,0.2-2.8,0.3C306.6,192.5,304.4,192.5,302,192.5z M295,192.2c1.6,0,4,0.1,7,0.1s5.4,0,7-0.1
		c-1.6,0-4-0.1-7-0.1S296.6,192.2,295,192.2L295,192.2z"/>
	<path class="st15" d="M454.5,192.2c0,0.1-4,0.2-9,0.2s-9-0.1-9-0.2s4-0.2,9-0.2S454.5,192.1,454.5,192.2z"/>
	<path class="st8" d="M445.5,192.5c-2.4,0-4.6,0-6.3-0.1c-2.8-0.1-2.8-0.1-2.8-0.3s0-0.2,2.8-0.3c1.7,0,3.9-0.1,6.3-0.1
		s4.6,0,6.3,0.1c2.7,0.1,2.7,0.1,2.7,0.3s0,0.2-2.7,0.3C450.1,192.5,447.9,192.5,445.5,192.5z M438.5,192.2c1.6,0,4,0.1,7,0.1
		s5.4,0,7-0.1c-1.6,0-4-0.1-7-0.1S440.1,192.2,438.5,192.2L438.5,192.2z"/>
	<rect x="504.2" y="62.1" class="st10" width="67.1" height="47.8"/>
	<path class="st0" d="M571.8,69.2c0,0.2-15.1,0.3-33.8,0.3s-33.8-0.1-33.8-0.3s15.2-0.3,33.8-0.3S571.8,69,571.8,69.2z"/>
	<path class="st0" d="M509.7,65.7c0.1,0.5-0.3,1-0.8,1c-0.5,0.1-1-0.3-1-0.8c-0.1-0.5,0.3-1,0.8-1h0.1
		C509.2,64.9,509.6,65.2,509.7,65.7z"/>
	<path class="st0" d="M513,65.7c0.1,0.5-0.3,1-0.8,1c-0.5,0.1-1-0.3-1-0.8c-0.1-0.5,0.3-1,0.8-1h0.1C512.6,64.9,513,65.2,513,65.7z"
		/>
	<path class="st0" d="M516.2,65.7c0,0.5-0.4,0.8-0.9,0.8c-0.4,0.1-0.8-0.2-0.9-0.7c-0.1-0.4,0.2-0.8,0.7-0.9c0.1,0,0.2,0,0.3,0
		C515.8,64.9,516.2,65.2,516.2,65.7z"/>
	<path class="st0" d="M529,88.3c0,2.9-2.1,4.6-5.5,4.6h-3.6v4.3h-1.4V83.7h5C526.9,83.7,529,85.4,529,88.3z M527.6,88.3
		c0-2.2-1.4-3.4-4.1-3.4h-3.6v6.7h3.6C526.2,91.6,527.6,90.4,527.6,88.3z"/>
	<path class="st0" d="M543.3,83.7v13.5h-1.4V91h-8.4v6.2h-1.4V83.7h1.4v6h8.4v-6H543.3z"/>
	<path class="st0" d="M558.3,88.3c0,2.9-2.1,4.6-5.5,4.6h-3.6v4.3h-1.4V83.7h5C556.2,83.7,558.3,85.4,558.3,88.3z M556.9,88.3
		c0-2.2-1.4-3.4-4.1-3.4h-3.6v6.7h3.6C555.5,91.6,556.9,90.4,556.9,88.3z"/>
	<rect x="208.6" y="50.2" class="st8" width="41.2" height="29.3"/>
	<path class="st0" d="M222.5,63.8v5.8h-1.4v-2.4h-2.6v2.4h-1.3v-5.8h1.3v2.3h2.6v-2.3H222.5z"/>
	<path class="st0" d="M225.1,64.9h-1.9v-1.1h5.1v1.1h-1.9v4.7H225L225.1,64.9L225.1,64.9z"/>
	<path class="st0" d="M236.4,63.8h1.4v4.7h2.9v1.1h-4.3L236.4,63.8L236.4,63.8z"/>
	<path class="st0" d="M234.3,69.7v-3.5l-1.7,2.9H232l-1.7-2.8v3.4H229v-5.8h1.1l2.2,3.6l2.1-3.6h1.1v5.8
		C235.5,69.7,234.3,69.7,234.3,69.7z"/>
	<path class="st0" d="M250.1,54.6c0,0.1-9.3,0.1-20.7,0.1s-20.8,0-20.8-0.1s9.3-0.1,20.8-0.1S250.1,54.5,250.1,54.6z"/>
	<path class="st0" d="M212,52.4c0,0.3-0.2,0.6-0.5,0.6s-0.6-0.2-0.6-0.5s0.2-0.6,0.5-0.6c0,0,0,0,0.1,0
		C211.7,51.9,212,52.1,212,52.4z"/>
	<path class="st0" d="M214,52.4c0,0.3-0.2,0.6-0.5,0.6s-0.6-0.2-0.6-0.5s0.2-0.6,0.5-0.6c0,0,0,0,0.1,0
		C213.7,51.9,214,52.1,214,52.4z"/>
	<path class="st0" d="M216,52.4c0,0.3-0.2,0.6-0.5,0.6s-0.6-0.2-0.6-0.5s0.2-0.6,0.5-0.6c0,0,0,0,0.1,0
		C215.7,51.9,216,52.1,216,52.4z"/>
	<path class="st10" d="M120.4,112.1c-0.1-5,3.9-9.1,8.9-9.2c0.2,0,0.3,0,0.5,0c2.4-0.1,4.7,0.8,6.4,2.5l-0.8,0.8
		c-1.5-1.4-3.5-2.2-5.6-2.2c-4.4,0-8,3.6-8,8s3.6,8,8,8c2.1,0.1,4.1-0.7,5.6-2.2l0.8,0.9c-1.7,1.7-4,2.6-6.4,2.5
		c-5,0.2-9.2-3.7-9.4-8.7C120.4,112.4,120.4,112.3,120.4,112.1z"/>
	<path class="st10" d="M138.7,118.8l0.6-1c1.6,1.5,3.8,2.3,6,2.3c3.6,0,5.2-1.6,5.2-3.6c0-5.4-11.3-2.2-11.3-8.9
		c0-2.6,2-4.8,6.4-4.8c1.9,0,3.9,0.6,5.5,1.6l-0.5,1.1c-1.5-1-3.2-1.5-5-1.5c-3.5,0-5.1,1.6-5.1,3.6c0,5.4,11.3,2.2,11.3,8.8
		c0,2.6-2,4.8-6.5,4.8C142.9,121.3,140.5,120.5,138.7,118.8z"/>
	<path class="st10" d="M154.5,118.8l0.6-1c1.6,1.5,3.8,2.3,6,2.3c3.6,0,5.2-1.6,5.2-3.6c0-5.4-11.3-2.2-11.3-8.9
		c0-2.6,2-4.8,6.4-4.8c1.9,0,3.9,0.6,5.5,1.6l-0.5,1.1c-1.5-1-3.2-1.5-5-1.5c-3.5,0-5.1,1.6-5.1,3.6c0,5.4,11.3,2.2,11.3,8.8
		c0,2.6-2.1,4.8-6.5,4.8C158.7,121.3,156.3,120.5,154.5,118.8z"/>
	<path class="st10" d="M183.1,135.7c0,0,0-0.3,0-1s0-1.6,0-2.8c0-2.4,0-6-0.1-10.5c0-9.1-0.1-22.1-0.1-38l0.3,0.3l-80.8,0.1l0,0
		l0.3-0.3c0,18.5,0,36.2,0,52.2l-0.3-0.3l58.1,0.1l16.7,0.1h4.4h1.1L183.1,135.7l-0.4-0.1h-1.1l0,0l-21,0.1l-58.3,0.1H102v-0.3
		c0-16,0-33.6,0-52.2V83h0.3l80.8,0.1h0.2v0.2c-0.1,16-0.1,29-0.1,38.1c0,4.5-0.1,8-0.1,10.4c0,1.2,0,2.1,0,2.7
		S183.1,135.7,183.1,135.7z"/>
	<path class="st10" d="M183.1,91.2c0,0.2-18.1,0.3-40.4,0.3s-40.4-0.1-40.4-0.3s18.1-0.3,40.4-0.3S183.1,91.1,183.1,91.2z"/>
	<path class="st10" d="M108.3,87.4c0,0.5-0.5,0.9-1,0.9l0,0c-0.5-0.1-0.8-0.5-0.7-1c0.1-0.5,0.5-0.8,1-0.7
		C108,86.6,108.3,87,108.3,87.4z"/>
	<path class="st10" d="M111.9,87.4c0,0.5-0.5,0.9-1,0.9c-0.5,0.1-0.9-0.3-1-0.8s0.3-0.9,0.8-1c0.1,0,0.1,0,0.2,0
		C111.4,86.5,111.9,86.9,111.9,87.4z"/>
	<path class="st10" d="M115.5,87.4c0.1,0.5-0.3,1-0.9,1.1c-0.5,0.1-1-0.3-1.1-0.9c-0.1-0.5,0.3-1,0.9-1.1h0.1
		C115,86.5,115.4,86.9,115.5,87.4L115.5,87.4z"/>
</g>
</svg>
