<?xml version="1.0" encoding="utf-8"?>
<!-- Generator: Adobe Illustrator 23.0.1, SVG Export Plug-In . SVG Version: 6.00 Build 0)  -->
<svg version="1.1" id="Layer_1" xmlns="http://www.w3.org/2000/svg" xmlns:xlink="http://www.w3.org/1999/xlink" x="0px" y="0px"
	 viewBox="0 0 3500 2000" style="enable-background:new 0 0 3500 2000;" xml:space="preserve">
<style type="text/css">
	.st0{display:none;}
	.st1{display:inline;fill:#EBEBEB;}
	.st2{fill:#E0E0E0;}
	.st3{fill:#F5F5F5;}
	.st4{fill:#FFFFFF;}
	.st5{fill:none;stroke:#FBFBFB;stroke-width:0.25;stroke-miterlimit:10;}
	.st6{fill:#EBEBEB;}
	.st7{fill:#263238;}
	.st8{fill:#936754;}
	.st9{fill:#7C5142;}
	.st10{fill:#455A64;}
	.st11{opacity:0.6;}
	.st12{opacity:0.3;}
	.st13{fill:#00858E;}
	.st14{fill:#FAFAFA;}
	.st15{fill:#EB996E;}
	.st16{fill:#D1734A;}
	.st17{fill:#FFBE9D;}
	.st18{opacity:0.2;}
	.st19{fill:#B78876;}
	.st20{fill:#FFC93C;}
	.st21{fill:none;stroke:#FFFFFF;stroke-width:5.000000e-02;stroke-miterlimit:10;}
</style>
<g id="Background_Simple" class="st0">
	<path class="st1" d="M1962,1614.9c-9.5-21.9-24.7-41.7-45-54.3s-45.8-17.4-68.7-10.5c-57.7,17.4-78.1,97.4-135.8,115
		c-38.3,11.7-79.6-8.8-119.3-3.6c-39.4,5.1-56.6,38.2-65.6,76.9c-4.3,18.4-0.7,38.2,7.4,56.5c15.5,34.8,46.3,60.4,83.1,70.1
		l21.5,3.6c67.3,11.3,136.5,5.1,200.4-18.7c6.3-2.4,12.2-4.7,17.5-7.1c42.4-18.8,79-51.5,99.4-93.2
		C1977.3,1708,1980.4,1657.5,1962,1614.9z"/>
	<path class="st1" d="M1719.2,1543.5c-13.2-0.6-26.4,8.1-31.1,20.5c-4.7,12.4-0.5,27.6,9.9,35.9c10.4,8.3,26.1,9,37.2,1.7
		c11.1-7.3,16.6-22,13.1-34.8C1744.8,1554,1732.5,1544.1,1719.2,1543.5"/>
</g>
<g>
	<g id="Background_Complete">
		<g>
			<g>
				<g>
					<g>
						<g>
							<rect x="2175.7" y="105.9" class="st2" width="313.3" height="454.2"/>
						</g>
					</g>
				</g>
			</g>
			<g>
				<g>
					<g>
						<g>
							<rect x="2160.1" y="105.9" class="st3" width="313.3" height="454.2"/>
						</g>
					</g>
				</g>
			</g>
			<g>
				<g>
					<g>
						<g>
							<g>
								<rect x="2198.9" y="154.9" class="st4" width="235.3" height="355.7"/>
							</g>
						</g>
					</g>
				</g>
				<g>
					<g>
						<g>
							<g>
								<g>
									<path class="st2" d="M2434.7,510.6c0,0,0-0.4,0-1.8c0-1.3,0-2.7,0-4.9c0-4.5,0-11.1,0-19.6c0-16.9,0-41.9,0-73.1
										c0-62.8-0.4-151.5-0.4-256.3l0.9,0.9c-71.8,0-151.5,0-235.3,0l0,0l0.9-0.9c0,134.2,0,258.1,0,355.7l-0.9-0.9
										c71.8,0,130.6,0.4,171.6,0.4c20.5,0,36.5,0,47.2,0c5.3,0,9.4,0,12.5,0C2433.3,510.6,2434.7,510.6,2434.7,510.6s-1.3,0-4,0
										c-2.7,0-7.1,0-12.5,0c-10.7,0-26.7,0-47.2,0c-41,0-99.8,0-172,0.4h-0.9v-0.9c0-98.1,0-221.5,0-355.7v-0.9h0.9l0,0
										c83.8,0,163.6,0,235.3,0h0.9v0.9c0,104.7-0.4,193.9-0.4,256.7c0,31.2,0,56.2,0,73.1c0,8.5,0,14.7,0,19.2c0,2.2,0,4,0,4.9
										C2434.7,510.1,2434.7,510.6,2434.7,510.6z"/>
								</g>
							</g>
						</g>
					</g>
				</g>
			</g>
			<g>
				<g>
					<g>
						<g>
							<g>
								<path class="st5" d="M2423.5,157.2"/>
							</g>
						</g>
					</g>
				</g>
			</g>
			<g>
				<g>
					<g>
						<g>
							<g>
								<path class="st2" d="M2474.3,105.9c0,0-1.8,3.1-5.8,8c-3.6,4.9-8.9,11.6-14.7,18.7c-5.8,7.1-11.6,13.4-15.6,17.8
									c-4,4.5-6.7,7.1-6.7,7.1s2.2-3.1,5.8-8c4-4.9,9.4-11.6,15.2-18.3c5.8-7.1,10.7-13.4,15.2-18.3
									C2471.7,108.6,2474.3,105.5,2474.3,105.9z"/>
							</g>
						</g>
					</g>
				</g>
			</g>
			<g>
				<g>
					<g>
						<g>
							<g>
								<path class="st4" d="M2436,509.7c11.6,18.7,25.4,35.7,41,51.3"/>
							</g>
						</g>
					</g>
				</g>
				<g>
					<g>
						<g>
							<g>
								<g>
									<path class="st2" d="M2477,561c0,0-3.1-2.2-7.1-6.7s-9.8-10.3-15.6-17.4s-10.3-13.8-13.8-19.2c-3.1-4.9-4.9-8.5-4.9-8.5
										s2.2,2.7,5.8,7.6c3.6,4.9,8.5,11.6,13.8,18.7c5.8,7.1,11.1,13.4,15.2,17.8C2474.8,558.3,2477,561,2477,561z"/>
								</g>
							</g>
						</g>
					</g>
				</g>
			</g>
			<g>
				<g>
					<g>
						<g>
							<g>
								<path class="st4" d="M2160.1,559.6c13.8-16.9,27.2-33.9,41-50.8"/>
							</g>
						</g>
					</g>
				</g>
				<g>
					<g>
						<g>
							<g>
								<g>
									<path class="st2" d="M2201.1,508.8c0.4,0.4-8.5,12-20.1,25.9c-11.1,13.8-20.9,25-21.4,25s8.5-12,20.1-25.9
										S2200.7,508.8,2201.1,508.8z"/>
								</g>
							</g>
						</g>
					</g>
				</g>
			</g>
			<g>
				<g>
					<g>
						<g>
							<g>
								<path class="st2" d="M2160.1,105.9c0.4-0.4,9.4,10.3,20.1,23.6c10.7,13.4,19.2,24.5,18.7,25c-0.4,0.4-9.4-10.3-20.1-23.6
									C2168.2,117,2159.7,105.9,2160.1,105.9z"/>
							</g>
						</g>
					</g>
				</g>
			</g>
			<g>
				<g>
					<g>
						<g>
							<rect x="2282.2" y="227.1" class="st2" width="78.9" height="223.7"/>
						</g>
					</g>
				</g>
			</g>
		</g>
		<g>
			<g>
				<g>
					<g>
						<g>
							<polygon class="st2" points="1685.9,56.4 1685.9,351.9 1262,351.9 1246.4,58.7 							"/>
						</g>
					</g>
				</g>
			</g>
			<g>
				<g>
					<g>
						<g>
							<rect x="1246.9" y="58.7" class="st4" width="423.9" height="292.4"/>
						</g>
					</g>
				</g>
				<g>
					<g>
						<g>
							<path class="st2" d="M1672.5,353.3h-427.9V56.9h427.9V353.3z M1248.7,349.3h419.8V60.9h-419.8V349.3z"/>
						</g>
					</g>
				</g>
			</g>
			<g>
				<g>
					<g>
						<g>
							<g>
								<rect x="1292.4" y="95.2" class="st4" width="332" height="219.7"/>
							</g>
						</g>
					</g>
				</g>
				<g>
					<g>
						<g>
							<g>
								<g>
									<path class="st2" d="M1624.4,95.2c0,0-0.4,0-1.8,0c-1.3,0-2.7,0-4.9,0c-4,0-10.3,0-18.3,0c-16,0-39.2,0-68.6,0.4
										c-58.4,0-141.3,0.4-238.9,0.4l0.9-0.9c0,67.3,0,141.7,0,219.7l0,0l-0.9-0.9c125.2,0,240.7,0,332,0l-0.9,0.9
										c0-66.9,0.4-121.7,0.4-160c0-19.2,0-33.9,0-44.1c0-4.9,0-8.9,0-11.6C1624.4,96.5,1624.4,95.2,1624.4,95.2s0,1.3,0,4
										c0,2.7,0,6.7,0,11.6c0,10.3,0,25,0,44.1c0,38.3,0.4,93.2,0.4,160.5v0.9h-0.9c-91.4,0-206.8,0-332,0h-0.9v-0.9l0,0
										c0-78,0-152.4,0-219.7v-0.9h0.9c98.1,0,181,0.4,239.8,0.4c29.4,0,52.1,0,68.2,0.4c8,0,13.8,0,17.8,0c1.8,0,3.6,0,4.5,0
										C1624,95.2,1624.4,95.2,1624.4,95.2z"/>
								</g>
							</g>
						</g>
					</g>
				</g>
			</g>
			<g>
				<g>
					<g>
						<g>
							<g>
								<path class="st2" d="M1246.4,57.8c0-0.4,3.1,1.8,7.1,4.9c4.5,3.1,10.3,7.6,16.5,12.5c6.2,4.9,12,9.8,16,13.4
									c4,3.6,6.2,5.8,6.2,6.2c-0.4,0.4-10.7-8-23.2-18.3C1256.7,66.7,1246.4,58.2,1246.4,57.8z"/>
							</g>
						</g>
					</g>
				</g>
			</g>
			<g>
				<g>
					<g>
						<g>
							<g>
								<path class="st2" d="M1670.3,58.7c0.4,0.4-9.8,8.9-22.3,19.2c-12.5,10.3-23.2,17.8-23.6,17.4c-0.4-0.4,9.8-8.9,22.3-19.2
									C1659.6,66.2,1670.3,58.2,1670.3,58.7z"/>
							</g>
						</g>
					</g>
				</g>
			</g>
			<g>
				<g>
					<g>
						<g>
							<g>
								<path class="st4" d="M1670.3,351c-15.6-12.9-31.6-25.4-47.2-38.3"/>
							</g>
						</g>
					</g>
				</g>
				<g>
					<g>
						<g>
							<g>
								<g>
									<path class="st2" d="M1623.1,312.7c0.4-0.4,11.1,7.6,24.1,18.3c12.9,10.7,23.2,19.6,23.2,20.1c-0.4,0.4-11.1-7.6-24.1-18.3
										C1632.9,322.1,1622.6,313.1,1623.1,312.7z"/>
								</g>
							</g>
						</g>
					</g>
				</g>
			</g>
			<g>
				<g>
					<g>
						<g>
							<g>
								<path class="st2" d="M1246.4,351c-0.4-0.4,9.4-8.9,22.3-18.7c12.5-9.8,23.2-17.4,23.2-16.9c0,0.4-9.4,8.9-22.3,18.7
									C1257.6,343.9,1246.9,351.5,1246.4,351z"/>
							</g>
						</g>
					</g>
				</g>
			</g>
			<g>
				<g>
					<g>
						<g>
							<rect x="1359.7" y="163.4" class="st2" width="209" height="73.5"/>
						</g>
					</g>
				</g>
			</g>
		</g>
		<g>
			<g>
				<g>
					<g>
						<g>
							<path class="st3" d="M897,1779.9c4-16.5-6.7-33-18.7-45c-12-12-26.7-22.7-33-38.3c-10.3-25.4,3.1-58.8-14.3-80.2
								c-10.3-12.5-29-16.5-37.9-29.9c-4.9-7.1-6.2-15.6-8.5-24.1c-9.8-42.3-31.2-82-61.5-113.2c-1.8,37.9,6.7,75.8,24.5,109.2
								c7.1,13.4,16,26.3,18.3,41.4c4,24.5-9.4,49.5-3.6,73.5c7.1,27.2,37.9,45.5,39.7,73.5c1.3,23.6-19.2,45-17.4,68.6
								c0.9,10.3,5.3,19.6,10.7,28.1c18.7,30.3,45.9,51.3,86.9,50.4l50.4,1.3L897,1779.9z"/>
						</g>
					</g>
				</g>
			</g>
			<g>
				<g>
					<g>
						<g>
							<g>
								<g>
									<g>
										<path class="st2" d="M942.5,1897.2c0,0,4.9,0.9,13.8-0.4c4.5-0.9,10.3-1.8,16.5-4c6.2-2.2,13.4-5.8,20.1-11.1
											c3.1-2.7,6.7-6.2,8-11.1c1.8-4.5,1.8-9.8,2.2-15.2c0.4-5.3,0-10.7,0.9-16c0.9-5.3,3.1-11.1,6.2-16
											c5.8-10.3,15.6-20.5,18.7-34.3c3.6-13.8,0.9-29-1.8-44.1c-2.2-15.2-4.9-31.6,0.9-47.2c5.3-15.6,16-29.9,21.8-47.7
											c5.3-17.8,2.7-37,3.6-56.2c0.4-9.4,2.2-19.2,6.2-28.1c4-8.9,9.8-17.4,13.8-26.7c8.9-19.2,10.3-40.6,12.5-61.5
											c1.3-10.7,2.2-21.4,3.6-32.1c1.3-10.7,2.2-21.8,5.3-32.1c3.1-10.7,7.6-20.9,12-31.2c2.2-5.3,4.5-10.3,5.8-16.5
											c0.9-5.8,1.3-11.6,1.3-17.4c0.4-11.6,0-23.2-1.3-34.8c-1.3-11.6-3.6-23.2-4.9-34.8c0-0.9,0-1.3-0.4-1.8l-0.4-2.2l-2.2,0.9
											c-10.7,5.3-20.1,13.4-26.7,23.2c-7.1,9.4-12.5,20.1-16.5,30.8c-8.5,21.8-11.1,44.1-15.2,66c-4,21.4-9.4,42.8-20.5,61.1
											c-5.3,8.9-12,17.4-17.8,25.9c-5.8,8.9-10.7,18.3-12.5,28.5c-2.7,21.4,8.9,39.7,6.7,58.8c-0.9,9.4-4.5,18.3-8.9,26.3
											s-9.8,15.6-14.7,23.2c-4.9,7.6-9.8,15.2-13.4,23.2s-5.3,16.9-6.2,25.4c-1.3,16.9,1.3,33,0,48.1c-0.9,15.2-6.2,29-12,41.4
											s-12.5,23.6-18.3,34.3c-2.7,5.3-5.3,10.7-7.6,16c-2.2,5.3-3.1,10.7-4.5,16c-1.8,10.3-1.3,20.1,0,28.5
											c2.2,17.4,8.9,29.4,14.7,36.5c1.3,1.8,2.7,3.1,4,4.5s2.2,2.2,3.1,2.7C941.1,1896.7,942.5,1897.2,942.5,1897.2
											c0-0.4-4-2.7-9.8-9.4c-5.3-7.1-11.6-19.2-13.8-36.1c-0.9-8.5-1.3-17.8,0.4-28.1c0.9-4.9,2.2-10.3,4.5-15.6
											c2.2-5.3,4.9-10.3,7.6-16c5.8-10.7,12.5-21.8,18.7-34.3c6.2-12.5,11.6-26.3,12.5-41.9c1.3-15.6-1.3-31.6,0-48.1
											c0.4-8.5,2.2-16.5,5.8-24.5c3.6-8,8-15.2,13.4-22.7c4.9-7.6,10.3-15.2,15.2-23.2c4.5-8,8.5-17.4,9.4-27.2
											c2.2-20.1-9.4-38.8-6.7-58.4c1.3-9.8,6.2-18.7,12-27.6c5.8-8.5,12.5-16.9,17.8-25.9c11.1-18.7,16.9-40.1,20.9-62
											c4-21.8,7.1-44.1,15.2-65.5c4-10.7,8.9-20.9,16-29.9c6.7-8.9,15.6-16.9,25.9-21.8l-2.2-1.3c0,0.4,0,1.3,0.4,2.2
											c1.3,11.6,3.6,23.2,4.9,34.8c1.3,11.6,2.2,22.7,1.3,34.3c-0.4,5.8-0.4,11.6-1.3,16.9c-1.3,5.3-3.6,10.7-5.3,15.6
											c-4.5,10.3-8.9,20.5-12,31.6c-3.6,10.7-4.5,21.8-5.3,32.5c-1.3,10.7-2.2,21.4-3.6,32.1c-2.2,20.9-3.6,42.3-12,60.6
											c-4,8.9-9.8,17.4-13.8,26.7c-4.5,9.4-6.2,19.2-6.7,29c-0.9,19.6,1.8,38.3-3.6,55.7c-4.9,16.9-16,31.6-21.4,47.7
											c-5.8,16.5-3.1,33.4-0.9,48.6c2.7,15.2,4.9,29.9,1.8,43.2c-2.7,13.4-12.5,23.2-18.3,33.9c-3.1,5.3-5.3,11.1-6.2,16.9
											c-0.9,5.8-0.9,11.1-0.9,16.5c-0.4,5.3-0.4,10.3-2.2,14.7c-1.3,4.5-4.5,7.6-7.6,10.7c-6.7,5.3-13.4,8.9-19.6,11.1
											c-6.2,2.2-11.6,3.6-16,4.5c-4.5,0.9-8,0.9-10.3,0.9C943.4,1897.2,942.5,1897.2,942.5,1897.2z"/>
									</g>
								</g>
							</g>
						</g>
					</g>
					<g>
						<g>
							<g>
								<g>
									<g>
										<path class="st2" d="M1097.6,1304.4c0,0,0,0.4-0.4,1.3c-0.4,1.3-0.4,2.7-0.9,4.5c-0.9,4-2.2,9.8-4,17.4
											c-1.8,7.6-6.2,16-10.3,26.3c-4,10.3-8,22.3-11.6,35.7c-3.6,13.4-7.1,28.5-10.7,44.1c-3.6,16-7.1,33-15.6,49
											c-4,8-8.5,16.5-12.5,25.4c-3.6,8.9-5.8,19.2-7.1,29c-2.2,20.1-5.8,40.1-10.7,60.6c-9.8,41-19.2,80.7-27.6,116.3
											c-8.9,35.7-16.5,67.7-23.2,94.9c-6.2,26.7-11.6,48.6-15.6,64.2c-1.8,7.6-3.1,13.4-4,17.4c-0.4,1.8-0.9,3.6-0.9,4.5
											s-0.4,1.8-0.4,1.8s0.4-0.4,0.4-1.3c0.4-1.3,0.9-2.7,1.3-4.5c1.3-4,2.7-9.8,4.5-17.4c4-15.2,9.4-37,16.5-63.7
											c6.7-27.2,15.2-59.3,24.1-94.5c8.5-35.7,18.3-74.9,28.1-116.3c4.5-20.5,8-41.4,10.3-61.1c1.3-9.8,3.1-19.2,6.7-28.1
											c3.6-8.9,8-16.9,12-25.4c8.9-16.5,12.5-33.9,15.6-49.9c3.6-16,6.7-30.8,10.3-44.1c3.6-13.4,7.6-25.4,11.1-35.7
											c3.6-10.3,8-18.7,9.8-26.7c1.8-7.6,2.7-13.4,3.6-17.8c0.4-1.8,0.4-3.6,0.9-4.5C1097.6,1305.3,1097.6,1304.4,1097.6,1304.4
											z"/>
									</g>
								</g>
							</g>
						</g>
					</g>
				</g>
				<g>
					<g>
						<g>
							<g>
								<g>
									<path class="st2" d="M951,1897.2c32.5-19.6,41.9-78.9,28.1-114.5c-13.8-35.7-37.9-67.7-41.9-106.1
										c-3.1-29,6.2-59.3-0.4-87.8c-9.4-38.3-47.2-68.2-46.8-107.9c0-22.3,12.5-43.2,11.6-65.5c-1.3-27.2-22.3-48.6-35.7-72.6
										c-20.1-36.5-21.4-79.8-28.5-121.2c-7.1-41-22.7-85.1-59.7-105.2c-5.3,34.8-14.3,58.8-11.1,106.1
										c1.3,16.9,20.9,49.5,24.1,86.5c1.8,22.3,3.1,44.6,4.5,66.9c1.3,21.8,3.1,43.7,10.7,64.2c6.2,15.6,15.6,29.4,20.1,45.5
										c8.5,30.3-2.2,62.8,4.5,93.6c5.8,25.9,24.1,48.1,27.6,74.4c5.3,37-18.3,75.3-5.8,110.5c6.2,17.4,20.5,31.2,25,49.5
										c3.1,13.8,0,29,2.7,42.8c4.9,22.7,48.1,40.1,71.3,38.3"/>
								</g>
							</g>
						</g>
					</g>
					<g>
						<g>
							<g>
								<g>
									<g>
										<path class="st6" d="M786.9,1152c0,0,0,0.9,0,1.8c0,1.3,0.4,3.6,0.9,5.8c0.9,4.9,1.8,12.5,3.6,21.8
											c1.8,9.8,7.1,20.5,11.1,33.4c4.5,12.9,8.5,28.1,12.5,45s7.1,35.2,10.7,55.3c3.6,20.1,7.1,41.9,17.4,62.8
											c4.5,10.3,9.8,20.9,13.8,32.1c4,11.1,5.8,23.2,7.1,35.2c1.8,25,5.3,50.4,10.3,76.2c10.3,51.7,20.1,101.2,29,145.7
											c9.4,44.6,17.8,84.7,25,118.6c7.1,33.4,12.9,61.1,17.4,80.2c2.2,9.4,3.6,16.5,4.9,21.8c0.4,2.2,0.9,4,1.3,5.8
											c0.4,1.3,0.4,1.8,0.4,1.8s0-0.9-0.4-1.8c-0.4-1.3-0.4-3.1-0.9-5.8c-0.9-5.3-2.2-12.5-4.5-21.8c-4-19.2-9.4-46.4-16-80.2
											c-7.1-33.9-15.2-74-24.5-119c-8.9-45-18.7-94-29-145.7c-4.9-25.9-8-51.3-10.3-76.2c-1.3-12.5-3.1-24.5-7.6-36.1
											c-4-11.6-9.4-21.8-13.8-32.1c-9.8-20.5-13.8-41.9-17.4-62c-3.6-20.1-6.7-38.8-10.7-55.7c-4-16.9-8.5-32.1-12.9-45
											c-4.5-12.9-9.4-23.6-11.6-33.4c-1.8-9.4-3.1-16.9-4-21.8c-0.4-2.2-0.9-4-0.9-5.8C786.9,1152.4,786.9,1152,786.9,1152z"/>
									</g>
								</g>
							</g>
						</g>
					</g>
				</g>
			</g>
		</g>
		<g>
			<g>
				<g>
					<g>
						<g>
							<g>
								<path class="st3" d="M2489.5,1840.1c-81.6-48.6-106.5-147.5-110.1-238c-0.4-15.2-3.6-30.8,2.7-44.6
									c6.2-13.8,22.3-24.1,36.1-18.7c11.6,4.5,17.4,16.9,24.5,27.6c9.4,13.8,22.7,24.5,37.9,31.2c9.8,4.5,22.3,6.2,31.2,0.4
									c12.5-8,12.5-26.3,11.6-41c-2.2-28.1-4.5-55.7-6.7-83.8c-1.3-15.2-2.2-30.3,1.3-45c3.6-14.7,12.9-28.5,26.7-33.4
									s32.1,1.8,36.1,16.5c1.8,5.8,0.9,12.5,1.8,18.7c0.9,6.2,4.5,12.9,10.3,14.3c6.2,1.3,11.6-3.6,16-8
									c14.3-16.5,23.6-36.5,31.6-56.6c8.5-20.1,16.5-40.6,29.4-58.4c12.9-17.4,31.2-32.1,52.6-34.8c21.4-2.7,45.5,8.9,52.1,29.4
									c7.1,20.9-3.6,43.2-16,61.1c-17.8,26.7-40.1,51.3-64.6,71.8c-4.5,3.6-9.4,7.6-10.7,13.4c-2.7,10.3,7.6,19.6,17.8,21.8
									c11.6,3.1,23.6,0.9,35.2,1.3c11.6,0.4,25,4.9,29.9,15.6c7.1,14.7-4.5,32.1-16,43.2c-23.6,22.7-51.3,41.9-81.1,55.3
									c-10.7,4.9-22.3,9.4-30.3,17.8c-8.5,8.5-12.5,22.3-6.7,32.5c6.2,10.3,20.1,12.5,31.6,9.4c11.6-3.1,21.4-10.3,32.1-15.2
									c20.1-9.4,46.8-9.8,61.1,7.1c9.4,11.1,11.6,27.2,8,41.4c-3.6,14.3-11.6,26.7-20.1,38.8c-30.3,41-70,75.3-116.8,95.8
									C2582.2,1846.3,2538.5,1853.9,2489.5,1840.1"/>
							</g>
						</g>
					</g>
				</g>
			</g>
			<g>
				<g>
					<g>
						<g>
							<g>
								<g>
									<path class="st2" d="M2504.2,1844.6c0.4-36.1-5.8-16,4.5-62.4c9.8-46.4,25-96.7,42.8-148.4c4.5-12.9,8.9-25.9,13.4-38.3
										c4.5-12.5,8.5-25,13.8-37c9.8-24.1,20.9-46.4,32.5-66.9c11.6-20.9,22.7-40.1,33.9-57.9c11.1-17.8,21.4-34.8,31.6-49
										c20.5-29.4,39.7-51.3,53.5-65.5c6.7-7.1,12.5-12.5,16-16.5c1.8-1.8,3.1-3.1,4.5-4c0.9-0.9,1.3-1.3,1.3-1.3
										s-0.4,0.4-1.3,1.3c-0.9,0.9-2.2,2.7-4,4.5c-3.6,3.6-8.9,9.4-16,16.5c-13.4,14.7-32.5,36.5-52.6,66
										c-10.3,14.7-20.5,31.2-31.6,49.5c-10.7,17.8-22.3,37.4-33.4,58.4c-11.1,20.9-22.3,42.8-32.1,66.9c-4.9,12-9.4,24.1-13.4,37
										c-4.5,12.5-8.9,25.4-13.4,38.3c-17.4,51.7-32.5,102.1-42.8,148.4c-10.3,46.4-4,26.3-4.9,62"/>
								</g>
							</g>
						</g>
					</g>
				</g>
			</g>
			<g>
				<g>
					<g>
						<g>
							<g>
								<g>
									<path class="st2" d="M2579.1,1557.5c0,0-0.9-2.2-1.8-6.2c-0.9-4-2.7-10.3-4-17.4c-3.1-14.7-7.1-35.2-11.1-57.9
										s-8-43.2-11.6-57.9c-1.8-7.1-3.1-13.4-4-17.4s-1.3-6.2-1.3-6.2s0.9,2.2,2.2,6.2c1.3,4,3.1,9.8,4.9,17.4
										c4,14.7,8.5,35.2,12.5,57.9c4,22.3,7.6,42.8,10.3,57.9c1.3,7.1,2.2,12.9,3.1,17.4
										C2579.1,1555.3,2579.1,1557.5,2579.1,1557.5z"/>
								</g>
							</g>
						</g>
					</g>
				</g>
			</g>
			<g>
				<g>
					<g>
						<g>
							<g>
								<g>
									<path class="st2" d="M2769.4,1507.6c0,0-2.7,0.9-7.6,1.3c-4.9,0.9-12,1.8-20.9,3.6c-17.4,3.1-41.4,8.5-67.7,15.6
										s-49.9,14.3-66.4,20.1c-8.5,2.7-15.2,5.3-20.1,7.1c-4.9,1.8-7.1,2.7-7.6,2.2c0,0,2.2-1.3,7.1-3.6c4.5-2.2,11.1-4.9,19.6-8
										c16.9-6.2,40.1-13.8,66.4-20.9c26.3-7.1,50.4-12,68.2-14.7c8.9-1.3,16-2.2,20.9-2.7
										C2766.3,1507.6,2769,1507.2,2769.4,1507.6z"/>
								</g>
							</g>
						</g>
					</g>
				</g>
			</g>
			<g>
				<g>
					<g>
						<g>
							<g>
								<g>
									<path class="st2" d="M2510.9,1778.2c0,0-0.4-0.9-1.3-2.2c-0.9-1.8-2.2-4-4-6.7c-3.1-5.8-8-14.3-13.4-25
										c-11.1-21.4-25-51.3-40.1-84.7c-15.2-33.4-29-63.3-39.7-85.1c-4.9-10.7-9.4-19.2-12.5-25.4c-1.3-2.7-2.2-4.9-3.6-7.1
										c-0.9-1.8-0.9-2.7-0.9-2.7s0.4,0.9,1.3,2.2c0.9,1.8,2.2,4,4,6.7c3.1,5.8,8,14.3,13.4,25c11.1,21.4,25,51.3,40.1,84.7
										c15.2,33.4,29,63.3,39.7,85.1c5.3,10.7,9.4,19.2,12.5,25.4c1.3,2.7,2.2,4.9,3.6,7.1
										C2510.4,1777.3,2510.9,1778.2,2510.9,1778.2z"/>
								</g>
							</g>
						</g>
					</g>
				</g>
			</g>
			<g>
				<g>
					<g>
						<g>
							<g>
								<g>
									<path class="st2" d="M2760.9,1676.5c0,0-0.9,0.4-2.7,1.3s-4.5,1.8-7.1,3.1c-6.7,2.7-15.6,6.2-26.7,10.7
										c-22.7,9.4-53.5,22.3-87.8,37c-34.3,14.7-65.5,27.2-88.2,36.1c-11.6,4.5-20.5,8-27.2,10.3c-3.1,0.9-5.3,1.8-7.6,2.7
										c-1.8,0.4-2.7,0.9-2.7,0.9s0.9-0.4,2.7-1.3c1.8-0.9,4.5-1.8,7.1-3.1c6.7-2.7,15.6-6.2,26.7-10.7
										c22.7-9.4,53.5-22.3,87.8-37c34.3-14.7,65.5-27.2,88.2-36.1c11.6-4.5,20.5-8,27.2-10.3c3.1-0.9,5.3-1.8,7.6-2.7
										C2760,1677,2760.9,1676.5,2760.9,1676.5z"/>
								</g>
							</g>
						</g>
					</g>
				</g>
			</g>
		</g>
	</g>
	<g id="Floor">
		<g>
			<g>
				<path class="st7" d="M2715.9,1885.6c0,0.4-437.7,1.3-977.4,1.3c-540.2,0-977.9-0.4-977.9-1.3c0-0.4,437.7-1.3,977.9-1.3
					C2278.2,1884.7,2715.9,1885.1,2715.9,1885.6z"/>
			</g>
		</g>
	</g>
	<g>
		<path class="st7" d="M2344.6,294c-32.1-13.8-69.1,5.8-83.3,27.6c-14.3,21.8-20.5,47.7-24.5,73.5c-8.5,53-9.8,107-4,160.5
			c1.8,15.6,4.9,33,16.9,43.2c11.6,9.8,28.1,10.7,42.8,8c13.4-2.2,26.7-7.6,35.7-17.8c13.4-16,11.6-39.2,10.3-60.2
			c-4.9-71.8,2.7-144,22.3-213"/>
	</g>
	<g>
		<path class="st7" d="M2275.1,323c14.7-29,59.3-45,95.4-35.2c30.3,8,62.8,39.2,65.1,71.3c3.1,46.4-21.8,94-7.1,138.2
			c17.4,51.3,81.1,76.2,97.6,127.9c6.7,21.4,4,45-7.1,64.2c-5.8,9.8-14.7,19.2-25.9,20.9c-14.3,2.2-27.2-7.1-38.3-16
			c-30.3-24.1-61.1-49-82-81.6c-25-38.3-34.3-84.7-34.8-130.6c-0.4-45.5,7.6-90.9,16-135.5"/>
	</g>
	<path class="st8" d="M2402.1,379.6c4.9-38.3-22.7-73.1-62-77.1c-36.5-3.6-69.1,23.6-74.4,60.2c-4.9,32.1-8.9,64.2-8.9,75.8
		c0.4,35.2,20.9,49,29.4,53c1.8,0.9,7.1,2.2,9.4,2.2l0,0c0,0,0,0,0,0.4l-8,40.6c-3.6,26.3,11.1,50.4,37.9,53.9
		c26.7,4,47.2-16.5,51.3-43.2L2402.1,379.6z"/>
	<g>
		<g>
			<g>
				<path class="st9" d="M2296.1,493.7c0,0,22.7,5.3,53.9-8c0,0-13.4,29-56.2,18.7L2296.1,493.7z"/>
			</g>
		</g>
	</g>
	<g>
		<path class="st7" d="M2293.4,306.9c3.6,26.7,24.5,50.8,50.4,58.4c-0.9-3.1-1.3-6.7-2.2-9.8c11.6,22.7,31.6,40.6,55.7,49.5
			c16.5-28.1,10.3-67.3-13.8-88.7c-24.1-21.4-63.7-22.7-89.6-3.1"/>
	</g>
	<g>
		<g>
			<path class="st7" d="M2521.6,652.8c-0.4,0,3.6-3.1,6.7-10.7c3.6-7.1,6.2-19.6,3.6-33.9c-1.3-7.1-4.5-14.7-8.5-22.3
				c-4.5-7.6-10.3-14.7-16.9-21.8c-13.4-14.3-31.2-26.7-47.2-42.8c-8-8-15.2-16.9-19.6-26.7s-7.1-20.1-8.5-29.9
				c-2.7-19.6-1.3-37.4,0-52.1c1.3-14.7,2.2-26.7,3.1-34.8c0.4-4,0.9-7.1,0.9-9.4c0.4-2.2,0.4-3.1,0.4-3.1s0,1.3,0,3.1
				c0,2.2-0.4,5.3-0.4,9.4c-0.4,8.5-1.3,20.5-2.2,34.8c-0.9,14.7-1.8,32.5,0.9,51.7c1.3,9.8,4,19.6,8.5,29
				c4.5,9.4,11.1,18.3,19.2,26.3c16,16,33.4,28.5,47.2,42.8c6.7,7.1,12.5,14.7,16.9,22.3c4.5,7.6,7.1,15.6,8.5,22.7
				c2.7,14.7-0.4,27.2-4.5,34.8c-1.8,3.6-4,6.2-5.3,8C2522.5,651.9,2521.6,652.8,2521.6,652.8z"/>
		</g>
	</g>
	<g>
		<path class="st10" d="M2555.9,1747l20.9,103.4l40.1,77.1c3.1,5.3,0.4,12.5-5.3,15.2l0,0c-3.1,1.3-6.7,1.3-9.8-0.4
			c-19.2-11.6-89.6-53.9-90.5-62c-1.3-8.9-29.4-107.9-29.4-107.9L2555.9,1747z"/>
	</g>
	<g class="st11">
		<path class="st4" d="M2612.1,1942.6l-102.1-69.5l0.9,4.5c0.9,3.6,3.1,7.1,6.2,9.4c8.5,6.2,31.6,22.7,84.7,54.8
			C2604.9,1944,2608.9,1944,2612.1,1942.6L2612.1,1942.6z"/>
	</g>
	<g class="st11">
		<g>
			<path class="st4" d="M2523.4,1835.2c3.1,1.3,4.9,4.9,3.6,8c-0.9,3.1-4.9,4.9-8,3.6c-3.1-1.3-5.3-5.3-4-8.5
				C2516.2,1835.7,2520.7,1833.4,2523.4,1835.2"/>
		</g>
	</g>
	<g>
		<g>
			<path class="st7" d="M2578.2,1903c0.4,0,1.8-5.8,7.1-10.3c5.3-4.5,11.1-4.5,11.1-4.9c0-0.4-1.3-0.9-4-0.4c-2.7,0-5.8,1.3-8.9,3.6
				c-3.1,2.2-4.9,5.3-5.3,8C2577.7,1901.2,2577.7,1903,2578.2,1903z"/>
		</g>
	</g>
	<g>
		<g>
			<path class="st7" d="M2588.9,1915c0.4,0.4,3.1-3.6,8-6.7c4.9-2.7,9.8-3.1,9.8-3.6c0-0.4-5.3-1.8-10.7,1.8
				C2590.2,1909.6,2588,1915,2588.9,1915z"/>
		</g>
	</g>
	<g>
		<g>
			<path class="st7" d="M2560.4,1888.2c0.4,0.4,4.5-5.8,12-10.7c7.1-4.9,14.7-6.2,14.3-7.1c0-0.4-8-0.4-15.6,5.3
				C2563,1880.7,2559.9,1888.2,2560.4,1888.2z"/>
		</g>
	</g>
	<g>
		<g>
			<path class="st7" d="M2551.5,1857.5c0.4,0.4,5.3-3.1,12.9-4.9c7.1-2.2,13.8-1.3,13.8-2.2c0-0.4-6.2-2.2-14.3,0
				C2555.9,1852.1,2551,1857,2551.5,1857.5z"/>
		</g>
	</g>
	<g>
		<g>
			<path class="st7" d="M2544.3,1827.2c0.4,0.4,5.3-4,13.4-5.8c8-1.8,14.3,0.9,14.3,0.4s-1.3-1.3-4-2.2c-2.7-0.9-6.7-1.3-10.7-0.4
				c-4.5,0.9-7.6,2.7-9.8,4.5C2545.2,1825.4,2544.3,1826.7,2544.3,1827.2z"/>
		</g>
	</g>
	<g>
		<g>
			<path class="st7" d="M2556.4,1815.6c0,0,0-1.3-0.9-4c-0.9-2.2-2.2-5.8-5.3-9.4c-1.3-1.8-3.1-4-6.2-4.5c-1.8-0.4-3.6,0.4-4.5,2.2
				c-0.9,1.8-0.9,3.6-0.4,4.9c1.8,6.7,8.5,11.6,16,10.7s13.4-6.7,15.2-12.9c0.4-1.8,0.4-3.6-0.9-4.9c-1.3-1.8-3.6-1.8-4.9-1.3
				c-3.1,1.3-4.5,3.6-5.8,4.9c-3.1,3.6-4.5,7.1-5.3,9.8c-0.9,2.7-0.9,4-0.9,4c0.4,0,1.3-5.8,7.1-12.5c1.3-1.8,3.1-3.6,5.3-4.5
				c0.9-0.4,2.2,0,2.7,0.4c0.4,0.9,0.4,2.2,0.4,3.6c-1.3,5.3-6.7,10.3-12.9,11.1s-12.5-3.6-13.8-8.9c-0.4-1.3-0.4-2.7,0.4-3.6
				c0.4-0.9,1.3-1.3,2.7-1.3c2.2,0.4,4,2.2,5.3,3.6C2555,1810.2,2555.9,1816,2556.4,1815.6z"/>
		</g>
	</g>
	<g>
		<g>
			<path class="st10" d="M2276,1757.7l4.9,84.2c0,0-83.8,33.4-84.7,49l163.6-3.6l-2.2-131.5L2276,1757.7z"/>
		</g>
		<g class="st11">
			<g>
				<path class="st10" d="M2331.3,1833.9c3.1,0.9,5.3,4.5,4.9,7.6c-0.4,3.1-4,5.3-7.6,4.9c-3.1-0.9-6.2-4.9-4.9-8
					c0.9-3.1,5.3-5.8,8.5-4"/>
			</g>
		</g>
		<g class="st11">
			<path class="st4" d="M2360.2,1887.4l-0.9-13.4l-156.4,8.5c0,0-7.1,3.1-6.2,8.5L2360.2,1887.4z"/>
		</g>
		<g>
			<g>
				<path class="st7" d="M2278.2,1841c0,0.9,4,0.9,8,3.6c4,2.2,6.2,5.8,6.7,5.3c0.9,0-0.4-4.9-5.3-8
					C2283.1,1839.2,2278.2,1840.6,2278.2,1841z"/>
			</g>
		</g>
		<g>
			<g>
				<path class="st7" d="M2261.3,1848.6c0,0.9,3.1,2.2,6.2,5.3c2.7,3.1,3.6,6.7,4.5,6.7c0.9,0,1.3-4.5-2.2-8.5
					C2266.2,1848.1,2261.3,1847.7,2261.3,1848.6z"/>
			</g>
		</g>
		<g>
			<g>
				<path class="st7" d="M2251.9,1869.5c0.9,0,1.8-4-0.4-8c-2.2-4.5-5.8-5.8-6.2-5.3c-0.4,0.4,2.2,3.1,3.6,6.7
					C2251.1,1866,2251.5,1869.5,2251.9,1869.5z"/>
			</g>
		</g>
		<g>
			<g>
				<path class="st7" d="M2279.6,1821.8c0.4,0.9,4-0.4,8.5-0.4c4.5,0,8,1.3,8.5,0.9c0.4-0.4-3.1-3.6-8.5-3.6
					C2282.7,1818.7,2279.1,1821.4,2279.6,1821.8z"/>
			</g>
		</g>
	</g>
	<g class="st12">
		<polygon points="2277.3,1774.6 2277.8,1789.3 2358.5,1787.1 2358,1773.3 		"/>
	</g>
	<g>
		<g>
			<path class="st7" d="M2278.7,1804.9c0,0.4,3.1,0.9,8-0.4c2.7-0.4,5.3-1.3,8.5-2.7c1.3-0.9,3.1-1.8,4.5-2.7
				c0.9-0.4,1.8-0.9,2.2-1.8c0.9-0.9,1.3-3.1,0.4-4.5c-0.9-1.3-2.2-1.8-3.6-1.8c-1.3,0-2.2,0.4-3.1,0.4c-1.8,0.4-3.6,1.3-4.9,1.8
				c-3.1,1.3-5.8,3.6-7.6,4.9C2279.6,1801.8,2278.2,1804.9,2278.7,1804.9c0.4,0.4,2.2-2.2,5.8-5.3c1.8-1.3,4.5-3.1,7.1-4.5
				c1.3-0.4,3.1-1.3,4.5-1.3c1.8-0.4,3.1-0.4,3.6,0c0,0.4,0,0.4,0,0.9c-0.4,0.4-0.9,0.9-1.8,1.3c-1.3,0.9-2.7,1.8-4.5,2.7
				c-2.7,1.3-5.3,2.7-8,3.1C2281.8,1804,2278.7,1804.5,2278.7,1804.9z"/>
		</g>
	</g>
	<g>
		<g>
			<path class="st7" d="M2279.6,1805.8c0.4,0,1.8-2.7,1.8-8c0-2.7-0.4-5.8-1.3-8.9c-0.4-1.8-1.3-3.1-2.2-4.9c-0.9-1.8-2.2-3.6-5.3-4
				c-1.8,0-3.1,1.3-3.6,2.2c-0.4,1.3-0.4,2.2-0.9,3.1c-0.4,1.8,0,3.6,0,5.3c0.4,3.6,2.2,6.2,3.6,8.5c3.1,4,6.7,4.9,6.7,4.9
				c0.4-0.4-2.7-1.8-4.9-5.8c-1.3-1.8-2.2-4.5-2.7-7.6c0-1.3,0-3.1,0-4.9s0.9-3.1,1.3-3.1c0.9,0,2.2,1.3,3.1,2.7
				c0.9,1.3,1.8,3.1,2.2,4.5c0.9,3.1,1.8,5.8,1.8,8C2280,1802.7,2279.6,1805.8,2279.6,1805.8z"/>
		</g>
	</g>
	<g>
		<path class="st7" d="M2403,857.8c0,0,48.1,104.3,55.3,134.6c7.1,30.3,141.3,834.8,141.3,834.8l-123.5,7.6l-167.6-786.7l67.3,781.3
			l-121.2,10.3c0,0-91.8-825.4-87.8-848.6c5.8-35.2,35.7-136.4,35.7-136.4L2403,857.8z"/>
	</g>
	<g>
		<g>
			<path class="st10" d="M2308.1,1042.8c0,0,0,0.9-0.9,1.3c-0.9,0.4-3.1,0.9-4.9-0.4c-1.8-1.3-2.7-4-3.1-7.1
				c-0.4-3.1-0.9-6.2-1.8-9.8c-2.2-14.3-5.3-33.9-8.5-55.7s-6.2-41.4-8-55.7c-0.9-6.7-1.8-12.5-2.2-16.9c-0.4-4-0.4-6.2-0.4-6.2
				s0.4,2.2,1.3,6.2c0.9,4.5,1.8,10.3,2.7,16.9c2.2,14.3,5.3,33.9,8.5,55.7s6.2,41.4,8,55.7c0.4,3.6,0.9,6.7,1.3,9.8
				c0.4,2.7,0.9,5.3,2.2,6.7c1.3,1.3,3.1,1.3,4,0.9C2308.1,1043.2,2308.1,1042.8,2308.1,1042.8z"/>
		</g>
	</g>
	<g>
		<g>
			<path class="st10" d="M2295.6,908.6c0,0,0-0.9,1.3-1.3c0.9-0.4,2.7-1.3,4.9-0.9s4.9,2.2,5.3,5.3c0.4,2.7-0.9,6.7-4,8
				c-3.1,1.8-6.7,0.4-8.9-1.3c-2.2-2.2-2.7-4.9-2.2-7.1c0.9-4.5,4-5.3,4-4.9c0.4,0.4-2.2,1.8-2.7,5.3c0,1.8,0.4,4,1.8,5.3
				c1.8,1.3,4.5,2.2,6.7,0.9c2.2-0.9,3.1-3.6,3.1-5.8c-0.4-2.2-1.8-3.6-3.6-4C2297.8,906.8,2295.6,908.6,2295.6,908.6z"/>
		</g>
	</g>
	<path class="st8" d="M2083.5,396.9l-75.8-116.8l0,0l-23.2-38.3c0,0-6.7-38.3-10.3-49.5c-6.7-22.3-8.9-21.8-11.1-20.5
		c-6.7,3.1,10.3,39.7,2.2,33.9c-8-5.8-15.6-46.8-22.3-43.2c-8.9,4.9,9.8,42.8,11.1,45.9c1.3,3.1-3.6,5.3-4.5,2.2
		c-1.3-4.5-18.3-49.9-27.2-45.5c-4.9,2.7,0.4,10.7,0.4,10.7s18.7,41.4,14.7,43.7c-4.5,2.2-16-21.8-19.6-30.3
		c-3.6-8.5-8.9-10.3-11.1-5.3c-1.8,3.1,8.5,29,12,37.4c3.6,8,13.8,30.8,0,23.6c-13.8-6.7-27.6-7.1-31.2-4.5
		c-3.6,2.7-1.3,8.5,3.6,8.5c4,0,10.3,2.2,15.2,4c4,1.3,7.6,3.6,10.7,6.2c3.6,3.1,6.7,6.2,9.4,8.5l18.7,38.8l0,0l82.9,162.7
		l173.4,143.5l43.7-78.9L2083.5,396.9z"/>
	<g>
		<path class="st8" d="M2531.4,1048.6c0.9,3.6,2.2,7.6,3.6,12.5c0.9,4,1.3,8.5,0.9,12.5c-0.4,4.9-1.8,12-3.1,15.6
			c-2.2,4.5,2.2,8.9,6.2,7.1c4-2.2,9.8-13.8,10.3-29.4c0.4-15.6,15.6,3.6,20.9,10.7c5.8,7.1,24.1,27.6,27.6,27.6
			c5.3,0,6.2-5.8,0.4-12.5c-5.8-6.7-21.8-28.5-17.8-31.2c3.6-2.7,32.1,33,32.1,33s4.9,8.5,9.4,5.3c8-5.8-25-41.4-28.1-45
			c-2.2-2.2,1.8-5.3,4-3.1c2.2,2.7,27.6,36.5,35.7,30.8c6.2-4.5-26.7-29.9-28.1-39.7c-1.3-9.8,23.2,21.8,29,17.4
			c2.2-1.8,3.6-3.1-12.9-19.2c-8-8-39.2-31.6-39.2-31.6l-66-216.6l-82,1.3L2531.4,1048.6z"/>
	</g>
	<g>
		<path class="st13" d="M2278.2,535.1L2278.2,535.1c0,0-26.7-10.3-39.2-17.4l-129.7-98.5l-57.9,77.6c0,0,148,133.7,150.6,132.8
			S2278.2,535.1,2278.2,535.1z"/>
	</g>
	<g>
		<path class="st13" d="M2288,534.7l-9.8,0.4c-28.5,0.9-53,19.6-62,46.4c-9.8,29.9-9.4,39.7-16,61.5c-16.5,53,12.9,117.7,12.9,117.7
			l-10.3,93.6l200.1,3.6l10.3-112.8l37.4-168.9c0,0-8.5-36.1-40.1-39.2C2394.1,535.6,2288,534.7,2288,534.7z"/>
	</g>
	<g>
		<path class="st13" d="M2416.4,540c0,0,47.2,0,62,54.4c14.3,54.8,43.2,198.3,43.2,198.3l-90,27.2l-48.1-197
			c-3.1-11.1-4.9-22.7-4-34.3C2381.2,568.5,2388.3,542.7,2416.4,540z"/>
	</g>
	<g>
		<polygon class="st13" points="2274.2,537.3 2289.8,507 2316.6,522.2 2316.6,535.1 2325,522.2 2388.3,507 2388.3,544.5 
			2314.3,552.5 		"/>
	</g>
	<g>
		<g>
			<path class="st7" d="M2224.8,583.2c0,0-0.9,2.2-3.1,6.2c-1.3,1.8-2.7,4.5-4,7.6c-1.3,3.1-3.1,6.2-4.9,10.3c-1.8,4-3.6,8-4.9,12.5
				c-1.8,4.5-3.1,9.4-4.5,14.7c-2.7,10.7-4.9,22.3-5.8,35.2c-0.9,12.5,0,24.5,0.9,35.7c0.9,5.3,1.3,10.7,2.7,15.2
				c0.9,4.9,2.2,9.4,3.1,12.9c0.9,4,2.2,7.6,3.6,10.7c0.9,3.1,2.2,5.8,3.1,8c1.8,4.5,2.7,6.7,2.7,6.7s-1.3-2.2-3.1-6.2
				c-0.9-2.2-2.2-4.9-3.1-8c-1.3-3.1-2.7-6.7-3.6-10.7c-1.3-4-2.7-8.5-3.6-13.4c-1.3-4.9-1.8-9.8-2.7-15.6
				c-1.3-11.1-1.8-23.2-1.3-35.7c0.9-12.9,3.1-24.5,5.8-35.2c1.8-5.3,3.1-10.3,4.9-14.7s3.6-8.9,5.3-12.5c1.8-4,3.6-7.1,4.9-10.3
				s3.1-5.3,4.5-7.1C2223,585.5,2224.3,583.2,2224.8,583.2z"/>
		</g>
	</g>
	<g>
		<g>
			<path class="st7" d="M2311.7,520c0.4,0-0.4,3.6-2.2,9.4c-1.8,5.3-4.5,13.4-7.1,21.4c-0.4,1.3-0.9,2.7-1.3,4l-0.4,1.3l-1.3-0.9
				c-6.7-4-12.5-8.9-16-12.5c-3.6-3.6-5.3-6.2-5.3-6.2c0.4-0.4,8.9,8.5,22.3,16.5l-1.8,0.4c0.4-1.3,0.9-2.7,1.3-4
				c3.1-8.5,5.8-16,8-21.4C2309.9,523.1,2311.7,519.5,2311.7,520z"/>
		</g>
	</g>
	<g>
		<g>
			<path class="st7" d="M2363.8,547.6c0,0.4-3.6,1.8-9.4,4c-5.8,2.2-14.3,5.3-23.6,8.5l-1.3,0.4v-1.3c0-0.4,0-0.9,0-1.3
				c-1.3-9.8-2.7-19.2-3.6-25.4c-0.9-6.7-0.9-10.7-0.9-10.7c0.4,0,1.3,4,2.2,10.3c1.3,6.7,2.7,15.6,4,25.4c0,0.4,0,0.9,0,1.3
				l-1.3-0.9c9.4-3.1,17.8-5.8,23.6-7.6C2359.8,548.5,2363.4,547.6,2363.8,547.6z"/>
		</g>
	</g>
	<g>
		<g>
			<path class="st7" d="M2396.8,817.7c0.4-0.4,6.7,6.2,8.5,16.9c1.8,10.7-1.8,18.7-2.2,18.7c-0.9,0,1.8-8.5,0-18.3
				C2401.3,824.8,2396.3,818.1,2396.8,817.7z"/>
		</g>
	</g>
	<g>
		<g>
			<path class="st14" d="M2514,761.5c0,0.4-4.9,1.8-12.9,4c-8,2.2-19.2,4.5-31.6,7.1c-12.5,2.2-23.6,4-32.1,4.9
				c-8,0.9-13.4,1.3-13.4,0.9c0-0.4,4.9-1.3,13.4-2.7c8-1.3,19.6-3.1,31.6-5.8c12.5-2.2,23.6-4.5,31.6-6.2S2514,761.1,2514,761.5z"
				/>
		</g>
	</g>
	<g>
		<g>
			<path class="st14" d="M2503.8,706.7c0,0.4-4.9,2.2-13.4,4.9c-8.5,2.7-20.1,5.8-32.5,8.9c-12.9,3.1-24.5,5.8-33,8
				c-8.5,2.2-13.4,3.6-13.8,3.1c0-0.4,4.9-2.2,13.4-4.9s20.1-5.8,32.5-8.9c12.9-3.1,24.5-5.8,33-8
				C2498.4,708,2503.8,706.3,2503.8,706.7z"/>
		</g>
	</g>
	<g>
		<g>
			<path class="st7" d="M2431.6,820.4c0,0-0.9-1.8-1.8-5.3c-0.9-4-2.2-8.5-3.6-14.3c-3.1-12-6.7-29-11.1-47.7
				c-4-18.7-8-35.7-10.3-47.7c-1.3-5.8-2.2-10.7-3.1-14.7c-0.4-3.6-0.9-5.3-0.9-5.3s0.9,1.8,1.8,5.3c0.9,4,2.2,8.5,3.6,14.3
				c3.1,12,6.7,29,11.1,47.7c4,18.7,8,35.7,10.3,47.7c1.3,5.8,2.2,10.7,3.1,14.7C2431.6,818.1,2432,820.4,2431.6,820.4z"/>
		</g>
	</g>
	<g>
		<g>
			<path class="st14" d="M2498.9,664.8c0,0.4-67.3-0.4-150.2-2.7c-82.9-2.2-149.8-4.5-149.8-5.3c0-0.4,67.3,0.4,150.2,2.7
				C2432,661.7,2498.9,664.4,2498.9,664.8z"/>
		</g>
	</g>
	<g>
		<g>
			<path class="st14" d="M2476.1,588.6c0,0-0.9,0-2.7,0.4c-1.8,0-4.5,0.4-7.6,0.4c-6.7,0.4-16,1.3-27.6,1.8
				c-23.2,1.3-55.3,3.1-90.9,4c-35.7,0.9-67.7,1.3-90.9,0.9c-11.6,0-20.9,0-27.6-0.4c-3.1,0-5.3,0-7.6-0.4c-1.8,0-2.7,0-2.7-0.4
				c0,0,0.9,0,2.7,0s4.5,0,7.6,0c6.7,0,16,0,27.6-0.4c23.2-0.4,55.3-0.9,90.9-1.8s67.7-2.2,90.9-3.1c11.6-0.4,20.5-0.9,27.6-1.3
				c3.1,0,5.3,0,7.6,0C2475.2,588.1,2476.1,588.6,2476.1,588.6z"/>
		</g>
	</g>
	<g>
		<g>
			<path class="st14" d="M2154.8,591.7c-0.4-0.4,14.7-18.7,34.3-41c19.2-22.3,35.7-40.1,36.1-39.7c0.4,0.4-14.7,18.7-34.3,41
				C2171.7,574.3,2155.7,592.2,2154.8,591.7z"/>
		</g>
	</g>
	<g>
		<g>
			<path class="st14" d="M2406.6,748.1c0,0.4-45.9-3.6-102.1-8.9c-56.6-5.8-102.1-10.7-102.1-11.1s45.9,3.6,102.1,8.9
				C2360.7,742.8,2406.6,747.7,2406.6,748.1z"/>
		</g>
	</g>
	<g>
		<g>
			<path class="st14" d="M2408.8,810.1c0,0.4-44.6,0-99.4-0.9c-54.8-1.3-99.4-2.7-98.9-3.6c0-0.4,44.6,0,99.4,0.9
				C2364.3,807.9,2408.8,809.2,2408.8,810.1z"/>
		</g>
	</g>
	<g>
		<g>
			<path class="st7" d="M2273.8,853.3c0,0,0-1.3,0-3.1c0-2.2,0-5.3,0-9.4c0-8,0.4-20.1,1.8-34.8c0.4-7.1,1.3-15.2,2.2-24.1
				c0.9-8.5,2.2-17.8,3.6-27.2c2.2-19.2,4.5-40.6,6.7-62.4c4.5-44.6,9.4-84.7,16.5-113.2c3.1-14.3,6.7-25.9,8.9-33.4
				c1.3-3.6,2.2-6.7,3.1-8.9c0.9-2.2,1.3-3.1,1.3-3.1s0,1.3-0.9,3.1c-0.9,2.2-1.3,5.3-2.7,8.9c-2.2,8-5.3,19.2-8.5,33.4
				c-6.2,28.5-11.1,68.6-15.6,113.2c-2.2,22.3-4.5,43.2-6.7,62.4c-1.3,9.8-2.7,18.7-3.6,27.2s-1.8,16.5-2.2,23.6
				c-1.3,14.7-1.8,26.3-2.2,34.8c0,4-0.4,7.1-0.4,9.4C2274.2,852.4,2274.2,853.3,2273.8,853.3z"/>
		</g>
	</g>
	<g>
		<rect x="2346.4" y="656.8" class="st14" width="48.6" height="12.5"/>
	</g>
	<g class="st12">
		<g>
			<path d="M2402.6,695.1c-21.8,33-20.5,79.3,3.6,111c3.1-20.9,6.2-41.9,8.9-62.4"/>
		</g>
	</g>
	<path class="st7" d="M2374.5,383.6c5.8,11.6,3.1,25.9-1.3,38.3c-4,12.5-9.4,25-8.5,37.9c0.9,12,7.6,23.2,8.5,35.2
		c1.8,20.5-11.1,38.8-16.5,58.4c-6.7,25.4,0,53.9,17.4,73.5c1.8,1.8,4,4,6.7,4c3.1,0,5.3-3.1,6.2-6.2c0.4-3.1,0-6.2,0-9.4
		c-2.7-29,25.4-52.6,29.9-81.6c2.7-18.7-5.3-37.4-6.2-56.6c-1.3-24.1,7.6-47.2,10.7-70.9c0.9-8,1.3-16.5-1.3-24.5
		c-2.7-7.6-8.5-14.7-16.5-16.9c-8-2.2-17.4,2.2-20.1,9.8"/>
	<path class="st15" d="M1834.8,562.3l-94.5,59.7l66.9-183.2l18.3-36.1c2.2-3.1,5.3-6.7,8.9-10.7c3.1-3.6,6.7-6.2,10.7-8.5
		c4.9-2.7,11.6-5.8,16-6.2c5.3-0.9,6.7-7.6,2.7-9.8c-4-2.2-18.7-0.4-33,8.9c-14.3,9.4-6.2-16-3.1-25.4c2.7-9.4,10.3-38.3,8-41.4
		c-3.1-4.5-8.9-2.2-11.1,7.1c-2.7,9.4-12.5,37-17.4,35.2c-4.9-1.8,10.3-49,10.3-49s4.9-9.4-0.9-11.6c-9.8-4-22.3,47.2-23.2,52.1
		c-0.9,3.6-6.2,1.8-4.9-1.8c0.9-3.6,16-46.8,5.8-50.8c-7.6-3.1-10.7,42.3-18.7,49.5c-8,7.1,5.3-34.3-1.8-37
		c-2.7-0.9-4.9-1.3-9.4,23.6c-2.2,12-4.5,54.4-4.5,54.4l-21.8,43.2l0.4,0.4l-90,189.9c-17.4,45.5,10.7,82.5,39.2,98.9l0,0
		c26.3,15.6,59.3,14.7,84.7-2.2l109.2-72.6L1834.8,562.3z"/>
	<g>
		<g>
			<path class="st10" d="M1893.6,1759l4.9,82.5c0,0-82.5,32.5-82.9,48.1l160.5-0.9l-2.2-131.5L1893.6,1759z"/>
		</g>
		<g class="st11">
			<g>
				<path class="st4" d="M1948,1833.4c3.1,0.9,5.3,4,4.9,7.6c-0.4,3.1-4,5.3-7.1,4.9c-3.1-0.9-5.8-4.9-4.9-8c0.9-3.1,5.3-5.3,8-4"/>
			</g>
		</g>
		<g class="st11">
			<path class="st4" d="M1976.1,1888.7v-13.4l-154.2,5.8c0,0-7.1,3.1-6.2,8.5L1976.1,1888.7z"/>
		</g>
		<g>
			<g>
				<path class="st7" d="M1895.8,1841c0,0.9,4,0.9,8,3.6c4,2.2,6.2,5.8,6.7,5.3c0.9,0-0.4-4.9-5.3-7.6
					C1900.3,1839.2,1895.4,1840.1,1895.8,1841z"/>
			</g>
		</g>
		<g>
			<g>
				<path class="st7" d="M1878.9,1848.1c0,0.9,3.1,2.2,5.8,5.3c2.7,3.1,3.6,6.7,4.5,6.7s1.3-4.5-2.2-8.5
					C1883.8,1847.7,1878.9,1847.2,1878.9,1848.1z"/>
			</g>
		</g>
		<g>
			<g>
				<path class="st7" d="M1870,1868.6c0.9,0,1.8-3.6-0.4-8c-2.2-4.5-5.8-5.8-6.2-5.3c-0.4,0.4,1.8,3.1,3.6,6.2
					C1869.1,1865.1,1869.1,1868.6,1870,1868.6z"/>
			</g>
		</g>
		<g>
			<g>
				<path class="st7" d="M1896.7,1821.8c0.4,0.9,4-0.4,8.5-0.4s8,1.3,8.5,0.9c0.4-0.4-3.1-3.6-8-3.6
					C1899.8,1818.7,1896.3,1821.4,1896.7,1821.8z"/>
			</g>
		</g>
	</g>
	<g>
		<g>
			<path class="st7" d="M1896.3,1805.3c0,0.4,3.1,0.9,8,0c2.7-0.4,5.3-1.3,8.5-2.7c1.3-0.9,3.1-1.3,4.5-2.7c0.9-0.4,1.8-0.9,2.2-1.8
				c0.9-0.9,1.3-3.1,0.4-4c-0.9-1.3-2.2-1.8-3.6-1.8s-2.2,0.4-3.1,0.4c-1.8,0.4-3.6,0.9-4.9,1.8c-3.1,1.3-5.3,3.1-7.1,4.9
				c-3.6,3.6-4.9,6.7-4.5,6.7c0.4,0.4,2.2-2.2,5.8-5.3c1.8-1.3,4.5-3.1,7.1-4c1.3-0.4,3.1-1.3,4.5-1.3c1.8-0.4,3.1-0.4,3.6,0
				c0,0.4,0,0.4,0,0.9c-0.4,0.4-0.9,0.9-1.8,1.3c-1.3,0.9-2.7,1.8-4,2.7c-2.7,1.3-5.3,2.7-7.6,3.1
				C1898.9,1804.5,1895.8,1804.9,1896.3,1805.3z"/>
		</g>
	</g>
	<g>
		<g>
			<path class="st7" d="M1897.2,1806.2c0.4,0,1.8-2.7,1.8-8c0-2.7-0.4-5.3-1.3-8.9c-0.4-1.8-1.3-3.1-2.2-4.9c-0.9-1.8-2.2-3.6-5.3-4
				c-1.8,0-2.7,1.3-3.1,2.2c-0.4,0.9-0.4,2.2-0.9,3.1c-0.4,1.8,0,3.6,0,5.3c0.4,3.6,2.2,6.2,3.6,8c3.1,4,6.7,4.9,6.7,4.9
				c0.4-0.4-2.7-1.8-4.9-5.8c-1.3-1.8-2.2-4.5-2.7-7.6c0-1.3,0-3.1,0-4.5c0-1.8,0.9-3.1,1.3-3.1c0.9,0,2.2,1.3,2.7,2.7
				c0.9,1.3,1.3,2.7,2.2,4.5c0.9,2.7,1.8,5.8,1.8,8C1897.6,1803.1,1896.7,1806.2,1897.2,1806.2z"/>
		</g>
	</g>
	<g>
		<g>
			<path class="st10" d="M2171.3,1757.7l6.2,82.5c0,0-81.6,33.9-82,49.5l160.5-6.2L2243,1755L2171.3,1757.7z"/>
		</g>
		<g class="st11">
			<g>
				<path class="st4" d="M2226.5,1831.2c3.1,0.9,5.3,4,4.9,7.1c-0.4,3.1-4,5.3-7.1,4.9c-3.1-0.4-5.8-4.5-4.9-7.6
					c0.9-3.1,5.3-5.8,8-4"/>
			</g>
		</g>
		<g class="st11">
			<path class="st4" d="M2256,1883.3l-0.9-12.9l-153.3,11.1c0,0-7.1,3.6-5.8,8.5L2256,1883.3z"/>
		</g>
		<g>
			<g>
				<path class="st7" d="M2174.8,1839.7c0,0.9,4,0.9,8,3.1c4,2.2,6.2,5.3,6.7,5.3c0.9,0-0.4-4.9-5.3-7.6
					S2174.8,1838.8,2174.8,1839.7z"/>
			</g>
		</g>
		<g>
			<g>
				<path class="st7" d="M2158.3,1847.2c0,0.9,3.1,1.8,6.2,5.3c2.7,3.1,3.6,6.7,4.5,6.7s0.9-4.5-2.2-8.5
					C2162.8,1846.8,2158.3,1846.3,2158.3,1847.2z"/>
			</g>
		</g>
		<g>
			<g>
				<path class="st7" d="M2149.4,1867.7c0.9,0,1.8-4-0.4-8s-5.8-5.8-6.2-4.9c-0.4,0.4,2.2,2.7,4,6.2
					C2148.5,1864.2,2149,1867.7,2149.4,1867.7z"/>
			</g>
		</g>
		<g>
			<g>
				<path class="st7" d="M2175.3,1820.5c0.4,0.9,4-0.4,8.5-0.4s8,1.3,8.5,0.9c0.4-0.4-3.1-3.6-8.5-3.6
					C2178.8,1817.4,2175.3,1820.1,2175.3,1820.5z"/>
			</g>
		</g>
	</g>
	<g>
		<g>
			<path class="st7" d="M2174.4,1804c0,0.4,3.1,0.9,8-0.4c2.2-0.4,5.3-1.3,8.5-3.1c1.3-0.9,3.1-1.8,4.5-2.7c0.9-0.4,1.8-0.9,2.2-1.8
				c0.9-0.9,1.3-3.1,0-4c-0.9-1.3-2.2-1.8-3.6-1.8c-1.3,0-2.2,0.4-3.1,0.4c-1.8,0.4-3.6,1.3-4.9,1.8c-3.1,1.3-5.3,3.6-7.1,5.3
				c-3.6,3.6-4.9,6.7-4.5,6.7c0.4,0.4,2.2-2.2,5.8-5.3c1.8-1.3,4-3.1,7.1-4.5c1.3-0.4,3.1-1.3,4.5-1.8c1.8-0.4,3.1-0.4,3.6,0
				c0,0.4,0,0.4,0,0.9c-0.4,0.4-0.9,0.9-1.8,1.3c-1.3,0.9-2.7,1.8-4,2.7c-2.7,1.3-5.3,2.7-7.6,3.1
				C2177.5,1803.1,2174.4,1803.6,2174.4,1804z"/>
		</g>
	</g>
	<g>
		<g>
			<path class="st7" d="M2175.7,1804.9c0.4,0,1.8-2.7,1.8-8c0-2.7-0.4-5.3-1.3-8.9c-0.4-1.8-1.3-3.1-2.2-4.9c-0.9-1.3-2.2-3.6-5.3-4
				c-1.8,0-2.7,1.3-3.1,2.2c-0.4,0.9-0.4,2.2-0.9,3.1c0,1.8,0,3.6,0,5.3c0.4,3.6,2.2,6.2,3.6,8c3.1,4,6.7,4.9,6.7,4.5
				c0.4-0.4-2.7-1.8-4.9-5.8c-1.3-1.8-2.2-4.5-2.7-7.6c0-1.3-0.4-3.1,0-4.5c0-1.8,0.9-3.1,1.3-3.1c0.9,0,2.2,1.3,3.1,2.7
				c0.9,1.3,1.8,2.7,2.2,4.5c1.3,2.7,1.8,5.8,1.8,8C2175.7,1801.8,2175.3,1804.9,2175.7,1804.9z"/>
		</g>
	</g>
	<g>
		<g>
			<g>
				<g>
					<g>
						<g>
							<g>
								<g>
									<g>
										<g>
											<g>
												<g>
													<path class="st15" d="M2038.9,360.8l-15.6,182.3l-91.4-7.1c-0.4-10.7,0-52.1,0-52.1s-37.9-5.8-38.3-44.1
														c-0.4-18.3,2.2-56.6,5.3-90.9c3.1-38.3,36.1-66.9,74.4-64.6l0,0C2012.6,286.9,2042.5,321.6,2038.9,360.8z"/>
												</g>
											</g>
										</g>
									</g>
								</g>
							</g>
						</g>
					</g>
				</g>
				<g>
					<g>
						<g>
							<g>
								<g>
									<g>
										<g>
											<g>
												<g>
													<path class="st16" d="M1931.9,483.9c0,0,24.1,1.8,49.5-14.3c0,0-11.6,27.2-49.5,24.1V483.9z"/>
												</g>
											</g>
										</g>
									</g>
								</g>
							</g>
						</g>
					</g>
				</g>
			</g>
		</g>
	</g>
	<g>
		<g>
			<g>
				<path class="st7" d="M1997.9,319.4L1997.9,319.4c6.2,4.9,10.3,12,11.1,19.6c0,0.4,0,0.4,0,0.9c1.3,10.7,1.3,21.8,2.7,32.5
					c1.8,10.7,5.3,21.8,13.4,29.4c3.1,3.1,8.9,5.3,12,1.8c0.9-1.3,1.3-3.1,1.3-4.9c2.2-26.3,9.4-49.5,8.9-76.7
					c0-7.6-3.6-14.3-9.4-18.7c-5.8-4-12.9-8.5-19.2-5.3c-6.2,3.1-14.7,15.2-19.6,20.1"/>
			</g>
		</g>
	</g>
	<g>
		<g>
			<g>
				<g>
					<g>
						<g>
							<g>
								<g>
									<g>
										<g>
											<path class="st15" d="M2026.4,378.2c0.4-0.4,26.3-7.6,25.4,18.3c-0.9,25.9-26.7,19.6-26.7,19.2
												C2024.6,414.8,2026.4,378.2,2026.4,378.2z"/>
										</g>
									</g>
								</g>
							</g>
						</g>
					</g>
				</g>
			</g>
		</g>
		<g>
			<g>
				<g>
					<g>
						<g>
							<g>
								<g>
									<g>
										<g>
											<g>
												<path class="st16" d="M2033.1,405.9c0,0,0.4,0.4,1.3,0.9c0.9,0.4,2.2,0.4,3.6,0c2.7-0.9,5.3-5.3,5.3-9.8
													c0-2.2-0.4-4.5-0.9-6.7c-0.9-1.8-1.8-3.1-3.1-3.6c-1.3-0.4-2.2,0.4-2.7,1.3c-0.4,0.9-0.4,1.3-0.4,1.3s-0.4-0.4-0.4-1.3
													c0-0.4,0.4-1.3,0.9-1.8c0.4-0.4,1.8-0.9,2.7-0.4c1.8,0,3.6,2.2,4.5,4c0.9,2.2,1.3,4.5,1.3,7.1
													c-0.4,5.3-3.1,10.3-7.1,11.1c-1.8,0.4-3.6,0-4-0.9C2033.1,406.3,2033.1,405.9,2033.1,405.9z"/>
											</g>
										</g>
									</g>
								</g>
							</g>
						</g>
					</g>
				</g>
			</g>
		</g>
	</g>
	<g>
		<g>
			<g>
				<path class="st7" d="M2019.7,301.1c6.2-10.3-11.1-25.4-24.1-29.4c-12.9-4-29.9,2.2-42.3,6.2c-8,2.7-16,6.2-24.5,6.2
					c-5.8-0.4-11.1-2.2-16.5-4c-5.3-1.8-11.1-3.6-16.5-3.1c-5.8,0.4-11.6,3.6-13.8,8.5c-2.2,4.9,0.9,12.5,6.7,13.4
					c-7.1-4-17.4,1.3-18.7,9.4c-1.3,8,7.1,16,15.2,14.3c-3.6-2.7-9.4,1.8-8.9,6.2c0.4,4.5,4.5,8,8.9,9.8c10.7,4.9,23.6,3.1,34.8-0.4
					s21.8-9.8,32.5-13.8c11.1-4,29.9-11.1,41-7.6c8,3.1,13.8,12.9,18.7,10.7c4.5-2.2,7.1-6.7,8-11.6
					C2021.5,311.4,2020.6,306,2019.7,301.1"/>
			</g>
		</g>
	</g>
	<g>
		<g>
			<g>
				<g>
					<path class="st10" d="M1885.6,298c0,0,1.3,1.8,4,4.9c2.7,3.1,7.6,6.7,14.3,9.4c6.7,2.2,16,3.1,25-0.9c8.9-4,16.5-12,25-19.2
						c8.5-7.6,19.2-12.9,29.4-13.8s19.6,2.7,25,8.5c5.3,5.8,6.2,12.5,5.8,16.9c0,2.2-0.9,3.6-1.3,4.9c-0.4,0.9-0.9,1.3-0.9,1.3
						c-0.4,0,0.9-2.2,0.9-6.2c0-4-1.3-10.3-6.2-15.6s-13.8-8.5-23.2-7.6c-9.8,0.9-19.2,6.2-27.6,13.8c-8.5,7.1-16.5,15.6-25.9,19.6
						c-9.4,4.5-19.2,3.1-26.3,0.4c-7.1-2.7-12-7.1-14.7-10.3c-1.3-1.8-2.2-3.1-2.7-4C1885.6,298.9,1885.6,298,1885.6,298z"/>
				</g>
			</g>
		</g>
	</g>
	<g>
		<g>
			<g>
				<g>
					<path class="st10" d="M2033.1,376.9c0,0-1.3-0.9-2.2-2.7c-0.9-2.2-1.8-5.3-1.3-9.4c0.4-8.5,8-17.4,8.9-29
						c0.4-5.8-0.4-11.1-2.7-15.6c-2.2-4-6.2-7.1-9.8-8.5c-3.6-1.3-6.7-1.3-8.5-1.3c-2.2,0.4-3.1,0.9-3.1,0.4c0,0,0.9-0.9,3.1-1.8
						c2.2-0.4,5.8-0.9,9.4,0.4c4,1.3,8,4,11.1,8.9c2.7,4.5,4,10.7,3.6,16.9s-2.7,11.6-4.9,16.5c-2.2,4.5-4,8.9-4.5,12.5
						C2030,372.9,2033.1,376.9,2033.1,376.9z"/>
				</g>
			</g>
		</g>
	</g>
	<g>
		<g>
			<polygon class="st7" points="2111.5,950.1 2260.9,1819.6 2142.7,1833.9 1975.6,1058.4 1989.4,1822.7 1876.7,1822.7 1832.1,942.5 
							"/>
		</g>
	</g>
	<g>
		<g>
			<g>
				<g>
					<g>
						<g>
							<g>
								<path class="st13" d="M1843.2,673.7l-41.9,26.3l-47.7-91.8c20.9-15.2,88.2-58.4,105.2-69.5c4.5-2.7,8.9-5.3,13.4-7.1
									c8-3.6,18.3-6.2,35.2-8.5c10.7-1.3,19.2-2.2,24.5-2.7c31.6,9.8,62.8,9.8,94.5,0l0,0c3.6,0,7.1,0.4,10.7,0.9l0,0
									c31.2,4.5,61.5,26.3,80.2,46.8l74.4,66.9l-73.1,87.4l-22.7-26.7l5.3,123l21.4,153.3h-291c0,0-0.4-36.1,2.2-86.5
									c3.6-70.4,7.6-180.5,7.6-180.5"/>
							</g>
						</g>
					</g>
				</g>
			</g>
			<g>
				<g>
					<g>
						<g>
							<g>
								<g>
									<path class="st7" d="M1840.6,750.8c0.4,0,0.9-7.6,1.8-20.1c0.9-12.5,1.8-29.9,3.6-49c1.8-19.2,3.1-36.1,4.5-48.6
										c1.3-12.5,1.8-20.1,1.3-20.1c-0.4,0-1.8,7.6-3.6,20.1c-1.8,12.5-4,29.9-5.3,48.6c-1.8,19.2-2.2,36.5-2.7,49
										C1839.7,743.2,1840.1,750.8,1840.6,750.8z"/>
								</g>
							</g>
						</g>
					</g>
				</g>
			</g>
		</g>
	</g>
	<g>
		<g>
			<g>
				<g>
					<g>
						<g>
							<path class="st7" d="M2090.6,629.6c-0.4,0-0.9,5.3-0.9,13.8c0,8.5,0.4,20.5,1.3,33.4c0.9,12.9,2.2,25,3.6,33.4
								c1.3,8.5,2.2,13.8,2.7,13.8c0.4,0,0-5.3-0.4-13.8c-0.9-9.8-1.8-20.9-2.7-33.4s-1.8-23.6-2.2-33.4
								C2091.5,634.9,2091,629.6,2090.6,629.6z"/>
						</g>
					</g>
				</g>
			</g>
		</g>
	</g>
	<g>
		<g>
			<rect x="2018" y="643.9" class="st14" width="48.6" height="12.5"/>
		</g>
		<g>
			<g>
				<path class="st14" d="M2112.4,563.6c0,0.4-4-1.8-11.6-1.8s-18.3,3.1-29.4,10.7c-5.8,3.6-11.6,8.5-17.8,13.4
					c-6.7,4.9-14.3,8.9-22.3,12.9c-8.5,3.6-17.4,6.2-27.2,8c-9.8,1.8-20.1,2.2-30.8,1.8c-10.7-0.4-20.5-2.7-29.9-5.8
					c-4.9-1.3-9.4-3.1-13.8-5.3c-4.5-2.2-8.5-4-12.5-6.7c-15.6-9.4-26.3-22.3-37.4-29.9c-10.7-8-22.3-10.3-29.9-9.8
					c-7.6,0.9-11.1,3.6-11.1,3.1c0,0,0,0,0.4-0.4c0.4-0.4,0.9-0.9,1.8-1.3c1.8-0.9,4.5-1.8,8.5-2.7c7.6-0.9,19.6,1.3,30.8,9.4
					c11.6,7.6,22.3,20.5,37.4,29.4c3.6,2.7,8,4.5,12,6.2c4.5,1.8,8.9,3.6,13.4,4.9c9.4,2.7,19.2,4.9,29.4,5.3
					c10.3,0.4,20.5,0,29.9-1.3c9.4-1.8,18.7-4.5,26.7-8c8-3.6,15.6-7.6,22.3-12.5c6.7-4.5,12.5-9.4,18.3-12.9
					c11.6-7.6,22.7-10.7,30.3-10.3c4,0,6.7,0.9,8.9,1.3c0.9,0.4,1.8,0.4,2.2,0.9C2112,563.6,2112.4,563.6,2112.4,563.6z"/>
			</g>
		</g>
		<g>
			<g>
				<path class="st14" d="M1843.7,657.2c-0.4,0.4-3.1-4-8.9-8.9c-3.1-2.7-6.7-5.3-11.1-8c-4.5-2.7-9.8-4.9-15.6-6.7
					c-5.8-1.8-11.6-2.7-16.5-3.1c-5.3-0.4-9.8-0.4-13.8,0.4c-8,0.9-12.5,2.7-12.5,2.2c0,0,0.9-0.4,3.1-1.3c2.2-0.9,5.3-1.8,9.4-2.2
					c4-0.9,8.9-0.9,14.3-0.9c5.3,0.4,11.1,1.3,16.9,3.1s11.1,4.5,15.6,7.1c4.5,2.7,8.5,5.8,11.1,8.9c1.3,1.3,2.7,2.7,3.6,4
					c0.9,1.3,1.8,2.2,2.7,3.1C1843.2,656.3,1843.7,657.2,1843.7,657.2z"/>
			</g>
		</g>
		<g>
			<g>
				<path class="st14" d="M2089.7,700c0,0-0.9,0.4-2.2,1.3c-1.8,0.9-4,2.2-6.7,3.6c-1.3,0.9-3.1,1.8-4.9,2.7s-4,1.8-5.8,2.7
					c-4.5,1.8-8.9,4-14.7,5.8c-2.7,0.9-5.8,1.8-8.9,3.1c-3.1,0.9-6.2,1.8-9.8,2.7c-6.7,1.8-13.8,3.1-21.4,4.5
					c-15.2,2.2-32.1,3.6-50.4,3.1c-17.8-0.9-34.8-3.6-49.9-7.1c-7.6-2.2-14.7-4-20.9-6.2c-3.1-1.3-6.2-2.2-9.4-3.6
					c-3.1-1.3-5.8-2.7-8.5-3.6c-5.3-2.2-10.3-4.9-14.3-6.7c-2.2-0.9-4-2.2-5.8-3.1c-1.8-0.9-3.1-1.8-4.5-2.7c-2.7-1.8-4.9-3.1-6.2-4
					s-2.2-1.3-2.2-1.3s0.9,0.4,2.2,1.3c1.8,0.9,4,2.2,6.7,3.6c1.3,0.9,3.1,1.8,4.9,2.7c1.8,0.9,3.6,1.8,5.8,2.7
					c4,1.8,8.9,4.5,14.3,6.7c2.7,0.9,5.3,2.2,8.5,3.6c3.1,1.3,6.2,2.2,9.4,3.1c6.2,2.2,13.4,4,20.9,6.2c15.2,3.6,31.6,6.2,49.5,6.7
					c17.8,0.4,34.8-0.4,49.9-2.7c7.6-1.3,14.7-2.7,21.4-4.5c3.1-0.9,6.7-1.3,9.4-2.7c3.1-0.9,5.8-1.8,8.5-2.7
					c5.8-1.8,10.3-3.6,14.7-5.3c2.2-0.9,4-1.8,5.8-2.2c1.8-0.9,3.6-1.8,4.9-2.2c2.7-1.3,4.9-2.2,6.7-3.1
					C2088.8,700.5,2089.7,700,2089.7,700z"/>
			</g>
		</g>
		<g>
			<g>
				<path class="st14" d="M2169.5,625.1c0,0.4-5.3-1.3-13.4-0.9c-8.5,0-20.1,3.1-31.2,9.4c-11.1,6.2-19.6,14.3-25.9,20.1
					s-10.3,9.4-10.3,9.4s3.1-4,9.4-10.3c5.8-6.2,14.7-14.3,25.9-20.9c11.6-6.7,23.6-9.4,32.1-8.9c4.5,0,7.6,0.9,10.3,1.3
					C2168.2,624.7,2169.5,625.1,2169.5,625.1z"/>
			</g>
		</g>
		<g>
			<g>
				<path class="st14" d="M2095.5,794.1c0,0-0.9,0.4-2.2,1.3c-1.8,0.9-4,1.8-7.1,3.1c-3.1,1.3-6.7,3.1-11.1,4.5
					c-4.5,1.8-9.4,3.6-15.2,5.3c-2.7,0.9-5.8,1.8-8.9,2.7c-3.1,0.9-6.7,1.8-9.8,2.7c-6.7,1.8-14.3,3.1-21.8,4.5
					c-15.6,2.7-33,4.5-51.3,4.5c-18.3,0-35.7-1.3-51.3-3.6c-8-1.3-15.2-2.7-22.3-4.5c-3.6-0.9-6.7-1.3-9.8-2.2
					c-3.1-0.9-6.2-1.8-8.9-2.7c-5.8-1.3-10.7-3.6-15.2-4.9c-4.5-1.3-8.5-3.1-11.6-4.5c-2.7-1.3-5.3-2.2-7.1-3.1
					c-1.8-0.9-2.2-1.3-2.2-1.3s0.9,0,2.7,0.9c1.8,0.9,4.5,1.3,7.1,2.7c3.1,1.3,7.1,2.7,11.6,4c4.5,1.3,9.8,3.1,15.6,4.5
					c2.7,0.9,5.8,1.8,8.9,2.2c3.1,0.9,6.7,1.3,9.8,2.2c6.7,1.8,14.3,2.7,21.8,4c15.6,2.2,33,3.6,51.3,3.6
					c18.3-0.4,35.2-1.8,50.8-4.5c7.6-1.3,15.2-2.7,21.8-4.5c3.6-0.9,6.7-1.3,9.8-2.2c3.1-0.9,6.2-1.8,8.9-2.7
					c5.8-1.3,10.7-3.6,15.2-4.9s8.5-3.1,11.6-4c3.1-0.9,5.3-2.2,7.1-2.7C2094.6,794.5,2095.5,794.1,2095.5,794.1z"/>
			</g>
		</g>
		<g>
			<g>
				<path class="st14" d="M2112.4,911.3c0,0-0.9,0-2.7,0c-2.2-0.4-4.9-0.4-8-0.9c-7.1-0.9-16.9-2.2-29.4-3.6s-27.6-2.7-44.1-3.1
					c-16.5-0.9-34.8-0.9-53.9-0.9c-19.2,0.4-37.4,1.8-53.9,3.1c-16.5,1.8-31.2,3.6-43.7,5.3s-22.3,3.6-29.4,4.9
					c-3.1,0.4-5.8,0.9-8,1.3c-1.8,0.4-2.7,0.4-2.7,0.4s0.9-0.4,2.7-0.9c2.2-0.4,4.5-0.9,8-1.8c6.7-1.3,16.9-3.6,29.4-5.3
					c12.5-2.2,27.2-4,44.1-5.8c16.5-1.8,34.8-2.7,53.9-3.1c19.2-0.4,37.4,0,54.4,0.9c16.5,0.9,31.6,2.2,44.1,4
					c12.5,1.3,22.7,3.1,29.4,4c3.1,0.4,5.8,0.9,8,1.3C2111.5,910.8,2112.4,910.8,2112.4,911.3z"/>
			</g>
		</g>
	</g>
	<path class="st15" d="M2209.2,799.9l4.5-41c0,0-27.2-46.8-14.7-111.4l-10.7-9.8l-60.2,72.2L2209.2,799.9"/>
	<g>
		<path class="st7" d="M1088.2,301.6c-38.8-0.9-75.8,29.4-82.5,67.3c-3.6,19.6,0.4,41.4-8.9,59.3c-12,23.6-43.7,34.8-50.8,60.2
			c-5.8,21.4,8,44.6,2.2,66c-4.5,15.6-18.3,26.3-25,41c-6.7,14.3-5.3,31.6,3.1,44.6c8.5,12.9,25,20.5,40.1,18.3
			c9.8-1.3,18.7-6.2,28.1-9.4c20.5-6.7,42.3-4,63.3-1.3c20.9,3.1,42.8,6.2,63.7,1.3c20.9-4.9,40.6-20.5,43.7-41.4
			c2.2-13.8-3.1-27.2-7.6-40.6c-27.6-86.9-14.7-182.3-34.8-271.4"/>
	</g>
	<g>
		<path class="st7" d="M1011.1,381.8c-5.3-6.7-11.6-13.4-18.7-18.3c-7.1-4.9-16-8-24.5-6.2c-8.5,1.3-16.5,8-18.3,16.5
			c-1.8,8.5,4.9,18.3,13.4,18.7c-6.7-3.6-15.6,2.2-16.9,9.4c-1.3,7.6,3.6,14.7,10.7,17.8c6.7,3.1,14.7,2.2,21.8-0.4
			c7.1-2.7,12.9-7.1,19.2-12c6.7-4.9,13.4-10.3,20.1-15.2"/>
	</g>
	<g>
		<g>
			<path class="st10" d="M941.1,635.4c0,0-1.3-0.4-3.6-1.8c-2.2-1.3-4.9-4-6.7-8.5s-2.7-10.7-0.4-17.4c2.2-6.7,6.7-12.9,12.5-19.2
				c5.8-6.2,12.9-12.5,17.8-20.9c5.3-8.5,5.8-19.6,3.6-30.3c-2.2-10.7-6.2-22.3-6.2-34.8c0-6.2,1.8-12.9,5.3-18.3
				c3.6-5.3,8.9-9.8,14.3-13.4c11.1-7.1,23.6-11.1,33.4-17.8c4.9-3.6,9.4-7.6,12-12.5c3.1-4.9,4.5-10.3,5.8-15.6
				c1.8-11.1,1.3-21.8,2.2-31.6c0.4-9.8,2.2-19.2,4.9-27.6c4.9-16.5,15.2-27.2,23.2-32.5c4-2.7,7.6-4,9.8-4.9
				c1.3-0.4,2.2-0.4,2.7-0.9c0.4,0,0.9,0,0.9,0c0,0.4-5.3,1.3-12.9,6.7c-7.6,5.3-17.4,16-21.8,32.1c-2.7,8-4,17.4-4.5,27.2
				s0,20.5-1.8,32.1c-0.9,5.8-2.7,11.1-5.8,16.5c-3.1,5.3-7.6,9.8-12.9,13.4c-10.3,7.1-22.7,11.1-33.4,17.8
				c-5.3,3.6-10.3,7.6-13.8,12.5c-3.6,4.9-4.9,11.1-4.9,16.9c0,12,4,23.2,6.2,34.3c0.9,5.3,1.8,11.1,1.3,16.5
				c-0.4,5.3-2.2,10.7-4.9,15.2c-5.3,8.9-12.5,15.2-18.3,21.4c-5.8,6.2-10.3,12.5-12.5,18.7c-2.2,6.2-1.3,12.5,0,16.5
				c1.8,4.5,4,7.1,6.2,8.5C939.8,634.5,941.1,634.9,941.1,635.4z"/>
		</g>
	</g>
	<g>
		<g>
			<path class="st10" d="M1003.5,409.4c-0.4-0.4,3.6-7.6,4-17.4s-3.1-17.4-2.2-17.4c0.4-0.4,5.3,7.1,4.9,17.8
				C1009.3,403.2,1004,409.9,1003.5,409.4z"/>
		</g>
	</g>
	<g>
		<g>
			<path class="st10" d="M1026.7,554.3c0,0-0.4-0.4-1.8-1.8c-0.9-1.3-2.2-3.1-3.6-5.8c-2.2-5.3-3.1-14.7,0.4-25
				c3.1-10.3,11.1-20.5,18.7-31.6c4-5.8,7.6-12,10.3-18.7c2.7-7.1,3.6-14.7,3.6-22.7c0.4-16-2.7-30.8-3.6-45
				c-0.9-13.8,0-26.7,4.5-36.5c4-9.8,9.8-16.5,14.7-20.1c2.2-1.8,4.5-2.7,5.8-3.6c1.3-0.4,2.2-0.9,2.2-0.9c0,0.4-3.1,1.3-7.6,4.9
				c-4.5,3.6-10.3,10.3-13.8,20.1c-4,9.8-4.9,22.3-3.6,36.1c0.9,13.8,4,29,4,45c0,8-1.3,16-4,23.2c-2.7,7.1-6.7,13.8-10.7,19.2
				c-8,11.1-16,20.9-19.2,31.2c-3.6,9.8-3.1,18.7-0.9,24.1C1024.5,551.6,1027.2,553.8,1026.7,554.3z"/>
		</g>
	</g>
	<g>
		<g>
			<path class="st7" d="M909.1,563.2c0,0,0.4,0.9,1.3,2.2c0.9,1.3,2.2,3.1,4.9,4.5s6.2,2.7,10.3,2.2c4-0.4,8.9-2.2,12.5-6.2
				c3.6-4,6.2-9.4,7.1-15.6c0.9-6.2,0-12.9-1.8-20.1c-1.8-7.1-4.5-14.3-6.2-21.8c-1.8-7.6-3.6-16-1.8-24.5s6.2-16,11.6-21.8
				c5.3-5.8,11.6-10.7,17.4-15.2c5.8-4.5,11.6-8,16.9-11.6c5.3-3.6,9.8-7.6,13.4-11.6c7.6-7.6,12-15.6,13.8-21.4
				c1.8-5.8,1.3-9.4,1.8-9.4c0,0,0.4,3.6-0.9,9.4c-1.3,6.2-5.8,14.3-13.4,22.3c-4,4-8.5,8-13.8,11.6c-5.3,4-11.1,7.6-16.9,12
				c-5.8,4.5-11.6,8.9-16.9,14.7c-4.9,5.8-9.4,12.9-10.7,20.9c-1.8,8,0,16,1.8,23.6s4.5,14.7,6.2,21.8c1.8,7.1,2.7,14.3,1.3,20.9
				c-0.9,6.7-3.6,12.5-7.6,16.5c-4,4-8.9,6.2-13.4,6.2s-8.5-0.9-11.1-2.7c-2.7-1.8-4.5-3.6-4.9-4.9
				C909.5,564.5,909.5,564.1,909.1,563.2C909.1,563.6,909.1,563.2,909.1,563.2z"/>
		</g>
	</g>
	<path class="st7" d="M1191.2,344.3c3.6,23.2,9.8,45.9,19.6,60.2c8,11.6,23.6,18.3,25.9,31.6c1.8,11.6-4.9,23.2-4,34.8
		c1.8,18.3,22.3,29.9,28.1,47.2c4.9,14.7-1.8,31.2-12.9,41.9s-26.3,16.5-41,20.5c-21.4,5.8-47.2,7.6-62.4-8.5
		c-10.3-10.7-12.9-27.2-14.3-41.9c-3.6-40.1-3.6-80.7-3.1-121.2"/>
	<g>
		<path class="st17" d="M1052.1,383.1c-4.9-38.8,23.2-74,62.4-77.6c37-3.6,69.5,24.1,75.3,60.6c4.9,32.1,8.9,64.6,8.9,76.2
			c-0.4,35.7-21.4,49.5-29.9,53.5c-1.8,0.9-7.1,2.2-9.4,2.2l0,0c0,0,0,0,0,0.4l8,41c3.6,26.7-11.1,50.4-37.9,54.4
			c-26.7,4-47.7-16.5-51.7-43.2L1052.1,383.1z"/>
	</g>
	<g>
		<g>
			<g>
				<g>
					<path class="st15" d="M1159.5,498.1c0,0-22.7,5.3-54.4-8c0,0,13.8,29.4,56.6,18.7L1159.5,498.1z"/>
				</g>
			</g>
		</g>
	</g>
	<path class="st17" d="M1056.1,551.6l135-26.3l-4,75.3c0,0-60.2,18.7-62.4,19.6c-2.2,1.3-41.4,0-41.4,0L1056.1,551.6z"/>
	<g>
		<path class="st17" d="M906.4,1063.3c-0.9,3.6-2.2,7.6-3.1,12.5c-0.9,4-0.9,8.5-0.4,12.5c0.4,4.9,1.8,12,3.6,15.2
			c2.2,4.5-2.2,8.9-5.8,7.1c-4-2.2-10.3-13.8-10.7-29.4c-0.4-15.6-15.6,4-20.9,11.1c-5.3,7.1-23.6,28.1-27.2,28.1
			c-5.3,0-6.2-5.3-0.4-12.5c5.8-7.1,21.4-29,17.4-31.6c-4-2.7-31.6,33.4-31.6,33.4s-4.5,8.9-9.4,5.8c-8.5-5.3,24.1-41.9,27.2-45.5
			c2.2-2.2-1.8-5.3-4-2.7s-26.7,37-35.2,31.2c-6.7-4,26.3-30.3,27.6-40.1c1.3-9.8-22.7,22.3-29,17.8c-2.2-1.8-3.6-3.1,12.9-19.6
			c8-8,38.8-32.1,38.8-32.1l62.4-217.9h82L906.4,1063.3z"/>
	</g>
	<path class="st17" d="M1303.9,493.7c0,0,116.8-46.4,135-60.6c18.7-14.3,134.6-119,134.6-119l15.6-12.9c1.8-3.1,4-6.7,6.2-11.1
		c2.2-3.6,3.1-8,4-12c0.9-4.9,1.3-12,0.9-15.6c-0.9-4.9,4.5-8,7.6-5.3c3.1,3.1,6.2,16,2.2,31.2c-3.6,15.2,16,0.4,23.2-4.9
		c7.1-5.3,30.3-20.5,33.9-19.6c4.9,1.3,4.5,7.1-3.1,12c-7.6,5.3-28.5,21.8-25.4,25.4s39.7-23.6,39.7-23.6s6.7-7.1,10.3-3.1
		c6.2,7.6-34.8,33.9-38.8,36.1c-2.7,1.8,0.4,5.8,3.1,4c3.1-1.8,36.1-28.1,42.3-20.5c4.9,5.8-33.4,21.8-37.4,31.2s28.1-15.2,32.5-9.4
		c1.8,2.2,2.7,4-17.8,15.2c-9.8,5.3-45.9,20.5-45.9,20.5l-4,4l-153.8,160.9l-142.2,57L1303.9,493.7z"/>
	<g>
		<path class="st10" d="M868.1,1716.2l-22.7,103.4l-41.4,76.2c-3.1,5.3-0.9,12.5,4.9,15.2l0,0c3.1,1.3,6.7,1.3,9.8-0.4
			c19.2-11.1,90.5-52.6,91.4-60.2c1.3-8.9,31.2-107.4,31.2-107.4L868.1,1716.2z"/>
	</g>
	<g class="st11">
		<path class="st4" d="M808.8,1911l103-67.7l-0.9,4.5c-0.9,3.6-3.1,7.1-6.2,9.4c-8.5,6.2-32.1,22.3-85.6,53.5
			C815.9,1912.3,811.9,1912.3,808.8,1911L808.8,1911z"/>
	</g>
	<g class="st11">
		<g>
			<path class="st4" d="M898.8,1804.9c-3.1,1.3-4.9,4.9-3.6,8c0.9,3.1,4.9,4.9,7.6,4c3.1-0.9,5.3-5.3,4-8.5
				C905.5,1805.3,901,1803.6,898.8,1804.9"/>
		</g>
	</g>
	<g>
		<g>
			<path class="st7" d="M843.1,1871.8c-0.4,0-1.8-5.8-7.1-10.3c-5.3-4.5-11.1-4.5-11.1-5.3c0-0.4,1.3-0.9,4-0.4s5.8,1.3,8.9,4
				s4.9,5.8,5.3,8C843.5,1870.4,843.5,1871.8,843.1,1871.8z"/>
		</g>
	</g>
	<g>
		<g>
			<path class="st7" d="M832.4,1883.8c-0.4,0.4-3.1-4-8-6.7c-4.9-3.1-9.8-3.1-9.8-3.6c0-0.4,5.3-1.8,10.7,1.8
				C831.1,1878.4,833.3,1883.8,832.4,1883.8z"/>
		</g>
	</g>
	<g>
		<g>
			<path class="st7" d="M860.9,1857.5c-0.4,0.4-4.5-6.2-11.6-11.1c-7.1-5.3-14.7-6.7-14.3-7.1c0-0.4,8,0,15.6,5.3
				C858.7,1849.9,861.8,1857.5,860.9,1857.5z"/>
		</g>
	</g>
	<g>
		<g>
			<path class="st7" d="M870.7,1826.7c-0.4,0.4-5.3-3.1-12.9-5.3c-7.1-2.2-13.8-1.8-13.8-2.2c0-0.4,6.7-2.2,14.3,0
				C866.3,1821.4,871.2,1826.3,870.7,1826.7z"/>
		</g>
	</g>
	<g>
		<g>
			<path class="st7" d="M878.3,1796.4c-0.4,0.4-5.3-4.5-13.4-5.8c-8-1.8-14.3,0.9-14.3,0c0-0.4,1.3-1.3,4-2.2
				c2.7-0.9,6.7-1.3,10.7-0.4c4,0.9,7.6,2.7,9.8,4.5C877.4,1795.1,878.3,1796.4,878.3,1796.4z"/>
		</g>
	</g>
	<g>
		<g>
			<path class="st7" d="M866.7,1784.8c0,0,0-1.3,0.9-4c0.9-2.2,2.7-5.8,5.8-9.4c1.8-1.8,3.1-4,6.7-4.5c1.8-0.4,3.6,0.4,4.5,2.2
				c0.9,1.8,0.9,3.6,0.4,4.9c-1.8,6.7-8.9,11.6-16.5,10.7c-7.6-0.9-13.4-6.7-14.7-13.4c-0.4-1.8-0.4-3.6,0.9-4.9
				c1.3-1.3,3.6-1.8,4.9-1.3c3.1,1.3,4.5,3.6,5.8,5.3c2.7,3.6,4.5,7.1,4.9,9.8c0.9,2.7,0.9,4,0.9,4c-0.4,0-1.3-5.8-7.1-12.5
				c-1.3-1.8-3.1-3.6-5.3-4.5c-0.9-0.4-2.2,0-2.7,0.4c-0.4,0.9-0.9,2.2-0.4,3.6c1.3,5.3,6.7,10.7,12.9,11.1
				c6.2,0.9,12.5-3.6,14.3-8.9c0.4-1.3,0.4-2.7,0-3.6c-0.4-0.9-1.3-1.3-2.7-1.3c-2.2,0.4-4,2.2-5.8,3.6
				C868.1,1779.5,867.2,1785.3,866.7,1784.8z"/>
		</g>
	</g>
	<g>
		<g>
			<path class="st10" d="M1189.8,1754.1l-3.1,82.5c0,0,82.9,30.8,83.8,46.4l-160.5-0.4l-0.4-128.8L1189.8,1754.1z"/>
		</g>
		<g class="st11">
			<g>
				<path class="st4" d="M1137.3,1829.9c-3.1,0.9-5.3,4.5-4.5,7.6c0.9,3.1,4.5,5.3,7.6,4.5s5.8-4.9,4.9-8
					C1144.4,1830.7,1139.9,1828.5,1137.3,1829.9"/>
			</g>
		</g>
		<g class="st11">
			<path class="st4" d="M1110.1,1882.9l0.4-12.9l153.8,5.3c0,0,7.1,3.1,6.2,8L1110.1,1882.9z"/>
		</g>
		<g>
			<g>
				<path class="st7" d="M1189.4,1836.1c0,0.9-4,1.3-8,3.6c-4,2.2-5.8,5.8-6.7,5.3c-0.9,0,0.4-4.9,5.3-7.6
					C1184.9,1834.3,1189.4,1835.2,1189.4,1836.1z"/>
			</g>
		</g>
		<g>
			<g>
				<path class="st7" d="M1206.3,1843.2c0,0.9-3.1,2.2-5.8,5.3c-2.7,3.1-3.6,6.7-4,6.7c-0.9,0-1.3-4.5,2.2-8.5
					C1201.4,1842.8,1206.3,1842.3,1206.3,1843.2z"/>
			</g>
		</g>
		<g>
			<g>
				<path class="st7" d="M1215.7,1863.3c-0.9,0-1.8-3.6,0.4-8c1.8-4.5,5.8-5.8,6.2-5.3c0.4,0.4-1.8,3.1-3.6,6.7
					C1216.6,1859.7,1216.6,1863.3,1215.7,1863.3z"/>
			</g>
		</g>
		<g>
			<g>
				<path class="st7" d="M1188.1,1817.4c-0.4,0.9-4-0.4-8.5,0c-4.5,0-8,1.8-8.5,0.9c-0.4-0.4,3.1-3.6,8-3.6
					C1184.5,1814.3,1188.5,1816.5,1188.1,1817.4z"/>
			</g>
		</g>
	</g>
	<g class="st12">
		<polygon points="1189.4,1770.6 1188.5,1785.3 1109.6,1784.4 1109.6,1771 		"/>
	</g>
	<g>
		<g>
			<path class="st7" d="M1188.1,1800.4c0,0.4-3.1,0.9-8,0c-2.7-0.4-5.3-1.3-8.5-2.7c-1.3-0.9-3.1-1.3-4.5-2.7
				c-0.9-0.4-1.8-0.9-2.2-1.8c-0.9-0.9-1.3-3.1-0.4-4c0.9-1.3,2.2-1.8,3.6-1.8c1.3,0,2.2,0,3.1,0.4c1.8,0.4,3.6,0.9,4.9,1.8
				c3.1,1.3,5.3,3.1,7.6,4.9c3.6,3.6,4.9,6.2,4.9,6.7c-0.4,0.4-2.2-2.2-5.8-4.9c-1.8-1.3-4.5-2.7-7.1-4c-1.3-0.4-3.1-0.9-4.5-1.3
				c-1.8-0.4-3.1-0.4-3.6,0.4c0,0.4,0,0.4,0,0.9c0.4,0.4,0.9,0.9,1.8,1.3c1.3,0.9,2.7,1.8,4.5,2.2c2.7,1.3,5.3,2.2,7.6,3.1
				C1185.4,1800,1188.1,1800,1188.1,1800.4z"/>
		</g>
	</g>
	<g>
		<g>
			<path class="st7" d="M1187.2,1801.8c-0.4,0-1.8-2.7-2.2-7.6c0-2.7,0-5.3,0.9-8.9c0.4-1.8,1.3-3.1,2.2-4.9c0.9-1.8,2.2-3.6,5.3-4
				c1.8,0,3.1,1.3,3.6,2.2s0.4,2.2,0.9,3.1c0.4,1.8,0.4,3.6,0,5.3c-0.4,3.6-1.8,6.2-3.6,8.5c-3.1,4-6.2,4.9-6.7,4.9
				c-0.4-0.4,2.7-1.8,4.9-5.8c1.3-1.8,2.2-4.5,2.7-7.6c0-1.3,0-3.1,0-4.5c-0.4-1.8-0.9-3.1-1.3-3.1c-0.9,0-2.2,1.3-2.7,2.7
				c-0.9,1.3-1.3,3.1-1.8,4.5c-0.9,3.1-1.3,5.8-1.8,8C1186.7,1798.7,1187.6,1801.3,1187.2,1801.8z"/>
		</g>
	</g>
	<g>
		<path class="st7" d="M1033.4,847.1c0,0-50.8,80.2-57.9,111c-6.7,27.6-117.7,624.9-140.4,748.8c-2.2,12.9,5.3,25,17.8,29
			l100.3,30.3c14.3,4.5,29-4.5,32.1-19.2l123.5-579.4l-36.1,573.6c-0.9,17.4,12.9,31.6,30.3,31.2l98.5-3.1
			c15.2-0.4,27.6-12.5,28.5-27.6c8.5-138.2,46.8-766.6,39.2-786.2c-8.5-22.3-31.6-99.4-31.6-99.4L1033.4,847.1z"/>
	</g>
	<g>
		<g>
			<path class="st10" d="M993.3,1718.4c0,0-2.2,0-6.2-0.9c-4-0.4-9.8-1.8-16.5-3.1c-13.8-2.7-33-7.6-53.9-13.4
				c-20.9-6.2-39.7-12.5-52.6-17.8c-6.7-2.7-12-4.9-15.6-6.2c-3.6-1.8-5.8-2.7-5.8-2.7s2.2,0.4,5.8,1.8c4,1.3,9.4,3.1,16,5.3
				c13.4,4.5,32.1,10.7,53,16.9c20.9,6.2,39.7,10.7,53.5,14.3c6.7,1.3,12,2.7,16.5,4C991.1,1717.5,993.3,1718.4,993.3,1718.4z"/>
		</g>
	</g>
	<g>
		<g>
			<path class="st10" d="M868.5,1681.9c-0.4,0.4-4.9-4-6.2-11.1c-1.8-7.1,0.4-12.9,0.9-12.5c0.9,0,0,5.8,1.3,12
				C866.3,1677,869.4,1681.4,868.5,1681.9z"/>
		</g>
	</g>
	<g>
		<g>
			<path class="st10" d="M881,1660.5c0.4,0,0.9,5.3-1.3,12c-1.8,6.2-4.9,10.7-5.3,10.7c-0.4-0.4,1.3-4.9,3.1-11.1
				C879.6,1665.4,880.5,1660.5,881,1660.5z"/>
		</g>
	</g>
	<g>
		<g>
			<path class="st10" d="M1196.1,1690.8c0.4,0,1.8,4.5,2.7,10.3c0.9,5.8,1.3,10.7,0.4,10.7c-0.4,0-1.8-4.5-2.7-10.3
				C1195.6,1695.7,1195.2,1690.8,1196.1,1690.8z"/>
		</g>
	</g>
	<g>
		<g>
			<path class="st10" d="M1208.1,1685c0.4,0,0.9,4.9,0.9,11.1s-0.9,11.1-1.3,11.1c-0.4,0-0.9-4.9-0.9-11.1
				C1206.8,1689.9,1207.2,1685,1208.1,1685z"/>
		</g>
	</g>
	<g>
		<g>
			<path class="st10" d="M1152.9,874.7c0,0,0,0.9,0,3.1c0,2.2,0,5.3-0.4,8.9c-0.4,8-0.9,19.2-2.2,33c-2.2,28.1-5.8,66.4-12,108.8
				c-6.2,42.3-13.4,80.7-19.2,107.9c-2.7,13.8-5.3,25-7.1,32.5c-0.9,3.6-1.3,6.7-2.2,8.9c-0.4,1.8-0.9,3.1-0.9,3.1s0-0.9,0.4-3.1
				c0.4-2.2,0.9-5.3,1.8-8.9c1.3-8,3.6-19.2,6.2-32.5c5.3-27.6,12.5-65.5,18.7-107.9c6.2-42.3,10.3-80.7,12.9-108.8
				c1.3-13.8,2.2-25,2.7-33c0.4-3.6,0.4-6.7,0.9-8.9C1152.4,876.1,1152.4,874.7,1152.9,874.7z"/>
		</g>
	</g>
	<g>
		<g>
			<path class="st10" d="M1242.4,874.7c0,0-0.9,0-2.2,0.4c-1.8,0-4,0-6.2,0.4c-5.8,0.4-13.8,0.4-23.6,0.4
				c-20.1,0.4-47.7,0.4-78.4-0.4c-30.8-0.9-58.4-2.2-78-4c-9.8-0.9-18.3-1.3-23.6-1.8c-2.7-0.4-4.9-0.4-6.2-0.9
				c-1.3,0-2.2-0.4-2.2-0.4s0.9,0,2.2,0c1.8,0,4,0,6.2,0.4c5.8,0.4,13.8,0.9,23.6,1.3c20.1,0.9,47.7,2.2,78,3.1
				c30.3,0.9,58.4,1.3,78,1.3c9.8,0,17.8,0,23.6,0c2.7,0,4.9,0,6.2,0C1241.5,874.7,1242.4,874.7,1242.4,874.7z"/>
		</g>
	</g>
	<g>
		<g>
			<path class="st10" d="M1169.8,873.8c0,0,0,2.7,0,7.6c0,5.3-0.4,12-0.9,20.5c-0.9,17.4-1.8,41.4-3.1,68.2
				c-0.9,13.4-1.3,25.9-2.2,37.4c-0.9,11.6-3.6,21.8-7.6,29.9c-4.5,7.6-9.8,12.5-14.3,15.2c-2.2,1.3-4,1.8-5.3,2.2
				c-1.3,0.4-1.8,0.4-1.8,0.4c0-0.4,2.7-0.9,6.7-3.6c4-2.7,9.4-7.6,13.4-15.2c4-7.6,6.2-17.8,7.1-29c0.9-11.6,1.3-24.1,1.8-37.4
				c1.3-26.7,2.7-50.8,3.6-68.2c0.4-8.5,0.9-15.2,1.3-20.5C1169.3,876.5,1169.8,873.8,1169.8,873.8z"/>
		</g>
	</g>
	<g>
		<g>
			<path class="st10" d="M1055.2,923.3c0,0,0,1.8,0,5.3c-0.4,3.1-0.9,8-2.7,13.8c-3.1,11.6-10.3,27.2-23.6,39.7
				c-13.4,12.5-29.4,18.7-41,20.9c-5.8,1.3-10.7,1.3-13.8,1.3s-5.3,0-5.3-0.4c0-0.4,7.6,0,18.7-2.7s26.7-8.9,39.7-20.9
				c12.9-12,20.5-27.2,23.6-38.3C1054.4,930.9,1054.8,923.3,1055.2,923.3z"/>
		</g>
	</g>
	<g>
		<g>
			<path class="st10" d="M1267.8,1007.1c0,0-1.3,0-3.6-0.9c-2.2-0.9-5.3-1.8-8.9-4c-3.6-1.8-8-4.5-12-8c-4.5-3.6-8.5-8-12.5-12.9
				c-4-4.9-7.1-10.3-9.4-15.6c-2.2-4.9-4-9.8-4.9-13.8c-0.9-4-1.3-7.6-1.3-9.8c0-2.2,0-3.6,0-3.6c0.4,0,0.9,4.9,3.1,12.9
				c0.9,4,2.7,8.5,4.9,13.4c2.2,4.9,5.3,9.8,9.4,14.7c4,4.9,8,8.9,12,12.5c4,3.6,8,6.2,11.6,8.5
				C1262.9,1005.3,1267.8,1006.7,1267.8,1007.1z"/>
		</g>
	</g>
	<g>
		<g>
			<path class="st10" d="M1089.6,938c0,0,0,0.9,0,1.8c0,1.3-0.4,3.6-0.9,5.8c-0.9,5.3-1.8,12.9-3.1,22.3
				c-2.7,19.6-6.7,47.7-12.5,82.5c-11.1,69.5-27.6,165.4-49.5,270.5c-21.8,105.2-44.1,199.7-61.5,267.9c-8.9,33.9-16,61.5-21.4,80.7
				c-2.7,9.4-4.5,16.9-6.2,21.8c-0.9,2.2-1.3,4.5-1.8,5.8s-0.4,1.8-0.4,1.8s0-0.9,0.4-1.8c0.4-1.3,0.9-3.1,1.3-5.8
				c1.3-5.3,3.1-12.5,5.8-21.8c4.9-19.2,12-46.8,20.5-80.7c16.9-68.2,39.2-162.7,61.1-267.9c21.8-105.2,38.8-201,49.9-270.1
				c5.8-34.8,10.3-62.8,12.9-82.5c1.3-9.8,2.7-16.9,3.6-22.3c0.4-2.7,0.9-4.5,0.9-5.8C1089.1,938.5,1089.6,938,1089.6,938z"/>
		</g>
	</g>
	<g>
		<g>
			<path class="st10" d="M1170.7,1718c0,0,0-0.4,0-1.8s0.4-3.1,0.4-5.3c0.4-4.9,0.9-12,1.8-21.4c1.8-18.7,4-45.5,7.1-78
				c5.8-66,15.2-156.9,21.8-258.1c3.6-50.4,5.8-98.5,6.7-142.2c0.9-43.7,0.9-83.3,0-116.3c-0.9-33-2.7-59.7-4-78.4
				c-0.4-9.4-1.3-16.5-1.3-21.4c0-2.2-0.4-4-0.4-5.3s0-1.8,0-1.8s0,0.4,0.4,1.8c0,1.3,0.4,3.1,0.4,5.3c0.4,4.9,1.3,12,1.8,21.4
				c1.8,18.3,3.1,45,4.5,78.4c0.9,33,1.3,72.6,0.4,116.3c-0.9,43.7-3.1,91.8-6.7,142.6c-7.1,100.7-16.5,192.1-22.7,258.1
				c-3.1,33-5.8,59.7-7.6,78c-0.9,8.9-1.8,16-2.2,21.4c-0.4,2.2-0.4,4-0.4,5.3C1171.1,1717.1,1171.1,1718,1170.7,1718z"/>
		</g>
	</g>
	<g>
		<g>
			<path class="st10" d="M1231.7,1707.3c0,0.4-35.2,4.9-78.9,9.8c-43.7,4.9-78.9,8-79.3,7.6c0-0.4,35.2-4.9,78.9-9.8
				C1196.1,1710,1231.7,1706.8,1231.7,1707.3z"/>
		</g>
	</g>
	<path class="st7" d="M1099.4,322.5c-13.4,15.6-16.9,38.3-9.8,57.5c4.9,12.9,14.7,24.5,14.3,38.3c-0.9,16.9-18.3,30.3-17.4,47.7
		c0.9,19.2,25.9,31.2,25.9,50.8c0,19.6-12,27.2-34.8,31.2c-14.7,2.7-22.7-15.6-30.3-28.5c-7.1-12.9-9.8-28.1-11.1-42.8
		c-2.7-24.5-2.7-49.5-1.3-74c1.3-20.1,4.5-40.6,14.7-57.5c10.7-17.4,29-30.3,49-33.9"/>
	<g>
		<path class="st7" d="M1197,358.2c-7.1,11.1-30.8,4.5-44.6-3.6c-14.7,9.8-35.7,5.3-45.9-9.4c-8,10.3-24.5,6.7-30.3-4.9
			c-5.8-11.6-2.7-27.6,5.8-37.4c8-10.3,20.1-15.2,32.1-17.4c28.1-5.3,58.8,5.8,75.3,31.2C1196.5,328.3,1201.4,343.9,1197,358.2"/>
	</g>
	<g>
		<g>
			<path class="st10" d="M1197,355.9c-0.4,0.4-4.5-7.1-12.9-16.9c-8.5-9.8-22.7-22.3-42.3-27.6c-19.2-5.3-38.3-1.8-49.9,4
				c-12,5.8-16.5,13.4-16.9,12.9c0,0,0-0.4,0.9-1.3c0.4-0.9,1.3-2.2,2.7-3.6c2.7-2.7,6.7-6.2,12.5-9.8c11.6-6.2,31.2-10.3,51.3-4.5
				c9.8,2.7,18.7,7.6,25.9,12.9c7.1,5.3,12.9,11.1,16.9,16c4.5,5.3,7.1,9.8,9.4,12.9C1196.1,353.7,1197,355.9,1197,355.9z"/>
		</g>
	</g>
	<g>
		<g>
			<path class="st10" d="M1127.9,360.4c-0.4,0-1.3-4-4-9.8s-7.6-13.8-16-19.2c-8.5-5.3-17.8-6.7-24.1-5.8c-6.7,0.9-9.8,3.1-10.3,2.7
				c0,0,0.9-0.9,2.2-1.8c1.8-0.9,4-2.2,7.6-2.7c6.7-1.3,16.9-0.4,25.4,5.3c8.9,5.8,13.8,14.3,16,20.5
				C1127.9,355.9,1127.9,360.4,1127.9,360.4z"/>
		</g>
	</g>
	<g>
		<g>
			<path class="st13" d="M1056.1,551.6c0,0-60.2,16.9-82.5,54.4c-22.7,37-92.3,298.2-92.3,298.2l79.8,8.9l66.4-173.8l16.5,54.4
				l-10.3,53.5l203.7,9.4l14.3-234l217.9-105.6l24.5-25.4l-63.3-66.9l-24.1,22.7l-218.4,80.2c0,0,8,64.6-50.8,74
				C1078,610,1056.1,551.6,1056.1,551.6z"/>
		</g>
		<g>
			<rect x="1172.5" y="639" class="st14" width="48.6" height="12.5"/>
		</g>
		<g>
			<g>
				<path class="st7" d="M1004.9,662.1c0.4,0,9.8,28.5,20.5,63.7c10.7,35.7,18.7,64.6,18.3,64.6s-9.8-28.5-20.5-64.2
					C1012.5,691.1,1004,662.1,1004.9,662.1z"/>
			</g>
		</g>
		<g>
			<g>
				<path class="st7" d="M1290.1,571.2c0.4,0.4-12.9,8.5-24.5,24.1c-11.6,15.2-15.6,30.3-16.5,30.3c-0.4,0,0.4-4,2.7-9.8
					c2.2-5.8,6.2-13.8,12-21.8c5.8-7.6,12.5-13.8,17.4-17.4C1286.6,572.5,1290.1,570.8,1290.1,571.2z"/>
			</g>
		</g>
	</g>
	<g class="st18">
		<g>
			<path d="M1008.4,674.2c-4.9,21.8-7.1,44.6-6.7,66.9c0,5.3,0,11.1,1.8,16.5c1.8,5.3,4.9,10.3,9.8,12.9c6.2-8.5,12-17.8,13.4-28.5
				c0.4-7.1-1.3-14.7-3.6-21.8c-4.5-16-9.4-32.1-13.8-48.6"/>
		</g>
	</g>
	<path class="st7" d="M1061.9,539.1c10.7,7.6,14.3,21.8,13.8,35.2c-0.4,12.9-4.5,25.9-4.9,39.2c-0.4,12.9,2.7,27.6,13.4,35.2
		c17.4-5.8,34.3-11.6,51.7-17.4c-10.3-5.8-12.5-19.6-10.3-31.2c2.2-11.6,7.6-22.3,8-34.3c1.8-30.8-20.5-57-30.8-69.5"/>
	<g id="Character_2">
		<g>
			<g>
				<g>
					<g>
						<g>
							<polygon class="st10" points="1274.5,1770.1 1254.5,1885.1 1353.9,1885.1 1364.6,1776.4 							"/>
						</g>
					</g>
					<g>
						<g>
							<g>
								<path class="st7" d="M1355.6,1875.8c0,0.4-5.3,0.9-14.3,0.9c-8.9,0-21.4,0-34.8-0.4c-12.9-0.4-25-0.9-34.8-1.3
									c-8.9-0.4-14.3-0.9-14.3-1.3s5.3-0.9,14.3-0.9s21.4,0,34.8,0.9c12.9,0.4,25,0.9,34.8,1.3
									C1350.3,1874.9,1355.6,1875.3,1355.6,1875.8z"/>
							</g>
						</g>
					</g>
					<g class="st11">
						<g>
							<polyline class="st4" points="1254.5,1885.1 1353.9,1885.1 1354.8,1875.8 1256.3,1873.1 1254.5,1883.8 							"/>
						</g>
					</g>
				</g>
			</g>
			<g>
				<g>
					<path class="st7" d="M1303.1,1875.3c-0.4,0,1.8-19.6,5.3-43.7c3.6-24.1,7.1-43.7,7.6-43.2c0.4,0-1.8,19.6-5.3,43.7
						C1307.1,1856.2,1303.5,1875.8,1303.1,1875.3z"/>
				</g>
			</g>
			<g>
				<g>
					<path class="st7" d="M1350.3,1875.3c-0.4,0,2.2-8.5-1.8-20.9c-2.2-6.2-5.8-12.9-12.5-18.7c-6.2-5.3-15.6-8.9-25.4-8.9
						s-19.2,3.1-25.9,8.5c-6.7,5.3-11.1,11.6-13.8,17.8c-5.3,12-4,20.5-4.5,20.5c0,0,0-0.4-0.4-1.3c0-0.9,0-2.2,0-4.5
						c0-3.6,0.9-9.4,3.1-15.6c2.7-6.2,7.1-13.4,14.3-18.7c7.1-5.8,16.9-8.9,27.2-8.9c10.3,0,20.1,3.6,26.7,9.8
						c6.7,5.8,10.7,13.4,12.9,19.6c1.8,6.7,1.8,12,1.3,15.6c-0.4,1.8-0.4,3.1-0.9,4C1350.3,1874.9,1350.3,1875.3,1350.3,1875.3z"/>
				</g>
			</g>
		</g>
		<g>
			<g>
				<g>
					<path class="st10" d="M1701.1,1738l24.1,78.9c0,0,88.7,2.2,94.5,16l-151.5,52.1l-42.8-121.7L1701.1,1738z"/>
				</g>
				<g class="st11">
					<g>
						<path class="st4" d="M1676.1,1826.7c-2.7,1.8-3.6,5.8-1.8,8.5c1.8,2.7,5.8,3.6,8.5,1.8s4-6.7,1.8-8.9
							c-1.8-2.7-6.7-3.6-8.9-0.9"/>
					</g>
				</g>
				<g class="st11">
					<path class="st4" d="M1668.1,1885.6l-4-12.5l147.1-45.5c0,0,7.6,0.4,8.5,5.8L1668.1,1885.6z"/>
				</g>
				<g>
					<g>
						<path class="st7" d="M1727.4,1815.6c0.4,0.9-3.6,2.2-6.2,5.8c-3.1,3.6-3.6,7.6-4.5,7.6s-1.3-4.9,2.2-8.9
							C1722.9,1815.6,1727.4,1814.7,1727.4,1815.6z"/>
					</g>
				</g>
				<g>
					<g>
						<path class="st7" d="M1745.6,1816.9c0.4,0.4-2.2,3.1-4,7.1c-1.3,4-0.9,7.6-1.8,7.6c-0.4,0.4-2.7-4-0.9-8.9
							C1741.2,1817.8,1745.6,1816,1745.6,1816.9z"/>
					</g>
				</g>
				<g>
					<g>
						<path class="st7" d="M1761.2,1832.5c-0.4,0.4-3.1-3.1-2.2-7.6c0.4-4.9,3.6-7.6,4-7.1c0.4,0.4-0.9,3.6-1.3,7.1
							C1761.2,1829,1762.1,1832.5,1761.2,1832.5z"/>
					</g>
				</g>
				<g>
					<g>
						<path class="st7" d="M1720.2,1798.2c0,0.9-4,0.9-8,2.7c-4,1.8-6.7,4-7.6,3.6c-0.4-0.4,1.8-4,6.7-6.2
							C1715.8,1796.4,1720.2,1797.3,1720.2,1798.2z"/>
					</g>
				</g>
			</g>
			<g class="st12">
				<polygon points="1706,1753.6 1710.4,1767.9 1635.5,1792.9 1631.1,1780.4 				"/>
			</g>
			<g>
				<g>
					<path class="st7" d="M1714.9,1782.2c0,0.4-2.7,1.8-7.6,2.7c-2.7,0.4-5.3,0.4-8.9,0.4c-1.8,0-3.6-0.4-5.3-0.9
						c-0.9,0-1.8-0.4-3.1-0.9c-0.9-0.4-2.2-2.2-1.8-4c0.4-1.3,1.8-2.2,2.7-2.7c0.9-0.4,2.2-0.4,3.1-0.4c1.8,0,3.6,0,5.3,0
						c3.6,0.4,6.2,1.3,8.5,2.2c4.5,2.2,6.7,4.5,6.7,4.5c-0.4,0.4-2.7-1.3-7.1-2.7c-2.2-0.9-4.9-1.3-8-1.3c-1.3,0-3.1,0-4.9,0
						c-1.8,0-3.1,0.4-3.1,1.3c0,0.4,0,0.4,0.4,0.9c0.4,0.4,1.3,0.4,2.2,0.9c1.8,0.4,3.1,0.9,4.9,0.9c3.1,0.4,5.8,0.4,8.5,0.4
						C1711.8,1782.6,1714.9,1782.2,1714.9,1782.2z"/>
				</g>
			</g>
			<g>
				<g>
					<path class="st7" d="M1714.4,1784c-0.4,0-2.7-1.8-4.5-6.7c-0.9-2.2-1.8-5.3-1.8-8.5c0-1.8,0-3.6,0.4-5.3c0.4-1.8,0.9-4,3.6-5.3
						c1.3-0.4,3.1,0,4,0.9c0.9,0.9,1.3,1.8,1.8,2.7c0.9,1.8,1.3,3.6,1.8,4.9c0.4,3.6,0.4,6.7-0.4,8.9c-1.8,4.9-4.5,6.7-4.5,6.7
						c-0.4-0.4,1.8-2.7,2.7-7.1c0.4-2.2,0.4-4.9,0-8c-0.4-1.3-0.9-3.1-1.8-4.5s-1.8-2.7-2.2-2.2c-0.9,0.4-1.8,1.8-1.8,3.6
						c-0.4,1.8-0.4,3.1-0.4,4.9c0,3.1,0.4,5.8,1.3,8C1713.1,1780.8,1714.9,1783.5,1714.4,1784z"/>
				</g>
			</g>
		</g>
		<g>
			<path class="st19" d="M1256.3,738.3l-28.5,58.8c-12.9,26.7-8.5,58.4,11.6,80.2l0,0c15.6,16.9,38.3,25.4,61.1,22.7l111-12.5v-66
				l-109.2,3.1l27.2-48.1L1256.3,738.3z"/>
		</g>
		<g>
			<g>
				<g>
					<g>
						<path class="st7" d="M1397.1,529.3c-18.3-30.8-23.6-72.2-28.1-107.9c-2.2-16.9-5.8-40.6,5.8-51.3
							c12.5-11.1,13.8-28.5,28.5-37.4c14.7-8.5,34.3-9.4,48.1,0.4"/>
					</g>
					<g>
						<g>
							<g>
								<g>
									<g>
										<g>
											<g>
												<g>
													<path class="st19" d="M1447.9,639L1447.9,639c28.1,2.2,52.6-19.2,53.5-47.2c1.3-27.2,2.2-54.4,2.2-54.4
														s41-3.6,44.1-44.1c3.1-40.6,2.2-134.2,2.2-134.2l0,0c-45.5-23.2-100.3-19.6-142.6,8.9l2.2,142.6l-0.4,76.7
														C1408.7,612.7,1422.1,636.7,1447.9,639z"/>
												</g>
											</g>
										</g>
									</g>
								</g>
							</g>
							<g>
								<path class="st7" d="M1507.2,443.3c-7.1-8.5-18.3-12-27.6-6.2c-9.4,6.2-12.9,19.6-8,29.4c3.6,7.1,11.6,13.4,20.1,15.2
									c7.6,1.8,12.9,8.9,12,16.9c-1.3,10.3-18.3,13.8-25.9,22.3c-12,12.9-37.9,18.7-55.7,20.5c-17.4,1.8-15.2,2.2-25.4-12
									c-7.1-10.3-9.4-20.5-9.8-33c-0.4-29.9-0.9-59.7-1.8-89.6c0-10.7-0.4-21.8,2.2-32.1c2.7-10.7,8-20.5,16.9-26.7
									c9.8-6.2,22.3-7.1,33.4-10.7c14.3-4.5,25.9-13.8,39.2-20.5c13.4-6.7,29.4-10.7,42.3-4c9.4,4.9,15.6,14.3,25,19.6
									c12.9,7.6,30.8,5.8,37.4,25c2.2,6.7,1.8,13.8-0.4,20.5c-8.9,26.3-41.4,36.5-64.6,25.4c-0.4,4.5,4,14.3-0.9,28.5
									C1514.8,436.2,1514.3,443.3,1507.2,443.3"/>
							</g>
						</g>
						<g>
							<g>
								<path class="st9" d="M1500,468.7c0,0,0,0.9-0.4,1.8c-0.9,0.9-2.2,2.2-4.5,2.2c-4.5,0.4-10.3-4.5-10.7-11.1
									c0-3.1,0.9-6.7,3.1-8.5c1.8-2.2,4.5-3.1,6.2-3.6c4-0.9,6.7,0.9,6.2,0.9c0,0.4-2.7,0-5.8,0.9c-3.1,0.9-7.6,4.9-7.1,10.3
									c0,5.3,4.5,9.4,7.6,9.4C1498.3,470.9,1499.6,468.3,1500,468.7z"/>
							</g>
						</g>
					</g>
				</g>
			</g>
			<g>
				<path class="st7" d="M1400.2,375.5c21.8-9.4,33.9-37.4,25.4-60.2c-8.5-22.3-35.7-36.1-58.4-29s-37.9,33.4-32.1,56.6
					c0.9,2.7,1.8,5.8,0,8.5c-1.8,3.1-5.8,3.6-8.9,4.5c-11.6,4.5-12.9,21.8-4.5,30.8c8.5,8.9,22.3,10.3,34.3,7.1
					c-3.1,10.3,6.2,21.4,17.4,22.7c10.7,1.3,21.4-5.3,27.2-14.3c5.8-8.9,8-20.1,9.4-30.8"/>
			</g>
			<g>
				<g>
					<path class="st3" d="M1427.8,326.5c0,0,0.4,1.3,0,4c0,2.7-0.4,6.7-1.8,11.1c-2.2,9.4-7.6,21.8-17.8,32.5
						c-10.3,10.3-23.2,16-32.5,18.3c-4.5,0.9-8.5,1.3-11.1,1.8c-2.7,0-4,0-4,0c0-0.4,5.8-0.4,14.7-3.1c8.9-2.7,20.9-8,31.2-18.3
						c10.3-10.3,15.6-22.3,18.3-31.2C1427.4,332.3,1427.4,326.1,1427.8,326.5z"/>
				</g>
			</g>
			<g>
				<g>
					<path class="st10" d="M1382.8,288.6c0,0,0.4-0.4,1.3-0.4s2.2-0.4,3.6-0.4c3.1,0,8,1.3,12.9,4.9c2.2,1.8,4.5,4,6.2,7.1
						c1.8,3.1,3.1,6.2,4,10.3c1.8,7.6,0.9,16-0.9,25c-3.6,17.4-12,31.2-19.2,40.1c-3.6,4.5-6.7,8-9.4,9.8c-2.2,2.2-3.6,3.1-4,3.1
						c-0.4-0.4,4.9-4.9,11.6-14.3c6.7-8.9,14.3-23.2,18.3-39.7c1.8-8.5,2.7-16.5,1.3-23.6c-0.9-3.6-1.8-6.7-3.6-9.8
						c-1.8-2.7-3.6-4.9-5.8-6.7c-4.5-3.6-8.9-4.9-11.6-5.3C1384.6,288.6,1382.8,289.1,1382.8,288.6z"/>
				</g>
			</g>
			<g>
				<g>
					<path class="st10" d="M1333.4,353.3c0,0,0.4-1.3,1.3-3.1c0.9-1.8,3.1-4.5,5.8-7.1c5.3-5.3,14.7-12,26.3-13.8
						c12-1.8,22.7,1.3,29.4,4.9c3.6,1.8,5.8,3.6,7.6,4.9c1.8,1.3,2.2,2.2,2.2,2.2c-0.4,0.4-4-2.7-10.7-5.8c-6.7-3.1-17.4-5.8-28.5-4
						s-20.5,7.6-25.9,12.5C1336,349.7,1333.8,353.7,1333.4,353.3z"/>
				</g>
			</g>
			<g>
				<g>
					<path class="st10" d="M1413.1,369.3c0.4-0.4,5.3,4,14.3,9.8c8.9,5.8,21.4,13.4,36.1,20.1c7.6,3.1,14.7,5.8,21.4,8
						c6.7,2.2,12.9,4,17.8,4c5.3,0,9.4-1.3,11.6-3.1c2.7-1.3,3.6-3.1,3.6-2.7c0,0-0.4,1.8-3.1,3.6c-2.2,1.8-6.7,3.6-12,4
						c-5.3,0-12-1.3-18.7-3.6c-6.7-2.2-14.3-4.5-21.8-8c-15.2-6.7-27.6-14.3-36.5-20.5c-4.5-3.1-7.6-5.8-9.8-8
						C1414.5,370.6,1413.1,369.3,1413.1,369.3z"/>
				</g>
			</g>
			<g>
				<g>
					<path class="st7" d="M1401.1,318.1c0,0-0.4-1.8-0.4-5.8c0-3.6,0.4-8.9,2.7-15.2c2.2-6.2,7.1-13.4,15.2-16.9
						c4-1.8,8.9-3.1,13.8-2.7c4.9,0.4,9.8,3.1,13.4,6.7c3.6,3.6,6.2,8,7.6,12.9c1.3,4.5,1.3,9.4,0.9,13.8c-0.9,8.9-4.5,16-7.6,21.8
						c-3.6,5.8-6.7,9.8-8.9,12.5c-2.2,2.7-3.6,4.5-3.6,4.5s0.9-1.8,3.1-4.9s4.9-7.1,8-12.9c3.1-5.8,6.2-12.5,7.1-20.9
						c0.4-4,0-8.5-0.9-12.9c-1.3-4.5-3.6-8.5-7.1-11.6s-7.6-5.3-12-6.2c-4.5-0.4-8.9,0.4-12.5,2.2c-7.6,3.6-12.5,9.8-14.7,15.6
						c-2.7,5.8-3.1,11.1-3.6,14.7C1401.1,315.8,1401.1,318.1,1401.1,318.1z"/>
				</g>
			</g>
		</g>
		<g>
			<path class="st19" d="M1863.7,224.5c-6.7-3.1-25.4,32.1-25.9,21.8c-0.4-9.8,28.1-40.6,21.4-43.7c-9.4-4-28.5,33.4-30.3,36.1
				c-1.8,3.1-6.2,0.4-4.5-2.2c2.7-4,29.4-44.6,20.1-48.6c-4.9-2.2-8.5,7.1-8.5,7.1s-21.8,40.1-26.3,37.9c-4-2.2,8-25.9,12.5-33.9
				c4.5-7.6,2.7-12.9-2.2-12c-3.6,0.4-18.3,24.1-22.7,31.6c-4.5,7.6-16,29.4-19.2,13.8c-2.7-15.6-10.7-26.3-15.2-27.6
				c-4-1.3-7.6,4-4.9,8c2.2,3.1,4.5,9.8,5.8,14.7c1.3,4,1.8,8.5,1.3,12.5c-0.4,4.9-0.9,8.9-1.3,12.5l-8.9,18.3
				c0,0-62.8,143.5-73.5,164c-11.1,20.5-98.1,111-98.1,111l18.3,105.6L1743,498.6l74.9-210.4l1.8-5.3c0,0,26.7-28.5,33.4-37.4
				C1867.8,226.7,1866,225.3,1863.7,224.5z"/>
		</g>
		<g>
			<g>
				<g>
					<path class="st10" d="M1340.9,933.6c0,0-44.6,100.7-53.9,200.6l-47.2,640.5l157.3,16.5l45.9-663.6c0,0,144.4,669.9,149.8,669.9
						c5.8,0,126.6-45,126.6-45l-142.2-815.2L1340.9,933.6z"/>
				</g>
				<g>
					<g>
						<path class="st7" d="M1509.9,1143.5c0,0.9-32.1-6.2-71.3-16c-39.2-9.4-70.9-17.8-70.4-18.7c0-0.9,32.1,6.2,71.3,16
							S1509.9,1143,1509.9,1143.5z"/>
					</g>
				</g>
			</g>
			<g>
				<g>
					<path class="st14" d="M1406,1652.5c0,0-0.4,0-1.8,0.4c-0.9,0-2.7,0.4-4.9,0.4c-4,0.4-10.3,0-17.4-0.9c-7.6-0.9-16-3.1-25.4-6.2
						s-19.6-6.7-30.3-10.3c-10.7-3.6-20.9-6.2-30.8-7.6c-9.8-1.3-18.3-1.3-25.9,0c-14.7,2.2-22.3,7.6-22.7,7.1c0,0,0.4-0.4,1.3-0.9
						s2.2-1.3,4-2.2c3.6-1.8,9.4-4,16.9-5.3c7.6-1.3,16.5-1.3,26.3-0.4c9.8,1.3,20.5,3.6,31.2,7.1c10.7,3.6,20.9,7.1,30.3,10.3
						c9.4,3.1,17.8,5.3,25,6.7C1397.1,1653.4,1406,1652,1406,1652.5z"/>
				</g>
			</g>
			<g>
				<g>
					<path class="st14" d="M1406.9,1598.5c0,0-2.2,0-6.2,0c-4,0-10.3,0-17.4,0.4c-14.7,0.9-34.8,5.8-56.6,10.3
						c-11.1,2.2-21.8,3.6-31.6,4c-9.8,0.4-18.7-0.4-26.3-1.8c-7.1-1.3-12.9-3.6-16.9-5.3c-1.8-0.9-3.1-1.8-4.5-2.2
						c-0.9-0.4-1.3-0.9-1.3-0.9c0-0.4,8,4.5,22.7,6.7c14.3,2.7,35.2,1.8,57-3.1c21.8-4.5,42.3-8.9,57-9.8c7.6-0.4,13.4,0,17.4,0.4
						C1404.7,1597.7,1406.9,1598.5,1406.9,1598.5z"/>
				</g>
			</g>
			<g>
				<g>
					<path class="st14" d="M1687.2,1536.1c0,0-0.4,0.4-0.9,1.3c-0.4,0.9-1.8,2.2-3.1,3.6c-3.1,3.1-8,6.7-15.2,8.9
						c-7.1,2.2-16,3.6-25.9,2.7c-9.8-0.9-20.5-3.1-31.2-4.9c-11.1-1.8-21.8-2.2-31.2-0.9c-9.4,1.3-17.8,3.6-24.5,6.7
						c-13.4,5.3-20.5,11.6-20.9,11.1c0,0,0.4-0.4,1.3-1.3c0.9-0.9,2.2-1.8,3.6-2.7c3.6-2.2,8.5-5.8,15.2-8.5
						c6.7-3.1,15.2-5.8,25-7.1c9.8-1.3,20.5-1.3,31.6,0.9c11.1,1.8,21.4,4,31.2,4.9c9.4,0.9,18.3,0,25.4-2.2c7.1-2.2,12-5.3,15.2-8
						C1685.5,1537.5,1686.8,1535.7,1687.2,1536.1z"/>
				</g>
			</g>
			<g>
				<g>
					<path class="st14" d="M1710.9,1653.8c0,0-1.3,1.8-4,4.9c-2.7,3.1-7.1,7.1-12.9,11.6c-11.6,8.9-30.3,19.2-52.6,23.2
						c-22.3,4-43.2,1.3-57.5-3.1c-7.1-2.2-12.5-4.5-16.5-6.2c-3.6-1.8-5.8-3.1-5.8-3.1s2.2,0.9,5.8,2.2c4,1.3,9.4,3.6,16.5,5.3
						c14.3,4,34.8,6.2,56.6,2.2c21.8-4,40.6-13.4,52.1-21.8C1704.6,1660.5,1710.4,1653.4,1710.9,1653.8z"/>
				</g>
			</g>
			<g>
				<g>
					<path class="st14" d="M1671.6,1486.7c0,0.4-2.2,0-6.2,0s-9.8,0.9-16.5,3.6c-6.7,2.7-13.8,7.1-21.4,13.4
						c-7.6,5.8-15.2,12.9-24.1,19.6s-19.2,10.7-29,12c-9.8,1.3-18.3,0.9-25.4,0c-7.1-0.9-12.9-2.2-16.9-3.1c-4-0.9-6.2-1.3-6.2-1.8
						c0,0,2.2,0,6.2,0.9c4,0.4,9.8,1.3,16.9,2.2c7.1,0.4,15.6,0.9,25-0.4c9.4-1.3,19.2-5.3,27.6-11.6c8.9-6.2,16.5-13.4,24.1-19.2
						c7.6-5.8,15.2-10.3,21.8-12.9c6.7-2.7,12.9-3.1,16.9-3.1c2.2,0,3.6,0.4,4.5,0.4C1671.2,1486.7,1671.6,1486.7,1671.6,1486.7z"/>
				</g>
			</g>
			<g>
				<g>
					<path class="st14" d="M1420.3,1461.3c0,0-0.4,0.4-1.3,0.9c-0.9,0.4-2.2,1.3-4.5,2.2c-4,1.8-9.8,3.6-17.4,4.5
						c-7.6,0.9-16.9,0.4-26.7-1.3c-9.8-1.8-20.5-4.5-31.6-8s-21.8-6.2-31.6-8c-9.8-1.8-18.7-2.7-26.3-1.8
						c-15.2,1.3-23.2,6.7-23.6,5.8c0,0,0.4-0.4,1.3-0.9c0.9-0.4,2.2-1.3,4.5-2.2c4-1.8,9.8-3.6,17.4-4.5c7.6-0.9,16.9-0.4,26.7,1.3
						c9.8,1.8,20.5,4.9,31.6,8c11.1,3.6,21.8,6.2,31.6,8c9.8,1.8,18.7,2.2,26.3,1.8C1411.8,1466.2,1419.8,1460.8,1420.3,1461.3z"/>
				</g>
			</g>
			<g>
				<g>
					<path class="st14" d="M1650.7,1351.6c0,0,0,0.4-0.4,1.8c-0.4,0.9-0.9,2.7-1.8,4.5c-1.8,4-5.3,9.4-11.1,14.3
						c-5.8,5.3-13.4,10.3-23.2,13.8c-9.4,3.6-20.5,5.8-32.1,7.6c-11.6,1.3-22.7,2.7-32.5,4c-9.8,1.3-19.2,2.7-26.3,4.5
						c-7.1,2.2-12.5,5.3-15.6,8c-3.1,2.7-4.9,4.5-4.9,4.5s0.4-0.4,0.9-1.3c0.9-0.9,1.8-2.2,3.6-3.6c3.1-3.1,8.5-6.7,15.6-8.9
						c7.6-2.7,16.5-3.6,26.3-5.3c9.8-1.8,20.9-2.7,32.5-4c11.6-1.3,22.3-3.6,31.6-7.1c9.4-3.6,16.9-8.5,22.7-13.4
						C1647.6,1361,1650.3,1351.2,1650.7,1351.6z"/>
				</g>
			</g>
			<g>
				<g>
					<path class="st14" d="M1266.5,1338.7c0.4-0.4,7.6,6.2,22.3,10.3c7.1,2.2,16.5,3.1,26.3,2.2c9.8-0.9,20.5-4.9,30.8-10.7
						c10.3-5.3,19.6-11.6,29.4-15.6c9.4-4,18.7-6.2,26.3-6.7c8-0.4,14.3,1.3,18.3,3.1c1.8,0.9,3.6,1.8,4.5,2.7
						c0.9,0.4,1.3,0.9,1.3,0.9s-2.2-1.3-6.2-2.7c-4-1.3-10.3-3.1-17.8-2.2c-7.6,0.4-16.5,2.7-25.9,7.1c-9.4,4-18.7,10.3-29,16
						c-10.3,5.8-21.4,9.8-31.6,10.7s-19.6-0.4-27.2-2.7c-7.6-2.2-12.9-5.3-16.5-8c-1.8-1.3-3.1-2.2-4-3.1
						C1266.9,1339.1,1266.5,1338.7,1266.5,1338.7z"/>
				</g>
			</g>
			<g>
				<g>
					<path class="st14" d="M1625.3,1221.5c0,0-0.9,2.2-3.6,5.8s-6.2,8.5-12,13.4c-11.1,10.3-29.9,21.8-53,25.4
						c-11.6,1.8-22.7,0.9-32.5,0c-9.8-0.9-18.7-0.9-26.3,0.4c-7.6,1.3-12.9,3.6-16.5,5.8c-3.6,2.2-5.3,4-5.3,3.6
						c0,0,0.4-0.4,0.9-1.3c0.9-0.9,2.2-1.8,3.6-3.1c3.6-2.7,9.4-5.3,16.9-6.7c7.6-1.8,16.9-1.3,26.7-0.9c9.8,0.9,20.9,1.3,32.1-0.4
						c22.7-3.6,41-14.7,52.1-24.5C1619.9,1229.5,1625.3,1221.5,1625.3,1221.5z"/>
				</g>
			</g>
			<g>
				<g>
					<path class="st14" d="M1426.5,1210.3c0,0.4-8.5-3.6-22.7-4c-7.1,0-15.6,0.9-24.5,4c-4.5,1.3-8.5,4-13.8,6.2
						c-2.7,0.9-4.9,1.8-8,2.2c-2.7,0.4-5.8,0-8.5-0.9c-5.3-1.8-9.8-5.3-14.3-8c-4.5-2.7-8.9-4.9-13.4-6.2
						c-8.9-3.1-17.4-3.6-24.5-3.1c-14.3,0.9-22.3,5.3-22.3,4.9c0,0,0.4-0.4,1.3-0.9c0.9-0.4,2.2-1.3,4.5-1.8c3.6-1.3,9.4-3.1,16.5-4
						c7.1-0.4,16,0,25.4,2.7c4.5,1.3,9.4,3.6,13.8,6.2c4.5,2.7,8.9,6.2,13.8,8s10.3,0.9,14.7-0.9c4.9-1.8,8.9-4.5,13.8-5.8
						c8.9-3.1,17.8-4,25.4-3.6c7.1,0.4,12.9,1.8,16.9,3.1c1.8,0.9,3.6,1.3,4.5,1.8C1426.1,1209.9,1426.5,1210.3,1426.5,1210.3z"/>
				</g>
			</g>
			<g>
				<g>
					<path class="st14" d="M1625.3,1194.3c0,0-1.8,1.8-4.9,4.9c-3.1,3.1-8,7.1-14.3,12c-3.1,2.2-6.7,4.9-10.7,7.1
						c-1.8,1.3-4,2.7-6.2,3.6c-2.2,1.3-4.5,2.2-6.7,3.6c-9.4,4.5-20.1,8.9-32.1,11.6c-11.6,2.7-23.2,3.6-33.9,4c-2.7,0-5.3,0-7.6,0
						c-2.7,0-4.9-0.4-7.1-0.4c-4.5-0.4-8.9-1.3-12.9-1.8c-7.6-1.3-13.8-3.1-18.3-4.5c-4-1.3-6.7-2.2-6.2-2.2c0-0.4,9.4,2.7,25,5.3
						c4,0.4,8,1.3,12.5,1.8c2.2,0,4.5,0.4,7.1,0.4c2.2,0,4.9,0,7.6,0c10.3,0,21.8-1.3,33.4-4c11.6-2.7,22.3-6.7,31.6-11.1
						c2.2-1.3,4.5-2.2,6.7-3.6s4-2.2,6.2-3.6c4-2.2,7.6-4.9,10.7-7.1c6.2-4.5,11.6-8.5,14.7-11.1
						C1623.5,1195.6,1625.3,1194.3,1625.3,1194.3z"/>
				</g>
			</g>
			<g>
				<g>
					<path class="st14" d="M1598.5,1066.8c0,0-0.9,0.9-3.1,1.8c-2.2,1.3-4.9,2.7-8.5,4.5c-7.6,4-18.3,9.4-32.1,15.6
						c-13.8,5.8-31.2,12-51.3,14.3c-9.8,0.9-20.5,0.9-31.6-0.4c-10.7-1.8-21.8-4.9-32.5-8.9c-21.8-8-41.4-17.4-60.6-22.3
						c-19.2-4.9-37.4-5.8-52.1-4c-15.2,1.3-26.7,4.9-34.8,7.6c-4,1.3-7.1,2.7-8.9,3.6c-2.2,0.9-3.1,1.3-3.1,1.3s0.9-0.4,3.1-1.8
						c1.8-0.9,4.9-2.2,8.9-4c8-3.1,19.6-6.7,34.8-8.5s33.4-1.3,53,3.6c19.6,4.9,39.7,14.3,61.1,22.3c10.7,4,21.4,7.1,32.1,8.9
						c10.7,1.8,20.9,1.8,30.8,0.9c19.6-2.2,37-8,50.8-13.8c13.8-5.8,25-11.1,32.5-14.7c3.6-1.8,6.7-3.1,8.9-4
						C1597.2,1067.3,1598.5,1066.8,1598.5,1066.8z"/>
				</g>
			</g>
			<g>
				<g>
					<path class="st14" d="M1589.2,1000.4c-0.4,0.4-2.2-3.6-8.5-8c-6.2-4-16.5-8-29.9-8c-6.7,0-13.8,0.9-20.9,3.6
						c-7.6,2.7-15.2,5.8-23.2,9.8c-16,7.1-33.9,16-53.9,20.5c-20.1,4.9-39.7,6.2-57.5,5.8c-17.8-0.4-33.4-3.6-46.4-7.1
						c-12.9-3.6-23.2-7.6-29.9-10.7c-3.6-1.8-5.8-3.1-7.6-4c-1.8-0.9-2.7-1.3-2.7-1.3s0.9,0.4,2.7,0.9c2.2,0.9,4.5,2.2,8,3.6
						c7.1,2.7,16.9,6.7,29.9,9.8c12.9,3.1,28.5,5.8,46.4,6.7c17.4,0.4,37-0.9,56.6-5.8c20.1-4.5,37.4-12.9,53.5-20.1
						c8-3.6,16-7.1,23.2-9.4c7.6-2.7,15.2-3.6,21.8-3.6c13.4,0,24.1,4.5,30.3,8.9c3.1,2.2,4.9,4.5,6.2,6.2
						C1588.7,999.5,1589.2,1000.4,1589.2,1000.4z"/>
				</g>
			</g>
		</g>
		<g>
			<g>
				<g>
					<g>
						<g>
							<path class="st20" d="M1678.8,586.8l-62.8-82.5l-2.7,2.2l-99.8,62.8l-106.5,3.6c0,0-74.9,0-103,58.8
								c-3.1,6.7-64.6,129.3-64.6,129.3l94.9,34.8l15.2-43.7l19.6,99.4l-28.1,82l238,12.9l-19.6-119l17.8-142.6L1678.8,586.8z"/>
						</g>
					</g>
				</g>
				<g>
					<g>
						<path class="st7" d="M1513.4,778.9c0,0,0.4,2.2,0,6.7c-0.4,4.5-1.8,10.7-4.5,18.3c-5.8,14.7-19.6,33.4-41.4,44.6
							c-21.8,11.1-44.6,12.9-60.2,12c-8-0.4-14.3-1.3-18.7-1.8c-4.5-0.9-6.7-1.3-6.7-1.3c0-0.4,9.8,1.3,25.4,1.3
							c15.6,0,37.4-1.8,58.8-12.5c20.9-10.7,35.2-28.5,41-42.8C1513,788.7,1512.5,778.5,1513.4,778.9z"/>
					</g>
				</g>
				<g>
					<g>
						<path class="st7" d="M1370.4,856c-0.9,0-12-51.3-25.4-115.4c-13.4-63.7-23.6-115.9-22.7-115.9s12,51.3,25.4,115.4
							C1361,803.9,1370.8,856,1370.4,856z"/>
					</g>
				</g>
			</g>
			<g class="st18">
				<g>
					<path d="M1399.3,860.5c-2.7-9.4,4.9-19.2,13.4-23.2c8.9-4,18.7-4.9,28.1-7.1c18.3-4.5,34.8-15.2,45.9-30.8
						c1.3-2.2,3.1-4.5,5.8-4.5s4.5,2.2,5.3,4.5c0.4,2.7,1.3,4.5,0.4,8.9c-4.5,22.7-22.7,32.5-41.9,42.3
						C1438.1,860.9,1422.9,862.2,1399.3,860.5"/>
				</g>
			</g>
		</g>
		<g>
			<g>
				<path class="st21" d="M1435,279.3"/>
			</g>
		</g>
	</g>
</g>
</svg>
