<?xml version="1.0" encoding="utf-8"?>
<!-- Generator: Adobe Illustrator 23.0.1, SVG Export Plug-In . SVG Version: 6.00 Build 0)  -->
<svg version="1.1" id="_x2018_лой_x5F_1" xmlns="http://www.w3.org/2000/svg" xmlns:xlink="http://www.w3.org/1999/xlink"
	 x="0px" y="0px" viewBox="0 0 2800 2000" style="enable-background:new 0 0 2800 2000;" xml:space="preserve">
<style type="text/css">
	.st0{fill:#F5F5F5;}
	.st1{fill:#E0E0E0;}
	.st2{opacity:0.5;fill:#E0E0E0;enable-background:new    ;}
	.st3{fill:#C9C9C9;}
	.st4{fill:#FFC93C;}
	.st5{fill:#DFEBFD;}
	.st6{fill:#2C3A64;}
	.st7{fill:#FFB27D;}
	.st8{fill:#00858E;}
	.st9{fill:#234375;}
	.st10{fill:#007477;}
	.st11{fill:#ED7D2B;}
	.st12{fill:#ED985F;}
	.st13{fill:#263238;}
	.st14{fill:#ED975D;}
	.st15{fill:#FFFFFF;}
	.st16{fill:#739AF0;}
	.st17{fill:#D4E1FF;}
	.st18{fill:#AEC3FF;}
	.st19{fill:#F9DDBF;}
	.st20{fill:#2E3552;}
	.st21{fill:#2A4A7C;}
	.st22{fill:#EF7E29;}
	.st23{fill:#E58638;}
	.st24{fill:#163560;}
	.st25{fill:#FCA56B;}
</style>
<path class="st0" d="M421.4,1796.3c0,0-312.5-338.4-202.6-732.8C290.6,805.8,528.6,961.9,516,544.2s701.3-461.1,899.3-339.9
	s202.2,198.6,610.9,150.5s586.7,319.1,374.9,627.6c-185.5,270.2,418.7,243.1,59.5,814.6L421.4,1796.3z"/>
<path class="st1" d="M1182.9,662.8l35.6-4c3-0.3,5.9,1.1,7.5,3.6c2.1,3.2,4.3,6.3,6.6,9.4c4.4,5.7,9.1,11,14.1,15.8
	c2.4,2.2,3.1,5.6,1.9,8.6l-13.7,34.9c-1.5,3.7,0.2,8,3.8,9.8l30.7,15.2c3.5,1.7,7.7,0.5,9.8-2.7l18.6-29.1c1.7-2.9,5.2-4.2,8.6-3.3
	c14.1,3.7,28.8,5.2,43.4,4.3c3.5-0.2,6.8,2.1,7.9,5.5l6.3,20c1.2,3.8,5.1,6.1,9.1,5.4l33.3-6.7c0.7-0.1,1.3-0.3,1.9-0.6
	c2.9-1.4,4.7-4.5,4.3-7.8l-3-26.6l-0.7-6.5c5.5-3.1,11-6.7,16.2-10.7c7-5.4,13.3-11.3,19-17.6c2.2-2.4,5.5-3.3,8.5-2.1l28.1,11
	c3.8,1.5,8.2-0.2,10-3.9l11.6-23.5l3.3-6.7c1.8-3.7,0.6-8.2-2.8-10.3l-24.3-15.5c-2.8-1.8-4.2-5.1-3.4-8.3
	c2.3-9.6,3.5-19.4,3.7-29.2c0.1-0.8,0.1-1.6,0.1-2.5c0-0.3,0-0.6,0.1-0.8c0.3-3.1,2.5-5.8,5.5-6.7l32.5-10.3
	c0.4-0.1,0.7-0.3,1.1-0.4c3.2-1.5,5-5.1,4.3-8.6l-6.7-33.2c-0.8-4-4.5-6.7-8.6-6.3l-37.2,4.2c-3.2,0.4-6.2-1.2-7.7-4
	c-3.3-6.1-7.2-12-11.6-17.8c-2.3-3-4.8-6-7.3-8.7c-2-2.3-2.7-5.5-1.5-8.4l13.1-33.5c1.5-3.7-0.2-7.9-3.7-9.7l-30.4-15
	c-3.7-1.8-8.1-0.6-10.4,2.9l-14.7,23c-2,3.1-5.7,4.4-9.2,3.3c-13.5-4.7-27.7-7.2-41.9-7.5c-3.4,0-6.4-2.3-7.4-5.5l-9.3-29.3
	c-1.2-3.9-5.3-6.3-9.3-5.5l-33.1,6.6c-4,0.8-6.7,4.5-6.2,8.5l0.2,1.6l3.5,30.9c0.4,3.3-1.3,6.4-4.3,8l0,0c-7.1,3.7-14,8-20.6,13
	c-3.5,2.7-6.8,5.5-10,8.5c-2.2,2.1-5.4,2.7-8.2,1.6l-28.5-11.2c-3.9-1.5-8.3,0.2-10.2,3.9l-14.9,30.3c-0.4,0.9-0.7,1.8-0.8,2.7
	c-0.3,2.9,1,5.9,3.6,7.5l19.4,12.3c2.4,1.5,3.7,4.2,3.6,7c0,0.7-0.2,1.5-0.4,2.2c-5.9,17.3-8.3,35.7-7,54c0.3,3.1-1.5,6-4.2,7.4
	c-0.4,0.2-0.8,0.4-1.2,0.5l-26.3,8.3c-3.8,1.2-6.1,5.1-5.3,9l0.2,0.8l6.5,32.4C1175,660.6,1178.8,663.3,1182.9,662.8z M1410.8,561.7
	c2,5.1,3.7,10.6,4.8,16.5c2.2,11.2-0.1,28.9-5.2,39.1c-0.5,1.1-1.1,2.2-1.7,3.2c-34.8,64.7-126.2,51.8-141.3-21.2
	c-1.9-9.5-0.7-23.4,2.7-34.1c0.8-2.5,1.7-4.8,2.7-6.7c4.7-9.3,10.4-17.1,17-23.4C1327.5,499.1,1390.2,510.9,1410.8,561.7z"/>
<path class="st1" d="M2313.9,538.1c-34.2-68.9-152.6-21.7-152.6-21.7s-58.1,144-81.8,151.9c-23.7,7.9,25.7-132.9,25.7-132.9
	c-47.9,4.8-156.4,86.3-156.4,86.3s37.1,147.2,12.3,149s-26.2-132-26.2-132c-42.8,22.7-74.8,84.3-74.8,84.3
	c-35.9,97,90.5,138.2,90.5,138.2s11.8,51.3-8.3,116.8l0,0c0,0-5,12.4-8.6,32.4l12.4-2.5c0.3-3.5,0.8-7,1.4-10.3c0,0,0,0,0-0.1
	c0,0,0-0.1,0-0.1c0.5-2.1,1.2-5.1,2-8.7v0c0,0,0,0,0,0c2.3-8.2,3.8-14.2,4.6-18.5c0,0,0,0,0,0c6.7-25.6,17.1-59.2,26.7-67.7
	c0,0-1.8-1.7-3.8-5.2c1.2,1.7,2.5,3.4,3.8,5.2c30.3,41.3,138,27.8,194.8,3.9c56.8-23.9,27.7-35.5-9.6-56.2
	c-37.3-20.8-102.6-0.4-124.4-7.1c-21.8-6.7,4.9-23,44.9-27.9c40.1-4.8,67.6,30.7,132.6,24.1c64.9-6.6,89.7-136.1,89.7-136.1
	c-41.3,22.4-125,13.8-131.1-0.8c-6.1-14.6,111.1-36.3,128.4-44.4C2323.5,649.8,2348.1,607,2313.9,538.1z"/>
<path class="st1" d="M360.5,1067.8C346.5,992.1,469.6,959,469.6,959s132.9,80.5,156.5,72.6c23.7-7.9-100.2-91-100.2-91
	c41.3-24.9,176.9-24.6,176.9-24.6s58.5,140.1,79.5,126.6c21-13.5-58.1-121.4-58.1-121.4c47.9-7.5,110.3,22.7,110.3,22.7
	c86.9,56.2,10.3,164.9,10.3,164.9s21.3,48.1,76.7,88.5l0,0c0,0,11.4,6.9,26.3,20.8l-11.4,5.5c-2.4-2.6-4.8-5.1-7.3-7.4c0,0,0,0,0,0
	c0,0-0.1-0.1-0.1-0.1c-1.6-1.4-4-3.4-6.8-5.8l0,0c0,0,0,0,0,0c-6.8-5.2-11.5-9.1-14.8-12c0,0,0,0,0,0c-20.7-16.4-49.1-37.1-62-38.2
	c0,0,0.4-2.4-0.1-6.4c0,2,0,4.2,0.1,6.4c0.5,51.2-93.8,104.9-153.6,119.8s-43.4-11.8-26-50.8c17.4-38.9,81.9-61.8,95.4-80.2
	s-17.7-15.5-52.7,4.6s-35.7,65.1-91.7,98.8c-55.9,33.6-153.4-55.2-153.4-55.2c46.5-6.8,108.4-63.9,104.5-79.2
	c-3.9-15.3-110.7,37.5-129.4,41.4C419.7,1162.9,374.4,1143.5,360.5,1067.8z"/>
<path class="st1" d="M2386.9,1553.5c60.6-47.5-9.7-153.8-9.7-153.8s-152.9-27.7-165.3-49.3c-12.5-21.6,135.3-1.8,135.3-1.8
	c-14.4-46-116.2-135.6-116.2-135.6s-136.6,66.2-143.4,42.2c-6.8-24,124-52.5,124-52.5c-30.9-37.3-97.7-56.1-97.7-56.1
	c-102.3-15.5-116.9,116.7-116.9,116.7s-47.8,21.9-116.1,15.5l0,0c0,0-13.1-2.4-33.5-1.9l4.9,11.7c3.5-0.4,7-0.6,10.4-0.7
	c0,0,0,0,0.1,0c0.1,0,0.1,0,0.2,0c2.1,0,5.2,0.1,8.9,0.2h0c0,0,0,0,0,0c8.5,0.6,14.6,0.8,19,0.8c0,0,0,0,0,0
	c26.4,1.4,61.4,4.7,71.7,12.4c0,0,1.3-2.1,4.3-4.8c-1.4,1.5-2.8,3.1-4.3,4.8c-34.3,38,0.8,140.8,35.7,191.5
	c34.9,50.8,40.3,19.9,53.1-20.8c12.8-40.7-20.5-100.5-18.3-123.3s23.6,0.1,36.4,38.4s-16.4,72.4,3.3,134.7
	c19.6,62.3,151.5,60.2,151.5,60.2c-30.3-35.9-38.9-119.6-25.8-128.5c13-8.9,58,101.4,69.6,116.7
	C2279.5,1585.5,2326.4,1601,2386.9,1553.5z"/>
<g>
	<path class="st2" d="M1837.2,662.7c0,0,7.1-141.8,73.4-230.6c8.8-11.8,27.6-6,28.3,8.7c0,0.3,0,0.5,0,0.8
		C1939.7,466.7,1866.3,578.1,1837.2,662.7z"/>
	<path class="st2" d="M1831.2,703.6c0,0,59.7-180.7,177-266.9c7.2-5.3,17.4-4.2,22.9,2.7c3.6,4.5,5.6,11.9,2.7,23.7
		C2026.2,494.7,1896.6,608.2,1831.2,703.6z"/>
</g>
<g>
	<path class="st2" d="M815.9,893c0,0-59.5-103.8-143.2-145.2c-11.1-5.5-23,6.1-17.9,17.4c0.1,0.2,0.2,0.4,0.3,0.6
		C664,784.9,761.7,840.5,815.9,893z"/>
	<path class="st2" d="M836,921.4c0,0-113.9-112.9-234.9-132.8c-7.4-1.2-14.7,3.5-16.2,10.8c-1,4.8,0.3,11,7,18.8
		C609.8,839,750.5,874.7,836,921.4z"/>
</g>
<path class="st3" d="M2129.5,668.7v900.1c0,15.8-11.4,28.5-25.4,28.5H805.5c-14,0-25.4-12.8-25.4-28.5V668.7
	c0-15.8,11.4-28.5,25.4-28.5h1298.7C2118.1,640.2,2129.5,652.9,2129.5,668.7z"/>
<g>
	<path class="st4" d="M2065.3,617.3v73H616v-73c0-15.1,12.2-27.3,27.3-27.3h1394.8C2053.1,590,2065.3,602.2,2065.3,617.3z"/>
	<g>
		<path class="st5" d="M660.3,640.2c0-7,5.7-12.7,12.7-12.7s12.7,5.7,12.7,12.7s-5.7,12.7-12.7,12.7
			C666,652.9,660.3,647.2,660.3,640.2z"/>
		<path class="st5" d="M710.4,640.2c0-7,5.7-12.7,12.7-12.7s12.7,5.7,12.7,12.7s-5.7,12.7-12.7,12.7
			C716,652.9,710.4,647.2,710.4,640.2z"/>
		<path class="st5" d="M761.6,640.2c0-7,5.7-12.7,12.7-12.7s12.7,5.7,12.7,12.7s-5.7,12.7-12.7,12.7S761.6,647.2,761.6,640.2z"/>
	</g>
</g>
<path class="st1" d="M1554.9,511.4l17.3-2c1.4-0.1,2.8,0.5,3.6,1.7c1,1.6,2.1,3.1,3.2,4.6c2.1,2.8,4.4,5.3,6.9,7.7
	c1.2,1.1,1.5,2.7,0.9,4.2l-6.7,17c-0.7,1.8,0.1,3.9,1.8,4.8l14.9,7.4c1.7,0.8,3.7,0.3,4.8-1.3l9-14.2c0.8-1.4,2.5-2,4.2-1.6
	c6.9,1.8,14,2.5,21.2,2.1c1.7-0.1,3.3,1,3.8,2.7l3.1,9.8c0.6,1.8,2.5,3,4.4,2.6l16.2-3.3c0.3-0.1,0.7-0.2,0.9-0.3
	c1.4-0.7,2.3-2.2,2.1-3.8l-1.4-13l-0.4-3.2c2.7-1.5,5.3-3.3,7.9-5.2c3.4-2.6,6.5-5.5,9.2-8.5c1.1-1.2,2.7-1.6,4.2-1l13.7,5.4
	c1.9,0.7,4-0.1,4.9-1.9l5.7-11.4l1.6-3.3c0.9-1.8,0.3-4-1.4-5l-11.8-7.6c-1.4-0.9-2.1-2.5-1.7-4c1.1-4.7,1.7-9.4,1.8-14.2
	c0-0.4,0-0.8,0-1.2c0-0.1,0-0.3,0-0.4c0.2-1.5,1.2-2.8,2.7-3.3l15.8-5c0.2,0,0.4-0.1,0.5-0.2c1.5-0.8,2.4-2.5,2.1-4.2l-3.3-16.2
	c-0.4-2-2.2-3.3-4.2-3.1l-18.1,2c-1.5,0.2-3-0.6-3.7-2c-1.6-3-3.5-5.9-5.7-8.7c-1.1-1.5-2.3-2.9-3.6-4.3c-1-1.1-1.3-2.7-0.7-4.1
	l6.4-16.3c0.7-1.8-0.1-3.9-1.8-4.7l-14.8-7.3c-1.8-0.9-3.9-0.3-5.1,1.4l-7.2,11.2c-1,1.5-2.8,2.1-4.5,1.6
	c-6.6-2.3-13.5-3.5-20.4-3.7c-1.6,0-3.1-1.1-3.6-2.7l-4.5-14.3c-0.6-1.9-2.6-3-4.5-2.7l-16.1,3.2c-1.9,0.4-3.3,2.2-3,4.1l0.1,0.8
	l1.7,15.1c0.2,1.6-0.6,3.1-2.1,3.9l0,0c-3.5,1.8-6.8,3.9-10,6.4c-1.7,1.3-3.3,2.7-4.9,4.1c-1.1,1-2.6,1.3-4,0.8l-13.9-5.5
	c-1.9-0.8-4.1,0.1-4.9,1.9l-7.3,14.7c-0.2,0.4-0.3,0.9-0.4,1.3c-0.1,1.4,0.5,2.9,1.8,3.6l9.5,6c1.2,0.8,1.8,2.1,1.8,3.4
	c0,0.4-0.1,0.7-0.2,1.1c-2.9,8.5-4,17.4-3.4,26.3c0.1,1.5-0.7,2.9-2,3.6c-0.2,0.1-0.4,0.2-0.6,0.3l-12.8,4c-1.9,0.6-3,2.5-2.6,4.4
	l0.1,0.4l3.2,15.8C1551.1,510.3,1552.9,511.6,1554.9,511.4z M1665.9,462.1c1,2.5,1.8,5.1,2.3,8c1.1,5.5,0,14-2.5,19
	c-0.3,0.5-0.5,1.1-0.8,1.6c-17,31.5-61.5,25.2-68.8-10.3c-0.9-4.6-0.4-11.4,1.3-16.6c0.4-1.2,0.8-2.3,1.3-3.3
	c2.3-4.5,5.1-8.3,8.3-11.4C1625.3,431.6,1655.9,437.4,1665.9,462.1z"/>
<g>
	<path class="st6" d="M751.4,1325.8c0,0,1.9-21.1-21.6-21.1c0,0,7.1,1.9,10.8,5.8c0,0-15-8.8-31.3,4.7
		c-16.3,13.5-6.2,47.5-11.2,53.9c-5,6.4-24.3,7.7-22,28.6s61.4,47,57.6,64.2c0,0,23.1-34,6.6-49.5c0,0,8.1,7.6,8.9,16.6
		c0,0,2.2-17.6-9-23.3c-9.9-5-18.1-23.2-17.2-26.5C723.9,1376.1,751.4,1325.8,751.4,1325.8z"/>
	<path class="st7" d="M728.3,1426.9c0,0,17.6,72.7,34.8,87.3c10.4,8.7,41.2,28.8,41.2,28.8l-12.8,4.7c0,0-42.8-14.4-52.4-25.7
		c-9.6-11.3-35.8-67.7-35.8-67.7L728.3,1426.9z"/>
	<path class="st8" d="M563,1554.7c0.2,0.3,0.3,0.6,0.5,0.8c3.8,6.7,12.7,23.1,22.4,41c4.6,8.5,9.4,17.4,14,25.7
		c7.9,14.4,15,27.2,19.2,34c4.3,6.9,7.4,11.7,8.6,13.7c0,0,0,0,0,0c0.4,0.6,0.5,1.3,0.4,2c-0.4,6.1-0.3,12.1,0.3,18
		c5.9,58.3,45.2,89.6,45.2,89.6l11.7,1.7c0,0-16.5-61.3-21.4-96c-0.8-5.9-1.2-10.6-0.9-13.7c0.9-9-0.7-22.3-3.8-37.5
		c-5.4-27.1-15.3-60.3-23.9-86.8c-0.5-1.7-17-61.2-17-61.2c-13.8,12.1-64.2,17.1-64.2,17.1S545.6,1523.8,563,1554.7z"/>
	<path class="st9" d="M709.9,1796.1H661c0,0-1.2-7.4,1.4-13.1c2.4-5.4,5.9-5.6,0.4-14.1c3.1,3.2,13.1,4.5,20.1,3.6
		c0.9,1.4,5.6,10.8,8.5,12.9C694.7,1787.7,708.9,1786.8,709.9,1796.1z"/>
	<path class="st10" d="M563,1554.7c0.2,0.3,0.3,0.6,0.5,0.8c3.8,6.7,24.7,45.1,34.4,63.1c-11.3-46.3-3.4-92.7-3.4-92.7L563,1554.7z"
		/>
	<path class="st6" d="M744.8,1322.8c0.3-1.3-27.9,12.8-29.3,14.3c-13.2,14.7-9.5,33.8-1.9,34c4.8,0.1,3.9,8.2,3.9,8.2l54.1-22.9
		C771.6,1356.5,765,1318.5,744.8,1322.8z"/>
	<path class="st4" d="M726.6,1416c0,0,8.2,16.4,7.2,29.8c0,0-9.9,15.7-35.7,19.6C698.2,1465.4,720.3,1416,726.6,1416z"/>
	<path class="st8" d="M601.1,1506.7l0.2-9.1c-18.2,2.3-62.7-21.7-62.7-21.7s-19,12.7-21.6,48.8c-1.3,17.6-9.3,92.3-10.2,114.5
		c-0.3,8.1-0.4,13.8-0.5,16.1c0,0,0,0,0,0c0,0.7-0.3,1.3-0.8,1.9c-3.8,4.8-7,9.8-9.9,15.1c-27.8,51.7-13.2,121.8-13.2,121.8l6.5-1.6
		c0,0,23.5-72.8,38.8-104.2c2.6-5.3,5-9.5,7-11.9c5.8-7,11.8-18.9,17.8-33.2C563.7,1616.1,601.1,1506.7,601.1,1506.7z"/>
	<path class="st9" d="M521.2,1796.1h-48.8c0,0-1.2-7.4,1.4-13.1c2.4-5.4,6.3-7.9,5.4-14.4c3.1,3.2,8.2,6.8,15.2,5.8
		c0.9,1.4,5.6,8.9,8.5,11C505.9,1787.7,520.2,1786.8,521.2,1796.1z"/>
	<path class="st4" d="M694.9,1475.9c-6.6,1.1,1.1,6.3-8,7.3c-12.8,1.4-26.1,2.4-33,5.1c-2.5,1-4.2,2.3-4.8,3.8
		c-3,9.1-22.1,24.6-22.1,24.6c-85-3.9-90.5-41.8-90.5-41.8c55.2-53.6,102.1-82.8,140.9-86.4c9.4-0.9,22.2,0.3,28.1,3
		c13.6,6,21,24.4,21,24.4S719.8,1471.7,694.9,1475.9z"/>
	<path class="st11" d="M686.9,1483.2c-12.8,1.4-26.1,2.4-33,5.1C651,1445.9,671,1414,671,1414S684.1,1467.2,686.9,1483.2z"/>
	<path class="st7" d="M704.9,1395.1c2.4,7.6,10.5,29.3,21.7,20.9c-0.4-1.6,2-6.3,4.8-11.1c3.5-6.1,7.8-12.3,7.8-12.3l-18.3-16
		l-1.1-1c-4.8,8.3-9.5,12.4-13.6,15.4C704.9,1392,704.4,1393.6,704.9,1395.1z"/>
	<path class="st12" d="M739.1,1392.6c0,0-4.2,6.2-7.8,12.3c-11.4-7-11.4-21.1-10.5-28.3L739.1,1392.6z"/>
	<path class="st7" d="M739.6,1400.6c0,0-27.6-15.3-17.8-32.4c9.8-17,12.9-30.5,30.9-21.4s17.7,17.5,15.8,24
		C766.7,1377.3,747.1,1404.2,739.6,1400.6z"/>
	<path class="st6" d="M773.2,1360.9c-1.3-7.6-5.1-8.3-7.8-7.8c-10.2-16.8-26.8-10.3-26.8-10.3c-8.9,11.2-21.7,13.1-21.7,13.1
		s3.2,5.9,16.4,9.6c4,1.1,8.6,0.4,13-1c-9.2,5.1-18.7,7.1-18.7,7.1c17.4,1.6,33.9-14.3,35.6-16c0.8,2.5,2.2,7.6,1.4,11.4
		c-1.1,5.1-5.7,14.4-2.9,15.6C761.6,1382.6,775.1,1372.3,773.2,1360.9z"/>
	<g>
		
			<rect x="901.9" y="1542.2" transform="matrix(0.4382 -0.8989 0.8989 0.4382 -965.5849 1768.4646)" class="st8" width="60" height="228.9"/>
		<g>
			<path class="st8" d="M751.5,1644.8c-18.9-9.2-32.3-26.3-36.8-46.8c-1.8-8.3,3.4-16.6,11.8-18.4c8.3-1.8,16.6,3.4,18.4,11.8
				c2.5,11.3,9.8,20.6,20.2,25.7c18.6,9.1,41,1.3,50.1-17.3s1.3-41-17.3-50.1c-8.4-4.1-18-4.9-27-2.3c-8.2,2.4-16.8-2.3-19.2-10.4
				c-2.4-8.2,2.3-16.8,10.5-19.2c16.4-4.8,33.9-3.4,49.3,4.1c33.9,16.5,48,57.5,31.5,91.4C826.4,1647.2,785.4,1661.3,751.5,1644.8z"
				/>
		</g>
		<g>
			<path class="st8" d="M1042.6,1786.7c-33.9-16.5-48-57.5-31.5-91.4s57.5-48,91.4-31.5c15.4,7.5,27.3,20.4,33.6,36.3
				c3.1,7.9-0.8,16.9-8.7,20.1s-16.9-0.8-20.1-8.7c-3.4-8.7-10-15.8-18.4-19.9c-18.6-9.1-41-1.3-50.1,17.3s-1.3,41,17.3,50.1
				c10.3,5,22.2,5.1,32.6,0.1c7.7-3.7,16.9-0.4,20.6,7.3s0.4,16.9-7.3,20.6C1083.2,1795.9,1061.5,1795.9,1042.6,1786.7z"/>
		</g>
		<path class="st10" d="M973.9,1686l-108.4-52.8c-3.1-1.5-4.4-5.3-2.9-8.4l2.8-5.7c1.5-3.1,5.3-4.4,8.4-2.9l108.4,52.8
			c3.1,1.5,4.4,5.3,2.9,8.4l-2.8,5.7C980.8,1686.2,977,1687.5,973.9,1686z"/>
	</g>
	<path class="st7" d="M723.8,1589.9c0,0,0.6,5.1,2.8,7.8c2.2,2.7,8.5,9.1,8.6,12.8c0,0-0.3,1.7-1.7,1.4c-1.3-0.3-6.1-5-8.5-4.6
		c0,0,1.3,7.5,2.6,9.7s3.6,10.1,2.9,11.9s-13.5-8.8-17.4-14c-3.9-5.2-0.1-26.3-0.1-26.3L723.8,1589.9z"/>
	<path class="st7" d="M698,1406.9c0,0-32.3-1.8-38,18.5c-5.7,20.3,10.8,101.2,14.3,109.5c6.5,15.2,38,58.6,38,58.6l11.6-3.5
		c0,0-21-66.3-25.7-72.8C690.8,1506.8,707.6,1415.7,698,1406.9z"/>
	<path class="st4" d="M653.6,1452.5c0.1,0.5,30.5,5.6,49.6-4.1c0,0,15.9-49.9-6.8-47.5s-36.2,9.6-36.8,20.4
		C659,1432.3,653.6,1452.5,653.6,1452.5z"/>
	<path class="st7" d="M788.5,1510.6c-1.5,0.1-4.3,0.6-5.3,1.3c-1.8,1.4-3.7,3.7,0.2,5.7c5.9,2.9,17.8,1.6,17.3-0.1
		C799.2,1511.9,797,1510.2,788.5,1510.6z"/>
</g>
<g>
	<path class="st7" d="M958.6,716.8c-1.6,1.8-1.8,3.8-1,5.9c0,0,0,0,0,0c1.4,3.9,6.1,8.3,11.6,12.7c0.7,0.6,1.3,1.1,1.9,1.5
		c0.1,0.1,0.3,0.3,0.4,0.4c0.1,0.1,0.2,0.2,0.3,0.3c5.1,4.7,3.2,5.8,12.3,15.3c10.4,10.9,17.6,11.1,19.7,10.1
		c1.7-0.8-1.8-6.6-5.7-13.1c-0.2-0.3-0.4-0.6-0.6-0.9c-0.5-0.9-1-1.7-1.5-2.6c-4.6-7.8-3.4-11.5-2.3-23.1
		c0.9-9.4,14.7-52.7,14.7-52.7l-20-3.5c0,0-6,34.4-12.7,39.7c-3.5,2.8-7.5,2.9-10.9,5c-0.2,0.2-0.5,0.3-0.7,0.5
		C962.1,713.6,960.1,715,958.6,716.8z"/>
	<path class="st10" d="M958.6,716.8c-1.6,1.8-1.8,3.8-1,5.9c0,0,0,0,0,0c1.7,3.9,6.3,8.3,11.6,12.7c0.7,0.6,1.3,1.1,1.8,1.6
		c0.1,0.1,0.3,0.3,0.4,0.4c0.1,0.1,0.2,0.2,0.3,0.3c5.1,4.7,3.2,5.8,12.3,15.3c10.4,10.9,17.6,11.1,19.7,10.1
		c1.7-0.8-1.8-6.6-5.7-13.1c-2-0.7-11.5-4.6-18.6-13.7c-6.3-8-10.5-18.3-14.8-24.3c-0.2,0.2-0.5,0.3-0.7,0.5
		C962.1,713.6,960.1,715,958.6,716.8z"/>
	<path class="st7" d="M1119.9,704.3c1.2,6.2,10,5.2,19.9,2.7c9.8-2.4,7.5,0.5,21.5-1.1s18.2-6.8,18.7-8.8c0.4-1.8-6.5-2.5-14-3.3
		c-0.9-0.1-1.9-0.2-2.8-0.3c-8.4-1-14.5-6.5-22.1-10.9c-7.2-4.2-18-21.3-18-21.3l-19.2,1.5c0,0,10.1,15.3,14,22
		c2.3,3.9,2.2,9.1,1.9,13.1C1119.6,699.8,1119.5,702.1,1119.9,704.3z"/>
	<path class="st10" d="M1139.8,707c9.8-2.4,7.5,0.5,21.5-1.1s18.2-6.8,18.7-8.8c0.4-1.8-6.5-2.5-14-3.3l-0.1,0.1c0,0-8.4,6-20.1,6.2
		c-9.5,0.2-19.6-2.5-26.1-2.4c-0.2,2.2-0.3,4.4,0.2,6.6C1121.2,710.4,1130,709.4,1139.8,707z"/>
	<path class="st6" d="M1046.3,581.5l-17.9,48.3l-23.4,63.1c0,0-6.4,0.6-12.5-1.1c-5.6-1.6-12-5.9-12-5.9s6.5-67.7,18.7-106.6
		c3.1-10,6.6-18,10.4-22.6C1028.4,534.4,1046.3,581.5,1046.3,581.5z"/>
	<path class="st8" d="M1028.1,504.8c-11.8-3.8-45.3,1.1-79,7.7l-7-11.6l-72.8-5.7c0,0-24,53.3-10.9,87.2c1.9,5,5.8,8.2,12.3,8.3h1.1
		c0,0,43.3,0,57.4,0c36.2,0,76.6-24.9,81.8-25.9c8.6-1.7,12,15.4,20.5,33.4c8.6,18,80.4,79.6,80.4,79.6s11,0.1,15.6-1.6
		c4.9-1.8,6.7-4.2,6.7-4.2S1054.6,513.3,1028.1,504.8z"/>
	<path class="st13" d="M917.9,279.2c-10.2-2.6-24.2,0-26.5,0.2c-27.7,2.7-37,33.6-32.8,57.6c3.9,22.1-7.3,28.2-20.3,45.7
		c-26.1,35-9,64.6,11.5,72.2c12.3,4.6,29.5-7,29.5-7c0.3,0.1,53.8-35.1,75.8-54.9C991.7,378.8,943.9,285.9,917.9,279.2z"/>
	<path class="st7" d="M922,380.5c0.7,2.6-11.4,7.3-20.6,5.5c-8.7-1.6-18.5-11.8-16.4-12.8c3.3-1.6,5.6-5.5,3.8-26.8l1.7,0.2
		l27.8,3.2c0,0,0.1,8.7,0.7,16.8C919.5,373.5,920.8,376.4,922,380.5z"/>
	<path class="st14" d="M918.2,349.9c0,0,0.1,8.7,0.7,16.8c-15.4,0.8-24.6-12.5-28.6-20L918.2,349.9z"/>
	<path class="st7" d="M923.9,357.2c0,0-36.2,3.6-38.1-19c-1.9-22.6-7.8-37.3,15.2-40.6c23-3.2,28.3,5,30.7,12.4
		C934.3,317.4,933.3,355.7,923.9,357.2z"/>
	<path class="st13" d="M920,294c0,0-4.6,27.6-25.2,34.1c-15,4.8-21.9,1.6-21.9,1.6s7.2-9.6,9.8-23c0.8-3.9,3.6-7.2,7.4-8.4
		C900.9,294.9,913.8,285.3,920,294z"/>
	<path class="st13" d="M913.2,299.9c0,0,6.8,1.5,12.9,10.3c3.3,4.8,7.1,16.9,6.5,22.3c0,0,6.3-25.5-2.9-35
		C919.9,287.5,913.2,299.9,913.2,299.9z"/>
	<path class="st4" d="M856.8,454.7c0.7,2.7,1.2,5.3,1.7,7.6c0.7,3.8,1.2,7,1.6,9.9c1.1,8.9,0.8,14.2,1.5,20
		c0.4,3.2,1.2,6.6,2.7,10.9c1.5,4.1,40.8,7.8,63.2,6.3c7.1-0.5,12.5-1.5,14.5-3.1c8-6.9,7.2,8.3,8.3-64.7
		c0.5-35.6-30.2-67.3-30.2-67.3s-2.5,15.2-32.9-2.9c-1.1-0.6-13.1,17.1-24.7,39C849.7,434.6,853.2,439.7,856.8,454.7z"/>
	<path class="st10" d="M1028.4,629.8l-23.4,63.1c0,0-6.4,0.6-12.5-1.1c-5.6-1.6-12-5.9-12-5.9s6.5-67.7,18.7-106.6L1028.4,629.8z"/>
	<path class="st4" d="M920,374.2c0,0,31.4,5.3,35,18.8c3.7,13.5,29.1,89,29.1,89s-19.7,6.7-27.1-0.6c-7.4-7.4-25.6-68.4-25.6-68.4
		L920,374.2z"/>
	<path class="st15" d="M915.6,343.9c0,0,1.5,3.7,5.5,3.7s5.1-0.6,5.8-1.5c0.8-0.9,1.5-2.5,1.5-2.5S921.8,342.3,915.6,343.9z"/>
	<path class="st11" d="M860.1,472.2c1.1,8.9,0.8,14.2,1.5,20c28.5,0.1,66.6-22,66.6-22L860.1,472.2z"/>
	<path class="st11" d="M928.2,451.5c0,0-44.4-1.3-51.8-26.5c-8.2-27.7-17.4,11.4-17.4,11.4l4.9,25h48.7L928.2,451.5z"/>
	<g>
		<path class="st16" d="M1005.5,383l-2.4-5.9c-2.6-6.4-8.8-10.5-15.6-10.5h-44.2v28.1v119.8h183V394.6h-103.5
			C1015.1,394.6,1008.3,390,1005.5,383z"/>
		<g>
			<path class="st15" d="M970.9,456.5v-10.7l37.4-16.4v10.9l-26.1,10.7l26.1,10.7v11L970.9,456.5z"/>
			<path class="st15" d="M1047.1,416.7h10l-34.2,71.5h-10L1047.1,416.7z"/>
			<path class="st15" d="M1098.6,445.8v10.7l-37.4,16.4V462l26.1-10.7l-26.1-10.7v-11L1098.6,445.8z"/>
		</g>
	</g>
	<path class="st7" d="M928.2,457.3l3.2-5c0,0,2.5-0.8,6.1-3.3c4.2-3,3.7-7.4,5.8-7l0,9.8l-0.2,0c9.1,2.4,19.7-0.2,19.9,2
		c0.6,6.2-4.2,9-8.3,11c-3.1,1.5-6.6,3.7-12.2,2c-4.1-1.3-10.5-2.6-10.5-2.6L928.2,457.3z"/>
	<path class="st4" d="M887.1,371.4c0,0-28.8,1.9-36,13.1c-7.2,11.2-16.1,68.3-12.4,87.9c3.7,19.6,96-3.7,96-3.7l-2.9-17
		c0,0-53.2,0.3-56.3-6.6C871.5,435.7,887.1,371.4,887.1,371.4z"/>
	<path class="st7" d="M1026.2,394.6c-0.3,0.8,4.3,8.3,10.9,7c4.1-0.8,9.4-9.6,4.7-11.5C1034,386.8,1026.8,392.6,1026.2,394.6z"/>
</g>
<g>
	<g>
		
			<rect x="1247.2" y="689.7" transform="matrix(0.4709 -0.8822 0.8822 0.4709 111.0611 1565.6493)" class="st8" width="227.2" height="1.1"/>
	</g>
	<g>
		
			<rect x="1745.2" y="566.4" transform="matrix(0.7334 -0.6798 0.6798 0.7334 20.2434 1361.3516)" class="st8" width="1.1" height="176.9"/>
	</g>
	<g>
		<path class="st0" d="M1880.6,757.6c1.8,13-1.8,25.5-9,35.2s-18,16.6-30.7,18.4l-537.6,73.9c-27.4,3.8-52.8-14.4-56.4-40.4
			c-1.8-13,2.2-25.6,10.1-35.4c7.9-9.8,19.6-16.8,33.3-18.7l537.6-73.9C1853.4,713.3,1877.1,731.7,1880.6,757.6z"/>
		<path class="st4" d="M1880.6,757.6c1.8,13-1.8,25.5-9,35.2s-18,16.6-30.7,18.4l-97.3,13.4l-13-94.5l97.3-13.4
			C1853.4,713.3,1877.1,731.7,1880.6,757.6z"/>
		<g>
			<g>
				<path class="st15" d="M1821.4,783.3c-1.2,0.2-2.4,0.2-3.6,0.2c-6.5-0.1-12.6-2.7-17.1-7.3c-9.4-9.6-9.2-25,0.4-34.4l0,0
					c9.6-9.4,25-9.2,34.4,0.4c9.4,9.6,9.2,25-0.4,34.4C1831.3,780.3,1826.5,782.6,1821.4,783.3z M1803.9,744.7
					c-8,7.8-8.2,20.7-0.3,28.7c3.8,3.9,8.9,6,14.3,6.1c5.4,0.1,10.5-2,14.4-5.8c8-7.8,8.2-20.7,0.3-28.7
					C1824.8,737,1811.9,736.9,1803.9,744.7L1803.9,744.7z"/>
			</g>
			
				<rect x="1773.7" y="784.3" transform="matrix(0.7152 -0.6989 0.6989 0.7152 -39.7293 1475.1819)" class="st15" width="33.2" height="4"/>
			<path class="st15" d="M1770.1,806L1770.1,806c-1.4-1.4-1.3-3.7,0.1-5.1l14-13.7c1.4-1.4,3.7-1.3,5.1,0.1l0,0
				c1.4,1.4,1.3,3.7-0.1,5l-14,13.7C1773.8,807.5,1771.5,807.4,1770.1,806z"/>
		</g>
	</g>
</g>
<g>
	<path class="st4" d="M977.8,1271.1H865.5c-2.3,0-4.2-1.9-4.2-4.2v-1.8c0-2.3,1.9-4.2,4.2-4.2h112.3c2.3,0,4.2,1.9,4.2,4.2v1.8
		C982,1269.2,980.1,1271.1,977.8,1271.1z"/>
	<g>
		<path class="st16" d="M920.2,1306.3h-55.4c-1.9,0-3.5-1.6-3.5-3.5l0,0c0-1.9,1.6-3.5,3.5-3.5h55.4c1.9,0,3.5,1.6,3.5,3.5l0,0
			C923.7,1304.8,922.1,1306.3,920.2,1306.3z"/>
		<g>
			<path class="st16" d="M962.6,1291.7h-98.1c-1.8,0-3.3-1.5-3.3-3.3v-0.5c0-1.8,1.5-3.3,3.3-3.3h98.1c1.8,0,3.3,1.5,3.3,3.3v0.5
				C965.8,1290.2,964.4,1291.7,962.6,1291.7z"/>
			<path class="st16" d="M1069.9,1291.7h-91.4c-1.7,0-3.1-1.4-3.1-3.1v-0.7c0-1.7,1.4-3.1,3.1-3.1h91.4c1.7,0,3.2,1.4,3.2,3.1v0.7
				C1073.1,1290.3,1071.7,1291.7,1069.9,1291.7z"/>
			<path class="st16" d="M989.3,1306.3h-55.4c-1.9,0-3.5-1.6-3.5-3.5l0,0c0-1.9,1.6-3.5,3.5-3.5h55.4c1.9,0,3.5,1.6,3.5,3.5l0,0
				C992.8,1304.8,991.2,1306.3,989.3,1306.3z"/>
		</g>
	</g>
	<path class="st4" d="M1114.6,1271.1h-112.3c-2.3,0-4.2-1.9-4.2-4.2v-1.8c0-2.3,1.9-4.2,4.2-4.2h112.3c2.3,0,4.2,1.9,4.2,4.2v1.8
		C1118.8,1269.2,1116.9,1271.1,1114.6,1271.1z"/>
</g>
<g>
	<path class="st4" d="M977.8,1348.3H865.5c-2.3,0-4.2-1.9-4.2-4.2v-1.8c0-2.3,1.9-4.2,4.2-4.2h112.3c2.3,0,4.2,1.9,4.2,4.2v1.8
		C982,1346.4,980.1,1348.3,977.8,1348.3z"/>
	<g>
		<path class="st16" d="M920.2,1383.5h-55.4c-1.9,0-3.5-1.6-3.5-3.5l0,0c0-1.9,1.6-3.5,3.5-3.5h55.4c1.9,0,3.5,1.6,3.5,3.5l0,0
			C923.7,1381.9,922.1,1383.5,920.2,1383.5z"/>
		<g>
			<path class="st16" d="M962.6,1368.8h-98.1c-1.8,0-3.3-1.5-3.3-3.3v-0.5c0-1.8,1.5-3.3,3.3-3.3h98.1c1.8,0,3.3,1.5,3.3,3.3v0.5
				C965.8,1367.4,964.4,1368.8,962.6,1368.8z"/>
			<path class="st16" d="M1069.9,1368.8h-91.4c-1.7,0-3.1-1.4-3.1-3.2v-0.7c0-1.7,1.4-3.1,3.1-3.1h91.4c1.7,0,3.2,1.4,3.2,3.1v0.7
				C1073.1,1367.4,1071.7,1368.8,1069.9,1368.8z"/>
			<path class="st16" d="M989.3,1383.5h-55.4c-1.9,0-3.5-1.6-3.5-3.5l0,0c0-1.9,1.6-3.5,3.5-3.5h55.4c1.9,0,3.5,1.6,3.5,3.5l0,0
				C992.8,1381.9,991.2,1383.5,989.3,1383.5z"/>
		</g>
	</g>
	<path class="st4" d="M1114.6,1348.3h-112.3c-2.3,0-4.2-1.9-4.2-4.2v-1.8c0-2.3,1.9-4.2,4.2-4.2h112.3c2.3,0,4.2,1.9,4.2,4.2v1.8
		C1118.8,1346.4,1116.9,1348.3,1114.6,1348.3z"/>
</g>
<g>
	<polygon class="st10" points="1561.6,879.3 1497.5,894.2 1465.8,951.9 1441.5,820.4 	"/>
	
		<rect x="1503.9" y="878.1" transform="matrix(0.797 -0.604 0.604 0.797 -244.3606 1097.067)" class="st10" width="11.7" height="67.9"/>
</g>
<g>
	<path class="st17" d="M1519.6,1151.2h-157.7c-6.4,0-11.6-5.2-11.6-11.6V981.9c0-6.4,5.2-11.6,11.6-11.6h157.7
		c6.4,0,11.6,5.2,11.6,11.6v157.7C1531.2,1146,1526,1151.2,1519.6,1151.2z"/>
	<g>
		<path class="st16" d="M1373.4,1113.4l35.1-63.4c4.1-7.4,14.4-8,19.4-1.2l20.3,27.7c4.3,5.9,12.9,6.3,17.8,1l0,0
			c5.1-5.6,14.1-4.8,18.2,1.5l21.9,33.8c5,7.7-0.5,17.8-9.7,17.8h-113C1374.7,1130.5,1369.2,1121.1,1373.4,1113.4z"/>
		<path class="st16" d="M1442.8,1020.4c0-7.6,6.2-13.8,13.8-13.8c7.6,0,13.8,6.2,13.8,13.8c0,7.6-6.2,13.8-13.8,13.8
			C1449,1034.2,1442.8,1028,1442.8,1020.4z"/>
	</g>
</g>
<g>
	<path class="st17" d="M1751,1156.1l-156.3,21.3c-6.3,0.9-12.2-3.6-13-9.9l-21.3-156.3c-0.9-6.3,3.6-12.2,9.9-13l156.3-21.3
		c6.3-0.9,12.2,3.6,13,9.9l21.3,156.3C1761.8,1149.4,1757.3,1155.2,1751,1156.1z"/>
	<g>
		<path class="st16" d="M1601,1138.3l26.3-67.5c3.1-7.9,13.2-9.9,19.1-3.8l23.8,24.7c5.1,5.3,13.7,4.5,17.8-1.4l0,0
			c4.3-6.2,13.3-6.7,18.3-1l26.2,30.5c6,6.9,1.9,17.8-7.2,19l-112,15.3C1604.7,1155.2,1597.8,1146.6,1601,1138.3z"/>
		<path class="st16" d="M1657.2,1036.9c-1-7.6,4.3-14.5,11.8-15.6s14.5,4.3,15.6,11.8c1,7.6-4.3,14.5-11.8,15.6
			S1658.2,1044.4,1657.2,1036.9z"/>
	</g>
</g>
<g>
	<rect x="1200.3" y="1714.8" class="st4" width="91.2" height="78.2"/>
	<rect x="1196.6" y="1711.5" class="st18" width="97.9" height="6"/>
	<rect x="1200.3" y="1736" class="st19" width="91.2" height="24.8"/>
</g>
<path class="st4" d="M1402.3,1793h-86.1c-3.2,0-5.7-2.6-5.7-5.7v-9.6c0-3.4,2.9-6,6.3-5.7l86.1,9.6c2.9,0.3,5.1,2.8,5.1,5.7l0,0
	C1408.1,1790.5,1405.5,1793,1402.3,1793z"/>
<path class="st20" d="M2606.1,1800.8L210,1799.9c-1.6,0-2.9-1.3-2.9-2.9v-1.5c0-1.6,1.3-2.9,2.9-2.9l2396.2,0.8
	c1.6,0,2.9,1.3,2.9,2.9v1.5C2609.1,1799.4,2607.8,1800.8,2606.1,1800.8z"/>
<g>
	<path class="st16" d="M1252,1158.3h-9.9c-0.9,0-1.6-0.7-1.6-1.6s0.7-1.6,1.6-1.6h9.8c0.9,0,1.7,0.7,1.7,1.6
		S1252.9,1158.3,1252,1158.3z M1232.2,1158.3h-9.8c-0.9,0-1.6-0.7-1.6-1.6s0.7-1.6,1.6-1.6h9.8c0.9,0,1.6,0.7,1.6,1.6
		S1233.1,1158.3,1232.2,1158.3z M1212.5,1158.3h-9.8c-0.9,0-1.6-0.7-1.6-1.6s0.7-1.6,1.6-1.6h9.8c0.9,0,1.6,0.7,1.6,1.6
		S1213.4,1158.3,1212.5,1158.3z M1192.8,1158.3h-9.8c-0.9,0-1.6-0.7-1.6-1.6s0.7-1.6,1.6-1.6h9.8c0.9,0,1.6,0.7,1.6,1.6
		S1193.7,1158.3,1192.8,1158.3z M1173.1,1158.3h-9.8c-0.9,0-1.6-0.7-1.6-1.6s0.7-1.6,1.6-1.6h9.8c0.9,0,1.6,0.7,1.6,1.6
		S1174,1158.3,1173.1,1158.3z M1153.4,1158.3h-9.8c-0.9,0-1.6-0.7-1.6-1.6s0.7-1.6,1.6-1.6h9.8c0.9,0,1.6,0.7,1.6,1.6
		S1154.3,1158.3,1153.4,1158.3z M1133.7,1158.3h-9.8c-0.9,0-1.6-0.7-1.6-1.6s0.7-1.6,1.6-1.6h9.8c0.9,0,1.6,0.7,1.6,1.6
		S1134.6,1158.3,1133.7,1158.3z M1114,1158.3h-9.8c-0.9,0-1.6-0.7-1.6-1.6s0.7-1.6,1.6-1.6h9.8c0.9,0,1.6,0.7,1.6,1.6
		S1114.9,1158.3,1114,1158.3z M1094.3,1158.3h-9.8c-0.9,0-1.6-0.7-1.6-1.6s0.7-1.6,1.6-1.6h9.8c0.9,0,1.6,0.7,1.6,1.6
		S1095.2,1158.3,1094.3,1158.3z M1074.6,1158.3h-9.8c-0.9,0-1.6-0.7-1.6-1.6s0.7-1.6,1.6-1.6h9.8c0.9,0,1.6,0.7,1.6,1.6
		S1075.5,1158.3,1074.6,1158.3z M1054.9,1158.3h-9.8c-0.9,0-1.6-0.7-1.6-1.6s0.7-1.6,1.6-1.6h9.8c0.9,0,1.6,0.7,1.6,1.6
		S1055.8,1158.3,1054.9,1158.3z M1035.2,1158.3h-9.8c-0.9,0-1.6-0.7-1.6-1.6s0.7-1.6,1.6-1.6h9.8c0.9,0,1.6,0.7,1.6,1.6
		S1036.1,1158.3,1035.2,1158.3z M1015.5,1158.3h-9.8c-0.9,0-1.6-0.7-1.6-1.6s0.7-1.6,1.6-1.6h9.8c0.9,0,1.6,0.7,1.6,1.6
		S1016.4,1158.3,1015.5,1158.3z M995.8,1158.3H986c-0.9,0-1.6-0.7-1.6-1.6s0.7-1.6,1.6-1.6h9.8c0.9,0,1.6,0.7,1.6,1.6
		S996.7,1158.3,995.8,1158.3z M976.1,1158.3h-9.8c-0.9,0-1.6-0.7-1.6-1.6s0.7-1.6,1.6-1.6h9.8c0.9,0,1.6,0.7,1.6,1.6
		S977,1158.3,976.1,1158.3z M956.4,1158.3h-9.8c-0.9,0-1.6-0.7-1.6-1.6s0.7-1.6,1.6-1.6h9.8c0.9,0,1.6,0.7,1.6,1.6
		S957.3,1158.3,956.4,1158.3z M936.7,1158.3h-9.8c-0.9,0-1.6-0.7-1.6-1.6s0.7-1.6,1.6-1.6h9.8c0.9,0,1.6,0.7,1.6,1.6
		S937.6,1158.3,936.7,1158.3z M917,1158.3h-8.8c-0.4,0-0.8,0-1.2,0c-0.9-0.1-1.6-0.8-1.5-1.7s0.8-1.6,1.7-1.5c0.3,0,0.6,0,1,0h8.8
		c0.9,0,1.6,0.7,1.6,1.6S917.9,1158.3,917,1158.3z M1261.3,1155.4c-0.5,0-1-0.3-1.3-0.7c-0.5-0.8-0.3-1.8,0.4-2.3
		c2.5-1.7,4.4-4,5.5-6.8c0.3-0.8,1.3-1.2,2.1-0.9s1.2,1.3,0.9,2.1c-1.4,3.4-3.7,6.2-6.7,8.3
		C1261.9,1155.3,1261.6,1155.4,1261.3,1155.4z M898.1,1154.9c-0.3,0-0.7-0.1-1-0.3c-2.9-2.2-5-5.2-6.2-8.7c-0.3-0.8,0.2-1.8,1-2.1
		c0.8-0.3,1.8,0.2,2.1,1c1,2.8,2.7,5.3,5.1,7.1c0.7,0.6,0.8,1.6,0.3,2.3C899,1154.6,898.5,1154.9,898.1,1154.9z M1268.6,1138.2
		c-0.9,0-1.6-0.7-1.6-1.6v-9.8c0-0.9,0.7-1.6,1.6-1.6s1.6,0.7,1.6,1.6v9.8C1270.2,1137.5,1269.5,1138.2,1268.6,1138.2z
		 M891.6,1137.2c-0.9,0-1.6-0.7-1.6-1.6v-9.8c0-0.9,0.7-1.6,1.6-1.6s1.6,0.7,1.6,1.6v9.8C893.2,1136.5,892.5,1137.2,891.6,1137.2z
		 M1268.6,1118.5c-0.9,0-1.6-0.7-1.6-1.6v-9.8c0-0.9,0.7-1.6,1.6-1.6s1.6,0.7,1.6,1.6v9.8
		C1270.2,1117.8,1269.5,1118.5,1268.6,1118.5z M891.6,1117.5c-0.9,0-1.6-0.7-1.6-1.6v-9.8c0-0.9,0.7-1.6,1.6-1.6s1.6,0.7,1.6,1.6
		v9.8C893.2,1116.8,892.5,1117.5,891.6,1117.5z M1268.6,1098.8c-0.9,0-1.6-0.7-1.6-1.6v-9.8c0-0.9,0.7-1.6,1.6-1.6s1.6,0.7,1.6,1.6
		v9.8C1270.2,1098.1,1269.5,1098.8,1268.6,1098.8z M891.6,1097.8c-0.9,0-1.6-0.7-1.6-1.6v-9.8c0-0.9,0.7-1.6,1.6-1.6
		s1.6,0.7,1.6,1.6v9.8C893.2,1097.1,892.5,1097.8,891.6,1097.8z M1268.6,1079.1c-0.9,0-1.6-0.7-1.6-1.6v-9.8c0-0.9,0.7-1.6,1.6-1.6
		s1.6,0.7,1.6,1.6v9.8C1270.2,1078.4,1269.5,1079.1,1268.6,1079.1z M891.6,1078.1c-0.9,0-1.6-0.7-1.6-1.6v-9.8
		c0-0.9,0.7-1.6,1.6-1.6s1.6,0.7,1.6,1.6v9.8C893.2,1077.4,892.5,1078.1,891.6,1078.1z M1268.6,1059.4c-0.9,0-1.6-0.7-1.6-1.6v-9.8
		c0-0.9,0.7-1.6,1.6-1.6s1.6,0.7,1.6,1.6v9.8C1270.2,1058.7,1269.5,1059.4,1268.6,1059.4z M891.6,1058.4c-0.9,0-1.6-0.7-1.6-1.6
		v-9.8c0-0.9,0.7-1.6,1.6-1.6s1.6,0.7,1.6,1.6v9.8C893.2,1057.7,892.5,1058.4,891.6,1058.4z M1268.6,1039.7c-0.9,0-1.6-0.7-1.6-1.6
		v-9.8c0-0.9,0.7-1.6,1.6-1.6s1.6,0.7,1.6,1.6v9.8C1270.2,1038.9,1269.5,1039.7,1268.6,1039.7z M891.6,1038.7
		c-0.9,0-1.6-0.7-1.6-1.6v-9.8c0-0.9,0.7-1.6,1.6-1.6s1.6,0.7,1.6,1.6v9.8C893.2,1037.9,892.5,1038.7,891.6,1038.7z M1268.6,1020
		c-0.9,0-1.6-0.7-1.6-1.6v-9.8c0-0.9,0.7-1.6,1.6-1.6s1.6,0.7,1.6,1.6v9.8C1270.2,1019.3,1269.5,1020,1268.6,1020z M891.6,1019
		c-0.9,0-1.6-0.7-1.6-1.6v-9.8c0-0.9,0.7-1.6,1.6-1.6s1.6,0.7,1.6,1.6v9.8C893.2,1018.3,892.5,1019,891.6,1019z M1268.6,1000.3
		c-0.9,0-1.6-0.7-1.6-1.6v-9.8c0-0.9,0.7-1.6,1.6-1.6s1.6,0.7,1.6,1.6v9.8C1270.2,999.5,1269.5,1000.3,1268.6,1000.3z M891.6,999.3
		c-0.9,0-1.6-0.7-1.6-1.6v-9.8c0-0.9,0.7-1.6,1.6-1.6s1.6,0.7,1.6,1.6v9.8C893.2,998.5,892.5,999.3,891.6,999.3z M1268.6,980.6
		c-0.9,0-1.6-0.7-1.6-1.6v-9.8c0-0.9,0.7-1.6,1.6-1.6s1.6,0.7,1.6,1.6v9.8C1270.2,979.8,1269.5,980.6,1268.6,980.6z M891.6,979.6
		c-0.9,0-1.6-0.7-1.6-1.6v-9.8c0-0.9,0.7-1.6,1.6-1.6s1.6,0.7,1.6,1.6v9.8C893.2,978.8,892.5,979.6,891.6,979.6z M1268.6,960.9
		c-0.9,0-1.6-0.7-1.6-1.6v-4.5c0-1.6-0.3-3.3-0.8-4.8c-0.3-0.8,0.2-1.8,1-2.1c0.8-0.3,1.8,0.2,2.1,1c0.6,1.9,0.9,3.8,0.9,5.8v4.5
		C1270.2,960.1,1269.5,960.9,1268.6,960.9z M891.6,959.9c-0.9,0-1.6-0.7-1.6-1.6v-3.4c0-2.4,0.5-4.7,1.3-6.9
		c0.3-0.8,1.3-1.2,2.1-0.9c0.8,0.3,1.2,1.3,0.9,2.1c-0.7,1.8-1.1,3.7-1.1,5.6v3.4C893.2,959.1,892.5,959.9,891.6,959.9z
		 M1262.1,943.2c-0.3,0-0.7-0.1-1-0.3c-2.4-1.8-5.2-2.9-8.2-3.1c-0.9-0.1-1.6-0.8-1.5-1.7c0.1-0.9,0.8-1.6,1.7-1.5
		c3.6,0.2,7.1,1.5,10,3.7c0.7,0.5,0.8,1.6,0.3,2.3C1263,943,1262.5,943.2,1262.1,943.2z M898.9,942.6c-0.5,0-1-0.3-1.3-0.7
		c-0.5-0.8-0.3-1.8,0.4-2.3c3-2,6.5-3.1,10.2-3.1l0,0c0.9,0,1.6,0.7,1.6,1.6s-0.7,1.6-1.6,1.6c-3,0-5.9,0.9-8.4,2.6
		C899.5,942.5,899.2,942.6,898.9,942.6z M1243.1,939.8h-9.8c-0.9,0-1.6-0.7-1.6-1.6s0.7-1.6,1.6-1.6h9.8c0.9,0,1.6,0.7,1.6,1.6
		S1244,939.8,1243.1,939.8z M1223.4,939.8h-9.8c-0.9,0-1.6-0.7-1.6-1.6s0.7-1.6,1.6-1.6h9.8c0.9,0,1.6,0.7,1.6,1.6
		S1224.3,939.8,1223.4,939.8z M1203.7,939.8h-9.8c-0.9,0-1.6-0.7-1.6-1.6s0.7-1.6,1.6-1.6h9.8c0.9,0,1.6,0.7,1.6,1.6
		S1204.6,939.8,1203.7,939.8z M1184,939.8h-9.8c-0.9,0-1.6-0.7-1.6-1.6s0.7-1.6,1.6-1.6h9.8c0.9,0,1.6,0.7,1.6,1.6
		S1184.9,939.8,1184,939.8z M1164.3,939.8h-9.8c-0.9,0-1.6-0.7-1.6-1.6s0.7-1.6,1.6-1.6h9.8c0.9,0,1.6,0.7,1.6,1.6
		C1165.9,939.1,1165.2,939.8,1164.3,939.8z M1144.6,939.8h-9.8c-0.9,0-1.6-0.7-1.6-1.6s0.7-1.6,1.6-1.6h9.8c0.9,0,1.6,0.7,1.6,1.6
		S1145.5,939.8,1144.6,939.8z M1124.9,939.8h-9.8c-0.9,0-1.6-0.7-1.6-1.6s0.7-1.6,1.6-1.6h9.8c0.9,0,1.6,0.7,1.6,1.6
		S1125.8,939.8,1124.9,939.8z M1105.2,939.8h-9.8c-0.9,0-1.6-0.7-1.6-1.6s0.7-1.6,1.6-1.6h9.8c0.9,0,1.6,0.7,1.6,1.6
		S1106.1,939.8,1105.2,939.8z M1085.5,939.8h-9.8c-0.9,0-1.6-0.7-1.6-1.6s0.7-1.6,1.6-1.6h9.8c0.9,0,1.6,0.7,1.6,1.6
		S1086.4,939.8,1085.5,939.8z M1065.8,939.8h-9.8c-0.9,0-1.6-0.7-1.6-1.6s0.7-1.6,1.6-1.6h9.8c0.9,0,1.6,0.7,1.6,1.6
		S1066.7,939.8,1065.8,939.8z M1046.1,939.8h-9.8c-0.9,0-1.6-0.7-1.6-1.6s0.7-1.6,1.6-1.6h9.8c0.9,0,1.6,0.7,1.6,1.6
		C1047.7,939.1,1047,939.8,1046.1,939.8z M1026.4,939.8h-9.8c-0.9,0-1.6-0.7-1.6-1.6s0.7-1.6,1.6-1.6h9.8c0.9,0,1.6,0.7,1.6,1.6
		S1027.3,939.8,1026.4,939.8z M1006.7,939.8h-9.8c-0.9,0-1.6-0.7-1.6-1.6s0.7-1.6,1.6-1.6h9.8c0.9,0,1.6,0.7,1.6,1.6
		S1007.6,939.8,1006.7,939.8z M987,939.8h-9.8c-0.9,0-1.6-0.7-1.6-1.6s0.7-1.6,1.6-1.6h9.8c0.9,0,1.6,0.7,1.6,1.6
		S987.9,939.8,987,939.8z M967.3,939.8h-9.8c-0.9,0-1.6-0.7-1.6-1.6s0.7-1.6,1.6-1.6h9.8c0.9,0,1.6,0.7,1.6,1.6
		S968.2,939.8,967.3,939.8z M947.6,939.8h-9.8c-0.9,0-1.6-0.7-1.6-1.6s0.7-1.6,1.6-1.6h9.8c0.9,0,1.6,0.7,1.6,1.6
		S948.5,939.8,947.6,939.8z M927.9,939.8H918c-0.9,0-1.6-0.7-1.6-1.6s0.7-1.6,1.6-1.6h9.8c0.9,0,1.6,0.7,1.6,1.6
		S928.8,939.8,927.9,939.8z"/>
</g>
<g>
	<path class="st16" d="M1812,1431.7h-8.8c-0.8,0-1.4-0.7-1.4-1.4s0.7-1.4,1.4-1.4h8.7c0.8,0,1.5,0.7,1.5,1.4
		S1812.8,1431.7,1812,1431.7z M1794.5,1431.7h-8.7c-0.8,0-1.4-0.7-1.4-1.4s0.7-1.4,1.4-1.4h8.7c0.8,0,1.4,0.7,1.4,1.4
		S1795.3,1431.7,1794.5,1431.7z M1777,1431.7h-8.7c-0.8,0-1.4-0.7-1.4-1.4s0.7-1.4,1.4-1.4h8.7c0.8,0,1.4,0.7,1.4,1.4
		S1777.8,1431.7,1777,1431.7z M1759.6,1431.7h-8.7c-0.8,0-1.4-0.7-1.4-1.4s0.7-1.4,1.4-1.4h8.7c0.8,0,1.4,0.7,1.4,1.4
		S1760.4,1431.7,1759.6,1431.7z M1742.1,1431.7h-8.7c-0.8,0-1.4-0.7-1.4-1.4s0.7-1.4,1.4-1.4h8.7c0.8,0,1.4,0.7,1.4,1.4
		S1742.9,1431.7,1742.1,1431.7z M1724.7,1431.7h-8.7c-0.8,0-1.4-0.7-1.4-1.4s0.7-1.4,1.4-1.4h8.7c0.8,0,1.4,0.7,1.4,1.4
		S1725.5,1431.7,1724.7,1431.7z M1707.2,1431.7h-8.7c-0.8,0-1.4-0.7-1.4-1.4s0.7-1.4,1.4-1.4h8.7c0.8,0,1.4,0.7,1.4,1.4
		S1708,1431.7,1707.2,1431.7z M1689.8,1431.7h-8.7c-0.8,0-1.4-0.7-1.4-1.4s0.7-1.4,1.4-1.4h8.7c0.8,0,1.4,0.7,1.4,1.4
		S1690.6,1431.7,1689.8,1431.7z M1672.3,1431.7h-8.7c-0.8,0-1.4-0.7-1.4-1.4s0.7-1.4,1.4-1.4h8.7c0.8,0,1.4,0.7,1.4,1.4
		S1673.1,1431.7,1672.3,1431.7z M1654.8,1431.7h-8.4c-0.1,0-0.3,0-0.4,0c-0.8,0-1.4-0.7-1.4-1.5c0-0.8,0.7-1.4,1.5-1.4
		c0.1,0,0.2,0,0.2,0h8.4c0.8,0,1.4,0.7,1.4,1.4S1655.6,1431.7,1654.8,1431.7z M1817.6,1426.2
		C1817.6,1426.2,1817.6,1426.2,1817.6,1426.2c-0.9,0-1.5-0.7-1.5-1.5v-0.1v-8.5c0-0.8,0.7-1.4,1.4-1.4s1.4,0.7,1.4,1.4v8.8
		C1819.1,1425.6,1818.4,1426.2,1817.6,1426.2z M1640.7,1425.9c-0.8,0-1.4-0.7-1.4-1.4v-8.7c0-0.8,0.7-1.4,1.4-1.4s1.4,0.7,1.4,1.4
		v8.7C1642.2,1425.3,1641.5,1425.9,1640.7,1425.9z M1817.6,1408.7c-0.8,0-1.4-0.7-1.4-1.4v-8.7c0-0.8,0.7-1.4,1.4-1.4
		s1.4,0.7,1.4,1.4v8.7C1819.1,1408.1,1818.4,1408.7,1817.6,1408.7z M1640.7,1408.5c-0.8,0-1.4-0.7-1.4-1.4v-8.7
		c0-0.8,0.7-1.4,1.4-1.4s1.4,0.7,1.4,1.4v8.7C1642.2,1407.8,1641.5,1408.5,1640.7,1408.5z M1817.6,1391.3c-0.8,0-1.4-0.7-1.4-1.4
		v-8.7c0-0.8,0.7-1.4,1.4-1.4s1.4,0.7,1.4,1.4v8.7C1819.1,1390.6,1818.4,1391.3,1817.6,1391.3z M1640.7,1391c-0.8,0-1.4-0.7-1.4-1.4
		v-8.5c0-0.1,0-0.2,0-0.3c0-0.8,0.7-1.4,1.5-1.4c0.8,0,1.4,0.7,1.4,1.5v0.2v8.5C1642.2,1390.4,1641.5,1391,1640.7,1391z
		 M1812.2,1376.8C1812.2,1376.8,1812.1,1376.8,1812.2,1376.8h-0.3h-8.5c-0.8,0-1.4-0.7-1.4-1.4s0.7-1.4,1.4-1.4h8.5
		c0.1,0,0.2,0,0.3,0c0.8,0,1.4,0.7,1.4,1.5C1813.6,1376.2,1813,1376.8,1812.2,1376.8z M1794.7,1376.8h-8.7c-0.8,0-1.4-0.7-1.4-1.4
		s0.7-1.4,1.4-1.4h8.7c0.8,0,1.4,0.7,1.4,1.4S1795.5,1376.8,1794.7,1376.8z M1777.3,1376.8h-8.7c-0.8,0-1.4-0.7-1.4-1.4
		s0.7-1.4,1.4-1.4h8.7c0.8,0,1.4,0.7,1.4,1.4S1778.1,1376.8,1777.3,1376.8z M1759.8,1376.8h-8.7c-0.8,0-1.4-0.7-1.4-1.4
		s0.7-1.4,1.4-1.4h8.7c0.8,0,1.4,0.7,1.4,1.4S1760.6,1376.8,1759.8,1376.8z M1742.4,1376.8h-8.7c-0.8,0-1.4-0.7-1.4-1.4
		s0.7-1.4,1.4-1.4h8.7c0.8,0,1.4,0.7,1.4,1.4S1743.2,1376.8,1742.4,1376.8z M1724.9,1376.8h-8.7c-0.8,0-1.4-0.7-1.4-1.4
		s0.7-1.4,1.4-1.4h8.7c0.8,0,1.4,0.7,1.4,1.4S1725.7,1376.8,1724.9,1376.8z M1707.5,1376.8h-8.7c-0.8,0-1.4-0.7-1.4-1.4
		s0.7-1.4,1.4-1.4h8.7c0.8,0,1.4,0.7,1.4,1.4S1708.3,1376.8,1707.5,1376.8z M1690,1376.8h-8.7c-0.8,0-1.4-0.7-1.4-1.4
		s0.7-1.4,1.4-1.4h8.7c0.8,0,1.4,0.7,1.4,1.4S1690.8,1376.8,1690,1376.8z M1672.6,1376.8h-8.7c-0.8,0-1.4-0.7-1.4-1.4
		s0.7-1.4,1.4-1.4h8.7c0.8,0,1.4,0.7,1.4,1.4S1673.4,1376.8,1672.6,1376.8z M1655.1,1376.8h-8.7c-0.8,0-1.5-0.7-1.5-1.4
		s0.6-1.4,1.4-1.4h8.7c0.8,0,1.4,0.7,1.4,1.4S1655.9,1376.8,1655.1,1376.8z"/>
</g>
<g>
	<path class="st16" d="M1188.7,910.9h-9.7c-0.9,0-1.6-0.7-1.6-1.6s0.7-1.6,1.6-1.6h9.7c0.9,0,1.7,0.7,1.7,1.6
		C1190.3,910.2,1189.6,910.9,1188.7,910.9z M1169.3,910.9h-9.7c-0.9,0-1.6-0.7-1.6-1.6s0.7-1.6,1.6-1.6h9.7c0.9,0,1.6,0.7,1.6,1.6
		S1170.2,910.9,1169.3,910.9z M1150,910.9h-9.7c-0.9,0-1.6-0.7-1.6-1.6s0.7-1.6,1.6-1.6h9.7c0.9,0,1.6,0.7,1.6,1.6
		S1150.9,910.9,1150,910.9z M1130.7,910.9h-9.7c-0.9,0-1.6-0.7-1.6-1.6s0.7-1.6,1.6-1.6h9.7c0.9,0,1.6,0.7,1.6,1.6
		S1131.6,910.9,1130.7,910.9z M1111.3,910.9h-9.7c-0.9,0-1.6-0.7-1.6-1.6s0.7-1.6,1.6-1.6h9.7c0.9,0,1.6,0.7,1.6,1.6
		C1113,910.2,1112.2,910.9,1111.3,910.9z M1092,910.9h-9.7c-0.9,0-1.6-0.7-1.6-1.6s0.7-1.6,1.6-1.6h9.7c0.9,0,1.6,0.7,1.6,1.6
		S1092.9,910.9,1092,910.9z M1072.7,910.9h-9.7c-0.9,0-1.6-0.7-1.6-1.6s0.7-1.6,1.6-1.6h9.7c0.9,0,1.6,0.7,1.6,1.6
		S1073.6,910.9,1072.7,910.9z M1053.6,909.9c-0.3,0-0.6-0.1-0.8-0.2c-3-1.7-4.9-4.9-4.9-8.4v-1.2c0-0.9,0.7-1.6,1.6-1.6
		s1.6,0.7,1.6,1.6v1.2c0,2.3,1.2,4.4,3.2,5.6c0.8,0.4,1.1,1.4,0.6,2.2C1054.7,909.6,1054.2,909.9,1053.6,909.9z M1196.1,905.7
		c-0.2,0-0.4,0-0.6-0.1c-0.8-0.3-1.3-1.3-0.9-2.1c0.3-0.7,0.4-1.5,0.4-2.3v-6.8c0-0.9,0.7-1.6,1.6-1.6s1.6,0.7,1.6,1.6v6.8
		c0,1.2-0.2,2.3-0.6,3.4C1197.4,905.3,1196.8,905.7,1196.1,905.7z M1049.5,892c-0.9,0-1.6-0.7-1.6-1.6v-9.7c0-0.9,0.7-1.6,1.6-1.6
		s1.6,0.7,1.6,1.6v9.7C1051.2,891.3,1050.4,892,1049.5,892z M1196.6,886.5c-0.9,0-1.6-0.7-1.6-1.6v-9.7c0-0.9,0.7-1.6,1.6-1.6
		s1.6,0.7,1.6,1.6v9.7C1198.3,885.7,1197.5,886.5,1196.6,886.5z M1049.5,872.7c-0.9,0-1.6-0.7-1.6-1.6v-9.7c0-0.9,0.7-1.6,1.6-1.6
		s1.6,0.7,1.6,1.6v9.7C1051.2,872,1050.4,872.7,1049.5,872.7z M1196.6,867.2c-0.9,0-1.6-0.7-1.6-1.6v-9.7c0-0.9,0.7-1.6,1.6-1.6
		s1.6,0.7,1.6,1.6v9.7C1198.3,866.4,1197.5,867.2,1196.6,867.2z M1049.5,853.4c-0.9,0-1.6-0.7-1.6-1.6v-9.7c0-0.9,0.7-1.6,1.6-1.6
		s1.6,0.7,1.6,1.6v9.7C1051.2,852.7,1050.4,853.4,1049.5,853.4z M1196.6,847.8c-0.9,0-1.6-0.7-1.6-1.6v-9.7c0-0.9,0.7-1.6,1.6-1.6
		s1.6,0.7,1.6,1.6v9.7C1198.3,847.1,1197.5,847.8,1196.6,847.8z M1049.5,834.1c-0.9,0-1.6-0.7-1.6-1.6v-9.7c0-0.9,0.7-1.6,1.6-1.6
		s1.6,0.7,1.6,1.6v9.7C1051.2,833.4,1050.4,834.1,1049.5,834.1z M1196.6,828.5c-0.9,0-1.6-0.7-1.6-1.6v-9.7c0-0.9,0.7-1.6,1.6-1.6
		s1.6,0.7,1.6,1.6v9.7C1198.3,827.8,1197.5,828.5,1196.6,828.5z M1049.5,814.8c-0.9,0-1.6-0.7-1.6-1.6v-9.7c0-0.9,0.7-1.6,1.6-1.6
		s1.6,0.7,1.6,1.6v9.7C1051.2,814.1,1050.4,814.8,1049.5,814.8z M1196.6,809.2c-0.9,0-1.6-0.7-1.6-1.6v-9.7c0-0.9,0.7-1.6,1.6-1.6
		s1.6,0.7,1.6,1.6v9.7C1198.3,808.5,1197.5,809.2,1196.6,809.2z M1049.5,795.5c-0.9,0-1.6-0.7-1.6-1.6v-6.7c0-1.2,0.2-2.3,0.6-3.4
		c0.3-0.8,1.3-1.3,2.1-0.9s1.3,1.3,0.9,2.1c-0.3,0.7-0.4,1.5-0.4,2.3v6.7C1051.2,794.8,1050.4,795.5,1049.5,795.5z M1196.6,789.9
		c-0.9,0-1.6-0.7-1.6-1.6v-1.2c0-2.3-1.3-4.4-3.3-5.6c-0.8-0.4-1.1-1.4-0.6-2.2c0.4-0.8,1.4-1.1,2.2-0.6c3,1.7,4.9,4.9,4.9,8.4v1.2
		C1198.3,789.2,1197.5,789.9,1196.6,789.9z M1183,780.7h-9.7c-0.9,0-1.6-0.7-1.6-1.6s0.7-1.6,1.6-1.6h9.7c0.9,0,1.6,0.7,1.6,1.6
		C1184.7,780,1183.9,780.7,1183,780.7z M1163.7,780.7h-9.7c-0.9,0-1.6-0.7-1.6-1.6s0.7-1.6,1.6-1.6h9.7c0.9,0,1.6,0.7,1.6,1.6
		S1164.6,780.7,1163.7,780.7z M1144.4,780.7h-9.7c-0.9,0-1.6-0.7-1.6-1.6s0.7-1.6,1.6-1.6h9.7c0.9,0,1.6,0.7,1.6,1.6
		S1145.3,780.7,1144.4,780.7z M1125.1,780.7h-9.7c-0.9,0-1.6-0.7-1.6-1.6s0.7-1.6,1.6-1.6h9.7c0.9,0,1.6,0.7,1.6,1.6
		S1126,780.7,1125.1,780.7z M1105.8,780.7h-9.7c-0.9,0-1.6-0.7-1.6-1.6s0.7-1.6,1.6-1.6h9.7c0.9,0,1.6,0.7,1.6,1.6
		S1106.7,780.7,1105.8,780.7z M1086.5,780.7h-9.7c-0.9,0-1.6-0.7-1.6-1.6s0.7-1.6,1.6-1.6h9.7c0.9,0,1.6,0.7,1.6,1.6
		S1087.4,780.7,1086.5,780.7z M1067.2,780.7h-9.6c-0.9,0-1.7-0.7-1.7-1.6s0.7-1.6,1.6-1.6h9.7c0.9,0,1.6,0.7,1.6,1.6
		S1068.1,780.7,1067.2,780.7z"/>
</g>
<g>
	<path class="st16" d="M1812,1512.3h-8.8c-0.8,0-1.4-0.7-1.4-1.4s0.7-1.4,1.4-1.4h8.7c0.8,0,1.5,0.7,1.5,1.4
		S1812.8,1512.3,1812,1512.3z M1794.5,1512.3h-8.7c-0.8,0-1.4-0.7-1.4-1.4s0.7-1.4,1.4-1.4h8.7c0.8,0,1.4,0.7,1.4,1.4
		S1795.3,1512.3,1794.5,1512.3z M1777,1512.3h-8.7c-0.8,0-1.4-0.7-1.4-1.4s0.7-1.4,1.4-1.4h8.7c0.8,0,1.4,0.7,1.4,1.4
		S1777.8,1512.3,1777,1512.3z M1759.6,1512.3h-8.7c-0.8,0-1.4-0.7-1.4-1.4s0.7-1.4,1.4-1.4h8.7c0.8,0,1.4,0.7,1.4,1.4
		S1760.4,1512.3,1759.6,1512.3z M1742.1,1512.3h-8.7c-0.8,0-1.4-0.7-1.4-1.4s0.7-1.4,1.4-1.4h8.7c0.8,0,1.4,0.7,1.4,1.4
		S1742.9,1512.3,1742.1,1512.3z M1724.7,1512.3h-8.7c-0.8,0-1.4-0.7-1.4-1.4s0.7-1.4,1.4-1.4h8.7c0.8,0,1.4,0.7,1.4,1.4
		S1725.5,1512.3,1724.7,1512.3z M1707.2,1512.3h-8.7c-0.8,0-1.4-0.7-1.4-1.4s0.7-1.4,1.4-1.4h8.7c0.8,0,1.4,0.7,1.4,1.4
		S1708,1512.3,1707.2,1512.3z M1689.8,1512.3h-8.7c-0.8,0-1.4-0.7-1.4-1.4s0.7-1.4,1.4-1.4h8.7c0.8,0,1.4,0.7,1.4,1.4
		S1690.6,1512.3,1689.8,1512.3z M1672.3,1512.3h-8.7c-0.8,0-1.4-0.7-1.4-1.4s0.7-1.4,1.4-1.4h8.7c0.8,0,1.4,0.7,1.4,1.4
		S1673.1,1512.3,1672.3,1512.3z M1654.8,1512.3h-8.4c-0.1,0-0.3,0-0.4,0c-0.8,0-1.4-0.7-1.4-1.5c0-0.8,0.7-1.4,1.5-1.4
		c0.1,0,0.2,0,0.2,0h8.4c0.8,0,1.4,0.7,1.4,1.4S1655.6,1512.3,1654.8,1512.3z M1817.6,1506.7
		C1817.6,1506.7,1817.6,1506.7,1817.6,1506.7c-0.9,0-1.5-0.7-1.5-1.5v-0.1v-8.5c0-0.8,0.7-1.4,1.4-1.4s1.4,0.7,1.4,1.4v8.8
		C1819.1,1506.1,1818.4,1506.7,1817.6,1506.7z M1640.7,1506.5c-0.8,0-1.4-0.7-1.4-1.4v-8.7c0-0.8,0.7-1.4,1.4-1.4s1.4,0.7,1.4,1.4
		v8.7C1642.2,1505.8,1641.5,1506.5,1640.7,1506.5z M1817.6,1489.3c-0.8,0-1.4-0.7-1.4-1.4v-8.7c0-0.8,0.7-1.4,1.4-1.4
		s1.4,0.7,1.4,1.4v8.7C1819.1,1488.6,1818.4,1489.3,1817.6,1489.3z M1640.7,1489c-0.8,0-1.4-0.7-1.4-1.4v-8.7c0-0.8,0.7-1.4,1.4-1.4
		s1.4,0.7,1.4,1.4v8.7C1642.2,1488.4,1641.5,1489,1640.7,1489z M1817.6,1471.8c-0.8,0-1.4-0.7-1.4-1.4v-8.7c0-0.8,0.7-1.4,1.4-1.4
		s1.4,0.7,1.4,1.4v8.7C1819.1,1471.2,1818.4,1471.8,1817.6,1471.8z M1640.7,1471.6c-0.8,0-1.4-0.7-1.4-1.4v-8.5c0-0.1,0-0.2,0-0.3
		c0-0.8,0.7-1.4,1.5-1.4c0.8,0,1.4,0.7,1.4,1.5v0.2v8.5C1642.2,1470.9,1641.5,1471.6,1640.7,1471.6z M1812.2,1457.4
		C1812.2,1457.4,1812.1,1457.4,1812.2,1457.4h-0.3h-8.5c-0.8,0-1.4-0.7-1.4-1.4s0.7-1.4,1.4-1.4h8.5c0.1,0,0.2,0,0.3,0
		c0.8,0,1.4,0.7,1.4,1.5C1813.6,1456.8,1813,1457.4,1812.2,1457.4z M1794.7,1457.4h-8.7c-0.8,0-1.4-0.7-1.4-1.4s0.7-1.4,1.4-1.4h8.7
		c0.8,0,1.4,0.7,1.4,1.4S1795.5,1457.4,1794.7,1457.4z M1777.3,1457.4h-8.7c-0.8,0-1.4-0.7-1.4-1.4s0.7-1.4,1.4-1.4h8.7
		c0.8,0,1.4,0.7,1.4,1.4S1778.1,1457.4,1777.3,1457.4z M1759.8,1457.4h-8.7c-0.8,0-1.4-0.7-1.4-1.4s0.7-1.4,1.4-1.4h8.7
		c0.8,0,1.4,0.7,1.4,1.4S1760.6,1457.4,1759.8,1457.4z M1742.4,1457.4h-8.7c-0.8,0-1.4-0.7-1.4-1.4s0.7-1.4,1.4-1.4h8.7
		c0.8,0,1.4,0.7,1.4,1.4S1743.2,1457.4,1742.4,1457.4z M1724.9,1457.4h-8.7c-0.8,0-1.4-0.7-1.4-1.4s0.7-1.4,1.4-1.4h8.7
		c0.8,0,1.4,0.7,1.4,1.4S1725.7,1457.4,1724.9,1457.4z M1707.5,1457.4h-8.7c-0.8,0-1.4-0.7-1.4-1.4s0.7-1.4,1.4-1.4h8.7
		c0.8,0,1.4,0.7,1.4,1.4S1708.3,1457.4,1707.5,1457.4z M1690,1457.4h-8.7c-0.8,0-1.4-0.7-1.4-1.4s0.7-1.4,1.4-1.4h8.7
		c0.8,0,1.4,0.7,1.4,1.4S1690.8,1457.4,1690,1457.4z M1672.6,1457.4h-8.7c-0.8,0-1.4-0.7-1.4-1.4s0.7-1.4,1.4-1.4h8.7
		c0.8,0,1.4,0.7,1.4,1.4S1673.4,1457.4,1672.6,1457.4z M1655.1,1457.4h-8.7c-0.8,0-1.5-0.7-1.5-1.4s0.6-1.4,1.4-1.4h8.7
		c0.8,0,1.4,0.7,1.4,1.4S1655.9,1457.4,1655.1,1457.4z"/>
</g>
<g>
	<path class="st16" d="M1123.3,1451.6h-8.7c-0.8,0-1.4-0.7-1.4-1.4s0.7-1.4,1.4-1.4h8.7c0.8,0,1.5,0.7,1.5,1.4
		S1124.1,1451.6,1123.3,1451.6z M1105.9,1451.6h-8.7c-0.8,0-1.4-0.7-1.4-1.4s0.7-1.4,1.4-1.4h8.7c0.8,0,1.4,0.7,1.4,1.4
		S1106.7,1451.6,1105.9,1451.6z M1088.6,1451.6h-8.7c-0.8,0-1.4-0.7-1.4-1.4s0.7-1.4,1.4-1.4h8.7c0.8,0,1.4,0.7,1.4,1.4
		S1089.4,1451.6,1088.6,1451.6z M1071.3,1451.6h-8.7c-0.8,0-1.4-0.7-1.4-1.4s0.7-1.4,1.4-1.4h8.7c0.8,0,1.4,0.7,1.4,1.4
		S1072.1,1451.6,1071.3,1451.6z M1054,1451.6h-8.7c-0.8,0-1.4-0.7-1.4-1.4s0.7-1.4,1.4-1.4h8.7c0.8,0,1.4,0.7,1.4,1.4
		S1054.8,1451.6,1054,1451.6z M1036.7,1451.6h-8.7c-0.8,0-1.4-0.7-1.4-1.4s0.7-1.4,1.4-1.4h8.7c0.8,0,1.4,0.7,1.4,1.4
		S1037.5,1451.6,1036.7,1451.6z M1019.4,1451.6h-8.7c-0.8,0-1.4-0.7-1.4-1.4s0.7-1.4,1.4-1.4h8.7c0.8,0,1.4,0.7,1.4,1.4
		S1020.2,1451.6,1019.4,1451.6z M1002.1,1451.6h-8.7c-0.8,0-1.4-0.7-1.4-1.4s0.7-1.4,1.4-1.4h8.7c0.8,0,1.4,0.7,1.4,1.4
		S1002.9,1451.6,1002.1,1451.6z M984.8,1451.6h-8.7c-0.8,0-1.4-0.7-1.4-1.4s0.7-1.4,1.4-1.4h8.7c0.8,0,1.4,0.7,1.4,1.4
		S985.6,1451.6,984.8,1451.6z M967.5,1451.6h-8.7c-0.8,0-1.4-0.7-1.4-1.4s0.7-1.4,1.4-1.4h8.7c0.8,0,1.4,0.7,1.4,1.4
		S968.3,1451.6,967.5,1451.6z M950.2,1451.6h-8.7c-0.8,0-1.4-0.7-1.4-1.4s0.7-1.4,1.4-1.4h8.7c0.8,0,1.4,0.7,1.4,1.4
		S951,1451.6,950.2,1451.6z M932.9,1451.6h-8.7c-0.8,0-1.4-0.7-1.4-1.4s0.7-1.4,1.4-1.4h8.7c0.8,0,1.4,0.7,1.4,1.4
		S933.7,1451.6,932.9,1451.6z M915.6,1451.6H907c-0.8,0-1.4-0.7-1.4-1.4s0.7-1.4,1.4-1.4h8.7c0.8,0,1.4,0.7,1.4,1.4
		S916.4,1451.6,915.6,1451.6z M898.3,1451.6h-8.7c-0.8,0-1.4-0.7-1.4-1.4s0.7-1.4,1.4-1.4h8.7c0.8,0,1.4,0.7,1.4,1.4
		S899.1,1451.6,898.3,1451.6z M881,1451.6h-8.7c-0.8,0-1.4-0.7-1.4-1.4s0.7-1.4,1.4-1.4h8.7c0.8,0,1.4,0.7,1.4,1.4
		S881.8,1451.6,881,1451.6z M863.7,1451.6h-6.9c-0.6,0-1.3,0-1.9-0.1c-0.8-0.1-1.4-0.8-1.3-1.6c0.1-0.8,0.8-1.4,1.6-1.3
		c0.5,0.1,1,0.1,1.6,0.1h6.9c0.8,0,1.4,0.7,1.4,1.4S864.5,1451.6,863.7,1451.6z M1131.4,1449.1c-0.5,0-0.9-0.2-1.2-0.6
		c-0.4-0.7-0.3-1.6,0.4-2c2.2-1.5,3.9-3.5,4.9-5.9c0.3-0.7,1.2-1.1,1.9-0.8c0.7,0.3,1.1,1.2,0.8,1.9c-1.2,2.9-3.3,5.4-5.9,7.2
		C1132,1449,1131.7,1449.1,1131.4,1449.1z M847.2,1448.1c-0.3,0-0.7-0.1-0.9-0.3c-2.4-2.1-4.2-4.8-5.1-7.9c-0.2-0.8,0.2-1.6,1-1.8
		c0.8-0.2,1.6,0.2,1.8,1c0.7,2.5,2.2,4.8,4.2,6.5c0.6,0.5,0.7,1.4,0.2,2C848,1447.9,847.7,1448.1,847.2,1448.1z M1138,1434
		c-0.8,0-1.4-0.7-1.4-1.4v-8.7c0-0.8,0.7-1.4,1.4-1.4s1.4,0.7,1.4,1.4v8.7C1139.4,1433.3,1138.8,1434,1138,1434z M842,1432.3
		c-0.8,0-1.4-0.7-1.4-1.4v-8.7c0-0.8,0.7-1.4,1.4-1.4c0.8,0,1.4,0.7,1.4,1.4v8.7C843.5,1431.7,842.8,1432.3,842,1432.3z
		 M1138,1416.7c-0.8,0-1.4-0.7-1.4-1.4v-8.7c0-0.8,0.7-1.4,1.4-1.4s1.4,0.7,1.4,1.4v8.7C1139.4,1416,1138.8,1416.7,1138,1416.7z
		 M842,1415c-0.8,0-1.4-0.7-1.4-1.4v-8.7c0-0.8,0.7-1.4,1.4-1.4c0.8,0,1.4,0.7,1.4,1.4v8.7C843.5,1414.3,842.8,1415,842,1415z
		 M1138,1399.4c-0.8,0-1.4-0.7-1.4-1.4v-8.7c0-0.8,0.7-1.4,1.4-1.4s1.4,0.7,1.4,1.4v8.7C1139.4,1398.7,1138.8,1399.4,1138,1399.4z
		 M842,1397.7c-0.8,0-1.4-0.7-1.4-1.4v-8.7c0-0.8,0.7-1.4,1.4-1.4c0.8,0,1.4,0.7,1.4,1.4v8.7C843.5,1397,842.8,1397.7,842,1397.7z
		 M1138,1382.1c-0.8,0-1.4-0.7-1.4-1.4v-8.7c0-0.8,0.7-1.4,1.4-1.4s1.4,0.7,1.4,1.4v8.7C1139.4,1381.4,1138.8,1382.1,1138,1382.1z
		 M842,1380.4c-0.8,0-1.4-0.7-1.4-1.4v-8.7c0-0.8,0.7-1.4,1.4-1.4c0.8,0,1.4,0.7,1.4,1.4v8.7C843.5,1379.7,842.8,1380.4,842,1380.4z
		 M1138,1364.8c-0.8,0-1.4-0.7-1.4-1.4v-8.7c0-0.8,0.7-1.4,1.4-1.4s1.4,0.7,1.4,1.4v8.7C1139.4,1364.1,1138.8,1364.8,1138,1364.8z
		 M842,1363.1c-0.8,0-1.4-0.7-1.4-1.4v-8.7c0-0.8,0.7-1.4,1.4-1.4c0.8,0,1.4,0.7,1.4,1.4v8.7C843.5,1362.4,842.8,1363.1,842,1363.1z
		 M1138,1347.5c-0.8,0-1.4-0.7-1.4-1.4v-8.7c0-0.8,0.7-1.4,1.4-1.4s1.4,0.7,1.4,1.4v8.7C1139.4,1346.8,1138.8,1347.5,1138,1347.5z
		 M842,1345.8c-0.8,0-1.4-0.7-1.4-1.4v-8.7c0-0.8,0.7-1.4,1.4-1.4c0.8,0,1.4,0.7,1.4,1.4v8.7C843.5,1345.1,842.8,1345.8,842,1345.8z
		 M1138,1330.2c-0.8,0-1.4-0.7-1.4-1.4v-8.7c0-0.8,0.7-1.4,1.4-1.4s1.4,0.7,1.4,1.4v8.7C1139.4,1329.5,1138.8,1330.2,1138,1330.2z
		 M842,1328.5c-0.8,0-1.4-0.7-1.4-1.4v-8.7c0-0.8,0.7-1.4,1.4-1.4c0.8,0,1.4,0.7,1.4,1.4v8.7C843.5,1327.8,842.8,1328.5,842,1328.5z
		 M1138,1312.9c-0.8,0-1.4-0.7-1.4-1.4v-8.7c0-0.8,0.7-1.4,1.4-1.4s1.4,0.7,1.4,1.4v8.7C1139.4,1312.2,1138.8,1312.9,1138,1312.9z
		 M842,1311.2c-0.8,0-1.4-0.7-1.4-1.4v-8.7c0-0.8,0.7-1.4,1.4-1.4c0.8,0,1.4,0.7,1.4,1.4v8.7C843.5,1310.5,842.8,1311.2,842,1311.2z
		 M1138,1295.6c-0.8,0-1.4-0.7-1.4-1.4v-8.7c0-0.8,0.7-1.4,1.4-1.4s1.4,0.7,1.4,1.4v8.7C1139.4,1294.9,1138.8,1295.6,1138,1295.6z
		 M842,1293.9c-0.8,0-1.4-0.7-1.4-1.4v-8.7c0-0.8,0.7-1.4,1.4-1.4c0.8,0,1.4,0.7,1.4,1.4v8.7C843.5,1293.2,842.8,1293.9,842,1293.9z
		 M1138,1278.3c-0.8,0-1.4-0.7-1.4-1.4v-8.7c0-0.8,0.7-1.4,1.4-1.4s1.4,0.7,1.4,1.4v8.7C1139.4,1277.6,1138.8,1278.3,1138,1278.3z
		 M842,1276.6c-0.8,0-1.4-0.7-1.4-1.4v-8.7c0-0.8,0.7-1.4,1.4-1.4c0.8,0,1.4,0.7,1.4,1.4v8.7C843.5,1275.9,842.8,1276.6,842,1276.6z
		 M1138,1260.9c-0.8,0-1.4-0.7-1.4-1.4v-8.7c0-0.8,0.7-1.4,1.4-1.4s1.4,0.7,1.4,1.4v8.7C1139.4,1260.3,1138.8,1260.9,1138,1260.9z
		 M842,1259.3c-0.8,0-1.4-0.7-1.4-1.4v-8.7c0-0.8,0.7-1.4,1.4-1.4c0.8,0,1.4,0.7,1.4,1.4v8.7C843.5,1258.6,842.8,1259.3,842,1259.3z
		 M1137.4,1243.7c-0.6,0-1.2-0.4-1.4-1c-0.7-2.5-2.2-4.8-4.2-6.4c-0.6-0.5-0.7-1.4-0.2-2c0.5-0.6,1.4-0.7,2-0.2
		c2.4,2.1,4.2,4.8,5.1,7.9c0.2,0.8-0.2,1.6-1,1.8C1137.7,1243.7,1137.5,1243.7,1137.4,1243.7z M843.2,1242.1c-0.2,0-0.4,0-0.6-0.1
		c-0.7-0.3-1.1-1.2-0.8-1.9c1.2-2.9,3.3-5.4,6-7.2c0.7-0.4,1.6-0.3,2,0.4c0.4,0.7,0.3,1.6-0.4,2c-2.2,1.5-3.9,3.5-4.9,5.9
		C844.3,1241.8,843.8,1242.1,843.2,1242.1z M1124.9,1233.2c-0.1,0-0.1,0-0.2,0c-0.5-0.1-1-0.1-1.6-0.1h-6.9c-0.8,0-1.4-0.7-1.4-1.4
		s0.7-1.4,1.4-1.4h6.9c0.6,0,1.3,0,1.9,0.1c0.8,0.1,1.4,0.8,1.3,1.6C1126.3,1232.6,1125.7,1233.2,1124.9,1233.2z M1107.7,1233.1
		h-8.7c-0.8,0-1.4-0.7-1.4-1.4s0.7-1.4,1.4-1.4h8.7c0.8,0,1.4,0.7,1.4,1.4S1108.4,1233.1,1107.7,1233.1z M1090.3,1233.1h-8.7
		c-0.8,0-1.4-0.7-1.4-1.4s0.7-1.4,1.4-1.4h8.7c0.8,0,1.4,0.7,1.4,1.4S1091.2,1233.1,1090.3,1233.1z M1073.1,1233.1h-8.7
		c-0.8,0-1.4-0.7-1.4-1.4s0.7-1.4,1.4-1.4h8.7c0.8,0,1.4,0.7,1.4,1.4S1073.8,1233.1,1073.1,1233.1z M1055.8,1233.1h-8.7
		c-0.8,0-1.4-0.7-1.4-1.4s0.7-1.4,1.4-1.4h8.7c0.8,0,1.4,0.7,1.4,1.4S1056.5,1233.1,1055.8,1233.1z M1038.4,1233.1h-8.7
		c-0.8,0-1.4-0.7-1.4-1.4s0.7-1.4,1.4-1.4h8.7c0.8,0,1.4,0.7,1.4,1.4S1039.2,1233.1,1038.4,1233.1z M1021.1,1233.1h-8.7
		c-0.8,0-1.4-0.7-1.4-1.4s0.7-1.4,1.4-1.4h8.7c0.8,0,1.4,0.7,1.4,1.4S1021.9,1233.1,1021.1,1233.1z M1003.8,1233.1h-8.7
		c-0.8,0-1.4-0.7-1.4-1.4s0.7-1.4,1.4-1.4h8.7c0.8,0,1.4,0.7,1.4,1.4S1004.6,1233.1,1003.8,1233.1z M986.5,1233.1h-8.7
		c-0.8,0-1.4-0.7-1.4-1.4s0.7-1.4,1.4-1.4h8.7c0.8,0,1.4,0.7,1.4,1.4S987.3,1233.1,986.5,1233.1z M969.2,1233.1h-8.7
		c-0.8,0-1.4-0.7-1.4-1.4s0.7-1.4,1.4-1.4h8.7c0.8,0,1.4,0.7,1.4,1.4S970,1233.1,969.2,1233.1z M951.9,1233.1h-8.7
		c-0.8,0-1.4-0.7-1.4-1.4s0.7-1.4,1.4-1.4h8.7c0.8,0,1.4,0.7,1.4,1.4S952.7,1233.1,951.9,1233.1z M934.6,1233.1H926
		c-0.8,0-1.4-0.7-1.4-1.4s0.7-1.4,1.4-1.4h8.7c0.8,0,1.4,0.7,1.4,1.4S935.4,1233.1,934.6,1233.1z M917.3,1233.1h-8.7
		c-0.8,0-1.4-0.7-1.4-1.4s0.7-1.4,1.4-1.4h8.7c0.8,0,1.4,0.7,1.4,1.4S918.1,1233.1,917.3,1233.1z M900,1233.1h-8.7
		c-0.8,0-1.4-0.7-1.4-1.4s0.7-1.4,1.4-1.4h8.7c0.8,0,1.4,0.7,1.4,1.4S900.8,1233.1,900,1233.1z M882.7,1233.1h-8.7
		c-0.8,0-1.4-0.7-1.4-1.4s0.7-1.4,1.4-1.4h8.7c0.8,0,1.4,0.7,1.4,1.4S883.5,1233.1,882.7,1233.1z M865.4,1233.1h-8.6
		c-0.8,0-1.5-0.7-1.5-1.4s0.6-1.4,1.4-1.4h8.7c0.8,0,1.4,0.7,1.4,1.4S866.2,1233.1,865.4,1233.1z"/>
</g>
<g>
	<path class="st17" d="M1207.4,1186.4H857.7c-7.5,0-13.7-6.1-13.7-13.7V981.5c0-7.5,6.1-13.7,13.7-13.7h349.7
		c7.6,0,13.7,6.1,13.7,13.7v191.2C1221.1,1180.3,1214.9,1186.4,1207.4,1186.4z"/>
	<path class="st4" d="M990,1033.8v86.7c0,5.4,6,8.7,10.5,5.7l65.9-43.3c4.1-2.7,4.1-8.7,0-11.4l-65.9-43.3
		C996,1025.1,990,1028.4,990,1033.8z"/>
	<g>
		<path class="st18" d="M863.7,1166.7c0-3.7,3-6.8,6.8-6.8s6.8,3,6.8,6.8s-3,6.8-6.8,6.8C866.7,1173.4,863.7,1170.4,863.7,1166.7z"
			/>
		<path class="st18" d="M1178.3,1168.5h-306c-1,0-1.8-0.8-1.8-1.8l0,0c0-1,0.8-1.8,1.8-1.8h306c1,0,1.8,0.8,1.8,1.8l0,0
			C1180.1,1167.7,1179.3,1168.5,1178.3,1168.5z"/>
	</g>
</g>
<rect x="1196.6" y="1231.6" class="st0" width="195" height="291.2"/>
<g>
	<g>
		<g>
			<path class="st8" d="M1312.9,1325.2h-2.7v-12c0-4.3,3.5-7.8,7.8-7.8h33c2.3,0,4.4-1.6,5-3.8l5.2-19.8c0.4-1.6,0.1-3.2-0.9-4.4
				c-1-1.3-2.5-2-4.1-2h-43.1v-2.7h43.1c2.4,0,4.7,1.1,6.2,3c1.5,1.9,2,4.4,1.4,6.8l-5.2,19.8c-0.9,3.4-4,5.8-7.6,5.8h-33
				c-2.8,0-5.1,2.3-5.1,5.1V1325.2z"/>
		</g>
		<path class="st4" d="M1343.9,1285.2h-56.7c-4.8,0-8.7-3.9-8.7-8.7v-5.2c0-4.8,3.9-8.7,8.7-8.7h56.7c4.8,0,8.7,3.9,8.7,8.7v5.2
			C1352.6,1281.3,1348.7,1285.2,1343.9,1285.2z"/>
		<path class="st8" d="M1311.5,1374.9L1311.5,1374.9c-4.1,0-7.3-3.3-7.3-7.3v-44.5c0-4.1,3.3-7.3,7.3-7.3l0,0c4.1,0,7.3,3.3,7.3,7.3
			v44.5C1318.9,1371.7,1315.6,1374.9,1311.5,1374.9z"/>
	</g>
	<g>
		<path class="st7" d="M1592.3,1471.4c0,0,5.1,15.6,4.6,19.1c-0.4,3.6-3.6,15.7-5.9,18.8c-2.3,3.1-3.4-12.7-5.2-15
			c-1.8-2.4-0.4,5.9-1.6,6.7s-3.9-6.1-5-8.5c-1.1-2.4,2.8-11.4,2.8-17.6C1582,1468.5,1592.3,1471.4,1592.3,1471.4z"/>
		<path class="st10" d="M1473.6,1347.9c-1.4-17.8,18-30.1,33.3-20.8c0.3,0.2,0.6,0.4,0.9,0.6c22.9,14.7,72.3,83.5,75.7,90.4
			c3.4,6.9,13.4,61.7,13.4,61.7s-12.4,4.5-18.2-0.2c0,0-20.1-52-23.1-54.6c-3-2.6-80.4-46.1-81.1-62.3
			C1474.3,1358.3,1474,1353.2,1473.6,1347.9z"/>
	</g>
	<g>
		<path class="st21" d="M1611.8,1750.3c0,0,9.2,8.4,7.4,14.4c-1.8,6-10.1,10-11.3,17.3c-1.1,7.3-5.6,11.3-9.7,11.3s-19.3,0-19.3,0
			s-3-5.2,4.2-6.7c7.2-1.6,9.9-10.2,9.5-18.1s0.7-18.6,0.7-18.6l15.3-3.6L1611.8,1750.3z"/>
		<path class="st21" d="M1498.6,1772.1c0,0,1.7,19.2-2.4,21.2l-51.9-0.1c0,0,0-6,8.3-7.3c8.3-1.3,23-6.2,25.4-17.1
			C1480.6,1757.9,1498.6,1772.1,1498.6,1772.1z"/>
		<path class="st4" d="M1454.8,1501.3c0,0,2.7,33.6,5.9,74c4.4,54.9,9.6,122.3,10.1,135c0.9,22.2,4.5,57.6,4.5,57.6
			s8.6,8.4,25.7,4.9c0,0,15.3-50.6,19.6-104.2c0.1-0.9,0.1-1.8,0.2-2.7c4.1-54.5,10.3-169.3,10.3-169.3L1454.8,1501.3z"/>
		<path class="st22" d="M1454.8,1501.3c0,0,2.7,33.6,5.9,74l59.9,93.3c0.1-0.9,0.1-1.8,0.2-2.7c4.1-54.5,10.3-169.3,10.3-169.3
			L1454.8,1501.3z"/>
		<path class="st4" d="M1467.3,1505.3c0,0,49.3,121.7,81.7,178.9c32.4,57.2,42.6,73.1,42.6,73.1s18.6-7.3,20.3-12.3
			c0,0-12.4-110.4-34.1-137.3c-12.3-15.2-26.7-60.8-27.3-76.8c-0.7-16-4.4-47.5-4.4-47.5L1467.3,1505.3z"/>
	</g>
	<path class="st7" d="M1509.8,1322.8c0,0-33,16.8-52.4,11.2c0,0,4.6-6.1,12.8-10.7c-0.7-3.8-1.3-7.2-1.7-10c-0.9-6.5-1-10.3-1-10.3
		l12.7-10.4l12-9.9C1491.8,1309.9,1509.8,1322.8,1509.8,1322.8z"/>
	<path class="st8" d="M1542.6,1493c-13.3,8.1-26,14.1-40.7,17.6c-17.4,4.1-38.8,2.9-46,4c-0.7,0.1-1.4-0.1-2.1-0.5
		c-0.6-0.3-3.7-21.6-6.9-48.4c-0.1-1.1-0.3-2.2-0.3-3.3l-0.1-0.4c-1.2-10.5-2.3-21.5-3.3-32.6c-0.8-8.6-1.4-17.1-1.8-25.1
		c-0.6-10-0.8-19.2-0.6-26.7c0.1-3.4,0.3-6.6,0.6-9.2c1.9-15.7,9.4-26.9,16.4-35.2l5.8-6.6c6.8,0.4,13.7-0.8,20.2-5.2
		c7.1-4.7,14.8-9.8,16.3-8.9c10.9,6,19.8,21.5,26.2,41.9c3.6,11.8,6.4,25.2,8.2,39.3c0.6,4.4,1.1,8.9,1.4,13.4
		c0.1,0.8,0.1,1.7,0.2,2.5c0.9,12.3,2.3,23.8,3.8,34c2.1,13.8,4.5,25.4,6.2,33.6c0.8,4.2,1.5,7.4,1.9,9.7
		C1548.4,1489,1544.4,1491.9,1542.6,1493z"/>
	<path class="st12" d="M1492.6,1293.1c0,0-8.1,15.5-24.1,20.1c-0.9-6.5-1-10.3-1-10.3l12.7-10.4L1492.6,1293.1z"/>
	<path class="st7" d="M1461.7,1302.7c0,0,31.9,4.6,34.5-15s8.5-32.2-11.8-36s-25.2,3.2-27.7,9.6S1453.4,1301,1461.7,1302.7z"/>
	<path class="st6" d="M1507,1248.8c0.3-0.3,0.9-0.6,2.4-0.7c0,0-1.2-0.7-2.8-0.7c-0.3-2.1-1.5-5.7-5.1-6.5c0,0,1.9,1,2.2,3.2
		c-4.2-4.1-13.1-7-37.4-4.6c-32.1,3.2-21.1,23.5-16.9,25.9c4.2,2.4,14.6-4.6,22.3-4.1s9.5,11.6,12.1,13.1s1.6-1.2,5.1-2.9
		s4,4.2,3,8.1c-0.9,3.8,4,8.8,4,8.8s0,0,4.8-5.4s9-28,6.7-32.8C1507.4,1249.7,1507.2,1249.3,1507,1248.8z"/>
	<path class="st10" d="M1496.8,1379.4c0,0-26.9,20.5-55.4,25c-0.6-10-0.8-19.2-0.6-26.7L1496.8,1379.4z"/>
	<g>
		<path class="st7" d="M1331.6,1353c-0.4-0.5-5.9-18.8-15.4-17.5c-6.2,0.9-16.3,4.5-13.6,12.6c1.1,3.2,19.9,14.3,19.9,14.3
			L1331.6,1353z"/>
		<path class="st8" d="M1500.2,1339.8c15.3,9.2,14.1,32-2.3,39.1c-0.3,0.2-0.7,0.3-1,0.4c-25.3,10.1-109.9,10.6-117.5,9.4
			s-58.1-24.8-58.1-24.8s3.5-12.7,10.7-14.7c0,0,54,13.7,57.8,12.8c3.8-0.9,84.1-38.9,97.8-30
			C1491.2,1334.4,1495.6,1337.1,1500.2,1339.8z"/>
	</g>
</g>
<g>
	<path class="st0" d="M2069.6,737.6h-67.4c-2.8,0-5.2-2.3-5.2-5.2l0,0c0-2.8,2.3-5.2,5.2-5.2h67.4c2.8,0,5.1,2.3,5.1,5.2l0,0
		C2074.8,735.3,2072.5,737.6,2069.6,737.6z"/>
	<path class="st0" d="M2069.6,757.7h-67.4c-2.8,0-5.2-2.3-5.2-5.2l0,0c0-2.8,2.3-5.2,5.2-5.2h67.4c2.8,0,5.1,2.3,5.1,5.2l0,0
		C2074.8,755.4,2072.5,757.7,2069.6,757.7z"/>
	<path class="st0" d="M2069.6,778.3h-67.4c-2.8,0-5.2-2.3-5.2-5.2l0,0c0-2.8,2.3-5.2,5.2-5.2h67.4c2.8,0,5.1,2.3,5.1,5.2l0,0
		C2074.8,776,2072.5,778.3,2069.6,778.3z"/>
</g>
<path class="st0" d="M1805.8,1264.2h-160.4c-3.8,0-6.8-3.1-6.8-6.8l0,0c0-3.8,3.1-6.8,6.8-6.8h160.4c3.8,0,6.8,3.1,6.8,6.8l0,0
	C1812.6,1261.2,1809.5,1264.2,1805.8,1264.2z"/>
<path class="st0" d="M1021.6,795.5H861.2c-3.8,0-6.8-3.1-6.8-6.8l0,0c0-3.8,3.1-6.8,6.8-6.8h160.4c3.8,0,6.8,3.1,6.8,6.8l0,0
	C1028.4,792.5,1025.3,795.5,1021.6,795.5z"/>
<path class="st0" d="M1805.8,1332h-160.4c-3.8,0-6.8-3.1-6.8-6.8l0,0c0-3.8,3.1-6.8,6.8-6.8h160.4c3.8,0,6.8,3.1,6.8,6.8l0,0
	C1812.6,1328.9,1809.5,1332,1805.8,1332z"/>
<path class="st0" d="M1805.8,1298.1h-191.9c-3.8,0-6.8-3.1-6.8-6.8l0,0c0-3.8,3.1-6.8,6.8-6.8h191.9c3.8,0,6.8,3.1,6.8,6.8l0,0
	C1812.6,1295,1809.5,1298.1,1805.8,1298.1z"/>
<g>
	<path class="st0" d="M974,838.5h-90.5c-2.9,0-5.2-2.3-5.2-5.2V830c0-2.9,2.3-5.2,5.2-5.2H974c2.9,0,5.2,2.3,5.2,5.2v3.3
		C979.2,836.1,976.8,838.5,974,838.5z"/>
	<path class="st0" d="M848.3,831.6c0-3.8,3.1-6.8,6.8-6.8s6.8,3.1,6.8,6.8s-3.1,6.8-6.8,6.8C851.3,838.5,848.3,835.4,848.3,831.6z"
		/>
</g>
<g>
	<path class="st0" d="M991.1,865.6H883.9c-3.1,0-5.6-2.5-5.6-5.6v-2.4c0-3.1,2.5-5.6,5.6-5.6h107.3c3.1,0,5.6,2.5,5.6,5.6v2.4
		C996.8,863.1,994.2,865.6,991.1,865.6z"/>
	<path class="st0" d="M848.3,858.8c0-3.8,3.1-6.8,6.8-6.8s6.8,3.1,6.8,6.8s-3.1,6.8-6.8,6.8C851.3,865.6,848.3,862.6,848.3,858.8z"
		/>
</g>
<g>
	<path class="st0" d="M974,895.1h-90.5c-2.9,0-5.2-2.3-5.2-5.2v-3.3c0-2.9,2.3-5.2,5.2-5.2H974c2.9,0,5.2,2.3,5.2,5.2v3.3
		C979.2,892.8,976.8,895.1,974,895.1z"/>
	<path class="st0" d="M848.3,888.3c0-3.8,3.1-6.8,6.8-6.8s6.8,3.1,6.8,6.8s-3.1,6.8-6.8,6.8C851.3,895.1,848.3,892.1,848.3,888.3z"
		/>
</g>
<g>
	<g>
		<path class="st16" d="M1138.6,853.8c-1.2,0.2-2.4,0.2-3.6,0.2c-6.4-0.1-12.5-2.7-16.9-7.3c-9.3-9.5-9.1-24.8,0.4-34.1l0,0
			c9.5-9.3,24.8-9.1,34.1,0.4c9.3,9.5,9.1,24.8-0.4,34.1C1148.4,850.8,1143.7,853.1,1138.6,853.8z M1121.2,815.5
			c-7.9,7.8-8.1,20.5-0.3,28.5c3.8,3.8,8.8,6,14.2,6.1s10.4-2,14.3-5.7c7.9-7.8,8.1-20.5,0.3-28.5S1129.2,807.7,1121.2,815.5
			L1121.2,815.5z"/>
	</g>
	
		<rect x="1091.4" y="854.8" transform="matrix(0.7152 -0.6989 0.6989 0.7152 -283.3413 1018.2546)" class="st16" width="32.9" height="4"/>
	<path class="st16" d="M1087.8,876.3L1087.8,876.3c-1.4-1.4-1.3-3.6,0.1-5l13.8-13.5c1.4-1.4,3.6-1.3,5,0.1l0,0
		c1.4,1.4,1.3,3.6-0.1,5l-13.8,13.5C1091.4,877.7,1089.2,877.7,1087.8,876.3z"/>
</g>
<g>
	<path class="st8" d="M2015.6,1793.8L2015.6,1793.8c-3.1,0-6.3-2.2-7.2-5l-185.1-563.6c-0.9-2.8,0.8-5,3.9-5l0,0
		c3.1,0,6.3,2.2,7.2,5l185.1,563.6C2020.4,1791.5,2018.7,1793.7,2015.6,1793.8z"/>
	<path class="st8" d="M2164.8,1792.9L2164.8,1792.9c-3.1,0-6.3-2.2-7.2-5l-185.1-563.6c-0.9-2.8,0.8-5,3.9-5l0,0
		c3.1,0,6.3,2.2,7.2,5l185.1,563.6C2169.6,1790.6,2167.8,1792.9,2164.8,1792.9z"/>
	<path class="st8" d="M2004.1,1302.8l-149.8,0.9c-2.9,0-5.9-2.1-6.8-4.7l0,0c-0.8-2.6,0.8-4.7,3.7-4.7l149.8-0.9
		c2.9,0,5.9,2.1,6.8,4.7l0,0C2008.7,1300.7,2007,1302.8,2004.1,1302.8z"/>
	<path class="st8" d="M2036.4,1401.3l-149.8,0.9c-2.9,0-5.9-2.1-6.8-4.7l0,0c-0.8-2.6,0.8-4.7,3.7-4.8l149.8-0.9
		c2.9,0,5.9,2.1,6.8,4.7l0,0C2041,1399.1,2039.3,1401.2,2036.4,1401.3z"/>
	<path class="st8" d="M2067.6,1496l-149.8,0.9c-2.9,0-5.9-2.1-6.8-4.7l0,0c-0.8-2.6,0.8-4.7,3.7-4.7l149.8-0.9
		c2.9,0,5.9,2.1,6.8,4.7l0,0C2072.1,1493.9,2070.5,1496,2067.6,1496z"/>
	<path class="st8" d="M2102.6,1602.7l-149.8,0.9c-2.9,0-5.9-2.1-6.8-4.7l0,0c-0.8-2.6,0.8-4.7,3.7-4.8l149.8-0.9
		c2.9,0,5.9,2.1,6.8,4.7l0,0C2107.2,1600.6,2105.5,1602.7,2102.6,1602.7z"/>
	<path class="st8" d="M2139.3,1714.4l-149.8,0.9c-2.9,0-5.9-2.1-6.8-4.7l0,0c-0.8-2.6,0.8-4.7,3.7-4.7l149.8-0.9
		c2.9,0,5.9,2.1,6.8,4.7l0,0C2143.9,1712.3,2142.2,1714.4,2139.3,1714.4z"/>
</g>
<g>
	<path class="st8" d="M1816.8,967L1816.8,967c-1.2,0.2-2.3-0.5-2.6-1.7l-2.4-12.4c-0.2-1.2,0.6-2.3,1.7-2.5l0,0
		c1.2-0.2,2.3,0.5,2.6,1.7l2.4,12.4C1818.8,965.7,1818,966.8,1816.8,967z"/>
	
		<rect x="1810.5" y="929.4" transform="matrix(0.9818 -0.19 0.19 0.9818 -145.3241 361.2339)" class="st8" width="1.5" height="18.2"/>
	<path class="st7" d="M1810.3,828.6c0,0-1.4-12.3-4.4-17c-3-4.7-14.3-7.7-15-7c-2.2,2.1,6.5,9.7,6.9,12.5s-4.4,0.9-2.1,6.3
		c1.9,4.6,8.3,10.5,8.3,10.5L1810.3,828.6z"/>
	<path class="st23" d="M1804.8,827.2c4.1-3.2,5-3.2,5-3.2s38.1,33,41.8,35.9c3.7,2.9,60.9,19.5,60.9,19.5l9.1,46.5
		c0,0-77.4-37.4-86.7-45c-15.3-12.6-34.6-47.9-34.6-47.9S1801.6,829.8,1804.8,827.2z"/>
	<path class="st24" d="M1913.8,1274.2c0,0-0.7,15.9-3.7,19.8l-42.5,0.3c0.3-1.6,0.5-5.4,6.3-6.5c7.4-1.3,16.1-6.5,20.6-16.3
		C1899.3,1261.2,1913.8,1274.2,1913.8,1274.2z"/>
	<path class="st24" d="M1997.1,1271.9c0,0,3,21.1-1.1,21.5c-0.5,0.1-17.1,0.3-24.3,0.4c-8.4,0.1-22.3-0.2-22.3-0.2
		c-1.7,0.1-2.9-1.8-2-3.3c1-1.7,2.8-3.4,6.4-4.1c7.4-1.4,19.7-6.9,24-16.7C1982.4,1259.2,1997.1,1271.9,1997.1,1271.9z"/>
	<path class="st10" d="M1891.7,1055.5c0,0,11.8,41.3,45.7,113.1c33.8,71.7,35.3,106.3,35.3,106.3s5.1,1.8,11.9,1.1
		c7.3-0.8,12.5-4.1,12.5-4.1s-2.2-85.4-18.2-121.6c-16-36.2-19.2-135.3-19.2-135.3L1891.7,1055.5z"/>
	<path class="st8" d="M1872.7,1020c0,0-0.9,64,10.1,142.5s5.9,115.1,5.9,115.1s2.9,2.1,12,2.1c10.6,0,16-4.4,16-4.4
		s15.8-78.6,11.3-117.9s21.7-134.9,21.7-134.9L1872.7,1020z"/>
	<path class="st7" d="M1925.1,870.3l-12.5,9.3l-18.1-3.8c0.3-1.7,1.4-8.5,2.5-14.7c0.1-0.4,0.1-0.7,0.2-1.1c0.9-5.3,1.7-9.8,1.7-9.8
		l16.9-8.4l6.3-3.1c0,0.1-0.5,5.8-0.6,6.7C1920.4,860.2,1925.1,870.3,1925.1,870.3z"/>
	<path class="st4" d="M1960.9,1027.9c-4.1,18.7-91.6,10.5-90.4-0.9c0-0.4,0.3-5.7,0.6-12.8c0.7-15.4,1.7-39.5,1.8-41.3
		c0,0,0-0.1,0-0.1c1.6-15.9,3.1-31.4,3.2-41.6c0.1-8.8,1.3-17.8,2.9-26c1.5-7.5,3.3-14.4,4.9-19.7c1.1-3.8,3.2-7.1,6-9.7
		c2-1.8,4.3-3.3,6.8-4.3c0.7-0.3,1.4-0.5,2.1-0.7c10.3-3,24.6-6.7,28.4-5.5c10.5,3.1,18.2,21.5,23.7,45
		C1961.2,954,1963.5,1015.7,1960.9,1027.9z"/>
	<path class="st25" d="M1920.3,845.6c-3.7,7.1-17.5,13.2-23.3,15.5c0.1-0.4,0.1-0.7,0.2-1.1c0.9-5.3,1.7-9.8,1.7-9.8l16.9-8.4
		C1919.5,841.7,1921.8,842.7,1920.3,845.6z"/>
	<path class="st7" d="M1890.7,849.2c0,0,30.4,9.5,36.1-9.5s13.3-30.7-5.9-37.5s-25.1-0.7-28.6,5.2
		C1888.9,813.2,1883,846.3,1890.7,849.2z"/>
	<path class="st24" d="M1893.6,805.5c0,0,1.9,22.2,6.5,21.2c4.6-1,8.7-1.7,8.1,5c-0.7,6.7-7,14.4,7.1,15.6s34.4-35.3,30.6-42.2
		C1934.6,785.2,1877.4,781.2,1893.6,805.5z"/>
	<path class="st23" d="M1871,1014.2c0.7-15.4,1.7-39.5,1.8-41.3c0,0,0-0.1,0-0.1l51.7-30.9C1924.5,941.8,1926.5,1014,1871,1014.2z"
		/>
	<path class="st7" d="M1829.9,949.5c0,0-10.5-7.1-12.5-7.7c-2-0.6-8.5-1.3-8.8-0.8c-0.3,0.5-1.2,2.1-0.1,2.6s2.6,0.3,2.1,0.7
		c-0.4,0.4-4.7-1.7-5.7,0.5s-1.9,9.7,3.2,12c5,2.3,17.5,0.2,18.4,0.5C1834.1,959.5,1829.9,949.5,1829.9,949.5z"/>
	<path class="st4" d="M1829.8,947.6c0,0,51.3,8.7,55.8,6.5c7.3-3.5-2.8-55.5-2.8-55.5s-0.4-11.8,13.3-14.6c12-2.4,23.5,6.5,23.5,6.5
		s10.5,9.4,9.2,19.8c-3,23.1-7.6,70.1-23.1,77.3c-19.9,9.3-77.6-25.8-77.6-25.8s-1.9-2.3-1.7-6.7
		C1826.8,951.3,1829.8,947.6,1829.8,947.6z"/>
	<path class="st7" d="M1795.4,822.7c0,0-3.3-6.5-3.8-7.8c-0.5-1.2,0.8-1,2-0.3c1.3,0.7,3,4.5,4.9,4
		C1800.1,818.3,1795.4,822.7,1795.4,822.7z"/>
</g>
</svg>
