<?xml version="1.0" encoding="utf-8"?>
<!-- Generator: Adobe Illustrator 23.0.1, SVG Export Plug-In . SVG Version: 6.00 Build 0)  -->
<svg version="1.1" id="Слой_1" xmlns="http://www.w3.org/2000/svg" xmlns:xlink="http://www.w3.org/1999/xlink" x="0px" y="0px"
	 viewBox="0 0 3500 2000" style="enable-background:new 0 0 3500 2000;" xml:space="preserve">
<style type="text/css">
	.st0{fill:#EBEBEB;}
	.st1{fill:#C9C9C9;}
	.st2{fill:#E0E0E0;}
	.st3{fill:#EDB22F;}
	.st4{fill:#FFC93C;}
	.st5{fill:#00858E;}
	.st6{fill:#FFB93E;}
	.st7{fill:#FFA412;}
	.st8{fill:#FFEDDC;}
	.st9{fill:#DB6A1D;}
	.st10{fill:#E5C1A1;}
	.st11{fill:#F9DDBF;}
	.st12{opacity:0.5;fill:#E2810E;enable-background:new    ;}
	.st13{fill:#E2810E;}
	.st14{fill:#2C3A64;}
	.st15{fill:#ED985F;}
	.st16{fill:#007477;}
	.st17{fill:#FFB27D;}
	.st18{fill:#ED975D;}
	.st19{fill:#263238;}
	.st20{fill:#3A4A51;}
</style>
<g>
	<polygon class="st0" points="1597.5,1089.2 1266.8,1446.7 790.2,1005.9 790.2,1005.8 589.4,820 920.1,462.5 1295.1,809.4 	"/>
	<g>
		<path class="st1" d="M1521.9,1093.4L1265.1,1371L656.2,807.6L913,530.1L1521.9,1093.4z M1288.1,1329.1l193.6-209.3
			c13.2-14.2,12.3-36.4-1.9-49.5l-540-499.6c-14.4-13.4-37-12.5-50.4,1.9L696.6,781c-13.3,14.3-12.4,36.8,1.9,50l540.3,499.9
			C1253,1344.1,1275,1343.2,1288.1,1329.1z"/>
	</g>
	
		<ellipse transform="matrix(0.7071 -0.7071 0.7071 0.7071 -353.236 1048.3624)" class="st1" cx="1088.9" cy="950.6" rx="101.7" ry="101.7"/>
</g>
<g>
	<polygon class="st2" points="1727.2,1022.6 1252.2,1130.1 1109.1,496.7 1109.1,496.7 1048.8,229.9 1523.8,122.5 1636.3,620.8 	"/>
	<g>
		<path class="st1" d="M1662.5,983.2l-368.8,83.3l-182.9-809.1l368.8-83.3L1662.5,983.2z M1336.4,1045.1l278.1-62.9
			c18.8-4.3,30.7-23,26.5-42l-162.2-717.6c-4.3-19.2-23.5-31.2-42.6-27l-277,62.6c-19.1,4.3-31,23.2-26.7,42.3l162.3,718
			C1299,1037.6,1317.6,1049.3,1336.4,1045.1z"/>
	</g>
	
		<ellipse transform="matrix(0.7071 -0.7071 0.7071 0.7071 -32.5272 1162.1588)" class="st1" cx="1386.6" cy="620.3" rx="101.7" ry="101.7"/>
</g>
<g>
	<polygon class="st2" points="2672.7,1547 2166.3,1369.4 2403.1,694.1 2403.1,694.1 2502.9,409.5 3009.4,587.2 2823.1,1118.5 	"/>
	<g>
		<path class="st1" d="M2635.3,1472.2L2242,1334.3l302.6-862.6l393.3,137.9L2635.3,1472.2z M2294.6,1339.3l296.5,104
			c20.2,7.1,42.2-3.5,49.2-23.7l268.4-765.2c7.2-20.5-3.6-43-24.1-50.1l-295.4-103.6c-20.3-7.1-42.6,3.6-49.7,23.9l-268.5,765.6
			C2264,1310.3,2274.5,1332.3,2294.6,1339.3z"/>
	</g>
	<path class="st1" d="M2484.2,934.9c20.5-58.4,84.5-89.2,142.9-68.7c58.4,20.5,89.2,84.5,68.7,142.9
		c-20.5,58.4-84.5,89.2-142.9,68.7S2463.8,993.3,2484.2,934.9z"/>
</g>
<g>
	<path class="st3" d="M1224.5,1156.1v144.6c0,27.7-22.7,50.3-50.3,50.3h-103.6c-27.6,0-50.3-22.7-50.3-50.3v-144.6
		c0-27.7,22.7-50.3,50.3-50.3h103.6C1201.8,1105.8,1224.5,1128.5,1224.5,1156.1z"/>
	<path class="st4" d="M1224.5,1156.1v80.5c0,27.6-22.7,50.3-50.3,50.3h-103.6c-27.6,0-50.3-22.7-50.3-50.3v-80.5
		c0-27.7,22.7-50.3,50.3-50.3h103.6C1201.8,1105.8,1224.5,1128.5,1224.5,1156.1z"/>
	<path class="st3" d="M2372.4,1228.4c0,74-15.1,144.6-42.4,209c-82,193-273.7,329.2-495.5,329.2h-153.8
		c-196.3,0-369.1-106.6-463.1-264.8c-47.6-80.2-75-173.7-75-273.3c0-74,15.1-144.6,42.5-209c82-193,273.7-329.1,495.7-329.1h153.8
		c201.9,0,378.6,112.7,470.6,278.1C2347.9,1045.7,2372.4,1134.4,2372.4,1228.4z"/>
	<path class="st4" d="M2305,968.5c12.7,62,2.7,150.8-13.6,197.7c-108.6,312.3-363.8,368.7-624.7,392.5
		c-185.5,16.9-449.2-57.1-449.2-57.1c-47.6-80.2-75-173.7-75-273.3c0-74,15.1-144.6,42.5-209c82-193,273.7-329.1,495.7-329.1h153.8
		C2036.2,690.4,2213.1,803,2305,968.5z"/>
	<path class="st4" d="M1617.1,825.1h-211.7c-21.3,0-38.7-13-38.7-29V507.3c0-5,1.6-9.4,4.3-13.3c10.4-15,37.6-21.2,57.7-9.7
		c80.4,45.6,212,144.6,226.8,310C1657.2,811,1639.5,825.1,1617.1,825.1z"/>
	<path class="st3" d="M1414,825.1h-8.6c-21.3,0-38.7-13-38.7-29V507.3c0-5,1.6-9.4,4.3-13.3c0.9,0.8,1.8,1.7,2.6,2.6
		c46,51.2,112.2,151.7,93.6,292.5C1464.6,809.6,1441.6,825.1,1414,825.1z"/>
	<path class="st5" d="M1302.5,1018.3c0-17.4,14.1-31.6,31.6-31.6c17.5,0,31.6,14.1,31.6,31.6c0,17.5-14.1,31.6-31.6,31.6
		C1316.6,1049.9,1302.5,1035.8,1302.5,1018.3z"/>
	<path class="st3" d="M1925.4,1538.1l-50.2,325.9c-6.7,25.3,12.4,50,38.5,50h131.8c28.3,0,54.1-15.8,67.1-40.9l205-408.9
		L1925.4,1538.1z"/>
	<path class="st3" d="M1625,1543.6l40.3,320.3c6.7,25.3-12.4,50-38.5,50H1495c-28.3,0-54.1-15.8-67.1-40.9l-210.3-371.4L1625,1543.6
		z"/>
	<g>
		<path class="st3" d="M2500.6,1374.7c-3,0-6.1-0.3-9.1-1.2c-23.3-6.2-36.8-34.1-35-72.9c1.8-38,17.7-78.2,43.6-110.2
			c11.5-14.2,24.7-26.5,39.6-37c-7-11.5-16.5-22.6-29.1-32c-21.5-16.1-43.9-20.9-68.1-14.2c-65.2,17.7-120.4,110.9-125,121.3
			c-2,5.6-8.1,8.6-13.9,6.7c-5.8-1.9-8.9-8.1-7-14c1.9-5.9,18-33.6,40.6-61.2c39.2-48,73.4-66.2,95.3-73.1c32.3-10,63-4.5,91.2,16.7
			c14,10.5,25.6,23.2,34.5,37.9c22.3-12.5,47.6-21.1,75-25.6c6-1,11.7,3,12.6,9.1c0.9,6.1-3,11.7-9.1,12.6
			c-25.1,4.2-48.3,12.1-68.6,23.6c6.2,15.1,10.3,31.7,11.7,49.6c3.2,36.9-4.2,77.3-20.3,110.6
			C2543.5,1355.5,2521.8,1374.7,2500.6,1374.7z M2549.6,1173.6c-12,8.8-22.8,19.2-32.3,30.8c-23,28.4-37.2,63.8-38.8,97.3
			c-1.2,26.5,6.3,47.3,18.5,50.5c12.3,3.3,30-13.3,43-40.1c14.2-29.4,21.1-66.4,18.3-99.1
			C2557.3,1201.2,2554.9,1187.5,2549.6,1173.6z M2317.8,1228.2c0,0.1,0,0.1-0.1,0.2C2317.7,1228.3,2317.8,1228.3,2317.8,1228.2z"/>
	</g>
</g>
<g>
	<g>
		<path class="st6" d="M1608.1,1874.4v21c0,1.7-0.6,3.3-1.7,4.5c-1.1,1.4-2.7,2.5-4.5,3c-0.6,0.2-1.1,0.3-1.8,0.5
			c-0.6,0.1-1.1,0.1-1.7,0.1h-398.1c-4.8,0-8.8-3-9.6-6.9c0-0.2-0.1-0.6-0.1-0.8c0-0.1,0-0.2,0-0.5v-21c0-0.1,0-0.2,0-0.5
			s0-0.6,0.1-0.8c0.7-3.8,4.7-6.9,9.6-6.9h398.1c0.6,0,1.1,0,1.7,0.1c0.6,0.1,1.2,0.2,1.8,0.5c1.8,0.6,3.4,1.7,4.5,3
			C1607.6,1871.1,1608.1,1872.7,1608.1,1874.4z"/>
		<path class="st7" d="M1412.7,1903.5h-213.3c-3.9,0-7.3-2.6-8.2-6c-0.1-0.3-0.2-0.6-0.2-0.9c0-0.2-0.1-0.6-0.1-0.8
			c0-0.1,0-0.2,0-0.5v-21c0-0.1,0-0.2,0-0.5s0-0.6,0.1-0.8c0.1-0.3,0.1-0.6,0.2-0.9c1-3.4,4.3-6,8.2-6h187.1
			C1389.5,1877.2,1396.4,1892.3,1412.7,1903.5z"/>
		<g>
			<rect x="1555.1" y="1866.3" class="st7" width="4.5" height="37.2"/>
			<rect x="1539.9" y="1866.3" class="st7" width="4.5" height="37.2"/>
			<rect x="1521.5" y="1866.3" class="st7" width="4.5" height="37.2"/>
			<rect x="1493.3" y="1866.3" class="st7" width="4.5" height="37.2"/>
			<rect x="1463.5" y="1866.3" class="st7" width="4.5" height="37.2"/>
			<rect x="1418" y="1866.3" class="st7" width="4.5" height="37.2"/>
			<rect x="1375.2" y="1866.3" class="st7" width="4.5" height="37.2"/>
			<rect x="1337" y="1866.3" class="st7" width="4.5" height="37.2"/>
			<rect x="1569.8" y="1866.3" class="st7" width="4.5" height="37.2"/>
			<rect x="1579.4" y="1866.3" class="st7" width="4.5" height="37.2"/>
			<rect x="1588.7" y="1866.3" class="st7" width="4.5" height="37.2"/>
			<path class="st7" d="M1600.2,1866.4v36.9c-0.6,0.1-1.1,0.1-1.7,0.1h-2.8v-37.2h2.8C1599.1,1866.3,1599.7,1866.3,1600.2,1866.4z"
				/>
			<path class="st7" d="M1606.4,1869.9v30c-1.1,1.4-2.7,2.5-4.5,3v-36.1C1603.8,1867.4,1605.4,1868.5,1606.4,1869.9z"/>
		</g>
	</g>
	<g>
		<path class="st6" d="M1565.6,1837.2v21c0,1.7-0.6,3.3-1.7,4.5c-0.2,0.3-0.6,0.7-0.9,0.9c-1,0.9-2.3,1.6-3.6,2
			c-0.6,0.2-1.1,0.3-1.8,0.5c-0.6,0.1-1.1,0.1-1.7,0.1h-398.1c-4.8,0-8.8-3-9.5-6.9c0-0.2-0.1-0.6-0.1-0.8c0-0.1,0-0.2,0-0.5v-21
			c0-0.1,0-0.3,0-0.5c0-0.2,0-0.6,0.1-0.8c0.7-3.8,4.7-6.9,9.5-6.9h398.1c0.2,0,0.5,0,0.8,0c0.1,0,0.2,0,0.2,0l0,0
			c0.1,0,0.2,0,0.3,0c0.1,0,0.1,0,0.2,0c0.6,0.1,1.2,0.2,1.8,0.5c0.3,0.1,0.7,0.2,1,0.3l0,0c0.2,0.1,0.5,0.2,0.7,0.3
			c0.1,0.1,0.2,0.1,0.3,0.2c0.1,0.1,0.2,0.1,0.3,0.2c0.5,0.2,0.8,0.6,1.1,0.9c0.1,0.1,0.2,0.2,0.3,0.3c0.1,0.1,0.1,0.1,0.2,0.2
			l0.1,0.1l0.1,0.1c0.1,0.1,0.2,0.2,0.3,0.5C1564.9,1834,1565.6,1835.5,1565.6,1837.2z"/>
		<path class="st7" d="M1370.1,1866.3h-213.3c-3.9,0-7.2-2.6-8.2-6c-0.1-0.3-0.2-0.6-0.2-0.9c0-0.2-0.1-0.6-0.1-0.8
			c0-0.1,0-0.2,0-0.5v-21c0-0.1,0-0.3,0-0.5c0-0.2,0-0.6,0.1-0.8c0.1-0.3,0.1-0.6,0.2-0.9c1-3.5,4.3-6,8.2-6h187.1
			c0.1,0.3,0.1,0.6,0.2,0.9C1347.3,1840.9,1354.3,1855.4,1370.1,1866.3z"/>
		<g>
			<rect x="1512.6" y="1829.2" class="st7" width="4.5" height="37.1"/>
			<rect x="1497.3" y="1829.2" class="st7" width="4.5" height="37.1"/>
			<rect x="1478.9" y="1829.2" class="st7" width="4.5" height="37.1"/>
			<rect x="1450.8" y="1829.2" class="st7" width="4.5" height="37.1"/>
			<rect x="1421" y="1829.2" class="st7" width="4.5" height="37.1"/>
			<rect x="1375.4" y="1829.2" class="st7" width="4.5" height="37.1"/>
			<rect x="1332.6" y="1829.2" class="st7" width="4.5" height="37.1"/>
			<rect x="1294.5" y="1829.2" class="st7" width="4.5" height="37.1"/>
			<rect x="1527.2" y="1829.2" class="st7" width="4.5" height="37.1"/>
			<rect x="1536.9" y="1829.2" class="st7" width="4.5" height="37.1"/>
			<rect x="1546.1" y="1829.2" class="st7" width="4.5" height="37.1"/>
			<path class="st7" d="M1557.6,1829.3v36.9c-0.6,0.1-1.1,0.1-1.7,0.1h-2.8v-37.1h2.8C1556.5,1829.2,1557,1829.2,1557.6,1829.3z"/>
			<path class="st7" d="M1563.9,1832.7v30c-1.1,1.4-2.7,2.5-4.5,3v-36.1C1561.2,1830.3,1562.8,1831.3,1563.9,1832.7z"/>
		</g>
	</g>
	<g>
		<path class="st6" d="M1586.1,1801v21c0,1.7-0.6,3.3-1.7,4.5c-1.1,1.4-2.7,2.5-4.5,3c-0.6,0.2-1.1,0.3-1.8,0.5
			c-0.6,0.1-1.1,0.1-1.7,0.1h-398.1c-1.6,0-3.2-0.3-4.4-0.9c-2.6-1.1-4.6-3.3-5.1-5.9c0-0.2,0-0.3-0.1-0.6c0-0.1,0-0.2,0-0.3
			s0-0.2,0-0.5v-21c0-0.1,0-0.2,0-0.5s0-0.6,0.1-0.8c0.7-3.8,4.7-6.9,9.5-6.9h398.1c0.6,0,1.1,0,1.7,0.1s1.2,0.2,1.8,0.5
			c1.8,0.6,3.4,1.7,4.5,3C1585.6,1797.7,1586.1,1799.3,1586.1,1801z"/>
		<path class="st7" d="M1390.7,1830.1h-213.3c-1.5,0-2.8-0.3-3.9-0.9c-2.4-1.1-4.1-3.3-4.5-5.9c0-0.2,0-0.3-0.1-0.6
			c0-0.1,0-0.2,0-0.3s0-0.2,0-0.5v-21c0-0.1,0-0.2,0-0.5s0-0.6,0.1-0.8c0.1-0.3,0.1-0.6,0.2-0.9c1-3.5,4.3-6,8.2-6h187.1
			c2.9,10.6,9.6,25.3,24.9,36.2C1389.8,1829.4,1390.2,1829.7,1390.7,1830.1z"/>
		<g>
			<rect x="1533.1" y="1792.9" class="st7" width="4.5" height="37.1"/>
			<rect x="1517.9" y="1792.9" class="st7" width="4.5" height="37.1"/>
			<rect x="1499.5" y="1792.9" class="st7" width="4.5" height="37.1"/>
			<rect x="1471.3" y="1792.9" class="st7" width="4.5" height="37.1"/>
			<rect x="1441.6" y="1792.9" class="st7" width="4.5" height="37.1"/>
			<rect x="1396" y="1792.9" class="st7" width="4.5" height="37.1"/>
			<rect x="1353.3" y="1792.9" class="st7" width="4.5" height="37.1"/>
			<rect x="1315" y="1792.9" class="st7" width="4.5" height="37.1"/>
			<rect x="1547.8" y="1792.9" class="st7" width="4.5" height="37.1"/>
			<rect x="1557.4" y="1792.9" class="st7" width="4.5" height="37.1"/>
			<rect x="1566.7" y="1792.9" class="st7" width="4.5" height="37.1"/>
			<path class="st7" d="M1578.2,1793v36.9c-0.6,0.1-1.1,0.1-1.7,0.1h-2.8v-37.1h2.8C1577.1,1792.9,1577.7,1793,1578.2,1793z"/>
			<path class="st7" d="M1584.4,1796.5v30c-1.1,1.4-2.7,2.5-4.5,3v-36.1C1581.8,1794,1583.4,1795.1,1584.4,1796.5z"/>
		</g>
	</g>
	<g>
		<path class="st6" d="M1595.7,1763.8v21c0,1.7-0.6,3.3-1.7,4.5c-0.1,0.2-0.3,0.3-0.5,0.5c-0.8,0.8-1.7,1.5-2.7,2
			c-0.5,0.2-0.9,0.3-1.4,0.6c-0.6,0.2-1.1,0.3-1.8,0.5c-0.2,0-0.6,0.1-0.8,0.1s-0.6,0-0.9,0h-398.1c-4.8,0-8.8-3-9.6-6.9
			c0-0.2-0.1-0.6-0.1-0.8v-21.8c0.2-3.9,3.8-7.1,8.5-7.7c0.3,0,0.8-0.1,1.1-0.1h398.1c0.3,0,0.6,0,0.9,0s0.6,0,0.8,0.1
			c0.6,0.1,1.2,0.2,1.8,0.5c1.8,0.6,3.4,1.7,4.5,3S1595.7,1762.1,1595.7,1763.8z"/>
		<path class="st7" d="M1400.2,1792.9h-213.3c-3.9,0-7.3-2.6-8.2-6c-0.1-0.3-0.2-0.6-0.2-0.9c0-0.2-0.1-0.6-0.1-0.8v-21.8
			c0.2-3.9,3.5-7.1,7.6-7.7c0.3,0,0.7-0.1,1-0.1H1374c0,0,0,0,0,0.1C1377,1766.7,1383.9,1781.8,1400.2,1792.9z"/>
		<g>
			<rect x="1542.7" y="1755.8" class="st7" width="4.5" height="37.1"/>
			<rect x="1527.4" y="1755.8" class="st7" width="4.5" height="37.1"/>
			<rect x="1509" y="1755.8" class="st7" width="4.5" height="37.1"/>
			<rect x="1480.9" y="1755.8" class="st7" width="4.5" height="37.1"/>
			<rect x="1451.1" y="1755.8" class="st7" width="4.5" height="37.1"/>
			<rect x="1405.5" y="1755.8" class="st7" width="4.5" height="37.1"/>
			<rect x="1362.7" y="1755.8" class="st7" width="4.5" height="37.1"/>
			<rect x="1324.6" y="1755.8" class="st7" width="4.5" height="37.1"/>
			<rect x="1557.3" y="1755.8" class="st7" width="4.5" height="37.1"/>
			<rect x="1567" y="1755.8" class="st7" width="4.5" height="37.1"/>
			<rect x="1576.2" y="1755.8" class="st7" width="4.5" height="37.1"/>
			<path class="st7" d="M1587.7,1755.9v36.9c-0.6,0.1-1.1,0.1-1.7,0.1h-2.8v-37.2h2.8C1586.6,1755.8,1587.1,1755.8,1587.7,1755.9z"
				/>
			<path class="st7" d="M1594,1759.2v30c-1.1,1.4-2.7,2.5-4.5,3v-36.1C1591.3,1756.9,1592.9,1757.9,1594,1759.2z"/>
		</g>
	</g>
	<g>
		<path class="st6" d="M1566.4,1726.7v21c0,1.7-0.6,3.3-1.7,4.5c-1.1,1.4-2.7,2.5-4.5,3c-0.6,0.2-1.1,0.3-1.8,0.5
			c-0.2,0-0.3,0.1-0.6,0.1h-0.1c-0.1,0-0.2,0-0.3,0s-0.1,0-0.2,0c-0.2,0-0.3,0-0.5,0h-398.1c-5.2,0-9.4-3.4-9.6-7.7
			c0-0.1,0-0.2,0-0.5v-21c0-0.1,0-0.3,0-0.5s0-0.2,0-0.3c0.3-3.4,3.4-6.3,7.2-7.1c0.1,0,0.2,0,0.3-0.1c0.7-0.1,1.4-0.2,2-0.2h398.1
			c0.3,0,0.6,0,0.9,0c0.1,0,0.2,0,0.3,0l0,0l0,0c0.1,0,0.3,0,0.5,0.1c0.6,0.1,1.2,0.2,1.8,0.5c1.8,0.6,3.4,1.7,4.5,3
			C1565.8,1723.5,1566.4,1725,1566.4,1726.7z"/>
		<path class="st7" d="M1371,1755.8h-213.3c-4.6,0-8.3-3.4-8.6-7.7c0-0.1,0-0.2,0-0.5v-21c0-0.1,0-0.3,0-0.5s0-0.2,0-0.3
			c0.3-3.5,3.2-6.4,6.7-7.1c0.1,0,0.2-0.1,0.3-0.1c0.5-0.1,1-0.1,1.6-0.1h187.1c0,0.1,0,0.2,0.1,0.2
			C1347.8,1729.7,1354.7,1744.7,1371,1755.8C1370.8,1755.8,1370.8,1755.8,1371,1755.8z"/>
		<g>
			<rect x="1513.4" y="1718.6" class="st7" width="4.5" height="37.1"/>
			<rect x="1498.2" y="1718.6" class="st7" width="4.5" height="37.1"/>
			<rect x="1479.8" y="1718.6" class="st7" width="4.5" height="37.1"/>
			<rect x="1451.6" y="1718.6" class="st7" width="4.5" height="37.1"/>
			<rect x="1421.8" y="1718.6" class="st7" width="4.5" height="37.1"/>
			<rect x="1376.3" y="1718.6" class="st7" width="4.5" height="37.1"/>
			<rect x="1333.5" y="1718.6" class="st7" width="4.5" height="37.1"/>
			<rect x="1295.3" y="1718.6" class="st7" width="4.5" height="37.1"/>
			<rect x="1528.1" y="1718.6" class="st7" width="4.5" height="37.1"/>
			<rect x="1537.6" y="1718.6" class="st7" width="4.5" height="37.1"/>
			<rect x="1547" y="1718.6" class="st7" width="4.5" height="37.1"/>
			<path class="st7" d="M1558.5,1718.8v36.9c-0.6,0.1-1.1,0.1-1.7,0.1h-2.8v-37.2h2.8C1557.4,1718.6,1557.9,1718.6,1558.5,1718.8z"
				/>
			<path class="st7" d="M1564.7,1722.1v30c-1.1,1.4-2.7,2.5-4.5,3v-36.1C1562.1,1719.8,1563.7,1720.8,1564.7,1722.1z"/>
		</g>
	</g>
	<g>
		<path class="st6" d="M1565.6,1689.8v21c0,1.7-0.6,3.3-1.7,4.5c-0.2,0.3-0.6,0.7-0.9,1c-1,0.9-2.3,1.6-3.6,2
			c-0.5,0.1-0.9,0.2-1.4,0.3l0,0l0,0c-0.1,0-0.2,0-0.3,0.1c-0.6,0.1-1.1,0.1-1.7,0.1h-398.1c-0.5,0-0.8,0-1.2-0.1
			c-0.1,0-0.3,0-0.5-0.1c-4.1-0.7-7.2-3.4-7.8-6.9c0-0.2-0.1-0.5-0.1-0.7c0-0.1,0-0.3,0-0.5v-21c0-0.1,0-0.3,0-0.5
			c0-0.2,0-0.6,0.1-0.8c0.7-3.8,4.7-6.9,9.5-6.9H1556c0.2,0,0.5,0,0.8,0h0.1c0.1,0,0.1,0,0.2,0s0.2,0,0.3,0c0.1,0,0.1,0,0.2,0
			c0.6,0.1,1.2,0.2,1.8,0.5c0.3,0.1,0.7,0.2,1,0.3l0,0c1.2,0.6,2.4,1.4,3.2,2.3c0.1,0.1,0.2,0.2,0.3,0.5
			C1564.9,1686.5,1565.6,1688.1,1565.6,1689.8z"/>
		<path class="st7" d="M1370.1,1718.9h-213.3c-0.1,0-0.3,0-0.5,0c-0.2,0-0.3,0-0.6,0c-3.8-0.5-7-3.3-7.4-6.9c0-0.2-0.1-0.5-0.1-0.7
			c0-0.1,0-0.3,0-0.5v-21c0-0.1,0-0.3,0-0.5c0-0.2,0-0.6,0.1-0.8c0.1-0.3,0.1-0.6,0.2-0.9c1-3.5,4.3-6,8.2-6h187.1
			c0.1,0.3,0.1,0.6,0.2,0.9c3.2,10.8,10,25.3,25.6,36C1369.8,1718.6,1369.9,1718.8,1370.1,1718.9z"/>
		<g>
			<rect x="1512.6" y="1681.7" class="st7" width="4.5" height="37.1"/>
			<rect x="1497.3" y="1681.7" class="st7" width="4.5" height="37.1"/>
			<rect x="1478.9" y="1681.7" class="st7" width="4.5" height="37.1"/>
			<rect x="1450.8" y="1681.7" class="st7" width="4.5" height="37.1"/>
			<rect x="1421" y="1681.7" class="st7" width="4.5" height="37.1"/>
			<rect x="1375.4" y="1681.7" class="st7" width="4.5" height="37.1"/>
			<rect x="1332.6" y="1681.7" class="st7" width="4.5" height="37.1"/>
			<rect x="1294.5" y="1681.7" class="st7" width="4.5" height="37.1"/>
			<rect x="1527.2" y="1681.7" class="st7" width="4.5" height="37.1"/>
			<rect x="1536.9" y="1681.7" class="st7" width="4.5" height="37.1"/>
			<rect x="1546.1" y="1681.7" class="st7" width="4.5" height="37.1"/>
			<path class="st7" d="M1557.6,1681.8v36.9c-0.6,0.1-1.1,0.1-1.7,0.1h-2.8v-37.1h2.8C1556.5,1681.7,1557,1681.8,1557.6,1681.8z"/>
			<path class="st7" d="M1563.9,1685.3v30c-1.1,1.4-2.7,2.5-4.5,3v-36.1C1561.2,1682.8,1562.8,1683.9,1563.9,1685.3z"/>
		</g>
	</g>
	<g>
		<path class="st6" d="M1586.1,1653.6v21c0,1.7-0.6,3.3-1.7,4.5c-1.1,1.4-2.7,2.5-4.5,3c-0.6,0.2-1.1,0.3-1.8,0.5
			c-0.6,0.1-1.1,0.1-1.7,0.1h-398.1c-1.6,0-3.2-0.3-4.4-0.9c-2.6-1.1-4.6-3.3-5.1-5.9c0-0.2,0-0.3-0.1-0.6c0-0.1,0-0.2,0-0.3
			c0-0.1,0-0.2,0-0.5v-21c0-0.1,0-0.3,0-0.5c0-0.2,0-0.6,0.1-0.8c0.7-3.8,4.7-6.9,9.5-6.9h398.1c0.6,0,1.1,0,1.7,0.1
			c0.6,0.1,1.2,0.2,1.8,0.5c1.8,0.6,3.4,1.7,4.5,3C1585.6,1650.3,1586.1,1651.9,1586.1,1653.6z"/>
		<path class="st7" d="M1390.7,1682.6h-213.3c-1.5,0-2.8-0.3-3.9-0.9c-2.4-1.1-4.1-3.3-4.5-5.9c0-0.2,0-0.3-0.1-0.6
			c0-0.1,0-0.2,0-0.3s0-0.2,0-0.5v-21c0-0.1,0-0.3,0-0.5c0-0.2,0-0.6,0.1-0.8c0.1-0.3,0.1-0.6,0.2-0.9c1-3.5,4.3-6,8.2-6h187.1
			c2.9,10.6,9.6,25.3,24.9,36.2C1389.8,1682,1390.2,1682.3,1390.7,1682.6z"/>
		<g>
			<rect x="1533.1" y="1645.5" class="st7" width="4.5" height="37.1"/>
			<rect x="1517.9" y="1645.5" class="st7" width="4.5" height="37.1"/>
			<rect x="1499.5" y="1645.5" class="st7" width="4.5" height="37.1"/>
			<rect x="1471.3" y="1645.5" class="st7" width="4.5" height="37.1"/>
			<rect x="1441.6" y="1645.5" class="st7" width="4.5" height="37.1"/>
			<rect x="1396" y="1645.5" class="st7" width="4.5" height="37.1"/>
			<rect x="1353.3" y="1645.5" class="st7" width="4.5" height="37.1"/>
			<rect x="1315" y="1645.5" class="st7" width="4.5" height="37.1"/>
			<rect x="1547.8" y="1645.5" class="st7" width="4.5" height="37.1"/>
			<rect x="1557.4" y="1645.5" class="st7" width="4.5" height="37.1"/>
			<rect x="1566.7" y="1645.5" class="st7" width="4.5" height="37.1"/>
			<path class="st7" d="M1578.2,1645.6v36.9c-0.6,0.1-1.1,0.1-1.7,0.1h-2.8v-37.1h2.8C1577.1,1645.5,1577.7,1645.5,1578.2,1645.6z"
				/>
			<path class="st7" d="M1584.4,1649.1v30c-1.1,1.4-2.7,2.5-4.5,3V1646C1581.8,1646.6,1583.4,1647.6,1584.4,1649.1z"/>
		</g>
	</g>
	<g>
		<path class="st6" d="M1618.7,1616.4v21c0,1.7-0.6,3.2-1.7,4.5l0,0c-0.1,0.2-0.3,0.3-0.5,0.5c-0.6,0.7-1.4,1.2-2.1,1.7
			c-0.3,0.2-0.8,0.5-1.2,0.6l0,0c-0.2,0.1-0.5,0.2-0.7,0.2c-0.6,0.2-1.1,0.3-1.8,0.5c-0.6,0.1-1.1,0.1-1.7,0.1h-398.1
			c-4.8,0-8.8-3-9.5-6.9c0-0.2-0.1-0.6-0.1-0.8c0-0.1,0-0.2,0-0.5v-21c0-0.1,0-0.2,0-0.5c0.2-3.9,3.8-7.1,8.5-7.7
			c0.3,0,0.8-0.1,1.1-0.1H1609c0.6,0,1.1,0,1.7,0.1c0.6,0.1,1.2,0.2,1.8,0.5c1.6,0.6,3,1.5,4.1,2.5c0.1,0.1,0.3,0.3,0.5,0.5l0,0
			C1618.1,1613.2,1618.7,1614.7,1618.7,1616.4z"/>
		<path class="st7" d="M1423.2,1645.5h-213.3c-3.9,0-7.3-2.6-8.2-6c-0.1-0.3-0.2-0.6-0.2-0.9c0-0.2-0.1-0.6-0.1-0.8
			c0-0.1,0-0.2,0-0.5v-21c0-0.1,0-0.2,0-0.5c0.2-3.9,3.5-7.1,7.6-7.7c0.3,0,0.7-0.1,1-0.1H1397c0,0,0,0,0,0.1
			C1400.1,1619.3,1406.9,1634.4,1423.2,1645.5z"/>
		<g>
			<rect x="1565.7" y="1608.2" class="st7" width="4.5" height="37.1"/>
			<rect x="1550.4" y="1608.2" class="st7" width="4.5" height="37.1"/>
			<rect x="1532" y="1608.2" class="st7" width="4.5" height="37.1"/>
			<rect x="1503.9" y="1608.2" class="st7" width="4.5" height="37.1"/>
			<rect x="1474.1" y="1608.2" class="st7" width="4.5" height="37.1"/>
			<rect x="1428.5" y="1608.2" class="st7" width="4.5" height="37.1"/>
			<rect x="1385.7" y="1608.2" class="st7" width="4.5" height="37.1"/>
			<rect x="1347.6" y="1608.2" class="st7" width="4.5" height="37.1"/>
			<rect x="1580.3" y="1608.2" class="st7" width="4.5" height="37.1"/>
			<rect x="1590" y="1608.2" class="st7" width="4.5" height="37.1"/>
			<rect x="1599.2" y="1608.2" class="st7" width="4.5" height="37.1"/>
			<path class="st7" d="M1610.7,1608.5v36.9c-0.6,0.1-1.1,0.1-1.7,0.1h-2.8v-37.1h2.8C1609.6,1608.2,1610.2,1608.4,1610.7,1608.5z"
				/>
			<path class="st7" d="M1617,1611.8v30c-1.1,1.4-2.7,2.5-4.5,3v-36.1C1614.3,1609.4,1615.9,1610.5,1617,1611.8z"/>
		</g>
	</g>
	<g>
		<path class="st6" d="M1566.4,1579.3v21c0,1.7-0.6,3.3-1.7,4.5c-1.1,1.4-2.7,2.5-4.5,3c-0.6,0.2-1.1,0.3-1.8,0.5
			c-0.2,0-0.3,0-0.6,0.1h-0.1c-0.1,0-0.2,0-0.3,0s-0.1,0-0.2,0c-0.1,0-0.3,0-0.5,0h-398.1c-3.5,0-6.5-1.6-8.2-3.8
			c-0.8-1.1-1.4-2.5-1.5-3.8c0-0.1,0-0.3,0-0.5v-21c0-0.1,0-0.3,0-0.5c0.2-3.5,3-6.3,6.9-7.3c0.9-0.2,1.8-0.3,2.8-0.3h398.1
			c0.2,0,0.3,0,0.5,0c0.1,0,0.2,0,0.2,0c0.3,0,0.7,0,0.9,0.1c0.6,0.1,1.2,0.2,1.8,0.5c0.3,0.1,0.6,0.2,0.8,0.3l0,0
			c1,0.5,2,1,2.8,1.8l0,0l0.1,0.1c0.2,0.2,0.6,0.6,0.8,0.8C1565.8,1576,1566.4,1577.6,1566.4,1579.3z"/>
		<path class="st7" d="M1371,1608.4h-213.3c-3,0-5.6-1.5-7.2-3.7c-0.8-1.1-1.4-2.6-1.5-4.1c0-0.1,0-0.3,0-0.5v-21c0-0.1,0-0.3,0-0.5
			c0.2-3.7,3-6.8,6.9-7.6c0.6-0.1,1.1-0.2,1.7-0.2h187.1c0.1,0.3,0.1,0.6,0.2,0.9C1348.1,1582.9,1355.1,1597.4,1371,1608.4
			C1370.8,1608.2,1370.8,1608.4,1371,1608.4z"/>
		<g>
			<rect x="1513.4" y="1571.1" class="st7" width="4.5" height="37.1"/>
			<rect x="1498.2" y="1571.1" class="st7" width="4.5" height="37.1"/>
			<rect x="1479.8" y="1571.1" class="st7" width="4.5" height="37.1"/>
			<rect x="1451.6" y="1571.1" class="st7" width="4.5" height="37.1"/>
			<rect x="1421.8" y="1571.1" class="st7" width="4.5" height="37.1"/>
			<rect x="1376.3" y="1571.1" class="st7" width="4.5" height="37.1"/>
			<rect x="1333.5" y="1571.1" class="st7" width="4.5" height="37.1"/>
			<rect x="1295.3" y="1571.1" class="st7" width="4.5" height="37.1"/>
			<rect x="1528.1" y="1571.1" class="st7" width="4.5" height="37.1"/>
			<rect x="1537.6" y="1571.1" class="st7" width="4.5" height="37.1"/>
			<rect x="1547" y="1571.1" class="st7" width="4.5" height="37.1"/>
			<path class="st7" d="M1558.5,1571.2v36.9c-0.6,0.1-1.1,0.1-1.7,0.1h-2.8V1571h2.8C1557.4,1571.1,1557.9,1571.2,1558.5,1571.2z"/>
			<path class="st7" d="M1564.7,1574.7v30c-1.1,1.4-2.7,2.5-4.5,3v-36.1C1562.1,1572.3,1563.7,1573.4,1564.7,1574.7z"/>
		</g>
	</g>
	<g>
		<path class="st6" d="M1595.7,1542.9v21c0,1.7-0.6,3.3-1.7,4.5c-1.1,1.4-2.7,2.5-4.5,3c-0.6,0.2-1.1,0.3-1.8,0.5
			c-0.6,0.1-1.1,0.1-1.7,0.1h-398.1c-1.6,0-3-0.3-4.3-0.9c-2.9-1.2-5-3.6-5.3-6.5c0-0.1,0-0.2,0-0.3s0-0.3,0-0.5v-21
			c0-0.1,0-0.3,0-0.5c0.2-3.9,3.8-7.1,8.5-7.7c0.3,0,0.8-0.1,1.1-0.1H1586c0.6,0,1.1,0,1.7,0.1c0.6,0.1,1.2,0.2,1.8,0.5
			c1.8,0.6,3.4,1.7,4.5,3C1595,1539.8,1595.7,1541.3,1595.7,1542.9z"/>
		<path class="st7" d="M1400.2,1572h-213.3c-1.4,0-2.7-0.3-3.8-0.9c-2.6-1.2-4.4-3.6-4.7-6.5c0-0.1,0-0.2,0-0.3c0-0.1,0-0.3,0-0.5
			v-21c0-0.1,0-0.3,0-0.5c0.2-3.9,3.5-7.1,7.6-7.7c0.3,0,0.7-0.1,1-0.1H1374c0,0,0,0,0,0.1c2.9,10.6,9.6,25.3,24.9,36.2
			C1399.4,1571.5,1399.8,1571.7,1400.2,1572z"/>
		<g>
			<rect x="1542.7" y="1534.8" class="st7" width="4.5" height="37.2"/>
			<rect x="1527.4" y="1534.8" class="st7" width="4.5" height="37.2"/>
			<rect x="1509" y="1534.8" class="st7" width="4.5" height="37.2"/>
			<rect x="1480.9" y="1534.8" class="st7" width="4.5" height="37.2"/>
			<rect x="1451.1" y="1534.8" class="st7" width="4.5" height="37.2"/>
			<rect x="1405.5" y="1534.8" class="st7" width="4.5" height="37.2"/>
			<rect x="1362.7" y="1534.8" class="st7" width="4.5" height="37.2"/>
			<rect x="1324.6" y="1534.8" class="st7" width="4.5" height="37.2"/>
			<rect x="1557.3" y="1534.8" class="st7" width="4.5" height="37.2"/>
			<rect x="1567" y="1534.8" class="st7" width="4.5" height="37.2"/>
			<rect x="1576.2" y="1534.8" class="st7" width="4.5" height="37.2"/>
			<path class="st7" d="M1587.7,1534.9v36.9c-0.6,0.1-1.1,0.1-1.7,0.1h-2.8v-37.2h2.8C1586.6,1534.8,1587.1,1534.9,1587.7,1534.9z"
				/>
			<path class="st7" d="M1594,1538.4v30c-1.1,1.4-2.7,2.5-4.5,3v-36.1C1591.3,1536,1592.9,1537.1,1594,1538.4z"/>
		</g>
	</g>
	<g>
		<path class="st6" d="M1608.1,1505.8v21c0,1.7-0.6,3.3-1.7,4.5c-1.1,1.4-2.7,2.5-4.5,3c-0.6,0.2-1.1,0.3-1.8,0.5
			c-0.2,0-0.3,0.1-0.6,0.1c-0.1,0-0.2,0-0.3,0c-0.1,0-0.2,0-0.3,0c-0.2,0-0.3,0-0.5,0h-398.1c-5.2,0-9.4-3.4-9.6-7.7
			c0-0.1,0-0.3,0-0.5v-21c0-0.1,0-0.3,0-0.5c0.2-4.3,4.5-7.7,9.6-7.7h398.1c0.6,0,1.1,0,1.7,0.1c0.6,0.1,1.2,0.2,1.8,0.5
			c1.8,0.6,3.4,1.7,4.5,3C1607.6,1502.7,1608.1,1504.1,1608.1,1505.8z"/>
		<path class="st7" d="M1412.7,1534.9h-213.3c-4.6,0-8.3-3.4-8.6-7.7c0-0.1,0-0.3,0-0.5v-21c0-0.1,0-0.3,0-0.5
			c0.2-4.3,4.1-7.7,8.6-7.7h187.1C1389.5,1508.7,1396.4,1523.8,1412.7,1534.9C1412.6,1534.8,1412.6,1534.9,1412.7,1534.9z"/>
		<g>
			<rect x="1555.1" y="1497.7" class="st7" width="4.5" height="37.1"/>
			<rect x="1539.9" y="1497.7" class="st7" width="4.5" height="37.1"/>
			<rect x="1521.5" y="1497.7" class="st7" width="4.5" height="37.1"/>
			<rect x="1493.3" y="1497.7" class="st7" width="4.5" height="37.1"/>
			<rect x="1463.5" y="1497.7" class="st7" width="4.5" height="37.1"/>
			<rect x="1418" y="1497.7" class="st7" width="4.5" height="37.1"/>
			<rect x="1375.2" y="1497.7" class="st7" width="4.5" height="37.1"/>
			<rect x="1337" y="1497.7" class="st7" width="4.5" height="37.1"/>
			<rect x="1569.8" y="1497.7" class="st7" width="4.5" height="37.1"/>
			<rect x="1579.4" y="1497.7" class="st7" width="4.5" height="37.1"/>
			<rect x="1588.7" y="1497.7" class="st7" width="4.5" height="37.1"/>
			<path class="st7" d="M1600.2,1497.9v36.9c-0.6,0.1-1.1,0.1-1.7,0.1h-2.8v-37.1h2.8C1599.1,1497.7,1599.7,1497.8,1600.2,1497.9z"
				/>
			<path class="st7" d="M1606.4,1501.3v30c-1.1,1.4-2.7,2.5-4.5,3v-36.1C1603.8,1498.8,1605.4,1500,1606.4,1501.3z"/>
		</g>
	</g>
</g>
<g>
	<path class="st8" d="M1481.9,1285.9c0,0-20.9,29.4-40,29.9c-19.2,0.5-48.4-13.6-48.4-13.6s-17.6-39.2-5.6-54.6c0,0,12-5.3,24.5,4.1
		c2.1,1.6,4.3,3.6,6.5,6.2c3,3.6,6.4,5.8,10,6.9c13.6,4.2,29.9-5.6,36,3.8c3.6,5.5,7.4,9.6,10.6,12.5
		C1479.2,1284.3,1481.9,1285.9,1481.9,1285.9z"/>
	<path class="st8" d="M1209.3,1498.3c0,0,73.9-179.1,206.9-182.5c0,0,122.8,13.6,129.6,182.5H1209.3L1209.3,1498.3z"/>
	<path class="st9" d="M1379.9,1321.2c0,0,53.3,11.8,69.8,4.8c0,0,2.5-22.3-20-19.2c-15.3,2.1-25.4-5.3-31.2-8.2
		C1390,1294.5,1377.6,1312,1379.9,1321.2z"/>
	<path class="st10" d="M1426.2,1287.7c-3.4,2.6-13.9-36.1-13.9-36.1c2.1,1.6,4.3,3.6,6.5,6.2c3,3.6,6.4,5.8,10,6.9
		C1428.9,1265.7,1429.6,1285.1,1426.2,1287.7z"/>
	<path class="st10" d="M1475.5,1281c-0.8,0.5-25.4,15.2-28.8,15.2s18.2-27.7,18.2-27.7C1468.4,1274,1472.2,1278.1,1475.5,1281z"/>
	<path class="st11" d="M1281.5,1448.3c-1.4-1.1,52.3-79.1,67.1-79.6c14.8-0.6,48,17,72.1,19.3c24,2.3,47.4-4.5,51.9,9.7
		c4.5,14.2,17,64.6,9.4,72.6C1474.3,1478.4,1311.1,1473.5,1281.5,1448.3z"/>
</g>
<g>
	<path class="st6" d="M1801.4,794.6c-3.4,2.6-7,5.1-10.7,7.3c-1.5,0.9-2.9,1.7-4.4,2.6c-3.8,2.1-7.7,3.9-11.6,5.6
		c-1.1-0.2-2.3-0.3-3.4-0.6c-7.1-1.2-14.2-2.3-21.2-3.3c-3.5-0.5-6.9-1-10.3-1.5c-14.2-1.9-27.9-3.4-40.9-4.6
		c-3.5-0.3-7-0.7-10.4-0.9c-2.7-0.2-5.3-0.5-8-0.6c-6.4-0.5-12.6-0.9-18.6-1.2c-8.3-6-16.1-13.1-22.8-21.2
		c-4.4-5.4-8.5-11.4-12-17.7c-31.2-56.6-10.6-127.8,46-159c1.5-0.8,3-1.6,4.5-2.4c55.8-27.7,124.2-6.8,154.5,48.4
		C1860.5,696.8,1846.3,759.9,1801.4,794.6z"/>
	<g>
		<path class="st7" d="M1822.3,652.6c-28-50.6-91.8-69.1-142.4-41.3c-34.6,19.1-54.2,55-54.2,92c0,17.1,4.2,34.4,13.1,50.5
			c4.7,8.7,10.6,16.4,17.3,23.1c9.5,9.6,20.8,17.1,32.8,22.4c3.4,0.2,6.9,0.6,10.4,0.9c-14.3-4.6-27.7-12.4-38.9-23.1
			c-7.4-7-13.9-15.2-19.1-24.7c-27.2-49.3-9.1-111.4,40.1-138.6c49.3-27.2,111.4-9.1,138.6,40c26.6,48.4,9.8,109.2-37.3,137
			c-0.9,0.6-1.8,1-2.7,1.6c-12.7,7-26.3,11.1-39.8,12.3c3.4,0.5,6.8,0.9,10.3,1.5c10.6-2,21.1-5.8,31-11.2c1.9-1,3.7-2.1,5.5-3.3
			C1833,762.4,1849.1,701.4,1822.3,652.6z"/>
	</g>
	<g>
		<path class="st7" d="M1781.9,713.5c-2-5-4.6-8.9-7.8-11.8c-3.2-2.9-7-5.1-11.2-6.5c-4.3-1.5-9-2.4-14.2-2.7
			c-5.2-0.3-10.9-0.3-17-0.2c-3.8,0.1-7,0-9.7-0.2s-5-0.8-6.9-1.5c-1.9-0.8-3.4-1.8-4.6-3.2c-1.1-1.4-2.1-2.9-2.9-4.8
			c-0.8-1.9-1.2-3.7-1.4-5.6c-0.1-1.8,0.1-3.6,0.8-5.3s1.8-3.2,3.3-4.6c1.5-1.5,3.5-2.6,6-3.6c4.6-1.8,8.8-1.8,12.7,0.1
			c3.9,1.9,7.2,6,9.7,12.1l23.8-9.7c-2-5.1-4.7-9.5-7.8-13c-3.2-3.5-6.7-6.2-10.6-8.1c-3.9-1.9-8.2-3-12.7-3.4
			c-4.5-0.3-9.4,0.1-14.4,1.5l-6.8-16.6l-13.2,5.4l6.7,16.4c-4.7,2.5-8.8,5.3-12.1,8.7c-3.3,3.3-5.9,6.8-7.7,10.6
			c-1.8,3.8-2.7,7.8-2.8,12.1c-0.1,4.3,0.8,8.5,2.5,12.9c2,5,4.6,9,7.9,11.8c3.2,2.9,6.9,5.1,11.2,6.5c4.3,1.5,8.9,2.3,14.2,2.6
			c5.3,0.3,10.9,0.2,17.1,0c3.6-0.2,6.7-0.2,9.4,0.1c2.6,0.2,4.8,0.8,6.8,1.5c1.9,0.8,3.5,1.8,4.7,3.3c1.2,1.4,2.4,3.2,3.2,5.3
			c0.8,1.9,1.1,3.7,1.1,5.6c0,1.9-0.5,3.7-1.2,5.4c-0.9,1.7-2.1,3.3-3.7,4.7c-1.7,1.5-3.8,2.7-6.4,3.7c-2.3,0.9-4.6,1.5-7,1.8
			c-2.4,0.3-4.7,0.1-7.1-0.7c-2.3-0.8-4.4-2.1-6.4-4.2c-2-2-3.7-4.8-5.2-8.5l-23.9,9.7c2.5,6.1,5.6,11.1,9.4,14.5
			c3.7,3.6,7.9,6.2,12.3,7.7c4.5,1.6,9.1,2.3,14,2c4.8-0.2,9.7-1,14.4-2.4l6.2,15.2l13.1-5.3l-6.2-15.2c4.7-2.5,8.8-5.3,12.3-8.6
			c3.4-3.3,6-6.8,7.8-10.5c1.8-3.7,2.7-7.8,2.9-12C1784.6,722.3,1783.8,718,1781.9,713.5z"/>
	</g>
</g>
<path class="st12" d="M1322.6,1766.9c-21.2,61.5-74.2,107.5-131.8,123.8v-16.4c0-0.1,0-0.2,0-0.5s0-0.6,0.1-0.8
	c0.1-0.3,0.1-0.6,0.2-0.9c1-3.4,4.3-6,8.2-6h-42.6c-3.9,0-7.2-2.6-8.2-6c-0.1-0.3-0.2-0.6-0.2-0.9c0-0.2-0.1-0.6-0.1-0.8
	c0-0.1,0-0.2,0-0.5v-21c0-0.1,0-0.3,0-0.5c0-0.2,0-0.6,0.1-0.8c0.1-0.3,0.1-0.6,0.2-0.9c1-3.5,4.3-6,8.2-6h16.6
	c-2.4-1.1-4.1-3.3-4.5-5.9c0-0.2,0-0.3-0.1-0.6c0-0.1,0-0.2,0-0.3c0-0.1,0-0.2,0-0.5v-21c0-0.1,0-0.2,0-0.5s0-0.6,0.1-0.8
	c0.1-0.3,0.1-0.6,0.2-0.9c1-3.5,4.3-6,8.2-6h9.6c-3.9,0-7.3-2.6-8.2-6c-0.1-0.3-0.2-0.6-0.2-0.9c0-0.2-0.1-0.6-0.1-0.8v-21.7
	c0.2-3.9,3.5-7.1,7.6-7.7h-28.2c-4.6,0-8.3-3.4-8.6-7.7c0-0.1,0-0.2,0-0.5v-21c0-0.1,0-0.3,0-0.5s0-0.2,0-0.3
	c0.3-3.5,3.2-6.4,6.7-7.1c-3.8-0.5-7-3.3-7.4-6.9c0-0.2-0.1-0.5-0.1-0.7c0-0.1,0-0.3,0-0.5v-21c0-0.1,0-0.3,0-0.5
	c0-0.2,0-0.6,0.1-0.8c0.1-0.3,0.1-0.6,0.2-0.9c1-3.5,4.3-6,8.2-6h16.6c-2.4-1.1-4.1-3.3-4.5-5.9c0-0.2,0-0.3-0.1-0.6
	c0-0.1,0-0.2,0-0.3c0-0.1,0-0.2,0-0.5v-21c0-0.1,0-0.3,0-0.5c0-0.2,0-0.6,0.1-0.8c0.1-0.3,0.1-0.6,0.2-0.9c1-3.5,4.3-6,8.2-6h32.5
	c-3.9,0-7.3-2.6-8.2-6c-0.1-0.3-0.2-0.6-0.2-0.9c0-0.2-0.1-0.6-0.1-0.8c0-0.1,0-0.2,0-0.5v-21c0-0.1,0-0.2,0-0.5
	c0.2-3.9,3.5-7.1,7.6-7.7h-51.2c-3,0-5.6-1.5-7.2-3.7v-0.2l5.4-32.9v-0.2l7.7-47c89.7,12,156.9,80,167.4,162.1
	C1334.3,1713.1,1331.6,1740.8,1322.6,1766.9z"/>
<ellipse class="st13" cx="1092.3" cy="1699.4" rx="195.8" ry="195.8"/>
<path class="st6" d="M1179.2,1874.8c-2.4,1.5-4.8,2.9-7.3,4.3c-0.9,0.5-1.7,0.9-2.6,1.4c-1.9,1-3.8,2-5.9,3
	c-93.3,45.8-206.9,10.6-257.7-81.3c-48.4-87.7-22.3-196.3,57-253.4c6.3-4.5,13-8.8,20-12.6c2.5-1.4,5.1-2.7,7.6-3.9s5-2.4,7.4-3.5
	c7.7-3.4,15.5-6.3,23.3-8.7c11.7-3.5,23.6-5.9,35.4-7.1c36.9-3.9,74,2.8,106.9,18.9c35,17,65.1,44.7,85.3,81.3
	C1299.7,1705.3,1268.4,1820.7,1179.2,1874.8z"/>
<g>
	<path class="st7" d="M1078.8,1885.2c-16.4,0-32.8-2.4-49.1-7c-45-13.1-82.3-42.7-104.9-83.8s-28-88.4-14.9-133.4
		c13-45,42.9-82.2,83.8-104.9c84.7-46.7,191.6-15.8,238.3,68.9c46.7,84.7,15.8,191.6-68.9,238.3
		C1136.9,1877.8,1108,1885.2,1078.8,1885.2z M1078.2,1539c-27.9,0-56,6.8-82.1,21.2c-39.9,22-68.9,58.3-81.5,102.1
		s-7.6,89.9,14.4,129.9c22,39.9,58.3,68.9,102.1,81.5c43.8,12.6,89.9,7.6,129.9-14.4c82.4-45.4,112.6-149.5,67.1-232
		C1196.9,1570.9,1138.4,1539,1078.2,1539z"/>
</g>
<g>
	<path class="st7" d="M1164.8,1726.8c-0.3-1-0.8-1.9-1.2-2.8c-3.2-7-7.1-12.6-11.8-17c-5.4-4.8-11.6-8.6-18.7-11.1
		c-7.1-2.5-15-3.9-23.8-4.5c-8.8-0.6-18.3-0.7-28.5-0.3c-6.3,0.2-11.8,0.1-16.4-0.3c-4.5-0.5-8.3-1.2-11.5-2.5s-5.6-3-7.7-5.2
		c-1.9-2.1-3.6-4.8-4.8-8c-1.2-3.2-2-6.3-2.3-9.4c-0.2-3.2,0.2-6.1,1.4-8.8c1.1-2.8,2.9-5.4,5.4-7.8s5.9-4.4,10-6.1
		c7.7-3.2,14.8-3,21.4,0.2c6.7,3.3,12.1,10,16.1,20.2l39.9-16.2c-3.5-8.6-7.8-15.8-13.1-21.7c-5.2-5.9-11.2-10.5-17.7-13.6
		s-13.6-5.1-21.4-5.6c-7.7-0.6-15.8,0.2-24,2.5l-11.3-27.9l-22.1,8.9l11.2,27.4c-8,4.2-14.8,8.9-20.3,14.4
		c-5.5,5.5-9.8,11.4-12.7,17.8c-3,6.4-4.5,13.1-4.7,20.1c-0.1,7,1.2,14.2,4.2,21.4c3.4,8.3,7.8,15,13.2,20
		c5.4,4.8,11.6,8.6,18.7,10.9c7.1,2.4,15,3.8,23.8,4.3c8.8,0.5,18.3,0.5,28.6,0c6-0.3,11.2-0.3,15.6,0.1c4.4,0.5,8.2,1.2,11.4,2.6
		c3.2,1.4,5.9,3.2,8,5.4c2.1,2.3,3.9,5.3,5.4,8.9c1.2,3.2,1.9,6.3,1.9,9.5s-0.7,6.1-2.1,9c-1.5,2.8-3.5,5.5-6.3,8
		c-2.8,2.5-6.4,4.5-10.7,6.3c-3.7,1.6-7.7,2.6-11.7,3c-4.1,0.5-8,0.1-11.8-1.2c-3.8-1.2-7.4-3.6-10.8-7s-6.2-8.1-8.7-14.2
		l-39.9,16.2c4.2,10.3,9.4,18.4,15.7,24.4c6.3,6,13.2,10.3,20.6,12.9c7.4,2.6,15.3,3.7,23.5,3.4c8.1-0.3,16.2-1.7,24.1-3.9
		l10.3,25.4l22-8.9l-10.4-25.5c8-4.2,14.8-8.9,20.5-14.3c5.3-5,9.4-10.4,12.4-16.1c0.2-0.5,0.5-0.9,0.7-1.5c3-6.3,4.6-13,4.8-20.1
		C1169.3,1741.5,1167.8,1734.2,1164.8,1726.8z"/>
</g>
<g>
	<path class="st14" d="M931.9,1018.3c0.6-2.4-52.2,23.8-54.8,26.8c-24.7,27.4-17.7,63.3-3.5,63.6c9,0.2,7.3,15.3,7.3,15.3
		l101.2-42.7C982,1081.2,969.8,1010.2,931.9,1018.3z"/>
	<path class="st14" d="M944.3,1023.8c0,0,3.6-39.4-40.4-39.4c0,0,13.3,3.6,20.3,10.8c0,0-28.1-16.5-58.6,8.8
		C835,1029.5,854,1093,844.7,1105c-9.2,12.1-45.4,14.4-41.1,53.5c4.4,39,114.8,87.9,107.7,120.1c0,0,43.3-63.6,12.3-92.7
		c0,0,15.1,14.2,16.6,31.1c0,0,4.1-32.9-16.9-43.5c-18.6-9.4-33.8-43.4-32.1-49.5C892.9,1117.9,944.3,1023.8,944.3,1023.8z"/>
	<path class="st15" d="M904.4,1209.2c-6.8-32.7-49.2-42.9-69.2-16.1c-3.6,4.8-6.2,10.5-7,17.1c-4.6,37.1,54.7,188.2,63.3,202
		c15.5,24.9,106.6,110.3,106.6,110.3l16.8-10.1c0,0-64.6-109.4-74.7-119.7C928.6,1380.9,917.3,1271.3,904.4,1209.2z"/>
	<path class="st15" d="M991.6,1512.4c0,0,24.5-16.1,33.8-15c9.2,1,36.1,8.8,36.4,12.7c0.3,3.9-29.9,6.4-31.9,8.6
		c-2,2.1-22.6,15.9-30,11.6C992.5,1525.8,991.6,1512.4,991.6,1512.4z"/>
	<path class="st5" d="M820.7,1875.9l-21.9-3.2c0,0-73.6-58.5-84.6-167.6c-1.1-11.1-1.4-22.3-0.6-33.7c0.1-1.4,0-2.6-0.8-3.7l0,0
		c-2.4-3.6-8.2-12.6-16.1-25.5c-7.8-12.6-21.2-36.7-36-63.5c-26.5-48.4-57.4-106.3-68-124.8c-33.7-58.8-17.5-98.3-17.5-98.3
		s94.2-9.4,120-31.9l9.2,14.3c0,0,20.4,90.3,19.4,90.8c1,3,2,6.2,3,9.4c16.1,49.7,34.6,111.9,44.8,162.5c5.6,28.5,8.7,53.3,7.1,70.1
		c-0.6,5.8,0.1,14.7,1.7,25.7C789.7,1761.1,820.7,1875.9,820.7,1875.9z"/>
	<path class="st16" d="M866.6,1903.5h-91.3c0,0-2.1-13.9,2.6-24.5c4.5-10.1,11.1-10.5,0.8-26.3c5.8,6,24.5,8.5,37.7,6.7
		c1.6,2.6,10.5,20.2,15.8,24.1C838.2,1887.7,864.8,1886.2,866.6,1903.5z"/>
	<path class="st16" d="M727.1,1437.9c-8,44-26.8,117.2-66.3,140.5c-26.5-48.4-57.4-106.3-68-124.8c-33.7-58.8-17.5-98.3-17.5-98.3
		s94.2-9.4,120-31.9l9.2,14.3c0,0,20.4,90.3,19.4,90.8C725.1,1431.6,726.1,1434.8,727.1,1437.9z"/>
	<path class="st3" d="M894.6,1188.9c0,0,13,13.4,18.8,29.5c0,0-20.6,59.1-68.8,66.5C844.6,1285,882.7,1188.9,894.6,1188.9z"/>
	<path class="st5" d="M663.1,1362.2l0.3-17c-34.1,4.3-117.3-40.7-117.3-40.7s-35.6,23.7-40.5,91.3c-2.4,33-17.5,172.5-19.1,214.3
		c-0.6,15.1-0.8,25.8-0.9,30.2l0,0c0,1.4-0.7,2.5-1.5,3.5c-7,8.9-13.2,18.4-18.5,28.3c-51.9,96.6-24.8,227.9-24.8,227.9l12.1-3
		c0,0,43.9-136.1,72.6-195c4.8-9.9,9.2-17.7,13-22.2c10.8-13.1,22.2-35.3,33.4-62.1c21.2-50.6,41.7-117.5,56.5-169.2
		C629.5,1448.4,663.1,1362.2,663.1,1362.2z"/>
	<path class="st17" d="M862.2,1248.1c-55.6-12.7-20.1-90.9-16.9-89.5c7.7-1.6,24.6-15.1,39.8-41.5l2,1.8l34.2,30
		c0,0-7.9,11.6-14.5,23c-5.2,8.9-9.6,17.7-8.9,20.8C900.7,1194.8,877.1,1251.5,862.2,1248.1z"/>
	<path class="st15" d="M921.3,1148.8c0,0-7.9,11.6-14.5,23c-21.2-13.1-21.3-39.4-19.6-53L921.3,1148.8z"/>
	<path class="st17" d="M922.3,1163.8c0,0-51.5-28.6-33.3-60.6c18.3-31.9,24-57,57.7-40s33,32.8,29.5,44.9
		C972.9,1120.3,936.2,1170.4,922.3,1163.8z"/>
	<path class="st14" d="M985,1089.6c-2.4-14.1-9.6-15.5-14.5-14.5c-19.1-31.5-50.2-19.2-50.2-19.2c-16.6,20.9-40.6,24.5-40.6,24.5
		s6,11.2,30.7,18c7.6,2.1,16.1,0.8,24.4-1.9c-17.1,9.6-35,13.2-35,13.2c32.5,2.9,63.4-26.7,66.7-29.9c1.5,4.6,4.2,14.2,2.6,21.3
		c-2.1,9.6-10.6,27-5.4,29.2C963.4,1130.1,988.6,1110.8,985,1089.6z"/>
	<path class="st16" d="M513.6,1903.5h-91.3c0,0-2.1-13.9,2.6-24.5c4.5-10.1,11.7-14.8,10-27c5.8,6,15.2,12.6,28.4,10.9
		c1.6,2.6,10.5,16.7,15.8,20.5C485.1,1887.7,511.7,1886.2,513.6,1903.5z"/>
	<path class="st4" d="M868.8,1310.1c-11.7,4.1-28.2,6.3-45.1,8.2c-24,2.6-48.8,4.4-61.8,9.6c-4.7,1.9-7.9,4.2-8.9,7.2
		c-5.6,16.9-30.4,43.1-30.4,43.1c-159-7.2-176.5-73.8-176.5-73.8c107-124.4,288.1-160.4,288.1-160.4s13-5.5,45.6,20.4
		c21.8,17.3,18.8,23.9,18.8,23.9S903.4,1298,868.8,1310.1z"/>
	<path class="st3" d="M823.7,1318.3c-24,2.6-48.8,4.4-61.8,9.6c-5.3-79.3,32.1-138.9,32.1-138.9S818.4,1288.3,823.7,1318.3z"/>
	<path class="st17" d="M848.4,1173.6c0,0-60.2,6-65,45c-4.8,39.1,57.7,198.4,66.7,212.8c16.4,26.3,112.3,116.3,112.3,116.3
		l17.7-10.7c0,0-68.1-115.3-78.6-126.1C884.8,1394,868.8,1187.1,848.4,1173.6z"/>
	<path class="st4" d="M785.1,1242.2c0.1,0.9,55.6,18,91.1,0c0,0,7.7-82.2-35-77.8c-42.5,4.5-67.8,17.8-68.8,38.2
		C771.4,1223,785.1,1242.2,785.1,1242.2z"/>
	<path class="st17" d="M956.8,1536.3c0,0,21.5-19.8,30.9-20.3c9.4-0.5,37.1,2.8,38,6.7c0.9,3.8-28.5,11.2-30.1,13.6
		c-1.6,2.5-19.7,19.3-27.7,16.2C959.9,1549.4,956.8,1536.3,956.8,1536.3z"/>
</g>
<g>
	<path class="st16" d="M2207.5,1908.6L2207.5,1908.6c-5.4,0-11.2-3.9-12.7-8.9L1866,889.7c-1.6-5,1.5-9,7-9l0,0
		c5.4,0,11.2,3.9,12.7,8.9l328.7,1009.9C2216.1,1904.5,2212.9,1908.6,2207.5,1908.6z"/>
	<path class="st16" d="M2472.4,1907.1L2472.4,1907.1c-5.4,0-11.2-3.9-12.7-8.9L2130.8,888.3c-1.6-5,1.5-9,7-9l0,0
		c5.4,0,11.2,3.9,12.7,8.9l328.7,1009.9C2481,1903,2477.9,1907,2472.4,1907.1z"/>
	<path class="st16" d="M2187.1,1029l-266,1.6c-5.2,0-10.6-3.7-12.1-8.3l0,0c-1.5-4.6,1.5-8.5,6.5-8.5l266-1.6
		c5.2,0,10.6,3.7,12.1,8.3l0,0C2195.2,1025.2,2192.3,1029,2187.1,1029z"/>
	<path class="st16" d="M2244.5,1205.3l-266,1.6c-5.2,0-10.6-3.7-12.1-8.3l0,0c-1.5-4.6,1.5-8.5,6.5-8.5l266-1.6
		c5.2,0,10.6,3.7,12.1,8.3l0,0C2252.6,1201.5,2249.7,1205.3,2244.5,1205.3z"/>
	<path class="st16" d="M2299.8,1375.1l-266,1.6c-5.2,0-10.6-3.7-12.1-8.3l0,0c-1.5-4.6,1.5-8.5,6.5-8.5l266-1.6
		c5.2,0,10.6,3.7,12.1,8.3l0,0C2307.9,1371.3,2305,1375.1,2299.8,1375.1z"/>
	<path class="st16" d="M2362,1566.3l-266,1.6c-5.2,0-10.6-3.7-12.1-8.3l0,0c-1.5-4.6,1.5-8.5,6.5-8.5l266-1.6
		c5.2,0,10.6,3.7,12.1,8.3l0,0C2370.2,1562.5,2367.2,1566.3,2362,1566.3z"/>
	<path class="st16" d="M2427.2,1766.5l-266,1.6c-5.2,0-10.6-3.7-12.1-8.3l0,0c-1.5-4.6,1.5-8.5,6.5-8.5l266-1.6
		c5.2,0,10.6,3.7,12.1,8.3l0,0C2435.2,1762.6,2432.3,1766.4,2427.2,1766.5z"/>
</g>
<g>
	<path class="st17" d="M1869.5,703.7c-4.8-3.5-16-11.1-16.6-9.4c-0.5,1.2,0.2,3.3,1.5,5.4c-6.8-2.5-13.5-4.2-29.7-1
		c-3.3,0.6-6.2,2.5-7.9,5.2c-1.7,2.6-2.3,5.8,1.9,8.3c8.2,5.1,5.9,2,17.3,9.5c11.4,7.4,25.5,9.4,33.8,4.2l11.3-1.9l1.4-18.5
		C1882.5,705.5,1876.1,704.8,1869.5,703.7z"/>
	<path class="st17" d="M2163.8,548.8c0,0-26.5,31.4-60.2,18.3c0,0-7.2-17.5-7.3-30.4c0-1.6,0-3.2-0.1-4.6
		c-0.2-14.5-0.7-22.8-0.7-22.8l0,0c1.6-0.7,51.5-21.2,51.5-19.5C2146.2,529.1,2163.8,548.8,2163.8,548.8z"/>
	<path class="st18" d="M2142,499.2c-4.8,8.9-21.3,26.4-45.8,32.8c-0.2-14.5-0.7-22.8-0.7-22.8l0,0
		C2097,508.9,2143.5,496.5,2142,499.2z"/>
	<path class="st17" d="M2085.1,507.8c0,0,56.3,13.2,63.9-21.9c7.7-35.2,20.1-57.1-15.5-67c-35.5-9.9-45.4,1.9-51,13.1
		C2077.2,442.9,2070.6,503.4,2085.1,507.8z"/>
	<path class="st19" d="M2147.1,495.4c0.8,0.5,12.9,4.2,35.8-41.4c3.6-7.2,6.1-22.7-2.4-36.3c-8.3-13.6-38.1-24.5-62.8-29.2
		c-24.7-4.6-30.7,9.2-36.4,23.1c-6.1,14.7-23.8,26.7-23.8,26.7c21.3,12,46.9-5.1,55.8-2.4c8.9,2.7,12.1,16.8,12.7,21.3
		c0.7,4.5,1.7,8.2,12.9,4.2c11.2-4.1,5.1,15.8,3.3,19.6C2142.1,481.2,2140.7,491.3,2147.1,495.4z"/>
	<g>
		<path class="st14" d="M2207.8,1368.8h34.1c7.1,0,15.1-7.1,17-20.2c2-13.1,16.7-20.2,19.8-30.9c3.2-10.7-13.1-25.8-13.1-25.8
			l-2.7-3.5l-2.8-3.6l-27,6.3c0,0-0.7,6.4-1.1,14.5c-0.3,5.9-0.5,12.7-0.1,18.7c0.8,14.3-4.1,29.7-16.7,32.5
			C2202.5,1359.6,2207.8,1368.8,2207.8,1368.8z"/>
		<path class="st14" d="M2054.9,1371.7h90.2c0.9-0.2,1.5-0.3,1.9-0.6c6-3,4.2-26.1,3.4-33.2c-0.1-1.4-0.2-2.1-0.2-2.1
			s-31.7-25.4-36.1-6c-0.1,0.6-0.3,1.2-0.5,1.8l0,0c-5.5,18.2-30.1,26.4-44.3,28.8C2058.4,1362.2,2055.6,1368.5,2054.9,1371.7z"/>
		<path class="st5" d="M2073.1,851.3c0,0,4.8,60.1,10.5,132.4c7.7,98.2,16.9,218.8,17.8,241.7c1.6,39.7,7.9,103.1,7.9,103.1
			s15.1,15.1,45.2,8.7c0,0,26.8-90.6,34.5-186.4c0.1-1.6,0.2-3.2,0.3-4.7c7.1-97.6,18.3-303,18.3-303L2073.1,851.3z"/>
		<path class="st16" d="M2073.1,851.3c0,0,4.8,60.1,10.5,132.4l105.6,167c0.1-1.6,0.2-3.2,0.3-4.7c7.1-97.6,18.3-303,18.3-303
			L2073.1,851.3z"/>
		<path class="st5" d="M2103.1,838.4c0,0,48.8,201.2,86,312.3c37.2,111.1,38.8,164.9,38.8,164.9s42.2-8.2,46.8-16.5
			c0,0,14.4-190.4-14.2-244.7c-16.2-30.8-13.4-102-13.4-134.4c0-60.1-18.7-119.8-18.7-119.8L2103.1,838.4z"/>
	</g>
	<g>
		<path class="st17" d="M2293.2,818.9l0.9,14c0,0-9.2,24.9,16.7,37.7c0,0,11.1,4.5,11.5-4.2c0.5-8.7-1-5.4-0.1-17.5
			c0.9-12.2-3.8-23.6-12-27.5l-6.5-7.6L2293.2,818.9z"/>
		<path class="st19" d="M2303.3,829.1c-9.6,3-11.2,2.4-11.2,2.4s-46.8-85.1-51.5-93c-4.7-7.8-99.4-95.5-99.4-95.5l24.4-90.7
			c0,0,107.6,139.4,119.2,159.4c19.2,33,30.4,109.7,30.4,109.7S2310.8,826.6,2303.3,829.1z"/>
	</g>
	<path class="st20" d="M2054.7,678.5c0.3,18.6,1.5,39.6,2.9,60.8c0.1,1.2,0.2,2.5,0.2,3.7c0.9,13.2,1.9,26.4,3.2,39.2
		c0.5,5.2,0.9,10.3,1.5,15.2l0.1,0.7c0,1.9,0.2,3.9,0.5,5.8c4.7,48.3,9.7,86.3,10.6,86.8c1.1,0.8,2.4,1.1,3.7,0.9
		c12.6-1.6,50.4,1.2,81.3-5.4c26.1-5.5,48.5-15.9,72.3-30c3.2-1.9,10.4-6.8,9.8-10.5c-0.6-4.1-1.6-9.9-3-17.3
		c-4.7-25.6-12.7-69.8-15.6-121.5c-0.6-9.6-1.4-19.2-2.4-28.4c-2.6-24.4-6.9-47.5-12.6-68c-10.6-38.1-26.2-67.3-45.7-78.7
		c-2.6-1.5-16.2,7.3-28.9,15.5c-11.6,7.4-23.9,9.6-35.9,8.5l-10.5,11.6c-12.7,14.8-26.3,34.4-29.9,62.4c-0.3,2-0.6,4.3-0.7,6.5
		C2054.7,647.9,2054.5,662.4,2054.7,678.5z"/>
	<path class="st19" d="M2054.7,678.5c0.3,18.6,1.5,39.6,2.9,60.8c0.1,1.2,0.2,2.5,0.2,3.7c72.3-45.2,83.3-128,83.3-128
		c-35.5,1.6-63.7,9.7-85.5,21.4C2054.7,647.9,2054.5,662.4,2054.7,678.5z"/>
	<path class="st20" d="M1872.2,714.1c-0.8-10.7,4.8-12.5,4.8-12.5s108.9-19.7,118.2-22.7c9.2-2.9,88.4-85.3,88.4-85.3
		s30.3-34.2,55.1-26.6c21.5,6.5,30,23.5,32.9,39.5c3.4,19.2-5.4,38.3-22,48.5c-37.1,22.8-111.5,67.7-129.1,72.9
		c-39,11.4-143.8,0.9-143.8,0.9S1872.8,722.5,1872.2,714.1z"/>
</g>
<g>
	<path class="st5" d="M1929.9,834.4c-1.6,5.1-7,8.3-12.6,6.7c-50.9-15.9-104.7-26.3-157.8-32.5c-58.3-6.7-117.7-8-145.8-6.1
		c-5.5,0.3-10.4-3.8-10.7-9.5c-0.3-5.5,3.8-10.4,9.5-10.7c43.5-2.6,104.8,0.8,151,6.3c53,6.2,107.9,16.9,159.8,33
		C1928.5,823.4,1931.5,829.1,1929.9,834.4z"/>
</g>
<g>
	<path class="st7" d="M2929.8,1741.1c-0.9-1.9-2-3.6-3.3-5.2l0,0l0,0c-1-1.1-2-2.3-3.2-3.3l-4.8-4.8l-1.2,0.9
		c-24.7-12.1-75.6,0.7-127.1,34.4c-62.3,40.6-102.2,96.6-90.7,126.3l-1.8,1.4l6.9,6.9c0.3,0.3,0.7,0.7,1,1l0.2,0.2h0.1
		c1.8,1.6,3.7,3,6,4.2l0,0l0,0c24.4,12.7,75.8,0.1,127.9-33.9C2903.1,1827.7,2943.4,1770.4,2929.8,1741.1z"/>
	<path class="st6" d="M2782.7,1755.6c63.4-41.4,126-51.2,139.6-22c13.6,29.2-26.6,86.6-90,128s-126,51.2-139.6,22
		C2678.9,1854.4,2719.2,1797,2782.7,1755.6z"/>
	<g>
		<path class="st7" d="M2737.1,1888c-5.2,0-9.8-0.6-14-1.8c-7.9-2.3-13.4-6.7-16.4-13c-5.8-12.5-0.5-31,14.9-52.1
			c15-20.6,37.9-41.6,64.4-59l0,0c40.7-26.7,82.2-39.6,105.7-32.8c7.9,2.3,13.4,6.7,16.4,13c5.8,12.5,0.5,31-14.9,52.1
			c-15,20.6-37.9,41.6-64.4,59C2795.2,1875.4,2761.2,1888,2737.1,1888z M2878,1732.2c-23,0-56.7,12.5-89.3,33.8
			c-26.1,17.1-48.5,37.7-63.2,57.9c-14.1,19.4-19.4,36.8-14.4,47.5c2.4,5.1,6.9,8.6,13.4,10.5c3.7,1,7.9,1.6,12.5,1.6
			c23,0,56.7-12.5,89.3-33.8c26.1-17.1,48.5-37.7,63.2-57.9c14.1-19.4,19.4-36.8,14.4-47.5c-2.4-5.1-6.9-8.6-13.4-10.5
			C2886.9,1732.7,2882.6,1732.2,2878,1732.2z"/>
	</g>
	<g>
		<path class="st7" d="M2781.9,1823.8c1.9-0.9,3.7-1.8,5.2-2.8c1.6-1,2.9-2.3,4.3-3.6s2.5-2.9,3.7-4.7c1.2-1.8,2.4-3.8,3.5-6.2
			c2-4.1,4.2-7.8,6.3-11.4c2.1-3.5,4.5-6.8,7.2-9.8s5.6-5.8,9.1-8.2c3.5-2.5,7.4-4.7,12-6.8c3.9-1.7,7.6-2.8,10.7-3.4
			c3.2-0.6,5.9-0.3,8.1,0.3c2.3,0.7,4.1,1.9,5.3,3.7c1.2,1.8,2,4.1,2.1,6.9l15-6.5l-0.8,8l-15.1,6.7c-0.8,3.2-2.3,6.2-4.2,9.4
			c-1.9,3.2-4.4,6.1-7.3,8.9c-2.9,2.8-6.3,5.5-10.1,8.1c-3.8,2.6-8.1,4.8-12.7,6.9l1.5-14.5c5.6-2.5,9.8-5.1,12.7-8
			c2.9-2.9,4.5-5.8,4.8-8.5c0.1-1.5,0-2.7-0.6-3.5c-0.6-0.8-1.2-1.4-2.4-1.6c-1-0.2-2.3-0.2-3.7,0.1c-1.5,0.3-3,0.9-4.7,1.6
			s-3.3,1.6-4.7,2.6c-1.5,1-2.8,2.1-4.1,3.5c-1.2,1.4-2.5,2.9-3.7,4.7c-1.2,1.8-2.4,3.9-3.7,6.5c-2.1,4.1-4.3,7.8-6.4,11.4
			c-2.1,3.5-4.6,6.8-7.2,9.8c-2.6,3-5.8,5.8-9.1,8.2c-3.4,2.5-7.3,4.7-12,6.8c-4.1,1.8-7.8,2.9-10.9,3.4c-3.2,0.5-5.9,0.3-8-0.3
			c-2.3-0.7-3.9-1.9-5.1-3.8s-1.9-4.2-2-7l-13.9,6.1l0.8-8l13.9-6.1c0.7-2.9,1.8-6.1,3.5-9.2c1.7-3.2,3.8-6.4,6.8-9.6
			c2.8-3.2,6.3-6.2,10.5-9.2c4.2-2.9,9-5.6,14.5-8.1l-1.5,14.5c-3.3,1.5-6.1,2.9-8.3,4.6c-2.3,1.7-4.2,3.2-5.5,4.8
			c-1.5,1.6-2.5,3.2-3.2,4.7c-0.7,1.6-1,3-1.2,4.4c-0.1,1.6,0,2.8,0.5,3.7c0.5,0.9,1.2,1.6,2.3,1.9s2.3,0.3,3.6,0.1
			C2778.9,1825,2780.2,1824.5,2781.9,1823.8z"/>
	</g>
</g>
<g>
	<path class="st7" d="M1682.2,289.4c0.6-1.2,1.2-2.3,2-3.3l0,0l0,0c0.6-0.8,1.2-1.5,2-2l3-3.2l0.8,0.6c15.7-7.7,47.9,0.5,80.6,21.8
		c39.5,25.8,64.8,61.4,57.5,80.2l1.1,0.8l-4.4,4.4c-0.2,0.2-0.5,0.5-0.7,0.7l-0.1,0.1l0,0c-1.1,1-2.4,1.9-3.8,2.6l0,0l0,0
		c-15.5,8.1-48.2,0-81.1-21.5C1699.1,344.4,1673.5,308,1682.2,289.4z"/>
	<path class="st6" d="M1775.6,298.6c-40.3-26.3-80-32.5-88.6-14c-8.7,18.6,16.9,54.9,57.1,81.2s80,32.5,88.6,14
		C1841.3,361.3,1815.7,324.8,1775.6,298.6z"/>
	<g>
		<path class="st7" d="M1746.3,360.6c-16.8-11.1-31.4-24.4-40.8-37.4c-9.7-13.4-13.1-25.1-9.5-33c1.8-4.1,5.3-6.8,10.4-8.2
			c14.9-4.3,41.2,3.9,67,20.9l0,0c16.8,11.1,31.4,24.4,40.8,37.4c9.7,13.4,13.1,25.1,9.5,33c-1.8,4.1-5.3,6.8-10.4,8.2
			c-2.6,0.8-5.6,1.1-8.8,1.1C1789.2,382.6,1767.6,374.6,1746.3,360.6z M1707.1,284.7c-4.2,1.2-7,3.4-8.5,6.7
			c-3.2,6.8,0.2,17.8,9.1,30.1c9.4,12.9,23.6,25.8,40.1,36.7c20.6,13.5,42.1,21.4,56.6,21.4c2.9,0,5.6-0.3,7.9-1
			c4.2-1.2,7-3.4,8.5-6.7c3.2-6.8-0.2-17.8-9.1-30.1c-9.4-12.9-23.6-25.8-40.1-36.7c-20.6-13.5-42.1-21.4-56.6-21.4
			C1712.1,283.7,1709.4,284,1707.1,284.7z"/>
	</g>
	<g>
		<path class="st7" d="M1779,342.8c0.9,0.1,1.7,0.1,2.4-0.1c0.7-0.2,1.1-0.6,1.5-1.2c0.3-0.6,0.5-1.4,0.3-2.4
			c-0.1-0.9-0.3-1.8-0.8-2.8s-1.1-2-2-3c-0.9-1-2-2-3.5-3c-1.5-1-3.2-2-5.3-2.9l-0.9-9.2c3.6,1.6,6.7,3.3,9.2,5.2
			c2.6,1.9,4.8,3.8,6.7,5.9c1.8,2,3.2,4.1,4.3,6.1c1,2,1.8,3.9,2.3,5.9l8.8,3.8l0.5,5.1l-8.8-3.8c-0.1,1.8-0.5,3.3-1.2,4.4
			c-0.8,1.1-1.8,1.9-3.3,2.4c-1.4,0.5-3.2,0.6-5.1,0.2c-2-0.3-4.3-1-6.9-2.1c-2.8-1.2-5.4-2.7-7.6-4.3s-4.1-3.4-5.8-5.3
			c-1.7-1.9-3.3-3.9-4.6-6.2c-1.4-2.3-2.7-4.6-4.1-7.2c-0.8-1.6-1.6-2.9-2.4-4.1c-0.8-1.1-1.5-2.1-2.4-3c-0.8-0.9-1.7-1.6-2.6-2.1
			s-1.9-1.1-3-1.6c-1.1-0.5-2.1-0.8-3-1c-0.9-0.2-1.7-0.2-2.4-0.1s-1.1,0.5-1.5,1c-0.3,0.6-0.5,1.2-0.3,2.3c0.2,1.8,1.2,3.6,3,5.4
			c1.9,1.8,4.6,3.5,8.1,5.1l0.9,9.2c-2.9-1.2-5.6-2.7-8.1-4.4c-2.5-1.7-4.6-3.3-6.4-5.1c-1.8-1.8-3.4-3.7-4.6-5.6
			c-1.2-1.9-2.1-3.9-2.7-6l-9.6-4.3l-0.5-5.1l9.5,4.2c0.1-1.8,0.6-3.3,1.4-4.4c0.8-1.1,1.9-1.9,3.4-2.4c1.5-0.5,3.2-0.5,5.2-0.2
			c2,0.3,4.3,1,6.8,2.1c2.9,1.2,5.4,2.7,7.6,4.3c2.1,1.6,4.1,3.4,5.8,5.2s3.2,3.9,4.6,6.2c1.4,2.3,2.7,4.6,3.9,7.2
			c0.8,1.5,1.5,2.8,2.3,3.9c0.8,1.1,1.5,2.1,2.4,3c0.9,0.9,1.7,1.7,2.7,2.3c1,0.7,2,1.2,3.3,1.8
			C1777.1,342.3,1778.1,342.7,1779,342.8z"/>
	</g>
</g>
</svg>
