<?xml version="1.0" encoding="utf-8"?>
<!-- Generator: Adobe Illustrator 23.0.1, SVG Export Plug-In . SVG Version: 6.00 Build 0)  -->
<svg version="1.1" id="Layer_1" xmlns="http://www.w3.org/2000/svg" xmlns:xlink="http://www.w3.org/1999/xlink" x="0px" y="0px"
	 viewBox="0 0 500 500" style="enable-background:new 0 0 500 500;" xml:space="preserve">
<style type="text/css">
	.st0{fill:#DCEDF9;}
	.st1{fill:#007477;}
	.st2{fill:#0059D3;}
	.st3{fill:#00858E;}
	.st4{fill:#FFC93C;}
	.st5{fill:#F88800;}
	.st6{fill:#FDCC50;}
	.st7{fill:#F9AF8B;}
	.st8{fill:#FFFFFF;}
	.st9{fill:#2E3052;}
	.st10{fill:#001030;}
	.st11{fill:#524E84;}
	.st12{fill:#1F2232;}
	.st13{fill:#FC8664;}
	.st14{fill:#FD664D;}
	.st15{fill:#000B29;}
</style>
<g id="OBJECTS">
	<g>
		<g>
			<path class="st0" d="M428.2,427.6c-22.7-17.3-61.6-60.1-10.4-127.4c63.3-83.2-12.5-117.3-85.1-113.7
				c-58.4,2.9-124.2-70.6-189.8-57.5c-87.1,17.4-30.5,92.4-89.6,132.8C2.9,296.4,24.5,401.4,90,427.6H428.2z"/>
		</g>
		<path class="st0" d="M469.2,275.1c-0.4-12.3-11.8-17.1-19.5-8.2c-4.4,5.1-8.6,12.5-9.4,22.3c-1.8,22,17.5,15.6,24.7,3.8
			C468.1,288.1,469.4,281.4,469.2,275.1z"/>
		<path class="st0" d="M257.5,124.7c-12.1-2.3-19.3,7.9-12.2,17.3c4.1,5.4,10.3,11.1,19.8,13.9c21.1,6.4,19-13.7,9-23.3
			C269.9,128.6,263.7,125.9,257.5,124.7z"/>
		<path class="st0" d="M57.2,237.7c4.8-11.3-3.6-20.5-14.3-15.6c-6.1,2.8-13,7.7-17.9,16.3c-10.8,19.2,9.3,21.5,20.8,13.8
			C50.8,249,54.8,243.4,57.2,237.7z"/>
	</g>
	<g>
		<ellipse class="st0" cx="250.4" cy="431" rx="207.8" ry="13.7"/>
	</g>
	<g>
		<g>
			<g>
				<g>
					<path class="st1" d="M452.5,318.8c-12.7,12.7,1.5,13.8-7.9,23.4c-8.5,8.8-21.1,0.2-20.2,21.6c0.2,4.7-3.2,8.1-8,9.9
						c-7.9,2.9-15.5,0.2-20.3-5.2c-0.4-0.4-0.8-0.9-1.1-1.4c-3.6-4.9-4.9-11.5-2.2-18.1c2.2-5.3,6-10.6,12.8-12.7
						c15.9-4.9,7.1-26,20.5-26.9c16.2-1.1,16.8-7.1,28.3-15.1C466.6,285.9,469.8,301.5,452.5,318.8z"/>
				</g>
				<g>
					<g>
						<path class="st2" d="M446.8,311.8c-0.4,0.4-29.9,30.8-50.7,56.7c-0.4-0.4-0.8-0.9-1.1-1.4c20.9-26,50.2-56.2,50.5-56.5
							c0.3-0.3,0.9-0.3,1.2,0C447.1,311,447.1,311.5,446.8,311.8z"/>
					</g>
				</g>
			</g>
			<g>
				<g>
					<path class="st3" d="M455.8,361.2c-19.9,11.7-2.6,17.6-17.3,26.6c-13.4,8.2-26.3-6.5-32.1,20.4c-1.3,5.9-6.6,9.1-13.1,9.8
						c-10.7,1.1-19.4-4.7-23.6-13c-0.3-0.7-0.6-1.4-0.9-2c-2.9-7.3-2.4-16,3-23.3c4.4-6,10.9-11.3,20-11.7
						c21.4-1,17.2-30.1,34.2-26.9c20.5,3.8,23.2-3.4,40.1-9.6C483.9,324.8,482.8,345.3,455.8,361.2z"/>
				</g>
				<g>
					<g>
						<path class="st1" d="M450.9,350.8c-0.6,0.3-47.1,28.7-81.3,54.3c-0.3-0.7-0.6-1.4-0.9-2c34.3-25.6,80.6-53.8,81.1-54.1
							c0.5-0.3,1.2-0.1,1.5,0.4S451.5,350.4,450.9,350.8z"/>
					</g>
				</g>
			</g>
		</g>
		<g>
			<g>
				<g>
					<path class="st1" d="M67.1,173.5c6.8,16.6-6.7,12.2-1.8,24.6c4.5,11.4,19.3,8.3,10.3,27.7c-2,4.2-0.2,8.8,3.6,12.2
						c6.1,5.7,14.3,6.2,20.7,3.1c0.5-0.3,1-0.5,1.5-0.8c5.2-3.1,9-8.8,9.1-15.9c0.1-5.8-1.4-12.1-6.9-16.6
						c-12.8-10.7,3.5-26.7-8.6-32.7c-14.5-7.3-12.8-13-20.3-24.8C66.8,137.7,57.9,151,67.1,173.5z"/>
				</g>
				<g>
					<g>
						<path class="st2" d="M75.1,169.3c0.2,0.5,15.7,39.9,24.9,71.9c0.5-0.3,1-0.5,1.5-0.8c-9.3-32-24.7-71.2-24.8-71.7
							c-0.2-0.4-0.7-0.6-1.1-0.5C75.1,168.4,74.9,168.9,75.1,169.3z"/>
					</g>
				</g>
			</g>
			<g>
				<g>
					<path class="st3" d="M47.7,217c14.4,18.1-3.9,17.4,6.7,31c9.6,12.4,26.9,3.3,22.7,30.5c-0.9,6,2.9,10.9,8.8,13.8
						c9.6,4.9,19.8,2.5,26.7-3.7c0.6-0.5,1.1-1,1.6-1.6c5.3-5.8,7.9-14,5.5-22.9c-2-7.1-6.1-14.4-14.5-18.1
						c-19.6-8.6-5.3-34.2-22.3-37.3c-20.5-3.8-20.4-11.4-34-23.3C34.4,172.9,28.1,192.5,47.7,217z"/>
				</g>
				<g>
					<g>
						<path class="st1" d="M55.9,208.9c0.4,0.5,33.7,43.6,56.6,79.8c0.6-0.5,1.1-1,1.6-1.6c-22.9-36.2-56-79-56.4-79.5
							c-0.4-0.5-1.1-0.6-1.5-0.2C55.7,207.8,55.6,208.4,55.9,208.9z"/>
					</g>
				</g>
			</g>
		</g>
		<g>
			<path class="st3" d="M144.9,201.2c5.8-4,20.4,5.8,28,17.8l-6.8-18.9c-2.4-2.1-6.7-5.1-13.4-7.5c-10.4-3.7-20.8-9.4-15-13.4
				c5.4-3.7,18.6,4.7,26.5,15.6l-8.7-24.3c-1.6-1.2-4.1-2.8-7.6-4c-6.6-2.3-13.1-6-9.4-8.5c3.2-2.2,10.5,2.2,15.6,8.3l-2.8-7.9
				c-1.3-2.3-3.1-5.6-6-8.5c-6.7-6.9-11.7-14.7-6.6-15.8s13.6,12.4,14.9,24.6l1.4,4.1c-1.1-8.9,2.1-19.6,6.5-20
				c4.4-0.4,1.6,6.6-1.9,12.5c-2.7,4.5-3.5,8.1-3.7,10l6.8,19.1c-1.7-14.1,3.3-31.1,10.4-31.7c7-0.6,2.6,10.5-3.1,19.9
				c-4.3,7.1-5.5,12.8-5.9,15.8l8.2,22.9c-1.4-13.9,3.5-30.8,10.5-30.9c5.4,0,3.7,7.5-2.7,18.2c-4.4,7.3-5.7,13.8-6.2,17.2l3.9,10.8
				c-0.6,0.5-1.3,0.7-2,0.7l-1.5-4.3c-2.2-2.1-6.7-5.7-14.4-8.4C149.5,211,139.1,205.2,144.9,201.2z"/>
		</g>
		<g>
			<path class="st3" d="M93.8,361.5c-6,3.8-2.7,21,5.2,32.7l-14.7-13.7c-1-3.1-2-8.2-1.5-15.3c0.8-11-0.4-22.9-6.4-19.1
				c-5.6,3.5-3.1,18.9,3.8,30.5L61.3,359c-0.5-2-0.9-4.8-0.7-8.5c0.5-6.9-0.3-14.4-4-12c-3.3,2-2.2,10.5,1.5,17.6l-6.1-5.7
				c-1.6-2.1-3.9-5.1-5.5-8.9c-3.7-8.9-8.8-16.6-11.9-12.3c-3.1,4.3,6,17.4,16.7,23.5l3.1,2.9c-7.7-4.6-18.9-5.9-21-2
				c-2.1,3.9,5.4,4.1,12.3,3.2c5.2-0.7,8.8,0,10.6,0.6l14.8,13.9c-12.2-7.2-29.8-9.3-33.2-3.1c-3.3,6.2,8.6,6.6,19.5,5.1
				c8.3-1.1,13.9,0,16.8,0.9l17.8,16.6c-12.2-6.9-29.7-9-32.5-2.7c-2.2,4.9,5.4,6.4,17.7,4.8c8.4-1.1,14.9,0.2,18.2,1.2l8.4,7.8
				c0.7-0.4,1.2-0.9,1.4-1.5l-3.3-3.1c-1.1-2.8-2.5-8.4-2-16.6C100.9,369.6,99.8,357.7,93.8,361.5z"/>
		</g>
	</g>
	<g>
		<rect x="76.5" y="206.9" class="st4" width="318.1" height="219.7"/>
		<polygon class="st5" points="394.6,206.9 394.6,221 235.5,362 76.5,221 76.5,206.9 235.5,348.3 		"/>
		<g>
			<polygon class="st5" points="204.9,320.6 85.7,426.6 76.5,426.6 76.5,421 198,312.9 			"/>
		</g>
		<g>
			<g>
				<polygon class="st5" points="394.6,421.8 394.6,426.6 384.5,426.6 265.4,320.6 272.2,312.9 				"/>
			</g>
		</g>
		<polygon class="st6" points="76.5,206.9 235.5,348.3 394.6,206.9 		"/>
	</g>
	<g>
		<g>
			<polygon class="st7" points="306.8,187.1 310.9,195.8 302.3,195.9 299,188 			"/>
			<g>
				<g>
					<g>
						<path class="st3" d="M308.2,195.2c0,0,1.8-2.4,3.2-2.3c1.4,0.1,12.2,8.7,15.9,9.4c3.7,0.7,3.4,4.5,1.8,4.5
							c-4.5,0-29.1,0-29.1,0s-0.7-8.8,0.2-11.4C301.1,192.8,305.3,195.9,308.2,195.2z"/>
					</g>
					<g>
						<g>
							<path class="st8" d="M314.1,201.2c-0.1,0-0.3,0-0.4-0.1c-0.3-0.1-0.3-0.5-0.2-0.7c0-0.1,1.2-2.1,2.7-2.8c2-1,3.6,0.1,3.7,0.2
								c0.2,0.2,0.3,0.5,0.1,0.7s-0.5,0.3-0.7,0.1c0,0-1.1-0.8-2.6-0.1c-1.2,0.6-2.3,2.4-2.3,2.4
								C314.4,201.1,314.3,201.2,314.1,201.2z"/>
						</g>
						<g>
							<path class="st8" d="M312.6,199.8c-0.1,0-0.3,0-0.4-0.1c-0.3-0.1-0.3-0.5-0.2-0.7c0-0.1,1.2-2.1,2.7-2.8c2-1,3.6,0.1,3.7,0.2
								c0.2,0.2,0.3,0.5,0.1,0.7s-0.5,0.3-0.7,0.1c0,0-1.1-0.8-2.6-0.1c-1.2,0.6-2.3,2.4-2.3,2.4
								C312.8,199.7,312.7,199.7,312.6,199.8z"/>
						</g>
						<g>
							<path class="st8" d="M316.3,202.4c-0.1,0-0.3,0-0.4-0.1c-0.3-0.1-0.3-0.5-0.2-0.7c0-0.1,1.2-2.1,2.7-2.8c2-1,3.6,0.1,3.7,0.2
								c0.2,0.2,0.3,0.5,0.1,0.7c-0.2,0.2-0.5,0.3-0.7,0.1c0,0-1.1-0.8-2.6-0.1c-1.2,0.6-2.3,2.4-2.3,2.4
								C316.5,202.3,316.4,202.4,316.3,202.4z"/>
						</g>
					</g>
				</g>
			</g>
		</g>
		<g>
			<g>
				<g>
					<g>
						<g>
							<path class="st9" d="M309.3,189.9l-3.8,1.2l-2.1,0.1l-3.6,0.2c-4.8-3.8-17.7-15.2-20.3-21.9c0,0-16.7,38.7-39.7,38.7
								c-1.5,0,2.4-19.3,6.2-23.3c0,0,21.2-39.6,35-35.4C287.1,151.5,293.4,160.5,309.3,189.9z"/>
						</g>
					</g>
				</g>
			</g>
			<g>
				<path class="st10" d="M305.5,191.2l-2.1,0.1c-14.1-10.7-20.7-19.8-23.7-25.6c-0.1-0.2-0.3-0.3-0.4-0.3c-0.1,0-0.2,0.1-0.2,0.2
					c-6.8,15.9-14.9,25.5-20.5,30.7c-6.1,5.7-10.6,7.6-10.8,7.6l-0.3-0.6l-0.3-0.6c0,0,4.5-1.9,10.4-7.4
					c5.5-5.1,13.5-14.5,20.1-30.2c0.3-0.6,0.8-1,1.4-1c0.7,0,1.3,0.4,1.6,1C283.9,171,290.6,180.2,305.5,191.2z"/>
			</g>
			<path class="st11" d="M295.9,188.9c0.6,1.1,1.6,2.7,2.6,3.5c0,0,8.1-0.4,12.1-2.4l-1.8-4.1C308.9,185.9,302.4,188.3,295.9,188.9z
				"/>
		</g>
	</g>
	<g>
		<g>
			<g>
				<path class="st1" d="M306.6,133.4c-11.6,4.7-20.8,7.1-28.7,8.1c0,0,0,0,0,0c-0.1,0-2,0.1-2.7,0.1c-2.1-0.1-5-0.6-7.9-1.9
					c-2.1-1-5-3.5-8.1-6.4c-3.8-3.7-7.9-8.1-10.7-11.3c-2.2-2.5-3.6-4.2-3.6-4.2c1.9-2.9,6.2-5.5,9.9-6.9c0,0,7.8,12.9,19.5,19.3
					c0.6,0.4,1.3,0.7,2,1c2.7-0.4,9.9-0.8,13.1-1c8.5-0.6,15.5-2.1,15.5-2.1L306.6,133.4z"/>
			</g>
		</g>
		<g>
			<g>
				<g>
					<path class="st7" d="M304.5,127.6c0,0,1.6-4.1,3.8-5.2s8.4-5.3,9.8-4c1.3,1.2,1.1,7.1-4.5,12c-3.6,3.1-7.1,3-7.1,3L304.5,127.6
						z"/>
				</g>
				<g>
					<g>
						<path class="st10" d="M318.5,122.1l-9.2,8.6c-0.4,0.3-1,0.4-1.4,0.2l-5.6-2.7c-0.2-0.1-0.3-0.2-0.3-0.3l0-0.1l-0.3-0.9
							l1.5-0.6l14.5-5.5l0.8-0.3l0.3,1l0,0.1c0,0,0,0,0,0C318.8,121.8,318.7,121.9,318.5,122.1z"/>
					</g>
					<g>
						<path class="st12" d="M317.6,120.8l-14.5,5.5l8.2-7.7c0.3-0.3,1-0.4,1.4-0.2L317.6,120.8z"/>
					</g>
					<g>
						<g>
							<path class="st9" d="M307.6,129.9l-5.6-2.7c-0.4-0.2-0.5-0.6-0.1-1l9.2-8.6c0.4-0.3,1-0.4,1.4-0.2l5.6,2.7
								c0.4,0.2,0.5,0.6,0.1,1l-9.2,8.6C308.7,130.1,308,130.2,307.6,129.9z"/>
						</g>
					</g>
					<g>
						<path class="st9" d="M308.3,128.4l-4.4-2.1c-0.4-0.2-0.5-0.6-0.1-1l7.2-6.7c0.4-0.3,1-0.4,1.4-0.2l4.4,2.1
							c0.4,0.2,0.5,0.6,0.1,1l-7.2,6.7C309.4,128.5,308.7,128.6,308.3,128.4z"/>
					</g>
					<g>
						<path class="st12" d="M318.7,121.6L318.7,121.6C318.7,121.6,318.7,121.6,318.7,121.6L318.7,121.6z"/>
					</g>
				</g>
				<g>
					<path class="st7" d="M308.2,120.3c0,0,1.3,0.2,1.4,1.3c0.1,1.1-1.1,0.7-1.9,0.4s-1.5,0-1.6,0.1
						C305.8,122.6,305.9,120,308.2,120.3z"/>
				</g>
				<g>
					<path class="st7" d="M314,126.4c0,0,2.1-3.4,3.6-5.2c1-1.2,1.6,0.6,0.9,1.8C317.8,124.3,316.4,126.8,314,126.4z"/>
				</g>
			</g>
		</g>
	</g>
	<g>
		<g>
			<g>
				<g>
					<g>
						<path class="st3" d="M218.2,187.4l-4.6-29.4l-0.3-1.7l0-1.3l1-41.7l11.6-3.9l0.6-0.2l2.6-0.9l2.1-0.7l12.2,1.7l2,0.3l0.7,0.1
							l8.7,1.2c0.1,27.6-2.6,33.6,2.5,56C259.9,175.4,250.5,205.4,218.2,187.4z"/>
					</g>
				</g>
			</g>
		</g>
		<g>
			<g>
				<path class="st1" d="M224.7,179.9C224.7,179.9,224.7,179.9,224.7,179.9c9.1-2.6,15.8-8.9,19.8-13.7c4.3-5.2,6.5-9.9,6.5-10
					c0.1-0.2,0-0.5-0.2-0.6s-0.5,0-0.6,0.2c0,0.1-2.2,4.7-6.4,9.8c-3.9,4.7-10.4,10.9-19.3,13.4c-0.2,0.1-0.4,0.3-0.3,0.6
					C224.2,179.8,224.4,180,224.7,179.9z"/>
			</g>
		</g>
		<g>
			<g>
				<path class="st1" d="M235.1,180.4c7.9-2.2,14.6-8.9,14.9-9.2c0.2-0.2,0.2-0.5,0-0.6c-0.2-0.2-0.5-0.2-0.6,0
					c-0.1,0.1-7.9,7.9-16.4,9.4c-0.3,0-0.4,0.3-0.4,0.5c0,0.3,0.3,0.4,0.5,0.4C233.7,180.7,234.4,180.6,235.1,180.4z"/>
			</g>
		</g>
		<g>
			<g>
				<path class="st1" d="M229.4,121.7c7.9-2.2,14.6-8.9,14.9-9.2c0.2-0.2,0.2-0.5,0-0.7s-0.5-0.2-0.6,0c-0.1,0.1-7.9,8-16.4,9.4
					c-0.3,0-0.4,0.3-0.4,0.5c0,0.3,0.3,0.4,0.5,0.4C228.1,122,228.8,121.8,229.4,121.7z"/>
			</g>
		</g>
	</g>
	<g>
		<g>
			<polygon class="st7" points="299,263.5 302.3,270.6 295.7,273.4 291.9,266.1 			"/>
			<g>
				<g>
					<g>
						<path class="st3" d="M300.8,270.5c0,0,0.7-2.9,2-3.3c1.3-0.5,14.6,3.1,18.3,2.3s4.1,2,4,3.5c-0.1,1.5-27.3,11.3-27.3,11.3
							s-4.1-7.5-4.3-10.3C293.4,271.1,298.4,272.2,300.8,270.5z"/>
					</g>
					<g>
						<g>
							<path class="st8" d="M308.7,273.6c-0.1,0.1-0.2,0.1-0.4,0.1c-0.3,0-0.5-0.3-0.5-0.6c0-0.1,0.3-2.4,1.4-3.6
								c1.5-1.7,3.4-1.3,3.4-1.3c0.3,0.1,0.5,0.3,0.4,0.6s-0.3,0.5-0.6,0.4c0,0-1.4-0.3-2.4,1c-0.9,1.1-1.1,3.1-1.1,3.1
								C308.9,273.4,308.8,273.5,308.7,273.6z"/>
						</g>
						<g>
							<path class="st8" d="M306.7,272.9c-0.1,0.1-0.2,0.1-0.4,0.1c-0.3,0-0.5-0.3-0.5-0.6c0-0.1,0.3-2.4,1.4-3.6
								c1.5-1.8,3.4-1.3,3.4-1.3c0.3,0.1,0.5,0.3,0.4,0.6s-0.3,0.5-0.6,0.4c0,0-1.4-0.3-2.4,1c-0.9,1.1-1.1,3.1-1.1,3.1
								C306.9,272.6,306.8,272.8,306.7,272.9z"/>
						</g>
						<g>
							<path class="st8" d="M311.1,273.8c-0.1,0.1-0.2,0.1-0.4,0.1c-0.3,0-0.5-0.3-0.5-0.6c0-0.1,0.3-2.4,1.4-3.7
								c1.5-1.8,3.4-1.3,3.4-1.3c0.3,0.1,0.5,0.3,0.4,0.6s-0.3,0.5-0.6,0.4c0,0-1.4-0.3-2.4,1c-0.9,1.1-1.1,3.1-1.1,3.1
								C311.2,273.6,311.2,273.7,311.1,273.8z"/>
						</g>
					</g>
				</g>
			</g>
		</g>
		<g>
			<g>
				<g>
					<g>
						<g>
							<path class="st9" d="M300.7,264.9c-0.7,0.8-2.8,1.9-5.1,3c-0.4,0.2-0.8,0.4-1.3,0.5c-0.7,0.3-1.5,0.6-2.2,0.8
								c0,0-15.5-28.6-21.5-49.4c0,0-52.6-6.5-54.4-24.9c-0.1-0.6-0.1-1.3,0-1.9c0.2-1.8,0.8-3.6,1.9-5.6c1.2-2.1,19.2-0.1,28.9,2.7
								c0,0,26.4,10.3,36.1,20.9C288.2,216.3,300.7,264.9,300.7,264.9z"/>
						</g>
					</g>
				</g>
				<g>
					<path class="st10" d="M295.6,267.8c-0.4,0.2-0.8,0.4-1.3,0.5c-7.9-13-18.8-43.4-21.2-50.7c-0.2-0.5-0.6-0.9-1.1-1
						c-25.6-4.8-40.3-11.5-48.1-16.3c-3.5-2.1-5.9-4-7.6-5.6c-0.1-0.6-0.1-1.3,0-1.9c1.7,1.6,4.4,3.9,8.5,6.4
						c7.8,4.7,22.3,11.3,47.5,16c1,0.2,1.8,0.9,2.1,1.9C276.9,224.6,287.9,255.1,295.6,267.8z"/>
				</g>
			</g>
			<path class="st11" d="M289.4,266.2l2.5,4c0,0,6.2-1.1,10.4-5.3l-1.5-3.5C300.7,261.3,293.2,265,289.4,266.2z"/>
		</g>
	</g>
	<g>
		<path class="st7" d="M205.7,198.3c0,0,3.6,4.9,3.3,7.4s-3.5,7.2-6.1,7.5c-2.6,0.2,3-6.1,1.7-5.9c-1.6,0.3-12.3,9.1-14.6,9.1
			s2.7-4.1,4.6-5.1c0,0-5.1,2.3-6.3,3.4s-2-1.4,3.9-4.9c0,0-5.4,3.1-5.8,3.1c-1.2,0.2,2.2-3.9,5.2-5.3c0,0-4.3,2.1-4.8,2.1
			c-0.6,0,0.7-1.4,3.9-3.2c2.9-1.6,7.6-9,7.6-9L205.7,198.3z"/>
		<g>
			<path class="st1" d="M214.4,113.3c0,0-12.1,23.1-14.8,47.3l-1.3,36.8c0,0,1.2,2.6,7.4,0.9l5.9-36.8l4.6-16.8
				C216.2,144.7,218.3,124,214.4,113.3z"/>
		</g>
	</g>
	<ellipse class="st9" cx="238.3" cy="86" rx="13.3" ry="13.3"/>
	<path class="st9" d="M249.1,85.5l-17.3-3.1c0.6-0.8,0.3-1.3,1.2-2.6c1-1.5,5.6-1.6,7.9,0.1c2.4,1.7,5.2,1.6,6.4,2.1
		C248.4,82.5,249.5,84.1,249.1,85.5z"/>
	<g>
		<path class="st13" d="M248.6,91.6c0,0,2.6-2.4,3.7,0.2c1.1,2.6-2.2,8.9-5.7,6.6L248.6,91.6z"/>
		<g>
			<path class="st14" d="M247.7,96.4c0.1,0,0.3,0,0.4-0.2c0.9-2,3.3-2.4,3.3-2.4c0.2,0,0.3-0.2,0.3-0.4s-0.2-0.3-0.4-0.3
				c-0.1,0-2.6,0.5-3.8,2.8C247.4,96.1,247.5,96.3,247.7,96.4C247.7,96.4,247.7,96.4,247.7,96.4z"/>
		</g>
		<g>
			<g>
				<path class="st14" d="M250.1,95.8c0.1,0,0.1,0,0.2,0c0.2-0.1,0.2-0.3,0.2-0.4c0,0-0.3-0.7-1-1.2c-0.1-0.1-0.4-0.1-0.4,0.1
					c-0.1,0.2-0.1,0.3,0.1,0.4c0.6,0.4,0.8,0.9,0.8,0.9C249.9,95.7,250,95.7,250.1,95.8z"/>
			</g>
		</g>
	</g>
	<path class="st7" d="M231.3,101.6l-1.2,6.7c0,0,2.2,3.4,4.9,4.2c2.7,0.7,4.9-2.2,4.9-2.2l1.1-6.5L231.3,101.6z"/>
	<path class="st13" d="M231.3,101.6l-0.5,3c1.5,2.3,4.6,3.4,9.5,3.6l0.8-4.3L231.3,101.6z"/>
	<path class="st7" d="M227.2,83.1c-0.3,2.6-0.7,5.9-0.6,8.7c0,0.7,0,1.3,0.1,1.9c0.5,5.2,2.6,14.3,13.1,12.5
		c4.6-0.8,7.5-5.3,9.3-10.1c1.2-3.3,1.9-6.6,2.3-9.1c0.4-2.5-0.6-5-2.5-6.6c-5.3-4.3-11.6-4.2-16-3.4
		C229.9,77.6,227.6,80,227.2,83.1z"/>
	<path class="st9" d="M255.6,81.8c-0.1,3.7-4,4.1-4,4.1l-0.1,0l-2.4-0.4c0.4-1.4-0.8-3-1.8-3.4c-1.1-0.5-3.9-0.4-6.4-2.1
		c-2.3-1.7-6.9-1.6-7.9-0.1c-0.8,1.2-0.6,1.8-1.2,2.6c-0.3,0.4-0.8,0.8-1.7,1.3c-1.1,0.7-0.4,3.1-0.5,4.6c0,0.7-0.1,1-0.2,1.7
		l-0.1,0.4l-2.9-0.5c0.1-2.3,0.3-4.8,0.6-6.8c0.1-0.5,0.2-0.9,0.3-1.4l-1.2-0.2c0,0-1.8-2.1-0.8-4.6s2.2-5.4,7.8-4.8
		c3.8,0.4,8.3-6.4,12-2.4c3.1,3.3,3.5,1.5,6.1,2.5c3,1.2,1.9,3.2,1.2,5.5C251.8,80.1,255.8,78.7,255.6,81.8z"/>
	<path class="st9" d="M251.5,85.9c0,0.3,0,0.7-0.1,1.1c-0.3,1.9-0.8,4.5-1.6,7.1l-1.3-0.2c0.5-1.3,1-2.9,1-3.8
		c0-1.6-1.1-2.7-0.5-4.1c0.1-0.1,0.1-0.2,0.1-0.3L251.5,85.9z"/>
	<g>
		<path class="st7" d="M227.7,91.3c0.1-0.7,0.2-1.5,0.2-2.3c0-1-0.1-2-1.1-2.6c-0.8-0.5-1.6-0.6-2.4,0.2c-1.9,2-1.5,9.4,2.6,8.5
			L227.7,91.3z"/>
		<g>
			<g>
				<path class="st13" d="M226.6,92.9c-0.1-0.1-0.2-0.2-0.2-0.3c0.2-2.2-1.5-3.8-1.5-3.8c-0.1-0.1-0.1-0.3,0-0.5s0.3-0.1,0.5,0
					c0.1,0.1,2,1.8,1.8,4.3c0,0.2-0.2,0.3-0.4,0.3C226.6,93,226.6,92.9,226.6,92.9z"/>
			</g>
		</g>
		<g>
			<path class="st13" d="M224.9,91.1c-0.1,0-0.1-0.1-0.1-0.1c-0.1-0.2-0.1-0.3,0.1-0.4c0,0,0.6-0.4,1.5-0.5c0.2,0,0.3,0.1,0.3,0.3
				s-0.1,0.3-0.3,0.3c-0.7,0-1.1,0.3-1.1,0.3C225.1,91.2,225,91.2,224.9,91.1z"/>
		</g>
	</g>
	<g>
		<path class="st7" d="M377.9,245.1c0,0-4.4,8.3-9.5,14.9c-1.5,1.9-3.1,3.7-4.7,5.1c-2.5,2.2-5,3.4-7,2.4
			c-7.5-3.7-24.1-33.1-24.1-33.1l4.1-4.8c0,0,7.4,8.4,12.8,13.4c5,4.6,8.8,8.1,8.8,8.1c0.7-1,1.4-2.2,2.2-3.4c0.8-1.3,1.7-2.6,2.5-4
			c6.2-10,13.8-21,13.8-21L377.9,245.1z"/>
		<path class="st7" d="M337.7,232.6c0,0,1.7-2.8,1-5.3c-0.6-2.5-1.3-8.1-4-7.9c-1,0.1,0.5,2.4-0.2,4.6c0,0-2.9-1.4-4.9-2.8
			c-1.7-1.3-5.3-3.3-6.9-4.3c-0.5-0.3-1,0.2-0.7,0.7c0.4,0.7,1.5,1.8,3.9,3.3c0,0-5.9-3.3-6.9-2.6s6.5,4.8,6.5,4.8s-6.1-2.4-6.6-1.6
			c-0.3,0.6,5.6,4,5.6,4s-5.9-1.8-4.8-0.4c0.3,0.4,11.5,5.5,13.9,11.4C333.7,236.4,336.9,234.6,337.7,232.6z"/>
		<path class="st13" d="M368.4,260c-1.5,1.9-3.1,3.7-4.7,5.1l-3.2-17.3c0.8-1.3,1.7-2.6,2.5-4L368.4,260z"/>
		<g>
			<path class="st3" d="M377,222l-15.8,22.8l5,20.3l12.4-19.8C378.7,245.3,381,232.1,377,222z"/>
		</g>
	</g>
	<g>
		<polygon class="st7" points="385.1,416.9 385.1,424.1 391.9,424 392.3,416.3 		"/>
		<g>
			<path class="st9" d="M402.2,311.8c0,0.9-0.3,5-0.6,10.7c-1,15.7-2.7,43.6-3.8,49.9c-1.1,6.4-0.6,27.5-0.2,38.6
				c0.1,1.9-0.7,3.6-1.9,4.8c-0.5,0.5-1,0.9-1.6,1.2c-1,0.5-2.1,0.9-3.4,0.9h-5.1c-3.9,0-7-3.1-6.8-6.9c0.3-9.3,0.6-26.4,0-39.5
				c-0.6-12.5,0.3-34.7,1-48.5h0c0.3-5.5,0.5-9.7,0.6-11.4L402.2,311.8z"/>
		</g>
		<path class="st10" d="M380.4,311.5l21.8,0.3c0,0.9-0.3,5-0.6,10.7c-7.4,0.9-15.1,1.3-21.8,0.4C380,317.4,380.3,313.3,380.4,311.5z
			"/>
		<g>
			<path class="st10" d="M395.6,391.3c0.2,7.1,0.4,14.4,0.3,20.3c0,1.6-0.1,3.1-0.2,4.3c-0.5,0.5-1,0.9-1.6,1.2
				c0.1-1.4,0.2-3.2,0.3-5.5c0.1-5.9-0.1-13.1-0.3-20.2c-0.2-8.6-0.5-16.8,0-20.2c1-7.6,3.4-48.7,4-59.6l1.5,0.1
				c-0.6,11-3,52.1-4,59.8C395.1,374.7,395.3,382.8,395.6,391.3z"/>
		</g>
		<g>
			<g>
				<g>
					<g>
						<path class="st3" d="M386.9,423.8c0,0-1.4-1.9-2.5-1.9c-1.1,0.1-10.1,6.7-13.1,7.2c-3,0.5-2.5,2.7-2,3.8
							c0.5,1.1,24,0.1,24,0.1s0.8-6.8,0.1-8.9C392.6,422,389.2,424.3,386.9,423.8z"/>
					</g>
					<g>
						<g>
							<path class="st8" d="M381.9,428.5c0.1,0,0.2,0,0.3,0c0.2-0.1,0.3-0.4,0.2-0.6c0-0.1-0.9-1.6-2.1-2.3c-1.6-0.9-2.9,0-3,0.1
								c-0.2,0.1-0.2,0.4-0.1,0.6c0.1,0.2,0.4,0.2,0.6,0.1c0,0,0.9-0.6,2.1,0c1,0.5,1.8,1.9,1.8,2
								C381.7,428.4,381.8,428.4,381.9,428.5z"/>
						</g>
						<g>
							<path class="st8" d="M383.2,427.3c0.1,0,0.2,0,0.3,0c0.2-0.1,0.3-0.4,0.2-0.6c0-0.1-0.9-1.6-2.1-2.3c-1.6-0.9-2.9,0-3,0.1
								c-0.2,0.1-0.2,0.4-0.1,0.6c0.1,0.2,0.4,0.2,0.6,0.1c0,0,0.9-0.6,2.1,0c1,0.5,1.8,1.9,1.8,2
								C383,427.2,383.1,427.3,383.2,427.3z"/>
						</g>
						<g>
							<path class="st8" d="M380.2,429.4c0.1,0,0.2,0,0.3,0c0.2-0.1,0.3-0.4,0.2-0.6c0-0.1-0.9-1.6-2.1-2.3c-1.6-0.9-2.9,0-3,0.1
								c-0.2,0.1-0.2,0.4-0.1,0.6c0.1,0.2,0.4,0.2,0.6,0.1c0,0,0.9-0.6,2.1,0c1,0.5,1.8,1.9,1.8,2
								C380,429.3,380.1,429.3,380.2,429.4z"/>
						</g>
					</g>
				</g>
			</g>
		</g>
	</g>
	<g>
		<polygon class="st7" points="417.8,416.9 418.5,424 424.5,424 425,416.3 		"/>
		<g>
			<path class="st9" d="M430.2,371.5c-0.7,13.2-0.3,30.2,0,39.5c0.1,3.8-3,6.9-6.8,6.9h-5.1c-1.1,0-2.2-0.3-3.1-0.7
				c-0.6-0.3-1.1-0.6-1.5-1.1c-1.4-1.3-2.2-3.1-2.1-5.1c0.3-11,0.8-32.2-0.2-38.6c-1.1-6.4-2.9-35.2-3.8-50.7
				c-0.3-5.2-0.5-8.9-0.6-9.8l21.8,0.3c0.1,1.1,0.2,2.8,0.3,5C429.5,329.6,430.9,357,430.2,371.5z"/>
		</g>
		<path class="st10" d="M428.8,317.1c-4.1,1.1-12.3,3.1-21.5,4.6c-0.3-5.2-0.5-8.9-0.6-9.8l21.8,0.3
			C428.6,313.3,428.7,315,428.8,317.1z"/>
		<g>
			<path class="st10" d="M414.8,411.5c0,2.4,0.1,4.2,0.3,5.6c-0.6-0.3-1.1-0.6-1.5-1.1c-0.1-1.3-0.1-2.8-0.2-4.5
				c-0.1-5.9,0.1-13.2,0.3-20.3c0.2-8.6,0.5-16.6,0-20c-1-7.6-3.4-48.8-4-59.8l1.5-0.1c0.6,11,3,52.1,4,59.7
				c0.5,3.5,0.3,11.6,0,20.2C414.8,398.4,414.6,405.7,414.8,411.5z"/>
		</g>
		<g>
			<g>
				<path class="st3" d="M420.9,423c0,0,3-0.8,3.9-0.8c0.8,0,6.5,6.2,8.4,6.6c3.5,0.7,3.5,6,1.4,6.2c-6.1,0.8-16.5-1.8-16.5-1.8
					s-1-6.8-0.5-8.9C417.9,422.2,419.2,423.6,420.9,423z"/>
			</g>
			<g>
				<g>
					<path class="st8" d="M425.9,428.7c-0.1,0-0.2,0-0.3-0.1c-0.2-0.1-0.2-0.4-0.1-0.6c0-0.1,1.1-1.6,2.4-2.1c1.7-0.7,2.9,0.3,3,0.4
						c0.2,0.1,0.2,0.4,0,0.6c-0.1,0.2-0.4,0.2-0.6,0c0,0-0.9-0.7-2.1-0.2c-1,0.4-2,1.8-2,1.8C426.1,428.6,426,428.7,425.9,428.7z"/>
				</g>
				<g>
					<path class="st8" d="M424.8,427.5c-0.1,0-0.2,0-0.3-0.1c-0.2-0.1-0.2-0.4-0.1-0.6c0-0.1,1.1-1.6,2.4-2.1c1.7-0.7,2.9,0.3,3,0.4
						c0.2,0.1,0.2,0.4,0,0.6c-0.1,0.2-0.4,0.2-0.6,0c0,0-0.9-0.7-2.1-0.2c-1,0.4-2,1.8-2,1.8C425,427.4,424.9,427.5,424.8,427.5z"/>
				</g>
				<g>
					<path class="st8" d="M427.5,429.8c-0.1,0-0.2,0-0.3-0.1c-0.2-0.1-0.2-0.4-0.1-0.6c0-0.1,1.1-1.6,2.4-2.1c1.7-0.7,2.9,0.3,3,0.4
						c0.2,0.1,0.2,0.4,0,0.6c-0.1,0.2-0.4,0.2-0.6,0c0,0-0.9-0.7-2.1-0.2c-1,0.4-2,1.8-2,1.8C427.7,429.7,427.6,429.8,427.5,429.8z"
						/>
				</g>
			</g>
		</g>
	</g>
	<g>
		<g>
			<g>
				<path class="st3" d="M433.5,314c-19.7,4.9-39.4,4.9-59,0c-0.1-7.2-0.2-36,0.4-59.6c0-0.5,0-0.9,0-1.4c0-0.2,0-0.5,0-0.7v0
					c0-0.3,0-0.6,0-0.9c0.4-15.6,1.1-28.3,2.4-30l0,0c2.9-3.9,17.7-10.3,21.8-13.1c0.3,0.5,2.4,3.5,5,3.7c2.9,0.3,5.5-3.1,5.5-3.1
					v-0.6c4.1,2.8,17.5,8.6,20.4,12.6C433.1,225.3,433.6,301.8,433.5,314z"/>
			</g>
		</g>
		<g>
			<g>
				<path class="st1" d="M380.8,243.4c-1.7,2.2-4.2,7.3-5.3,9.7c-0.1,0.3-0.3,0.6-0.4,0.8c-0.1,0.3-0.2,0.4-0.2,0.4
					c0,0.1-0.1,0.1-0.2,0.2c0-0.5,0-0.9,0-1.4c0-0.2,0-0.5,0-0.7v0c0.2-0.5,0.5-1,0.8-1.7c1.3-2.6,3.1-6.1,4.4-7.9
					c0.1-0.2,0.4-0.2,0.6-0.1C380.9,242.9,381,243.1,380.8,243.4z"/>
			</g>
		</g>
		<g>
			<g>
				<path class="st1" d="M418.5,226L418.5,226c-7.8-0.2-13.9-3.4-17.6-6.1c-4-2.9-6.1-5.6-6.2-5.7c-0.1-0.2-0.1-0.5,0.1-0.6
					c0.2-0.1,0.5-0.1,0.6,0.1c0.1,0.1,8.5,11,23.1,11.4c0.3,0,0.5,0.2,0.4,0.5C419,225.8,418.8,226,418.5,226z"/>
			</g>
		</g>
		<g>
			<g>
				<path class="st1" d="M392.2,299c-0.2,0-0.4-0.2-0.5-0.4c0-0.3,0.2-0.5,0.4-0.5c12.9-0.8,20.5-7.2,24.7-12.4
					c4.5-5.7,6-11.2,6-11.3c0.1-0.2,0.3-0.4,0.6-0.3c0.2,0.1,0.4,0.3,0.3,0.5c-0.1,0.2-1.5,5.8-6.2,11.5
					C413.3,291.6,405.4,298.1,392.2,299C392.2,299,392.2,299,392.2,299z"/>
			</g>
		</g>
		<g>
			<g>
				<path class="st1" d="M399.1,291c-0.2,0-0.4-0.1-0.4-0.3c-0.1-0.2,0.1-0.5,0.3-0.5c11.2-3,13.3-12.1,13.3-12.2
					c0-0.2,0.3-0.4,0.5-0.3c0.3,0,0.4,0.3,0.4,0.5c0,0.1-0.6,2.5-2.6,5.3c-1.8,2.6-5.3,6-11.4,7.6C399.1,291,399.1,291,399.1,291z"
					/>
			</g>
		</g>
	</g>
	<g>
		<path class="st7" d="M448,313.2c-0.3,3.9-2.7,6.8-2.7,9.4s-3,0.9-1.6-4.2c1.4-5.1-0.7-10-1.8-10c-1.1,0,0.4,5.7-0.8,7.6
			s-2-2.1-3.1-4.5c-1.1-2.5-0.5-7.8,0.5-11.5c1-3.7-3.8-27.3-3.1-34l-1.7-8.6l-1-5l-0.2-5.3l9.1-3.5c0.3,1.7,0.7,3.4,1,5.2
			c0.1,0.8,0.3,1.6,0.5,2.3c1.2,6.3,2.3,12.5,2.8,16.5c1.2,11-0.8,33.4-0.8,33.4S448.2,309.6,448,313.2z"/>
		<path class="st13" d="M443,251.1c-2.1,2.3-5.4,5.2-9.4,6.3l-1-5l-0.2-5.3l9.1-3.5c0.3,1.7,0.7,3.4,1,5.2
			C442.7,249.5,442.9,250.3,443,251.1z"/>
		<g>
			<path class="st3" d="M445.5,246.1c0,0-1.1,1.3-3,2.6c-2.3,1.7-5.8,3.6-10,3.6c-0.5-14.6-1.3-26.9-2.3-30.5
				C432.2,224.2,441.4,235.7,445.5,246.1z"/>
		</g>
	</g>
	<g>
		<g>
			<path class="st1" d="M426.3,241.9c1.7,2.2,4.2,7.3,5.3,9.7c0.1,0.3,0.3,0.6,0.4,0.8c0.1,0.3,0.2,0.4,0.2,0.4
				c0.1,0.2,0.2,0.3,0.4,0.3h0c0-0.2,0-0.5,0-0.7c0.1,0,0.3,0,0.4,0c-0.1-0.1-0.2-0.4-0.4-0.9c-0.3-0.6-0.6-1.4-1.1-2.2
				c-1.3-2.6-3.1-6.1-4.4-7.9c-0.1-0.2-0.4-0.2-0.6-0.1C426.2,241.4,426.2,241.7,426.3,241.9z"/>
		</g>
	</g>
	<path class="st9" d="M418.1,185c0,7.9-5,13.3-13,13.3c-8,0-13.7-5.8-13.7-13.7s4.8-13.9,12.8-13.9
		C413.9,170.7,418.1,177.1,418.1,185z"/>
	<g>
		<path class="st13" d="M416.3,188.4c0,0,2.2-2.9,3.9-0.5c1.7,2.4-0.7,9.6-4.8,7.8L416.3,188.4z"/>
		<g>
			<g>
				<g>
					<path class="st14" d="M416.3,193.5c0.1,0,0.3-0.1,0.3-0.3c0.6-2.2,3-3.1,3-3.1c0.2-0.1,0.3-0.3,0.2-0.4
						c-0.1-0.2-0.3-0.3-0.4-0.2c-0.1,0-2.7,1-3.4,3.6C415.9,193.2,416,193.4,416.3,193.5C416.2,193.5,416.3,193.5,416.3,193.5z"/>
				</g>
			</g>
		</g>
		<g>
			<g>
				<g>
					<path class="st14" d="M418.6,192.4c0.1,0,0.1,0,0.2-0.1c0.2-0.1,0.2-0.3,0.1-0.5c0,0-0.4-0.6-1.3-1c-0.2-0.1-0.4,0-0.5,0.2
						c-0.1,0.2,0,0.4,0.2,0.4c0.7,0.3,1,0.8,1,0.8C418.4,192.3,418.5,192.4,418.6,192.4z"/>
				</g>
			</g>
		</g>
	</g>
	<g>
		<path class="st13" d="M393.2,188.4c0,0-2.2-2.9-3.9-0.5c-1.7,2.4,0.7,9.6,4.8,7.8L393.2,188.4z"/>
		<g>
			<path class="st14" d="M393.2,193.5c-0.1,0-0.3-0.1-0.3-0.3c-0.6-2.2-3-3.1-3-3.1c-0.2-0.1-0.3-0.3-0.2-0.4
				c0.1-0.2,0.3-0.3,0.4-0.2c0.1,0,2.7,1,3.4,3.6C393.6,193.2,393.4,193.4,393.2,193.5C393.2,193.5,393.2,193.5,393.2,193.5z"/>
		</g>
		<g>
			<g>
				<g>
					<path class="st14" d="M390.8,192.4c-0.1,0-0.1,0-0.2-0.1c-0.2-0.1-0.2-0.3-0.1-0.5c0,0,0.4-0.6,1.3-1c0.2-0.1,0.4,0,0.5,0.2
						c0.1,0.2,0,0.4-0.2,0.4c-0.7,0.3-1,0.8-1,0.8C391,192.3,390.9,192.4,390.8,192.4z"/>
				</g>
			</g>
		</g>
	</g>
	<path class="st7" d="M399.2,201.8v7.1c0,0,2.2,3.6,5.1,3.9c2.9,0.3,5.5-3.1,5.5-3.1v-7.4L399.2,201.8z"/>
	<path class="st13" d="M399.2,201.8v3.1c2,2.1,5.4,2.7,10.6,1.9v-4.6L399.2,201.8z"/>
	<path class="st7" d="M417.5,188.2c-0.1,1.5-0.3,3.1-0.6,4.7c-1,5.2-3.2,10.4-7.9,12c-10.7,3.7-14.5-5.2-16-10.5
		c-0.2-0.6-0.3-1.2-0.5-1.9c-0.2-1.3-0.4-2.6-0.6-4c-0.2-1.7-0.3-3.4-0.4-4.9c-0.2-3.2,1.8-6.1,4.8-7.3c4.4-1.6,11-2.9,17.3,0.6
		c2.3,1.3,3.8,3.7,3.8,6.3C417.6,184.6,417.6,186.3,417.5,188.2z"/>
	<path class="st9" d="M416.1,188.5c-0.4,0.6-2.4,6.7-2.9,7.5c-1.3-2.7-7.4-0.7-7.4-0.7c-0.4,0.1-0.8,0.2-1.2,0.2
		c-0.4,0-0.8-0.1-1.1-0.2l0,0c0,0-6.2-1.9-7.4,1c-0.6-0.8-2.3-6.8-2.6-7.8h-1.6c0.1,1.4,0.3,2.8,0.6,4c0.1,0.7,0.3,1.3,0.5,1.9
		c1.5,5.2,5.3,14.2,16,10.5c4.7-1.6,6.9-6.8,7.9-12c0.3-1.6,0.5-3.2,0.6-4.7L416.1,188.5z M410.4,199.5L410.4,199.5L410.4,199.5
		c-0.5,0.4-1,0.8-1.4,1.1c-2.7,1.4-3,1.2-4.1,1.3c-1.1,0.1-2.6-0.3-4.1-1.1c-0.5-0.3-1.2-0.8-2-1.5c0,0-1.1-3.7,5.9-2.8
		C411.7,195.4,410.5,198.8,410.4,199.5z"/>
	<path class="st9" d="M392,188.5h1.6c-0.2-1.5-0.4-4.2,0.9-4.6c4.1-1.2-1.2-4,0.6-5.4c1.8-1.4,6.4-0.8,9.6-0.9
		c3.2-0.1,8.3-0.1,9.6,0.2c1.3,0.3,0.6,2.3,0.1,3.9c-0.5,1.6,1.5,3.3,1.9,4.9c0.1,0.5,0.1,1.2,0,1.9h1.3c0.1-2,0.2-3.8,0.1-5.3
		c0-2.6-1.5-5-3.8-6.3c-6.3-3.5-13-2.2-17.3-0.6c-3,1.1-5,4.1-4.8,7.3C391.7,185,391.8,186.8,392,188.5z"/>
	<g>
		<g>
			<path class="st8" d="M163.3,361.2H84.1c1.3-7.9,7.6-13.7,14.9-13.7l24.6,0.1l24.6-0.1C155.7,347.5,162,353.2,163.3,361.2z"/>
		</g>
		<g>
			<rect x="90.3" y="360" class="st8" width="4.3" height="73.8"/>
			<rect x="152.7" y="360" class="st8" width="4.3" height="73.8"/>
			<rect x="94.7" y="380.7" class="st0" width="58.1" height="4.2"/>
		</g>
	</g>
	<g>
		<path class="st1" d="M104.3,261.8c0,0-13.2,17.6-15,33c-1.2,10.9,15,27.1,15,27.1l5.6-2.8l-5.6-12.6c-2-6.1-4.4-8.5-2.6-14.7
			l4-8.7L104.3,261.8z"/>
	</g>
	<g>
		<path class="st1" d="M146,261.5c0,0,13.1,18.8,14.1,34.2c0.9,13.3-15,26.1-15,26.1l-4.6-2.3l6.4-12.7c2-6.1,2.9-9.8,0.2-16.5
			l-3.4-7.3L146,261.5z"/>
	</g>
	<g>
		<g>
			<path class="st3" d="M107,302l-8.8,27.9c0,0,37.9,4.8,49.6,1.7l-5.9-30.4l4.1-39.6c-5.7-2.4-11.7-3.9-17.9-4.4
				c-9-0.6-14.6,0.8-23.8,4.6L107,302z"/>
		</g>
		<g>
			<g>
				<path class="st1" d="M116.5,270.2c8.4-1,16.2-6.7,16.5-7c0.2-0.1,0.3-0.5,0.1-0.6c-0.1-0.2-0.4-0.3-0.6-0.1
					c-0.1,0.1-9.3,6.8-18.1,7c-0.3,0-0.5,0.2-0.5,0.5c0,0.3,0.2,0.5,0.5,0.5C115.1,270.3,115.8,270.3,116.5,270.2z"/>
			</g>
		</g>
	</g>
	<g>
		<polygon class="st7" points="123.2,419.6 123.9,425.7 130.5,425.9 131,420.8 		"/>
		<g>
			<path class="st10" d="M122.2,322c0,0-17-0.9-22.7,3.8c-5.7,4.7-4.6,18.2,1.3,21.9s15.8,10.9,15.8,10.9l6.3,63.1l8.4,0.3
				c0,0,7.7-63.4,3.8-75.6C131.2,334,122.2,322,122.2,322z"/>
			<path class="st9" d="M132.1,418.7c0.5,1.5,0.2,2.9-0.2,4.3l-9.6-0.2c-0.3-1.4-0.4-2.8-0.2-4.2L132.1,418.7z"/>
		</g>
	</g>
	<g>
		<path class="st8" d="M146.2,321.5h-44.5l-4.1-24c-0.4-2.1,1.3-4,3.4-4h46c2.1,0,3.7,1.9,3.4,4L146.2,321.5z"/>
		<g>
			<path class="st0" d="M142.6,326.7h-37.3c-2,0-3.6-1.6-3.6-3.6v-1.6h44.5v1.6C146.3,325.1,144.6,326.7,142.6,326.7z"/>
		</g>
		<g>
			<path class="st0" d="M127.9,308.5c0,2.1-1.7,3.9-3.9,3.9s-3.9-1.7-3.9-3.9c0-2.1,1.7-3.9,3.9-3.9
				C126.2,304.6,127.9,306.4,127.9,308.5z"/>
		</g>
	</g>
	<g>
		<polygon class="st7" points="95.4,402.3 94,408.4 99.9,409.5 102.3,404.1 		"/>
		<g>
			<path class="st9" d="M130.8,320.9c0,0-11.3-3.9-18,4.3c-6.7,8.2-17.8,77.6-17.8,77.6l7.6,3.1l24.6-61.6c0,0,20,11.4,22.4-4.8
				C151.6,326.7,130.8,320.9,130.8,320.9z"/>
			<path class="st11" d="M104.4,402.8c0,1.6-0.7,2.9-1.6,4.2l-9.4-3.3c0.1-1.5,0.5-2.9,1.2-4.2L104.4,402.8z"/>
		</g>
	</g>
	<g>
		<g>
			<path class="st3" d="M98.5,407.4c0,0-3.6-1.8-4.6-2c-1.1-0.2-9.7,5.9-12.2,5.9c-4.4-0.1-5.9,6.4-3.3,7.3
				c7.3,2.6,20.8,2.3,20.8,2.3s3-8.1,3.1-10.9C102.3,407.2,100.4,408.6,98.5,407.4z"/>
		</g>
		<g>
			<g>
				<path class="st8" d="M90.7,413.1c0.1,0.1,0.3,0.1,0.4,0c0.3-0.1,0.4-0.4,0.3-0.7c0-0.1-0.9-2.2-2.3-3.2
					c-1.9-1.3-3.7-0.4-3.8-0.4c-0.3,0.1-0.3,0.5-0.2,0.7c0.1,0.3,0.5,0.4,0.7,0.2c0.1,0,1.3-0.6,2.6,0.3c1.2,0.8,2,2.7,2,2.7
					C90.5,413,90.6,413.1,90.7,413.1z"/>
			</g>
			<g>
				<path class="st8" d="M92.5,411.9c0.1,0.1,0.3,0.1,0.4,0c0.3-0.1,0.4-0.4,0.3-0.7c0-0.1-0.9-2.2-2.3-3.2
					c-1.9-1.3-3.7-0.4-3.8-0.4c-0.3,0.1-0.3,0.5-0.2,0.7c0.1,0.3,0.5,0.4,0.7,0.2c0.1,0,1.3-0.6,2.6,0.3c1.2,0.8,2,2.7,2,2.7
					C92.2,411.8,92.3,411.9,92.5,411.9z"/>
			</g>
			<g>
				<path class="st8" d="M88.4,414c0.1,0.1,0.3,0.1,0.4,0c0.3-0.1,0.4-0.4,0.3-0.7c0-0.1-0.9-2.2-2.3-3.2c-1.9-1.3-3.7-0.4-3.8-0.4
					c-0.3,0.1-0.3,0.5-0.2,0.7c0.1,0.3,0.5,0.4,0.7,0.2c0.1,0,1.3-0.6,2.6,0.3c1.2,0.8,2,2.7,2,2.7C88.2,413.9,88.3,414,88.4,414z"
					/>
			</g>
		</g>
	</g>
	<g>
		<g>
			<path class="st3" d="M126.4,425.5c0,0,3.6-1.1,4.7-1.1c1,0,8.1,7.2,10.4,7.5c4.2,0.6,4.4,7,1.9,7.4c-7.3,1.2-19.9-1.3-19.9-1.3
				s-1.5-8.1-1.1-10.7C122.9,424.7,124.4,426.3,126.4,425.5z"/>
		</g>
		<g>
			<g>
				<path class="st8" d="M132.8,432.2c-0.1,0-0.3,0-0.4-0.1c-0.2-0.1-0.3-0.5-0.2-0.7c0.1-0.1,1.2-1.9,2.7-2.6
					c2-0.9,3.5,0.2,3.6,0.3c0.2,0.2,0.3,0.5,0.1,0.7s-0.5,0.3-0.7,0.1c0,0-1.1-0.8-2.5-0.2c-1.2,0.6-2.3,2.2-2.3,2.2
					C133,432.1,132.9,432.2,132.8,432.2z"/>
			</g>
			<g>
				<path class="st8" d="M131.3,430.8c-0.1,0-0.3,0-0.4-0.1c-0.2-0.1-0.3-0.5-0.2-0.7c0.1-0.1,1.2-1.9,2.7-2.6
					c2-0.9,3.5,0.2,3.6,0.3c0.2,0.2,0.3,0.5,0.1,0.7s-0.5,0.3-0.7,0.1c0,0-1.1-0.8-2.5-0.2c-1.2,0.6-2.3,2.2-2.3,2.2
					C131.6,430.7,131.4,430.7,131.3,430.8z"/>
			</g>
			<g>
				<path class="st8" d="M134.8,433.4c-0.1,0-0.3,0-0.4-0.1c-0.2-0.1-0.3-0.5-0.2-0.7c0.1-0.1,1.2-1.9,2.7-2.6
					c2-0.9,3.5,0.2,3.6,0.3c0.2,0.2,0.3,0.5,0.1,0.7c-0.2,0.2-0.5,0.3-0.7,0.1c0,0-1.1-0.8-2.5-0.2c-1.2,0.6-2.3,2.2-2.3,2.2
					C135,433.3,134.9,433.4,134.8,433.4z"/>
			</g>
		</g>
	</g>
	<path class="st9" d="M136.4,222c0,0,5.4,8.4,4.8,17.1c-0.6,8.7,0.8,18.7-7,18.3c-7.8-0.4-21.7,3.1-26.1-3.7
		C103.6,247,136.4,222,136.4,222z"/>
	<path class="st15" d="M138.4,237.4c0,0,1.4,12.6-4.6,16.1c-6,3.5-10.3-0.4-10.3-0.4S136.1,235.5,138.4,237.4z"/>
	<g>
		<path class="st13" d="M113.5,237.4c0,0-2.2-2.9-3.8-0.5s0.7,9.4,4.6,7.7L113.5,237.4z"/>
		<g>
			<path class="st14" d="M113.4,242.4c-0.1,0-0.3-0.1-0.3-0.2c-0.6-2.2-2.8-3-2.9-3.1c-0.2-0.1-0.3-0.3-0.2-0.4
				c0.1-0.2,0.3-0.3,0.4-0.2c0.1,0,2.6,1,3.3,3.5C113.8,242.1,113.7,242.3,113.4,242.4C113.5,242.4,113.5,242.4,113.4,242.4z"/>
		</g>
		<g>
			<path class="st14" d="M111.2,241.3c-0.1,0-0.1,0-0.2-0.1c-0.2-0.1-0.2-0.3-0.1-0.5c0,0,0.4-0.6,1.2-1c0.2-0.1,0.4,0,0.4,0.2
				c0.1,0.2,0,0.4-0.2,0.4c-0.6,0.3-0.9,0.8-1,0.8C111.4,241.2,111.3,241.3,111.2,241.3z"/>
		</g>
	</g>
	<g>
		<path class="st13" d="M135.6,237.4c0,0,2.1-2.9,3.8-0.5s-0.7,9.4-4.6,7.7L135.6,237.4z"/>
		<g>
			<path class="st14" d="M135.7,242.4c0.1,0,0.3-0.1,0.3-0.2c0.6-2.2,2.9-3,2.9-3.1c0.2-0.1,0.3-0.3,0.2-0.4
				c-0.1-0.2-0.3-0.3-0.4-0.2c-0.1,0-2.6,1-3.3,3.5C135.3,242.1,135.4,242.3,135.7,242.4C135.6,242.4,135.6,242.4,135.7,242.4z"/>
		</g>
		<g>
			<path class="st14" d="M137.9,241.3c0.1,0,0.1,0,0.2-0.1c0.1-0.1,0.2-0.3,0.1-0.5c0,0-0.4-0.6-1.2-1c-0.2-0.1-0.4,0-0.4,0.2
				c-0.1,0.2,0,0.4,0.2,0.4c0.6,0.3,0.9,0.8,1,0.8C137.7,241.2,137.8,241.3,137.9,241.3z"/>
		</g>
	</g>
	<path class="st7" d="M129.9,250.4v7c0,0-2.1,3.5-4.9,3.8c-2.8,0.2-5.3-3-5.3-3v-7.2L129.9,250.4z"/>
	<path class="st13" d="M129.9,250.4v3.1c-1.9,2.1-5.2,2.8-10.2,2.1v-4.7L129.9,250.4z"/>
	<path class="st7" d="M137.2,232.6c-0.1,2.7-0.4,6.1-0.9,8.8c-0.1,0.7-0.3,1.3-0.4,1.9c-1.5,5.1-5.1,13.9-15.4,10.3
		c-4.5-1.6-6.6-6.7-7.6-11.8c-0.6-3.5-0.7-7-0.7-9.5c0.1-2.6,1.4-4.9,3.7-6.2c6.1-3.4,12.4-2.1,16.6-0.5
		C135.5,226.6,137.3,229.4,137.2,232.6z"/>
	<path class="st9" d="M138.5,232c-0.1,0.3-0.4,0.5-0.8,0.6c0,0.7-0.1,1.6-0.1,2.4c-0.4,4.8-1.6,5.6-1.9,4.4
		c-0.2-0.8-0.2-5.3-0.1-6.8c-0.9-0.1-1.8-0.2-1.8-0.2l-1.1-4.6l-0.4,4.6c-1.7,0.6-5.5-0.4-5.5-0.4l-1.3-4.6l-0.8,4.4
		c-2.5,1.2-5.6,0.4-5.6,0.4l-0.7-4.8l-1.7,4.8c0,0-5.3,1.9-5.4,0c0-1.1,0.8-4.2,1.5-6.7c0.8-2.6,2.5-4.9,4.8-6.1
		c6.6-3.5,13.6-1.7,16-0.2C138.7,222.4,138.5,232,138.5,232z"/>
	<path class="st9" d="M114.3,222.4c0,0-4.4,5.2-5.8,14.5s-3.4,16.2,2.2,19.3c6.1,3.3,5.5-3.5,5.5-5.4c-0.1-1.9-5.3-6.9-1.8-21.2
		C115.4,225,114.3,222.4,114.3,222.4z"/>
	<path class="st15" d="M113.3,241.6C113.3,241.6,113.3,241.6,113.3,241.6c0,0.1,0,0.4,0,1c0,0.4,0,0.8,0.1,1.3
		c0.2,3.1,0.8,8.6,2.6,10.4c0.7,0.7,2.1,1.1,3.7,1.3v-2.5c-1.7-0.8-3-2.1-4-3.8c-0.6-1.4-1.7-3.5-2.2-6.9L113.3,241.6z"/>
	<path class="st8" d="M137.3,244.7c0,0.4-0.4,0.8-0.8,0.8s-0.8-0.4-0.8-0.8s0.4-0.8,0.8-0.8C136.9,243.9,137.3,244.2,137.3,244.7z"
		/>
	<g>
		<g>
			<g>
				<g>
					<path class="st4" d="M370.8,177.9h-19c-1.5,0-2.6-1.2-2.6-2.6v-19c0-1.5,1.2-2.6,2.6-2.6h19c1.5,0,2.6,1.2,2.6,2.6v19
						C373.4,176.8,372.2,177.9,370.8,177.9z"/>
				</g>
			</g>
			<g>
				<path class="st6" d="M369.5,165.8c0,2-0.7,3.8-1.9,5.3c-1.5,1.8-3.8,3-6.4,3s-4.9-1.2-6.4-3c-1.2-1.4-1.9-3.3-1.9-5.3
					c0-4.6,3.7-8.3,8.3-8.3C365.8,157.5,369.5,161.2,369.5,165.8z"/>
				<path class="st8" d="M367.6,171.1c-1.5,1.8-3.8,3-6.4,3s-4.9-1.2-6.4-3l0.1-0.2c0.2-0.4,0.4-0.7,0.7-0.9c0.3-0.3,0.6-0.4,1-0.6
					c1.4-0.4,2.6-0.8,3.3-2c-0.9-0.4-1.4-1.2-1.7-1.8c-0.9,0.2-1.6-1.5-1.1-2c0.2-0.2,0.4-0.2,0.5-0.2c0.1-1.8,1.6-3.3,3.4-3.3
					s3.3,1.6,3.4,3.3c0.2,0,0.4,0,0.5,0.2c0.5,0.5-0.2,2.2-1.1,2c-0.2,0.6-0.9,1.4-1.5,1.7c0.7,1.2,1.8,1.7,3.2,2.1
					c0.4,0.1,0.7,0.3,1,0.6c0.3,0.3,0.5,0.6,0.7,0.9L367.6,171.1z"/>
			</g>
		</g>
		<g>
			<g>
				<g>
					<path class="st4" d="M55.1,307.1h-19c-1.5,0-2.6-1.2-2.6-2.6v-19c0-1.5,1.2-2.6,2.6-2.6h19c1.5,0,2.6,1.2,2.6,2.6v19
						C57.8,305.9,56.6,307.1,55.1,307.1z"/>
				</g>
			</g>
			<path class="st8" d="M46,286.9c-3.1-0.2-5.7,2.3-5.7,5.3c0,1,0.3,1.9,0.7,2.7c0.7,1.2,1.4,2.4,2.1,3.6l2.5,4.5l3.8-6.9
				c0.2-0.4,0.5-0.8,0.7-1.2c0.5-0.8,0.8-1.8,0.7-2.8C50.9,289.4,48.7,287.1,46,286.9z M45.6,293.8c-1.2,0-2.2-1-2.2-2.2
				s1-2.2,2.2-2.2c1.2,0,2.2,1,2.2,2.2S46.9,293.8,45.6,293.8z"/>
		</g>
		<g>
			<g>
				<g>
					<g>
						<path class="st3" d="M454.3,185.9c3,0,5.4,2.4,5.4,5.4s-2.4,5.4-5.4,5.4c-3,0-5.4-2.4-5.4-5.4S451.3,185.9,454.3,185.9z
							 M454.3,195.1c2,0,3.7-1.7,3.7-3.7s-1.7-3.7-3.7-3.7s-3.7,1.7-3.7,3.7S452.2,195.1,454.3,195.1z"/>
					</g>
				</g>
			</g>
			<g>
				<path class="st4" d="M434.7,166.9c3,0,5.4,2.4,5.4,5.4s-2.4,5.4-5.4,5.4c-3,0-5.4-2.4-5.4-5.4
					C429.3,169.4,431.8,166.9,434.7,166.9z M434.7,176.1c2,0,3.7-1.7,3.7-3.7s-1.7-3.7-3.7-3.7s-3.7,1.7-3.7,3.7
					S432.7,176.1,434.7,176.1z"/>
			</g>
			<g>
				<g>
					<g>
						<g>
							<path class="st3" d="M428,149.3c0.5,0,0.9,0.4,0.9,0.9v3.8c0,0.5-0.4,0.9-0.9,0.9s-0.9-0.4-0.9-0.9v-3.8
								C427.2,149.7,427.6,149.3,428,149.3z"/>
						</g>
					</g>
					<g>
						<g>
							<path class="st3" d="M428,142.7c0.5,0,0.9,0.4,0.9,0.9v3.8c0,0.5-0.4,0.9-0.9,0.9s-0.9-0.4-0.9-0.9v-3.8
								C427.2,143.1,427.6,142.7,428,142.7z"/>
						</g>
					</g>
				</g>
				<g>
					<g>
						<g>
							<path class="st3" d="M422.8,147.9h3.4c0.5,0,0.9,0.4,0.9,0.9s-0.4,0.9-0.9,0.9h-3.4c-0.5,0-0.9-0.4-0.9-0.9
								S422.3,147.9,422.8,147.9z"/>
						</g>
					</g>
					<g>
						<g>
							<path class="st3" d="M429.9,147.9h3.4c0.5,0,0.9,0.4,0.9,0.9s-0.4,0.9-0.9,0.9h-3.4c-0.5,0-0.9-0.4-0.9-0.9
								S429.5,147.9,429.9,147.9z"/>
						</g>
					</g>
				</g>
			</g>
			<g>
				<g>
					<g>
						<g>
							<g>
								<path class="st4" d="M458,170.3c0.5,0,0.9,0.4,0.9,0.9v3.8c0,0.5-0.4,0.9-0.9,0.9s-0.9-0.4-0.9-0.9v-3.8
									C457.1,170.7,457.5,170.3,458,170.3z"/>
							</g>
						</g>
						<g>
							<g>
								<path class="st4" d="M458,163.8c0.5,0,0.9,0.4,0.9,0.9v3.8c0,0.5-0.4,0.9-0.9,0.9s-0.9-0.4-0.9-0.9v-3.8
									C457.1,164.1,457.5,163.8,458,163.8z"/>
							</g>
						</g>
					</g>
					<g>
						<g>
							<g>
								<path class="st4" d="M452.7,168.9h3.4c0.5,0,0.9,0.4,0.9,0.9s-0.4,0.9-0.9,0.9h-3.4c-0.5,0-0.9-0.4-0.9-0.9
									S452.3,168.9,452.7,168.9z"/>
							</g>
						</g>
						<g>
							<g>
								<path class="st4" d="M459.9,168.9h3.4c0.5,0,0.9,0.4,0.9,0.9s-0.4,0.9-0.9,0.9h-3.4c-0.5,0-0.9-0.4-0.9-0.9
									S459.4,168.9,459.9,168.9z"/>
							</g>
						</g>
					</g>
				</g>
			</g>
		</g>
		<g>
			<g>
				<g>
					<g>
						<path class="st3" d="M118.4,116.7c3,0,5.4,2.4,5.4,5.4s-2.4,5.4-5.4,5.4s-5.4-2.4-5.4-5.4S115.5,116.7,118.4,116.7z
							 M118.4,118.4c-2.1,0-3.7,1.7-3.7,3.7s1.7,3.7,3.7,3.7s3.7-1.7,3.7-3.7C122.2,120.1,120.5,118.4,118.4,118.4z"/>
					</g>
				</g>
			</g>
			<g>
				<g>
					<g>
						<g>
							<path class="st4" d="M98.7,98.8c3,0,5.4,2.4,5.4,5.4s-2.4,5.4-5.4,5.4s-5.4-2.4-5.4-5.4C93.3,101.2,95.7,98.8,98.7,98.8z
								 M98.7,100.5c-2.1,0-3.7,1.7-3.7,3.7s1.7,3.7,3.7,3.7s3.7-1.7,3.7-3.7C102.4,102.2,100.8,100.5,98.7,100.5z"/>
						</g>
					</g>
				</g>
			</g>
			<g>
				<g>
					<g>
						<g>
							<path class="st3" d="M91.6,129.8c0,0.5,0.4,0.9,0.8,0.9h3.8c0.5,0,0.8-0.4,0.8-0.9s-0.4-0.9-0.8-0.9h-3.8
								C91.9,128.9,91.6,129.3,91.6,129.8z"/>
						</g>
					</g>
					<g>
						<g>
							<path class="st3" d="M85,129.8c0,0.5,0.4,0.9,0.8,0.9h3.8c0.5,0,0.8-0.4,0.8-0.9s-0.4-0.9-0.8-0.9h-3.8
								C85.4,128.9,85,129.3,85,129.8z"/>
						</g>
					</g>
				</g>
				<g>
					<g>
						<g>
							<path class="st3" d="M90.2,124.5v3.4c0,0.5,0.4,0.9,0.8,0.9s0.8-0.4,0.8-0.8v-3.4c0-0.5-0.4-0.8-0.8-0.8
								C90.5,123.7,90.2,124.1,90.2,124.5z"/>
						</g>
					</g>
					<g>
						<g>
							<path class="st3" d="M90.2,131.7v3.4c0,0.5,0.4,0.9,0.8,0.9s0.8-0.4,0.8-0.9v-3.4c0-0.5-0.4-0.9-0.8-0.9
								C90.5,130.8,90.2,131.2,90.2,131.7z"/>
						</g>
					</g>
				</g>
			</g>
			<g>
				<g>
					<g>
						<g>
							<g>
								<path class="st4" d="M131.3,100.5c0,0.5,0.4,0.8,0.9,0.8h3.8c0.5,0,0.9-0.4,0.9-0.8s-0.4-0.8-0.9-0.8h-3.8
									C131.6,99.6,131.3,100,131.3,100.5z"/>
							</g>
						</g>
						<g>
							<g>
								<g>
									<path class="st4" d="M124.7,100.5c0,0.5,0.4,0.8,0.8,0.8h3.8c0.5,0,0.9-0.4,0.9-0.8s-0.4-0.8-0.9-0.8h-3.8
										C125.1,99.6,124.7,100,124.7,100.5z"/>
								</g>
							</g>
						</g>
					</g>
					<g>
						<g>
							<g>
								<path class="st4" d="M129.9,95.2v3.4c0,0.5,0.4,0.8,0.9,0.8s0.9-0.4,0.9-0.8v-3.4c0-0.5-0.4-0.8-0.9-0.8
									S129.9,94.8,129.9,95.2z"/>
							</g>
						</g>
						<g>
							<g>
								<path class="st4" d="M129.9,102.4v3.4c0,0.5,0.4,0.8,0.9,0.8s0.9-0.4,0.9-0.8v-3.4c0-0.5-0.4-0.8-0.9-0.8
									S129.9,101.9,129.9,102.4z"/>
							</g>
						</g>
					</g>
				</g>
			</g>
		</g>
		<g>
			<g>
				<g>
					<g>
						<path class="st0" d="M357.4,126.7c0.1,0,0.2,0,0.4,0c1.3-0.3,2-0.4,2-0.4c0.4-0.1,0.6-0.4,0.6-0.8c-0.1-0.4-0.4-0.6-0.8-0.5
							c0,0-0.8,0.1-2.1,0.5c-0.4,0.1-0.6,0.5-0.5,0.8C356.9,126.4,357.1,126.6,357.4,126.7z"/>
					</g>
				</g>
				<g>
					<g>
						<path class="st0" d="M315.7,157.5c-0.7,1.1-1.3,2.3-1.9,3.5c-0.1,0.3-0.5,0.4-0.8,0.4c0,0-0.1,0-0.1,0
							c-0.4-0.2-0.5-0.6-0.3-0.9c0.6-1.2,1.3-2.4,2-3.6c0.2-0.3,0.6-0.4,1-0.3C315.8,156.8,315.9,157.2,315.7,157.5z"/>
					</g>
					<g>
						<path class="st0" d="M312.1,164.7c-0.5,1.2-1,2.5-1.5,3.7c-0.1,0.3-0.5,0.5-0.9,0.4c0,0,0,0,0,0c-0.4-0.1-0.6-0.5-0.5-0.9
							c0.5-1.3,1-2.6,1.5-3.8c0.1-0.4,0.6-0.5,0.9-0.4C312.1,163.9,312.3,164.3,312.1,164.7z"/>
					</g>
					<g>
						<path class="st0" d="M306,184.4c-0.4-0.1-0.6-0.4-0.5-0.7c0.2-1.3,0.4-2.7,0.6-4c0.1-0.4,0.4-0.6,0.8-0.6
							c0.4,0.1,0.6,0.4,0.6,0.8c-0.2,1.3-0.5,2.6-0.6,3.9C306.9,184.2,306.5,184.5,306,184.4C306.1,184.4,306,184.4,306,184.4z"/>
					</g>
					<g>
						<path class="st0" d="M308.9,171.4c0.4,0.1,0.6,0.5,0.5,0.8c-0.2,0.6-0.4,1.2-0.5,1.8c-0.2,0.7-0.4,1.4-0.5,2.1
							c-0.1,0.4-0.5,0.6-0.9,0.5c0,0,0,0,0,0c-0.4-0.1-0.6-0.4-0.5-0.8c0.2-0.7,0.4-1.4,0.5-2.1c0.2-0.6,0.3-1.2,0.5-1.8
							C308.1,171.5,308.5,171.3,308.9,171.4C308.9,171.4,308.9,171.4,308.9,171.4z"/>
					</g>
					<g>
						<path class="st0" d="M317.9,154.1c-0.2,0.3-0.5,0.4-0.8,0.3c-0.1,0-0.1,0-0.2-0.1c-0.3-0.2-0.4-0.6-0.2-0.9
							c0.8-1.1,1.6-2.3,2.4-3.4c0.2-0.3,0.7-0.4,1-0.1s0.4,0.6,0.2,0.9C319.4,151.9,318.6,153,317.9,154.1z"/>
					</g>
					<g>
						<path class="st0" d="M353.7,127.8c-1.3,0.4-2.6,0.9-4,1.4c-0.1,0.1-0.3,0.1-0.5,0c-0.2-0.1-0.4-0.2-0.5-0.4
							c-0.1-0.3,0-0.7,0.4-0.9c1.3-0.5,2.7-1,4-1.4c0.4-0.1,0.8,0.1,0.9,0.4C354.3,127.3,354.1,127.7,353.7,127.8z"/>
					</g>
					<g>
						<path class="st0" d="M342.2,132.7c-0.2,0.1-0.4,0.1-0.5,0.1c-0.2,0-0.4-0.2-0.5-0.3c-0.2-0.3-0.1-0.7,0.3-0.9
							c1.3-0.6,2.5-1.3,3.8-1.9c0.4-0.2,0.8,0,1,0.3c0.2,0.3,0,0.7-0.3,0.9C344.6,131.4,343.4,132,342.2,132.7z"/>
					</g>
					<g>
						<path class="st0" d="M328.6,142c-0.2,0.2-0.4,0.2-0.7,0.2c-0.1,0-0.3-0.1-0.4-0.2c-0.3-0.3-0.3-0.7,0-0.9
							c1-0.9,2.1-1.8,3.2-2.7c0.3-0.2,0.8-0.2,1,0.1s0.2,0.7-0.1,0.9C330.6,140.2,329.6,141.1,328.6,142z"/>
					</g>
					<g>
						<path class="st0" d="M335.1,136.9c-0.2,0.1-0.4,0.2-0.6,0.1c-0.2,0-0.3-0.1-0.4-0.3c-0.2-0.3-0.2-0.7,0.2-0.9
							c1.1-0.8,2.4-1.6,3.6-2.3c0.3-0.2,0.8-0.1,1,0.2c0.2,0.3,0.1,0.7-0.2,0.9C337.4,135.4,336.2,136.1,335.1,136.9z"/>
					</g>
					<g>
						<path class="st0" d="M322.8,147.7c-0.2,0.2-0.5,0.3-0.7,0.2c-0.1,0-0.2-0.1-0.3-0.1c-0.3-0.2-0.4-0.7-0.1-0.9
							c0.9-1,1.9-2.1,2.9-3c0.3-0.3,0.7-0.3,1,0c0.3,0.3,0.3,0.7,0,0.9C324.6,145.7,323.7,146.7,322.8,147.7z"/>
					</g>
				</g>
			</g>
			<g>
				<g>
					<g>
						<polygon class="st3" points="358.1,122.1 356.6,110.9 394.7,116.3 						"/>
					</g>
					<g>
						<polygon class="st1" points="394.7,116.3 359.5,125 359.5,125 357.7,127 358.1,122.1 						"/>
					</g>
					<g>
						<polygon class="st2" points="357.7,127 360.8,127 359.5,125 						"/>
					</g>
					<g>
						<polygon class="st3" points="363.9,123.9 359.5,125 366.6,135.2 394.7,116.3 						"/>
					</g>
				</g>
			</g>
		</g>
	</g>
</g>
<g id="DESIGNED_BY_FREEPIK">
</g>
</svg>
