<?xml version="1.0" encoding="utf-8"?>
<!-- Generator: Adobe Illustrator 23.0.1, SVG Export Plug-In . SVG Version: 6.00 Build 0)  -->
<svg version="1.1" id="Слой_1" xmlns="http://www.w3.org/2000/svg" xmlns:xlink="http://www.w3.org/1999/xlink" x="0px" y="0px"
	 viewBox="0 0 3200 2000" style="enable-background:new 0 0 3200 2000;" xml:space="preserve">
<style type="text/css">
	.st0{fill:#F5F5F5;}
	.st1{fill:#EBEBEB;}
	.st2{fill:#C9C9C9;}
	.st3{fill:#007477;}
	.st4{fill:#00858E;}
	.st5{fill:#FFC93C;}
	.st6{fill:#FFB27D;}
	.st7{fill:#E2915A;}
	.st8{fill:#EDB22F;}
	.st9{fill:#263238;}
	.st10{fill:#163560;}
	.st11{fill:#F9DDBF;}
	.st12{fill:#F4A269;}
	.st13{fill:#2E3552;}
	.st14{fill:#FFFFFF;}
	.st15{fill:#FFEAC5;}
	.st16{fill:#F2CCAA;}
	.st17{fill:#E8945B;}
	.st18{fill:#B5453C;}
	.st19{fill:#95C0F4;}
	.st20{fill:#B0D4FF;}
	.st21{fill:#ED975D;}
	.st22{fill:#EBF3FA;}
</style>
<path class="st0" d="M327.4,1756.8c0,0-199.3-223.7-100.8-655.7c62-271.7,325.1-439.1,671.3-393.5c320.5,42.2,315.2-127.2,595.6-289
	c599.9-345.9,1467.6-199,1260,579.1c-100.5,376.6,316.1,382.6,109.1,759L327.4,1756.8L327.4,1756.8z"/>
<g>
	<path class="st1" d="M2027.2,348.2l-28-1.3h-0.7c-3.4-0.1-6.4,2.3-6.9,5.6l-3.6,23.1c-0.1,0.4-0.1,0.8-0.3,1.1
		c-0.9,2.4-3.1,4.3-5.7,4.4c-15.5,1.3-30.6,5.6-44.4,12.8c-0.6,0.3-1.2,0.5-1.8,0.6c-2.3,0.4-4.7-0.4-6.3-2.1l-12.8-14.7
		c-1.7-1.9-4.4-2.7-6.8-2c-0.7,0.2-1.5,0.5-2.1,1l-23.5,16.4c-2.9,2-3.8,6-2,9l13,22.5c1.3,2.2,1.2,5-0.3,7.1
		c-2.1,3.1-4,6.2-5.8,9.5c-3.4,6.2-6.1,12.5-8.3,18.9l0,0c-0.9,2.7-3.3,4.5-6.1,4.6l-26.4,1.1l-1.3,0.1c-3.4,0.1-6.2,2.8-6.3,6.3
		l-1.3,28.6c-0.1,3.5,2.3,6.6,5.8,7.1l25.7,4c2.9,0.4,5.1,2.7,5.6,5.5c2.1,11.9,6,23.5,11.7,34.2c1.4,2.7,0.8,6.1-1.6,8.1
		l-17.4,15.3c-2.6,2.3-3.1,6.2-1.1,9.1l16.5,23.6c2,2.8,5.7,3.6,8.6,1.9l26.4-15.3c2.2-1.3,5-1.2,7.2,0.2c2.7,1.8,5.4,3.4,8.3,5
		c5.4,3,10.9,5.4,16.4,7.5c2.5,0.9,4.3,3.2,4.4,5.9l1.2,31.7c0.2,3.5,2.9,6.3,6.4,6.4l28.7,1.3c3,0.1,5.8-1.9,6.7-4.7
		c0.1-0.3,0.2-0.6,0.2-0.9l4.5-28.6c0.4-2.7,2.3-4.8,4.9-5.5c0.2-0.1,0.5-0.1,0.7-0.2c0.7-0.1,1.4-0.2,2.1-0.4
		c8.2-1.4,16.2-3.7,24-6.8c2.6-1.1,5.6-0.3,7.4,1.8l16.1,18.4c2.3,2.6,6.2,3.1,9,1.1l5.2-3.6l18.2-12.8c2.9-2,3.7-5.8,2-8.9
		l-12.9-22.1c-1.4-2.4-1.1-5.3,0.6-7.4c4.6-5.5,8.7-11.6,12.3-18.2c2.7-4.9,5-9.9,6.9-14.9l5.5-0.2l22.7-0.9c2.8-0.1,5.2-2,6-4.6
		c0.2-0.5,0.3-1.1,0.3-1.7l1.4-28.8c0.1-3.4-2.3-6.4-5.7-6.9l-17.6-2.7c-3-0.5-5.3-2.9-5.6-5.9c-1.2-12.4-4.3-24.5-9.2-35.9
		c-1.2-2.7-0.5-5.8,1.7-7.6l22-19.3c2.4-2.2,2.9-5.8,1-8.5l-16.7-23.8c-2-2.8-5.8-3.7-8.7-1.9l-27.5,15.9c-2.4,1.4-5.3,1.2-7.5-0.5
		c-4.6-3.6-9.7-6.9-15-9.8c-2.9-1.6-5.8-3-8.7-4.4c-2.3-1-3.8-3.3-4-5.8l-1.2-30.4C2033.5,351.2,2030.7,348.4,2027.2,348.2z
		 M1940.2,460.9c4.5-6.3,10.2-12.2,17.4-17.3c1.5-1.1,3.3-2.1,5.3-3.1c8.5-4.2,20-7,28.2-6.6c63.1,3.3,85.6,78.2,35.9,115.7
		c-0.8,0.6-1.7,1.2-2.5,1.8c-7.9,5.6-22.5,9.7-32.1,9.3c-5.1-0.2-9.9-0.9-14.4-1.9C1932.7,548,1914.8,496.9,1940.2,460.9z"/>
</g>
<g>
	<path class="st2" d="M2406.9,547.5l-42.7-7.3l-1-0.2c-5.2-0.9-10.2,2.3-11.6,7.3l-9.9,34.7c-0.2,0.6-0.4,1.1-0.6,1.6
		c-1.8,3.6-5.5,5.9-9.6,5.7c-24-1-47.9,2.7-70.4,11.1c-0.9,0.3-1.9,0.5-2.8,0.6c-3.6,0.2-7.2-1.5-9.3-4.5l-16.9-25
		c-2.2-3.3-6.2-4.9-9.9-4.4c-1.1,0.2-2.3,0.5-3.5,1.1l-39.1,20.6c-4.8,2.5-6.9,8.4-4.8,13.4l15.7,36.9c1.5,3.6,0.8,7.8-1.8,10.8
		c-3.8,4.3-7.3,8.7-10.7,13.4c-6.4,8.8-11.8,17.9-16.4,27.4l0,0c-1.9,3.9-5.9,6.3-10.3,5.9l-40.6-3.4l-2-0.2
		c-5.2-0.5-10,3.2-10.9,8.4l-7.5,43.6c-0.9,5.3,2.3,10.5,7.5,12l38.7,11.1c4.3,1.2,7.3,5.1,7.5,9.5c1,18.7,4.7,37.1,11.3,54.6
		c1.6,4.5,0,9.5-3.9,12.1l-29.6,20c-4.5,3.1-5.9,8.9-3.4,13.7l20.7,39.2c2.5,4.6,8.1,6.6,12.8,4.6l43.4-18.4c3.7-1.6,7.9-0.9,11,1.7
		c3.7,3.2,7.6,6.3,11.7,9.2c7.7,5.6,15.6,10.4,23.7,14.6c3.7,1.9,5.9,5.8,5.5,9.9l-4.2,48.8c-0.4,5.4,3.3,10.2,8.6,11.1l43.8,7.5
		c4.6,0.8,9.2-1.7,11.1-5.9c0.2-0.4,0.4-0.9,0.5-1.4l12.3-42.9c1.1-4,4.5-6.9,8.6-7.5c0.4-0.1,0.7-0.1,1.1-0.1c1.1,0,2.1,0,3.2-0.2
		c12.8-0.6,25.6-2.6,38.1-5.9c4.1-1.2,8.6,0.5,11,4.2l21.2,31.2c3,4.4,8.9,5.9,13.6,3.4l8.7-4.6l30.3-16.1c4.8-2.5,6.8-8.2,4.7-13.2
		l-15.4-36.4c-1.7-3.9-0.7-8.3,2.4-11.2c8-7.6,15.5-16.1,22.3-25.5c5-6.9,9.5-14.2,13.4-21.5l8.5,0.7l34.9,2.9
		c4.3,0.4,8.4-2,10.1-5.9c0.4-0.8,0.6-1.6,0.8-2.5l7.6-43.9c0.9-5.2-2.4-10.2-7.4-11.7l-26.4-7.5c-4.5-1.3-7.6-5.5-7.5-10.1
		c0.6-19.2-1.8-38.4-7.2-56.7c-1.3-4.3,0.3-8.9,4-11.3l37.4-25.3c4.2-2.9,5.6-8.4,3.2-12.9l-21-39.6c-2.5-4.7-8.1-6.7-12.9-4.6
		l-45.2,19.1c-3.9,1.7-8.3,0.8-11.4-2.2c-6.4-6.4-13.5-12.4-21.1-17.9c-4.1-3-8.3-5.8-12.6-8.3c-3.3-2-5.2-5.8-5-9.7l4-46.8
		C2416,553.3,2412.3,548.4,2406.9,547.5z M2252.1,703.4c8.1-8.8,18-16.7,30-23.1c2.5-1.4,5.5-2.6,8.7-3.8c13.8-4.8,32-6.9,44.5-4.7
		c96.1,17.1,116.2,136.3,32.7,184.2c-1.4,0.8-2.8,1.5-4.2,2.3c-13.2,7-36.3,10.6-51,8.1c-7.7-1.3-15-3.3-21.7-5.7
		C2223.9,835.5,2206.2,753.8,2252.1,703.4z"/>
</g>
<path class="st1" d="M989.6,857.5c-2.4-59.5,47.5-85.9,98.5-85.9s106.5,13.2,111.3,92.3c3.1,50.9-24,82.2-102.2,82.2
	c-26.3,0-46.8-4.2-62.5-11.6l-39.1,34.7l19.2-48C997.8,905.4,990.6,883.1,989.6,857.5z"/>
<g>
	<path class="st3" d="M504.5,1754c0,0-2.1-16.5-7-26.3s-36.1-3.6-36.1-3.6s-6.2,5.3-7.6,30.3L504.5,1754z"/>
	<path class="st3" d="M610.8,1753.8c-7.3-4.5-3.2-37.9-3.2-37.9s34.2-27.3,38.9-6.4s32.5,30.3,48.3,32.9
		c10.9,1.8,14.3,7.8,15.3,11.4H610.8z"/>
	<path class="st4" d="M540,1511c1.4,7.7,2.3,13.9,2.5,18.5c3.2,61.9,52.1,203.6,60.9,206.9c13.6,5.1,34.9-5.8,46.1-9.3
		c4.6-1.5,7.7-6.1,6.7-10.9c-24.2-111.5-33.2-272-36.4-367c-1.6-47.9-9.9-80.9-9.9-80.9s-119.4-31.9-120.1,8.4
		C489.2,1312.3,529.4,1452.2,540,1511z"/>
	<path class="st3" d="M540,1511l79.8-161.9c-1.6-47.9-9.9-80.9-9.9-80.9s-119.4-31.9-120.1,8.4C489.2,1312.3,529.4,1452.2,540,1511z
		"/>
	<path class="st4" d="M566.6,1276.8l-63.1,457.6c0,0-27.7,6.7-49.3,1.3c0,0-18.5-243.4-16.9-302.2c1.5-58.8-13.3-157.4,3.4-168.3
		C457.2,1254.3,566.6,1276.8,566.6,1276.8z"/>
	<path class="st5" d="M436.2,1159.3l-7.9,109.9c-0.3,4.1,2.3,7.9,6.3,9c8.8,2.6,19,4.3,38.5,8.4c18.4,3.8,43.1,7.2,73.5,7.4
		c48.4,0.3,66.7-16.4,66.7-16.4c2.1,0-1.1-10.1-4-58.2c-1-16.3-1.9-37-2.6-63.1c-0.6-23.5-1-51.4-1.1-84.5
		c-0.1-39.8-61.7-82.7-62.9-82.7l0,0c0,5.7-9,16.3-23,17.2c-16.5,1.1-36.8-7.1-36.8-16.7c0-0.1-29.9,47.8-40.5,98.8
		c-1.4,6.5-2.4,13.3-3.2,20.5c0,0.1,0,0.2,0,0.3c-0.2,1.3-0.3,2.6-0.4,4c0,0.2,0,0.5-0.1,0.7c-0.1,1.2-0.2,2.4-0.4,3.7
		c0,0.3-0.1,0.7-0.1,1.1c-0.1,1.1-0.2,2.2-0.3,3.4c0,0.1,0,0.2,0,0.3c-0.1,0.8-0.1,1.7-0.2,2.5c0,0.6-0.1,1.2-0.1,1.8
		c-0.1,1-0.1,2-0.2,3c0,0.5-0.1,1-0.1,1.5c-0.1,1-0.1,1.9-0.2,2.9c0,0.4-0.1,0.9-0.1,1.3c-0.1,1.4-0.2,2.8-0.2,4.2
		c0,0.1,0,0.2,0,0.3c-0.1,1.4-0.1,2.7-0.2,4.1c0,0.3,0,0.7,0,1c-0.1,1.3-0.1,2.6-0.2,3.9c0,0.2,0,0.4,0,0.6
		C436.4,1152.7,436.3,1156,436.2,1159.3c0,0.1,0,0.2,0,0.2V1159.3z"/>
	<path class="st5" d="M542.9,989.1c0,0,57.3-0.5,71.1,18.9s44.1,123.5,28.3,158.1s-45.3-14.3-61.7-35.6
		C564.2,1109.3,542.9,989.1,542.9,989.1z"/>
	<path class="st6" d="M543.5,980.4v5.9c0,0,1.6,18.5-21.2,21.2s-39.7-3.5-39.1-17.8c2.1-11.1,3.9-22.4,4.1-31.5
		c0.1-3.4-0.2-7-0.8-11.1l44.2-0.9l13,2.1L543.5,980.4z"/>
	<path class="st7" d="M543.7,948.3l-0.2,32.1c-4.7,2.2-10,3.5-15.9,3.5c-20.3,0-33.5-14.9-40.3-25.7c0.1-3.4-0.2-7-0.8-11.1
		l44.2-0.9L543.7,948.3z"/>
	<path class="st6" d="M483,939.9c5.1,27.6,40.8,26.7,56.2,25c4.3-0.5,7.1-1,7.1-1c4.9-1.3,7.6-9,8.9-19.1c2.5-20-0.7-49.2-4-56.7
		c-5.1-11.3-14.6-23.5-50.5-14.7C464.7,882.2,476.4,904.5,483,939.9z"/>
	<path class="st8" d="M601.5,1066.7c0,0,22.2,49,21.5,63.7c0,0-11-0.4-21.5,2.8C584.2,1138.3,601.5,1066.7,601.5,1066.7z"/>
	<path class="st9" d="M562.1,861.8c0,0-15.8-1.2-34.4-9.3c-15.1-6.6-34.2,0.7-40.4,3.9c0.2-1,0.6-2.4,1.5-3.7c0,0-2.8,2-3.2,4.7
		c-0.3,0.2-0.4,0.4-0.3,0.4c0,0-3.2-0.6-5.2,0.3c0,0,1.4-0.2,1.9,0.7c0.1,0.1,0.1,0.2,0.2,0.3c-23.6,11.4-25.8,48.7-18.2,57.3
		c9.1,10.4,20.1,33.8,20.1,33.8s4-5.5,2.3-14.7c-1.7-9.1,6.2-9.1,16.2-13.3c10-4.2,1.7-15.8,10.4-22.8c8.7-7.1,40.7-2.9,40.3-8.3
		C565.2,886.7,562.1,863,562.1,861.8z"/>
	<path class="st8" d="M475.8,1158.4c9.4,37.6,110.6,57,133.6,61c-1-16.3-1.9-37-2.6-63.1L475.8,1158.4z"/>
	<path class="st6" d="M498,1170.7c-1,0-22.5-3.2-26.4-5.1s-21.5-27-9.9-33.4s42.6,19.3,42.6,19.3L498,1170.7z"/>
	<path class="st5" d="M629,1178.1c0,0-83.3,4.5-139.2-7.5c0,0-1.4-16.2,16.2-23.3c0,0,87.1-18.5,108.1-13.3
		C635,1139.1,629,1178.1,629,1178.1z"/>
	<path class="st5" d="M437.7,1112.7c17.3,20.8,39.9,37.9,64.8,41.9l0,0c0.2-0.3,7.5-11.5,6.2-27.8c-0.6-7.6-3.1-16.3-9.1-25.5
		c-1.8-2.8-3.5-6.2-4.9-9.9c-13.6-34.7-11.6-101.6-11.6-101.6s-57.8,6.1-75.8,31.8C396.3,1037.2,410.4,1079.8,437.7,1112.7z"/>
	<path class="st7" d="M539.2,964.9c4.3-0.5,7.1-1,7.1-1c4.9-1.3,7.6-9,8.9-19.1c-9.2,2.3-13.4,9.3-15.1,12.4
		C539.2,958.5,539.1,961.5,539.2,964.9z"/>
	<path class="st6" d="M562.5,980.5c0,0,20-32.9,4.4-34.4c-15.5-1.4-21.8,9.1-24,12.9c-2.2,3.9,0.6,21.3,0.6,21.3L562.5,980.5z"/>
	<path class="st5" d="M486.4,1125.6c0.6,4.2,1.9,8,3.4,11.4c4.9,10.8,12.7,17.5,12.7,17.5l0,0c51.8-23.4,62.3-103.7,64.1-147.9
		c0.7-17.7,0-29.6,0-29.6c-23.4-7.7-30,5.7-30,5.7s-27.6,65.7-41.9,108.6C489.2,1107.7,485.7,1120.8,486.4,1125.6z"/>
	<path class="st8" d="M437.7,1112.7c17.3,20.8,39.9,37.9,64.8,41.9l0,0c51.8-23.4,62.3-103.7,64.1-147.9c0,0-24.5,89-57.9,120
		c-6,5.6-12.4,9.4-18.9,10.3c0,0-42.1-11.9-50.9-23.1C438.2,1113.2,437.9,1112.8,437.7,1112.7z"/>
</g>
<g>
	<g>
		<g>
			<path class="st1" d="M2092.5,1399.4c0,0,32.9-38.6,1.9-63c0,0-22.7-13.6-41.1-12.5c0,0,26.3,43.8,17.8,48.2
				c-8.5,4.4-25.8-50.9-25.8-50.9s-51.5-4.9-68.1,3.2c0,0,44.2,35.9,34.9,38.1c-9.3,2.2-57-33.1-57-33.1s-47.9,8.3-45.3,37.5
				s19.2,38.2,26.5,37.4c7.3-0.8,49.7-17.1,50.6-11.2s-24.6,25.5-42.5,26.4c0,0,33.9,37.2,56.4,26.4c22.4-10.8,24.3-27.9,38.3-34.3
				s25.9-6.5,20.2,0.1s-31.1,13-39.1,27.1c-8,14.2-15.1,23.8,8.1,20.2s61-20.7,62.6-40.2C2092.5,1399.4,2092.5,1399.4,2092.5,1399.4
				z"/>
			<g>
				<path class="st1" d="M1933.3,1367.6c0,0,130.3-5.4,159.1,31.8c0,0,6.4,19,26,36.3l3.1,8.3c0,0-22.6-23.7-30.7-25.2
					C2090.9,1418.9,2103.4,1372.7,1933.3,1367.6z"/>
				<path class="st1" d="M2118.5,1435.7c0,0,28,20.6,30.1,57.5l-5.1,0.5c0,0-9-38.2-25.2-53.1
					C2102.1,1425.8,2118.5,1435.7,2118.5,1435.7z"/>
			</g>
		</g>
		<g>
			<path class="st1" d="M2267.2,1297.5c0,0-52.6-29.3-28.2-69.3c0,0,19.6-24.6,40.6-30.9c0,0-11,59.6,0.2,61s7.5-67.3,7.5-67.3
				s55.3-26.8,77-24.7c0,0-34.2,58.3-23,56.8s49.6-60.4,49.6-60.4s56.7-10.7,65.9,22.9s-5.5,50.5-13.9,52.6s-62.4,1.6-60.9,8.6
				c1.4,7,37.9,18.1,58.2,11.8c0,0-22.3,55.4-51.7,52.7s-38.6-20.9-56.8-22.3s-31.5,3.6-22.4,8.5s39.9,1.5,54.7,14
				s26.7,20.1-0.6,25.8c-27.3,5.7-76.4,2.3-86.2-18.7C2267.2,1297.5,2267.2,1297.5,2267.2,1297.5z"/>
			<g>
				<path class="st1" d="M2430.9,1196.1c0,0-147,48.1-163.7,101.4c0,0,0.8,23.8-13.9,51.2v10.5c0,0,15.3-35.8,23.7-40.7
					C2277,1318.5,2244,1272.3,2430.9,1196.1z"/>
				<path class="st1" d="M2253.3,1348.7c0,0-22.6,34.5-9.5,76.4l5.8-1.6c0,0-5.8-46.2,6-69.5
					C2267.4,1330.8,2253.3,1348.7,2253.3,1348.7z"/>
			</g>
		</g>
		<g>
			<path class="st1" d="M2183.4,1257.1c0,0,69.2-39,36.7-91.6c0,0-26-32.3-53.7-40.5c0,0,15,78.5,0.2,80.4s-10.4-88.7-10.4-88.7
				s-73.1-34.9-101.7-32c0,0,45.5,76.5,30.7,74.7s-65.8-79.3-65.8-79.3s-74.9-13.6-86.7,30.7c-11.9,44.4,7.6,66.5,18.7,69.2
				s82.2,1.6,80.4,10.9c-1.8,9.2-49.8,24.2-76.6,15.9c0,0,29.8,72.9,68.5,69.1c38.8-3.8,50.7-27.9,74.7-29.8s41.6,4.5,29.6,11
				s-52.6,2.3-72,18.8c-19.4,16.5-35,26.8,1,34c36,7.3,100.7,2.5,113.6-25.3S2183.4,1257.1,2183.4,1257.1z"/>
			<g>
				<path class="st1" d="M1966.9,1124.7c0,0,194.2,62.3,216.5,132.4c0,0-0.8,31.4,18.7,67.4v13.9c0,0-20.5-47.1-31.6-53.5
					C2170.6,1284.9,2213.8,1223.8,1966.9,1124.7z"/>
				<path class="st1" d="M2202.1,1324.5c0,0,30,45.3,13.1,100.7l-7.7-2c0,0,7.3-60.9-8.4-91.5
					C2183.4,1301.1,2202.1,1324.5,2202.1,1324.5z"/>
			</g>
		</g>
	</g>
	<g>
		<g>
			<path class="st5" d="M2635.1,1746l-568.8,1.4c-84.6-96.9-93.2-227.8,19.2-338.1c14.1-13.9,41.2-23.7,70.5-30.6
				c53.9-12.8,114.9-15.7,115.4-15.9c0.2-0.1,32.3-26.1,51.6-49.5c60-72.6,111.1-66.4,111.1-66.4c61.2-11.9,113.3-15.3,152,6.2l0,0
				c35.8,20,60.1,61.5,69.1,137.7c1.7,14.4,2.9,30.1,3.5,47.1c2.2,61.9,14.4,116.9,21.6,163.5l0,0
				C2690.7,1668.8,2690.8,1718.6,2635.1,1746z"/>
		</g>
		<path class="st8" d="M2555.7,1329.4c-37.1,20.2-41.3,86.8-99.3,104c-58.1,17.2-156.7,15.6-212.6,76.2
			c-54,58.5-113.4-90.4-87.8-132.3c53.9-12.8,114.9-15.7,115.4-15.9c0.2-0.1,32.3-26.1,51.6-49.5c60-72.6,111.1-66.4,111.1-66.4
			c61.2-11.9,113.3-15.3,152,6.2l0,0C2605.7,1273.2,2592.8,1309.2,2555.7,1329.4z"/>
		<g>
			<path class="st3" d="M2327.9,1348.5c0,0-186.2-2.4-211.1,13.4c-24.8,15.9,25.6,268.1,25.6,268.1s48.2,1.4,52-11.4
				c0,0-9-118.2-1.5-138.7c7.5-20.4,2.8-48.7,2.8-48.7s94.2,14.1,124.1,7S2327.9,1348.5,2327.9,1348.5z"/>
			<path class="st6" d="M2371,1218.1c0,0.1-26.2,61.1-39,67.6s-59,59.6-68.9,58.7s11.6,8.1,11.6,8.1s80.8-37.3,85.5-39.6
				c4.7-2.3,29.5-43.1,32.9-63.7S2371,1218.1,2371,1218.1z"/>
			<path class="st6" d="M2200.3,1648.8c-6.2,12-7.6,34-9.5,41.5c-1.8,7.5-34.4,32.9-37.2,31.6c-7.1-3.2-0.3-15.6,4-24.7
				c0.2-0.4,0.3-0.7,0.5-1.1c4.3-9.1,0.6-29.5,2.8-40.1c2.2-10.5-8.5-38.9-8.5-38.9l18-22.7c0,0,12.6,24,21.7,28.4
				c1.6,0.8,3.1,1.7,4.4,2.8C2202.8,1630.7,2205.4,1639,2200.3,1648.8z"/>
			<path class="st6" d="M2137.1,1719c-12.5,5.1-27.7,21.1-34,25.6c-6.2,4.5-47.5,2.9-48.8,0.1c-3.5-7.3,10.9-12.5,20.1-16.8
				c0.1-0.1,0.3-0.1,0.4-0.2l0,0c9.1-4.6,19.2-22.1,27.6-28.6c8.5-6.6,18.6-35.2,18.6-35.2l28.4-5.8c0,0-5.8,26.5-1.8,35.7
				c0.4,0.9,0.7,1.7,1,2.6C2151.3,1705,2148.4,1714.3,2137.1,1719z"/>
			<path class="st10" d="M2424.5,1191.1c-3.8-4.4,56.1-22.4,68.9,26.7c0,0,110.2-29.3,42.5-78.4c-23.5-17-25.8-35.1-29.2-51.7
				s-26.8-64.3-67.4-40.6c0,0-18.6,0.1-30.3,10.3C2382.2,1080.4,2353,1227.5,2424.5,1191.1z"/>
			<path class="st4" d="M2405.7,1357.1c0,0-193.1,19.6-210.1,39.3c-17,19.7-83.7,276.1-83.7,276.1s19.7,11,37.6,0.7
				c0,0,51.1-87,73.7-114.3c22.6-27.3,31.1-111.6,34.8-112.5s124.8,16.9,166.4-15.1C2466.1,1399.5,2405.7,1357.1,2405.7,1357.1z"/>
			<path class="st11" d="M2513.3,1181.9c0,0-46.1-20.6-104.5-11.2c-11.9,1.9-22.7,5.8-31.2,19.9c-12.1,19.9-17.7,30.5-17.7,30.5
				s1.2,9.2,17.6,16.5c-4.5,16.5,4.1,45.2-3.8,56.4c-7.9,11.2-57,38.8-59.4,54.2c-4.5,28.3,83.9,79.6,110.2,74.1
				C2500.2,1406.6,2551.7,1203.5,2513.3,1181.9z"/>
			<path class="st10" d="M2487.2,1123.6c0,0,9.1-17.9,10.3-32.5c0.9-10.5-8-48.1-45.8-39c0,0-11,2.1-20.8,10.2
				c-7.8,6.4-18.7,19.7-2.1,51.7l4.5,10.9L2487.2,1123.6z"/>
			<g>
				<path class="st6" d="M2435.3,1183.9c-3.8,4-2.3,17.4,15.6,16.4c11.8-0.7,36.9-15.2,34.6-25.2c-1.1-4.8-10.2-17.1-12.3-45.4
					l-2.1,0.6l-35.9,10.1c0,0,1.7,11.4,2.6,22.2C2438.5,1171.6,2436.9,1182.2,2435.3,1183.9z"/>
				<path class="st12" d="M2435.2,1140.4c0,0,1.7,11.4,2.6,22.2c20.3-2.2,29.7-21.6,33.3-32.3L2435.2,1140.4z"/>
				<path class="st6" d="M2434.4,1157c0,0,46.9-11.8,39.1-40.9c-7.8-29.1-7-50.3-37.3-44s-33.1,19-32.9,29.3
					C2403.6,1111.8,2422,1159.3,2434.4,1157z"/>
				<path class="st10" d="M2414.8,1077.1c0,0,15.8,30,45.5,33.3c17.4,1.9,22.2,13.4,22.2,13.4s-5.2-32.8-14-52.8
					C2468.5,1070.9,2420.1,1058.2,2414.8,1077.1z"/>
				<path class="st10" d="M2420.2,1081.1c0,0-10.3,10.5-13.5,17.9c-4.7,11,4.5,34,8.2,39c0,0-21.8-37.1-14.5-53.1
					C2408.2,1067.8,2420.2,1081.1,2420.2,1081.1z"/>
			</g>
			<path class="st6" d="M2277,1351.4c0,0-9.3,9.9-10.5,10.4c-6.2,2.9-14,1.2-17.8,2.2c-3.8,0.9-3.1-1.4-0.3-3.3s9.6-1.2,6.8-1.9
				s-17.9-3.5-23.6-2c-9,2.4-16.1-0.4-16.7-1.3c-0.6-0.9,20.6-11.2,26.6-10.9c6,0.3,23.4-0.5,23.4-0.5L2277,1351.4z"/>
			<path class="st6" d="M2529.1,1200.1c0,0,5.6,137.7-10.6,157c-16.1,19.2-114.6-2.1-114.6-2.1l-6.8-10.1c0,0,87.4-12.8,93.3-14.5
				c8.4-2.4,2.6-97.2,2.6-97.2L2529.1,1200.1z"/>
			<path class="st11" d="M2507.4,1179.7c1.4,0,18.8,5.8,31.3,30.5c12.3,24.3,16.7,36.1,16.7,36.1s-54.5,42.2-76.1,26.7
				C2457.7,1257.4,2487.4,1179.2,2507.4,1179.7z"/>
			<path class="st6" d="M2404,1355c0,0-7.8,7.9-10.8,12s-23.8,11.4-24.3,9.2s9.3-8.8,10.2-11.2s11.6-14.9,18.1-16.3
				C2403.7,1347.3,2404,1355,2404,1355z"/>
			<path class="st6" d="M2397.2,1344.9c0,0-32.1,7.4-37.6,9.7c-5.5,2.2-17,18.6-12.4,21c2.9,1.5,15.6-5.1,22-6.5s24.7,1.8,33-14.7
				C2403.1,1352.5,2397.2,1344.9,2397.2,1344.9z"/>
			<path class="st13" d="M2137.1,1719c-12.5,5.1-27.7,21.1-34,25.6c-6.2,4.5-47.5,2.9-48.8,0.1c-3.5-7.3,10.9-12.5,20.1-16.8
				c0.1-0.1,0.3-0.1,0.4-0.2l0,0l1.3-0.4c0,0,17.8,6.3,32.6,0c11.5-4.9,28.6-23.3,39.9-30.8C2151.3,1705,2148.4,1714.3,2137.1,1719z
				"/>
			<path class="st13" d="M2200.3,1648.8c-6.2,12-7.6,34-9.5,41.5c-1.8,7.5-34.4,32.9-37.2,31.6c-7.1-3.2-0.3-15.6,4-24.7
				c2.6-0.2,6-1,9.9-3.7c8.1-5.4,21.9-25.9,23.2-38c1-9.8,0.4-23.9,5.8-29.9C2202.8,1630.7,2205.4,1639,2200.3,1648.8z"/>
			<g>
				<g>
					<polygon class="st5" points="2355.7,1379.8 2215.8,1379.8 2173.7,1275.1 2313.4,1275.1 					"/>
					<polygon class="st8" points="2214.1,1375.7 2398.9,1375.7 2398.9,1379.8 2215.8,1379.8 					"/>
				</g>
				<path class="st14" d="M2251.1,1327.5c-1.1-3.7,1.1-6.7,4.8-6.7s7.5,3,8.6,6.7s-1.1,6.7-4.8,6.7
					C2256,1334.1,2252.2,1331.1,2251.1,1327.5z"/>
			</g>
		</g>
		<path class="st5" d="M2515.9,1379.2c0,0-18.3,17.1-94.9,19.6s-176.4,87-177.4,110.9c-0.9,23.9,154.1,60.2,156.5,56.8
			s98.4-85.8,98.4-85.8L2515.9,1379.2z"/>
		<path class="st8" d="M2680.2,1600c-41.2-74.2-135.4,28.1-158.8-6.5c-23.4-34.6,33.1-78.6,84-116.5c49.9-37.1,49.7-85.6,49.7-87.6
			c1.7,14.4,2.9,30.1,3.5,47.1C2660.8,1498.3,2673,1553.4,2680.2,1600z"/>
	</g>
</g>
<g>
	<path class="st5" d="M2014.8,563.5c0.5,80.9-27.9,155.1-75.5,213c-40.9,49.9-64,112-64,176.5v93c0,26.3-9.6,50.5-25.5,69.2
		c-18.2,21.5-45,36.1-74.7,38.1c-2.4,0.2-4.7,0-7.1,0h-171.7c-2.3,0-4.8,0.2-7.1,0c-55.9-3.6-100.2-50.6-100.2-107.3v-92.8
		c0-64.4-22.7-126.6-63.7-176.3c-47.3-57.5-75.8-131.1-75.8-211.4c0-184.5,149.8-332.7,332.7-332.7
		C1865.6,232.9,2013.7,380.1,2014.8,563.5z"/>
	<path class="st8" d="M1775.1,1153.4c-0.9,6.7-15.3,117.8-15.5,118.9c-2.4,18.3-23.4,32.4-48.4,32.4h-56.5
		c-24.8,0-45.8-13.8-48.4-32c-2.7-19.2-13.3-92.7-17.1-119.2h185.9V1153.4z"/>
	<g>
		<path class="st5" d="M1752.7,1153.4h-0.4h-31.6c-51.5,14.9-102.7,29.6-126.4,36.3l1.2,8.7v0.2l1.3,8.8
			c19.2-5.3,65.2-18.5,177.8-51.1l0.4-2.9H1752.7z"/>
		<path class="st5" d="M1603,1249.6L1603,1249.6v0.2l0,0l1.3,8.8c22.2-6.2,68-19.4,163.3-47l1.3-9.6v-0.1l1.2-9.5
			c-60.2,17.4-133.2,38.5-168.3,48.5L1603,1249.6z"/>
		<path class="st5" d="M1624.2,1296.8l0.3,0.2c4,2.3,8.4,4.2,13.2,5.5l0,0c26.1-7.5,65-18.7,122.7-35.4l1.2-9.6v-0.1l1.2-9.5
			c-51.5,14.9-110.7,32-147.2,42.5C1618.1,1292.7,1621,1294.9,1624.2,1296.8z"/>
	</g>
	<g>
		<g>
			<polygon class="st15" points="1614.9,1153.4 1543,729 1557.8,726.5 1630.1,1153.4 			"/>
		</g>
		<g>
			<polygon class="st15" points="1742.8,1153.4 1727.4,1153.4 1804.4,733.2 1819.2,735.9 			"/>
		</g>
		<g>
			<path class="st15" d="M1721.9,805c-1.9,0-4.1-0.2-6.5-0.8c-4-0.9-6.6-3.7-7.4-8.1c-1.7-9.4,5.7-26.7,16-41.3
				c-5.4-9.5-12.6-17.2-20.2-19.5c-11.2-3.4-28.3,6.9-40.2,20.1c2.2,3.1,4.1,6.3,5.9,9.6c6.1,11.5,10.5,26.3,4.5,33.1
				c-2.2,2.5-6.8,4.8-15.8,1.4c-11.3-4.3-15.3-13.8-11.1-26.2c2.1-6.1,5.9-12.4,10.7-18.3c-9.2-12.1-21.6-21.2-33.8-19.7
				c-6.5,0.8-12.1,3.1-16.7,6.3c7.8,14.5,9.6,32.9,4.2,42.7c-3.7,6.7-10.1,8.8-18.1,6c-5.7-2-8.7-9.9-7.6-20.1
				c1.1-10.4,6.3-21.9,15.6-29.8c-2.4-3.8-5.3-7.1-8.7-9.7c-21-16.3-38.3,1.2-39,1.9l-3.3-3.2c0.2-0.2,21-21.1,45.1-2.4
				c3.7,2.8,6.8,6.5,9.5,10.5c5.1-3.5,11.3-6,18.5-6.9c13.6-1.7,27.3,7.9,37.4,20.7c13-14.1,31.5-24.5,44.4-20.6
				c8.2,2.5,15.8,10.3,21.7,20c5.5-7.1,11.6-13.3,17.5-17.2c9.5-6.3,15.7-4.8,19.2-2.5c3.6,2.4,6.7,5.6,9.2,9.2
				c2.9-2.3,5.9-4.2,8.8-5.7c11-5.5,21.1-5.1,28.5,1.1l-2.9,3.5c-7.9-6.7-18.1-3.2-23.5-0.5c-3,1.5-5.8,3.3-8.5,5.5
				c7.3,13.2,8.8,30.4,4.6,38.8c-2.6,5.2-7.4,7.1-12.9,5.1c-9.9-3.6-12.4-10.5-12.7-15.6c-0.5-9.8,6.2-20.9,15.1-29.1
				c-2.3-3.4-5-6.4-8.2-8.4c-4.3-2.8-10.1-0.2-14.2,2.5c-5.9,3.9-12.1,10.4-17.6,17.7c6.8,13,10.4,28.1,7.8,37.9
				C1735.8,797.9,1732.2,805,1721.9,805z M1726.4,759.3c-9,13.1-15.4,28-13.9,36c0.5,2.5,1.7,3.9,3.9,4.4c8.9,2,14.4-0.6,16.3-7.7
				C1734.9,783.7,1732,770.8,1726.4,759.3z M1660.5,759c-4.2,5.2-7.4,10.7-9.2,15.8c-3.5,10.2-0.6,17.1,8.4,20.5
				c3.6,1.4,8.5,2.5,10.8-0.2c3.6-4.1,1.5-15.6-5.1-28C1664,764.4,1662.3,761.6,1660.5,759z M1603.6,744.6
				c-7.9,7.1-12.4,17.1-13.4,26.2c-0.8,7.8,1.1,14.1,4.6,15.4c5.8,2.1,10,0.7,12.6-3.9C1612,773.8,1610.3,757.6,1603.6,744.6z
				 M1771.6,747.5c-7.9,7.6-13.3,17.3-12.9,24.8c0.3,5.4,3.6,9.3,9.7,11.6c3.4,1.2,5.7,0.3,7.2-2.8
				C1779.2,774.1,1777.7,759.1,1771.6,747.5z"/>
		</g>
	</g>
	<path class="st15" d="M1853.9,360.8c27.3,25.8,23.9,73.2-11.3,83.7c-26.5,8-66.1-2.7-85.6-36.5c-19.5-33.9-10.5-61.7,13.4-75.5
		C1794.4,318.7,1825.4,334,1853.9,360.8z"/>
</g>
<g>
	<path class="st10" d="M827.8,1066.5c-3.2-6.2,69.7-28.4,70.9,32.5c0,0,136.6-3.4,71.4-79.5c-22.6-26.4-20.3-48.1-19.6-68.4
		c0.7-20.3-14.1-79.3-64.6-73.3c0,0-13.2-5.4-29.8,3.2C818.5,900.4,734.3,1088.9,827.8,1066.5z"/>
	<path class="st6" d="M1051.1,1134.5c0,0,8.9-13.5,16.1-13.8s20.4-4,19.4-1.3s-9.3,2.9-10.1,4.5c-0.8,1.6,12.2,4,15.9,4.2
		c3.7,0.3,12.5,0,12.2,1.9s-15.8,9.6-26.7,8.5c-11-1.1-24.5,3.2-24.5,3.2L1051.1,1134.5z"/>
	<path class="st11" d="M922.5,1138.8c0,0,4.8,9.6,13.6,20.6c10.6,13.2,26.9,28.5,47.3,31.5c9.8,1.4,19.3-0.7,28.1-4.6l0,0
		c24.8-11,43.5-36.4,43.5-36.4c4.4-11.9-2.8-20-2.8-20s-50.2,11.3-54.9,8.9c-4.8-2.4-32.6-82.7-39.3-92.8
		c-6.6-10.1-29.3-15.3-29.3-15.3L922.5,1138.8z"/>
	<path class="st16" d="M936.1,1159.4c10.6,13.2,26.9,28.5,47.3,31.5c9.8,1.4,19.3-0.7,28.1-4.6c-1,0.1-25.8,3.2-35.7-14.5
		c-10.1-18-21-46.7-36-37.2C933.4,1138.9,933.7,1149.1,936.1,1159.4z"/>
	<path class="st3" d="M735.4,1680.3c0,0-15.3,14-12.3,23.9s16.8,16.5,18.7,28.7c1.9,12.1,9.3,18.7,16.1,18.7c6.7,0,32,0,32,0
		s4.9-8.5-7-11.1s-16.5-16.8-15.7-30.1c0.7-13.2-1.1-30.9-1.1-30.9l-25.4-5.9L735.4,1680.3z"/>
	<path class="st3" d="M864.9,1686.2c0,0-5.5,59.2,1.2,62.5l86-0.2c0,0,0-9.9-13.8-12.1s-38.1-10.3-42.2-28.3
		S864.9,1686.2,864.9,1686.2z"/>
	<path class="st6" d="M803.7,1261.7c17.7-39.7,28.5-51.1,26.5-63.4c-1.5-9.2,4.7-170.9,4.7-170.9c2.1-0.7,6.3-1.2,8.6-1.7
		c7.3-1.6,13.3-6.7,15.8-13.7c3-8.4,5.4-20.9,5.4-36.5l2.3,0.4l38.1,7.5c0,0-0.9,12-0.9,23.3c0,0.1,0,0.2,0,0.3
		c0,9.8,6.4,18.5,15.8,21.2c4.8,1.4,9,2.6,9,2.6s14,40,16.7,81s-25.5,58.9,0.2,140.9C971.9,1336.5,793.9,1283.6,803.7,1261.7z"/>
	<path class="st17" d="M904.9,983.4c0,0-0.9,12-0.9,23.3c-21.3-0.6-32.6-20.1-37.2-30.8L904.9,983.4z"/>
	<path class="st6" d="M912,994.1c0,0-50.5,0.8-50.5-30.6s-6.6-52.5,25.6-54.4c32.2-1.9,38.5,10.1,41.1,20.6
		C930.8,940.3,925.2,993.1,912,994.1z"/>
	<path class="st10" d="M910.2,908.4c0,0-13.8,36.9-35,42.3c-21.2,5.5-30.4-0.2-30.4-0.2s16.3-12.9,19.6-35.5
		C864.4,915,899.7,890.8,910.2,908.4z"/>
	<path class="st10" d="M906.7,911.4c0,0,10.2,3.8,14.5,11.3c4.1,7.3,7.6,17,6.8,28.9c0,0,10.4-25.1-1.3-39.2
		C914.3,897.3,906.7,911.4,906.7,911.4z"/>
	<path class="st11" d="M798.8,1098.9c0,0-1.3,18.1,0,39.7c0.9,14.4,15.4,33.6,17.5,38.4c5.2,11.9,11,13.9,11,13.9l45.2,11.1
		l15.9,3.9l50.1-15c0,0,22.8-63.6,13.6-99.5c-9.2-35.8-23.1-60.7-23.1-60.7s-40.9,40-94-3.4L798.8,1098.9z"/>
	<path class="st16" d="M812,1144.5c0.9,14.4,2.2,27.8,4.2,32.5c5.2,11.9,11,13.9,11,13.9l45.2,11.1l19.6-5.8c0,0-65.5-9.9-58.2-66.2
		L812,1144.5z"/>
	<path class="st8" d="M935.2,1200.6c0,0,24.8,77.2,26.4,103.4c1.6,26.3-47.4,373.2-49.4,385.4c-1.9,11.4-16,18.7-16,18.7
		s-6.5,3.8-15.8,1.2c-12.9-3.6-17-8-17-8s-19.3-247.5-7.4-335.9c11.9-88.4,12.1-164.8,12.1-164.8L935.2,1200.6L935.2,1200.6z"/>
	<path class="st5" d="M830.1,1198.3c0,0-37.8,50.7-41.3,85s-5.5,154.8-13,188.2c-7.5,33.4-35.1,97.8-35.1,202.1c0,0,2.9,6,11.7,9.2
		c2.8,1,6.6,2,10.3,2.9c7.3,1.7,14.8-1.9,18.1-8.6c18.7-37.6,78.1-158.7,81.1-183.9c2.2-17.8,20.9-135.6,61.9-204.7
		c9.8-16.6-6-82.6-6-82.6L830.1,1198.3z"/>
	<path class="st3" d="M939.1,1188.7c0,0-10,7.9-29.7,8.3c-23.6,0.5-82.1-6-82.1-6s-2.6,7.3-2.5,14.9c0,0,71.5,18,112.9,2.6
		C937.6,1208.5,943,1198.5,939.1,1188.7z"/>
	<g>
		<path class="st14" d="M904.3,1205.1c0-6.7,4.8-12.2,10.8-12.2c5.9,0,10.8,5.5,10.8,12.2s-4.8,12.2-10.8,12.2
			C909.1,1217.3,904.3,1211.8,904.3,1205.1z M907.9,1205.1c0,4.8,3.2,8.6,7.2,8.6s7.2-3.9,7.2-8.6s-3.2-8.6-7.2-8.6
			C911.1,1196.5,907.9,1200.4,907.9,1205.1z"/>
	</g>
	
		<rect x="764.2" y="1135.8" transform="matrix(0.6567 -0.7542 0.7542 0.6567 -608.0541 1033.0514)" class="st18" width="132.9" height="97.1"/>
	<path class="st6" d="M843.8,1202.9c0,0,26.8,3.1,26.7,9.5s-6.7,19.5-10,20c-3.3,0.6-21.8-17.7-21.8-17.7L843.8,1202.9z"/>
	<path class="st11" d="M834.8,1027.4c0,0-35.8,2.5-49.6,35.9c-13.7,33.4-39.8,89.4-39.8,98.9c0,9.4,14.6,38.5,92.7,55.2
		c0,0,8.1-8.5,7.6-15.2c0,0-48.8-41.9-48.7-46.8c0.2-9.3,8-21.5,50.8-64.3C859.6,1079.3,834.8,1027.4,834.8,1027.4z"/>
</g>
<g>
	<g>
		<path class="st19" d="M1144.5,1749.8h-0.3c-2,0-3.6-1.6-3.6-3.6l5.4-234.3l15.9-1.9l-13.6,236.2
			C1148.3,1748.2,1146.6,1749.8,1144.5,1749.8z"/>
	</g>
	<g>
		<path class="st20" d="M1400.6,1749.8h0.3c2,0,3.6-1.6,3.6-3.6l-5.4-234.3l-15.9-1.9l13.6,236.2
			C1396.9,1748.2,1398.5,1749.8,1400.6,1749.8z"/>
	</g>
	<path class="st20" d="M1134,1497.3v-160.6c0-28.3,22.9-51.2,51.2-51.2h115.7c28.3,0,51.2,22.9,51.2,51.2v166.7L1134,1497.3z"/>
	<path class="st19" d="M1372.7,1522.6h-223.4c-8.5,0-15.4-6.9-15.4-15.4v-10h238.7v25.4H1372.7z"/>
	<path class="st20" d="M1399.5,1522.6h-169c-6.3,0-11.4-5.1-11.4-11.4v-2.6c0-6.3,5.1-11.4,11.4-11.4h169c6.3,0,11.4,5.1,11.4,11.4
		v2.6C1410.8,1517.6,1405.7,1522.6,1399.5,1522.6z"/>
</g>
<path class="st3" d="M1392.9,1457.3c-16.6,28.8-37.4,40-37.4,40h-86.7C1268.8,1497.3,1405.5,1435.3,1392.9,1457.3z"/>
<path class="st6" d="M1326.3,1680.4c-2.3,2.6-2.5,5.5-1.4,8.6l0,0c2.1,5.7,8.9,12.1,16.8,18.5c1,0.8,1.9,1.6,2.7,2.3
	c0.2,0.2,0.4,0.4,0.6,0.5s0.3,0.3,0.5,0.4c7.4,6.8,4.6,8.4,17.9,22.2c15.2,15.8,25.6,16.1,28.6,14.6c2.5-1.2-2.6-9.6-8.2-19
	c-0.3-0.5-0.5-0.9-0.8-1.4c-0.8-1.2-1.5-2.5-2.2-3.8c-6.6-11.3-4.9-16.6-3.4-33.5c1.3-13.7,21.3-76.5,21.3-76.5l-29.1-5
	c0,0-8.8,50-18.4,57.7c-5.2,4.1-10.9,4.2-15.9,7.2c-0.4,0.2-0.7,0.4-1,0.7C1331.4,1675.9,1328.6,1677.8,1326.3,1680.4z"/>
<path class="st3" d="M1326.3,1680.4c-2.3,2.6-2.5,5.5-1.4,8.6l0,0c2.5,5.7,9.2,12.1,16.9,18.4c1,0.8,1.9,1.6,2.7,2.3
	c0.2,0.2,0.4,0.4,0.6,0.5s0.3,0.3,0.5,0.4c7.4,6.8,4.6,8.4,17.9,22.2c15.2,15.8,25.6,16.1,28.6,14.6c2.5-1.2-2.6-9.6-8.2-19
	c-3-1.1-16.7-6.7-27-19.9c-9.1-11.6-15.2-26.6-21.4-35.3c-0.4,0.2-0.7,0.4-1,0.7C1331.4,1675.9,1328.6,1677.8,1326.3,1680.4z"/>
<path class="st6" d="M1560.6,1662.3c1.8,9,14.6,7.5,28.9,4s10.9,0.7,31.2-1.6c20.3-2.2,26.5-9.8,27.1-12.9c0.6-2.7-9.5-3.6-20.3-4.9
	c-1.4-0.2-2.7-0.3-4.1-0.5c-12.2-1.5-21.1-9.4-32.1-15.8c-10.5-6.1-26.1-31-26.1-31l-27.9,2.2c0,0,14.6,22.2,20.3,31.9
	c3.3,5.7,3.2,13.2,2.7,19C1560.1,1655.9,1559.9,1659.1,1560.6,1662.3z"/>
<path class="st3" d="M1589.4,1666.3c14.3-3.5,10.9,0.7,31.2-1.6c20.3-2.2,26.5-9.8,27.1-12.9c0.6-2.7-9.5-3.6-20.3-4.9l-0.1,0.2
	c0,0-12.2,8.6-29.1,9c-13.8,0.3-28.4-3.6-37.9-3.5c-0.2,3.2-0.4,6.4,0.2,9.5C1562.4,1671.3,1575.2,1669.8,1589.4,1666.3z"/>
<path class="st3" d="M1453.7,1484l-26.1,70.1l-34,91.6c0,0-9.2,0.9-18.1-1.7c-8.1-2.4-17.5-8.5-17.5-8.5s9.4-98.3,27.1-154.7
	c4.5-14.5,9.6-26.2,15.2-32.8C1427.7,1415.7,1453.7,1484,1453.7,1484z"/>
<path class="st4" d="M1427.2,1372.7c-17.1-5.5-65.8,1.6-114.7,11.1l-10.2-16.9l-105.7-8.3c0,0-34.9,77.3-15.8,126.6
	c2.8,7.2,8.4,11.9,17.9,12h1.5c0,0,62.9,0,83.3,0c52.5,0,111.2-36.1,118.8-37.6c12.4-2.5,17.4,22.4,29.8,48.4
	c12.4,26.1,116.8,115.5,116.8,115.5s16,0.2,22.7-2.3c7.1-2.7,9.7-6.1,9.7-6.1S1465.8,1385.1,1427.2,1372.7z"/>
<path class="st18" d="M1298.2,1059.3c-13.5-7.1-34.1-8.1-37.5-8.5c-40-5.4-64.1,52.8-65.6,70.4c-2.6,32.5-19.8,37.4-44,57.8
	c-48.5,40.8-34.3,88.2-7.8,105.8c15.9,10.6,44,0,44,0c0.4,0.3,76.7-42.7,114.3-63.4C1358.1,1213.4,1332.7,1077.4,1298.2,1059.3z"/>
<path class="st6" d="M1270.2,1203.8c0.2,0.1-18.5,6.5-31,1c-11.7-5.2-20.6-24.5-20.5-24.5c5.3-0.2,11.2-4.9,15.7-35.6l2.3,0.8
	l38.3,13.8c0,0-2.8,12.3-4.6,24C1268.9,1193,1268.1,1202.4,1270.2,1203.8z"/>
<path class="st21" d="M1275,1159.2c0,0-2.8,12.3-4.6,24c-22-4-30.6-25.9-33.7-37.7L1275,1159.2z"/>
<path class="st6" d="M1280.7,1171.4c0,0-52.4-7-47.5-39.6s1.4-55.4,35-52.2c33.6,3.1,38.3,16.5,39.3,27.8
	C1308.5,1118.6,1294.4,1172.4,1280.7,1171.4z"/>
<path class="st18" d="M1305.6,1089.5c0,0-33.5,28.9-56.3,31.2c-22.8,2.3-31.4-5-31.4-5s13.4-11.2,21.5-29.2
	c2.4-5.3,7.4-8.9,13.2-9.4C1268.9,1075.7,1299.7,1075.1,1305.6,1089.5z"/>
<path class="st18" d="M1284.6,1086.9c0,0,11.2,10.8,14.7,18.9c3.4,7.8,4.4,26.3,1.7,33.7c0,0,17.5-34,7.6-50.5
	C1298.2,1071.5,1284.6,1086.9,1284.6,1086.9z"/>
<path class="st11" d="M1314.3,1280.9c-1.6,106-0.4,83.8-12,93.9c-2.8,2.4-10.6,3.9-21,4.5c-32.5,2.2-89.6-3.2-91.8-9.2
	c-7.5-20.8-2.2-27.2-8.5-59c-0.7-3.4-1.5-7-2.4-11c-5.2-21.9-10.3-29.3,8.2-64.4c16.8-31.8,34.2-57.6,35.8-56.7
	c44.3,26.3,47.8,4.2,47.8,4.2S1315,1229.2,1314.3,1280.9z"/>
<path class="st4" d="M1427.7,1554.2l-34,91.6c0,0-9.2,0.9-18.1-1.7c-8.1-2.4-17.5-8.5-17.5-8.5s9.4-98.3,27.1-154.7L1427.7,1554.2z"
	/>
<path class="st11" d="M1270.4,1183.2c0,0,45.5,7.7,50.9,27.3c5.3,19.6,36.8,134.9,36.8,134.9s-23.2,4.2-33.8-6.5
	s-37.2-99.2-37.2-99.2L1270.4,1183.2z"/>
<path class="st16" d="M1281.2,1379.3c-32.5,2.2-89.6-3.2-91.8-9.2c-7.5-20.8-2.2-27.2-8.5-59l15.7-44.1c0,0-2.6,49.1,11.9,62.1
	c14.5,12.9,59.3,25,66.4,35.8C1278.4,1370,1280.6,1375.2,1281.2,1379.3z"/>
<path class="st6" d="M1244,1358.7c0,0,32.1-7.1,37.2-4.3c5.2,2.8,17.8,13.2,19.4,16.8c1.6,3.6-11.5-2.7-15.8-3.9
	c-2.8-0.7-10,1.8-13.6,3c-15.1,5-24.4,2.4-24.4,2.4L1244,1358.7z"/>
<path class="st11" d="M1222.5,1179c0,0-43,2.7-57.9,23.4c-21,29.3-62.6,153.9-38.7,170.6c26.9,18.7,122.2,4.9,122.2,4.9
	s3.2-14.8-1.2-22c-4.4-7.2-76.2-18.8-79.5-22.1c-3.3-3.3,41.4-64.6,41.4-74.5S1222.5,1179,1222.5,1179z"/>
<path class="st6" d="M1282.8,1363.3c0,0,6.7,8.7,8.9,9.7c2.2,1,3.6,0.8,3.6,0.8l-4.5-8.1L1282.8,1363.3z"/>
<path class="st6" d="M1281.2,1354.4l19.5,9.5c0,0-0.8,1.4-3.2,1.2c-2.4-0.1-8.5-2.3-8.5-2.3L1281.2,1354.4z"/>
<g>
	<g>
		<polygon class="st5" points="1291.7,1386.3 1446.2,1386.3 1492.7,1270.7 1338.4,1270.7 		"/>
		<polygon class="st8" points="1448,1381.8 1244,1381.8 1244,1386.3 1446.2,1386.3 		"/>
	</g>
	<path class="st14" d="M1407.2,1328.5c1.2-4.1-1.2-7.4-5.2-7.4s-8.3,3.3-9.5,7.4s1.2,7.4,5.2,7.4S1406,1332.5,1407.2,1328.5z"/>
</g>
<g>
	<g>
		<path class="st3" d="M1781.2,1753h0.5c2.6,0,4.8-2.4,4.7-5.3l-7.1-341.9l-21.1-2.7l18,344.6
			C1776.3,1750.7,1778.5,1753,1781.2,1753z"/>
	</g>
	<g>
		<path class="st3" d="M1249.1,1753h-0.4c-2.6,0-4.8-2.4-4.7-5.3l7.1-341.9l21.1-2.7l-18,344.6
			C1254.1,1750.7,1251.8,1753,1249.1,1753z"/>
	</g>
	<path class="st3" d="M1815.8,1410.7h-593.4c-4.7,0-8.5-3.8-8.5-8.5v-7.4c0-4.7,3.8-8.5,8.5-8.5h593.4c4.7,0,8.5,3.8,8.5,8.5v7.4
		C1824.3,1406.9,1820.5,1410.7,1815.8,1410.7z"/>
</g>
<path class="st13" d="M3002.2,1756.8H197.8c-2.1,0-3.8-1.7-3.8-3.8v-2.9c0-2.1,1.7-3.8,3.8-3.8h2804.4c2.1,0,3.8,1.7,3.8,3.8v2.9
	C3006,1755.1,3004.3,1756.8,3002.2,1756.8z"/>
<g>
	<polygon class="st2" points="2244.1,445.7 2359.9,464 2283.7,410.3 2279.5,427.1 2251.2,431.8 	"/>
	<polygon class="st14" points="2359.9,464 2264.1,412.7 2169.5,406.5 	"/>
	<polygon class="st14" points="2283.7,410.3 2359.9,464 2301.5,381 	"/>
</g>
<g>
	<polygon class="st2" points="1133.2,559.5 982.4,602.9 1074.8,519.1 1083.1,540.6 1121.5,542.2 	"/>
	<polygon class="st22" points="982.4,602.9 1101.2,519 1225.9,495.3 	"/>
	<polygon class="st22" points="1074.8,519.1 982.4,602.9 1046.3,483.1 	"/>
</g>
</svg>
