<?xml version="1.0" encoding="utf-8"?>
<!-- Generator: Adobe Illustrator 23.0.1, SVG Export Plug-In . SVG Version: 6.00 Build 0)  -->
<svg version="1.1" id="Слой_1" xmlns="http://www.w3.org/2000/svg" xmlns:xlink="http://www.w3.org/1999/xlink" x="0px" y="0px"
	 viewBox="0 0 3008.9 2000" style="enable-background:new 0 0 3008.9 2000;" xml:space="preserve">
<style type="text/css">
	.st0{fill:#E0E0E0;}
	.st1{fill:#D9D9D9;}
	.st2{fill:#B8B8B8;}
	.st3{opacity:0.43;}
	.st4{fill:#C9C9C9;}
	.st5{opacity:0.22;}
	.st6{fill:url(#SVGID_1_);}
	.st7{fill:url(#SVGID_2_);}
	.st8{fill:url(#SVGID_3_);}
	.st9{fill:url(#SVGID_4_);}
	.st10{fill:#00858E;}
	.st11{fill:#007477;}
	.st12{fill:#016060;}
	.st13{fill:#6A75BA;}
	.st14{fill:#545D94;}
	.st15{fill:#EEA886;}
	.st16{fill:#D9D3C8;}
	.st17{fill:#222538;}
	.st18{fill:#FFC955;}
	.st19{fill:#A77860;}
	.st20{fill:#C29941;}
	.st21{fill:#FFFFFF;}
	.st22{clip-path:url(#SVGID_7_);}
	.st23{clip-path:url(#SVGID_8_);fill:url(#SVGID_9_);}
	.st24{clip-path:url(#SVGID_12_);}
	.st25{clip-path:url(#SVGID_13_);fill:url(#SVGID_14_);}
	.st26{clip-path:url(#SVGID_17_);}
	.st27{clip-path:url(#SVGID_18_);fill:url(#SVGID_19_);}
	.st28{fill:url(#SVGID_20_);}
	.st29{clip-path:url(#SVGID_23_);}
	.st30{clip-path:url(#SVGID_24_);fill:url(#SVGID_25_);}
	.st31{fill:url(#SVGID_26_);}
	.st32{fill:url(#SVGID_27_);}
	.st33{fill:#616587;}
	.st34{fill:#152B3D;}
	.st35{fill:#FFC05C;}
	.st36{fill:#353A3D;}
	.st37{fill:#E55353;}
	.st38{fill:#EEA987;}
	.st39{fill:#2F4563;}
	.st40{fill:#202338;}
	.st41{fill:#2F6B8C;}
	.st42{fill:#877D78;}
	.st43{fill:#F5E1D9;}
	.st44{fill:#4B6F9E;}
	.st45{fill:#EDDAD3;}
	.st46{fill:#C9BAB3;}
	.st47{fill:#1E2C40;}
	.st48{fill:url(#SVGID_28_);}
	.st49{fill:url(#SVGID_29_);}
	.st50{fill:url(#SVGID_30_);}
	.st51{fill:url(#SVGID_31_);}
	.st52{fill:url(#SVGID_32_);}
	.st53{fill:#81807E;}
	.st54{fill:#292C47;}
	.st55{fill:#CAC7D1;}
	.st56{fill:#1D2033;}
	.st57{fill:#323657;}
	.st58{fill:#C78D71;}
	.st59{fill:#A09EA6;}
	.st60{fill:#EAE6F2;}
	.st61{fill:#3A4066;}
	.st62{fill:#F2DFD8;}
	.st63{fill:#D6C5BE;}
	.st64{fill:url(#SVGID_33_);}
	.st65{fill:url(#SVGID_34_);}
	.st66{fill:url(#SVGID_35_);}
	.st67{fill:#FFA855;}
	.st68{fill:#FFA555;}
	.st69{fill:#858585;}
	.st70{fill:#EBEBEB;}
	.st71{fill:#1C1E30;}
	.st72{fill:#24263D;}
	.st73{fill:#282B45;}
	.st74{fill:#1F2136;}
	.st75{fill:#4F558A;}
	.st76{fill:#D6C5BF;}
	.st77{fill:#16202E;}
	.st78{fill:#E2D2CA;}
	.st79{fill:#6E6760;}
	.st80{fill:#918880;}
	.st81{fill:#706865;}
	.st82{fill:#EB4747;}
	.st83{fill:#D69779;}
	.st84{fill:#12131F;}
	.st85{fill:#9E633A;}
	.st86{fill:#97A43C;}
	.st87{fill:#82522F;}
	.st88{fill:#C67B47;}
</style>
<g>
	<g>
		<rect x="1448.2" y="1030.3" class="st0" width="5.5" height="580.7"/>
	</g>
	<g>
		<rect x="1841.7" y="1030.3" class="st0" width="5.5" height="580.7"/>
	</g>
	<g>
		<rect x="2235.2" y="1030.3" class="st0" width="5.5" height="580.7"/>
	</g>
	<rect x="1057.4" y="958.7" class="st1" width="94.3" height="15.1"/>
	<rect x="1057.4" y="986.7" class="st1" width="133.7" height="15.1"/>
	<rect x="1446.7" y="958.7" class="st1" width="110.7" height="15.1"/>
	<rect x="1446.7" y="986.7" class="st1" width="70.8" height="15.1"/>
	<rect x="1847.2" y="958.7" class="st1" width="68.6" height="15.1"/>
	<rect x="1847.2" y="986.7" class="st1" width="79.9" height="15.1"/>
	<rect x="2240.7" y="958.7" class="st1" width="99.9" height="15.1"/>
	<rect x="2240.7" y="986.7" class="st1" width="79.9" height="15.1"/>
	<rect x="1450.9" y="1645.3" class="st2" width="62.6" height="20.2"/>
	<rect x="1847.2" y="1645.3" class="st2" width="62.6" height="20.2"/>
	<rect x="2240.7" y="1645.3" class="st2" width="62.6" height="20.2"/>
	<g class="st3">
		<path class="st4" d="M2495.1,1438.4c-122.7,0-229.4-53.1-340.7-108.4c-137.3-68.3-279.3-138.9-468.5-119.6
			c-120.8,12.3-196.6,61.6-263.5,104.9c-60.6,39.3-117.8,73.9-195.4,76.8c-125.4,4.8-168.8-48.7-169.6-52v-34.3l0,0l0,0
			c0.2,0.6,27.5,60.6,169.4,59.9c69.9-0.3,121.5-33.8,181.2-72.6c69.4-45,148.1-96.1,275.2-109.1c196.8-20.1,342.3,52.2,482.9,122.2
			c147.2,73.2,287.7,141.8,465.3,82.3v28.2C2580.9,1433.9,2540.4,1438.4,2495.1,1438.4z"/>
	</g>
	<g class="st5">
		
			<linearGradient id="SVGID_1_" gradientUnits="userSpaceOnUse" x1="1057.39" y1="732.9885" x2="2632.3298" y2="732.9885" gradientTransform="matrix(1 0 0 -1 0 2000)">
			<stop  offset="0" style="stop-color:#40D5E6"/>
			<stop  offset="1" style="stop-color:#5577FF"/>
		</linearGradient>
		<path class="st6" d="M1758.3,1431.8c-90.6,0-162.5-60.9-232.8-120.6c-53.3-45.2-108.7-91.5-172.6-114.3
			c-195-69.6-294.7,57.5-295.6,58.6v-38.7c1.1-1.3,18.8-24.4,70.3-46.5c46.9-20.1,125.5-36.1,233.9,1.6
			c68.7,23.9,125.8,72.3,181,119.1c111.9,94.9,208.6,176.9,376.5,48.5c127.2-97.2,247-189.9,365-223.8
			c115.4-33.1,235.6-8.9,348.2,103.7l-0.8,35.1c-239.1-240.2-442.8-88-696.3,105.9C1868,1411.9,1810.1,1431.8,1758.3,1431.8z"/>
	</g>
</g>
<g>
	
		<linearGradient id="SVGID_2_" gradientUnits="userSpaceOnUse" x1="1820.95" y1="1232.03" x2="2382.3501" y2="1232.03" gradientTransform="matrix(1 0 0 -1 0 2000)">
		<stop  offset="0" style="stop-color:#8FD6FF"/>
		<stop  offset="1" style="stop-color:#BFEBFE"/>
	</linearGradient>
	<polygon class="st7" points="1824.9,891.5 1820.9,886.8 1887.2,830.4 1927.5,830.4 2018.8,752.6 2076,801.2 2118.1,801.2 
		2139.4,819.4 2205.6,763 2239.1,763 2378.4,644.4 2382.4,649.1 2241.4,769.2 2207.8,769.2 2139.4,827.5 2115.8,807.4 2073.7,807.4 
		2018.8,760.7 1929.8,836.5 1889.5,836.5 	"/>
</g>
<g>
	
		<linearGradient id="SVGID_3_" gradientUnits="userSpaceOnUse" x1="1811.61" y1="1304.115" x2="2371.2" y2="1304.115" gradientTransform="matrix(1 0 0 -1 0 2000)">
		<stop  offset="0" style="stop-color:#8FD6FF"/>
		<stop  offset="1" style="stop-color:#BFEBFE"/>
	</linearGradient>
	<polygon class="st8" points="1834.5,813.5 1811.6,813.5 1811.6,807.4 1832,807.4 1866.4,773 1891.4,798 1951.1,738.2 1969.5,756.6 
		2030.1,696 2066.4,732.3 2107.8,732.3 2171.7,668.5 2226.8,668.5 2267.5,627.7 2317.4,627.7 2366.8,578.2 2371.2,582.6 
		2319.9,633.9 2270.1,633.9 2229.3,674.6 2174.2,674.6 2110.4,738.5 2063.9,738.5 2030.1,704.7 1969.5,765.3 1951.1,746.9 
		1891.4,806.7 1866.4,781.7 	"/>
</g>
<linearGradient id="SVGID_4_" gradientUnits="userSpaceOnUse" x1="1915.6572" y1="1481.8131" x2="1599.2423" y2="580.3272" gradientTransform="matrix(1 0 0 -1 0 2000)">
	<stop  offset="0" style="stop-color:#C6CBCF"/>
	<stop  offset="1" style="stop-color:#F8F1FE"/>
</linearGradient>
<path class="st9" d="M2446.3,827.5c0-0.1-0.1-0.3-0.1-0.4c-58.9-205.5-206-381.1-409.1-471.5h0c-34.8-15.6-71.3-28.6-109.2-38.8
	c-94.9-25.5-190.4-31.3-282.3-19.9c-0.1,0-0.2,0-0.2,0l-0.1,0c-61.8,7.7-122,23.2-179.2,45.8c-0.1,0-0.2,0.1-0.3,0.1
	c-210.1,82.6-379.6,260.5-442.8,495.2c-106,394,127.3,799.2,521.2,905.1c202.2,54.4,407.4,19.4,573.6-80.9l31,43.1l146.2-105.3
	l-35.3-49c88.1-88.3,154.9-200.1,189.6-329.2C2485.3,1087.7,2482,952.1,2446.3,827.5z M1905.6,1502.3
	c-261.1,93.6-548.7-42.2-642.2-303.3c-91.8-256.3,37.3-538,288.9-636.8c4.8-1.9,9.6-3.7,14.4-5.4c35.6-12.8,71.7-21.3,107.8-25.8
	c92.4-11.5,184.4,3.3,266.5,40c120.6,53.9,219.9,155,268,289.1c3.8,10.6,7.2,21.2,10.2,31.8
	C2291.3,1144.1,2156.1,1412.5,1905.6,1502.3z"/>
<g>
	<path class="st10" d="M2591.8,785.7l-145.6,41.5l-227.1,64.7c-3.1-10.6-6.5-21.2-10.2-31.8c-48.1-134.2-147.4-235.3-268-289.1
		l96.1-215.3h0l10.1-22.7l51.7-115.7C2343.7,326.2,2520.9,538,2591.8,785.7z"/>
</g>
<g>
	<path class="st11" d="M2047.2,333l-10.1,22.7l-96.2,215.3c-82.1-36.7-174-51.5-266.5-40l-28.9-234l-3-24.5
		c95-11.8,193.8-5.8,291.9,20.6C1973.5,303.5,2011.3,316.9,2047.2,333z"/>
</g>
<g>
	<path class="st12" d="M1674.5,531c-36,4.5-72.2,13-107.8,25.8c-4.9,1.7-9.7,3.5-14.4,5.4l-86.3-219.4l-26.1-66.4
		c62.8-24.9,128.9-41.9,196.8-50.3l0.2,0l5.7,46.4l3,24.5L1674.5,531z"/>
</g>
<polygon class="st0" points="2617.3,2000 2326.2,2000 2123.9,1719.1 2315.6,1581 "/>
<g>
	<g>
		<g>
			<path class="st13" d="M1578.6,175.1c0,0-10.5-19.3-16.5-26.2c-6-6.9-25.8-12.1-23.1-21c2.7-8.8,29.3-5,36.6,3.7
				c7.3,8.7,29.6,11.7,30.4,15.4c0.8,3.7-7.8,23.7-12.5,26.9C1588.7,177.2,1578.6,175.1,1578.6,175.1z"/>
			<path class="st14" d="M1534,191.4c0,0-17.1-13.6-25.3-17.5s-28.5-0.9-29.5-10.1c-1-9.2,24.9-16.2,35-11.2c10.2,5,31.9-1,34,2.1
				s2.3,24.8-0.8,29.7C1544.3,189.3,1534,191.4,1534,191.4z"/>
			<path class="st15" d="M1572,226.6c0,0,7.5-51,7.1-59.9c-0.1-2.5,15.3-1.6,14.6,3.3c-1.6,10.6,5.6,51.6,4.3,59.1
				C1596.8,236.7,1571.3,231.4,1572,226.6z"/>
			<path class="st15" d="M1548.6,241.3c0,0-14-49.5-17.2-57.8c-1.4-3.7,12.8-9.3,14.7-2.8c3,10.3,25.6,45.1,27.4,52.5
				C1575.3,240.6,1549.9,245.9,1548.6,241.3z"/>
			<path class="st16" d="M1558.3,275.7c0,0-15-50.6-17.3-56l23.7-14.6c0,0,11,32.3,12.5,40.4
				C1578.7,253.6,1558.3,275.7,1558.3,275.7z"/>
			<path class="st17" d="M1977.4,142c0,0-22.9,5.8-33.7,23.1s-20.3,37.2-40.7,46.2c-20.4,9-20.6,32.3-19,35.9
				c1.6,3.6,64.4,74.2,78.1,76.9s39.3,0.8,36.6-17.3s-29.6-57.1-14.5-76.8s18.9-37.8,18.9-37.8L1977.4,142z"/>
			<path class="st15" d="M1973.4,226.4c0,0-0.7-0.2-1.8-0.3c-1.3-0.1-3.2-0.1-5.3,0.6c-0.5,0.2-1.3,0.5-2.1,1
				c-5.4,3.2-18.3,11.9-20,12.1c-2,0.2-0.3-29.8-0.3-29.8s6.8-12.1,7.7-20.1C1952.4,182.1,1973.4,226.4,1973.4,226.4z"/>
			<path class="st16" d="M1812.6,257.7c0,0-25.1-17.6-54.6-12.1c-29.4,5.5-32.6,19.3-42.7,19.9c-10.1,0.6-43.9-2.3-71.6,5.8
				c-27.7,8.1-51.1,9-54.3,6.6s17.3-48.5,17.3-54.9l-34.4-8.9c0,0-9.8,41-13.7,50.2c-4.1,9.9-12,28.5-0.8,44.7s42.7,8.9,61.8,12.1
				c19.1,3.3,104.3,1.2,119.2,0.4c16.2-0.9,65-3.2,65-3.2L1812.6,257.7z"/>
			<path class="st15" d="M2018.9,166.4c0,0,1.6,24.8-3.9,32.3c-2.2,3-3.7,4.6-4.7,5.5c-1.4,1.2-2.5,2.8-3.1,4.6
				c-1.7,4.8-2.8,11.5-4.1,12.9c-1.5,1.6-5.8-2.4-7.3-2.4c-1.6,0-16.7,13-20.3,10.4s-25.7-25.1-23.8-40.4
				c1.8-15.3,8.6-38.3,33.4-38.1C2009.9,151.2,2017,160.3,2018.9,166.4z"/>
			<path class="st18" d="M1943.8,284.9c-0.5,1-9.6,15.6-19.6,24.1c-4.2,3.5-8.4,6-12.3,6c-1.2,0-2.3,0-3.5,0
				c-11.5,0.3-20.3,2.1-35.8,2.8c-16.1,0.8-55.2-1.4-56.3-1.4s-12.4,2-12.4,2c-4-4.9,6.6-60.3,8.7-60.6s15,4.6,27.4,2.6
				s17.3-3.2,35.8-24.8c18.5-21.6,37-27.1,44.8-25.4c7.8,1.7,23.3,0,23.3,0S1944.5,283.4,1943.8,284.9z"/>
			<path class="st17" d="M2008.4,184.2c0,0,4.6,12,7.1,13.6c0,0,8.9-9.4,3.2-32.8c-5.7-23.3-27.4-25.5-41.3-23.1
				c-17.4,2.9-34.9,61.8-34,67.5c0.9,5.7,20.4-30.4,37.4-27.5C1997.9,184.9,1998,185.9,2008.4,184.2z"/>
			<path class="st19" d="M1971.6,226.1c-1.3-0.1-3.2,0-5.3,0.7c-0.5,0.2-1.3,0.4-2.1,0.9c-4-6.2-7.7-21-7.8-21.5
				C1959,211.9,1971.6,226.1,1971.6,226.1z"/>
			<path class="st20" d="M1924.2,308.9c-4.2,3.5-8.4,6-12.3,6c-1.2,0-2.3,0-3.5,0l5.7-46L1924.2,308.9z"/>
			<path class="st15" d="M2014.1,388.1l-11.1,10.1c-9.6-5.1-33.5-22.4-38.1-26.3c-4.8-4.1-37.1-31.1-41.5-37.2
				c-4.5-6.1-10.1-69.7-9.6-72.6c0.6-2.9,28-4.3,31.1,2.4c0,0,1.4,36.2,2.2,42.3c0.7,6.1,3,11.5,7.2,16.6c5.8,7.1,18,23.5,29.9,36.7
				C1987,363.2,2010.4,384.9,2014.1,388.1z"/>
			<path class="st18" d="M1947.2,265.2c0,0,1.7-48.2-14-47.6c-19.8,0.8-22.8,25-20.1,51.4C1913.1,269,1942.8,269.3,1947.2,265.2z"/>
			<path class="st15" d="M2008.7,383.3c0,0,1.5,2.3,3.6,3c3.7,1.3,9.2-1.1,11.8,3.7c2.7,4.8-10.3,16.9-13.8,17.6
				c-3.5,0.7-9.1-4.7-13.5-15.4C1992.5,381.6,2008.7,383.3,2008.7,383.3z"/>
			<path class="st15" d="M2023,388.6c0,0,6.6,5,13.3,11.5c5.9,5.7,11.9,13.2,10.4,14.6c-2.1,1.9-6.1-4.5-12.3-9.8
				c-5.7-4.9-5.4-3-5.4-3s-0.1-0.5,5.2,5.9c5.6,6.9,11.4,15.1,9.7,16.3c-1.1,0.8-1.1,0.9-3.6-1.3c1.1,1.5,0.9,2.1,0.3,2.6
				c-3.1,2.6-12.9-6.4-16.8-9.9c3,2.8,4.9,5.1,1.8,5.4c-3.5,0.4-16.8-12.9-22-17.2C1997.9,399.1,2023,388.6,2023,388.6z"/>
		</g>
		<path class="st0" d="M1823.8,260c0,0-5.3,38-2.7,56.6c0,0,2.8,2,8.3,0.4c0,0,1.4-41.4,4.4-56.1
			C1833.9,260.8,1832.2,259.5,1823.8,260z"/>
	</g>
	<g>
		<rect x="1825.1" class="st0" width="4.1" height="288.6"/>
	</g>
</g>
<g>
	<rect x="2465.9" y="1495.1" class="st21" width="79.5" height="5.6"/>
	<rect x="2465.9" y="1505.6" class="st21" width="79.5" height="23.4"/>
	<rect x="2428.6" y="1536.9" class="st21" width="46.9" height="3.5"/>
	<rect x="2428.6" y="1541.9" class="st21" width="46.9" height="9.5"/>
	<rect x="2558.4" y="1465.1" class="st21" width="3.5" height="65.6"/>
</g>
<g>
	<g>
		<defs>
			<polygon id="SVGID_5_" points="1,1 2,1 1,2 			"/>
		</defs>
		<defs>
			<polygon id="SVGID_6_" points="-1,-1 -2,-1 -1,-2 			"/>
		</defs>
		<clipPath id="SVGID_7_">
			<use xlink:href="#SVGID_5_"  style="overflow:visible;"/>
		</clipPath>
		<clipPath id="SVGID_8_" class="st22">
			<use xlink:href="#SVGID_6_"  style="overflow:visible;"/>
		</clipPath>
		
			<linearGradient id="SVGID_9_" gradientUnits="userSpaceOnUse" x1="423.4651" y1="1191.6807" x2="431.8694" y2="785.4824" gradientTransform="matrix(1 0 0 -1 0 2000)">
			<stop  offset="0" style="stop-color:#FFFFFF"/>
			<stop  offset="1" style="stop-color:#000000"/>
		</linearGradient>
		<polygon class="st23" points="401.9,1069.9 478.3,1069.9 454.9,1021.4 378.5,1021.4 		"/>
	</g>
</g>
<g>
	<g>
		<defs>
			<polygon id="SVGID_10_" points="1,1 2,1 1,2 			"/>
		</defs>
		<defs>
			<polygon id="SVGID_11_" points="-1,-1 -2,-1 -1,-2 			"/>
		</defs>
		<clipPath id="SVGID_12_">
			<use xlink:href="#SVGID_10_"  style="overflow:visible;"/>
		</clipPath>
		<clipPath id="SVGID_13_" class="st24">
			<use xlink:href="#SVGID_11_"  style="overflow:visible;"/>
		</clipPath>
		
			<linearGradient id="SVGID_14_" gradientUnits="userSpaceOnUse" x1="358.6428" y1="1190.3394" x2="367.0472" y2="784.1417" gradientTransform="matrix(1 0 0 -1 0 2000)">
			<stop  offset="0" style="stop-color:#FFFFFF"/>
			<stop  offset="1" style="stop-color:#000000"/>
		</linearGradient>
		<polygon class="st25" points="366.1,1069.9 384.3,1069.9 360.9,1021.4 342.7,1021.4 		"/>
	</g>
</g>
<g>
	<g>
		<defs>
			<polygon id="SVGID_15_" points="1,1 2,1 1,2 			"/>
		</defs>
		<defs>
			<polygon id="SVGID_16_" points="-1,-1 -2,-1 -1,-2 			"/>
		</defs>
		<clipPath id="SVGID_17_">
			<use xlink:href="#SVGID_15_"  style="overflow:visible;"/>
		</clipPath>
		<clipPath id="SVGID_18_" class="st26">
			<use xlink:href="#SVGID_16_"  style="overflow:visible;"/>
		</clipPath>
		
			<linearGradient id="SVGID_19_" gradientUnits="userSpaceOnUse" x1="2508.5525" y1="1993.1923" x2="2411.0906" y2="1628.6122" gradientTransform="matrix(1 0 0 -1 0 2000)">
			<stop  offset="0" style="stop-color:#FFFFFF"/>
			<stop  offset="1" style="stop-color:#000000"/>
		</linearGradient>
		<polygon class="st27" points="2419.6,197.6 2504.3,197.6 2504.3,164.9 2419.6,164.9 		"/>
	</g>
</g>
<linearGradient id="SVGID_20_" gradientUnits="userSpaceOnUse" x1="2508.5525" y1="1993.1923" x2="2411.0906" y2="1628.6122" gradientTransform="matrix(1 0 0 -1 0 2000)">
	<stop  offset="0" style="stop-color:#40D5E6"/>
	<stop  offset="1" style="stop-color:#5577FF"/>
</linearGradient>
<polygon class="st28" points="2419.6,197.6 2504.3,197.6 2504.3,164.9 2419.6,164.9 "/>
<g>
	<g>
		<defs>
			<polygon id="SVGID_21_" points="1,1 2,1 1,2 			"/>
		</defs>
		<defs>
			<polygon id="SVGID_22_" points="-1,-1 -2,-1 -1,-2 			"/>
		</defs>
		<clipPath id="SVGID_23_">
			<use xlink:href="#SVGID_21_"  style="overflow:visible;"/>
		</clipPath>
		<clipPath id="SVGID_24_" class="st29">
			<use xlink:href="#SVGID_22_"  style="overflow:visible;"/>
		</clipPath>
		
			<linearGradient id="SVGID_25_" gradientUnits="userSpaceOnUse" x1="2494.2673" y1="1968.265" x2="2418.7825" y2="1685.8955" gradientTransform="matrix(1 0 0 -1 0 2000)">
			<stop  offset="0" style="stop-color:#FFFFFF"/>
			<stop  offset="1" style="stop-color:#000000"/>
		</linearGradient>
		<polygon class="st30" points="2419.6,155.9 2504.3,155.9 2504.3,149.7 2419.6,149.7 		"/>
	</g>
</g>
<linearGradient id="SVGID_26_" gradientUnits="userSpaceOnUse" x1="2494.2673" y1="1968.265" x2="2418.7825" y2="1685.8955" gradientTransform="matrix(1 0 0 -1 0 2000)">
	<stop  offset="0" style="stop-color:#40D5E6"/>
	<stop  offset="1" style="stop-color:#5577FF"/>
</linearGradient>
<polygon class="st31" points="2419.6,155.9 2504.3,155.9 2504.3,149.7 2419.6,149.7 "/>
<linearGradient id="SVGID_27_" gradientUnits="userSpaceOnUse" x1="877.64" y1="1026.1793" x2="877.64" y2="493.8293" gradientTransform="matrix(1 0 0 -1 0 2000)">
	<stop  offset="0" style="stop-color:#626E7A"/>
	<stop  offset="1" style="stop-color:#F5F5F5"/>
</linearGradient>
<path class="st32" d="M1153.7,906.7H601.6c-12.9,0-23.3-10.4-23.3-23.3v-5.9c0-12.9,10.4-23.3,23.3-23.3h552.1
	c12.9,0,23.3,10.4,23.3,23.3v5.9C1177,896.3,1166.6,906.7,1153.7,906.7z"/>
<g>
	<g>
		<polygon class="st33" points="1494.6,1626.9 1798.6,1626.9 1702.8,1921.2 1711.8,1924.1 1811.6,1617.5 1487.8,1617.5 
			1388.9,1921.2 1397.8,1924.1 		"/>
	</g>
	<g>
		<polygon class="st33" points="1598.1,1921.2 1502.3,1626.9 1806.3,1626.9 1903.1,1924.1 1912,1921.2 1813.1,1617.5 1489.3,1617.5 
			1589.1,1924.1 		"/>
	</g>
	<g>
		<rect x="1466.3" y="1710.2" class="st33" width="372.1" height="9.4"/>
	</g>
	<g>
		<rect x="1428" y="1812.5" class="st33" width="445.2" height="9.4"/>
	</g>
</g>
<g>
	<g>
		<g>
			<path class="st15" d="M1647,955.4c0,0,7.6-13.3-4.4-48.8c-11.6-34.4-51.9-31.3-64.7-9.2s-8.5,35.7,10.4,60.6
				C1607.1,982.8,1639.1,966.7,1647,955.4z"/>
		</g>
	</g>
	<g>
		<g>
			<path class="st15" d="M1553.5,1566.9c0,0-2,14.6-2.2,16.8c-0.3,2.2-22.2-1.3-22.2-1.3l-1.8-17.4
				C1527.3,1565,1550.8,1564.8,1553.5,1566.9z"/>
		</g>
	</g>
	<g>
		<g>
			<path class="st34" d="M1551.5,1581.8c0,0,6.9,8.8,13.7,12.6c6.7,3.8,17.3,5.3,21.2,9.3c2.9,2.9,10.4,15.2-17.4,14.9
				s-41.3,1.7-44.3-3s4.3-34.9,4.3-34.9S1535.8,1582.8,1551.5,1581.8z"/>
		</g>
	</g>
	<g>
		<g>
			<path class="st15" d="M1705.1,1566.9c0,0-2,14.6-2.2,16.8c-0.3,2.2-22.2-1.3-22.2-1.3l-1.8-17.4
				C1679,1565,1702.4,1564.8,1705.1,1566.9z"/>
		</g>
	</g>
	<g>
		<g>
			<path class="st34" d="M1703.1,1581.8c0,0,6.9,8.8,13.7,12.6s31.4,7,35.4,10.9c2.9,2.9,7.6,14.4-31.6,13.3
				c-27.9-0.8-41.3,1.7-44.3-3s4.3-34.9,4.3-34.9S1689.3,1582.4,1703.1,1581.8z"/>
		</g>
	</g>
	<g>
		<g>
			<path class="st35" d="M1560.9,1203.4c0,0-11.2,34.9-9.8,65s-5.8,63-8.8,94.4c-3.3,35-16.9,117.9-17.4,136.7s2.1,78.6,2.1,78.6
				l27.2,0.7c0,0,22.8-144.9,28.8-159.7s35.3-120.2,36.2-132.1C1620.2,1275,1560.9,1203.4,1560.9,1203.4z"/>
		</g>
	</g>
	<g>
		<g>
			<path class="st35" d="M1673.6,1199.8c0,0,16.5,92.3,18.5,110.7c2,18.4,3.3,89.1,4.3,100.6c1,11.5,6.6,150.5,11.8,167.6h-30.3
				c0,0-31.1-101.1-31.1-148.9c0-47.8-20.6-104-33.9-135.5s-43.8-32.3-52-90.8C1560.9,1203.4,1662.6,1181.2,1673.6,1199.8z"/>
		</g>
	</g>
	<g>
		<g>
			<path class="st15" d="M1636,964.8c0,0-3.4,10,0,17.1s-43.7,2.8-43.7,2.8s2.1-14.7-4-26.8C1582.1,945.8,1636,964.8,1636,964.8z"/>
		</g>
	</g>
	<g>
		<g>
			<path class="st35" d="M1558.7,1211c0,0,16.9,17.4,116.5-2.7l-1.5-8.5l-113.1,4.3L1558.7,1211z"/>
		</g>
	</g>
	<g>
		<g>
			<path class="st15" d="M1643.1,984.1c0,0,17.4,1.8,22.4,2.7c5,1,38.4-6,45.3-6.7s36.2-20.8,37.1-23.1s17.8-45.1,18.8-54.3
				c0.9-9.2,16.4-4.5,15.1,1.9c-2.5,11.9-5.7,40.8-7.4,49.2c-1.9,9-6.9,29.5-9.8,32s-29.2,22.6-55,31.1
				c-25.8,8.5-45.2,21.1-45.2,21.1h-127.2c0,0-49.5-70.7-50.6-81.4c-1.1-10.7,34.6-81.5,41.7-90.4c7.1-8.9,17.4,2.9,17.4,2.9
				s-21.3,62.5-24.1,71.3c-2.8,8.9,24.8,47.9,32.3,48s27-2.4,35.7-2.7c8.6-0.4,17.8-4.2,17.8-4.2L1643.1,984.1z"/>
		</g>
	</g>
	<g>
		<g>
			<path class="st11" d="M1697.9,1031.4c0,0-15.6,10.3-17,28.1s-7.1,45.8-9.9,55.4c-2.8,9.6,2.5,79.2,3.2,84.2
				c0.7,5-98.4,16.8-113.7,5c0,0-4.3-65-6-83.5c-1.8-18.5-10.3-63.2-13.1-69.3s-37.3-54.4-38.7-60.7c0,0,17.8-28.4,30.6-28.8
				c0,0,20.3,23.8,26.9,24.9s47.2-6.4,47.2-6.4c0,0,4.4,6,28-1.1c0,0,28.1,3.2,32.6,3.8c5.5,0.7,43.9-4.8,43.9-4.8
				s15.4,26,12.7,39.2L1697.9,1031.4z"/>
		</g>
	</g>
	<g>
		<g>
			<path class="st15" d="M1765.8,908.2c0,0,3.5-16.5-0.7-21.2c-2.4-2.7-8.1-9.8-8.6-10.9c-0.5-1-6.7-4.6-6.7-6.3s6-3.8,11.3,1
				c5.2,4.8,8.5,5.9,10.6,5.4s5.1-17.9,5.4-22.3s1.9-15.7,4.6-14.9c2.7,0.8,2.6,5.8,2.6,5.8s3.1-8.6,5.2-6.9s1.8,5.9,1.8,5.9
				s3.9-4.8,5-1.3c1.1,3.5,0,6.7,0,6.7s4.1-2.2,4.3,3.3c0.3,5.5-1.2,21.6-4.1,27.3c-2.9,5.8-13.7,20.8-14.9,26.7
				C1780.2,912.4,1765.8,908.2,1765.8,908.2z"/>
		</g>
	</g>
	<g>
		<g>
			<path class="st15" d="M1542.1,879.3c0,0,11.8-19.9,15.9-21.7c4-1.8,9.7-2.8,14.7-6.3c5-3.5,11.5-6.5,11.2-7.7
				c-0.4-1.2-6.2-0.7-12.5,2c-6.3,2.7-9,1.4-9.6,0s3.3-11.5,5.2-13.8s15.4-16,13.1-18s-11,5.5-12.4,7c0,0,7-14.7,4.3-15.4
				c-2.7-0.7-7.8,4.5-7.8,4.5s0.6-12.5-12.9,7.8c0,0,2.8-6.8-1.3-4.5s-8.2,14.9-9.5,21.3c-1.3,6.4-7.2,26.8-12.3,31.7
				S1542.1,879.3,1542.1,879.3z"/>
		</g>
	</g>
	<g>
		<g>
			<path class="st36" d="M1588.2,957.9c0,0,6.2,0.5,19.5-4s14.3-27.8,17.1-25c5.8,5.6,11.4,1.7,13.6-1.6c0,0-6.5-8.5-3.5-12.6
				s7.9-7.1,7.9-7.1s-9.3-45-51.8-24.5C1541.3,907,1588.2,957.9,1588.2,957.9z"/>
		</g>
	</g>
	<g>
		<g>
			<path class="st11" d="M1636,981.8l-1.5-6.5c0,0-27.1-0.5-41.9,1.6l-1.6,7.8C1591,984.7,1610,993.3,1636,981.8z"/>
		</g>
	</g>
	<g>
		<g>
			<path class="st15" d="M1629.3,923.2c-2.5-4.1-11.6-6.8-12.6,4.7c-0.8,9,16.3,18.8,16.4,10.4
				C1633.2,929.9,1630.9,925.9,1629.3,923.2z"/>
		</g>
	</g>
	<g>
		<g>
			<path class="st37" d="M1766.4,904.5c0,0,9.8,0.2,14.5,4.5c0,0,0.3,2.7-0.8,4.9c0,0-8.5-4-15-4.7
				C1765.2,909.2,1765.3,905.6,1766.4,904.5z"/>
		</g>
	</g>
	<g>
		<g>
			<path class="st36" d="M1777.9,906.9c0.9,2.1-0.1,4.6-2.2,5.5s-4.6-0.1-5.5-2.2c-0.9-2.1,0.1-4.6,2.2-5.5
				C1774.6,903.8,1777,904.8,1777.9,906.9z"/>
		</g>
	</g>
</g>
<g>
	<g>
		<path class="st38" d="M2550.2,1134.9c0,0-8.7,1.2-8.6-2.5c0.1-3.7,0.7-8.5,0.7-8.5L2550.2,1134.9z"/>
		<path class="st38" d="M2598.9,1095.1l-28.5,22c3.6-0.7,9.7-1.6,9.9,0.3c0.2,2.7-10.8,6-14.3,8.4c-3.2,2.3-6.6,6.3-7.5,6.5
			l-6.2,5.3l-10.1-13.8c0,0,16.6-18.8,20.6-22.8c6.5-6.5,32.9-10.3,34.3-9.4C2599.8,1093.4,2598.9,1095.1,2598.9,1095.1z"/>
	</g>
	<g>
		<path class="st39" d="M2563.8,1138.7l-23-19.5l-78.8,79.6c-12.3,8.5,24.1,37.7,34.3,44.1c26.4,16.4,57.6,54.3,89.9,31.2
			c35-25.1-16-42.9-33-42.4c-14.7,0.4-46.8-28.6-46.8-28.6L2563.8,1138.7z"/>
	</g>
	<g>
		<path class="st40" d="M2522.2,1853.1c0,0-13.1,13.8-26.4,16.6s-22.6,6.6-22.7,14.4c-0.1,7.9,38.2,13.1,53.4,5.1
			c22.7-11.9,25-8.3,27.5-14.2c2.5-5.9-3-21.8-2.9-23.7C2551.4,1849.1,2522.2,1853.1,2522.2,1853.1z"/>
	</g>
	<g>
		<path class="st41" d="M2523.7,1846.5c0,0-1.7,6.4-1.5,6.6s29.9,3.5,29.1-1.7c-0.7-4.2-1.8-8.8-1.8-8.8L2523.7,1846.5z"/>
	</g>
	<g>
		<path class="st40" d="M2670.1,1856.7c0,0-9.6,13.4-22.5,16.5c-12.7,3-20.9,8.8-21.6,16.5s29.9,17.7,51.4,4.2
			c14.1-8.8,19.4-8.3,22.2-14c2.8-5.6-1.5-21.4-1.2-23.2C2698.8,1854.5,2670.1,1856.7,2670.1,1856.7z"/>
	</g>
	<g>
		<path class="st41" d="M2670.5,1850.1c0,0-0.6,6.5-0.4,6.6s28.5,5.2,28.4,0.1c-0.1-4.1-1.8-9.1-1.8-9.1L2670.5,1850.1z"/>
	</g>
	<g>
		<path class="st42" d="M2553.6,1459.8c0,0-13.8,99.9-19.4,133.6c-6.6,39.5-8.8,72.1-10.6,92.5c-2.3,25.7-5.4,157.2-7,164.7
			s40.1,3.6,40.1,3.6s21.8-171.4,28.7-198.8c6.4-25.5,25-135.6,30.8-128.6c5.8,7,23.7,131.7,28,151.8s15.9,178.3,15.9,178.3
			s39.3,6.3,47.2,0c0,0-6.2-141.1-8.9-178.8c-1.1-14.4,9.1-171.9-15.2-235.4C2670.3,1409.1,2553.6,1459.8,2553.6,1459.8z"/>
	</g>
	<path class="st35" d="M2594,1220.3c0,0-36.4,7.5-40.7,11.3c-4.7,4.1-12.9,43.9-13.4,55s4.4,57.5,9.1,74.7
		c4.7,17.3,4.8,92,1.8,115.9c0,0,70.1,14.3,142.1,5c0,0-9.8-72.7-6.9-96.3c3.7-30.3,12.6-100.1,12.6-100.1s0.1-39.3-5.5-45.6
		c-11.9-13.5-57.9-19.9-57.9-19.9H2594z"/>
	<path class="st39" d="M2648.6,1293.2c1.7,36,13.2,44.7,24.4,41.9c3.5-0.9,7-2.9,10.1-5.5c4.8-4.2,8.6-9.9,9.9-15.4
		c4.9-20,5-75.3-20.3-82.4C2672.7,1231.7,2645.3,1222.8,2648.6,1293.2z"/>
	<path class="st43" d="M2539.8,1309.5c0,0,20.3-3.4,21.5,26.1s14,84.1,34.8,105.9l-81.7,3.1c-20.8-21.8-31-74-32.5-103.4
		c-1.4-27.1-21.5-26.1-21.5-26.1L2539.8,1309.5z"/>
	<path class="st39" d="M2587.4,1242.1c0.5,0.3,1,0.6,1.5,0.9c1.9,0.9,4.2,1.6,7.1,1.9c1.1,0.1,2.2,0.2,3.2,0.1c0.7,0,1.3-0.1,2-0.1
		c19.3-1.9,38.4-23.9,38.4-23.9c-38.7-5.9-55.2,1.3-55.2,1.3S2578.3,1235.9,2587.4,1242.1z"/>
	<path class="st15" d="M2595.7,1108.8c0,0-45.8-9.2-34,47.8s22.8,61.3,50,48.8s23.8-49.1,24.8-67.2S2610.2,1109.1,2595.7,1108.8z"/>
	<path class="st15" d="M2588.2,1228.2c0,0,9,5.9,43.1-9.1c0,0-3.4-20.3,1.9-42.5c5.1-21.4-41.9,26.4-41.9,26.4
		c0.6,0.4,0.6,2.6,0.3,5.6c-0.1,0.8-0.2,1.7-0.3,2.6c-0.2,1.6-0.6,3.3-1,5c-0.1,0.5-0.2,0.9-0.4,1.4
		C2588,1224.9,2588.2,1221.8,2588.2,1228.2z"/>
	<path class="st36" d="M2635,1167.7c0,0-2.3-15.4-8.9-15.8c-6.6-0.4-8.5,9-8.5,9l-5.2,0.5c0,0,2.1-16.3-4.5-18.9
		c-6.6-2.6-42.6,6.3-47.9,1.8c-5.4-4.5-2.7-34.5,6.7-39.2c9.4-4.6,34.7-17.2,54.3-4.6c0,0,15-2.1,17.6,10
		C2641,1122.7,2638.9,1158.6,2635,1167.7z"/>
	<path class="st15" d="M2617.8,1146.6c1.1-5.4,12-6.4,12.1,1.8c0.2,8.2-6.8,22-10.8,20.2C2615.3,1166.8,2616.3,1153.9,2617.8,1146.6
		z"/>
	<path class="st44" d="M2631.4,1212.6c0,0-17.9,10.8-35.5,13.2l9.4,15l29.8-20.5L2631.4,1212.6z"/>
	<path class="st44" d="M2589.9,1217.6c0,0,1.9,6.2,5.9,8.2l-8.8,12.3l0.3-16.3L2589.9,1217.6z"/>
	<path class="st21" d="M2595.9,1225.8l-7,9.7c0,0,4.4,5.6,13.9,1.3L2595.9,1225.8z"/>
	<path class="st21" d="M2588.9,1243c1.9,0.9,4.2,1.6,7.1,1.9c1.1,0.1,2.2,0.2,3.2,0.1l-1.1-9.1h-6.5
		C2591.8,1236,2590.1,1238.6,2588.9,1243z"/>
	<path class="st19" d="M2590.1,1217c20.2,1.1,33.2-19.9,33.6-20.5c-12.7,13.9-32.4,14.7-32.4,14.7
		C2591.1,1212.8,2590.5,1215.3,2590.1,1217z"/>
	<path class="st45" d="M2539.8,1309.5c0,0-24.3,2.3-19.2,36.2l-72.2,3.9c0,0-10-23.1,11.9-34.5L2539.8,1309.5z"/>
	
		<rect x="2455.2" y="1332.8" transform="matrix(0.9986 -5.369770e-02 5.369770e-02 0.9986 -68.0655 135.2811)" class="st46" width="56.4" height="2.9"/>
	
		<rect x="2460.1" y="1319.8" transform="matrix(0.9986 -5.369770e-02 5.369770e-02 0.9986 -67.3613 135.521)" class="st46" width="56.4" height="2.9"/>
	<g>
		
			<rect x="2490.5" y="1349" transform="matrix(0.9986 -5.369770e-02 5.369770e-02 0.9986 -68.882 137.1954)" class="st46" width="56.4" height="2.9"/>
		
			<rect x="2497.5" y="1368.7" transform="matrix(0.9986 -5.369770e-02 5.369770e-02 0.9986 -69.9336 137.6025)" class="st46" width="56.4" height="2.9"/>
		
			<rect x="2504.6" y="1388.4" transform="matrix(0.9986 -5.369770e-02 5.369770e-02 0.9986 -70.9807 138.0111)" class="st46" width="56.4" height="2.9"/>
		
			<rect x="2511.6" y="1408.2" transform="matrix(0.9986 -5.369770e-02 5.369770e-02 0.9986 -72.0322 138.4182)" class="st46" width="56.4" height="2.9"/>
		
			<rect x="2518.7" y="1427.9" transform="matrix(0.9986 -5.369770e-02 5.369770e-02 0.9986 -73.0793 138.8268)" class="st46" width="56.4" height="2.9"/>
	</g>
	<path class="st15" d="M2602.3,1372.9c0,0-3.1,1.5-5.9,0.7c-4.7-1.3-8.7-7.8-14.8-4.4c-6.1,3.3-1,25.8,2.1,29.1s12.7,1.4,24.6-7.2
		C2620.3,1382.5,2602.3,1372.9,2602.3,1372.9z"/>
	<path class="st15" d="M2583.9,1368.4c0,0-10.4,0.8-21.8,3c-10,2-22.2,5.9-21.7,8.4c0.7,3.8,10.3-0.5,20.4-1.8
		c9.3-1.2,7.6,0.6,7.6,0.6s0.4-0.5-9.4,2.8c-10.6,3.5-21.8,7.8-21.5,9.9c0.4,2.6,0.7,2.9,4.8,2.2c-2.3,0.9-2.3,1.6-2.1,2.6
		c1.4,5.1,17.8,2.3,24.3,1.2c-5,0.9-8.6,2.1-5.7,4.6c3.3,2.9,26.3-2,34.7-3C2602.7,1397.9,2583.9,1368.4,2583.9,1368.4z"/>
	<path class="st39" d="M2664.6,1232.4c-7.4,2.4-11.4,12.9-6.9,34.7c5,24.1,10.6,35.8,13.8,41.5s20.6,34.8,17.5,39.4
		c-3.2,4.6-45.3,15.6-48.1,16.4c-5.7,1.6-43.9,9.2-43.9,9.2l9.4,32.7c0,0,116.3-19.8,121.9-25.5s8.6-13.3,2.4-33.1
		c-6.4-20.1-17.8-67.1-19.8-70.8C2708.8,1273.3,2698.1,1221.4,2664.6,1232.4z"/>
	<path class="st47" d="M2658.8,1271.9c0,0,2.6,36.9,14.3,63.2c3.5-0.9,7-2.9,10.1-5.5c0,0-13.4-24.3-14.6-27
		C2667.2,1299.8,2660.1,1278.3,2658.8,1271.9z"/>
</g>
<g>
	
		<linearGradient id="SVGID_28_" gradientUnits="userSpaceOnUse" x1="876.06" y1="833.1451" x2="876.06" y2="-306.5742" gradientTransform="matrix(1 0 0 -1 0 2000)">
		<stop  offset="0" style="stop-color:#44607D"/>
		<stop  offset="1" style="stop-color:#F5F5F5"/>
	</linearGradient>
	<path class="st48" d="M1138.3,1362.8H613.9c-18.7,0-33.8-15.2-33.8-33.8V974.5c0-18.7,15.2-33.8,33.8-33.8h524.4
		c18.7,0,33.8,15.2,33.8,33.8V1329C1172.1,1347.7,1157,1362.8,1138.3,1362.8z"/>
</g>
<g>
	<g>
		
			<linearGradient id="SVGID_29_" gradientUnits="userSpaceOnUse" x1="1000.39" y1="928.75" x2="1018.9" y2="928.75" gradientTransform="matrix(1 0 0 -1 0 2000)">
			<stop  offset="0" style="stop-color:#D5E4FF"/>
			<stop  offset="1" style="stop-color:#EDFFFE"/>
		</linearGradient>
		<rect x="1000.4" y="1019.8" class="st49" width="18.5" height="102.9"/>
	</g>
	<g>
		
			<linearGradient id="SVGID_30_" gradientUnits="userSpaceOnUse" x1="1032.89" y1="942.475" x2="1051.4" y2="942.475" gradientTransform="matrix(1 0 0 -1 0 2000)">
			<stop  offset="0" style="stop-color:#D5E4FF"/>
			<stop  offset="1" style="stop-color:#EDFFFE"/>
		</linearGradient>
		<rect x="1032.9" y="992.4" class="st50" width="18.5" height="130.3"/>
	</g>
	<g>
		
			<linearGradient id="SVGID_31_" gradientUnits="userSpaceOnUse" x1="1067" y1="935.2999" x2="1085.51" y2="935.2999" gradientTransform="matrix(1 0 0 -1 0 2000)">
			<stop  offset="0" style="stop-color:#D5E4FF"/>
			<stop  offset="1" style="stop-color:#EDFFFE"/>
		</linearGradient>
		<rect x="1067" y="1006.7" class="st51" width="18.5" height="116"/>
	</g>
	<g>
		
			<linearGradient id="SVGID_32_" gradientUnits="userSpaceOnUse" x1="1102.04" y1="918.6299" x2="1120.55" y2="918.6299" gradientTransform="matrix(1 0 0 -1 0 2000)">
			<stop  offset="0" style="stop-color:#D5E4FF"/>
			<stop  offset="1" style="stop-color:#EDFFFE"/>
		</linearGradient>
		<rect x="1102" y="1040" class="st52" width="18.5" height="82.7"/>
	</g>
	<g>
		<rect x="1000.4" y="1057.4" class="st11" width="18.5" height="65.3"/>
	</g>
	<g>
		<rect x="1032.9" y="1040" class="st11" width="18.5" height="82.7"/>
	</g>
	<g>
		<rect x="1067" y="1049.1" class="st11" width="18.5" height="73.6"/>
	</g>
	<g>
		<rect x="1102" y="1071.3" class="st11" width="18.5" height="51.4"/>
	</g>
</g>
<g>
	<g>
		<path class="st21" d="M1108.2,1187.3h-95.4c-4,0-7.3-3.3-7.3-7.3v-14.7c0-4,3.3-7.3,7.3-7.3h95.4c4,0,7.3,3.3,7.3,7.3v14.7
			C1115.5,1184,1112.2,1187.3,1108.2,1187.3z"/>
	</g>
</g>
<g>
	<g>
		<path class="st21" d="M1108.2,1242.2h-95.4c-4,0-7.3-3.3-7.3-7.3v-14.7c0-4,3.3-7.3,7.3-7.3h95.4c4,0,7.3,3.3,7.3,7.3v14.7
			C1115.5,1238.9,1112.2,1242.2,1108.2,1242.2z"/>
	</g>
</g>
<g>
	<g>
		<path class="st21" d="M1108.2,1297.1h-95.4c-4,0-7.3-3.3-7.3-7.3v-14.7c0-4,3.3-7.3,7.3-7.3h95.4c4,0,7.3,3.3,7.3,7.3v14.7
			C1115.5,1293.8,1112.2,1297.1,1108.2,1297.1z"/>
	</g>
</g>
<g>
	<g>
		<g>
			<path class="st21" d="M952.3,1092.5c-24.5-68.4-89.8-110.4-158.8-108.4c-16.7,0.5-33.6,3.6-50.2,9.5
				c-50.2,18-86.2,57.9-101,105.2c-10.3,32.7-10.3,69,2.1,103.8c1.2,3.5,2.6,6.9,4,10.2c6.5,15.1,15.1,28.7,25.3,40.7
				c42.8,50.3,113.7,71.5,179.6,48C938.4,1271,982.7,1177.5,952.3,1092.5z M839.7,1262.9c-49.4,17.7-102.6,1.7-134.6-36
				c-7.6-9-14.1-19.2-19-30.5c-1.1-2.5-2.1-5-3-7.6c-9.3-26.1-9.3-53.2-1.6-77.8c11.1-35.4,38.1-65.4,75.7-78.9
				c12.4-4.4,25.1-6.8,37.6-7.1c51.7-1.6,100.7,29.9,119,81.3C936.6,1170,903.4,1240.1,839.7,1262.9z"/>
		</g>
	</g>
	<g>
		<g>
			<path class="st12" d="M681.4,1111l-39-12.2c14.8-47.2,50.8-87.2,101-105.2c16.6-5.9,33.5-9,50.2-9.5l1.2,40.9
				c-12.5,0.4-25.2,2.7-37.6,7.1C719.5,1045.6,692.5,1075.6,681.4,1111z"/>
		</g>
	</g>
	<g>
		<g>
			<path class="st11" d="M686,1196.4l-37.5,16.3c-1.4-3.3-2.8-6.7-4-10.2c-12.4-34.8-12.4-71-2.1-103.8l39,12.2
				c-7.7,24.5-7.7,51.7,1.6,77.8C684,1191.4,685,1193.9,686,1196.4z"/>
		</g>
	</g>
	<g>
		<g>
			<path class="st10" d="M673.9,1253.4c-10.2-12-18.8-25.6-25.3-40.7l37.5-16.3c4.9,11.3,11.3,21.5,19,30.5L673.9,1253.4z"/>
		</g>
	</g>
</g>
<g>
	<path class="st40" d="M1119,1840.9c0,0-6,11.2-9.9,15.6s-18.9,12.4-19,25.5c-0.1,14.3,25.3,10.3,35.2,9.8
		c9.9-0.5,10.7-8.2,14.8-16.2c4.2-8.1,8.4-6.7,9.2-13.2s-4-21.5-4-21.5L1119,1840.9L1119,1840.9z"/>
	<g>
		<path class="st53" d="M1144.9,1836.6c0,0,1.2,6.1,0.9,6.2c-0.2,0.2-28.1,5.1-27.9,0.1c0.1-4,2.6-8.7,2.6-8.7L1144.9,1836.6z"/>
	</g>
	<g>
		<path class="st15" d="M1400.2,1311.4c0,0,29.2-6.2,31.4-4.9c2.2,1.3,2.3,2.9-0.4,3.6c-2.7,0.7-28.1,6.8-28.1,6.8
			s35.4-1.3,37.5-0.7c1.2,0.4,1.6,3.5,0.2,4s-36.6,3.9-36.6,3.9s33.1-1.1,34.6-0.1c1.3,0.9,1,4-1.4,4.2c-2.5,0.3-33.2,3.1-33.2,3.1
			s24.1,0.7,24.8,2.5c0.4,1.1,1,3.8-5.2,3.4s-21,0.3-21,0.3L1400.2,1311.4z"/>
	</g>
	<g>
		<path class="st40" d="M1270.1,1838.8c0,0,12.2,13.6,24.6,16.5s21.1,6.5,21.2,14.3c0.1,7.8-35.7,13-49.9,5.1
			c-21.2-11.8-23.3-8.2-25.7-14.1c-2.3-5.9,2.8-21.6,2.7-23.5C1242.8,1834.8,1270.1,1838.8,1270.1,1838.8z"/>
	</g>
	<g>
		<path class="st53" d="M1268.7,1832.3c0,0,1.6,6.4,1.4,6.5c-0.2,0.1-27.9,3.4-27.1-1.7c0.7-4.2,1.7-8.7,1.7-8.7L1268.7,1832.3z"/>
	</g>
	<g>
		<path class="st54" d="M1243.5,1449.8c0,0,10.1,97.9,15.3,131.4c6.1,39.2,8.2,71.5,9.9,91.8c2.2,25.5,2.6,150.9,4.1,158.4
			c1.5,7.5-33.4,2.1-33.4,2.1s-17.2-163.9-23.6-191.1c-6-25.3-28.1-134.2-33.5-127.3c-5.4,6.9-12.2,127-16.2,147
			c-4,19.9-16.3,176.1-16.3,176.1s-27.8,5.5-35.2-0.7c0,0-3.4-134.6-0.8-171.9c1-14.3-16.7-170.8,6-233.9
			C1131.8,1398.3,1243.5,1449.8,1243.5,1449.8z"/>
	</g>
	<g>
		<path class="st55" d="M1070.8,1463.7c0,0,17,5.2,24.1,3.9c7.1-1.3,3.5-88.6,3.8-106.8c0.2-14.7,8.3-53.6,8.3-53.6s0,0,0,0.1
			c0,0,0,0,0,0c0,0,0,0,0,0.1c0.8,2.9,11.7,43.3,12.1,62.7c0.4,20.1-2.6,97.1-2.6,97.1l30,2.9l86.2,2.1l18-2.1
			c0,0-2.2-32.9-2.9-48.6c-0.5-9.9-2.4-27.7-1.9-45.1c0,0-0.3-18.3,1.5-26.1c0.2-34.7,2.3-69.1,2.3-69.1c1.2-15.8,2-30.5,2.4-44.2
			c-3.8-2-8.4-4.4-12-6.1c-11.3-5.4-27.1-12.6-37.2-17.3c-5.9-2.7-11.7-4.7-11.7-4.7s-40.4-3.9-43.7-3.7c-1,0.1-6.1,1.8-12.7,4.3
			c-14.3,5.4-42,16.5-46.4,19.7c-6.5,4.6-20.1,114.4-20.7,122.1C1066.4,1365.1,1070.8,1463.7,1070.8,1463.7z"/>
	</g>
	<path class="st56" d="M1248,1456.2c0,0-59.2,5-111,0v17c0,0,77.8,11.2,113.6-3.2L1248,1456.2z"/>
	<g>
		<path class="st57" d="M1197.5,1211.2c0,0,9.6,22.6,16.8,73.1c2.8,19.4,7.9,52.1,11.7,85.4v0c2.9,26.3,9.7,53.3,11.8,73.4
			c2.2,20.8,8.9,82.3,8.9,82.3l16.2-10.2c2.3-2.1,5.6-4.9,4.6-7.9c-4.4-14.4-13-61.9-18-103.3c0,0,0-0.1,0-0.1c-0.2-2-0.5-4-0.7-5.9
			c0-0.1,0-0.2,0-0.3c-0.9-8.3-1.7-16.2-2.3-23.5c-0.4-5.6,0-11,0.7-16.3c2.3-37.2,3.4-76.3,3.4-76.3c1.2-16,1.9-31,2.3-45
			c-2.6-2-8.4-5.1-12.5-7C1240.4,1229.6,1204.3,1213.2,1197.5,1211.2z"/>
	</g>
	<path class="st55" d="M1194.5,1223c0,0,1.1,15.5-12,15.8s-23.5-12.2-23.5-12.2l21.7,5.6l13.2-11.2L1194.5,1223z"/>
	<g>
		<g>
			<path class="st15" d="M1367.4,1323.9c0,0,9.5-2.7,10.8-8.4c1.1-4.8,5.8-10.5,7.3-12.2c1.9-2.3,5.5-11.6,8.2-9.3
				s-5.1,15.6-6.2,18.7c-1.1,3.1,12.1-2.3,15.1-1.4c3.1,0.9,9.2,23.7-0.2,26.4s-20.8-0.9-22.4-0.1c-1.6,0.8-6.8,2.2-6.8,2.2
				L1367.4,1323.9z"/>
		</g>
	</g>
	<g>
		<path class="st38" d="M1176.8,1104.5c0,0,30,5.1,24.9,52.1c-5.1,47-31.6,42.8-33.4,42.8s-26.7,0.6-28-56.9
			C1140.4,1142.5,1140.1,1100,1176.8,1104.5z"/>
	</g>
	<g>
		<path class="st38" d="M1190,1185.7c0,0,0,19.4,0.8,23.6c0.9,4.5-24.1,17.5-40.2,2.4c0,0,3.3-21.1,2.3-28.6
			S1190,1185.7,1190,1185.7z"/>
	</g>
	<g>
		<path class="st38" d="M1201.9,1145.6c0,0,3.3-3.5,4.5,0.1s-4.2,18.7-4.9,20.1c0,0-0.6,1.4-1.4,0.6
			C1199.3,1165.7,1201.9,1145.6,1201.9,1145.6z"/>
	</g>
	<g>
		<path class="st38" d="M1140.8,1142c0,0-3.2-3.6-4.5-0.1c-1.3,3.5,3.5,19.3,4.1,20.3c0,0,1,1.6,1.8,0.9
			C1143,1162.4,1140.8,1142,1140.8,1142z"/>
	</g>
	<g>
		<path class="st36" d="M1204.3,1139.3c-1,6.4-2,11.2-2,11.2l-4.4,5.7c0,0,0.3-12.6-0.4-14.6c-0.3-0.8-0.6-2.1-0.9-3.5
			c-0.5-2.4-1-5.1-1.4-5.9c-0.6-1.4-25.7-8.8-48.1,1.5c0,0,0.2,1.9,0.2,4.1c0,2.5-0.3,5.3-1.4,5.8c-2.2,0.8-1.3,14.8-1.3,14.8
			l-3.5-4c0,0-1-7.3-2-15.7c0,0,0,0,0-0.1c-0.2-2-0.4-4-0.7-6c-0.5-8.4,0.3-23.8,11.3-32.8c7.4-3.2,19.3-5.9,39,0.2
			c0,0,4.9,1.4,6.2,2.6C1207.3,1116.1,1204.3,1139.3,1204.3,1139.3z"/>
	</g>
	<path class="st58" d="M1154.9,1193.1c0,0,4.8,6.7,15.9,6.4s16-6.1,16-6.1s-5.3,11-16,10.9S1154.9,1193.1,1154.9,1193.1z"/>
	<path class="st59" d="M1191.9,1224l-11.2,8.3c0,0,9.4-19.9,9.6-27.9L1191.9,1224z"/>
	<polygon class="st60" points="1190.3,1204.3 1198,1211.4 1206,1235.3 1191.9,1224 	"/>
	<g>
		<path class="st57" d="M1380,1346c0,0-66.1,17.4-82.3,13.4c-7.5-1.8-17.3-12.2-26.7-24.3c-3.1-4-6.1-8.2-9-12.3c0,0,0,0,0,0
			c-11.5-16.6-20.5-32.4-20.5-32.4s-33.9-39.7-6.7-57.4c0,0,11.5-1.2,18,3.7c6,4.4,20.7,32.4,23.1,37.6c2.4,5.2,28.1,53.3,29.9,54.4
			c1.7,1.1,23.8-2.9,35.5-3.8c19-1.6,34.8-6.4,34.8-6.4L1380,1346z"/>
	</g>
	<path class="st38" d="M1188.9,1211.4c0,0-3.1,10.9-8.2,20.8c0,0-11.8-10.3-15.4-14C1161.6,1214.6,1188.9,1211.4,1188.9,1211.4z"/>
	<path class="st59" d="M1168.4,1220.7l12.3,11.5c0,0-14.5-1-17.3-3.4L1168.4,1220.7z"/>
	<path class="st60" d="M1152.1,1199.5c0,0,9.8,16,16.3,21.2l-10.9,18.1l-17.5-31.8L1152.1,1199.5z"/>
	<g>
		<path class="st57" d="M1099.9,1361.6c-1.3,16.9,5.9,110.2-1.2,111.5c-7.1,1.3-33.3-4.4-33.3-4.4s-3.3-100.6-2.2-111.2
			c0.8-7.7,13-122.8,19.4-127.4c3.7-2.7,31.3-12.5,44.9-17.8c2.5-1,10.3-4.3,12.5-5.1c2.9,3.2,27.9,61.9,30.3,107.8
			c0.7,13.9-2.5,43.4-5,67.5c-2.7,25.7-5.6,45.7-7.8,67.2c-4.2,42.3-7.2,75.9-7.2,75.9l-42.1-18.7c-6.8-3.4-16.2-17.4-13.7-24.6
			c9.7-27.3,22-73.8,22-97.7c0,0-4.7-58.6-8.4-71.4C1108.2,1313,1101.5,1340.1,1099.9,1361.6z"/>
	</g>
	<rect x="1178" y="1457.3" class="st61" width="27.9" height="20.7"/>
	<g>
		<polygon class="st45" points="1115.5,1566.8 1023.8,1566.8 1045.3,1505.7 1137,1505.7 		"/>
		<polygon class="st62" points="1115.5,1566.8 1023.8,1566.8 1045.3,1505.7 1137,1505.7 		"/>
		<polygon class="st63" points="1045.3,1627.8 1137,1627.8 1115.5,1566.8 1023.8,1566.8 		"/>
		<polygon class="st62" points="1115.5,1688.9 1023.8,1688.9 1045.3,1627.8 1137,1627.8 		"/>
		<polygon class="st63" points="1045.3,1750 1137,1750 1115.5,1688.9 1023.8,1688.9 		"/>
		<rect x="1050.7" y="1515.9" class="st46" width="52.3" height="2.3"/>
		<rect x="1047.6" y="1524.1" class="st46" width="52.3" height="2.3"/>
		<rect x="1044.2" y="1532.3" class="st46" width="42.3" height="2.3"/>
		<rect x="1050.7" y="1637.6" class="st46" width="52.3" height="2.3"/>
		<rect x="1047.6" y="1645.8" class="st46" width="26.2" height="2.3"/>
	</g>
	<path class="st15" d="M1093.4,1474.2c0,0,0.5,1.6,1.4,4.2c1.5,4.5,6.3,9.7,3.3,15.8c-3,6.2-25.2,2.3-28.5-0.6
		c-3.4-2.9-2-12.3,5.8-24.4S1093.4,1474.2,1093.4,1474.2z"/>
	<path class="st15" d="M1098.8,1492c0,0-0.2,10.2-1.8,21.4c-1.4,9.9-4.6,22-7.1,21.7c-3.8-0.5-0.1-10.1,0.7-20c0.7-9.1-1-7.4-1-7.4
		s0.5-0.4-2.2,9.3c-2.9,10.5-6.5,21.7-8.6,21.5c-2.5-0.3-2.8-0.5-2.4-4.5c-0.8,2.2-1.5,2.4-2.4,2.1c-5.1-1.1-3.2-17.3-2.5-23.7
		c-0.6,4.9-1.6,8.5-4.2,5.8c-3-3.1,0.6-25.8,1.2-34C1069.1,1475.1,1098.8,1492,1098.8,1492z"/>
	<g>
		<path class="st57" d="M1101,1408.7l-0.4,74.1c0,0-14.8-0.7-35.2-8.2l-1.4-104.6L1101,1408.7z"/>
	</g>
</g>
<g>
	<g>
		<g>
			
				<linearGradient id="SVGID_33_" gradientUnits="userSpaceOnUse" x1="936.525" y1="540.4766" x2="936.525" y2="630.1458" gradientTransform="matrix(1 0 0 -1 0 2000)">
				<stop  offset="0" style="stop-color:#FF9F55"/>
				<stop  offset="1" style="stop-color:#FFD255"/>
			</linearGradient>
			<path class="st64" d="M982.5,1374.7l-51.5,116l-1.4,3.1c-2.7,0.3-4.9-0.3-5.7-0.6l1.1-2.6l51-114.8l-74.3-79.9l-11.2-2.4l1.2-5.3
				l12.8,2.8L982.5,1374.7z"/>
		</g>
		
			<linearGradient id="SVGID_34_" gradientUnits="userSpaceOnUse" x1="-6801.8037" y1="497.22" x2="-6754.0928" y2="497.22" gradientTransform="matrix(-1 0 0 -1 -5850.9536 2000)">
			<stop  offset="0" style="stop-color:#FF9F55"/>
			<stop  offset="1" style="stop-color:#FFD255"/>
		</linearGradient>
		<path class="st65" d="M903.2,1513.1h47.7c0,0-0.1-1.2-0.5-2.9c-1.4-5.7-6.7-17.6-25.2-17.6s-21.5,12-21.9,17.6
			C903.1,1511.9,903.2,1513.1,903.2,1513.1z"/>
		
			<linearGradient id="SVGID_35_" gradientUnits="userSpaceOnUse" x1="-6751.145" y1="698.5987" x2="-6705.6235" y2="698.5987" gradientTransform="matrix(-1 0 0 -1 -5850.9536 2000)">
			<stop  offset="0" style="stop-color:#FF9F55"/>
			<stop  offset="1" style="stop-color:#FFD255"/>
		</linearGradient>
		<path class="st66" d="M854.7,1270.2l3.2,9.1l19.5,55.3c7.9-2.8,14.2-8.2,18.1-15c4.9-8.4,6.2-18.7,2.7-28.6
			C892,1273.2,872.5,1263.9,854.7,1270.2z"/>
		<path class="st67" d="M932.2,1490.6v2.5c-0.9,0.3-1.8,0.5-2.6,0.6c-2.7,0.3-4.9-0.3-5.7-0.6c-0.2-0.1-0.3-0.1-0.3-0.1v-2.4l1.5,0
			l6,0L932.2,1490.6z"/>
		<path class="st68" d="M903.2,1513.1h47.7c0,0-0.1-1.2-0.5-2.9h-47.1C903.1,1511.9,903.2,1513.1,903.2,1513.1z"/>
		<path class="st67" d="M854.7,1270.2l3.2,9.1c11.4,9,29,24.5,37.6,40.3c4.9-8.4,6.2-18.7,2.7-28.6
			C892,1273.2,872.5,1263.9,854.7,1270.2z"/>
	</g>
	<g>
		<g>
			<g>
				<g>
					<path class="st15" d="M693.9,1368c0,0,8.3-10.5,9.6-12.1c1.3-1.6,6.5-3,12.5-4.2s14.5,0.3,15.2,1.1s1.7,1.3,2,4.3
						c0.3,2.9-1,5.7-1,5.7s1.9,3.4,0.1,6.6c0,0,1.6,3.3-0.9,6.6c0,0,1.5,3.2-0.5,5.5c0,0-5.2,1.5-7,2.6c-1.8,1.2-12.7,3.4-23.4,3.9
						C700.7,1388.1,690.6,1384.7,693.9,1368z"/>
				</g>
			</g>
		</g>
	</g>
	<g>
		<g>
			<polygon class="st69" points="454.4,1692 407.1,1889.2 396.6,1889.2 436.8,1691.6 			"/>
		</g>
	</g>
	<g>
		<g>
			<polygon class="st69" points="506,1692 458.7,1889.2 448.3,1889.2 488.4,1691.6 			"/>
		</g>
	</g>
	<g>
		<g>
			<polygon class="st69" points="589.4,1692 636.7,1889.2 647.2,1889.2 607,1691.6 			"/>
		</g>
	</g>
	<g>
		<g>
			<path class="st70" d="M634.2,1693.9H430.4c0,0-14.2-0.3-23.7-42.4c-10.7-47.3-32.3-205.3-32.3-205.3s5.7-14.7,95.3-12.8
				l160.5,208.2C630.2,1641.6,635.6,1674.4,634.2,1693.9z"/>
		</g>
	</g>
	<g>
		<g>
			<path class="st15" d="M640.5,1496.7c0,0,10.4-4.5,18.2-2.7c7.8,1.8,26,8.6,35,9.8c9,1.1,17.6,6.4,17.4,9.4
				c-0.2,3-69.6,5.4-69.9-1.4C640.9,1504.9,640.5,1496.7,640.5,1496.7z"/>
		</g>
	</g>
	<g>
		<g>
			<g>
				<g>
					<path class="st15" d="M693.9,1368c0,0-13.6,8.9-13.8,11.7c-0.5,4.5,2.3,18.6,2.6,18.4c0.3-0.2,20.4-10.1,20.4-10.1L693.9,1368z
						"/>
				</g>
			</g>
		</g>
	</g>
	<g>
		<g>
			<g>
				<path class="st54" d="M693.6,1855.7c0,0,17.5,10.4,25.4,14.3s38.7,5,41.7,7.9c3,2.9,1.9,12.1-3.2,13c-5.1,0.9-42.5,4.2-55,1.3
					s-35.8,1.9-41,0.1c-5.2-1.8-1.8-29.6,0.3-35.9C663.8,1850.1,693.6,1855.7,693.6,1855.7z"/>
			</g>
		</g>
	</g>
	<g>
		<g>
			<g>
				<path class="st71" d="M693.3,1843.9l0.3,11.8c0,0-23.4,4.3-31.8,0.7l0.6-12.9L693.3,1843.9z"/>
			</g>
		</g>
	</g>
	<g>
		<g>
			<g>
				<path class="st57" d="M734.5,1855.7c0,0,17.5,10.4,25.4,14.3s38.7,5,41.7,7.9c3,2.9,1.9,12.1-3.2,13c-5.1,0.9-42.5,4.2-55,1.3
					s-35.8,1.9-41,0.1c-5.2-1.8-1.8-29.6,0.3-35.9C704.7,1850.1,734.5,1855.7,734.5,1855.7z"/>
			</g>
		</g>
	</g>
	<g>
		<g>
			<g>
				<path class="st71" d="M734.2,1843.9l0.3,11.8c0,0-23.4,4.3-31.8,0.7l0.6-12.9L734.2,1843.9z"/>
			</g>
		</g>
	</g>
	<g>
		<g>
			<polygon class="st72" points="596.8,1569.4 570.3,1564.8 588,1520.2 			"/>
		</g>
	</g>
	<g>
		<g>
			<path class="st73" d="M517.2,1578.6c0,0,133.5,28.3,154.4,37.2c20.8,8.9,33.3,12.5,34.9,16.9s34.1,216.2,34.1,216.2h-44.3
				c0,0-34.4-159.9-38.5-169.8c-4.2-9.9-169.3-10.4-181.3-22.4c-12-12-22.4-44.8-9.4-74.2S517.2,1578.6,517.2,1578.6z"/>
		</g>
	</g>
	<g>
		<g>
			<path class="st73" d="M584.8,1563.7c0,0,153.1,43.1,165.7,62.8c12.8,20.1-51,222.4-51,222.4h-43.8c0,0,42.2-189.6,37-198
				c-5.2-8.3-236-0.3-193-68.5C542.6,1514.2,584.8,1563.7,584.8,1563.7z"/>
		</g>
	</g>
	<g>
		<g>
			<path class="st57" d="M568.9,1350.9c5.8-3,25,3.6,30.7,12.4c13.2,20.6,38.1,45.9,38.1,45.9l55.6-46.8l11.1,27.9l-66,55.6
				c-5.6,4.7-13.9,4.4-19.2-0.7c-17.3-16.8-53-52.2-55.8-61.1C559.8,1372.5,557.9,1356.6,568.9,1350.9z"/>
		</g>
	</g>
	<g>
		<g>
			<path class="st38" d="M550.1,1231.9c0,0,26.6,4.4,26.8,49.5c0.3,45.1-16.8,49.3-42.7,42.7c-15.6-4-30.2-26.1-24.5-64.9
				C515.5,1220.4,550.1,1231.9,550.1,1231.9z"/>
		</g>
	</g>
	<g>
		<g>
			<path class="st45" d="M553.6,1339.4c0,0,36.6,13.3,42.1,21.6c5.5,8.3,1.9,83.3-1.2,110.2c-3.1,26.8-11.7,84.7-9.6,92.5
				l-85.2,18.8c0,0-27.4-99.5-28.1-115.4s-20.8-89.9-11.2-95.8c9.6-6,51.6-29.4,51.6-29.4L553.6,1339.4z"/>
		</g>
	</g>
	<g>
		<g>
			<polygon class="st74" points="499.7,1582.4 495.5,1567.1 585,1549.6 584.8,1563.7 			"/>
		</g>
	</g>
	<g>
		<g>
			<polygon class="st75" points="544.2,1556.8 565.4,1552.4 565.4,1569.2 544.2,1574.1 			"/>
		</g>
	</g>
	<g>
		<g>
			<path class="st57" d="M534.7,1513.1c-0.2,4.4-0.5,8.8-0.7,13.4l-0.1,0.1c-3,49.4-7.5,101.2-7.5,101.2
				c-6.2,5.2-85.1-13.1-85.1-13.1s9.7-13.2,19.1-49.7c9.4-36.5,2-71.5-7.7-130.9c-9.7-59.4-1.7-59-1.7-59l61-33.1
				c4,15.2,20.1,70.3,24,101.8C537.3,1455.1,536.4,1482.7,534.7,1513.1z"/>
		</g>
	</g>
	<g>
		<g>
			<path class="st57" d="M554.2,1339.5c0,0,17.8,45.8,25.3,92.6c7.7,47.7,7.3,134,15.6,136.1s5.8,0.7,5.8,0.7s-1.6-52.2-2.3-69.4
				c-1.7-38.6,5.5-125.6,2.2-134.4C597.3,1356.4,573.5,1343,554.2,1339.5z"/>
		</g>
	</g>
	<g>
		<g>
			<path class="st38" d="M552.7,1332.3c0,2.8,0.2,5.4,0.9,7.1c0,0-4.7,18.3-41.7,2.3c0,0,7.3-27.2,0-50.1l41.7,25.9
				c0,0-0.5,4.1-0.7,8.9C552.7,1328.4,552.7,1330.5,552.7,1332.3z"/>
		</g>
	</g>
	<g>
		<g>
			<path class="st76" d="M513.4,1334.5c0,0,14.5,7,29.2,8.4l-7.2,15.2l-23.6-16.3L513.4,1334.5z"/>
		</g>
	</g>
	<g>
		<g>
			<path class="st76" d="M542.6,1342.9c0,0,10.2-3.4,10.2-8.4l1.4,5l-4.2,16L542.6,1342.9z"/>
		</g>
	</g>
	<g>
		<g>
			<path class="st77" d="M573.8,1257.9c0,0,7.4-15.9,2-27.7c-5.4-11.7-19.5-6.8-25.9-5.4s-18.6-12.8-40.1,4.5
				c-21.5,17.4-15.1,35.6-5.6,57.3c9.5,21.7,10.7,23.4,10.7,23.4s0.1-22,2.7-25.9c3-4.6,14.2-7,14.2-7s-8.5-11.6-0.2-16
				C540,1256.8,557.3,1264.8,573.8,1257.9z"/>
		</g>
	</g>
	<g>
		<g>
			<path class="st38" d="M520.9,1272.6c-1.1-3.3-6.7-7.1-9.5-0.9s4.5,17.2,8.5,17.2C523.9,1288.9,523.5,1280.2,520.9,1272.6z"/>
		</g>
	</g>
	<g>
		<g>
			<path class="st10" d="M542.6,1342.9l5.3,9.2c0,0-2.5,2.8-10.4,1.6L542.6,1342.9z"/>
		</g>
	</g>
	<g>
		<g>
			<path class="st10" d="M546.8,1352.9c0,0,21.9,64.3,22,110c0.2,45.7-3.4,72.9-3.4,72.9l-4.8,9l-7-8.2c0,0,5-132.6-14.5-182.7
				C539.1,1353.9,546,1350.6,546.8,1352.9z"/>
		</g>
	</g>
	<g>
		<g>
			<path class="st57" d="M457.7,1371.2c16-6.5,32.6,15.6,41.4,37.8c8.9,22.1,25.8,62.4,25.8,62.4l118.3,19.2l1.7,22.5h-138
				c0,0-52.6-94.2-56.2-105.9C447,1395.4,446.2,1375.9,457.7,1371.2z"/>
		</g>
	</g>
	<g>
		<g>
			<rect x="603" y="1513.1" class="st78" width="390" height="13.4"/>
		</g>
	</g>
	<rect x="831.5" y="1277.9" class="st79" width="9.4" height="208.2"/>
	<g>
		<path class="st80" d="M854.5,1513.1h70.3v-4.3h-70.3c-3.7,0-6.3-0.9-7.8-2.6c-1.8-2.1-1.6-4.9-1.6-4.9l0-0.1v-0.1v-90.8h-4.3v90.7
			c-0.1,0.9-0.2,4.8,2.6,8C845.8,1511.7,849.6,1513.1,854.5,1513.1z"/>
	</g>
	<path class="st79" d="M760.7,1505.6h72.3v7.5h-79.1v-0.6C753.8,1508.7,756.9,1505.6,760.7,1505.6z"/>
	<g>
		<g>
			<rect x="952.4" y="1526.5" class="st81" width="11.1" height="365"/>
		</g>
		<g>
			<rect x="632.4" y="1526.5" class="st81" width="11.1" height="365"/>
		</g>
	</g>
	<path class="st74" d="M534.7,1513.1c-0.2,4.4-0.5,8.8-0.7,13.4l-0.1,0.1c0,0-15.4,2-28.3-3.8c-12.9-5.9-21.9-50.4-22.5-52.8
		c1.3,2.6,22,43.2,27.1,43.2C515.4,1513.1,534.7,1513.1,534.7,1513.1z"/>
	<path class="st19" d="M552.8,1326.5c-0.1,1.9-0.2,4-0.1,5.9c-29.4,0.5-29.8-16.3-29.8-16.3C527.4,1328.2,552.8,1326.5,552.8,1326.5
		z"/>
	<g>
		
			<rect x="706.3" y="1349.2" transform="matrix(0.7195 -0.6945 0.6945 0.7195 -733.9578 885.0576)" class="st82" width="44.7" height="3.8"/>
		<polygon class="st15" points="743.4,1334.3 749.5,1331.1 746,1337 		"/>
	</g>
	<g>
		<g>
			<g>
				<g>
					<path class="st83" d="M729.6,1353.2c0,0-15.2,3.3-15.2,6c0.1,2.8,1.6,3.6,1.6,3.6l-5.8,4.5c0,0-2.5,5.3,3.4,6.4
						c0,0-2.8,4.7,3,5.1c0,0-0.6,3.9,2,4.6s12.4-1.9,12.4-1.9s2.3-1.5,0.9-5.5c0,0,2.5-3,0.8-6.6c0,0,1.8-2.8-0.1-6.6
						c0,0,3-6.5-1.5-9.9C731.2,1352.9,730.3,1353,729.6,1353.2z"/>
				</g>
			</g>
		</g>
	</g>
	<g>
		<g>
			<g>
				<g>
					<path class="st15" d="M704,1355.8c0,0,10,3.2,14.7,7.6c1.1,1,1.9,2.2,1.4,3.7c-0.5,1.5-3.1,2.7-7.5,1.6s-10.7-0.4-10.7-0.4
						S697.8,1365.7,704,1355.8z"/>
				</g>
			</g>
		</g>
	</g>
	<path class="st84" d="M716.8,1695.9c0,0-9.4-58.4-9.8-60.8c-0.5-2.4-10-10.9-55.5-25.8c0,0,50.6,9.8,63.9,18.5
		C725.5,1634.4,716.8,1695.9,716.8,1695.9z"/>
	<g>
		<path class="st85" d="M907.4,1513.1c5-2.1,13.1-25.7,17-37.9c1.4-4.3,2.2-7.2,2.2-7.2h-45.7c4,28.2,13.5,45.1,13.5,45.1H907.4z"/>
		<path class="st86" d="M911,1453.9c0-1.6,7.3-8.5,11-13s-1.4-13-1.4-13c-16.4,6.8-13.5,26-13.5,26S911,1455.5,911,1453.9z"/>
		<path class="st86" d="M901.7,1454.6h2c0,0,1.4-33.2-10.7-37.7s-12.1-13.5-12.1-13.5s-3.7,12.4,2.3,18.9
			c5.9,6.5,12.7,14.1,11.6,20.3C893.5,1448.7,901.7,1454.6,901.7,1454.6z"/>
		<path class="st87" d="M924.3,1475.2c1.4-4.3,2.2-7.2,2.2-7.2h-45.7c4,28.2,13.5,45.1,13.5,45.1h3
			C896.8,1486.6,914.2,1478,924.3,1475.2z"/>
		<polygon class="st88" points="926.5,1453.9 880.5,1453.9 877.9,1467.9 928.4,1467.9 		"/>
	</g>
</g>
</svg>
