<?xml version="1.0" encoding="utf-8"?>
<!-- Generator: Adobe Illustrator 23.0.1, SVG Export Plug-In . SVG Version: 6.00 Build 0)  -->
<svg version="1.1" id="Layer_1" xmlns="http://www.w3.org/2000/svg" xmlns:xlink="http://www.w3.org/1999/xlink" x="0px" y="0px"
	 viewBox="0 0 750 500" style="enable-background:new 0 0 750 500;" xml:space="preserve">
<style type="text/css">
	.st0{fill:#F5F5F5;}
	.st1{fill:#E0E0E0;}
	.st2{fill:#EBEBEB;}
	.st3{fill:#FAFAFA;}
	.st4{fill:#263238;}
	.st5{fill:#FFC93C;}
	.st6{fill:#00858E;}
	.st7{fill:#EB996E;}
	.st8{fill:#FFBE9D;}
	.st9{fill:#455A64;}
	.st10{opacity:0.3;}
	.st11{opacity:0.6;fill:#FFFFFF;enable-background:new    ;}
	.st12{opacity:0.6;}
	.st13{fill:#FFFFFF;}
	.st14{fill:#B78876;}
	.st15{fill:#AA6550;}
	.st16{fill:#FF725E;}
</style>
<g id="freepik--background-complete--inject-52">
	<path class="st0" d="M160.8,96.1c-0.3-24.2,19.1-44,43.2-44.3c24.2-0.3,44,19.1,44.3,43.2s-19,43.9-43,44.2
		C181,139.6,161.2,120.2,160.8,96.1z M225.4,95.1c-0.2-11.5-9.8-20.7-21.3-20.5c-11.5,0.2-20.7,9.8-20.5,21.3s9.7,20.6,21.2,20.5
		C216.4,116.2,225.6,106.6,225.4,95.1L225.4,95.1z"/>
	<path class="st1" d="M160.8,96.1c-0.4-24.2,18.8-44.1,43-44.6l0.4,22.9c-11.6,0.2-20.8,9.7-20.7,21.3s9.7,20.8,21.3,20.7l0.4,22.9
		C181,139.6,161.1,120.2,160.8,96.1z"/>
	<path class="st2" d="M199.9,47.9c28.2-0.5,50.7,21.4,51.2,49.8l-26.7,0.4c-0.2-13.6-10.5-22.1-24-21.9L199.9,47.9z"/>
	<rect x="40.7" y="211.3" class="st1" width="11.3" height="45.2"/>
	<rect x="57.3" y="221.2" class="st1" width="11.3" height="35.4"/>
	<rect x="74.2" y="229.3" class="st1" width="11.3" height="27.3"/>
	<rect x="89.9" y="240.4" class="st1" width="11.3" height="16.2"/>
	<rect x="177.6" y="235.8" class="st3" width="137.8" height="85.3"/>
	<path class="st2" d="M282.1,297.4c-9.5-3.6-20.5,6.4-29.9,2.3c-5.4-2.4-7.9-8.5-10.6-13.9s-7.3-10.9-13.2-10.3s-10.8,7.5-16.6,5.9
		c-3.6-1-5.4-5.1-6.4-8.7s-1.5-7.7-4.3-10.3s-8.5-1.9-9,1.9v45.2H300C300,309.5,285.4,298.7,282.1,297.4z"/>
	<path class="st1" d="M302.8,309.5c0,0.1-26.1,0.2-58.3,0.2s-58.3-0.1-58.3-0.2s26.1-0.2,58.3-0.2S302.8,309.4,302.8,309.5z"/>
	<path class="st1" d="M302.8,289.7c0,0.1-26.1,0.2-58.3,0.2s-58.3-0.1-58.3-0.2s26.1-0.2,58.3-0.2S302.8,289.6,302.8,289.7z"/>
	<path class="st1" d="M302.8,270c0,0.1-26.1,0.2-58.3,0.2s-58.3-0.1-58.3-0.2s26.1-0.2,58.3-0.2S302.8,269.9,302.8,270z"/>
	<path class="st1" d="M302.8,251.2c0,0.1-26.1,0.2-58.3,0.2s-58.3-0.1-58.3-0.2s26.1-0.2,58.3-0.2S302.8,251.1,302.8,251.2z"/>
	<rect x="467.8" y="75.5" class="st3" width="213.1" height="80.8"/>
	<path class="st2" d="M663,94.6c0,0.2-36.2,0.3-80.9,0.3s-80.9-0.1-80.9-0.3s36.2-0.3,80.9-0.3S663,94.5,663,94.6z"/>
	<path class="st2" d="M663,104.2c0,0.1-36.2,0.3-80.9,0.3s-80.9-0.1-80.9-0.3s36.2-0.3,80.9-0.3S663,104,663,104.2z"/>
	<path class="st2" d="M663,113.7c0,0.1-36.2,0.3-80.9,0.3s-80.9-0.1-80.9-0.3s36.2-0.3,80.9-0.3S663,113.6,663,113.7z"/>
	<path class="st2" d="M663,123.3c0,0.2-36.2,0.3-80.9,0.3s-80.9-0.1-80.9-0.3s36.2-0.3,80.9-0.3S663,123.2,663,123.3z"/>
	<path class="st2" d="M663,132.9c0,0.1-36.2,0.3-80.9,0.3s-80.9-0.1-80.9-0.3s36.2-0.3,80.9-0.3S663,132.7,663,132.9z"/>
	<path class="st1" d="M648.9,121.7c0,0-0.1,0.2-0.3,0.4c-0.4,0.4-0.9,0.7-1.4,0.9c-2,0.6-4.2,0.2-5.9-1.1c-1.2-1-2.1-2.2-2.8-3.5
		c-0.8-1.4-1.4-3.1-2.1-4.9c-0.7-1.9-1.8-3.6-3.2-5.1c-0.8-0.8-1.7-1.3-2.8-1.7c-1.1-0.3-2.3-0.4-3.4-0.2c-2.4,0.5-4.7,1.7-6.5,3.4
		c-1.9,1.7-3.6,3.9-5.7,5.8c-2.1,2.1-4.8,3.5-7.8,3.8c-1.6,0.1-3.2-0.3-4.5-1.2c-1.3-0.9-2.4-2.2-3.1-3.6c-1.6-2.8-2.4-6-4.5-8.5
		c-1-1.3-2.3-2.3-3.9-2.7c-1.6-0.4-3.3,0-4.6,1.1s-2.3,2.4-3,4c-0.6,1.6-1.1,3.3-1.4,5c-0.3,1.8-0.8,3.5-1.5,5.3
		c-0.3,0.9-0.8,1.7-1.3,2.4c-0.5,0.7-1.2,1.4-1.9,2c-1.4,1.2-3.1,2-4.9,2.5c-1.8,0.5-3.7,0.5-5.5,0.1s-3.4-1.2-4.8-2.4
		c-1.4-1.1-2.7-2.2-4.1-3.3c-1.3-1.1-2.8-1.9-4.4-2.4c-1.6-0.4-3.3-0.2-4.7,0.6c-1.4,0.8-2.6,1.9-3.5,3.2c-0.9,1.3-1.7,2.7-2.4,4.1
		s-1.5,2.8-2.3,4.1c-0.9,1.3-2,2.4-3.4,3.2c-1.3,0.8-2.8,1.2-4.4,1c-1.5-0.2-2.8-1-3.8-2.1c-0.9-1.1-1.6-2.3-2.1-3.6
		c-0.4-1.3-0.8-2.6-1-3.9c-0.5-2.6-0.9-5.1-2.2-7c-1.1-2-3-3.4-5.2-3.9c-1-0.1-2,0-3,0.4c-0.9,0.4-1.7,0.9-2.4,1.6
		c-2.7,2.6-4,5.8-6.1,7.6s-4,2.8-5.4,2.7c-0.5,0-1.1-0.1-1.6-0.3c-0.3-0.1-0.5-0.2-0.5-0.2c0.7,0.3,1.4,0.4,2.1,0.4
		c1.4,0,3.4-0.9,5.3-2.8s3.2-5,6-7.7c0.7-0.7,1.6-1.3,2.5-1.7c1-0.4,2.1-0.6,3.2-0.4c2.3,0.5,4.3,1.9,5.5,4c0.7,1.1,1.2,2.2,1.5,3.4
		c0.3,1.2,0.6,2.5,0.8,3.8s0.6,2.6,1,3.8c0.4,1.3,1.1,2.5,2,3.5c0.9,1.1,2.2,1.8,3.5,2c1.4,0.1,2.9-0.2,4.1-1
		c1.3-0.8,2.4-1.8,3.2-3.1c0.9-1.3,1.6-2.6,2.3-4c0.7-1.5,1.5-2.9,2.4-4.2c1-1.4,2.2-2.5,3.7-3.4c1.5-0.8,3.3-1.1,5-0.7
		c1.7,0.5,3.2,1.3,4.6,2.5c1.4,1.1,2.7,2.2,4,3.3c1.4,1.1,2.9,1.9,4.6,2.3c1.7,0.4,3.5,0.4,5.2-0.1c1.7-0.4,3.3-1.2,4.7-2.4
		c0.7-0.6,1.3-1.2,1.8-1.9c0.5-0.7,0.9-1.5,1.2-2.3c0.6-1.7,1.1-3.4,1.4-5.1c0.3-1.8,0.8-3.5,1.5-5.1s1.8-3.1,3.2-4.2s3.2-1.6,5-1.2
		c1.7,0.5,3.2,1.5,4.2,2.9c2.2,2.7,3,5.9,4.5,8.6c0.7,1.4,1.8,2.5,3,3.4c1.2,0.8,2.7,1.2,4.2,1.1c2.9-0.3,5.5-1.6,7.5-3.7
		c2-1.9,3.8-4,5.7-5.8c1.8-1.8,4.1-3,6.7-3.5c1.2-0.2,2.4-0.1,3.5,0.2c1.1,0.4,2.1,1,2.9,1.8c1.4,1.5,2.5,3.3,3.2,5.2
		c0.7,1.8,1.3,3.4,2.1,4.9c0.6,1.3,1.6,2.5,2.7,3.5c1.6,1.3,3.8,1.7,5.7,1.1C647.7,122.7,648.4,122.3,648.9,121.7z"/>
	<path class="st1" d="M659.1,119.5h-0.6c-0.2,0-0.4-0.1-0.7-0.1c-0.3-0.1-0.6-0.2-0.9-0.3c-1.9-1-3.5-2.4-4.8-4.1
		c-0.4-0.5-0.9-1.1-1.4-1.7s-1-1.3-1.5-1.8c-1.3-1.2-3-2-4.8-2.2c-1-0.1-2,0-2.9,0.4c-1,0.4-1.9,1-2.6,1.8c-1.5,1.8-2.9,3.6-4.3,5.5
		c-0.8,1-1.7,1.9-2.7,2.7c-1.1,0.8-2.4,1.2-3.7,1.4c-2.8,0.2-5.6-0.3-8.2-1.5c-2.7-1.1-5.2-2.7-8.1-3.6c-1.4-0.5-3-0.8-4.5-0.9
		c-1.6,0-3.1,0.3-4.5,1c-2.9,1.4-5.2,3.9-7.9,6c-1.4,1.1-2.9,1.9-4.5,2.5c-1.7,0.6-3.4,0.9-5.2,0.9c-3.7,0-7.3-0.9-10.4-2.9
		c-3.2-2-5.9-4.7-7.9-7.8c-2.1-3.2-3.3-6.8-4.8-10c-0.7-1.6-1.7-3.2-2.8-4.6c-1.1-1.3-2.5-2.4-4.1-3.2c-1.5-0.7-3.3-0.9-4.9-0.5
		c-1.6,0.5-3,1.4-4.1,2.7c-1.1,1.3-1.9,2.7-2.5,4.3c-0.5,1.5-1,3.1-1.3,4.7s-0.6,3.2-1.1,4.7c-0.4,1.5-1,3-1.8,4.4
		c-1.4,2.7-3.5,4.9-5.9,6.7c-2.3,1.7-5,2.7-7.8,3.1c-2.6,0.3-5.2,0-7.7-0.9c-4.3-1.5-7.7-4.8-9.2-9.1c-0.6-1.9-1-3.7-1.4-5.2
		s-1-2.9-1.8-4.1c-1.2-1.7-3.2-2.7-5.3-2.7c-0.7,0.1-1.4,0.3-2,0.7c0.6-0.5,1.3-0.8,2-0.8c2.2,0,4.2,1,5.5,2.7
		c0.9,1.2,1.5,2.7,1.9,4.2c0.5,1.6,0.8,3.4,1.5,5.2c1.6,4.1,4.9,7.4,9.1,8.8c2.4,0.9,5,1.2,7.5,0.8c2.7-0.4,5.3-1.5,7.5-3.1
		c2.4-1.7,4.4-4,5.8-6.6c1.5-2.7,2.1-5.8,2.8-9c0.3-1.6,0.7-3.2,1.3-4.8c0.6-1.6,1.5-3.1,2.6-4.4c1.1-1.4,2.6-2.4,4.3-2.9
		c1.8-0.4,3.6-0.2,5.3,0.6c1.6,0.8,3.1,1.9,4.3,3.3s2.1,3,2.9,4.7c1.5,3.3,2.7,6.9,4.8,9.9c2,3.1,4.6,5.7,7.7,7.7
		c3,1.9,6.5,2.8,10.1,2.8c1.7,0,3.4-0.3,5.1-0.9c1.6-0.6,3.1-1.4,4.4-2.4c2.7-2,5-4.6,8-6c1.5-0.7,3.1-1.1,4.8-1
		c1.6,0.1,3.1,0.4,4.6,0.9c2.9,1,5.5,2.6,8.2,3.7c2.5,1.2,5.2,1.7,8,1.5c1.3-0.1,2.5-0.6,3.6-1.3c1-0.7,1.9-1.6,2.7-2.6
		c1.3-1.9,2.8-3.8,4.3-5.5c0.8-0.8,1.7-1.4,2.7-1.8c1-0.3,2-0.5,3-0.4c1.8,0.2,3.6,1,4.9,2.3c0.5,0.6,1,1.2,1.5,1.9
		c0.5,0.6,0.9,1.2,1.3,1.7c1.3,1.6,2.9,3,4.7,4C657.6,119.3,658.4,119.5,659.1,119.5z"/>
	<path class="st1" d="M490.1,95.1c-1.4,0.3-2.9,0.3-4.3,0C487.2,94.8,488.7,94.8,490.1,95.1z"/>
	<path class="st1" d="M490.1,104.2c-1.4,0.3-2.9,0.3-4.3,0C487.2,103.8,488.7,103.8,490.1,104.2z"/>
	<path class="st1" d="M490.1,113.3c-1.4,0.3-2.9,0.3-4.3,0C487.2,112.9,488.7,112.9,490.1,113.3z"/>
	<path class="st1" d="M490.1,122.3c-1.4,0.3-2.9,0.3-4.3,0C487.2,122,488.7,122,490.1,122.3z"/>
	<path class="st1" d="M490.1,131.4c-1.4,0.3-2.9,0.3-4.3,0C487.2,131.1,488.7,131.1,490.1,131.4z"/>
	<path class="st1" d="M509.7,143.1c-2.8,0.3-5.7,0.3-8.6,0C504,142.8,506.9,142.8,509.7,143.1z"/>
	<path class="st1" d="M547.5,143.1c-2.8,0.3-5.7,0.3-8.5,0C541.7,142.8,544.6,142.8,547.5,143.1z"/>
	<path class="st1" d="M585.2,143.1c-2.8,0.3-5.7,0.3-8.6,0C579.5,142.8,582.3,142.8,585.2,143.1z"/>
	<path class="st1" d="M622.9,143.1c-2.8,0.3-5.7,0.3-8.6,0C617.2,142.8,620.1,142.8,622.9,143.1z"/>
	<path class="st1" d="M660.6,143.1c-2.8,0.3-5.7,0.3-8.5,0C654.9,142.8,657.8,142.8,660.6,143.1z"/>
</g>
<g id="freepik--Floor--inject-52">
	<path class="st4" d="M702.9,461.5c0,0.1-145.9,0.3-325.9,0.3s-326-0.1-326-0.3s145.9-0.3,326-0.3S702.9,461.4,702.9,461.5z"/>
</g>
<g id="freepik--Analysis--inject-52">
	<rect x="227.6" y="50.7" class="st3" width="266.1" height="174.5"/>
	<path class="st4" d="M493.6,225.2c0-1.7-0.1-68.1-0.2-174.5l0.2,0.2l-266,0.1l0,0l0.3-0.3c0,62.1,0,121.1,0,174.5l-0.2-0.2
		L493.6,225.2l-266,0.3h-0.2v-0.2c0-53.4,0-112.5,0-174.5v-0.3h0.3h266.1h0.2v0.2C493.7,157.1,493.6,223.5,493.6,225.2z"/>
	<path class="st5" d="M308.9,147.1l26.2,0.4c-0.2,13.9-12,25.3-26.2,25.3h-0.1L308.9,147.1z"/>
	<path class="st4" d="M352.2,182.5c-0.2,0-0.4,0-0.6,0l-1.6,0.1l-5.9,0.1H344v-0.1c-2.3-2.9-5.3-6.7-8.6-10.9l-7-8.9l0.1,0.1
		l-7.7-0.1l-2.1-0.1c-0.3,0-0.5,0-0.8,0c0.3,0,0.5-0.1,0.8-0.1h2.1l7.7-0.1h0.1v0.1l7,8.8l8.6,10.9l-0.1-0.1l5.9,0.1h1.6
		C351.7,182.4,351.9,182.5,352.2,182.5z"/>
	<path class="st4" d="M361.5,185.5c0,0.1-3.8,0.2-8.5,0.2s-8.5-0.1-8.5-0.2s3.8-0.2,8.5-0.2S361.5,185.4,361.5,185.5z"/>
	<path class="st4" d="M361.5,188.6c0,0.1-3.8,0.2-8.5,0.2s-8.5-0.1-8.5-0.2s3.8-0.2,8.5-0.2S361.5,188.5,361.5,188.6z"/>
	<path class="st6" d="M304.8,143.3l-0.4,25.7c-14.2-0.2-25.8-11.7-25.8-25.7s11.8-25.7,26.2-25.7s26.2,11.6,26.2,25.7H304.8z"/>
	<path class="st4" d="M294.5,134.9c-0.1,0.1-0.3,0.1-0.5,0.1l-1.3,0.2l-4.7,0.7l0,0l-0.1-0.1l-6.3-6.1c-3-3-5.7-5.6-7.7-7.6
		l-2.3-2.3c-0.3-0.3-0.6-0.6-0.8-0.9c0.3,0.2,0.6,0.5,0.9,0.8l2.4,2.2c2,1.9,4.8,4.6,7.8,7.5l6.2,6.1H288l4.7-0.5l1.3-0.1
		C294.2,135,294.4,134.9,294.5,134.9z"/>
	<path class="st4" d="M264.3,117.8c0,0.1-3.8,0.2-8.5,0.2s-8.5-0.1-8.5-0.2s3.8-0.2,8.5-0.2C260.5,117.6,264.3,117.7,264.3,117.8z"
		/>
	<path class="st4" d="M264.3,120.9c0,0.1-3.8,0.2-8.5,0.2s-8.5-0.1-8.5-0.2s3.8-0.2,8.5-0.2C260.5,120.7,264.3,120.8,264.3,120.9z"
		/>
	<path class="st5" d="M396.3,92.6l-0.1-16c-4.9,0.1-9.6,1.9-13.2,5.2c-4.7,4.1-7.1,10.3-6.3,16.5c0.1,0.8,0.2,1.6,0.4,2.3
		c0,0,0,0,0,0.1l0,0l19.2-4.3V92.6z"/>
	<path class="st5" d="M416.1,87.7c-2.9-6.1-8.8-10.3-15.5-10.9l-0.6-0.1h-0.4c-0.4,0-0.8,0-1.2,0h-0.1l0.1,16v3.8l19.2,4.2l0,0
		c0.3-1.4,0.4-2.7,0.4-4.1C418.1,93.5,417.4,90.5,416.1,87.7z"/>
	<path class="st6" d="M397.3,98.4l-19.2,4.3c2.4,10.6,12.9,17.3,23.5,14.9c7.5-1.7,13.3-7.5,14.9-15L397.3,98.4"/>
	<path class="st4" d="M472.2,95.5c0,0.1-9.9,0.3-22.2,0.3s-22.2-0.1-22.2-0.3s9.9-0.3,22.2-0.3S472.2,95.3,472.2,95.5z"/>
	<path class="st4" d="M472.2,90.4c0,0.1-9.9,0.3-22.2,0.3s-22.2-0.1-22.2-0.3s9.9-0.3,22.2-0.3S472.2,90.3,472.2,90.4z"/>
	<path class="st4" d="M472.2,85.4c0,0.1-9.9,0.3-22.2,0.3s-22.2-0.1-22.2-0.3s9.9-0.3,22.2-0.3S472.2,85.2,472.2,85.4z"/>
	<path class="st4" d="M472.2,100.2c0,0.1-9.9,0.3-22.2,0.3s-22.2-0.1-22.2-0.3s9.9-0.3,22.2-0.3S472.2,100.1,472.2,100.2z"/>
	<path class="st4" d="M458.4,105.3c0,0.1-6.8,0.3-15.2,0.3s-15.2-0.1-15.2-0.3s6.8-0.3,15.2-0.3S458.4,105.2,458.4,105.3z"/>
	<rect x="381.2" y="141.9" class="st6" width="4.6" height="51.1"/>
	<rect x="390" y="159.3" class="st5" width="4.6" height="33.7"/>
	<rect x="398.9" y="148.3" class="st6" width="4.6" height="45"/>
	<rect x="407.7" y="143.9" class="st5" width="4.6" height="49.1"/>
	<rect x="416.5" y="160.3" class="st6" width="4.6" height="32.7"/>
	<rect x="425.4" y="166.7" class="st5" width="4.6" height="26.3"/>
	<rect x="434.2" y="147.2" class="st6" width="4.6" height="45.8"/>
	<rect x="443" y="155.4" class="st5" width="4.6" height="37.6"/>
	<rect x="451.8" y="148.9" class="st6" width="4.6" height="44.2"/>
	<rect x="460.7" y="162.9" class="st5" width="4.6" height="30.1"/>
	<rect x="469.5" y="157.2" class="st6" width="4.6" height="35.8"/>
	<path class="st4" d="M475.9,196.6c0,0.1-21.7,0.2-48.4,0.2s-48.4-0.1-48.4-0.2s21.7-0.2,48.4-0.2S475.9,196.5,475.9,196.6z"/>
	<path class="st4" d="M387.7,200.6c-2.3,0.3-4.5,0.3-6.8,0C383.2,200.4,385.5,200.4,387.7,200.6z"/>
	<path class="st4" d="M399,200.8c-2.7,0.3-5.4,0.3-8.1,0C393.6,200.5,396.3,200.5,399,200.8z"/>
	<path class="st4" d="M408.6,200.8c-2.7,0.3-5.4,0.3-8.1,0C403.2,200.5,405.9,200.5,408.6,200.8z"/>
	<path class="st4" d="M418.2,200.8c-2.7,0.3-5.4,0.3-8.1,0C412.8,200.5,415.5,200.5,418.2,200.8z"/>
	<path class="st4" d="M427.8,200.8c-2.7,0.3-5.4,0.3-8.1,0C422.4,200.5,425.1,200.5,427.8,200.8z"/>
	<path class="st4" d="M437.4,200.8c-2.7,0.3-5.4,0.3-8.1,0C432,200.5,434.7,200.5,437.4,200.8z"/>
	<path class="st4" d="M447,200.8c-2.7,0.3-5.4,0.3-8.1,0C441.6,200.5,444.3,200.5,447,200.8z"/>
	<path class="st4" d="M456.6,200.8c-2.7,0.3-5.4,0.3-8.1,0C451.2,200.5,453.9,200.5,456.6,200.8z"/>
	<path class="st4" d="M466.2,200.8c-2.7,0.3-5.4,0.3-8.1,0C460.8,200.5,463.5,200.5,466.2,200.8z"/>
	<path class="st4" d="M475.8,200.8c-2.7,0.3-5.4,0.3-8.1,0C470.4,200.5,473.1,200.5,475.8,200.8z"/>
	<circle class="st5" cx="255.5" cy="83.5" r="4.4"/>
	<path class="st5" d="M335.6,80c0,0.1-14.8,0.3-33.1,0.3s-33.1-0.1-33.1-0.3s14.8-0.3,33.1-0.3S335.6,79.9,335.6,80z"/>
	<path class="st5" d="M295.9,85.3c-0.3,0.1-0.7,0.1-1,0.1l-2.8,0.1c-2.4,0-5.6,0.1-9.2,0.1s-6.9,0-9.2-0.1l-2.8-0.1
		c-0.3,0-0.7,0-1-0.1c0.3-0.1,0.7-0.1,1-0.1c0.7,0,1.6-0.1,2.8-0.1c2.4,0,5.6-0.1,9.2-0.1s6.9,0,9.2,0.1c1.2,0,2.1,0,2.8,0.1
		C295.2,85.2,295.6,85.3,295.9,85.3z"/>
</g>
<path class="st7" d="M465.5,256.6c-0.3-1.7-0.3-3.4,0.2-5c0.3-1.7,1-3.3,2.1-4.6c0.1,0.1-1,2-1.6,4.7S465.7,256.6,465.5,256.6z"/>
<path class="st8" d="M468,246.8l-27.8-31.3c-1-0.8-2.1-1.9-2.2-3.1c-0.1-1,0-2,0.2-3c0.3-1.2,0.7-2.4,1.2-3.4
	c0.4-0.5,0.3-1.2-0.2-1.6c-0.3-0.2-0.7-0.3-1-0.2c-1,0.4-3.3,2.9-3.9,6.6c-0.2,0.8-1.1,1.2-1.9,1c-0.1,0-0.1,0-0.2-0.1
	c-2.4-0.8-10.5-4.1-12-4.5c-1.3-0.3-2.8-0.3-2,0.7c1.8,1.4,3.7,2.7,5.7,3.9c-2.1-1.3-6.8-4-7.3-3.1c-0.3,0.5,0.3,1.5,2.2,2.9
	c-1-0.6-2-1.1-3.1-1.3c-2.5,0.2,5.2,5.1,5.2,5.1c-5.4-3.4-5.1-3.6-5.7-3c-0.5,0.5,0.5,1.6,3.1,3.8c2.1,1.8,12.7,11.1,12.7,11.1
	l21.3,35c3.5,4.9,9,8,15,8.4l43.5-0.9l4.9-24.4L468,246.8z"/>
<path class="st7" d="M424.2,217.4c-1.3-0.5-2.6-1.3-3.8-2.2c-1.3-0.7-2.4-1.6-3.5-2.6c1.4,0.6,2.6,1.3,3.8,2.2
	C422,215.5,423.1,216.4,424.2,217.4z"/>
<path class="st7" d="M425.7,215.5c-1.5-0.5-2.9-1.2-4.2-2.1c-1.4-0.7-2.7-1.6-3.9-2.6c1.5,0.5,2.9,1.2,4.2,2.1
	C423.2,213.6,424.5,214.5,425.7,215.5z"/>
<path class="st7" d="M427.2,213.5c-1.4-0.5-2.8-1.1-4-1.9c-1.3-0.6-2.6-1.4-3.7-2.4c1.4,0.5,2.8,1.1,4,1.9
	C424.9,211.7,426.1,212.5,427.2,213.5z"/>
<path class="st6" d="M400.2,430.1l-5.6,17.2c0,0-19.3,0.1-20.7,3.1l32.9,12l9.8-26.4L400.2,430.1z"/>
<path class="st1" d="M405.3,449.5c0.6,0.4,0.7,1.2,0.4,1.9c-0.4,0.6-1.2,0.8-1.9,0.4c-0.6-0.5-0.8-1.3-0.4-2c0.5-0.6,1.4-0.7,2-0.2"
	/>
<path class="st1" d="M406.8,462.4l1-2.6l-31.9-10.6c0,0-1.7,0.1-1.9,1.2L406.8,462.4z"/>
<path class="st4" d="M394.1,446.9c-0.1,0.2,0.7,0.5,1.3,1.3s0.8,1.6,1,1.6s0.3-1-0.5-2S394.1,446.7,394.1,446.9z"/>
<path class="st4" d="M390.1,447c-0.1,0.1,0.5,0.7,0.8,1.5s0.2,1.6,0.4,1.7s0.6-0.8,0.2-1.9S390.2,446.9,390.1,447z"/>
<path class="st4" d="M386.7,450.5c0.1,0.1,0.6-0.6,0.6-1.7s-0.7-1.7-0.8-1.5s0.2,0.8,0.2,1.6S386.5,450.4,386.7,450.5z"/>
<path class="st4" d="M395.8,443.1c0,0.2,0.8,0.2,1.7,0.6s1.5,0.9,1.6,0.8s-0.3-0.9-1.4-1.4S395.8,443,395.8,443.1z"/>
<path class="st4" d="M397,439.7c0.5,0.3,1.1,0.5,1.6,0.6c0.6,0.1,1.3,0.1,1.9,0.1c0.4,0,0.8-0.1,1.1-0.1c0.2,0,0.4-0.1,0.6-0.2
	c0.3-0.2,0.5-0.5,0.4-0.8s-0.3-0.5-0.6-0.6c-0.2-0.1-0.4-0.1-0.6-0.1c-0.4,0-0.8,0-1.1,0c-0.6,0.1-1.3,0.2-1.9,0.5
	c-1,0.4-1.5,0.9-1.5,1s0.6-0.3,1.6-0.6c0.6-0.2,1.2-0.3,1.8-0.3c0.4,0,0.7,0,1,0.1c0.4,0,0.7,0.1,0.7,0.3s0,0.1-0.1,0.2
	c-0.2,0.1-0.3,0.1-0.5,0.1c-0.3,0.1-0.7,0.1-1,0.2c-0.6,0.1-1.2,0.1-1.8,0C398.1,439.8,397.6,439.7,397,439.7z"/>
<path class="st4" d="M397.1,440c0,0,0.6-0.4,1-1.4c0.4-0.9,0.5-2,0.4-3c0-0.5-0.3-1-0.7-1.2c-0.3-0.1-0.6,0-0.9,0.2
	c-0.2,0.2-0.3,0.4-0.4,0.5c-0.5,0.9-0.6,2-0.3,3.1c0.3,1.1,0.9,1.5,1,1.5c-0.2-0.5-0.4-1-0.6-1.6c-0.1-0.6-0.1-1.2,0-1.7
	c0.1-0.3,0.2-0.6,0.4-0.9c0.2-0.3,0.4-0.6,0.5-0.5s0.3,0.4,0.4,0.8c0.1,0.3,0.1,0.7,0.1,1c0,0.6-0.1,1.2-0.3,1.8
	C397.4,439.4,397,439.9,397.1,440z"/>
<path class="st4" d="M490.4,314.9c-6.9-2.2-34-10.6-53.8-15.5c-7.8-1.7-15.9-0.2-22.5,4.3l0,0c-8.4,5.7-12.6,15.8-10.6,25.8
	l8.1,50.1l28-2.3l-4.3-48.3l47.7,14.6l42.6-12.3l-0.1-2.1L490.4,314.9"/>
<path class="st4" d="M500.8,323.7l-60.2,13c-8.9,1.9-16.2,8.2-19.5,16.8L391.6,435l24.5,7.5l33.3-74.6l48.4-6
	c12.6-1.6,24.3-7.6,32.8-17.1l8.5-9.4L500.8,323.7z"/>
<path class="st9" d="M489.9,325.9l-0.2,0.1l-0.8,0.2l-2.9,0.7l-10.6,2.4l-15.8,3.5l-9.3,2c-3.2,0.7-6.6,1.4-10,2.2
	c-3.3,0.8-6.5,2.1-9.3,3.9c-2.6,1.8-4.8,4.1-6.6,6.7c-3.4,5-5,10.3-6.5,14.7s-2.6,7.9-3.6,10.3c-0.5,1.2-0.9,2.1-1.2,2.7l-0.4,0.7
	c0,0.1-0.1,0.2-0.1,0.2s0-0.1,0.1-0.2l0.3-0.7c0.3-0.6,0.7-1.5,1.1-2.7c1-2.4,2.1-5.9,3.5-10.3s3-9.7,6.5-14.8
	c1.8-2.7,4-5.1,6.7-6.9c2.9-1.8,6.1-3.2,9.5-4c3.4-0.9,6.8-1.5,10-2.2l9.3-2l15.8-3.3l10.7-2.2l2.9-0.6l0.8-0.1
	C489.7,325.9,489.8,325.9,489.9,325.9z"/>
<path class="st7" d="M539.3,305.5c-1.5,0.8-3,1.5-4.6,2c-1.5,0.7-3.1,1.2-4.8,1.5c1.5-0.8,3-1.5,4.6-2
	C536,306.3,537.6,305.8,539.3,305.5z"/>
<path class="st5" d="M517.8,242L504,297l-15,17.5l51.8,21.4l18.6-40.9l14.9-45.4c-4.1-7.6-12.1-9.5-14.7-9.8l-21.4-1.5L517.8,242z"
	/>
<polygon class="st5" points="517.8,242 481.1,245.5 483.6,274.2 511.5,271.9 516.3,248.7 "/>
<path class="st4" d="M514.7,253.4c-0.1,0.6-0.2,1.2-0.3,1.7c-0.3,1.2-0.6,2.8-1.1,4.7c-0.9,4-2.2,9.4-3.7,15.4s-2.9,11.5-3.9,15.4
	l-1.2,4.6c-0.1,0.6-0.3,1.1-0.5,1.7c0.1-0.6,0.2-1.2,0.3-1.7c0.3-1.2,0.6-2.8,1.1-4.7c0.9-4,2.2-9.4,3.7-15.4s2.9-11.4,3.9-15.4
	l1.2-4.6C514.4,254.5,514.5,254,514.7,253.4z"/>
<path class="st4" d="M521,300.6c-0.1,0.1-0.8-0.6-2.2-1.3c-1.9-0.9-3.8-1.6-5.9-1.8c-2.1-0.3-4.2-0.4-6.2-0.3
	c-0.9,0.1-1.8,0-2.6-0.1c0.9-0.2,1.7-0.3,2.6-0.3c2.1-0.2,4.2-0.1,6.3,0.2c2.1,0.3,4.1,1,6,2C519.7,299.3,520.4,299.9,521,300.6z"/>
<path class="st4" d="M527.4,244.5c0,0,0.1,0.4,0.3,1c0.3,0.9,0.8,1.7,1.5,2.3c1.1,0.9,2.5,1.2,3.8,0.8c0.8-0.2,1.5-0.5,2.3-0.9
	s1.6-0.7,2.4-1.1l8.5-4.1l2.6-1.2c0.3-0.2,0.6-0.3,1-0.4c-0.3,0.2-0.6,0.4-0.9,0.6c-0.6,0.3-1.4,0.8-2.5,1.4
	c-2.1,1.1-5.1,2.7-8.4,4.3c-0.8,0.4-1.7,0.8-2.5,1.1c-0.8,0.4-1.6,0.7-2.4,0.9c-1.5,0.3-3,0-4.2-1c-0.7-0.7-1.1-1.6-1.4-2.5
	C527.4,245.3,527.4,244.9,527.4,244.5z"/>
<g class="st10">
	<path d="M504,297c5.4-1.3,11-1.5,16.5-0.8c1.3,0.1,2.5,0.5,3.5,1.3s1.2,2.3,0.4,3.4c-0.7,0.6-1.6,0.8-2.5,0.5
		c-0.9-0.2-1.9-1.6-2.7-2c-4.2-2.7-9.5-2.8-14.9-2.3"/>
</g>
<g class="st10">
	<path d="M548.6,253c-4.4,12.4,4.4,26.2,12.7,36.4l2.1-6.3C563.4,283.1,553,240.6,548.6,253z"/>
</g>
<path class="st3" d="M560.2,290c-0.4-0.7-0.9-1.3-1.5-1.9c-1.6-1.5-3.6-2.4-5.8-2.6c-3.2-0.2-6.4,0.4-9.3,1.7
	c-3.4,1.3-7,3.2-11.2,3.7c-4,0.5-8-0.3-11.6-2.1c-2.9-1.5-5.4-3.6-7.3-6.3c-1.3-1.8-2.2-3.8-2.9-5.9c-0.2-0.6-0.3-1.1-0.4-1.7
	c0-0.2-0.1-0.4-0.1-0.6c0,0,0.2,0.8,0.7,2.3c0.7,2,1.7,4,3,5.7c1.9,2.6,4.4,4.7,7.2,6.1c3.5,1.7,7.4,2.4,11.3,2
	c4.1-0.5,7.7-2.4,11.1-3.6s6.7-2,9.5-1.6c2.2,0.3,4.3,1.3,5.8,2.8c0.4,0.4,0.8,0.9,1.1,1.4C560.1,289.7,560.2,289.9,560.2,290z"/>
<path class="st3" d="M513,260.5c0-0.2,0-0.3,0.1-0.4c0.2-0.4,0.4-0.8,0.7-1.1c1.1-1.2,2.7-1.8,4.3-1.7c2.1,0.1,4.3,1.2,6.5,2.7
	s4.5,3.2,7,4.9c2.3,1.6,4.9,2.9,7.6,3.7c2.2,0.6,4.6,0.7,6.8,0.2c1.5-0.3,3-0.9,4.2-1.9l0.6-0.5l0.4-0.4c0.1-0.1,0.2-0.2,0.3-0.3
	c0,0-0.1,0.1-0.3,0.4l-0.4,0.4l-0.5,0.5c-1.2,1-2.7,1.7-4.2,2.1c-2.3,0.5-4.7,0.5-7-0.1c-2.8-0.8-5.4-2-7.8-3.7
	c-2.5-1.7-4.8-3.5-7-4.9s-4.3-2.6-6.2-2.7c-1.5-0.1-3.1,0.4-4.2,1.5C513.6,259.5,513.3,260,513,260.5z"/>
<path class="st3" d="M496.2,272.8c-0.3-0.2-0.6-0.5-0.9-0.9c-0.7-0.9-1.2-1.9-1.5-3c-0.5-1.6-0.5-3.4,0-5c0.5-1.9,1.7-3.5,2.6-5.4
	c0.8-1.8,1.1-3.8,0.9-5.7c-0.2-1.6-0.6-3.2-1.4-4.6c-0.7-1.3-1.7-2.5-2.8-3.5c0,0,0.1,0,0.3,0.2c0.3,0.2,0.5,0.4,0.7,0.6
	c0.8,0.7,1.6,1.6,2.1,2.6c0.8,1.4,1.4,3.1,1.5,4.7c0.2,2-0.1,4.1-1,6c-0.9,2-2.1,3.6-2.6,5.4c-0.4,1.5-0.5,3.2,0,4.7
	C494.6,270.2,495.3,271.6,496.2,272.8z"/>
<path class="st3" d="M515.6,242.6c-0.4,1.1-0.9,2.1-1.6,3c-1.5,2.3-2.8,4.6-3.8,7.1c-0.5,1.4-0.8,2.8-0.8,4.3c0,1.2,0.2,2.4,0.7,3.5
	c0.5,1,1.1,1.9,1.9,2.7c-0.3-0.1-0.5-0.3-0.8-0.5c-0.6-0.6-1.1-1.2-1.5-2c-0.5-1.1-0.8-2.4-0.9-3.6c0-1.5,0.3-3.1,0.8-4.5
	c1.1-2.5,2.4-4.9,4-7.1C514.9,243.6,515.5,242.5,515.6,242.6z"/>
<path class="st3" d="M520.1,315.4c-0.1,0.1-0.9-1.2-2.5-2.9c-1-1-2-1.8-3.2-2.6c-1.4-0.9-2.9-1.7-4.4-2.4c-1.6-0.6-3.2-1.1-4.8-1.4
	c-1.4-0.2-2.7-0.3-4.1-0.3c-2.3,0-3.8,0.4-3.8,0.3c0.3-0.1,0.7-0.2,1-0.3c0.4-0.1,0.8-0.2,1.2-0.2c0.5-0.1,1.1-0.1,1.6-0.1
	c1.4-0.1,2.8,0,4.2,0.2c1.7,0.3,3.4,0.7,5,1.4c1.6,0.7,3.1,1.5,4.5,2.5c1.1,0.8,2.2,1.7,3.1,2.8c0.4,0.4,0.7,0.8,1,1.2
	c0.3,0.3,0.5,0.7,0.7,1C519.7,314.8,519.9,315.1,520.1,315.4z"/>
<polygon class="st9" points="502.4,372.6 501.4,449.7 469.6,461.8 542.5,461.5 510.4,449.2 510.1,372.6 "/>
<path class="st9" d="M479.3,366.4c9.1,3.6,18.5,6.8,28.3,7.1c9.8,0.3,20.1-2.6,26.8-9.8c5.3-5.7,7.8-13.5,10.2-21l5.1-16.2
	c1.4-4.5,3.5-9.7,1-12.1c-3.6-3.4-13.2-4.7-16.8-1.3c-5.4,5-5.6,7.1-8.1,11.4c-5.6,9.9-10.5,18.9-21.1,23c-5.1,2-10.8,2.2-15.9,4.1
	S478.5,361,479.3,366.4"/>
<path class="st8" d="M549.7,240.9l-15.9,7.8c-2.2,1-4.8,0-5.8-2.2c-0.3-0.7-0.4-1.4-0.4-2.2l1.1-12.9c0,0-8.6-1.3-8.8-9.9
	s1.2-28.3,1.2-28.3l0,0c9.9-4.3,21.4-3,30,3.6l1.3,1L549.7,240.9z"/>
<path class="st7" d="M528.8,231.4c4,0,7.9-1.1,11.2-3.3c0,0-2.6,6.2-11.2,5.5V231.4z"/>
<path class="st8" d="M551.5,206.8c0.2-0.1,5.9-1.8,5.8,4.1s-6,4.5-6,4.3S551.5,206.8,551.5,206.8z"/>
<path class="st7" d="M553.1,213c0,0,0.1,0.1,0.3,0.2c0.2,0.1,0.5,0.1,0.8,0c0.8-0.5,1.3-1.3,1.2-2.2c0-0.5-0.1-1-0.2-1.5
	c-0.1-0.4-0.4-0.7-0.8-0.8c-0.2-0.1-0.5,0-0.6,0.3c-0.1,0.2,0,0.3-0.1,0.3s-0.1-0.1-0.1-0.3c0-0.1,0.1-0.3,0.2-0.4
	c0.2-0.1,0.4-0.2,0.6-0.1c0.5,0.1,0.9,0.5,1,0.9c0.2,0.5,0.4,1.1,0.3,1.6c0,1.1-0.6,2.1-1.5,2.5c-0.3,0.1-0.7,0-0.9-0.2
	S553,213,553.1,213z"/>
<path class="st4" d="M517,187.9c-0.1-1.1,0.3-2.2,1.2-2.8c0.9-0.7,2.1-0.6,2.9,0.2c-0.3-1.4,0.5-2.8,2-3.2c0.1,0,0.2,0,0.3,0
	c1.4-0.1,2.6,1,4,1.3s2.8,0.1,4-0.5c1.3-0.5,2.5-1.2,3.7-1.7c5.6-2.1,11.9,0.7,14.1,6.3c2-0.5,4,0.3,5.2,1.9
	c1.1,1.7,1.6,3.7,1.3,5.6c-0.2,1.3-0.5,2.6-1,3.9c0,0.1,0,0.2,0,0.3c-0.1,4.7-0.6,10.3-2.6,10.3c-3.5,0.1-2.7-6.6-2.7-6.6
	c-4.3-1.6-2.8-8.1-3.8-9.1s-3.3-3.2-12.3,1.4c-3.3,1.5-7.1,2-10.7,1.2h-0.2h-0.1c0,0,0,0-0.1,0c-0.8-0.2-1.6-0.5-2.3-1
	c-0.8-0.5-1.5-1.2-1.9-2.1c-0.4-0.9-0.2-2,0.5-2.7C517.6,190,517.1,189,517,187.9z"/>
<path class="st8" d="M553.7,264.4l14.4,30.5l-22.9,9.8l-4.5-1.4c-3.7-1.1-7.7-0.3-10.6,2.3l-7.1,6.3h66c3-8.6,3.1-18,0.1-26.6
	l-11.3-28.6c-3.2-7.8-11.6-14.1-19.2-10.7l0,0C551.1,249.3,550.4,256.9,553.7,264.4z"/>
<path class="st5" d="M552.5,266c4.3,7.2,10.9,18.4,10.9,18.4l24.6-10.2c0,0-10.6-20.1-14-25.2c-1.4-2.1-4.5-6.3-13.5-7.4
	c-1,0.2-1.9,0.4-2.8,0.7c-4.2,1.3-7.4,4.8-8.3,9.1l-0.2,1.1C548.7,256.9,550.2,262.1,552.5,266z"/>
<path class="st4" d="M563.4,284.4c-0.4-0.5-0.7-0.9-1-1.5l-2.6-4.1c-1.1-1.8-2.4-3.8-3.8-6.1s-3-4.8-4.5-7.5
	c-0.7-1.4-1.3-2.8-1.8-4.2c-0.4-1.4-0.6-2.8-0.7-4.2c-0.2-2.4-0.1-4.8,0.5-7.2c0.4-1.6,1.1-3.1,2.2-4.3l0.5-0.5l0.5-0.3
	c0.1-0.1,0.2-0.2,0.4-0.2c0,0-0.1,0.1-0.3,0.3l-0.4,0.4l-0.5,0.6c-1,1.2-1.7,2.7-2,4.3c-0.5,2.3-0.6,4.7-0.4,7
	c0.1,1.4,0.4,2.8,0.8,4.1c0.4,1.4,1,2.8,1.7,4.1c1.4,2.7,3.1,5.2,4.5,7.5l3.7,6.1c1,1.7,1.8,3.1,2.5,4.2
	C562.9,283.4,563.2,283.9,563.4,284.4z"/>
<path class="st3" d="M579.3,258.1c0,0-0.4-0.3-1-0.7c-1-0.6-2.1-0.9-3.2-1c-1.7-0.1-3.4,0.1-5,0.6c-1.9,0.7-3.8,1.6-5.6,2.6
	c-1.8,1.1-3.8,1.9-5.8,2.4c-1.7,0.4-3.5,0.4-5.2-0.1c-1.1-0.3-2.2-0.9-3-1.7c-0.2-0.2-0.4-0.5-0.6-0.8c-0.1-0.2-0.2-0.3-0.2-0.3
	s0.3,0.4,0.9,0.9c0.9,0.8,1.9,1.3,3,1.5c1.6,0.4,3.4,0.4,5,0c2-0.5,3.9-1.3,5.7-2.4c1.8-1,3.7-1.9,5.7-2.6c1.7-0.5,3.4-0.7,5.1-0.5
	c1.2,0.1,2.3,0.5,3.3,1.2c0.3,0.2,0.5,0.4,0.7,0.6C579.3,258,579.3,258.1,579.3,258.1z"/>
<path class="st3" d="M574.9,279.6c-0.1,0.1-0.7-0.7-1.9-1.6c-0.7-0.5-1.5-1-2.3-1.4c-2-1-4.2-1.5-6.4-1.4c-0.9,0-1.8,0.1-2.7,0.3
	c-1.5,0.3-2.4,0.7-2.4,0.6s0.2-0.1,0.6-0.4c0.6-0.3,1.2-0.5,1.8-0.6c0.9-0.2,1.8-0.4,2.8-0.4c1.1,0,2.3,0.1,3.4,0.3
	c1.1,0.3,2.2,0.7,3.2,1.2c0.8,0.4,1.6,1,2.3,1.6c0.5,0.4,0.9,0.9,1.3,1.3C574.8,279.3,574.9,279.5,574.9,279.6z"/>
<path class="st7" d="M583.8,301.9c-0.1,0-0.5-0.9-1.6-2.3c-2.8-3.5-7.3-5.4-11.8-5c-1.7,0.1-2.7,0.5-2.8,0.4
	c0.2-0.1,0.4-0.3,0.7-0.3c0.6-0.2,1.3-0.4,2-0.5c2.3-0.3,4.6,0,6.8,0.9c2.1,0.9,4,2.4,5.3,4.2c0.4,0.6,0.8,1.2,1.1,1.8
	C583.6,301.4,583.7,301.7,583.8,301.9z"/>
<path class="st6" d="M79.3,426.4l-5.9,23.4l-10,17.1c-0.7,1.2-0.3,2.7,0.9,3.4l0.1,0.1l0,0c0.7,0.4,1.6,0.4,2.3,0
	C71.2,468,87.6,459,88,457.3c0.4-2,7.8-24.2,7.8-24.2L79.3,426.4z"/>
<path class="st11" d="M64.5,470.4l24-14.7l-0.3,1c-0.2,0.8-0.8,1.6-1.5,2.1c-2,1.3-7.4,4.9-19.9,11.6
	C66.1,470.7,65.2,470.7,64.5,470.4L64.5,470.4z"/>
<g class="st12">
	<path class="st13" d="M85.7,446.8c-0.7,0.3-1.1,1-0.9,1.8c0.2,0.7,1,1.1,1.8,0.9c0.8-0.3,1.2-1.1,1-1.9
		C87.2,446.9,86.4,446.6,85.7,446.8"/>
</g>
<path class="st4" d="M72.6,461.7c-0.4-0.9-0.9-1.7-1.5-2.4c-0.8-0.6-1.6-1-2.5-1.2c0-0.1,0.3-0.2,0.9-0.1c0.7,0.1,1.4,0.4,2,0.9
	s1,1.1,1.2,1.9C72.7,461.3,72.7,461.7,72.6,461.7z"/>
<path class="st4" d="M70.1,464.3c-0.1,0.1-0.7-0.9-1.8-1.6s-2.2-0.8-2.2-0.9c0.8-0.3,1.8-0.1,2.5,0.5
	C69.8,463.1,70.2,464.3,70.1,464.3z"/>
<path class="st4" d="M76.8,458.5c-0.8-0.9-1.7-1.8-2.6-2.6c-1-0.7-2.1-1.2-3.2-1.8C73.6,454.4,75.9,456.1,76.8,458.5L76.8,458.5z"/>
<path class="st4" d="M79.2,451.6c-0.1,0.1-1.2-0.8-2.9-1.3s-3.1-0.5-3.1-0.6c1.1-0.3,2.2-0.3,3.2,0.1
	C77.5,450.1,78.5,450.7,79.2,451.6z"/>
<path class="st4" d="M81.1,444.8c-0.9-0.6-1.9-1.1-3-1.4c-1.1-0.2-2.2-0.2-3.3-0.1c0,0,0.3-0.3,0.9-0.4c1.7-0.4,3.4,0,4.7,1.1
	C80.9,444.4,81.1,444.7,81.1,444.8z"/>
<path class="st4" d="M78.5,442.1c0-0.3,0.1-0.6,0.2-0.9c0.3-0.8,0.7-1.5,1.3-2.1c0.4-0.5,0.9-0.8,1.5-1c0.4-0.1,0.8,0.2,1,0.5
	c0.2,0.4,0.2,0.8,0.1,1.1c-0.5,1.6-2.2,2.6-3.8,2.3c-1.6-0.3-2.9-1.5-3.3-3.1c-0.1-0.4,0-0.8,0.2-1.1c0.3-0.3,0.7-0.4,1.1-0.2
	c0.5,0.3,1,0.7,1.3,1.2c0.5,0.7,0.9,1.4,1.1,2.2c0.1,0.3,0.1,0.6,0.1,0.9c-0.3-1-0.8-2-1.5-2.9c-0.3-0.4-0.7-0.8-1.2-1
	c-0.2-0.1-0.5-0.1-0.6,0.1s-0.2,0.5-0.1,0.8c0.4,1.4,1.5,2.4,2.9,2.7c1.4,0.2,2.8-0.6,3.3-1.9c0.1-0.3,0.1-0.5,0-0.8
	c-0.1-0.2-0.3-0.3-0.6-0.3c-0.5,0.1-1,0.4-1.3,0.8C79.5,440.1,78.9,441.1,78.5,442.1z"/>
<path class="st6" d="M152.7,432.7l-1.2,18c0,0,17.9,7.3,18,10.7l-35-1.2l0.8-28.1L152.7,432.7z"/>
<path class="st1" d="M140.7,448.8c-0.7,0.2-1.1,0.9-1,1.6c0.2,0.7,0.9,1.2,1.6,1c0.7-0.2,1.2-0.9,1.1-1.7
	C142.1,449,141.3,448.6,140.7,448.8"/>
<path class="st1" d="M134.4,460.2l0.2-2.8l33.5,2.2c0,0,1.5,0.7,1.3,1.8L134.4,460.2z"/>
<path class="st4" d="M152,450.5c0,0.2-0.9,0.2-1.7,0.7s-1.3,1.2-1.5,1.2s0.1-1.1,1.2-1.7S152.1,450.4,152,450.5z"/>
<path class="st4" d="M155.6,452.2c0,0.2-0.7,0.4-1.3,1.1s-0.8,1.5-1,1.5s-0.2-1,0.5-1.8S155.6,452,155.6,452.2z"/>
<path class="st4" d="M157.6,456.6c-0.2,0-0.4-0.8,0.1-1.8s1.3-1.3,1.4-1.1s-0.4,0.6-0.8,1.4S157.8,456.6,157.6,456.6z"/>
<path class="st4" d="M151.9,446.4c-0.1,0.1-0.9-0.1-1.8-0.1s-1.7,0.3-1.8,0.2s0.7-0.7,1.8-0.8S152,446.3,151.9,446.4z"/>
<path class="st4" d="M152,442.8c-0.6,0.1-1.2,0.1-1.8-0.1c-0.6-0.1-1.2-0.3-1.8-0.6c-0.3-0.2-0.7-0.4-1-0.6
	c-0.2-0.1-0.4-0.3-0.5-0.4c-0.2-0.3-0.2-0.6-0.1-0.9c0.2-0.2,0.5-0.4,0.8-0.4c0.2,0,0.4,0,0.7,0.1c0.4,0.1,0.7,0.2,1.1,0.4
	c0.6,0.3,1.1,0.7,1.6,1.1c0.8,0.8,1,1.4,1,1.5s-0.5-0.5-1.3-1.1c-0.5-0.4-1-0.7-1.5-0.9c-0.3-0.1-0.7-0.3-1-0.3
	c-0.4-0.1-0.7-0.1-0.8,0s0,0.1,0,0.2c0.1,0.1,0.2,0.2,0.4,0.3c0.3,0.2,0.6,0.4,0.9,0.6c0.5,0.3,1.1,0.5,1.7,0.7
	C150.9,442.4,151.4,442.5,152,442.8z"/>
<path class="st4" d="M151.8,443c-0.3-0.5-0.5-1.1-0.4-1.7c0-0.6,0.1-1.3,0.3-1.9c0.1-0.4,0.3-0.7,0.5-1c0.2-0.5,0.6-0.8,1.1-0.9
	c0.3,0,0.6,0.2,0.7,0.5c0.1,0.2,0.1,0.4,0.2,0.6c0.1,0.4,0.1,0.8,0,1.2c-0.1,0.7-0.4,1.3-0.8,1.8c-0.7,0.9-1.4,1.1-1.4,1
	s0.6-0.4,1.1-1.3c0.3-0.5,0.5-1,0.6-1.6c0-0.3,0-0.7,0-1c0-0.4-0.2-0.7-0.3-0.6s-0.5,0.3-0.6,0.5c-0.2,0.3-0.3,0.6-0.5,0.9
	c-0.2,0.6-0.3,1.1-0.4,1.7C151.7,442.3,151.9,443,151.8,443z"/>
<path class="st4" d="M116.2,107.5c-1-2.1-1.8-4.2-2.4-6.5c-0.4-1.7-0.9-4.2-0.3-5.8c0.6-1.8,2.4-3,4.4-2.8c0.3-3.4,2.4-6.4,5.5-7.9
	c2.9-1.5,6.1-2.4,9.4-2.7c1.2-0.2,2.4,0,3.6,0.4c1,0.5,1.8,1.3,2.2,2.2c2-1.5,4.5-2,6.9-1.3c2.6,0.7,5.6,2,6.8,4.4
	c0.9,1.8,1,3.9,0.4,5.8c-0.5,1.6-2.1,4.1-3.7,3.6"/>
<path class="st14" d="M118.7,151.9l23.5-1.1c0.1-2.5-1.1-17.9-1.1-17.9s8.9-1.4,9-10.3s-1.4-29.3-1.4-29.3l0,0
	c-10.3-4.4-22.1-2.9-31,3.9l-1.3,1L118.7,151.9z"/>
<path class="st15" d="M141.1,132.8c-4.1,0.1-8.1-1.1-11.6-3.3c0,0,2.7,6.4,11.6,5.6V132.8z"/>
<path class="st14" d="M117.4,107.5c-0.2-0.1-6.1-1.8-5.9,4.3s6.2,4.6,6.3,4.4S117.4,107.5,117.4,107.5z"/>
<path class="st15" d="M115.8,114c0,0-0.1,0.1-0.3,0.2c-0.3,0.1-0.5,0.1-0.8,0c-0.8-0.5-1.3-1.4-1.3-2.3c0-0.5,0.1-1,0.2-1.5
	c0.1-0.4,0.4-0.7,0.8-0.8c0.2-0.1,0.5,0,0.6,0.3c0.1,0.2,0.1,0.3,0.1,0.3s0.1-0.1,0.1-0.4c0-0.1-0.1-0.3-0.2-0.4
	c-0.2-0.1-0.4-0.2-0.6-0.1c-0.5,0.1-0.9,0.5-1.1,1s-0.3,1.1-0.3,1.7c0,1.1,0.6,2.1,1.6,2.6c0.3,0.1,0.7,0,1-0.2
	C115.8,114.1,115.9,114,115.8,114z"/>
<path class="st4" d="M115.8,97.9c0.1,2.6-0.5,5.5,0,8c0.1,0.4,1.1,1.4,1.2,1.8c0.5,2.2,1.4,3.2,2.8,0.9c0.5-1.4,0.8-2.9,1-4.4
	c0.5-2.7,1.1-5.5,1.6-8.2c2.1,1.1,4.4,1.6,6.7,1.6c2.4,0,4.6-1.3,5.9-3.4c2,3.4,6.4,4.5,9.8,2.4c0.5-0.3,0.9-0.6,1.3-1
	c0.9,1.3,2.6,1.6,3.9,0.8c1.3-0.9,1.9-2.4,1.4-3.9c-0.6-2.2-2.9-3.3-5.1-4c-8.4-2.5-17.8-0.5-25.4,3.9c-1.1,0.6-2.1,1.4-3,2.3
	c-0.9,1-2.1,2.1-2.1,3.3"/>
<path class="st9" d="M122.2,98.1c-0.5,0-0.9,0.1-1.4,0.2c-0.5,0.2-0.9,0.5-1.2,0.8c-0.4,0.4-0.8,0.9-1.3,1.4s-1.1,0.9-1.7,1.1
	c-0.5,0.2-1.1,0.2-1.7,0.1c-1-0.2-1.3-0.8-1.3-0.8c0.4,0.2,0.9,0.3,1.3,0.4c0.5,0.1,1,0,1.5-0.2c0.6-0.2,1.1-0.6,1.5-1
	c0.5-0.5,0.9-1,1.4-1.4c0.4-0.4,0.9-0.6,1.4-0.8C121.7,97.7,122.3,98.1,122.2,98.1z"/>
<path class="st9" d="M121.3,100.8c-0.4,0.1-0.7,0.2-1,0.4c-0.3,0.3-0.5,0.6-0.8,0.9c-0.3,0.4-0.7,0.8-1.1,1.1
	c-0.8,0.5-1.8,0.8-2.8,0.7c-0.7-0.1-1.1-0.3-1.1-0.4s0.4,0,1.1,0c0.9,0,1.7-0.3,2.4-0.7c0.9-0.5,1.3-1.4,1.9-1.9
	S121.3,100.7,121.3,100.8z"/>
<path class="st9" d="M144.2,83c0,0,0.3-0.1,0.8,0c0.7,0.2,1.3,0.7,1.7,1.2c1.1,1.5,1.4,4.2,0.7,6.8c-0.7,2.3-2.2,4.2-4.2,5.4
	c-0.6,0.4-1.2,0.7-1.9,0.9c-0.2,0.1-0.5,0.2-0.8,0.2c0.8-0.4,1.7-0.8,2.5-1.3c1.9-1.3,3.2-3.1,3.9-5.3c0.7-2.5,0.5-5.1-0.5-6.5
	c-0.4-0.5-0.9-1-1.4-1.3C144.5,83,144.2,83,144.2,83z"/>
<path class="st9" d="M151.7,86.4c0.1,0.6,0.1,1.1,0,1.7c-0.2,1.4-0.8,2.7-1.5,3.8c-0.7,1.2-1.7,2.2-2.9,3c-0.4,0.4-1,0.6-1.5,0.8
	c1.5-1.1,2.9-2.5,3.9-4C150.7,90.1,151.3,88.3,151.7,86.4z"/>
<polygon class="st4" points="161.8,234.9 156.2,444.4 128.6,443.6 130.7,263.8 95.5,448.6 70.6,442.1 102.8,235.3 "/>
<path class="st14" d="M246.8,145.1l1.3-0.5c0,0,11.3,1.7,10.7-0.3c-0.8-2.7-11-3.6-11.9-3.5c-1.6,0.2-10.7,2.6-11.9,3.5
	s-7.9,9.8-7.9,9.8l11.4,8.8c0,0,2.7-0.1,5.8-3.7c1.6-1.8,3.8-4.9,3.8-4.9s-0.2-0.8,0-1.1c0.6-1,0-1.4,0-1.4c0.7-0.3,1.1-0.9,1.1-1.6
	c0-0.4-0.1-0.7-0.4-1c-0.7-0.5-1-0.4-1-0.4c0.8-0.4,1.3-1.1,1.5-2c0.1-1.3-1.8-1.6-1.8-1.6"/>
<path class="st15" d="M258.7,144.9c-0.7,0.4-1.5,0.6-2.4,0.6c-0.9,0.1-1.8,0.1-2.7,0.1c-1-0.1-2-0.3-3.2-0.5l-2.4-0.4h0.1
	c-1.8,0.7-3.7,1.3-5.6,1.6c1.7-0.9,3.5-1.6,5.4-2.2h0.1h0.1l2.4,0.4l3.1,0.5c0.9,0.1,1.7,0.1,2.6,0.1
	C257.8,145,258.7,144.8,258.7,144.9z"/>
<path class="st14" d="M246.2,145.8l-3.1,3.3c-0.4,0.4-0.7,0.8-0.9,1.3s-0.1,1.1,0.3,1.4c0.3,0.3,0.8,0.3,1.2,0.2s0.8-0.3,1.1-0.6
	c1.3-0.9,2.6-2,3.8-3.1"/>
<path class="st15" d="M248.8,148.2c-0.5,0.6-1,1.2-1.6,1.7c-0.6,0.6-1.3,1.1-2,1.6c-0.4,0.3-0.9,0.5-1.4,0.7
	c-0.3,0.1-0.6,0.1-0.9,0.1c-0.3,0-0.7-0.2-0.9-0.5c-0.4-0.5-0.4-1.3,0-1.8c0.3-0.4,0.6-0.9,0.9-1.2c0.6-0.7,1.2-1.4,1.8-1.9
	c0.5-0.6,1.1-1.1,1.8-1.5c-0.5,0.6-1,1.2-1.5,1.8l-1.6,1.9c-0.3,0.4-0.6,0.7-0.9,1.2c-0.2,0.4-0.2,0.9,0,1.2
	c0.3,0.3,0.8,0.4,1.2,0.2c0.5-0.2,0.9-0.4,1.3-0.6c0.7-0.4,1.4-1,2-1.5C247.5,149.1,248.1,148.6,248.8,148.2z"/>
<path class="st14" d="M247.7,149.4c0,0,0.9-1.2,1.4-1.2c0.6-0.1,1.3,0.2,1.6,0.8c0.3,0.7,0.1,1-1,2.6"/>
<path class="st14" d="M247.7,149.4l-2.5,2.9c-0.3,0.3-0.6,0.7-0.7,1.1c-0.2,0.4-0.1,0.9,0.2,1.2c0.3,0.2,0.7,0.3,1,0.2
	s0.6-0.3,0.9-0.5c1.1-0.8,2.1-1.7,3.1-2.6"/>
<path class="st15" d="M250.7,149.7c-0.2,0.7-0.5,1.4-1.1,2c-0.5,0.6-1.1,1.2-1.7,1.8c-0.4,0.3-0.8,0.6-1.2,0.9
	c-0.4,0.3-1,0.6-1.5,0.6c-0.3,0-0.7-0.1-0.9-0.3s-0.3-0.6-0.3-0.9c0-0.5,0.3-1,0.6-1.4c0.6-0.7,1.1-1.3,1.6-1.8
	c0.5-0.6,1-1.1,1.7-1.5c-0.4,0.6-0.9,1.2-1.4,1.8c-0.4,0.5-1,1.2-1.5,1.9c-0.3,0.3-0.5,0.7-0.5,1.1c0,0.3,0.2,0.6,0.5,0.7
	c0.1,0,0.1,0,0.2,0c0.5-0.1,0.9-0.3,1.3-0.6c0.4-0.3,0.8-0.5,1.1-0.8c0.6-0.5,1.2-1,1.7-1.6C250.3,150.5,250.6,149.7,250.7,149.7z"
	/>
<path class="st14" d="M231.1,155.6c0.9,0.6,2.1,0.6,3,0c0.9-0.5,1.6-1.4,2.5-2c2.6-1.8,6.4-1.3,9-3.2c0.4-0.3,0.7-0.7,0.5-1.1
	s-0.7-0.4-1.1-0.4l-10.6,0.1"/>
<path class="st15" d="M234.4,149c0.4-0.1,0.8-0.1,1.1-0.1c0.7,0,1.8-0.1,3.1-0.1l4.6-0.1h1.3c0.5-0.1,1.1,0,1.6,0.4
	c0.3,0.3,0.3,0.7,0.1,1c-0.1,0.3-0.3,0.5-0.5,0.7c-0.4,0.3-0.9,0.6-1.3,0.8c-1.9,0.9-3.9,1-5.5,1.5c-0.8,0.2-1.5,0.6-2.2,1
	c-0.6,0.4-1.1,0.9-1.7,1.3c-0.8,0.8-1.9,1.1-3,1c-0.8-0.2-1-0.6-1-0.6c0.3,0.2,0.6,0.3,1,0.4c1,0,2-0.4,2.7-1.1
	c0.5-0.4,1-0.9,1.7-1.4s1.5-0.8,2.3-1.1c1.7-0.5,3.6-0.7,5.4-1.5c0.4-0.2,0.8-0.4,1.2-0.7s0.5-0.6,0.3-0.8s-0.7-0.2-1.1-0.2h-1.3
	h-4.6c-1.3,0-2.4-0.1-3.1-0.1C235.2,149.2,234.8,149.1,234.4,149z"/>
<path class="st14" d="M248.9,152.5c0,0,0.7-0.9,1-0.9c0.5-0.1,0.9,0.1,1.1,0.6c0.2,0.5,0.1,0.8-0.8,2"/>
<path class="st14" d="M248.9,152.5l-1.9,2.1c-0.2,0.2-0.4,0.5-0.5,0.8s-0.1,0.7,0.2,0.9c0.2,0.2,0.5,0.2,0.7,0.1
	c0.2-0.1,0.5-0.2,0.7-0.4c0.8-0.6,1.6-1.3,2.3-1.9"/>
<path class="st15" d="M251.2,152.7c-0.1,0.6-0.3,1.1-0.7,1.5c-0.4,0.5-0.8,0.9-1.3,1.3c-0.3,0.2-0.6,0.5-0.9,0.6
	c-0.3,0.3-0.7,0.4-1.2,0.5c-0.3,0-0.5-0.1-0.7-0.3s-0.3-0.4-0.3-0.7c0-0.4,0.2-0.8,0.5-1.1c0.5-0.5,0.9-1,1.2-1.3
	c0.7-0.7,1.2-1.2,1.2-1.1c-0.3,0.5-0.6,1-1,1.4l-1,1.5c-0.2,0.2-0.3,0.5-0.4,0.8c0,0.3,0.1,0.5,0.4,0.4c0.3-0.1,0.7-0.2,0.9-0.4
	c0.3-0.2,0.6-0.4,0.8-0.6c0.5-0.4,0.9-0.8,1.3-1.2C250.8,153.3,251.1,152.7,251.2,152.7z"/>
<path class="st15" d="M241.4,157.5c-0.2-0.8-0.4-1.6-0.7-2.3c-0.6-1.2-1.6-1.8-1.5-1.9s1.3,0.3,2,1.7
	C241.7,155.7,241.7,156.7,241.4,157.5z"/>
<path class="st6" d="M162.6,242.8c0,0-1.9-56.6-2.5-65c14,7.8,35.6,17.8,38,18.2c4.2,0.9,41.5-32.3,41.5-32.3l-13.4-10.5l-30.8,17.4
	l-40.4-24l0,0c-2.9-2.1-6.3-3.5-9.9-3.9h-0.3c-1.4-0.2-2.1-0.4-3-0.5l0,0c-6.4,4.8-17.3,5.1-23.6,0.2l0,0c0,0-4.8,1.1-7.6,1.6
	c-9,1.7-15.4,8.2-17.2,14.2l11.2,25.8l2.2,24.5l-5.7,31.5L162.6,242.8"/>
<g class="st10">
	<path d="M104.6,219.4c2.4,2.3,5.8,3.2,9.1,2.6c2.3-0.5,4.5-1.7,6.8-1.6c2.6,0.2,4.7,2,7,3c4.4,2,9.5,1.3,14.1,0.1
		c2.1-0.6,4.4-1.3,5.7-3.1c1-1.4,1.6-3,1.8-4.8c0.5-3.1,0.8-6.3,0.7-9.4c-0.1-2-0.3-4.1-1.5-5.6c-1.1-1.2-2.6-2-4.2-2.1
		c-1.6-0.1-3.2-0.1-4.8,0.3c-12.7,2.1-24.6,7.3-34.9,15"/>
</g>
<path class="st6" d="M127.1,209c0,0-29.3,13.1-32.3,13.8c-9.9,2.2-21.2-7.2-18.1-17.9c1.2-4,17-47.9,17-47.9l15,20.8l-6.4,21.2
	l16.7-1L127.1,209z"/>
<path class="st16" d="M118.6,141.8L118.6,141.8L118.6,141.8z"/>
<path class="st4" d="M117.6,198.1c-0.4,0.1-0.8,0.1-1.2,0.2l-3.2,0.3c-2.7,0.2-6.6,0.5-10.9,0.8H102l0.1-0.4c0.3-1.1,0.6-2.2,1-3.3
	c1.5-5,2.9-9.4,3.9-12.7l1.2-3.8c0.1-0.5,0.3-0.9,0.5-1.4c-0.1,0.5-0.2,1-0.3,1.4l-1.1,3.9c-0.9,3.3-2.2,7.8-3.7,12.7
	c-0.3,1.1-0.7,2.2-1,3.3l-0.3-0.3c4.4-0.3,8.2-0.5,10.9-0.6l3.2-0.1C116.8,198.1,117.2,198.1,117.6,198.1z"/>
<path class="st4" d="M96.1,206c0-0.5,0.1-1,0.3-1.4c0.4-1.1,1.1-2.1,1.9-3s1.8-1.6,2.9-2.1c0.4-0.3,0.9-0.4,1.4-0.4
	c-1.4,0.8-2.7,1.7-3.9,2.9C97.7,203.2,96.8,204.5,96.1,206z"/>
<path class="st4" d="M123.8,210.7c0,0.1-6.4,2.9-14.4,6.2s-14.5,5.9-14.6,5.7s6.4-2.9,14.4-6.2S123.8,210.5,123.8,210.7z"/>
<path class="st4" d="M161.7,215c0-0.2-0.1-0.3-0.1-0.5c0-0.4,0-0.8-0.1-1.3c-0.1-1.2-0.1-2.9-0.2-4.9c-0.2-4.1-0.4-9.9-0.8-16.2
	s-0.8-12-1.3-16.1c-0.2-2.1-0.4-3.7-0.6-4.9c-0.1-0.6-0.2-1.2-0.2-1.8c0,0,0.1,0.1,0.1,0.4s0.2,0.8,0.3,1.3c0.2,1.1,0.5,2.8,0.8,4.9
	c0.5,4.1,1,9.8,1.4,16.1s0.5,12,0.6,16.2c0,2.1,0,3.8,0,4.9c0,0.5,0,1,0,1.3C161.7,214.7,161.7,214.8,161.7,215z"/>
<path class="st3" d="M110.6,158c0,0.1-0.8,0.5-1.9,1.4c-1.5,1.3-2.5,2.9-3.1,4.8l-0.1,0.5l-0.3-0.4L105,164
	c-1.3-1.6-3.1-2.6-5.1-2.8c-0.8-0.1-1.7-0.1-2.5,0c0,0,0.2-0.1,0.6-0.2c0.6-0.1,1.2-0.2,1.9-0.2c2.1,0.1,4.1,1.1,5.4,2.8l0.2,0.3
	L105,164c0.6-1.9,1.8-3.6,3.4-4.9C109,158.6,109.8,158.2,110.6,158z"/>
<path class="st3" d="M129.6,170.1c0,0.1-0.8,0.4-1.9,1.4c-1.5,1.3-2.5,2.9-3.1,4.8l-0.1,0.5l-0.3-0.4l-0.2-0.3
	c-1.3-1.6-3.1-2.5-5.1-2.8c-0.8-0.1-1.7-0.1-2.5,0c0,0,0.2-0.1,0.6-0.2c0.6-0.1,1.2-0.2,1.9-0.2c2.1,0.1,4.1,1.1,5.4,2.8l0.2,0.3
	l-0.5,0.1c0.6-1.9,1.8-3.7,3.4-4.9C128,170.7,128.8,170.3,129.6,170.1z"/>
<path class="st3" d="M103.9,180.4c0,0.1-0.9,0.2-2.3,0.7c-1.8,0.7-3.4,1.9-4.5,3.4l-0.3,0.4l-0.2-0.5l-0.1-0.3
	c-0.7-1.9-2-3.4-3.8-4.3c-0.8-0.3-1.6-0.6-2.4-0.8c0,0,0.2-0.1,0.7,0c0.6,0.1,1.2,0.2,1.8,0.5c2,0.8,3.5,2.4,4.2,4.5
	c0,0.1,0.1,0.2,0.1,0.3l-0.5-0.1c1.2-1.6,2.9-2.8,4.8-3.5C102.3,180.5,103.1,180.4,103.9,180.4z"/>
<path class="st3" d="M97.6,195.6c0,0.1-0.9,0.1-2.3,0.7c-1.8,0.7-3.4,1.9-4.5,3.4l-0.3,0.4l-0.2-0.5l-0.1-0.3
	c-0.7-1.9-2-3.4-3.8-4.3c-0.8-0.3-1.6-0.6-2.4-0.8c0.2,0,0.5,0,0.7,0c0.6,0.1,1.2,0.2,1.8,0.5c2,0.8,3.5,2.5,4.2,4.5
	c0,0.1,0.1,0.2,0.1,0.4l-0.5-0.1c1.2-1.6,2.9-2.9,4.8-3.5C96,195.6,96.8,195.5,97.6,195.6z"/>
<path class="st3" d="M96.5,211c0,0.1-0.9,0.1-2.3,0.7c-1.8,0.7-3.4,1.9-4.5,3.4l-0.3,0.4l-0.2-0.5l-0.1-0.3c-0.7-1.9-2-3.4-3.8-4.3
	c-0.8-0.3-1.6-0.6-2.4-0.8c0.2,0,0.5,0,0.7,0c0.6,0.1,1.2,0.2,1.8,0.5c2,0.8,3.5,2.5,4.2,4.5l0.1,0.4l-0.5-0.1
	c1.2-1.6,2.9-2.8,4.8-3.5C94.8,211,95.6,210.9,96.5,211z"/>
<path class="st3" d="M139,155c0,0.1-0.8,0.4-1.9,1.4c-1.5,1.3-2.5,2.9-3.1,4.8l-0.1,0.5l-0.3-0.4l-0.2-0.3c-1.3-1.6-3.1-2.6-5.1-2.8
	c-0.8,0-1.7,0-2.5,0.1c0,0,0.2-0.1,0.7-0.2c0.6-0.1,1.2-0.2,1.9-0.2c2.1,0.1,4.1,1.2,5.4,2.8l0.2,0.3l-0.5,0.1
	c0.6-1.9,1.7-3.7,3.4-4.9C137.5,155.6,138.2,155.2,139,155z"/>
<path class="st3" d="M153.9,149.8c0,0.1-0.9,0.1-2.3,0.5c-1.8,0.6-3.5,1.7-4.7,3.1l-0.3,0.4l-0.1-0.5c0-0.1-0.1-0.2-0.1-0.3
	c-0.5-1.9-1.8-3.6-3.6-4.6c-0.7-0.4-1.5-0.7-2.3-0.9c0.2-0.1,0.5-0.1,0.7,0c0.6,0.1,1.2,0.3,1.8,0.6c1.9,1,3.3,2.7,3.9,4.7l0.1,0.4
	l-0.5-0.1c1.3-1.6,3-2.7,5-3.1C152.2,149.7,153.1,149.7,153.9,149.8z"/>
<path class="st3" d="M123,146.6c0,0.1-0.8,0.4-1.9,1.4c-1.5,1.3-2.5,2.9-3.1,4.8l-0.2,0.5l-0.3-0.4l-0.2-0.3
	c-1.3-1.6-3.1-2.5-5.1-2.8c-0.8,0-1.7,0-2.5,0.1c0,0,0.2-0.1,0.7-0.2c0.6-0.1,1.2-0.2,1.9-0.2c2.1,0.1,4.1,1.1,5.4,2.8l0.2,0.3
	l-0.5,0.1c0.6-1.9,1.8-3.7,3.4-4.9C121.5,147.2,122.2,146.8,123,146.6z"/>
<path class="st3" d="M154.4,173.1c0,0.1-0.8,0.4-1.9,1.4c-1.5,1.3-2.5,2.9-3.1,4.8l-0.1,0.5l-0.3-0.4l-0.2-0.3
	c-1.3-1.6-3.1-2.6-5.1-2.8c-0.8-0.1-1.7,0-2.5,0.1c0,0,0.2-0.1,0.6-0.2c0.6-0.1,1.2-0.2,1.9-0.2c2.1,0.1,4.1,1.2,5.4,2.8l0.2,0.3
	l-0.5,0.1c0.6-1.9,1.8-3.6,3.4-4.9C152.8,173.7,153.6,173.4,154.4,173.1z"/>
<path class="st3" d="M126.4,213.9c0,0.1-0.8,0.4-1.9,1.4c-1.5,1.3-2.5,2.9-3.1,4.8l-0.1,0.5l-0.3-0.4l-0.2-0.3
	c-1.3-1.6-3.1-2.6-5.1-2.8c-0.8-0.1-1.7,0-2.5,0.1c0,0,0.2-0.1,0.6-0.2c0.6-0.1,1.2-0.2,1.9-0.2c2.1,0.1,4.1,1.2,5.4,2.8l0.2,0.3
	l-0.5,0.1c0.6-1.9,1.8-3.6,3.4-4.9C124.8,214.5,125.6,214.1,126.4,213.9z"/>
<path class="st3" d="M115.4,204.2c0,0.1-0.8,0.4-1.9,1.4c-1.5,1.3-2.5,2.9-3.1,4.8l-0.2,0.5l-0.3-0.4l-0.2-0.3
	c-1.3-1.6-3.1-2.6-5.1-2.8c-0.8,0-1.7,0-2.5,0.1c0,0,0.2-0.1,0.6-0.2c0.6-0.2,1.2-0.2,1.9-0.2c2.1,0.1,4.1,1.1,5.4,2.8l0.2,0.3
	l-0.5,0.1c0.6-1.9,1.8-3.7,3.4-4.9C113.9,204.8,114.6,204.4,115.4,204.2z"/>
<path class="st3" d="M160.1,208.5c0,0.1-0.9,0-2.4,0.4c-1.9,0.5-3.6,1.5-4.9,2.9l-0.4,0.4l-0.1-0.5l-0.1-0.3c-0.4-2-1.6-3.7-3.3-4.7
	c-0.7-0.4-1.5-0.8-2.3-1.1c0.2,0,0.5,0,0.7,0.1c0.6,0.1,1.2,0.4,1.8,0.7c1.9,1.1,3.2,2.9,3.6,4.9l0.1,0.4l-0.4-0.1
	c1.4-1.5,3.2-2.5,5.2-2.9C158.4,208.3,159.3,208.3,160.1,208.5z"/>
<path class="st3" d="M139.2,228.4c0,0.1-0.9,0.3-2.2,1c-1.7,0.9-3.1,2.3-4.1,3.9l-0.2,0.4l-0.2-0.5l-0.1-0.3
	c-0.9-1.8-2.4-3.2-4.3-3.8c-0.8-0.2-1.6-0.4-2.4-0.5c0,0,0.2-0.1,0.7-0.1c0.6,0,1.3,0.1,1.9,0.3c2.1,0.6,3.8,2.1,4.7,4l0.1,0.3h-0.5
	c1-1.8,2.5-3.2,4.4-4C137.6,228.7,138.4,228.5,139.2,228.4z"/>
<path class="st3" d="M152.6,220.6c0,0.1-0.9,0-2.4,0.4c-1.9,0.5-3.6,1.5-4.9,2.9l-0.4,0.4l-0.1-0.5l-0.1-0.3c-0.4-2-1.6-3.7-3.3-4.7
	c-0.7-0.4-1.5-0.8-2.2-1.1c0.2,0,0.5,0,0.7,0.1c0.6,0.1,1.2,0.4,1.8,0.7c1.9,1.1,3.2,2.9,3.6,4.9c0,0.1,0.1,0.2,0.1,0.4l-0.4-0.1
	c1.4-1.5,3.2-2.5,5.2-2.9C150.9,220.4,151.8,220.4,152.6,220.6z"/>
<path class="st3" d="M118.9,233c0,0.1-0.9,0-2.4,0.4c-1.9,0.5-3.6,1.5-4.9,2.9l-0.3,0.4l-0.1-0.5l-0.1-0.3c-0.4-2-1.6-3.7-3.3-4.7
	c-0.7-0.4-1.5-0.8-2.2-1.1c0.2,0,0.5,0,0.7,0.1c0.6,0.1,1.2,0.4,1.8,0.7c1.9,1.1,3.2,2.9,3.6,4.9c0,0.1,0,0.2,0.1,0.4l-0.4-0.1
	c1.4-1.5,3.2-2.5,5.2-2.9C117.3,232.8,118.1,232.8,118.9,233z"/>
<path class="st3" d="M159.3,231.3c0,0.1-0.8,0.4-2,1.3c-1.5,1.2-2.7,2.8-3.3,4.6l-0.2,0.5l-0.3-0.4l-0.2-0.3c-1.2-1.6-2.9-2.7-4.9-3
	c-0.8-0.1-1.7-0.1-2.5-0.1c0.2-0.1,0.4-0.2,0.7-0.2c0.6-0.1,1.3-0.1,1.9-0.1c2.1,0.2,4,1.4,5.3,3.1l0.2,0.3l-0.5,0.1
	c0.7-1.9,1.9-3.6,3.6-4.7C157.8,231.8,158.5,231.5,159.3,231.3z"/>
<path class="st3" d="M155,189.9c0.1,0.1-0.8,0.5-1.9,1.4c-1.5,1.2-2.5,2.9-3.1,4.7l-0.1,0.5l-0.3-0.4l-0.2-0.3
	c-1.3-1.6-3.1-2.5-5.1-2.8c-0.8-0.1-1.7-0.1-2.5,0c0,0,0.2-0.1,0.6-0.2c0.6-0.1,1.2-0.2,1.9-0.2c2.1,0.1,4.1,1.1,5.4,2.8l0.2,0.3
	l-0.5,0.1c0.6-1.9,1.8-3.6,3.4-4.9C153.5,190.4,154.2,190.1,155,189.9z"/>
<path class="st3" d="M167.4,157.1c0,0.1-0.8,0.4-1.9,1.4c-1.5,1.3-2.5,2.9-3.1,4.8l-0.1,0.5l-0.3-0.4l-0.2-0.3
	c-1.3-1.6-3.1-2.6-5.1-2.8c-0.8-0.1-1.7-0.1-2.5,0c0,0,0.2-0.1,0.6-0.2c0.6-0.1,1.2-0.2,1.9-0.2c2.1,0.1,4.1,1.2,5.4,2.8l0.2,0.3
	l-0.5,0.1c0.6-1.9,1.8-3.7,3.4-4.9C165.9,157.6,166.6,157.3,167.4,157.1z"/>
<path class="st3" d="M197.2,173.5c0,0.1-0.8,0.4-1.9,1.4c-1.5,1.3-2.5,2.9-3.1,4.8l-0.1,0.5l-0.3-0.4l-0.2-0.3
	c-1.3-1.6-3.1-2.6-5.1-2.8c-0.8-0.1-1.7-0.1-2.5,0c0,0,0.2-0.1,0.6-0.2c0.6-0.2,1.2-0.2,1.9-0.2c2.1,0.1,4.1,1.1,5.4,2.8l0.2,0.3
	l-0.5,0.1c0.6-1.9,1.8-3.7,3.4-4.9C195.7,174.1,196.4,173.7,197.2,173.5z"/>
<path class="st3" d="M219.8,170.6c0,0.1-0.8,0.4-1.9,1.4c-1.5,1.3-2.5,2.9-3.1,4.8l-0.1,0.5l-0.3-0.4l-0.2-0.3
	c-1.3-1.6-3.1-2.6-5.1-2.8c-0.8,0-1.7,0-2.5,0.1c0,0,0.2-0.1,0.6-0.2c0.6-0.1,1.2-0.2,1.9-0.2c2.1,0.1,4.1,1.2,5.4,2.8l0.2,0.3
	l-0.5,0.1c0.6-1.9,1.8-3.7,3.4-4.9C218.2,171.2,219,170.8,219.8,170.6z"/>
<path class="st3" d="M230.1,158c0,0.1-0.8,0.5-1.9,1.4c-1.5,1.3-2.5,2.9-3.1,4.8l-0.1,0.5l-0.3-0.4l-0.2-0.3
	c-1.3-1.6-3.1-2.6-5.1-2.8c-0.8-0.1-1.7-0.1-2.5,0c0,0,0.2-0.1,0.6-0.2c0.6-0.1,1.2-0.2,1.9-0.2c2.1,0.1,4.1,1.1,5.4,2.8l0.2,0.3
	l-0.5,0.1c0.6-1.9,1.7-3.7,3.4-4.9C228.6,158.6,229.3,158.2,230.1,158z"/>
<path class="st3" d="M177.8,173.4c0,0.1-0.9,0.3-2.1,1.1c-1.6,1-2.9,2.5-3.7,4.3l-0.2,0.5l-0.2-0.5l-0.2-0.3c-1-1.7-2.7-3-4.6-3.4
	c-0.8-0.2-1.6-0.3-2.5-0.3c0,0,0.2-0.1,0.7-0.1c0.6-0.1,1.3,0,1.9,0.1c2.1,0.4,3.9,1.7,5,3.6l0.2,0.3h-0.5c0.8-1.8,2.2-3.4,4-4.4
	C176.2,173.8,177,173.5,177.8,173.4z"/>
<path class="st3" d="M204.9,186.3c0,0.1-0.9,0.3-2.1,1.1c-1.6,1-2.9,2.5-3.7,4.3l-0.2,0.5l-0.3-0.5l-0.2-0.3c-1-1.7-2.7-3-4.6-3.4
	c-0.8-0.2-1.6-0.3-2.5-0.3c0,0,0.2-0.1,0.7-0.1c0.6-0.1,1.3,0,1.9,0.1c2.1,0.4,3.9,1.7,5,3.6l0.2,0.3h-0.5c0.8-1.8,2.2-3.4,4-4.4
	C203.3,186.6,204.1,186.3,204.9,186.3z"/>
<path class="st4" d="M195.9,180.6c-1.6-3.1-1.8-6.8-0.7-10.1c0.2,0-0.3,2.3-0.1,5.1S196.1,180.5,195.9,180.6z"/>
<g class="st10">
	<path d="M106.4,199.1c4.6-5.3,5.2-12.9,1.7-18.9c0.1,0.4-2.9,10.2-2.9,10.2l0.8,8.4"/>
</g>
<path class="st9" d="M120.3,197.1l-2.3-11.3c-0.2-0.8,0.3-1.6,1.1-1.7c0.1,0,0.2,0,0.3,0l29.2,0.1c0.8,0,1.4,0.7,1.4,1.5
	c0,0.1,0,0.1,0,0.2l-3,25.8c-0.1,1-1,1.8-2,1.8l-19-0.1c-0.9,0-1.7-0.6-1.9-1.5L120.3,197.1z"/>
<path class="st14" d="M117.7,191.2L117.7,191.2c1.3,0,2.4,0.8,2.9,2s1.2,2.7,2,3.1c1.4,0.8,3.9,1.4,5.2,0.8s6.5-5.3,7.4-4.8
	s1.7,1.7,0.8,2.7s-5.7,4.2-4.8,5.2s11.1-3.6,12.6-3.1s2.5,1.4,1.6,2s-7.8,3.2-8.2,4.1c0,0,10.4-2.7,10.8-2.1s1,1.7,0,2.1
	s-10,2.7-10.8,3.1c-1.3,0.5-2.6,0.9-4,1.2c-1.4,0.4-2.8,0.8-4.2,1.3c-2.1,0.7-4.4,0.7-6.5-0.2l-1-0.4c-1.6-0.7-2.7-2.3-2.6-4.1
	l0.2-3.6l-1.1-2.9L117.7,191.2z"/>
<path class="st3" d="M135.2,188.5c0,0.6-0.5,1.1-1.1,1.1s-1.1-0.5-1.1-1.1s0.5-1.1,1.1-1.1l0,0C134.7,187.4,135.2,187.9,135.2,188.5
	z"/>
<g id="freepik--Plant--inject-52">
	<path class="st5" d="M306.9,385.5c8.4,2.9,19.3,0.3,26.5-4.9s12.3-12.7,16.9-20.3c2-3.2,3.9-6.6,4.5-10.4s-0.3-7.9-3.2-10.4
		c-4.5-3.8-11.4-1.9-16.5,1C318.8,350,308.3,366.8,306.9,385.5"/>
	<path class="st5" d="M315.8,405.6c5,6.6,13.7,9.6,22,10s16.5-1.9,24.3-4.9c2.8-1.1,5.9-2.6,6.9-5.4c0.6-2.2,0.1-4.7-1.5-6.4
		c-1.5-1.7-3.5-3-5.6-3.8c-7.6-3.2-16.4-3.4-24.5-1.3S322.4,400.5,315.8,405.6"/>
	<path class="st5" d="M306.7,349.7c6.9,0.1,12.2-5.9,15.3-12.1c4.4-8.6,5.8-18.5,4.1-28c-0.6-3.5-2-7.4-5.1-9.1s-7.4-0.6-10.1,1.9
		s-4.2,6-5.3,9.5C301.9,323.9,302.7,337.7,306.7,349.7"/>
	<path class="st5" d="M284,388c11.8-20.1,13.8-44.7,6.8-67c-1.1-3.6-3.3-7.8-7-8c-4.2-0.3-6.8,4.4-8,8.4c-4,14.1-3.2,29.1-2.3,43.8
		C274.1,374.2,277.2,382,284,388"/>
	<path class="st5" d="M271.7,396.3c-4.5-14-15-25.1-28.7-30.4c-3.1-1.2-7.1-1.9-9.5,0.5s-1.6,6.3-0.1,9.2c2.4,4.8,6.2,8.6,10.1,12.2
		c3.5,3.3,7.1,6.7,11.6,8.6C259.6,398.3,267.6,398.9,271.7,396.3"/>
	<path class="st4" d="M344.9,344.6c0,0-0.1,0.1-0.2,0.2l-0.6,0.5l-2.5,1.9l-1.8,1.3c-0.6,0.5-1.3,1.1-2.1,1.7
		c-1.5,1.2-3.2,2.5-4.9,4.2l-2.8,2.5c-1,0.9-1.9,1.9-2.9,2.9c-2,2-4,4.2-6.1,6.6c-9,10.4-16.3,22.2-21.6,34.9
		c-1.2,3-2.3,5.7-3.2,8.4c-0.4,1.3-0.9,2.6-1.3,3.9s-0.7,2.5-1,3.6c-0.7,2.3-1.1,4.4-1.5,6.3c-0.2,0.9-0.4,1.8-0.6,2.6
		s-0.3,1.5-0.4,2.2c-0.2,1.3-0.4,2.3-0.5,3c-0.1,0.3-0.1,0.6-0.2,0.8c0,0.1,0,0.2-0.1,0.3c0-0.1,0-0.2,0-0.3c0-0.2,0.1-0.5,0.1-0.8
		c0.1-0.7,0.2-1.8,0.4-3.1c0.1-0.7,0.2-1.4,0.3-2.2s0.3-1.7,0.5-2.6c0.4-1.9,0.8-4,1.5-6.3c0.3-1.2,0.6-2.4,1-3.6s0.8-2.5,1.2-3.9
		c0.8-2.7,2-5.5,3.1-8.5c5.3-12.8,12.6-24.7,21.7-35.1c2.1-2.4,4.1-4.6,6.2-6.6c1-1,2-2,2.9-2.9l2.8-2.5c1.8-1.6,3.5-2.9,5-4.1
		c0.8-0.6,1.4-1.2,2.1-1.6l1.8-1.3l2.5-1.8l0.7-0.5L344.9,344.6z"/>
	<path class="st4" d="M360.6,400.4c-0.3,0-0.5-0.1-0.8-0.1c-0.5-0.1-1.3-0.3-2.3-0.5c-2.8-0.5-5.7-0.9-8.5-1
		c-19.3-1.2-38,6.6-50.7,21.1c-1.9,2.2-3.7,4.4-5.3,6.8c-0.6,0.8-1,1.5-1.3,2c-0.1,0.2-0.3,0.5-0.5,0.7c0.1-0.3,0.2-0.5,0.4-0.7
		c0.3-0.5,0.6-1.2,1.2-2c1.5-2.4,3.3-4.8,5.2-7c12.7-14.7,31.6-22.6,51-21.2c2.9,0.2,5.7,0.6,8.6,1.2c1,0.2,1.8,0.4,2.3,0.6
		C360.1,400.2,360.3,400.3,360.6,400.4z"/>
	<path class="st4" d="M316.9,308.5c0,0.1,0,0.2,0,0.3c0,0.2-0.1,0.5-0.2,0.9c-0.2,0.8-0.5,2-0.8,3.5c-0.7,3-1.7,7.3-3,12.7
		c-2.6,10.7-6.4,25.5-10.3,41.8c-2,8.2-3.7,16-5.3,23.1s-2.8,13.6-3.7,19c-0.5,2.7-0.9,5.2-1.3,7.3s-0.7,4-0.9,5.5l-0.5,3.5
		c-0.1,0.4-0.1,0.7-0.2,0.9c0,0.1,0,0.2-0.1,0.3c0-0.1,0-0.2,0-0.3c0-0.2,0.1-0.5,0.1-0.9c0.1-0.9,0.3-2,0.5-3.5s0.4-3.4,0.8-5.6
		s0.7-4.6,1.2-7.4c0.9-5.4,2.1-11.9,3.6-19s3.3-15,5.2-23.1c3.9-16.3,7.8-31.1,10.5-41.8c1.4-5.3,2.4-9.6,3.2-12.6
		c0.4-1.5,0.7-2.6,0.9-3.4c0.1-0.4,0.2-0.7,0.2-0.9C316.9,308.7,316.9,308.6,316.9,308.5z"/>
	<path class="st4" d="M289.8,425.7c0-0.1-0.1-0.2-0.1-0.2l-0.2-0.7c-0.1-0.7-0.3-1.6-0.6-2.8c-0.5-2.4-1.2-6-1.9-10.3
		c-1.5-8.8-3.3-20.9-4.4-34.4c-0.5-6.8-0.8-13.2-1-19.1s0-11.2,0.1-15.6c0-2.2,0.2-4.2,0.3-6s0.2-3.3,0.3-4.5s0.2-2.1,0.3-2.9
		c0-0.3,0.1-0.5,0.1-0.7c0-0.1,0-0.2,0-0.2c0,0.1,0,0.2,0,0.3c0,0.2,0,0.4,0,0.7c0,0.7-0.1,1.6-0.2,2.9s-0.2,2.8-0.2,4.5
		s-0.2,3.8-0.2,6c-0.1,4.4-0.1,9.7,0,15.6s0.5,12.3,1,19c1.1,13.5,2.8,25.6,4.2,34.4c0.7,4.4,1.3,7.9,1.8,10.4
		c0.2,1.2,0.4,2.1,0.5,2.8c0,0.3,0.1,0.5,0.1,0.7C289.8,425.6,289.8,425.6,289.8,425.7z"/>
	<path class="st4" d="M290.7,428.3c-0.1-0.2-0.2-0.5-0.3-0.7l-0.8-2l-0.5-1.5l-0.8-1.7c-0.3-0.6-0.6-1.3-0.9-2s-0.7-1.4-1.1-2.1
		l-1.2-2.3l-1.4-2.5c-1-1.7-2.2-3.5-3.4-5.3c-2.7-4-5.7-7.8-8.9-11.4c-3.2-3.6-6.6-7-10.2-10.2c-1.7-1.4-3.3-2.9-4.8-4.1l-2.2-1.8
		l-2.2-1.6c-1.3-1-2.6-1.9-3.7-2.6s-2.1-1.4-2.9-1.9l-1.8-1.2c-0.2-0.1-0.4-0.3-0.6-0.4c0.2,0.1,0.5,0.2,0.7,0.3l1.9,1.1
		c0.8,0.5,1.8,1.1,2.9,1.8s2.4,1.5,3.8,2.5l2.1,1.5l2.3,1.8c1.6,1.2,3.2,2.6,4.9,4c3.6,3.2,7,6.6,10.3,10.2
		c3.2,3.6,6.2,7.5,8.9,11.5c1.2,1.9,2.4,3.6,3.3,5.4l1.4,2.5c0.4,0.8,0.8,1.6,1.2,2.4s0.8,1.5,1,2.2s0.6,1.4,0.8,2s0.5,1.2,0.7,1.7
		l0.5,1.5c0.3,0.9,0.5,1.5,0.7,2.1C290.5,427.8,290.6,428,290.7,428.3z"/>
	<path class="st4" d="M340.5,367.9c0,0.1-1.4,0.1-3.7,0.2c-3,0.2-6,0.5-8.9,1.1s-5.9,1.3-8.7,2.3c-2.2,0.7-3.5,1.2-3.5,1.2
		c0.3-0.2,0.6-0.4,0.9-0.5c0.6-0.3,1.5-0.6,2.5-1c2.8-1.1,5.7-1.9,8.7-2.5s6-0.9,9-0.9c1.2,0,2.1,0,2.8,0
		C339.9,367.8,340.2,367.8,340.5,367.9z"/>
	<path class="st4" d="M349.5,411.5c-0.2,0.1-1.5-3.8-4.9-7.3c-2.1-2.1-4.4-3.9-7-5.4c0.9,0.2,1.7,0.6,2.4,1.1
		c3.7,2.1,6.7,5.3,8.5,9.2C349,409.8,349.3,410.6,349.5,411.5z"/>
	<path class="st4" d="M319.1,324.9c0.1,0.1-2.1,2.3-4.4,5.2s-4.1,5.5-4.2,5.4C312.5,331.4,315.5,327.7,319.1,324.9L319.1,324.9z"/>
	<path class="st4" d="M311.9,312.5c0.9,3.1,1.4,6.2,1.6,9.4c-0.5-1.5-0.9-3.1-1.1-4.7C312.1,315.7,311.9,314.1,311.9,312.5z"/>
	<path class="st4" d="M289.8,351.2c-1,2.5-2.1,4.9-3.5,7.3c-1.2,2.4-2.5,4.8-4,7C284.6,360.6,287,355.8,289.8,351.2L289.8,351.2z"/>
	<path class="st4" d="M276.7,338.1c1.1,1.7,2.1,3.4,2.9,5.3c1,1.8,1.8,3.6,2.4,5.5C279.9,345.4,278.1,341.8,276.7,338.1z"/>
	<path class="st4" d="M257.3,383c0,0.2-2.4-0.3-5.3-0.5s-5.3-0.1-5.3-0.2c1.8-0.4,3.6-0.5,5.4-0.3C253.9,382,255.6,382.3,257.3,383z
		"/>
	<path class="st4" d="M270.5,422.7l6.6,34.6c0.4,2.3,2.4,3.9,4.8,3.9h19.4c2.4,0,4.4-1.7,4.8-4l5.7-34.5H270.5z"/>
	<polygon class="st9" points="272.7,434 309.8,434 311.8,422.7 270.5,422.7 	"/>
	<polygon class="st3" points="272.7,434 273.5,438.1 309.3,438.1 309.8,434 	"/>
</g>
<g id="freepik--Desk--inject-52">
	<path class="st2" d="M616.7,234h63c5.9,0,10.6,4.8,10.6,10.6V288c0,5.9-4.8,10.6-10.6,10.6h-63c-5.9,0-10.6-4.8-10.6-10.6v-43.4
		C606.1,238.7,610.9,234,616.7,234z"/>
	<path class="st1" d="M621.8,234h63c5.9,0,10.6,4.8,10.6,10.6V288c0,5.9-4.8,10.6-10.6,10.6h-63c-5.9,0-10.6-4.8-10.6-10.6v-43.4
		C611.2,238.7,615.9,234,621.8,234z"/>
	<polygon class="st1" points="642,286.3 641.1,311.6 662,311.6 662,286.5 	"/>
	<path class="st3" d="M657,264.9c0,2-1.6,3.7-3.7,3.7s-3.7-1.6-3.7-3.7c0-2,1.6-3.7,3.7-3.7l0,0C655.3,261.2,657,262.9,657,264.9z"
		/>
	<rect x="620.1" y="311.9" class="st4" width="75.6" height="149.6"/>
	<rect x="522.2" y="311.9" class="st9" width="173.5" height="12.7"/>
	<rect x="520.8" y="311.9" class="st4" width="75.6" height="149.6"/>
</g>
</svg>
