<?xml version="1.0" encoding="utf-8"?>
<!-- Generator: Adobe Illustrator 23.0.1, SVG Export Plug-In . SVG Version: 6.00 Build 0)  -->
<svg version="1.1" id="Layer_1" xmlns="http://www.w3.org/2000/svg" xmlns:xlink="http://www.w3.org/1999/xlink" x="0px" y="0px"
	 viewBox="0 0 3500 2000" style="enable-background:new 0 0 3500 2000;" xml:space="preserve">
<style type="text/css">
	.st0{fill:#263238;}
	.st1{fill:#455A64;}
	.st2{fill:#B78876;}
	.st3{fill:#AA6550;}
	.st4{fill:#00858E;}
	.st5{fill:#FAFAFA;}
	.st6{opacity:0.2;enable-background:new    ;}
	.st7{opacity:0.5;fill:#FFFFFF;enable-background:new    ;}
	.st8{opacity:0.3;enable-background:new    ;}
	.st9{fill:#E0E0E0;}
	.st10{fill:#FFBE9D;}
	.st11{fill:#FFB29D;}
	.st12{fill:#EB9078;}
	.st13{opacity:0.4;fill:#FFFFFF;enable-background:new    ;}
	.st14{fill:#FFFFFF;}
	.st15{fill:#EB996E;}
	.st16{fill:#F5F5F5;}
	.st17{fill:#FFC93C;}
	.st18{fill:#EBEBEB;}
</style>
<g>
	<path class="st0" d="M3313,1810.9c0,0.5-699.6,1.4-1562.8,1.4S187,1811.8,187,1810.9s699.6-1.4,1563.3-1.4S3313,1810,3313,1810.9z"
		/>
	<path class="st1" d="M852.4,1341.8v410.5h-34.2v-410.5H852.4z"/>
	<path class="st1" d="M1074.5,1341.8H584.3c0-29.5,23.9-53.4,53.4-53.4h383.8C1051.1,1288.4,1074.5,1312.3,1074.5,1341.8z"/>
	<path class="st0" d="M865.5,1342.8c-9.8,1.4-20.2,1.9-30,1.4c-9.8,0.5-20.2,0-30-1.4c9.8-1.4,20.2-1.9,30-1.4
		C845.4,1341.3,855.7,1341.8,865.5,1342.8z"/>
	<path class="st1" d="M985.5,1789.8h-4.7c-1.4-80.6-67.9-144.8-148.5-143.4c-78.7,1.4-142,64.7-143.4,143.4h-4.7
		c-1.4-83.4,64.7-151.8,148.1-153.2s151.8,64.7,153.2,148.1V1789.8z"/>
	<path class="st0" d="M709,1787c0,12.7-10.3,22.5-22.5,22.5c-12.2,0-22.5-10.3-22.5-22.5c0-12.7,10.3-22.5,22.5-22.5
		C698.7,1764.5,709,1774.3,709,1787z"/>
	<path class="st1" d="M1006.6,1787.9c0,12.7-10.3,22.5-22.5,22.5c-12.7,0-22.5-10.3-22.5-22.5c0-12.7,10.3-22.5,22.5-22.5
		C996.2,1765.4,1006.6,1775.3,1006.6,1787.9z"/>
	<path class="st1" d="M983.6,1752.3c0,0.5-65.6,1.4-146.2,1.4s-146.2-0.5-146.2-1.4s65.6-1.4,146.2-1.4S983.6,1751.8,983.6,1752.3z"
		/>
	<path class="st1" d="M573.1,935.1v302.3c0,39.8,31.9,71.7,71.7,71.7h232.9l-31.9-373.9c0-17.8-14.5-31.9-31.9-31.9H605
		C587.6,903.2,573.1,917.7,573.1,935.1L573.1,935.1z"/>
	<path class="st0" d="M655.6,1288.4l-2.8-2.8c-1.9-1.9-3.7-4.7-6.6-8.9c-8-11.2-14.1-23.4-18.3-36.6c-2.8-8.9-5.2-18.3-6.1-27.6
		c-0.9-10.8-1.4-21.6-0.9-31.9V1107c0-52,0.5-99.3,0.5-134c0-16.9,0.5-30.9,0.5-40.8V921c0-1.4,0-2.3,0.5-3.7c0,1.4,0.5,2.3,0.5,3.7
		v11.2c0,9.8,0.5,23.4,0.5,40.8c0,34.7,0,81.5,0.5,134v73.6c-0.5,10.8,0,21.6,0.9,31.9c2.8,22.5,10.8,44.5,23.4,63.7
		c2.8,4.2,4.7,7,6.6,8.9S655.6,1288.4,655.6,1288.4L655.6,1288.4z"/>
	<path class="st0" d="M782.6,1287.9c-2.3,0.5-5.2,0.5-7.5,0.5l-20.2,0.5c-16.9,0.5-40.8,0.5-66.5,0.9h-36.6
		c-9.8-0.5-19.7,0.5-29.5,2.8c-6.6,1.4-12.7,4.7-17.8,8.4c-3.7,2.8-5.6,4.7-5.6,4.7s0.5-0.5,0.9-1.4c1.4-1.4,2.3-2.8,3.7-3.7
		c5.2-4.2,11.2-7.5,17.8-9.4c9.8-2.3,19.7-3.3,30-3.3c11.2-0.5,23.4-0.5,36.6-0.5h86.7C777.4,1287.5,779.8,1287.5,782.6,1287.9
		L782.6,1287.9z"/>
	<path class="st2" d="M1301.8,777.1l-23,23.4l-45.5-48.3l15-25.8c0.9-3.3,1.9-7,2.3-11.2c0.9-4.7,0.9-9.8,0.5-15
		c-0.9-6.1-2.3-12.2-4.7-17.8c-2.8-5.2,1.9-10.8,6.6-8.4s12.2,15.9,13.1,34.2s17.3-5.2,23.4-13.6c6.1-8.4,26.2-33.3,30.5-33.3
		c6.1,0,7,6.1,0.9,14.5s-23.4,34.2-19.2,37.5c9.4-0.9,18.3,4.2,22.5,12.7c3.7,8.4,8,19.7,4.2,24.8
		C1320.1,759.8,1311.2,768.7,1301.8,777.1L1301.8,777.1z"/>
	<path class="st2" d="M1233.4,751.8l-163.5,134.5l65.6,91.4l143.4-177.6L1233.4,751.8L1233.4,751.8z"/>
	<path class="st3" d="M1317.7,716.7c-2.3,3.3-5.2,6.6-8,8.9l-9.4,9.4l-5.6,5.6c-1.9,2.3-5.2,3.7-8,4.2c-1.9,0-3.7-0.9-4.7-2.8
		c-0.9-1.4-1.4-2.8-0.9-4.7c0.5-2.8,1.9-5.6,3.7-7.5c2.8-3.3,6.1-6.6,9.4-9.4c2.8-2.8,6.1-5.2,9.8-7.5c-2.8,2.8-5.6,6.1-8.9,8.4
		c-2.8,2.8-5.6,5.6-8.9,9.4c-1.9,1.9-2.8,3.7-3.3,6.1c-0.5,2.3,1.4,4.2,3.3,4.7c2.3-0.5,4.7-1.4,6.6-3.3l5.6-5.2l9.8-8.9
		C1311.2,721.4,1314,719,1317.7,716.7L1317.7,716.7z"/>
	<path class="st3" d="M1323.8,728.4c-2.3,3.3-4.7,6.1-8,8.9l-8.9,8.9c-1.9,1.9-3.3,3.3-5.6,5.2c-0.9,0.9-2.3,1.9-3.7,2.3
		s-3.3,0.5-4.7,0c-2.8-1.4-4.2-5.2-3.3-8.4c0.9-2.8,2.3-5.2,4.2-6.6c2.8-3.3,6.1-6.1,9.4-8.9c2.8-2.8,6.1-5.2,9.4-7l-8.4,8.4
		c-2.3,2.3-5.6,5.6-8.9,9.4c-1.9,1.9-2.8,3.7-3.7,5.6c-0.5,1.9,0.5,4.2,2.3,5.6c1.9,0.9,4.2-0.5,6.1-1.9s3.7-3.3,5.2-5.2l9.4-8.9
		C1317.7,733.6,1320.5,730.8,1323.8,728.4z"/>
	<path class="st3" d="M1329.9,739.7c-2.3,3.3-4.7,6.1-7.5,8.4l-8.4,8.9c-1.9,1.9-3.7,3.3-5.6,5.2c-1.4,0.9-2.8,1.4-4.2,1.4
		c-1.9,0-3.3-0.5-4.7-1.9c-1.9-2.3-2.8-5.6-1.4-8.4c0.9-2.3,2.8-4.2,4.7-6.1c2.8-2.8,5.6-5.6,8.9-8.4c2.8-2.8,6.1-4.7,9.4-6.6
		c-2.3,2.8-5.2,5.6-8,8c-2.3,2.3-5.2,5.2-8.4,8.9c-1.4,1.4-2.8,3.3-3.7,5.6c-0.9,1.9-0.5,4.2,0.9,6.1c1.4,1.4,4.2,1.4,5.6,0
		c1.9-1.4,3.7-2.8,5.2-4.7l8.9-8.4C1324.3,744.3,1327.1,742,1329.9,739.7L1329.9,739.7z"/>
	<path class="st3" d="M1278.3,767.8c0-2.3,0.5-4.7,0.9-7c0.5-5.6,0-10.8-1.9-15.9c-1.9-5.2-4.7-9.8-8.9-13.6
		c-2.8-2.8-5.2-4.2-5.2-4.7c2.3,0.5,4.7,1.9,6.1,3.3c4.7,3.7,8,8.4,9.8,14.1c1.9,5.6,2.3,11.7,0.9,17.3
		C1279.8,765.9,1278.3,768.2,1278.3,767.8L1278.3,767.8z"/>
	<path class="st4" d="M955,904.1l24.4,244.6l-300.8,6.6l1.9-196.8l-21.6-170.1c14.1-79.7,125.6-84.8,125.6-84.8l87.6-1.4
		c30-2.3,60,4.7,86.2,19.2c0,0,89,48.3,88.1,171"/>
	<path class="st4" d="M681.8,747.2c-26.2,25.3-51.5,75.4-42.2,176.2l139.6-5.6L775.5,780c-0.5-14.1-7-27.2-18.3-35.6
		C734.8,726.1,702.9,727.5,681.8,747.2L681.8,747.2z"/>
	<path class="st5" d="M974.2,1113.6c-0.9,0.9-1.4,1.4-2.3,1.9c-2.3,1.4-5.2,2.8-8,3.7c-10.8,3.3-22,3.7-32.8,1.4
		c-13.6-2.3-29.1-9.4-46.4-14.1c-19.2-4.7-38.9-6.1-58.6-3.7c-21.1,2.3-39.4,10.3-56.7,16.9c-15,6.6-30.9,10.8-46.9,13.1
		c-11.2,1.4-22,0-32.8-3.3c-2.8-0.9-5.6-2.3-8-3.7c-0.9-0.5-1.9-0.9-2.8-1.9c0,0,3.7,2.3,11.2,4.7c10.3,2.8,21.6,3.7,32.3,2.3
		c15.9-2.3,31.4-7,46.4-13.6c16.9-6.6,35.6-14.5,57.2-17.3c19.7-2.3,40.3-1.4,59.5,3.7c8.9,2.3,16.9,5.6,24.8,8
		c7,2.8,14.1,4.7,21.6,6.6c10.8,2.3,21.6,2.3,32.3-0.5C967.2,1117.4,970.5,1115.9,974.2,1113.6L974.2,1113.6z"/>
	<path class="st6" d="M679,1112.2l1.4,0.9c33.3,25.3,78.7,30,116.2,11.2c14.1-7,26.7-17.8,41.7-23c21.6-7,44.5-2.8,67,0.5
		c22.5,3.3,48.7,6.1,68.9-4.2l-2.8-30.9l-291.5,7.5"/>
	<path class="st4" d="M974.7,1793.6l-0.5-29.1l-78.3,2.8l0.5,45.9l4.7,0.5c21.6,1.4,109.2,4.7,123.7,0.5
		C1040.8,1808.5,974.7,1793.6,974.7,1793.6z"/>
	<path class="st7" d="M924.6,1811.8c-0.9-6.6-4.2-12.7-9.4-17.3c-5.2-4.7-12.2-6.6-19.2-5.2l0.5,22L924.6,1811.8z"/>
	<path class="st7" d="M1007,1802c0,0,23.4,6.6,20.2,10.3c-3.3,3.7-91.8,3.7-131.2,0v-1.9l103.6,0.9
		C1000,1811.8,1002.3,1802,1007,1802L1007,1802z"/>
	<path class="st0" d="M895,1810.9h5.2l14.1,0.5c12.2,0.5,28.6,0.9,46.9,0.9s34.7-0.5,46.9-0.5l14.1-0.5h5.2H1008
		c-12.2,0-28.6,0.5-46.9,0.5s-34.7-0.5-46.9-0.5l-14.1-0.5H895z"/>
	<path class="st0" d="M1000,1813.2c0.5-2.3,1.4-4.7,2.8-6.6c1.4-1.9,2.8-3.7,4.7-5.6C1002.8,1802.9,999.5,1808.1,1000,1813.2z"/>
	<path class="st0" d="M977,1801.5c0.5,0,1.4-1.4,2.3-2.8s1.9-3.3,1.9-3.3s-1.4,0.9-2.3,2.8C978,1799.2,977.5,1800.1,977,1801.5z"/>
	<path class="st0" d="M970.9,1798.2c0,0,1.4-0.5,2.8-1.9s2.3-2.3,1.9-2.3s-1.4,0.5-2.8,1.9C971.4,1797.3,970.5,1797.8,970.9,1798.2z
		"/>
	<path class="st0" d="M966.7,1790.7c2.8,0.5,5.6,0.5,8,0c-1.4-0.5-2.8-0.5-4.2-0.5C969.5,1790.3,968.1,1790.3,966.7,1790.7z"/>
	<path class="st0" d="M965.8,1785.6c1.4,0.9,2.8,1.4,4.7,1.4c1.4,0.5,3.3,0,4.7-0.5c-1.4-0.5-3.3-0.5-4.7-0.5
		C968.6,1785.6,967.2,1785.6,965.8,1785.6L965.8,1785.6z"/>
	<path class="st0" d="M979.8,1794.5c1.9,0.5,3.3,0.5,5.2,0c1.9,0,3.7-0.5,5.2-0.9l2.8-1.4l1.4-1.4c0-0.9,0-1.4-0.9-1.9
		c-3.7-1.9-8.4-0.9-11.2,2.8c-0.9,0.9-1.4,2.3-1.9,3.3v1.4c0.5-1.4,1.4-2.8,2.3-4.2s2.8-2.3,4.2-2.8c1.9-0.5,4.2-0.5,6.1,0.5
		c0.9,0.5,0.5,1.4-0.5,1.9l-2.8,1.4c-1.9,0.5-3.3,0.9-5.2,1.4H979.8L979.8,1794.5z"/>
	<path class="st0" d="M981.3,1795c0.5-0.9,0.9-2.3,0.5-3.3c0-1.4-0.5-2.3-1.4-3.7s-2.3-2.3-4.2-2.3c-0.9,0.5-1.9,1.4-1.4,2.3
		c0,0.9,0.5,1.4,0.9,2.3s1.4,2.3,2.3,2.8C978.4,1793.6,979.8,1794.5,981.3,1795c-0.5,0-1.4-0.9-2.8-2.3c-0.9-0.9-1.4-1.9-1.9-2.8
		c-0.5-0.9-0.9-2.8,0-3.3s2.3,0.9,3.3,2.3c0.5,0.9,1.4,1.9,1.4,3.3V1795z"/>
	<path class="st0" d="M896.9,1789.3h5.6c9.4,0.9,17.3,7.5,20.6,16.4c0.9,3.3,1.4,5.6,1.4,5.6v-1.4c0-1.4-0.5-2.8-0.9-4.2
		c-1.4-4.7-4.2-8.4-8-11.7c-3.7-2.8-8.4-4.7-13.1-5.2h-4.2C897.4,1789.3,896.9,1789.3,896.9,1789.3L896.9,1789.3z"/>
	<path class="st0" d="M934.4,1804.3c3.7,0.9,7.5,1.4,11.2,0.9c3.7,0,7.5,0,11.2-0.9c0-0.5-5.2,0-11.2,0H934.4z"/>
	<path class="st0" d="M918.9,1804.3c0,0,0.5,0.9,0.9,2.3c0.5,1.4,0.9,2.3,0.9,2.3s0.5-1.4,0-2.3
		C920.3,1805.7,919.4,1804.3,918.9,1804.3z"/>
	<path class="st0" d="M913.3,1797.3l0.9,1.9c0.5,0.9,1.4,1.4,1.9,0.9s-0.5-0.9-0.9-1.9S913.3,1796.8,913.3,1797.3z"/>
	<path class="st0" d="M904.9,1794c0,0.5,0.9,0.5,2.3,0.5s1.9,0.9,2.3,0.9c0.5,0-0.5-1.4-1.9-1.9
		C906.3,1793.1,904.9,1793.6,904.9,1794L904.9,1794z"/>
	<path class="st0" d="M899.2,1792.1l0.9,0.9c0.5,0.5,1.4,0.5,1.4,0s-0.5-0.5-0.9-0.9S899.2,1792.1,899.2,1792.1z"/>
	<path class="st8" d="M896,1785.1l78.7-3.3v-3.3H896V1785.1L896,1785.1z"/>
	<path class="st4" d="M1231,1789.3l-0.9-30l-79.7,2.8l0.5,46.9l4.7,0.5c22,1.4,112,4.7,126.5,0.5
		C1299,1804.8,1231,1789.3,1231,1789.3L1231,1789.3z"/>
	<path class="st7" d="M1179.9,1808.1c-0.9-7-4.2-13.1-9.8-17.3c-5.6-4.7-12.7-6.6-19.7-5.2l0.5,22.5L1179.9,1808.1L1179.9,1808.1z"
		/>
	<path class="st7" d="M1264.3,1797.8c0,0,23.9,7,20.6,10.8c-3.3,3.7-94.2,3.7-134,0v-1.9l106.4,0.9
		C1257.3,1808.1,1259.6,1798.2,1264.3,1797.8z"/>
	<path class="st0" d="M1150,1807.1h1.4l3.7,0.5l14.5,0.5c12.2,0.5,29.1,0.9,47.8,0.9c18.7,0,35.6,0,47.8-0.5l14.5-0.5h5.2h-5.2
		l-14.5,0.5c-12.2,0-29.1,0.5-47.8,0.5c-18.7,0-35.6-0.5-47.8-0.5l-14.5-0.5h-3.7L1150,1807.1L1150,1807.1z"/>
	<path class="st0" d="M1257.3,1809.5c0.5-2.3,1.4-4.7,2.8-7c1.4-1.9,3.3-3.7,4.7-5.6C1260.1,1799.2,1256.8,1804.3,1257.3,1809.5z"/>
	<path class="st0" d="M1233.8,1797.3c0,0,1.4-1.4,2.3-2.8s1.9-3.3,1.9-3.7s-1.4,1.4-2.3,3.3S1233.4,1797.3,1233.8,1797.3
		L1233.8,1797.3z"/>
	<path class="st0" d="M1227.3,1794c0,0,1.4-0.5,2.8-1.9s2.3-2.3,2.3-2.8s-1.4,0.5-2.8,1.9S1226.8,1794,1227.3,1794z"/>
	<path class="st0" d="M1223.1,1786.5c1.4,0.5,2.8,0.5,4.2,0.5s2.8,0,4.2-0.5c-1.4-0.5-2.8-0.5-4.2-0.5S1224.5,1786.1,1223.1,1786.5z
		"/>
	<path class="st0" d="M1221.6,1781.4c1.4,0.9,2.8,1.4,4.7,1.4c1.4,0.5,3.3,0,4.7-0.5c-1.4-0.5-3.3-0.5-4.7-0.5
		C1224.9,1781.4,1223.5,1781.4,1221.6,1781.4L1221.6,1781.4z"/>
	<path class="st0" d="M1236.2,1790.3c1.9,0.5,3.3,0.5,5.2,0c1.9,0,3.7-0.5,5.6-0.9c0.9-0.5,2.3-0.9,3.3-1.4l1.4-1.4
		c0-0.9,0-1.4-0.9-1.9c-4.2-1.9-8.9-0.9-11.7,2.8c-0.9,0.9-1.4,2.3-1.9,3.3v1.4c0.5-1.4,1.4-2.8,2.3-4.2s2.8-2.3,4.2-2.8
		c1.9-0.9,4.2-0.5,6.1,0.5c0.9,0.5,0.5,1.4-0.5,2.3l-2.8,1.4c-1.9,0.5-3.3,0.9-5.2,1.4C1238.5,1790.3,1236.2,1790.3,1236.2,1790.3
		L1236.2,1790.3z"/>
	<path class="st0" d="M1237.6,1790.7c0.5-0.9,0.9-2.3,0.5-3.7c0-1.4-0.5-2.8-1.4-3.7c-0.9-1.4-2.3-2.3-4.2-2.8
		c-0.9,0-1.9,1.4-1.4,2.3c0,0.9,0.5,1.4,0.9,2.3s1.4,2.3,2.3,3.3C1235.2,1789.3,1236.2,1790.3,1237.6,1790.7c-0.5,0-1.4-0.9-2.8-2.8
		c-0.9-0.9-1.4-1.9-2.3-3.3c-0.5-0.9-0.9-2.8,0-3.3c0.9-0.5,2.3,0.9,3.3,2.3c0.9,0.9,1.4,2.3,1.4,3.3
		C1237.6,1788.4,1237.6,1789.8,1237.6,1790.7L1237.6,1790.7z"/>
	<path class="st0" d="M1151.4,1785.1h5.6c4.7,0.5,8.9,2.3,12.7,5.2c3.7,2.8,6.6,7,8,11.2c1.4,3.3,1.4,5.6,1.4,5.6v-1.4
		c0-1.4-0.5-2.8-0.9-4.2c-2.8-9.4-11.2-16.4-21.6-17.3h-4.2C1151.8,1785.1,1151.4,1785.1,1151.4,1785.1L1151.4,1785.1z"/>
	<path class="st0" d="M1189.8,1800.6c3.7,0.9,8,1.4,11.7,0.9c3.7,0,8,0,11.7-0.9c0-0.5-5.2,0-11.7,0S1189.8,1800.1,1189.8,1800.6z"
		/>
	<path class="st0" d="M1174.3,1800.6c0,0,0.5,0.9,0.9,2.3c0.5,1.4,0.9,2.3,0.9,2.3s0.5-1.4,0-2.8
		C1175.7,1801.1,1174.3,1800.1,1174.3,1800.6z"/>
	<path class="st0" d="M1168.2,1793.1l0.9,1.9c0.5,0.9,1.9,1.4,1.9,1.4l-0.9-1.9C1169.6,1793.6,1168.7,1793.1,1168.2,1793.1z"/>
	<path class="st0" d="M1159.8,1789.8c0,0.5,0.9,0,2.3,0.5c1.4,0.5,1.9,0.9,2.3,0.9s-0.5-1.4-1.9-1.9S1159.8,1789.3,1159.8,1789.8
		L1159.8,1789.8z"/>
	<path class="st0" d="M1153.7,1787.9l0.9,0.9c0.5,0.5,1.4,0.5,1.4,0s-0.5-0.5-0.9-0.9C1154.6,1787.5,1154.2,1787.9,1153.7,1787.9z"
		/>
	<path class="st8" d="M1150.4,1780.9l80.6-3.3v-3.3h-80.6V1780.9L1150.4,1780.9z"/>
	<path class="st0" d="M1164,1151.6l-319.6-4.2l66.5,150l183.2,1.4c12.2,0,22.5,9.8,23,22l19.7,459.2l123.7-9.4l-12.7-525.8
		C1247,1197.5,1211.3,1157.7,1164,1151.6L1164,1151.6z"/>
	<path class="st0" d="M860.4,1310l13.6,474.2l153.2-10.8c0,0-8.4-447.5-19.7-570.3c-8-83.9-328.5-47.8-328.5-47.8
		C674.3,1322.6,860.4,1310,860.4,1310"/>
	<path class="st1" d="M858.9,1272.9c2.3,14.1,3.3,28.6,2.3,42.6c-1.9-7-2.3-14.1-2.3-21.1C858,1287.5,858,1280,858.9,1272.9z"/>
	<path class="st1" d="M853.3,1148.3h10.8c6.6,0,16.4,0.5,28.6,1.4c12.2,0.9,26.7,1.9,42.6,4.2c17.3,2.3,34.2,8.4,49.2,17.8
		c3.7,2.8,7.5,5.6,10.3,9.4c2.8,3.3,5.2,7.5,7,11.7c2.8,8,4.2,16.4,5.2,24.8c1.4,14.1,1.9,28.6,1.9,42.6v39.4
		c-0.5-0.9-0.5-1.9-0.5-2.8c0-1.9-0.5-4.2-0.5-8c-0.5-7-0.5-16.4-0.9-28.6c-0.5-12.2-0.5-26.7-2.3-42.2c-0.9-8.4-2.3-16.4-5.2-24.4
		c-3.3-8.4-8.9-15-16.4-19.7c-14.5-8.9-30.9-15-48.3-17.3c-15.9-2.3-30-3.7-42.2-4.7l-28.6-1.9l-8-0.5L853.3,1148.3L853.3,1148.3z"
		/>
	<path class="st0" d="M639.2,923.4h9.4l25.8-0.9c21.6-0.9,51.5-2.3,84.8-4.2l16.9-0.9h0.9v-0.9c0-29.1-0.5-54.4-0.5-73.1
		c0-8.9-0.5-16.4-0.5-21.6v-7.5c0,0.5-0.5,1.4-0.5,1.9v5.6c0,5.6-0.5,12.7-0.5,21.6c0,18.7-0.5,44.5-0.5,73.1l0.9-0.9l-16.9,0.9
		c-33.3,1.9-62.8,3.3-84.8,4.7l-25.8,1.9l-7,0.5C641.5,922.9,640.6,922.9,639.2,923.4L639.2,923.4z"/>
	<path class="st0" d="M704.3,724.7c5.6-0.5,10.8-0.9,16.4-0.5c13.1,1.4,25.3,7.5,34.7,16.4c8.9,9.4,15.5,21.6,17.8,34.2
		c1.9,9.8,1.4,16.4,1.9,16.4c0.5-1.4,0.5-2.8,0.5-4.2c0-4.2,0-8-0.9-12.2c-1.9-13.6-8.4-25.8-17.8-35.6
		c-9.8-9.8-22.5-15.5-36.1-16.4c-4.2-0.5-8,0-12.2,0.9C707.1,723.7,705.7,724.2,704.3,724.7L704.3,724.7z"/>
	<path class="st0" d="M955.5,795.4c-0.5,4.2-0.9,8.9-0.9,13.1v32.3c0,12.7,0.5,23,0.5,31.4v-1.9c0-8.9,0.5-19.7,0.5-31.9v-30.9
		C955.9,803.9,955.9,799.6,955.5,795.4L955.5,795.4z"/>
	<path class="st2" d="M655.6,923.4l3.3,137.8c1.4,29.1,26.2,51.1,55.3,49.7c2.8,0,5.6-0.5,8.4-0.9l208.5-57.6l15.5-77.3l-194.9,37.5
		l-2.3-93.7L655.6,923.4z"/>
	<path class="st3" d="M729.6,1046.1c-0.9-1.9-0.9-4.2-0.5-6.6c0.5-5.6,2.3-10.8,5.2-15c2.8-4.7,7-8.4,11.7-10.8
		c3.7-1.9,6.1-2.3,6.6-1.9C739,1018,730.1,1031.1,729.6,1046.1z"/>
	<path class="st5" d="M773.7,830.6v1.9c-0.5,1.4-0.5,3.3-1.4,4.7c-1.9,5.6-5.2,10.8-9.4,15c-6.1,6.6-14.5,10.8-23.4,12.2
		c-10.8,0.9-21.6-0.5-31.9-4.7c-9.8-3.7-20.2-6.6-30.5-8c-8.4-0.5-16.9,1.4-24.4,6.1c-5.2,2.8-9.4,7-12.7,11.2
		c-2.3,3.3-3.7,5.2-3.7,5.2s0-0.5,0.5-1.4c0.5-1.4,1.4-2.8,2.3-4.2c3.3-5.2,7.5-8.9,12.7-12.2c7.5-4.7,16.4-7,25.3-6.6
		c10.8,0.9,21.1,3.7,30.9,7.5s20.2,5.6,30.5,4.7c8.4-1.4,16.4-5.2,22.5-11.2c4.2-3.7,7.5-8.9,9.8-14.1
		C772.7,832.9,773.7,830.6,773.7,830.6L773.7,830.6z"/>
	<path class="st5" d="M760.5,745.3c-0.5,0.9-1.4,2.3-2.3,3.3c-2.3,2.8-5.2,5.2-8,7c-19.2,14.5-45,17.8-67.5,8.4
		c-3.3-1.4-6.6-2.8-9.4-5.2c-0.9-0.5-2.3-1.4-3.3-2.3c0.5-0.5,4.7,2.8,13.1,5.6c22,8,46.4,5.2,66.1-8
		C756.3,749.5,760.1,745.3,760.5,745.3L760.5,745.3z"/>
	<path class="st5" d="M1021.1,796.8c-2.3-2.8-4.7-5.2-7.5-7c-8-5.2-17.3-7.5-26.7-6.6c-11.7,0.5-24.8,7-38,15.5
		c-6.6,4.2-13.6,8.9-21.1,13.1c-8,4.7-16.4,8-25.3,9.8c-8.9,1.4-18.3,0.5-26.7-2.3c-8-2.8-15.5-6.6-22.5-11.2
		c-13.6-8.4-25.8-15.5-37.5-17.3c-9.4-1.9-18.7,0-26.7,4.7c-2.8,1.9-5.6,4.2-7.5,7c0,0,0.5-0.9,1.4-2.3c1.4-1.9,3.7-3.7,5.6-5.2
		c8-5.2,18.3-7,27.6-5.6c12.2,1.9,25.3,8.9,38.4,16.9c7,4.2,14.5,8,22,10.8c8,3.3,16.9,3.7,25.8,2.3c8.4-1.9,16.9-5.2,24.4-9.4
		c7.5-4.2,14.5-8.9,21.1-13.1c13.6-8.4,26.7-15,39.4-15.5c9.8-0.9,19.2,1.9,27.2,7.5c1.9,1.4,3.7,3.3,5.6,5.6
		C1020.6,795,1020.6,795.9,1021.1,796.8L1021.1,796.8z"/>
	<path class="st5" d="M955.5,722.8c-2.8,2.3-6.1,4.2-9.8,5.6c-16.9,7.5-36.1,9.8-54.4,6.1c-3.7-0.5-7.5-1.9-10.8-3.7
		c12.7,2.3,25.3,3.3,38,2.3C931.1,731.7,943.8,727.9,955.5,722.8L955.5,722.8z"/>
	<path class="st5" d="M916.6,931.3c0,0-1.9-1.9-5.6-3.7c-5.6-2.8-11.2-4.7-17.8-5.2c-9.4-0.5-18.3,1.4-26.7,5.2
		c-9.8,3.7-19.7,9.4-30.9,14.1c-19.2,8.4-40.3,11.2-61.4,8c-6.1-0.9-12.2-3.3-17.8-5.6c-1.4-0.9-3.3-1.4-4.7-2.3
		c-0.9-0.5-1.4-0.9-1.4-0.9c7.5,3.7,15.9,6.1,24.4,7.5c20.6,2.8,41.2,0,60-8.4c11.2-4.7,21.1-10.3,30.9-14.1
		c8.9-3.7,18.3-5.2,27.6-4.7c6.6,0.5,12.7,2.3,18.3,6.1c1.4,0.9,2.8,1.9,4.2,3.3L916.6,931.3L916.6,931.3z"/>
	<path class="st2" d="M841.1,763.1c27.6,0,49.7-22.5,50.1-49.7v-0.5c0-17.3-0.5-32.3-0.5-32.3s40.3-3.7,43.1-43.1
		c2.8-39.4,1.9-131.2,1.9-131.2c-44.5-22.5-98.4-19.2-139.6,8.9l-6.1,4.2l1.9,194.9C791.5,741.1,814,762.6,841.1,763.1L841.1,763.1z
		"/>
	<path class="st3" d="M890.8,679.7c-18.3-0.9-36.1-7-50.6-17.8c0,0,10.3,29.5,50.1,28.1L890.8,679.7z"/>
	<path class="st2" d="M799.4,562.5c-0.5-0.5-25.3-3.3-23,25.3c2.3,28.6,30.5,16.9,30.5,15.9S799.4,562.5,799.4,562.5L799.4,562.5z"
		/>
	<path class="st3" d="M798,594.4c0,0-0.5,0.5-1.4,0.9c-0.9,0.5-2.3,0.9-3.7,0.5c-3.7-1.9-6.6-6.1-6.6-10.8c-0.5-2.3,0-5.2,0.9-7.5
		c0.5-1.9,1.9-3.3,3.3-4.2c0.9-0.5,2.3,0,2.8,0.9s0.5,1.4,0.5,1.4s0.5-0.5,0.5-1.9c0-0.5-0.5-1.4-1.4-1.9c-0.9-0.5-1.9-0.9-2.8-0.5
		c-2.3,0.5-4.2,2.3-4.7,4.7c-0.9,2.8-1.4,5.2-0.9,8c0,5.2,3.3,9.8,8.4,11.7c1.9,0.5,3.3,0,4.7-0.9C798,595.3,798,594.4,798,594.4
		L798,594.4z"/>
	<path class="st0" d="M935.3,512.4c9.8-2.3,13.1-16.9,13.1-27.2c-0.9-10.3-7-19.2-16.4-23.4s-20.2-3.7-29.5,0.5
		c-3.3-17.3-19.7-28.6-37-25.3c-13.6,2.3-23.9,13.6-25.8,27.2c-0.9-7.5-9.8-12.2-17.3-12.2c-8-0.9-15.5,1.9-21.1,7.5
		c-5.2,6.1-5.2,15,0,21.1c-8.4-0.9-17.3,0.9-24.8,6.1c-7,5.2-11.2,13.6-10.8,22.5c0.5,8.9,7,16.4,15.5,18.7c2.8,0.5,3.7-1.4,5.2,0.9
		c0.9,2.8,1.4,5.6,0.9,8.4c-0.5,8.9,0,18.3,1.9,27.2c5.6-1.9,11.7,0.5,14.1,6.1c1.9,5.2,2.3,11.2,1.4,16.4c2.3,3.7,8.4,2.8,11.2-0.9
		c2.3-3.7,3.3-8.4,2.8-12.7l0.5-45.9c4.7,2.3,10.3,2.3,15,0c4.7-2.8,7.5-7.5,8-12.7c12.2,11.7,31.4,11.2,42.6-0.5
		c1.4-1.4,2.8-3.3,4.2-5.2c4.7,3.7,9.8,7.5,15,9.8c5.6,2.8,11.7,3.3,17.8,1.4C927.8,518.5,935.8,518.9,935.3,512.4"/>
	<path class="st0" d="M925,569.1c0,2.8-2.3,5.6-5.2,5.6c-2.8,0.5-5.6-1.9-5.6-4.7c0-2.8,2.3-5.6,5.2-5.6
		C922.2,563.9,924.6,565.8,925,569.1z"/>
	<path class="st0" d="M926,562.5c-0.5,0.5-5.2-2.3-10.8-2.3s-10.3,2.8-11.2,2.3s0.5-1.9,2.3-2.8c2.8-1.9,5.6-2.8,8.9-2.8
		s6.1,0.9,8.9,2.8C926,561.1,926.4,562.5,926,562.5L926,562.5z"/>
	<path class="st0" d="M866.4,570.5c0,2.8-2.3,5.6-5.2,5.6s-5.6-1.9-5.6-5.2c0-2.8,2.3-5.6,5.2-5.6S866,567.2,866.4,570.5z"/>
	<path class="st0" d="M867.4,563.9c-0.5,0.5-5.2-2.3-10.8-2.3s-10.3,2.8-11.2,2.3s0.5-1.4,2.3-2.8c2.8-1.9,5.6-2.8,8.9-2.8
		s6.1,0.9,8.9,2.8C866.9,562.1,867.4,563.5,867.4,563.9L867.4,563.9z"/>
	<path class="st0" d="M888.9,608.4c3.3-0.9,6.6-1.4,9.8-1.9c1.4,0,2.8-0.5,3.3-1.4c0-1.4,0-3.3-0.9-4.7c-1.4-3.7-2.8-7.5-4.7-11.7
		c-4.2-9.8-7.5-20.2-10.3-30.5c5.2,9.4,9.4,19.2,12.7,29.5c1.4,4.2,2.8,8,4.2,11.7c0.9,1.9,1.4,3.7,0.9,6.1
		c-0.5,0.9-1.4,1.9-2.3,2.3c-0.9,0-1.9,0.5-2.8,0.5L888.9,608.4L888.9,608.4z"/>
	<path class="st0" d="M871.1,612.2c0.9,0,0.9,6.6,6.6,11.2c5.6,4.7,12.7,3.7,12.7,4.7s-1.4,1.4-4.7,1.4c-3.7,0-7.5-1.4-10.3-3.7
		c-2.8-2.3-4.7-5.6-5.2-9.4C870.2,614.1,870.7,612.2,871.1,612.2L871.1,612.2z"/>
	<path class="st0" d="M868.8,540.5c-0.5,1.9-6.6,0.9-13.6,1.9c-7,0.9-12.7,2.8-13.6,1.4c-0.5-0.5,0.5-2.3,2.8-3.7
		c2.8-1.9,6.6-3.3,10.3-3.7c3.7-0.5,7,0,10.8,1.4C867.9,538.2,868.8,539.6,868.8,540.5L868.8,540.5z"/>
	<path class="st0" d="M923.6,545.2c-0.9,1.4-5.2,0-10.3,0s-8.9,0.9-10.3-0.5s0.5-1.9,1.9-3.3c2.3-1.4,5.2-2.3,8.4-2.3
		c2.8,0,5.6,0.9,8,2.8C923.6,543.3,924.6,544.7,923.6,545.2z"/>
	<path class="st1" d="M763.8,504c0.5,1.4,0.9,2.8,1.9,4.2c3.3,3.3,7,5.6,11.7,6.1c7,1.9,14.1,2.3,21.1,0.9c4.2-0.9,8.4-3.3,11.2-6.1
		c3.7-3.3,5.2-8,4.2-12.7c-0.9-2.3-2.8-3.7-5.2-4.2c-2.3-0.5-4.2,1.4-4.7,3.7c0.5,5.6,3.7,10.8,9.4,13.1c5.6,2.3,12.2,2.3,17.8,0
		c6.1-2.8,11.2-7,15.5-12.2c1.9-2.8,3.3-6.1,3.7-9.4c0-3.3-1.9-6.1-5.2-7c-3.3-0.9-6.6,0-8.9,2.3c-2.3,2.8-3.3,6.1-2.3,9.8
		c1.9,7,8,12.7,15,14.1c7.5,1.9,15.5,0.9,22.5-2.3c7-3.3,12.7-9.4,15-16.4c1.4-3.3,0.9-7-0.9-10.3c-1.9-2.8-5.6-4.2-8.4-2.3
		s-4.7,5.2-4.2,8.4c0.5,3.3,1.9,6.6,4.2,9.4c4.7,5.2,10.8,8.9,17.8,9.8c13.1,2.3,27.6-5.6,30.9-17.3c1.9-5.6-0.9-11.2-6.6-13.6
		c-5.2-0.9-9.8,1.9-11.2,7v0.5c-0.9,4.7,0.5,9.8,3.3,13.6c2.8,3.3,6.6,6.1,10.3,7.5c7,2.3,14.5,0.5,19.7-4.7c3.3-3.3,5.6-7,6.6-11.7
		c0.5-1.4,0.5-3.3,0.5-4.7c0.5,1.4,0.5,3.3,0,4.7c-0.9,4.7-2.8,8.9-6.1,12.2c-2.3,2.3-5.2,4.2-8.4,5.2c-3.7,1.4-8,1.4-12.2,0
		c-4.7-1.4-8.4-4.2-11.2-7.5c-3.3-4.2-4.7-9.8-3.7-15c0.5-2.8,2.3-5.6,4.7-7.5c2.3-1.9,5.6-2.8,8.9-1.9c6.6,2.3,9.8,9.4,8,15.9
		c-1.9,6.6-6.6,12.2-12.7,15c-6.1,3.7-13.6,5.2-20.6,3.7c-7.5-1.4-14.1-5.2-19.2-10.8c-2.8-2.8-4.2-6.6-4.7-10.8
		c-0.5-4.2,1.9-8.4,5.6-10.8c1.9-0.9,4.2-1.4,6.6-0.9s3.7,1.9,5.2,3.7c2.3,3.7,2.8,8.4,0.9,12.2c-2.8,8-8.9,14.5-16.4,18.3
		c-7.5,3.7-15.9,4.7-24.4,2.8c-4.2-0.9-7.5-2.8-10.8-5.6c-3.3-2.8-5.6-6.6-6.1-10.3c-0.9-4.2,0.5-8.4,3.3-11.7
		c2.8-2.8,7-3.7,11.2-2.3c1.9,0.5,3.7,1.9,5.2,3.7c0.9,1.9,1.9,3.7,1.9,5.6c-0.5,3.7-1.9,7.5-4.2,10.3c-4.2,5.6-9.8,10.3-16.4,13.1
		c-6.1,2.8-13.6,2.3-19.7-0.5c-2.8-1.4-5.6-3.3-7.5-6.1c-1.9-2.3-3.3-5.6-2.8-8.9c0-1.9,0.9-3.3,2.3-4.2s2.8-1.4,4.7-1.4
		c3.3,0.5,5.6,2.3,6.6,5.2c1.4,5.2-0.5,10.8-4.7,14.5c-3.3,3.3-7.5,5.2-12.2,6.6c-7,1.4-14.5,0.9-21.6-1.4c-4.7-0.9-8.9-3.3-11.7-7
		c-0.5-0.9-1.4-2.3-1.4-3.3C763.8,504.9,763.8,504.4,763.8,504L763.8,504z"/>
	<path class="st9" d="M823.8,1051.8h363.6l60-232H944.2l-48.3,217l-72.2,1.9V1051.8L823.8,1051.8z"/>
	<path class="st1" d="M2676.7,1331.5V1742h-34.2v-410.5H2676.7z"/>
	<path class="st0" d="M2416.6,1350.3h490.2c0-29.5-23.9-53.4-53-53.4H2470C2440.5,1297.3,2416.6,1320.7,2416.6,1350.3L2416.6,1350.3
		z"/>
	<path class="st0" d="M2626.1,1351.2c20.1,1.4,40.3,1.4,60,0C2666.4,1349.8,2646.2,1349.8,2626.1,1351.2z"/>
	<path class="st1" d="M2509.4,1779.5h4.7c1.4-80.6,67.9-144.8,148.5-143.4c78.7,1.4,142,64.7,143.4,143.4h4.7
		c1.4-83.4-64.7-151.8-148.1-153.2c-83.4-1.4-151.8,64.7-153.2,148.1C2508.9,1776.2,2508.9,1777.6,2509.4,1779.5z"/>
	<path class="st0" d="M2785.9,1787c0,12.7,10.3,22.5,22.5,22.5c12.7,0,22.5-10.3,22.5-22.5c0-12.7-10.3-22.5-22.5-22.5
		C2796.2,1764.5,2785.9,1774.3,2785.9,1787z"/>
	<path class="st1" d="M2488.3,1783.7c0,12.7,10.3,22.5,22.5,22.5c12.7,0,22.5-10.3,22.5-22.5c0-12.7-10.3-22.5-22.5-22.5
		C2498.1,1761.2,2488.3,1771.5,2488.3,1783.7z"/>
	<path class="st1" d="M2510.8,1742.5c0,0.5,65.6,1.4,146.2,1.4s146.2-0.5,146.2-1.4s-65.6-1.4-146.2-1.4
		S2510.8,1741.5,2510.8,1742.5z"/>
	<path class="st0" d="M2921.3,925.2v302.3c0,39.8-32.3,71.7-71.7,71.7h-232.9l31.9-373.9c0-17.8,14.5-31.9,31.9-31.9h209
		C2907.2,893.4,2921.3,907.4,2921.3,925.2L2921.3,925.2z"/>
	<path class="st1" d="M2839.3,1297.3l0.5-0.9l1.9-2.3c1.4-2.3,3.7-5.2,6.6-9.4c7.5-12.2,13.1-24.8,17.3-38.4
		c2.8-9.4,4.7-18.7,5.6-28.6c0.9-11.2,1.4-22.5,0.9-33.7v-77.3c0-54.8,0.5-104,0.5-140.6c0-17.8,0.5-32.3,0.5-42.6v-15.9v15.9
		c0,10.3,0,24.8,0.5,42.6c0,36.1,0,85.8,0.5,140.6v77.3c0.5,11.2,0,22.5-0.9,33.7c-0.9,9.8-3.3,19.7-6.1,29.1
		c-4.2,13.6-10.3,26.7-18.3,38.4c-2.8,4.2-5.2,7.5-7,9.4C2840.7,1295.4,2839.7,1296.4,2839.3,1297.3L2839.3,1297.3z"/>
	<path class="st1" d="M2712.3,1297.3c2.3-0.5,5.2-0.5,7.5-0.5h86.7c13.1,0,25.3,0,36.6,0.5c9.8,0,20.1,0.9,30,3.3
		c6.6,1.9,12.7,5.2,17.8,9.4c1.4,1.4,2.8,2.3,3.7,3.7c0.9,0.9,1.4,1.4,0.9,1.4s-1.9-1.9-5.6-4.7c-5.2-4.2-11.2-7-17.8-8.4
		c-9.8-1.9-19.7-2.8-29.5-2.8H2806c-25.8,0-49.7-0.5-66.5-0.9l-20.1-0.5C2717.4,1297.8,2714.6,1297.8,2712.3,1297.3L2712.3,1297.3z"
		/>
	<path class="st10" d="M2826.6,995c-5.6-45.5-12.7-83.9-12.7-83.9h-98.4c0,0,12.2,57.6,9.4,70.8c-2.3,11.7-192.6,19.2-242.3,20.2
		c-2.8-2.3-7,1.4-11.2-1.9c-3.3-2.8-6.1-6.6-8.4-10.3c-2.8-4.7-5.2-9.8-7-15.5c-0.5-2.8-2.8-4.7-5.6-4.7c-1.4,0-2.8,0.9-3.7,2.3
		c-1.9,4.2,0.5,18.3,9.8,31.9c9.4,13.6-15.5,6.6-24.4,4.2s-37.5-8.4-40.3-6.6c-4.2,3.3-1.4,8.9,7.5,10.8
		c8.9,1.9,36.1,10.8,34.2,15.5s-47.3-8.4-47.3-8.4s-9.4-4.2-11.2,0.9c-3.3,9.8,46.4,20.2,51.1,21.1c3.3,0.5,1.9,6.1-1.4,5.2
		s-45.5-14.1-49.2-3.7c-2.8,7.5,40.8,8.9,48.3,16.4c7.5,7.5-32.8-4.2-35.1,3.3c-0.9,2.8,15.9,4.2,39.8,7.5c24.8,2.3,49.7,3.3,74,2.8
		c55.8,3.3,252.6,7,294.8,4.2C2846.8,1074.2,2828.5,1011,2826.6,995L2826.6,995z"/>
	<path class="st11" d="M2240.9,760.3c0,0-27.2-27.6-32.3-28.6c-5.2-0.9-55.8-26.7-55.8-26.7c-3.3,3.7-2.8,8.9,0.5,12.2
		c0.5,0.5,0.5,0.5,0.9,0.5c7.5,6.1,25.3,16.9,25.3,16.9l-12.7,24.8c0,0,12.2,40.3,14.1,39.4c1.9-0.9,4.2-8,4.2-8l-3.7-12.7
		l24.4,20.6l10.8-1.4L2240.9,760.3L2240.9,760.3z"/>
	<path class="st12" d="M2219.8,747.2c-6.1-2.3-11.7-5.2-16.9-8.4l-13.6-3.7l1.4-0.9c0,4.2,0.9,8,3.7,11.2c3.7,4.7,8.4,8.4,13.6,11.2
		l0.9,0.5l-0.5,0.9c-2.3,6.1-2.3,12.7-0.5,18.7c1.4,4.7,2.8,7,2.3,7c-1.9-1.9-3.3-4.2-3.7-6.6c-2.3-6.6-2.3-13.6-0.5-19.7l0.5,1.4
		c-5.6-2.8-10.8-7-14.5-11.7c-2.8-3.7-4.2-8.4-3.7-13.1v-1.4l1.4,0.5l13.1,4.2C2209,739.7,2214.6,742.9,2219.8,747.2L2219.8,747.2z"
		/>
	<path class="st11" d="M2174.8,759.8c2.3,10.8,6.1,21.1,10.3,30.9c2.3-2.8,3.7-6.1,4.7-9.8"/>
	<path class="st12" d="M2190.3,780.9c0,3.7-1.4,7.5-3.7,10.3l-0.9,1.4l-0.9-1.4c-1.9-3.3-3.3-6.6-4.2-9.8
		c-2.8-6.6-4.7-14.1-5.2-21.1c0.5,0,3.3,9.4,7.5,20.6c1.4,3.7,2.8,7,4.2,9.8l-1.9-0.5C2186.5,787,2188.4,783.7,2190.3,780.9
		L2190.3,780.9z"/>
	<path class="st12" d="M2190.7,741.5c1.9,3.3,3.7,6.6,4.7,10.3c1.4,3.7,2.3,8,2.8,12.2c0.5,5.2,0,10.8-2.3,15.5
		c-0.9,1.9-1.9,4.2-3.7,5.6l-1.4,1.4l-0.9-1.9c-3.3-7-6.1-14.5-8-22c-0.9-2.8-1.4-6.1-1.4-9.4c0.5,0,3.7,13.6,11.7,30h-1.4
		c1.4-1.4,2.3-3.3,3.3-5.2c2.8-8.4,2.8-17.8,0-26.2C2192.6,748.6,2191.7,745.3,2190.7,741.5L2190.7,741.5z"/>
	<path class="st11" d="M2240.9,760.3L2433,890.1l-56.2,70.3l-160.3-163.1L2240.9,760.3z"/>
	<path class="st4" d="M2444.7,1785.6l-0.9-47.3l88.6-2.3l2.3,68.9l-5.6,0.5c-24.4,1.9-124.2,8.4-140.6,4.2
		C2370.2,1804.3,2444.7,1785.6,2444.7,1785.6z"/>
	<path class="st7" d="M2502.3,1804.8c0.9-7.5,5.2-14.5,10.8-19.2c5.6-4.7,13.1-7.5,20.6-7l0.9,24.8L2502.3,1804.8L2502.3,1804.8z"/>
	<path class="st13" d="M2408.6,1795.9c0,0-26.2,8.4-23,12.7c3.3,4.2,104.5,1.4,149-3.7v-1.9l-117.6,4.2
		C2416.6,1807.1,2413.3,1795.9,2408.6,1795.9L2408.6,1795.9z"/>
	<path class="st0" d="M2535.6,1802.9h-1.4l-4.2,0.5l-15.9,0.9c-13.6,0.9-32.3,1.9-53,2.3c-20.6,0.5-39.4,0.5-53,0.5h-21.6h21.6
		c13.6,0,32.3-0.5,53-0.9c20.6-0.5,39.4-1.4,53-1.9l15.9-0.9h4.2C2534.7,1802.9,2535.1,1802.9,2535.6,1802.9z"/>
	<path class="st0" d="M2416.6,1808.5c-0.9-2.8-1.9-5.2-3.3-7.5c-1.9-2.3-3.7-4.2-5.6-6.1c2.8,0.9,5.2,2.8,6.6,5.6
		C2416.1,1802.5,2417.1,1805.7,2416.6,1808.5L2416.6,1808.5z"/>
	<path class="st0" d="M2442.4,1794.5c0,0-1.4-1.4-2.8-3.3s-2.3-3.7-1.9-3.7s1.4,1.4,2.8,3.3S2442.4,1794.5,2442.4,1794.5z"/>
	<path class="st0" d="M2449.4,1790.3c0,0-1.4-0.5-3.3-1.9c-1.9-1.4-2.8-2.8-2.3-2.8s1.4,0.5,3.3,1.9
		C2448.9,1788.9,2449.4,1790.3,2449.4,1790.3z"/>
	<path class="st0" d="M2453.6,1781.8c0,0.5-1.9,0.5-4.7,0.9c-1.4,0-3.3,0-4.7-0.5c1.4-0.5,3.3-0.9,4.7-0.5
		C2450.3,1781.4,2452.2,1781.4,2453.6,1781.8z"/>
	<path class="st0" d="M2455,1776.2c-1.4,0.9-3.3,1.4-5.2,1.9c-1.9,0.5-3.7,0-5.2-0.5c1.9-0.5,3.3-0.5,5.2-0.5
		C2451.7,1776.2,2453.1,1776.2,2455,1776.2L2455,1776.2z"/>
	<path class="st0" d="M2439.1,1787c-1.9,0.5-3.7,0.5-5.6,0c-1.9,0-4.2-0.5-6.1-0.9c-1.4-0.5-2.3-0.9-3.3-1.4
		c-0.5-0.5-1.4-0.9-1.4-1.9s0-1.9,0.9-2.3c4.2-2.3,9.8-1.4,13.1,2.8C2437.7,1784.2,2438.1,1785.6,2439.1,1787c0,0.9,0,1.4-0.5,1.4
		c-0.5-1.9-1.4-3.3-2.8-4.7s-2.8-2.3-4.7-2.8c-2.3-0.5-4.7-0.5-6.6,0.5c-0.9,0.5-0.5,1.9,0.5,2.3c0.9,0.5,2.3,0.9,3.3,1.4l5.6,1.4
		C2436.7,1786.5,2439.1,1786.5,2439.1,1787L2439.1,1787z"/>
	<path class="st0" d="M2437.7,1787c-0.9-1.4-0.9-2.3-0.9-3.7s0.5-2.8,1.4-4.2c0.9-1.9,2.8-2.8,4.7-2.8c1.4,0.5,1.9,1.4,1.9,2.3
		c0,0.9-0.5,1.9-0.9,2.3c-0.9,1.4-1.4,2.3-2.3,3.7C2440.5,1785.6,2439.6,1786.5,2437.7,1787c0.5,0,1.4-0.9,2.8-2.8
		c0.9-0.9,1.9-2.3,2.3-3.3c0.9-1.4,1.4-3.3,0-3.7c-1.4-0.5-2.8,1.4-3.7,2.3c-0.9,0.9-1.4,2.3-1.4,3.7V1787L2437.7,1787z"/>
	<path class="st0" d="M2533.3,1778.6c0,0-2.3,0-6.6,0.5c-10.8,1.4-19.2,8.9-22.5,19.2c-1.4,3.7-1.4,6.6-1.4,6.6v-1.9
		c0-1.4,0.5-3.3,0.9-4.7c1.4-5.2,4.7-9.8,8.4-13.6c4.2-3.3,9.4-5.6,14.5-6.1L2533.3,1778.6L2533.3,1778.6z"/>
	<path class="st0" d="M2523,1742c0.9,6.1,1.4,12.2,1.4,18.3c0.5,6.1,0.5,12.2,0,18.3C2523,1766.4,2522.5,1754.2,2523,1742z"/>
	<path class="st0" d="M2491.1,1796.8c-4.2,0.9-8.4,1.9-12.7,1.9c-4.2,0.5-8.9,0-13.1-0.5c0-0.5,5.6,0,13.1-0.5
		S2491.1,1796.4,2491.1,1796.8L2491.1,1796.8z"/>
	<path class="st0" d="M2508.4,1796.4c0,0-0.5,1.4-0.9,2.3c-0.5,0.9-0.9,2.3-0.9,2.3s-0.5-1.4,0-2.8S2508,1795.9,2508.4,1796.4z"/>
	<path class="st0" d="M2514.5,1787.9c0,0-0.5,0.9-1.4,2.3s-1.9,1.4-1.9,1.4s0.5-0.9,1.4-2.3
		C2513.6,1787.9,2514.5,1787.5,2514.5,1787.9z"/>
	<path class="st0" d="M2523.9,1783.7c0,0.5-1.4,0.5-2.3,0.9s-2.3,1.4-2.3,0.9s0.5-1.4,1.9-1.9S2523.9,1783.7,2523.9,1783.7
		L2523.9,1783.7z"/>
	<path class="st0" d="M2530.5,1781.8c0,0.5-0.5,0.9-0.9,0.9s-1.4,0.5-1.4,0s0.5-0.9,0.9-0.9H2530.5z"/>
	<path class="st4" d="M2231.5,1532.5l20.1-42.2l80.1,38l-29.5,62.8l-5.2-1.9c-22.5-9.4-114.3-48.7-127-60
		C2156,1515.7,2231.5,1532.5,2231.5,1532.5L2231.5,1532.5z"/>
	<path class="st7" d="M2273.7,1576.1c4.2-6.1,10.8-10.3,18.3-12.2c7.5-1.9,15-0.5,21.6,2.8l-10.8,22.5L2273.7,1576.1z"/>
	<path class="st13" d="M2194,1525.5c0,0-27.2-4.2-25.8,0.9s92.3,48.7,134.5,64.2l0.9-1.9l-106.8-49.7
		C2196.3,1539.1,2198.7,1527.9,2194,1525.5L2194,1525.5z"/>
	<path class="st0" d="M2304.6,1589.2l-1.4-0.5l-4.2-1.4l-15-6.1c-12.7-5.2-29.5-13.1-48.3-22c-18.7-8.9-35.6-17.3-47.8-23.4
		l-14.1-7.5l-3.7-2.3l-1.4-0.9c0.5,0,0.9,0.5,1.4,0.5l3.7,1.9l14.5,7c12.2,6.1,29.1,14.5,47.8,23.4s35.6,16.4,48.3,22l14.5,6.6
		l4.2,1.9L2304.6,1589.2z"/>
	<path class="st0" d="M2195.4,1540.5c0.5-2.8,0.5-5.6,0.5-8.4c-0.5-2.8-1.4-5.2-2.3-8c1.9,1.9,3.3,4.7,3.3,8
		C2197.8,1534.9,2197.3,1538.2,2195.4,1540.5L2195.4,1540.5z"/>
	<path class="st0" d="M2224.9,1539.6c-0.5-1.4-0.9-2.8-0.9-4.2c-0.5-1.4-0.5-2.8,0-4.2c0.5,0,0.9,1.9,0.9,4.2
		S2225.4,1539.6,2224.9,1539.6z"/>
	<path class="st0" d="M2232.9,1539.6c-0.5,0-0.9-1.4-1.9-3.3c-0.9-1.9-1.4-3.7-0.9-3.7s0.9,1.4,1.9,3.3
		C2232.9,1537.7,2233.4,1539.1,2232.9,1539.6z"/>
	<path class="st0" d="M2240.9,1533.9c-1.9,0-3.3-0.5-4.7-1.4c-2.3-0.9-4.2-2.3-4.2-2.3s2.3,0.5,4.7,1.4
		C2238.1,1532.1,2239.5,1532.5,2240.9,1533.9z"/>
	<path class="st0" d="M2244.6,1529.3c-1.9,0.5-3.7,0-5.2-0.9c-2.8-0.9-4.7-2.8-4.7-2.8c1.4,0.5,3.3,0.9,4.7,1.9
		C2240.9,1527.9,2242.7,1528.3,2244.6,1529.3L2244.6,1529.3z"/>
	<path class="st0" d="M2225.4,1531.6c-1.9-0.5-3.7-1.4-5.2-2.3c-1.9-0.9-3.3-2.3-4.7-3.7c-0.9-0.9-1.9-1.9-2.3-2.8
		c-0.5-0.5-0.5-1.4-0.5-2.3s0.9-1.4,1.4-1.9c5.2,0,9.4,3.3,10.3,8.4c0.5,1.4,0.5,2.8,0,4.2c0,0.9-0.5,1.4-0.5,1.4
		c0.5-1.9,0-3.7,0-5.6c-0.5-1.9-1.4-3.7-2.8-4.7c-1.9-1.4-3.7-2.3-6.6-2.3c-0.9,0-1.4,1.4-0.5,2.3c0.5,0.9,1.4,1.9,2.3,2.8
		c1.4,1.4,2.8,2.8,4.7,3.7C2223.5,1530.2,2225.4,1531.1,2225.4,1531.6L2225.4,1531.6z"/>
	<path class="st0" d="M2224,1531.1c0-1.4,0.5-2.8,0.9-3.7c0.9-1.4,1.9-2.3,3.3-3.3s3.7-1.4,5.6-0.5c0.9,0.9,1.4,1.9,0.5,3.3
		c-0.5,0.9-1.4,1.4-1.9,1.9c-1.4,0.9-2.3,1.4-3.7,1.9c-1.4,0.5-2.8,0.9-3.7,0.5c0,0,1.4-0.5,3.7-1.4c1.4-0.5,2.3-1.4,3.7-1.9
		c1.4-0.9,2.8-2.3,1.4-3.3c-1.4-0.5-3.3-0.5-4.7,0.5c-1.4,0.5-2.3,1.4-2.8,2.8C2224.9,1528.8,2224.5,1529.7,2224,1531.1L2224,1531.1
		z"/>
	<path class="st0" d="M2313,1566.7c0,0-2.3-1.4-6.1-2.8c-10.3-3.3-21.1-0.9-29.1,7c-2.8,2.8-4.2,5.2-4.2,5.2c0-0.5,0.5-0.9,0.9-1.9
		c0.9-1.4,1.9-2.8,2.8-3.7c7.5-8.4,19.2-11.2,29.5-7c1.4,0.5,2.8,1.4,4.2,2.3C2312.6,1566.3,2313,1566.7,2313,1566.7L2313,1566.7z"
		/>
	<path class="st0" d="M2320.5,1529.7c-1.9,5.6-4.2,11.2-7,16.9c-2.3,5.6-5.2,11.2-8,16.4c1.9-5.6,4.2-11.2,7-16.9
		C2314.9,1540,2317.7,1534.9,2320.5,1529.7z"/>
	<path class="st0" d="M2267.6,1563.5c-4.2-0.9-8.4-2.3-12.2-4.2c-4.2-1.9-8-3.7-11.2-6.6c0-0.5,5.2,2.3,11.7,5.6
		C2262.4,1561.6,2267.6,1563.5,2267.6,1563.5L2267.6,1563.5z"/>
	<path class="st0" d="M2283,1571c0,0.5-0.9,0.9-1.9,1.9c-0.9,0.9-1.9,1.9-2.3,1.9c-0.5,0,0-1.4,1.4-2.3S2283,1571,2283,1571z"/>
	<path class="st0" d="M2292.4,1566.7c0,0.5-0.9,0.9-1.9,1.4c-0.9,0.5-2.3,0.5-2.3,0.5s0.9-0.9,1.9-1.4
		C2291,1566.7,2292.4,1566.3,2292.4,1566.7z"/>
	<path class="st0" d="M2302.3,1567.2c0,0-1.4-0.5-2.3-0.5h-2.8c-0.5,0,0.9-0.9,2.8-0.9C2301.8,1565.8,2302.7,1567.2,2302.3,1567.2
		L2302.3,1567.2z"/>
	<path class="st0" d="M2309.3,1568.6c0,0.5-0.5,0.5-1.4,0.5c-0.9,0-1.4-0.5-1.4-0.5s0.5-0.5,1.4-0.5
		C2308.8,1568.2,2309.3,1568.2,2309.3,1568.6z"/>
	<path class="st0" d="M2815.8,909.8c-16.9,1.4-34.2,1.9-51.1,1.4c-16.9,0.5-34.2,0-51.1-0.9C2747.4,908.4,2781.6,907.9,2815.8,909.8
		L2815.8,909.8z"/>
	<path class="st4" d="M2814.4,914.9l-18.7-94.2c-14.1-77.3-121.8-82.5-121.8-82.5l-84.8-1.4c0,0-62.8-8.4-101.7,35.1
		c-40.3,45.5-89.5,98.9-89.5,98.9l37.5,94.7l89.5-73.6c-7.5,13.1-11.7,27.6-12.2,42.6c0,25.3,26.2,36.6,26.2,36.6l8,76.4
		l-26.7,123.7l277.4-11.2c-4.7-41.2-18.7-81.1-40.8-116.7L2762,914L2814.4,914.9z"/>
	<path class="st0" d="M2514.5,917.3c0.9-4.2,1.9-8.4,3.3-12.7c0.9-3.7,2.8-8.4,4.2-13.6c0.9-2.3,1.9-5.2,2.8-8
		c0.5-1.4,1.4-2.8,1.9-4.2c0.5-1.4,0.5-2.8,0.5-4.2c0-2.8-0.5-5.6-1.4-8.9l-1.4-8.4c-0.9-5.2-1.9-9.8-2.3-14.1
		c-0.9-4.2-1.4-8.9-1.4-13.1c1.4,4.2,2.8,8.4,3.3,12.7c0.9,4.2,1.9,8.9,3.3,14.1c0.5,2.8,0.9,5.6,1.9,8.4c0.9,3.3,1.4,6.1,1.4,9.4
		c0,1.9,0,3.3-0.5,5.2c-0.5,1.9-1.4,2.8-1.9,4.2c-0.9,2.8-2.3,5.2-3.3,8l-4.7,13.6C2518.3,909.8,2516.4,913.5,2514.5,917.3
		L2514.5,917.3z"/>
	<path class="st6" d="M2698.7,834.8c3.3,52.5,5.6,101.2,6.6,153.7c7-0.5,14.1-2.3,19.7-6.1C2727.7,959.4,2710.9,891,2698.7,834.8
		L2698.7,834.8z"/>
	<path class="st1" d="M2798,1148.3c0,0-362.7-75.9-397.8-59.5c-35.1,16.4-196.8,417.1-196.8,417.1l130.3,56.2l140.1-340.2
		c0,0,254,92.8,298,83.4C2815.8,1295.9,2798,1148.3,2798,1148.3L2798,1148.3z"/>
	<path class="st1" d="M2635.9,1169.4c-5.6,1.9-215.6,88.1-230.1,115.7s21.6,487.8,21.6,487.8h119.5l-7.5-409.1l232.9-59
		L2635.9,1169.4L2635.9,1169.4z"/>
	<path class="st0" d="M2773.2,1306.2c-0.9,0-2.3,0-3.3-0.5l-9.8-1.9c-8.4-1.4-20.6-4.2-35.6-7c-30-6.6-71.7-15.9-116.7-29.1
		c-22.5-6.6-44-13.6-63.3-20.1s-36.6-13.1-50.6-19.2c-7-2.8-13.6-5.6-19.2-8.4s-10.3-4.7-14.1-6.6l-8.9-4.7
		c-0.9-0.5-1.9-0.9-2.8-1.9c0.9,0.5,2.3,0.5,3.3,1.4l8.9,4.2c3.7,1.9,8.9,3.7,14.5,6.1s12.2,5.2,19.2,8
		c14.1,5.6,31.4,12.2,50.6,18.7c19.2,6.6,40.8,13.1,63.3,19.7c45,13.1,86.2,23,116.2,29.5l35.6,8l9.8,2.3L2773.2,1306.2
		L2773.2,1306.2z"/>
	<path class="st0" d="M2405.8,1391c-0.5-2.3-0.9-4.7-0.9-7c-0.5-5.2-1.4-11.2-1.9-18.7c-0.5-7.5-1.4-17.8-2.3-28.1
		c-1.4-11.7-1.4-23,0-34.7c2.3-11.7,8.4-22,17.3-30c7-6.6,15-11.7,23.9-15.5c7.5-3.3,13.6-5.6,17.8-7c2.3-0.9,4.2-1.4,6.6-1.9
		c0,0.5-9.4,3.7-23.4,10.8c-8.4,4.2-15.9,9.4-23,15.5c-8.4,7.5-14.1,17.8-16.4,28.6c-1.4,11.2-1.4,22.5,0,33.7
		c0.9,10.3,1.4,19.7,1.9,28.1c0.5,8.4,0.9,14.1,0.9,18.7C2406.3,1386.3,2406.3,1388.7,2405.8,1391L2405.8,1391z"/>
	<path class="st0" d="M2510.8,1351.7c9.8,2.3,19.7,6.6,28.1,12.2c-5.2-0.9-10.3-2.3-14.5-5.2
		C2519.2,1357.3,2514.5,1354.9,2510.8,1351.7z"/>
	<path class="st0" d="M2521.1,1339c3.3,4.2,6.6,8.9,9.4,13.6c5.6,7,10.8,12.2,10.3,12.7C2530.9,1359.6,2523.9,1349.8,2521.1,1339z"
		/>
	<path class="st0" d="M2567,1357.7c0,0-0.5,0.9-1.9,1.9c-2.3,0.9-4.7,1.9-7,1.9h-9.8c-3.7,0.5-6.1,3.7-6.1,7.5
		c0,17.3-0.9,31.9-1.4,31.9c-1.4-10.8-1.9-21.1-1.4-31.9c0-2.3,0.9-4.7,2.3-7c1.4-1.9,3.7-2.8,6.1-3.3c3.3,0,7,0,10.3,0.5
		C2561.4,1359.6,2564.2,1359.2,2567,1357.7L2567,1357.7z"/>
	<path class="st6" d="M2538.4,1086.4l247,19.7l-10.3-27.6l-234.3-3.3L2538.4,1086.4z"/>
	<path class="st0" d="M2544.5,515.7c-18.3,5.6-39.4,17.8-28.6,74.5c4.7,24.8,10.3,50.6,27.2,69.4c2.3,3.3,5.6,5.2,9.8,5.2
		c2.8-0.9,5.2-2.3,6.6-4.7c19.2-20.6,35.1-45,40.3-73.1s-2.3-59-24.4-76.9"/>
	<path class="st11" d="M2579.7,761.7c-0.5-26.2-1.9-53.9-1.9-53.9s-39.8-5.2-41.2-45.5s-2.3-111.5-2.3-111.5l77.3-57.2l54.4,75
		l1.4,192.1c0,24.4-19.2,44-43.6,44.5h-0.5C2599.8,804.8,2580.1,785.6,2579.7,761.7z"/>
	<path class="st12" d="M2577.8,707.8c18.7-0.5,37-6.6,52.5-17.3c0,0-12.2,29.5-52,27.2L2577.8,707.8L2577.8,707.8z"/>
	<path class="st12" d="M2581.5,660.5c-0.9-2.3,0-5.2,1.9-6.1c0.9-0.5,1.9-0.5,2.8-0.5c0.5-3.7,3.7-6.6,7.5-6.6c3.7,0.5,7,3.3,7.5,7
		c0.5,3.7-0.9,7.5-4.2,9.8c-3.3,1.9-7,2.3-10.8,0.9c-2.8-0.9-4.7-3.3-5.6-6.6"/>
	<path class="st0" d="M2544.1,601.4c0,2.8,2.3,5.6,5.6,5.6c2.8,0.5,5.6-1.9,5.6-4.7s-2.3-5.6-5.2-5.6
		C2546.9,596.3,2544.1,598.6,2544.1,601.4L2544.1,601.4z"/>
	<path class="st0" d="M2542.6,595.3c0.9,0.9,4.7-2.3,10.8-2.3s10.3,2.8,10.8,2.3c0.5-0.5-0.5-1.9-2.3-2.8c-2.8-1.9-5.6-2.8-8.9-2.8
		s-6.1,0.9-8.4,2.8C2543.1,593.5,2542.2,594.9,2542.6,595.3L2542.6,595.3z"/>
	<path class="st0" d="M2602.6,602.8c0,2.8,2.3,5.6,5.6,5.6c2.8,0.5,5.6-1.9,5.6-4.7s-2.3-5.6-5.2-5.6
		C2605.4,597.7,2602.6,600,2602.6,602.8L2602.6,602.8z"/>
	<path class="st0" d="M2601.7,596.3c0.9,0.5,4.7-2.3,10.8-2.3s10.3,2.8,11.2,2.3c0.9-0.5-0.5-1.9-2.3-2.8c-2.3-1.9-5.6-2.8-8.4-2.8
		c-3.3,0-6.1,0.9-8.4,2.8C2601.7,594.9,2601.2,596.3,2601.7,596.3L2601.7,596.3z"/>
	<path class="st0" d="M2579.7,640.8c-3.3-0.9-6.6-1.4-9.8-1.9c-1.4,0-2.8-0.5-3.3-1.4c0-1.4,0-3.3,0.9-4.7c1.4-3.7,2.8-7.5,4.7-11.7
		c4.2-9.8,7.5-20.2,10.3-30.5c-5.2,9.4-9.4,19.2-12.7,29.5c-1.4,4.2-2.8,8-4.2,11.7c-0.9,1.9-1.4,3.7-0.9,6.1
		c0.5,0.9,1.4,1.9,2.3,2.3c0.9,0.5,1.9,0.5,2.3,0.5C2573.1,641.3,2576.4,641.3,2579.7,640.8L2579.7,640.8z"/>
	<path class="st0" d="M2597.5,645c-0.9,0-0.9,6.6-6.6,11.2c-5.6,4.7-12.7,3.7-12.7,4.7s1.4,1.4,4.7,1.4c3.7,0,7.5-1.4,10.3-3.7
		c2.8-2.3,4.7-5.6,5.2-9.4C2598.4,646.4,2597.9,645,2597.5,645L2597.5,645z"/>
	<path class="st0" d="M2598.9,583.1c0.5,1.4,6.6,0.9,13.6,1.9s12.7,2.8,13.6,1.4c0.5-0.5-0.5-2.3-2.8-3.7c-2.8-1.9-6.6-3.3-10.3-3.7
		s-7,0-10.8,1.4C2599.8,580.8,2598.4,582.2,2598.9,583.1L2598.9,583.1z"/>
	<path class="st0" d="M2545,578c0.9,1.4,5.2,0,10.3,0s9.4,0.9,10.3-0.5c0.5-0.5,0-1.9-2.3-3.3s-5.2-2.3-8.4-2.3
		c-2.8,0-5.6,0.9-8,2.8C2545,576.1,2544.5,577.1,2545,578z"/>
	<path class="st0" d="M2630.3,579.9c7,0,14.1-2.3,19.7-7c3.7,9.4,3.7,20.2,7,30c3.3,9.8,10.8,49.7,21.1,48.3
		c9.4-1.4,15.9-41.7,18.3-50.6c6.6-25.3-1.9-52.5-18.3-72.6c-19.7-23.4-53-43.6-83.4-41.2c-13.6,0.5-27.2,5.2-38,13.6
		c0,0-16.4,12.7-15,29.1c1.9,23,35.1,37.5,57.6,36.6l3.3,3.3C2609.7,575.6,2619.5,579.9,2630.3,579.9L2630.3,579.9z"/>
	<path class="st0" d="M2533.7,572.4c5.6-4.7,9.8-11.2,11.2-18.3c1.4-7,2.3-14.5,2.8-21.6c0-1.9,0-4.7-2.3-5.2s-3.7,1.4-4.7,3.3
		c-7,13.6-9.8,29.1-7,44c0.5-0.5-1.4,0.9-0.9,0.5"/>
	<path class="st0" d="M2680.9,740.6c11.7-10.3,17.8-25.8,15.9-41.2c-1.4-11.7-7-23-6.6-34.7c0.5-9.4,4.7-17.8,8-26.7
		c4.7-14.5,6.1-29.5,3.7-44.5c-1.9-11.7-7-23.9-16.4-30.9c-9.4-7-24.8-6.6-32.3,2.8l-3.3,0.9c-16.4,34.2-11.7,74.5,12.2,103.6
		c-18.3,20.6-17.8,51.1,0.9,71.2c-12.7,16.9-15.5,38.9-7.5,58.1l0.5,0.5c-17.8,19.2-18.7,48.7-1.9,68.4c-8.9,7.5-15,18.3-17.3,29.5
		c-1.9,11.7,3.7,23,14.5,28.6c-13.6,11.7-15.5,32.3-3.7,46.4c3.3,3.7,7.5,7,12.7,8.9c5.2-5.2,10.8-9.8,16.9-13.6
		c-3.3-1.4-6.1-4.2-7.5-7.5c3.7,2.8,8.4,4.2,13.1,4.2l-5.6-25.3c-0.5-4.7-2.3-8.9-4.7-13.1c0-0.5-0.5-0.5-0.5-0.9
		c6.6-3.3,11.7-8.9,14.5-15.9c5.2-13.1,1.4-28.1-5.2-40.3c7-14.5,14.1-30,14.1-46.4c0-7.5-1.4-15-4.7-21.6
		c6.6-9.8,9.8-21.1,10.3-32.8C2699.2,757,2692.1,745.8,2680.9,740.6L2680.9,740.6z"/>
	<path class="st1" d="M2675.7,868.5c-2.8,2.8-7,4.2-10.8,4.2c-4.2,0.5-8-0.9-10.8-3.7c0.5-0.5,5.2,1.4,10.8,1.4
		S2675.3,867.6,2675.7,868.5z"/>
	<path class="st1" d="M2686,810.4c-8.9,5.2-16.9,12.2-23.4,20.2c-6.1,8.4-10.3,17.8-13.6,27.6c0-3.3,0.5-6.1,1.4-8.9
		c4.2-14.5,14.1-27.2,26.7-34.7C2679.9,812.3,2683.2,810.9,2686,810.4L2686,810.4z"/>
	<path class="st1" d="M2681.4,802.5c-6.1,5.2-15,5.2-21.6,0c0.5-0.5,4.7,1.4,10.8,1.4S2681.4,802,2681.4,802.5z"/>
	<path class="st1" d="M2688.9,794.5c-0.9-17.8-8.9-34.2-22.5-45.5c2.3,0.9,4.7,2.3,6.6,4.2c9.8,8.4,15.9,20.6,16.4,33.3
		C2689.8,789.3,2689.8,792.1,2688.9,794.5L2688.9,794.5z"/>
	<path class="st1" d="M2682.8,734c0.5,0.5-1.9,4.2-7,6.1c-5.2,1.9-9.4,0.9-9.4,0s4.2-0.5,8.4-2.3S2682.3,733.6,2682.8,734z"/>
	<path class="st1" d="M2668.2,736.8c-2.3-2.3-4.2-5.2-5.2-8.4c-2.3-8-1.9-16.4,0.9-24.4c3.3-7.5,7.5-14.5,13.1-20.2
		c1.9-2.8,4.7-4.7,7.5-6.6c-1.9,2.8-3.7,5.6-6.1,8c-5.2,6.1-9.4,12.7-12.2,20.2c-2.8,7.5-3.3,15-1.9,23
		C2665.9,730.8,2666.8,733.6,2668.2,736.8z"/>
	<path class="st1" d="M2685.1,671.2c-7.5,3.3-16.4,1.4-22-4.2c0.5-0.5,4.7,1.9,10.8,3.3C2679.9,671.7,2685.1,670.3,2685.1,671.2z"/>
	<path class="st1" d="M2703.8,606.6c-3.3,0.9-7,1.4-10.8,0.9c-17.8-1.4-33.7-11.7-42.2-27.6c-1.9-3.3-3.3-6.6-3.7-10.3
		c0.5,0,1.9,3.7,5.2,9.4c8.9,15,23.9,24.8,41.2,27.2C2699.6,606.6,2703.8,606.1,2703.8,606.6L2703.8,606.6z"/>
	<path class="st1" d="M2700.1,630.9c0,0-0.9,0.9-3.3,1.9c-3.3,1.4-6.6,1.4-10.3,0.9c-10.8-2.8-20.6-8.9-27.6-17.8
		c-7-8.4-11.7-19.2-13.1-30c-0.5-3.3-0.5-6.6-0.5-9.8c0-1.4,0-2.3,0.5-3.7c0.5,0,0,5.2,1.4,13.6c1.9,10.8,6.6,20.6,13.6,29.1
		c6.6,8.4,15.5,15,25.8,17.8C2691.7,632.8,2695.9,632.3,2700.1,630.9L2700.1,630.9z"/>
	<path class="st1" d="M2691.7,556.4c-1.4,0.9-2.8,1.9-4.7,2.3c-4.2,1.9-8.9,2.8-13.6,3.3c-7,0.5-14.5,0-21.1-1.9
		c-8.9-2.3-16.9-7-23.4-13.1l1.4,0.5c-5.2,1.9-10.8,2.8-16.4,3.3c-11.2,0.5-22-1.4-31.9-6.6c-8-4.2-15-9.8-20.6-16.9
		c-3.7-4.7-6.6-9.8-8.9-15.5c-0.5-1.4-0.9-3.3-1.4-4.7c0-0.9-0.5-1.9,0-1.9c2.8,7.5,7,14.5,11.7,21.1c12.2,15.5,31.4,23.4,51.1,22.5
		c5.6-0.5,10.8-1.4,15.9-2.8h0.9l0.5,0.5c6.1,6.1,14.1,10.3,22,13.1c6.6,1.9,13.6,2.8,20.6,2.3
		C2679,559.7,2685.6,558.8,2691.7,556.4L2691.7,556.4z"/>
	<path class="st1" d="M2673.4,524.1c-1.4,0.5-3.3,0.9-4.7,0.9c-3.3,0.5-7.5,0.9-13.1,1.4l-19.7,1.4c-8,0.9-16.4,0.9-24.4,0
		c-15-1.9-29.1-7.5-40.8-16.4c-3.7-2.8-7-5.6-9.8-8.9c-0.9-0.9-2.3-2.3-2.8-3.7c0.5-0.5,4.7,5.2,14.1,11.7
		c11.7,8.4,25.8,13.6,40.3,15.5c8,0.5,15.9,0.5,23.9,0l19.7-0.9c5.6-0.5,10.3-0.5,13.1-0.5C2670.6,523.6,2672,523.6,2673.4,524.1z"
		/>
	<path class="st1" d="M2675.7,921.5c-2.8,3.3-7.5,5.2-11.7,5.2c-4.7,0.9-8.9-0.5-12.2-3.7c4.2,0.5,8,0.9,12.2,1.4
		C2667.8,923.4,2671.5,922.4,2675.7,921.5z"/>
	<path class="st1" d="M2665.9,928.5c0-2.3,0.5-5.2,0.5-7.5c0.5-5.6-0.5-11.7-1.9-17.3c-1.9-5.6-4.2-10.8-8-15.5
		c-2.8-3.7-4.7-5.6-4.7-5.6c2.3,0.9,4.2,2.8,6.1,4.7c4.2,4.7,7,9.8,8.9,15.9c1.9,6.1,2.3,12.2,1.4,18.3
		C2668.2,923.8,2667.3,926.2,2665.9,928.5L2665.9,928.5z"/>
	<path class="st11" d="M2826.6,995c-5.6-45.5-12.7-83.9-12.7-83.9h-98.4c0,0,12.2,57.6,9.4,70.8c-2.3,11.7-192.6,19.2-242.3,20.2
		c-2.8-2.3-7,1.4-11.2-1.9c-3.3-2.8-6.1-6.6-8.4-10.3c-2.8-4.7-5.2-9.8-7-15.5c-0.5-2.8-2.8-4.7-5.6-4.7c-1.4,0-2.8,0.9-3.7,2.3
		c-1.9,4.2,0.5,18.3,9.8,31.9c9.4,13.6-15.5,6.6-24.4,4.2s-37.5-8.4-40.3-6.6c-4.2,3.3-1.4,8.9,7.5,10.8
		c8.9,1.9,36.1,10.8,34.2,15.5s-47.3-8.4-47.3-8.4s-9.4-4.2-11.2,0.9c-3.3,9.8,46.4,20.2,51.1,21.1c3.3,0.5,1.9,6.1-1.4,5.2
		s-45.5-14.1-49.2-3.7c-2.8,7.5,40.8,8.9,48.3,16.4c7.5,7.5-32.8-4.2-35.1,3.3c-0.9,2.8,15.9,4.2,39.8,7.5c24.8,2.3,49.7,3.3,74,2.8
		c55.8,3.3,252.6,7,294.8,4.2C2846.8,1074.2,2828.5,1011,2826.6,995L2826.6,995z"/>
	<path class="st9" d="M2175.3,815.6l80.6,236.2h366l-2.8-12.2l-147.6-4.7L2403,815.1L2175.3,815.6L2175.3,815.6z"/>
	<path class="st14" d="M2337.4,926.2c2.3,9.8-1.9,19.2-9.4,21.1c-7.5,1.9-15.5-4.2-17.8-14.1c-2.3-9.8,1.9-19.2,9.4-21.1
		C2327.1,910.2,2335.1,916.8,2337.4,926.2z"/>
	<path class="st0" d="M736.6,1051.3v30.9h943.3V1772h213.2v-689.8h941v-30.9H736.6z"/>
	<path class="st15" d="M1644.8,1788.9l-4.7-236.6l90.4-15l-14.5,250.7L1644.8,1788.9L1644.8,1788.9z"/>
	<path class="st4" d="M1719.8,1789.8v-8.4l-78.7,1.9l0.5,27.6h4.7c21.6,0.5,110.1,2.3,124.2-2.8
		C1786.8,1803.4,1719.8,1789.8,1719.8,1789.8L1719.8,1789.8z"/>
	<path class="st13" d="M1670.1,1809.5c-1.4-6.6-5.2-12.7-10.3-16.4c-5.2-4.2-11.7-6.1-18.3-5.2l0.5,22L1670.1,1809.5z"/>
	<path class="st13" d="M1752.6,1797.3c0,0,23.4,6.1,20.6,10.3c-2.8,4.2-92.3,5.6-131.7,3.3v-1.9l104-1.4
		C1746,1807.6,1747.9,1797.8,1752.6,1797.3L1752.6,1797.3z"/>
	<path class="st0" d="M1640.6,1809h5.2l14.1,0.5h46.9c18.3,0,35.1-0.9,46.9-1.9l14.1-0.9l3.7-0.5h1.4h-5.2l-14.1,0.5
		c-12.2,0.5-28.6,0.9-46.9,1.4c-18.3,0.5-35.1,0.5-46.9,0.5h-18.3L1640.6,1809L1640.6,1809z"/>
	<path class="st0" d="M1746,1809c0.9-4.7,3.3-9.4,7-12.2C1748.4,1798.7,1745.5,1803.9,1746,1809z"/>
	<path class="st0" d="M1722.6,1797.8c0,0,1.4-1.4,2.3-2.8s1.9-3.3,1.4-3.7s-1.4,1.4-2.3,2.8S1722.6,1797.8,1722.6,1797.8z"/>
	<path class="st0" d="M1716.5,1794.5c0,0,1.4-0.5,2.8-1.9c1.4-1.4,2.3-2.3,1.9-2.3c-0.5,0-1.4,0.5-2.8,1.9
		S1716,1794.5,1716.5,1794.5z"/>
	<path class="st0" d="M1712.3,1787.5c1.4,0.5,2.8,0.5,4.2,0.5s2.8,0,4.2-0.5c-1.4-0.5-2.8-0.5-4.2-0.5
		C1714.6,1786.5,1713.2,1787,1712.3,1787.5z"/>
	<path class="st0" d="M1710.4,1782.3c1.4,0.9,2.8,1.4,4.7,1.4c1.4,0.5,3.3,0,4.7-0.9h-4.7
		C1713.7,1782.3,1712.3,1782.3,1710.4,1782.3L1710.4,1782.3z"/>
	<path class="st0" d="M1724.9,1790.7c1.9,0.5,3.3,0.5,5.2,0s3.7-0.5,5.2-1.4l2.8-1.4l1.4-1.4c0-0.9,0-1.4-0.9-1.9
		c-4.2-1.9-8.9-0.5-11.2,2.8c-0.9,0.9-1.4,2.3-1.4,3.3v1.4c0.5-1.4,1.4-2.8,2.3-4.2s2.3-2.3,4.2-2.8c1.9-0.9,4.2-0.5,6.1,0.5
		c0.9,0.5,0.5,1.4-0.5,1.9l-2.8,1.4c-1.9,0.5-3.3,0.9-5.2,1.4C1727.3,1790.7,1724.9,1790.7,1724.9,1790.7L1724.9,1790.7z"/>
	<path class="st0" d="M1726.3,1791.2c0.5-0.9,0.9-2.3,0.5-3.7c0-1.4-0.5-2.3-1.4-3.7c-0.9-1.4-2.3-2.3-4.2-2.3
		c-0.9,0.5-1.9,1.4-1.4,2.3c0,0.9,0.5,1.4,0.9,2.3s1.4,1.9,2.3,2.8S1724.9,1790.7,1726.3,1791.2c-0.5,0-1.4-0.9-2.8-2.3
		c-0.9-0.9-1.4-1.9-2.3-2.8c-0.9-0.9-1.4-2.8,0-3.3s2.3,0.9,3.3,1.9c0.9,0.9,1.4,1.9,1.4,3.3
		C1726.3,1788.9,1726.3,1789.8,1726.3,1791.2L1726.3,1791.2z"/>
	<path class="st0" d="M1641.5,1787.9h5.6c4.7,0.5,8.9,1.9,12.7,4.7c3.7,2.8,6.6,6.6,8,10.8c1.4,3.3,1.4,5.6,1.9,5.6v-1.4
		c0-1.4-0.5-2.8-0.9-4.2c-1.4-4.7-4.2-8.4-8.4-11.7c-3.7-2.8-8.4-4.7-13.1-4.7h-4.2C1642.9,1787,1642,1787.5,1641.5,1787.9
		L1641.5,1787.9z"/>
	<path class="st0" d="M1679.9,1802c7.5,1.4,15.5,0.9,23-0.5c0-0.5-5.2,0-11.2,0C1685.6,1801.5,1679.9,1801.5,1679.9,1802z"/>
	<path class="st0" d="M1664.5,1802c0,0,0.5,0.9,0.9,2.3s0.9,2.3,0.9,2.3s0.5-1.4-0.5-2.3C1664.9,1803.4,1664.5,1802,1664.5,1802
		L1664.5,1802z"/>
	<path class="st0" d="M1658.4,1795l0.9,1.9c0.5,0.9,1.9,1.4,1.9,0.9s-0.5-0.9-0.9-1.9S1658.9,1795,1658.4,1795z"/>
	<path class="st0" d="M1650,1792.1c0,0.5,0.9,0,2.3,0.5s1.9,0.9,2.3,0.9s-0.5-1.4-1.9-1.9S1650,1791.7,1650,1792.1L1650,1792.1z"/>
	<path class="st0" d="M1644.3,1790.7l0.9,0.9c0.5,0.5,1.4,0,1.4,0l-0.9-0.9C1645.3,1790.3,1644.3,1790.3,1644.3,1790.7z"/>
	<path class="st10" d="M1744.1,1787.5l-6.1-239.9l90.9-10.3l-11.7,249.3L1744.1,1787.5z"/>
	<path class="st4" d="M1501.4,1115.5c88.6,0.5,177.6,0.9,265.7,9.4c35.1,3.3,73.1,8.9,97.9,34.7c23,23.9,28.1,59,32.3,91.8
		l38.9,300.4c-122.8,12.7-246.5,8.4-368.3-11.7c0.9-74.5,1.9-149,2.3-223.5l1.9-35.1l-136.8-9.4L1501.4,1115.5L1501.4,1115.5z"/>
	<path class="st5" d="M1803.2,1231.7c5.2-15,11.7-29.1,19.7-42.6C1817.7,1204,1811.2,1218.1,1803.2,1231.7z"/>
	<path class="st5" d="M1847.2,1332.4c-5.2-4.7-9.4-9.8-13.1-15.5c-4.2-5.2-8.4-10.8-11.2-16.9c5.2,4.7,9.4,9.8,13.1,15.5
		C1840.2,1320.7,1844,1326.4,1847.2,1332.4z"/>
	<path class="st5" d="M1831.3,1391.5c-8,9.4-16.9,18.3-27.2,25.3c3.7-5.2,8-9.8,12.7-13.6
		C1821.5,1398.5,1826.1,1394.8,1831.3,1391.5L1831.3,1391.5z"/>
	<path class="st5" d="M1897.4,1451c-4.7-12.7-8-25.8-9.8-38.9C1892.2,1424.8,1895.5,1437.9,1897.4,1451z"/>
	<path class="st5" d="M1842.1,1514.3c-2.8-5.2-5.2-10.3-7-15.9c-2.3-5.2-3.7-10.8-4.7-16.9C1836,1491.8,1839.7,1502.5,1842.1,1514.3
		z"/>
	<path class="st5" d="M1772.3,1351.7c-0.5,7-1.4,13.6-3.7,20.2c-1.4,6.6-3.3,13.6-6.1,19.7
		C1764.3,1377.9,1767.6,1364.3,1772.3,1351.7L1772.3,1351.7z"/>
	<path class="st0" d="M2043.6,1024.1v17.8h-360.8v-17.8H2043.6z"/>
	<path class="st0" d="M2099.8,1041.9l67.5-253.5h-281.6l-61.4,253.5H2099.8L2099.8,1041.9z"/>
	<path class="st16" d="M1841.1,1022.7h251.6l58.6-222.6h-253L1841.1,1022.7z"/>
	<path class="st9" d="M1904.9,843.2l-15.9,62.8h167.3l17.8-62.8H1904.9z"/>
	<path class="st1" d="M2038.4,834.8c0,0.5-29.1,1.4-65.6,1.4s-65.6-0.5-65.6-1.4s29.1-1.4,65.6-1.4S2038.4,834.3,2038.4,834.8z"/>
	<path class="st0" d="M1962.5,854.9c-17.3,1.4-35.1,1.4-52.5,0C1927.4,853.5,1945.2,853.5,1962.5,854.9z"/>
	<path class="st0" d="M2004.7,854c-11.2,1.4-23,1.4-34.2,0C1981.7,852.6,1993.4,852.6,2004.7,854z"/>
	<path class="st1" d="M2052.5,866.7c0,0.5-32.3,1.4-72.2,1.4c-39.8,0-72.2-0.5-72.2-1.4s32.3-1.4,72.2-1.4
		C2020.2,865.2,2052.5,865.7,2052.5,866.7z"/>
	<path class="st17" d="M1952.2,877c-15.5,1.4-31.4,1.4-46.9,0C1920.8,875.6,1936.7,875.6,1952.2,877z"/>
	<path class="st1" d="M2039.8,892c0,0.5-30,1.4-67,1.4s-67-0.5-67-1.4s30-1.4,67-1.4S2039.8,891,2039.8,892z"/>
	<path class="st1" d="M1941.4,924.3c-17.3,1.4-34.2,1.4-51.5,0C1906.7,922.4,1924.1,922.4,1941.4,924.3z"/>
	<path class="st0" d="M1985.5,924.3c-11.7,1.4-23.4,1.4-35.1-0.5C1962,922.4,1973.8,922.9,1985.5,924.3z"/>
	<path class="st0" d="M2010.3,923.4c0,0.5-3.3,1.4-7.5,1.4s-7.5-0.5-7.5-1.4s3.3-1.4,7.5-1.4S2010.3,922.4,2010.3,923.4z"/>
	<path class="st17" d="M1906.7,937.4c0,0.5-3.7,1.4-8.4,1.4c-4.7,0-8.4-0.5-8.4-1.4c0-0.9,3.7-1.4,8.4-1.4
		C1903,936,1906.7,936.5,1906.7,937.4z"/>
	<path class="st0" d="M1956,937.4c-13.1,1.4-26.2,1.4-39.4,0C1929.7,936,1943.3,936,1956,937.4z"/>
	<path class="st1" d="M2073.6,935.5c0,0.5-23.4,1.4-52.5,1.4s-52.5-0.5-52.5-1.4s23.4-1.4,52.5-1.4S2073.6,935.1,2073.6,935.5z"/>
	<path class="st0" d="M1904.4,950.5c0,0.5-3.7,1.4-8.4,1.4c-4.7,0-8.4-0.5-8.4-1.4s3.7-1.4,8.4-1.4
		C1900.7,949.1,1904.4,950.1,1904.4,950.5z"/>
	<path class="st0" d="M1930.2,950.1c-3.3,1.4-6.6,1.4-10.3,1.4c-3.3,0.5-7,0-10.3-1.4c3.3-1.4,6.6-1.4,10.3-1.4
		C1923.6,948.7,1926.9,949.1,1930.2,950.1z"/>
	<path class="st1" d="M2007.5,949.1c-22,1.4-44,1.4-66.1,0C1963.4,947.7,1985.5,947.7,2007.5,949.1z"/>
	<path class="st1" d="M1966.7,972.6c-13.1,1.4-26.7,1.9-39.8,1.4c-13.1,0.5-26.7,0-39.8-1.4c13.1-1.4,26.7-1.4,39.8-1.4
		C1940,970.7,1953.1,971.2,1966.7,972.6z"/>
	<path class="st17" d="M2013.1,971.6c-12.2,1.4-24.4,1.4-36.6,0C1989.2,969.7,2001.4,969.7,2013.1,971.6z"/>
	<path class="st0" d="M2082.5,971.6c-20.1,1.4-40.3,1.4-60,0C2042.6,969.7,2062.8,969.7,2082.5,971.6z"/>
	<path class="st0" d="M2066.5,833.8c0,0.5-2.8,1.4-6.1,1.4c-3.3,0-6.1-0.5-6.1-1.4s2.8-1.4,6.1-1.4
		C2063.7,832.4,2066.5,832.9,2066.5,833.8z"/>
	<path class="st17" d="M1939.6,825.4c-8.9,1.4-18.3,1.4-27.2,0C1921.3,823.5,1930.6,823.5,1939.6,825.4z"/>
	<path class="st18" d="M2147.1,816h-253l4.2-15.9h253L2147.1,816z"/>
	<path class="st5" d="M1911.9,808.1c0,1.4-1.4,2.8-2.8,2.8s-2.8-1.4-2.8-2.8s1.4-2.8,2.8-2.8S1911.9,806.7,1911.9,808.1z"/>
	<path class="st5" d="M1921.7,808.1c0,1.4-1.4,2.8-2.8,2.8s-2.8-1.4-2.8-2.8s1.4-2.8,2.8-2.8S1921.7,806.7,1921.7,808.1z"/>
	<path class="st5" d="M1931.1,808.1c0,1.4-1.4,2.8-2.8,2.8c-1.4,0-2.8-1.4-2.8-2.8s1.4-2.8,2.8-2.8
		C1929.7,805.3,1931.1,806.7,1931.1,808.1z"/>
	<path class="st10" d="M1628.4,909.3l36.1,108.7c9.8,29.5,35.6,34.7,66.5,34.7h201v-45l-183.7-26.2l-44-112L1628.4,909.3z"/>
	<path class="st10" d="M1953.6,998.3l15.9-7.5c0,0,17.3-33.3,21.1-31.9c3.7,1.4,5.2,11.2-1.9,26.2l21.1-6.1c0,0,45.9,21.1,44,23.9
		c-2.3,5.6-8.4,8-14.1,5.6c-0.5-0.5-1.4-0.5-1.9-0.9c-9.8-5.2-23-11.2-23-11.2l-24.8,7l31.9,4.2l30,27.2c-5.6,4.2-13.1,4.2-18.3-0.5
		l-77.8,16.9l-24.4,1.4v-45L1953.6,998.3z"/>
	<path class="st15" d="M2034.2,1034.4c-0.5,0-1.9-2.3-4.7-5.2c-1.9-1.9-3.7-3.3-5.6-4.2c-2.8-1.4-5.6-1.9-8.4-2.3
		c-8-0.5-15.9-1.9-23.4-4.2c8-0.5,15.9,0.5,23.9,1.4c3.3,0.5,6.6,0.9,9.4,2.8c2.3,1.4,4.2,3.3,5.6,5.2
		C2032.3,1029.7,2033.7,1032.1,2034.2,1034.4L2034.2,1034.4z"/>
	<path class="st15" d="M2022,1037.7c-0.5,0-0.5-1.4-2.8-1.9c-2.3-0.5-5.6-0.9-9.4-1.4c-4.7,0-9.4-0.5-13.6-1.4
		c4.7-1.4,9.4-1.9,14.1-0.9c3.3,0.5,6.6,0.9,9.8,1.9c0.9,0.5,1.9,1.4,2.3,2.3C2022.5,1037.2,2022,1037.7,2022,1037.7z"/>
	<path class="st10" d="M1482.7,509.1l-10.8,221.2l94.7,8.9l5.2-53.4c0,0,33.3,8.4,43.6-22.5c6.6-19.7,12.2-174.3,12.2-174.3
		L1482.7,509.1L1482.7,509.1z"/>
	<path class="st0" d="M1635.4,514.3c2.3,20.6-26.2,32.8-26.2,32.8l-5.2,48.7c-4.7-0.5-8.9-0.5-13.6,0c2.3-23-27.2-18.3-30-2.8
		s14.1,25.3,14.1,25.3c-11.7,18.3-16.4,27.6-33.3,45c-18.3,18.3-28.1,19.7-46.9,19.2l-20.6-0.9c0,0-7.5-17.8-12.7-59.5
		c-2.8-20.2-18.3-46.4-14.1-79.2c12.7-92.8,101.7-82.9,101.7-82.9C1594.7,461.3,1629.3,466,1635.4,514.3L1635.4,514.3z"/>
	<path class="st0" d="M1567.5,462.7c20.2,0.5,40.8,1.9,58.6,11.7c17.8,9.8,31.9,35.6,28.1,55.3c-3.3,0.5-7,1.9-10.3,2.8
		c-1.4-2.3-2.8-11.7-4.7-14.1c0,4.2-1.4,12.7-0.9,16.9c-5.6,1.9-10.3-1.9-16.4,0c-2.8-15-8-29.5-15.5-42.6"/>
	<path class="st4" d="M1635.4,927.1l18.3,59l108.7-25.8c-3.7-10.8-33.7-80.1-64.7-157.9c-17.3-43.1-55.8-74-101.7-82
		c-30.9-5.6-62.3-8.9-93.7-9.4c-54.8,0.5-126.1,23.9-137.3,77.8c-8.4,41.2,10.3,108.2,10.3,196.8l-13.1,185.6l273.2,9.4l-27.6-162.6
		L1635.4,927.1L1635.4,927.1z"/>
	<path class="st6" d="M1355.2,964.1c34.2,7,69.4,0,104.5-2.3c21.1-1.4,44.5-3.7,61.4,9.4c13.1,10.3,18.7,27.6,22.5,44
		c8.4,35.6,14.1,109.2,17.8,177.6c2.8,46.4,30,87.6,71.2,108.2c10.8,5.6,39.8,5.6,39.8,9.4l-280.2,11.7L1355.2,964.1z"/>
	<path class="st1" d="M1554.8,1333.9v410.5h-34.2v-410.5H1554.8z"/>
	<path class="st1" d="M1233.4,935.5v302.3c0,39.8,32.3,71.7,71.7,71.7h201.5V935.5c0-17.8-14.5-31.9-31.9-31.9h-209.5
		C1247.4,903.7,1233.4,917.7,1233.4,935.5L1233.4,935.5z"/>
	<path class="st1" d="M1777.4,1333.9h-490.6c0-29.5,23.9-53.4,53.4-53.4H1724C1753.5,1280.9,1777.4,1304.8,1777.4,1333.9z"/>
	<path class="st0" d="M1506.6,1273.9v2.3c0,2.3-0.5,4.2-0.9,6.6c-3.3,14.1-14.5,24.8-28.6,27.2c-6.6,0.5-13.1,0.9-19.2,0.9h-44
		c-31.4,0-59.5,0-80.1-0.5l-24.4-0.5h-6.6c-0.9,0-1.4,0-2.3-0.5c0.9,0,1.4-0.5,2.3,0h6.6l24.4-0.5c20.6-0.5,48.7-0.5,80.1-0.5h44
		c6.6,0.5,12.7,0,19.2-0.5c5.2-0.9,10.3-3.3,15-6.1c6.6-4.7,11.2-11.7,13.1-19.2C1506.1,1277.1,1506.1,1273.9,1506.6,1273.9
		L1506.6,1273.9z"/>
	<path class="st0" d="M1567.9,1335.3c-20.1,1.9-40.3,1.9-60,0C1528.1,1333.4,1548.3,1333.4,1567.9,1335.3z"/>
	<path class="st1" d="M1717.4,1312.3c-1.4-4.7-2.3-9.4-2.8-14.5c-1.9-9.4-3.7-23-6.6-39.4c-2.8-16.4-4.7-37-14.1-57.2
		c-4.7-10.3-10.8-20.2-18.3-29.1c-8-9.4-16.9-17.8-27.2-24.8c-10.3-7-21.6-12.2-33.3-15.9c-10.8-3.3-22.5-5.6-33.7-5.6
		c-22-0.5-42.2-0.5-59-0.5c-16.9,0-30.5-0.5-39.8-0.9c-5.2,0-9.8,0-14.5-0.9c4.7-0.9,9.8-0.9,14.5-0.9c9.4-0.5,23-0.5,39.8-0.9
		c16.9-0.5,37-0.5,59.5-0.5c11.7,0.5,23.9,2.3,35.1,5.6c12.2,3.7,23.9,9.4,34.7,16.4c10.8,7,20.2,15.9,28.1,25.8
		c7.5,9.4,13.6,19.7,18.7,30.5c0.9,2.8,1.9,5.2,2.8,8c0.5,1.4,0.9,2.3,1.4,3.7l0.9,3.7c0.5,2.8,1.4,5.2,2.3,7.5
		c0.9,2.3,0.9,5.2,1.4,7.5c1.9,9.8,2.8,19.2,3.7,27.6c2.3,16.9,3.7,30.5,4.7,39.8C1717,1302.5,1717.4,1307.1,1717.4,1312.3
		L1717.4,1312.3z"/>
	<path class="st1" d="M1687.9,1781.8h-4.7c0-80.6-65.6-145.7-145.7-145.7c-80.6,0-145.7,65.1-145.7,145.7h-4.7
		c0-83.4,67.5-150.9,150.9-150.9C1621.4,1630.9,1688.4,1698.9,1687.9,1781.8z"/>
	<path class="st0" d="M1411.4,1789.3c0,12.7-10.3,22.5-22.5,22.5c-12.7,0-22.5-10.3-22.5-22.5c0-12.7,10.3-22.5,22.5-22.5
		C1401.1,1766.8,1411.4,1777.2,1411.4,1789.3z"/>
	<path class="st0" d="M1709,1786.1c0,12.7-10.3,22.5-22.5,22.5c-12.7,0-22.5-10.3-22.5-22.5c0-12.7,10.3-22.5,22.5-22.5
		C1698.7,1763.6,1709,1773.9,1709,1786.1z"/>
	<path class="st1" d="M1686.5,1744.8c0,0.5-65.6,1.4-146.2,1.4c-80.6,0-146.7-0.5-146.7-1.4s65.6-1.4,146.7-1.4
		C1621.4,1743.4,1686.5,1743.9,1686.5,1744.8z"/>
	<path class="st0" d="M1477,681.6c18.7,0.9,37.5,0.5,55.8-1.9c21.1-3.7,40.8-12.7,57.2-26.2c9.4-8.9,11.7-13.1,12.2-31.4l1.4-26.2
		l-26.7-72.6l-67.9-5.6l-63.3,28.6l-5.6,95.6c-1.4,20.6,14.1,38.4,34.7,39.8H1477L1477,681.6z"/>
	<path class="st0" d="M1597.5,633.3c0,10.8-9.8,18.7-18.7,24.8c-8.9,6.1-19.2,12.2-22,23c-5.2,20.6,21.1,36.1,23.9,56.7
		c1.9,15.5-9.4,28.6-16.4,42.2c-11.7,23-12.7,50.1-2.3,74c-28.6,2.3-57.6,5.2-86.2,6.1l-19.7-38.9l-15,39.4
		c-25.3,0-50.6-2.3-75.4-6.1c15-11.7,15.9-33.3,15-52.5c-0.9-19.2-4.7-52.5,8-66.5c8.9-9.8,22-14.1,30.9-23.4
		c13.1-13.6,6.6-19.2,0.5-34.2c-7.5-17.8-9.4-37-6.6-55.8c2.8-18.7,14.5-34.7,23.9-51.1s9.8-28.1,15-51.1"/>
	<path class="st0" d="M1447,517.5c-10.3,18.7-29.1,31.4-50.6,33.7c9.8,6.6,22,8,33.3,4.7c-9.4,8.9-20.2,15-32.3,18.7
		c4.2,10.3,16.4,15,27.6,15.9c20.1,1.4,39.8-5.2,55.3-18.3c20.6-19.7,27.2-50.1,16.9-76.9"/>
	<path class="st0" d="M1467.2,512.9c10.3,0,19.7-6.6,23.4-15.9c3.7-9.4,3.7-20.2,0.5-29.5c-1.9-8.9-7.5-16.9-15.9-21.6
		c-9.8-4.7-22-0.9-30.9,5.6c-10.3,7.5-17.3,19.2-18.7,32.3c-1.4,13.1,4.2,25.8,15,33.7c10.8,7.5,25.3,7,36.1-0.5"/>
	<path class="st1" d="M1409.6,586c7.5,1.9,15.5,3.3,23,3.3c8.4,0,16.9-1.9,24.4-4.7c19.7-7,34.7-23,40.3-43.1
		c2.3-8,3.3-16.4,2.8-24.8c-0.5-8-2.3-15.5-4.7-23c0,0,0.5,0.5,0.9,1.4c0.9,1.4,1.4,2.8,1.9,4.2c1.9,5.6,3.3,11.2,3.7,16.9
		c0.9,8.4,0,17.3-2.8,25.8c-2.8,10.3-8.4,19.7-15.5,27.6c-7.5,7.5-16.4,13.6-26.2,16.9c-8,2.8-16.9,4.2-25.3,4.2
		c-5.6,0-11.7-0.9-16.9-2.8c-1.4-0.5-3.3-0.9-4.7-1.4C1410,586.4,1410,586.4,1409.6,586L1409.6,586z"/>
	<path class="st1" d="M1447,565.3c15.9-8.9,27.6-23.9,31.9-41.7c0.5,2.8,0,5.6-0.9,8c-3.3,13.1-11.7,23.9-23.4,30.5
		C1452.2,563.5,1449.9,564.9,1447,565.3L1447,565.3z"/>
	<path class="st1" d="M1431.1,474c0.5-1.4,0.9-2.3,1.9-3.7c2.3-3.3,5.2-5.6,8.4-7.5c4.7-2.8,10.3-4.2,15.9-4.2
		c7,0,13.6,2.3,19.2,6.6c5.6,4.2,9.8,9.8,12.7,15.9c1.9,5.2,3.3,10.8,3.3,16.4c0,3.7-0.5,7.5-1.4,11.2c-0.5,1.4-0.9,2.8-1.4,3.7
		c0.5-5.2,0.9-9.8,0.9-15c0-5.2-1.4-10.8-3.7-15.5c-2.3-6.1-6.6-11.2-11.7-15c-5.2-3.7-11.2-6.1-17.8-6.6c-5.2,0-10.8,0.9-15,3.7
		C1437.7,466.5,1433.9,469.7,1431.1,474L1431.1,474z"/>
	<path class="st1" d="M1501.4,508.2c0.5,0,3.7,6.6,9.8,16.4c3.7,5.6,8,11.2,13.1,15.9c6.1,5.6,13.6,9.4,22,11.2
		c8.4,1.4,16.9,2.3,25.3,2.3c7,0.5,13.6,0.5,20.6-0.5c6.1-0.9,12.2-3.3,17.8-6.6c-0.9,1.4-2.3,2.3-4.2,3.3
		c-4.2,2.3-8.4,3.7-13.6,4.7c-7,0.9-14.1,1.4-21.1,0.9c-8.4,0-17.3-0.9-25.8-2.3c-8.4-1.9-16.4-6.1-23-11.7
		c-5.2-4.7-9.4-10.3-12.7-16.4c-2.8-5.2-5.2-9.4-6.6-12.7C1502.3,511.4,1501.9,509.6,1501.4,508.2L1501.4,508.2z"/>
	<path class="st1" d="M1501.4,508.2c0.9,1.9,1.9,3.3,2.3,5.2c1.4,3.3,3.7,8.4,7,14.5c3.3,6.1,7,13.1,11.2,21.1
		c4.7,8.4,9.8,16.9,15.9,24.4c6.1,7.5,13.6,14.1,21.6,18.7c13.1,7.5,29.1,9.8,43.6,6.1c0,0-0.5,0.5-1.4,0.5l-4.2,1.4
		c-5.2,1.4-10.8,1.4-16.4,0.9c-8-0.9-15.9-3.3-23-7c-8.4-4.7-16.4-11.2-22.5-18.7c-6.1-7.5-11.2-15.9-15.9-24.8
		c-4.2-8-8-15-10.8-21.1c-2.8-6.1-5.2-11.2-6.6-15C1501.9,512.4,1501.4,510,1501.4,508.2L1501.4,508.2z"/>
	<path class="st1" d="M1491.6,501.6c1.4-1.9,3.3-3.3,5.2-4.7c4.7-3.7,9.8-7,15-10.3c8-4.2,16.4-8,25.3-9.8c10.8-2.8,22-3.3,33.3-1.4
		c11.2,1.9,21.6,6.6,30.5,13.6c7,5.6,12.7,13.1,16.4,21.6c2.3,5.6,3.7,11.7,4.2,17.8v5.2c0,0.9,0,1.9-0.5,1.9
		c0-8.4-1.9-16.4-5.2-23.9c-3.7-8-9.4-15-16.4-20.6c-8.4-6.6-18.7-11.2-29.5-12.7c-10.8-1.9-21.6-1.4-32.3,0.9
		c-8.4,1.9-16.9,5.2-24.8,9.4c-5.2,2.8-10.3,6.1-15.5,9.4C1495.8,499.3,1493.9,500.2,1491.6,501.6L1491.6,501.6z"/>
	<path class="st1" d="M1551.1,460.4c-20.6,2.8-39.4,13.6-52.5,29.1c1.4-2.8,2.8-5.6,5.2-7.5c4.7-5.6,10.8-10.3,17.3-14.1
		c6.6-3.7,13.6-6.1,21.1-7.5C1545,459.9,1548.3,459.9,1551.1,460.4L1551.1,460.4z"/>
	<path class="st17" d="M1452.2,523.2c4.2,0.9,8,0.9,12.2,0.9c18.3-0.5,32.8-15.5,32.3-34.2c0-2.3-0.5-4.2-0.9-6.6
		c-0.9-4.2-2.3-8-4.2-11.7c0.9,0.9,1.4,1.9,2.3,2.8c1.4,2.8,2.8,5.6,3.7,8.4c4.7,17.8-6.1,36.6-23.9,41.2c-3.3,0.9-6.1,1.4-9.4,0.9
		c-3.3,0-6.6-0.5-9.4-1.4C1454.1,524.1,1453.1,523.6,1452.2,523.2L1452.2,523.2z"/>
	<path class="st1" d="M1495.8,855.9c-0.5-0.9-0.9-1.9-1.4-3.3c-0.9-2.3-2.3-5.2-4.2-9.4c-4.7-11.7-8.4-23.9-11.2-36.1
		c-1.4-8.4-1.9-17.3-0.9-26.2c0.9-10.3,3.7-20.2,9.4-28.6c5.6-8.9,13.6-17.3,15.9-28.1s-2.3-22.5-8.4-32.8
		c-2.8-5.2-6.1-10.3-9.4-15.5c-2.8-5.2-5.6-10.3-7.5-15.9c-4.7-10.3-6.6-21.6-5.2-32.8c1.9-9.8,6.1-19.2,12.7-27.2
		c5.6-6.6,9.8-14.1,13.1-22c2.3-6.6,4.2-13.6,4.7-20.6c0.5-5.2,0.9-10.8,0.9-15.9v-14.1c0,1.4,0.5,2.3,0.5,3.7
		c0,2.3,0.5,5.6,0.5,10.3c0,5.6,0,10.8-0.5,16.4c-0.5,7-2.3,14.5-4.7,21.1c-3.3,8-8,15.5-13.1,22.5c-6.1,7.5-10.3,16.9-12.2,26.2
		c-0.9,10.8,0.9,21.6,5.2,31.9c2.3,5.2,4.7,10.3,7.5,15.5c2.8,5.2,6.1,10.3,9.4,15.5c3.3,5.2,5.6,10.8,7.5,16.9
		c1.9,5.6,2.3,11.7,0.9,17.8c-1.4,5.6-3.7,10.8-7,15.9c-3.3,4.7-6.6,8.9-9.4,13.1c-5.2,8.4-8,17.8-8.9,27.6
		c-0.9,8.4-0.5,17.3,0.9,25.8c2.3,12.2,5.6,24.4,10.3,36.1c1.4,4.2,2.8,7,3.7,9.4C1495.3,853.5,1495.8,854.9,1495.8,855.9
		L1495.8,855.9z"/>
	<path class="st0" d="M1459.7,586.4c-0.5,0.9-0.9,1.9-1.9,2.8l-5.2,7c-6.1,8.4-11.2,18.3-15,28.1c-2.3,7-3.3,14.1-3.3,21.6
		c0,4.2,0.9,8,2.3,11.7c1.4,4.2,3.3,8,5.2,11.7c4.2,8,9.8,15.9,10.3,26.7c0,5.2-0.9,10.3-3.7,15c-2.3,4.7-5.6,8.9-9.4,12.7
		c-7.5,6.6-15,13.6-21.6,21.1c-5.6,7.5-8.4,16.4-8.9,25.3c-0.5,8.4,0.5,16.9,1.9,25.3c1.4,7.5,1.9,14.5,2.3,22
		c0.9,10.8-1.9,22-8,30.9c-1.9,2.3-3.7,4.7-6.1,6.6c-0.5,0.5-1.4,0.9-1.9,1.4l-0.5,0.5c2.8-2.3,5.6-5.6,8-8.9c5.6-9.4,8-19.7,7-30.5
		c-0.5-7.5-1.4-14.5-2.8-22c-1.4-8.4-2.3-16.9-1.9-25.8c0-9.8,3.3-19.2,9.4-26.7c6.6-7.5,14.1-14.5,21.6-21.1
		c7-7,13.1-15.9,12.7-25.8c-0.5-9.8-5.6-17.8-9.8-25.3c-2.3-3.7-4.2-8-5.6-12.2c-1.4-4.2-1.9-8.4-2.3-12.2c-0.5-7.5,0.9-15,3.3-22.5
		c3.7-10.3,9.4-19.7,15.9-28.1c2.3-2.8,4.2-5.2,5.2-7C1458.3,587.8,1458.8,586.9,1459.7,586.4L1459.7,586.4z"/>
	<path class="st1" d="M1547.8,853.1c0,0-0.5,0-0.9-0.5c-0.9-0.5-1.4-0.9-2.3-1.4c-2.8-1.9-5.2-4.7-7-7.5
		c-6.6-11.2-8.4-23.9-5.2-36.6c1.9-8.4,4.2-16.9,7.5-24.8c3.7-8.9,6.1-18.3,7.5-28.1c1.4-10.8,0.9-21.6-1.9-31.9
		c-2.8-11.2-7.5-22-14.1-31.4c-7-9.8-12.2-20.2-15.5-31.9c-2.3-10.8-3.3-22-2.3-32.8c1.4-21.1,5.6-39.4,5.2-54.8
		c0.5-12.2-2.3-24.8-7.5-35.6c-2.3-3.7-4.7-7.5-7.5-11.2c3.3,3.3,6.1,6.6,8.4,10.8c5.6,11.2,8.4,23.9,8.4,36.1
		c0.5,15.9-3.3,34.7-4.7,55.3c-0.9,10.8,0,21.6,2.3,31.9c3.3,11.2,8.4,21.6,15.5,30.9c6.6,9.8,11.2,20.6,14.1,32.3
		c2.3,10.8,3.3,22,1.9,32.8c-1.4,9.8-4.2,19.2-8,28.6c-3.3,8-5.6,15.9-7.5,24.4c-3.3,12.2-1.4,24.8,4.2,35.6
		C1540.3,847,1543.6,850.3,1547.8,853.1L1547.8,853.1z"/>
	<path class="st4" d="M1821,1789.8v-8.4l-78.7,1.9l0.5,27.6h4.7c21.6,0.5,110.1,1.9,124.2-2.8C1888,1803.4,1821,1789.8,1821,1789.8
		L1821,1789.8z"/>
	<path class="st13" d="M1770.9,1809.5c-1.4-6.6-5.2-12.7-10.3-16.4c-5.2-4.2-11.7-6.1-18.3-5.2l0.5,22L1770.9,1809.5z"/>
	<path class="st13" d="M1853.8,1797.3c0,0,23.4,6.1,20.6,9.8c-2.8,3.7-92.3,6.1-131.7,3.3v-1.4l104-1.4
		C1846.8,1807.6,1849.1,1797.8,1853.8,1797.3L1853.8,1797.3z"/>
	<path class="st0" d="M1741.3,1809h5.2l14.1,0.5h46.9c18.3,0,35.1-0.9,46.9-1.9l14.1-0.9l3.7-0.5h1.4h-5.2l-14.1,0.5
		c-12.2,0.5-28.6,0.9-46.9,1.4c-18.3,0.5-35.1,0.5-46.9,0.5h-18.3C1742.3,1808.5,1741.8,1809,1741.3,1809L1741.3,1809z"/>
	<path class="st0" d="M1846.8,1809c0.5-2.3,1.4-4.7,2.3-7c1.4-1.9,2.8-3.7,4.7-5.6C1849.6,1798.7,1846.3,1803.9,1846.8,1809z"/>
	<path class="st0" d="M1823.8,1797.8c0,0,1.4-1.4,2.3-2.8c0.9-0.9,1.4-2.3,1.4-3.7c0,0-1.4,1.4-2.3,2.8
		C1824.3,1795,1823.8,1796.4,1823.8,1797.8z"/>
	<path class="st0" d="M1817.2,1794.5c0,0,1.4-0.5,2.8-1.9s2.3-2.3,1.9-2.3s-1.4,0.5-2.8,1.9S1817.2,1794.5,1817.2,1794.5z"/>
	<path class="st0" d="M1813,1787c-9.8,2.3-15.5,12.2-13.1,21.6c2.3,9.8,12.2,15.5,21.6,13.1c9.8-2.3,15.5-12.2,13.1-21.6
		c-1.9-8-9.4-13.6-17.8-13.6C1815.8,1786.5,1814.4,1786.5,1813,1787L1813,1787z"/>
	<path class="st0" d="M1811.6,1781.8c1.4,0.9,2.8,1.4,4.7,1.4c1.4,0,3.3,0,4.7-0.9h-4.7C1814.9,1782.3,1813,1781.8,1811.6,1781.8
		L1811.6,1781.8z"/>
	<path class="st0" d="M1826.1,1790.7c1.9,0.5,3.3,0.5,5.2,0s3.7-0.5,5.2-1.4l2.8-1.4c0.5-0.5,0.9-0.9,0.9-1.4c0-0.9,0-1.4-0.9-1.9
		c-4.2-1.9-8.9-0.5-11.2,2.8c-0.9,0.9-1.4,2.3-1.4,3.3v1.4c0.5-1.4,1.4-3.3,2.3-4.2c0.9-1.4,2.8-2.3,4.2-2.8
		c1.9-0.5,4.2-0.5,6.1,0.5c0.9,0.5,0.5,1.4-0.5,1.9l-2.8,1.4c-1.9,0.5-3.3,0.9-5.2,1.4C1828,1790.7,1826.1,1790.7,1826.1,1790.7
		L1826.1,1790.7z"/>
	<path class="st0" d="M1827.6,1791.2c0.5-0.9,0.9-2.3,0.5-3.7c0-1.4-0.9-2.3-1.4-3.7c-0.9-1.4-2.3-2.3-4.2-2.3
		c-0.9,0.5-1.9,1.4-1.4,2.3c0,0.9,0.5,1.4,0.9,2.3s1.4,1.9,2.3,2.8C1824.7,1789.8,1825.7,1790.7,1827.6,1791.2
		c-0.5,0-1.4-0.9-2.8-2.3c-0.9-0.9-1.4-1.9-2.3-2.8c-0.5-0.9-1.4-2.8,0-3.3s2.3,0.9,3.3,1.9c0.9,0.9,1.4,1.9,1.4,3.3
		C1827.6,1788.9,1827.6,1789.8,1827.6,1791.2L1827.6,1791.2z"/>
	<path class="st0" d="M1742.7,1787.5h5.6c9.4,0.9,17.3,7,21.1,15.9c1.4,3.3,1.4,5.6,1.4,5.6v-1.4c0-1.4-0.5-2.8-0.9-4.2
		c-1.4-4.7-4.2-8.4-8-11.7c-3.7-2.8-8.4-4.7-13.1-4.7h-4.2C1743.7,1787,1743.2,1787.5,1742.7,1787.5L1742.7,1787.5z"/>
	<path class="st0" d="M1780.7,1801.5c3.7,0.9,7.5,0.9,11.2,0.9s7.5-0.5,11.2-0.9c0-0.5-5.2,0-11.2,0H1780.7z"/>
	<path class="st0" d="M1765.2,1802c0,0,0.5,0.9,0.9,2.3s0.9,2.3,0.9,2.3s0.5-1.4,0-2.3C1766.6,1803.4,1765.7,1802,1765.2,1802
		L1765.2,1802z"/>
	<path class="st0" d="M1759.6,1795l0.9,1.9c0.5,0.9,1.9,1.4,1.9,0.9s-0.5-0.9-0.9-1.9S1759.6,1795,1759.6,1795z"/>
	<path class="st0" d="M1751.2,1791.7c0,0.5,0.9,0,2.3,0.5s1.9,0.9,2.3,0.9s-0.5-1.4-1.9-1.9S1751.2,1791.7,1751.2,1791.7
		L1751.2,1791.7z"/>
	<path class="st0" d="M1745.1,1790.3l0.9,0.9c0.5,0.5,1.4,0,1.4,0l-0.9-0.9C1746,1789.8,1745.1,1790.3,1745.1,1790.3z"/>
	<path class="st0" d="M1710.9,1522.7c-0.5,0,1.9-42.2,5.2-93.7c3.3-51.5,7-93.3,7.5-93.3s-1.9,42.2-5.2,93.7
		C1715.1,1481,1711.3,1522.7,1710.9,1522.7z"/>
	<path class="st0" d="M1755.9,1533.5c-0.5-2.3-0.9-5.2-0.9-7.5c-0.5-5.6-0.9-12.7-1.4-21.1c-0.9-17.8-2.8-42.2-5.2-69.4
		c-2.3-27.2-5.2-51.5-7-69.4c-0.9-8.4-1.9-15.5-2.3-21.1c-0.5-2.3-0.5-5.2-0.5-8c0.5,2.3,1.4,5.2,1.4,7.5c0.9,4.7,1.9,12.2,3.3,21.1
		c2.3,17.8,5.2,42.2,8,69.4c2.8,27.2,3.7,52,4.7,69.8c0.5,8.9,0.5,15.9,0.5,21.1C1756.3,1528.3,1756.3,1530.7,1755.9,1533.5z"/>
	<path class="st6" d="M1774.6,1331.5c-30.5,55.8-83.9,95.6-146.2,108.2c-12.7,2.3-26.7,3.7-38-2.8c-15.5-8.9-20.1-29.1-19.7-46.9
		c0.5-17.8,0-41.7,0-58.6H1774.6L1774.6,1331.5z"/>
	<path class="st0" d="M1502.3,1031.6c0-0.5,23.4-4.2,52.5-8s52.5-6.6,52.5-5.6s-23.4,4.2-52.5,8S1502.3,1032.5,1502.3,1031.6z"/>
	<path class="st0" d="M1574,1023.2c-2.8-1.4-5.6-3.3-8-5.2l-8-6.6c-1.9-1.4-3.3-3.3-4.2-5.6c-0.5-2.8,0.5-5.2,2.3-7s4.7-2.3,7-2.3
		c2.3,0.5,4.2,1.4,6.1,3.3c2.3,2.8,4.2,6.1,4.2,9.8c0.5,3.3,0,6.6-0.9,9.4c-0.5,0,0-3.7-0.5-9.4c-0.5-3.3-1.9-6.1-4.2-8.4
		c-2.3-2.8-7-3.3-9.8-0.9c-1.4,0.9-1.9,2.8-1.9,4.7c0.5,1.9,1.4,3.3,3.3,4.2l8,6.6C1569.8,1018.5,1572.2,1020.8,1574,1023.2
		L1574,1023.2z"/>
	<path class="st0" d="M1570.8,1023.2c0-2.8,0.9-5.6,2.3-8c1.4-2.8,2.8-5.2,4.7-7.5c0.9-1.4,2.3-2.8,3.7-3.7c1.9-1.4,3.7-2.3,6.1-1.9
		c1.4,0,2.8,0.9,3.3,2.3s0.5,2.3-0.5,3.7s-1.9,3.3-3.3,4.2c-1.9,2.3-4.2,4.2-7,5.6c-2.3,1.9-4.7,2.8-7.5,3.3c0-0.5,2.3-1.9,6.6-4.7
		c2.3-1.9,4.2-3.7,6.1-5.6c0.9-0.9,1.9-2.3,2.8-3.7c0.5-1.4,0-2.3-0.9-2.3c-2.8,0-5.6,2.8-7.5,4.7c-1.9,1.9-3.7,4.2-5.2,7
		C1572.2,1020.4,1571.2,1023.6,1570.8,1023.2L1570.8,1023.2z"/>
	<path class="st5" d="M1718.8,1541c4.7-15.9,10.3-31.4,17.8-45.9c-1.9,8-4.2,15.9-8,23.4C1726.3,1526,1722.6,1533.5,1718.8,1541
		L1718.8,1541z"/>
	<path class="st5" d="M1635.9,1516.1c-7-3.3-13.6-8-19.2-13.1c-6.1-4.7-11.7-10.8-15.9-17.3c0.5-0.5,7.5,7,17.3,15.5
		C1627.9,1509.6,1636.4,1515.7,1635.9,1516.1z"/>
	<path class="st5" d="M1661.7,1408.4c-4.7-4.2-8.4-8.9-11.7-14.1c-3.7-4.7-7-9.8-9.4-15.5c4.2,4.2,8.4,8.9,11.7,14.1
		C1656,1397.6,1659.3,1402.7,1661.7,1408.4z"/>
	<path class="st5" d="M1620,1259.3c-5.6-4.7-10.3-10.3-14.5-16.4c-4.7-5.6-8.9-11.2-12.7-17.8c5.6,4.7,10.3,10.3,14.5,16.4
		C1612.5,1246.7,1616.7,1252.8,1620,1259.3z"/>
	<path class="st5" d="M1721.2,1240.1c-7,1.4-14.5,2.3-21.6,1.9c-7,0.5-14.5,0.5-21.6-0.5c7-1.4,14.5-2.3,21.6-2.3
		C1706.7,1239.2,1714.2,1239.2,1721.2,1240.1z"/>
	<path class="st5" d="M1744.6,1179.7c-3.7-4.2-7-8.9-9.4-14.1c-3.3-4.7-5.6-9.8-7-15.5c3.7,4.2,7,8.9,9.4,14.1
		C1740.9,1168.9,1743.2,1174.1,1744.6,1179.7z"/>
	<path class="st5" d="M1639.6,1166.6c-4.7,3.7-9.8,6.6-15.5,8.4c-5.2,2.8-10.8,5.2-16.4,6.6
		C1617.6,1175,1628.4,1170.3,1639.6,1166.6L1639.6,1166.6z"/>
	<path class="st5" d="M1580.1,1171.2c-13.6-9.4-27.2-19.7-40.3-30c7.5,3.7,14.5,8,21.1,13.6
		C1568.4,1159.5,1574.5,1165.2,1580.1,1171.2z"/>
	<path class="st5" d="M1575,1057.8c0,0.5-10.3,4.7-23,10.8s-22,12.7-22.5,12.2C1542.6,1069.6,1558.1,1061.6,1575,1057.8L1575,1057.8
		z"/>
	<path class="st5" d="M1554.8,974c-5.6-3.7-10.8-8.4-15.5-13.6c-5.2-4.7-9.8-9.8-14.1-15.5c5.6,3.7,10.8,8.4,15.5,13.6
		C1545.9,963.2,1550.6,968.3,1554.8,974z"/>
	<path class="st5" d="M1613.9,912.1c-3.7,3.7-8,7.5-12.7,9.8c-4.2,3.3-8.9,6.1-14.1,8C1595.1,922.9,1604,916.8,1613.9,912.1z"/>
	<path class="st5" d="M1566.1,901.3c-5.2-4.2-9.4-8.4-13.1-13.6c-4.2-4.7-8-9.8-11.2-15.5c5.2,4.2,9.4,8.4,13.1,13.6
		C1559.5,890.6,1563.3,895.7,1566.1,901.3z"/>
	<path class="st5" d="M1640.6,811.8c-6.1,3.7-12.2,7.5-18.3,10.3c-6.1,3.7-12.2,7-18.7,10.3c5.2-5.2,11.2-8.9,17.3-12.2
		C1627,816.5,1633.6,813.7,1640.6,811.8L1640.6,811.8z"/>
	<path class="st5" d="M1679.9,867.6c0.5-6.1,1.9-12.2,4.2-17.8c1.4-6.1,3.7-11.7,6.6-16.9C1688.8,845.1,1685.1,856.8,1679.9,867.6
		L1679.9,867.6z"/>
	<path class="st5" d="M1697.8,931.3c-6.6-1.4-12.7-4.2-17.8-8.4c-5.6-3.3-10.8-7.5-15-13.1c0.5-0.5,7,5.2,16.4,10.8
		C1690.7,926.2,1697.8,930.9,1697.8,931.3z"/>
	<path class="st5" d="M1590.4,779c2.8-7,6.1-13.1,10.3-19.2c3.3-6.6,7.5-12.7,12.2-18.3c-2.8,7-6.1,13.6-10.3,19.2
		C1599.3,767.3,1595.1,773.4,1590.4,779z"/>
	<path class="st5" d="M1483.6,882.1c-8.4-0.5-17.3-1.9-25.8-3.7c-8.4-1.4-16.9-3.3-25.3-6.1c8.4,0.5,17.3,1.9,25.8,3.7
		C1466.7,877,1475.2,879.3,1483.6,882.1z"/>
	<path class="st16" d="M2167.3,466.5v263.4h-347.7V466.5H2167.3z"/>
	<path class="st17" d="M2115.7,528.8v161.7H2075V528.8H2115.7z"/>
	<path class="st17" d="M2048.7,516.1V690H2008V516.1H2048.7z"/>
	<path class="st17" d="M1984.1,537.7V690h-40.8V537.7H1984.1z"/>
	<path class="st17" d="M1918.5,561.6V690h-40.8V561.6H1918.5z"/>
	<path class="st17" d="M2115.7,528.8v161.7H2075V528.8H2115.7z"/>
	<path class="st0" d="M2146.2,690.9c0,0.5-66.5,1.4-149,1.4c-82.5,0-149-0.5-149-1.4s66.5-1.4,149-1.4
		C2079.7,689.5,2146.2,690,2146.2,690.9z"/>
	<path class="st4" d="M2129.3,538.6c0,0.5-4.7-0.5-13.1,0c-11.7,0.5-23.4,4.2-33.7,9.8c-7,4.2-13.6,9.4-18.7,15.5
		c-5.6,6.6-11.2,14.5-17.3,22.5c-6.1,8.4-14.5,15.5-23.9,20.2c-10.3,4.2-21.6,6.6-32.8,6.6c-11.7,0.5-23,0-33.3,0.5
		c-10.3,0.5-20.6,1.9-30.5,4.2c-8.9,2.3-17.8,5.6-25.8,10.8c-7,4.2-13.1,9.8-17.8,15.9c-7.5,9.4-11.7,20.6-12.2,32.3
		c0,4.2,0.5,8.4,1.4,13.1c-1.4-4.2-2.3-8.4-2.3-13.1c0-12.2,4.2-23.9,11.7-33.3c5.2-6.6,11.2-12.2,18.3-16.9
		c8-5.2,16.9-8.9,26.2-11.2c10.3-2.3,20.6-4.2,30.9-4.2c10.8-0.5,22,0,33.3-0.5c11.2,0,22-1.9,32.3-6.1c9.4-4.7,17.3-11.2,23.4-19.7
		c6.1-7.5,11.2-15.5,17.3-22c5.6-6.1,12.2-11.2,19.2-15.5c10.3-5.6,22.5-8.9,34.2-9.4c3.3,0,6.6,0,9.8,0.5
		C2127.5,538.2,2128.4,538.2,2129.3,538.6z"/>
	<path class="st0" d="M1823.3,577.5h-32.8l-85.8-1.4h-0.9v-127c0-67.5,0.5-128.4,0.5-172.4c0-22,0.5-39.8,0.5-52.5V205v19.2
		c0,12.7,0,30.5,0.5,52.5c0,44.5,0,105.4,0.5,172.4v126.1l-0.9-0.9l85.8,2.3l23.9,0.9l6.1,0.5
		C1821.5,577.5,1822.4,577.5,1823.3,577.5L1823.3,577.5z"/>
	<path class="st0" d="M2331.8,377.9c-0.9,0-1.9,0-2.8,0.5h-8.9l-32.3,0.5l-106.4,0.5h-61.9l0.9-0.9c0,26.2-0.5,48.3-0.5,64.2
		c0,7.5,0,13.6-0.5,18.3v4.7c0.5,0,0.9,0.5,0.5,0.9c0,0.5-0.5,0.9-0.9,0.5c-0.5,0-0.9-0.5-0.5-0.9c0-0.5,0.5-0.5,0.5-0.5v-4.7
		c0-4.7,0-10.8-0.5-18.3c0-15.9-0.5-38-0.5-64.2v-0.9h63.3l106.4,0.5l32.3,0.5h8.9C2329.9,377.4,2330.8,377.4,2331.8,377.9
		L2331.8,377.9z"/>
	<path class="st0" d="M1819.6,666.6h-25.8l-69.8-0.5l-230.1-1.9l-183.2-1.9h-0.5l-0.5-0.5l-40.8-95.1l-11.2-26.2l-2.8-7
		c-0.5-0.9-0.5-1.4-0.9-2.3c0.5,0.9,0.9,1.4,0.9,2.3c0.9,1.9,1.9,4.2,3.3,7c2.8,6.1,6.6,15,11.7,26.2c9.8,23,24.4,55.3,41.7,94.7
		l-0.9-0.5l183.2,1.4l230.1,2.3l69.8,0.9l18.7,0.5h4.7C1818.7,666.6,1819.1,666.6,1819.6,666.6L1819.6,666.6z"/>
	<path class="st9" d="M1344.9,662.8c0,11.7-9.4,21.1-21.6,21.1c-11.7,0-21.1-9.4-21.1-21.6s9.4-21.1,21.6-21.1h0.5
		C1335.5,641.7,1344.9,651.6,1344.9,662.8z"/>
	<path class="st4" d="M1269.9,540.5h-128.4c-17.8,0-32.3-14.5-32.3-32.3c0-17.8,14.5-32.3,32.3-32.3h128.4
		c17.8,0,32.3,14.5,32.3,32.3C1302.2,526,1287.7,540.5,1269.9,540.5z"/>
	<path class="st16" d="M1491.1,181.6v198.2h-299V181.6H1491.1z"/>
	<path class="st17" d="M1553.4,241.1v78.7h-198.2v-78.7C1355.2,241.1,1553.4,241.1,1553.4,241.1z"/>
	<path class="st9" d="M1318.6,244.3c-15.5,1.4-30.9,1.9-46.4,1.4c-15.5,0.5-30.9,0-46.4-1.4c15.5-1.4,30.9-1.4,46.4-1.4
		C1287.7,242.9,1303.2,243.4,1318.6,244.3z"/>
	<path class="st9" d="M1318.6,258.9c-15.5,1.4-30.9,1.9-46.4,1.4c-15.5,0.5-30.9,0-46.4-1.4c15.5-0.9,30.9-1.4,46.4-0.9
		C1287.7,257.5,1303.2,257.9,1318.6,258.9z"/>
	<path class="st9" d="M1318.6,273.4c-15.5,1.4-30.9,1.4-46.4,1.4c-15.5,0.5-30.9,0-46.4-1.4c15.5-1.4,30.9-1.9,46.4-1.4
		C1287.7,271.5,1303.2,272,1318.6,273.4z"/>
	<path class="st9" d="M1318.6,287.9c-15.5,1.4-30.9,1.4-46.4,1.4c-15.5,0.5-30.9,0-46.4-1.4c15.5-1.4,30.9-1.9,46.4-1.4
		C1287.7,286,1303.2,286.5,1318.6,287.9z"/>
	<path class="st9" d="M1318.6,302c-15.5,1.4-30.9,1.4-46.4,1.4c-15.5,0.5-30.9,0-46.4-1.4c15.5-1.4,30.9-1.9,46.4-1.4
		C1287.7,300.6,1303.2,301,1318.6,302z"/>
	<path class="st9" d="M1280.2,316.5c-8.9,1.4-18.3,1.4-27.2,1.4c-8.9,0.5-18.3,0-27.2-1.4c8.9-1.4,18.3-1.4,27.2-1.4
		S1271.3,315.1,1280.2,316.5z"/>
	<path class="st9" d="M1488.3,210.6c0,0.9-66.5,1.4-148.1,1.4c-81.5,0-148.1-0.5-148.1-1.4c0-0.9,66.1-1.4,148.1-1.4
		C1422.2,209.2,1488.3,209.7,1488.3,210.6z"/>
	<path class="st0" d="M2025.3,391.5v-8.4c0-5.6,0-13.1-0.5-22.5c0-19.7-0.5-47.3-0.5-80.1l0.9,0.9h-111.1l1.4-1.4V391l-0.9-0.9
		l80.1,0.5l22.5,0.5L2025.3,391.5l-7-0.5l-22.5,0.5l-81.1,0.5h-0.9V280l1.4-1.4h112v0.9c0,33.3-0.5,61.4-0.5,81.1
		c0,9.4,0,16.9-0.5,22.5v5.6C2025.8,390.1,2025.8,390.5,2025.3,391.5L2025.3,391.5z"/>
	<path class="st9" d="M2103.6,233.1v55.8h-55.8v-55.8H2103.6z"/>
	<path class="st4" d="M2478,410.2h-128.4c-17.8,0-32.3-14.5-32.3-32.3c0-17.8,14.5-32.3,32.3-32.3H2478c17.8,0,32.3,14.5,32.3,32.3
		C2510.3,395.7,2495.8,410.2,2478,410.2z"/>
	<path class="st9" d="M2140.1,377.9c0,11.7-9.4,21.1-21.1,21.1s-21.1-9.4-21.1-21.1c0-11.7,9.4-21.1,21.1-21.1
		S2140.1,366.2,2140.1,377.9z"/>
	<path class="st9" d="M1728.7,572.4c0,11.7-9.4,21.1-21.1,21.1s-21.1-9.4-21.1-21.1s9.4-21.1,21.1-21.1S1728.7,560.7,1728.7,572.4z"
		/>
	<path class="st4" d="M1641,177.8H1769c17.8,0,32.3,14.5,32.3,32.3s-14.5,32.3-32.3,32.3h-128.4c-17.8,0-32.3-14.5-32.3-32.3
		S1622.8,177.8,1641,177.8z"/>
</g>
</svg>
