<?xml version="1.0" encoding="utf-8"?>
<!-- Generator: Adobe Illustrator 23.0.1, SVG Export Plug-In . SVG Version: 6.00 Build 0)  -->
<svg version="1.1" id="_x3C_Layer_x3E_" xmlns="http://www.w3.org/2000/svg" xmlns:xlink="http://www.w3.org/1999/xlink" x="0px"
	 y="0px" viewBox="0 0 2975 1700" style="enable-background:new 0 0 2975 1700;" xml:space="preserve">
<style type="text/css">
	.st0{fill:#EBEBEB;}
	.st1{fill:#F5F5F5;}
	.st2{fill:#FFB07B;}
	.st3{fill:#365DA4;}
	.st4{fill:#3A4A51;}
	.st5{fill:#C65447;}
	.st6{fill:#EA8E50;}
	.st7{fill:#D86713;}
	.st8{fill:#FFC93C;}
	.st9{fill:#00858E;}
	.st10{fill:#007477;}
	.st11{fill:#2C3A64;}
	.st12{fill:#935C2F;}
	.st13{fill:#A16D3C;}
	.st14{fill:#D3782F;}
	.st15{fill:#E69D43;}
	.st16{fill:#4A75CB;}
	.st17{fill:#E0E0E0;}
	.st18{fill:#233862;}
	.st19{fill:#2E3552;}
</style>
<path class="st0" d="M541.9,1503.3c0,0-497.4-497.9-188.5-795.5c308.9-297.7,553.1,88.8,721.9,60.3
	c213.7-36,306.2-578.3,625.7-578.8c363.5-0.6,630.4,214.3,488.2,726.1c-104.8,377.5,615.7,68.4,509.9,595.2L541.9,1503.3z"/>
<path class="st1" d="M1626.8,1438.6c-67.6-10.9-118.7,12.8-167.8,6c-39.2-5.4-59.6-45-112.2-56.3c12.5-7.4,27.1-16.6,34.1-23.3
	c13.5-13,33-39.1,0-40.2c-23.7-0.7-42.2,38.8-50.7,61c-7.8-0.7-16.2-0.7-25.4,0c10.9-35,32-102.7,37.2-115.8
	c7.1-17.7-22.6-76.8-57.4-10.5c-24.5,46.5-7.8,100.2,4.3,128.1c-9.6,1.5-18.6,3.8-27.2,6.5c-28.8-65.8-120.6-253.3-220-230
	c-108.4,25.4,123.8,151.5,182.4,245c-47.8,22.2-89.9,49.1-162.6,29.4c-193.1-52.3-208.5,65.4-208.5,65.4l863.1,0.3
	C1716.2,1504.2,1694.5,1449.4,1626.8,1438.6z"/>
<g>
	<path class="st2" d="M1392.1,1015.2c0.9,8.3,12.6,8,25.9,6s9.8,1.5,28.5,1.1s24.9-6.8,25.7-9.4c0.7-2.4-8.3-4.1-18-6.1
		c-1.2-0.3-2.4-0.5-3.7-0.8c-10.9-2.4-18.4-10.3-27.9-17.1c-9-6.4-15.1-35.8-15.1-35.8L1381,953c0,0,8.3,26.6,12.7,35.9
		c2.6,5.4-0.2,12.4-1,17.7C1392.2,1009.4,1391.7,1012.3,1392.1,1015.2z"/>
	<path class="st3" d="M1418,1021.2c13.3-2,9.8,1.5,28.5,1.1s24.9-6.8,25.7-9.4c0.7-2.4-8.3-4.1-18-6.1l-0.1,0.2
		c0,0-11.8,6.8-27.2,5.8c-12.6-0.8-25.5-5.7-34.2-6.3c-0.5,2.8-0.9,5.8-0.6,8.7C1392.9,1023.5,1404.7,1023.2,1418,1021.2z"/>
	<path class="st2" d="M1184.5,1013.9c0.6,8.3,12.3,8.5,25.7,7c13.3-1.5,9.8,1.9,28.5,2.2c18.7,0.3,25.1-5.8,26.1-8.5
		c0.8-2.4-8.2-4.4-17.8-6.8c-1.2-0.3-2.4-0.6-3.6-0.9c-10.8-2.8-18-11-27.2-18.1c-8.8-6.8-1.6-34.8-1.6-34.8l-20.2-9.5
		c0,0-2.8,28.9-4.3,43.5c-0.6,6-3.6,12-4.7,17.2C1184.8,1008.1,1184.3,1011,1184.5,1013.9z"/>
	<path class="st3" d="M1210.1,1020.9c13.3-1.5,9.8,1.9,28.5,2.2c18.7,0.3,25.1-5.8,26.1-8.5c0.8-2.4-8.2-4.4-17.8-6.8l-0.1,0.2
		c0,0-12.1,6.4-27.4,4.8c-12.5-1.3-25.3-6.6-33.9-7.6c-0.6,2.8-1.1,5.7-0.9,8.7C1185,1022.2,1196.8,1022.4,1210.1,1020.9z"/>
	<path class="st4" d="M1229.7,597.9c0,0-5.6,27-11.2,164.1c0,0-10.4,25.4-17.9,56.4c-7.5,31-12.8,160.5-12.8,160.5s3,4.3,12.1,4.9
		c7.4,0.5,13.2-2.8,13.2-2.8s52.3-169.6,77.7-235.4c25.4-65.8,40.3-159.8,40.3-159.8L1229.7,597.9z"/>
	<path class="st4" d="M1292.6,609.5c0,0,4.1,27.3,46.3,157.8c0,0-0.9,27.4,2.8,59.1c3.7,31.7,46.4,156.6,46.4,156.6s5.7,2,14.2-0.3
		c7.9-2.1,14.1-6.8,14.1-6.8s-16.4-178.4-15.3-249c1.1-70.6-17.5-163.9-17.5-163.9L1292.6,609.5z"/>
	<path class="st5" d="M1367.3,231.5c-6.6-4.2-14.8-5-20.5-5c1.6-1.4,4.5-1.9,4.5-1.9c-3.5-0.7-11.6,2.4-11.6,2.4
		c-48.3-21.4-59.6,50.7-59.4,67.5c0.2,16.9-0.7,36.3-26,50.1c-49.8,27.3-11.6,81.2-11.6,81.2c-9,25.7,24.2,57.3,24.2,57.3
		c-0.6-13.7,62.2-100.8,96-120.6c8.6-11.3,12.4-31.9,12.7-33.6c-2.2,16.4-5.5,25.5-8.3,30.5C1396.4,335.5,1384.9,242.7,1367.3,231.5
		z"/>
	<path class="st2" d="M1356.8,353.3c0.2,0.1-15.8,8.4-27.9,5.1c-11.3-3.1-18.7-17.8-18.6-17.8c4.8-1,6.2-7.5,6.1-35.8l2.2,0.4
		l35.1,7l1.3,0.3c0,0-0.8,11.5-0.9,22.3c0,2.3,0,4.5,0.1,6.6C1354.6,347.6,1355.3,352.6,1356.8,353.3z"/>
	<path class="st6" d="M1354.2,334.7c0,2.3,0,4.5,0.1,6.6c-20.4-0.8-32.2-24.2-36.7-34.4l36.1,5.3l1.3,0.3
		C1355.1,312.4,1354.2,323.9,1354.2,334.7z"/>
	<path class="st5" d="M1314.9,301.3c0,0-10.7-16.9-13.3-31.3c-1.8-10.3,3.4-48.5,41.8-43c0,0,11.2,1.1,21.6,8.2
		c8.3,5.6,20.4,17.8,6.9,51.1l-3.5,11.3L1314.9,301.3z"/>
	<path class="st2" d="M1357.2,329.4c0,0-47.8-6.3-43.4-36c4.4-29.7,1.2-50.6,31.9-47.8s35,15,35.9,25.3
		C1382.6,281.1,1369.8,330.3,1357.2,329.4z"/>
	<path class="st5" d="M1367.5,248.1c0,0-18.3,32.9-39.1,35.1s-28.7-4.5-28.7-4.5s17.2-9.9,23.6-30.8
		C1323.3,247.9,1360.2,230,1367.5,248.1z"/>
	<path class="st5" d="M1363.9,250.4c0,0,8.6,9.2,9.8,17.2s0,23.7,4.6,23.8c0,0,13.4-22.2,4.3-37.3
		C1373,238.1,1363.9,250.4,1363.9,250.4z"/>
	<path class="st7" d="M1681.5,654.3c-10-21.3-37.9-38.8-61.4-38.8c-17.4,0-32.7,5.9-44.5,15.6c-6.8,5.5-17,1.9-18.8-6.7l-20.6-95.6
		c-3-13.9-16.7-22.8-30.7-19.8l-332.9,71.7c-13.6,2.9-22.3,16.3-19.3,30l71.6,332.5c2.1,9.5,9,16.7,17.7,19.4l-4.4,1.2h12.9l0.1,0
		c1.6,0,3.2-0.2,4.8-0.6l7.3-1.6l0,0l0,0l85.4-18.4c12-2.6,16.9-17.1,8.8-26.3c-7.8-8.9-13.4-20-15.8-32.5
		c-6.7-35.3,15.1-70.3,49.8-79.7c38.6-10.5,77.6,13.6,85.9,52.2c3.1,14.5,1.4,29-4,41.7c-2.1,4.9-0.4,10.1,3.3,13l-5,2.4l11.6,0l0,0
		c0.9,0,1.8,0,2.7-0.3l102-22c13.9-3,22.8-16.7,19.8-30.7l-20.4-95c-1.9-8.8,6.1-16.5,14.8-14.3c10.1,2.6,20.9,2.9,31.7,0.6
		C1676.5,743.3,1701.5,696.5,1681.5,654.3z"/>
	<path class="st8" d="M1608.3,615.5c-17.4,0-32.7,5.9-44.5,15.6c-6.8,5.5-17,1.9-18.8-6.7l-20.6-95.6c-3-13.9-16.7-22.8-30.7-19.8
		l-332.9,71.7c-13.6,2.9-22.3,16.3-19.3,30l71.6,332.5c3,14.1,17,23.1,31.1,20.1l92.7-20c12-2.6,16.9-17.1,8.8-26.3
		c-7.8-8.9-13.4-20-15.8-32.5c-6.7-35.3,15.1-70.3,49.8-79.7c38.6-10.5,77.6,13.6,85.9,52.2c3.1,14.5,1.4,29-4,41.7
		c-3.5,8.3,3.7,17,12.5,15.2l102-22c13.9-3,22.8-16.7,19.8-30.7l-20.4-95c-1.9-8.8,6.1-16.5,14.8-14.3c10.1,2.6,20.9,2.9,31.7,0.6
		c42.7-9.2,67.6-55.9,47.7-98.1C1659.7,633.1,1631.8,615.5,1608.3,615.5z"/>
	<path class="st2" d="M1486.5,489.1c0,0,20.8,3.4,26.2,16.9c5.4,13.5-2.2,22.6-5.1,22.6c-2.9,0-8.5-2.2-11.2-9.2
		C1493.9,512.4,1486.5,489.1,1486.5,489.1z"/>
	<path class="st2" d="M1200.7,549.3c0,0,23.3,0,31.7,13.8c8.4,13.8,1.7,25.1-1.5,25.6c-3.2,0.5-9.7-0.9-13.8-8
		C1212.9,573.5,1200.7,549.3,1200.7,549.3z"/>
	<path class="st9" d="M1487.1,504.7c-2.1-0.4-11.1-1.5-22.6-3.3c-21.2-3.3-50.7-9.2-60.6-18.3c-2.7-2.5-8.9-16.1-15.4-31.8
		c-6.6,34.6-6.9,61.2-5.2,81.4l-143,30.8c12.3-24.8,31.3-55.5,27.7-80.4c-1.3-9.2-6.4-21.9-8.3-36.1c-0.2-1.2-0.3-2.5-0.4-3.7
		c-20.1,16.5-43.2,34.7-43.8,38.4c-0.9,6.1,14.7,73.7,14.7,73.7c-3.9,8.9-20.7,7-20.7,7c-15.8-11.3-39-75.1-37.1-89.3
		s59.4-94.8,73.3-114.1c13.8-19,64-18.6,65.2-18.6h0c0,0,0,0,0,0c39.9,24,43.6,4,43.6,4s36.1,6.9,42.2,17.5
		c6.2,10.6,33.4,91.4,35.3,94.3c4,6,69.7,29.7,70.9,36.6C1504.1,499.9,1493,506,1487.1,504.7z"/>
	<path class="st10" d="M1290.2,552.9l-49.9,10.7c12.4-24.7,28.7-55.5,25.2-80.3c-1.3-9.2-4.3-20.2-5.8-34.4
		c-0.1-1.4-0.4-5.5-0.4-5.5s35.3,27.8,35.9,57.9C1295.6,516.8,1292.9,537.2,1290.2,552.9z"/>
	<path class="st10" d="M1465.8,501.6c-21.4-3.3-51.3-9.2-61.3-18.3c-2.7-2.5-9-16.1-15.6-31.8c0,0-2.3-25.2,4.3-24.2
		c6.6,0.9,16.3,45.6,23.2,48.4C1422.6,478.2,1456.7,491.3,1465.8,501.6z"/>
</g>
<g id="man_2_">
	<g>
		<path class="st11" d="M2521.1,1460.5c-3,10.2-17,17-18.8,29.4c-0.9,6.1-3.2,10.8-6.1,14h-43.4c0.4-2.4,2.3-5,8-6.2
			c12.1-2.6,16.6-17.3,15.9-30.8c-0.3-5.7-0.2-12.2,0.1-17.8c0.4-7.8,1-13.9,1-13.9l25.6-6l2.7,3.5l2.6,3.3
			C2508.7,1436,2524.1,1450.3,2521.1,1460.5z"/>
		<path class="st11" d="M2319,1503.9h-87.8c2-2.3,5.4-4.6,11.1-5.5c13.5-2.2,36.9-10,42.1-27.3c0.2-0.6,0.3-1.1,0.4-1.7
			c4.1-18.5,34.3,5.7,34.3,5.7s0.1,0.7,0.2,2C2319.9,1482.3,2321.1,1496.4,2319,1503.9z"/>
		<path class="st4" d="M2245.9,1014.8c0,0,4.6,57.1,10,125.8c7.3,93.3,16.1,207.8,17,229.5c1.5,37.7,7.5,98,7.5,98s14.3,14.3,43,8.3
			c0,0,25.5-86.1,32.8-177.1c0.1-1.5,0.2-3,0.3-4.5c6.8-92.7,17.3-287.9,17.3-287.9L2245.9,1014.8z"/>
		<path class="st11" d="M2245.9,1014.8c0,0,4.6,57.1,10,125.8l100.3,158.7c0.1-1.5,0.2-3,0.3-4.5c6.8-92.7,17.3-287.9,17.3-287.9
			L2245.9,1014.8z"/>
		<path class="st4" d="M2266.8,1021.5c0,0,82.5,206.9,136.8,304.1c54.3,97.2,71.2,124.3,71.2,124.3s31.1-12.4,33.9-20.9
			c0,0-20.8-187.7-57.1-233.4c-20.5-25.8-44.6-103.4-45.8-130.6c-1.1-27.1-7.4-80.8-7.4-80.8L2266.8,1021.5z"/>
	</g>
	<path class="st12" d="M2309.1,702.2c-3.7-21.7-3.8-34.5-3.8-34.5l41.9-33.7c-1.6,46.4,28.2,68.7,28.2,68.7s-55.8,27.5-88,17.3
		C2287.3,720,2295.2,709.8,2309.1,702.2z"/>
	<path class="st13" d="M2295.4,667c0,0,53.3,8.8,58.3-24.4s15.2-54.5-18.6-61.6c-33.8-7.1-42.3,4.6-46.7,15.3
		C2284.1,607,2281.7,663.8,2295.4,667z"/>
	<g>
		<path class="st13" d="M2108.4,735.5l-11.3-7c0,0-14.1-20.9-38.3-7.9c0,0-9.6,6.1-3.1,11.2c6.4,5.1,4.7,2.2,13.6,9.6
			c8.9,7.4,20.4,10,27.8,6l9.5-0.9L2108.4,735.5z"/>
		<path class="st14" d="M2094.9,737.7c2.9-9.1,4.3-9.9,4.3-9.9s91.7,10.8,100.4,11.5c8.6,0.6,128.7-24.1,128.7-24.1L2385,784
			c0,0-167.1,6.3-189,4.3c-36.1-3.4-101.7-37-101.7-37S2092.6,744.9,2094.9,737.7z"/>
	</g>
	<path class="st15" d="M2404.7,994.8c0.2,3.5-7.2,7.5-10.3,8.9c-23.9,10.7-46.2,18.2-71.4,20.6c-29.9,3.1-65.2-3.7-77.3-3.5
		c-1.3,0-2.4-0.5-3.4-1.3c-0.8-0.7-1.5-37.1-0.8-83.2c0-1.8,0-3.7,0.2-5.5v-0.6c0.1-4.8,0.1-9.7,0.2-14.6c0.3-13.5,0.8-27.3,1.4-41
		c0.9-20.2,2.1-40.1,3.7-57.7c1.7-18.4,3.9-34.3,6.8-45.6c6.5-26,21.3-43.1,34.9-55.7l11.1-9.8c11.1,2.3,22.9,1.6,34.7-4.2
		c12.8-6.3,26.6-13.1,28.9-11.5c17.2,12.9,28.8,42.1,34.8,79.2c3.2,20,4.8,42.3,4.7,65.5c0,8.9-0.3,18-0.8,27.1
		c-2.9,49,0.1,91.5,1.8,116.3C2404.2,985.3,2404.6,990.9,2404.7,994.8z"/>
	<path class="st16" d="M2121.6,541.5L1784.7,488c-14.3-2.3-27.8,7.5-30.1,21.8l-14.9,93.9c-0.7,4.3,0.4,16.6,0.4,16.6l12.1,1.8
		c0.7,0.2,1.4,0.3,2.1,0.3l0,0l0,0c2.2,0.2,4.5-0.1,6.8-0.9c11.2-4,23.5-5.3,36.1-3c35.5,6.5,60.3,39.6,56.5,75.4
		c-4.2,39.9-40.8,67.6-79.9,61.4c-14.7-2.3-27.6-9.1-37.5-18.8c-1.9-1.9-4.2-2.9-6.6-3.1l0,0l-12.7-1.9l-15.8,114.5
		c-2.2,14.1,7.4,27.4,21.5,29.6L1819,891c8.9,1.4,13.2,11.7,8,19c-6.1,8.5-10.3,18.5-12.1,29.5c-6.9,43.2,27.8,83.5,74.5,80.1
		c23.5-1.7,50.1-21.4,58.6-43.4c6.3-16.2,6.3-32.7,1.6-47.3c-2.7-8.3,4.4-16.6,13.1-15.2l96.8,15.4c14.1,2.2,27.4-7.4,29.6-21.5
		l53.6-337.2C2144.8,556.7,2135.4,543.7,2121.6,541.5z"/>
	<path class="st14" d="M2364.6,768.3c0,0-25.8,120.5-122.8,147.3c0.3-13.5,0.8-27.3,1.4-41c0.9-20.2,2.1-40.1,3.7-57.7
		c1.7-0.9,3.4-1.6,4.8-2.1C2284.7,804,2364.6,768.3,2364.6,768.3z"/>
	<path class="st9" d="M1935.5,974.4c6.3-16.2,6.3-32.7,1.6-47.3c-2.7-8.3,4.4-16.6,13.1-15.2l96.8,15.4c14.1,2.2,27.4-7.4,29.6-21.5
		l53.6-337.2c2.2-13.8-7.2-26.8-21-28.9l-336.8-53.5c-14.3-2.3-27.8,7.5-30.1,21.8l-14.9,93.9c-1.9,12.2,9.9,22,21.4,17.8
		c11.2-4,23.5-5.3,36.1-3c35.5,6.5,60.3,39.6,56.5,75.4c-4.2,39.9-40.8,67.6-79.9,61.4c-14.7-2.3-27.6-9.1-37.5-18.8
		c-6.4-6.3-17.3-2.7-18.7,6.2l-16.4,103.3c-2.2,14.1,7.4,27.4,21.5,29.6l96.2,15.3c8.9,1.4,13.2,11.7,8,19
		c-6.1,8.5-10.3,18.5-12.1,29.5c-6.9,43.2,27.8,83.5,74.5,80.1C1900.5,1016.1,1927,996.4,1935.5,974.4z"/>
	<g>
		<path class="st13" d="M2108.8,813.2l-13.9-2.3c0,0-15.8-22.8-43.3-10c0,0-10.9,6.1-3.7,11.8c7.2,5.7,5.3,2.6,15.3,10.8
			c10,8.3,23,11.6,31.5,7.5l10.8-0.6L2108.8,813.2z"/>
		<path class="st15" d="M2098.2,820.2c0.4-10.2,5.9-11.3,5.9-11.3s104.9-6.9,114-8.7c9.1-1.8,92.6-71,92.6-71s32.3-29,54.9-19.2
			c19.7,8.5,25.8,25.3,26.8,40.8c1.2,18.4-9.2,35.6-25.9,43.4c-37.5,17.5-112.6,51.9-129.7,54.9c-38,6.6-135.8-14.6-135.8-14.6
			S2097.8,828.3,2098.2,820.2z"/>
	</g>
	<path class="st11" d="M2288.4,596.3c0,0-21.6-16-7.5-40.9c0,0,17,5.6,41.2,0s45.8,2.3,48.6,10.8c0,0,9.4,3.8,10.3,17.9
		c0.9,14.1-27.3,58.5-27.3,58.5s-6-7.5-4.4-12.7c1.6-5.2,6.8-16.7,0.5-16.7s-8.5,9.4-11,5.6s2.1-19.5-5.4-22.1
		C2325.8,594.2,2296.9,601.1,2288.4,596.3z"/>
</g>
<path class="st4" d="M1553.7,1491.9l-95.2-432.3h26.2c6.2,0,11.3-5.1,11.3-11.3v-14.6c0-6.2-5.1-11.3-11.3-11.3h-332.5
	c-6.2,0-11.3,5.1-11.3,11.3v14.6c0,6.2,5.1,11.3,11.3,11.3h33.7l-95.2,432.3c-1.3,5.8,2.4,11.6,8.2,12.9c5.8,1.3,11.6-2.4,12.9-8.2
	l96.3-437h228.3l96.3,437c1.3,5.8,7.1,9.5,12.9,8.2l0,0C1551.3,1503.6,1554.9,1497.8,1553.7,1491.9z"/>
<g>
	<path class="st17" d="M2185.1,1227.2c-35.2-33.8-162.1,179.6-162.1,179.6S2220.4,1261,2185.1,1227.2z"/>
	<path class="st17" d="M2180.9,1325.9c-31.2-12.5-130.9,92.6-153.4,116.9c-17.2-2.3-36-3.8-56.7-4.1
		c-157.9-2.8-229.5,68.7-229.5,68.7l440.5,1.5c0,0-39-49.5-149.7-65.4c27-12.8,107-50,136.1-57.1
		C2203.4,1377.6,2216.1,1340,2180.9,1325.9z"/>
</g>
<g>
	<path class="st7" d="M2056.6,1111.6h-95.1c-12.3,0-20.1,13.2-14.2,24c5.7,10.4-14.5,100.5-57.1,102.8c-40,2.2-73.2-29.7-73.2-69.3
		c0-14.9,4.7-28.7,12.7-40c5.2-7.3,0-17.5-9-17.5h-104.6c-14.3,0-25.9,11.6-25.9,25.9c0,0-9.5,112.3-17.6,108.3
		c-8.3-4.2-17.6-6.7-27.4-7.2l0,0h-0.1c-1.2-0.1-2.3-0.1-3.5-0.1c-1.2,0-18.4-0.3-18.4-0.3l-2.6,138.8l15,0.2
		c14.2-0.4,26.6-1.8,37.6-7.3c7.8-4,17.1,1.7,17.1,10.5v98c0,14.3,11.6,25.9,25.9,25.9h341.4c14,0,25.3-11.3,25.3-25.3v-341.1
		C2082.9,1123.4,2071.1,1111.6,2056.6,1111.6z"/>
	<path class="st8" d="M1607.9,1375.4c17,3.7,33.3,1.1,46.9-5.9c7.8-4,17.1,1.7,17.1,10.5v98c0,14.3,11.6,25.9,25.9,25.9h341.4
		c14,0,25.3-11.3,25.3-25.3v-341.1c0-14.5-11.8-26.3-26.3-26.3h-95.1c-12.3,0-20.1,13.2-14.2,24c5.7,10.4,8.9,22.4,8.6,35.2
		c-0.9,36-29.6,65.7-65.6,67.6c-40,2.1-73.2-29.7-73.2-69.3c0-14.9,4.7-28.7,12.7-40c5.2-7.3,0-17.5-9-17.5h-104.6
		c-14.3,0-25.9,11.6-25.9,25.9v97.4c0,9-9.5,14.9-17.6,10.8c-9.3-4.7-19.8-7.3-31-7.3c-43.8,0-78.1,40.5-67.5,86.1
		C1561.2,1347.3,1584.9,1370.4,1607.9,1375.4z"/>
</g>
<path class="st17" d="M619.3,1505.8l61.4,0.4c0,0-2.1-14.8-43.4-18.7l0,0c-16-44.5-63.1-164.2-103.9-158.5
	c-40.3,5.6,55.2,115.4,94.1,158.1c-5.5,0-10.6,0.5-15.4,1.2c-9.4-18.6-27.9-45-57.7-43.8c-31.7,1.3,11.5,30.2,41.2,48
	c-15.1,5.4-23.2,12.9-23.2,12.9l46.3,0.3c0.5,0.3,0.8,0.5,0.8,0.5S619.4,1506.1,619.3,1505.8z"/>
<g>
	<g>
		<path class="st6" d="M838.5,1010l9.1,7.4c0,0,24.8-8.9,30.4,20.6c0,0,1.5,12.6-6.5,12.6s-4.7-1.4-16-1s-20.6-5.6-22.3-14.8
			l-5.4-7.8L838.5,1010z"/>
		<path class="st8" d="M837.5,1025.8c7.2-7.6,6.7-13.2,6.7-13.2s-83.9-68.7-92.4-74.3c-5.8-3.8-67.6-58.6-96.5-92
			c-14.3-16.6-32.1-10.1-52.4-4.3l-16.7,4.8c-20.2,5.8-25.4,34-8.9,47.7c46.7,38.6,124.2,82.1,138.8,91.2
			c36,22.7,106.6,49.6,106.6,49.6S831.3,1032.3,837.5,1025.8z"/>
	</g>
	<path class="st18" d="M935.7,1447c0,0,20.4,15.3,51.5,7.2c0,0,25.2-5.7,30.7,6.8c0,0-38.6,19.6-48.3,24.9c-7.4,4-15,10.4-20.5,15.3
		c-4.3,3.9-11,3.4-14.7-1.1c-1.7-2.1-3.6-4.6-5.8-7.4c-6-8.1-19.8-34.1-19.8-34.1L935.7,1447z"/>
	<path class="st4" d="M945.2,1440c0,0-12.4,28.6-41,23.3c0,0-58.4-48.2-98.4-98.3c-13-16.3-24.1-32.7-30.6-47.8
		c-26.6-61.5-98.2-153.2-143.8-199.7l114-41.3c0,0,36.5,73.5,85.1,163.7C865.5,1305,906.8,1378.7,945.2,1440z"/>
	<path class="st18" d="M830.5,1240l-24.7,125c-13-16.3-24.1-32.7-30.6-47.8c-26.6-61.5-98.2-153.2-143.8-199.7l114-41.3
		C745.4,1076.3,781.9,1149.7,830.5,1240z"/>
	<path class="st18" d="M737,1463.2c0,0-1.2,22.8,26.4,25.8c0,0,15.8,0.1,15.8,14.6l-80.4,0.3c0,0-2.3-5.9-2.9-18.4
		c-0.4-9.6,9.3-34.8,9.3-34.8L737,1463.2z"/>
	<path class="st4" d="M708,1076.3c0,0,50.8,55.8,83,156.4c17.5,54.7-32.2,192.3-41.8,240.1c0,0-33.3,2.8-56.1-6
		c0,0-1.7-98.7,11.6-174.8c7.5-42.6-66.9-91.1-99.4-168c-22.1-52.3,4.8-51.5,37.8-52.7L708,1076.3z"/>
	<path class="st2" d="M649.3,827.2c-28.3,16-86.1,1.2-86.1,1.2s23.5-26.9,12.8-70.1l22.2,11.3l23.8,12.1c0,0,1.5,7.6,2.6,21.4
		c0.3,3.5,0.5,7.5,0.7,11.8C639.9,819.3,649.3,827.2,649.3,827.2z"/>
	<path class="st8" d="M753,1073.4c0,5-5.7,7.3-6.9,7.6c-11.4,2.1-43.2,14.5-71.9,17.3c-24.1,2.5-46.6,0.1-71.2-4.8
		c-3.3-0.7-10.9-2.7-11.5-5.8c-0.7-3.4-95-192.3-21.7-273.4c1.7-1.9,16.2,1.5,29.4,4.7c12.2,2.9,23.4,1.3,33.4-2.7l12.4,6.5
		c15.2,8.5,44.1,38.7,47.5,62.3c1.7,12,8.6,21,10.6,31.5c0.7,3.9,1.5,7.8,2.3,11.5c1.5,7.3,3,14.3,4.6,20.9
		c4.3,17.9,8.9,33.3,13.3,46.6c4.8,14.1,9.4,25.9,13.6,35.7c5.4,12.8,10,22.3,12.8,29.6C751.8,1066.1,753,1070.1,753,1073.4z"/>
	<path class="st8" d="M749.8,1060.9c-133.1-62.7-179.2-183.2-179.2-183.2s108.2,39.9,134.8,50.3c1.5,7.3,3,14.3,4.6,20.9
		c4.3,17.9,8.9,33.3,13.3,46.6c4.8,14.1,9.4,25.9,13.6,35.7C742.4,1044.1,746.9,1053.6,749.8,1060.9z"/>
	<path class="st16" d="M1125.8,927.5l-28.5-90.4c-2.8-8.8-11.9-12.9-19.8-10.7l0,0l0,0c-0.4,0.1-0.8,0.3-1.3,0.4l-10,3.3
		c0,0-15.7,16.1-26.9,19.4c-34.5,10-67.3-8.4-79.9-42.1c-14-37.5,2.3-78.6,39.9-90.5c12.9-4.1,38.2,3.5,38.2,3.5l10.2-3.4
		c5.5-1.7,9.3-7.6,7.3-13.9l-31.4-99.5c-4.3-13.6-18.8-21.2-32.4-16.9l-92.7,29.2c-8.6,2.7-17-4.6-15.6-13.4
		c1.6-10.3,1-21.1-2.4-31.7c-13.1-41.6-62-62.1-102.2-38.3c-20.2,12-35.1,41.4-33,64.8c1.6,17.3,8.9,32,19.7,42.9
		c6.1,6.2,3.5,16.7-4.9,19.4l-93.3,29.4c-13.6,4.3-21.1,18.8-16.9,32.4l102.4,324.8c4.2,13.3,18.4,20.7,31.6,16.5l324.4-102.3
		C1122.5,956,1130.2,941.3,1125.8,927.5z"/>
	<path class="st9" d="M735.7,600.7c1.6,17.3,8.9,32,19.7,42.9c6.1,6.2,3.5,16.7-4.9,19.4l-93.3,29.4c-13.6,4.3-21.1,18.8-16.9,32.4
		l102.4,324.8c4.2,13.3,18.4,20.7,31.6,16.5l324.4-102.3c13.8-4.3,21.4-19.1,17.1-32.8l-28.5-90.4c-3.7-11.7-18.6-15.2-27-6.3
		c-8.2,8.6-18.7,15.2-30.9,18.7c-34.5,10-71.4-8.5-84-42.2c-14-37.5,6.3-78.5,44-90.4c14.2-4.5,28.7-4.1,41.8,0.1
		c8.5,2.7,16.6-5.3,13.9-13.8l-31.4-99.5c-4.3-13.6-18.8-21.2-32.4-16.9l-92.7,29.2c-8.6,2.7-17-4.6-15.6-13.4
		c1.6-10.3,1-21.1-2.4-31.7c-13.1-41.7-62-62.1-102.2-38.3C748.4,547.9,733.5,577.3,735.7,600.7z"/>
	<g>
		<path class="st2" d="M827.7,1024.6l11.5,4.2c0,0,23-16.3,37.4,10.2c0,0,5.2,11.6-3,14.1s-5.2,0.2-16.8,4
			c-11.5,3.8-22.9,1.1-27.3-7.2l-7.8-5.7L827.7,1024.6z"/>
		<path class="st8" d="M837.2,1040.8c4.3-11.1,6.2-16.1,6.2-16.1s-86.9-70.8-95.8-76.9c-6-4.1-66.1-49-95.4-84.1
			c-14.5-17.4-37.4-25.3-59.6-20.7l-18.3,3.8c-22,4.6-29.2,32.5-12.1,47.2c48.1,41.3,129.3,89.1,144.5,99.1
			c37.6,24.7,120.7,59.3,120.7,59.3S833.8,1049.6,837.2,1040.8z"/>
	</g>
	<path class="st6" d="M624.7,803.1c-27.8,1.6-45.9-21.4-45.9-21.4s12.6-7,19.4-12.1l23.8,12.1C622,781.7,623.6,789.3,624.7,803.1z"
		/>
	<path class="st2" d="M636.5,774.5c0,0-42.1,30.2-60.5,3.7c-18.4-26.5-36.3-40.5-10.2-60.9c26.1-20.4,38.4-14,46.7-6.6
		C620.8,718.1,647,766,636.5,774.5z"/>
	<path class="st18" d="M617,686.8c-1.5-10.2-4.9-17.4-4.9-17.4s-2.6,11-22.7,9.4s-51.7,2-62.3,24.8c-0.7,1.5-1.3,3-1.8,4.5
		c-1.9-5-2.4-12.6-2.4-12.6c-3.8,9.8,0,22.1,0,22.1l0,0c-0.1,0.4-0.1,0.7-0.2,1.1c-4.4,3.7-8.1,15.3-8.1,15.3
		c1.3-3.2,4.6-5.3,7.5-6.7c-0.1,17.7,7.1,35.1,19.7,40.2c18.5,7.5,18.3,1.8,36.9,14.1c0,0,5-6.2,1.6-10.3
		c-3.4-4.2-16.2-10.2-9.1-16.2s9.8,0.8,12.5-3.4c2.6-4.2-10.6-16.2,6.4-27.5C607.2,712.8,618.5,697,617,686.8z"/>
</g>
<path class="st17" d="M1701.1,1504.1c0,0-21.3-31.5-54.6-28.9c-10.1,0.8-26.6,3.2-45.7,5.9c-14.4-50.3-54.2-169.9-107.8-176.7
	c-54.8-6.9,52.4,126.1,96.2,178.2c-8,1.1-16.3,2.1-24.7,3c-23.2-24.8-63.6-61.5-97.4-58.6c-33.8,2.8,29.5,37.8,75.2,60.7
	c-28.1,2.1-54.7,1.9-70.9-4.4c-39.8-15.4-76.4,20.9-76.4,20.9L1701.1,1504.1L1701.1,1504.1z"/>
<path class="st19" d="M2772.1,1510.8H202.9c-1.6,0-2.9-1.3-2.9-2.9v-1c0-1.6,1.3-2.9,2.9-2.9h2569.2c1.6,0,2.9,1.3,2.9,2.9v1
	C2775,1509.4,2773.7,1510.8,2772.1,1510.8z"/>
</svg>
