<?xml version="1.0" encoding="utf-8"?>
<!-- Generator: Adobe Illustrator 23.0.1, SVG Export Plug-In . SVG Version: 6.00 Build 0)  -->
<svg version="1.1" id="Layer_1" xmlns="http://www.w3.org/2000/svg" xmlns:xlink="http://www.w3.org/1999/xlink" x="0px" y="0px"
	 viewBox="0 0 3500 2000" style="enable-background:new 0 0 3500 2000;" xml:space="preserve">
<style type="text/css">
	.st0{fill:#F5F5F5;}
	.st1{fill:#EBEBEB;}
	.st2{fill:#E0E0E0;}
	.st3{fill:#263238;}
	.st4{fill:#455A64;}
	.st5{fill:#FFFFFF;}
	.st6{fill:#00858E;}
	.st7{fill:#FFC93C;}
	.st8{opacity:0.6;}
	.st9{opacity:0.2;}
	.st10{fill:#FFBE9D;}
	.st11{fill:#EB996E;}
	.st12{fill:#FAFAFA;}
</style>
<g>
	<path class="st0" d="M2727.5,333.7c8.1,55.5-30.1,107.2-85.6,115.7c-55.5,8.5-107.2-30.1-115.7-85.6
		c-8.1-55.5,30.1-107.2,85.6-115.7c0,0,0,0,0.4,0C2667.8,239.6,2719,278.2,2727.5,333.7z"/>
	<path class="st1" d="M2703.4,337.1c6.4,42.4-22.9,81.8-65.3,88.1c-42.4,6.4-81.8-22.9-88.1-65.3s22.9-81.8,65.3-88.1l0,0
		C2658,265.5,2697.4,294.7,2703.4,337.1z"/>
	<path class="st2" d="M2702.9,334.6c-1.3-3-2.5-5.9-3.4-8.9c-4.7-13.6-13.1-25.4-24.6-34.7c-5.1-4.2-11-7.6-16.9-10.6
		c-3.4-1.7-6.8-3-10.2-3.8c-3.4-0.8-7.2-1.7-11-2.5c-3.8-0.4-7.6-0.8-11.4-0.8c-3.8,0-8.1,0.4-11.9,1.3c-3.8,0.8-7.6,1.7-11.4,3
		c-3.8,1.3-7.2,3-10.6,4.7c-3.4,1.7-6.4,3.8-9.3,5.9c-3,2.1-5.5,4.2-8.1,6.8c-4.7,4.7-8.9,9.7-12.3,15.7c-3,5.1-5.5,10.2-7.2,16.1
		c-2.5,8.1-3.8,16.5-3.8,25c0.4,3,0.4,6.4,0,9.3c-1.3-3-2.1-6.4-2.1-9.3c-0.8-8.9,0-17.8,2.1-26.3c3.4-12.7,10.2-24.6,19.5-34.3
		c2.5-2.5,5.5-5.5,8.5-7.6c6.4-5.1,14-8.9,21.6-11.9c4.2-1.3,8.1-2.5,12.3-3.4c4.2-0.8,8.5-1.3,12.7-1.3c4.2,0,8.5,0.4,12.7,0.8
		c3.8,0.4,8.1,1.3,11.9,2.5c3.8,1.3,7.2,2.5,10.6,4.2c6.4,3,12.3,6.8,17.8,11.9c4.7,4.2,8.9,8.5,12.7,13.6c5.1,7.2,8.9,15.3,11,24.2
		C2702.9,328.2,2703.4,331.6,2702.9,334.6z"/>
	<path class="st2" d="M2641.9,392.6l2.1,13.6l-11.9,1.7l-2.1-13.1c-10.6,1.3-21.6-0.4-31.4-5.1l4.2-15.7c7.6,3.8,16.1,5.5,24.6,4.7
		l-3.4-19.9c-13.6-1.3-29.2-3-31.8-20.3c-2.1-12.7,5.5-25,23.7-30.1l-2.1-13.1l11.9-1.7l2.1,13.1c8.5-0.8,17.4,0.4,25.4,3.4
		l-3.4,15.7c-5.9-2.1-12.7-3.4-19.1-3.4l3.4,20.3c13.6,0.8,28.8,3,31.8,19.9C2667.8,375.2,2660.6,387.5,2641.9,392.6z M2622,341.8
		l-2.5-16.9c-5.9,2.5-8.1,6.4-7.2,10.2C2613.1,338.8,2616.5,341.3,2622,341.8L2622,341.8z M2647,367.2c-0.8-4.2-4.2-5.9-9.7-6.8
		l2.5,16.5C2645.3,374.8,2647.4,371.4,2647,367.2L2647,367.2z"/>
	<path class="st0" d="M2410.6,351.5c14.4,96.6-52.5,186-148.7,200.4c-96.6,14.4-186-52.5-200.4-148.7
		c-14.4-96.2,52.5-186,148.7-200.4h0.4C2307.2,188.8,2396.6,255.3,2410.6,351.5z"/>
	<path class="st1" d="M2369.1,357.4c11,73.3-39.8,141.9-113.6,152.5c-73.3,11-141.9-39.8-152.5-113.6
		c-11-73.3,39.8-141.9,113.6-152.5l0,0C2289.8,233.3,2358,284.1,2369.1,357.4L2369.1,357.4z"/>
	<path class="st2" d="M2368.6,353.6c-0.8,0-2.1-5.5-5.9-15.7c-5.1-14-12.3-26.7-21.2-38.6c-6.4-8.1-13.6-15.3-21.2-21.6
		c-8.9-7.2-18.6-13.6-29.2-18.2c-5.5-2.5-11.4-4.7-17.4-6.4c-6.4-1.7-12.7-3.4-19.1-4.2c-6.8-0.8-13.6-1.3-20.3-1.3
		c-14,0.4-27.5,2.5-40.7,7.2c-6.4,2.1-12.3,5.1-18.2,8.1c-5.9,3-11.4,6.4-16.5,10.2s-9.7,7.6-14.4,12.3
		c-8.1,8.1-15.3,17.4-21.2,27.1c-5.1,8.9-9.3,17.8-12.3,27.5c-4.2,14-6.8,28.8-6.8,43.6c0,10.6,0.8,16.5,0,16.5
		c-0.8,0-2.5-5.5-3.8-16.1c-1.7-15.3-0.4-30.9,3.8-45.8c5.9-22.5,17.8-42.8,33.9-59.3c4.7-4.7,9.7-9.3,14.8-13.1
		c5.5-4.2,11.4-8.1,17.4-11.4c6.4-3.4,13.1-6.4,19.9-8.9c7.2-2.5,14.4-4.2,21.6-5.5s14.8-2.1,22.5-2.1c7.2,0,14.4,0.4,21.6,1.3
		c6.8,0.8,14,2.5,20.3,4.7c6.4,2.1,12.7,4.2,18.6,7.2c11,5.5,21.6,12.3,30.9,20.3c8.1,7.2,15.3,15.3,21.6,23.7
		c8.9,12.7,15.7,26.7,19.1,41.5C2369.1,347.3,2369.1,353.2,2368.6,353.6z"/>
	<path class="st2" d="M2262.7,454l3.8,23.3l-20.8,3.4l-3.8-22.5c-20.8,2.1-41.5-1.3-54.2-8.5l7.2-27.1c13.1,6.4,27.5,9.3,42.4,8.5
		l-5.5-34.3c-23.7-1.7-50.8-5.5-55.5-35.2c-3.4-22,9.3-43.2,41.5-52.1l-3.8-22.9l20.8-3.4l3.8,22.5c14.8-1.7,30.1,0.4,44.1,5.9
		l-5.9,27.1c-10.6-4.2-22-5.9-33.5-5.5l5.5,35.2c23.7,1.7,50.4,5.1,55.1,34.3C2307.2,424,2294.5,445.1,2262.7,454z M2227.1,366.3
		l-4.7-29.2c-10.6,4.2-14,11-12.7,17.8C2211,361.7,2217.8,364.6,2227.1,366.3L2227.1,366.3z M2270.7,410.4
		c-1.3-7.2-7.6-10.2-16.9-11.9l4.7,28.4C2268.2,423.1,2272,416.8,2270.7,410.4L2270.7,410.4z"/>
	<path class="st0" d="M850.4,952.8c8.1,55.5-30.1,107.2-85.6,115.7c-55.5,8.1-107.2-30.1-115.7-85.6
		c-8.1-55.5,30.1-107.2,85.6-115.7c0,0,0,0,0.4,0C790.7,858.7,842,897.3,850.4,952.8z"/>
	<path class="st1" d="M826.3,956.2c6.4,42.4-22.9,81.8-65.3,88.1c-42.4,6.4-81.8-22.9-88.1-65.3c-6.4-42.4,22.9-81.8,65.3-88.1
		c0,0,0,0,0.4,0C780.9,884.5,819.9,913.8,826.3,956.2z"/>
	<path class="st2" d="M825.9,953.6c-1.3-3-2.5-5.9-3.4-8.9c-3-8.1-7.2-15.7-12.3-22c-3.4-4.7-7.6-8.9-12.3-12.3
		c-5.1-4.2-11-7.6-16.9-10.6c-3.4-1.7-6.8-3-10.2-3.8c-3.4-1.3-7.2-1.7-11-2.5c-3.8-0.4-7.6-0.8-11.4-0.8s-8.1,0.4-11.9,1.3
		c-11.4,2.1-22.5,6.8-31.8,13.6c-3,2.1-5.5,4.7-8.1,6.8c-4.7,4.7-8.9,9.7-12.3,15.7c-3,5.1-5.5,10.2-7.2,16.1
		c-2.5,8.1-3.8,16.5-3.8,25c0.4,3,0.4,6.4,0,9.3c-1.3-3-2.1-6.4-2.1-9.3c-0.8-8.9-0.4-17.8,2.1-26.3c1.7-5.9,3.8-11.4,6.8-16.9
		c3.4-6.4,7.6-11.9,12.7-16.9c2.5-3,5.5-5.5,8.5-7.6c6.8-5.1,14-8.9,21.6-11.4c4.2-1.3,8.1-2.5,12.3-3.4c4.2-0.8,8.5-1.3,12.7-1.3
		c4.2,0,8.5,0,12.7,0.8c3.8,0.4,8.1,1.3,11.9,2.5c3.8,1.3,7.2,2.5,10.6,4.2c12.3,5.9,22.5,14.4,30.1,25.4c5.1,7.2,8.9,15.3,11,24.2
		C825.9,947.3,826.3,950.6,825.9,953.6z"/>
	<path class="st2" d="M764.8,1011.7l2.1,13.1l-11.9,2.1l-2.1-13.1c-10.6,1.3-21.6-0.4-31.4-4.7l4.2-15.7c7.6,3.8,16.1,5.5,24.6,4.7
		l-3.4-19.9c-13.6-0.8-29.2-3-31.8-20.3c-2.1-12.7,5.5-25,23.7-30.1l-2.1-13.1l11.9-1.7l2.1,13.1c8.5-0.8,17.4,0.4,25.4,3.4
		l-3.8,15.7c-5.9-2.5-12.7-3.4-19.1-3.4l3.4,20.3c13.6,0.8,28.8,3,31.8,19.9C790.7,994.3,783.5,1006.6,764.8,1011.7z M744.5,960.8
		l-2.5-16.9c-5.9,2.5-8.1,6.4-7.2,10.2C735.6,957.8,739,960.4,744.5,960.8L744.5,960.8z M769.9,986.2c-0.8-4.2-4.7-5.9-9.7-6.8
		l2.5,16.5C768.2,993.9,770.3,990.1,769.9,986.2L769.9,986.2z"/>
	<path class="st0" d="M676.3,728.6c-30.9,19.5-71.6,10.6-91.1-20.3s-10.6-71.6,20.3-91.1c30.9-19.5,71.6-10.6,91.1,20.3l0,0
		C716.1,668.4,706.8,709.1,676.3,728.6L676.3,728.6z"/>
	<path class="st1" d="M667.8,715.5c-23.7,14.8-54.7,8.1-69.5-15.7c-14.8-23.7-8.1-54.7,15.7-69.5c23.7-14.8,54.7-8.1,69.5,15.7l0,0
		C698.3,669.7,691.1,700.6,667.8,715.5z"/>
	<path class="st2" d="M669.1,714.6c0-0.4,1.7-1.7,4.2-4.2c3.8-3.8,7.2-8.5,9.7-13.1c3.8-7.2,5.9-15.3,5.9-23.3c0-2.5,0-4.7-0.4-6.8
		c-0.4-2.5-0.8-4.7-1.7-7.2c-0.8-2.5-1.7-4.7-2.5-7.2c-2.1-4.7-5.1-8.9-8.9-12.7c-1.7-1.7-3.4-3.4-5.5-5.1c-1.7-1.7-3.8-3-5.9-4.2
		c-2.1-1.3-4.2-2.5-6.4-3.4c-4.2-1.7-8.5-2.5-12.7-3.4c-3.8-0.4-7.6-0.4-11.4,0c-5.5,0.4-11,2.1-16.1,4.2c-1.7,0.8-3.8,1.7-5.5,2.5
		c0,0,1.7-1.7,5.1-3.8c5.1-3,10.6-4.7,16.1-5.5c3.8-0.4,8.1-0.8,11.9-0.4c4.7,0.4,9.3,1.3,13.6,3c2.5,0.8,4.7,2.1,6.8,3
		c2.1,1.3,4.7,2.5,6.8,4.2c4.2,3.4,8.1,7.6,11.4,11.9c1.7,2.1,3,4.7,4.2,7.2c1.3,2.5,2.1,5.1,3,7.6c0.8,2.5,1.3,5.1,1.7,7.6
		s0.4,5.1,0.4,7.6c0,4.7-0.8,9.3-2.1,13.6c-1.3,3.8-3,7.6-5.1,11c-3,5.1-6.8,9.3-11.4,13.1C672.9,712.5,671.2,713.8,669.1,714.6z"/>
	<path class="st2" d="M618.7,693.9l-7.2,4.7l-4.2-6.8l7.2-4.7c-3.8-5.9-5.5-12.7-5.5-19.9l10.2-1.7c0,5.5,1.3,11,3.8,15.7l11-7.2
		c-3-8.5-5.9-18.2,3.4-24.2c6.8-4.7,16.1-3.4,24.2,6.4l7.2-4.7l4.2,6.8l-7.2,4.7c3,4.7,4.2,10.2,4.7,16.1l-10.2,2.1
		c0-4.2-1.3-8.5-3-12.3l-11,7.2c3,8.5,5.9,17.8-3.4,24.2C635.6,704.5,626.3,703.2,618.7,693.9z M643.2,668.4l9.3-5.9
		c-3-3-5.9-3-8.1-1.7S642.4,664.6,643.2,668.4L643.2,668.4z M634.8,690.1c2.1-1.7,2.1-4.2,1.3-7.6l-8.9,5.9
		C630.1,690.9,632.6,691.3,634.8,690.1L634.8,690.1z"/>
	<path class="st0" d="M2450.4,182.9c-30.9,19.5-71.6,10.6-91.1-20.3c-19.5-30.9-10.6-71.6,20.3-91.1s71.6-10.6,91.1,20.3l0,0
		C2490.2,122.7,2481.3,163.4,2450.4,182.9L2450.4,182.9z"/>
	<path class="st1" d="M2441.9,169.7c-23.3,14.8-54.7,8.1-69.5-15.7s-8.1-54.7,15.7-69.5c23.3-14.8,54.7-8.1,69.5,15.7l0,0
		C2472.4,124,2465.2,154.9,2441.9,169.7z"/>
	<path class="st2" d="M2443.2,168.9c0-0.4,1.7-1.7,4.2-4.2c3.8-3.8,7.2-8.5,9.7-13.1c1.7-3.4,3.4-6.8,4.2-10.6
		c1.3-4.2,1.7-8.5,1.7-12.7c0-2.5,0-4.7-0.4-7.2c-0.4-2.5-0.8-4.7-1.7-7.2c-0.8-2.5-1.7-4.7-2.5-7.2c-1.3-2.5-2.5-4.7-3.8-6.8
		c-1.3-2.1-3-4.2-4.7-5.9s-3.4-3.4-5.5-5.1c-1.7-1.7-3.8-3-5.9-4.2s-4.2-2.1-6.4-3c-4.2-1.7-8.5-2.5-12.7-3c-3.8-0.4-7.6-0.4-11.4,0
		c-5.5,0.4-11,2.1-16.1,4.2c-1.7,0.8-3.8,1.7-5.5,2.5c0,0,1.7-1.7,5.1-3.8c5.1-3,10.6-4.7,16.1-5.5c3.8-0.8,8.1-0.8,11.9-0.4
		c4.7,0.4,9.3,1.3,13.6,3c2.5,0.8,4.7,2.1,6.8,3c4.7,2.5,8.9,5.9,12.7,9.7c1.7,2.1,3.4,4.2,5.1,6.4c1.7,2.5,3,4.7,4.2,7.2
		c1.3,2.5,2.1,5.1,3,7.6c0.8,2.5,1.3,5.1,1.7,7.6c0.4,2.5,0.4,5.1,0.4,7.6c0,4.7-0.8,9.3-2.1,13.6c-1.3,3.8-3,7.6-5.1,11.4
		c-3,5.1-6.8,9.3-11.4,12.7C2447,167.2,2445.3,168,2443.2,168.9z"/>
	<path class="st2" d="M2392.8,148.1l-7.2,4.7l-4.2-6.4l7.2-4.7c-3.8-5.9-5.5-12.7-5.5-19.9l10.2-1.7c0,5.5,1.3,11,3.8,15.7l11-7.2
		c-3-8.5-5.9-18.2,3.4-24.2c6.8-4.7,16.1-3.4,24.2,6.4l7.6-4.7l4.2,6.4l-7.2,4.7c3,5.1,4.2,10.2,4.7,16.1l-10.2,2.1
		c-0.4-4.2-1.3-8.5-3-12.3l-11,7.2c3,8.5,5.9,17.8-3.4,24.2C2409.7,158.7,2400.4,157.4,2392.8,148.1z M2417.4,122.7l9.3-5.9
		c-3-3-5.9-3-8.1-1.7S2416.5,118.9,2417.4,122.7L2417.4,122.7z M2408.9,144.3c2.1-1.7,2.1-4.2,1.3-7.6l-8.9,5.9
		C2404.2,145.1,2406.8,145.6,2408.9,144.3L2408.9,144.3z"/>
	<g id="freepik--Floor--inject-3">
		<path class="st3" d="M3172,1925.6c0,0.4-636,1.3-1420.3,1.3s-1420.7-0.4-1420.7-1.3c0-0.8,636-1.3,1420.7-1.3
			S3172,1924.8,3172,1925.6z"/>
	</g>
	<g id="freepik--Device--inject-3">
		<path class="st3" d="M2997,502.8H1383.9c-28,0-50.4,22.5-50.4,50.4l0,0v1139.4c0,28,22.5,50.4,50.4,50.4l0,0H2003
			c0,0,39.4,121.6-82.6,184.7h578.8c0,0-137.7-47.5-102.5-184.7H2997c28,0,50.4-22.5,50.4-50.4l0,0V553.2
			C3047.4,525.7,3025,502.8,2997,502.8L2997,502.8z"/>
		<path class="st4" d="M2211.8,1623.1c22,31.4-12.3,65.7-43.6,43.6c-0.8-0.8-2.1-1.7-2.5-2.5c-22-31.4,12.3-65.7,43.6-43.6
			C2210.2,1621,2211,1622.2,2211.8,1623.1z"/>
		<path class="st5" d="M1402.1,524h1576.2c22.9,0,41.1,18.2,41.1,41.1l0,0V1535l0,0h-1658l0,0V565.1
			C1361.4,542.2,1379.7,524,1402.1,524z"/>
		<rect x="1501.7" y="751.9" class="st6" width="54.2" height="607.6"/>
		<rect x="1606.8" y="958.3" class="st6" width="54.2" height="401.3"/>
		<rect x="1711.9" y="827.3" class="st6" width="54.2" height="535.2"/>
		<rect x="1816.9" y="775.6" class="st6" width="54.2" height="583.9"/>
		<rect x="1921.6" y="970.6" class="st6" width="54.2" height="389"/>
		<rect x="2026.7" y="1046.8" class="st6" width="54.2" height="312.7"/>
		<rect x="2131.8" y="814.2" class="st6" width="54.2" height="544.9"/>
		<rect x="2236.8" y="912.5" class="st6" width="54.2" height="446.6"/>
		<rect x="2341.9" y="834.1" class="st6" width="54.2" height="525.4"/>
		<rect x="2447" y="1001.5" class="st6" width="54.2" height="358"/>
		<rect x="2656.3" y="814.2" class="st6" width="54.2" height="544.9"/>
		<rect x="2879.2" y="1165" class="st6" width="54.2" height="186.4"/>
		<rect x="2770.3" y="1001.5" class="st6" width="54.2" height="358"/>
		<rect x="2551.7" y="933.3" class="st6" width="54.2" height="425.8"/>
		<path class="st3" d="M2949.1,829.5c-1.7,0-3.4-0.4-4.7-0.8l-14-3c-7.6-1.7-14.8-3-22.5-3.8c-10.2-1.3-20.8-2.1-30.9-2.5
			c-28.4-0.8-57.2,1.7-85.2,7.2c-36.9,8.1-72.5,21.6-105.5,39.8c-39.8,22.5-76.3,51.3-106.8,85.2c-33.5,36.4-61.4,81.8-90.3,129.2
			c-28.8,47.5-58.5,99.2-101.3,143.2c-21.2,22.9-46.6,41.9-74.6,55.9c-14.4,7.2-30.1,11.9-46.2,14c-16.1,2.1-32.6,1.7-48.7-1.7
			c-32.2-7.2-61-24.2-84.7-44.5c-23.7-20.3-44.9-43.2-63.1-68.6c-36.4-49.2-62.3-102.1-90.3-150.4c-28-48.3-55.5-93.6-90.3-129.2
			c-16.5-17.4-35.2-31.8-55.5-43.6c-9.7-5.5-19.9-10.6-30.1-14.4s-20.3-6.8-30.5-8.9c-36.9-8.5-75.4-7.2-111.9,3
			c-27.5,8.1-53.4,20.3-76.7,36.9c-14.4,10.6-28,22.9-40.3,36l-9.3,10.6c-0.8,1.3-2.1,2.5-3.4,3.4c0.8-1.3,1.7-2.5,3-3.8l8.9-11
			c11.9-13.6,25.4-26.3,39.8-37.3c23.3-16.9,49.6-30.1,77.1-38.1c36.9-11,75.8-12.7,113.6-4.2c41.9,8.5,84.3,32.2,119.1,68.2
			s63.6,81.4,91.5,129.7c28,48.3,53.8,101.3,90.3,149.6c17.8,25,39,47.9,61.9,67.8c23.7,19.9,51.3,36.4,82.2,43.2
			c15.3,3,30.9,3.8,46.6,1.7c15.3-2.1,30.5-6.8,44.5-13.6c27.5-13.6,52.1-32.2,72.9-54.7c42.4-43.2,71.6-94.5,100.8-141.9
			c29.2-47.5,57.2-93.2,91.1-130.1c31.4-33.9,68.2-63.1,108.5-85.6c33.5-18.6,69.5-31.8,107.2-39.4c28.4-5.5,57.2-7.6,86-6.4
			c10.6,0.4,20.8,1.7,31.4,3.4c7.6,0.8,15.3,2.5,22.5,4.2l13.6,3.4C2945.7,828.6,2947.4,829,2949.1,829.5z"/>
		<path class="st3" d="M1441.9,1401.9c-1.3,0-2.1-173.3-2.1-386.9s0.8-386.9,2.1-386.9s2.1,173.3,2.1,386.9
			S1443.2,1401.9,1441.9,1401.9z"/>
		<path class="st3" d="M2933.4,1401.9c0,1.3-326.3,2.1-728.8,2.1s-728.8-0.8-728.8-2.1s326.3-2.1,728.8-2.1
			S2933.4,1400.6,2933.4,1401.9z"/>
		<path class="st3" d="M1579.2,1449.4c0,1.3-18.2,2.1-40.3,2.1s-40.3-0.8-40.3-2.1s18.2-2.1,40.3-2.1S1579.2,1448.5,1579.2,1449.4z"
			/>
		<path class="st3" d="M1713.1,1451.9c0,1.3-21.6,2.1-48.3,2.1s-48.3-0.8-48.3-2.1s21.6-2.1,48.3-2.1S1713.1,1450.6,1713.1,1451.9z"
			/>
		<path class="st3" d="M1827.5,1451.9c0,1.3-21.6,2.1-48.3,2.1s-48.3-0.8-48.3-2.1s21.6-2.1,48.3-2.1S1827.5,1450.6,1827.5,1451.9z"
			/>
		<path class="st3" d="M1941.5,1451.9c0,1.3-21.6,2.1-48.3,2.1c-26.7,0-48.3-0.8-48.3-2.1s21.6-2.1,48.3-2.1
			C1919.9,1449.8,1941.5,1450.6,1941.5,1451.9z"/>
		<path class="st3" d="M2055.9,1451.9c0,1.3-21.6,2.1-48.3,2.1c-26.7,0-48.3-0.8-48.3-2.1s21.6-2.1,48.3-2.1
			C2034.3,1449.8,2055.9,1450.6,2055.9,1451.9z"/>
		<path class="st3" d="M2169.9,1451.9c0,1.3-21.6,2.1-48.3,2.1s-48.3-0.8-48.3-2.1s21.6-2.1,48.3-2.1S2169.9,1450.6,2169.9,1451.9z"
			/>
		<path class="st3" d="M2284.3,1451.9c0,1.3-21.6,2.1-48.3,2.1c-26.7,0-48.3-0.8-48.3-2.1s21.6-2.1,48.3-2.1
			C2262.7,1449.8,2284.3,1450.6,2284.3,1451.9z"/>
		<path class="st3" d="M2398.3,1451.9c0,1.3-21.6,2.1-48.3,2.1c-26.7,0-48.3-0.8-48.3-2.1s21.6-2.1,48.3-2.1
			C2376.7,1449.8,2398.3,1450.6,2398.3,1451.9z"/>
		<path class="st3" d="M2512.7,1451.9c0,1.3-21.6,2.1-48.3,2.1c-26.7,0-48.3-0.8-48.3-2.1s21.6-2.1,48.3-2.1
			C2491.1,1449.8,2512.7,1450.6,2512.7,1451.9z"/>
		<path class="st3" d="M2626.7,1451.9c0,1.3-21.6,2.1-48.3,2.1s-48.3-0.8-48.3-2.1s21.6-2.1,48.3-2.1S2626.7,1450.6,2626.7,1451.9z"
			/>
		<path class="st3" d="M2733,1451.9c0,1.3-21.6,2.1-48.3,2.1c-26.7,0-48.3-0.8-48.3-2.1s21.6-2.1,48.3-2.1
			C2711.4,1449.8,2733,1450.6,2733,1451.9z"/>
		<path class="st3" d="M2839.4,1451.9c0,1.3-21.6,2.1-48.3,2.1c-26.7,0-48.3-0.8-48.3-2.1s21.6-2.1,48.3-2.1
			C2817.8,1449.8,2839.4,1451.1,2839.4,1451.9z"/>
		<path class="st3" d="M2945.3,1451.9c0,1.3-21.6,2.1-48.3,2.1c-26.7,0-48.3-0.8-48.3-2.1s21.6-2.1,48.3-2.1
			C2923.7,1449.8,2945.3,1451.1,2945.3,1451.9z"/>
		<path class="st3" d="M1997,1035c0-0.8,6.8,1.3,8.9,10.6c1.3,5.1,0.8,11-1.7,15.7c-1.7,3.4-4.7,5.5-8.1,6.8
			c-3.8,0.8-7.6,0.4-11-1.3c-6.4-3.4-9.7-10.2-9.3-17.4c0.4-5.5,3-10.6,7.6-14c3-2.5,6.8-3.4,10.6-2.5
			C1996.2,1033.3,1997,1034.5,1997,1035c-0.4,0-5.5-1.7-11,3.4c-3,3-4.7,6.8-4.7,11c0,4.7,2.5,9.3,6.8,11.9c3.8,2.5,8.9,1.3,11-2.5
			c0,0,0,0,0-0.4c2.1-3.8,3-8.1,2.1-12.3C2000.8,1038.4,1996.6,1035.4,1997,1035z"/>
		<path class="st3" d="M2712.7,835c0-0.4,1.7-0.8,4.7,0c4.2,1.7,7.6,4.7,9.7,8.5c3.4,5.9,4.2,12.7,2.5,19.1
			c-2.1,8.5-9.7,14.4-18.6,14.8c-4.7,0-8.9-2.5-11.9-5.9c-2.5-3-4.2-6.8-5.1-10.6c-1.7-6.4-0.4-13.1,3-19.1
			c6.8-9.3,14.8-8.9,14.8-8.5c0.4,0.8-6.4,2.1-11,10.6c-2.5,4.7-3,10.2-1.3,15.3c1.3,5.5,5.9,11.9,11.4,11.9
			c5.9-0.4,11.4-4.7,13.1-10.6c1.7-5.1,1.3-10.6-0.8-15.3C2721.2,840.9,2717.3,837.1,2712.7,835z"/>
		<rect x="1004.2" y="215.5" class="st5" width="1091.5" height="849.6"/>
		<path class="st3" d="M2095.7,1065c0-8.5-0.4-336.9-0.8-849.6l0.8,0.8H1004.2l0,0l1.3-1.3c0,306.4,0,595.8,0,849.6l-1.3-1.3
			L2095.7,1065l-1091.1,0.8h-1.3v-1.3c0-253.8,0-543.2,0-849.6v-1.3h1.3h1091.5h0.8v0.8C2096.2,728.2,2095.7,1056.6,2095.7,1065z"/>
		<rect x="1057.2" y="327.4" class="st3" width="176.7" height="9.7"/>
		<rect x="1057.2" y="350.2" class="st3" width="87.3" height="9.7"/>
		<rect x="1158.1" y="943" class="st3" width="32.2" height="9.3"/>
		<rect x="1230.5" y="992.2" class="st3" width="41.1" height="9.3"/>
		<rect x="1372.9" y="992.2" class="st3" width="41.1" height="9.3"/>
		<rect x="1515.7" y="992.2" class="st3" width="41.1" height="9.3"/>
		<rect x="1658" y="992.2" class="st3" width="41.1" height="9.3"/>
		<rect x="1800.4" y="992.2" class="st3" width="41.1" height="9.3"/>
		<rect x="1943.2" y="992.2" class="st3" width="41.1" height="9.3"/>
		<rect x="1158.1" y="819.7" class="st3" width="32.2" height="9.3"/>
		<rect x="1158.1" y="587.9" class="st3" width="32.2" height="9.3"/>
		<rect x="1158.1" y="471.4" class="st3" width="32.2" height="9.3"/>
		<rect x="1159.7" y="704" class="st3" width="32.2" height="9.3"/>
		<path class="st3" d="M1982.6,952.3c0,0-1.3,0-3.4,0h-10.2l-38.6,0.4l-142.4,0.4l-469.9,0.4h-112.3v-1.3
			c0-157.2,0.4-295.3,0.4-394.5c0-49.6,0.4-89,0.4-116.5c0-13.6,0-24.2,0-31.4c0-3.4,0-6.4,0-8.1c0-1.7,0-3,0-3s0,0.8,0,3
			c0,2.1,0,4.7,0,8.1c0,7.2,0,17.8,0,31.4c0,27.5,0,66.9,0.4,116.5c0,99.2,0.4,237.3,0.4,394.5l-1.3-1.3h112.3l469.9,0.4l142.4,0.4
			l38.6,0.4h10.2L1982.6,952.3z"/>
		<path class="st3" d="M1991.9,708.3c0,0.4-168.6,1.3-377.1,1.3s-377.1-0.4-377.1-1.3c0-0.8,168.6-1.3,377.1-1.3
			S1991.9,707.9,1991.9,708.3z"/>
		<path class="st3" d="M1991.9,592.6c0,0.4-168.6,1.3-377.1,1.3s-377.1-0.4-377.1-1.3c0-0.8,168.6-1.3,377.1-1.3
			S1991.9,591.8,1991.9,592.6z"/>
		<path class="st3" d="M1991.9,476.1c0,0.4-168.6,1.3-377.1,1.3s-377.1-0.4-377.1-1.3c0-0.8,168.6-1.3,377.1-1.3
			S1991.9,475.2,1991.9,476.1z"/>
		<path class="st3" d="M1991.9,824.4c0,0.4-168.6,1.3-377.1,1.3s-377.1-0.4-377.1-1.3c0-0.8,168.6-1.3,377.1-1.3
			S1991.9,824,1991.9,824.4z"/>
		<path class="st4" d="M1245.8,927.3v-103l64-99.6l43.6,33.5l89.4-138.6l52.5,37.3l73.3-128l59.3,48.3l89.4-169.5l96.2,189.8
			l77.5-94.9l91.5-26.3v451.3h-736.9V927.3z"/>
		<path class="st3" d="M1991.9,439.6c-0.4,0-1.3,0-1.7,0h-4.7h-18.6l-70.3,0.4l0.4-0.4l-75.4,98.7l-0.4,0.4h-0.4h-188.1l0.8-0.4
			l-79.2,131.8c-27.1,44.9-53,88.6-78,129.2l-0.8,1.3l-0.8-1.3l-102.1-140.3h1.7l-93.2,145.3l-25.8,40.3c-3,4.7-5.1,8.1-6.8,10.6
			c-1.7,2.5-2.5,3.4-2.5,3.4s0.8-1.3,2.1-3.8l6.8-10.6c5.9-9.3,14.4-22.9,25.4-40.7l92.4-145.8l0.8-1.3l0.8,0.8l102.5,140.3h-1.7
			l77.5-129.2l79.2-131.8l0.4-0.4h0.8l188.6,0.4l-0.8,0.4l75.8-97.9v-0.4h0.4l70.3,0.4h18.6h4.7L1991.9,439.6z"/>
		<path class="st3" d="M1403.8,691.8c0,3.8-3,7.2-6.8,7.6c-3.8,0-7.2-3-7.6-6.8c0-3.8,3-7.2,6.8-7.6c0,0,0,0,0.4,0
			C1400.4,684.5,1403.8,687.9,1403.8,691.8z"/>
		<path class="st3" d="M1621.6,568c0,3.8-3,7.2-6.8,7.6c-3.8,0-7.2-3-7.6-6.8c0-3.8,3-7.2,6.8-7.6h0.4
			C1618.2,560.8,1621.2,564.2,1621.6,568L1621.6,568z"/>
		<ellipse class="st3" cx="1783.5" cy="537.9" rx="7.2" ry="6.8"/>
		<path class="st3" d="M1049.6,250.7c0,4.7-3.8,8.5-8.5,8.5c-4.7,0-8.5-3.8-8.5-8.5s3.8-8.5,8.5-8.5
			C1045.8,242.2,1049.6,246,1049.6,250.7z"/>
		<path class="st3" d="M1074.2,250.7c0,4.7-3.8,8.5-8.5,8.5s-8.5-3.8-8.5-8.5s3.8-8.5,8.5-8.5S1074.2,246,1074.2,250.7z"/>
		<path class="st3" d="M1098.7,250.7c0,4.7-3.8,8.5-8.5,8.5c-4.7,0-8.5-3.8-8.5-8.5s3.8-8.5,8.5-8.5
			C1094.9,242.2,1098.7,246,1098.7,250.7z"/>
		<path class="st3" d="M2094.9,283.7c0,0.4-244.1,1.3-544.9,1.3s-544.5-0.8-544.5-1.3s243.6-1.3,544.9-1.3
			S2094.9,282.9,2094.9,283.7z"/>
	</g>
	<g id="freepik--money-box--inject-3">
		<path class="st7" d="M331.4,1570.5l22.9,82.2c13.1,46.2,58.9,75.4,106.4,67.8l0,0c0,0,43.2,61.9,61.9,72l16.5,131.8h99.2l7.6-53.4
			c71.2,30.1,148.3,43.6,225,40.3c125.4-6.8,155.5-43.2,155.5-43.2l14.8,56.8H1153l18.2-145.3c0,0,136.9-122,101.7-263.6
			c0,0,98.3-67.4,65.3-163.1l-19.9-8.9c0,0-31.8,56.8-65.3,68.2c0,0-89.8-289-428-265.2c0,0-112.7-5.1-219.5,44.9
			c0,0-118.6-61.9-206.8-16.5c0,0-1.7,101.7,48.3,160.2c0,0-43.2,97-46.6,116.9l-12.7,5.1C342.8,1474.8,318.7,1523.9,331.4,1570.5z"
			/>
		<path class="st3" d="M570.8,1446.4c0,15.3-12.3,27.5-27.5,27.5c-15.3,0-27.5-12.3-27.5-27.5s12.3-27.5,27.5-27.5l0,0
			C558.1,1418.9,570.8,1431.1,570.8,1446.4z"/>
		<g class="st8">
			<path d="M697.9,1219.7l12.3,34.7c0,0,150.4-44.9,247.5,0l13.6-34.7C971.6,1219.7,853.4,1165,697.9,1219.7z"/>
		</g>
		<path class="st3" d="M983.9,1270.6c-0.8-0.4-1.7-0.8-2.5-1.7c-1.7-1.3-4.7-2.5-8.1-4.7c-9.7-5.5-19.9-10.2-30.5-14
			c-15.7-5.5-32.2-9.3-48.7-11c-20.3-2.5-40.7-3-61-2.1c-20.3,0.4-40.7,2.1-61,5.1c-16.5,2.1-32.6,5.9-48.7,11.4
			c-10.6,3.8-20.8,8.5-30.5,14.4c-6.8,4.2-10.2,6.8-10.6,6.8c0.8-0.8,1.7-1.3,2.5-2.1c2.5-2.1,5.1-3.8,7.6-5.1
			c9.3-5.9,19.9-11,30.5-14.8c15.7-5.5,32.2-9.7,48.7-11.9c20.3-3,40.7-4.2,61.4-5.1c20.3-0.8,41.1,0,61.4,2.5
			c16.5,2.1,33.1,5.9,48.7,11.9c10.6,3.8,20.8,8.9,30.5,14.8c3.4,2.1,5.9,3.8,7.6,5.1C982.2,1269.3,983.1,1269.7,983.9,1270.6z"/>
		<g class="st9">
			<path d="M394.9,1533.7c-1.7-4.2-4.2-8.1-7.6-11.4s-8.5-4.2-12.7-2.1l0,0c-3.4,2.5-5.5,5.9-6.4,10.2c-5.5,25.4-1.3,51.7,12.3,73.7
				c1.7,3,5.1,5.5,8.5,5.9c7.6,1.3,11.4-5.5,13.6-11.9C408.9,1576.9,403.8,1554,394.9,1533.7z"/>
		</g>
		<path class="st3" d="M455.5,1601.9c-0.4-2.1-0.4-4.2,0-6.4c0-2.5,0-5.1,0-7.6c0-3,0-6.4,0-9.7c0-3.4-0.4-7.6-0.8-11.9
			s-1.3-8.9-2.1-13.6c-3.8-20.3-11.4-40.3-22-58c-2.5-4.2-5.1-8.1-7.6-11.4c-2.5-3.4-5.1-6.8-7.2-9.3c-2.1-2.5-4.7-5.1-6.4-7.2
			c-1.7-2.1-3.8-3.8-5.1-5.5c-1.7-1.3-3-3-4.2-4.7c1.7,1.3,3.4,2.5,5.1,4.2s3.8,3.4,5.5,5.1c2.5,2.1,4.7,4.7,6.8,7.2
			c2.5,2.5,5.1,5.9,7.6,9.3c2.5,3.4,5.1,7.2,7.6,11.4c5.5,8.9,10.2,18.2,14,28s6.4,19.9,8.5,30.5c0.8,4.7,1.7,9.3,1.7,13.6
			c0,4.2,0.4,8.5,0.8,11.9s0,6.8,0,9.7c0,2.5-0.4,5.1-0.4,7.6C456.4,1597.7,455.9,1599.8,455.5,1601.9z"/>
		<path class="st3" d="M486,1542.6c-0.4,0-2.1-6.8-6.8-17.8c-3-6.4-5.9-12.3-9.7-17.8c-4.7-6.8-9.7-13.6-15.7-19.5
			c-5.9-5.9-12.3-11.4-19.1-16.5c-5.5-3.8-11.4-7.2-17.8-10.6c-10.6-5.1-17.4-7.2-17.4-7.6c1.7,0,3.4,0.4,5.1,1.3
			c2.1,0.4,3.8,1.3,5.5,2.1c2.5,0.8,5.1,1.7,7.2,3c6.4,3,12.3,6.4,18.2,10.2c6.8,4.7,13.6,10.2,19.5,16.5c5.9,6.4,11,12.7,15.7,19.9
			c3.8,5.9,6.8,11.9,9.3,18.6c1.3,2.5,2.1,5.1,2.5,7.6c0.8,1.7,1.3,3.8,1.7,5.9C485.6,1539.2,485.6,1540.9,486,1542.6z"/>
		<path class="st3" d="M370.8,1529.9c-0.4-1.7,0-3.4,1.3-4.2c1.3-1.3,3-2.1,5.1-2.5c2.5-0.4,5.1,0.4,7.2,2.1
			c4.2,4.7,7.6,10.2,9.3,16.1c5.9,14,8.5,29.2,8.5,44.5c0.4,6.4-0.8,12.7-3.4,18.2c-2.1,3.8-6.4,5.9-11,5.5c-3-0.4-4.2-2.5-3.8-2.1
			c1.3,0.8,2.5,1.3,4.2,1.7c3.8,0,7.6-2.1,9.7-5.5c2.1-5.5,3.4-11.4,2.5-17.4c0-7.6-0.8-14.8-2.1-22c-1.3-7.2-3.4-14.4-5.9-21.2
			c-1.7-5.9-4.7-11-8.5-15.7c-3-2.5-7.6-3-10.6-0.4C371.6,1527.3,370.8,1528.6,370.8,1529.9z"/>
		<path class="st3" d="M583.5,1549.4c0,0,0.8,0.8,1.3,2.5c0.8,2.5,1.7,5.1,1.7,7.6c2.1,17.8-10.6,33.9-28.4,36c-0.4,0-1.3,0-1.7,0
			c-2.5,0-5.1,0-8.1-0.4c-1.7-0.4-3-0.8-3-0.8c3.4,0.4,6.8,0.4,10.6,0c17.4-1.7,30.1-16.9,28.8-34.3
			C584.8,1556.1,584.3,1552.8,583.5,1549.4z"/>
		<path class="st3" d="M567.8,1379c-8.9-3.4-17.8-5.9-27.1-7.2c-9.3-0.4-19.1,0.4-28,2.5c2.5-1.7,5.1-2.5,8.1-3
			c6.8-1.7,13.6-2.1,20.3-1.7s13.6,2.1,19.9,5.1C563.1,1375.6,565.7,1376.9,567.8,1379z"/>
		<path class="st5" d="M1034.3,1196l-0.8-0.4l-3-1.3l-11.9-4.7l-8.5-3.4c-3-1.3-6.8-2.1-10.2-3.8c-7.6-2.5-15.7-5.9-25.4-8.1
			l-14.8-4.2c-5.1-1.3-10.6-2.5-16.5-3.8c-11-3-23.7-4.7-36.4-6.8c-28-3.8-56.4-5.1-84.7-4.2c-28.4,1.3-56.4,4.7-83.9,10.6
			c-12.7,3-25,5.5-35.6,9.3c-5.5,1.7-11,3-16.1,5.1l-14.4,5.1c-9.3,3-17.4,6.8-24.6,10.2c-3.4,1.7-7.2,3-10.2,4.2l-8.1,4.2
			l-11.4,5.5l-3,1.3c-0.4,0-0.8,0.4-0.8,0.4s0.4,0,0.8-0.4l3-1.7l11.4-5.9l8.1-4.2c3-1.7,6.4-3,9.7-4.7c7.2-3,15.3-7.2,24.6-10.2
			l14.4-5.5c5.1-1.7,10.6-3.4,16.1-5.1c11-3.8,23.3-6.4,36-9.3c28-5.9,55.9-9.3,84.3-10.6c28.4-0.8,56.8,0.8,84.7,4.7
			c13.1,2.1,25,3.8,36.4,6.8c5.5,1.3,11,2.5,16.5,3.8l14.8,4.2c9.7,2.5,17.8,5.9,25.4,8.5c3.8,1.3,7.2,2.5,10.2,3.8l8.5,3.8
			l11.9,5.1l3,1.3C1034.3,1195.6,1034.3,1196,1034.3,1196z"/>
		<path class="st5" d="M1084.7,1223.9c-4.7-0.8-8.9-2.1-13.1-4.2c-4.7-1.3-8.5-3.4-12.3-6.4c4.7,0.8,8.9,2.1,13.1,4.2
			C1076.7,1219.3,1080.9,1221.4,1084.7,1223.9z"/>
		<path class="st5" d="M380.5,1478.6c0,0.4-3.8,2.1-9.7,5.5c-15.3,9.7-26.7,24.6-32.2,41.9c-2.1,6.8-2.5,11-3,11c0-0.8,0-2.1,0-3
			c0.4-3,0.8-5.5,1.7-8.1c4.7-18.2,16.5-33.5,32.6-42.8c2.5-1.3,5.1-2.5,7.6-3.4C378.4,1479,379.7,1478.6,380.5,1478.6z"/>
		<path class="st3" d="M640.7,1899.8c0,0-0.8-0.8-2.5-2.5c-2.5-1.7-5.9-2.5-9.3-2.1c-5.1,0.4-9.3,3.4-11.9,7.6
			c-3,5.9-4.7,12.3-4.2,18.6h-2.1c0.8-6.8-1.7-13.6-6.4-18.2c-5.1-5.5-13.1-7.2-20.3-4.2c-4.2,1.7-7.6,5.9-8.5,10.6
			c-0.8,4.2,0,8.9,3,12.7l-1.7,0.8c-2.1-8.1-6.4-15.7-11.9-21.6c-4.7-4.7-11-6.8-17.8-5.5c-4.2,1.3-7.6,4.2-9.3,8.1
			c-0.4,1.3-0.8,3-0.8,4.7c-0.4-1.7-0.4-3.4,0.4-4.7c1.7-4.2,5.1-7.6,9.3-8.9c6.8-1.7,14.4,0.4,19.1,5.5c5.9,6.4,10.2,14,12.7,22.5
			l1.7,4.7l-3.4-3.8c-3.4-3.8-5.1-9.3-3.8-14.4c0.8-5.5,4.7-10.2,9.7-12.3c7.6-3.4,16.9-1.3,22.5,4.7c5.1,5.5,7.6,12.7,6.8,19.9
			h-2.1c-0.4-6.8,1.3-13.6,4.7-19.5c1.7-2.5,3.8-4.7,6.4-5.9c2.1-1.3,4.7-1.7,7.2-2.1c3.4-0.4,6.8,0.8,9.7,3
			C639.8,1897.7,640.3,1898.5,640.7,1899.8z"/>
	</g>
	<path class="st4" d="M1231.4,1891.7l-7.2,30.5c0,0-50.4,65.3-65.7,61.9c-10.2-2.1,2.5-19.1,21.2-68.6l4.2-20.3L1231.4,1891.7z"/>
	<path class="st3" d="M1156.4,1974.8c0.4,1.3,1.7,2.1,2.5,2.5c3.4,1.3,6.8,0.8,9.7-1.3c8.9-7.2,16.9-15.3,25-23.7
		c9.3-9.7,16.9-19.1,22.5-25.8l6.4-8.5c0.4-0.8,1.3-1.7,1.7-2.1c0-0.4,0.4-0.4,0.8-0.8c0,0.4-0.4,0.4-0.8,0.8l-1.7,2.5
		c-1.3,2.1-3.4,5.1-6.4,8.5c-7.2,9.3-14.4,17.8-22.5,26.3c-8.1,8.5-16.5,16.5-25.4,23.7c-1.7,1.3-3.8,1.7-5.5,2.1
		c-1.7,0-3-0.4-4.7-0.8c-0.8-0.4-1.7-1.3-2.1-2.1C1156.4,1975.2,1156.4,1975.2,1156.4,1974.8z"/>
	<path class="st3" d="M1163.1,1953.6c1.3-0.4,3-0.8,4.2-0.4c3.4,0.4,6.8,1.3,9.3,3.4c3,1.7,5.5,4.2,6.8,7.2c0.8,1.3,1.3,2.5,1.3,4.2
		c0,0-0.4-1.7-1.7-3.8c-1.7-3-3.8-5.1-6.8-6.8c-2.5-1.7-5.9-3-8.9-3.4C1166.1,1953.6,1164.8,1953.6,1163.1,1953.6z"/>
	<path class="st3" d="M1211,1938.3c-0.4-0.4-0.4-0.8-0.4-1.7c-0.4-1.3-0.8-3-0.8-4.2c-0.8-4.7,0-9.7,2.5-14
		c2.1-4.2,5.9-7.6,10.2-9.7c1.3-0.4,3-1.3,4.2-1.3c0.4,0,0.8,0,1.7,0c-1.7,0.4-3.8,1.3-5.5,2.1c-4.2,2.1-7.6,5.5-9.7,9.7
		c-2.1,4.2-3,8.9-2.5,13.6C1210.2,1936.2,1211,1938.3,1211,1938.3z"/>
	<path class="st3" d="M1228,1896.8c0,0-0.8,4.2-1.7,9.7c-0.4,3.4-1.3,6.8-2.5,9.7c0,0,0.8-4.2,1.7-9.7
		C1225.8,1903.2,1226.7,1899.8,1228,1896.8z"/>
	<path class="st3" d="M1178.8,1920.1c2.1-0.4,4.2-0.4,6.4,0c2.1,0.4,4.2,1.3,5.9,2.5c0,0.4-2.5-1.3-5.9-1.7
		C1181.8,1920.5,1178.8,1920.1,1178.8,1920.1z"/>
	<path class="st3" d="M1177.5,1925.2c1.7-0.4,3.8-0.4,5.5,0s3.4,1.3,4.7,2.5c0,0-2.1-1.3-5.1-1.7
		C1179.7,1925.6,1178,1925.6,1177.5,1925.2z"/>
	<path class="st3" d="M1173.7,1932c1.7-0.8,3.8-1.3,5.5-0.8c2.1,0.4,3.8,1.3,4.7,3c-1.7-0.8-3.4-1.7-5.1-2.1
		C1177.5,1931.6,1175.4,1931.6,1173.7,1932z"/>
	<path class="st3" d="M1182.2,1917.6c0,0,2.1-0.4,5.9-2.1c2.1-0.8,4.2-1.7,5.9-3c0.8-0.4,2.1-1.3,3.4-2.1c1.3-0.8,2.1-1.7,2.1-3
		s-1.7-1.7-2.5-1.7c-1.3,0.4-2.1,1.3-3,2.1c-1.7,1.7-3.4,3.4-4.7,4.7c-2.5,3-3.8,4.7-4.2,4.7c0.4-0.4,0.4-0.8,0.8-1.3
		c0.4-0.8,1.7-2.1,2.5-3.8c1.3-1.7,3-3.4,4.7-5.1c0.8-1.3,2.1-1.7,3.4-2.1c1.7-0.4,3.4,0.4,3.8,2.1v0.4c0,1.7-1.3,3-2.5,3.8
		c-1.3,0.8-2.1,1.3-3.4,2.1c-2.1,1.3-4.2,2.1-6.4,3c-1.3,0.4-3,0.8-4.7,1.3C1183.1,1918,1182.2,1918,1182.2,1917.6z"/>
	<path class="st3" d="M1184.7,1917.2c-0.4-1.7-0.8-3.8-0.8-5.5c-0.4-2.1-0.8-3.8-1.7-5.9c-0.4-1.3-1.3-2.1-1.7-3
		c-0.8-0.8-2.1-1.7-3-0.8c-0.8,0.8-0.8,2.1-0.8,3c0,1.3,0.4,2.1,0.8,3.4c0.8,1.7,2.1,3.4,3.4,5.1
		C1183.1,1915.9,1185.2,1917.2,1184.7,1917.2c0,0-0.4,0-1.3-0.8c-1.3-0.8-2.1-1.7-3.4-2.5c-1.3-1.7-2.5-3.4-3.4-5.1
		c-0.4-1.3-0.8-2.5-1.3-3.8c-0.4-1.3,0-3,1.3-3.8c1.3-0.4,3,0,3.8,1.3c0.8,0.8,1.7,2.1,2.1,3.4c0.8,2.1,1.3,3.8,1.7,5.9
		c0.4,1.7,0.4,3.4,0.4,4.2C1185.2,1916.3,1185.2,1916.7,1184.7,1917.2z"/>
	<path class="st4" d="M1471.6,1905.7v-41.1l-76.3-0.8l-0.8,59.7l4.7,0.4c21.2,1.3,107.6,5.9,121.6,1.7
		C1536.9,1921.4,1471.6,1905.7,1471.6,1905.7z"/>
	<path class="st3" d="M1393.2,1922.2h1.3l3.8,0.4l14,0.8c11.9,0.4,28,1.3,46.2,1.3s34.3,0,46.2,0l14-0.4h3.8h1.3h-1.3h-4.2h-14
		c-11.9,0-28,0-46.2,0c-18.2,0-34.3-0.8-46.2-1.3l-14-0.4h-3.8L1393.2,1922.2z"/>
	<path class="st3" d="M1496.6,1925.6c0.8-2.1,1.7-4.7,2.5-6.8c1.3-2.1,3-3.8,4.7-5.1c-2.5,0.8-4.2,2.5-5.5,4.7
		C1497,1920.5,1496.2,1923.1,1496.6,1925.6z"/>
	<path class="st3" d="M1474.1,1913.8c0,0,1.3-1.3,2.5-3c1.3-1.7,2.1-3.4,1.7-3.4c-0.4,0-1.3,1.3-2.5,3
		C1474.6,1912.1,1473.7,1913.8,1474.1,1913.8z"/>
	<path class="st3" d="M1467.8,1910.4c0,0,1.3-0.4,2.5-1.7s2.1-2.1,2.1-2.5s-1.3,0.4-2.5,1.7S1467.8,1910.4,1467.8,1910.4z"/>
	<path class="st3" d="M1464,1903.2c1.3,0.4,2.5,0.8,3.8,0.4c1.3,0,3,0,4.2-0.4c-1.3-0.4-3-0.8-4.2-0.4
		C1466.5,1902.7,1465.3,1902.7,1464,1903.2z"/>
	<path class="st3" d="M1462.7,1898.1c1.3,0.8,3,1.3,4.2,1.3c1.7,0.4,3,0,4.7-0.4c-1.3,0-3-0.4-4.2-0.4
		C1465.7,1898.1,1464.4,1898.1,1462.7,1898.1z"/>
	<path class="st3" d="M1476.7,1907c1.7,0.4,3.4,0.4,5.1,0c1.7,0,3.4-0.4,5.1-0.8c0.8-0.4,2.1-0.8,3-1.3c0.4-0.4,0.8-0.8,1.3-1.7
		c0-0.8,0-1.7-0.8-2.1c-3.8-2.1-8.5-0.8-11,2.5c-0.8,0.8-1.3,2.1-1.7,3.4c0,0.4,0,0.8,0,1.3c0.4-1.7,1.3-3,2.1-4.2
		c1.3-1.3,2.5-2.1,4.2-2.5c2.1-0.8,4.2-0.4,5.9,0.4c0.8,0.4,0.4,1.7-0.4,2.1c-0.8,0.4-1.7,0.8-3,1.3c-1.7,0.4-3.4,0.8-5.1,1.3
		C1478.4,1907,1476.7,1907,1476.7,1907z"/>
	<path class="st3" d="M1478,1907.4c0.4-0.8,0.8-2.1,0.4-3.4c0-1.3-0.4-2.5-1.3-3.8c-0.8-1.7-2.5-2.5-4.2-2.5
		c-0.8,0.4-1.7,1.3-1.7,2.1s0.4,1.7,0.8,2.1c0.4,1.3,1.3,2.1,2.1,3s1.7,1.7,3,2.1c0,0-0.8-0.8-2.1-2.5c-0.8-0.8-1.3-1.7-2.1-3
		c-0.8-0.8-1.3-3,0-3s2.5,1.3,3.4,2.1c0.8,0.8,1.3,2.1,1.3,3.4C1478,1905.3,1478,1906.1,1478,1907.4z"/>
	<path class="st3" d="M1394.9,1901.1c0,0,2.1,0,5.5,0.4c9.3,1.3,16.9,7.6,19.9,16.1c1.3,3.4,1.3,5.5,1.3,5.5c0-0.4,0-0.8,0-1.7
		c0-1.3-0.4-3-0.8-4.2c-2.5-9.3-11-16.1-20.3-16.5c-1.3,0-3,0-4.2,0C1396.2,1900.6,1395.3,1901.1,1394.9,1901.1z"/>
	<path class="st3" d="M1403.4,1869.3c-0.4,5.1-0.8,10.6-0.8,15.7c-0.4,5.1-0.4,10.6,0,15.7c0.4-5.1,0.8-10.6,0.8-15.7
		C1403.8,1879.9,1403.8,1874.8,1403.4,1869.3z"/>
	<path class="st3" d="M1431.8,1916.3c3.8,0.8,7.6,1.3,11,1.3c3.8,0.4,7.6,0,11-0.8c0-0.4-5.1,0-11,0
		C1436.9,1916.7,1431.8,1915.9,1431.8,1916.3z"/>
	<path class="st3" d="M1416.9,1915.9c0,0,0.4,0.8,0.8,2.1c0.4,1.3,0.8,2.1,0.8,2.1s0.4-1.3,0-2.5S1416.9,1915.9,1416.9,1915.9z"/>
	<path class="st3" d="M1411.4,1909.1c0,0,0.4,0.8,1.3,1.7c0.8,0.8,1.7,1.3,1.7,1.3s-0.4-0.8-0.8-1.7
		C1413.1,1909.5,1411.4,1908.7,1411.4,1909.1z"/>
	<path class="st3" d="M1403.4,1905.7c0,0.4,0.8,0.4,2.1,0.8c1.3,0.4,2.1,0.8,2.1,0.8s-0.4-1.3-1.7-1.7
		C1404.7,1905.3,1403,1905.3,1403.4,1905.7z"/>
	<path class="st3" d="M1397.5,1904c0,0,0.4,0.4,0.8,0.8s1.3,0.4,1.3,0s-0.4-0.4-0.8-0.8C1398.3,1903.6,1397.5,1903.6,1397.5,1904z"
		/>
	<polygon class="st3" points="1523.3,1122.3 1494.1,1890.5 1374.6,1893 1394.5,1227.3 1260.2,1898.1 1146.6,1898.1 1292.8,1123.5 	
		"/>
	<path class="st4" d="M1422,1150.2c0,4.2-0.4,8.5-1.3,12.7c-1.3,7.6-3,18.6-4.7,30.1c-0.8,5.5-1.7,11-3.4,16.5
		c-1.3,4.7-4.2,8.9-7.6,11.9c-2.5,2.1-5.5,3.4-8.5,3.8c-1.3,0.4-2.5,0.4-3.4,0c4.2-0.4,8.1-2.1,11-5.1c3.4-3,5.9-6.8,6.8-11
		c1.3-5.5,2.5-11,3.4-16.5c2.1-11.9,3.8-22.5,5.5-30.1C1419.9,1158.3,1420.8,1154,1422,1150.2z"/>
	<path class="st4" d="M1397,1153.6c0.4,0-0.8,1.3,0,3.4c0.4,1.3,0.8,2.1,2.1,2.5c1.7,0.8,3.8-0.4,4.7-2.1c0.4-0.8,0.4-1.3,0-2.1
		c-0.4-0.8-1.3-1.7-2.1-2.1c-2.1-0.8-3.4,0-3.4-0.4c0-0.4,1.3-1.7,3.8-1.3c1.7,0.4,3,1.7,3.8,3c0.8,2.1,0,4.2-1.7,5.9
		c-1.7,1.7-3.8,1.7-5.9,0.8c-1.3-0.8-2.5-2.5-2.5-4.2C1395.3,1154.5,1397,1153.6,1397,1153.6z"/>
	<path class="st4" d="M1333.1,1164.6c-3-7.2-2.1-14.8,2.1-21.2c0.4,0.4-1.3,4.7-1.7,10.6C1333.1,1160,1333.5,1164.6,1333.1,1164.6z"
		/>
	<path class="st4" d="M1347.5,1163.8c-1.7-3.4-2.5-7.6-1.7-11.4c0-3.8,1.3-7.6,3.4-11c0.4,0-0.8,5.1-1.3,11
		C1347.9,1156.1,1347.9,1160,1347.5,1163.8z"/>
	<path class="st4" d="M1470.8,1166.7c0-3.8,0-7.6,0.8-11.4c0-3.8,0-7.6,0.4-11.4c1.7,3.8,2.1,7.6,1.7,11.9
		C1473.7,1159.5,1472.9,1163.4,1470.8,1166.7z"/>
	<path class="st4" d="M1486.4,1165.9c-0.4-0.4,1.3-5.1,1.7-11.9c0.4-6.8-0.8-11.9,0-11.9C1491.5,1150.2,1491.1,1159.1,1486.4,1165.9
		L1486.4,1165.9z"/>
	<path class="st10" d="M1357.2,802.3l73.7-5.9c0.4-8.5,0-41.9,0-41.9s30.5-4.7,30.9-35.6c0.4-30.9-5.1-101.3-5.1-101.3l0,0
		c-35.6-15.3-76.7-10.2-107.2,13.6l-4.7,3.4L1357.2,802.3z"/>
	<path class="st11" d="M1430.5,754.5c-14,0.4-28-3.8-39.8-11.4c0,0,9.3,22,40.3,19.5L1430.5,754.5z"/>
	<path class="st10" d="M1348.7,666.8c-0.4-0.4-21.2-6.4-20.3,14.8c0.8,21.2,21.6,16.1,21.6,15.3C1350,696,1348.7,666.8,1348.7,666.8
		z"/>
	<path class="st11" d="M1343.6,689.2c0,0-0.4,0.4-0.8,0.4c-0.8,0.4-1.7,0.4-2.5,0c-2.5-1.7-4.2-4.7-4.2-8.1c0-1.7,0-3.8,0.8-5.1
		c0.4-1.3,1.3-2.5,2.5-3c0.8-0.4,1.7,0,2.1,0.8c0.4,0.4,0,0.8,0.4,0.8c0.4,0,0.4-0.4,0.4-1.3c0-0.4-0.4-0.8-0.8-1.3
		s-1.3-0.4-2.1-0.4c-1.7,0.4-3,1.7-3.8,3.4c-0.8,1.7-1.3,3.8-1.3,5.9c0,3.8,2.1,7.2,5.5,8.9c1.3,0.4,2.5,0,3.4-0.4
		C1343.6,689.6,1343.6,689.2,1343.6,689.2z"/>
	<path class="st3" d="M1468.6,591.8c-8.1-16.1-27.5-22.5-43.6-14.4c-2.5,1.3-4.7,3-6.8,4.7c-8.1-15.7-27.1-22-42.8-14
		c-3.8,1.7-6.8,4.2-9.7,7.2c-5.9,6.8-8.9,15.7-15.7,21.2c-5.9,4.7-14,6.4-19.9,11.4c-10.2,8.1-11.4,22.5-3.4,32.6
		c3,3.8,7.2,6.4,11.9,7.6c-5.9,12.3-1.3,27.1,11,33.5c0.4,0,0.8,0.4,1.3,0.4l3-1.3c11.9-13.1,14-32.2,6.4-48.3c0.4,0,0.8,0,1.3,0
		c11,5.9,24.6,3,31.8-7.2c8.5,5.9,19.9,6.4,29.2,1.3c1.3-0.8,2.5-1.7,4.2-2.1c2.1,0,3.8,0.4,5.5,1.7c4.7,2.5,9.7,3.4,14.8,3
		c4.7-0.4,8.9-3.4,11-8.1h0.4c5.9-1.3,10.6-5.9,12.3-11.9C1472,603.2,1471.2,597.3,1468.6,591.8z"/>
	<path class="st6" d="M1514.8,959.5l2.5-138.1c-24.6-24.2-37.7-31.4-71.6-35.2l-9.3-0.8l-3-22.9l-83.9-4.7l4.2,27.1l0,0
		c-12.3,0.4-22,4.2-32.6,6.4c-32.6,6.4-55.9,30.1-62.3,51.7c-5.5,17.8-39.8,151.7-39.8,151.7l-6.8,40.3l76.7-28v29.2V1143h233
		C1523.3,1116.7,1514.8,959.5,1514.8,959.5z"/>
	<path class="st6" d="M1247.5,996.4l114.8-16.5l22,39l-106.8,48.3c-5.9,2.5-12.3,4.2-19.1,4.2l0,0c-18.6,0-35.6-11.4-42.8-28.8
		l-3.4-8.5L1247.5,996.4z"/>
	<path class="st6" d="M1482.6,794.7c0,0,32.6,11,46.2,42.4c8.9,20.3,22,118.6,22,118.6l16.5,31.8c3.8,7.6,5.9,16.1,5.9,24.6v4.7
		c0,12.3-4.2,24.2-11.9,33.9l0,0c-9.3,11.4-22.5,18.2-36.9,19.5c-16.5,1.7-36.4,2.1-40.7-2.5c-7.6-8.5-18.6-31.8-18.6-31.8
		l47.9-25.4l-20.8-38.1L1482.6,794.7z"/>
	<path class="st3" d="M1285.6,1063.8c0,0,0.4-0.4,1.7-0.8l5.5-2.5l20.8-9.7l70.3-32.2l-0.4,1.7l-13.6-24.2l-8.5-14.8l0.8,0.4
		l-84.3,8.1l-25,2.1l-6.8,0.4c-0.8,0-1.7,0-2.5,0c0.8,0,1.7-0.4,2.5-0.4l6.8-0.8l25-3l84.3-8.9h0.8l0.4,0.4l8.5,14.8l13.6,24.2
		l0.4,0.8l-0.8,0.4l-70.8,31.4l-20.8,8.9l-5.5,2.5C1286.9,1063.4,1286,1063.8,1285.6,1063.8z"/>
	<path class="st3" d="M1305.9,985c-0.4,0-0.8-20.8-0.8-45.8s0.4-45.8,0.8-45.8c0.4,0,0.8,20.8,0.8,45.8S1306.4,985,1305.9,985z"/>
	<path class="st3" d="M1503.8,1015.5c0,0,1.3-0.4,3.4-0.4c3.4-0.4,6.4,0,9.7,0.4c2.5,0.4,4.7,1.7,5.9,3.4c1.7,2.1,3,4.7,3.4,7.2
		c0.4,3,0.4,5.9-0.8,8.9c-1.3,3-3.4,5.5-5.9,7.6c-5.1,3-10.6,5.1-16.5,5.9c-4.7,0.8-9.3,1.3-14.4,1.3c-4.2,0.4-8.9-0.4-12.7-2.1
		c4.2,0.8,8.5,0.8,12.7,0.8c4.7-0.4,9.3-0.8,14-1.7c5.5-0.8,11-3,15.7-5.9c4.7-3.4,6.8-8.9,5.9-14.4c-0.4-2.5-1.3-4.7-2.5-6.4
		c-1.3-1.7-3-2.5-5.1-3c-3-0.8-6.4-1.3-9.3-1.3C1505.9,1015.9,1505.1,1015.9,1503.8,1015.5z"/>
	<path class="st3" d="M1522.9,1071c-2.5,0.8-5.5,1.3-8.5,0.8c-6.8,0.4-13.6-0.8-19.9-3.4c-3.4-1.3-6.8-3-9.7-5.1
		c-2.5-1.7-4.7-4.2-5.9-6.8c-1.7-2.5-2.5-5.1-3-8.1c0.4,0,1.3,3,4.2,7.2c1.7,2.5,3.8,4.7,5.9,6.4c3,2.1,6.4,3.4,9.3,4.7
		c5.9,2.1,12.7,3.4,19.1,3.8C1517.4,1070.6,1519.9,1070.6,1522.9,1071z"/>
	<path class="st3" d="M1545.8,971.4c-1.7,2.5-3.4,4.7-5.5,6.8c-3.8,3.8-8.9,9.3-14.8,15.7c-5.9,6.4-11,11.4-15.3,15.3
		c-2.1,2.1-4.2,4.2-6.8,5.9c1.7-2.5,3.4-4.7,5.5-6.8c3.8-4.2,8.9-9.7,14.8-15.7C1530.5,985,1538.1,977.8,1545.8,971.4z"/>
	<path class="st3" d="M1493.6,950.2c-1.3-8.9-1.3-17.4-0.8-26.3c-0.4-8.9,0-17.4,0.8-26.3c1.3,8.9,1.3,17.4,0.8,26.3
		C1494.9,932.4,1494.5,941.3,1493.6,950.2z"/>
	<path class="st12" d="M1510.6,812.5c0,0.4-51.7,1.3-115.7,1.3c-64,0-115.7-0.4-115.7-1.3c0-0.8,51.7-1.3,115.7-1.3
		C1458.9,811.2,1510.6,811.7,1510.6,812.5z"/>
	<path class="st3" d="M1434.3,785.8c-13.1,0.8-26.7,1.3-39.8,0.8c-13.1,0.4-26.7,0-39.8-1.3c13.1-0.8,26.7-1.3,39.8-0.8
		C1407.6,784.5,1421.2,785,1434.3,785.8z"/>
	<path class="st12" d="M1535.6,859.1c0,0.4-62.7,1.3-140.3,1.3c-77.5,0-140.3-0.4-140.3-1.3c0-0.8,62.7-1.3,140.3-1.3
		C1472.9,857.8,1535.6,858.7,1535.6,859.1z"/>
	<path class="st12" d="M1544.5,907c0,0.4-67.8,1.3-151.7,1.3s-151.7-0.4-151.7-1.3s67.8-1.3,151.7-1.3S1544.5,906.6,1544.5,907z"/>
	<path class="st12" d="M1550,954c0,0.4-71.6,1.3-160.2,1.3c-88.6,0-160.2-0.4-160.2-1.3c0-0.8,71.6-1.3,160.2-1.3
		C1478.4,952.8,1550,953.2,1550,954z"/>
	<path class="st12" d="M1571.6,1029.9c0,0.4-79.7,1.3-178,1.3c-98.3,0-178-0.4-178-1.3s79.7-1.3,178-1.3
		C1491.9,1028.6,1571.6,1029,1571.6,1029.9z"/>
	<path class="st12" d="M1520.3,1083.3c0,0.4-52.5,1.3-117.4,1.3c-64.8,0-117.4-0.4-117.4-1.3c0-0.8,52.5-1.3,117.4-1.3
		C1467.8,1082,1520.3,1082.4,1520.3,1083.3z"/>
	<path class="st10" d="M1466.1,961.2l-2.5-1.7c-13.1-9.7-29.2-13.6-45.3-10.6l0,0c-13.1,2.5-25,8.1-35.2,16.5l-19.5,16.1l20.8,37.7
		l14.4-19.9c0,0,13.1,18.2,15.7,16.1c2.1-2.1,3.8-4.7,5.1-7.6l-9.3-13.1l22.9,4.7l33.5-15.3l-14.4-18.2l14.4,4.7L1466.1,961.2
		L1466.1,961.2z"/>
	<polygon class="st3" points="1430.9,957.4 1357.6,1046.4 1363.6,1052.3 1482.2,1034.1 1541.1,945.6 1535.6,940.5 	"/>
	<path class="st10" d="M1508.5,981.2L1508.5,981.2c-4.7,0-8.9,3-10.6,7.2c-1.3,4.2-3.8,8.5-7.2,11.4c-5.1,3-14.4,5.1-19.1,3
		s-24.2-19.5-27.5-17.8c-3.4,1.7-6.4,6.4-3,10.2c3.4,3.8,21.2,15.3,17.8,19.1c-3.4,3.8-40.7-13.1-46.6-11.4s-8.9,5.1-5.9,7.2
		c3,2.1,28.8,11.9,30.1,15.3c0,0-38.6-10.2-39.8-7.6s-3.8,6.4,0,7.6c3.8,1.3,36.9,10.2,39.8,11.4c4.7,2.1,9.7,3.4,14.8,4.2
		c5.1,1.3,10.6,3,15.3,4.7c7.6,2.5,16.1,2.5,23.7-0.4l3.8-1.7c5.9-2.5,9.7-8.5,9.3-14.8l-0.8-13.1l4.2-11L1508.5,981.2z"/>
	<path class="st4" d="M1541.1,946.4c-0.8,0.4-1.3,0.4-2.1,0.4l-6.4,1.3l-23.3,3.8l-34.7,5.1l-20.3,3c-7.2,0.8-14,3.4-19.9,8.1
		c-5.1,5.1-10.2,10.6-14.4,16.5c-4.7,5.5-8.9,11-13.1,16.1l-22,27.5l-15.3,18.2l-4.2,5.1c-0.4,0.4-0.8,1.3-1.7,1.7
		c0,0,0.4-0.8,1.3-1.7l3.8-5.1l14.4-18.6l21.6-27.5l12.7-16.1c4.2-5.9,9.3-11.9,14.8-16.9c5.9-4.7,13.1-7.6,20.8-8.5l20.8-3
		l34.7-4.7l23.3-3l6.4-0.8C1539.4,946.4,1540.3,946.4,1541.1,946.4z"/>
	<path class="st12" d="M1485.6,965.9c-1.3,0.8-2.5,1.7-3.4,2.5c-0.8,1.3-0.8,3,0,3.8c1.3,1.3,3.4,1.3,5.1,0c0.8-0.8,1.7-1.7,1.7-3
		c0.4-1.3,0-2.5-0.8-3.4c-0.8-0.8-2.1-0.8-3.4,0"/>
	<g id="freepik--speech-bubble--inject-3">
		<path class="st7" d="M1139,766.7l-21.6-38.1c29.7-47.9,14.4-110.6-33.5-139.8c-47.9-29.7-110.6-14.4-139.8,33.5
			c-29.7,47.9-14.4,110.6,33.5,139.8c36,22,82.2,19.9,115.7-6.4l0,0L1139,766.7z"/>
		<path class="st5" d="M995.8,663.4c0-9.3,5.5-14.8,13.1-14.8s13.1,5.9,13.1,14.8c0,8.9-5.5,14.8-13.1,14.8S995.8,672.3,995.8,663.4
			z M1014.8,663.4c0-5.9-2.1-8.5-5.5-8.5c-3.4,0-5.5,3-5.5,8.5c0,5.5,2.1,8.5,5.5,8.5C1012.7,671.8,1014.8,668.9,1014.8,663.4z
			 M1041.1,649h8.9l-36.4,54.2h-8.9L1041.1,649z M1032.2,688.8c0-9.3,5.5-14.8,13.1-14.8c7.6,0,13.1,5.9,13.1,14.8
			s-5.5,14.8-13.1,14.8C1037.7,703.6,1032.2,698.1,1032.2,688.8L1032.2,688.8z M1051.3,688.8c0-5.9-2.1-8.5-5.5-8.5s-5.5,3-5.5,8.5
			s2.1,8.5,5.5,8.5S1051.3,694.7,1051.3,688.8L1051.3,688.8z"/>
	</g>
</g>
</svg>
