<?xml version="1.0" encoding="utf-8"?>
<!-- Generator: Adobe Illustrator 23.0.1, SVG Export Plug-In . SVG Version: 6.00 Build 0)  -->
<svg version="1.1" id="Layer_1" xmlns="http://www.w3.org/2000/svg" xmlns:xlink="http://www.w3.org/1999/xlink" x="0px" y="0px"
	 viewBox="0 0 3500 2000" style="enable-background:new 0 0 3500 2000;" xml:space="preserve">
<style type="text/css">
	.st0{fill:#EFEFF4;}
	.st1{fill:#F0B531;}
	.st2{fill:#FFFFFF;}
	.st3{fill:#FFC93C;}
	.st4{fill:#00858E;}
	.st5{fill:#333435;}
	.st6{fill:#F5F5F5;}
	.st7{fill:#C6C9D3;}
	.st8{fill:#48494B;}
	.st9{fill:url(#SVGID_1_);}
	.st10{fill:url(#SVGID_2_);}
	.st11{fill:#5C5E61;}
	.st12{fill:#FFBE9D;}
	.st13{fill:#ECC538;}
	.st14{opacity:0.4;fill:#FFFFFF;enable-background:new    ;}
	.st15{fill:url(#SVGID_3_);}
	.st16{opacity:0.6;}
	.st17{opacity:0.3;}
	.st18{opacity:0.7;fill:#FFFFFF;enable-background:new    ;}
</style>
<g id="Background">
</g>
<path class="st0" d="M2596.5,1640.1c-45.3,39.2-88,64.4-121.8,84.4c-397.3,234.6-867.4,166.2-967.3,149.5
	c-147.6-24.7-432.7-72.3-638.9-271.9c-311.9-301.9-263.3-777.6-21.4-1091.6c44.3-57.4,278-376.2,753.1-427.3
	c287.6-30.9,622.8,31.5,865.5,198.8C2975.3,633.5,2939.1,1343.3,2596.5,1640.1z"/>
<g>
	<path class="st1" d="M1010.2,79.6c-2.9-9.1,7.6-16.5,15.3-10.8c77.7,58,269,236.3,266.2,586.3c-3.5,439.1,104.7,586.9,227.9,670.5
		c0,0-159.4-27.8-274.7-177.1C961.9,781.9,1062.6,241.2,1010.2,79.6z"/>
	<path class="st2" d="M1079,208.8c14.3,47.2,27.6,94.7,39.2,142.6c11.8,47.8,22.2,96,31,144.4c8.7,48.5,16.4,97,22.1,145.9
		c5.9,48.8,9.7,97.9,13.3,147.1c3.9,49.2,7.6,98.8,16.3,148.1c8.7,49.3,23.4,98.3,46.6,143.1c5.8,11.2,11.8,22.3,18.5,32.9
		c6.4,10.8,13.3,21.3,20.4,31.7c14.3,20.7,30,40.4,47.1,58.9c34.3,36.9,74.1,68.6,117,94.4c4.5,2.7,10.4,1.3,13.1-3.3
		c2.7-4.4,1.3-10.2-3-12.9l0,0c-10.3-6.6-20.4-13.2-30.3-20.3c-5-3.5-9.8-7.2-14.7-10.8c-4.7-3.8-9.6-7.4-14.2-11.3
		c-18.7-15.4-36.3-32-52.6-49.9c-32.7-35.5-60.3-76.2-82.5-119c-10.9-21.6-20.2-43.9-27.7-66.8c-7.5-23-13.3-46.5-17.7-70.4
		c-8.9-47.9-12.9-96.9-17.2-146.1c-4.3-49.2-9-98.5-15.7-147.7c-3.3-24.6-7-49.1-11.2-73.5c-2-12.2-4.3-24.4-6.5-36.6
		c-2.3-12.2-4.8-24.3-7.3-36.4c-10.1-48.5-21.7-96.6-34.8-144.3c-13.3-47.7-27.9-94.9-44.3-141.6c-0.5-1.3-1.9-2-3.3-1.6
		C1079.4,206.1,1078.7,207.5,1079,208.8z"/>
</g>
<g>
	<g>
		<path class="st3" d="M1183.2,1513.5c-5.2,16.8-25.8,22.9-39.4,11.8c-75.1-61.6-271.5-254.9-269.9-590.2
			c1.4-283.1-24.8-436.7-41.5-505.6c-3.5-14.6,13.6-25.2,25.1-15.6C984.2,520.1,1370.1,903.9,1183.2,1513.5z"/>
		<path class="st4" d="M1159.4,1514.8c-0.3,0.3-0.7,0.5-1.1,0.7c-3.4,1.6-7.5,0.2-9.2-3.3c-1.8-3.9-184.5-393.2-200.4-786.8
			c-0.1-3.8,2.8-7,6.6-7.1s7,2.8,7.1,6.6c15.8,390.8,197.3,777.6,199.1,781.5C1162.9,1509.4,1162,1512.9,1159.4,1514.8z"/>
	</g>
</g>
<g>
	<path class="st5" d="M932.3,1609.7c0,16.2,13.3,29.5,29.5,29.5h1597.5c16.3,0,29.5-13.3,29.5-29.5l13.3-918.1
		c0-16.2-19.1-47.9-54.2-45.5L986.7,605.7c-20.4-0.5-40.1,7.3-54.5,21.7s-22.3,34.1-21.9,54.4L932.3,1609.7z"/>
	<path class="st6" d="M961.5,1581.4c0,15.4,12.6,27.9,28,27.9h1531.4c15.4,0,28-12.6,28-27.9l12.5-833.4
		c-1.5-50.2-45.4-68.2-72.1-67.1L992.9,640.7c-14.3-0.4-28.2,5.1-38.3,15.3c-10.1,10.1-15.7,24-15.4,38.3L961.5,1581.4z"/>
	<g>
		<path class="st7" d="M2532.2,1070.9L2532.2,1070.9c-2.3,0-4.1-1.5-4.1-3.2l1-52.2c0-1.7,1.9-3.1,4.1-3.1c0,0,0,0,0.1,0
			c2.3,0,4.1,1.5,4,3.2l-1,52.2C2536.3,1069.5,2534.5,1070.9,2532.2,1070.9z"/>
		<path class="st7" d="M2534.7,943.1C2534.7,943.1,2534.6,943.1,2534.7,943.1c-2.3,0-4.1-1.5-4.1-3.2l3.8-199.8
			c-0.1-11.9-4.7-21.3-13.9-28.1c-17.1-12.6-44.1-12-45.3-11.9l-478.3-9.9c-2.3,0-4.1-1.5-4-3.2s1.8-3.2,4.2-3.1l478,9.9
			c3-0.1,31.8-0.5,51,13.7c10.8,8,16.3,19,16.4,32.7l-3.8,199.8C2538.7,941.7,2536.9,943.1,2534.7,943.1z"/>
	</g>
	<path class="st8" d="M853.1,1715.4h1796.4c6.9,0,12.4-5.6,12.4-12.4v-55.8c0-6.8-5.6-12.4-12.4-12.4H853.1
		c-6.9,0-12.5,5.6-12.5,12.4v55.8C840.7,1709.8,846.3,1715.4,853.1,1715.4z"/>
</g>
<g>
	<path class="st3" d="M1301.4,1404.2c6.8-269.4,212.5-485.6,465.2-485.6s458.3,216.2,465.2,485.6h148c23.2,0,41.6-21.1,40-45.9
		c-23.5-365.2-306.9-653.6-653.2-653.6c-345.1,0-627.8,286.6-652.9,650.1c-1.8,26.7,17.7,49.4,42.6,49.4H1301.4L1301.4,1404.2z"/>
	<path class="st2" d="M1766.5,942c-8.5,0-15.4-6.9-15.4-15.4v-240c0-8.5,6.9-15.4,15.4-15.4s15.4,6.9,15.4,15.4v240
		C1781.9,935.1,1775,942,1766.5,942z"/>
	<path class="st2" d="M2013.8,1013.6c-2.6,0-5.3-0.7-7.7-2.1c-7.4-4.3-9.9-13.7-5.6-21.1l115.9-200.2c4.3-7.4,13.7-9.9,21.1-5.6
		c7.4,4.3,9.9,13.7,5.6,21.1l-115.9,200.2C2024.3,1010.8,2019.1,1013.6,2013.8,1013.6z"/>
	<path class="st2" d="M2172.6,1201.9c-5.6,0-10.9-3-13.7-8.3c-3.9-7.6-1-16.9,6.6-20.8l193.2-100.2c7.6-3.9,16.9-1,20.8,6.6
		s1,16.9-6.6,20.8l-193.2,100.2C2177.4,1201.4,2175,1201.9,2172.6,1201.9z"/>
	<path class="st2" d="M1526.9,1016c-4.6,0-9.2-2.1-12.2-6l-140.2-181.8c-5.2-6.8-3.9-16.4,2.8-21.6c6.8-5.2,16.4-3.9,21.6,2.8
		l140.2,181.8c5.2,6.8,3.9,16.4-2.8,21.6C1533.5,1014.9,1530.2,1016,1526.9,1016z"/>
	<path class="st2" d="M1371.3,1199c-2,0-4.1-0.4-6.1-1.3l-213-91.8c-7.8-3.4-11.4-12.4-8.1-20.3c3.4-7.8,12.5-11.4,20.3-8.1
		l213,91.8c7.8,3.4,11.4,12.4,8.1,20.3C1382.9,1195.5,1377.3,1199,1371.3,1199z"/>
	<path class="st8" d="M1722.8,1322.2l-48.2-636c-0.2-2.9,3.4-3.5,4-0.6l129,613.2L1722.8,1322.2z"/>
	<circle class="st8" cx="1775.2" cy="1339.9" r="67.3"/>
	<path class="st0" d="M1773.1,1393.4c-28.3,0-51.3-23-51.3-51.3s23-51.3,51.3-51.3s51.3,23,51.3,51.3
		C1824.4,1370.3,1801.4,1393.4,1773.1,1393.4z M1773.1,1292.9c-27.1,0-49.1,22-49.1,49.1s22,49.1,49.1,49.1s49.1-22,49.1-49.1
		C1822.2,1315,1800.2,1292.9,1773.1,1292.9z"/>
</g>
<g>
	<g>
		<path class="st8" d="M2415.3,386.8c0-0.9-0.1-1.7-0.1-2.4c-0.1-2,0.7-3.8,2.2-5.2c8.6-7.7,40.7-34.2,86.2-42.4
			c2.4-0.4,4.6,0.7,5.8,2.4c-3.8,0.5-8.9,1.4-15.7,3.2C2471.2,348.4,2438.5,364.1,2415.3,386.8z"/>
		<path class="st5" d="M2493.6,342.5c6.8-1.8,11.9-2.8,15.7-3.2c1.2,1.8,1.5,4.2,0.2,6.3c-0.7,1.2-1.6,2.5-2.8,3.9
			c-7.1,8.9-64.6,67.9-64.6,67.9s-18.3,2.2-23.8-1c-1.8-1-2.7-20-3-29.5C2438.5,364.1,2471.2,348.4,2493.6,342.5z"/>
	</g>
	
		<linearGradient id="SVGID_1_" gradientUnits="userSpaceOnUse" x1="1313.8123" y1="-1039.3741" x2="1338.6393" y2="-869.5048" gradientTransform="matrix(-1 0 0 1 3753.907 1420)">
		<stop  offset="0" style="stop-color:#979AA0"/>
		<stop  offset="1" style="stop-color:#888B8F"/>
	</linearGradient>
	<path class="st9" d="M2417.5,448.1V413c0-3,1.9-5.7,4.7-6.6c4.4-1.4,11.1-2.7,17.2-0.4c3.6,1.3,6,4.7,6.3,8.5l2.6,32.8
		L2417.5,448.1z"/>
	<g>
		<path class="st5" d="M2556.8,417c0.4-1.4,1.2-2.5,2.3-3.4c7.4,1.5,22.7,5.5,54.2,16.6c36.5,12.9,47.1,24.1,50.2,30.1
			c-15.6,4.6-51.1,11.6-102.1,1.6l-10.1-4.7C2551.3,457.2,2552,432.7,2556.8,417z"/>
		<path class="st8" d="M2613.2,430.2c-31.4-11.1-46.8-15.2-54.2-16.6c1.6-1.3,3.8-2,6-1.5c18.1,3.8,72.8,16.7,101.4,39.8
			c2.9,2.3,2,6.9-1.5,8c-0.5,0.2-1,0.3-1.6,0.5C2660.3,454.3,2649.7,443.1,2613.2,430.2z"/>
	</g>
	
		<linearGradient id="SVGID_2_" gradientUnits="userSpaceOnUse" x1="1188.791" y1="-1021.1028" x2="1213.6182" y2="-851.2312" gradientTransform="matrix(-1 0 0 1 3753.907 1420)">
		<stop  offset="0" style="stop-color:#979AA0"/>
		<stop  offset="1" style="stop-color:#888B8F"/>
	</linearGradient>
	<path class="st10" d="M2532.4,478.4l21.4-25.7c2.1-2.5,5.5-3.5,8.6-2.5c3.4,1.1,8,3.5,12.4,8.3c2.1,2.2,2.5,5.5,1.1,8.3l-15.6,30.2
		L2532.4,478.4z"/>
	<path class="st8" d="M2452.9,435.8c0,0-26.2-5-40.7,0c0,0-19.1,114.8-15.8,151.7l56.5,11.5C2452.9,599,2454.5,469.7,2452.9,435.8z"
		/>
	<path class="st11" d="M2221,637c0,0,184.8,10.4,259.8,5.2c7.3-0.5,13.9-4.8,17.2-11.4c16.1-32.2,64.3-128.7,68.5-138
		c0,0-19.6-16.4-34-18.6c0,0-68.4,76.1-71.3,115c0,0-158.5-45.6-174.1-45.2c-15.6,0.4-63.7,21.8-63.7,21.8L2221,637z"/>
	<path class="st12" d="M1974.7,492.9c0,0,6.8-14.1,0.9-21.5s-27.1-30.5-27.1-30.5L1946,425l-8.7,25.9L1956,490
		C1956.1,490.1,1967,501.9,1974.7,492.9z"/>
	<path class="st12" d="M1927.2,558.5c6.8-24.1,16.3-47,28.8-68.5l18.7,2.9l-9.2,64.7C1958.5,559.8,1939.2,564.6,1927.2,558.5z"/>
	<path class="st3" d="M1915.2,621.5c2.4-21.7,6.3-42.8,12.1-63c12,6.1,31.2,1.3,38.3-0.9l-2.6,18.6l7.1-25
		c8.6-30.4,26.9-57.2,52.1-76.3l17.6-13.3c17.3-13.1,44.8-8.5,62.4,4c39.1,27.9,97.1,74.8,116.9,90.9c4.3,3.5,10.1,4.2,15.1,2
		l3.3-1.5c3.1-1.4,6.6,1.1,6.2,4.5l-8.4,76.9l-134.3-1.5c-16.1,0-62.7-1.7-70.2-16l-12.4-30.5c-29.1,24.8-66.4,41.8-86.4,46.7
		C1922.7,639.5,1914.1,631.5,1915.2,621.5z"/>
	<path class="st12" d="M2009.5,420.4l41.3,40.1c2.8,2.7,3,7,0.5,10c-12.7,15.2-23.7,23.1-32.7,23.7c-3.8,0.3-7.5-1.8-9.6-5
		l-21.9-34.6L2009.5,420.4z"/>
	<polygon class="st12" points="1926.1,618 1890.6,604.1 1849.3,637 1923.3,637.2 	"/>
	<g>
		<path class="st12" d="M1940.2,411.1c0,0,5.6,39.6,20.8,51.8s44.9,3,54.9-26.8l-19.9-51L1940.2,411.1z"/>
		<path class="st5" d="M1998.3,418c-1.2,0.4-2.4-0.4-2.6-1.6c-0.6-3.7-1.9-10.9-4.7-15.8c0,0,1.4-5.2-13.1,2.7
			c-14.6,7.8-36.5,19.4-49.4,12.5c-12.6-6.7-25.3-40.4,7.9-34.2c1.3,0.2,2.4-0.8,2.3-2c-0.4-5.5,0.1-18.3,13-22.4
			c12.1-3.8,18.7,1.6,21.4,4.9c0.8,1,2.3,1,3.1,0c3.6-4.7,13.4-14.8,27.9-8.4c11.9,5.3,13.8,12.6,13.6,17.2
			c-0.1,1.5,1.4,2.5,2.8,1.9c3.7-1.7,9.5-2.5,15.1,4.5c7.8,9.7-3.3,18.2-6.7,20.4c-0.6,0.4-0.9,1-0.9,1.6c0,5.1-0.8,27.2-11.9,39.6
			c-1,1.1-2.7,0.8-3.3-0.6l-8.5-20.3c-0.4-0.9-1.4-1.4-2.4-1.1L1998.3,418z"/>
		<path class="st12" d="M1998.1,422.1c0,0,5.2-21.2,13.1-14.3s-2.1,22-11.1,24.9L1998.1,422.1z"/>
	</g>
	<path class="st1" d="M2057.5,511.5c0,0-1.6-49,18.6-50c25-1.2,65.2,16.9,41.3,88.8c-13.2,39.7-33.2,69.2-87.9,81.7
		c-2.7-20.1-11.8-34.1-18.5-42C2033.3,574.2,2052.2,549.7,2057.5,511.5z"/>
	<path class="st13" d="M2013.5,590c0.4,0,0.8-0.1,1.1-0.4c25.7-18.1,39.9-42.8,44.8-77.9c0-0.1,0-0.2,0-0.3
		c-0.4-13.1,1.8-47.3,16.7-48c7.2-0.3,14.8,1,21.3,3.8c1,0.4,2.2,0,2.6-1s0-2.2-1-2.6c-7.1-3.1-15.3-4.5-23.1-4.2
		c-21.4,1-20.5,48.1-20.4,51.9c-4.8,33.8-18.5,57.7-43.2,75c-0.9,0.6-1.1,1.8-0.5,2.7C2012.3,589.7,2012.9,590,2013.5,590z"/>
	<path class="st13" d="M2046.9,629c0.2,0,0.4,0,0.6-0.1c45.4-15.7,61.3-46.7,71.7-78c2.4-7.1,4.2-13.9,5.4-20.3
		c0.2-1.1-0.5-2.1-1.6-2.3s-2.1,0.5-2.3,1.5c-1.2,6.2-3,12.8-5.3,19.8c-10.1,30.3-25.4,60.4-69.2,75.5c-1,0.3-1.6,1.5-1.2,2.5
		C2045.3,628.5,2046.1,629,2046.9,629z"/>
	<path class="st12" d="M1916.1,637l0.1-19c0,0,53.3,1.2,94.8-28.1c6.7,7.9,15.9,21.9,18.5,42C2001.8,638.3,1965.2,640.2,1916.1,637z
		"/>
	<g>
		<path class="st8" d="M1984.4,643.6c-0.1,0-0.3,0-0.4,0l-169.6-0.2c-4.2,0-7.6-3.4-7.6-7.6c0-4.2,3.4-7.7,7.6-7.6l169.6,0.2
			c4.2,0,7.6,3.4,7.6,7.6C1991.6,640.1,1988.4,643.4,1984.4,643.6z"/>
		<path class="st8" d="M1662.1,489.7h141.2c10.4,0,19.9,6,24.3,15.4l65.3,138.4h-175.5c-6.7,0-12.7-4.1-15.2-10.3l-50.6-128.1
			C1648.6,497.7,1654.1,489.7,1662.1,489.7z"/>
		<path class="st6" d="M1761.5,560.6c3.1,9.5,0.8,18.7-5.1,20.6c-5.8,1.9-13.1-4.3-16.1-13.8s-0.8-18.7,5.1-20.6
			C1751.3,544.9,1758.5,551.1,1761.5,560.6z"/>
	</g>
</g>
<path class="st5" d="M1473.7,1181.2l-353.9,354.7c-14.8,14.9-13.9,39.2,2.1,52.9l2.6,2.2c14.1,12.1,35.4,10.3,47.4-3.9l324.5-385.3
	L1473.7,1181.2z"/>
<ellipse transform="matrix(0.9058 -0.4237 0.4237 0.9058 -268.9048 782.7712)" class="st14" cx="1626" cy="996.2" rx="232.4" ry="228.2"/>
<path class="st5" d="M1518.4,766.1c-129.4,60.6-186.1,212.6-126.7,339.7c59.4,127,212.5,181,341.9,120.4s186.1-212.6,126.7-339.6
	C1800.8,759.6,1647.8,705.6,1518.4,766.1z M1717.8,1192.4c-110.4,51.6-240.9,5.6-291.6-102.8s-2.3-238.1,108.1-289.7
	s240.9-5.6,291.6,102.8C1876.5,1011.1,1828.2,1140.8,1717.8,1192.4z"/>
<g>
	<path class="st11" d="M1422.2,1125.3c-0.3,0-0.7-0.1-0.9-0.4c-3.2-5.1-6.3-10.4-9.1-15.8c-0.2-0.4-0.1-1,0.4-1.2
		c0.4-0.2,1-0.1,1.2,0.4c2.8,5.3,5.9,10.6,9.1,15.6c0.3,0.4,0.1,1-0.3,1.3C1422.5,1125.2,1422.4,1125.2,1422.2,1125.3z
		 M1393.8,1060.2c-0.4,0-0.8-0.2-1-0.7c-4.3-16-6.8-32.5-7.6-49c-2.2-46.8,9.6-93.1,34-133.8c25-41.7,61.7-74.8,106.2-95.6
		c41.8-19.6,87.9-27,133.3-21.4c0.5,0.1,0.9,0.5,0.8,1s-0.5,0.9-1,0.8c-45-5.5-90.8,1.8-132.3,21.2c-44.1,20.7-80.6,53.4-105.4,94.8
		c-24.2,40.4-35.9,86.3-33.7,132.8c0.8,16.4,3.3,32.8,7.5,48.6c0.1,0.5-0.2,1-0.7,1.1C1393.9,1060.2,1393.8,1060.2,1393.8,1060.2z"
		/>
</g>
<path class="st11" d="M1153.3,1587.5c-14.9,1.5-25.1-2.8-30.3-12.7c-5.3-10.1-3.3-22.6,5-31.2l41.9-43.9c0.3-0.4,0.9-0.4,1.3,0
	c0.4,0.3,0.4,0.9,0,1.3l-41.9,43.9c-7.7,8.1-9.6,19.8-4.7,29.1c4.8,9.2,14.3,13.1,28.5,11.7c0.2,0,0.3,0,0.5-0.1
	c0.5-0.1,1,0.3,1,0.8s-0.3,0.9-0.8,1C1153.6,1587.4,1153.5,1587.4,1153.3,1587.5z"/>
<path class="st4" d="M1183.6,1487.6c-0.3,0-0.5-0.1-0.7-0.3c-0.4-0.3-0.4-0.9,0-1.3l5.4-5.7c0.3-0.4,0.9-0.4,1.3,0
	c0.4,0.3,0.4,0.9,0,1.3l-5.4,5.7C1184,1487.5,1183.8,1487.6,1183.6,1487.6z"/>
<path class="st12" d="M1219.7,1546.1l-50.5,12.6l12.6,94.8c0,0-19,19-25.3,44.2s-12.2,131.4-12.2,131.4l-12,7.3l-1.5,6.1l34.9,46.9
	l-5.8-37.4c-0.9-5.9,0.7-17.9,0.2-18.2c19-50.6,59.5-193,59.5-193L1219.7,1546.1L1219.7,1546.1z"/>
<path class="st12" d="M1234.4,1843.1c-0.5,0-1.1,0-1.6,0c2.4-30.5,13.6-164.6,24.8-214.9c12.6-56.9-19-170.6-19-170.6l-56.9,56.9
	l31.6,107.4c-21.7,32.5,3.5,222.7,3,222.6v0.4l-8.2,11.3l1,6.1l50.4,29.7l-19.8-32.2C1236.5,1854.9,1234.8,1849.1,1234.4,1843.1z"/>
<path class="st12" d="M1170.5,1205.4c0,0-110.7,124.8,0,188.8l11.3-8.2c0,0-55-52.6,0-117.1L1170.5,1205.4z"/>
<path class="st5" d="M1262.8,1896.8h-16.1c-3,0-5.8-1.4-7.7-3.8c-5-6.5-15.4-19.2-20.4-19.5c-6.7-0.4-5.8,23.3-5.8,23.3h-3.8
	l-4.7-29.5c-1.2-7.4,2.5-14.8,9.2-18.3l0,0c0,0,1.5,11.3,9.8,16.3c8.3,5,33.7,22.9,33.7,22.9s3.1-0.4,6.5,0.2
	C1268.7,1889.3,1268,1896.8,1262.8,1896.8z"/>
<path class="st5" d="M1167,1895l-14.8-6.2c-2.8-1.2-4.8-3.5-5.6-6.4c-2.1-7.9-6.7-23.7-11.2-25.9c-6-3-14.4,19.2-14.4,19.2l-3.5-1.4
	l7.1-29.1c1.8-7.3,8-12.7,15.5-13.3l0,0c0,0-3,11,2.7,18.8c5.7,7.8,22.2,34.2,22.2,34.2s3,0.8,6,2.7
	C1175.3,1890.3,1171.8,1897,1167,1895z"/>
<path class="st4" d="M1253.1,1361.4c0,0-1.9,11.4,0.9,42.7s15.7,104.8,13.1,175.2c0,0-37,8.6-101.3,4.5c0,0-27.1-109.8-20.5-151.6
	c6.6-41.8,42.5-71.7,42.5-71.7L1253.1,1361.4z"/>
<polygon class="st12" points="1225.8,1152.2 1230.3,1205.4 1187.3,1205.4 1198,1124.2 "/>
<path class="st4" d="M1174.6,1198c14.8-0.8,48-2.3,71.5-1.1c12.4,0.7,22.7,9.6,25.3,21.7l5.7,27.4c2.1,10.2,1.8,20.8-0.9,30.9
	l-23,84.5c0,0-20.5,12.3-65.4-0.9c0,0-39.5-94.1-23.3-154.3C1165.7,1201.6,1169.8,1198.3,1174.6,1198z"/>
<path class="st12" d="M1270.2,1213.7c6.3,16.7,12,34.2,18.2,50.5c3.1,8.2,6.3,16.2,9.7,23.6c1.7,3.7,3.6,7.1,5.3,10.1
	s3.7,5.6,4.7,6.7c0.2,0.2-0.5,0.3-0.7,0.3c-0.1,0,4.3,0.7,5.6,0.9h5.3c7.6-0.4,16.2-1.7,24.8-3.4c17.4-3.2,35.4-7.8,54-11.2h0.1
	c3.5-0.7,7,1.7,7.6,5.2c0.4,2.3-0.5,4.6-2.1,6.1c-7.5,6.6-15.4,12-23.6,17.3c-4.1,2.5-8.3,5-12.6,7.4c-4.4,2.2-8.7,4.5-13.3,6.5
	c-9.2,4-18.6,7.7-29.5,10c-2.9,0.5-5.7,1-8.6,1.4c-3.3,0.1-6.3,0.4-9.9,0.2c-1.9-0.2-3.8-0.4-5.8-0.7c-1-0.2-1.8-0.2-3-0.5
	c-1.3-0.4-2.6-0.8-3.9-1.3c-2.7-1-4.5-2.2-6.7-3.4c-1.8-1.2-3.5-2.5-5.1-3.8c-6-5.1-9.7-10.1-12.9-14.9c-3.3-4.8-5.8-9.7-8.1-14.4
	c-4.6-9.5-8.3-18.8-11.2-28.3c-6-18.9-10-37.6-11.7-57.3c-0.8-9.5,6.2-17.8,15.7-18.6c7.8-0.7,14.9,4,17.6,11L1270.2,1213.7z"/>
<linearGradient id="SVGID_3_" gradientUnits="userSpaceOnUse" x1="1472.5447" y1="-131.0631" x2="1191.3737" y2="-132.1879" gradientTransform="matrix(1 0 0 1 0 1420)">
	<stop  offset="0" style="stop-color:#74767B"/>
	<stop  offset="1" style="stop-color:#5C5E61"/>
</linearGradient>
<path class="st15" d="M1391.2,1299.8l7.7-18.2l40.4-10.1c0,0,3.2,7-13.7,10.1c0,0,6,6.7,2.8,14.6
	C1425.1,1304,1390.8,1311.9,1391.2,1299.8z"/>
<path class="st12" d="M1244,1090.8c1.5,0.9,13.6,43.5,3.5,61.4s-41.1-2.2-49.5-28C1189.6,1098.3,1203.1,1066.7,1244,1090.8z"/>
<path class="st5" d="M1163.8,1124.2c-6.9,34-29.9,24.7-46.2,39.8c-26.4,24.5-64.1-0.8-100.8,22.5c-26.5,16.8-39.3,59.7-26.5,94.3
	c17.6,48,77.8,67.7,109,53.1c29.8-14,25.6-55.8,65.7-72c17-6.9,25.4-2.4,35.6-12.6c17.8-17.8,13-52.4,11.2-65.7
	c-4-28.9-13.7-34.1-9.1-46.8c9-24.7,51-19.6,54.5-37c3.2-15.9-27.3-46-55.9-41.2C1156.8,1066,1166.9,1109,1163.8,1124.2z"/>
<path class="st11" d="M1003.4,1272.7c-0.5,0-1-0.4-1.1-0.9c-5.7-23.6-3.1-42.9,7.6-57.4c17.8-24.1,52.5-26.5,52.9-26.6
	c0.5-0.1,1.2,0.4,1.2,1.1s-0.5,1.2-1.1,1.2c-0.3,0-34,2.3-51.2,25.6c-10.3,14-12.8,32.6-7.3,55.5c0.1,0.6-0.2,1.3-0.9,1.4
	C1003.6,1272.6,1003.5,1272.7,1003.4,1272.7z"/>
<path class="st11" d="M1117,1294.2c0,0-0.1,0-0.2,0c-0.3-0.1-0.5-0.4-0.4-0.7c5.5-21.2,15.2-35.9,28.8-43.8
	c9.9-5.7,19.2-6.2,27.3-6.7c7.9-0.4,14.7-0.8,20.2-5.7c11.3-10.1,10.7-34.3-2-71.9c-0.1-0.3,0.1-0.6,0.4-0.7s0.6,0.1,0.7,0.4
	c12.8,38.2,13.3,62.8,1.6,73.2c-5.8,5.1-12.8,5.5-20.9,6c-8,0.5-17.2,1-26.8,6.6c-13.3,7.7-22.8,22.2-28.3,43.1
	C1117.5,1294.1,1117.3,1294.2,1117,1294.2z"/>
<path class="st11" d="M1180.2,1115.7c-0.1,0-0.1,0-0.2,0c-0.3-0.1-0.5-0.4-0.4-0.7c4.4-13.1,17-11.1,30.5-9.1
	c8.5,1.3,17.3,2.7,24.7,0.4c5.5-1.7,8.8-4.2,9.8-7.6c1.6-5.8-4.1-12.2-4.1-12.3c-0.2-0.2-0.2-0.6,0-0.8c0.2-0.2,0.6-0.2,0.8,0
	c0.3,0.3,6.2,7,4.4,13.3c-1.1,3.8-4.6,6.6-10.6,8.4c-7.7,2.3-16.6,0.9-25.2-0.4c-13.5-2.1-25.1-3.9-29.2,8.3
	C1180.7,1115.6,1180.4,1115.7,1180.2,1115.7z"/>
<g>
	<path class="st4" d="M1885.8,163.3l-643.8-3.1c-7.8-0.1-14.1,8.5-14,19.1l1.4,254.7c0.1,10.6,6.5,19.1,14.3,18.8l640.2-13.7
		c7.4-0.3,13.4-8.5,13.5-18.7l2.2-237.9C1899.7,172,1893.5,163.4,1885.8,163.3z"/>
	<path class="st4" d="M1243.3,436.8c-1.3,0-2.4-1.3-2.4-2.8l-1.4-254.7c0-0.7,0.2-1.4,0.6-1.9c0.5-0.6,1.1-1,1.8-1l643.8,3.1
		c0.7,0,1.3,0.4,1.8,1c0.4,0.5,0.6,1.2,0.6,1.9l-2.2,237.9c0,1.6-1,2.8-2.3,2.8l0,0L1243.3,436.8z M1241.8,178.5
		c-0.1,0.2-0.2,0.4-0.2,0.7l1.4,254.7c0,0.4,0.2,0.6,0.2,0.7l640.1-13.7c0.1,0,0.2-0.3,0.2-0.7l2.2-237.9c0-0.3-0.1-0.5-0.2-0.6
		L1241.8,178.5z"/>
	<g class="st16">
		<rect x="1268" y="295" class="st2" width="31.3" height="119.7"/>
		<rect x="1320.4" y="336.1" class="st2" width="31.3" height="78.6"/>
		<rect x="1372.7" y="234.4" class="st2" width="31.3" height="180.3"/>
		<rect x="1425.1" y="371.4" class="st2" width="31.3" height="43.3"/>
		<rect x="1477.4" y="258.5" class="st2" width="31.3" height="156.2"/>
		<rect x="1529.8" y="285.6" class="st2" width="31.3" height="129.1"/>
		<rect x="1582.1" y="315" class="st2" width="31.3" height="99.8"/>
		<rect x="1634.5" y="198" class="st2" width="31.3" height="216.7"/>
		<rect x="1686.8" y="220.9" class="st2" width="31.3" height="193.8"/>
		<rect x="1739.2" y="255.6" class="st2" width="31.3" height="159.1"/>
		<rect x="1791.6" y="375.4" class="st2" width="31.3" height="39.3"/>
		<rect x="1843.9" y="299.1" class="st2" width="31.3" height="115.6"/>
	</g>
</g>
<g>
	<g>
		<g class="st17">
			<path class="st1" d="M2347.2,1530.7c-3,1.7-6.8,0.7-8.5-2.3c-3.3-5.8-7-11.6-10.8-17.1c-1.9-2.8-1.3-6.6,1.5-8.6l0.1-0.1
				c2.8-2,6.7-1.3,8.7,1.6c4.1,5.8,7.9,11.9,11.4,18c1.6,2.8,0.8,6.3-1.8,8.2C2347.6,1530.4,2347.4,1530.6,2347.2,1530.7z
				 M2307.2,1485.6c-4.6-5-9.4-9.8-14.3-14.3c-2.5-2.3-2.7-6.3-0.4-8.8c2.3-2.6,6.3-2.7,8.8-0.4c5.2,4.8,10.3,9.8,15.1,15.1
				c2.3,2.5,2.2,6.5-0.4,8.8c-0.2,0.2-0.4,0.3-0.6,0.5C2313,1488.2,2309.4,1487.9,2307.2,1485.6z M2267.2,1450.8
				c-5.5-3.8-11.3-7.4-17.2-10.7c-3-1.7-4.1-5.5-2.3-8.5c1.7-3,5.5-4.1,8.5-2.3c6.2,3.5,12.2,7.3,18.1,11.3c2.8,2,3.6,5.8,1.6,8.7
				c-0.4,0.6-0.9,1.1-1.5,1.5C2272.3,1452.2,2269.4,1452.3,2267.2,1450.8z M2220.3,1425.9c-6.3-2.5-12.7-4.7-19.1-6.6
				c-3.3-1-5.2-4.5-4.2-7.8s4.5-5.2,7.8-4.2c6.8,2,13.6,4.4,20.2,7c3.2,1.3,4.8,4.9,3.5,8.1c-0.4,1.2-1.2,2.1-2.1,2.8
				C2224.6,1426.3,2222.4,1426.7,2220.3,1425.9z M2169.1,1412c-6.6-1-13.4-1.8-20.1-2.2c-3.4-0.2-6.1-3.2-5.8-6.7
				c0.2-3.4,3.2-6.1,6.7-5.8c7.1,0.5,14.2,1.3,21.2,2.3c3.4,0.5,5.8,3.7,5.2,7.1c-0.3,1.7-1.2,3.2-2.5,4.1
				C2172.4,1411.8,2170.8,1412.2,2169.1,1412z M2116.1,1409.7c-6.7,0.5-13.5,1.2-20.1,2.3c-3.4,0.5-6.6-1.8-7.1-5.2
				c-0.5-3.4,1.8-6.6,5.2-7.1c7-1.1,14.1-1.9,21.2-2.4c3.4-0.2,6.4,2.4,6.7,5.8c0.2,2.2-0.9,4.3-2.6,5.5
				C2118.4,1409.2,2117.3,1409.7,2116.1,1409.7z M1918.2,1531.2c-3-1.7-4.1-5.5-2.3-8.5c3.5-6.2,7.3-12.2,11.3-18.1
				c2-2.8,5.9-3.6,8.7-1.6c2.8,2,3.6,5.8,1.6,8.7c-3.8,5.5-7.4,11.3-10.8,17.2c-0.5,0.8-1.1,1.5-1.8,2
				C1923,1532.2,1920.4,1532.4,1918.2,1531.2z M2063.9,1419.3c-6.4,1.9-12.9,4.2-19.1,6.7c-3.2,1.3-6.8-0.3-8.1-3.5s0.3-6.8,3.5-8.1
				c6.6-2.6,13.3-5,20.1-7.1c3.3-1,6.8,0.9,7.8,4.2c0.8,2.6-0.2,5.4-2.3,6.9C2065.2,1418.8,2064.6,1419.1,2063.9,1419.3z
				 M1949.2,1486.4c-2.5-2.3-2.7-6.3-0.4-8.8c4.8-5.2,9.9-10.3,15.1-15.1c2.5-2.3,6.5-2.2,8.8,0.4s2.2,6.5-0.4,8.8
				c-5,4.6-9.8,9.4-14.3,14.3c-0.3,0.3-0.6,0.6-0.9,0.8C1954.7,1488.5,1951.4,1488.4,1949.2,1486.4z M2015.2,1440.4
				c-5.8,3.3-11.6,7-17.1,10.8c-2.8,2-6.7,1.3-8.7-1.6c-1.9-2.8-1.3-6.6,1.5-8.6l0.1-0.1c5.8-4,11.9-7.9,18-11.4
				c3-1.7,6.8-0.7,8.5,2.3c1.6,2.8,0.8,6.3-1.8,8.2C2015.6,1440.1,2015.4,1440.2,2015.2,1440.4z"/>
			<path class="st1" d="M1906.7,1570.8c1-0.7,1.8-1.7,2.2-3c1.1-3,2.2-6.1,3.4-9.1c1.3-3.2-0.3-6.8-3.5-8.1
				c-3.2-1.3-6.8,0.3-8.1,3.5c-1.3,3.2-2.5,6.4-3.6,9.6c-1.1,3.3,0.6,6.8,3.8,8C1903,1572.3,1905.1,1571.9,1906.7,1570.8z"/>
		</g>
		<g class="st17">
			<path class="st1" d="M1919,1761c2.4-1.8,3.3-5.1,1.9-7.9c-1.4-2.9-2.9-5.8-4.2-8.8c-1.4-3.1-5.1-4.5-8.3-3.1
				c-3.2,1.4-4.5,5.1-3.1,8.3c1.4,3.1,2.9,6.2,4.4,9.3c1.6,3.1,5.3,4.3,8.4,2.8C1918.4,1761.4,1918.7,1761.2,1919,1761z"/>
			<path class="st1" d="M2268.9,1855.9c-2.9,1.9-6.8,1.1-8.7-1.8c-1.9-2.9-1.1-6.8,1.8-8.6c5.5-3.6,10.9-7.5,16.2-11.6
				c2.7-2.1,6.7-1.6,8.8,1.1c2.1,2.7,1.6,6.7-1.1,8.8c-2.3,1.8-4.6,3.5-6.9,5.2C2275.7,1851.3,2272.3,1853.6,2268.9,1855.9z
				 M2302.5,1821.1c-2.5-2.4-2.5-6.4-0.1-8.8c4.6-4.7,9.1-9.7,13.3-14.8c2.2-2.7,6.1-3,8.8-0.8c2.7,2.2,3,6.1,0.8,8.8
				c-4.4,5.4-9.2,10.6-14,15.6c-0.3,0.3-0.5,0.5-0.8,0.7C2308.2,1823.5,2304.8,1823.3,2302.5,1821.1z M2239.1,1872.4
				c-6.3,3-12.8,5.7-19.3,8.1c-3.2,1.2-6.8-0.4-8-3.7c-1.2-3.2,0.4-6.8,3.7-8c6.2-2.3,12.4-4.9,18.4-7.7c3.1-1.5,6.8-0.1,8.3,3
				c1.3,2.8,0.4,6-2,7.7C2239.8,1872.1,2239.5,1872.3,2239.1,1872.4z M2336.7,1779.8c-2.9-1.8-3.8-5.7-2-8.6
				c3.5-5.6,6.8-11.5,9.8-17.4c1.6-3.1,5.3-4.3,8.4-2.8c3.1,1.6,4.3,5.3,2.8,8.4c-3.2,6.2-6.6,12.4-10.3,18.3
				c-0.4,0.7-1,1.3-1.7,1.8C2341.7,1781,2338.9,1781.2,2336.7,1779.8z M2187.1,1890.2c-6.8,1.5-13.7,2.7-20.7,3.7
				c-3.4,0.5-6.6-1.9-7-5.4c-0.5-3.4,1.9-6.6,5.4-7c6.6-0.9,13.2-2.1,19.6-3.5c3.4-0.8,6.7,1.4,7.5,4.8c0.6,2.5-0.5,5-2.4,6.4
				C2188.7,1889.7,2188,1890,2187.1,1890.2z M2132.5,1896.1c-7,0-14-0.3-20.9-0.9c-3.4-0.3-6-3.3-5.7-6.8c0.3-3.4,3.3-6,6.8-5.7
				c6.6,0.6,13.3,0.9,19.9,0.9c3.4,0,6.3,2.8,6.2,6.3c0,2.1-1,3.9-2.6,5.1C2135.1,1895.7,2133.8,1896.1,2132.5,1896.1z M2077.8,1890
				c-6.8-1.5-13.6-3.4-20.3-5.5c-3.3-1-5.1-4.6-4.1-7.8c1-3.3,4.6-5.1,7.8-4.1c6.3,2,12.8,3.7,19.3,5.2c3.4,0.8,5.5,4.1,4.7,7.5
				c-0.3,1.6-1.2,2.8-2.4,3.7C2081.5,1890,2079.7,1890.4,2077.8,1890z M2025.9,1872.1c-6.3-3-12.6-6.3-18.6-9.8
				c-3-1.7-4-5.6-2.3-8.6s5.6-4,8.6-2.3c5.7,3.3,11.7,6.4,17.6,9.3c3.1,1.5,4.4,5.2,3,8.3c-0.5,1-1.2,1.8-2,2.4
				C2030.4,1872.8,2028,1873.1,2025.9,1872.1z M1979.1,1843.2c-5.5-4.3-10.8-8.9-15.9-13.6c-2.5-2.4-2.7-6.3-0.3-8.8
				c2.3-2.5,6.3-2.7,8.8-0.3c4.8,4.5,9.9,8.9,15.2,12.9c2.7,2.1,3.2,6.1,1.1,8.8c-0.4,0.5-0.8,0.9-1.3,1.2
				C1984.4,1845,1981.3,1845,1979.1,1843.2z M1939.8,1804.8c-3.3-4-6.4-8.1-9.4-12.2c-1.1-1.5-2.2-3-3.2-4.5c-2-2.8-1.3-6.8,1.6-8.7
				c2.8-2,6.7-1.3,8.7,1.6c1,1.4,2,2.9,3,4.3c2.8,3.9,5.9,7.9,9,11.6c2.2,2.7,1.8,6.6-0.9,8.8c-0.1,0.1-0.2,0.2-0.3,0.2
				C1945.6,1807.8,1941.9,1807.4,1939.8,1804.8z"/>
			<path class="st1" d="M2366.7,1730.9c1-0.7,1.8-1.8,2.2-3c1.1-3.2,2.2-6.5,3.1-9.8c1-3.3-0.9-6.8-4.2-7.8c-3.3-1-6.8,0.9-7.8,4.2
				c-0.9,3.1-1.9,6.2-3,9.3c-1.1,3.3,0.6,6.8,3.9,7.9C2363,1732.5,2365.1,1732.1,2366.7,1730.9z"/>
		</g>
		<g>
			<path class="st1" d="M2319.8,1634.5c0.1-1.3-0.7-2.4-1.8-2.9l-32.9-13.5c-2.8-16.4-8.3-32.4-16.5-47.4l17.4-31
				c0.6-1.1,0.5-2.4-0.4-3.4l-28.4-31.9c-0.8-0.9-2.2-1.2-3.3-0.8l-32.8,13.7c-14-9.8-29.3-17.1-45.2-21.9l-9.6-34.2
				c-0.3-1.2-1.4-2.1-2.6-2.1l-42.6-2.5c-1.2-0.1-2.4,0.7-2.9,1.8l-13.5,32.9c-16.4,2.8-32.4,8.3-47.4,16.5l-31-17.4
				c-1.1-0.6-2.4-0.5-3.4,0.4l-31.9,28.4c-0.9,0.8-1.2,2.2-0.8,3.3l13.7,32.8c-9.8,14-17.1,29.3-21.9,45.2l-34.2,9.6
				c-1.2,0.3-2.1,1.4-2.1,2.6l-2.5,42.6c-0.1,1.2,0.7,2.4,1.8,2.9l32.9,13.5c2.8,16.4,8.3,32.4,16.5,47.4l-17.4,31
				c-0.6,1.1-0.5,2.4,0.4,3.4l28.4,31.9c0.8,0.9,2.2,1.2,3.3,0.8l32.8-13.7c14,9.8,29.3,17.1,45.2,21.9l9.6,34.2
				c0.3,1.2,1.4,2.1,2.6,2.1l42.6,2.5c1.2,0.1,2.4-0.6,2.9-1.8l13.5-32.9c16.4-2.8,32.4-8.3,47.4-16.5l31,17.4
				c1.1,0.6,2.4,0.5,3.4-0.4l31.9-28.4c0.9-0.8,1.2-2.2,0.8-3.3l-13.7-32.8c9.8-14,17.1-29.3,21.9-45.2l34.2-9.6
				c1.2-0.3,2.1-1.4,2.1-2.6L2319.8,1634.5z"/>
			<path class="st18" d="M2151.4,1683c-21,10.9-46.9,2.7-57.8-18.2c-5.3-10.2-6.3-21.8-2.9-32.7c3.4-10.9,10.9-19.8,21.1-25.1
				c21-10.9,46.9-2.7,57.8,18.2c9.9,19.1,4.1,42.3-12.9,54.5C2155.1,1680.9,2153.3,1682,2151.4,1683z M2100.2,1635.1
				c-2.6,8.4-1.9,17.3,2.2,25.1c8.4,16.1,28.3,22.3,44.3,14c16.1-8.4,22.3-28.3,14-44.3s-28.3-22.3-44.3-14
				c-1.5,0.8-2.8,1.6-4.2,2.6C2106.6,1622.5,2102.4,1628.2,2100.2,1635.1z"/>
			<path class="st18" d="M2192.3,1730.4c2.9-2.1,5.7-4.4,8.4-6.8l0,0c0.9-0.8,1.7-1.5,2.5-2.3c4.1-3.9,7.9-8.1,11.3-12.6
				c0.1-0.1,0.1-0.1,0.1-0.2c0.1-0.2,0.3-0.3,0.4-0.5c0.3-0.3,0.5-0.7,0.8-1c0.7-0.9,0.6-2.1,0-2.9c-0.2-0.2-0.3-0.4-0.6-0.6
				c-1.1-0.8-2.7-0.6-3.5,0.5c-4.2,5.7-9,11.1-14.4,15.8c-26.6,23.7-62.3,30.6-94.3,21.5c-17.8-5-34.3-15-47.5-29.8
				c-2.3-2.6-4.5-5.3-6.5-8.1c-13.5-18.7-20.1-41.2-18.8-64.6c1.6-26.8,13.5-51.4,33.5-69.2c41.4-36.8,105-33.1,141.8,8.3
				c2.3,2.6,4.4,5.2,6.4,8c8.6,11.9,14.5,25.6,17.3,40c0.1,0.4,0.2,0.7,0.4,1c0.6,0.8,1.5,1.2,2.5,1c1.4-0.3,2.3-1.6,2-2.9
				c-2.9-15.2-9.1-29.5-18.1-42c-2.1-2.9-4.3-5.7-6.7-8.3c-38.7-43.4-105.4-47.3-148.9-8.7c-21,18.7-33.5,44.5-35.2,72.6
				c-1.4,24.5,5.5,48.2,19.7,67.8c2.1,2.9,4.4,5.7,6.8,8.5c18.7,21,44.5,33.5,72.6,35.2C2149,1751.5,2172.7,1744.6,2192.3,1730.4z"
				/>
		</g>
	</g>
	<g>
		<g class="st17">
			<path class="st1" d="M2617.2,1538.7c1.4-1,2-2.8,1.4-4.4c-1.1-3.1-2.3-6.2-3.6-9.2c-0.8-2-3.1-2.9-5.1-2.1s-2.9,3.1-2.1,5.1
				c1.2,2.9,2.4,5.8,3.4,8.8c0.7,2,2.9,3.1,4.9,2.3C2616.6,1539.1,2616.9,1539,2617.2,1538.7z"/>
			<path class="st1" d="M2604.4,1512c-1.9,1.1-4.2,0.4-5.3-1.4c-2.7-4.7-5.7-9.2-8.8-13.6c-0.7-0.9-1.3-1.8-2-2.8
				c-1.3-1.7-0.9-4.1,0.8-5.4c1.7-1.2,4.1-0.9,5.4,0.8c0.7,0.9,1.4,1.9,2.1,2.9c3.3,4.6,6.4,9.4,9.3,14.3c1,1.7,0.5,3.9-1.1,5.1
				C2604.6,1511.9,2604.5,1511.9,2604.4,1512z M2575.5,1479.4c-4.5-4.7-9.4-9.1-14.5-13.2c-1.7-1.3-1.9-3.8-0.6-5.4
				c1.3-1.7,3.8-1.9,5.4-0.6c5.3,4.3,10.4,8.9,15.2,13.9c1.5,1.5,1.4,4-0.1,5.5c-0.1,0.1-0.3,0.3-0.4,0.4
				C2579,1480.9,2576.9,1480.7,2575.5,1479.4z M2545,1454.8c-5.5-3.4-11.4-6.5-17.3-9.3c-1.9-0.9-2.8-3.2-1.9-5.1
				c0.9-1.9,3.2-2.8,5.1-1.9c6.2,2.8,12.3,6.1,18.1,9.7c1.8,1.1,2.4,3.5,1.3,5.3c-0.3,0.4-0.6,0.8-1,1.1
				C2548.1,1455.5,2546.4,1455.6,2545,1454.8z M2509.4,1438.5c-6.2-2-12.6-3.6-19-4.8c-2.1-0.4-3.5-2.4-3.1-4.5s2.4-3.5,4.5-3.1
				c6.7,1.2,13.4,2.9,19.9,5c2,0.6,3.2,2.8,2.5,4.8c-0.3,0.8-0.8,1.5-1.4,2C2511.9,1438.6,2510.7,1438.9,2509.4,1438.5z
				 M2471,1431.3c-6.5-0.4-13.1-0.4-19.6,0c-2.1,0.1-4-1.5-4.1-3.6s1.5-4,3.6-4.1c6.8-0.4,13.7-0.4,20.6,0c2.1,0.1,3.8,2,3.6,4.1
				c-0.1,1.2-0.7,2.2-1.6,2.9C2472.8,1431.1,2471.9,1431.4,2471,1431.3z M2431.9,1433.8c-6.4,1.2-12.8,2.8-19,4.8
				c-2,0.7-4.2-0.5-4.8-2.5s0.5-4.2,2.5-4.9c6.5-2.1,13.2-3.8,19.9-5c2.1-0.4,4.1,1,4.5,3.1c0.3,1.5-0.4,3-1.5,3.8
				C2433,1433.4,2432.5,1433.6,2431.9,1433.8z M2394.6,1445.7c-5.9,2.7-11.7,5.9-17.3,9.3c-1.8,1.1-4.2,0.6-5.3-1.2
				c-1.1-1.8-0.6-4.2,1.2-5.3c5.8-3.6,11.9-6.9,18.1-9.8c1.9-0.9,4.2-0.1,5.1,1.9c0.8,1.7,0.2,3.7-1.2,4.8
				C2395.1,1445.4,2394.9,1445.6,2394.6,1445.7z M2341.5,1479.7c-1.5-1.5-1.6-3.9-0.1-5.5c4.1-4.2,8.5-8.3,13.1-12.2
				c0.7-0.6,1.4-1.2,2.1-1.7c1.6-1.4,4.1-1.1,5.4,0.6s1.1,4.1-0.6,5.4c-0.7,0.5-1.3,1.1-2,1.6c-4.4,3.7-8.6,7.6-12.5,11.6
				c-0.2,0.2-0.3,0.3-0.5,0.4C2344.9,1481.1,2342.8,1481,2341.5,1479.7z"/>
		</g>
		<g class="st17">
			<path class="st1" d="M2557.2,1726.6c-5.5,3.9-11.3,7.4-17.2,10.6c-1.9,1-4.2,0.3-5.2-1.6s-0.3-4.2,1.6-5.2
				c5.6-3,11.2-6.4,16.4-10.1c1.7-1.2,4.1-0.8,5.4,0.9C2559.4,1722.9,2559,1725.3,2557.2,1726.6L2557.2,1726.6z M2567.6,1713.7
				c-1.4-1.6-1.3-4,0.3-5.4c4.8-4.3,9.3-8.9,13.5-13.8c1.4-1.6,3.8-1.8,5.4-0.4c1.6,1.4,1.8,3.8,0.4,5.4c-4.4,5.1-9.2,9.9-14.2,14.4
				c-0.1,0.1-0.2,0.2-0.3,0.3C2571.1,1715.4,2568.9,1715.2,2567.6,1713.7z M2521.6,1745.7c-6.3,2.4-12.8,4.5-19.3,6.2
				c-2.1,0.5-4.2-0.7-4.7-2.8c-0.5-2.1,0.7-4.2,2.8-4.7c6.2-1.6,12.4-3.5,18.4-5.9c2-0.8,4.2,0.2,5,2.2c0.7,1.7,0.1,3.5-1.3,4.5
				C2522.2,1745.4,2521.9,1745.5,2521.6,1745.7z M2594.2,1684.6c-1.8-1.2-2.2-3.6-1-5.4c3.6-5.3,6.9-10.9,9.8-16.6
				c1-1.9,3.3-2.7,5.2-1.7s2.6,3.3,1.7,5.2c-3.1,6-6.5,11.8-10.3,17.4c-0.3,0.4-0.6,0.7-0.9,1
				C2597.3,1685.4,2595.6,1685.5,2594.2,1684.6z M2482.5,1755.6c-6.7,0.8-13.4,1.3-20.2,1.3c-2.1,0-3.9-1.7-3.9-3.8s1.7-3.9,3.8-3.9
				c6.4,0,12.9-0.5,19.2-1.3c2.1-0.3,4.1,1.2,4.3,3.3c0.2,1.4-0.5,2.8-1.6,3.6C2483.8,1755.2,2483.2,1755.5,2482.5,1755.6z
				 M2442.1,1755.8c-6.7-0.8-13.4-2-19.9-3.5c-2.1-0.5-3.3-2.6-2.8-4.7s2.6-3.3,4.7-2.8c6.2,1.5,12.6,2.6,19,3.4
				c2.1,0.3,3.6,2.2,3.4,4.3c-0.1,1.1-0.7,2.1-1.6,2.7C2444.1,1755.6,2443.1,1755.9,2442.1,1755.8z M2402.9,1746.3
				c-6.3-2.3-12.5-5.1-18.5-8.2c-1.9-1-2.6-3.3-1.7-5.2c1-1.9,3.3-2.6,5.2-1.7c5.7,2.9,11.6,5.6,17.6,7.8c2,0.8,3,3,2.3,5
				c-0.3,0.7-0.8,1.3-1.3,1.8C2405.5,1746.6,2404.1,1746.8,2402.9,1746.3z"/>
			<path class="st1" d="M2616.6,1649.2c0.6-0.4,1.1-1.1,1.4-1.8c1.1-3.1,2.2-6.3,3.1-9.4c0.6-2-0.6-4.2-2.6-4.8
				c-2-0.6-4.2,0.6-4.8,2.6c-0.9,3-1.9,6-3,8.9c-0.7,2,0.3,4.2,2.3,4.9C2614.3,1650.2,2615.6,1649.9,2616.6,1649.2z"/>
		</g>
		<g>
			<path class="st1" d="M2586.5,1582.2c0.1-0.8-0.4-1.6-1.2-1.9l-22-9.1c-1.9-10.9-5.6-21.7-11-31.7l11.6-20.7
				c0.4-0.7,0.3-1.6-0.2-2.3l-19-21.3c-0.6-0.6-1.4-0.8-2.2-0.5l-21.9,9.2c-9.3-6.6-19.6-11.5-30.2-14.6l-6.4-22.9
				c-0.2-0.8-0.9-1.4-1.8-1.4l-28.5-1.7c-0.8-0.1-1.6,0.4-1.9,1.2l-9.1,22c-10.9,1.9-21.7,5.6-31.7,11l-20.7-11.6
				c-0.7-0.4-1.6-0.3-2.3,0.2l-21.3,19c-0.6,0.6-0.8,1.4-0.5,2.2l9.2,21.9c-6.6,9.3-11.5,19.6-14.6,30.2l-22.9,6.4
				c-0.8,0.2-1.4,0.9-1.4,1.8l-1.7,28.5c-0.1,0.8,0.4,1.6,1.2,1.9l22,9.1c1.9,10.9,5.6,21.7,11,31.7l-11.6,20.7
				c-0.4,0.7-0.3,1.6,0.2,2.3l19,21.3c0.6,0.6,1.4,0.8,2.2,0.5l21.9-9.2c9.3,6.6,19.6,11.5,30.2,14.6l6.4,22.9
				c0.2,0.8,0.9,1.4,1.8,1.4l28.5,1.7c0.8,0.1,1.6-0.4,1.9-1.2l9.1-22c10.9-1.9,21.7-5.6,31.7-11l20.7,11.6c0.7,0.4,1.6,0.3,2.3-0.2
				l21.3-19c0.6-0.6,0.8-1.4,0.5-2.2l-9.2-21.9c6.6-9.3,11.5-19.6,14.6-30.2l22.9-6.4c0.8-0.2,1.4-0.9,1.4-1.8L2586.5,1582.2z"/>
			<path class="st18" d="M2474,1615c-6.9,3.6-14.8,4.3-22.3,1.9c-7.4-2.3-13.5-7.4-17.1-14.4c-7.4-14.3-1.9-31.9,12.4-39.4
				c14.3-7.4,32-1.9,39.4,12.4c3.6,6.9,4.3,14.8,1.9,22.3c-1.9,6.1-5.6,11.2-10.7,14.8C2476.5,1613.6,2475.3,1614.4,2474,1615z
				 M2441.4,1599.1c2.7,5.1,7.1,8.8,12.6,10.6c5.5,1.7,11.3,1.2,16.4-1.4l0,0c5.1-2.7,8.8-7.1,10.6-12.6c1.7-5.5,1.2-11.3-1.4-16.4
				c-5.5-10.5-18.5-14.6-29-9.1c-0.9,0.5-1.8,1.1-2.7,1.7C2439.4,1577.9,2436.5,1589.5,2441.4,1599.1z"/>
			<path class="st18" d="M2502.5,1648c2-1.4,3.9-3,5.8-4.6c3.7-3.3,7.1-7,10-10.9c0.1-0.2,0.3-0.4,0.4-0.5c1-1.4,1-3.2,0-4.5
				c-0.2-0.3-0.5-0.6-0.8-0.9c-1.7-1.3-4.1-0.9-5.4,0.8c-2.7,3.7-5.9,7.2-9.3,10.2l0,0c-0.2,0.2-0.4,0.3-0.6,0.5
				c-8.3,7.2-18,12.1-28.4,14.4c-5.7,1.3-11.5,1.8-17.4,1.5c-0.1,0-0.1,0-0.1,0c-0.2,0-0.3,0-0.4,0c-17.3-1-33.3-8.7-44.8-21.7
				c-1.5-1.7-2.9-3.4-4.2-5.2c-8.7-12.1-13-26.7-12.2-41.8c1-17.3,8.7-33.2,21.7-44.8c13-11.5,29.7-17.3,47-16.3
				c17.3,1,33.3,8.7,44.8,21.7c1.5,1.7,2.8,3.4,4.1,5.2c5.6,7.7,9.4,16.6,11.2,25.9c0.1,0.6,0.3,1.1,0.7,1.5
				c0.8,1.2,2.3,1.8,3.8,1.5c2.1-0.4,3.5-2.4,3.1-4.5c-2-10.5-6.3-20.4-12.5-29c-1.4-2-3-3.9-4.6-5.8
				c-12.9-14.5-30.7-23.1-50.1-24.3c-19.4-1.2-38.1,5.3-52.6,18.3c-14.5,12.9-23.1,30.7-24.3,50.1c-1,16.9,3.8,33.2,13.6,46.8
				c1.4,2,3,4,4.7,5.8C2430.6,1665.5,2472.6,1669.6,2502.5,1648z"/>
		</g>
	</g>
</g>
</svg>
