<?xml version="1.0" encoding="utf-8"?>
<!-- Generator: Adobe Illustrator 23.0.1, SVG Export Plug-In . SVG Version: 6.00 Build 0)  -->
<svg version="1.1" id="Layer_1" xmlns="http://www.w3.org/2000/svg" xmlns:xlink="http://www.w3.org/1999/xlink" x="0px" y="0px"
	 viewBox="0 0 3500 1264" style="enable-background:new 0 0 3500 1264;" xml:space="preserve">
<style type="text/css">
	.st0{fill:none;stroke:#EFB76C;stroke-width:23;stroke-linecap:round;stroke-linejoin:round;}
	.st1{clip-path:url(#SVGID_2_);}
	.st2{fill:#EBEBEB;}
	.st3{fill:#C9C9C9;}
	.st4{fill:#E0E0E0;}
	.st5{fill:#FFFFFF;}
	.st6{fill:#FFA412;}
	.st7{fill:#EEF6FF;}
	.st8{fill:#78ACEA;}
	.st9{fill:#BAE8E3;}
	.st10{fill:#A1D6CE;}
	.st11{fill:#F99746;}
	.st12{fill:#F5F5F5;}
	.st13{fill:#B7D3F3;}
	.st14{fill:#FFB27D;}
	.st15{fill:#233862;}
	.st16{fill:#A9453D;}
	.st17{fill:#ED975D;}
	.st18{fill:#2D3A3F;}
	.st19{fill:#5F9AA8;}
	.st20{fill:#FFC93C;}
	.st21{fill:#263238;}
	.st22{fill:#1E3D70;}
	.st23{fill:#FFDF93;}
	.st24{fill:#163560;}
	.st25{fill:#E8945B;}
	.st26{fill:#EBF3FA;}
	.st27{fill:#F2CCAA;}
	.st28{fill:#B5453C;}
	.st29{fill:#00858E;}
	.st30{fill:#E2915A;}
	.st31{fill:#007477;}
	.st32{fill:#2E3552;}
	.st33{clip-path:url(#SVGID_4_);}
	.st34{fill:#DFEBFD;}
	.st35{fill:#375DAA;}
	.st36{fill:#EFC8AB;}
	.st37{fill:#FFEDDC;}
	.st38{fill:#F7DCC6;}
	.st39{fill:#E8B795;}
	.st40{fill:#E2810E;}
	.st41{fill:#FFB93E;}
	.st42{fill:#2C3A64;}
	.st43{fill:#ED985F;}
	.st44{fill:#EDB22F;}
	.st45{fill:#FAFDFF;}
	.st46{fill:#699DEE;}
	.st47{fill:#F9DDBF;}
	.st48{fill:#F4A269;}
	.st49{fill:#FFEAC5;}
	.st50{fill:#95C0F4;}
	.st51{fill:#B0D4FF;}
	.st52{fill:none;}
	.st53{opacity:0.4;}
	.st54{opacity:0.4;fill:#EBEBEB;enable-background:new    ;}
	.st55{fill:#1B1B43;}
	.st56{fill:#3A4A51;}
	.st57{fill:#FFBC96;}
	.st58{fill:#D28572;}
	.st59{fill:#925D4F;}
	.st60{fill:#EFB76C;}
</style>
<path class="st0" d="M2551.91,1264.28c-130.16,221.29-385.26,312.2-557.27,385.52c-240.79,102.68-484.47,195.63-730.4,268.28
	c-271.31,80.12-542.39,140.92-805.81,269.61C294.48,2267.79,139.72,2373.72,0,2517.46"/>
<path class="st0" d="M1388.87,0.42c185.04,99.6,376.02,174.26,566.21,249.58c180.61,71.52,380.66,120.29,532.88,290.32
	c118.26,132.09,179.46,357.81,126.73,569.37c-14.32,57.44-35.71,108.42-62.37,153.89"/>
<path class="st0" d="M1189.39-1259.62c-129.51,125.33-232.31,293.48-262.37,525.69c-52.36,404.46,222.57,602.54,438.3,721.51
	c6.97,3.84,13.95,7.65,20.94,11.42"/>
<rect x="1690.62" y="10.43" class="st52" width="1514.38" height="1009.59"/>
<g>
	<g class="st53">
		<path class="st54" d="M3073.65,564.39c-27.56,108.08-81.68,216.56-177.84,273.09c-13.38,7.88-27.31,14.59-41.65,20.35H1873
			c-45.33-61.23-71.83-136.14-75.21-212.22c-2.57-58.15,9.49-119.54,47.15-163.91c50.83-59.82,136.75-76.47,215.24-73.9
			c78.5,2.57,156.64,20.34,234.88,13.43c94.1-8.38,181.02-51.74,265.58-93.89c84.55-42.15,172.24-84.5,266.53-90.56
			c94.29-6.01,197.88,33.11,240.23,117.57C3099.5,418.35,3091.32,495.03,3073.65,564.39z"/>
	</g>
	<g class="st53">
		<path class="st54" d="M2466.44,261.31c-18.02,53.46-50.23,80.97-92.83,86.27c-42.55,5.25-85.01-4.29-127.56-2.57
			c-29.48,1.21-60.17-1.82-79.5-28.02c-20.45-27.71-39.78-75.36-20.35-108.98c18.93-32.76,61.79-41.49,92.08-23.57
			c11.26,6.66,24.48,17.57,38.01,16.81c21.81-1.21,42.71-13.98,63.1-26.4s41.44-24.84,63.2-25.29
			C2458.36,148.39,2483.85,209.62,2466.44,261.31z"/>
	</g>
	<path class="st3" d="M2335.59,649.19c-4.34,0-7.88-3.63-7.88-8.08c0-4.44,3.53-8.08,7.88-8.08c4.34,0,7.87,3.64,7.87,8.08
		C2343.47,645.56,2339.93,649.19,2335.59,649.19z M2335.59,635.26c-3.13,0-5.71,2.62-5.71,5.9c0,3.28,2.57,5.91,5.71,5.91
		c3.13,0,5.7-2.62,5.7-5.91C2341.3,637.89,2338.72,635.26,2335.59,635.26z"/>
	<path class="st3" d="M1771.79,523.55c-5.4,0-9.79-4.64-9.79-10.35c0-5.7,4.39-10.35,9.79-10.35c5.4,0,9.79,4.65,9.79,10.35
		C1781.63,518.91,1777.24,523.55,1771.79,523.55z M1771.79,504.97c-4.19,0-7.62,3.68-7.62,8.18s3.43,8.18,7.62,8.18
		c4.24,0,7.62-3.68,7.62-8.18C1779.46,508.66,1776.03,504.97,1771.79,504.97z"/>
	<path class="st3" d="M2176.43,760.75c4.18,0,7.57-3.37,7.57-7.52s-3.39-7.52-7.57-7.52c-4.18,0-7.57,3.37-7.57,7.52
		S2172.25,760.75,2176.43,760.75z"/>
	<path class="st3" d="M3134.18,495.53c5.38,0,9.74-4.34,9.74-9.69c0-5.36-4.36-9.69-9.74-9.69c-5.38,0-9.74,4.34-9.74,9.69
		C3124.43,491.19,3128.8,495.53,3134.18,495.53z"/>
	<path class="st3" d="M2500.61,430.67c-5.2,0-9.44-4.44-9.44-9.89c0-5.45,4.24-9.9,9.44-9.9c5.2,0,9.44,4.44,9.44,9.9
		C2510.05,426.22,2505.81,430.67,2500.61,430.67z M2500.61,413.05c-3.99,0-7.27,3.48-7.27,7.73c0,4.24,3.28,7.72,7.27,7.72
		c3.99,0,7.27-3.48,7.27-7.72C2507.88,416.53,2504.6,413.05,2500.61,413.05z"/>
	<path class="st3" d="M2769.72,498.51l-10.7-10.95l10.9-11.21l10.7,10.95L2769.72,498.51z M2762.04,487.56l7.68,7.88l7.87-8.08
		l-7.67-7.88L2762.04,487.56z"/>
	<path class="st3" d="M1834.7,369.03l-9.85,9.85l9.64,9.64l9.85-9.85L1834.7,369.03z"/>
	<path class="st3" d="M2090.26,657.77l-10.7-10.95l10.96-11.21l10.7,10.95L2090.26,657.77z M2082.59,646.82l7.68,7.87l7.92-8.08
		l-7.67-7.87L2082.59,646.82z"/>
	<path class="st3" d="M3100.31,316.84l-9.59-9.59l9.79-9.79l9.59,9.59L3100.31,316.84z M3093.79,307.25l6.51,6.51l6.71-6.72
		l-6.51-6.51L3093.79,307.25z"/>
	<path class="st3" d="M2411.31,669.38h-102.88c-0.61,0-1.11-0.5-1.11-1.11s0.5-1.11,1.11-1.11h102.88c0.61,0,1.11,0.5,1.11,1.11
		S2411.92,669.38,2411.31,669.38z"/>
	<path class="st3" d="M2327.87,691.6h-19.48c-0.61,0-1.11-0.5-1.11-1.11s0.5-1.11,1.11-1.11h19.48c0.61,0,1.11,0.5,1.11,1.11
		S2328.47,691.6,2327.87,691.6z"/>
	<path class="st3" d="M2383.9,691.6h-40.28c-0.6,0-1.11-0.5-1.11-1.11s0.5-1.11,1.11-1.11h40.28c0.6,0,1.11,0.5,1.11,1.11
		S2384.5,691.6,2383.9,691.6z"/>
	<path class="st3" d="M2411.31,713.81h-102.88c-0.6,0-1.11-0.5-1.11-1.11c0-0.61,0.5-1.11,1.11-1.11h102.88
		c0.61,0,1.11,0.5,1.11,1.11C2412.42,713.3,2411.92,713.81,2411.31,713.81z"/>
	<path class="st55" d="M2659.77,859.69c-0.61,0-1.11-0.5-1.11-1.11V686.1c0-0.61,0.5-1.11,1.11-1.11c0.6,0,1.11,0.5,1.11,1.11
		v172.49C2660.83,859.24,2660.38,859.69,2659.77,859.69z"/>
	<path class="st5" d="M2695.66,858.63h-71.78v-0.35c0-8.28,6.71-15.04,15.04-15.04h41.7c8.28,0,15.04,6.71,15.04,15.04V858.63z"/>
	<path class="st55" d="M2696.47,859.44h-73.4v-1.16c0-8.73,7.12-15.85,15.85-15.85h41.69c8.73,0,15.85,7.12,15.85,15.85V859.44z
		 M2624.69,857.83h70.12c-0.25-7.63-6.51-13.78-14.23-13.78h-41.7C2631.25,844.04,2624.94,850.2,2624.69,857.83z"/>
	<path class="st3" d="M2708.08,693.46h-96.62v-17.82h79.2c9.64,0,17.42,7.77,17.42,17.41V693.46z"/>
	<path class="st3" d="M2519.54,817.34l3.73,41.29h-56.54l25.24-24.79l-0.3-16.2L2519.54,817.34z"/>
	<path class="st55" d="M2495.71,843.03c-0.15,0-0.3-0.05-0.45-0.1l-8.38-4.09c-0.55-0.25-0.76-0.91-0.5-1.46
		c0.25-0.55,0.91-0.76,1.46-0.5l8.38,4.09c0.56,0.25,0.76,0.91,0.5,1.46C2496.52,842.78,2496.12,843.03,2495.71,843.03z"/>
	<path class="st55" d="M2490.31,848.99c-0.15,0-0.3-0.05-0.45-0.1l-8.38-4.09c-0.56-0.25-0.76-0.91-0.5-1.46
		c0.25-0.55,0.91-0.76,1.46-0.5l8.38,4.09c0.55,0.25,0.76,0.91,0.5,1.46C2491.07,848.74,2490.72,848.99,2490.31,848.99z"/>
	<path class="st55" d="M2506.01,858.99c-0.55,0-1.01-0.4-1.06-0.96c-0.5-5.1,1.36-9.59,5.2-12.57c3.64-2.83,8.53-3.83,12.17-2.47
		c0.55,0.2,0.86,0.81,0.66,1.41c-0.2,0.55-0.81,0.86-1.41,0.66c-2.93-1.06-7.12-0.15-10.1,2.17c-3.23,2.52-4.79,6.31-4.34,10.65
		c0.05,0.61-0.4,1.11-0.96,1.16C2506.06,858.99,2506.06,858.99,2506.01,858.99z"/>
	<path class="st21" d="M2597.08,631.78l-69.31,16.45c-24.23,6.72-41.29,28.93-42.05,54.92l-1.56,122.41l43.51,0.61l22.06-126.9
		L2597.08,631.78z"/>
	<path class="st3" d="M2618.83,808.36l31.3,37.86l-45.58,34.68l6.46-35.34l-14.39-19.89L2618.83,808.36z"/>
	<path class="st55" d="M2610.66,850.1c-0.5,0-0.96-0.35-1.06-0.86c-0.1-0.61,0.25-1.16,0.86-1.26l9.14-1.87
		c0.61-0.1,1.16,0.25,1.26,0.86s-0.25,1.16-0.86,1.26l-9.14,1.87C2610.81,850.1,2610.71,850.1,2610.66,850.1z"/>
	<path class="st55" d="M2609.95,858.13c-0.5,0-0.96-0.35-1.06-0.86c-0.1-0.61,0.25-1.16,0.86-1.26l9.14-1.87
		c0.61-0.1,1.16,0.25,1.26,0.86c0.1,0.61-0.25,1.16-0.86,1.26l-9.14,1.87C2610.1,858.13,2610,858.13,2609.95,858.13z"/>
	<path class="st55" d="M2640.13,854.39c-0.2,0-0.4-0.05-0.6-0.2c-3.94-2.62-5.25-8.38-4.8-12.62c0.4-3.99,2.27-6.96,5.05-8.08
		c0.55-0.2,1.16,0.05,1.41,0.61c0.2,0.55-0.05,1.16-0.61,1.41c-1.97,0.81-3.38,3.13-3.68,6.26c-0.4,3.68,0.81,8.53,3.88,10.55
		c0.5,0.35,0.66,1.01,0.3,1.51C2640.84,854.24,2640.49,854.39,2640.13,854.39z"/>
	<path class="st56" d="M2681.02,643.13l-5.45,22.26c-0.35,1.66-1.06,3.53-1.97,5.45c-4.84,9.95-14.03,16.41-24.13,17.77
		l-71.18,19.74l60.17,106.21l-37.96,26l-70.62-100.25c-16.05-23.02-11.06-56.44,10.9-72.39c7.52-5.45,13.28-9.39,14.13-9.19
		l49.77-27.36L2681.02,643.13z"/>
	<path class="st29" d="M2546.85,600.13l-1.51,44.22c42.5-7.27,90.56-10.6,135.64-1.16c9.04-19.74,6.01-35.74-1.87-54.07
		L2546.85,600.13z"/>
	<path class="st29" d="M2536.4,615.88c0,0-37,3.23-43.01-23.02c-4.49-19.49,12.11-50.02,26.96-72.34
		c11.81-17.72,27.81-31.3,46.09-39.27l20.85-9.09l29.73,10.7l47.4,28.82l11.91,102.12C2676.33,613.86,2535.69,615.88,2536.4,615.88z
		"/>
	<path class="st57" d="M2641.6,579.03l-6.87,1.11c-6.06,0.96-15.5,2.93-21.66,4.74c-13.43,3.94-19.08,19.79-19.08,19.79l12.32,0.76
		l21.4-9.24l17.11,0.81L2641.6,579.03z"/>
	<path class="st58" d="M2603.69,604.42c-0.15,0-0.35-0.1-0.45-0.25c-0.15-0.25-0.1-0.61,0.15-0.76l10.7-7.17
		c0.25-0.15,0.61-0.1,0.76,0.15c0.15,0.25,0.1,0.61-0.15,0.76l-10.7,7.17C2603.89,604.42,2603.79,604.42,2603.69,604.42z"/>
	<path class="st58" d="M2599.1,604.17c-0.15,0-0.3-0.05-0.4-0.15c-0.2-0.2-0.2-0.55,0-0.76l8.28-8.28c0.2-0.2,0.55-0.2,0.76,0
		c0.2,0.2,0.2,0.55,0,0.76l-8.28,8.28C2599.35,604.12,2599.25,604.17,2599.1,604.17z"/>
	<path class="st29" d="M2602.98,471.05l33.37,8.58c8.94,2.42,20.35,8.43,26.1,14.08c15.5,15.19,43.72,54.92,45.53,80.92
		c0.96,13.58-7.82,24.73-24.79,27.16l-37.25,5.4l-11.31-27.21l34.28-8.68l-31.25-50.13L2602.98,471.05z"/>
	<path class="st55" d="M2645.59,607.8l-11.61-28.11l34.07-8.79l-32.96-52.55c-0.15-0.25-0.1-0.61,0.15-0.76
		c0.25-0.15,0.61-0.1,0.76,0.15l33.77,53.81l-34.28,8.83l10.8,26.15l36.85-5.3c0.3-0.05,0.55,0.15,0.6,0.45
		c0.05,0.3-0.15,0.55-0.45,0.61L2645.59,607.8z"/>
	<path class="st55" d="M2593.24,503.71c-7.02,0-14.08-2.88-19.69-8.13c-0.2-0.2-0.2-0.55-0.05-0.76c0.2-0.2,0.55-0.25,0.76,0
		c6.06,5.65,13.83,8.48,21.35,7.72c7.82-0.81,14.79-5.2,20.09-12.72c0.15-0.25,0.5-0.3,0.76-0.15c0.25,0.15,0.3,0.5,0.15,0.76
		c-5.5,7.77-12.72,12.32-20.85,13.17C2594.96,503.71,2594.1,503.71,2593.24,503.71z"/>
	<path class="st55" d="M2542.51,551.01c-0.1,0-0.15,0-0.25-0.05c-0.25-0.15-0.4-0.45-0.25-0.71l13.73-29.28
		c0.15-0.25,0.45-0.4,0.71-0.25c0.25,0.15,0.4,0.45,0.25,0.71l-13.73,29.28C2542.91,550.91,2542.71,551.01,2542.51,551.01z"/>
	<path class="st55" d="M2556.19,412.9c-2.02-3.18-2.68-7.22-1.67-10.85s3.58-6.82,6.97-8.53c2.67-1.36,6.41-1.56,8.33,0.76
		c4.49-4.44,12.17-5.05,17.31-1.41c1.56,1.11,5.8-1.31,7.37-1.72c3.13-0.76,6.21-0.35,8.73,1.92c2.07,1.92,3.03,5.2,1.72,7.72
		c1.51-2.93,12.11,0.91,13.78,2.22c8.28,6.46,7.77,20.6,0.91,27.86c-1.36,1.41-3.43,2.42-3.99,4.34c-0.66,2.37-1.16,1.26-0.35,3.58
		c2.77,7.77-3.63,16.1-11.81,15.5L2556.19,412.9z"/>
	<path class="st57" d="M2596.87,494.93c-9.04,1.97-17.77-4.09-19.48-13.53l-0.55-2.93l-3.64-19.53l-0.3-1.51l32.71-7.07l4.44,23.98
		C2611.82,483.77,2605.91,492.96,2596.87,494.93z"/>
	<path class="st58" d="M2599.9,459.29c-4.64,9.09-12.12,15.65-23.12,19.18l-3.63-19.53L2599.9,459.29z"/>
	<path class="st57" d="M2592.83,464.64c-13.58,6.16-26.15,3.38-29.58-15.19c-0.66-3.48-0.96-7.52-0.91-12.22
		c0-1.31,0.05-2.67,0.15-4.09c0.66-12.72-2.93-18.32,0.45-22.62c6.01-7.62,15.45-4.39,23.47-4.39c12.87,0,21.45,6.46,22.26,23.52
		C2609.34,443.34,2606.97,458.28,2592.83,464.64z"/>
	<path class="st55" d="M2558.21,405.43c-9.84,2.47-5.91,17.67,3.08,18.42c3.94,0.35,11.56-3.84,11.66-8.78
		c-0.05,4.09,2.88,7.97,6.66,8.78c3.79,0.81,7.93-1.56,9.39-5.35c0.61,2.17,2.27,3.94,4.29,4.7c2.02,0.71,4.39,0.3,6.11-1.01
		c-1.21,3.99,0.91,8.43,4.04,11.01c3.13,2.57,7.12,3.63,10.96,4.59l-5.4-29.73c0,0-28.47-7.73-29.28-7.73
		C2578.9,400.28,2558.26,405.43,2558.21,405.43z"/>
	<path class="st57" d="M2609.49,446.92c4.32,0,7.83-3.66,7.83-8.18c0-4.51-3.5-8.18-7.83-8.18c-4.32,0-7.82,3.66-7.82,8.18
		C2601.67,443.26,2605.17,446.92,2609.49,446.92z"/>
	<path class="st58" d="M2607.07,442.53c-0.3,0-0.5-0.2-0.55-0.5c-0.3-3.99,1.11-6.76,4.24-8.23c0.25-0.15,0.61,0,0.71,0.25
		c0.15,0.25,0,0.61-0.25,0.71c-2.73,1.26-3.89,3.63-3.64,7.17C2607.68,442.28,2607.42,442.53,2607.07,442.53
		C2607.12,442.53,2607.12,442.53,2607.07,442.53z"/>
	<path class="st55" d="M2636.1,604.22h-52.35v12.22h52.35V604.22z"/>
	<path class="st3" d="M2600.76,616.43h-86.57l-30.79-82.84h86.57L2600.76,616.43z"/>
	<path class="st55" d="M2243.92,815.47c-0.61,0-1.11-0.5-1.11-1.11l0.05-283.74c0-0.61,0.5-1.11,1.11-1.11s1.11,0.5,1.11,1.11
		l-0.05,283.74C2245.03,814.97,2244.53,815.47,2243.92,815.47z"/>
	<path class="st55" d="M2323.58,859.44c-0.15,0-0.35-0.05-0.5-0.15l-79.05-43.77l-79.05,43.77c-0.5,0.3-1.16,0.1-1.46-0.4
		c-0.3-0.5-0.1-1.16,0.4-1.46l80.11-44.32l80.11,44.32c0.5,0.3,0.71,0.96,0.4,1.46C2324.28,859.24,2323.93,859.44,2323.58,859.44z"
		/>
	<path class="st5" d="M2402.02,241.02h-316.1v317.06h316.1V241.02z"/>
	<path class="st55" d="M2402.83,558.89h-317.72V240.16h317.72V558.89z M2086.73,557.27h314.49V241.82h-314.49V557.27z"/>
	<path class="st3" d="M2147.1,475.65h-24.23v11.06h24.23V475.65z"/>
	<path class="st55" d="M2261.08,480.34h-106.11v1.61h106.11V480.34z"/>
	<path class="st29" d="M2147.1,497.1h-24.23v11.06h24.23V497.1z"/>
	<path class="st55" d="M2261.08,501.85h-106.11v1.61h106.11V501.85z"/>
	<path class="st3" d="M2145.03,373.88h-10.9v36.5h10.9V373.88z"/>
	<path class="st3" d="M2167.6,362.82h-10.9v47.55h10.9V362.82z"/>
	<path class="st3" d="M2190.16,343.34h-10.9v66.98h10.9V343.34z"/>
	<path class="st3" d="M2212.77,325.57h-10.9v84.76h10.9V325.57z"/>
	<path class="st3" d="M2235.34,307.4h-10.9v102.98h10.9V307.4z"/>
	<path class="st3" d="M2257.9,299.42H2247v110.96h10.9V299.42z"/>
	<path class="st3" d="M2280.47,308h-10.9v102.37h10.9V308z"/>
	<path class="st3" d="M2303.03,318h-10.9v92.38h10.9V318z"/>
	<path class="st3" d="M2325.6,299.42h-10.9v110.96h10.9V299.42z"/>
	<path class="st3" d="M2348.16,288.92h-10.9v121.45h10.9V288.92z"/>
	<path class="st3" d="M2370.72,274.99h-10.9v135.39h10.9V274.99z"/>
	<path class="st55" d="M2377.79,411.23h-259.21v-142.2h2.17v140.03h257.04V411.23z"/>
	<path class="st29" d="M2139.78,391.14l-0.35-2.17l22.26-3.99l21.25-17.56l0.05-0.05l23.17-12.77l22.77-18.47l23.98-5.25l20.7,16.91
		l22.31,13.12l24.03-31.5l22.92-7.37l24.33-11.46l0.91,1.92l-24.53,11.61l-22.31,7.12l-24.79,32.51l-24.18-14.23l-19.94-16.3
		l-22.46,4.95l-22.51,18.27l-0.1,0.05l-23.12,12.72L2162.65,387L2139.78,391.14z"/>
	<path class="st3" d="M2322.72,425.12h-157.5v7.97h157.5V425.12z"/>
	<path class="st3" d="M2333.42,492.1l20.7-32.46c-5.95-3.84-13.07-6.06-20.7-6.06c-21.3,0-38.52,17.26-38.52,38.51
		s17.26,38.52,38.52,38.52c21.3,0,38.52-17.27,38.52-38.52c0-0.71-0.05-1.41-0.1-2.12L2333.42,492.1z"/>
	<path class="st29" d="M2371.89,489.98c-0.71-12.77-7.57-23.88-17.72-30.39l-20.7,32.46L2371.89,489.98z"/>
	<path class="st3" d="M1981.53,815.17l-4.24,43.56h63.25l-28.22-26.15l0.3-17.06L1981.53,815.17z"/>
	<path class="st55" d="M2005.96,840.56c-0.4,0-0.81-0.25-1.01-0.66c-0.25-0.55,0-1.16,0.55-1.41l9.09-3.94
		c0.56-0.25,1.16,0,1.41,0.55c0.25,0.55,0,1.16-0.56,1.41l-9.08,3.93C2006.26,840.56,2006.11,840.56,2005.96,840.56z"/>
	<path class="st55" d="M2011.36,846.72c-0.4,0-0.81-0.25-1.01-0.66c-0.25-0.55,0-1.16,0.56-1.41l9.09-3.94
		c0.55-0.25,1.16,0,1.41,0.55c0.25,0.55,0,1.16-0.55,1.41l-9.09,3.93C2011.67,846.72,2011.51,846.72,2011.36,846.72z"/>
	<path class="st55" d="M1978.95,840.36c4.59,0.71,9.14,2.22,12.32,5.81c2.93,3.33,4.09,7.82,4.54,12.12c0.15,1.36,2.32,1.41,2.17,0
		c-0.5-4.85-1.77-9.69-5-13.43c-3.38-3.94-8.43-5.81-13.43-6.56C1978.15,838.09,1977.54,840.16,1978.95,840.36z"/>
	<path class="st3" d="M1907.32,815.62l-4.9,43.11h-58.91l23.32-23.52l9.79-19.69L1907.32,815.62z"/>
	<path class="st55" d="M1875.93,840.21c-0.15,0-0.3-0.05-0.45-0.1l-9.09-3.94c-0.56-0.25-0.81-0.86-0.56-1.41
		c0.25-0.56,0.86-0.81,1.41-0.56l9.09,3.94c0.56,0.25,0.81,0.86,0.56,1.41C1876.78,839.95,1876.38,840.21,1875.93,840.21z"/>
	<path class="st55" d="M1870.52,846.37c-0.15,0-0.3-0.05-0.45-0.1l-9.09-3.94c-0.56-0.25-0.81-0.86-0.56-1.41
		c0.25-0.56,0.86-0.81,1.41-0.56l9.09,3.94c0.56,0.25,0.81,0.86,0.56,1.41C1871.33,846.12,1870.93,846.37,1870.52,846.37z"/>
	<path class="st55" d="M1903.64,838.44c-5,0.76-10.05,2.63-13.43,6.56c-3.23,3.79-4.49,8.63-5,13.43c-0.15,1.41,2.02,1.36,2.17,0
		c0.45-4.29,1.56-8.78,4.54-12.12c3.13-3.58,7.72-5.1,12.32-5.8C1905.61,840.36,1905,838.24,1903.64,838.44z"/>
	<path class="st29" d="M1919.94,521.93l-59.97,303.69h56.44l70.02-326.35L1919.94,521.93z"/>
	<path class="st29" d="M1964.47,517.75l9.74,306.16h49.62l-1.97-321.86L1964.47,517.75z"/>
	<path class="st5" d="M2014.04,513.91l-85.77,11.16l2.07-148.56l69.71-2.07L2014.04,513.91z"/>
	<path class="st58" d="M1974.01,332.59v38.26c0,10.6-1.16,18.58-12.01,19.13c-6.97,0.35-16.61-3.89-19.48-9.79
		c-1.36-2.78-2.12-5.96-2.12-9.34v-38.26H1974.01z"/>
	<path class="st59" d="M1974.01,348.08v17.97c-9.44-2.37-21-9.74-26.7-17.97H1974.01z"/>
	<path class="st58" d="M1974.01,356.31c-0.66,0.2-1.41,0.35-2.17,0.45c-5.7,0.86-13.38-0.05-20.44-3.89
		c-3.94-2.12-7.67-5.1-10.75-9.24c-0.1-0.1-0.15-0.2-0.25-0.3c-0.81-1.11-1.56-2.27-2.27-3.53l-1.41-4.94l-2.07-7.32l-5.7-20.19
		l28.07-13.83c0,0,21.35,4.44,23.47,5.81c-0.35,3.84-0.4,7.72-0.25,11.51c0.2,5.4,0.81,10.65,1.36,15.6
		c0.5,4.29,0.96,8.33,1.11,11.96C1983.14,347.58,1981.63,354.19,1974.01,356.31z"/>
	<path class="st55" d="M1933.83,336.12c0,0,7.87-2.62,6.81-4.24c-1.56-2.42-6.21-9.74-1.31-18.12c0.96-1.66,6.21-3.03,7.93-3.68
		c2.22-0.81,4.49-1.46,6.76-1.82c3.38-0.5,6.71-0.4,10.05,0.5c4.54,1.21,8.99,4.34,13.83,3.13c3.48-0.91,7.47-3.68,8.38-7.52
		c0.56-2.17,0.05-4.54-0.91-6.56c-5.91-12.57-20.29-13.38-31.85-12.27c-9.44,0.91-16.91,4.69-22.01,13.53
		c-0.2,0.35-1.16,2.68-1.41,2.68C1917.77,303.31,1924.59,331.02,1933.83,336.12z"/>
	<path class="st58" d="M1936.85,344.7c4.52,0,8.18-3.89,8.18-8.68s-3.66-8.68-8.18-8.68c-4.52,0-8.18,3.89-8.18,8.68
		S1932.34,344.7,1936.85,344.7z"/>
	<path class="st55" d="M1939.53,311.03c0.3,7.27,0.76,14.94,0.4,22.21c-0.1,2.22-0.81,1.97-1.67,1.06c-1.01-1.16-1.77-3.13-1.97-5.4
		l-1.11-11.61L1939.53,311.03z"/>
	<path class="st20" d="M1940.44,370.85c36.14,48.56,16.76,169.92,8.43,192.38l-53.86-4.19l16.71-88.89l-27.21-30.34L1940.44,370.85z
		"/>
	<path class="st55" d="M1952.2,468.83c2.93-9.09-3.58-19.54-14.84-30.59l-7.02,15.04L1952.2,468.83z"/>
	<path class="st55" d="M1937.36,549.24c-0.05,0-0.1,0-0.15-0.05c-0.3-0.1-0.45-0.4-0.35-0.66c10.15-33.87,11.91-80.87,12.37-113.32
		c0-0.3,0.25-0.56,0.56-0.56c0.3,0,0.56,0.25,0.56,0.56c-0.91,67.84-7.52,97.32-12.42,113.63
		C1937.81,549.09,1937.61,549.24,1937.36,549.24z"/>
	<path class="st58" d="M1969.72,437.89c0.05-3.99-0.45-8.13-3.03-11.11c-1.41-1.67-6.61,0-9.44,1.36
		c-0.15,0.05,3.43-16.25,1.92-17.46c-1.87-1.46-3.74-0.5-4.59,1.21c-1.41,2.88-2.37,6.21-3.48,9.19c-1.67,4.49-3.69,8.33-7.37,11.51
		c-2.93,2.52-6.26,4.04-7.67,7.88c-1.06,2.88-0.71,5.8-0.4,8.78c0.35,3.28,1.01,6.56,2.32,9.59c0.61,1.41,1.46,2.98,2.98,3.58
		c1.77,0.76,3.99-0.25,5.7-0.91c3.84-1.51,7.77-2.88,11.71-4.09c3.23-1.01,6.51-2.68,8.73-5.3c2.32-2.72,2.22-5.75,2.42-9.14
		C1969.57,441.37,1969.67,439.65,1969.72,437.89z M1940.19,452.78C1940.19,452.78,1940.24,452.78,1940.19,452.78
		C1940.03,453.03,1939.98,453.03,1940.19,452.78z"/>
	<path class="st59" d="M1960.33,435.31c-0.35,0-0.71-0.25-0.81-0.61c-0.1-0.45,0.15-0.86,0.61-1.01l8.13-1.97
		c0.45-0.1,0.86,0.15,1.01,0.61c0.1,0.45-0.15,0.86-0.61,1.01l-8.13,1.97C1960.43,435.31,1960.38,435.31,1960.33,435.31z"/>
	<path class="st59" d="M1960.83,441.82c-0.35,0-0.71-0.25-0.81-0.61c-0.1-0.45,0.15-0.86,0.61-1.01l8.13-1.97
		c0.45-0.1,0.86,0.15,1.01,0.61c0.1,0.45-0.15,0.86-0.61,1.01l-8.13,1.97C1960.98,441.82,1960.93,441.82,1960.83,441.82z"/>
	<path class="st59" d="M1960.68,448.69c-0.35,0-0.71-0.25-0.81-0.61c-0.1-0.45,0.15-0.86,0.61-1.01l8.13-1.97
		c0.45-0.1,0.86,0.15,1.01,0.61c0.1,0.45-0.15,0.86-0.61,1.01l-8.13,1.97C1960.78,448.69,1960.73,448.69,1960.68,448.69z"/>
	<path class="st20" d="M1952,468.58c-9.24,8.99-19.54,17.11-30.44,23.98c-10.45,6.61-22.51,13.38-35.18,14.03
		c-19.54,0.96-27.97-19.79-27.16-36.4c0.86-18.88,10.85-36.19,19.84-52.3c9.04-16.15,21.86-30.59,39.02-38.11
		c0.15-0.05,0.25-0.1,0.4-0.15l21.86-9.49v0.71c0,3.38,0.76,6.56,2.12,9.34l-34.53,73.04l29.28-14.99
		C1939.93,448.79,1945.08,458.83,1952,468.58z"/>
	<path class="st55" d="M1888.5,462.57c-0.2,0-0.4-0.1-0.5-0.3c-0.15-0.25-0.05-0.61,0.25-0.76l48.36-24.84
		c0.25-0.15,0.61-0.05,0.76,0.25c0.15,0.25,0.05,0.61-0.25,0.76l-48.36,24.84C1888.65,462.57,1888.6,462.57,1888.5,462.57z"/>
	<path class="st55" d="M1905.56,501.9c-0.15,0-0.35-0.1-0.45-0.25c-0.15-0.25-0.1-0.61,0.15-0.76l46.44-32.76
		c0.25-0.15,0.61-0.1,0.76,0.15c0.15,0.25,0.1,0.61-0.15,0.76l-46.44,32.76C1905.81,501.84,1905.66,501.9,1905.56,501.9z"/>
	<path class="st55" d="M1901.77,455.3c-0.05,0-0.15,0-0.2-0.05c-0.25-0.1-0.4-0.45-0.3-0.71l13.83-32.81c0.1-0.25,0.45-0.4,0.71-0.3
		c0.25,0.1,0.4,0.45,0.3,0.71l-13.83,32.81C1902.18,455.15,1901.97,455.3,1901.77,455.3z"/>
	<path class="st55" d="M1944.93,431.43c-0.15,0-0.35-0.1-0.45-0.25l-18.22-26.95l8.38-26.25c0.1-0.3,0.4-0.45,0.71-0.35
		c0.3,0.1,0.45,0.4,0.35,0.66l-8.23,25.74l17.92,26.5c0.15,0.25,0.1,0.61-0.15,0.76C1945.18,431.43,1945.03,431.43,1944.93,431.43z"
		/>
	<path class="st58" d="M2172.24,379.43c-0.61,5.8-5.96,4.74-8.48,9.44c-3.08,5.71-11.46,11.71-18.07,7.63
		c-3.53-2.17-6.11-5.71-7.47-9.64c-1.92-5.65,3.58-13.63,6.56-17.92c2.88-4.14,9.89-5.4,14.64-5.45c3.13-0.05,6.76,2.52,8.63,5.55
		C2169.97,372.16,2172.59,375.85,2172.24,379.43z"/>
	<path class="st58" d="M2174.51,378.83c0.96,2.22-1.62,4.14-5.1,5.6c-3.53,1.46-6.66,2.02-7.57-0.25c-1.01-2.42,1.62-4.14,5.1-5.6
		C2170.42,377.11,2173.3,375.9,2174.51,378.83z"/>
	<path class="st58" d="M2167.82,379.7c4.32-1.82,7.27-4.59,6.59-6.18c-0.67-1.59-4.71-1.41-9.03,0.42
		c-4.32,1.82-7.27,4.59-6.59,6.18C2159.47,381.71,2163.51,381.52,2167.82,379.7z"/>
	<path class="st55" d="M2196.62,305.94l-40.38,65.72l3.7,2.27l40.38-65.72L2196.62,305.94z"/>
	<path class="st58" d="M2144.93,370.24c2.67,0.5,5.3-2.57,7.98-2.02c3.94,0.81,6.61,0.45,10.85-1.16c2.32-0.86,5.55-3.33,5.65-6.06
		c0-0.81-0.2-1.77-0.91-2.12c-1.01-0.55-2.17,0.25-3.08,0.91c-6.06,4.09-14.34,0.25-20.8,10.35L2144.93,370.24z"/>
	<path class="st58" d="M2170.68,368.48c1.36,1.97-0.55,4.24-4.69,7.17c-4.14,2.93-6.46,3.74-7.17,1.41
		c-0.45-1.46-0.55-3.58,3.59-6.51C2166.49,367.62,2168.86,365.9,2170.68,368.48z"/>
	<path class="st59" d="M2150.99,382.26c-0.15,0-0.3-0.05-0.4-0.2c-0.2-0.25-0.15-0.55,0.1-0.76c3.18-2.52,4.34-5.65,3.48-9.54
		c-0.05-0.3,0.1-0.61,0.4-0.66c0.3-0.05,0.61,0.1,0.66,0.4c0.96,4.34-0.3,7.83-3.83,10.65
		C2151.24,382.21,2151.09,382.26,2150.99,382.26z"/>
	<path class="st59" d="M2160.78,376.81c-0.86,0-1.61-0.35-2.02-0.96c-0.3-0.4-0.45-0.96-0.35-1.51c0.1-0.5,0.35-0.86,0.71-1.16
		c0.25-0.15,0.61-0.1,0.76,0.15c0.15,0.25,0.1,0.61-0.15,0.76c-0.15,0.1-0.25,0.3-0.25,0.4c-0.05,0.25,0,0.5,0.15,0.66
		c0.25,0.35,0.81,0.55,1.36,0.5c0.71-0.1,3.28-0.86,3.73-1.16c0.25-0.15,0.61-0.1,0.76,0.15c0.15,0.25,0.1,0.61-0.15,0.76
		c-0.66,0.45-3.48,1.26-4.24,1.36C2161.03,376.81,2160.88,376.81,2160.78,376.81z"/>
	<path class="st59" d="M2163.35,380.64c-0.5,0-1.16-0.1-1.61-0.61c-0.35-0.4-0.5-1.06-0.35-1.66c0.1-0.4,1.41-2.93,1.87-3.28
		c0.25-0.2,0.56-0.15,0.76,0.05c0.2,0.25,0.15,0.55-0.05,0.76c-0.25,0.25-1.41,2.42-1.51,2.77c-0.05,0.25,0,0.5,0.1,0.66
		c0.2,0.2,0.6,0.3,1.21,0.2c1.51-0.2,3.03-0.71,4.44-1.26c0.3-0.1,0.61,0.05,0.71,0.3c0.1,0.3-0.05,0.61-0.3,0.71
		c-1.51,0.56-3.03,1.11-4.69,1.31C2163.76,380.64,2163.56,380.64,2163.35,380.64z"/>
	<path class="st59" d="M2165.93,385.29c-0.45,0-0.96-0.05-1.46-0.15c-0.61-0.1-1.11-0.45-1.26-0.96c-0.61-1.61,1.67-4.14,2.62-4.79
		c0.25-0.15,0.61-0.1,0.76,0.15c0.15,0.25,0.1,0.61-0.15,0.76c-0.91,0.66-2.52,2.68-2.22,3.53c0.05,0.1,0.25,0.25,0.45,0.25
		c1.11,0.2,2.17,0.15,3.13-0.2c0.3-0.1,0.61,0.05,0.71,0.35c0.1,0.3-0.05,0.61-0.35,0.71
		C2167.5,385.18,2166.74,385.29,2165.93,385.29z"/>
	<path class="st20" d="M2020.5,427.79l26,15.34c25.24,14.79,50.23,12.92,73.25-8.73l35.74-33.82l-21.96-23.52
		c-15.55,14.79-45.48,44.12-70.57,27.01l-27.56-20.19c-10.85-7.27-23.02-12.27-35.84-14.64l-25.49-4.24
		c-3.03,39.88,10.7,133.01,27.11,186.72l46.54-17.77C2040.34,509.87,2027.62,456.87,2020.5,427.79z"/>
	<path class="st55" d="M2026.96,456.92c-0.25,0-0.45-0.15-0.5-0.4l-10.85-50.38c-0.05-0.3,0.1-0.61,0.4-0.66
		c0.3-0.05,0.61,0.1,0.66,0.4l10.85,50.38c0.05,0.3-0.1,0.61-0.4,0.66C2027.06,456.92,2027.01,456.92,2026.96,456.92z"/>
	<path class="st55" d="M2008.79,537.03c-0.25,0-0.5-0.2-0.5-0.45l-20.85-112.97l7.93-21.96l-17.21-31.6
		c-0.15-0.25-0.05-0.61,0.2-0.76c0.25-0.15,0.61-0.05,0.76,0.2l17.47,32l-7.98,22.11l20.8,112.67c0.05,0.3-0.15,0.56-0.45,0.66
		C2008.84,537.03,2008.79,537.03,2008.79,537.03z"/>
	<path class="st55" d="M2145.08,402.55c-0.15,0-0.3-0.05-0.4-0.15l-15.55-16.26c-0.2-0.2-0.2-0.55,0-0.76c0.2-0.2,0.55-0.2,0.76,0
		l15.55,16.25c0.2,0.2,0.2,0.55,0,0.76C2145.39,402.5,2145.23,402.55,2145.08,402.55z"/>
	<path class="st55" d="M1941.35,467.22c-0.1,0-0.25-0.05-0.35-0.1c-5.5-4.34-9.09-11.16-11.06-20.9c-0.05-0.3,0.15-0.61,0.45-0.66
		c0.3-0.05,0.56,0.15,0.66,0.4c1.87,9.49,5.35,16.1,10.65,20.29c0.25,0.2,0.25,0.5,0.1,0.76
		C1941.65,467.12,1941.5,467.22,1941.35,467.22z"/>
	<path class="st55" d="M1965.73,595.63c-0.05,0-0.05,0-0.1,0c-0.3-0.05-0.5-0.35-0.4-0.66l5.96-31.45c0.05-0.3,0.35-0.5,0.66-0.4
		c0.3,0.05,0.5,0.35,0.4,0.66l-5.96,31.45C1966.23,595.43,1965.98,595.63,1965.73,595.63z"/>
	<path class="st55" d="M2559.27,615.78h-7.37v242.81h7.37V615.78z"/>
	<path class="st55" d="M2854.07,615.78h-7.37v242.81h7.37V615.78z"/>
	<path class="st5" d="M2981.02,614.97H2447.4v13.58h533.62V614.97z"/>
	<path class="st55" d="M2981.83,629.3H2446.6v-15.14h535.23V629.3z M2448.21,627.69h532v-11.96h-532V627.69z"/>
	<path class="st3" d="M3029.48,786.7l34.98,38.21l-35.64,34.68l1.31-35.13l-20.75-17.56L3029.48,786.7z"/>
	<path class="st55" d="M3029.53,825.77c-0.45,0-0.91-0.3-1.06-0.76c-0.2-0.56,0.15-1.16,0.71-1.36l10.1-3.13
		c0.56-0.15,1.16,0.15,1.36,0.71c0.2,0.55-0.15,1.16-0.71,1.36l-10.1,3.13C3029.79,825.77,3029.64,825.77,3029.53,825.77z"/>
	<path class="st55" d="M3029.74,834.4c-0.45,0-0.91-0.3-1.06-0.76c-0.2-0.56,0.15-1.16,0.71-1.36l10.1-3.13
		c0.55-0.15,1.16,0.15,1.36,0.71c0.2,0.55-0.15,1.16-0.71,1.36l-10.1,3.13C3029.94,834.35,3029.84,834.4,3029.74,834.4z"/>
	<path class="st55" d="M3054.47,833.19c-0.1,0-0.2,0-0.3-0.05c-3.89-1.21-6.71-5.15-6.91-9.59c-0.2-4.19,2.02-7.68,5.9-9.24
		c0.56-0.2,1.21,0.05,1.41,0.61c0.2,0.55-0.05,1.16-0.6,1.41c-4.29,1.72-4.59,5.55-4.54,7.12c0.15,3.53,2.37,6.67,5.35,7.57
		c0.56,0.15,0.91,0.81,0.71,1.36C3055.33,832.89,3054.93,833.19,3054.47,833.19z"/>
	<path class="st20" d="M2924.38,527.34l-26.05,103.38c-6.56,26.05-0.05,53.61,17.46,73.95l94.7,110l32.46-28.17l-82.89-110.75
		l12.97-166.03L2924.38,527.34z"/>
	<path class="st55" d="M2923.27,558.23c-0.2,0-0.4-0.15-0.5-0.35c-0.1-0.3,0.05-0.61,0.3-0.71c9.49-3.78,13.63-13.48,12.32-28.72
		c-0.05-0.3,0.2-0.55,0.5-0.61c0.3-0.05,0.56,0.2,0.61,0.5c1.36,15.8-2.98,25.84-12.97,29.83
		C2923.42,558.23,2923.37,558.23,2923.27,558.23z"/>
	<path class="st55" d="M3009.29,802.45c-0.15,0-0.3-0.1-0.45-0.2c-0.2-0.25-0.15-0.61,0.1-0.76l20.19-15.19
		c0.25-0.2,0.55-0.15,0.76,0.1c0.2,0.25,0.15,0.61-0.1,0.76l-20.19,15.19C3009.49,802.45,3009.39,802.45,3009.29,802.45z"/>
	<path class="st3" d="M2990.51,813l2.17,46.75h-58l25.9-24.08l1.36-22.31L2990.51,813z"/>
	<path class="st55" d="M2969.92,841.67c-0.15,0-0.35-0.05-0.5-0.15l-9.34-4.9c-0.56-0.3-0.71-0.91-0.45-1.46
		c0.25-0.55,0.96-0.71,1.46-0.45l9.34,4.9c0.56,0.3,0.71,0.91,0.45,1.46C2970.67,841.47,2970.27,841.67,2969.92,841.67z"/>
	<path class="st55" d="M2963.96,847.88c-0.15,0-0.35-0.05-0.5-0.15l-9.34-4.9c-0.55-0.3-0.71-0.91-0.45-1.46
		c0.25-0.55,0.96-0.71,1.46-0.45l9.34,4.9c0.55,0.3,0.71,0.91,0.45,1.46C2964.72,847.68,2964.31,847.88,2963.96,847.88z"/>
	<path class="st55" d="M2978.45,859.39c-0.4,0-0.76-0.2-0.96-0.56c-2.12-3.94-1.26-9.24,2.07-12.82c3.13-3.43,7.52-4.39,11.76-2.63
		c0.55,0.25,0.81,0.86,0.55,1.41c-0.25,0.55-0.86,0.81-1.41,0.55c-3.33-1.41-6.81-0.66-9.34,2.07c-2.73,2.93-3.43,7.22-1.77,10.35
		c0.3,0.56,0.1,1.16-0.45,1.46C2978.8,859.39,2978.6,859.39,2978.45,859.39z"/>
	<path class="st20" d="M2961.99,518.3l-14.69,157.5l6.96,147.45l42.61-2.32l18.02-243.77c6.51-21.15,8.13-37.4,5.45-56.59
		L2961.99,518.3z"/>
	<path class="st55" d="M3007.83,557.42c-0.05,0-0.05,0-0.1,0c-13.48-2.63-21.45-15.3-20.29-32.26c0-0.3,0.25-0.5,0.56-0.5
		c0.3,0,0.5,0.25,0.5,0.55c-0.5,7.57,0.91,14.69,3.99,20.09c3.38,5.95,8.73,9.74,15.45,11.06c0.3,0.05,0.5,0.35,0.45,0.66
		C3008.33,557.27,3008.08,557.42,3007.83,557.42z"/>
	<path class="st55" d="M2953.66,823.4c-0.3,0-0.5-0.2-0.55-0.5L2946.04,671c0-0.05,0-0.05,0-0.1l12.47-122.46
		c0.05-0.3,0.3-0.5,0.61-0.5c0.3,0.05,0.5,0.3,0.5,0.61l-12.47,122.41l7.02,151.34l42.2-1.87l10.2-141.4c0-0.3,0.25-0.5,0.55-0.5
		c0.3,0,0.5,0.3,0.5,0.61l-10.25,141.85c0,0.25-0.25,0.5-0.5,0.5L2953.66,823.4z"/>
	<path class="st55" d="M2961.23,815.12c-0.3,0-0.5-0.2-0.56-0.5c0-0.3,0.2-0.56,0.5-0.56l29.28-1.56c0.3,0,0.55,0.2,0.55,0.5
		c0,0.3-0.2,0.56-0.5,0.56L2961.23,815.12z"/>
	<path class="st55" d="M3019.64,411.13c31.75-33.82-29.68-34.93-27.21-66.63c2.57-33.47-21.41-31.7-21.41-31.7
		s-21.4-18.93-39.02-1.11c-21.61,21.86-4.69,34.17-21.4,52.55c-24.89,27.41,4.34,58,4.34,58L3019.64,411.13z"/>
	<path class="st57" d="M3091.32,390.39c0.76-0.61,16.35-17.21,16.35-17.21s6.21-24.63,8.53-21.81c2.32,2.83-1.16,18.22-1.16,18.22
		s10.96-0.2,11.91,2.42c0.96,2.68,0.5,17.92-20.4,34.18L3091.32,390.39z"/>
	<path class="st57" d="M3108.63,374.53c-0.6-4.49-2.98-12.62-4.49-12.72c-1.51-0.1-1.87,6.11-2.02,10.85
		c-0.2,7.67-3.63,13.88-2.22,14.33C3103.13,388.06,3109.09,377.97,3108.63,374.53z"/>
	<path class="st58" d="M3115.65,380.04c-0.25,0-0.45-0.05-0.66-0.15c-0.66-0.3-0.96-1.01-1.01-2.12c-0.05-1.77,0.3-3.58,1.01-5.25
		c0.1-0.3,0.45-0.45,0.76-0.3c0.3,0.1,0.45,0.45,0.3,0.76c-0.6,1.51-0.96,3.18-0.91,4.8c0,0.61,0.15,0.96,0.35,1.06
		c0.15,0.05,0.35,0.05,0.55-0.1c0.96-0.61,1.92-2.37,2.47-4.7c0.05-0.3,0.4-0.5,0.71-0.4c0.3,0.1,0.5,0.4,0.4,0.71
		c-0.4,1.56-1.31,4.34-3.03,5.4C3116.31,379.94,3115.95,380.04,3115.65,380.04z"/>
	<path class="st58" d="M3118.58,381.5c-0.35,0-0.71-0.1-0.96-0.35c-0.5-0.45-0.55-1.16-0.55-1.62c0.05-1.31,0.35-2.57,0.86-3.78
		c0.15-0.3,0.45-0.4,0.76-0.3c0.3,0.15,0.45,0.45,0.3,0.76c-0.45,1.06-0.71,2.22-0.76,3.38c0,0.4,0.05,0.61,0.15,0.71
		c0.1,0.05,0.25,0.05,0.45,0c0.25-0.1,0.45-0.35,0.66-0.55c1.36-1.61,2.32-3.63,2.67-5.71c0.05-0.3,0.35-0.5,0.66-0.45
		c0.3,0.05,0.5,0.35,0.45,0.66c-0.4,2.32-1.41,4.44-2.93,6.26c-0.3,0.35-0.6,0.66-1.06,0.86
		C3119.08,381.45,3118.83,381.5,3118.58,381.5z"/>
	<path class="st58" d="M3122.72,381.5c-0.35,0-0.71-0.1-0.96-0.35c-0.5-0.45-0.55-1.16-0.55-1.61c0.05-0.76,0.15-1.41,0.3-2.17
		c0.1-0.55,0.2-1.11,0.3-1.77c0.05-0.3,0.35-0.56,0.66-0.5c0.3,0.05,0.55,0.35,0.5,0.66c-0.1,0.71-0.2,1.31-0.3,1.87
		c-0.15,0.71-0.25,1.31-0.3,2.02c0,0.4,0.05,0.61,0.15,0.71c0.1,0.05,0.25,0.05,0.45,0c0.25-0.1,0.45-0.35,0.66-0.55
		c1.36-1.61,2.32-3.63,2.67-5.7c0.05-0.3,0.35-0.5,0.66-0.45c0.3,0.05,0.5,0.35,0.45,0.66c-0.4,2.32-1.41,4.44-2.93,6.26
		c-0.3,0.35-0.61,0.66-1.06,0.86C3123.22,381.45,3122.97,381.5,3122.72,381.5z"/>
	<path class="st58" d="M3110.3,384.78c-0.05,0-0.1,0-0.15,0c-0.3-0.1-0.5-0.4-0.4-0.71c1.06-3.73,0.55-6.66-1.56-9.14
		c-0.2-0.25-0.2-0.61,0.05-0.81c0.25-0.2,0.61-0.2,0.81,0.05c2.42,2.77,2.98,6.11,1.82,10.25
		C3110.8,384.63,3110.55,384.78,3110.3,384.78z"/>
	<path class="st29" d="M2991.37,424.81l43.31,28.47c10.75,7.98,25.34,7.57,34.73-1.61c2.58-2.52,43.97-46.09,43.97-46.09
		l-15.3-22.21l-42.96,40.89l-39.98-31.4c-3.18-2.37-6.87-3.89-10.7-4.49l-49.37-7.37C2955.03,381.05,2990.11,423.85,2991.37,424.81z
		"/>
	<path class="st57" d="M2836.95,538.54l-9.59,13.02c-13.53,1.26-22.77,6.16-30.64,14.33l50.48-0.1l10.65-28.37L2836.95,538.54z"/>
	<path class="st29" d="M2953.76,381.6c-13.43,6.97-25.79,11.66-38.57,19.34c-4.09,2.47-8.33,6.16-12.42,11
		c-4.84,5.66-8.63,12.06-11.71,18.78l-18.98,42.1l-42.6,76.22l29.98,0.71l39.37-64.66L2953.76,381.6z"/>
	<path class="st29" d="M2927.11,411.69c-29.33,19.28-4.14,61.23-9.64,115.75c-0.66,6.61,5.3,12.06,11.76,10.55
		c25.44-5.85,57.7-8.03,83.49-6.11c6.01,0.45,10.95-4.64,10.35-10.65c-8.33-31.4-12.12-66.38-10.25-105.86l-42.91-34.43l-30.54,8.73
		L2927.11,411.69z"/>
	<path class="st57" d="M2946.04,345.81v42.25c0,9.64,8.94,12.27,15.39,11.91c5.5-0.3,13.93-3.43,13.83-11.91v-42.25H2946.04z"/>
	<path class="st58" d="M2946.04,365.55v19.84c7.93-1.82,18.27-8.84,21.81-18.53L2946.04,365.55z"/>
	<path class="st57" d="M2984,325.37l-7.87,25.59c-1.46,7.22-2.32,12.22-8.13,16.71c-8.73,6.76-19.18,8.48-22.87,6.06
		c-5.86-3.94-8.13-6.97-8.88-12.01c-0.5-3.23-0.4-7.27-0.3-12.92c0.15-6.76,0.3-15.9-0.5-28.62c-0.1-1.77,22.52-10.6,22.52-10.6
		L2984,325.37z"/>
	<path class="st55" d="M2977.34,346.37c-1.77-6.51-6.41-6.97-9.49-18.68c-16,8.93-24.94-7.57-38.67,16.81l0.6-20.04l8.68-11.91
		l17.21-3.94l28.32,11.26l4.59,13.28L2977.34,346.37z"/>
	<path class="st57" d="M2983.12,350.34c1.38-4.36-0.98-9-5.29-10.36s-8.92,1.06-10.3,5.41c-1.38,4.36,0.98,9,5.29,10.36
		C2977.13,357.12,2981.74,354.69,2983.12,350.34z"/>
	<path class="st55" d="M2915.45,474.53c-0.25,0-0.5-0.2-0.55-0.45l-5.4-37.96c-0.05-0.3,0.15-0.55,0.45-0.61
		c0.3-0.05,0.55,0.15,0.61,0.45l5.4,37.96c0.05,0.3-0.15,0.55-0.45,0.61C2915.5,474.48,2915.45,474.53,2915.45,474.53z"/>
	<path class="st55" d="M3024.64,447.43c-0.1,0-0.2-0.05-0.3-0.1l-24.38-17.62c-0.25-0.15-0.3-0.5-0.1-0.76
		c0.2-0.25,0.5-0.3,0.76-0.1l24.38,17.62c0.25,0.15,0.3,0.5,0.1,0.76C3024.99,447.33,3024.79,447.43,3024.64,447.43z"/>
	<path class="st55" d="M2959.01,406.03c-5.6,0-10.85-2.17-14.94-5.25c-0.25-0.2-0.3-0.5-0.1-0.76c0.2-0.25,0.5-0.3,0.76-0.1
		c7.63,5.75,19.59,8.28,30.19-1.92c0.2-0.2,0.55-0.2,0.76,0c0.2,0.2,0.2,0.55,0,0.76C2970.22,404.02,2964.47,406.03,2959.01,406.03z
		"/>
	<path class="st55" d="M2976.38,516.79c-0.2,0-0.45-0.15-0.5-0.35c-0.1-0.3,0.05-0.61,0.35-0.71c11.71-3.99,19.74-15.29,24.58-34.58
		c0.05-0.3,0.35-0.45,0.66-0.4c0.3,0.05,0.45,0.35,0.4,0.66c-4.95,19.64-13.23,31.2-25.29,35.34
		C2976.53,516.79,2976.48,516.79,2976.38,516.79z"/>
	<path class="st55" d="M2882.13,479.13c-0.05,0-0.15,0-0.2-0.05l-9.39-3.63c-0.3-0.1-0.4-0.4-0.3-0.71c0.1-0.25,0.4-0.4,0.71-0.3
		l9.39,3.63c0.3,0.1,0.4,0.4,0.3,0.71C2882.54,478.98,2882.34,479.13,2882.13,479.13z"/>
	<path class="st55" d="M3048.31,431.07c-0.15,0-0.3-0.05-0.4-0.15c-0.2-0.2-0.2-0.55,0.05-0.76l6.76-6.26
		c0.2-0.2,0.55-0.2,0.76,0.05c0.2,0.25,0.2,0.55-0.05,0.76l-6.77,6.26C3048.56,431.02,3048.41,431.07,3048.31,431.07z"/>
	<path class="st58" d="M2974.61,350.86c-0.3,0-0.5-0.2-0.56-0.5c-0.25-4.19,1.46-6.66,5.15-7.42c0.3-0.05,0.56,0.15,0.66,0.4
		c0.1,0.25-0.15,0.61-0.4,0.66c-3.13,0.66-4.49,2.67-4.24,6.31C2975.17,350.61,2974.91,350.86,2974.61,350.86z"/>
	<path class="st5" d="M2865.73,566h-92.33v48.91h92.33V566z"/>
	<path class="st55" d="M2866.54,615.68h-93.95V565.2h93.95V615.68z M2774.21,614.06h90.71v-47.3h-90.71V614.06z"/>
	<path class="st3" d="M2865.73,581.55l-91.62,13.93v-20.85L2865.73,581.55z"/>
	<path class="st5" d="M2873.45,566h-107.72v15.7h107.72V566z"/>
	<path class="st55" d="M2874.26,582.51h-109.39V565.2h109.39V582.51z M2766.53,580.89h106.11v-14.08h-106.11V580.89z"/>
	<path class="st3" d="M2720.9,369.49c0-20.9-16.91-37.81-37.81-37.81c-20.9,0-37.81,16.91-37.81,37.81
		c0,17.62,12.01,32.36,28.32,36.55l-4.04,14.44l13.58-13.23C2703.94,407.3,2720.9,390.39,2720.9,369.49z"/>
	<path class="st3" d="M2668.45,372.67c2.18,0,3.94-1.77,3.94-3.94c0-2.18-1.76-3.94-3.94-3.94c-2.17,0-3.94,1.76-3.94,3.94
		C2664.52,370.9,2666.28,372.67,2668.45,372.67z"/>
	<path class="st3" d="M2683.09,372.67c2.18,0,3.94-1.77,3.94-3.94c0-2.18-1.76-3.94-3.94-3.94c-2.17,0-3.94,1.76-3.94,3.94
		C2679.15,370.9,2680.92,372.67,2683.09,372.67z"/>
	<path class="st3" d="M2697.68,372.67c2.18,0,3.94-1.77,3.94-3.94c0-2.18-1.76-3.94-3.94-3.94s-3.94,1.76-3.94,3.94
		C2693.74,370.9,2695.51,372.67,2697.68,372.67z"/>
	<path class="st3" d="M2870.93,389.02l-11.51-6.76c1.57-4.14,2.42-8.58,2.42-13.28c0-20.9-16.91-37.81-37.81-37.81
		c-20.9,0-37.81,16.91-37.81,37.81c0,20.9,16.91,37.81,37.81,37.81c12.97,0,24.43-6.56,31.25-16.56L2870.93,389.02z"/>
	<path class="st5" d="M2809.75,371.81c2.18,0,3.94-1.76,3.94-3.94s-1.76-3.94-3.94-3.94c-2.18,0-3.94,1.76-3.94,3.94
		S2807.57,371.81,2809.75,371.81z"/>
	<path class="st5" d="M2824.38,371.81c2.18,0,3.94-1.76,3.94-3.94s-1.76-3.94-3.94-3.94c-2.18,0-3.94,1.76-3.94,3.94
		S2822.21,371.81,2824.38,371.81z"/>
	<path class="st5" d="M2839.02,371.81c2.18,0,3.94-1.76,3.94-3.94s-1.76-3.94-3.94-3.94c-2.18,0-3.94,1.76-3.94,3.94
		S2836.85,371.81,2839.02,371.81z"/>
	<path class="st55" d="M2608.43,859.44H1752.5c-0.45,0-0.81-0.35-0.81-0.81s0.35-0.81,0.81-0.81h855.93c0.45,0,0.81,0.35,0.81,0.81
		S2608.89,859.44,2608.43,859.44z"/>
	<path class="st55" d="M3137.41,859.74h-492.68c-0.61,0-1.11-0.5-1.11-1.11s0.5-1.11,1.11-1.11h492.68c0.61,0,1.06,0.5,1.06,1.11
		S3138.01,859.74,3137.41,859.74z"/>
	<path class="st29" d="M1808.18,939.19c-16.15,0-27.1,7.97-27.1,20.72c0,26.46,40.17,17.22,40.17,33.79c0,5.74-5.21,9.03-13.92,9.03
		c-7.97,0-17.53-3.83-25.19-10.84l-5.42,10.84c7.65,7.01,18.7,11.8,30.39,11.8c16.37,0,28.06-8.18,28.06-21.47
		c0.11-26.78-40.06-18.07-40.06-34.33c0-4.99,4.78-7.76,12.12-7.76c5.63,0,13.71,2.02,21.79,6.91l5.21-11.05
		C1827.31,942.27,1817.85,939.19,1808.18,939.19z M1878.01,1001.15c-3.29,1.59-5.95,2.44-8.5,2.44c-3.83,0-6.06-1.81-6.06-7.65
		v-27.1h16.68v-9.14h-16.68v-15.52h-12.12v15.52h-7.97v9.14h7.97v29.33c0,11.58,7.33,16.47,15.83,16.47c4.78,0,9.46-1.49,13.92-4.14
		L1878.01,1001.15z M1915.03,957.15c-16.79,0.11-28.59,11.69-28.59,28.8c0,17,11.48,28.59,28.91,28.59c9.78,0,17.85-3.51,23.38-9.56
		l-6.48-6.91c-4.14,4.25-9.78,6.59-15.94,6.59c-8.93,0-15.62-5.42-17.54-14.13h42.72C1942.98,970.12,1934.9,957.15,1915.03,957.15z
		 M1898.56,981.59c1.38-9.03,7.65-14.67,16.58-14.67c9.25,0,15.3,5.53,15.73,14.67H1898.56z M1986.75,957.15
		c-8.82,0-15.62,3.61-19.77,10.2v-9.78h-12.22v77.15h12.22v-30.39c4.14,6.59,10.95,10.2,19.98,10.2c16.15,0,26.78-11.58,26.78-28.48
		C2013.75,968.84,2002.8,957.15,1986.75,957.15z M1984.2,1004.12c-10.1,0-17.22-7.55-17.22-18.49c0-10.63,7.12-18.28,17.22-18.28
		c10.1,0,17.22,7.76,17.22,18.28C2001.42,996.47,1994.3,1004.12,1984.2,1004.12z M2072.67,970.65l21.25-22.95v-7.86h-45.27v11.16
		h29.76l-19.34,20.83v7.33h10.31c9.88,0,15.73,4.14,15.73,12.22c0,7.65-5.74,12.75-15.62,12.75c-6.8,0-13.71-2.76-19.02-7.76
		l-5.21,10.2c6.38,4.89,15.94,8.08,25.08,8.08c16.58,0,27.1-9.67,27.1-23.59c0-11.69-8.5-18.92-20.94-19.98L2072.67,970.65z"/>
</g>
<g>
	<path class="st60" d="M2737.69,55.91c0,16.23-12.01,26.24-31.4,26.24h-16.65v21.29h-13.7V29.68h30.35
		C2725.68,29.68,2737.69,39.58,2737.69,55.91z M2723.88,55.91c0-9.27-6.22-14.65-18.23-14.65h-16.02v29.29h16.02
		C2717.67,70.56,2723.88,65.19,2723.88,55.91z"/>
	<path class="st60" d="M2782.16,46.54v12.54c-1.16-0.21-2.11-0.32-3.06-0.32c-10.01,0-16.33,5.9-16.33,17.39v27.29h-13.17V47.17
		h12.54v8.22C2765.93,49.49,2772.78,46.54,2782.16,46.54z"/>
	<path class="st60" d="M2788.17,75.3c0-16.86,12.65-28.77,29.93-28.77c17.49,0,30.03,11.91,30.03,28.77s-12.54,28.87-30.03,28.87
		C2800.81,104.18,2788.17,92.16,2788.17,75.3z M2834.85,75.3c0-10.75-7.17-17.6-16.76-17.6c-9.48,0-16.65,6.85-16.65,17.6
		s7.17,17.6,16.65,17.6C2827.68,92.9,2834.85,86.05,2834.85,75.3z"/>
	<path class="st60" d="M2915.88,25.25v78.19h-12.65v-7.27c-4.43,5.38-10.96,8.01-18.65,8.01c-16.33,0-28.45-11.38-28.45-28.87
		s12.12-28.77,28.45-28.77c7.27,0,13.7,2.42,18.13,7.59V25.25H2915.88z M2902.92,75.3c0-10.75-7.27-17.6-16.75-17.6
		c-9.48,0-16.75,6.85-16.75,17.6s7.27,17.6,16.75,17.6C2895.65,92.9,2902.92,86.05,2902.92,75.3z"/>
	<path class="st60" d="M2987.65,47.17v56.27h-12.54v-7.17c-4.21,5.16-10.85,7.9-18.13,7.9c-14.44,0-24.24-7.9-24.24-24.87V47.17
		h13.17v30.35c0,10.22,4.85,15.07,13.17,15.07c9.17,0,15.39-5.69,15.39-16.97V47.17H2987.65z"/>
	<path class="st60" d="M3000.29,75.3c0-16.86,12.64-28.77,30.45-28.77c10.96,0,19.71,4.53,24.03,13.07l-10.12,5.9
		c-3.37-5.37-8.43-7.8-14.02-7.8c-9.69,0-17.07,6.74-17.07,17.6c0,10.96,7.38,17.6,17.07,17.6c5.59,0,10.64-2.42,14.02-7.8
		l10.12,5.9c-4.32,8.43-13.07,13.17-24.03,13.17C3012.94,104.18,3000.29,92.16,3000.29,75.3z"/>
	<path class="st60" d="M3100.72,100.38c-3.16,2.53-7.9,3.79-12.65,3.79c-12.33,0-19.39-6.53-19.39-18.97V58.13h-9.27V47.59h9.27
		V34.73h13.17v12.86h15.07v10.54h-15.07v26.77c0,5.48,2.74,8.43,7.8,8.43c2.74,0,5.37-0.74,7.38-2.32L3100.72,100.38z"/>
	<path class="st60" d="M2627.04,229.89l-0.11-48.9l-24.24,40.46h-6.11l-24.24-39.83v48.26h-13.07v-73.76h11.28l29.29,48.89
		l28.77-48.89h11.28l0.11,73.76H2627.04z"/>
	<path class="st60" d="M2705.76,196.91v32.98h-12.43v-6.85c-3.16,4.85-9.27,7.59-17.7,7.59c-12.86,0-20.97-7.06-20.97-16.86
		c0-9.38,6.32-16.75,23.39-16.75h14.54v-0.84c0-7.69-4.64-12.22-14.01-12.22c-6.32,0-12.86,2.11-17.07,5.58l-5.16-9.59
		c6.01-4.64,14.75-6.95,23.82-6.95C2696.38,172.99,2705.76,180.68,2705.76,196.91z M2692.59,212.3v-6.53h-13.59
		c-8.96,0-11.38,3.37-11.38,7.48c0,4.74,4,7.8,10.75,7.8C2684.79,221.04,2690.38,218.09,2692.59,212.3z"/>
	<path class="st60" d="M2755.18,172.99v12.54c-1.16-0.21-2.11-0.32-3.06-0.32c-10.01,0-16.33,5.9-16.33,17.39v27.29h-13.17v-56.27
		h12.54v8.22C2738.96,175.94,2745.8,172.99,2755.18,172.99z"/>
	<path class="st60" d="M2789.33,205.76l-9.8,9.27v14.86h-13.17V151.7h13.17v47.21l27.29-25.29h15.81l-23.5,23.6l25.71,32.67h-16.02
		L2789.33,205.76z"/>
	<path class="st60" d="M2883.75,205.97h-44.15c1.58,8.22,8.43,13.49,18.23,13.49c6.32,0,11.28-2,15.28-6.11l7.06,8.11
		c-5.06,6.01-12.96,9.17-22.66,9.17c-18.86,0-31.09-12.12-31.09-28.87s12.33-28.77,29.08-28.77c16.44,0,28.45,11.49,28.45,29.08
		C2883.96,203.13,2883.85,204.71,2883.75,205.97z M2839.49,197.23h31.93c-1.05-8.11-7.27-13.7-15.91-13.7
		C2846.97,183.53,2840.75,189.01,2839.49,197.23z"/>
	<path class="st60" d="M2930.43,226.84c-3.16,2.53-7.9,3.79-12.64,3.79c-12.33,0-19.39-6.53-19.39-18.97v-27.08h-9.27v-10.54h9.27
		v-12.86h13.17v12.86h15.07v10.54h-15.07v26.77c0,5.48,2.74,8.43,7.8,8.43c2.74,0,5.38-0.74,7.38-2.32L2930.43,226.84z"/>
	<path class="st60" d="M2985.33,167.62v22.45h35.62v11.59h-35.62v28.24h-13.7v-73.76h53.85v11.49H2985.33z"/>
	<path class="st60" d="M3034.65,156.45c0-4.43,3.58-7.9,8.43-7.9s8.43,3.27,8.43,7.59c0,4.64-3.48,8.22-8.43,8.22
		C3038.23,164.35,3034.65,160.87,3034.65,156.45z M3036.44,173.62h13.17v56.27h-13.17V173.62z"/>
	<path class="st60" d="M3100.72,226.84c-3.16,2.53-7.9,3.79-12.65,3.79c-12.33,0-19.39-6.53-19.39-18.97v-27.08h-9.27v-10.54h9.27
		v-12.86h13.17v12.86h15.07v10.54h-15.07v26.77c0,5.48,2.74,8.43,7.8,8.43c2.74,0,5.37-0.74,7.38-2.32L3100.72,226.84z"/>
</g>
</svg>
