<?xml version="1.0" encoding="utf-8"?>
<!-- Generator: Adobe Illustrator 23.0.1, SVG Export Plug-In . SVG Version: 6.00 Build 0)  -->
<svg version="1.1" id="Layer_1" xmlns="http://www.w3.org/2000/svg" xmlns:xlink="http://www.w3.org/1999/xlink" x="0px" y="0px"
	 viewBox="0 0 3500 1264" style="enable-background:new 0 0 3500 1264;" xml:space="preserve">
<style type="text/css">
	.st0{fill:none;stroke:#EFB76C;stroke-width:23;stroke-linecap:round;stroke-linejoin:round;}
	.st1{clip-path:url(#SVGID_2_);}
	.st2{fill:#EBEBEB;}
	.st3{fill:#C9C9C9;}
	.st4{fill:#E0E0E0;}
	.st5{fill:#FFFFFF;}
	.st6{fill:#FFA412;}
	.st7{fill:#EEF6FF;}
	.st8{fill:#78ACEA;}
	.st9{fill:#BAE8E3;}
	.st10{fill:#A1D6CE;}
	.st11{fill:#F99746;}
	.st12{fill:#F5F5F5;}
	.st13{fill:#B7D3F3;}
	.st14{fill:#FFB27D;}
	.st15{fill:#233862;}
	.st16{fill:#A9453D;}
	.st17{fill:#ED975D;}
	.st18{fill:#2D3A3F;}
	.st19{fill:#5F9AA8;}
	.st20{fill:#FFC93C;}
	.st21{fill:#263238;}
	.st22{fill:#1E3D70;}
	.st23{fill:#FFDF93;}
	.st24{fill:#163560;}
	.st25{fill:#E8945B;}
	.st26{fill:#EBF3FA;}
	.st27{fill:#F2CCAA;}
	.st28{fill:#B5453C;}
	.st29{fill:#00858E;}
	.st30{fill:#E2915A;}
	.st31{fill:#007477;}
	.st32{fill:#2E3552;}
	.st33{fill:#EFB76C;}
</style>
<path class="st0" d="M1199.7-7.1c-129.5,125.3-242.6,305-272.7,537.2c-52.4,404.5,222.6,602.5,438.3,721.5
	c7,3.8,31.1,17.2,38.1,20.9"/>
<g>
	<g>
		<g>
			<g>
				<defs>
					<rect id="SVGID_1_" x="201.3" y="-41.5" width="1714.7" height="1072.1"/>
				</defs>
				<clipPath id="SVGID_2_">
					<use xlink:href="#SVGID_1_"  style="overflow:visible;"/>
				</clipPath>
				<g class="st1">
					<path class="st2" d="M1191.1,873.7h0.2c1.1,0,2-0.9,1.9-2l-2.9-127.8l-8.7-1l7.4,128.8C1189.1,872.8,1190,873.7,1191.1,873.7z"
						/>
					<path class="st3" d="M1241.7,873.7h0.2c1.1,0,2-0.9,1.9-2l-2.9-127.8l-8.7-1l7.4,128.8C1239.6,872.8,1240.6,873.7,1241.7,873.7
						z"/>
					<path class="st2" d="M1102.1,873.7h-0.2c-1.1,0-2-0.9-1.9-2l2.9-127.8l8.7-1l-7.4,128.8
						C1104.1,872.8,1103.2,873.7,1102.1,873.7z"/>
					<path class="st2" d="M1247.5,736v-87.6c0-15.4-12.5-27.9-27.9-27.9h-63.1c-15.4,0-27.9,12.5-27.9,27.9v90.9L1247.5,736z"/>
					<path class="st3" d="M1117.3,749.8h121.8c4.6,0,8.4-3.8,8.4-8.4V736h-130.2L1117.3,749.8L1117.3,749.8z"/>
					<path class="st4" d="M1102.7,749.8h92.1c3.4,0,6.2-2.8,6.2-6.2v-1.5c0-3.4-2.8-6.2-6.2-6.2h-92.1c-3.4,0-6.2,2.8-6.2,6.2v1.5
						C1096.5,747,1099.3,749.8,1102.7,749.8z"/>
					<path class="st3" d="M1315,275.1H951.4v314H1315V275.1L1315,275.1z"/>
					<path class="st2" d="M1307.9,280.3H958.3v302.5h349.6V280.3z"/>
					<path class="st5" d="M1080.5,411.9h-76.6v-95.7l13-11.7h63.6V411.9L1080.5,411.9z"/>
					<path class="st2" d="M1003.9,316.2h12.5l0.4-11.7L1003.9,316.2z"/>
					<path class="st2" d="M1054.5,313.9H1030v1.2h24.5V313.9z"/>
					<path class="st2" d="M1060.2,317.3h-36.1v1.2h36.1V317.3z"/>
					<path class="st2" d="M1072.9,339.8H1013v1.5h59.9V339.8z"/>
					<path class="st2" d="M1072.9,344.4H1013v1.5h59.9V344.4z"/>
					<path class="st2" d="M1072.9,349H1013v1.5h59.9V349z"/>
					<path class="st2" d="M1072.9,353.5H1013v1.5h59.9V353.5z"/>
					<path class="st2" d="M1072.9,402.4H1013v1.5h59.9V402.4z"/>
					<path class="st5" d="M1169,544.7h-76.6V449l13-11.7h63.6V544.7z"/>
					<path class="st2" d="M1092.3,449h12.6l0.4-11.7L1092.3,449z"/>
					<path class="st2" d="M1142.9,446.6h-24.5v1.2h24.5V446.6z"/>
					<path class="st2" d="M1148.7,450.1h-36.1v1.2h36.1V450.1z"/>
					<path class="st2" d="M1161.4,472.6h-59.9v1.5h59.9V472.6z"/>
					<path class="st2" d="M1161.4,477.2h-59.9v1.5h59.9V477.2z"/>
					<path class="st2" d="M1161.4,481.7h-59.9v1.5h59.9V481.7z"/>
					<path class="st2" d="M1161.4,486.3h-59.9v1.5h59.9V486.3z"/>
					<path class="st2" d="M1161.4,500.3h-59.9v1.5h59.9V500.3z"/>
					<path class="st2" d="M1161.4,504.9h-59.9v1.5h59.9V504.9z"/>
					<path class="st2" d="M1161.4,510.2h-59.9v1.5h59.9V510.2z"/>
					<path class="st2" d="M1212.2,304.5h-42.3v37.3h42.3V304.5z"/>
					<path class="st6" d="M1189.2,309c0-1,0.9-1.9,1.9-1.9s1.9,0.8,1.9,1.9c0,1-0.9,1.9-1.9,1.9S1189.2,310,1189.2,309z"/>
					<path class="st5" d="M1210.9,353.6l-42.2,2.9l2.6,37.2l42.2-2.9L1210.9,353.6z"/>
					<path class="st2" d="M1188.4,361.9c-0.1-1,0.7-1.9,1.7-2c1,0,1.9,0.7,2,1.7s-0.7,1.9-1.7,2
						C1189.3,363.6,1188.5,362.9,1188.4,361.9z"/>
					<path class="st5" d="M1070.3,491l-42.2,2.9l2.6,37.2l42.2-2.9L1070.3,491z"/>
					<path class="st2" d="M1047.8,499.3c-0.1-1,0.7-1.9,1.7-2s1.9,0.7,2,1.7s-0.7,1.9-1.7,2S1047.9,500.3,1047.8,499.3z"/>
					<path class="st5" d="M1017.1,517.7l-42.3,0.4l0.4,37.3l42.3-0.4L1017.1,517.7z"/>
					<path class="st2" d="M994.3,524.7c0-1,0.8-1.9,1.8-1.9s1.9,0.8,1.9,1.8s-0.8,1.9-1.8,1.9C995.1,526.5,994.3,525.8,994.3,524.7z
						"/>
					<path class="st7" d="M1233.3,376.1l-6.6,36.7l41.6,7.4l6.6-36.7L1233.3,376.1z"/>
					<path class="st8" d="M1251.6,384.5c0.2-0.9,1-1.5,1.9-1.3s1.4,1,1.3,1.9c-0.2,0.9-1,1.5-1.9,1.3
						C1252,386.2,1251.4,385.4,1251.6,384.5z"/>
					<path class="st7" d="M1144.9,352.8l-42,4.5l4,37.1l42-4.5L1144.9,352.8z"/>
					<path class="st8" d="M1122.9,360.3c-0.1-0.9,0.5-1.7,1.4-1.8c0.9-0.1,1.7,0.5,1.8,1.5s-0.5,1.7-1.4,1.8
						C1123.7,361.8,1123,361.2,1122.9,360.3z"/>
					<path class="st9" d="M1035.1,441l-41.3,8.8l7.8,36.5l41.3-8.8L1035.1,441z"/>
					<path class="st6" d="M1014.6,451.7c-0.8-0.5-1-1.5-0.5-2.3s1.5-1,2.3-0.5s1,1.5,0.5,2.3
						C1016.4,451.9,1015.4,452.1,1014.6,451.7z"/>
					<path class="st5" d="M1146.1,341.8h-40.3v-27.1l11.1-10.2h29.2L1146.1,341.8L1146.1,341.8z"/>
					<path class="st2" d="M1105.6,314.8h11l0.4-10.2L1105.6,314.8z"/>
					<path class="st2" d="M1126.1,308c0-0.8,0.6-1.3,1.3-1.3s1.3,0.6,1.3,1.3s-0.6,1.3-1.3,1.3S1126.1,308.7,1126.1,308z"/>
					<path class="st5" d="M1263.7,563.3h-40.2v-27.1l11.1-10.2h29.1V563.3z"/>
					<path class="st2" d="M1223.3,536.3h11l0.4-10.2L1223.3,536.3z"/>
					<path class="st2" d="M1243.7,529.5c0-0.8,0.6-1.3,1.3-1.3s1.3,0.6,1.3,1.3s-0.6,1.3-1.3,1.3
						C1244.3,530.8,1243.7,530.2,1243.7,529.5z"/>
					<path class="st5" d="M1282.1,509.6h-40.3v-27l11.2-10.3h29.2L1282.1,509.6L1282.1,509.6z"/>
					<path class="st2" d="M1241.6,482.6h11l0.4-10.3L1241.6,482.6z"/>
					<path class="st2" d="M1262.1,475.8c0-0.8,0.6-1.3,1.3-1.3s1.3,0.6,1.3,1.3s-0.6,1.3-1.3,1.3S1262.1,476.5,1262.1,475.8z"/>
					<path class="st9" d="M1228.9,509.6h-40.2v-27l11.1-10.3h29.1V509.6z"/>
					<path class="st10" d="M1188.5,482.6h11l0.4-10.3L1188.5,482.6z"/>
					<path class="st11" d="M1208.9,475.8c0-0.8,0.6-1.3,1.3-1.3s1.3,0.6,1.3,1.3s-0.6,1.3-1.3,1.3
						C1209.5,477.1,1208.9,476.5,1208.9,475.8z"/>
					<path class="st9" d="M1293.4,332.5h-40.3v-27l11.2-10.2h29.2L1293.4,332.5L1293.4,332.5z"/>
					<path class="st10" d="M1252.9,305.4h11l0.3-10.2L1252.9,305.4z"/>
					<path class="st11" d="M1273.5,298.6c0-0.8,0.6-1.3,1.3-1.3s1.3,0.6,1.3,1.3s-0.6,1.3-1.3,1.3
						C1274.1,300,1273.5,299.4,1273.5,298.6z"/>
					<path class="st3" d="M895.3,267.5h-76.6c-3.5,0-6.4-2.9-6.4-6.4v-74c0-3.5,2.9-6.4,6.4-6.4h76.6c3.5,0,6.4,2.9,6.4,6.4V261
						C901.7,264.6,898.8,267.5,895.3,267.5z"/>
					<path class="st12" d="M892,263.7h-70c-3.2,0-5.8-2.6-5.8-5.8v-67.5c0-3.2,2.6-5.8,5.8-5.8h70c3.2,0,5.8,2.6,5.8,5.8v67.5
						C897.8,261.1,895.2,263.7,892,263.7z"/>
					<path class="st13" d="M855.1,192.4c0-1,0.9-1.9,1.8-1.9c1,0,1.8,0.8,1.8,1.9c0,1-0.9,1.9-1.8,1.9S855.1,193.4,855.1,192.4z"/>
					<path class="st13" d="M870.1,195.1c0.5-0.9,1.6-1.2,2.5-0.7s1.2,1.6,0.7,2.5s-1.6,1.2-2.5,0.7
						C869.9,197,869.6,195.9,870.1,195.1z"/>
					<path class="st13" d="M882.9,205.2c0.9-0.5,2-0.3,2.6,0.5c0.5,0.9,0.3,2-0.5,2.6c-0.9,0.5-2,0.3-2.6-0.5
						C881.8,206.9,882,205.8,882.9,205.2z"/>
					<path class="st13" d="M889.2,220.9c1,0,1.8,0.8,1.8,1.9c0,1-0.9,1.9-1.8,1.9c-1,0-1.8-0.8-1.8-1.9S888.2,220.9,889.2,220.9z"/>
					<path class="st13" d="M886,239.2c0.7,0.7,0.7,1.9,0,2.6c-0.7,0.7-1.9,0.7-2.6,0c-0.8-0.7-0.7-1.9,0-2.6
						C884.1,238.5,885.2,238.5,886,239.2z"/>
					<path class="st13" d="M874.3,250.9c0.7,0.7,0.7,1.9,0,2.6c-0.7,0.7-1.9,0.7-2.6,0s-0.7-1.9,0-2.6
						C872.5,250.2,873.7,250.2,874.3,250.9z"/>
					<path class="st13" d="M855.1,256.9c0-1,0.9-1.9,1.8-1.9c1,0,1.8,0.8,1.8,1.9c0,1.1-0.9,1.9-1.8,1.9
						C856,258.7,855.1,257.9,855.1,256.9z"/>
					<path class="st13" d="M843.9,195.1c-0.5-0.9-1.6-1.2-2.5-0.7s-1.2,1.6-0.7,2.5s1.6,1.2,2.5,0.7
						C844,197,844.3,195.9,843.9,195.1z"/>
					<path class="st13" d="M831,205.2c-0.9-0.5-2-0.3-2.6,0.5c-0.5,0.9-0.3,2,0.5,2.6c0.9,0.5,2,0.3,2.6-0.5
						C832.1,206.9,831.9,205.8,831,205.2z"/>
					<path class="st13" d="M824.7,220.9c-1,0-1.8,0.8-1.8,1.9c0,1,0.9,1.9,1.8,1.9c1,0,1.9-0.8,1.9-1.9S825.8,220.9,824.7,220.9z"/>
					<path class="st13" d="M828,239.2c-0.7,0.7-0.7,1.9,0,2.6c0.7,0.7,1.9,0.7,2.6,0s0.7-1.9,0-2.6S828.6,238.5,828,239.2z"/>
					<path class="st13" d="M839.6,250.9c-0.7,0.7-0.7,1.9,0,2.6c0.7,0.7,1.9,0.7,2.6,0s0.7-1.9,0-2.6
						C841.5,250.2,840.3,250.2,839.6,250.9z"/>
					<path class="st13" d="M856.5,222.8c0-1,0.9-1.9,1.9-1.9s1.8,0.8,1.8,1.9c0,1-0.9,1.9-1.8,1.9
						C857.3,224.6,856.5,223.8,856.5,222.8z"/>
					<path class="st13" d="M858.6,199.7h-0.5v23.2h0.5V199.7z"/>
					<path class="st13" d="M869.9,212.5l-12.3,9.6l0.9,1.2l12.3-9.6L869.9,212.5z"/>
					<path class="st14" d="M1366.8,869.1c-0.4,5-7.4,5-15.3,4.1c-8-0.9-5.8,1.1-17,1.2c-11.1,0.2-15-3.5-15.5-5.1
						c-0.5-1.4,4.9-2.6,10.6-4c0.8-0.2,1.4-0.4,2.2-0.5c6.5-1.7,10.8-6.5,16.3-10.7c5.3-4,12-18.5,12-18.5l15.2-0.7
						c0,0-6.4,13-8.8,18.6c-1.4,3.3-0.8,7.3-0.2,10.5C1366.5,865.7,1366.9,867.4,1366.8,869.1z"/>
					<path class="st15" d="M1351.4,873.2c-8-0.9-5.8,1.1-17,1.2c-11.1,0.2-15-3.5-15.5-5.1c-0.5-1.4,4.9-2.6,10.6-4l0.1,0.1
						c0,0,7.2,3.9,16.3,3c7.5-0.8,15.1-3.9,20.3-4.5c0.3,1.7,0.6,3.4,0.5,5.2C1366.4,874.1,1359.3,874.2,1351.4,873.2z"/>
					<path class="st14" d="M1471.9,870.2c-0.4,5-7.4,5-15.3,4.1c-8-0.9-5.8,1.1-17,1.3c-11.1,0.2-15-3.5-15.5-5.1
						c-0.5-1.4,4.9-2.6,10.6-4c0.8-0.2,1.4-0.4,2.2-0.5c6.5-1.7,10.8-6.5,16.3-10.8c5.3-4,0-27.8,0-27.8l16.8-1.6
						c0,0-0.8,20-0.8,29.1c0,3.6,1.7,7,2.3,10.1C1471.7,866.7,1472.1,868.4,1471.9,870.2z"/>
					<path class="st15" d="M1456.6,874.3c-8-0.9-5.8,1.1-17,1.3c-11.1,0.2-15-3.5-15.5-5.1c-0.5-1.4,4.9-2.6,10.6-4l0.1,0.1
						c0,0,7.2,3.9,16.3,2.9c7.5-0.8,15.1-3.9,20.3-4.5c0.3,1.7,0.6,3.4,0.5,5.2C1471.6,875.1,1464.5,875.2,1456.6,874.3z"/>
					<path class="st16" d="M1423.1,459.2c-2.9-11.9,1.3-17.4,5.1-20.3c1.8-4.4,3.8-7.5,5.9-8.7c3.8-2.1,8.4-2.4,11.6-2.2
						c-0.8-0.9-2.5-1.2-2.5-1.2c2-0.3,6.4,1.7,6.4,1.7c27.5-10.6,31.8,29.9,31.3,39.4c-0.6,9.4-0.5,20.5,13.8,27.9
						c27.3,14.1-9.1,67.5-9.1,67.5c0.7-7.6-34.4-47.8-52.7-59.8c-4.4-6.6-6.1-18.2-6.2-19.1c0.8,9.2,2.4,14.4,3.8,17.3
						C1422.1,493.9,1420.8,475.5,1423.1,459.2z"/>
					<path class="st14" d="M1433.9,504c-0.1,0,8.8,4.7,15.6,2.8c6.3-1.7,10.4-9.9,10.4-9.9c-2.7-0.5-3.4-4.2-3.4-20l-1.2,0.2
						l-20.4,4c0,0,0.5,6.4,0.5,12.4C1435.4,498.7,1435.1,503.5,1433.9,504z"/>
					<path class="st17" d="M1434.9,481.1c0,0,0.5,6.4,0.5,12.4c11.4-0.3,17.4-10.7,19.9-16.5L1434.9,481.1z"/>
					<path class="st18" d="M1352.1,843.6c-1,3.1,1.2,6.3,4.5,6.5l7.9,0.4l8.4,0.3c2.1,0.1,4.1-0.9,5.5-2.5
						c6.7-8.3,27.4-35.7,39.9-75.6c0.4-1.1,0.8-2.3,1.1-3.4c8.3-24.2,25.5-54.5,34.5-81.9c1.4-4.4,2.7-8.5,3.9-12.4
						c0.4-1.2,0.8-2.5,1.1-3.7c6.6-23.2,8.6-38.4,10.4-54.6l-65.3,0.5C1404,617.1,1390.2,724.1,1352.1,843.6z"/>
					<path class="st5" d="M1413.2,579.6c0.2,31.1-4.6,44.4-4.6,44.4s28,14.2,61.2,3.8c0.4-0.1,27.5-6.3,27.5-6.3
						c-0.5-1.2-5.5-22.2-6.1-23.4c-7-15.1-12.3-21.7-13.2-26.3c-1.6-8.6-1.6-17.6-0.8-26c2-22.3,8-40.9,8-40.9
						c-9.1-2-17.5-5.7-26.9-9.2c-2.2,2.7-8.8,5.5-14.5,5.4c-6.6-0.2-8.8-3-8.4-6.1c-7.1,3.9-12.7,7.7-12.7,7.7
						c-6,10.4-18.2,20.5-19,36.5C1403.4,543,1413.2,578.8,1413.2,579.6z"/>
					<path class="st19" d="M1469.3,583.1c2.8,4,8.4,28.6,22,31.7c-7-17.5-12.3-25.2-13.2-30.6c-1.6-10.1-1.6-20.5-0.8-30.2
						c-4.6-8-8-13.5-8-13.5c-0.4-1.3-7.2-22.6-9.4-3.5C1457.6,556,1466.1,578.5,1469.3,583.1z"/>
					<path class="st14" d="M1431.1,486.9c0,0,26.9,0.4,26.9-16.4s3.5-28-13.7-29s-20.6,5.4-21.9,11S1424.1,486.4,1431.1,486.9z"/>
					<path class="st16" d="M1432.1,441.1c0,0,7.4,19.7,18.7,22.6c11.3,2.9,16.2-0.1,16.2-0.1s-8.7-6.9-10.5-18.9
						C1456.6,444.6,1437.6,431.7,1432.1,441.1z"/>
					<path class="st16" d="M1433.9,442.7c0,0-5.5,4.4-6.9,8.7c-1.3,4.3-1.9,13.1-4.5,12.8c0,0-5.6-13.4,0.7-21
						C1429.9,435.2,1433.9,442.7,1433.9,442.7z"/>
					<path class="st14" d="M1388.7,601.2L1376,640l7.3,2.9l21-34.3L1388.7,601.2z"/>
					<path class="st20" d="M1423,500.3c0,0-15,6-19.3,15.2c-4.3,9.3-10.9,71.6-13.6,78c-2.6,6.4-4.6,11.5-4.6,11.5s7.6,6.4,15.2,6.9
						C1408.3,612.3,1423,500.3,1423,500.3z"/>
					<path class="st20" d="M1435.4,494.9c0,0-15.6,38.5-16,46.3c-0.5,7.8-1.8,127.5-1.8,127.5s0.9,5.5-9.6,3.2
						c-10.6-2.3-13.3-4.6-13.3-4.6s10.1-73.9,7.3-99.5c-2.7-25.7,21.1-67.6,21.1-67.6L1435.4,494.9z"/>
					<path class="st21" d="M1364.6,850.5l9.2,0.3c1.7,0.1,3.2-0.6,4.2-1.9c6.2-7.5,27.5-35.3,40.4-76.2c0.4-1.1,0.8-2.3,1.1-3.4
						c8.3-24.2,25.4-54.5,34.5-81.9c1.4-4.4,2.7-8.5,3.9-12.4c0.4-1.2,0.8-2.5,1.1-3.7l-9.6-7.3c0,0-28.9,46.8-37.8,90.8
						C1403.7,793,1372.6,839.1,1364.6,850.5z"/>
					<path class="st18" d="M1448.3,758.9c-0.2,20.3,0.8,65.4,3.3,87.5c0.2,2,1.9,3.5,4,3.5h6.8c2.9,0,5,0,6.4-0.1
						c1.2,0,2.3-0.9,2.5-2.1c6.8-34.5,11.6-63.2,15.2-88c2.9-20.7,5.6-38.5,7.7-53.8c2-15.4,3.5-28.3,4-39.2c0.1-1.7,0.2-3.4,0.2-5
						c0.1-1.6,0.1-3.2,0.1-4.8l-56.4-5.5C1442.6,689.1,1448.4,746.4,1448.3,758.9z"/>
					<path class="st22" d="M1462.3,849.9c2.6,0,4.6,0,6-0.1c1.5,0,2.8-1.1,3.1-2.6c6.8-34.3,11.6-62.8,15.1-87.5
						c2.9-20.7,5.6-38.5,7.7-53.8c2-15.4,3.5-28.3,4-39.2l-20.7,12.2c0,0,13.2,4.7,8.2,40C1480.6,754.3,1469.4,844.9,1462.3,849.9z"
						/>
					<path class="st20" d="M1459.7,666.5c0,0,4,14.4,17.7,12.5c13.8-1.8,33.3-10.1,33.3-10.1s-5.9-18.6-13.2-43
						c-8.8-29.5-19.8-67.7-25-91.7c-1.4-6.8-2.5-12.4-2.8-16.4l-11.4-22.1c0,0-17,38.2-17.9,47.8
						C1439.5,553.1,1459.7,666.5,1459.7,666.5z"/>
					<path class="st14" d="M1473.4,542.1l-15.1-46.4c0.1,0,19,5.6,28.6,10.5c0,0,5.9,7.7,9.6,25.5c0,0,3.9,42.6-4.8,58.2
						c0,0-27.5,5.5-71.5-9.7v-10.1c0,0,48.1,2.5,58,3.7L1473.4,542.1z"/>
					<path class="st23" d="M1460.3,563.7c0.6,15.6,4.3,45.9,37,62.1c0.1,0.1,0.2,0.1,0.3,0.1c-8.8-29.5-19.8-67.7-25-91.7
						C1466.6,543.2,1460,555.1,1460.3,563.7z"/>
					<path class="st20" d="M1458.4,495.7c0,0,27.9,2,34.6,16.9c6.8,15,8.8,64.8,0.3,79.5c0,0-11.8,3.4-32.6-0.5
						c-0.3,0-0.5-0.1-0.8-0.2c0,0-6.6-16.3-0.7-19.5c0,0,17.6,0.9,15.8-4.9C1473.2,561.3,1458.4,495.7,1458.4,495.7z"/>
					<path class="st16" d="M1388.3,576.4l0.8,2.6l45.8-14.3c0,0,0.6-0.7,0.3-1.6c-0.3-1-1.1-1-1.1-1L1388.3,576.4z"/>
					<path class="st16" d="M1385,578.9l3.3-2.5l0.9,2.6L1385,578.9z"/>
					<path class="st14" d="M1377.8,639c0,0-11.6,6.4-13.1,11.3s-0.5,15.2,1.4,15c1.8-0.2,4.6-11,6.1-11.8s3.7-3,3.7-1.4
						s-1.6,4.7-0.8,5.2c0.8,0.5,3.2-4.3,4.9-5.2c1.7-0.9,2.4-8.5,4-10.5C1385.6,639.5,1377.8,639,1377.8,639z"/>
					<path class="st14" d="M1420.3,570.1c0,0-10.4-6.4-14.7-5.4c-4.3,1-15.5,9.1-10.1,10.8s9.7-0.1,11.7,1.2s3.6,3.6,13.1,3.5
						C1429.8,580.2,1420.3,570.1,1420.3,570.1z"/>
					<path class="st24" d="M602.9,501.4c-1.8-3.4,38-15.4,38.6,17.7c0,0,74.5-1.8,38.9-43.4c-12.3-14.4-11-26.3-10.7-37.3
						c0.4-11-7.7-43.2-35.3-40c0,0-7.2-3-16.2,1.7C597.8,410.8,551.9,513.6,602.9,501.4z"/>
					<path class="st14" d="M724.6,538.5c0,0,4.8-7.4,8.7-7.5c3.9-0.2,11.2-2.2,10.6-0.7c-0.6,1.5-5.1,1.6-5.5,2.5s6.6,2.2,8.7,2.3
						c2,0.2,6.8,0,6.7,1s-8.6,5.2-14.6,4.6c-6-0.6-13.3,1.7-13.3,1.7L724.6,538.5z"/>
					<path class="st20" d="M654.5,540.8c0,0,2.6,5.2,7.4,11.2c5.8,7.2,14.6,15.5,25.8,17.2c5.3,0.8,10.6-0.4,15.3-2.5
						c13.5-6,23.7-19.8,23.7-19.8c2.4-6.5-1.5-10.9-1.5-10.9s-27.3,6.2-30,4.9c-2.6-1.3-17.8-45.1-21.4-50.6c-3.7-5.5-16-8.4-16-8.4
						L654.5,540.8z"/>
					<path class="st23" d="M661.9,552.1c5.8,7.2,14.6,15.5,25.8,17.2c5.3,0.8,10.5-0.4,15.3-2.5c-0.5,0.1-14,1.8-19.5-7.9
						c-5.5-9.9-11.5-25.5-19.6-20.3C660.4,540.8,660.6,546.4,661.9,552.1z"/>
					<path class="st15" d="M552.5,836.1c0,0-8.4,7.6-6.7,13c1.6,5.4,9.2,9,10.2,15.7c1,6.6,5.1,10.2,8.7,10.2c3.7,0,17.5,0,17.5,0
						s2.7-4.7-3.8-6.1c-6.5-1.4-9-9.2-8.6-16.4s-0.6-16.8-0.6-16.8l-13.8-3.2L552.5,836.1z"/>
					<path class="st15" d="M623.1,839.4c0,0-3,32.3,0.6,34.1l46.9-0.1c0,0,0-5.4-7.5-6.6c-7.5-1.2-20.7-5.6-23-15.4
						C637.9,841.5,623.1,839.4,623.1,839.4z"/>
					<path class="st14" d="M589.7,607.8c9.7-21.7,15.5-27.9,14.4-34.6c-0.9-5,2.6-93.2,2.6-93.2c1.1-0.4,3.4-0.7,4.7-1
						c4-0.9,7.2-3.6,8.6-7.5c1.7-4.6,3-11.4,2.9-19.9l1.2,0.3l20.8,4.1c0,0-0.5,6.5-0.5,12.7c0,0.1,0,0.1,0,0.2
						c0,5.4,3.5,10.1,8.6,11.6c2.6,0.8,4.9,1.4,4.9,1.4s7.6,21.8,9.1,44.2s-13.9,32.1,0.1,76.9C681.4,648.6,584.4,619.8,589.7,607.8
						z"/>
					<path class="st25" d="M644.9,456.1c0,0-0.5,6.5-0.5,12.7c-11.6-0.3-17.8-10.9-20.3-16.8L644.9,456.1z"/>
					<path class="st14" d="M648.8,461.9c0,0-27.5,0.4-27.5-16.7s-3.6-28.6,14-29.6s21,5.5,22.4,11.3
						C659,432.6,655.9,461.3,648.8,461.9z"/>
					<path class="st24" d="M647.8,415.2c0,0-7.5,20.1-19.1,23.1c-11.5,3-16.6-0.1-16.6-0.1s8.8-7.1,10.7-19.4
						C622.8,418.8,642.1,405.6,647.8,415.2z"/>
					<path class="st24" d="M645.9,416.8c0,0,5.6,2.1,7.9,6.2c2.3,4,4.2,9.3,3.7,15.8c0,0,5.7-13.7-0.7-21.4
						C650,409,645.9,416.8,645.9,416.8z"/>
					<path class="st26" d="M642.8,451.2c0,0,1.9,2.5,5.7,2.3c3.1-0.2,4.2-2.8,4.2-2.8S647.1,449.4,642.8,451.2z"/>
					<path class="st20" d="M587,519c0,0-0.7,9.9,0,21.7c0.5,7.8,8.4,18.3,9.5,21c2.8,6.5,6,7.6,6,7.6l24.6,6.1l8.7,2.1l27.3-8.2
						c0,0,12.4-34.7,7.5-54.3c-5-19.6-12.6-33.1-12.6-33.1s-22.3,21.8-51.3-1.9L587,519z"/>
					<path class="st27" d="M594.3,543.9c0.5,7.8,1.2,15.1,2.3,17.7c2.8,6.5,6,7.6,6,7.6l24.6,6.1l10.7-3.2c0,0-35.7-5.4-31.7-36.1
						L594.3,543.9z"/>
					<path class="st21" d="M661.4,574.5c0,0,13.5,42.1,14.4,56.4c0.9,14.4-25.8,203.6-26.9,210.2c-1,6.2-8.7,10.2-8.7,10.2
						s-3.5,2.1-8.6,0.6c-7-2-9.3-4.4-9.3-4.4s-10.5-135-4-183.2s6.6-89.9,6.6-89.9L661.4,574.5L661.4,574.5z"/>
					<path class="st18" d="M604.1,573.2c0,0-20.6,27.7-22.6,46.4s-3,84.4-7.1,102.7c-4.1,18.2-19.1,53.3-19.1,110.2
						c0,0,1.5,3.3,6.4,5c1.5,0.5,3.6,1.1,5.6,1.5c4,0.9,8.1-1,9.9-4.7c10.2-20.5,42.6-86.6,44.3-100.3c1.2-9.7,11.4-74,33.7-111.7
						c5.4-9.1-3.3-45-3.3-45L604.1,573.2z"/>
					<path class="st5" d="M643.4,451.7c0,0,0.5,2,5.5,1.7c0,0,4.2-0.3,4.1-2.5C653,450.9,648.9,449.4,643.4,451.7z"/>
					<path class="st15" d="M663.5,568c0,0-5.4,4.3-16.2,4.5c-12.9,0.3-44.8-3.3-44.8-3.3s-1.5,4-1.3,8.2c0,0,39,9.8,61.6,1.5
						C662.7,578.8,665.7,573.3,663.5,568z"/>
					<path class="st5" d="M644.6,577c0-3.7,2.6-6.7,5.9-6.7c3.2,0,5.9,3,5.9,6.7s-2.6,6.7-5.9,6.7S644.6,580.6,644.6,577z
						 M646.5,577c0,2.6,1.8,4.7,3.9,4.7c2.1,0,3.9-2.1,3.9-4.7c0-2.6-1.8-4.7-3.9-4.7S646.5,574.4,646.5,577z"/>
					<path class="st28" d="M608.2,520.9l-47.6,54.7l39.9,34.8l47.6-54.7L608.2,520.9z"/>
					<path class="st14" d="M611.6,575.8c0,0,14.6,1.7,14.6,5.2c-0.1,3.5-3.7,10.6-5.5,10.9c-1.8,0.3-11.9-9.7-11.9-9.7L611.6,575.8z
						"/>
					<path class="st20" d="M606.7,480c0,0-19.6,1.4-27,19.6c-7.5,18.2-21.7,48.8-21.7,53.9s7.9,21,50.5,30.1c0,0,4.4-4.7,4.1-8.3
						c0,0-26.6-22.8-26.5-25.5c0.2-5,4.3-11.7,27.7-35.1C620.2,508.3,606.7,480,606.7,480z"/>
					<path class="st2" d="M822.5,874h-0.2c-1.1,0-2-0.9-1.9-2l3-127.8l8.7-1L824.6,872C824.5,873.2,823.5,874,822.5,874z"/>
					<path class="st3" d="M771.8,874h-0.2c-1.1,0-2-0.9-1.9-2l3-127.8l8.7-1L774,872C773.9,873.2,773,874,771.8,874z"/>
					<path class="st2" d="M911.5,874h0.2c1.1,0,2-0.9,1.9-2l-2.9-127.8l-8.7-1l7.4,128.8C909.5,873.2,910.4,874,911.5,874z"/>
					<path class="st2" d="M766.1,736.3v-87.6c0-15.4,12.5-27.9,27.9-27.9h63.1c15.4,0,27.9,12.5,27.9,27.9v90.9L766.1,736.3z"/>
					<path class="st3" d="M896.3,750.1H774.5c-4.6,0-8.4-3.8-8.4-8.4v-5.5h130.2V750.1z"/>
					<path class="st2" d="M910.8,750.1h-92.1c-3.4,0-6.2-2.8-6.2-6.2v-1.5c0-3.4,2.8-6.2,6.2-6.2h92.1c3.4,0,6.2,2.8,6.2,6.2v1.5
						C917.1,747.4,914.3,750.1,910.8,750.1z"/>
					<path class="st15" d="M907.3,714.5c-9.1,15.7-20.4,21.8-20.4,21.8h-47.3C839.6,736.3,914.2,702.5,907.3,714.5z"/>
					<path class="st14" d="M871,836.2c-1.2,1.4-1.4,3-0.8,4.7c1.1,3.1,4.9,6.6,9.2,10.1c0.5,0.4,1,0.9,1.5,1.2
						c0.1,0.1,0.2,0.2,0.3,0.3c0.1,0,0.2,0.2,0.3,0.2c4,3.7,2.5,4.6,9.8,12.1c8.3,8.6,14,8.7,15.6,8c1.4-0.7-1.4-5.3-4.5-10.3
						c-0.2-0.3-0.3-0.5-0.4-0.8c-0.4-0.7-0.8-1.4-1.2-2c-3.6-6.2-2.7-9.1-1.8-18.3c0.7-7.5,11.6-41.7,11.6-41.7l-15.9-2.7
						c0,0-4.8,27.3-10,31.5c-2.8,2.3-6,2.3-8.7,3.9c-0.2,0.1-0.4,0.2-0.6,0.4C873.8,833.8,872.2,834.8,871,836.2z"/>
					<path class="st15" d="M871,836.2c-1.2,1.4-1.4,3-0.8,4.7c1.4,3.1,5,6.6,9.2,10c0.5,0.4,1,0.9,1.5,1.2c0.1,0.1,0.2,0.2,0.3,0.3
						s0.2,0.2,0.3,0.2c4,3.7,2.5,4.6,9.8,12.1c8.3,8.6,14,8.7,15.6,8c1.4-0.7-1.4-5.3-4.5-10.3c-1.6-0.6-9.1-3.7-14.7-10.9
						c-5-6.3-8.3-14.5-11.7-19.3c-0.2,0.1-0.4,0.2-0.6,0.4C873.8,833.8,872.2,834.8,871,836.2z"/>
					<path class="st14" d="M998.7,826.3c1,4.9,7.9,4.1,15.8,2.2c7.8-1.9,6,0.4,17-0.9c11.1-1.2,14.4-5.4,14.8-7
						c0.3-1.5-5.2-2-11-2.6c-0.8-0.1-1.5-0.2-2.3-0.3c-6.7-0.9-11.5-5.1-17.5-8.6c-5.7-3.3-14.2-16.9-14.2-16.9l-15.2,1.2
						c0,0,8,12.1,11,17.4c1.8,3.1,1.7,7.2,1.5,10.3C998.5,822.8,998.3,824.6,998.7,826.3z"/>
					<path class="st15" d="M1014.4,828.5c7.8-1.9,6,0.4,17-0.9c11.1-1.2,14.4-5.4,14.8-7c0.3-1.5-5.2-2-11-2.6l-0.1,0.1
						c0,0-6.6,4.7-15.9,4.9c-7.5,0.2-15.5-2-20.7-1.9c-0.1,1.7-0.2,3.5,0.1,5.2C999.7,831.2,1006.7,830.4,1014.4,828.5z"/>
					<path class="st15" d="M940.5,729.1l-14.2,38.2l-18.5,50c0,0-5,0.5-9.9-0.9c-4.5-1.3-9.5-4.7-9.5-4.7s5.1-53.6,14.7-84.4
						c2.5-7.9,5.3-14.3,8.3-17.9C926.2,691.9,940.5,729.1,940.5,729.1z"/>
					<path class="st21" d="M926,668.4c-9.3-3-35.8,0.9-62.5,6.1l-5.6-9.2l-57.6-4.5c0,0-19,42.2-8.6,69c1.5,4,4.6,6.5,9.8,6.6h0.9
						c0,0,34.3,0,45.4,0c28.7,0,60.6-19.7,64.8-20.5c6.8-1.3,9.5,12.2,16.2,26.4c6.8,14.2,63.7,63,63.7,63s8.7,0.1,12.4-1.3
						c3.9-1.5,5.3-3.4,5.3-3.4S947,675.1,926,668.4z"/>
					<path class="st15" d="M855.7,497.4c-7.4-3.9-18.6-4.4-20.4-4.7c-21.8-3-35,28.8-35.7,38.4c-1.5,17.7-10.8,20.4-24,31.5
						c-26.5,22.3-18.7,48.1-4.2,57.7c8.7,5.8,24,0,24,0c0.2,0.2,41.8-23.3,62.3-34.6C888.3,581.5,874.5,507.3,855.7,497.4z"/>
					<path class="st14" d="M840.4,576.2c0.1,0-10.1,3.5-16.9,0.5c-6.4-2.8-11.3-13.3-11.2-13.4c2.9-0.2,6.1-2.7,8.6-19.4l1.2,0.4
						l20.8,7.5c0,0-1.5,6.7-2.5,13.1C839.7,570.3,839.3,575.5,840.4,576.2z"/>
					<path class="st17" d="M843,552c0,0-1.5,6.7-2.5,13.1c-12-2.1-16.7-14.1-18.4-20.6L843,552z"/>
					<path class="st14" d="M846.1,558.5c0,0-28.6-3.9-25.9-21.6s0.8-30.2,19.1-28.5s20.8,9,21.4,15.1
						C861.3,529.8,853.6,559.1,846.1,558.5z"/>
					<path class="st15" d="M859.7,513.9c0,0-18.3,15.8-30.7,17c-12.4,1.3-17.2-2.7-17.2-2.7s7.3-6.1,11.7-15.9
						c1.3-2.9,4.1-4.9,7.2-5.1C839.6,506.4,856.5,506,859.7,513.9z"/>
					<path class="st15" d="M848.3,512.5c0,0,6.1,5.9,8,10.3c1.9,4.2,2.4,14.4,1,18.4c0,0,9.5-18.5,4.1-27.5
						C855.7,504.1,848.3,512.5,848.3,512.5z"/>
					<path class="st20" d="M864.4,618.3c-0.9,57.8-0.2,45.7-6.5,51.2c-1.5,1.3-5.8,2.1-11.4,2.5c-17.7,1.2-48.9-1.8-50-5
						c-4.1-11.3-1.2-14.8-4.6-32.2c-0.4-1.8-0.8-3.9-1.3-6c-2.8-11.9-5.6-16,4.5-35.1c9.2-17.3,18.7-31.4,19.5-30.9
						c24.1,14.3,26.1,2.3,26.1,2.3S864.8,590.1,864.4,618.3z"/>
					<path class="st21" d="M926.2,767.3l-18.5,50c0,0-5,0.5-9.9-0.9c-4.5-1.3-9.5-4.7-9.5-4.7s5.1-53.6,14.7-84.4L926.2,767.3z"/>
					<path class="st20" d="M840.5,565c0,0,24.8,4.2,27.8,14.9c2.9,10.7,20.1,73.5,20.1,73.5s-12.7,2.3-18.4-3.6
						c-5.8-5.8-20.3-54.1-20.3-54.1L840.5,565z"/>
					<path class="st23" d="M846.4,672c-17.7,1.2-48.9-1.8-50-5c-4.1-11.3-1.2-14.8-4.6-32.2l8.5-24.1c0,0-1.4,26.8,6.5,33.9
						c7.9,7.1,32.4,13.6,36.2,19.5C844.8,666.9,846.1,669.7,846.4,672z"/>
					<path class="st14" d="M826.1,660.7c0,0,17.5-3.9,20.3-2.4s9.7,7.2,10.5,9.2c0.9,2-6.3-1.5-8.6-2.1c-1.5-0.4-5.5,1-7.5,1.6
						c-8.3,2.7-13.3,1.3-13.3,1.3L826.1,660.7z"/>
					<path class="st20" d="M814.4,562.7c0,0-23.5,1.5-31.6,12.8c-11.4,16-34.1,83.9-21.1,93.1c14.6,10.2,66.7,2.7,66.7,2.7
						s1.7-8.1-0.7-12s-41.5-10.2-43.3-12.1S807,612,807,606.6C806.9,601.1,814.4,562.7,814.4,562.7z"/>
					<path class="st14" d="M847.2,663.2c0,0,3.6,4.7,4.9,5.3c1.2,0.6,2,0.4,2,0.4l-2.5-4.5L847.2,663.2z"/>
					<path class="st14" d="M846.4,658.4l10.7,5.2c0,0-0.4,0.8-1.8,0.7c-1.3,0-4.6-1.3-4.6-1.3L846.4,658.4z"/>
					<path class="st20" d="M852.1,675.8h84.2l25.3-63h-84.1L852.1,675.8z"/>
					<path class="st20" d="M937.3,673.3H826.1v2.5h110.2L937.3,673.3z"/>
					<path class="st20" d="M915.1,644.3c0.6-2.2-0.6-4-2.8-4s-4.5,1.8-5.1,4s0.6,4,2.8,4S914.4,646.5,915.1,644.3z"/>
					<path class="st4" d="M1292.1,876.4h0.3c1.4,0,2.6-1.2,2.6-2.8l-3.9-178.9l-11.5-1.5l9.8,180.4
						C1289.4,875.1,1290.6,876.4,1292.1,876.4z"/>
					<path class="st4" d="M826.5,876.4h-0.3c-1.5,0-2.6-1.2-2.6-2.8l3.9-178.9l11.5-1.5l-9.8,180.4
						C829.2,875.1,828,876.4,826.5,876.4z"/>
					<path class="st4" d="M1305.9,697.9H814.6c-4,0-7.3-3.3-7.3-7.3v-7c0-4,3.3-7.3,7.3-7.3h491.3c4,0,7.3,3.3,7.3,7.3v7
						C1313.2,694.7,1309.9,697.9,1305.9,697.9z"/>
					<path class="st2" d="M707.5,369.7c-1.9-45.9,36.7-66.4,76-66.4s82.2,10.2,85.9,71.3c2.4,39.3-18.5,63.5-78.9,63.5
						c-20.4,0-36.2-3.2-48.2-9L712.1,456l14.8-37C713.9,406.7,708.3,389.5,707.5,369.7z"/>
					<path class="st15" d="M1602.2,876.2c0,0,1.1-8.6,3.7-13.8c2.6-5.1,18.9-1.9,18.9-1.9s3.3,2.8,4,15.9L1602.2,876.2z"/>
					<path class="st15" d="M1546.6,876.1c3.9-2.4,1.7-19.8,1.7-19.8s-17.9-14.3-20.3-3.4s-17,15.9-25.2,17.2c-5.7,0.9-7.4,4.1-8,6
						H1546.6L1546.6,876.1L1546.6,876.1z"/>
					<path class="st21" d="M1583.6,749c-0.8,4-1.2,7.3-1.3,9.7c-1.7,32.4-27.3,106.6-31.9,108.3c-7.1,2.7-18.3-3-24.1-4.9
						c-2.4-0.8-4.1-3.2-3.5-5.7c12.7-58.3,17.4-142.4,19-192.1c0.9-25,5.1-42.3,5.1-42.3s62.5-16.7,62.9,4.4
						C1610.2,645,1589.2,718.2,1583.6,749z"/>
					<path class="st21" d="M1583.6,749l-41.7-84.8c0.9-25,5.1-42.3,5.1-42.3s62.5-16.7,62.9,4.4C1610.2,645,1589.2,718.2,1583.6,749
						z"/>
					<path class="st18" d="M1569.7,626.4l33,239.5c0,0,14.5,3.5,25.8,0.7c0,0,9.7-127.4,8.8-158.1c-0.8-30.8,6.9-82.4-1.8-88.1
						C1626.9,614.6,1569.7,626.4,1569.7,626.4z"/>
					<path class="st29" d="M1642,622.4c0.2,2.1-1.2,4.1-3.3,4.7c-4.6,1.3-9.9,2.3-20.2,4.4c-9.7,2-22.6,3.8-38.5,3.9
						c-25.3,0.2-34.9-8.6-34.9-8.6c-1.1,0,0.6-5.3,2.1-30.5c0.5-8.5,1-19.3,1.3-33c0.3-12.3,0.5-26.9,0.5-44.2
						c0.1-20.9,32.3-43.3,32.9-43.3c0,3,4.7,8.5,12,9c8.6,0.6,19.2-3.8,19.2-8.7c0,0,15.7,25,21.2,51.7
						C1637.4,541.3,1636.2,541,1642,622.4z"/>
					<path class="st29" d="M1582.1,475.8c0,0-30-0.3-37.2,9.9c-7.2,10.1-23,64.6-14.8,82.8c8.3,18.1,23.7-7.5,32.3-18.6
						C1571,538.8,1582.1,475.8,1582.1,475.8z"/>
					<path class="st14" d="M1581.8,471.3v3.1c0,0-0.9,9.7,11.1,11.1c11.9,1.5,20.8-1.8,20.5-9.3c-1.1-5.8-2.1-11.7-2.1-16.6
						c-0.1-1.8,0.1-3.6,0.4-5.8l-23.2-0.5l-6.8,1.1L1581.8,471.3z"/>
					<path class="st30" d="M1581.7,454.5l0.1,16.8c2.5,1.1,5.3,1.8,8.4,1.8c10.7,0,17.5-7.8,21.1-13.5c-0.1-1.8,0.1-3.6,0.4-5.8
						l-23.2-0.5L1581.7,454.5z"/>
					<path class="st14" d="M1613.4,450.1c-2.7,14.5-21.3,14-29.4,13.1c-2.3-0.3-3.7-0.5-3.7-0.5c-2.6-0.7-4-4.7-4.7-10
						c-1.3-10.5,0.3-25.8,2.1-29.7c2.6-5.9,7.7-12.3,26.4-7.7C1623,419.9,1616.8,431.6,1613.4,450.1z"/>
					<path class="st31" d="M1551.4,516.5c0,0-11.6,25.6-11.3,33.3c0,0,5.7-0.2,11.3,1.5C1560.5,554,1551.4,516.5,1551.4,516.5z"/>
					<path class="st15" d="M1572,409.2c0,0,8.3-0.6,18-4.9c7.9-3.4,17.9,0.4,21.1,2c-0.1-0.5-0.3-1.2-0.8-1.9c0,0,1.4,1,1.7,2.5
						c0.2,0.1,0.2,0.2,0.2,0.2s1.7-0.3,2.7,0.2c0,0-0.8-0.1-1,0.4c-0.1,0.1-0.1,0.1-0.1,0.2c12.3,6,13.5,25.5,9.5,30
						c-4.8,5.4-12,17.7-12,17.7s-0.6-3,0.3-7.7s-3.3-4.8-8.5-7s-0.9-8.3-5.4-12c-4.6-3.7-21.3-1.5-21.1-4.3
						C1570.4,422.2,1572,409.8,1572,409.2z"/>
					<path class="st31" d="M1617.2,564.5c-4.9,19.7-57.9,29.9-69.9,31.9c0.5-8.5,1-19.3,1.3-33L1617.2,564.5z"/>
					<path class="st14" d="M1605.6,570.9c0.5,0,11.8-1.7,13.8-2.7s11.3-14.2,5.2-17.5s-22.3,10.1-22.3,10.1L1605.6,570.9z"/>
					<path class="st29" d="M1537,574.7c0,0,43.6,2.4,72.8-3.9c0,0,0.8-8.5-8.5-12.2c0,0-45.6-9.7-56.5-7
						C1533.9,554.4,1537,574.7,1537,574.7z"/>
					<path class="st29" d="M1637.1,540.5c-9.1,10.9-20.8,19.8-33.9,21.9c-0.1-0.2-4-6-3.2-14.6c0.3-4,1.7-8.5,4.8-13.3
						c1-1.5,1.8-3.2,2.6-5.2c7.1-18.2,6.1-53.2,6.1-53.2s30.2,3.2,39.7,16.6C1658.8,501,1651.4,523.3,1637.1,540.5z"/>
					<path class="st30" d="M1584,463.2c-2.3-0.3-3.7-0.5-3.7-0.5c-2.6-0.7-4-4.7-4.7-10c4.8,1.2,7,4.9,7.9,6.5
						C1584,459.8,1584.1,461.4,1584,463.2z"/>
					<path class="st14" d="M1571.8,471.3c0,0-10.4-17.3-2.3-18c8.1-0.8,11.4,4.8,12.5,6.8c1.2,2-0.3,11.1-0.3,11.1L1571.8,471.3z"/>
					<path class="st29" d="M1611.6,547.3c-0.3,2.2-1,4.2-1.8,6c-2.6,5.7-6.6,9.2-6.6,9.2c-27.1-12.2-32.6-54.3-33.6-77.4
						c-0.4-9.3,0-15.5,0-15.5c12.2-4.1,15.7,3,15.7,3s14.4,34.4,21.9,56.8C1610.1,537.9,1612,544.8,1611.6,547.3z"/>
					<path class="st31" d="M1637.1,540.5c-9.1,10.9-20.8,19.8-33.9,21.9c-27.1-12.2-32.6-54.3-33.6-77.4c0,0,12.8,46.5,30.3,62.8
						c3.2,3,6.5,4.9,9.9,5.4c0,0,22-6.2,26.6-12.1C1636.8,540.8,1637,540.6,1637.1,540.5z"/>
					<path class="st21" d="M1143.2,676.4H1059l-25.3-63h84.1L1143.2,676.4z"/>
					<path class="st21" d="M1058,673.9h111.2v2.5H1059L1058,673.9z"/>
					<path class="st5" d="M1080.2,644.9c-0.7-2.2,0.6-4,2.8-4s4.5,1.8,5.1,4s-0.6,4-2.8,4C1083.2,648.9,1080.9,647,1080.2,644.9z"/>
					<path class="st32" d="M1826.5,874.8v0.5c0,0.9-0.8,1.5-1.8,1.5H279.6c-1,0-1.8-0.7-1.8-1.5v-0.5c0-0.9,0.8-1.5,1.8-1.5h1545.1
						C1825.7,873.2,1826.5,873.9,1826.5,874.8z"/>
				</g>
			</g>
		</g>
	</g>
</g>
<g>
	<path class="st29" d="M1456.1,965.1l4.7-10.6c5.9,4.7,15.3,8.1,24.3,8.1c11.5,0,16.3-4.1,16.3-9.6c0-15.9-43.8-5.5-43.8-32.9
		c0-11.9,9.5-22,29.7-22c8.8,0,18.1,2.3,24.6,6.5l-4.3,10.6c-6.6-3.9-13.9-5.8-20.3-5.8c-11.4,0-16,4.4-16,10
		c0,15.7,43.7,5.5,43.7,32.6c0,11.8-9.6,21.9-29.8,21.9C1473.7,974,1462.2,970.4,1456.1,965.1z"/>
	<path class="st29" d="M1561.2,969.9c-3.2,2.5-7.9,3.8-12.7,3.8c-12.3,0-19.4-6.5-19.4-19v-27.1h-9.3v-10.5h9.3v-12.9h13.2v12.9
		h15.1v10.5h-15.1v26.8c0,5.5,2.7,8.4,7.8,8.4c2.7,0,5.4-0.7,7.4-2.3L1561.2,969.9z"/>
	<path class="st29" d="M1622.8,949h-44.2c1.6,8.2,8.4,13.5,18.2,13.5c6.3,0,11.3-2,15.3-6.1l7.1,8.1c-5.1,6-13,9.2-22.7,9.2
		c-18.9,0-31.1-12.1-31.1-28.9s12.3-28.8,29.1-28.8c16.4,0,28.4,11.5,28.4,29.1C1623,946.2,1622.9,947.8,1622.8,949z M1578.6,940.3
		h31.9c-1.1-8.1-7.3-13.7-15.9-13.7C1586.1,926.6,1579.8,932,1578.6,940.3z"/>
	<path class="st29" d="M1695.4,944.8c0,17.5-12.1,28.9-28.6,28.9c-7.2,0-13.5-2.4-18-7.6v27.3h-13.2v-76.7h12.5v7.4
		c4.4-5.4,11-8,18.7-8C1683.3,916,1695.4,927.4,1695.4,944.8z M1682.1,944.8c0-10.8-7.2-17.6-16.7-17.6s-16.8,6.8-16.8,17.6
		s7.3,17.6,16.8,17.6S1682.1,955.5,1682.1,944.8z"/>
	<path class="st29" d="M1786.5,961.3v11.6h-54.4v-9.2l29.3-27.8c7.2-6.8,8.4-11.2,8.4-15.3c0-6.7-4.6-10.6-13.7-10.6
		c-7.2,0-13.2,2.4-17.3,7.7l-9.6-7.4c5.7-7.7,15.9-12.2,28-12.2c16,0,26.3,8.1,26.3,21.2c0,7.2-2,13.7-12.2,23.3l-19.7,18.8
		L1786.5,961.3L1786.5,961.3z"/>
</g>
<g>
	<path class="st33" d="M333.1,125.4c0,16.2-12,26.2-31.4,26.2H285v21.3h-13.7V99.2h30.4C321.1,99.2,333.1,109.1,333.1,125.4z
		 M319.3,125.4c0-9.3-6.2-14.7-18.2-14.7h-16V140h16C313.1,140.1,319.3,134.7,319.3,125.4z"/>
	<path class="st33" d="M377.6,116v12.5c-1.2-0.2-2.1-0.3-3.1-0.3c-10,0-16.3,5.9-16.3,17.4v27.3H345v-56.3h12.5v8.2
		C361.3,119,368.2,116,377.6,116z"/>
	<path class="st33" d="M383.6,144.8c0-16.9,12.6-28.8,29.9-28.8c17.5,0,30,11.9,30,28.8s-12.5,28.9-30,28.9
		C396.2,173.7,383.6,161.7,383.6,144.8z M430.3,144.8c0-10.8-7.2-17.6-16.8-17.6c-9.5,0-16.6,6.8-16.6,17.6s7.2,17.6,16.6,17.6
		C423.1,162.4,430.3,155.6,430.3,144.8z"/>
	<path class="st33" d="M451.5,144.8c0-16.9,12.6-28.8,29.9-28.8c17.5,0,30,11.9,30,28.8s-12.5,28.9-30,28.9
		C464.2,173.7,451.5,161.7,451.5,144.8z M498.2,144.8c0-10.8-7.2-17.6-16.8-17.6c-9.5,0-16.6,6.8-16.6,17.6s7.2,17.6,16.6,17.6
		C491,162.4,498.2,155.6,498.2,144.8z"/>
	<path class="st33" d="M538.7,113.7v3.4h15.5v10.5h-15.1v45.3h-13.2v-45.3h-9.3v-10.5h9.3v-3.6c0-11.8,7.1-19.5,20.1-19.5
		c4.5,0,9,0.9,11.9,3.1l-3.7,9.9c-2-1.4-4.5-2.3-7.3-2.3C541.5,104.7,538.7,107.7,538.7,113.7z"/>
	<path class="st33" d="M587.5,144.8c0-16.9,12.7-28.8,29.9-28.8c17.5,0,30,11.9,30,28.8s-12.5,28.9-30,28.9
		C600.1,173.7,587.5,161.7,587.5,144.8z M634.2,144.8c0-10.8-7.2-17.6-16.8-17.6c-9.5,0-16.7,6.8-16.7,17.6s7.2,17.6,16.7,17.6
		C627,162.4,634.2,155.6,634.2,144.8z"/>
	<path class="st33" d="M674.6,113.7v3.4h15.5v10.5H675v45.3h-13.2v-45.3h-9.3v-10.5h9.3v-3.6c0-11.8,7.1-19.5,20.1-19.5
		c4.5,0,9,0.9,11.9,3.1l-3.7,9.9c-2-1.4-4.5-2.3-7.3-2.3C677.5,104.7,674.6,107.7,674.6,113.7z"/>
	<path class="st33" d="M266.1,262.5c0-22,16.9-37.9,39.5-37.9c12,0,22.3,4.3,29.2,12.3l-8.9,8.3c-5.4-5.8-12-8.6-19.7-8.6
		c-15.3,0-26.3,10.8-26.3,25.9c0,15.2,11.1,25.9,26.3,25.9c7.7,0,14.3-2.9,19.7-8.8l8.9,8.4c-6.9,8-17.2,12.3-29.3,12.3
		C282.9,300.5,266.1,284.5,266.1,262.5z"/>
	<path class="st33" d="M339.9,271.3c0-16.9,12.6-28.8,29.9-28.8c17.5,0,30,11.9,30,28.8s-12.5,28.9-30,28.9
		C352.6,300.1,339.9,288.1,339.9,271.3z M386.6,271.3c0-10.8-7.2-17.6-16.8-17.6c-9.5,0-16.6,6.9-16.6,17.6s7.2,17.6,16.6,17.6
		C379.5,288.9,386.6,282,386.6,271.3z"/>
	<path class="st33" d="M468,267.1v32.3h-13.2v-30.6c0-10-5-14.9-13.4-14.9c-9.4,0-15.7,5.7-15.7,17v28.5h-13.2v-56.3H425v7.3
		c4.3-5.2,11.2-7.9,19.4-7.9C458,242.5,468,250.2,468,267.1z"/>
	<path class="st33" d="M480.6,271.3c0-16.9,12.6-28.8,30.5-28.8c11,0,19.7,4.5,24,13.1l-10.1,5.9c-3.4-5.4-8.4-7.8-14-7.8
		c-9.7,0-17.1,6.7-17.1,17.6c0,11,7.4,17.6,17.1,17.6c5.6,0,10.6-2.4,14-7.8l10.1,5.9c-4.3,8.4-13.1,13.2-24,13.2
		C493.3,300.1,480.6,288.1,480.6,271.3z"/>
	<path class="st33" d="M598.3,275.5h-44.2c1.6,8.2,8.4,13.5,18.2,13.5c6.3,0,11.3-2,15.3-6.1l7.1,8.1c-5.1,6-13,9.2-22.7,9.2
		c-18.9,0-31.1-12.1-31.1-28.9s12.3-28.8,29.1-28.8c16.4,0,28.5,11.5,28.5,29.1C598.5,272.6,598.4,274.2,598.3,275.5z M554.1,266.7
		H586c-1-8.1-7.3-13.7-15.9-13.7C561.5,253,555.3,258.5,554.1,266.7z"/>
	<path class="st33" d="M670.9,271.3c0,17.5-12.1,28.9-28.6,28.9c-7.2,0-13.5-2.4-18-7.6v27.3h-13.2v-76.7h12.5v7.4
		c4.4-5.4,11-8,18.7-8C658.8,242.5,670.9,253.9,670.9,271.3z M657.5,271.3c0-10.8-7.2-17.6-16.7-17.6s-16.8,6.9-16.8,17.6
		s7.3,17.6,16.8,17.6C650.4,288.9,657.5,282,657.5,271.3z"/>
	<path class="st33" d="M717.3,296.3c-3.2,2.5-7.9,3.8-12.7,3.8c-12.3,0-19.4-6.5-19.4-19V254H676v-10.5h9.3v-12.9h13.2v12.9h15.1
		V254h-15.1v26.8c0,5.5,2.7,8.4,7.8,8.4c2.7,0,5.4-0.7,7.4-2.3L717.3,296.3z"/>
</g>
</svg>
