<?xml version="1.0" encoding="utf-8"?>
<!-- Generator: Adobe Illustrator 23.0.1, SVG Export Plug-In . SVG Version: 6.00 Build 0)  -->
<svg version="1.1" id="Layer_1" xmlns="http://www.w3.org/2000/svg" xmlns:xlink="http://www.w3.org/1999/xlink" x="0px" y="0px"
	 viewBox="0 0 3500 1264" style="enable-background:new 0 0 3500 1264;" xml:space="preserve">
<style type="text/css">
	.st0{fill:none;stroke:#EFB76C;stroke-width:23;stroke-linecap:round;stroke-linejoin:round;}
	.st1{fill:#EBEBEB;}
	.st2{fill:#C9C9C9;}
	.st3{fill:#007477;}
	.st4{fill:#00858E;}
	.st5{fill:#FFC93C;}
	.st6{fill:#FFB27D;}
	.st7{fill:#E2915A;}
	.st8{fill:#EDB22F;}
	.st9{fill:#263238;}
	.st10{fill:#163560;}
	.st11{fill:#F9DDBF;}
	.st12{fill:#F4A269;}
	.st13{fill:#2E3552;}
	.st14{fill:#FFFFFF;}
	.st15{fill:#FFEAC5;}
	.st16{fill:#F2CCAA;}
	.st17{fill:#E8945B;}
	.st18{fill:#B5453C;}
	.st19{fill:#95C0F4;}
	.st20{fill:#B0D4FF;}
	.st21{fill:#ED975D;}
	.st22{fill:#EBF3FA;}
	.st23{fill:#EFB76C;}
</style>
<path class="st0" d="M3500,263c-16.2,20.1-33.1,39.4-50.8,57.5C3360.3,411.6,3254,453.2,3151,496
	c-153.3,63.6-310.9,98.2-467.1,143.1C2326.3,742.1,1969.4,841.8,1620,996c-129.9,57.4-278.1,134-404.8,248.2
	c-4.5,4-23.2,20.7-27.6,24.9"/>
<g>
	<path class="st1" d="M2826,254.5l-13.9-0.6h-0.4c-1.7-0.1-3.2,1.1-3.4,2.8l-1.8,11.5c-0.1,0.2-0.1,0.4-0.1,0.5
		c-0.4,1.2-1.5,2.1-2.8,2.2c-7.7,0.6-15.2,2.8-22.1,6.4c-0.3,0.1-0.6,0.3-0.9,0.3c-1.1,0.2-2.3-0.2-3.1-1l-6.4-7.3
		c-0.9-1-2.2-1.3-3.4-1c-0.4,0.1-0.8,0.3-1,0.5L2755,277c-1.4,1-1.9,3-1,4.5l6.5,11.2c0.6,1.1,0.6,2.5-0.1,3.5
		c-1.1,1.5-2,3.1-2.9,4.7c-1.7,3.1-3,6.2-4.1,9.4c-0.4,1.3-1.6,2.2-3,2.3l-13.1,0.5h-0.6c-1.7,0-3.1,1.4-3.1,3.1l-0.6,14.3
		c-0.1,1.7,1.1,3.3,2.9,3.5l12.8,2c1.4,0.2,2.5,1.3,2.8,2.7c1.1,5.9,3,11.7,5.8,17c0.7,1.3,0.4,3-0.8,4l-8.7,7.6
		c-1.3,1.1-1.5,3.1-0.6,4.5l8.2,11.8c1,1.4,2.8,1.8,4.3,1l13.1-7.6c1.1-0.6,2.5-0.6,3.6,0.1c1.3,0.9,2.7,1.7,4.1,2.5
		c2.7,1.5,5.4,2.7,8.2,3.7c1.2,0.5,2.1,1.6,2.2,2.9l0.6,15.8c0.1,1.7,1.4,3.1,3.2,3.2l14.3,0.6c1.5,0,2.9-1,3.3-2.3
		c0.1-0.1,0.1-0.3,0.1-0.5l2.2-14.3c0.2-1.3,1.1-2.4,2.4-2.7c0.1,0,0.3,0,0.4-0.1c0.4,0,0.7-0.1,1.1-0.2c4.1-0.7,8.1-1.8,12-3.4
		c1.3-0.5,2.8-0.1,3.7,0.9l8,9.2c1.1,1.3,3.1,1.5,4.5,0.5l2.6-1.8l9.1-6.4c1.4-1,1.8-2.9,1-4.4l-6.4-11c-0.7-1.2-0.6-2.6,0.3-3.7
		c2.3-2.7,4.3-5.8,6.1-9.1c1.4-2.4,2.5-4.9,3.4-7.4l2.7-0.1l11.3-0.5c1.4,0,2.6-1,3-2.3c0.1-0.3,0.1-0.5,0.1-0.9l0.7-14.4
		c0.1-1.7-1.1-3.2-2.8-3.4l-8.8-1.3c-1.5-0.3-2.6-1.4-2.8-2.9c-0.6-6.2-2.1-12.2-4.6-17.9c-0.6-1.3-0.3-2.9,0.9-3.8l11-9.6
		c1.2-1.1,1.4-2.9,0.5-4.2l-8.3-11.9c-1-1.4-2.9-1.8-4.3-1l-13.7,7.9c-1.2,0.7-2.6,0.6-3.7-0.3c-2.3-1.8-4.8-3.4-7.5-4.9
		c-1.4-0.8-2.9-1.5-4.3-2.2c-1.1-0.5-1.9-1.6-2-2.9l-0.6-15.1C2829.2,256,2827.8,254.6,2826,254.5z M2782.7,310.6
		c2.2-3.1,5.1-6.1,8.7-8.6c0.8-0.5,1.6-1,2.6-1.5c4.2-2.1,10-3.5,14.1-3.3c31.4,1.6,42.6,39,17.9,57.6c-0.4,0.3-0.9,0.6-1.3,0.9
		c-3.9,2.8-11.2,4.8-16,4.6c-2.5-0.1-4.9-0.5-7.2-1C2779,354,2770.1,328.5,2782.7,310.6z"/>
	<path class="st2" d="M3015.2,353.8l-21.3-3.6l-0.5-0.1c-2.6-0.5-5.1,1.1-5.8,3.6l-4.9,17.3c-0.1,0.3-0.2,0.5-0.3,0.8
		c-0.9,1.8-2.7,2.9-4.8,2.8c-11.9-0.5-23.9,1.3-35.1,5.5c-0.4,0.1-0.9,0.3-1.4,0.3c-1.8,0.1-3.6-0.8-4.6-2.2l-8.4-12.5
		c-1.1-1.6-3.1-2.4-4.9-2.2c-0.6,0.1-1.1,0.3-1.7,0.5l-19.5,10.3c-2.4,1.3-3.4,4.2-2.4,6.7l7.8,18.4c0.8,1.8,0.4,3.9-0.9,5.4
		c-1.9,2.1-3.6,4.3-5.3,6.7c-3.2,4.4-5.9,8.9-8.2,13.6c-0.9,1.9-2.9,3.1-5.1,2.9l-20.2-1.7l-1-0.1c-2.6-0.3-5,1.6-5.4,4.2l-3.7,21.7
		c-0.4,2.6,1.1,5.2,3.7,6l19.3,5.5c2.1,0.6,3.6,2.5,3.7,4.7c0.5,9.3,2.3,18.5,5.6,27.2c0.8,2.2,0,4.7-1.9,6l-14.7,10
		c-2.2,1.5-2.9,4.4-1.7,6.8l10.3,19.5c1.2,2.3,4,3.3,6.4,2.3l21.6-9.2c1.8-0.8,3.9-0.5,5.5,0.8c1.8,1.6,3.8,3.1,5.8,4.6
		c3.8,2.8,7.8,5.2,11.8,7.3c1.8,1,2.9,2.9,2.7,4.9l-2.1,24.3c-0.2,2.7,1.6,5.1,4.3,5.5l21.8,3.7c2.3,0.4,4.6-0.8,5.5-2.9
		c0.1-0.2,0.2-0.5,0.3-0.7l6.1-21.4c0.6-2,2.2-3.4,4.3-3.7c0.2,0,0.4,0,0.6,0c0.6,0,1.1,0,1.6-0.1c6.4-0.3,12.8-1.3,19-2.9
		c2-0.6,4.3,0.3,5.5,2.1L3013,568c1.5,2.2,4.4,2.9,6.8,1.7l4.3-2.3l15.1-8c2.4-1.3,3.4-4.1,2.3-6.6l-7.7-18.1
		c-0.9-1.9-0.4-4.1,1.2-5.6c4-3.8,7.7-8,11.1-12.7c2.5-3.4,4.7-7.1,6.7-10.7l4.2,0.4l17.4,1.5c2.1,0.2,4.2-1,5-2.9
		c0.2-0.4,0.3-0.8,0.4-1.2l3.8-21.9c0.4-2.6-1.2-5.1-3.7-5.8l-13.1-3.7c-2.2-0.6-3.8-2.7-3.7-5c0.3-9.6-0.9-19.1-3.6-28.2
		c-0.6-2.1,0.1-4.4,2-5.6l18.6-12.6c2.1-1.4,2.8-4.2,1.6-6.4l-10.5-19.7c-1.2-2.3-4-3.3-6.4-2.3l-22.5,9.5c-1.9,0.9-4.1,0.4-5.7-1.1
		c-3.2-3.2-6.7-6.2-10.5-8.9c-2-1.5-4.1-2.9-6.3-4.1c-1.6-1-2.6-2.9-2.5-4.8l2-23.3C3019.7,356.6,3017.9,354.2,3015.2,353.8z
		 M2938.1,431.4c4-4.4,9-8.3,14.9-11.5c1.2-0.7,2.7-1.3,4.3-1.9c6.9-2.4,15.9-3.4,22.2-2.3c47.9,8.5,57.9,67.9,16.3,91.8
		c-0.7,0.4-1.4,0.8-2.1,1.1c-6.6,3.5-18.1,5.3-25.4,4c-3.8-0.6-7.5-1.6-10.8-2.8C2924,497.2,2915.2,456.5,2938.1,431.4z"/>
	<path class="st1" d="M2309.2,508.2c-1.2-29.6,23.7-42.8,49.1-42.8s53.1,6.6,55.4,46c1.5,25.4-11.9,40.9-50.9,40.9
		c-13.1,0-23.3-2.1-31.1-5.8l-19.5,17.3l9.6-23.9C2313.3,532,2309.7,520.9,2309.2,508.2z"/>
	<path class="st3" d="M2067.6,954.7c0,0-1.1-8.2-3.5-13.1s-18-1.8-18-1.8s-3.1,2.6-3.8,15.1L2067.6,954.7z"/>
	<path class="st3" d="M2120.5,954.6c-3.6-2.2-1.6-18.9-1.6-18.9s17-13.6,19.4-3.2c2.3,10.4,16.2,15.1,24.1,16.4
		c5.4,0.9,7.1,3.9,7.6,5.7H2120.5z"/>
	<path class="st4" d="M2085.3,833.7c0.7,3.8,1.1,6.9,1.3,9.2c1.6,30.8,25.9,101.4,30.3,103.1c6.8,2.5,17.4-2.9,23-4.6
		c2.3-0.8,3.8-3,3.3-5.4c-12.1-55.5-16.5-135.5-18.1-182.8c-0.8-23.9-4.9-40.3-4.9-40.3s-59.5-15.9-59.8,4.2
		C2060,734.7,2080,804.4,2085.3,833.7z"/>
	<path class="st3" d="M2085.3,833.7L2125,753c-0.8-23.9-4.9-40.3-4.9-40.3s-59.5-15.9-59.8,4.2C2060,734.7,2080,804.4,2085.3,833.7z
		"/>
	<path class="st4" d="M2098.5,717l-31.4,227.9c0,0-13.8,3.3-24.6,0.7c0,0-9.2-121.2-8.4-150.5c0.8-29.3-6.6-78.4,1.7-83.8
		C2044,705.8,2098.5,717,2098.5,717z"/>
	<path class="st5" d="M2033.6,658.5l-3.9,54.7c-0.2,2,1.2,3.9,3.1,4.5c4.4,1.3,9.5,2.1,19.2,4.2c9.2,1.9,21.5,3.6,36.6,3.7
		c24.1,0.2,33.2-8.2,33.2-8.2c1.1,0-0.6-5-2-29c-0.5-8.1-0.9-18.4-1.3-31.4c-0.3-11.7-0.5-25.6-0.6-42.1
		c-0.1-19.8-30.7-41.2-31.3-41.2c0,2.8-4.5,8.1-11.5,8.6c-8.2,0.5-18.3-3.5-18.3-8.3c0,0-14.9,23.8-20.2,49.2
		c-0.7,3.2-1.2,6.6-1.6,10.2c0,0,0,0.1,0,0.2c-0.1,0.7-0.2,1.3-0.2,2c0,0.1,0,0.3-0.1,0.3c-0.1,0.6-0.1,1.2-0.2,1.8
		c0,0.2-0.1,0.3-0.1,0.5c-0.1,0.5-0.1,1.1-0.2,1.7c0,0,0,0.1,0,0.2c-0.1,0.4-0.1,0.8-0.1,1.3c0,0.3-0.1,0.6-0.1,0.9
		c-0.1,0.5-0.1,1-0.1,1.5c0,0.3-0.1,0.5-0.1,0.8c-0.1,0.5-0.1,0.9-0.1,1.5c0,0.2-0.1,0.5-0.1,0.6c-0.1,0.7-0.1,1.4-0.1,2.1
		c0,0,0,0.1,0,0.2c-0.1,0.7-0.1,1.3-0.1,2c0,0.2,0,0.3,0,0.5c-0.1,0.7-0.1,1.3-0.1,1.9c0,0.1,0,0.2,0,0.3
		C2033.7,655.2,2033.6,656.8,2033.6,658.5C2033.6,658.5,2033.6,658.6,2033.6,658.5L2033.6,658.5z"/>
	<path class="st5" d="M2086.7,573.7c0,0,28.5-0.3,35.4,9.4s22,61.5,14.1,78.8c-7.9,17.2-22.6-7.1-30.7-17.7
		C2097.3,633.6,2086.7,573.7,2086.7,573.7z"/>
	<path class="st6" d="M2087,569.4v2.9c0,0,0.8,9.2-10.6,10.6c-11.4,1.3-19.8-1.8-19.5-8.9c1.1-5.5,1.9-11.2,2-15.7
		c0.1-1.7-0.1-3.5-0.4-5.5l22-0.5l6.5,1V569.4z"/>
	<path class="st7" d="M2087.1,553.4l-0.1,16c-2.3,1.1-5,1.7-7.9,1.7c-10.1,0-16.7-7.4-20.1-12.8c0.1-1.7-0.1-3.5-0.4-5.5l22-0.5
		L2087.1,553.4z"/>
	<path class="st6" d="M2056.9,549.2c2.5,13.8,20.3,13.3,28,12.5c2.1-0.3,3.5-0.5,3.5-0.5c2.4-0.7,3.8-4.5,4.4-9.5
		c1.3-10-0.4-24.5-2-28.2c-2.5-5.6-7.3-11.7-25.1-7.3C2047.8,520.5,2053.6,531.6,2056.9,549.2z"/>
	<path class="st8" d="M2115.9,612.4c0,0,11.1,24.4,10.7,31.7c0,0-5.5-0.2-10.7,1.4C2107.3,648,2115.9,612.4,2115.9,612.4z"/>
	<path class="st9" d="M2096.3,510.3c0,0-7.9-0.6-17.1-4.6c-7.5-3.3-17,0.4-20.1,1.9c0.1-0.5,0.3-1.2,0.8-1.8c0,0-1.4,1-1.6,2.3
		c-0.1,0.1-0.2,0.2-0.1,0.2c0,0-1.6-0.3-2.6,0.1c0,0,0.7-0.1,0.9,0.4c0.1,0,0.1,0.1,0.1,0.1c-11.8,5.7-12.8,24.3-9.1,28.5
		c4.5,5.2,10,16.8,10,16.8s2-2.7,1.1-7.3c-0.9-4.5,3.1-4.5,8.1-6.6s0.9-7.9,5.2-11.4s20.3-1.5,20.1-4.1
		C2097.8,522.7,2096.3,510.9,2096.3,510.3z"/>
	<path class="st8" d="M2053.3,658c4.7,18.7,55.1,28.4,66.6,30.4c-0.5-8.1-0.9-18.4-1.3-31.4L2053.3,658z"/>
	<path class="st6" d="M2064.4,664.2c-0.5,0-11.2-1.6-13.1-2.5c-1.9-1-10.7-13.5-4.9-16.6s21.2,9.6,21.2,9.6L2064.4,664.2z"/>
	<path class="st5" d="M2129.6,667.8c0,0-41.5,2.2-69.3-3.7c0,0-0.7-8.1,8.1-11.6c0,0,43.4-9.2,53.8-6.6
		C2132.6,648.4,2129.6,667.8,2129.6,667.8z"/>
	<path class="st5" d="M2034.3,635.3c8.6,10.4,19.9,18.9,32.3,20.9c0.1-0.2,3.7-5.7,3.1-13.8c-0.3-3.8-1.5-8.1-4.5-12.7
		c-0.9-1.4-1.7-3.1-2.4-4.9c-6.8-17.3-5.8-50.6-5.8-50.6s-28.8,3-37.8,15.8C2013.7,597.7,2020.7,618.9,2034.3,635.3z"/>
	<path class="st7" d="M2084.9,561.7c2.1-0.3,3.5-0.5,3.5-0.5c2.4-0.7,3.8-4.5,4.4-9.5c-4.6,1.2-6.7,4.6-7.5,6.2
		C2084.9,558.5,2084.8,560,2084.9,561.7z"/>
	<path class="st6" d="M2096.5,569.4c0,0,10-16.4,2.2-17.1c-7.7-0.7-10.9,4.5-11.9,6.4c-1.1,1.9,0.3,10.6,0.3,10.6L2096.5,569.4z"/>
	<path class="st5" d="M2058.6,641.7c0.3,2.1,0.9,4,1.7,5.7c2.4,5.4,6.3,8.7,6.3,8.7c25.8-11.7,31-51.7,31.9-73.7
		c0.4-8.8,0-14.7,0-14.7c-11.7-3.8-14.9,2.8-14.9,2.8s-13.8,32.7-20.9,54.1C2060,632.8,2058.2,639.3,2058.6,641.7z"/>
	<path class="st8" d="M2034.3,635.3c8.6,10.4,19.9,18.9,32.3,20.9c25.8-11.7,31-51.7,31.9-73.7c0,0-12.2,44.3-28.8,59.8
		c-3,2.8-6.2,4.7-9.4,5.1c0,0-21-5.9-25.3-11.5C2034.6,635.5,2034.4,635.3,2034.3,635.3z"/>
	<path class="st1" d="M2858.6,778.1c0,0,16.4-19.2,0.9-31.4c0,0-11.3-6.8-20.5-6.2c0,0,13.1,21.8,8.9,24
		c-4.2,2.2-12.9-25.4-12.9-25.4s-25.6-2.4-33.9,1.6c0,0,22,17.9,17.4,19s-28.4-16.5-28.4-16.5s-23.9,4.1-22.6,18.7s9.6,19,13.2,18.6
		s24.8-8.5,25.2-5.6s-12.3,12.7-21.2,13.2c0,0,16.9,18.5,28.1,13.2c11.2-5.4,12.1-13.9,19.1-17.1c7-3.2,12.9-3.2,10.1,0
		c-2.8,3.3-15.5,6.5-19.5,13.5c-4,7.1-7.5,11.8,4,10.1c11.6-1.8,30.4-10.3,31.2-20C2858.6,778.1,2858.6,778.1,2858.6,778.1z"/>
	<path class="st1" d="M2779.3,762.2c0,0,64.9-2.7,79.3,15.8c0,0,3.2,9.5,12.9,18.1l1.5,4.1c0,0-11.3-11.8-15.3-12.5
		C2857.8,787.8,2864,764.8,2779.3,762.2z"/>
	<path class="st1" d="M2871.5,796.2c0,0,13.9,10.3,15,28.6l-2.5,0.3c0,0-4.5-19-12.6-26.5C2863.3,791.2,2871.5,796.2,2871.5,796.2z"
		/>
	<path class="st1" d="M2945.6,727.3c0,0-26.2-14.6-14.1-34.5c0,0,9.8-12.3,20.2-15.4c0,0-5.5,29.7,0.1,30.4s3.7-33.5,3.7-33.5
		s27.5-13.3,38.4-12.3c0,0-17,29-11.5,28.3s24.7-30.1,24.7-30.1s28.2-5.3,32.8,11.4s-2.7,25.2-6.9,26.2s-31.1,0.8-30.3,4.3
		c0.7,3.5,18.9,9,29,5.9c0,0-11.1,27.6-25.8,26.3c-14.6-1.3-19.2-10.4-28.3-11.1c-9.1-0.7-15.7,1.8-11.2,4.2s19.9,0.8,27.3,7
		s13.3,10-0.3,12.8s-38.1,1.2-42.9-9.3C2945.6,727.3,2945.6,727.3,2945.6,727.3z"/>
	<path class="st1" d="M3027.1,676.8c0,0-73.2,24-81.5,50.5c0,0,0.4,11.8-6.9,25.5v5.2c0,0,7.6-17.8,11.8-20.3
		C2950.5,737.8,2934,714.8,3027.1,676.8z"/>
	<path class="st1" d="M2938.7,752.8c0,0-11.3,17.2-4.7,38l2.9-0.8c0,0-2.9-23,3-34.6C2945.7,743.9,2938.7,752.8,2938.7,752.8z"/>
	<path class="st1" d="M2903.8,707.2c0,0,34.5-19.4,18.3-45.6c0,0-12.9-16.1-26.8-20.2c0,0,7.5,39.1,0.1,40c-7.4,1-5.2-44.2-5.2-44.2
		s-36.4-17.4-50.7-15.9c0,0,22.7,38.1,15.3,37.2c-7.4-0.9-32.8-39.5-32.8-39.5s-37.3-6.8-43.2,15.3s3.8,33.1,9.3,34.5
		c5.5,1.3,40.9,0.8,40.1,5.4c-0.9,4.6-24.8,12-38.1,7.9c0,0,14.8,36.3,34.1,34.4c19.3-1.9,25.3-13.9,37.2-14.8
		c11.9-0.9,20.7,2.2,14.7,5.5c-6,3.2-26.2,1.2-35.9,9.4s-17.4,13.3,0.5,16.9c17.9,3.6,50.2,1.2,56.6-12.6
		C2903.9,707,2903.8,707.2,2903.8,707.2z"/>
	<path class="st1" d="M2796,641.3c0,0,96.7,31,107.8,66c0,0-0.4,15.6,9.3,33.6v6.9c0,0-10.2-23.5-15.7-26.7
		C2897.5,721,2919,690.6,2796,641.3z"/>
	<path class="st1" d="M2913.1,740.8c0,0,14.9,22.6,6.5,50.2l-3.8-1c0,0,3.6-30.3-4.2-45.6C2903.8,729.1,2913.1,740.8,2913.1,740.8z"
		/>
	<path class="st5" d="M3128.8,950.7l-283.3,0.7c-42.1-48.3-46.4-113.5,9.6-168.4c7-6.9,20.5-11.8,35.1-15.2
		c26.9-6.4,57.2-7.8,57.5-7.9c0.1,0,16.1-13,25.7-24.7c29.9-36.2,55.3-33.1,55.3-33.1c30.5-5.9,56.4-7.6,75.7,3.1
		c17.8,10,29.9,30.6,34.4,68.6c0.9,7.2,1.4,15,1.8,23.5c1.1,30.8,7.2,58.2,10.8,81.4C3156.5,912.3,3156.6,937.1,3128.8,950.7z"/>
	<path class="st8" d="M3089.3,743.2c-18.5,10.1-20.6,43.2-49.5,51.8s-78.1,7.8-105.9,38c-26.9,29.1-56.5-45-43.7-65.9
		c26.9-6.4,57.2-7.8,57.5-7.9c0.1,0,16.1-13,25.7-24.7c29.9-36.2,55.3-33.1,55.3-33.1c30.5-5.9,56.4-7.6,75.7,3.1
		C3114.2,715.2,3107.8,733.2,3089.3,743.2z"/>
	<path class="st3" d="M2975.8,752.7c0,0-92.8-1.2-105.1,6.7c-12.4,7.9,12.8,133.5,12.8,133.5s24,0.7,25.9-5.7c0,0-4.5-58.9-0.8-69.1
		c3.7-10.2,1.4-24.3,1.4-24.3s46.9,7,61.8,3.5C2986.7,793.9,2975.8,752.7,2975.8,752.7z"/>
	<path class="st6" d="M2997.3,687.8c0,0-13.1,30.4-19.4,33.7s-29.4,29.7-34.3,29.2c-4.9-0.5,5.8,4,5.8,4s40.3-18.6,42.6-19.7
		c2.3-1.2,14.7-21.5,16.4-31.7S2997.3,687.8,2997.3,687.8z"/>
	<path class="st6" d="M2912.3,902.3c-3.1,6-3.8,16.9-4.7,20.7c-0.9,3.7-17.1,16.4-18.5,15.7c-3.5-1.6-0.1-7.8,2-12.3
		c0.1-0.2,0.1-0.3,0.3-0.5c2.1-4.5,0.3-14.7,1.4-20c1.1-5.2-4.2-19.4-4.2-19.4l9-11.3c0,0,6.3,12,10.8,14.2c0.8,0.4,1.5,0.8,2.2,1.4
		C2913.5,893.3,2914.8,897.4,2912.3,902.3z"/>
	<path class="st6" d="M2880.8,937.3c-6.2,2.5-13.8,10.5-16.9,12.8c-3.1,2.2-23.7,1.5-24.3,0c-1.7-3.6,5.4-6.2,10-8.4
		c0.1,0,0.1,0,0.2-0.1c4.5-2.3,9.6-11,13.8-14.3s9.3-17.5,9.3-17.5l14.1-2.9c0,0-2.9,13.2-0.9,17.8c0.2,0.5,0.4,0.8,0.5,1.3
		C2887.9,930.3,2886.4,934.9,2880.8,937.3z"/>
	<path class="st10" d="M3023.9,674.3c-1.9-2.2,27.9-11.2,34.3,13.3c0,0,54.9-14.6,21.2-39c-11.7-8.5-12.9-17.5-14.5-25.8
		c-1.7-8.3-13.4-32-33.6-20.2c0,0-9.3,0-15.1,5.1C3002.9,619.2,2988.3,692.5,3023.9,674.3z"/>
	<path class="st4" d="M3014.6,757c0,0-96.2,9.8-104.6,19.6c-8.5,9.8-41.7,137.5-41.7,137.5s9.8,5.5,18.7,0.3
		c0,0,25.4-43.3,36.7-56.9c11.3-13.6,15.5-55.6,17.3-56c1.8-0.5,62.2,8.4,82.9-7.5C3044.6,778.1,3014.6,757,3014.6,757z"/>
	<path class="st11" d="M3068.2,669.7c0,0-23-10.3-52.1-5.6c-5.9,0.9-11.3,2.9-15.5,9.9c-6,9.9-8.8,15.2-8.8,15.2s0.6,4.6,8.8,8.2
		c-2.2,8.2,2,22.5-1.9,28.1s-28.4,19.3-29.6,27c-2.2,14.1,41.8,39.7,54.9,36.9C3061.6,781.7,3087.3,680.5,3068.2,669.7z"/>
	<path class="st10" d="M3055.2,640.7c0,0,4.5-8.9,5.1-16.2c0.4-5.2-4-24-22.8-19.4c0,0-5.5,1-10.4,5.1c-3.9,3.2-9.3,9.8-1.1,25.8
		l2.2,5.4L3055.2,640.7z"/>
	<path class="st6" d="M3029.3,670.7c-1.9,2-1.1,8.7,7.8,8.2c5.9-0.3,18.4-7.6,17.2-12.5c-0.6-2.4-5.1-8.5-6.1-22.6l-1.1,0.3l-17.9,5
		c0,0,0.9,5.7,1.3,11.1C3030.9,664.6,3030.1,669.9,3029.3,670.7z"/>
	<path class="st12" d="M3029.3,649.1c0,0,0.9,5.7,1.3,11.1c10.1-1.1,14.8-10.8,16.6-16.1L3029.3,649.1z"/>
	<path class="st6" d="M3028.9,657.3c0,0,23.4-5.9,19.5-20.4s-3.5-25.1-18.6-21.9s-16.5,9.5-16.4,14.6
		C3013.5,634.8,3022.7,658.5,3028.9,657.3z"/>
	<path class="st10" d="M3019.1,617.5c0,0,7.9,14.9,22.7,16.6c8.7,1,11.1,6.7,11.1,6.7s-2.6-16.3-7-26.3
		C3045.9,614.5,3021.7,608.1,3019.1,617.5z"/>
	<path class="st10" d="M3021.8,619.5c0,0-5.1,5.2-6.7,8.9c-2.3,5.5,2.2,16.9,4.1,19.4c0,0-10.9-18.5-7.2-26.5
		C3015.8,612.9,3021.8,619.5,3021.8,619.5z"/>
	<path class="st6" d="M2950.5,754.2c0,0-4.6,4.9-5.2,5.2c-3.1,1.5-7,0.6-8.9,1.1s-1.5-0.7-0.1-1.6c1.4-0.9,4.8-0.6,3.4-0.9
		c-1.4-0.3-8.9-1.7-11.8-1c-4.5,1.2-8-0.2-8.3-0.7s10.3-5.6,13.3-5.4s11.7-0.3,11.7-0.3L2950.5,754.2z"/>
	<path class="st6" d="M3076,678.8c0,0,2.8,68.6-5.3,78.2c-8,9.6-57.1-1-57.1-1l-3.4-5c0,0,43.5-6.4,46.5-7.2
		c4.2-1.2,1.3-48.4,1.3-48.4L3076,678.8z"/>
	<path class="st11" d="M3065.2,668.6c0.7,0,9.4,2.9,15.6,15.2c6.1,12.1,8.3,18,8.3,18s-27.1,21-37.9,13.3
		C3040.5,707.3,3055.3,668.4,3065.2,668.6z"/>
	<path class="st6" d="M3013.7,756c0,0-3.9,3.9-5.4,6c-1.5,2-11.9,5.7-12.1,4.6c-0.3-1.1,4.6-4.4,5.1-5.6c0.4-1.2,5.8-7.4,9-8.1
		C3013.6,752.1,3013.7,756,3013.7,756z"/>
	<path class="st6" d="M3010.3,750.9c0,0-16,3.7-18.7,4.8s-8.5,9.3-6.2,10.5c1.4,0.8,7.8-2.5,11-3.2s12.3,0.9,16.4-7.3
		C3013.3,754.7,3010.3,750.9,3010.3,750.9z"/>
	<path class="st13" d="M2880.8,937.3c-6.2,2.5-13.8,10.5-16.9,12.8c-3.1,2.2-23.7,1.5-24.3,0c-1.7-3.6,5.4-6.2,10-8.4
		c0.1,0,0.1,0,0.2-0.1l0.6-0.2c0,0,8.9,3.1,16.2,0c5.7-2.4,14.2-11.6,19.9-15.3C2887.9,930.3,2886.4,934.9,2880.8,937.3z"/>
	<path class="st13" d="M2912.3,902.3c-3.1,6-3.8,16.9-4.7,20.7c-0.9,3.7-17.1,16.4-18.5,15.7c-3.5-1.6-0.1-7.8,2-12.3
		c1.3-0.1,3-0.5,4.9-1.8c4-2.7,10.9-12.9,11.6-18.9c0.5-4.9,0.2-11.9,2.9-14.9C2913.5,893.3,2914.8,897.4,2912.3,902.3z"/>
	<path class="st5" d="M2989.7,768.3H2920l-21-52.2h69.6L2989.7,768.3z"/>
	<path class="st8" d="M2919.1,766.3h92.1v2H2920L2919.1,766.3z"/>
	<path class="st14" d="M2937.6,742.3c-0.6-1.8,0.6-3.3,2.4-3.3c1.8,0,3.7,1.5,4.3,3.3s-0.6,3.3-2.4,3.3
		C2940,745.5,2938.1,744.1,2937.6,742.3z"/>
	<path class="st5" d="M3069.5,768c0,0-9.1,8.5-47.3,9.8s-87.9,43.3-88.4,55.2c-0.4,11.9,76.8,30,77.9,28.3s49-42.7,49-42.7
		L3069.5,768z"/>
	<path class="st8" d="M3151.3,878c-20.5-37-67.4,14-79.1-3.2c-11.6-17.2,16.5-39.2,41.8-58c24.9-18.5,24.8-42.6,24.8-43.6
		c0.9,7.2,1.4,15,1.7,23.5C3141.6,827.3,3147.7,854.8,3151.3,878z"/>
	<path class="st5" d="M2819.9,361.7c0.3,40.3-13.9,77.3-37.6,106.1c-20.4,24.9-31.9,55.8-31.9,87.9V602c0,13.1-4.8,25.2-12.7,34.5
		c-9.1,10.7-22.4,18-37.2,19c-1.2,0.1-2.3,0-3.5,0h-85.5c-1.1,0-2.4,0.1-3.5,0c-27.8-1.8-49.9-25.2-49.9-53.5v-46.2
		c0-32.1-11.3-63.1-31.7-87.8c-23.6-28.6-37.8-65.3-37.8-105.3c0-91.9,74.6-165.7,165.7-165.7
		C2745.5,197.1,2819.3,270.4,2819.9,361.7z"/>
	<path class="st8" d="M2700.5,655.5c-0.4,3.3-7.6,58.7-7.7,59.2c-1.2,9.1-11.7,16.1-24.1,16.1h-28.1c-12.4,0-22.8-6.9-24.1-15.9
		c-1.4-9.6-6.6-46.2-8.5-59.4L2700.5,655.5L2700.5,655.5z"/>
	<path class="st5" d="M2689.3,655.5h-0.2h-15.7c-25.6,7.4-51.1,14.7-63,18.1l0.6,4.3v0.1l0.6,4.4c9.6-2.6,32.5-9.2,88.6-25.5
		l0.2-1.5L2689.3,655.5L2689.3,655.5z"/>
	<path class="st5" d="M2614.8,703.5L2614.8,703.5l0.6,4.5c11.1-3.1,33.9-9.7,81.3-23.4l0.6-4.8l0,0l0.6-4.7
		c-30,8.7-66.4,19.2-83.8,24.2L2614.8,703.5z"/>
	<path class="st5" d="M2625.3,727l0.1,0.1c2,1.2,4.2,2.1,6.6,2.7c13-3.7,32.4-9.3,61.1-17.6l0.6-4.8l0,0l0.6-4.7
		c-25.6,7.4-55.1,15.9-73.3,21.2C2622.3,724.9,2623.7,726,2625.3,727z"/>
	<path class="st15" d="M2620.7,655.5l-35.8-211.4l7.4-1.3l36,212.6L2620.7,655.5L2620.7,655.5z"/>
	<path class="st15" d="M2684.4,655.5h-7.7l38.4-209.3l7.4,1.3L2684.4,655.5z"/>
	<path class="st15" d="M2674,482c-0.9,0-2-0.1-3.2-0.4c-2-0.5-3.3-1.8-3.7-4c-0.9-4.7,2.8-13.3,8-20.6c-2.7-4.7-6.3-8.6-10.1-9.7
		c-5.6-1.7-14.1,3.4-20,10c1.1,1.5,2,3.1,2.9,4.8c3,5.7,5.2,13.1,2.2,16.5c-1.1,1.3-3.4,2.4-7.9,0.7c-5.6-2.1-7.6-6.9-5.5-13
		c1-3,2.9-6.2,5.3-9.1c-4.6-6-10.8-10.6-16.8-9.8c-3.2,0.4-6,1.5-8.3,3.1c3.9,7.2,4.8,16.4,2.1,21.3c-1.8,3.3-5,4.4-9,3
		c-2.8-1-4.3-4.9-3.8-10c0.6-5.2,3.1-10.9,7.8-14.8c-1.2-1.9-2.6-3.5-4.3-4.8c-10.5-8.1-19.1,0.6-19.4,1l-1.6-1.6
		c0.1-0.1,10.5-10.5,22.5-1.2c1.8,1.4,3.4,3.2,4.7,5.2c2.5-1.7,5.6-3,9.2-3.4c6.8-0.9,13.6,3.9,18.6,10.3c6.5-7,15.7-12.2,22.1-10.3
		c4.1,1.3,7.9,5.1,10.8,10c2.7-3.5,5.8-6.6,8.7-8.6c4.7-3.1,7.8-2.4,9.6-1.3c1.8,1.2,3.3,2.8,4.6,4.6c1.4-1.1,2.9-2.1,4.4-2.8
		c5.5-2.7,10.5-2.5,14.2,0.5l-1.4,1.7c-3.9-3.3-9-1.6-11.7-0.3c-1.5,0.8-2.9,1.6-4.2,2.7c3.6,6.6,4.4,15.1,2.3,19.3
		c-1.3,2.6-3.7,3.5-6.4,2.5c-4.9-1.8-6.2-5.2-6.3-7.8c-0.3-4.9,3.1-10.4,7.5-14.5c-1.1-1.7-2.5-3.2-4.1-4.2c-2.1-1.4-5-0.1-7.1,1.3
		c-2.9,1.9-6,5.2-8.8,8.8c3.4,6.5,5.2,14,3.9,18.9C2680.9,478.5,2679.1,482,2674,482z M2676.2,459.3c-4.5,6.5-7.7,14-6.9,17.9
		c0.3,1.3,0.9,1.9,1.9,2.2c4.4,1,7.2-0.3,8.1-3.8C2680.4,471.4,2679,465,2676.2,459.3z M2643.4,459.1c-2.1,2.6-3.7,5.3-4.6,7.9
		c-1.7,5.1-0.3,8.5,4.2,10.2c1.8,0.7,4.2,1.3,5.4-0.1c1.8-2,0.8-7.8-2.5-14C2645.1,461.8,2644.3,460.4,2643.4,459.1z M2615,451.9
		c-3.9,3.5-6.2,8.5-6.7,13c-0.4,3.9,0.6,7,2.3,7.7c2.9,1,5,0.4,6.3-1.9C2619.2,466.5,2618.4,458.4,2615,451.9z M2698.7,453.4
		c-3.9,3.8-6.6,8.6-6.4,12.4c0.1,2.7,1.8,4.6,4.8,5.8c1.7,0.6,2.8,0.1,3.6-1.4C2702.5,466.6,2701.8,459.1,2698.7,453.4z"/>
	<path class="st15" d="M2739.7,260.8c13.6,12.9,11.9,36.5-5.6,41.7c-13.2,4-32.9-1.3-42.6-18.2c-9.7-16.9-5.2-30.7,6.7-37.6
		C2710.1,239.8,2725.5,247.4,2739.7,260.8z"/>
	<path class="st10" d="M2228.6,612.3c-1.6-3.1,34.7-14.2,35.3,16.2c0,0,68-1.7,35.6-39.6c-11.3-13.2-10.1-24-9.8-34.1
		s-7-39.5-32.2-36.5c0,0-6.6-2.7-14.8,1.6C2224,529.5,2182.1,623.4,2228.6,612.3z"/>
	<path class="st6" d="M2339.9,646.1c0,0,4.4-6.7,8-6.9s10.2-2,9.7-0.7s-4.6,1.5-5,2.2c-0.4,0.8,6.1,2,7.9,2.1c1.8,0.2,6.2,0,6.1,1
		c-0.1,0.9-7.9,4.8-13.3,4.2c-5.5-0.5-12.2,1.6-12.2,1.6L2339.9,646.1z"/>
	<path class="st11" d="M2275.8,648.3c0,0,2.4,4.8,6.8,10.3c5.3,6.6,13.4,14.2,23.6,15.7c4.9,0.7,9.6-0.3,14-2.3
		c12.4-5.5,21.7-18.1,21.7-18.1c2.2-5.9-1.4-10-1.4-10s-25,5.6-27.4,4.4c-2.4-1.2-16.2-41.2-19.6-46.2c-3.3-5-14.6-7.6-14.6-7.6
		L2275.8,648.3z"/>
	<path class="st16" d="M2282.6,658.5c5.3,6.6,13.4,14.2,23.6,15.7c4.9,0.7,9.6-0.3,14-2.3c-0.5,0-12.9,1.6-17.8-7.2
		c-5-9-10.5-23.3-17.9-18.5C2281.2,648.3,2281.4,653.4,2282.6,658.5z"/>
	<path class="st3" d="M2182.6,918c0,0-7.6,7-6.1,11.9s8.4,8.2,9.3,14.3c0.9,6,4.6,9.3,8,9.3c3.3,0,15.9,0,15.9,0s2.4-4.2-3.5-5.5
		s-8.2-8.4-7.8-15s-0.6-15.4-0.6-15.4l-12.6-2.9L2182.6,918z"/>
	<path class="st3" d="M2247.1,920.9c0,0-2.7,29.5,0.6,31.1l42.8-0.1c0,0,0-4.9-6.9-6s-19-5.1-21-14.1
		C2260.6,922.9,2247.1,920.9,2247.1,920.9z"/>
	<path class="st6" d="M2216.6,709.5c8.8-19.8,14.2-25.5,13.2-31.6c-0.8-4.6,2.3-85.1,2.3-85.1c1-0.3,3.1-0.6,4.3-0.8
		c3.6-0.8,6.6-3.3,7.9-6.8c1.5-4.2,2.7-10.4,2.7-18.2l1.1,0.2l19,3.7c0,0-0.4,6-0.4,11.6c0,0,0,0.1,0,0.2c0,4.9,3.2,9.2,7.9,10.6
		c2.4,0.7,4.5,1.3,4.5,1.3s7,19.9,8.3,40.3c1.3,20.4-12.7,29.3,0.1,70.2C2300.4,746.8,2211.7,720.4,2216.6,709.5z"/>
	<path class="st17" d="M2267,570.9c0,0-0.4,6-0.4,11.6c-10.6-0.3-16.2-10-18.5-15.3L2267,570.9z"/>
	<path class="st6" d="M2270.6,576.2c0,0-25.1,0.4-25.1-15.2s-3.3-26.2,12.8-27.1c16-1,19.2,5,20.5,10.3
		C2279.9,549.4,2277.1,575.7,2270.6,576.2z"/>
	<path class="st10" d="M2269.7,533.5c0,0-6.9,18.4-17.4,21.1c-10.6,2.7-15.1-0.1-15.1-0.1s8.1-6.4,9.8-17.7
		C2246.9,536.8,2264.4,524.8,2269.7,533.5z"/>
	<path class="st10" d="M2267.9,535c0,0,5.1,1.9,7.2,5.6c2,3.6,3.8,8.5,3.4,14.4c0,0,5.2-12.5-0.6-19.5
		C2271.7,528,2267.9,535,2267.9,535z"/>
	<path class="st11" d="M2214.2,628.4c0,0-0.6,9,0,19.8c0.4,7.2,7.7,16.7,8.7,19.1c2.6,5.9,5.5,6.9,5.5,6.9l22.5,5.5l7.9,1.9
		l24.9-7.5c0,0,11.4-31.7,6.8-49.6c-4.6-17.8-11.5-30.2-11.5-30.2s-20.4,19.9-46.8-1.7L2214.2,628.4z"/>
	<path class="st16" d="M2220.8,651.1c0.4,7.2,1.1,13.8,2.1,16.2c2.6,5.9,5.5,6.9,5.5,6.9l22.5,5.5l9.8-2.9c0,0-32.6-4.9-29-33
		L2220.8,651.1z"/>
	<path class="st8" d="M2282.1,679c0,0,12.4,38.5,13.1,51.5c0.8,13.1-23.6,185.9-24.6,192c-0.9,5.7-8,9.3-8,9.3s-3.2,1.9-7.9,0.6
		c-6.4-1.8-8.5-4-8.5-4s-9.6-123.3-3.7-167.3s6-82.1,6-82.1H2282.1L2282.1,679z"/>
	<path class="st5" d="M2229.8,677.9c0,0-18.8,25.3-20.6,42.3c-1.7,17.1-2.7,77.1-6.5,93.7s-17.5,48.7-17.5,100.7c0,0,1.4,3,5.8,4.6
		c1.4,0.5,3.3,1,5.1,1.5c3.6,0.8,7.4-1,9-4.3c9.3-18.7,38.9-79,40.4-91.6c1.1-8.9,10.4-67.5,30.8-102c4.9-8.3-3-41.1-3-41.1
		L2229.8,677.9z"/>
	<path class="st3" d="M2284.1,673.1c0,0-5,3.9-14.8,4.1c-11.8,0.3-40.9-3-40.9-3s-1.3,3.6-1.3,7.4c0,0,35.6,9,56.2,1.3
		C2283.3,683,2286,678,2284.1,673.1z"/>
	<path class="st14" d="M2266.7,681.3c0-3.3,2.4-6.1,5.4-6.1c2.9,0,5.4,2.7,5.4,6.1s-2.4,6.1-5.4,6.1
		C2269.1,687.4,2266.7,684.6,2266.7,681.3z M2268.5,681.3c0,2.4,1.6,4.3,3.6,4.3s3.6-1.9,3.6-4.3s-1.6-4.3-3.6-4.3
		S2268.5,679,2268.5,681.3z"/>
	<path class="st18" d="M2233.6,630.1l-43.5,49.9l36.5,31.8l43.5-49.9L2233.6,630.1z"/>
	<path class="st6" d="M2236.6,680.2c0,0,13.4,1.5,13.3,4.7s-3.3,9.7-5,10c-1.6,0.3-10.9-8.8-10.9-8.8L2236.6,680.2z"/>
	<path class="st11" d="M2232.1,592.8c0,0-17.8,1.2-24.7,17.9c-6.8,16.6-19.8,44.5-19.8,49.3c0,4.7,7.3,19.2,46.2,27.5
		c0,0,4-4.2,3.8-7.6c0,0-24.3-20.9-24.3-23.3c0.1-4.6,4-10.7,25.3-32C2244.5,618.6,2232.1,592.8,2232.1,592.8z"/>
	<path class="st19" d="M2386.4,952.6h-0.1c-1,0-1.8-0.8-1.8-1.8l2.7-116.7l7.9-0.9l-6.8,117.7
		C2388.3,951.8,2387.4,952.6,2386.4,952.6z"/>
	<path class="st20" d="M2513.9,952.6h0.1c1,0,1.8-0.8,1.8-1.8l-2.7-116.7l-7.9-0.9l6.8,117.7
		C2512.1,951.8,2512.9,952.6,2513.9,952.6z"/>
	<path class="st20" d="M2381.1,826.8v-80c0-14.1,11.4-25.5,25.5-25.5h57.6c14.1,0,25.5,11.4,25.5,25.5v83L2381.1,826.8z"/>
	<path class="st19" d="M2500,839.4h-111.3c-4.2,0-7.7-3.4-7.7-7.7v-5h119V839.4L2500,839.4L2500,839.4z"/>
	<path class="st20" d="M2513.4,839.4h-84.2c-3.1,0-5.7-2.5-5.7-5.7v-1.3c0-3.1,2.5-5.7,5.7-5.7h84.2c3.1,0,5.7,2.5,5.7,5.7v1.3
		C2519,837,2516.5,839.4,2513.4,839.4z"/>
	<path class="st3" d="M2510.1,806.9c-8.3,14.3-18.6,19.9-18.6,19.9h-43.2C2448.3,826.8,2516.4,796,2510.1,806.9z"/>
	<path class="st6" d="M2476.9,918c-1.1,1.3-1.2,2.7-0.7,4.3c1.1,2.8,4.4,6,8.4,9.2c0.5,0.4,0.9,0.8,1.3,1.2c0.1,0.1,0.2,0.2,0.3,0.3
		s0.1,0.2,0.3,0.2c3.7,3.4,2.3,4.2,8.9,11.1c7.6,7.9,12.8,8,14.2,7.3c1.3-0.6-1.3-4.8-4.1-9.5c-0.1-0.3-0.3-0.5-0.4-0.7
		c-0.4-0.6-0.8-1.2-1.1-1.9c-3.3-5.6-2.4-8.3-1.7-16.7c0.6-6.8,10.6-38.1,10.6-38.1l-14.5-2.5c0,0-4.4,24.9-9.2,28.7
		c-2.6,2-5.4,2.1-7.9,3.6c-0.2,0.1-0.4,0.2-0.5,0.3C2479.5,915.8,2478.1,916.8,2476.9,918z"/>
	<path class="st3" d="M2476.9,918c-1.1,1.3-1.2,2.7-0.7,4.3c1.2,2.8,4.6,6,8.4,9.2c0.5,0.4,0.9,0.8,1.3,1.2c0.1,0.1,0.2,0.2,0.3,0.3
		s0.1,0.2,0.3,0.2c3.7,3.4,2.3,4.2,8.9,11.1c7.6,7.9,12.8,8,14.3,7.3c1.2-0.6-1.3-4.8-4.1-9.5c-1.5-0.5-8.3-3.3-13.4-9.9
		c-4.5-5.8-7.6-13.3-10.7-17.6c-0.2,0.1-0.4,0.2-0.5,0.3C2479.5,915.8,2478.1,916.8,2476.9,918z"/>
	<path class="st6" d="M2593.6,909c0.9,4.5,7.3,3.7,14.4,2c7.1-1.7,5.4,0.3,15.5-0.8s13.2-4.9,13.5-6.4c0.3-1.3-4.7-1.8-10.1-2.4
		c-0.7-0.1-1.3-0.2-2-0.3c-6.1-0.8-10.5-4.7-16-7.9c-5.2-3-13-15.4-13-15.4l-13.9,1.1c0,0,7.3,11.1,10.1,15.9
		c1.6,2.8,1.6,6.6,1.4,9.5C2593.4,905.8,2593.3,907.4,2593.6,909z"/>
	<path class="st3" d="M2608,911c7.1-1.7,5.4,0.3,15.5-0.8s13.2-4.9,13.5-6.4c0.3-1.3-4.7-1.8-10.1-2.4l-0.1,0.1
		c0,0-6.1,4.3-14.5,4.5c-6.9,0.2-14.1-1.8-18.9-1.7c-0.1,1.6-0.2,3.2,0.1,4.7C2594.5,913.5,2600.9,912.8,2608,911z"/>
	<path class="st3" d="M2540.4,820.2l-13,34.9l-16.9,45.6c0,0-4.6,0.5-9-0.8c-4-1.2-8.7-4.2-8.7-4.2s4.7-49,13.5-77.1
		c2.2-7.2,4.8-13,7.6-16.3C2527.4,786.2,2540.4,820.2,2540.4,820.2z"/>
	<path class="st4" d="M2527.2,764.8c-8.5-2.7-32.8,0.8-57.1,5.5l-5.1-8.4l-52.6-4.1c0,0-17.4,38.5-7.9,63.1c1.4,3.6,4.2,5.9,8.9,6
		h0.8c0,0,31.3,0,41.5,0c26.1,0,55.4-18,59.2-18.7c6.2-1.2,8.7,11.2,14.8,24.1c6.2,13,58.2,57.5,58.2,57.5s8,0.1,11.3-1.2
		c3.5-1.3,4.8-3,4.8-3S2546.4,771,2527.2,764.8z"/>
	<path class="st18" d="M2462.9,608.7c-6.7-3.5-17-4-18.7-4.2c-19.9-2.7-31.9,26.3-32.7,35.1c-1.3,16.2-9.9,18.6-21.9,28.8
		c-24.2,20.3-17.1,43.9-3.9,52.7c7.9,5.3,21.9,0,21.9,0c0.2,0.2,38.2-21.3,56.9-31.6C2492.8,685.4,2480.1,617.7,2462.9,608.7z"/>
	<path class="st6" d="M2449,680.7c0.1,0-9.2,3.2-15.4,0.5c-5.8-2.6-10.3-12.2-10.2-12.2c2.6-0.1,5.6-2.4,7.8-17.7l1.1,0.4l19.1,6.9
		c0,0-1.4,6.1-2.3,12C2448.3,675.3,2447.9,680,2449,680.7z"/>
	<path class="st21" d="M2451.4,658.4c0,0-1.4,6.1-2.3,12c-11-2-15.2-12.9-16.8-18.8L2451.4,658.4z"/>
	<path class="st6" d="M2454.2,664.5c0,0-26.1-3.5-23.7-19.7s0.7-27.6,17.4-26c16.7,1.5,19.1,8.2,19.6,13.8
		C2468.1,638.2,2461,665,2454.2,664.5z"/>
	<path class="st18" d="M2466.6,623.7c0,0-16.7,14.4-28,15.5c-11.4,1.2-15.6-2.5-15.6-2.5s6.7-5.6,10.7-14.5c1.2-2.6,3.7-4.4,6.6-4.7
		C2448.3,616.8,2463.7,616.5,2466.6,623.7z"/>
	<path class="st18" d="M2456.1,622.4c0,0,5.6,5.4,7.3,9.4c1.7,3.9,2.2,13.1,0.9,16.8c0,0,8.7-16.9,3.8-25.2
		C2462.9,614.8,2456.1,622.4,2456.1,622.4z"/>
	<path class="st11" d="M2470.9,719c-0.8,52.8-0.2,41.7-6,46.8c-1.4,1.2-5.3,1.9-10.5,2.2c-16.2,1.1-44.6-1.6-45.7-4.6
		c-3.7-10.4-1.1-13.5-4.2-29.4c-0.4-1.7-0.8-3.5-1.2-5.5c-2.6-10.9-5.1-14.6,4.1-32.1c8.4-15.8,17-28.7,17.8-28.2
		c22.1,13.1,23.8,2.1,23.8,2.1S2471.3,693.3,2470.9,719z"/>
	<path class="st4" d="M2527.4,855.2l-16.9,45.6c0,0-4.6,0.5-9-0.8c-4-1.2-8.7-4.2-8.7-4.2s4.7-49,13.5-77.1L2527.4,855.2z"/>
	<path class="st11" d="M2449.1,670.4c0,0,22.7,3.8,25.4,13.6c2.6,9.8,18.3,67.2,18.3,67.2s-11.6,2.1-16.8-3.2s-18.5-49.4-18.5-49.4
		L2449.1,670.4z"/>
	<path class="st16" d="M2454.5,768.1c-16.2,1.1-44.6-1.6-45.7-4.6c-3.7-10.4-1.1-13.5-4.2-29.4l7.8-22c0,0-1.3,24.5,5.9,30.9
		s29.5,12.5,33.1,17.8C2453.1,763.4,2454.2,766,2454.5,768.1z"/>
	<path class="st6" d="M2435.9,757.8c0,0,16-3.5,18.5-2.1c2.6,1.4,8.9,6.6,9.7,8.4c0.8,1.8-5.7-1.3-7.9-1.9c-1.4-0.3-5,0.9-6.8,1.5
		c-7.5,2.5-12.1,1.2-12.1,1.2L2435.9,757.8z"/>
	<path class="st11" d="M2425.2,668.3c0,0-21.4,1.3-28.8,11.7c-10.5,14.6-31.2,76.7-19.3,85c13.4,9.3,60.9,2.4,60.9,2.4
		s1.6-7.4-0.6-11c-2.2-3.6-37.9-9.4-39.6-11c-1.6-1.6,20.6-32.2,20.6-37.1C2418.4,703.4,2425.2,668.3,2425.2,668.3z"/>
	<path class="st6" d="M2455.3,760.1c0,0,3.3,4.3,4.4,4.8c1.1,0.5,1.8,0.4,1.8,0.4l-2.2-4L2455.3,760.1z"/>
	<path class="st6" d="M2454.5,755.7l9.7,4.7c0,0-0.4,0.7-1.6,0.6c-1.2,0-4.2-1.2-4.2-1.2L2454.5,755.7z"/>
	<path class="st5" d="M2459.7,771.5h77l23.2-57.6H2483L2459.7,771.5z"/>
	<path class="st8" d="M2537.5,769.3h-101.6v2.2h100.7L2537.5,769.3z"/>
	<path class="st14" d="M2517.2,742.8c0.6-2-0.6-3.7-2.6-3.7s-4.1,1.6-4.7,3.7s0.6,3.7,2.6,3.7S2516.6,744.8,2517.2,742.8z"/>
	<path class="st3" d="M2703.5,954.2h0.3c1.3,0,2.4-1.2,2.3-2.6l-3.5-170.3l-10.5-1.3l9,171.6
		C2701.1,953.1,2702.2,954.2,2703.5,954.2z"/>
	<path class="st3" d="M2438.5,954.2h-0.2c-1.3,0-2.4-1.2-2.3-2.6l3.5-170.3l10.5-1.3l-9,171.6C2441,953.1,2439.8,954.2,2438.5,954.2
		z"/>
	<path class="st3" d="M2720.7,783.7h-295.6c-2.3,0-4.2-1.9-4.2-4.2v-3.7c0-2.3,1.9-4.2,4.2-4.2h295.6c2.3,0,4.2,1.9,4.2,4.2v3.7
		C2725,781.8,2723.1,783.7,2720.7,783.7z"/>
	<path class="st13" d="M3311.7,956.1H1914.8c-1.1,0-1.9-0.8-1.9-1.9v-1.5c0-1,0.8-1.9,1.9-1.9h1396.9c1.1,0,1.9,0.8,1.9,1.9v1.5
		C3313.6,955.3,3312.7,956.1,3311.7,956.1z"/>
	<path class="st2" d="M2934.1,303l57.7,9.1l-38-26.8l-2.1,8.4l-14.1,2.3L2934.1,303z"/>
	<path class="st14" d="M2991.8,312.2l-47.7-25.5l-47.1-3.1L2991.8,312.2z"/>
	<path class="st14" d="M2953.8,285.4l38,26.8l-29.1-41.3L2953.8,285.4z"/>
	<path class="st2" d="M2380.7,359.7l-75.1,21.6l46-41.7l4.1,10.7l19.1,0.8L2380.7,359.7z"/>
	<path class="st22" d="M2305.6,381.4l59.2-41.8l62.1-11.8L2305.6,381.4z"/>
	<path class="st22" d="M2351.6,339.6l-46,41.7l31.8-59.7L2351.6,339.6z"/>
</g>
<g>
	<path class="st23" d="M1912.3,94.2h32.3c23.9,0,40.3,14.8,40.3,36.9s-16.3,36.9-40.3,36.9h-32.3V94.2z M1943.9,156.4
		c16.4,0,27.1-10,27.1-25.3s-10.6-25.3-27.1-25.3H1926v50.6H1943.9z"/>
	<path class="st23" d="M2050.8,144h-44.2c1.6,8.2,8.4,13.5,18.2,13.5c6.3,0,11.3-2,15.3-6.1l7.1,8.1c-5.1,6-13,9.2-22.7,9.2
		c-18.9,0-31.1-12.1-31.1-28.9s12.3-28.8,29.1-28.8c16.4,0,28.4,11.5,28.4,29.1C2051,141.2,2050.9,142.8,2050.8,144z M2006.5,135.3
		h31.9c-1.1-8.1-7.3-13.7-15.9-13.7C2014,121.6,2007.8,127.1,2006.5,135.3z"/>
	<path class="st23" d="M2063.7,89.8h13.2V168h-13.2V89.8z"/>
	<path class="st23" d="M2092.3,94.5c0-4.4,3.6-7.9,8.4-7.9s8.4,3.3,8.4,7.6c0,4.6-3.5,8.2-8.4,8.2
		C2095.9,102.4,2092.3,98.9,2092.3,94.5z M2094.1,111.7h13.2V168h-13.2V111.7z"/>
	<path class="st23" d="M2177.3,111.7l-24.1,56.3h-13.6l-24.1-56.3h13.7l17.5,41.7l18-41.7H2177.3z"/>
	<path class="st23" d="M2236.6,144h-44.1c1.6,8.2,8.4,13.5,18.2,13.5c6.3,0,11.3-2,15.3-6.1l7.1,8.1c-5.1,6-13,9.2-22.7,9.2
		c-18.9,0-31.1-12.1-31.1-28.9s12.3-28.8,29.1-28.8c16.4,0,28.4,11.5,28.4,29.1C2236.8,141.2,2236.7,142.8,2236.6,144z
		 M2192.3,135.3h31.9c-1.1-8.1-7.3-13.7-15.9-13.7C2199.8,121.6,2193.6,127.1,2192.3,135.3z"/>
	<path class="st23" d="M2282,111v12.5c-1.2-0.2-2.1-0.3-3.1-0.3c-10,0-16.3,5.9-16.3,17.4v27.3h-13.2v-56.3h12.5v8.2
		C2265.8,114,2272.6,111,2282,111z"/>
	<path class="st23" d="M1944.2,268.4v26h-13.7v-25.8l-29-47.9h14.7l21.6,35.9l21.8-35.9h13.5L1944.2,268.4z"/>
	<path class="st23" d="M1969.8,266.3c0-16.9,12.7-28.8,29.9-28.8c17.5,0,30,11.9,30,28.8s-12.5,28.9-30,28.9
		C1982.4,295.1,1969.8,283.1,1969.8,266.3z M2016.4,266.3c0-10.8-7.2-17.6-16.8-17.6c-9.5,0-16.7,6.9-16.7,17.6s7.2,17.6,16.7,17.6
		C2009.3,283.9,2016.4,277,2016.4,266.3z"/>
	<path class="st23" d="M2096.9,238.1v56.3h-12.5v-7.2c-4.2,5.2-10.9,7.9-18.1,7.9c-14.4,0-24.2-7.9-24.2-24.9v-32.1h13.2v30.3
		c0,10.2,4.9,15.1,13.2,15.1c9.2,0,15.4-5.7,15.4-17v-28.4L2096.9,238.1L2096.9,238.1z"/>
	<path class="st23" d="M2146.7,237.5V250c-1.2-0.2-2.1-0.3-3.1-0.3c-10,0-16.3,5.9-16.3,17.4v27.3h-13.2v-56.3h12.5v8.2
		C2130.5,240.4,2137.3,237.5,2146.7,237.5z"/>
	<path class="st23" d="M2188.7,220.6h13.7v73.8h-13.7V220.6z"/>
	<path class="st23" d="M2276.2,216.2v78.2h-12.6v-7.3c-4.4,5.4-11,8-18.6,8c-16.3,0-28.4-11.4-28.4-28.9s12.1-28.8,28.4-28.8
		c7.3,0,13.7,2.4,18.1,7.6v-28.9L2276.2,216.2L2276.2,216.2z M2263.2,266.3c0-10.8-7.3-17.6-16.8-17.6s-16.8,6.9-16.8,17.6
		s7.3,17.6,16.8,17.6C2256,283.9,2263.2,277,2263.2,266.3z"/>
	<path class="st23" d="M2346.2,270.5H2302c1.6,8.2,8.4,13.5,18.2,13.5c6.3,0,11.3-2,15.3-6.1l7.1,8.1c-5.1,6-13,9.2-22.7,9.2
		c-18.9,0-31.1-12.1-31.1-28.9s12.3-28.8,29.1-28.8c16.4,0,28.4,11.5,28.4,29.1C2346.4,267.6,2346.3,269.2,2346.2,270.5z
		 M2301.9,261.7h31.9c-1.1-8.1-7.3-13.7-15.9-13.7C2309.4,248,2303.2,253.5,2301.9,261.7z"/>
	<path class="st23" d="M2404.6,261.4v33h-12.4v-6.9c-3.2,4.9-9.3,7.6-17.7,7.6c-12.9,0-21-7.1-21-16.9c0-9.4,6.3-16.8,23.4-16.8
		h14.5v-0.8c0-7.7-4.6-12.2-14-12.2c-6.3,0-12.9,2.1-17.1,5.6l-5.2-9.6c6-4.6,14.8-6.9,23.8-6.9
		C2395.2,237.5,2404.6,245.2,2404.6,261.4z M2391.4,276.8v-6.5h-13.6c-9,0-11.4,3.4-11.4,7.5c0,4.7,4,7.8,10.8,7.8
		C2383.6,285.5,2389.2,282.6,2391.4,276.8z"/>
</g>
<g>
	<path class="st4" d="M3009.1,1081.2l4.7-10.6c5.9,4.7,15.2,8.1,24.3,8.1c11.5,0,16.3-4.1,16.3-9.6c0-15.9-43.7-5.5-43.7-32.8
		c0-11.9,9.5-22,29.6-22c8.8,0,18.1,2.3,24.5,6.5l-4.3,10.6c-6.6-3.9-13.9-5.8-20.3-5.8c-11.4,0-16,4.4-16,10
		c0,15.7,43.6,5.5,43.6,32.5c0,11.8-9.6,21.9-29.7,21.9C3026.7,1090.1,3015.2,1086.5,3009.1,1081.2z"/>
	<path class="st4" d="M3113.9,1086c-3.1,2.5-7.9,3.8-12.6,3.8c-12.3,0-19.3-6.5-19.3-18.9v-27h-9.3v-10.5h9.3v-12.8h13.1v12.8h15
		v10.5h-15v26.7c0,5.5,2.7,8.4,7.8,8.4c2.7,0,5.4-0.7,7.4-2.3L3113.9,1086z"/>
	<path class="st4" d="M3175.4,1065.2h-44c1.6,8.2,8.4,13.4,18.2,13.4c6.3,0,11.3-2,15.2-6.1l7,8.1c-5,6-12.9,9.1-22.6,9.1
		c-18.8,0-31-12.1-31-28.8s12.3-28.7,29-28.7c16.4,0,28.4,11.5,28.4,29C3175.6,1062.3,3175.5,1063.9,3175.4,1065.2z M3131.2,1056.4
		h31.9c-1.1-8.1-7.3-13.7-15.9-13.7C3138.7,1042.8,3132.5,1048.2,3131.2,1056.4z"/>
	<path class="st4" d="M3247.8,1060.9c0,17.4-12.1,28.8-28.5,28.8c-7.1,0-13.4-2.4-18-7.6v27.2h-13.1v-76.5h12.5v7.4
		c4.4-5.4,10.9-8,18.6-8C3235.7,1032.3,3247.8,1043.6,3247.8,1060.9z M3234.4,1060.9c0-10.7-7.1-17.6-16.6-17.6s-16.7,6.8-16.7,17.6
		s7.3,17.6,16.7,17.6C3227.3,1078.5,3234.4,1071.7,3234.4,1060.9z"/>
	<path class="st4" d="M3310.7,1015.4v73.6H3297v-62.1h-15.6v-11.5H3310.7L3310.7,1015.4z"/>
</g>
</svg>
